<?xml version="1.0" encoding="UTF-8" standalone="no"?>
<!DOCTYPE svg PUBLIC "-//W3C//DTD SVG 1.1//EN"
 "http://www.w3.org/Graphics/SVG/1.1/DTD/svg11.dtd">
<!-- Generated by graphviz version 2.38.0 (20140413.2041)
 -->
<!-- Title: FlagsForFile Pages: 1 -->
<svg width="379pt" height="116pt"
 viewBox="0.00 0.00 379.00 115.50" xmlns="http://www.w3.org/2000/svg" xmlns:xlink="http://www.w3.org/1999/xlink">
<g id="graph0" class="graph" transform="scale(1 1) rotate(0) translate(4 111.5)">
<title>FlagsForFile</title>
<polygon fill="white" stroke="none" points="-4,4 -4,-111.5 375,-111.5 375,4 -4,4"/>
<!-- Node1 -->
<g id="node1" class="node"><title>Node1</title>
<polygon fill="#bfbfbf" stroke="black" points="0,-50 0,-69 71,-69 71,-50 0,-50"/>
<text text-anchor="middle" x="35.5" y="-57" font-family="Helvetica,sans-Serif" font-size="10.00">FlagsForFile</text>
</g>
<!-- Node2 -->
<g id="node2" class="node"><title>Node2</title>
<g id="a_node2"><a xlink:href="_8ycm__extra__conf_8py.html#a28506547e5aee74e22557e0d523fbba7" target="_top" xlink:title="DirectoryOfThisScript">
<polygon fill="white" stroke="black" points="118.5,-88 118.5,-107 229.5,-107 229.5,-88 118.5,-88"/>
<text text-anchor="middle" x="174" y="-95" font-family="Helvetica,sans-Serif" font-size="10.00">DirectoryOfThisScript</text>
</a>
</g>
</g>
<!-- Node1&#45;&gt;Node2 -->
<g id="edge1" class="edge"><title>Node1&#45;&gt;Node2</title>
<path fill="none" stroke="midnightblue" d="M70.9447,-69.089C88.4847,-73.9719 110.01,-79.9643 128.763,-85.185"/>
<polygon fill="midnightblue" stroke="midnightblue" points="127.994,-88.6039 138.566,-87.9141 129.871,-81.8603 127.994,-88.6039"/>
</g>
<!-- Node3 -->
<g id="node3" class="node"><title>Node3</title>
<g id="a_node3"><a xlink:href="_8ycm__extra__conf_8py.html#a1c7294d0bfbd409f9d5d418ed3e91a52" target="_top" xlink:title="GetCompilationInfoForFile">
<polygon fill="white" stroke="black" points="108.5,-50 108.5,-69 239.5,-69 239.5,-50 108.5,-50"/>
<text text-anchor="middle" x="174" y="-57" font-family="Helvetica,sans-Serif" font-size="10.00">GetCompilationInfoForFile</text>
</a>
</g>
</g>
<!-- Node1&#45;&gt;Node3 -->
<g id="edge2" class="edge"><title>Node1&#45;&gt;Node3</title>
<path fill="none" stroke="midnightblue" d="M71.2979,-59.5C79.5928,-59.5 88.7636,-59.5 98.1019,-59.5"/>
<polygon fill="midnightblue" stroke="midnightblue" points="98.2673,-63.0001 108.267,-59.5 98.2673,-56.0001 98.2673,-63.0001"/>
</g>
<!-- Node5 -->
<g id="node5" class="node"><title>Node5</title>
<g id="a_node5"><a xlink:href="_8ycm__extra__conf_8py.html#aa17b17787ee25ee278fe0330e8245fb8" target="_top" xlink:title="MakeRelativePathsInFlags\lAbsolute">
<polygon fill="white" stroke="black" points="107,-0.5 107,-30.5 241,-30.5 241,-0.5 107,-0.5"/>
<text text-anchor="start" x="115" y="-18.5" font-family="Helvetica,sans-Serif" font-size="10.00">MakeRelativePathsInFlags</text>
<text text-anchor="middle" x="174" y="-7.5" font-family="Helvetica,sans-Serif" font-size="10.00">Absolute</text>
</a>
</g>
</g>
<!-- Node1&#45;&gt;Node5 -->
<g id="edge4" class="edge"><title>Node1&#45;&gt;Node5</title>
<path fill="none" stroke="midnightblue" d="M66.1185,-49.9527C80.8007,-45.2199 99.0394,-39.3408 116.269,-33.7868"/>
<polygon fill="midnightblue" stroke="midnightblue" points="117.819,-36.9646 126.263,-30.5654 115.672,-30.3022 117.819,-36.9646"/>
</g>
<!-- Node4 -->
<g id="node4" class="node"><title>Node4</title>
<g id="a_node4"><a xlink:href="_8ycm__extra__conf_8py.html#a38a706def8307cce6e9348c3379274bd" target="_top" xlink:title="IsHeaderFile">
<polygon fill="white" stroke="black" points="288,-50 288,-69 360,-69 360,-50 288,-50"/>
<text text-anchor="middle" x="324" y="-57" font-family="Helvetica,sans-Serif" font-size="10.00">IsHeaderFile</text>
</a>
</g>
</g>
<!-- Node3&#45;&gt;Node4 -->
<g id="edge3" class="edge"><title>Node3&#45;&gt;Node4</title>
<path fill="none" stroke="midnightblue" d="M239.915,-59.5C252.65,-59.5 265.749,-59.5 277.674,-59.5"/>
<polygon fill="midnightblue" stroke="midnightblue" points="277.812,-63.0001 287.812,-59.5 277.812,-56.0001 277.812,-63.0001"/>
</g>
<!-- Node6 -->
<g id="node6" class="node"><title>Node6</title>
<g id="a_node6"><a xlink:href="namespacepysc_1_1api_1_1cci.html#aa7cca9d71501549a754abc67a861a11a" target="_top" xlink:title="pysc::api::cci::list">
<polygon fill="white" stroke="black" points="277,-6 277,-25 371,-25 371,-6 277,-6"/>
<text text-anchor="middle" x="324" y="-13" font-family="Helvetica,sans-Serif" font-size="10.00">pysc::api::cci::list</text>
</a>
</g>
</g>
<!-- Node5&#45;&gt;Node6 -->
<g id="edge5" class="edge"><title>Node5&#45;&gt;Node6</title>
<path fill="none" stroke="midnightblue" d="M241.208,-15.5C249.744,-15.5 258.42,-15.5 266.774,-15.5"/>
<polygon fill="midnightblue" stroke="midnightblue" points="266.774,-19.0001 276.774,-15.5 266.774,-12.0001 266.774,-19.0001"/>
</g>
</g>
</svg>
