<?xml version="1.0" encoding="UTF-8" standalone="no"?>
<!DOCTYPE svg PUBLIC "-//W3C//DTD SVG 1.1//EN"
 "http://www.w3.org/Graphics/SVG/1.1/DTD/svg11.dtd">
<!-- Generated by graphviz version 2.36.0 (20140111.2315)
 -->
<!-- Title: FlagsForFile Pages: 1 -->
<svg width="380pt" height="115pt"
 viewBox="0.00 0.00 380.00 115.00" xmlns="http://www.w3.org/2000/svg" xmlns:xlink="http://www.w3.org/1999/xlink">
<g id="graph0" class="graph" transform="scale(1 1) rotate(0) translate(4 111)">
<title>FlagsForFile</title>
<polygon fill="white" stroke="none" points="-4,4 -4,-111 376,-111 376,4 -4,4"/>
<!-- Node1 -->
<g id="node1" class="node"><title>Node1</title>
<polygon fill="#bfbfbf" stroke="black" points="0.5,-49.5 0.5,-68.5 71.5,-68.5 71.5,-49.5 0.5,-49.5"/>
<text text-anchor="middle" x="36" y="-56.5" font-family="Helvetica,sans-Serif" font-size="10.00">FlagsForFile</text>
</g>
<!-- Node2 -->
<g id="node2" class="node"><title>Node2</title>
<g id="a_node2"><a xlink:href="_8ycm__extra__conf_8py.html#a28506547e5aee74e22557e0d523fbba7" target="_top" xlink:title="DirectoryOfThisScript">
<polygon fill="white" stroke="black" points="119.5,-87.5 119.5,-106.5 230.5,-106.5 230.5,-87.5 119.5,-87.5"/>
<text text-anchor="middle" x="175" y="-94.5" font-family="Helvetica,sans-Serif" font-size="10.00">DirectoryOfThisScript</text>
</a>
</g>
</g>
<!-- Node1&#45;&gt;Node2 -->
<g id="edge1" class="edge"><title>Node1&#45;&gt;Node2</title>
<path fill="none" stroke="midnightblue" d="M71.5709,-68.589C89.1752,-73.4719 110.779,-79.4643 129.601,-84.685"/>
<polygon fill="midnightblue" stroke="midnightblue" points="128.868,-88.1138 139.44,-87.4141 130.739,-81.3685 128.868,-88.1138"/>
</g>
<!-- Node3 -->
<g id="node3" class="node"><title>Node3</title>
<g id="a_node3"><a xlink:href="_8ycm__extra__conf_8py.html#a1c7294d0bfbd409f9d5d418ed3e91a52" target="_top" xlink:title="GetCompilationInfoForFile">
<polygon fill="white" stroke="black" points="109.5,-49.5 109.5,-68.5 240.5,-68.5 240.5,-49.5 109.5,-49.5"/>
<text text-anchor="middle" x="175" y="-56.5" font-family="Helvetica,sans-Serif" font-size="10.00">GetCompilationInfoForFile</text>
</a>
</g>
</g>
<!-- Node1&#45;&gt;Node3 -->
<g id="edge2" class="edge"><title>Node1&#45;&gt;Node3</title>
<path fill="none" stroke="midnightblue" d="M71.5709,-59C80.1015,-59 89.5713,-59 99.2086,-59"/>
<polygon fill="midnightblue" stroke="midnightblue" points="99.28,-62.5001 109.28,-59 99.2799,-55.5001 99.28,-62.5001"/>
</g>
<!-- Node5 -->
<g id="node5" class="node"><title>Node5</title>
<g id="a_node5"><a xlink:href="_8ycm__extra__conf_8py.html#aa17b17787ee25ee278fe0330e8245fb8" target="_top" xlink:title="MakeRelativePathsInFlags\lAbsolute">
<polygon fill="white" stroke="black" points="108,-0 108,-30 242,-30 242,-0 108,-0"/>
<text text-anchor="start" x="116" y="-18" font-family="Helvetica,sans-Serif" font-size="10.00">MakeRelativePathsInFlags</text>
<text text-anchor="middle" x="175" y="-7" font-family="Helvetica,sans-Serif" font-size="10.00">Absolute</text>
</a>
</g>
</g>
<!-- Node1&#45;&gt;Node5 -->
<g id="edge4" class="edge"><title>Node1&#45;&gt;Node5</title>
<path fill="none" stroke="midnightblue" d="M66.727,-49.4527C81.6007,-44.6757 100.111,-38.7308 117.546,-33.1311"/>
<polygon fill="midnightblue" stroke="midnightblue" points="118.641,-36.4556 127.092,-30.0654 116.501,-29.7909 118.641,-36.4556"/>
</g>
<!-- Node4 -->
<g id="node4" class="node"><title>Node4</title>
<g id="a_node4"><a xlink:href="_8ycm__extra__conf_8py.html#a38a706def8307cce6e9348c3379274bd" target="_top" xlink:title="IsHeaderFile">
<polygon fill="white" stroke="black" points="289,-49.5 289,-68.5 361,-68.5 361,-49.5 289,-49.5"/>
<text text-anchor="middle" x="325" y="-56.5" font-family="Helvetica,sans-Serif" font-size="10.00">IsHeaderFile</text>
</a>
</g>
</g>
<!-- Node3&#45;&gt;Node4 -->
<g id="edge3" class="edge"><title>Node3&#45;&gt;Node4</title>
<path fill="none" stroke="midnightblue" d="M240.915,-59C253.65,-59 266.749,-59 278.674,-59"/>
<polygon fill="midnightblue" stroke="midnightblue" points="278.812,-62.5001 288.812,-59 278.812,-55.5001 278.812,-62.5001"/>
</g>
<!-- Node6 -->
<g id="node6" class="node"><title>Node6</title>
<g id="a_node6"><a xlink:href="namespacepysc_1_1api_1_1cci.html#aa7cca9d71501549a754abc67a861a11a" target="_top" xlink:title="pysc::api::cci::list">
<polygon fill="white" stroke="black" points="278,-5.5 278,-24.5 372,-24.5 372,-5.5 278,-5.5"/>
<text text-anchor="middle" x="325" y="-12.5" font-family="Helvetica,sans-Serif" font-size="10.00">pysc::api::cci::list</text>
</a>
</g>
</g>
<!-- Node5&#45;&gt;Node6 -->
<g id="edge5" class="edge"><title>Node5&#45;&gt;Node6</title>
<path fill="none" stroke="midnightblue" d="M242.208,-15C250.744,-15 259.42,-15 267.774,-15"/>
<polygon fill="midnightblue" stroke="midnightblue" points="267.774,-18.5001 277.774,-15 267.774,-11.5001 267.774,-18.5001"/>
</g>
</g>
</svg>
