<?xml version="1.0" encoding="UTF-8" standalone="no"?>
<!DOCTYPE svg PUBLIC "-//W3C//DTD SVG 1.1//EN"
 "http://www.w3.org/Graphics/SVG/1.1/DTD/svg11.dtd">
<!-- Generated by graphviz version 2.26.0 (20091210.2329)
 -->
<!-- Title: core/common/trapgen/ABIIf.hpp Pages: 1 -->
<svg width="818pt" height="512pt"
 viewBox="0.00 0.00 818.00 512.00" xmlns="http://www.w3.org/2000/svg" xmlns:xlink="http://www.w3.org/1999/xlink">
<g id="graph1" class="graph" transform="scale(1 1) rotate(0) translate(4 508)">
<title>core/common/trapgen/ABIIf.hpp</title>
<polygon fill="white" stroke="white" points="-4,5 -4,-508 815,-508 815,5 -4,5"/>
<!-- Node1 -->
<g id="node1" class="node"><title>Node1</title>
<polygon fill="#bfbfbf" stroke="black" points="361.5,-469 361.5,-503 472.5,-503 472.5,-469 361.5,-469"/>
<text text-anchor="start" x="369.5" y="-490" font-family="Helvetica,sans-Serif" font-size="10.00">core/common/trapgen</text>
<text text-anchor="middle" x="417" y="-477" font-family="Helvetica,sans-Serif" font-size="10.00">/ABIIf.hpp</text>
</g>
<!-- Node2 -->
<g id="node3" class="node"><title>Node2</title>
<a xlink:href="GDBStub_8hpp.html" target="_top" xlink:title="core/common/trapgen\l/debugger/GDBStub.hpp">
<polygon fill="white" stroke="black" points="311.5,-307 311.5,-341 434.5,-341 434.5,-307 311.5,-307"/>
<text text-anchor="start" x="319.5" y="-328" font-family="Helvetica,sans-Serif" font-size="10.00">core/common/trapgen</text>
<text text-anchor="middle" x="373" y="-315" font-family="Helvetica,sans-Serif" font-size="10.00">/debugger/GDBStub.hpp</text>
</a>
</g>
<!-- Node1&#45;&gt;Node2 -->
<g id="edge2" class="edge"><title>Node1&#45;&gt;Node2</title>
<path fill="none" stroke="midnightblue" d="M405.606,-459.224C402.215,-450.631 398.691,-441.005 396,-432 386.56,-400.407 379.422,-362.514 375.755,-341.048"/>
<polygon fill="midnightblue" stroke="midnightblue" points="402.463,-460.788 409.467,-468.738 408.95,-458.156 402.463,-460.788"/>
</g>
<!-- Node9 -->
<g id="node18" class="node"><title>Node9</title>
<a xlink:href="osEmulator_8hpp.html" target="_top" xlink:title="core/common/trapgen\l/osEmulator/osEmulator.hpp">
<polygon fill="white" stroke="black" points="0,-307 0,-341 140,-341 140,-307 0,-307"/>
<text text-anchor="start" x="8" y="-328" font-family="Helvetica,sans-Serif" font-size="10.00">core/common/trapgen</text>
<text text-anchor="middle" x="70" y="-315" font-family="Helvetica,sans-Serif" font-size="10.00">/osEmulator/osEmulator.hpp</text>
</a>
</g>
<!-- Node1&#45;&gt;Node9 -->
<g id="edge18" class="edge"><title>Node1&#45;&gt;Node9</title>
<path fill="none" stroke="midnightblue" d="M351.136,-478.267C282.94,-469.297 181.849,-453.011 149,-432 113.97,-409.594 89.3034,-365.719 77.6343,-341.353"/>
<polygon fill="midnightblue" stroke="midnightblue" points="350.999,-481.778 361.365,-479.59 351.897,-474.836 350.999,-481.778"/>
</g>
<!-- Node10 -->
<g id="node23" class="node"><title>Node10</title>
<a xlink:href="syscCallB_8hpp.html" target="_top" xlink:title="core/common/trapgen\l/osEmulator/syscCallB.hpp">
<polygon fill="white" stroke="black" points="158,-391 158,-425 294,-425 294,-391 158,-391"/>
<text text-anchor="start" x="166" y="-412" font-family="Helvetica,sans-Serif" font-size="10.00">core/common/trapgen</text>
<text text-anchor="middle" x="226" y="-399" font-family="Helvetica,sans-Serif" font-size="10.00">/osEmulator/syscCallB.hpp</text>
</a>
</g>
<!-- Node1&#45;&gt;Node10 -->
<g id="edge26" class="edge"><title>Node1&#45;&gt;Node10</title>
<path fill="none" stroke="midnightblue" d="M365.44,-464.944C334.835,-452.446 296.532,-436.804 267.818,-425.078"/>
<polygon fill="midnightblue" stroke="midnightblue" points="364.503,-468.342 375.084,-468.883 367.15,-461.862 364.503,-468.342"/>
</g>
<!-- Node12 -->
<g id="node28" class="node"><title>Node12</title>
<a xlink:href="profiler_8hpp.html" target="_top" xlink:title="core/common/trapgen\l/profiler/profiler.hpp">
<polygon fill="white" stroke="black" points="404.5,-391 404.5,-425 515.5,-425 515.5,-391 404.5,-391"/>
<text text-anchor="start" x="412.5" y="-412" font-family="Helvetica,sans-Serif" font-size="10.00">core/common/trapgen</text>
<text text-anchor="middle" x="460" y="-399" font-family="Helvetica,sans-Serif" font-size="10.00">/profiler/profiler.hpp</text>
</a>
</g>
<!-- Node1&#45;&gt;Node12 -->
<g id="edge32" class="edge"><title>Node1&#45;&gt;Node12</title>
<path fill="none" stroke="midnightblue" d="M431.534,-459.635C437.787,-448.293 444.922,-435.352 450.484,-425.262"/>
<polygon fill="midnightblue" stroke="midnightblue" points="428.306,-458.242 426.543,-468.689 434.436,-461.622 428.306,-458.242"/>
</g>
<!-- Node13 -->
<g id="node31" class="node"><title>Node13</title>
<a xlink:href="interface_8hpp.html" target="_top" xlink:title="core/models/extern\l/LEON3/simulatorSources\l/leon3.funclt/interface.hpp">
<polygon fill="white" stroke="black" points="561.5,-384.5 561.5,-431.5 692.5,-431.5 692.5,-384.5 561.5,-384.5"/>
<text text-anchor="start" x="569.5" y="-418.5" font-family="Helvetica,sans-Serif" font-size="10.00">core/models/extern</text>
<text text-anchor="start" x="569.5" y="-405.5" font-family="Helvetica,sans-Serif" font-size="10.00">/LEON3/simulatorSources</text>
<text text-anchor="middle" x="627" y="-392.5" font-family="Helvetica,sans-Serif" font-size="10.00">/leon3.funclt/interface.hpp</text>
</a>
</g>
<!-- Node1&#45;&gt;Node13 -->
<g id="edge36" class="edge"><title>Node1&#45;&gt;Node13</title>
<path fill="none" stroke="midnightblue" d="M472.433,-465.411C500.359,-455.038 534.357,-442.41 563.35,-431.642"/>
<polygon fill="midnightblue" stroke="midnightblue" points="470.981,-462.216 462.826,-468.979 473.419,-468.778 470.981,-462.216"/>
</g>
<!-- Node14 -->
<g id="node33" class="node"><title>Node14</title>
<a xlink:href="interface_8cpp.html" target="_top" xlink:title="core/models/extern\l/LEON3/simulatorSources\l/leon3.funclt/interface.cpp">
<polygon fill="white" stroke="black" points="679.5,-300.5 679.5,-347.5 810.5,-347.5 810.5,-300.5 679.5,-300.5"/>
<text text-anchor="start" x="687.5" y="-334.5" font-family="Helvetica,sans-Serif" font-size="10.00">core/models/extern</text>
<text text-anchor="start" x="687.5" y="-321.5" font-family="Helvetica,sans-Serif" font-size="10.00">/LEON3/simulatorSources</text>
<text text-anchor="middle" x="745" y="-308.5" font-family="Helvetica,sans-Serif" font-size="10.00">/leon3.funclt/interface.cpp</text>
</a>
</g>
<!-- Node1&#45;&gt;Node14 -->
<g id="edge56" class="edge"><title>Node1&#45;&gt;Node14</title>
<path fill="none" stroke="midnightblue" d="M482.605,-480.752C555.818,-473.673 668.311,-458.755 701,-432 726.695,-410.969 737.526,-372.561 741.992,-347.671"/>
<polygon fill="midnightblue" stroke="midnightblue" points="482.175,-477.277 472.547,-481.699 482.831,-484.246 482.175,-477.277"/>
</g>
<!-- Node3 -->
<g id="node5" class="node"><title>Node3</title>
<a xlink:href="main_8cpp.html" target="_top" xlink:title="core/models/extern\l/LEON3/simulatorSources\l/leon3.funclt/main.cpp">
<polygon fill="white" stroke="black" points="307.5,-216.5 307.5,-263.5 438.5,-263.5 438.5,-216.5 307.5,-216.5"/>
<text text-anchor="start" x="315.5" y="-250.5" font-family="Helvetica,sans-Serif" font-size="10.00">core/models/extern</text>
<text text-anchor="start" x="315.5" y="-237.5" font-family="Helvetica,sans-Serif" font-size="10.00">/LEON3/simulatorSources</text>
<text text-anchor="middle" x="373" y="-224.5" font-family="Helvetica,sans-Serif" font-size="10.00">/leon3.funclt/main.cpp</text>
</a>
</g>
<!-- Node2&#45;&gt;Node3 -->
<g id="edge4" class="edge"><title>Node2&#45;&gt;Node3</title>
<path fill="none" stroke="midnightblue" d="M373,-296.587C373,-285.989 373,-273.976 373,-263.753"/>
<polygon fill="midnightblue" stroke="midnightblue" points="369.5,-296.595 373,-306.595 376.5,-296.595 369.5,-296.595"/>
</g>
<!-- Node4 -->
<g id="node7" class="node"><title>Node4</title>
<a xlink:href="leon3__mmu__cache_8h.html" target="_top" xlink:title="core/models/mmu_cache\l/lib/leon3_mmu_cache.h">
<polygon fill="white" stroke="black" points="242,-145 242,-179 368,-179 368,-145 242,-145"/>
<text text-anchor="start" x="250" y="-166" font-family="Helvetica,sans-Serif" font-size="10.00">core/models/mmu_cache</text>
<text text-anchor="middle" x="305" y="-153" font-family="Helvetica,sans-Serif" font-size="10.00">/lib/leon3_mmu_cache.h</text>
</a>
</g>
<!-- Node2&#45;&gt;Node4 -->
<g id="edge6" class="edge"><title>Node2&#45;&gt;Node4</title>
<path fill="none" stroke="midnightblue" d="M332.011,-300.969C318.984,-291.371 306.121,-278.942 299,-264 285.95,-236.617 293.011,-200.306 299.139,-179.211"/>
<polygon fill="midnightblue" stroke="midnightblue" points="330.32,-304.055 340.536,-306.864 334.302,-298.298 330.32,-304.055"/>
</g>
<!-- Node6 -->
<g id="node11" class="node"><title>Node6</title>
<a xlink:href="leon3mp_2sc__main_8cpp.html" target="_top" xlink:title="core/platforms/leon3mp\l/sc_main.cpp">
<polygon fill="white" stroke="black" points="128.5,-73 128.5,-107 247.5,-107 247.5,-73 128.5,-73"/>
<text text-anchor="start" x="136.5" y="-94" font-family="Helvetica,sans-Serif" font-size="10.00">core/platforms/leon3mp</text>
<text text-anchor="middle" x="188" y="-81" font-family="Helvetica,sans-Serif" font-size="10.00">/sc_main.cpp</text>
</a>
</g>
<!-- Node2&#45;&gt;Node6 -->
<g id="edge16" class="edge"><title>Node2&#45;&gt;Node6</title>
<path fill="none" stroke="midnightblue" d="M334.929,-301.573C319.337,-291.307 301.763,-278.253 288,-264 241.047,-215.377 207.829,-140.523 194.493,-107.118"/>
<polygon fill="midnightblue" stroke="midnightblue" points="333.044,-304.522 343.35,-306.979 336.826,-298.631 333.044,-304.522"/>
</g>
<!-- Node5 -->
<g id="node9" class="node"><title>Node5</title>
<a xlink:href="leon3__mmu__cache_8cpp.html" target="_top" xlink:title="core/models/mmu_cache\l/lib/leon3_mmu_cache.cpp">
<polygon fill="white" stroke="black" points="264.5,-73 264.5,-107 397.5,-107 397.5,-73 264.5,-73"/>
<text text-anchor="start" x="272.5" y="-94" font-family="Helvetica,sans-Serif" font-size="10.00">core/models/mmu_cache</text>
<text text-anchor="middle" x="331" y="-81" font-family="Helvetica,sans-Serif" font-size="10.00">/lib/leon3_mmu_cache.cpp</text>
</a>
</g>
<!-- Node4&#45;&gt;Node5 -->
<g id="edge8" class="edge"><title>Node4&#45;&gt;Node5</title>
<path fill="none" stroke="midnightblue" d="M314.636,-135.315C317.998,-126.005 321.682,-115.803 324.702,-107.441"/>
<polygon fill="midnightblue" stroke="midnightblue" points="311.266,-134.343 311.162,-144.937 317.85,-136.72 311.266,-134.343"/>
</g>
<!-- Node4&#45;&gt;Node6 -->
<g id="edge10" class="edge"><title>Node4&#45;&gt;Node6</title>
<path fill="none" stroke="midnightblue" d="M268.685,-139.652C251.679,-129.187 231.737,-116.915 215.934,-107.19"/>
<polygon fill="midnightblue" stroke="midnightblue" points="266.922,-142.677 277.273,-144.937 270.59,-136.715 266.922,-142.677"/>
</g>
<!-- Node7 -->
<g id="node13" class="node"><title>Node7</title>
<a xlink:href="leon3mp_8h.html" target="_top" xlink:title="core/platforms/newleon3mp\l/leon3mp.h">
<polygon fill="white" stroke="black" points="433.5,-73 433.5,-107 570.5,-107 570.5,-73 433.5,-73"/>
<text text-anchor="start" x="441.5" y="-94" font-family="Helvetica,sans-Serif" font-size="10.00">core/platforms/newleon3mp</text>
<text text-anchor="middle" x="502" y="-81" font-family="Helvetica,sans-Serif" font-size="10.00">/leon3mp.h</text>
</a>
</g>
<!-- Node4&#45;&gt;Node7 -->
<g id="edge12" class="edge"><title>Node4&#45;&gt;Node7</title>
<path fill="none" stroke="midnightblue" d="M361.114,-141.491C390.899,-130.606 427.073,-117.385 455.308,-107.065"/>
<polygon fill="midnightblue" stroke="midnightblue" points="359.877,-138.217 351.686,-144.937 362.28,-144.792 359.877,-138.217"/>
</g>
<!-- Node8 -->
<g id="node15" class="node"><title>Node8</title>
<a xlink:href="newleon3mp_2sc__main_8cpp.html" target="_top" xlink:title="core/platforms/newleon3mp\l/sc_main.cpp">
<polygon fill="white" stroke="black" points="433.5,-1 433.5,-35 570.5,-35 570.5,-1 433.5,-1"/>
<text text-anchor="start" x="441.5" y="-22" font-family="Helvetica,sans-Serif" font-size="10.00">core/platforms/newleon3mp</text>
<text text-anchor="middle" x="502" y="-9" font-family="Helvetica,sans-Serif" font-size="10.00">/sc_main.cpp</text>
</a>
</g>
<!-- Node7&#45;&gt;Node8 -->
<g id="edge14" class="edge"><title>Node7&#45;&gt;Node8</title>
<path fill="none" stroke="midnightblue" d="M502,-62.7193C502,-53.572 502,-43.6255 502,-35.4407"/>
<polygon fill="midnightblue" stroke="midnightblue" points="498.5,-62.937 502,-72.937 505.5,-62.937 498.5,-62.937"/>
</g>
<!-- Node9&#45;&gt;Node3 -->
<g id="edge20" class="edge"><title>Node9&#45;&gt;Node3</title>
<path fill="none" stroke="midnightblue" d="M134.939,-304.084C139.692,-302.684 144.417,-301.309 149,-300 202.033,-284.846 262.456,-268.728 307.171,-257.018"/>
<polygon fill="midnightblue" stroke="midnightblue" points="133.771,-300.78 125.181,-306.981 135.763,-307.49 133.771,-300.78"/>
</g>
<!-- Node9&#45;&gt;Node4 -->
<g id="edge22" class="edge"><title>Node9&#45;&gt;Node4</title>
<path fill="none" stroke="midnightblue" d="M103.135,-301.158C150.833,-268.277 237.769,-208.346 280.273,-179.046"/>
<polygon fill="midnightblue" stroke="midnightblue" points="100.952,-298.412 94.705,-306.969 104.925,-304.175 100.952,-298.412"/>
</g>
<!-- Node9&#45;&gt;Node6 -->
<g id="edge24" class="edge"><title>Node9&#45;&gt;Node6</title>
<path fill="none" stroke="midnightblue" d="M83.3156,-297.595C107.697,-249.244 158.882,-147.742 179.31,-107.232"/>
<polygon fill="midnightblue" stroke="midnightblue" points="80.0544,-296.289 78.6768,-306.793 86.3046,-299.44 80.0544,-296.289"/>
</g>
<!-- Node10&#45;&gt;Node9 -->
<g id="edge28" class="edge"><title>Node10&#45;&gt;Node9</title>
<path fill="none" stroke="midnightblue" d="M185.153,-386.005C159.055,-371.953 125.718,-354.002 101.636,-341.035"/>
<polygon fill="midnightblue" stroke="midnightblue" points="183.591,-389.139 194.055,-390.799 186.909,-382.976 183.591,-389.139"/>
</g>
<!-- Node11 -->
<g id="node26" class="node"><title>Node11</title>
<a xlink:href="syscCallB_8cpp.html" target="_top" xlink:title="core/common/trapgen\l/osEmulator/syscCallB.cpp">
<polygon fill="white" stroke="black" points="158,-307 158,-341 294,-341 294,-307 158,-307"/>
<text text-anchor="start" x="166" y="-328" font-family="Helvetica,sans-Serif" font-size="10.00">core/common/trapgen</text>
<text text-anchor="middle" x="226" y="-315" font-family="Helvetica,sans-Serif" font-size="10.00">/osEmulator/syscCallB.cpp</text>
</a>
</g>
<!-- Node10&#45;&gt;Node11 -->
<g id="edge30" class="edge"><title>Node10&#45;&gt;Node11</title>
<path fill="none" stroke="midnightblue" d="M226,-380.33C226,-367.38 226,-352.365 226,-341.095"/>
<polygon fill="midnightblue" stroke="midnightblue" points="222.5,-380.595 226,-390.595 229.5,-380.595 222.5,-380.595"/>
</g>
<!-- Node12&#45;&gt;Node3 -->
<g id="edge34" class="edge"><title>Node12&#45;&gt;Node3</title>
<path fill="none" stroke="midnightblue" d="M460.81,-380.668C460.339,-357.758 456.897,-324.895 443,-300 435.042,-285.745 422.313,-273.324 409.878,-263.539"/>
<polygon fill="midnightblue" stroke="midnightblue" points="457.31,-380.743 460.84,-390.732 464.31,-380.722 457.31,-380.743"/>
</g>
<!-- Node13&#45;&gt;Node14 -->
<g id="edge38" class="edge"><title>Node13&#45;&gt;Node14</title>
<path fill="none" stroke="midnightblue" d="M668.331,-378.578C682.511,-368.484 698.191,-357.322 711.657,-347.736"/>
<polygon fill="midnightblue" stroke="midnightblue" points="666.3,-375.727 660.184,-384.378 670.36,-381.43 666.3,-375.727"/>
</g>
<!-- Node15 -->
<g id="node35" class="node"><title>Node15</title>
<a xlink:href="processor_8hpp.html" target="_top" xlink:title="core/models/extern\l/LEON3/simulatorSources\l/leon3.funclt/processor.hpp">
<polygon fill="white" stroke="black" points="490,-300.5 490,-347.5 624,-347.5 624,-300.5 490,-300.5"/>
<text text-anchor="start" x="498" y="-334.5" font-family="Helvetica,sans-Serif" font-size="10.00">core/models/extern</text>
<text text-anchor="start" x="498" y="-321.5" font-family="Helvetica,sans-Serif" font-size="10.00">/LEON3/simulatorSources</text>
<text text-anchor="middle" x="557" y="-308.5" font-family="Helvetica,sans-Serif" font-size="10.00">/leon3.funclt/processor.hpp</text>
</a>
</g>
<!-- Node13&#45;&gt;Node15 -->
<g id="edge40" class="edge"><title>Node13&#45;&gt;Node15</title>
<path fill="none" stroke="midnightblue" d="M600.641,-376.369C592.693,-366.832 584.112,-356.535 576.679,-347.615"/>
<polygon fill="midnightblue" stroke="midnightblue" points="598.037,-378.712 607.128,-384.154 603.415,-374.231 598.037,-378.712"/>
</g>
<!-- Node16 -->
<g id="node38" class="node"><title>Node16</title>
<a xlink:href="processor_8cpp.html" target="_top" xlink:title="core/models/extern\l/LEON3/simulatorSources\l/leon3.funclt/processor.cpp">
<polygon fill="white" stroke="black" points="604,-216.5 604,-263.5 738,-263.5 738,-216.5 604,-216.5"/>
<text text-anchor="start" x="612" y="-250.5" font-family="Helvetica,sans-Serif" font-size="10.00">core/models/extern</text>
<text text-anchor="start" x="612" y="-237.5" font-family="Helvetica,sans-Serif" font-size="10.00">/LEON3/simulatorSources</text>
<text text-anchor="middle" x="671" y="-224.5" font-family="Helvetica,sans-Serif" font-size="10.00">/leon3.funclt/processor.cpp</text>
</a>
</g>
<!-- Node13&#45;&gt;Node16 -->
<g id="edge54" class="edge"><title>Node13&#45;&gt;Node16</title>
<path fill="none" stroke="midnightblue" d="M635.841,-374.245C644.436,-341.426 657.269,-292.429 664.821,-263.593"/>
<polygon fill="midnightblue" stroke="midnightblue" points="632.359,-373.726 633.211,-384.286 639.13,-375.499 632.359,-373.726"/>
</g>
<!-- Node15&#45;&gt;Node3 -->
<g id="edge42" class="edge"><title>Node15&#45;&gt;Node3</title>
<path fill="none" stroke="midnightblue" d="M495.902,-296.107C472.822,-285.571 446.807,-273.695 424.674,-263.59"/>
<polygon fill="midnightblue" stroke="midnightblue" points="494.706,-299.409 505.256,-300.378 497.613,-293.041 494.706,-299.409"/>
</g>
<!-- Node15&#45;&gt;Node16 -->
<g id="edge44" class="edge"><title>Node15&#45;&gt;Node16</title>
<path fill="none" stroke="midnightblue" d="M597.315,-294.295C610.912,-284.275 625.899,-273.232 638.787,-263.736"/>
<polygon fill="midnightblue" stroke="midnightblue" points="595.033,-291.628 589.059,-300.378 599.186,-297.263 595.033,-291.628"/>
</g>
<!-- Node17 -->
<g id="node40" class="node"><title>Node17</title>
<a xlink:href="leon3_8funclt_8h.html" target="_top" xlink:title="core/models/extern\l/LEON3/simulatorSources\l/leon3.funclt.h">
<polygon fill="white" stroke="black" points="455.5,-216.5 455.5,-263.5 586.5,-263.5 586.5,-216.5 455.5,-216.5"/>
<text text-anchor="start" x="463.5" y="-250.5" font-family="Helvetica,sans-Serif" font-size="10.00">core/models/extern</text>
<text text-anchor="start" x="463.5" y="-237.5" font-family="Helvetica,sans-Serif" font-size="10.00">/LEON3/simulatorSources</text>
<text text-anchor="middle" x="521" y="-224.5" font-family="Helvetica,sans-Serif" font-size="10.00">/leon3.funclt.h</text>
</a>
</g>
<!-- Node15&#45;&gt;Node17 -->
<g id="edge46" class="edge"><title>Node15&#45;&gt;Node17</title>
<path fill="none" stroke="midnightblue" d="M542.828,-290.933C538.917,-281.806 534.752,-272.089 531.121,-263.615"/>
<polygon fill="midnightblue" stroke="midnightblue" points="539.624,-292.341 546.78,-300.154 546.058,-289.583 539.624,-292.341"/>
</g>
<!-- Node17&#45;&gt;Node4 -->
<g id="edge48" class="edge"><title>Node17&#45;&gt;Node4</title>
<path fill="none" stroke="midnightblue" d="M446.343,-213.04C415.077,-201.75 379.678,-188.967 352.127,-179.018"/>
<polygon fill="midnightblue" stroke="midnightblue" points="445.306,-216.387 455.9,-216.492 447.683,-209.803 445.306,-216.387"/>
</g>
<!-- Node17&#45;&gt;Node7 -->
<g id="edge52" class="edge"><title>Node17&#45;&gt;Node7</title>
<path fill="none" stroke="midnightblue" d="M516.687,-205.95C512.787,-175.161 507.205,-131.094 504.169,-107.125"/>
<polygon fill="midnightblue" stroke="midnightblue" points="513.26,-206.751 517.989,-216.232 520.205,-205.871 513.26,-206.751"/>
</g>
<!-- Node18 -->
<g id="node43" class="node"><title>Node18</title>
<a xlink:href="leon3processor_8h.html" target="_top" xlink:title="core/platforms/base\l/leon3processor.h">
<polygon fill="white" stroke="black" points="390.5,-145 390.5,-179 493.5,-179 493.5,-145 390.5,-145"/>
<text text-anchor="start" x="398.5" y="-166" font-family="Helvetica,sans-Serif" font-size="10.00">core/platforms/base</text>
<text text-anchor="middle" x="442" y="-153" font-family="Helvetica,sans-Serif" font-size="10.00">/leon3processor.h</text>
</a>
</g>
<!-- Node17&#45;&gt;Node18 -->
<g id="edge50" class="edge"><title>Node17&#45;&gt;Node18</title>
<path fill="none" stroke="midnightblue" d="M489.522,-208.92C479.189,-198.718 468.091,-187.761 459.221,-179.003"/>
<polygon fill="midnightblue" stroke="midnightblue" points="487.293,-211.638 496.868,-216.174 492.211,-206.657 487.293,-211.638"/>
</g>
</g>
</svg>
