<?xml version="1.0" encoding="UTF-8" standalone="no"?>
<!DOCTYPE svg PUBLIC "-//W3C//DTD SVG 1.1//EN"
 "http://www.w3.org/Graphics/SVG/1.1/DTD/svg11.dtd">
<!-- Generated by graphviz version 2.26.0 (20091210.2329)
 -->
<!-- Title: core/models/utils/ahbdevicebase.h Pages: 1 -->
<!--zoomable 564 -->
<svg id="main" version="1.1" xmlns="http://www.w3.org/2000/svg" xmlns:xlink="http://www.w3.org/1999/xlink" xml:space="preserve" onload="init(evt)">
<style type="text/css"><![CDATA[
.edge:hover path { stroke: red; }
.edge:hover polygon { stroke: red; fill: red; }
]]></style>
<script type="text/javascript"><![CDATA[
var edges = document.getElementsByTagName('g');
if (edges && edges.length) {
  for (var i=0;i<edges.length;i++) {
    if (edges[i].id.substr(0,4)=='edge') {
      edges[i].setAttribute('class','edge');
    }
  }
}
]]></script>
        <defs>
                <circle id="rim" cx="0" cy="0" r="7"/>
                <circle id="rim2" cx="0" cy="0" r="3.5"/>
                <g id="zoomPlus">
                        <use xlink:href="#rim" fill="#404040">
                                <set attributeName="fill" to="#808080" begin="zoomplus.mouseover" end="zoomplus.mouseout"/>
                        </use>
                        <path d="M-4,0h8M0,-4v8" fill="none" stroke="white" stroke-width="1.5" pointer-events="none"/>
                </g>
                <g id="zoomMin">
                        <use xlink:href="#rim" fill="#404040">
                                <set attributeName="fill" to="#808080" begin="zoomminus.mouseover" end="zoomminus.mouseout"/>
                        </use>
                        <path d="M-4,0h8" fill="none" stroke="white" stroke-width="1.5" pointer-events="none"/>
                </g>
                <g id="dirArrow">
                        <path fill="none" stroke="white" stroke-width="1.5" d="M0,-3.0v7 M-2.5,-0.5L0,-3.0L2.5,-0.5"/>
                </g>
               <g id="resetDef">
                       <use xlink:href="#rim2" fill="#404040">
                               <set attributeName="fill" to="#808080" begin="reset.mouseover" end="reset.mouseout"/>
                       </use>
               </g>
        </defs>

<script type="text/javascript">
var viewWidth = 2198;
var viewHeight = 564;
var sectionId = 'dynsection-0';
</script>
<script xlink:href="svgpan.js"/>
<svg id="graph" class="graph">
<g id="viewport">
<title>core/models/utils/ahbdevicebase.h</title>
<polygon fill="white" stroke="white" points="-4,5 -4,-560 2195,-560 2195,5 -4,5"/>
<!-- Node1 -->
<g id="node1" class="node"><title>Node1</title>
<polygon fill="#bfbfbf" stroke="black" points="1740.5,-534.5 1740.5,-555.5 1907.5,-555.5 1907.5,-534.5 1740.5,-534.5"/>
<text text-anchor="middle" x="1824" y="-542.5" font-family="Helvetica,sans-Serif" font-size="10.00">core/models/utils/ahbdevicebase.h</text>
</g>
<!-- Node2 -->
<g id="node3" class="node"><title>Node2</title>
<a xlink:href="common_2amba_8h.html" target="_top" xlink:title="core/common/amba.h">
<polygon fill="white" stroke="black" points="741.5,-476.5 741.5,-497.5 852.5,-497.5 852.5,-476.5 741.5,-476.5"/>
<text text-anchor="middle" x="797" y="-484.5" font-family="Helvetica,sans-Serif" font-size="10.00">core/common/amba.h</text>
</a>
</g>
<!-- Node1&#45;&gt;Node2 -->
<g id="edge2" class="edge"><title>Node1&#45;&gt;Node2</title>
<path fill="none" stroke="midnightblue" d="M1740.39,-540.278C1541.34,-529.037 1042.58,-500.869 862.854,-490.719"/>
<polygon fill="midnightblue" stroke="midnightblue" points="862.934,-487.218 852.752,-490.149 862.539,-494.207 862.934,-487.218"/>
</g>
<!-- Node4 -->
<g id="node8" class="node"><title>Node4</title>
<polygon fill="white" stroke="#bfbfbf" points="1596,-7.5 1596,-28.5 1634,-28.5 1634,-7.5 1596,-7.5"/>
<text text-anchor="middle" x="1615" y="-15.5" font-family="Helvetica,sans-Serif" font-size="10.00">tlm.h</text>
</g>
<!-- Node1&#45;&gt;Node4 -->
<g id="edge120" class="edge"><title>Node1&#45;&gt;Node4</title>
<path fill="none" stroke="midnightblue" d="M1907.59,-539.988C1962.1,-534.431 2033.83,-522.712 2093,-498 2141.82,-477.61 2190,-481.906 2190,-429 2190,-429 2190,-429 2190,-148 2190,-94.6204 2146.2,-92.7061 2097,-72 2014.4,-37.2387 1735.95,-22.9516 1644.43,-19.1227"/>
<polygon fill="midnightblue" stroke="midnightblue" points="1644.35,-15.6168 1634.22,-18.7069 1644.07,-22.611 1644.35,-15.6168"/>
</g>
<!-- Node8 -->
<g id="node16" class="node"><title>Node8</title>
<a xlink:href="base_8h.html" target="_top" xlink:title="core/common/base.h">
<polygon fill="white" stroke="black" points="825,-418.5 825,-439.5 933,-439.5 933,-418.5 825,-418.5"/>
<text text-anchor="middle" x="879" y="-426.5" font-family="Helvetica,sans-Serif" font-size="10.00">core/common/base.h</text>
</a>
</g>
<!-- Node1&#45;&gt;Node8 -->
<g id="edge122" class="edge"><title>Node1&#45;&gt;Node8</title>
<path fill="none" stroke="midnightblue" d="M1740.14,-534.706C1553.98,-511.854 1109.57,-457.303 943.272,-436.89"/>
<polygon fill="midnightblue" stroke="midnightblue" points="943.549,-433.397 933.197,-435.653 942.696,-440.345 943.549,-433.397"/>
</g>
<!-- Node20 -->
<g id="node43" class="node"><title>Node20</title>
<polygon fill="white" stroke="#bfbfbf" points="2039.5,-72.5 2039.5,-93.5 2088.5,-93.5 2088.5,-72.5 2039.5,-72.5"/>
<text text-anchor="middle" x="2064" y="-80.5" font-family="Helvetica,sans-Serif" font-size="10.00">stdint.h</text>
</g>
<!-- Node1&#45;&gt;Node20 -->
<g id="edge118" class="edge"><title>Node1&#45;&gt;Node20</title>
<path fill="none" stroke="midnightblue" d="M1895.58,-534.433C1992.09,-518.135 2152,-482.983 2152,-429 2152,-429 2152,-429 2152,-220 2152,-179.118 2155.76,-163.96 2133,-130 2124.08,-116.696 2110.01,-106.12 2096.89,-98.396"/>
<polygon fill="midnightblue" stroke="midnightblue" points="2098.48,-95.2767 2088.04,-93.5058 2095.1,-101.404 2098.48,-95.2767"/>
</g>
<!-- Node3 -->
<g id="node5" class="node"><title>Node3</title>
<a xlink:href="systemc_8h.html" target="_top" xlink:title="core/common/systemc.h">
<polygon fill="white" stroke="black" points="743.5,-72.5 743.5,-93.5 868.5,-93.5 868.5,-72.5 743.5,-72.5"/>
<text text-anchor="middle" x="806" y="-80.5" font-family="Helvetica,sans-Serif" font-size="10.00">core/common/systemc.h</text>
</a>
</g>
<!-- Node2&#45;&gt;Node3 -->
<g id="edge4" class="edge"><title>Node2&#45;&gt;Node3</title>
<path fill="none" stroke="midnightblue" d="M741.273,-484.287C560.195,-474.737 0,-439.122 0,-364 0,-364 0,-364 0,-220 0,-141.49 77.0708,-153.439 152,-130 258.561,-96.6666 585.828,-86.8209 732.986,-84.0395"/>
<polygon fill="midnightblue" stroke="midnightblue" points="733.331,-87.5339 743.265,-83.8512 733.202,-80.5351 733.331,-87.5339"/>
</g>
<!-- Node2&#45;&gt;Node8 -->
<g id="edge16" class="edge"><title>Node2&#45;&gt;Node8</title>
<path fill="none" stroke="midnightblue" d="M812.04,-476.362C824.293,-467.696 841.799,-455.313 855.839,-445.382"/>
<polygon fill="midnightblue" stroke="midnightblue" points="857.912,-448.203 864.055,-439.571 853.87,-442.488 857.912,-448.203"/>
</g>
<!-- Node32 -->
<g id="node71" class="node"><title>Node32</title>
<a xlink:href="report_8h.html" target="_top" xlink:title="core/common/report.h">
<polygon fill="white" stroke="black" points="494,-353.5 494,-374.5 606,-374.5 606,-353.5 494,-353.5"/>
<text text-anchor="middle" x="550" y="-361.5" font-family="Helvetica,sans-Serif" font-size="10.00">core/common/report.h</text>
</a>
</g>
<!-- Node2&#45;&gt;Node32 -->
<g id="edge112" class="edge"><title>Node2&#45;&gt;Node32</title>
<path fill="none" stroke="midnightblue" d="M775.512,-476.3C731.517,-454.391 631.069,-404.37 580.408,-379.143"/>
<polygon fill="midnightblue" stroke="midnightblue" points="581.774,-375.913 571.262,-374.588 578.653,-382.179 581.774,-375.913"/>
</g>
<!-- Node35 -->
<g id="node79" class="node"><title>Node35</title>
<polygon fill="white" stroke="#bfbfbf" points="745.5,-209.5 745.5,-230.5 848.5,-230.5 848.5,-209.5 745.5,-209.5"/>
<text text-anchor="middle" x="797" y="-217.5" font-family="Helvetica,sans-Serif" font-size="10.00">greenreg/greenreg.h</text>
</g>
<!-- Node2&#45;&gt;Node35 -->
<g id="edge114" class="edge"><title>Node2&#45;&gt;Node35</title>
<path fill="none" stroke="midnightblue" d="M797,-476.203C797,-435.944 797,-294.159 797,-240.649"/>
<polygon fill="midnightblue" stroke="midnightblue" points="800.5,-240.639 797,-230.639 793.5,-240.639 800.5,-240.639"/>
</g>
<!-- Node36 -->
<g id="node81" class="node"><title>Node36</title>
<a xlink:href="greenreg__ambasockets_8h.html" target="_top" xlink:title="core/common/grambasockets\l/greenreg_ambasockets.h">
<polygon fill="white" stroke="black" points="624,-347 624,-381 770,-381 770,-347 624,-347"/>
<text text-anchor="start" x="632" y="-368" font-family="Helvetica,sans-Serif" font-size="10.00">core/common/grambasockets</text>
<text text-anchor="middle" x="697" y="-355" font-family="Helvetica,sans-Serif" font-size="10.00">/greenreg_ambasockets.h</text>
</a>
</g>
<!-- Node2&#45;&gt;Node36 -->
<g id="edge116" class="edge"><title>Node2&#45;&gt;Node36</title>
<path fill="none" stroke="midnightblue" d="M788.126,-476.085C772.358,-456.69 739.081,-415.76 717.402,-389.095"/>
<polygon fill="midnightblue" stroke="midnightblue" points="720.103,-386.869 711.079,-381.317 714.672,-391.284 720.103,-386.869"/>
</g>
<!-- Node3&#45;&gt;Node3 -->
<g id="edge6" class="edge"><title>Node3&#45;&gt;Node3</title>
<path fill="none" stroke="midnightblue" d="M837.62,-93.5168C861.644,-97.3181 886,-93.8125 886,-83 886,-73.708 868.012,-69.8123 847.706,-71.313"/>
<polygon fill="midnightblue" stroke="midnightblue" points="847.15,-67.8539 837.62,-72.4832 847.957,-74.8073 847.15,-67.8539"/>
</g>
<!-- Node3&#45;&gt;Node4 -->
<g id="edge8" class="edge"><title>Node3&#45;&gt;Node4</title>
<path fill="none" stroke="midnightblue" d="M868.682,-74.869C877.511,-73.8356 886.479,-72.8456 895,-72 1162.81,-45.4221 1487.84,-25.4423 1585.74,-19.6876"/>
<polygon fill="midnightblue" stroke="midnightblue" points="1586,-23.1785 1595.78,-19.1007 1585.59,-16.1904 1586,-23.1785"/>
</g>
<!-- Node5 -->
<g id="node10" class="node"><title>Node5</title>
<polygon fill="white" stroke="#bfbfbf" points="748.5,-1 748.5,-35 863.5,-35 863.5,-1 748.5,-1"/>
<text text-anchor="start" x="756.5" y="-22" font-family="Helvetica,sans-Serif" font-size="10.00">tlm_utils/simple_target</text>
<text text-anchor="middle" x="806" y="-9" font-family="Helvetica,sans-Serif" font-size="10.00">_socket.h</text>
</g>
<!-- Node3&#45;&gt;Node5 -->
<g id="edge10" class="edge"><title>Node3&#45;&gt;Node5</title>
<path fill="none" stroke="midnightblue" d="M806,-72.2666C806,-64.931 806,-54.8573 806,-45.3796"/>
<polygon fill="midnightblue" stroke="midnightblue" points="809.5,-45.1098 806,-35.1099 802.5,-45.1099 809.5,-45.1098"/>
</g>
<!-- Node6 -->
<g id="node12" class="node"><title>Node6</title>
<polygon fill="white" stroke="#bfbfbf" points="881,-1 881,-35 1003,-35 1003,-1 881,-1"/>
<text text-anchor="start" x="889" y="-22" font-family="Helvetica,sans-Serif" font-size="10.00">tlm_utils/simple_initiator</text>
<text text-anchor="middle" x="942" y="-9" font-family="Helvetica,sans-Serif" font-size="10.00">_socket.h</text>
</g>
<!-- Node3&#45;&gt;Node6 -->
<g id="edge12" class="edge"><title>Node3&#45;&gt;Node6</title>
<path fill="none" stroke="midnightblue" d="M828.153,-72.412C846.743,-63.5274 873.888,-50.5536 897.009,-39.5028"/>
<polygon fill="midnightblue" stroke="midnightblue" points="898.791,-42.5305 906.304,-35.0604 895.773,-36.2148 898.791,-42.5305"/>
</g>
<!-- Node7 -->
<g id="node14" class="node"><title>Node7</title>
<polygon fill="white" stroke="#bfbfbf" points="636.5,-1 636.5,-35 731.5,-35 731.5,-1 636.5,-1"/>
<text text-anchor="start" x="644.5" y="-22" font-family="Helvetica,sans-Serif" font-size="10.00">tlm_utils/peq_with</text>
<text text-anchor="middle" x="684" y="-9" font-family="Helvetica,sans-Serif" font-size="10.00">_get.h</text>
</g>
<!-- Node3&#45;&gt;Node7 -->
<g id="edge14" class="edge"><title>Node3&#45;&gt;Node7</title>
<path fill="none" stroke="midnightblue" d="M786.127,-72.412C769.659,-63.6378 745.704,-50.8751 725.133,-39.9153"/>
<polygon fill="midnightblue" stroke="midnightblue" points="726.73,-36.8002 716.259,-35.1869 723.438,-42.9781 726.73,-36.8002"/>
</g>
<!-- Node8&#45;&gt;Node3 -->
<g id="edge18" class="edge"><title>Node8&#45;&gt;Node3</title>
<path fill="none" stroke="midnightblue" d="M878.608,-418.343C877.795,-395.299 876,-339.105 876,-292 876,-292 876,-292 876,-220 876,-173.409 843.5,-126.704 822.79,-101.672"/>
<polygon fill="midnightblue" stroke="midnightblue" points="825.186,-99.0873 816.029,-93.7571 819.863,-103.634 825.186,-99.0873"/>
</g>
<!-- Node9 -->
<g id="node19" class="node"><title>Node9</title>
<a xlink:href="gs__config_8h.html" target="_top" xlink:title="core/common/gs_config.h">
<polygon fill="white" stroke="black" points="972.5,-353.5 972.5,-374.5 1101.5,-374.5 1101.5,-353.5 972.5,-353.5"/>
<text text-anchor="middle" x="1037" y="-361.5" font-family="Helvetica,sans-Serif" font-size="10.00">core/common/gs_config.h</text>
</a>
</g>
<!-- Node8&#45;&gt;Node9 -->
<g id="edge20" class="edge"><title>Node8&#45;&gt;Node9</title>
<path fill="none" stroke="midnightblue" d="M904.737,-418.412C931.134,-407.552 972.382,-390.583 1001.79,-378.484"/>
<polygon fill="midnightblue" stroke="midnightblue" points="1003.36,-381.625 1011.27,-374.584 1000.69,-375.151 1003.36,-381.625"/>
</g>
<!-- Node8&#45;&gt;Node32 -->
<g id="edge78" class="edge"><title>Node8&#45;&gt;Node32</title>
<path fill="none" stroke="midnightblue" d="M824.854,-420.887C771.278,-412.501 687.072,-398.357 615,-382 608.705,-380.571 602.108,-378.923 595.629,-377.217"/>
<polygon fill="midnightblue" stroke="midnightblue" points="596.175,-373.739 585.608,-374.51 594.349,-380.497 596.175,-373.739"/>
</g>
<!-- Node8&#45;&gt;Node35 -->
<g id="edge88" class="edge"><title>Node8&#45;&gt;Node35</title>
<path fill="none" stroke="midnightblue" d="M874.821,-418.348C861.826,-385.227 821.978,-283.664 804.902,-240.141"/>
<polygon fill="midnightblue" stroke="midnightblue" points="808.081,-238.661 801.171,-230.63 801.565,-241.218 808.081,-238.661"/>
</g>
<!-- Node8&#45;&gt;Node36 -->
<g id="edge90" class="edge"><title>Node8&#45;&gt;Node36</title>
<path fill="none" stroke="midnightblue" d="M849.353,-418.412C823.703,-409.251 785.879,-395.742 754.336,-384.477"/>
<polygon fill="midnightblue" stroke="midnightblue" points="755.364,-381.128 744.769,-381.06 753.009,-387.72 755.364,-381.128"/>
</g>
<!-- Node10 -->
<g id="node21" class="node"><title>Node10</title>
<polygon fill="white" stroke="#bfbfbf" points="1049.5,-281.5 1049.5,-302.5 1156.5,-302.5 1156.5,-281.5 1049.5,-281.5"/>
<text text-anchor="middle" x="1103" y="-289.5" font-family="Helvetica,sans-Serif" font-size="10.00">greencontrol/config.h</text>
</g>
<!-- Node9&#45;&gt;Node10 -->
<g id="edge22" class="edge"><title>Node9&#45;&gt;Node10</title>
<path fill="none" stroke="midnightblue" d="M1046.74,-353.376C1057.17,-341.997 1073.91,-323.735 1086.42,-310.085"/>
<polygon fill="midnightblue" stroke="midnightblue" points="1089.04,-312.404 1093.22,-302.667 1083.88,-307.674 1089.04,-312.404"/>
</g>
<!-- Node11 -->
<g id="node23" class="node"><title>Node11</title>
<a xlink:href="gs__config_2gs__config_8h.html" target="_top" xlink:title="core/common/gs_config\l/gs_config.h">
<polygon fill="white" stroke="black" points="911.5,-275 911.5,-309 1032.5,-309 1032.5,-275 911.5,-275"/>
<text text-anchor="start" x="919.5" y="-296" font-family="Helvetica,sans-Serif" font-size="10.00">core/common/gs_config</text>
<text text-anchor="middle" x="972" y="-283" font-family="Helvetica,sans-Serif" font-size="10.00">/gs_config.h</text>
</a>
</g>
<!-- Node9&#45;&gt;Node11 -->
<g id="edge24" class="edge"><title>Node9&#45;&gt;Node11</title>
<path fill="none" stroke="midnightblue" d="M1027.41,-353.376C1018.69,-343.723 1005.51,-329.116 994.185,-316.574"/>
<polygon fill="midnightblue" stroke="midnightblue" points="996.731,-314.172 987.432,-309.094 991.536,-318.862 996.731,-314.172"/>
</g>
<!-- Node14 -->
<g id="node29" class="node"><title>Node14</title>
<a xlink:href="gs__config__class_8h.html" target="_top" xlink:title="core/common/gs_config\l/gs_config_class.h">
<polygon fill="white" stroke="black" points="1446.5,-275 1446.5,-309 1567.5,-309 1567.5,-275 1446.5,-275"/>
<text text-anchor="start" x="1454.5" y="-296" font-family="Helvetica,sans-Serif" font-size="10.00">core/common/gs_config</text>
<text text-anchor="middle" x="1507" y="-283" font-family="Helvetica,sans-Serif" font-size="10.00">/gs_config_class.h</text>
</a>
</g>
<!-- Node9&#45;&gt;Node14 -->
<g id="edge30" class="edge"><title>Node9&#45;&gt;Node14</title>
<path fill="none" stroke="midnightblue" d="M1101.86,-354.064C1189.6,-340.623 1345.56,-316.732 1436.24,-302.839"/>
<polygon fill="midnightblue" stroke="midnightblue" points="1436.8,-306.294 1446.16,-301.32 1435.74,-299.375 1436.8,-306.294"/>
</g>
<!-- Node12 -->
<g id="node25" class="node"><title>Node12</title>
<polygon fill="white" stroke="#bfbfbf" points="955.5,-209.5 955.5,-230.5 996.5,-230.5 996.5,-209.5 955.5,-209.5"/>
<text text-anchor="middle" x="976" y="-217.5" font-family="Helvetica,sans-Serif" font-size="10.00">string</text>
</g>
<!-- Node11&#45;&gt;Node12 -->
<g id="edge26" class="edge"><title>Node11&#45;&gt;Node12</title>
<path fill="none" stroke="midnightblue" d="M972.948,-274.937C973.51,-264.814 974.228,-251.898 974.826,-241.133"/>
<polygon fill="midnightblue" stroke="midnightblue" points="978.334,-241.08 975.394,-230.901 971.345,-240.691 978.334,-241.08"/>
</g>
<!-- Node13 -->
<g id="node27" class="node"><title>Node13</title>
<polygon fill="white" stroke="#bfbfbf" points="903.5,-209.5 903.5,-230.5 938.5,-230.5 938.5,-209.5 903.5,-209.5"/>
<text text-anchor="middle" x="921" y="-217.5" font-family="Helvetica,sans-Serif" font-size="10.00">map</text>
</g>
<!-- Node11&#45;&gt;Node13 -->
<g id="edge28" class="edge"><title>Node11&#45;&gt;Node13</title>
<path fill="none" stroke="midnightblue" d="M959.914,-274.937C952.29,-264.174 942.431,-250.255 934.544,-239.12"/>
<polygon fill="midnightblue" stroke="midnightblue" points="937.358,-237.038 928.722,-230.901 931.646,-241.084 937.358,-237.038"/>
</g>
<!-- Node14&#45;&gt;Node12 -->
<g id="edge32" class="edge"><title>Node14&#45;&gt;Node12</title>
<path fill="none" stroke="midnightblue" d="M1446.19,-288.849C1330.96,-282.322 1085.19,-265.587 1005,-238 1003.07,-237.335 1001.13,-236.522 999.22,-235.614"/>
<polygon fill="midnightblue" stroke="midnightblue" points="1000.54,-232.344 990.109,-230.513 997.125,-238.452 1000.54,-232.344"/>
</g>
<!-- Node15 -->
<g id="node32" class="node"><title>Node15</title>
<polygon fill="white" stroke="#bfbfbf" points="1174,-72.5 1174,-93.5 1228,-93.5 1228,-72.5 1174,-72.5"/>
<text text-anchor="middle" x="1201" y="-80.5" font-family="Helvetica,sans-Serif" font-size="10.00">iostream</text>
</g>
<!-- Node14&#45;&gt;Node15 -->
<g id="edge34" class="edge"><title>Node14&#45;&gt;Node15</title>
<path fill="none" stroke="midnightblue" d="M1567.66,-290.957C1710.75,-287.869 2059.94,-276.433 2095,-238 2105.78,-226.18 2105.54,-214.037 2095,-202 2066.14,-169.042 1404.28,-102.742 1238.43,-86.6027"/>
<polygon fill="midnightblue" stroke="midnightblue" points="1238.52,-83.0957 1228.23,-85.6131 1237.84,-90.0629 1238.52,-83.0957"/>
</g>
<!-- Node16 -->
<g id="node34" class="node"><title>Node16</title>
<polygon fill="white" stroke="#bfbfbf" points="1434,-209.5 1434,-230.5 1486,-230.5 1486,-209.5 1434,-209.5"/>
<text text-anchor="middle" x="1460" y="-217.5" font-family="Helvetica,sans-Serif" font-size="10.00">sstream</text>
</g>
<!-- Node14&#45;&gt;Node16 -->
<g id="edge36" class="edge"><title>Node14&#45;&gt;Node16</title>
<path fill="none" stroke="midnightblue" d="M1495.86,-274.937C1488.91,-264.281 1479.93,-250.53 1472.7,-239.452"/>
<polygon fill="midnightblue" stroke="midnightblue" points="1475.51,-237.362 1467.12,-230.901 1469.65,-241.188 1475.51,-237.362"/>
</g>
<!-- Node17 -->
<g id="node36" class="node"><title>Node17</title>
<polygon fill="white" stroke="#bfbfbf" points="1504,-209.5 1504,-230.5 1606,-230.5 1606,-209.5 1504,-209.5"/>
<text text-anchor="middle" x="1555" y="-217.5" font-family="Helvetica,sans-Serif" font-size="10.00">boost/tokenizer.hpp</text>
</g>
<!-- Node14&#45;&gt;Node17 -->
<g id="edge38" class="edge"><title>Node14&#45;&gt;Node17</title>
<path fill="none" stroke="midnightblue" d="M1518.38,-274.937C1525.48,-264.281 1534.65,-250.53 1542.03,-239.452"/>
<polygon fill="midnightblue" stroke="midnightblue" points="1545.1,-241.163 1547.73,-230.901 1539.27,-237.28 1545.1,-241.163"/>
</g>
<!-- Node18 -->
<g id="node38" class="node"><title>Node18</title>
<a xlink:href="common_8h.html" target="_top" xlink:title="core/common/common.h">
<polygon fill="white" stroke="black" points="1013.5,-209.5 1013.5,-230.5 1138.5,-230.5 1138.5,-209.5 1013.5,-209.5"/>
<text text-anchor="middle" x="1076" y="-217.5" font-family="Helvetica,sans-Serif" font-size="10.00">core/common/common.h</text>
</a>
</g>
<!-- Node14&#45;&gt;Node18 -->
<g id="edge40" class="edge"><title>Node14&#45;&gt;Node18</title>
<path fill="none" stroke="midnightblue" d="M1446.49,-284.79C1374.69,-275.806 1251.55,-259.04 1147,-238 1139.63,-236.517 1131.88,-234.76 1124.32,-232.933"/>
<polygon fill="midnightblue" stroke="midnightblue" points="1125.08,-229.516 1114.53,-230.51 1123.4,-236.311 1125.08,-229.516"/>
</g>
<!-- Node26 -->
<g id="node58" class="node"><title>Node26</title>
<a xlink:href="gs__config__t_8h.html" target="_top" xlink:title="core/common/gs_config\l/gs_config_t.h">
<polygon fill="white" stroke="black" points="1623.5,-203 1623.5,-237 1744.5,-237 1744.5,-203 1623.5,-203"/>
<text text-anchor="start" x="1631.5" y="-224" font-family="Helvetica,sans-Serif" font-size="10.00">core/common/gs_config</text>
<text text-anchor="middle" x="1684" y="-211" font-family="Helvetica,sans-Serif" font-size="10.00">/gs_config_t.h</text>
</a>
</g>
<!-- Node14&#45;&gt;Node26 -->
<g id="edge64" class="edge"><title>Node14&#45;&gt;Node26</title>
<path fill="none" stroke="midnightblue" d="M1548.95,-274.937C1573.98,-264.752 1605.97,-251.74 1632.53,-240.936"/>
<polygon fill="midnightblue" stroke="midnightblue" points="1634.1,-244.075 1642.05,-237.065 1631.47,-237.591 1634.1,-244.075"/>
</g>
<!-- Node27 -->
<g id="node60" class="node"><title>Node27</title>
<a xlink:href="gs__config__operator__macros_8h.html" target="_top" xlink:title="core/common/gs_config\l/gs_config_operator_macros.h">
<polygon fill="white" stroke="black" points="1800,-203 1800,-237 1948,-237 1948,-203 1800,-203"/>
<text text-anchor="start" x="1808" y="-224" font-family="Helvetica,sans-Serif" font-size="10.00">core/common/gs_config</text>
<text text-anchor="middle" x="1874" y="-211" font-family="Helvetica,sans-Serif" font-size="10.00">/gs_config_operator_macros.h</text>
</a>
</g>
<!-- Node14&#45;&gt;Node27 -->
<g id="edge66" class="edge"><title>Node14&#45;&gt;Node27</title>
<path fill="none" stroke="midnightblue" d="M1567.72,-280.439C1624.26,-269.629 1710.88,-252.952 1786,-238 1787.25,-237.752 1788.5,-237.501 1789.77,-237.248"/>
<polygon fill="midnightblue" stroke="midnightblue" points="1790.48,-240.676 1799.59,-235.277 1789.1,-233.813 1790.48,-240.676"/>
</g>
<!-- Node28 -->
<g id="node62" class="node"><title>Node28</title>
<a xlink:href="gs__config__delegate_8h.html" target="_top" xlink:title="core/common/gs_config\l/gs_config_delegate.h">
<polygon fill="white" stroke="black" points="1965.5,-203 1965.5,-237 2086.5,-237 2086.5,-203 1965.5,-203"/>
<text text-anchor="start" x="1973.5" y="-224" font-family="Helvetica,sans-Serif" font-size="10.00">core/common/gs_config</text>
<text text-anchor="middle" x="2026" y="-211" font-family="Helvetica,sans-Serif" font-size="10.00">/gs_config_delegate.h</text>
</a>
</g>
<!-- Node14&#45;&gt;Node28 -->
<g id="edge68" class="edge"><title>Node14&#45;&gt;Node28</title>
<path fill="none" stroke="midnightblue" d="M1567.81,-287.34C1652.72,-280.252 1811.66,-264.866 1955.27,-238.208"/>
<polygon fill="midnightblue" stroke="midnightblue" points="1955.97,-241.639 1965.15,-236.353 1954.67,-234.76 1955.97,-241.639"/>
</g>
<!-- Node29 -->
<g id="node64" class="node"><title>Node29</title>
<a xlink:href="gs__config__native_8hpp.html" target="_top" xlink:title="core/common/gs_config\l/gs_config_native.hpp">
<polygon fill="white" stroke="black" points="1155.5,-203 1155.5,-237 1276.5,-237 1276.5,-203 1155.5,-203"/>
<text text-anchor="start" x="1163.5" y="-224" font-family="Helvetica,sans-Serif" font-size="10.00">core/common/gs_config</text>
<text text-anchor="middle" x="1216" y="-211" font-family="Helvetica,sans-Serif" font-size="10.00">/gs_config_native.hpp</text>
</a>
</g>
<!-- Node14&#45;&gt;Node29 -->
<g id="edge70" class="edge"><title>Node14&#45;&gt;Node29</title>
<path fill="none" stroke="midnightblue" d="M1446.16,-277.488C1403.86,-267.333 1345.92,-253.292 1286.5,-238.362"/>
<polygon fill="midnightblue" stroke="midnightblue" points="1287.12,-234.908 1276.57,-235.861 1285.41,-241.696 1287.12,-234.908"/>
</g>
<!-- Node30 -->
<g id="node66" class="node"><title>Node30</title>
<a xlink:href="gs__config__stdint_8hpp.html" target="_top" xlink:title="core/common/gs_config\l/gs_config_stdint.hpp">
<polygon fill="white" stroke="black" points="2003.5,-131 2003.5,-165 2124.5,-165 2124.5,-131 2003.5,-131"/>
<text text-anchor="start" x="2011.5" y="-152" font-family="Helvetica,sans-Serif" font-size="10.00">core/common/gs_config</text>
<text text-anchor="middle" x="2064" y="-139" font-family="Helvetica,sans-Serif" font-size="10.00">/gs_config_stdint.hpp</text>
</a>
</g>
<!-- Node14&#45;&gt;Node30 -->
<g id="edge72" class="edge"><title>Node14&#45;&gt;Node30</title>
<path fill="none" stroke="midnightblue" d="M1567.5,-287.828C1619.31,-282.188 1694.56,-268.963 1753,-238 1773.56,-227.108 1770.33,-212.678 1791,-202 1825.57,-184.141 1924.72,-167.377 1993.49,-157.401"/>
<polygon fill="midnightblue" stroke="midnightblue" points="1994.01,-160.863 2003.41,-155.979 1993.01,-153.934 1994.01,-160.863"/>
</g>
<!-- Node31 -->
<g id="node69" class="node"><title>Node31</title>
<a xlink:href="gs__config__systemc_8hpp.html" target="_top" xlink:title="core/common/gs_config\l/gs_config_systemc.hpp">
<polygon fill="white" stroke="black" points="1293.5,-203 1293.5,-237 1416.5,-237 1416.5,-203 1293.5,-203"/>
<text text-anchor="start" x="1301.5" y="-224" font-family="Helvetica,sans-Serif" font-size="10.00">core/common/gs_config</text>
<text text-anchor="middle" x="1355" y="-211" font-family="Helvetica,sans-Serif" font-size="10.00">/gs_config_systemc.hpp</text>
</a>
</g>
<!-- Node14&#45;&gt;Node31 -->
<g id="edge76" class="edge"><title>Node14&#45;&gt;Node31</title>
<path fill="none" stroke="midnightblue" d="M1470.98,-274.937C1449.76,-264.886 1422.73,-252.082 1400.1,-241.364"/>
<polygon fill="midnightblue" stroke="midnightblue" points="1401.56,-238.183 1391.03,-237.065 1398.57,-244.509 1401.56,-238.183"/>
</g>
<!-- Node18&#45;&gt;Node3 -->
<g id="edge42" class="edge"><title>Node18&#45;&gt;Node3</title>
<path fill="none" stroke="midnightblue" d="M1038.01,-209.489C1008.26,-200.369 966.448,-185.555 933,-166 911.483,-153.42 910.521,-144.147 890,-130 872.978,-118.265 852.79,-106.896 836.472,-98.279"/>
<polygon fill="midnightblue" stroke="midnightblue" points="837.851,-95.0512 827.364,-93.5418 834.621,-101.261 837.851,-95.0512"/>
</g>
<!-- Node19 -->
<g id="node41" class="node"><title>Node19</title>
<a xlink:href="vendian_8h.html" target="_top" xlink:title="core/common/vendian.h">
<polygon fill="white" stroke="black" points="1119.5,-137.5 1119.5,-158.5 1240.5,-158.5 1240.5,-137.5 1119.5,-137.5"/>
<text text-anchor="middle" x="1180" y="-145.5" font-family="Helvetica,sans-Serif" font-size="10.00">core/common/vendian.h</text>
</a>
</g>
<!-- Node18&#45;&gt;Node19 -->
<g id="edge44" class="edge"><title>Node18&#45;&gt;Node19</title>
<path fill="none" stroke="midnightblue" d="M1091.35,-209.376C1108.47,-197.518 1136.4,-178.186 1156.33,-164.388"/>
<polygon fill="midnightblue" stroke="midnightblue" points="1158.36,-167.237 1164.59,-158.667 1154.38,-161.482 1158.36,-167.237"/>
</g>
<!-- Node21 -->
<g id="node45" class="node"><title>Node21</title>
<a xlink:href="verbose_8h.html" target="_top" xlink:title="Implements a unified output system for messages and debunging. ">
<polygon fill="white" stroke="black" points="942,-137.5 942,-158.5 1064,-158.5 1064,-137.5 942,-137.5"/>
<text text-anchor="middle" x="1003" y="-145.5" font-family="Helvetica,sans-Serif" font-size="10.00">core/common/verbose.h</text>
</a>
</g>
<!-- Node18&#45;&gt;Node21 -->
<g id="edge48" class="edge"><title>Node18&#45;&gt;Node21</title>
<path fill="none" stroke="midnightblue" d="M1060.27,-209.376C1046.86,-198.103 1028.24,-180.075 1015.74,-166.468"/>
<polygon fill="midnightblue" stroke="midnightblue" points="1018.1,-163.845 1008.85,-158.667 1012.85,-168.479 1018.1,-163.845"/>
</g>
<!-- Node19&#45;&gt;Node20 -->
<g id="edge46" class="edge"><title>Node19&#45;&gt;Node20</title>
<path fill="none" stroke="midnightblue" d="M1240.76,-143.532C1412.05,-130.938 1895.05,-95.4225 2029.11,-85.5655"/>
<polygon fill="midnightblue" stroke="midnightblue" points="2029.5,-89.0461 2039.22,-84.8221 2028.99,-82.0649 2029.5,-89.0461"/>
</g>
<!-- Node21&#45;&gt;Node3 -->
<g id="edge62" class="edge"><title>Node21&#45;&gt;Node3</title>
<path fill="none" stroke="midnightblue" d="M970.91,-137.412C937.425,-126.364 884.773,-108.991 847.998,-96.8574"/>
<polygon fill="midnightblue" stroke="midnightblue" points="848.669,-93.3932 838.076,-93.5835 846.476,-100.041 848.669,-93.3932"/>
</g>
<!-- Node21&#45;&gt;Node15 -->
<g id="edge56" class="edge"><title>Node21&#45;&gt;Node15</title>
<path fill="none" stroke="midnightblue" d="M1035.25,-137.412C1070.51,-125.837 1126.91,-107.322 1163.96,-95.1608"/>
<polygon fill="midnightblue" stroke="midnightblue" points="1165.45,-98.3547 1173.86,-91.9102 1163.27,-91.7039 1165.45,-98.3547"/>
</g>
<!-- Node21&#45;&gt;Node18 -->
<g id="edge60" class="edge"><title>Node21&#45;&gt;Node18</title>
<path fill="none" stroke="midnightblue" d="M1018.78,-158.667C1032.2,-169.958 1050.82,-187.989 1063.3,-201.584"/>
<polygon fill="midnightblue" stroke="midnightblue" points="1060.94,-204.196 1070.18,-209.376 1066.19,-199.563 1060.94,-204.196"/>
</g>
<!-- Node22 -->
<g id="node47" class="node"><title>Node22</title>
<polygon fill="white" stroke="#bfbfbf" points="981.5,-72.5 981.5,-93.5 1024.5,-93.5 1024.5,-72.5 981.5,-72.5"/>
<text text-anchor="middle" x="1003" y="-80.5" font-family="Helvetica,sans-Serif" font-size="10.00">cstdio</text>
</g>
<!-- Node21&#45;&gt;Node22 -->
<g id="edge50" class="edge"><title>Node21&#45;&gt;Node22</title>
<path fill="none" stroke="midnightblue" d="M1003,-137.267C1003,-128.18 1003,-114.892 1003,-103.74"/>
<polygon fill="midnightblue" stroke="midnightblue" points="1006.5,-103.534 1003,-93.5337 999.5,-103.534 1006.5,-103.534"/>
</g>
<!-- Node23 -->
<g id="node49" class="node"><title>Node23</title>
<polygon fill="white" stroke="#bfbfbf" points="1042,-72.5 1042,-93.5 1088,-93.5 1088,-72.5 1042,-72.5"/>
<text text-anchor="middle" x="1065" y="-80.5" font-family="Helvetica,sans-Serif" font-size="10.00">cstring</text>
</g>
<!-- Node21&#45;&gt;Node23 -->
<g id="edge52" class="edge"><title>Node21&#45;&gt;Node23</title>
<path fill="none" stroke="midnightblue" d="M1013.24,-137.267C1022.63,-127.423 1036.72,-112.648 1047.83,-101"/>
<polygon fill="midnightblue" stroke="midnightblue" points="1050.58,-103.186 1054.95,-93.5337 1045.52,-98.3541 1050.58,-103.186"/>
</g>
<!-- Node24 -->
<g id="node51" class="node"><title>Node24</title>
<polygon fill="white" stroke="#bfbfbf" points="1106,-72.5 1106,-93.5 1156,-93.5 1156,-72.5 1106,-72.5"/>
<text text-anchor="middle" x="1131" y="-80.5" font-family="Helvetica,sans-Serif" font-size="10.00">iomanip</text>
</g>
<!-- Node21&#45;&gt;Node24 -->
<g id="edge54" class="edge"><title>Node21&#45;&gt;Node24</title>
<path fill="none" stroke="midnightblue" d="M1023.85,-137.412C1044.86,-126.741 1077.49,-110.172 1101.23,-98.1198"/>
<polygon fill="midnightblue" stroke="midnightblue" points="1102.83,-101.232 1110.16,-93.5835 1099.66,-94.9907 1102.83,-101.232"/>
</g>
<!-- Node25 -->
<g id="node54" class="node"><title>Node25</title>
<polygon fill="white" stroke="#bfbfbf" points="904,-72.5 904,-93.5 964,-93.5 964,-72.5 904,-72.5"/>
<text text-anchor="middle" x="934" y="-80.5" font-family="Helvetica,sans-Serif" font-size="10.00">streambuf</text>
</g>
<!-- Node21&#45;&gt;Node25 -->
<g id="edge58" class="edge"><title>Node21&#45;&gt;Node25</title>
<path fill="none" stroke="midnightblue" d="M991.606,-137.267C981.056,-127.328 965.17,-112.363 952.751,-100.664"/>
<polygon fill="midnightblue" stroke="midnightblue" points="954.861,-97.843 945.182,-93.5337 950.061,-102.938 954.861,-97.843"/>
</g>
<!-- Node30&#45;&gt;Node20 -->
<g id="edge74" class="edge"><title>Node30&#45;&gt;Node20</title>
<path fill="none" stroke="midnightblue" d="M2064,-130.922C2064,-122.67 2064,-112.692 2064,-103.982"/>
<polygon fill="midnightblue" stroke="midnightblue" points="2067.5,-103.852 2064,-93.8521 2060.5,-103.852 2067.5,-103.852"/>
</g>
<!-- Node32&#45;&gt;Node3 -->
<g id="edge82" class="edge"><title>Node32&#45;&gt;Node3</title>
<path fill="none" stroke="midnightblue" d="M493.809,-358.165C376.222,-344.674 110.642,-307.076 57,-238 47.1865,-225.363 46.6118,-214.169 57,-202 100.763,-150.735 553.756,-105.343 733.29,-89.2294"/>
<polygon fill="midnightblue" stroke="midnightblue" points="733.782,-92.6994 743.431,-88.3242 733.16,-85.7271 733.782,-92.6994"/>
</g>
<!-- Node33 -->
<g id="node73" class="node"><title>Node33</title>
<polygon fill="white" stroke="#bfbfbf" points="362,-281.5 362,-302.5 440,-302.5 440,-281.5 362,-281.5"/>
<text text-anchor="middle" x="401" y="-289.5" font-family="Helvetica,sans-Serif" font-size="10.00">boost/any.hpp</text>
</g>
<!-- Node32&#45;&gt;Node33 -->
<g id="edge80" class="edge"><title>Node32&#45;&gt;Node33</title>
<path fill="none" stroke="midnightblue" d="M528.015,-353.376C502.705,-341.146 460.942,-320.965 432.259,-307.105"/>
<polygon fill="midnightblue" stroke="midnightblue" points="433.602,-303.867 423.076,-302.667 430.557,-310.17 433.602,-303.867"/>
</g>
<!-- Node34 -->
<g id="node76" class="node"><title>Node34</title>
<a xlink:href="vmap_8h.html" target="_top" xlink:title="core/common/vmap.h">
<polygon fill="white" stroke="black" points="621.5,-281.5 621.5,-302.5 732.5,-302.5 732.5,-281.5 621.5,-281.5"/>
<text text-anchor="middle" x="677" y="-289.5" font-family="Helvetica,sans-Serif" font-size="10.00">core/common/vmap.h</text>
</a>
</g>
<!-- Node32&#45;&gt;Node34 -->
<g id="edge84" class="edge"><title>Node32&#45;&gt;Node34</title>
<path fill="none" stroke="midnightblue" d="M568.739,-353.376C590.031,-341.305 624.982,-321.49 649.394,-307.651"/>
<polygon fill="midnightblue" stroke="midnightblue" points="651.211,-310.644 658.184,-302.667 647.758,-304.555 651.211,-310.644"/>
</g>
<!-- Node34&#45;&gt;Node13 -->
<g id="edge86" class="edge"><title>Node34&#45;&gt;Node13</title>
<path fill="none" stroke="midnightblue" d="M712.741,-281.453C761.882,-266.953 849.25,-241.172 893.575,-228.093"/>
<polygon fill="midnightblue" stroke="midnightblue" points="894.763,-231.391 903.364,-225.204 892.782,-224.678 894.763,-231.391"/>
</g>
<!-- Node36&#45;&gt;Node35 -->
<g id="edge92" class="edge"><title>Node36&#45;&gt;Node35</title>
<path fill="none" stroke="midnightblue" d="M711.845,-346.93C720.66,-336.519 731.864,-322.794 741,-310 757.849,-286.407 775.168,-257.769 785.998,-239.229"/>
<polygon fill="midnightblue" stroke="midnightblue" points="789.05,-240.943 791.033,-230.535 782.992,-237.435 789.05,-240.943"/>
</g>
<!-- Node37 -->
<g id="node84" class="node"><title>Node37</title>
<a xlink:href="gr__ambasockets_8h.html" target="_top" xlink:title="core/common/grambasockets\l/gr_ambasockets.h">
<polygon fill="white" stroke="black" points="458,-275 458,-309 604,-309 604,-275 458,-275"/>
<text text-anchor="start" x="466" y="-296" font-family="Helvetica,sans-Serif" font-size="10.00">core/common/grambasockets</text>
<text text-anchor="middle" x="531" y="-283" font-family="Helvetica,sans-Serif" font-size="10.00">/gr_ambasockets.h</text>
</a>
</g>
<!-- Node36&#45;&gt;Node37 -->
<g id="edge94" class="edge"><title>Node36&#45;&gt;Node37</title>
<path fill="none" stroke="midnightblue" d="M657.66,-346.937C634.281,-336.797 604.441,-323.854 579.598,-313.078"/>
<polygon fill="midnightblue" stroke="midnightblue" points="580.912,-309.833 570.345,-309.065 578.126,-316.255 580.912,-309.833"/>
</g>
<!-- Node37&#45;&gt;Node15 -->
<g id="edge110" class="edge"><title>Node37&#45;&gt;Node15</title>
<path fill="none" stroke="midnightblue" d="M586.525,-274.994C610.653,-266.118 638.485,-253.779 661,-238 678.775,-225.543 674.568,-211.67 694,-202 845.481,-126.614 918.957,-236.003 1073,-166 1094.18,-156.375 1092.06,-143.514 1111,-130 1128.43,-117.559 1149.59,-106.34 1167.01,-97.986"/>
<polygon fill="midnightblue" stroke="midnightblue" points="1168.69,-101.065 1176.26,-93.6499 1165.72,-94.7271 1168.69,-101.065"/>
</g>
<!-- Node37&#45;&gt;Node19 -->
<g id="edge106" class="edge"><title>Node37&#45;&gt;Node19</title>
<path fill="none" stroke="midnightblue" d="M601.628,-274.92C631.233,-266.18 665.356,-253.964 694,-238 715.771,-225.866 714.015,-211.64 737,-202 888.954,-138.267 943.539,-193.542 1106,-166 1114.16,-164.617 1122.74,-162.836 1131.07,-160.932"/>
<polygon fill="midnightblue" stroke="midnightblue" points="1132.12,-164.28 1141.04,-158.569 1130.5,-157.469 1132.12,-164.28"/>
</g>
<!-- Node37&#45;&gt;Node35 -->
<g id="edge96" class="edge"><title>Node37&#45;&gt;Node35</title>
<path fill="none" stroke="midnightblue" d="M594.853,-274.98C634.378,-264.411 686.16,-250.505 732,-238 737.645,-236.46 743.562,-234.836 749.431,-233.218"/>
<polygon fill="midnightblue" stroke="midnightblue" points="750.498,-236.555 759.205,-230.519 748.635,-229.807 750.498,-236.555"/>
</g>
<!-- Node38 -->
<g id="node87" class="node"><title>Node38</title>
<polygon fill="white" stroke="#bfbfbf" points="470,-203 470,-237 652,-237 652,-203 470,-203"/>
<text text-anchor="start" x="478" y="-224" font-family="Helvetica,sans-Serif" font-size="10.00">greensocket/utils/greensocketaddress</text>
<text text-anchor="middle" x="561" y="-211" font-family="Helvetica,sans-Serif" font-size="10.00">_base.h</text>
</g>
<!-- Node37&#45;&gt;Node38 -->
<g id="edge98" class="edge"><title>Node37&#45;&gt;Node38</title>
<path fill="none" stroke="midnightblue" d="M538.11,-274.937C541.607,-266.542 545.906,-256.227 549.829,-246.81"/>
<polygon fill="midnightblue" stroke="midnightblue" points="553.118,-248.018 553.733,-237.441 546.656,-245.325 553.118,-248.018"/>
</g>
<!-- Node39 -->
<g id="node89" class="node"><title>Node39</title>
<polygon fill="white" stroke="#bfbfbf" points="65.5,-203 65.5,-237 194.5,-237 194.5,-203 65.5,-203"/>
<text text-anchor="start" x="73.5" y="-224" font-family="Helvetica,sans-Serif" font-size="10.00">greenreg/greenreg_socket</text>
<text text-anchor="middle" x="130" y="-211" font-family="Helvetica,sans-Serif" font-size="10.00">/transactor_if.h</text>
</g>
<!-- Node37&#45;&gt;Node39 -->
<g id="edge100" class="edge"><title>Node37&#45;&gt;Node39</title>
<path fill="none" stroke="midnightblue" d="M457.734,-275.648C454.788,-275.076 451.868,-274.524 449,-274 343.486,-254.724 313.195,-258.974 204.835,-238.268"/>
<polygon fill="midnightblue" stroke="midnightblue" points="205.29,-234.791 194.807,-236.324 203.958,-241.663 205.29,-234.791"/>
</g>
<!-- Node40 -->
<g id="node91" class="node"><title>Node40</title>
<polygon fill="white" stroke="#bfbfbf" points="211.5,-203 211.5,-237 314.5,-237 314.5,-203 211.5,-203"/>
<text text-anchor="start" x="219.5" y="-224" font-family="Helvetica,sans-Serif" font-size="10.00">greenreg/framework</text>
<text text-anchor="middle" x="263" y="-211" font-family="Helvetica,sans-Serif" font-size="10.00">/core/gr_common.h</text>
</g>
<!-- Node37&#45;&gt;Node40 -->
<g id="edge102" class="edge"><title>Node37&#45;&gt;Node40</title>
<path fill="none" stroke="midnightblue" d="M462.439,-274.888C424.263,-265.199 375.657,-252.6 324.579,-238.401"/>
<polygon fill="midnightblue" stroke="midnightblue" points="325.248,-234.954 314.675,-235.636 323.366,-241.696 325.248,-234.954"/>
</g>
<!-- Node41 -->
<g id="node93" class="node"><title>Node41</title>
<polygon fill="white" stroke="#bfbfbf" points="331.5,-209.5 331.5,-230.5 380.5,-230.5 380.5,-209.5 331.5,-209.5"/>
<text text-anchor="middle" x="356" y="-217.5" font-family="Helvetica,sans-Serif" font-size="10.00">amba.h</text>
</g>
<!-- Node37&#45;&gt;Node41 -->
<g id="edge104" class="edge"><title>Node37&#45;&gt;Node41</title>
<path fill="none" stroke="midnightblue" d="M481.361,-274.998C453.783,-265.088 419.069,-251.84 389,-238 387.177,-237.161 385.316,-236.264 383.452,-235.334"/>
<polygon fill="midnightblue" stroke="midnightblue" points="384.759,-232.068 374.274,-230.542 381.518,-238.273 384.759,-232.068"/>
</g>
<!-- Node42 -->
<g id="node96" class="node"><title>Node42</title>
<polygon fill="white" stroke="#bfbfbf" points="398,-209.5 398,-230.5 452,-230.5 452,-209.5 398,-209.5"/>
<text text-anchor="middle" x="425" y="-217.5" font-family="Helvetica,sans-Serif" font-size="10.00">systemc</text>
</g>
<!-- Node37&#45;&gt;Node42 -->
<g id="edge108" class="edge"><title>Node37&#45;&gt;Node42</title>
<path fill="none" stroke="midnightblue" d="M505.879,-274.937C488.675,-263.251 465.992,-247.843 449.026,-236.32"/>
<polygon fill="midnightblue" stroke="midnightblue" points="450.974,-233.412 440.735,-230.688 447.041,-239.202 450.974,-233.412"/>
</g>
</g>
</svg>
        <g id="navigator" transform="translate(0 0)" fill="#404254">
                <rect fill="#f2f5e9" fill-opacity="0.5" stroke="#606060" stroke-width=".5" x="0" y="0" width="60" height="60"/>
                <use id="zoomplus" xlink:href="#zoomPlus" x="17" y="9" onmousedown="handleZoom(evt,'in')"/>
                <use id="zoomminus" xlink:href="#zoomMin" x="42" y="9" onmousedown="handleZoom(evt,'out')"/>
                <use id="reset" xlink:href="#resetDef" x="30" y="36" onmousedown="handleReset()"/>
                <g id="arrowUp" xlink:href="#dirArrow" transform="translate(30 24)" onmousedown="handlePan(0,-1)">
                  <use xlink:href="#rim" fill="#404040">
                        <set attributeName="fill" to="#808080" begin="arrowUp.mouseover" end="arrowUp.mouseout"/>
                  </use>
                  <path fill="none" stroke="white" stroke-width="1.5" d="M0,-3.0v7 M-2.5,-0.5L0,-3.0L2.5,-0.5"/>
                </g>
                <g id="arrowRight" xlink:href="#dirArrow" transform="rotate(90) translate(36 -43)" onmousedown="handlePan(1,0)">
                  <use xlink:href="#rim" fill="#404040">
                        <set attributeName="fill" to="#808080" begin="arrowRight.mouseover" end="arrowRight.mouseout"/>
                  </use>
                  <path fill="none" stroke="white" stroke-width="1.5" d="M0,-3.0v7 M-2.5,-0.5L0,-3.0L2.5,-0.5"/>
                </g>
                <g id="arrowDown" xlink:href="#dirArrow" transform="rotate(180) translate(-30 -48)" onmousedown="handlePan(0,1)">
                  <use xlink:href="#rim" fill="#404040">
                        <set attributeName="fill" to="#808080" begin="arrowDown.mouseover" end="arrowDown.mouseout"/>
                  </use>
                  <path fill="none" stroke="white" stroke-width="1.5" d="M0,-3.0v7 M-2.5,-0.5L0,-3.0L2.5,-0.5"/>
                </g>
                <g id="arrowLeft" xlink:href="#dirArrow" transform="rotate(270) translate(-36 17)" onmousedown="handlePan(-1,0)">
                  <use xlink:href="#rim" fill="#404040">
                        <set attributeName="fill" to="#808080" begin="arrowLeft.mouseover" end="arrowLeft.mouseout"/>
                  </use>
                  <path fill="none" stroke="white" stroke-width="1.5" d="M0,-3.0v7 M-2.5,-0.5L0,-3.0L2.5,-0.5"/>
                </g>
        </g>
        <svg viewBox="0 0 15 15" width="100%" height="30px" preserveAspectRatio="xMaxYMin meet">
         <g id="arrow_out" transform="scale(0.3 0.3)">
          <a xlink:href="ahbdevicebase_8h__incl_org.svg" target="_base">
           <rect id="button" ry="5" rx="5" y="6" x="6" height="38" width="38"
                fill="#f2f5e9" fill-opacity="0.5" stroke="#606060" stroke-width="1.0"/>
           <path id="arrow"
             d="M 11.500037,31.436501 C 11.940474,20.09759 22.043105,11.32322 32.158766,21.979434 L 37.068811,17.246167 C 37.068811,17.246167 37.088388,32 37.088388,32 L 22.160133,31.978069 C 22.160133,31.978069 26.997745,27.140456 26.997745,27.140456 C 18.528582,18.264221 13.291696,25.230495 11.500037,31.436501 z"
             style="fill:#404040;"/>
          </a>
         </g>
        </svg>
</svg>
