<?xml version="1.0" encoding="UTF-8" standalone="no"?>
<!DOCTYPE svg PUBLIC "-//W3C//DTD SVG 1.1//EN"
 "http://www.w3.org/Graphics/SVG/1.1/DTD/svg11.dtd">
<!-- Generated by graphviz version 2.36.0 (20140111.2315)
 -->
<!-- Title: core/common/ahbdevicebase.h Pages: 1 -->
<!--zoomable 568 -->
<svg id="main" version="1.1" xmlns="http://www.w3.org/2000/svg" xmlns:xlink="http://www.w3.org/1999/xlink" xml:space="preserve" onload="init(evt)">
<style type="text/css"><![CDATA[
.edge:hover path { stroke: red; }
.edge:hover polygon { stroke: red; fill: red; }
]]></style>
<script type="text/javascript"><![CDATA[
var edges = document.getElementsByTagName('g');
if (edges && edges.length) {
  for (var i=0;i<edges.length;i++) {
    if (edges[i].id.substr(0,4)=='edge') {
      edges[i].setAttribute('class','edge');
    }
  }
}
]]></script>
        <defs>
                <circle id="rim" cx="0" cy="0" r="7"/>
                <circle id="rim2" cx="0" cy="0" r="3.5"/>
                <g id="zoomPlus">
                        <use xlink:href="#rim" fill="#404040">
                                <set attributeName="fill" to="#808080" begin="zoomplus.mouseover" end="zoomplus.mouseout"/>
                        </use>
                        <path d="M-4,0h8M0,-4v8" fill="none" stroke="white" stroke-width="1.5" pointer-events="none"/>
                </g>
                <g id="zoomMin">
                        <use xlink:href="#rim" fill="#404040">
                                <set attributeName="fill" to="#808080" begin="zoomminus.mouseover" end="zoomminus.mouseout"/>
                        </use>
                        <path d="M-4,0h8" fill="none" stroke="white" stroke-width="1.5" pointer-events="none"/>
                </g>
                <g id="dirArrow">
                        <path fill="none" stroke="white" stroke-width="1.5" d="M0,-3.0v7 M-2.5,-0.5L0,-3.0L2.5,-0.5"/>
                </g>
               <g id="resetDef">
                       <use xlink:href="#rim2" fill="#404040">
                               <set attributeName="fill" to="#808080" begin="reset.mouseover" end="reset.mouseout"/>
                       </use>
               </g>
        </defs>

<script type="text/javascript">
var viewWidth = 1756;
var viewHeight = 568;
var sectionId = 'dynsection-0';
</script>
<script xlink:href="svgpan.js"/>
<svg id="graph" class="graph">
<g id="viewport">
<title>core/common/ahbdevicebase.h</title>
<polygon fill="white" stroke="none" points="-4,4 -4,-564 1752,-564 1752,4 -4,4"/>
<!-- Node1 -->
<g id="node1" class="node"><title>Node1</title>
<polygon fill="#bfbfbf" stroke="black" points="1245,-540.5 1245,-559.5 1397,-559.5 1397,-540.5 1245,-540.5"/>
<text text-anchor="middle" x="1321" y="-547.5" font-family="Helvetica,sans-Serif" font-size="10.00">core/common/ahbdevicebase.h</text>
</g>
<!-- Node2 -->
<g id="node2" class="node"><title>Node2</title>
<g id="a_node2"><a xlink:href="common_2amba_8h.html" target="_top" xlink:title="core/common/amba.h">
<polygon fill="white" stroke="black" points="346.5,-484.5 346.5,-503.5 457.5,-503.5 457.5,-484.5 346.5,-484.5"/>
<text text-anchor="middle" x="402" y="-491.5" font-family="Helvetica,sans-Serif" font-size="10.00">core/common/amba.h</text>
</a>
</g>
</g>
<!-- Node1&#45;&gt;Node2 -->
<g id="edge1" class="edge"><title>Node1&#45;&gt;Node2</title>
<path fill="none" stroke="midnightblue" d="M1244.62,-544.512C1067.96,-534.131 633.584,-508.608 467.778,-498.865"/>
<polygon fill="midnightblue" stroke="midnightblue" points="467.91,-495.367 457.722,-498.274 467.499,-502.355 467.91,-495.367"/>
</g>
<!-- Node4 -->
<g id="node4" class="node"><title>Node4</title>
<polygon fill="white" stroke="#bfbfbf" points="1058,-6.5 1058,-25.5 1096,-25.5 1096,-6.5 1058,-6.5"/>
<text text-anchor="middle" x="1077" y="-13.5" font-family="Helvetica,sans-Serif" font-size="10.00">tlm.h</text>
</g>
<!-- Node1&#45;&gt;Node4 -->
<g id="edge60" class="edge"><title>Node1&#45;&gt;Node4</title>
<path fill="none" stroke="midnightblue" d="M1397.34,-544.934C1520.16,-536.278 1748,-510.576 1748,-439 1748,-439 1748,-439 1748,-133 1748,-86.8419 1709.84,-85.1739 1667,-68 1563.31,-26.4361 1210.52,-18.6873 1106.25,-17.2945"/>
<polygon fill="midnightblue" stroke="midnightblue" points="1106.18,-13.7934 1096.14,-17.1693 1106.09,-20.7929 1106.18,-13.7934"/>
</g>
<!-- Node8 -->
<g id="node8" class="node"><title>Node8</title>
<g id="a_node8"><a xlink:href="base_8h.html" target="_top" xlink:title="core/common/base.h">
<polygon fill="white" stroke="black" points="441,-428.5 441,-447.5 549,-447.5 549,-428.5 441,-428.5"/>
<text text-anchor="middle" x="495" y="-435.5" font-family="Helvetica,sans-Serif" font-size="10.00">core/common/base.h</text>
</a>
</g>
</g>
<!-- Node1&#45;&gt;Node8 -->
<g id="edge61" class="edge"><title>Node1&#45;&gt;Node8</title>
<path fill="none" stroke="midnightblue" d="M1256.87,-540.46C1102.92,-519.957 713.765,-468.133 559.465,-447.585"/>
<polygon fill="midnightblue" stroke="midnightblue" points="559.581,-444.07 549.207,-446.219 558.657,-451.008 559.581,-444.07"/>
</g>
<!-- Node30 -->
<g id="node30" class="node"><title>Node30</title>
<polygon fill="white" stroke="#bfbfbf" points="1609.5,-68.5 1609.5,-87.5 1658.5,-87.5 1658.5,-68.5 1609.5,-68.5"/>
<text text-anchor="middle" x="1634" y="-75.5" font-family="Helvetica,sans-Serif" font-size="10.00">stdint.h</text>
</g>
<!-- Node1&#45;&gt;Node30 -->
<g id="edge59" class="edge"><title>Node1&#45;&gt;Node30</title>
<path fill="none" stroke="midnightblue" d="M1397.39,-542.978C1510.68,-531.912 1710,-503.305 1710,-439 1710,-439 1710,-439 1710,-189 1710,-158.775 1706.97,-149.011 1690,-124 1681.66,-111.703 1668.95,-101.105 1657.75,-93.288"/>
<polygon fill="midnightblue" stroke="midnightblue" points="1659.47,-90.2315 1649.2,-87.6358 1655.61,-96.0706 1659.47,-90.2315"/>
</g>
<!-- Node2&#45;&gt;Node2 -->
<g id="edge2" class="edge"><title>Node2&#45;&gt;Node2</title>
<path fill="none" stroke="midnightblue" d="M433.135,-503.525C454.29,-506.308 475,-503.133 475,-494 475,-486.366 460.528,-482.894 443.422,-483.586"/>
<polygon fill="midnightblue" stroke="midnightblue" points="442.796,-480.127 433.135,-484.475 443.399,-487.101 442.796,-480.127"/>
</g>
<!-- Node3 -->
<g id="node3" class="node"><title>Node3</title>
<g id="a_node3"><a xlink:href="core_2common_2systemc_8h.html" target="_top" xlink:title="core/common/systemc.h">
<polygon fill="white" stroke="black" points="125.5,-68.5 125.5,-87.5 250.5,-87.5 250.5,-68.5 125.5,-68.5"/>
<text text-anchor="middle" x="188" y="-75.5" font-family="Helvetica,sans-Serif" font-size="10.00">core/common/systemc.h</text>
</a>
</g>
</g>
<!-- Node2&#45;&gt;Node3 -->
<g id="edge3" class="edge"><title>Node2&#45;&gt;Node3</title>
<path fill="none" stroke="midnightblue" d="M346.235,-492.71C270.649,-489.04 145,-469.874 145,-383 145,-383 145,-383 145,-189 145,-154.306 163.785,-117.42 176.523,-96.3957"/>
<polygon fill="midnightblue" stroke="midnightblue" points="179.65,-97.9982 182.021,-87.6721 173.728,-94.2657 179.65,-97.9982"/>
</g>
<!-- Node2&#45;&gt;Node8 -->
<g id="edge9" class="edge"><title>Node2&#45;&gt;Node8</title>
<path fill="none" stroke="midnightblue" d="M416.942,-484.324C431.585,-475.822 454.134,-462.729 471.238,-452.797"/>
<polygon fill="midnightblue" stroke="midnightblue" points="473.205,-455.703 480.095,-447.655 469.69,-449.649 473.205,-455.703"/>
</g>
<!-- Node9 -->
<g id="node9" class="node"><title>Node9</title>
<g id="a_node9"><a xlink:href="sr__report_8h.html" target="_top" xlink:title="core/common/sr_report.h">
<polygon fill="white" stroke="black" points="209.5,-372.5 209.5,-391.5 334.5,-391.5 334.5,-372.5 209.5,-372.5"/>
<text text-anchor="middle" x="272" y="-379.5" font-family="Helvetica,sans-Serif" font-size="10.00">core/common/sr_report.h</text>
</a>
</g>
</g>
<!-- Node2&#45;&gt;Node9 -->
<g id="edge58" class="edge"><title>Node2&#45;&gt;Node9</title>
<path fill="none" stroke="midnightblue" d="M391.799,-484.368C369.776,-465.733 317.538,-421.532 289.885,-398.134"/>
<polygon fill="midnightblue" stroke="midnightblue" points="292.048,-395.379 282.153,-391.591 287.527,-400.723 292.048,-395.379"/>
</g>
<!-- Node3&#45;&gt;Node3 -->
<g id="edge4" class="edge"><title>Node3&#45;&gt;Node3</title>
<path fill="none" stroke="midnightblue" d="M222.12,-87.5252C245.304,-90.3079 268,-87.1328 268,-78 268,-70.2228 251.542,-66.766 232.339,-67.6294"/>
<polygon fill="midnightblue" stroke="midnightblue" points="231.798,-64.1622 222.12,-68.4748 232.375,-71.1384 231.798,-64.1622"/>
</g>
<!-- Node3&#45;&gt;Node4 -->
<g id="edge5" class="edge"><title>Node3&#45;&gt;Node4</title>
<path fill="none" stroke="midnightblue" d="M250.916,-70.4177C259.999,-69.5521 269.236,-68.7177 278,-68 578.378,-43.4025 943.11,-23.8861 1047.7,-18.4892"/>
<polygon fill="midnightblue" stroke="midnightblue" points="1048,-21.9782 1057.81,-17.9697 1047.65,-14.9875 1048,-21.9782"/>
</g>
<!-- Node5 -->
<g id="node5" class="node"><title>Node5</title>
<polygon fill="white" stroke="#bfbfbf" points="253.5,-1 253.5,-31 368.5,-31 368.5,-1 253.5,-1"/>
<text text-anchor="start" x="261.5" y="-19" font-family="Helvetica,sans-Serif" font-size="10.00">tlm_utils/simple_target</text>
<text text-anchor="middle" x="311" y="-8" font-family="Helvetica,sans-Serif" font-size="10.00">_socket.h</text>
</g>
<!-- Node3&#45;&gt;Node5 -->
<g id="edge6" class="edge"><title>Node3&#45;&gt;Node5</title>
<path fill="none" stroke="midnightblue" d="M205.623,-68.4035C223.06,-59.8976 250.316,-46.6018 272.74,-35.6635"/>
<polygon fill="midnightblue" stroke="midnightblue" points="274.558,-38.6708 282.011,-31.1408 271.489,-32.3794 274.558,-38.6708"/>
</g>
<!-- Node6 -->
<g id="node6" class="node"><title>Node6</title>
<polygon fill="white" stroke="#bfbfbf" points="0,-1 0,-31 122,-31 122,-1 0,-1"/>
<text text-anchor="start" x="8" y="-19" font-family="Helvetica,sans-Serif" font-size="10.00">tlm_utils/simple_initiator</text>
<text text-anchor="middle" x="61" y="-8" font-family="Helvetica,sans-Serif" font-size="10.00">_socket.h</text>
</g>
<!-- Node3&#45;&gt;Node6 -->
<g id="edge7" class="edge"><title>Node3&#45;&gt;Node6</title>
<path fill="none" stroke="midnightblue" d="M169.804,-68.4035C151.719,-59.8596 123.406,-46.483 100.195,-35.5171"/>
<polygon fill="midnightblue" stroke="midnightblue" points="101.468,-32.2479 90.9314,-31.1408 98.478,-38.5772 101.468,-32.2479"/>
</g>
<!-- Node7 -->
<g id="node7" class="node"><title>Node7</title>
<polygon fill="white" stroke="#bfbfbf" points="140.5,-1 140.5,-31 235.5,-31 235.5,-1 140.5,-1"/>
<text text-anchor="start" x="148.5" y="-19" font-family="Helvetica,sans-Serif" font-size="10.00">tlm_utils/peq_with</text>
<text text-anchor="middle" x="188" y="-8" font-family="Helvetica,sans-Serif" font-size="10.00">_get.h</text>
</g>
<!-- Node3&#45;&gt;Node7 -->
<g id="edge8" class="edge"><title>Node3&#45;&gt;Node7</title>
<path fill="none" stroke="midnightblue" d="M188,-68.4035C188,-61.3405 188,-50.975 188,-41.399"/>
<polygon fill="midnightblue" stroke="midnightblue" points="191.5,-41.1408 188,-31.1408 184.5,-41.1408 191.5,-41.1408"/>
</g>
<!-- Node8&#45;&gt;Node3 -->
<g id="edge10" class="edge"><title>Node8&#45;&gt;Node3</title>
<path fill="none" stroke="midnightblue" d="M475.785,-428.411C421.256,-402.87 265.394,-321.526 202,-200 184.86,-167.142 184.626,-122.568 186.184,-97.716"/>
<polygon fill="midnightblue" stroke="midnightblue" points="189.691,-97.7644 186.999,-87.5173 182.713,-97.2067 189.691,-97.7644"/>
</g>
<!-- Node8&#45;&gt;Node9 -->
<g id="edge11" class="edge"><title>Node8&#45;&gt;Node9</title>
<path fill="none" stroke="midnightblue" d="M459.665,-428.444C421.089,-419.102 359.215,-404.119 317.147,-393.933"/>
<polygon fill="midnightblue" stroke="midnightblue" points="317.713,-390.468 307.17,-391.516 316.065,-397.272 317.713,-390.468"/>
</g>
<!-- Node18 -->
<g id="node18" class="node"><title>Node18</title>
<g id="a_node18"><a xlink:href="sr__registry_8h.html" target="_top" xlink:title="core/common/sr_registry.h">
<polygon fill="white" stroke="black" points="428.5,-372.5 428.5,-391.5 561.5,-391.5 561.5,-372.5 428.5,-372.5"/>
<text text-anchor="middle" x="495" y="-379.5" font-family="Helvetica,sans-Serif" font-size="10.00">core/common/sr_registry.h</text>
</a>
</g>
</g>
<!-- Node8&#45;&gt;Node18 -->
<g id="edge20" class="edge"><title>Node8&#45;&gt;Node18</title>
<path fill="none" stroke="midnightblue" d="M495,-428.083C495,-421.006 495,-410.861 495,-401.986"/>
<polygon fill="midnightblue" stroke="midnightblue" points="498.5,-401.751 495,-391.751 491.5,-401.751 498.5,-401.751"/>
</g>
<!-- Node21 -->
<g id="node21" class="node"><title>Node21</title>
<g id="a_node21"><a xlink:href="sr__param_8h.html" target="_top" xlink:title="core/common/sr_param.h">
<polygon fill="white" stroke="black" points="655,-372.5 655,-391.5 783,-391.5 783,-372.5 655,-372.5"/>
<text text-anchor="middle" x="719" y="-379.5" font-family="Helvetica,sans-Serif" font-size="10.00">core/common/sr_param.h</text>
</a>
</g>
</g>
<!-- Node8&#45;&gt;Node21 -->
<g id="edge26" class="edge"><title>Node8&#45;&gt;Node21</title>
<path fill="none" stroke="midnightblue" d="M530.493,-428.444C569.324,-419.083 631.656,-404.056 673.918,-393.868"/>
<polygon fill="midnightblue" stroke="midnightblue" points="674.771,-397.263 683.673,-391.516 673.131,-390.458 674.771,-397.263"/>
</g>
<!-- Node10 -->
<g id="node10" class="node"><title>Node10</title>
<g id="a_node10"><a xlink:href="sr__report_2sr__report_8h.html" target="_top" xlink:title="core/common/sr_report\l/sr_report.h">
<polygon fill="white" stroke="black" points="296.5,-237 296.5,-267 413.5,-267 413.5,-237 296.5,-237"/>
<text text-anchor="start" x="304.5" y="-255" font-family="Helvetica,sans-Serif" font-size="10.00">core/common/sr_report</text>
<text text-anchor="middle" x="355" y="-244" font-family="Helvetica,sans-Serif" font-size="10.00">/sr_report.h</text>
</a>
</g>
</g>
<!-- Node9&#45;&gt;Node10 -->
<g id="edge12" class="edge"><title>Node9&#45;&gt;Node10</title>
<path fill="none" stroke="midnightblue" d="M277.705,-372.202C290.462,-352.529 321.633,-304.458 340.261,-275.73"/>
<polygon fill="midnightblue" stroke="midnightblue" points="343.325,-277.438 345.829,-267.143 337.452,-273.629 343.325,-277.438"/>
</g>
<!-- Node11 -->
<g id="node11" class="node"><title>Node11</title>
<polygon fill="white" stroke="#bfbfbf" points="211,-180.5 211,-199.5 289,-199.5 289,-180.5 211,-180.5"/>
<text text-anchor="middle" x="250" y="-187.5" font-family="Helvetica,sans-Serif" font-size="10.00">boost/any.hpp</text>
</g>
<!-- Node10&#45;&gt;Node11 -->
<g id="edge13" class="edge"><title>Node10&#45;&gt;Node11</title>
<path fill="none" stroke="midnightblue" d="M330.382,-236.933C313.3,-227.171 290.67,-214.24 273.775,-204.586"/>
<polygon fill="midnightblue" stroke="midnightblue" points="275.469,-201.523 265.05,-199.6 271.996,-207.6 275.469,-201.523"/>
</g>
<!-- Node12 -->
<g id="node12" class="node"><title>Node12</title>
<polygon fill="white" stroke="#bfbfbf" points="421,-180.5 421,-199.5 483,-199.5 483,-180.5 421,-180.5"/>
<text text-anchor="middle" x="452" y="-187.5" font-family="Helvetica,sans-Serif" font-size="10.00">systemc.h</text>
</g>
<!-- Node10&#45;&gt;Node12 -->
<g id="edge14" class="edge"><title>Node10&#45;&gt;Node12</title>
<path fill="none" stroke="midnightblue" d="M377.988,-236.781C393.483,-227.196 413.837,-214.606 429.277,-205.056"/>
<polygon fill="midnightblue" stroke="midnightblue" points="431.505,-207.793 438.168,-199.556 427.823,-201.84 431.505,-207.793"/>
</g>
<!-- Node13 -->
<g id="node13" class="node"><title>Node13</title>
<polygon fill="white" stroke="#bfbfbf" points="549.5,-180.5 549.5,-199.5 584.5,-199.5 584.5,-180.5 549.5,-180.5"/>
<text text-anchor="middle" x="567" y="-187.5" font-family="Helvetica,sans-Serif" font-size="10.00">map</text>
</g>
<!-- Node10&#45;&gt;Node13 -->
<g id="edge15" class="edge"><title>Node10&#45;&gt;Node13</title>
<path fill="none" stroke="midnightblue" d="M407.907,-236.947C444.767,-227.007 495.015,-213.159 539,-200 539.208,-199.938 539.417,-199.875 539.626,-199.812"/>
<polygon fill="midnightblue" stroke="midnightblue" points="540.746,-203.129 549.259,-196.822 538.671,-196.444 540.746,-203.129"/>
</g>
<!-- Node14 -->
<g id="node14" class="node"><title>Node14</title>
<polygon fill="white" stroke="#bfbfbf" points="602.5,-180.5 602.5,-199.5 643.5,-199.5 643.5,-180.5 602.5,-180.5"/>
<text text-anchor="middle" x="623" y="-187.5" font-family="Helvetica,sans-Serif" font-size="10.00">string</text>
</g>
<!-- Node10&#45;&gt;Node14 -->
<g id="edge16" class="edge"><title>Node10&#45;&gt;Node14</title>
<path fill="none" stroke="midnightblue" d="M413.599,-238.041C416.778,-237.348 419.928,-236.664 423,-236 495.391,-220.351 516.463,-219.186 592.359,-199.988"/>
<polygon fill="midnightblue" stroke="midnightblue" points="593.582,-203.287 602.406,-197.423 591.851,-196.505 593.582,-203.287"/>
</g>
<!-- Node15 -->
<g id="node15" class="node"><title>Node15</title>
<polygon fill="white" stroke="#bfbfbf" points="287,-68.5 287,-87.5 337,-87.5 337,-68.5 287,-68.5"/>
<text text-anchor="middle" x="312" y="-75.5" font-family="Helvetica,sans-Serif" font-size="10.00">iomanip</text>
</g>
<!-- Node10&#45;&gt;Node15 -->
<g id="edge17" class="edge"><title>Node10&#45;&gt;Node15</title>
<path fill="none" stroke="midnightblue" d="M351.481,-236.925C343.735,-205.939 325.211,-131.844 316.576,-97.3041"/>
<polygon fill="midnightblue" stroke="midnightblue" points="319.967,-96.4372 314.146,-87.5847 313.176,-98.135 319.967,-96.4372"/>
</g>
<!-- Node16 -->
<g id="node16" class="node"><title>Node16</title>
<polygon fill="white" stroke="#bfbfbf" points="559,-68.5 559,-87.5 613,-87.5 613,-68.5 559,-68.5"/>
<text text-anchor="middle" x="586" y="-75.5" font-family="Helvetica,sans-Serif" font-size="10.00">iostream</text>
</g>
<!-- Node10&#45;&gt;Node16 -->
<g id="edge18" class="edge"><title>Node10&#45;&gt;Node16</title>
<path fill="none" stroke="midnightblue" d="M363.07,-236.759C372.771,-220.831 390.467,-195.27 412,-180 451.215,-152.192 472.688,-168.585 514,-144 536.259,-130.753 557.762,-109.96 571.382,-95.4703"/>
<polygon fill="midnightblue" stroke="midnightblue" points="574.261,-97.5094 578.437,-87.7722 569.1,-92.7801 574.261,-97.5094"/>
</g>
<!-- Node17 -->
<g id="node17" class="node"><title>Node17</title>
<polygon fill="white" stroke="#bfbfbf" points="355,-68.5 355,-87.5 415,-87.5 415,-68.5 355,-68.5"/>
<text text-anchor="middle" x="385" y="-75.5" font-family="Helvetica,sans-Serif" font-size="10.00">streambuf</text>
</g>
<!-- Node10&#45;&gt;Node17 -->
<g id="edge19" class="edge"><title>Node10&#45;&gt;Node17</title>
<path fill="none" stroke="midnightblue" d="M356.691,-236.833C359.595,-213.294 366.001,-164.688 374,-124 375.728,-115.211 378.034,-105.552 380.089,-97.4435"/>
<polygon fill="midnightblue" stroke="midnightblue" points="383.526,-98.1342 382.656,-87.5751 376.751,-96.3716 383.526,-98.1342"/>
</g>
<!-- Node19 -->
<g id="node19" class="node"><title>Node19</title>
<g id="a_node19"><a xlink:href="sr__registry_2sr__registry_8h.html" target="_top" xlink:title="core/common/sr_registry\l/sr_registry.h">
<polygon fill="white" stroke="black" points="432.5,-237 432.5,-267 557.5,-267 557.5,-237 432.5,-237"/>
<text text-anchor="start" x="440.5" y="-255" font-family="Helvetica,sans-Serif" font-size="10.00">core/common/sr_registry</text>
<text text-anchor="middle" x="495" y="-244" font-family="Helvetica,sans-Serif" font-size="10.00">/sr_registry.h</text>
</a>
</g>
</g>
<!-- Node18&#45;&gt;Node19 -->
<g id="edge21" class="edge"><title>Node18&#45;&gt;Node19</title>
<path fill="none" stroke="midnightblue" d="M495,-372.202C495,-352.87 495,-306.114 495,-277.239"/>
<polygon fill="midnightblue" stroke="midnightblue" points="498.5,-277.143 495,-267.143 491.5,-277.143 498.5,-277.143"/>
</g>
<!-- Node19&#45;&gt;Node12 -->
<g id="edge25" class="edge"><title>Node19&#45;&gt;Node12</title>
<path fill="none" stroke="midnightblue" d="M484.81,-236.781C478.626,-228.152 470.697,-217.088 464.182,-207.999"/>
<polygon fill="midnightblue" stroke="midnightblue" points="466.927,-205.82 458.257,-199.731 461.237,-209.898 466.927,-205.82"/>
</g>
<!-- Node19&#45;&gt;Node13 -->
<g id="edge23" class="edge"><title>Node19&#45;&gt;Node13</title>
<path fill="none" stroke="midnightblue" d="M512.063,-236.781C523.065,-227.613 537.365,-215.696 548.618,-206.319"/>
<polygon fill="midnightblue" stroke="midnightblue" points="551.082,-208.821 556.523,-199.731 546.6,-203.444 551.082,-208.821"/>
</g>
<!-- Node19&#45;&gt;Node14 -->
<g id="edge22" class="edge"><title>Node19&#45;&gt;Node14</title>
<path fill="none" stroke="midnightblue" d="M525.01,-236.933C546.316,-226.946 574.702,-213.64 595.436,-203.92"/>
<polygon fill="midnightblue" stroke="midnightblue" points="597.084,-207.014 604.653,-199.6 594.113,-200.675 597.084,-207.014"/>
</g>
<!-- Node20 -->
<g id="node20" class="node"><title>Node20</title>
<polygon fill="white" stroke="#bfbfbf" points="501,-180.5 501,-199.5 531,-199.5 531,-180.5 501,-180.5"/>
<text text-anchor="middle" x="516" y="-187.5" font-family="Helvetica,sans-Serif" font-size="10.00">set</text>
</g>
<!-- Node19&#45;&gt;Node20 -->
<g id="edge24" class="edge"><title>Node19&#45;&gt;Node20</title>
<path fill="none" stroke="midnightblue" d="M499.977,-236.781C502.84,-228.601 506.468,-218.234 509.548,-209.434"/>
<polygon fill="midnightblue" stroke="midnightblue" points="512.944,-210.325 512.944,-199.731 506.337,-208.013 512.944,-210.325"/>
</g>
<!-- Node22 -->
<g id="node22" class="node"><title>Node22</title>
<g id="a_node22"><a xlink:href="sr__param_2sr__param_8h.html" target="_top" xlink:title="core/common/sr_param\l/sr_param.h">
<polygon fill="white" stroke="black" points="680.5,-305 680.5,-335 799.5,-335 799.5,-305 680.5,-305"/>
<text text-anchor="start" x="688.5" y="-323" font-family="Helvetica,sans-Serif" font-size="10.00">core/common/sr_param</text>
<text text-anchor="middle" x="740" y="-312" font-family="Helvetica,sans-Serif" font-size="10.00">/sr_param.h</text>
</a>
</g>
</g>
<!-- Node21&#45;&gt;Node22 -->
<g id="edge27" class="edge"><title>Node21&#45;&gt;Node22</title>
<path fill="none" stroke="midnightblue" d="M722.009,-372.403C724.534,-365.189 728.265,-354.528 731.676,-344.782"/>
<polygon fill="midnightblue" stroke="midnightblue" points="735.051,-345.736 735.051,-335.141 728.444,-343.423 735.051,-345.736"/>
</g>
<!-- Node22&#45;&gt;Node14 -->
<g id="edge28" class="edge"><title>Node22&#45;&gt;Node14</title>
<path fill="none" stroke="midnightblue" d="M763.574,-304.732C788.16,-288.059 820.708,-259.729 802,-236 761.46,-184.579 721.834,-215.116 653.397,-200.007"/>
<polygon fill="midnightblue" stroke="midnightblue" points="654.095,-196.574 643.546,-197.558 652.407,-203.367 654.095,-196.574"/>
</g>
<!-- Node23 -->
<g id="node23" class="node"><title>Node23</title>
<polygon fill="white" stroke="#bfbfbf" points="686.5,-242.5 686.5,-261.5 793.5,-261.5 793.5,-242.5 686.5,-242.5"/>
<text text-anchor="middle" x="740" y="-249.5" font-family="Helvetica,sans-Serif" font-size="10.00">greencontrol/config.h</text>
</g>
<!-- Node22&#45;&gt;Node23 -->
<g id="edge29" class="edge"><title>Node22&#45;&gt;Node23</title>
<path fill="none" stroke="midnightblue" d="M740,-304.679C740,-295.101 740,-282.394 740,-271.977"/>
<polygon fill="midnightblue" stroke="midnightblue" points="743.5,-271.828 740,-261.828 736.5,-271.828 743.5,-271.828"/>
</g>
<!-- Node24 -->
<g id="node24" class="node"><title>Node24</title>
<g id="a_node24"><a xlink:href="sr__param__base_8h.html" target="_top" xlink:title="sr_param_base.h">
<polygon fill="white" stroke="black" points="576,-242.5 576,-261.5 668,-261.5 668,-242.5 576,-242.5"/>
<text text-anchor="middle" x="622" y="-249.5" font-family="Helvetica,sans-Serif" font-size="10.00">sr_param_base.h</text>
</a>
</g>
</g>
<!-- Node22&#45;&gt;Node24 -->
<g id="edge30" class="edge"><title>Node22&#45;&gt;Node24</title>
<path fill="none" stroke="midnightblue" d="M714.686,-304.841C694.459,-293.528 666.287,-277.771 646.325,-266.605"/>
<polygon fill="midnightblue" stroke="midnightblue" points="647.958,-263.509 637.522,-261.682 644.541,-269.618 647.958,-263.509"/>
</g>
<!-- Node25 -->
<g id="node25" class="node"><title>Node25</title>
<g id="a_node25"><a xlink:href="sr__param__class_8h.html" target="_top" xlink:title="sr_param_class.h">
<polygon fill="white" stroke="black" points="1113,-242.5 1113,-261.5 1207,-261.5 1207,-242.5 1113,-242.5"/>
<text text-anchor="middle" x="1160" y="-249.5" font-family="Helvetica,sans-Serif" font-size="10.00">sr_param_class.h</text>
</a>
</g>
</g>
<!-- Node22&#45;&gt;Node25 -->
<g id="edge34" class="edge"><title>Node22&#45;&gt;Node25</title>
<path fill="none" stroke="midnightblue" d="M799.73,-309.614C880.358,-296.944 1023.05,-274.521 1102.51,-262.034"/>
<polygon fill="midnightblue" stroke="midnightblue" points="1103.48,-265.424 1112.82,-260.414 1102.4,-258.509 1103.48,-265.424"/>
</g>
<!-- Node24&#45;&gt;Node8 -->
<g id="edge33" class="edge"><title>Node24&#45;&gt;Node8</title>
<path fill="none" stroke="midnightblue" d="M620.764,-261.823C617.061,-285.426 604.121,-351.008 570,-392 558.525,-405.786 541.671,-416.431 526.845,-423.898"/>
<polygon fill="midnightblue" stroke="midnightblue" points="525.006,-420.897 517.473,-428.347 528.007,-427.22 525.006,-420.897"/>
</g>
<!-- Node24&#45;&gt;Node13 -->
<g id="edge32" class="edge"><title>Node24&#45;&gt;Node13</title>
<path fill="none" stroke="midnightblue" d="M614.12,-242.403C605.706,-233.225 592.181,-218.47 581.774,-207.117"/>
<polygon fill="midnightblue" stroke="midnightblue" points="584.203,-204.587 574.866,-199.581 579.043,-209.317 584.203,-204.587"/>
</g>
<!-- Node24&#45;&gt;Node14 -->
<g id="edge31" class="edge"><title>Node24&#45;&gt;Node14</title>
<path fill="none" stroke="midnightblue" d="M622.143,-242.403C622.284,-233.938 622.505,-220.728 622.686,-209.82"/>
<polygon fill="midnightblue" stroke="midnightblue" points="626.19,-209.638 622.857,-199.581 619.191,-209.521 626.19,-209.638"/>
</g>
<!-- Node25&#45;&gt;Node14 -->
<g id="edge35" class="edge"><title>Node25&#45;&gt;Node14</title>
<path fill="none" stroke="midnightblue" d="M1112.95,-249.43C1024.39,-245.794 826.932,-234.456 653.584,-199.977"/>
<polygon fill="midnightblue" stroke="midnightblue" points="654.274,-196.546 643.779,-197.997 652.888,-203.407 654.274,-196.546"/>
</g>
<!-- Node25&#45;&gt;Node16 -->
<g id="edge36" class="edge"><title>Node25&#45;&gt;Node16</title>
<path fill="none" stroke="midnightblue" d="M1207.25,-248.239C1272.24,-243.342 1384.03,-230.6 1409,-200 1414.62,-193.113 1414.89,-186.657 1409,-180 1356.13,-120.251 777.702,-88.2451 623.559,-80.7375"/>
<polygon fill="midnightblue" stroke="midnightblue" points="623.364,-77.2241 613.207,-80.2392 623.027,-84.216 623.364,-77.2241"/>
</g>
<!-- Node26 -->
<g id="node26" class="node"><title>Node26</title>
<polygon fill="white" stroke="#bfbfbf" points="1583,-180.5 1583,-199.5 1635,-199.5 1635,-180.5 1583,-180.5"/>
<text text-anchor="middle" x="1609" y="-187.5" font-family="Helvetica,sans-Serif" font-size="10.00">sstream</text>
</g>
<!-- Node25&#45;&gt;Node26 -->
<g id="edge37" class="edge"><title>Node25&#45;&gt;Node26</title>
<path fill="none" stroke="midnightblue" d="M1207.18,-247.186C1282.54,-240.658 1434.83,-225.682 1572.8,-200.015"/>
<polygon fill="midnightblue" stroke="midnightblue" points="1573.53,-203.44 1582.71,-198.149 1572.23,-196.561 1573.53,-203.44"/>
</g>
<!-- Node27 -->
<g id="node27" class="node"><title>Node27</title>
<polygon fill="white" stroke="#bfbfbf" points="805,-180.5 805,-199.5 907,-199.5 907,-180.5 805,-180.5"/>
<text text-anchor="middle" x="856" y="-187.5" font-family="Helvetica,sans-Serif" font-size="10.00">boost/tokenizer.hpp</text>
</g>
<!-- Node25&#45;&gt;Node27 -->
<g id="edge38" class="edge"><title>Node25&#45;&gt;Node27</title>
<path fill="none" stroke="midnightblue" d="M1116.77,-242.467C1062.07,-231.671 967.9,-213.086 908.947,-201.45"/>
<polygon fill="midnightblue" stroke="midnightblue" points="909.572,-198.006 899.084,-199.503 908.217,-204.874 909.572,-198.006"/>
</g>
<!-- Node28 -->
<g id="node28" class="node"><title>Node28</title>
<g id="a_node28"><a xlink:href="common_8h.html" target="_top" xlink:title="core/common/common.h">
<polygon fill="white" stroke="black" points="661.5,-180.5 661.5,-199.5 786.5,-199.5 786.5,-180.5 661.5,-180.5"/>
<text text-anchor="middle" x="724" y="-187.5" font-family="Helvetica,sans-Serif" font-size="10.00">core/common/common.h</text>
</a>
</g>
</g>
<!-- Node25&#45;&gt;Node28 -->
<g id="edge39" class="edge"><title>Node25&#45;&gt;Node28</title>
<path fill="none" stroke="midnightblue" d="M1112.93,-244.522C1036.7,-234.033 885.77,-213.262 795.989,-200.907"/>
<polygon fill="midnightblue" stroke="midnightblue" points="796.273,-197.413 785.889,-199.517 795.319,-204.348 796.273,-197.413"/>
</g>
<!-- Node34 -->
<g id="node34" class="node"><title>Node34</title>
<g id="a_node34"><a xlink:href="sr__param__t_8h.html" target="_top" xlink:title="sr_param_t.h">
<polygon fill="white" stroke="black" points="925,-180.5 925,-199.5 999,-199.5 999,-180.5 925,-180.5"/>
<text text-anchor="middle" x="962" y="-187.5" font-family="Helvetica,sans-Serif" font-size="10.00">sr_param_t.h</text>
</a>
</g>
</g>
<!-- Node25&#45;&gt;Node34 -->
<g id="edge51" class="edge"><title>Node25&#45;&gt;Node34</title>
<path fill="none" stroke="midnightblue" d="M1131.63,-242.403C1097.08,-231.933 1038.58,-214.205 1000.12,-202.55"/>
<polygon fill="midnightblue" stroke="midnightblue" points="1000.9,-199.131 990.316,-199.581 998.871,-205.83 1000.9,-199.131"/>
</g>
<!-- Node35 -->
<g id="node35" class="node"><title>Node35</title>
<g id="a_node35"><a xlink:href="sr__param__operator__macros_8h.html" target="_top" xlink:title="sr_param_operator_macros.h">
<polygon fill="white" stroke="black" points="1017.5,-180.5 1017.5,-199.5 1160.5,-199.5 1160.5,-180.5 1017.5,-180.5"/>
<text text-anchor="middle" x="1089" y="-187.5" font-family="Helvetica,sans-Serif" font-size="10.00">sr_param_operator_macros.h</text>
</a>
</g>
</g>
<!-- Node25&#45;&gt;Node35 -->
<g id="edge52" class="edge"><title>Node25&#45;&gt;Node35</title>
<path fill="none" stroke="midnightblue" d="M1149.83,-242.403C1138.65,-232.958 1120.48,-217.606 1106.91,-206.134"/>
<polygon fill="midnightblue" stroke="midnightblue" points="1109.05,-203.362 1099.15,-199.581 1104.53,-208.709 1109.05,-203.362"/>
</g>
<!-- Node36 -->
<g id="node36" class="node"><title>Node36</title>
<g id="a_node36"><a xlink:href="sr__param__delegate_8h.html" target="_top" xlink:title="sr_param_delegate.h">
<polygon fill="white" stroke="black" points="1178.5,-180.5 1178.5,-199.5 1285.5,-199.5 1285.5,-180.5 1178.5,-180.5"/>
<text text-anchor="middle" x="1232" y="-187.5" font-family="Helvetica,sans-Serif" font-size="10.00">sr_param_delegate.h</text>
</a>
</g>
</g>
<!-- Node25&#45;&gt;Node36 -->
<g id="edge53" class="edge"><title>Node25&#45;&gt;Node36</title>
<path fill="none" stroke="midnightblue" d="M1170.32,-242.403C1181.65,-232.958 1200.07,-217.606 1213.84,-206.134"/>
<polygon fill="midnightblue" stroke="midnightblue" points="1216.26,-208.671 1221.7,-199.581 1211.78,-203.294 1216.26,-208.671"/>
</g>
<!-- Node37 -->
<g id="node37" class="node"><title>Node37</title>
<g id="a_node37"><a xlink:href="sr__param__native_8h.html" target="_top" xlink:title="sr_param_native.h">
<polygon fill="white" stroke="black" points="1303.5,-180.5 1303.5,-199.5 1400.5,-199.5 1400.5,-180.5 1303.5,-180.5"/>
<text text-anchor="middle" x="1352" y="-187.5" font-family="Helvetica,sans-Serif" font-size="10.00">sr_param_native.h</text>
</a>
</g>
</g>
<!-- Node25&#45;&gt;Node37 -->
<g id="edge54" class="edge"><title>Node25&#45;&gt;Node37</title>
<path fill="none" stroke="midnightblue" d="M1187.51,-242.403C1220.87,-231.978 1277.26,-214.356 1314.56,-202.699"/>
<polygon fill="midnightblue" stroke="midnightblue" points="1316.04,-205.904 1324.54,-199.581 1313.95,-199.223 1316.04,-205.904"/>
</g>
<!-- Node38 -->
<g id="node38" class="node"><title>Node38</title>
<g id="a_node38"><a xlink:href="sr__param__stdint_8h.html" target="_top" xlink:title="sr_param_stdint.h">
<polygon fill="white" stroke="black" points="1586.5,-124.5 1586.5,-143.5 1681.5,-143.5 1681.5,-124.5 1586.5,-124.5"/>
<text text-anchor="middle" x="1634" y="-131.5" font-family="Helvetica,sans-Serif" font-size="10.00">sr_param_stdint.h</text>
</a>
</g>
</g>
<!-- Node25&#45;&gt;Node38 -->
<g id="edge55" class="edge"><title>Node25&#45;&gt;Node38</title>
<path fill="none" stroke="midnightblue" d="M1207.37,-249.536C1323.52,-245.462 1615.1,-232.105 1644,-200 1655.42,-187.314 1650.09,-167.277 1643.68,-152.802"/>
<polygon fill="midnightblue" stroke="midnightblue" points="1646.82,-151.253 1639.26,-143.827 1640.54,-154.345 1646.82,-151.253"/>
</g>
<!-- Node39 -->
<g id="node39" class="node"><title>Node39</title>
<g id="a_node39"><a xlink:href="sr__param__systemc_8h.html" target="_top" xlink:title="sr_param_systemc.h">
<polygon fill="white" stroke="black" points="1457,-180.5 1457,-199.5 1565,-199.5 1565,-180.5 1457,-180.5"/>
<text text-anchor="middle" x="1511" y="-187.5" font-family="Helvetica,sans-Serif" font-size="10.00">sr_param_systemc.h</text>
</a>
</g>
</g>
<!-- Node25&#45;&gt;Node39 -->
<g id="edge57" class="edge"><title>Node25&#45;&gt;Node39</title>
<path fill="none" stroke="midnightblue" d="M1207.34,-242.908C1270.35,-232.138 1381.81,-213.083 1450.75,-201.299"/>
<polygon fill="midnightblue" stroke="midnightblue" points="1451.75,-204.679 1461.02,-199.544 1450.57,-197.779 1451.75,-204.679"/>
</g>
<!-- Node28&#45;&gt;Node3 -->
<g id="edge40" class="edge"><title>Node28&#45;&gt;Node3</title>
<path fill="none" stroke="midnightblue" d="M661.359,-181.114C562.553,-168.651 380.931,-145.638 374,-144 317.25,-130.591 253.602,-106.217 217.407,-91.4274"/>
<polygon fill="midnightblue" stroke="midnightblue" points="218.534,-88.1062 207.955,-87.5273 215.864,-94.577 218.534,-88.1062"/>
</g>
<!-- Node29 -->
<g id="node29" class="node"><title>Node29</title>
<g id="a_node29"><a xlink:href="vendian_8h.html" target="_top" xlink:title="core/common/vendian.h">
<polygon fill="white" stroke="black" points="1447.5,-124.5 1447.5,-143.5 1568.5,-143.5 1568.5,-124.5 1447.5,-124.5"/>
<text text-anchor="middle" x="1508" y="-131.5" font-family="Helvetica,sans-Serif" font-size="10.00">core/common/vendian.h</text>
</a>
</g>
</g>
<!-- Node28&#45;&gt;Node29 -->
<g id="edge41" class="edge"><title>Node28&#45;&gt;Node29</title>
<path fill="none" stroke="midnightblue" d="M786.804,-180.92C789.911,-180.592 792.99,-180.283 796,-180 1030.42,-157.961 1309.31,-143.839 1437.35,-138.029"/>
<polygon fill="midnightblue" stroke="midnightblue" points="1437.59,-141.522 1447.42,-137.576 1437.27,-134.529 1437.59,-141.522"/>
</g>
<!-- Node31 -->
<g id="node31" class="node"><title>Node31</title>
<g id="a_node31"><a xlink:href="verbose_8h.html" target="_top" xlink:title="Implements a unified output system for messages and debunging. ">
<polygon fill="white" stroke="black" points="383,-124.5 383,-143.5 505,-143.5 505,-124.5 383,-124.5"/>
<text text-anchor="middle" x="444" y="-131.5" font-family="Helvetica,sans-Serif" font-size="10.00">core/common/verbose.h</text>
</a>
</g>
</g>
<!-- Node28&#45;&gt;Node31 -->
<g id="edge43" class="edge"><title>Node28&#45;&gt;Node31</title>
<path fill="none" stroke="midnightblue" d="M674.544,-180.444C623.313,-170.964 543.907,-155.675 492.888,-145.483"/>
<polygon fill="midnightblue" stroke="midnightblue" points="493.572,-142.051 483.079,-143.516 492.196,-148.914 493.572,-142.051"/>
</g>
<!-- Node29&#45;&gt;Node30 -->
<g id="edge42" class="edge"><title>Node29&#45;&gt;Node30</title>
<path fill="none" stroke="midnightblue" d="M1527.97,-124.444C1548.61,-115.596 1581.06,-101.687 1604.63,-91.5865"/>
<polygon fill="midnightblue" stroke="midnightblue" points="1606.32,-94.6727 1614.13,-87.5164 1603.56,-88.2387 1606.32,-94.6727"/>
</g>
<!-- Node31&#45;&gt;Node3 -->
<g id="edge50" class="edge"><title>Node31&#45;&gt;Node3</title>
<path fill="none" stroke="midnightblue" d="M403.436,-124.444C358.684,-115.004 286.617,-99.802 238.305,-89.6111"/>
<polygon fill="midnightblue" stroke="midnightblue" points="238.881,-86.1558 228.374,-87.5164 237.436,-93.0051 238.881,-86.1558"/>
</g>
<!-- Node31&#45;&gt;Node15 -->
<g id="edge46" class="edge"><title>Node31&#45;&gt;Node15</title>
<path fill="none" stroke="midnightblue" d="M423.084,-124.444C401.264,-115.517 366.85,-101.439 342.108,-91.3168"/>
<polygon fill="midnightblue" stroke="midnightblue" points="343.399,-88.0634 332.818,-87.5164 340.748,-94.5422 343.399,-88.0634"/>
</g>
<!-- Node31&#45;&gt;Node16 -->
<g id="edge47" class="edge"><title>Node31&#45;&gt;Node16</title>
<path fill="none" stroke="midnightblue" d="M466.5,-124.444C490.077,-115.478 527.322,-101.314 553.964,-91.1827"/>
<polygon fill="midnightblue" stroke="midnightblue" points="555.502,-94.3424 563.605,-87.5164 553.014,-87.7995 555.502,-94.3424"/>
</g>
<!-- Node31&#45;&gt;Node17 -->
<g id="edge48" class="edge"><title>Node31&#45;&gt;Node17</title>
<path fill="none" stroke="midnightblue" d="M434.521,-124.324C425.799,-116.341 412.657,-104.313 402.102,-94.6529"/>
<polygon fill="midnightblue" stroke="midnightblue" points="404.392,-92.0036 394.652,-87.8339 399.666,-97.1674 404.392,-92.0036"/>
</g>
<!-- Node31&#45;&gt;Node28 -->
<g id="edge49" class="edge"><title>Node31&#45;&gt;Node28</title>
<path fill="none" stroke="midnightblue" d="M493.239,-143.516C544.392,-152.979 623.797,-168.268 674.896,-178.473"/>
<polygon fill="midnightblue" stroke="midnightblue" points="674.229,-181.909 684.722,-180.444 675.605,-175.046 674.229,-181.909"/>
</g>
<!-- Node32 -->
<g id="node32" class="node"><title>Node32</title>
<polygon fill="white" stroke="#bfbfbf" points="497.5,-68.5 497.5,-87.5 540.5,-87.5 540.5,-68.5 497.5,-68.5"/>
<text text-anchor="middle" x="519" y="-75.5" font-family="Helvetica,sans-Serif" font-size="10.00">cstdio</text>
</g>
<!-- Node31&#45;&gt;Node32 -->
<g id="edge44" class="edge"><title>Node31&#45;&gt;Node32</title>
<path fill="none" stroke="midnightblue" d="M456.05,-124.324C467.463,-116.107 484.831,-103.602 498.435,-93.8069"/>
<polygon fill="midnightblue" stroke="midnightblue" points="500.66,-96.5174 506.731,-87.8339 496.57,-90.8366 500.66,-96.5174"/>
</g>
<!-- Node33 -->
<g id="node33" class="node"><title>Node33</title>
<polygon fill="white" stroke="#bfbfbf" points="433,-68.5 433,-87.5 479,-87.5 479,-68.5 433,-68.5"/>
<text text-anchor="middle" x="456" y="-75.5" font-family="Helvetica,sans-Serif" font-size="10.00">cstring</text>
</g>
<!-- Node31&#45;&gt;Node33 -->
<g id="edge45" class="edge"><title>Node31&#45;&gt;Node33</title>
<path fill="none" stroke="midnightblue" d="M445.982,-124.083C447.572,-116.927 449.859,-106.635 451.846,-97.6911"/>
<polygon fill="midnightblue" stroke="midnightblue" points="455.303,-98.2722 454.055,-87.7511 448.469,-96.7537 455.303,-98.2722"/>
</g>
<!-- Node38&#45;&gt;Node30 -->
<g id="edge56" class="edge"><title>Node38&#45;&gt;Node30</title>
<path fill="none" stroke="midnightblue" d="M1634,-124.083C1634,-117.006 1634,-106.861 1634,-97.9865"/>
<polygon fill="midnightblue" stroke="midnightblue" points="1637.5,-97.751 1634,-87.7511 1630.5,-97.7511 1637.5,-97.751"/>
</g>
</g>
</svg>
        <g id="navigator" transform="translate(0 0)" fill="#404254">
                <rect fill="#f2f5e9" fill-opacity="0.5" stroke="#606060" stroke-width=".5" x="0" y="0" width="60" height="60"/>
                <use id="zoomplus" xlink:href="#zoomPlus" x="17" y="9" onmousedown="handleZoom(evt,'in')"/>
                <use id="zoomminus" xlink:href="#zoomMin" x="42" y="9" onmousedown="handleZoom(evt,'out')"/>
                <use id="reset" xlink:href="#resetDef" x="30" y="36" onmousedown="handleReset()"/>
                <g id="arrowUp" xlink:href="#dirArrow" transform="translate(30 24)" onmousedown="handlePan(0,-1)">
                  <use xlink:href="#rim" fill="#404040">
                        <set attributeName="fill" to="#808080" begin="arrowUp.mouseover" end="arrowUp.mouseout"/>
                  </use>
                  <path fill="none" stroke="white" stroke-width="1.5" d="M0,-3.0v7 M-2.5,-0.5L0,-3.0L2.5,-0.5"/>
                </g>
                <g id="arrowRight" xlink:href="#dirArrow" transform="rotate(90) translate(36 -43)" onmousedown="handlePan(1,0)">
                  <use xlink:href="#rim" fill="#404040">
                        <set attributeName="fill" to="#808080" begin="arrowRight.mouseover" end="arrowRight.mouseout"/>
                  </use>
                  <path fill="none" stroke="white" stroke-width="1.5" d="M0,-3.0v7 M-2.5,-0.5L0,-3.0L2.5,-0.5"/>
                </g>
                <g id="arrowDown" xlink:href="#dirArrow" transform="rotate(180) translate(-30 -48)" onmousedown="handlePan(0,1)">
                  <use xlink:href="#rim" fill="#404040">
                        <set attributeName="fill" to="#808080" begin="arrowDown.mouseover" end="arrowDown.mouseout"/>
                  </use>
                  <path fill="none" stroke="white" stroke-width="1.5" d="M0,-3.0v7 M-2.5,-0.5L0,-3.0L2.5,-0.5"/>
                </g>
                <g id="arrowLeft" xlink:href="#dirArrow" transform="rotate(270) translate(-36 17)" onmousedown="handlePan(-1,0)">
                  <use xlink:href="#rim" fill="#404040">
                        <set attributeName="fill" to="#808080" begin="arrowLeft.mouseover" end="arrowLeft.mouseout"/>
                  </use>
                  <path fill="none" stroke="white" stroke-width="1.5" d="M0,-3.0v7 M-2.5,-0.5L0,-3.0L2.5,-0.5"/>
                </g>
        </g>
        <svg viewBox="0 0 15 15" width="100%" height="30px" preserveAspectRatio="xMaxYMin meet">
         <g id="arrow_out" transform="scale(0.3 0.3)">
          <a xlink:href="ahbdevicebase_8h__incl_org.svg" target="_base">
           <rect id="button" ry="5" rx="5" y="6" x="6" height="38" width="38"
                fill="#f2f5e9" fill-opacity="0.5" stroke="#606060" stroke-width="1.0"/>
           <path id="arrow"
             d="M 11.500037,31.436501 C 11.940474,20.09759 22.043105,11.32322 32.158766,21.979434 L 37.068811,17.246167 C 37.068811,17.246167 37.088388,32 37.088388,32 L 22.160133,31.978069 C 22.160133,31.978069 26.997745,27.140456 26.997745,27.140456 C 18.528582,18.264221 13.291696,25.230495 11.500037,31.436501 z"
             style="fill:#404040;"/>
          </a>
         </g>
        </svg>
</svg>
