<?xml version="1.0" encoding="UTF-8" standalone="no"?>
<!DOCTYPE svg PUBLIC "-//W3C//DTD SVG 1.1//EN"
 "http://www.w3.org/Graphics/SVG/1.1/DTD/svg11.dtd">
<!-- Generated by graphviz version 2.26.0 (20091210.2329)
 -->
<!-- Title: core/models/utils/ahbmaster.h Pages: 1 -->
<svg width="2716pt" height="680pt"
 viewBox="0.00 0.00 2716.00 680.00" xmlns="http://www.w3.org/2000/svg" xmlns:xlink="http://www.w3.org/1999/xlink">
<g id="graph1" class="graph" transform="scale(1 1) rotate(0) translate(4 676)">
<title>core/models/utils/ahbmaster.h</title>
<polygon fill="white" stroke="white" points="-4,5 -4,-676 2713,-676 2713,5 -4,5"/>
<!-- Node1 -->
<g id="node1" class="node"><title>Node1</title>
<polygon fill="#bfbfbf" stroke="black" points="1256,-650.5 1256,-671.5 1404,-671.5 1404,-650.5 1256,-650.5"/>
<text text-anchor="middle" x="1330" y="-658.5" font-family="Helvetica,sans-Serif" font-size="10.00">core/models/utils/ahbmaster.h</text>
</g>
<!-- Node2 -->
<g id="node3" class="node"><title>Node2</title>
<polygon fill="white" stroke="#bfbfbf" points="76.5,-72.5 76.5,-93.5 125.5,-93.5 125.5,-72.5 76.5,-72.5"/>
<text text-anchor="middle" x="101" y="-80.5" font-family="Helvetica,sans-Serif" font-size="10.00">stdint.h</text>
</g>
<!-- Node1&#45;&gt;Node2 -->
<g id="edge2" class="edge"><title>Node1&#45;&gt;Node2</title>
<path fill="none" stroke="midnightblue" d="M1255.68,-659.552C1049,-655.227 470.284,-640.993 282,-614 154.275,-595.689 7.10543e-15,-674.031 0,-545 0,-545 0,-545 0,-220 0,-175.859 14.6798,-164.671 42,-130 51.3009,-118.197 64.1181,-107.532 75.4304,-99.3558"/>
<polygon fill="midnightblue" stroke="midnightblue" points="77.4862,-102.189 83.7046,-93.6114 73.4941,-96.4393 77.4862,-102.189"/>
</g>
<!-- Node3 -->
<g id="node5" class="node"><title>Node3</title>
<a xlink:href="gs__config_8h.html" target="_top" xlink:title="core/common/gs_config.h">
<polygon fill="white" stroke="black" points="1227.5,-353.5 1227.5,-374.5 1356.5,-374.5 1356.5,-353.5 1227.5,-353.5"/>
<text text-anchor="middle" x="1292" y="-361.5" font-family="Helvetica,sans-Serif" font-size="10.00">core/common/gs_config.h</text>
</a>
</g>
<!-- Node1&#45;&gt;Node3 -->
<g id="edge4" class="edge"><title>Node1&#45;&gt;Node3</title>
<path fill="none" stroke="midnightblue" d="M1330,-650.444C1330,-630.062 1330,-583.868 1330,-545 1330,-545 1330,-545 1330,-487 1330,-449.061 1313.29,-407.355 1302.03,-383.558"/>
<polygon fill="midnightblue" stroke="midnightblue" points="1305.15,-381.961 1297.61,-374.519 1298.86,-385.04 1305.15,-381.961"/>
</g>
<!-- Node13 -->
<g id="node26" class="node"><title>Node13</title>
<a xlink:href="systemc_8h.html" target="_top" xlink:title="core/common/systemc.h">
<polygon fill="white" stroke="black" points="979.5,-72.5 979.5,-93.5 1104.5,-93.5 1104.5,-72.5 979.5,-72.5"/>
<text text-anchor="middle" x="1042" y="-80.5" font-family="Helvetica,sans-Serif" font-size="10.00">core/common/systemc.h</text>
</a>
</g>
<!-- Node1&#45;&gt;Node13 -->
<g id="edge122" class="edge"><title>Node1&#45;&gt;Node13</title>
<path fill="none" stroke="midnightblue" d="M1255.78,-658.049C986.392,-646.854 76,-604.613 76,-545 76,-545 76,-545 76,-220 76,-179.118 63.895,-156.529 95,-130 128.118,-101.755 753.106,-88.0971 969.215,-84.2048"/>
<polygon fill="midnightblue" stroke="midnightblue" points="969.563,-87.6993 979.499,-84.0214 969.438,-80.7004 969.563,-87.6993"/>
</g>
<!-- Node14 -->
<g id="node29" class="node"><title>Node14</title>
<polygon fill="white" stroke="#bfbfbf" points="1781,-7.5 1781,-28.5 1819,-28.5 1819,-7.5 1781,-7.5"/>
<text text-anchor="middle" x="1800" y="-15.5" font-family="Helvetica,sans-Serif" font-size="10.00">tlm.h</text>
</g>
<!-- Node1&#45;&gt;Node14 -->
<g id="edge124" class="edge"><title>Node1&#45;&gt;Node14</title>
<path fill="none" stroke="midnightblue" d="M1404.01,-659.942C1631.31,-655.72 2304,-635.574 2304,-545 2304,-545 2304,-545 2304,-364 2304,-234.174 2398.85,-168.496 2312,-72 2279.51,-35.9079 1933.25,-22.1795 1829.32,-18.8543"/>
<polygon fill="midnightblue" stroke="midnightblue" points="1829.33,-15.3529 1819.23,-18.5398 1829.11,-22.3495 1829.33,-15.3529"/>
</g>
<!-- Node19 -->
<g id="node40" class="node"><title>Node19</title>
<a xlink:href="verbose_8h.html" target="_top" xlink:title="core/common/verbose.h">
<polygon fill="white" stroke="black" points="2408,-137.5 2408,-158.5 2530,-158.5 2530,-137.5 2408,-137.5"/>
<text text-anchor="middle" x="2469" y="-145.5" font-family="Helvetica,sans-Serif" font-size="10.00">core/common/verbose.h</text>
</a>
</g>
<!-- Node1&#45;&gt;Node19 -->
<g id="edge154" class="edge"><title>Node1&#45;&gt;Node19</title>
<path fill="none" stroke="midnightblue" d="M1404.14,-658.988C1623.14,-652.847 2257.54,-633.573 2349,-614 2430.75,-596.504 2524,-628.605 2524,-545 2524,-545 2524,-545 2524,-292 2524,-244.808 2497.9,-194.303 2481.66,-167.442"/>
<polygon fill="midnightblue" stroke="midnightblue" points="2484.45,-165.3 2476.19,-158.666 2478.51,-169.004 2484.45,-165.3"/>
</g>
<!-- Node30 -->
<g id="node66" class="node"><title>Node30</title>
<a xlink:href="common_2amba_8h.html" target="_top" xlink:title="core/common/amba.h">
<polygon fill="white" stroke="black" points="853.5,-476.5 853.5,-497.5 964.5,-497.5 964.5,-476.5 853.5,-476.5"/>
<text text-anchor="middle" x="909" y="-484.5" font-family="Helvetica,sans-Serif" font-size="10.00">core/common/amba.h</text>
</a>
</g>
<!-- Node1&#45;&gt;Node30 -->
<g id="edge72" class="edge"><title>Node1&#45;&gt;Node30</title>
<path fill="none" stroke="midnightblue" d="M1255.63,-652.343C1148.96,-638.297 960.529,-606.873 917,-556 905.77,-542.875 904.602,-522.837 905.752,-507.73"/>
<polygon fill="midnightblue" stroke="midnightblue" points="909.232,-508.103 906.889,-497.771 902.278,-507.31 909.232,-508.103"/>
</g>
<!-- Node43 -->
<g id="node106" class="node"><title>Node43</title>
<a xlink:href="ahbdevice_8h.html" target="_top" xlink:title="core/models/utils/ahbdevice.h">
<polygon fill="white" stroke="black" points="1135,-592.5 1135,-613.5 1281,-613.5 1281,-592.5 1135,-592.5"/>
<text text-anchor="middle" x="1208" y="-600.5" font-family="Helvetica,sans-Serif" font-size="10.00">core/models/utils/ahbdevice.h</text>
</a>
</g>
<!-- Node1&#45;&gt;Node43 -->
<g id="edge126" class="edge"><title>Node1&#45;&gt;Node43</title>
<path fill="none" stroke="midnightblue" d="M1307.91,-650.497C1288.77,-641.397 1260.85,-628.127 1239.39,-617.925"/>
<polygon fill="midnightblue" stroke="midnightblue" points="1240.88,-614.754 1230.34,-613.621 1237.87,-621.076 1240.88,-614.754"/>
</g>
<!-- Node46 -->
<g id="node117" class="node"><title>Node46</title>
<a xlink:href="msclogger_8h.html" target="_top" xlink:title="core/common/msclogger.h">
<polygon fill="white" stroke="black" points="2332,-534.5 2332,-555.5 2464,-555.5 2464,-534.5 2332,-534.5"/>
<text text-anchor="middle" x="2398" y="-542.5" font-family="Helvetica,sans-Serif" font-size="10.00">core/common/msclogger.h</text>
</a>
</g>
<!-- Node1&#45;&gt;Node46 -->
<g id="edge142" class="edge"><title>Node1&#45;&gt;Node46</title>
<path fill="none" stroke="midnightblue" d="M1404.2,-660.252C1619.43,-657.694 2234.02,-647.508 2318,-614 2344.55,-603.408 2368.42,-580.143 2383.03,-563.559"/>
<polygon fill="midnightblue" stroke="midnightblue" points="2385.99,-565.485 2389.8,-555.598 2380.66,-560.952 2385.99,-565.485"/>
</g>
<!-- Node48 -->
<g id="node126" class="node"><title>Node48</title>
<polygon fill="white" stroke="#bfbfbf" points="2552,-592.5 2552,-613.5 2708,-613.5 2708,-592.5 2552,-592.5"/>
<text text-anchor="middle" x="2630" y="-600.5" font-family="Helvetica,sans-Serif" font-size="10.00">core/models/utils/ahbmaster.tpp</text>
</g>
<!-- Node1&#45;&gt;Node48 -->
<g id="edge156" class="edge"><title>Node1&#45;&gt;Node48</title>
<path fill="none" stroke="midnightblue" d="M1404,-660.183C1593.1,-657.646 2109.35,-647.91 2538,-614 2539.12,-613.911 2540.25,-613.819 2541.39,-613.724"/>
<polygon fill="midnightblue" stroke="midnightblue" points="2542.1,-617.174 2551.75,-612.789 2541.47,-610.202 2542.1,-617.174"/>
</g>
<!-- Node4 -->
<g id="node7" class="node"><title>Node4</title>
<polygon fill="white" stroke="#bfbfbf" points="1107.5,-281.5 1107.5,-302.5 1214.5,-302.5 1214.5,-281.5 1107.5,-281.5"/>
<text text-anchor="middle" x="1161" y="-289.5" font-family="Helvetica,sans-Serif" font-size="10.00">greencontrol/config.h</text>
</g>
<!-- Node3&#45;&gt;Node4 -->
<g id="edge6" class="edge"><title>Node3&#45;&gt;Node4</title>
<path fill="none" stroke="midnightblue" d="M1272.67,-353.376C1250.71,-341.305 1214.66,-321.49 1189.48,-307.651"/>
<polygon fill="midnightblue" stroke="midnightblue" points="1190.86,-304.417 1180.41,-302.667 1187.49,-310.551 1190.86,-304.417"/>
</g>
<!-- Node5 -->
<g id="node9" class="node"><title>Node5</title>
<a xlink:href="gs__config_2gs__config_8h.html" target="_top" xlink:title="core/common/gs_config\l/gs_config.h">
<polygon fill="white" stroke="black" points="1231.5,-275 1231.5,-309 1352.5,-309 1352.5,-275 1231.5,-275"/>
<text text-anchor="start" x="1239.5" y="-296" font-family="Helvetica,sans-Serif" font-size="10.00">core/common/gs_config</text>
<text text-anchor="middle" x="1292" y="-283" font-family="Helvetica,sans-Serif" font-size="10.00">/gs_config.h</text>
</a>
</g>
<!-- Node3&#45;&gt;Node5 -->
<g id="edge8" class="edge"><title>Node3&#45;&gt;Node5</title>
<path fill="none" stroke="midnightblue" d="M1292,-353.376C1292,-344.451 1292,-331.293 1292,-319.446"/>
<polygon fill="midnightblue" stroke="midnightblue" points="1295.5,-319.094 1292,-309.094 1288.5,-319.094 1295.5,-319.094"/>
</g>
<!-- Node8 -->
<g id="node15" class="node"><title>Node8</title>
<a xlink:href="gs__config__class_8h.html" target="_top" xlink:title="core/common/gs_config\l/gs_config_class.h">
<polygon fill="white" stroke="black" points="1576.5,-275 1576.5,-309 1697.5,-309 1697.5,-275 1576.5,-275"/>
<text text-anchor="start" x="1584.5" y="-296" font-family="Helvetica,sans-Serif" font-size="10.00">core/common/gs_config</text>
<text text-anchor="middle" x="1637" y="-283" font-family="Helvetica,sans-Serif" font-size="10.00">/gs_config_class.h</text>
</a>
</g>
<!-- Node3&#45;&gt;Node8 -->
<g id="edge14" class="edge"><title>Node3&#45;&gt;Node8</title>
<path fill="none" stroke="midnightblue" d="M1342.54,-353.453C1401.64,-341.119 1499.85,-320.622 1566.45,-306.724"/>
<polygon fill="midnightblue" stroke="midnightblue" points="1567.37,-310.107 1576.45,-304.637 1565.94,-303.254 1567.37,-310.107"/>
</g>
<!-- Node6 -->
<g id="node11" class="node"><title>Node6</title>
<polygon fill="white" stroke="#bfbfbf" points="1107.5,-209.5 1107.5,-230.5 1148.5,-230.5 1148.5,-209.5 1107.5,-209.5"/>
<text text-anchor="middle" x="1128" y="-217.5" font-family="Helvetica,sans-Serif" font-size="10.00">string</text>
</g>
<!-- Node5&#45;&gt;Node6 -->
<g id="edge10" class="edge"><title>Node5&#45;&gt;Node6</title>
<path fill="none" stroke="midnightblue" d="M1248.22,-275C1222.8,-264.833 1190.3,-251.333 1162,-238 1160.19,-237.146 1158.33,-236.245 1156.47,-235.32"/>
<polygon fill="midnightblue" stroke="midnightblue" points="1157.76,-232.045 1147.26,-230.596 1154.56,-238.274 1157.76,-232.045"/>
</g>
<!-- Node7 -->
<g id="node13" class="node"><title>Node7</title>
<polygon fill="white" stroke="#bfbfbf" points="941.5,-209.5 941.5,-230.5 976.5,-230.5 976.5,-209.5 941.5,-209.5"/>
<text text-anchor="middle" x="959" y="-217.5" font-family="Helvetica,sans-Serif" font-size="10.00">map</text>
</g>
<!-- Node5&#45;&gt;Node7 -->
<g id="edge12" class="edge"><title>Node5&#45;&gt;Node7</title>
<path fill="none" stroke="midnightblue" d="M1231.46,-276.012C1228.61,-275.319 1225.77,-274.645 1223,-274 1137.22,-254.052 1034.83,-234.24 986.651,-225.152"/>
<polygon fill="midnightblue" stroke="midnightblue" points="987.156,-221.685 976.681,-223.278 985.863,-228.565 987.156,-221.685"/>
</g>
<!-- Node8&#45;&gt;Node6 -->
<g id="edge16" class="edge"><title>Node8&#45;&gt;Node6</title>
<path fill="none" stroke="midnightblue" d="M1576.19,-287.917C1466.05,-280.053 1237.92,-261.488 1162,-238 1159.4,-237.195 1156.76,-236.19 1154.17,-235.068"/>
<polygon fill="midnightblue" stroke="midnightblue" points="1155.63,-231.885 1145.1,-230.649 1152.56,-238.177 1155.63,-231.885"/>
</g>
<!-- Node9 -->
<g id="node18" class="node"><title>Node9</title>
<polygon fill="white" stroke="#bfbfbf" points="2249,-72.5 2249,-93.5 2303,-93.5 2303,-72.5 2249,-72.5"/>
<text text-anchor="middle" x="2276" y="-80.5" font-family="Helvetica,sans-Serif" font-size="10.00">iostream</text>
</g>
<!-- Node8&#45;&gt;Node9 -->
<g id="edge18" class="edge"><title>Node8&#45;&gt;Node9</title>
<path fill="none" stroke="midnightblue" d="M1697.58,-290.725C1843.78,-287.08 2206.88,-274.421 2247,-238 2284.7,-203.78 2282.93,-137.477 2279.14,-103.765"/>
<polygon fill="midnightblue" stroke="midnightblue" points="2282.59,-103.143 2277.83,-93.6758 2275.65,-104.043 2282.59,-103.143"/>
</g>
<!-- Node10 -->
<g id="node20" class="node"><title>Node10</title>
<polygon fill="white" stroke="#bfbfbf" points="1928,-209.5 1928,-230.5 1980,-230.5 1980,-209.5 1928,-209.5"/>
<text text-anchor="middle" x="1954" y="-217.5" font-family="Helvetica,sans-Serif" font-size="10.00">sstream</text>
</g>
<!-- Node8&#45;&gt;Node10 -->
<g id="edge20" class="edge"><title>Node8&#45;&gt;Node10</title>
<path fill="none" stroke="midnightblue" d="M1697.71,-285.467C1755.71,-278.045 1845.02,-263.516 1919,-238 1921.58,-237.112 1924.2,-236.063 1926.79,-234.927"/>
<polygon fill="midnightblue" stroke="midnightblue" points="1928.41,-238.032 1935.91,-230.549 1925.38,-231.722 1928.41,-238.032"/>
</g>
<!-- Node11 -->
<g id="node22" class="node"><title>Node11</title>
<polygon fill="white" stroke="#bfbfbf" points="1998,-209.5 1998,-230.5 2100,-230.5 2100,-209.5 1998,-209.5"/>
<text text-anchor="middle" x="2049" y="-217.5" font-family="Helvetica,sans-Serif" font-size="10.00">boost/tokenizer.hpp</text>
</g>
<!-- Node8&#45;&gt;Node11 -->
<g id="edge22" class="edge"><title>Node8&#45;&gt;Node11</title>
<path fill="none" stroke="midnightblue" d="M1697.58,-285.308C1768.1,-276.92 1887.83,-260.819 1989,-238 1994.84,-236.682 2000.95,-235.097 2006.94,-233.422"/>
<polygon fill="midnightblue" stroke="midnightblue" points="2008.21,-236.699 2016.83,-230.548 2006.25,-229.976 2008.21,-236.699"/>
</g>
<!-- Node12 -->
<g id="node24" class="node"><title>Node12</title>
<a xlink:href="common_8h.html" target="_top" xlink:title="core/common/common.h">
<polygon fill="white" stroke="black" points="1785.5,-209.5 1785.5,-230.5 1910.5,-230.5 1910.5,-209.5 1785.5,-209.5"/>
<text text-anchor="middle" x="1848" y="-217.5" font-family="Helvetica,sans-Serif" font-size="10.00">core/common/common.h</text>
</a>
</g>
<!-- Node8&#45;&gt;Node12 -->
<g id="edge24" class="edge"><title>Node8&#45;&gt;Node12</title>
<path fill="none" stroke="midnightblue" d="M1687,-274.937C1723.72,-262.409 1772.97,-245.604 1807.29,-233.892"/>
<polygon fill="midnightblue" stroke="midnightblue" points="1808.65,-237.124 1816.99,-230.582 1806.39,-230.499 1808.65,-237.124"/>
</g>
<!-- Node24 -->
<g id="node53" class="node"><title>Node24</title>
<a xlink:href="gs__config__t_8h.html" target="_top" xlink:title="core/common/gs_config\l/gs_config_t.h">
<polygon fill="white" stroke="black" points="2117.5,-203 2117.5,-237 2238.5,-237 2238.5,-203 2117.5,-203"/>
<text text-anchor="start" x="2125.5" y="-224" font-family="Helvetica,sans-Serif" font-size="10.00">core/common/gs_config</text>
<text text-anchor="middle" x="2178" y="-211" font-family="Helvetica,sans-Serif" font-size="10.00">/gs_config_t.h</text>
</a>
</g>
<!-- Node8&#45;&gt;Node24 -->
<g id="edge58" class="edge"><title>Node8&#45;&gt;Node24</title>
<path fill="none" stroke="midnightblue" d="M1697.76,-287.808C1786.09,-281.106 1955.19,-265.987 2107.17,-238.219"/>
<polygon fill="midnightblue" stroke="midnightblue" points="2107.96,-241.632 2117.15,-236.371 2106.68,-234.749 2107.96,-241.632"/>
</g>
<!-- Node25 -->
<g id="node55" class="node"><title>Node25</title>
<a xlink:href="gs__config__operator__macros_8h.html" target="_top" xlink:title="core/common/gs_config\l/gs_config_operator_macros.h">
<polygon fill="white" stroke="black" points="1204,-203 1204,-237 1352,-237 1352,-203 1204,-203"/>
<text text-anchor="start" x="1212" y="-224" font-family="Helvetica,sans-Serif" font-size="10.00">core/common/gs_config</text>
<text text-anchor="middle" x="1278" y="-211" font-family="Helvetica,sans-Serif" font-size="10.00">/gs_config_operator_macros.h</text>
</a>
</g>
<!-- Node8&#45;&gt;Node25 -->
<g id="edge60" class="edge"><title>Node8&#45;&gt;Node25</title>
<path fill="none" stroke="midnightblue" d="M1576.36,-280.503C1522.68,-270.243 1441.95,-254.609 1362.4,-238.269"/>
<polygon fill="midnightblue" stroke="midnightblue" points="1362.7,-234.758 1352.2,-236.169 1361.28,-241.614 1362.7,-234.758"/>
</g>
<!-- Node26 -->
<g id="node57" class="node"><title>Node26</title>
<a xlink:href="gs__config__delegate_8h.html" target="_top" xlink:title="core/common/gs_config\l/gs_config_delegate.h">
<polygon fill="white" stroke="black" points="1369.5,-203 1369.5,-237 1490.5,-237 1490.5,-203 1369.5,-203"/>
<text text-anchor="start" x="1377.5" y="-224" font-family="Helvetica,sans-Serif" font-size="10.00">core/common/gs_config</text>
<text text-anchor="middle" x="1430" y="-211" font-family="Helvetica,sans-Serif" font-size="10.00">/gs_config_delegate.h</text>
</a>
</g>
<!-- Node8&#45;&gt;Node26 -->
<g id="edge62" class="edge"><title>Node8&#45;&gt;Node26</title>
<path fill="none" stroke="midnightblue" d="M1587.94,-274.937C1558.15,-264.573 1519.94,-251.283 1488.56,-240.37"/>
<polygon fill="midnightblue" stroke="midnightblue" points="1489.66,-237.045 1479.06,-237.065 1487.36,-243.656 1489.66,-237.045"/>
</g>
<!-- Node27 -->
<g id="node59" class="node"><title>Node27</title>
<a xlink:href="gs__config__native_8hpp.html" target="_top" xlink:title="core/common/gs_config\l/gs_config_native.hpp">
<polygon fill="white" stroke="black" points="1507.5,-203 1507.5,-237 1628.5,-237 1628.5,-203 1507.5,-203"/>
<text text-anchor="start" x="1515.5" y="-224" font-family="Helvetica,sans-Serif" font-size="10.00">core/common/gs_config</text>
<text text-anchor="middle" x="1568" y="-211" font-family="Helvetica,sans-Serif" font-size="10.00">/gs_config_native.hpp</text>
</a>
</g>
<!-- Node8&#45;&gt;Node27 -->
<g id="edge64" class="edge"><title>Node8&#45;&gt;Node27</title>
<path fill="none" stroke="midnightblue" d="M1620.65,-274.937C1612.01,-265.924 1601.25,-254.696 1591.71,-244.744"/>
<polygon fill="midnightblue" stroke="midnightblue" points="1594.16,-242.239 1584.71,-237.441 1589.11,-247.082 1594.16,-242.239"/>
</g>
<!-- Node28 -->
<g id="node61" class="node"><title>Node28</title>
<a xlink:href="gs__config__stdint_8hpp.html" target="_top" xlink:title="core/common/gs_config\l/gs_config_stdint.hpp">
<polygon fill="white" stroke="black" points="103.5,-131 103.5,-165 224.5,-165 224.5,-131 103.5,-131"/>
<text text-anchor="start" x="111.5" y="-152" font-family="Helvetica,sans-Serif" font-size="10.00">core/common/gs_config</text>
<text text-anchor="middle" x="164" y="-139" font-family="Helvetica,sans-Serif" font-size="10.00">/gs_config_stdint.hpp</text>
</a>
</g>
<!-- Node8&#45;&gt;Node28 -->
<g id="edge66" class="edge"><title>Node8&#45;&gt;Node28</title>
<path fill="none" stroke="midnightblue" d="M1576.43,-289.277C1471.62,-283.797 1261.27,-269.197 1195,-238 1173.95,-228.091 1178.44,-211.031 1157,-202 1064.81,-163.168 372.569,-180.098 234.759,-165.851"/>
<polygon fill="midnightblue" stroke="midnightblue" points="235.159,-162.374 224.806,-164.624 234.302,-169.322 235.159,-162.374"/>
</g>
<!-- Node29 -->
<g id="node64" class="node"><title>Node29</title>
<a xlink:href="gs__config__systemc_8hpp.html" target="_top" xlink:title="core/common/gs_config\l/gs_config_systemc.hpp">
<polygon fill="white" stroke="black" points="1645.5,-203 1645.5,-237 1768.5,-237 1768.5,-203 1645.5,-203"/>
<text text-anchor="start" x="1653.5" y="-224" font-family="Helvetica,sans-Serif" font-size="10.00">core/common/gs_config</text>
<text text-anchor="middle" x="1707" y="-211" font-family="Helvetica,sans-Serif" font-size="10.00">/gs_config_systemc.hpp</text>
</a>
</g>
<!-- Node8&#45;&gt;Node29 -->
<g id="edge70" class="edge"><title>Node8&#45;&gt;Node29</title>
<path fill="none" stroke="midnightblue" d="M1653.59,-274.937C1662.35,-265.924 1673.27,-254.696 1682.94,-244.744"/>
<polygon fill="midnightblue" stroke="midnightblue" points="1685.58,-247.05 1690.04,-237.441 1680.56,-242.171 1685.58,-247.05"/>
</g>
<!-- Node12&#45;&gt;Node13 -->
<g id="edge26" class="edge"><title>Node12&#45;&gt;Node13</title>
<path fill="none" stroke="midnightblue" d="M1809.08,-209.478C1798.7,-206.851 1787.46,-204.168 1777,-202 1536.14,-152.07 1247.24,-110.617 1114.8,-92.6265"/>
<polygon fill="midnightblue" stroke="midnightblue" points="1115.15,-89.1422 1104.78,-91.2685 1114.22,-96.0788 1115.15,-89.1422"/>
</g>
<!-- Node18 -->
<g id="node37" class="node"><title>Node18</title>
<a xlink:href="vendian_8h.html" target="_top" xlink:title="core/common/vendian.h">
<polygon fill="white" stroke="black" points="241.5,-137.5 241.5,-158.5 362.5,-158.5 362.5,-137.5 241.5,-137.5"/>
<text text-anchor="middle" x="302" y="-145.5" font-family="Helvetica,sans-Serif" font-size="10.00">core/common/vendian.h</text>
</a>
</g>
<!-- Node12&#45;&gt;Node18 -->
<g id="edge38" class="edge"><title>Node12&#45;&gt;Node18</title>
<path fill="none" stroke="midnightblue" d="M1812.54,-209.442C1801.28,-206.513 1788.71,-203.679 1777,-202 1637.46,-181.988 648.029,-156.482 372.855,-149.712"/>
<polygon fill="midnightblue" stroke="midnightblue" points="372.68,-146.207 362.598,-149.46 372.509,-153.205 372.68,-146.207"/>
</g>
<!-- Node12&#45;&gt;Node19 -->
<g id="edge42" class="edge"><title>Node12&#45;&gt;Node19</title>
<path fill="none" stroke="midnightblue" d="M1876.72,-209.408C1887.14,-206.656 1898.98,-203.927 1910,-202 2083.5,-171.667 2291,-157.069 2397.83,-151.237"/>
<polygon fill="midnightblue" stroke="midnightblue" points="2398.05,-154.73 2407.85,-150.7 2397.68,-147.74 2398.05,-154.73"/>
</g>
<!-- Node13&#45;&gt;Node13 -->
<g id="edge28" class="edge"><title>Node13&#45;&gt;Node13</title>
<path fill="none" stroke="midnightblue" d="M1073.62,-93.5168C1097.64,-97.3181 1122,-93.8125 1122,-83 1122,-73.708 1104.01,-69.8123 1083.71,-71.313"/>
<polygon fill="midnightblue" stroke="midnightblue" points="1083.15,-67.8539 1073.62,-72.4832 1083.96,-74.8073 1083.15,-67.8539"/>
</g>
<!-- Node13&#45;&gt;Node14 -->
<g id="edge30" class="edge"><title>Node13&#45;&gt;Node14</title>
<path fill="none" stroke="midnightblue" d="M1104.65,-75.8392C1117.02,-74.5011 1129.92,-73.1602 1142,-72 1384.82,-48.6855 1678.67,-26.8147 1770.88,-20.1005"/>
<polygon fill="midnightblue" stroke="midnightblue" points="1771.15,-23.5902 1780.87,-19.3751 1770.65,-16.6086 1771.15,-23.5902"/>
</g>
<!-- Node15 -->
<g id="node31" class="node"><title>Node15</title>
<polygon fill="white" stroke="#bfbfbf" points="1106.5,-1 1106.5,-35 1221.5,-35 1221.5,-1 1106.5,-1"/>
<text text-anchor="start" x="1114.5" y="-22" font-family="Helvetica,sans-Serif" font-size="10.00">tlm_utils/simple_target</text>
<text text-anchor="middle" x="1164" y="-9" font-family="Helvetica,sans-Serif" font-size="10.00">_socket.h</text>
</g>
<!-- Node13&#45;&gt;Node15 -->
<g id="edge32" class="edge"><title>Node13&#45;&gt;Node15</title>
<path fill="none" stroke="midnightblue" d="M1061.87,-72.412C1078.34,-63.6378 1102.3,-50.8751 1122.87,-39.9153"/>
<polygon fill="midnightblue" stroke="midnightblue" points="1124.56,-42.9781 1131.74,-35.1869 1121.27,-36.8002 1124.56,-42.9781"/>
</g>
<!-- Node16 -->
<g id="node33" class="node"><title>Node16</title>
<polygon fill="white" stroke="#bfbfbf" points="855,-1 855,-35 977,-35 977,-1 855,-1"/>
<text text-anchor="start" x="863" y="-22" font-family="Helvetica,sans-Serif" font-size="10.00">tlm_utils/simple_initiator</text>
<text text-anchor="middle" x="916" y="-9" font-family="Helvetica,sans-Serif" font-size="10.00">_socket.h</text>
</g>
<!-- Node13&#45;&gt;Node16 -->
<g id="edge34" class="edge"><title>Node13&#45;&gt;Node16</title>
<path fill="none" stroke="midnightblue" d="M1021.48,-72.412C1004.47,-63.6378 979.727,-50.8751 958.482,-39.9153"/>
<polygon fill="midnightblue" stroke="midnightblue" points="959.808,-36.6611 949.316,-35.1869 956.599,-42.8821 959.808,-36.6611"/>
</g>
<!-- Node17 -->
<g id="node35" class="node"><title>Node17</title>
<polygon fill="white" stroke="#bfbfbf" points="994.5,-1 994.5,-35 1089.5,-35 1089.5,-1 994.5,-1"/>
<text text-anchor="start" x="1002.5" y="-22" font-family="Helvetica,sans-Serif" font-size="10.00">tlm_utils/peq_with</text>
<text text-anchor="middle" x="1042" y="-9" font-family="Helvetica,sans-Serif" font-size="10.00">_get.h</text>
</g>
<!-- Node13&#45;&gt;Node17 -->
<g id="edge36" class="edge"><title>Node13&#45;&gt;Node17</title>
<path fill="none" stroke="midnightblue" d="M1042,-72.2666C1042,-64.931 1042,-54.8573 1042,-45.3796"/>
<polygon fill="midnightblue" stroke="midnightblue" points="1045.5,-45.1098 1042,-35.1099 1038.5,-45.1099 1045.5,-45.1098"/>
</g>
<!-- Node18&#45;&gt;Node2 -->
<g id="edge40" class="edge"><title>Node18&#45;&gt;Node2</title>
<path fill="none" stroke="midnightblue" d="M269.259,-137.412C232.551,-125.541 173.271,-106.371 135.76,-94.2407"/>
<polygon fill="midnightblue" stroke="midnightblue" points="136.386,-90.7647 125.794,-91.0179 134.232,-97.4251 136.386,-90.7647"/>
</g>
<!-- Node19&#45;&gt;Node9 -->
<g id="edge50" class="edge"><title>Node19&#45;&gt;Node9</title>
<path fill="none" stroke="midnightblue" d="M2437.56,-137.412C2403.39,-125.903 2348.84,-107.533 2312.73,-95.3687"/>
<polygon fill="midnightblue" stroke="midnightblue" points="2313.65,-91.9882 2303.06,-92.1134 2311.42,-98.6221 2313.65,-91.9882"/>
</g>
<!-- Node19&#45;&gt;Node12 -->
<g id="edge54" class="edge"><title>Node19&#45;&gt;Node12</title>
<path fill="none" stroke="midnightblue" d="M2407.83,-151.317C2307.13,-157.201 2100.72,-171.804 1928,-202 1920.16,-203.37 1911.92,-205.146 1903.8,-207.046"/>
<polygon fill="midnightblue" stroke="midnightblue" points="1902.89,-203.664 1893.99,-209.408 1904.53,-210.469 1902.89,-203.664"/>
</g>
<!-- Node19&#45;&gt;Node13 -->
<g id="edge56" class="edge"><title>Node19&#45;&gt;Node13</title>
<path fill="none" stroke="midnightblue" d="M2407.68,-145.207C2177.22,-134.709 1363.37,-97.6385 1114.71,-86.3118"/>
<polygon fill="midnightblue" stroke="midnightblue" points="1114.84,-82.8145 1104.7,-85.8558 1114.53,-89.8073 1114.84,-82.8145"/>
</g>
<!-- Node20 -->
<g id="node42" class="node"><title>Node20</title>
<polygon fill="white" stroke="#bfbfbf" points="2553.5,-72.5 2553.5,-93.5 2596.5,-93.5 2596.5,-72.5 2553.5,-72.5"/>
<text text-anchor="middle" x="2575" y="-80.5" font-family="Helvetica,sans-Serif" font-size="10.00">cstdio</text>
</g>
<!-- Node19&#45;&gt;Node20 -->
<g id="edge44" class="edge"><title>Node19&#45;&gt;Node20</title>
<path fill="none" stroke="midnightblue" d="M2486.5,-137.267C2503.56,-126.807 2529.69,-110.782 2549.15,-98.8541"/>
<polygon fill="midnightblue" stroke="midnightblue" points="2551.13,-101.745 2557.82,-93.5337 2547.47,-95.7776 2551.13,-101.745"/>
</g>
<!-- Node21 -->
<g id="node44" class="node"><title>Node21</title>
<polygon fill="white" stroke="#bfbfbf" points="2614,-72.5 2614,-93.5 2660,-93.5 2660,-72.5 2614,-72.5"/>
<text text-anchor="middle" x="2637" y="-80.5" font-family="Helvetica,sans-Serif" font-size="10.00">cstring</text>
</g>
<!-- Node19&#45;&gt;Node21 -->
<g id="edge46" class="edge"><title>Node19&#45;&gt;Node21</title>
<path fill="none" stroke="midnightblue" d="M2496.37,-137.412C2525.9,-125.986 2572.91,-107.796 2604.35,-95.6317"/>
<polygon fill="midnightblue" stroke="midnightblue" points="2605.91,-98.7828 2613.97,-91.9102 2603.38,-92.2544 2605.91,-98.7828"/>
</g>
<!-- Node22 -->
<g id="node46" class="node"><title>Node22</title>
<polygon fill="white" stroke="#bfbfbf" points="2408,-72.5 2408,-93.5 2458,-93.5 2458,-72.5 2408,-72.5"/>
<text text-anchor="middle" x="2433" y="-80.5" font-family="Helvetica,sans-Serif" font-size="10.00">iomanip</text>
</g>
<!-- Node19&#45;&gt;Node22 -->
<g id="edge48" class="edge"><title>Node19&#45;&gt;Node22</title>
<path fill="none" stroke="midnightblue" d="M2463.06,-137.267C2457.81,-127.801 2450.05,-113.777 2443.72,-102.357"/>
<polygon fill="midnightblue" stroke="midnightblue" points="2446.74,-100.586 2438.83,-93.5337 2440.62,-103.977 2446.74,-100.586"/>
</g>
<!-- Node23 -->
<g id="node49" class="node"><title>Node23</title>
<polygon fill="white" stroke="#bfbfbf" points="2476,-72.5 2476,-93.5 2536,-93.5 2536,-72.5 2476,-72.5"/>
<text text-anchor="middle" x="2506" y="-80.5" font-family="Helvetica,sans-Serif" font-size="10.00">streambuf</text>
</g>
<!-- Node19&#45;&gt;Node23 -->
<g id="edge52" class="edge"><title>Node19&#45;&gt;Node23</title>
<path fill="none" stroke="midnightblue" d="M2475.11,-137.267C2480.5,-127.801 2488.48,-113.777 2494.98,-102.357"/>
<polygon fill="midnightblue" stroke="midnightblue" points="2498.1,-103.956 2500,-93.5337 2492.02,-100.493 2498.1,-103.956"/>
</g>
<!-- Node28&#45;&gt;Node2 -->
<g id="edge68" class="edge"><title>Node28&#45;&gt;Node2</title>
<path fill="none" stroke="midnightblue" d="M147.447,-130.922C138.561,-121.754 127.609,-110.454 118.572,-101.129"/>
<polygon fill="midnightblue" stroke="midnightblue" points="120.991,-98.5969 111.518,-93.8521 115.965,-103.469 120.991,-98.5969"/>
</g>
<!-- Node30&#45;&gt;Node13 -->
<g id="edge74" class="edge"><title>Node30&#45;&gt;Node13</title>
<path fill="none" stroke="midnightblue" d="M942.196,-476.351C961.794,-468.726 986.011,-456.812 1003,-440 1029.99,-413.295 1042,-401.966 1042,-364 1042,-364 1042,-364 1042,-220 1042,-178.793 1042,-130.614 1042,-103.773"/>
<polygon fill="midnightblue" stroke="midnightblue" points="1045.5,-103.658 1042,-93.6583 1038.5,-103.658 1045.5,-103.658"/>
</g>
<!-- Node31 -->
<g id="node69" class="node"><title>Node31</title>
<a xlink:href="base_8h.html" target="_top" xlink:title="core/common/base.h">
<polygon fill="white" stroke="black" points="886,-418.5 886,-439.5 994,-439.5 994,-418.5 886,-418.5"/>
<text text-anchor="middle" x="940" y="-426.5" font-family="Helvetica,sans-Serif" font-size="10.00">core/common/base.h</text>
</a>
</g>
<!-- Node30&#45;&gt;Node31 -->
<g id="edge76" class="edge"><title>Node30&#45;&gt;Node31</title>
<path fill="none" stroke="midnightblue" d="M914.686,-476.362C918.837,-468.595 924.584,-457.843 929.553,-448.546"/>
<polygon fill="midnightblue" stroke="midnightblue" points="932.723,-450.04 934.35,-439.571 926.55,-446.74 932.723,-450.04"/>
</g>
<!-- Node32 -->
<g id="node73" class="node"><title>Node32</title>
<a xlink:href="report_8h.html" target="_top" xlink:title="core/common/report.h">
<polygon fill="white" stroke="black" points="802,-353.5 802,-374.5 914,-374.5 914,-353.5 802,-353.5"/>
<text text-anchor="middle" x="858" y="-361.5" font-family="Helvetica,sans-Serif" font-size="10.00">core/common/report.h</text>
</a>
</g>
<!-- Node30&#45;&gt;Node32 -->
<g id="edge116" class="edge"><title>Node30&#45;&gt;Node32</title>
<path fill="none" stroke="midnightblue" d="M900.199,-476.449C893.002,-467.326 883.056,-453.512 877,-440 869.032,-422.223 864.033,-400.547 861.174,-384.9"/>
<polygon fill="midnightblue" stroke="midnightblue" points="864.571,-383.994 859.459,-374.714 857.668,-385.157 864.571,-383.994"/>
</g>
<!-- Node35 -->
<g id="node81" class="node"><title>Node35</title>
<polygon fill="white" stroke="#bfbfbf" points="103.5,-209.5 103.5,-230.5 206.5,-230.5 206.5,-209.5 103.5,-209.5"/>
<text text-anchor="middle" x="155" y="-217.5" font-family="Helvetica,sans-Serif" font-size="10.00">greenreg/greenreg.h</text>
</g>
<!-- Node30&#45;&gt;Node35 -->
<g id="edge118" class="edge"><title>Node30&#45;&gt;Node35</title>
<path fill="none" stroke="midnightblue" d="M853.252,-484.743C750.763,-478.818 527.316,-457.557 357,-382 277.492,-346.728 202.777,-272.231 171.029,-237.952"/>
<polygon fill="midnightblue" stroke="midnightblue" points="173.571,-235.545 164.242,-230.524 168.404,-240.267 173.571,-235.545"/>
</g>
<!-- Node36 -->
<g id="node83" class="node"><title>Node36</title>
<a xlink:href="greenreg__ambasockets_8h.html" target="_top" xlink:title="core/common/grambasockets\l/greenreg_ambasockets.h">
<polygon fill="white" stroke="black" points="366,-347 366,-381 512,-381 512,-347 366,-347"/>
<text text-anchor="start" x="374" y="-368" font-family="Helvetica,sans-Serif" font-size="10.00">core/common/grambasockets</text>
<text text-anchor="middle" x="439" y="-355" font-family="Helvetica,sans-Serif" font-size="10.00">/greenreg_ambasockets.h</text>
</a>
</g>
<!-- Node30&#45;&gt;Node36 -->
<g id="edge120" class="edge"><title>Node30&#45;&gt;Node36</title>
<path fill="none" stroke="midnightblue" d="M868.521,-476.407C789.652,-455.766 614.34,-409.887 513.771,-383.568"/>
<polygon fill="midnightblue" stroke="midnightblue" points="514.54,-380.151 503.979,-381.005 512.767,-386.923 514.54,-380.151"/>
</g>
<!-- Node31&#45;&gt;Node3 -->
<g id="edge80" class="edge"><title>Node31&#45;&gt;Node3</title>
<path fill="none" stroke="midnightblue" d="M994.229,-418.986C1056.32,-407.52 1158.07,-388.731 1225.05,-376.363"/>
<polygon fill="midnightblue" stroke="midnightblue" points="1225.88,-379.768 1235.08,-374.51 1224.61,-372.885 1225.88,-379.768"/>
</g>
<!-- Node31&#45;&gt;Node13 -->
<g id="edge78" class="edge"><title>Node31&#45;&gt;Node13</title>
<path fill="none" stroke="midnightblue" d="M948.899,-418.43C966.484,-396.426 1004,-343.454 1004,-292 1004,-292 1004,-292 1004,-220 1004,-177.073 1021.54,-129.243 1032.78,-102.983"/>
<polygon fill="midnightblue" stroke="midnightblue" points="1036.03,-104.29 1036.88,-93.7282 1029.63,-101.46 1036.03,-104.29"/>
</g>
<!-- Node31&#45;&gt;Node32 -->
<g id="edge82" class="edge"><title>Node31&#45;&gt;Node32</title>
<path fill="none" stroke="midnightblue" d="M926.459,-418.267C913.683,-408.139 894.322,-392.792 879.446,-381"/>
<polygon fill="midnightblue" stroke="midnightblue" points="881.299,-378.003 871.289,-374.534 876.951,-383.488 881.299,-378.003"/>
</g>
<!-- Node31&#45;&gt;Node35 -->
<g id="edge92" class="edge"><title>Node31&#45;&gt;Node35</title>
<path fill="none" stroke="midnightblue" d="M900.534,-418.492C769.521,-383.611 349.164,-271.695 204.478,-233.173"/>
<polygon fill="midnightblue" stroke="midnightblue" points="205.109,-229.719 194.545,-230.528 203.308,-236.484 205.109,-229.719"/>
</g>
<!-- Node31&#45;&gt;Node36 -->
<g id="edge94" class="edge"><title>Node31&#45;&gt;Node36</title>
<path fill="none" stroke="midnightblue" d="M885.866,-424.438C806.592,-417.399 654.395,-402.527 526,-382 524.715,-381.795 523.42,-381.583 522.117,-381.366"/>
<polygon fill="midnightblue" stroke="midnightblue" points="522.465,-377.874 512.013,-379.608 521.265,-384.771 522.465,-377.874"/>
</g>
<!-- Node32&#45;&gt;Node13 -->
<g id="edge86" class="edge"><title>Node32&#45;&gt;Node13</title>
<path fill="none" stroke="midnightblue" d="M855.382,-353.284C851.681,-335.934 846.47,-300.922 857,-274 888.635,-193.123 973.675,-127.971 1016.55,-99.1064"/>
<polygon fill="midnightblue" stroke="midnightblue" points="1018.61,-101.939 1025.02,-93.5051 1014.75,-96.0993 1018.61,-101.939"/>
</g>
<!-- Node33 -->
<g id="node75" class="node"><title>Node33</title>
<polygon fill="white" stroke="#bfbfbf" points="732,-281.5 732,-302.5 810,-302.5 810,-281.5 732,-281.5"/>
<text text-anchor="middle" x="771" y="-289.5" font-family="Helvetica,sans-Serif" font-size="10.00">boost/any.hpp</text>
</g>
<!-- Node32&#45;&gt;Node33 -->
<g id="edge84" class="edge"><title>Node32&#45;&gt;Node33</title>
<path fill="none" stroke="midnightblue" d="M845.163,-353.376C831.156,-341.784 808.518,-323.05 791.933,-309.324"/>
<polygon fill="midnightblue" stroke="midnightblue" points="793.825,-306.347 783.89,-302.667 789.362,-311.74 793.825,-306.347"/>
</g>
<!-- Node34 -->
<g id="node78" class="node"><title>Node34</title>
<a xlink:href="vmap_8h.html" target="_top" xlink:title="core/common/vmap.h">
<polygon fill="white" stroke="black" points="865.5,-281.5 865.5,-302.5 976.5,-302.5 976.5,-281.5 865.5,-281.5"/>
<text text-anchor="middle" x="921" y="-289.5" font-family="Helvetica,sans-Serif" font-size="10.00">core/common/vmap.h</text>
</a>
</g>
<!-- Node32&#45;&gt;Node34 -->
<g id="edge88" class="edge"><title>Node32&#45;&gt;Node34</title>
<path fill="none" stroke="midnightblue" d="M867.296,-353.376C877.16,-342.103 892.934,-324.075 904.84,-310.468"/>
<polygon fill="midnightblue" stroke="midnightblue" points="907.715,-312.498 911.666,-302.667 902.447,-307.888 907.715,-312.498"/>
</g>
<!-- Node34&#45;&gt;Node7 -->
<g id="edge90" class="edge"><title>Node34&#45;&gt;Node7</title>
<path fill="none" stroke="midnightblue" d="M926.607,-281.376C932.388,-270.422 941.536,-253.09 948.638,-239.634"/>
<polygon fill="midnightblue" stroke="midnightblue" points="951.798,-241.145 953.37,-230.667 945.607,-237.878 951.798,-241.145"/>
</g>
<!-- Node36&#45;&gt;Node35 -->
<g id="edge96" class="edge"><title>Node36&#45;&gt;Node35</title>
<path fill="none" stroke="midnightblue" d="M405.306,-346.916C349.308,-318.523 237.986,-262.077 184.73,-235.074"/>
<polygon fill="midnightblue" stroke="midnightblue" points="186.292,-231.942 175.79,-230.541 183.126,-238.185 186.292,-231.942"/>
</g>
<!-- Node37 -->
<g id="node86" class="node"><title>Node37</title>
<a xlink:href="gr__ambasockets_8h.html" target="_top" xlink:title="core/common/grambasockets\l/gr_ambasockets.h">
<polygon fill="white" stroke="black" points="568,-275 568,-309 714,-309 714,-275 568,-275"/>
<text text-anchor="start" x="576" y="-296" font-family="Helvetica,sans-Serif" font-size="10.00">core/common/grambasockets</text>
<text text-anchor="middle" x="641" y="-283" font-family="Helvetica,sans-Serif" font-size="10.00">/gr_ambasockets.h</text>
</a>
</g>
<!-- Node36&#45;&gt;Node37 -->
<g id="edge98" class="edge"><title>Node36&#45;&gt;Node37</title>
<path fill="none" stroke="midnightblue" d="M486.871,-346.937C515.822,-336.618 552.914,-323.397 583.455,-312.511"/>
<polygon fill="midnightblue" stroke="midnightblue" points="584.878,-315.719 593.123,-309.065 582.528,-309.126 584.878,-315.719"/>
</g>
<!-- Node37&#45;&gt;Node9 -->
<g id="edge114" class="edge"><title>Node37&#45;&gt;Node9</title>
<path fill="none" stroke="midnightblue" d="M714.079,-275.358C765.954,-263.236 830.842,-247.361 857,-238 892.19,-225.406 896.933,-211.803 933,-202 1189.74,-132.221 2049.52,-92.533 2238.89,-84.518"/>
<polygon fill="midnightblue" stroke="midnightblue" points="2239.06,-88.0141 2248.91,-84.0974 2238.77,-81.0202 2239.06,-88.0141"/>
</g>
<!-- Node37&#45;&gt;Node18 -->
<g id="edge110" class="edge"><title>Node37&#45;&gt;Node18</title>
<path fill="none" stroke="midnightblue" d="M567.982,-276.424C563.258,-275.561 558.567,-274.744 554,-274 487.511,-263.166 297.717,-288.384 253,-238 233.418,-215.937 259.761,-184.696 280.751,-165.424"/>
<polygon fill="midnightblue" stroke="midnightblue" points="283.233,-167.902 288.427,-158.667 278.608,-162.647 283.233,-167.902"/>
</g>
<!-- Node37&#45;&gt;Node35 -->
<g id="edge100" class="edge"><title>Node37&#45;&gt;Node35</title>
<path fill="none" stroke="midnightblue" d="M567.992,-276.361C563.266,-275.514 558.571,-274.718 554,-274 406.502,-250.848 366.652,-266.016 220,-238 213.2,-236.701 206.073,-235.042 199.135,-233.258"/>
<polygon fill="midnightblue" stroke="midnightblue" points="199.727,-229.793 189.162,-230.583 197.914,-236.554 199.727,-229.793"/>
</g>
<!-- Node38 -->
<g id="node89" class="node"><title>Node38</title>
<polygon fill="white" stroke="#bfbfbf" points="262,-203 262,-237 444,-237 444,-203 262,-203"/>
<text text-anchor="start" x="270" y="-224" font-family="Helvetica,sans-Serif" font-size="10.00">greensocket/utils/greensocketaddress</text>
<text text-anchor="middle" x="353" y="-211" font-family="Helvetica,sans-Serif" font-size="10.00">_base.h</text>
</g>
<!-- Node37&#45;&gt;Node38 -->
<g id="edge102" class="edge"><title>Node37&#45;&gt;Node38</title>
<path fill="none" stroke="midnightblue" d="M572.748,-274.937C530.221,-264.305 475.372,-250.593 431.111,-239.528"/>
<polygon fill="midnightblue" stroke="midnightblue" points="431.811,-236.095 421.261,-237.065 430.113,-242.886 431.811,-236.095"/>
</g>
<!-- Node39 -->
<g id="node91" class="node"><title>Node39</title>
<polygon fill="white" stroke="#bfbfbf" points="461.5,-203 461.5,-237 590.5,-237 590.5,-203 461.5,-203"/>
<text text-anchor="start" x="469.5" y="-224" font-family="Helvetica,sans-Serif" font-size="10.00">greenreg/greenreg_socket</text>
<text text-anchor="middle" x="526" y="-211" font-family="Helvetica,sans-Serif" font-size="10.00">/transactor_if.h</text>
</g>
<!-- Node37&#45;&gt;Node39 -->
<g id="edge104" class="edge"><title>Node37&#45;&gt;Node39</title>
<path fill="none" stroke="midnightblue" d="M613.747,-274.937C598.391,-265.323 579.012,-253.19 562.375,-242.774"/>
<polygon fill="midnightblue" stroke="midnightblue" points="563.789,-239.53 553.456,-237.19 560.075,-245.463 563.789,-239.53"/>
</g>
<!-- Node40 -->
<g id="node93" class="node"><title>Node40</title>
<polygon fill="white" stroke="#bfbfbf" points="607.5,-203 607.5,-237 710.5,-237 710.5,-203 607.5,-203"/>
<text text-anchor="start" x="615.5" y="-224" font-family="Helvetica,sans-Serif" font-size="10.00">greenreg/framework</text>
<text text-anchor="middle" x="659" y="-211" font-family="Helvetica,sans-Serif" font-size="10.00">/core/gr_common.h</text>
</g>
<!-- Node37&#45;&gt;Node40 -->
<g id="edge106" class="edge"><title>Node37&#45;&gt;Node40</title>
<path fill="none" stroke="midnightblue" d="M645.266,-274.937C647.32,-266.719 649.835,-256.66 652.149,-247.406"/>
<polygon fill="midnightblue" stroke="midnightblue" points="655.61,-247.991 654.64,-237.441 648.819,-246.293 655.61,-247.991"/>
</g>
<!-- Node41 -->
<g id="node95" class="node"><title>Node41</title>
<polygon fill="white" stroke="#bfbfbf" points="727.5,-209.5 727.5,-230.5 776.5,-230.5 776.5,-209.5 727.5,-209.5"/>
<text text-anchor="middle" x="752" y="-217.5" font-family="Helvetica,sans-Serif" font-size="10.00">amba.h</text>
</g>
<!-- Node37&#45;&gt;Node41 -->
<g id="edge108" class="edge"><title>Node37&#45;&gt;Node41</title>
<path fill="none" stroke="midnightblue" d="M667.305,-274.937C685.321,-263.251 709.075,-247.843 726.84,-236.32"/>
<polygon fill="midnightblue" stroke="midnightblue" points="729.038,-239.066 735.523,-230.688 725.228,-233.194 729.038,-239.066"/>
</g>
<!-- Node42 -->
<g id="node98" class="node"><title>Node42</title>
<polygon fill="white" stroke="#bfbfbf" points="794,-209.5 794,-230.5 848,-230.5 848,-209.5 794,-209.5"/>
<text text-anchor="middle" x="821" y="-217.5" font-family="Helvetica,sans-Serif" font-size="10.00">systemc</text>
</g>
<!-- Node37&#45;&gt;Node42 -->
<g id="edge112" class="edge"><title>Node37&#45;&gt;Node42</title>
<path fill="none" stroke="midnightblue" d="M690.498,-274.89C718.516,-264.844 754.04,-251.501 785,-238 787.082,-237.092 789.215,-236.125 791.353,-235.128"/>
<polygon fill="midnightblue" stroke="midnightblue" points="793.131,-238.156 800.616,-230.657 790.088,-231.852 793.131,-238.156"/>
</g>
<!-- Node43&#45;&gt;Node3 -->
<g id="edge138" class="edge"><title>Node43&#45;&gt;Node3</title>
<path fill="none" stroke="midnightblue" d="M1231.56,-592.35C1246.07,-584.478 1263.63,-572.299 1273,-556 1304.62,-500.996 1299.85,-422.282 1295.23,-385.051"/>
<polygon fill="midnightblue" stroke="midnightblue" points="1298.66,-384.335 1293.84,-374.901 1291.73,-385.283 1298.66,-384.335"/>
</g>
<!-- Node44 -->
<g id="node108" class="node"><title>Node44</title>
<a xlink:href="ahbdevicebase_8h.html" target="_top" xlink:title="core/models/utils/ahbdevicebase.h">
<polygon fill="white" stroke="black" points="925.5,-534.5 925.5,-555.5 1092.5,-555.5 1092.5,-534.5 925.5,-534.5"/>
<text text-anchor="middle" x="1009" y="-542.5" font-family="Helvetica,sans-Serif" font-size="10.00">core/models/utils/ahbdevicebase.h</text>
</a>
</g>
<!-- Node43&#45;&gt;Node44 -->
<g id="edge128" class="edge"><title>Node43&#45;&gt;Node44</title>
<path fill="none" stroke="midnightblue" d="M1171.96,-592.497C1139.1,-582.918 1090.38,-568.72 1054.78,-558.342"/>
<polygon fill="midnightblue" stroke="midnightblue" points="1055.68,-554.961 1045.1,-555.523 1053.73,-561.681 1055.68,-554.961"/>
</g>
<!-- Node45 -->
<g id="node115" class="node"><title>Node45</title>
<polygon fill="white" stroke="#bfbfbf" points="1109.5,-534.5 1109.5,-555.5 1264.5,-555.5 1264.5,-534.5 1109.5,-534.5"/>
<text text-anchor="middle" x="1187" y="-542.5" font-family="Helvetica,sans-Serif" font-size="10.00">core/models/utils/ahbdevice.tpp</text>
</g>
<!-- Node43&#45;&gt;Node45 -->
<g id="edge140" class="edge"><title>Node43&#45;&gt;Node45</title>
<path fill="none" stroke="midnightblue" d="M1204.15,-592.362C1201.4,-584.758 1197.61,-574.294 1194.29,-565.135"/>
<polygon fill="midnightblue" stroke="midnightblue" points="1197.52,-563.782 1190.83,-555.571 1190.94,-566.165 1197.52,-563.782"/>
</g>
<!-- Node44&#45;&gt;Node2 -->
<g id="edge132" class="edge"><title>Node44&#45;&gt;Node2</title>
<path fill="none" stroke="midnightblue" d="M925.373,-543.727C689.843,-539.04 38,-518.026 38,-429 38,-429 38,-429 38,-220 38,-178.602 43.0075,-166.784 62,-130 67.3996,-119.542 75.4488,-109.317 82.8349,-101.089"/>
<polygon fill="midnightblue" stroke="midnightblue" points="85.5817,-103.277 89.8772,-93.592 80.4795,-98.4845 85.5817,-103.277"/>
</g>
<!-- Node44&#45;&gt;Node14 -->
<g id="edge134" class="edge"><title>Node44&#45;&gt;Node14</title>
<path fill="none" stroke="midnightblue" d="M1021.04,-534.492C1041.3,-515.586 1080,-473.626 1080,-429 1080,-429 1080,-429 1080,-292 1080,-251.118 1070.8,-231.602 1099,-202 1195.24,-100.959 1650.95,-36.879 1770.97,-21.5633"/>
<polygon fill="midnightblue" stroke="midnightblue" points="1771.42,-25.0347 1780.9,-20.3102 1770.54,-18.0897 1771.42,-25.0347"/>
</g>
<!-- Node44&#45;&gt;Node30 -->
<g id="edge130" class="edge"><title>Node44&#45;&gt;Node30</title>
<path fill="none" stroke="midnightblue" d="M990.658,-534.362C975.434,-525.532 953.559,-512.844 936.28,-502.822"/>
<polygon fill="midnightblue" stroke="midnightblue" points="937.632,-499.56 927.225,-497.571 934.12,-505.615 937.632,-499.56"/>
</g>
<!-- Node44&#45;&gt;Node31 -->
<g id="edge136" class="edge"><title>Node44&#45;&gt;Node31</title>
<path fill="none" stroke="midnightblue" d="M1004.05,-534.479C997.459,-520.744 985.219,-496.086 973,-476 967.154,-466.391 960.052,-456.123 953.937,-447.644"/>
<polygon fill="midnightblue" stroke="midnightblue" points="956.747,-445.557 948.014,-439.558 951.099,-449.693 956.747,-445.557"/>
</g>
<!-- Node46&#45;&gt;Node9 -->
<g id="edge150" class="edge"><title>Node46&#45;&gt;Node9</title>
<path fill="none" stroke="midnightblue" d="M2395.38,-534.382C2383.67,-487.012 2334.71,-290.273 2290,-130 2287.58,-121.333 2284.77,-111.811 2282.31,-103.618"/>
<polygon fill="midnightblue" stroke="midnightblue" points="2285.58,-102.35 2279.33,-93.7963 2278.89,-104.382 2285.58,-102.35"/>
</g>
<!-- Node46&#45;&gt;Node14 -->
<g id="edge144" class="edge"><title>Node46&#45;&gt;Node14</title>
<path fill="none" stroke="midnightblue" d="M2391.62,-534.242C2386.53,-524.994 2379.8,-511.111 2377,-498 2374.96,-488.437 2376.94,-485.778 2377,-476 2377.67,-362.216 2380,-333.786 2380,-220 2380,-220 2380,-220 2380,-148 2380,-112.578 2383.52,-94.297 2356,-72 2314.79,-38.6168 1938.08,-22.8577 1829.29,-18.9773"/>
<polygon fill="midnightblue" stroke="midnightblue" points="1829.17,-15.4711 1819.05,-18.6193 1828.93,-22.4668 1829.17,-15.4711"/>
</g>
<!-- Node46&#45;&gt;Node19 -->
<g id="edge152" class="edge"><title>Node46&#45;&gt;Node19</title>
<path fill="none" stroke="midnightblue" d="M2401.12,-534.232C2406.75,-513.869 2418,-468.237 2418,-429 2418,-429 2418,-429 2418,-292 2418,-245.231 2442.2,-194.566 2457.26,-167.565"/>
<polygon fill="midnightblue" stroke="midnightblue" points="2460.38,-169.153 2462.33,-158.739 2454.31,-165.665 2460.38,-169.153"/>
</g>
<!-- Node46&#45;&gt;Node30 -->
<g id="edge146" class="edge"><title>Node46&#45;&gt;Node30</title>
<path fill="none" stroke="midnightblue" d="M2331.61,-542.414C2084.73,-532.797 1221.16,-499.159 974.969,-489.57"/>
<polygon fill="midnightblue" stroke="midnightblue" points="974.875,-486.063 964.746,-489.171 974.603,-493.058 974.875,-486.063"/>
</g>
<!-- Node47 -->
<g id="node121" class="node"><title>Node47</title>
<polygon fill="white" stroke="#bfbfbf" points="2446,-476.5 2446,-497.5 2496,-497.5 2496,-476.5 2446,-476.5"/>
<text text-anchor="middle" x="2471" y="-484.5" font-family="Helvetica,sans-Serif" font-size="10.00">fstream</text>
</g>
<!-- Node46&#45;&gt;Node47 -->
<g id="edge148" class="edge"><title>Node46&#45;&gt;Node47</title>
<path fill="none" stroke="midnightblue" d="M2411.39,-534.362C2422.09,-525.859 2437.3,-513.779 2449.67,-503.947"/>
<polygon fill="midnightblue" stroke="midnightblue" points="2452.04,-506.532 2457.7,-497.571 2447.69,-501.051 2452.04,-506.532"/>
</g>
</g>
</svg>
