<?xml version="1.0" encoding="UTF-8" standalone="no"?>
<!DOCTYPE svg PUBLIC "-//W3C//DTD SVG 1.1//EN"
 "http://www.w3.org/Graphics/SVG/1.1/DTD/svg11.dtd">
<!-- Generated by graphviz version 2.38.0 (20140413.2041)
 -->
<!-- Title: core/models/utils/ahbmaster.h Pages: 1 -->
<svg width="2756pt" height="572pt"
 viewBox="0.00 0.00 2755.67 572.00" xmlns="http://www.w3.org/2000/svg" xmlns:xlink="http://www.w3.org/1999/xlink">
<g id="graph0" class="graph" transform="scale(1 1) rotate(0) translate(4 568)">
<title>core/models/utils/ahbmaster.h</title>
<polygon fill="white" stroke="none" points="-4,4 -4,-568 2751.67,-568 2751.67,4 -4,4"/>
<!-- Node1 -->
<g id="node1" class="node"><title>Node1</title>
<polygon fill="#bfbfbf" stroke="black" points="2220.65,-545.5 2220.65,-563.5 2369.5,-563.5 2369.5,-545.5 2220.65,-545.5"/>
<text text-anchor="middle" x="2295.07" y="-551.5" font-family="Helvetica,sans-Serif" font-size="10.00">core/models/utils/ahbmaster.h</text>
</g>
<!-- Node2 -->
<g id="node2" class="node"><title>Node2</title>
<polygon fill="white" stroke="#bfbfbf" points="2330.95,-65.5 2330.95,-83.5 2379.19,-83.5 2379.19,-65.5 2330.95,-65.5"/>
<text text-anchor="middle" x="2355.07" y="-71.5" font-family="Helvetica,sans-Serif" font-size="10.00">stdint.h</text>
</g>
<!-- Node1&#45;&gt;Node2 -->
<g id="edge1" class="edge"><title>Node1&#45;&gt;Node2</title>
<path fill="none" stroke="midnightblue" d="M2356.33,-545.437C2399.65,-538.345 2452.36,-526.411 2466.07,-509 2526.47,-432.325 2563.9,-439.946 2396.07,-120 2390.23,-108.861 2380.88,-98.4075 2372.59,-90.4345"/>
<polygon fill="midnightblue" stroke="midnightblue" points="2374.86,-87.7633 2365.11,-83.609 2370.14,-92.9345 2374.86,-87.7633"/>
</g>
<!-- Node3 -->
<g id="node3" class="node"><title>Node3</title>
<g id="a_node3"><a xlink:href="gs__config_8h.html" target="_top" xlink:title="core/common/gs_config.h">
<polygon fill="white" stroke="black" points="1944.82,-320.5 1944.82,-338.5 2075.32,-338.5 2075.32,-320.5 1944.82,-320.5"/>
<text text-anchor="middle" x="2010.07" y="-326.5" font-family="Helvetica,sans-Serif" font-size="10.00">core/common/gs_config.h</text>
</a>
</g>
</g>
<!-- Node1&#45;&gt;Node3 -->
<g id="edge2" class="edge"><title>Node1&#45;&gt;Node3</title>
<path fill="none" stroke="midnightblue" d="M2285.74,-545.17C2256.8,-519.482 2165.67,-439.628 2085.07,-380 2067.62,-367.091 2046.99,-353.594 2031.79,-343.96"/>
<polygon fill="midnightblue" stroke="midnightblue" points="2033.43,-340.857 2023.1,-338.5 2029.7,-346.784 2033.43,-340.857"/>
</g>
<!-- Node13 -->
<g id="node13" class="node"><title>Node13</title>
<g id="a_node13"><a xlink:href="systemc_8h.html" target="_top" xlink:title="core/common/systemc.h">
<polygon fill="white" stroke="black" points="125.892,-65.5 125.892,-83.5 250.256,-83.5 250.256,-65.5 125.892,-65.5"/>
<text text-anchor="middle" x="188.074" y="-71.5" font-family="Helvetica,sans-Serif" font-size="10.00">core/common/systemc.h</text>
</a>
</g>
</g>
<!-- Node1&#45;&gt;Node13 -->
<g id="edge59" class="edge"><title>Node1&#45;&gt;Node13</title>
<path fill="none" stroke="midnightblue" d="M2220.56,-553.92C1829.91,-555.643 36.0737,-557.462 36.0737,-445.5 36.0737,-445.5 36.0737,-445.5 36.0737,-198.5 36.0737,-139.201 106.846,-103.558 151.807,-86.8978"/>
<polygon fill="midnightblue" stroke="midnightblue" points="153.003,-90.1873 161.249,-83.5352 150.654,-83.593 153.003,-90.1873"/>
</g>
<!-- Node14 -->
<g id="node14" class="node"><title>Node14</title>
<polygon fill="white" stroke="#bfbfbf" points="2483.24,-5.5 2483.24,-23.5 2520.91,-23.5 2520.91,-5.5 2483.24,-5.5"/>
<text text-anchor="middle" x="2502.07" y="-11.5" font-family="Helvetica,sans-Serif" font-size="10.00">tlm.h</text>
</g>
<!-- Node1&#45;&gt;Node14 -->
<g id="edge60" class="edge"><title>Node1&#45;&gt;Node14</title>
<path fill="none" stroke="midnightblue" d="M2364.87,-545.464C2402.55,-539.156 2449,-528.109 2487.07,-509 2526.11,-489.409 2562.07,-489.176 2562.07,-445.5 2562.07,-445.5 2562.07,-445.5 2562.07,-133.5 2562.07,-93.3034 2534.07,-52.9525 2516.32,-31.4211"/>
<polygon fill="midnightblue" stroke="midnightblue" points="2518.83,-28.9693 2509.67,-23.6428 2513.51,-33.5181 2518.83,-28.9693"/>
</g>
<!-- Node19 -->
<g id="node19" class="node"><title>Node19</title>
<g id="a_node19"><a xlink:href="verbose_8h.html" target="_top" xlink:title="core/common/verbose.h">
<polygon fill="white" stroke="black" points="987.438,-125.5 987.438,-143.5 1110.71,-143.5 1110.71,-125.5 987.438,-125.5"/>
<text text-anchor="middle" x="1049.07" y="-131.5" font-family="Helvetica,sans-Serif" font-size="10.00">core/common/verbose.h</text>
</a>
</g>
</g>
<!-- Node1&#45;&gt;Node19 -->
<g id="edge74" class="edge"><title>Node1&#45;&gt;Node19</title>
<path fill="none" stroke="midnightblue" d="M2220.47,-552.911C1884.25,-549.776 526.074,-531.773 526.074,-445.5 526.074,-445.5 526.074,-445.5 526.074,-388.5 526.074,-354.76 525.915,-342.989 507.074,-315 460.38,-245.635 314.141,-246.241 371.074,-185 411.683,-141.318 810.893,-135.757 977.068,-135.351"/>
<polygon fill="midnightblue" stroke="midnightblue" points="977.2,-138.85 987.193,-135.332 977.187,-131.85 977.2,-138.85"/>
</g>
<!-- Node30 -->
<g id="node30" class="node"><title>Node30</title>
<g id="a_node30"><a xlink:href="common_2amba_8h.html" target="_top" xlink:title="core/common/amba.h">
<polygon fill="white" stroke="black" points="300.719,-435.5 300.719,-453.5 413.428,-453.5 413.428,-435.5 300.719,-435.5"/>
<text text-anchor="middle" x="357.074" y="-441.5" font-family="Helvetica,sans-Serif" font-size="10.00">core/common/amba.h</text>
</a>
</g>
</g>
<!-- Node1&#45;&gt;Node30 -->
<g id="edge36" class="edge"><title>Node1&#45;&gt;Node30</title>
<path fill="none" stroke="midnightblue" d="M2220.39,-553.232C1903.77,-551.88 680.688,-544.39 512.074,-509 463.491,-498.803 410.781,-473.971 381.049,-458.555"/>
<polygon fill="midnightblue" stroke="midnightblue" points="382.364,-455.292 371.886,-453.723 379.099,-461.483 382.364,-455.292"/>
</g>
<!-- Node42 -->
<g id="node42" class="node"><title>Node42</title>
<g id="a_node42"><a xlink:href="ahbdevice_8h.html" target="_top" xlink:title="core/models/utils/ahbdevice.h">
<polygon fill="white" stroke="black" points="2050.2,-490.5 2050.2,-508.5 2197.94,-508.5 2197.94,-490.5 2050.2,-490.5"/>
<text text-anchor="middle" x="2124.07" y="-496.5" font-family="Helvetica,sans-Serif" font-size="10.00">core/models/utils/ahbdevice.h</text>
</a>
</g>
</g>
<!-- Node1&#45;&gt;Node42 -->
<g id="edge61" class="edge"><title>Node1&#45;&gt;Node42</title>
<path fill="none" stroke="midnightblue" d="M2269.1,-545.45C2239.89,-536.396 2192.27,-521.638 2159.62,-511.519"/>
<polygon fill="midnightblue" stroke="midnightblue" points="2160.6,-508.156 2150.01,-508.538 2158.52,-514.842 2160.6,-508.156"/>
</g>
<!-- Node44 -->
<g id="node44" class="node"><title>Node44</title>
<g id="a_node44"><a xlink:href="msclogger_8h.html" target="_top" xlink:title="core/common/msclogger.h">
<polygon fill="white" stroke="black" points="2323.44,-490.5 2323.44,-508.5 2456.71,-508.5 2456.71,-490.5 2323.44,-490.5"/>
<text text-anchor="middle" x="2390.07" y="-496.5" font-family="Helvetica,sans-Serif" font-size="10.00">core/common/msclogger.h</text>
</a>
</g>
</g>
<!-- Node1&#45;&gt;Node44 -->
<g id="edge68" class="edge"><title>Node1&#45;&gt;Node44</title>
<path fill="none" stroke="midnightblue" d="M2309.5,-545.45C2324.57,-537.045 2348.45,-523.724 2366.3,-513.762"/>
<polygon fill="midnightblue" stroke="midnightblue" points="2368.48,-516.554 2375.51,-508.625 2365.07,-510.441 2368.48,-516.554"/>
</g>
<!-- Node46 -->
<g id="node46" class="node"><title>Node46</title>
<polygon fill="white" stroke="#bfbfbf" points="2590.48,-490.5 2590.48,-508.5 2747.67,-508.5 2747.67,-490.5 2590.48,-490.5"/>
<text text-anchor="middle" x="2669.07" y="-496.5" font-family="Helvetica,sans-Serif" font-size="10.00">core/models/utils/ahbmaster.tpp</text>
</g>
<!-- Node1&#45;&gt;Node46 -->
<g id="edge75" class="edge"><title>Node1&#45;&gt;Node46</title>
<path fill="none" stroke="midnightblue" d="M2351.88,-545.45C2419.07,-535.928 2530.79,-520.096 2602.13,-509.987"/>
<polygon fill="midnightblue" stroke="midnightblue" points="2602.94,-513.407 2612.35,-508.538 2601.96,-506.476 2602.94,-513.407"/>
</g>
<!-- Node4 -->
<g id="node4" class="node"><title>Node4</title>
<polygon fill="white" stroke="#bfbfbf" points="1726.38,-255.5 1726.38,-273.5 1835.77,-273.5 1835.77,-255.5 1726.38,-255.5"/>
<text text-anchor="middle" x="1781.07" y="-261.5" font-family="Helvetica,sans-Serif" font-size="10.00">greencontrol/config.h</text>
</g>
<!-- Node3&#45;&gt;Node4 -->
<g id="edge3" class="edge"><title>Node3&#45;&gt;Node4</title>
<path fill="none" stroke="midnightblue" d="M1980.6,-320.393C1939.73,-309.147 1865.72,-288.787 1820.23,-276.273"/>
<polygon fill="midnightblue" stroke="midnightblue" points="1821,-272.854 1810.43,-273.576 1819.14,-279.603 1821,-272.854"/>
</g>
<!-- Node5 -->
<g id="node5" class="node"><title>Node5</title>
<g id="a_node5"><a xlink:href="gs__config_2gs__config_8h.html" target="_top" xlink:title="core/common/gs_config\l/gs_config.h">
<polygon fill="white" stroke="black" points="2183.99,-250.5 2183.99,-278.5 2306.15,-278.5 2306.15,-250.5 2183.99,-250.5"/>
<text text-anchor="start" x="2191.99" y="-266.5" font-family="Helvetica,sans-Serif" font-size="10.00">core/common/gs_config</text>
<text text-anchor="middle" x="2245.07" y="-256.5" font-family="Helvetica,sans-Serif" font-size="10.00">/gs_config.h</text>
</a>
</g>
</g>
<!-- Node3&#45;&gt;Node5 -->
<g id="edge4" class="edge"><title>Node3&#45;&gt;Node5</title>
<path fill="none" stroke="midnightblue" d="M2040.31,-320.393C2077.16,-310.516 2140.22,-293.61 2186.65,-281.164"/>
<polygon fill="midnightblue" stroke="midnightblue" points="2187.83,-284.47 2196.58,-278.5 2186.02,-277.709 2187.83,-284.47"/>
</g>
<!-- Node8 -->
<g id="node8" class="node"><title>Node8</title>
<g id="a_node8"><a xlink:href="gs__config__class_8h.html" target="_top" xlink:title="core/common/gs_config\l/gs_config_class.h">
<polygon fill="white" stroke="black" points="1891.99,-250.5 1891.99,-278.5 2014.15,-278.5 2014.15,-250.5 1891.99,-250.5"/>
<text text-anchor="start" x="1899.99" y="-266.5" font-family="Helvetica,sans-Serif" font-size="10.00">core/common/gs_config</text>
<text text-anchor="middle" x="1953.07" y="-256.5" font-family="Helvetica,sans-Serif" font-size="10.00">/gs_config_class.h</text>
</a>
</g>
</g>
<!-- Node3&#45;&gt;Node8 -->
<g id="edge7" class="edge"><title>Node3&#45;&gt;Node8</title>
<path fill="none" stroke="midnightblue" d="M2002.62,-320.264C1994.87,-311.7 1982.44,-297.954 1971.96,-286.377"/>
<polygon fill="midnightblue" stroke="midnightblue" points="1974.41,-283.865 1965.11,-278.798 1969.22,-288.562 1974.41,-283.865"/>
</g>
<!-- Node6 -->
<g id="node6" class="node"><title>Node6</title>
<polygon fill="white" stroke="#bfbfbf" points="2249.85,-190.5 2249.85,-208.5 2290.3,-208.5 2290.3,-190.5 2249.85,-190.5"/>
<text text-anchor="middle" x="2270.07" y="-196.5" font-family="Helvetica,sans-Serif" font-size="10.00">string</text>
</g>
<!-- Node5&#45;&gt;Node6 -->
<g id="edge5" class="edge"><title>Node5&#45;&gt;Node6</title>
<path fill="none" stroke="midnightblue" d="M2250.25,-250.446C2253.95,-241.138 2258.96,-228.51 2263.02,-218.282"/>
<polygon fill="midnightblue" stroke="midnightblue" points="2266.37,-219.316 2266.81,-208.73 2259.87,-216.734 2266.37,-219.316"/>
</g>
<!-- Node7 -->
<g id="node7" class="node"><title>Node7</title>
<polygon fill="white" stroke="#bfbfbf" points="2308.35,-190.5 2308.35,-208.5 2343.8,-208.5 2343.8,-190.5 2308.35,-190.5"/>
<text text-anchor="middle" x="2326.07" y="-196.5" font-family="Helvetica,sans-Serif" font-size="10.00">map</text>
</g>
<!-- Node5&#45;&gt;Node7 -->
<g id="edge6" class="edge"><title>Node5&#45;&gt;Node7</title>
<path fill="none" stroke="midnightblue" d="M2261.86,-250.446C2275.09,-240.158 2293.53,-225.815 2307.25,-215.138"/>
<polygon fill="midnightblue" stroke="midnightblue" points="2309.75,-217.632 2315.49,-208.73 2305.45,-212.107 2309.75,-217.632"/>
</g>
<!-- Node8&#45;&gt;Node6 -->
<g id="edge8" class="edge"><title>Node8&#45;&gt;Node6</title>
<path fill="none" stroke="midnightblue" d="M2014.33,-256.469C2072.21,-248.965 2161.08,-235.205 2236.07,-214 2238,-213.456 2239.96,-212.841 2241.93,-212.181"/>
<polygon fill="midnightblue" stroke="midnightblue" points="2243.43,-215.361 2251.61,-208.628 2241.01,-208.791 2243.43,-215.361"/>
</g>
<!-- Node9 -->
<g id="node9" class="node"><title>Node9</title>
<polygon fill="white" stroke="#bfbfbf" points="1657.9,-65.5 1657.9,-83.5 1712.25,-83.5 1712.25,-65.5 1657.9,-65.5"/>
<text text-anchor="middle" x="1685.07" y="-71.5" font-family="Helvetica,sans-Serif" font-size="10.00">iostream</text>
</g>
<!-- Node8&#45;&gt;Node9 -->
<g id="edge9" class="edge"><title>Node8&#45;&gt;Node9</title>
<path fill="none" stroke="midnightblue" d="M2014.21,-261.159C2091.13,-255.951 2208.27,-239.157 2165.07,-185 2109.48,-115.297 1825.74,-86.4809 1722.6,-78.2015"/>
<polygon fill="midnightblue" stroke="midnightblue" points="1722.59,-74.6901 1712.35,-77.3988 1722.05,-81.6688 1722.59,-74.6901"/>
</g>
<!-- Node10 -->
<g id="node10" class="node"><title>Node10</title>
<polygon fill="white" stroke="#bfbfbf" points="1252.29,-190.5 1252.29,-208.5 1303.85,-208.5 1303.85,-190.5 1252.29,-190.5"/>
<text text-anchor="middle" x="1278.07" y="-196.5" font-family="Helvetica,sans-Serif" font-size="10.00">sstream</text>
</g>
<!-- Node8&#45;&gt;Node10 -->
<g id="edge10" class="edge"><title>Node8&#45;&gt;Node10</title>
<path fill="none" stroke="midnightblue" d="M1891.77,-251.875C1887.14,-251.179 1882.54,-250.542 1878.07,-250 1628.29,-219.663 1558.85,-267.899 1313.07,-214 1310.57,-213.451 1308.01,-212.751 1305.46,-211.96"/>
<polygon fill="midnightblue" stroke="midnightblue" points="1306.51,-208.618 1295.92,-208.584 1304.18,-215.217 1306.51,-208.618"/>
</g>
<!-- Node11 -->
<g id="node11" class="node"><title>Node11</title>
<polygon fill="white" stroke="#bfbfbf" points="1321.71,-190.5 1321.71,-208.5 1424.44,-208.5 1424.44,-190.5 1321.71,-190.5"/>
<text text-anchor="middle" x="1373.07" y="-196.5" font-family="Helvetica,sans-Serif" font-size="10.00">boost/tokenizer.hpp</text>
</g>
<!-- Node8&#45;&gt;Node11 -->
<g id="edge11" class="edge"><title>Node8&#45;&gt;Node11</title>
<path fill="none" stroke="midnightblue" d="M1891.75,-251.961C1887.13,-251.245 1882.53,-250.58 1878.07,-250 1681.31,-224.394 1629.24,-243.852 1433.07,-214 1427.19,-213.105 1421.03,-211.959 1414.98,-210.715"/>
<polygon fill="midnightblue" stroke="midnightblue" points="1415.5,-207.248 1404.99,-208.555 1414.02,-214.089 1415.5,-207.248"/>
</g>
<!-- Node12 -->
<g id="node12" class="node"><title>Node12</title>
<g id="a_node12"><a xlink:href="common_8h.html" target="_top" xlink:title="core/common/common.h">
<polygon fill="white" stroke="black" points="1032.05,-190.5 1032.05,-208.5 1158.09,-208.5 1158.09,-190.5 1032.05,-190.5"/>
<text text-anchor="middle" x="1095.07" y="-196.5" font-family="Helvetica,sans-Serif" font-size="10.00">core/common/common.h</text>
</a>
</g>
</g>
<!-- Node8&#45;&gt;Node12 -->
<g id="edge12" class="edge"><title>Node8&#45;&gt;Node12</title>
<path fill="none" stroke="midnightblue" d="M1891.77,-251.839C1887.14,-251.152 1882.54,-250.527 1878.07,-250 1597.34,-216.901 1524.98,-234.842 1243.07,-214 1218.76,-212.202 1192.23,-209.892 1168.43,-207.693"/>
<polygon fill="midnightblue" stroke="midnightblue" points="1168.69,-204.203 1158.41,-206.759 1168.04,-211.172 1168.69,-204.203"/>
</g>
<!-- Node24 -->
<g id="node24" class="node"><title>Node24</title>
<g id="a_node24"><a xlink:href="gs__config__t_8h.html" target="_top" xlink:title="core/common/gs_config\l/gs_config_t.h">
<polygon fill="white" stroke="black" points="1441.99,-185.5 1441.99,-213.5 1564.15,-213.5 1564.15,-185.5 1441.99,-185.5"/>
<text text-anchor="start" x="1449.99" y="-201.5" font-family="Helvetica,sans-Serif" font-size="10.00">core/common/gs_config</text>
<text text-anchor="middle" x="1503.07" y="-191.5" font-family="Helvetica,sans-Serif" font-size="10.00">/gs_config_t.h</text>
</a>
</g>
</g>
<!-- Node8&#45;&gt;Node24 -->
<g id="edge29" class="edge"><title>Node8&#45;&gt;Node24</title>
<path fill="none" stroke="midnightblue" d="M1891.73,-252.145C1887.11,-251.387 1882.52,-250.662 1878.07,-250 1746.23,-230.371 1709.66,-234.716 1574.4,-214.133"/>
<polygon fill="midnightblue" stroke="midnightblue" points="1574.91,-210.67 1564.49,-212.607 1573.84,-217.588 1574.91,-210.67"/>
</g>
<!-- Node25 -->
<g id="node25" class="node"><title>Node25</title>
<g id="a_node25"><a xlink:href="gs__config__operator__macros_8h.html" target="_top" xlink:title="core/common/gs_config\l/gs_config_operator_macros.h">
<polygon fill="white" stroke="black" points="1582.53,-185.5 1582.53,-213.5 1733.61,-213.5 1733.61,-185.5 1582.53,-185.5"/>
<text text-anchor="start" x="1590.53" y="-201.5" font-family="Helvetica,sans-Serif" font-size="10.00">core/common/gs_config</text>
<text text-anchor="middle" x="1658.07" y="-191.5" font-family="Helvetica,sans-Serif" font-size="10.00">/gs_config_operator_macros.h</text>
</a>
</g>
</g>
<!-- Node8&#45;&gt;Node25 -->
<g id="edge30" class="edge"><title>Node8&#45;&gt;Node25</title>
<path fill="none" stroke="midnightblue" d="M1891.95,-250.446C1844.58,-240.331 1778.87,-226.297 1729.16,-215.68"/>
<polygon fill="midnightblue" stroke="midnightblue" points="1729.63,-212.203 1719.12,-213.537 1728.17,-219.048 1729.63,-212.203"/>
</g>
<!-- Node26 -->
<g id="node26" class="node"><title>Node26</title>
<g id="a_node26"><a xlink:href="gs__config__delegate_8h.html" target="_top" xlink:title="core/common/gs_config\l/gs_config_delegate.h">
<polygon fill="white" stroke="black" points="1751.99,-185.5 1751.99,-213.5 1874.15,-213.5 1874.15,-185.5 1751.99,-185.5"/>
<text text-anchor="start" x="1759.99" y="-201.5" font-family="Helvetica,sans-Serif" font-size="10.00">core/common/gs_config</text>
<text text-anchor="middle" x="1813.07" y="-191.5" font-family="Helvetica,sans-Serif" font-size="10.00">/gs_config_delegate.h</text>
</a>
</g>
</g>
<!-- Node8&#45;&gt;Node26 -->
<g id="edge31" class="edge"><title>Node8&#45;&gt;Node26</title>
<path fill="none" stroke="midnightblue" d="M1924.07,-250.446C1902.95,-240.943 1874.14,-227.982 1851.17,-217.644"/>
<polygon fill="midnightblue" stroke="midnightblue" points="1852.6,-214.449 1842.04,-213.537 1849.73,-220.832 1852.6,-214.449"/>
</g>
<!-- Node27 -->
<g id="node27" class="node"><title>Node27</title>
<g id="a_node27"><a xlink:href="gs__config__native_8hpp.html" target="_top" xlink:title="core/common/gs_config\l/gs_config_native.hpp">
<polygon fill="white" stroke="black" points="1891.99,-185.5 1891.99,-213.5 2014.15,-213.5 2014.15,-185.5 1891.99,-185.5"/>
<text text-anchor="start" x="1899.99" y="-201.5" font-family="Helvetica,sans-Serif" font-size="10.00">core/common/gs_config</text>
<text text-anchor="middle" x="1953.07" y="-191.5" font-family="Helvetica,sans-Serif" font-size="10.00">/gs_config_native.hpp</text>
</a>
</g>
</g>
<!-- Node8&#45;&gt;Node27 -->
<g id="edge32" class="edge"><title>Node8&#45;&gt;Node27</title>
<path fill="none" stroke="midnightblue" d="M1953.07,-250.446C1953.07,-242.759 1953.07,-232.81 1953.07,-223.816"/>
<polygon fill="midnightblue" stroke="midnightblue" points="1956.57,-223.537 1953.07,-213.537 1949.57,-223.537 1956.57,-223.537"/>
</g>
<!-- Node28 -->
<g id="node28" class="node"><title>Node28</title>
<g id="a_node28"><a xlink:href="gs__config__stdint_8hpp.html" target="_top" xlink:title="core/common/gs_config\l/gs_config_stdint.hpp">
<polygon fill="white" stroke="black" points="2249.99,-120.5 2249.99,-148.5 2372.15,-148.5 2372.15,-120.5 2249.99,-120.5"/>
<text text-anchor="start" x="2257.99" y="-136.5" font-family="Helvetica,sans-Serif" font-size="10.00">core/common/gs_config</text>
<text text-anchor="middle" x="2311.07" y="-126.5" font-family="Helvetica,sans-Serif" font-size="10.00">/gs_config_stdint.hpp</text>
</a>
</g>
</g>
<!-- Node8&#45;&gt;Node28 -->
<g id="edge33" class="edge"><title>Node8&#45;&gt;Node28</title>
<path fill="none" stroke="midnightblue" d="M2014.27,-258.114C2065.12,-252.021 2138.5,-239.415 2198.07,-214 2202.79,-211.986 2252.09,-177.304 2284,-154.719"/>
<polygon fill="midnightblue" stroke="midnightblue" points="2286.35,-157.344 2292.48,-148.707 2282.3,-151.633 2286.35,-157.344"/>
</g>
<!-- Node29 -->
<g id="node29" class="node"><title>Node29</title>
<g id="a_node29"><a xlink:href="gs__config__systemc_8hpp.html" target="_top" xlink:title="core/common/gs_config\l/gs_config_systemc.hpp">
<polygon fill="white" stroke="black" points="2032.43,-185.5 2032.43,-213.5 2155.71,-213.5 2155.71,-185.5 2032.43,-185.5"/>
<text text-anchor="start" x="2040.43" y="-201.5" font-family="Helvetica,sans-Serif" font-size="10.00">core/common/gs_config</text>
<text text-anchor="middle" x="2094.07" y="-191.5" font-family="Helvetica,sans-Serif" font-size="10.00">/gs_config_systemc.hpp</text>
</a>
</g>
</g>
<!-- Node8&#45;&gt;Node29 -->
<g id="edge35" class="edge"><title>Node8&#45;&gt;Node29</title>
<path fill="none" stroke="midnightblue" d="M1982.29,-250.446C2003.56,-240.943 2032.57,-227.982 2055.7,-217.644"/>
<polygon fill="midnightblue" stroke="midnightblue" points="2057.19,-220.812 2064.9,-213.537 2054.34,-214.421 2057.19,-220.812"/>
</g>
<!-- Node12&#45;&gt;Node13 -->
<g id="edge13" class="edge"><title>Node12&#45;&gt;Node13</title>
<path fill="none" stroke="midnightblue" d="M1035.91,-190.477C874.904,-168.642 429.406,-108.228 257.237,-84.8793"/>
<polygon fill="midnightblue" stroke="midnightblue" points="257.657,-81.4044 247.277,-83.5287 256.716,-88.3409 257.657,-81.4044"/>
</g>
<!-- Node18 -->
<g id="node18" class="node"><title>Node18</title>
<g id="a_node18"><a xlink:href="vendian_8h.html" target="_top" xlink:title="core/common/vendian.h">
<polygon fill="white" stroke="black" points="1213.71,-125.5 1213.71,-143.5 1336.44,-143.5 1336.44,-125.5 1213.71,-125.5"/>
<text text-anchor="middle" x="1275.07" y="-131.5" font-family="Helvetica,sans-Serif" font-size="10.00">core/common/vendian.h</text>
</a>
</g>
</g>
<!-- Node12&#45;&gt;Node18 -->
<g id="edge19" class="edge"><title>Node12&#45;&gt;Node18</title>
<path fill="none" stroke="midnightblue" d="M1118.24,-190.393C1149.83,-179.336 1206.59,-159.468 1242.47,-146.911"/>
<polygon fill="midnightblue" stroke="midnightblue" points="1243.72,-150.183 1252,-143.576 1241.4,-143.576 1243.72,-150.183"/>
</g>
<!-- Node12&#45;&gt;Node19 -->
<g id="edge21" class="edge"><title>Node12&#45;&gt;Node19</title>
<path fill="none" stroke="midnightblue" d="M1084.33,-190.264C1075.2,-180.684 1063.03,-164.619 1055.33,-152.359"/>
<polygon fill="midnightblue" stroke="midnightblue" points="1058.28,-150.463 1050.26,-143.539 1052.21,-153.953 1058.28,-150.463"/>
</g>
<!-- Node13&#45;&gt;Node13 -->
<g id="edge14" class="edge"><title>Node13&#45;&gt;Node13</title>
<path fill="none" stroke="midnightblue" d="M214.769,-83.5191C240.34,-88.3462 268.256,-85.3398 268.256,-74.5 268.256,-65.0575 247.073,-61.559 224.71,-64.0047"/>
<polygon fill="midnightblue" stroke="midnightblue" points="224.146,-60.5499 214.769,-65.4809 225.174,-67.474 224.146,-60.5499"/>
</g>
<!-- Node13&#45;&gt;Node14 -->
<g id="edge15" class="edge"><title>Node13&#45;&gt;Node14</title>
<path fill="none" stroke="midnightblue" d="M250.267,-71.9411C591.943,-63.3771 2234.06,-22.2177 2473.04,-16.2277"/>
<polygon fill="midnightblue" stroke="midnightblue" points="2473.15,-19.7263 2483.05,-15.9767 2472.97,-12.7285 2473.15,-19.7263"/>
</g>
<!-- Node15 -->
<g id="node15" class="node"><title>Node15</title>
<polygon fill="white" stroke="#bfbfbf" points="253.333,-0.5 253.333,-28.5 368.815,-28.5 368.815,-0.5 253.333,-0.5"/>
<text text-anchor="start" x="261.333" y="-16.5" font-family="Helvetica,sans-Serif" font-size="10.00">tlm_utils/simple_target</text>
<text text-anchor="middle" x="311.074" y="-6.5" font-family="Helvetica,sans-Serif" font-size="10.00">_socket.h</text>
</g>
<!-- Node13&#45;&gt;Node15 -->
<g id="edge16" class="edge"><title>Node13&#45;&gt;Node15</title>
<path fill="none" stroke="midnightblue" d="M205.176,-65.4353C222.929,-57.064 251.251,-43.709 274.14,-32.9159"/>
<polygon fill="midnightblue" stroke="midnightblue" points="275.698,-36.0511 283.25,-28.6203 272.712,-29.7197 275.698,-36.0511"/>
</g>
<!-- Node16 -->
<g id="node16" class="node"><title>Node16</title>
<polygon fill="white" stroke="#bfbfbf" points="0,-0.5 0,-28.5 122.147,-28.5 122.147,-0.5 0,-0.5"/>
<text text-anchor="start" x="8" y="-16.5" font-family="Helvetica,sans-Serif" font-size="10.00">tlm_utils/simple_initiator</text>
<text text-anchor="middle" x="61.0737" y="-6.5" font-family="Helvetica,sans-Serif" font-size="10.00">_socket.h</text>
</g>
<!-- Node13&#45;&gt;Node16 -->
<g id="edge17" class="edge"><title>Node13&#45;&gt;Node16</title>
<path fill="none" stroke="midnightblue" d="M170.415,-65.4353C152.085,-57.064 122.842,-43.709 99.2085,-32.9159"/>
<polygon fill="midnightblue" stroke="midnightblue" points="100.353,-29.5909 89.8027,-28.6203 97.445,-35.9583 100.353,-29.5909"/>
</g>
<!-- Node17 -->
<g id="node17" class="node"><title>Node17</title>
<polygon fill="white" stroke="#bfbfbf" points="140.333,-0.5 140.333,-28.5 235.815,-28.5 235.815,-0.5 140.333,-0.5"/>
<text text-anchor="start" x="148.333" y="-16.5" font-family="Helvetica,sans-Serif" font-size="10.00">tlm_utils/peq_with</text>
<text text-anchor="middle" x="188.074" y="-6.5" font-family="Helvetica,sans-Serif" font-size="10.00">_get.h</text>
</g>
<!-- Node13&#45;&gt;Node17 -->
<g id="edge18" class="edge"><title>Node13&#45;&gt;Node17</title>
<path fill="none" stroke="midnightblue" d="M188.074,-65.4353C188.074,-58.5603 188.074,-48.3238 188.074,-38.9057"/>
<polygon fill="midnightblue" stroke="midnightblue" points="191.574,-38.8427 188.074,-28.8428 184.574,-38.8428 191.574,-38.8427"/>
</g>
<!-- Node18&#45;&gt;Node2 -->
<g id="edge20" class="edge"><title>Node18&#45;&gt;Node2</title>
<path fill="none" stroke="midnightblue" d="M1336.63,-130.194C1536.87,-119.441 2165.77,-85.6662 2320.45,-77.3595"/>
<polygon fill="midnightblue" stroke="midnightblue" points="2320.96,-80.8374 2330.75,-76.8061 2320.58,-73.8474 2320.96,-80.8374"/>
</g>
<!-- Node19&#45;&gt;Node9 -->
<g id="edge25" class="edge"><title>Node19&#45;&gt;Node9</title>
<path fill="none" stroke="midnightblue" d="M1110.99,-126.426C1130.52,-124.269 1152.19,-121.953 1172.07,-120 1349.97,-102.524 1562.92,-85.2008 1647.65,-78.4525"/>
<polygon fill="midnightblue" stroke="midnightblue" points="1648.11,-81.9268 1657.8,-77.6454 1647.56,-74.9488 1648.11,-81.9268"/>
</g>
<!-- Node19&#45;&gt;Node12 -->
<g id="edge27" class="edge"><title>Node19&#45;&gt;Node12</title>
<path fill="none" stroke="midnightblue" d="M1059.63,-143.539C1068.72,-153.029 1080.9,-169.075 1088.66,-181.387"/>
<polygon fill="midnightblue" stroke="midnightblue" points="1085.76,-183.358 1093.79,-190.264 1091.82,-179.855 1085.76,-183.358"/>
</g>
<!-- Node19&#45;&gt;Node13 -->
<g id="edge28" class="edge"><title>Node19&#45;&gt;Node13</title>
<path fill="none" stroke="midnightblue" d="M987.153,-129.329C831.833,-118.866 426.298,-91.5476 260.401,-80.3722"/>
<polygon fill="midnightblue" stroke="midnightblue" points="260.513,-76.8719 250.3,-79.6918 260.043,-83.8561 260.513,-76.8719"/>
</g>
<!-- Node20 -->
<g id="node20" class="node"><title>Node20</title>
<polygon fill="white" stroke="#bfbfbf" points="1134.01,-65.5 1134.01,-83.5 1176.14,-83.5 1176.14,-65.5 1134.01,-65.5"/>
<text text-anchor="middle" x="1155.07" y="-71.5" font-family="Helvetica,sans-Serif" font-size="10.00">cstdio</text>
</g>
<!-- Node19&#45;&gt;Node20 -->
<g id="edge22" class="edge"><title>Node19&#45;&gt;Node20</title>
<path fill="none" stroke="midnightblue" d="M1063.81,-125.435C1081.28,-115.88 1110.61,-99.8315 1131.29,-88.5113"/>
<polygon fill="midnightblue" stroke="midnightblue" points="1133.03,-91.5537 1140.12,-83.6831 1129.67,-85.4129 1133.03,-91.5537"/>
</g>
<!-- Node21 -->
<g id="node21" class="node"><title>Node21</title>
<polygon fill="white" stroke="#bfbfbf" points="923.347,-65.5 923.347,-83.5 968.8,-83.5 968.8,-65.5 923.347,-65.5"/>
<text text-anchor="middle" x="946.074" y="-71.5" font-family="Helvetica,sans-Serif" font-size="10.00">cstring</text>
</g>
<!-- Node19&#45;&gt;Node21 -->
<g id="edge23" class="edge"><title>Node19&#45;&gt;Node21</title>
<path fill="none" stroke="midnightblue" d="M1034.75,-125.435C1017.86,-115.923 989.54,-99.9759 969.452,-88.6645"/>
<polygon fill="midnightblue" stroke="midnightblue" points="971.037,-85.5401 960.606,-83.6831 967.602,-91.6395 971.037,-85.5401"/>
</g>
<!-- Node22 -->
<g id="node22" class="node"><title>Node22</title>
<polygon fill="white" stroke="#bfbfbf" points="986.564,-65.5 986.564,-83.5 1037.58,-83.5 1037.58,-65.5 986.564,-65.5"/>
<text text-anchor="middle" x="1012.07" y="-71.5" font-family="Helvetica,sans-Serif" font-size="10.00">iomanip</text>
</g>
<!-- Node19&#45;&gt;Node22 -->
<g id="edge24" class="edge"><title>Node19&#45;&gt;Node22</title>
<path fill="none" stroke="midnightblue" d="M1043.93,-125.435C1038.52,-116.961 1029.86,-103.38 1022.93,-92.5192"/>
<polygon fill="midnightblue" stroke="midnightblue" points="1025.74,-90.42 1017.41,-83.8718 1019.84,-94.1848 1025.74,-90.42"/>
</g>
<!-- Node23 -->
<g id="node23" class="node"><title>Node23</title>
<polygon fill="white" stroke="#bfbfbf" points="1055.84,-65.5 1055.84,-83.5 1116.31,-83.5 1116.31,-65.5 1055.84,-65.5"/>
<text text-anchor="middle" x="1086.07" y="-71.5" font-family="Helvetica,sans-Serif" font-size="10.00">streambuf</text>
</g>
<!-- Node19&#45;&gt;Node23 -->
<g id="edge26" class="edge"><title>Node19&#45;&gt;Node23</title>
<path fill="none" stroke="midnightblue" d="M1054.22,-125.435C1059.62,-116.961 1068.29,-103.38 1075.22,-92.5192"/>
<polygon fill="midnightblue" stroke="midnightblue" points="1078.31,-94.1848 1080.73,-83.8718 1072.4,-90.42 1078.31,-94.1848"/>
</g>
<!-- Node28&#45;&gt;Node2 -->
<g id="edge34" class="edge"><title>Node28&#45;&gt;Node2</title>
<path fill="none" stroke="midnightblue" d="M2321.06,-120.339C2327.45,-111.916 2335.79,-100.923 2342.61,-91.929"/>
<polygon fill="midnightblue" stroke="midnightblue" points="2345.54,-93.8538 2348.8,-83.7715 2339.97,-89.623 2345.54,-93.8538"/>
</g>
<!-- Node30&#45;&gt;Node13 -->
<g id="edge37" class="edge"><title>Node30&#45;&gt;Node13</title>
<path fill="none" stroke="midnightblue" d="M300.525,-436.896C260.91,-430.754 207.502,-419.371 164.074,-399 118.564,-377.653 74.0737,-380.768 74.0737,-330.5 74.0737,-330.5 74.0737,-330.5 74.0737,-198.5 74.0737,-146.87 128.773,-107.75 162.392,-88.5811"/>
<polygon fill="midnightblue" stroke="midnightblue" points="164.176,-91.5947 171.253,-83.7099 160.803,-85.4606 164.176,-91.5947"/>
</g>
<!-- Node31 -->
<g id="node31" class="node"><title>Node31</title>
<g id="a_node31"><a xlink:href="base_8h.html" target="_top" xlink:title="core/common/base.h">
<polygon fill="white" stroke="black" points="286.384,-380.5 286.384,-398.5 395.763,-398.5 395.763,-380.5 286.384,-380.5"/>
<text text-anchor="middle" x="341.074" y="-386.5" font-family="Helvetica,sans-Serif" font-size="10.00">core/common/base.h</text>
</a>
</g>
</g>
<!-- Node30&#45;&gt;Node31 -->
<g id="edge38" class="edge"><title>Node30&#45;&gt;Node31</title>
<path fill="none" stroke="midnightblue" d="M354.574,-435.219C352.401,-428.02 349.178,-417.346 346.427,-408.231"/>
<polygon fill="midnightblue" stroke="midnightblue" points="349.745,-407.111 343.504,-398.55 343.043,-409.134 349.745,-407.111"/>
</g>
<!-- Node32 -->
<g id="node32" class="node"><title>Node32</title>
<g id="a_node32"><a xlink:href="report_8h.html" target="_top" xlink:title="core/common/report.h">
<polygon fill="white" stroke="black" points="142.165,-320.5 142.165,-338.5 255.982,-338.5 255.982,-320.5 142.165,-320.5"/>
<text text-anchor="middle" x="199.074" y="-326.5" font-family="Helvetica,sans-Serif" font-size="10.00">core/common/report.h</text>
</a>
</g>
</g>
<!-- Node30&#45;&gt;Node32 -->
<g id="edge56" class="edge"><title>Node30&#45;&gt;Node32</title>
<path fill="none" stroke="midnightblue" d="M340.216,-435.447C323.585,-427.201 297.726,-413.562 277.074,-399 253.958,-382.701 229.87,-360.643 214.69,-346.012"/>
<polygon fill="midnightblue" stroke="midnightblue" points="216.835,-343.214 207.235,-338.731 211.944,-348.222 216.835,-343.214"/>
</g>
<!-- Node34 -->
<g id="node34" class="node"><title>Node34</title>
<polygon fill="white" stroke="#bfbfbf" points="216.485,-190.5 216.485,-208.5 323.662,-208.5 323.662,-190.5 216.485,-190.5"/>
<text text-anchor="middle" x="270.074" y="-196.5" font-family="Helvetica,sans-Serif" font-size="10.00">greenreg/greenreg.h</text>
</g>
<!-- Node30&#45;&gt;Node34 -->
<g id="edge57" class="edge"><title>Node30&#45;&gt;Node34</title>
<path fill="none" stroke="midnightblue" d="M300.625,-436.046C247.036,-425.624 169.432,-401.06 133.074,-344 111.808,-310.625 168.831,-250.231 169.074,-250 187.396,-232.573 213.025,-220.111 233.88,-212.05"/>
<polygon fill="midnightblue" stroke="midnightblue" points="235.208,-215.291 243.382,-208.549 232.788,-208.722 235.208,-215.291"/>
</g>
<!-- Node35 -->
<g id="node35" class="node"><title>Node35</title>
<g id="a_node35"><a xlink:href="greenreg__ambasockets_8h.html" target="_top" xlink:title="core/common/grambasockets\l/greenreg_ambasockets.h">
<polygon fill="white" stroke="black" points="350.493,-315.5 350.493,-343.5 497.655,-343.5 497.655,-315.5 350.493,-315.5"/>
<text text-anchor="start" x="358.493" y="-331.5" font-family="Helvetica,sans-Serif" font-size="10.00">core/common/grambasockets</text>
<text text-anchor="middle" x="424.074" y="-321.5" font-family="Helvetica,sans-Serif" font-size="10.00">/greenreg_ambasockets.h</text>
</a>
</g>
</g>
<!-- Node30&#45;&gt;Node35 -->
<g id="edge58" class="edge"><title>Node30&#45;&gt;Node35</title>
<path fill="none" stroke="midnightblue" d="M369.104,-435.366C380.047,-427.354 395.855,-414.142 405.074,-399 413.43,-385.276 418.201,-367.794 420.872,-353.926"/>
<polygon fill="midnightblue" stroke="midnightblue" points="424.381,-354.162 422.592,-343.72 417.479,-352.999 424.381,-354.162"/>
</g>
<!-- Node31&#45;&gt;Node3 -->
<g id="edge40" class="edge"><title>Node31&#45;&gt;Node3</title>
<path fill="none" stroke="midnightblue" d="M396.129,-386.587C643.083,-378.005 1649.02,-343.047 1934.32,-333.133"/>
<polygon fill="midnightblue" stroke="midnightblue" points="1934.69,-336.622 1944.56,-332.777 1934.45,-329.626 1934.69,-336.622"/>
</g>
<!-- Node31&#45;&gt;Node13 -->
<g id="edge39" class="edge"><title>Node31&#45;&gt;Node13</title>
<path fill="none" stroke="midnightblue" d="M336.676,-380.212C321.241,-351.16 270.191,-255.4 265.074,-250 244.203,-227.979 223.594,-239.447 207.074,-214 182.914,-176.785 183.57,-122.093 185.921,-93.8624"/>
<polygon fill="midnightblue" stroke="midnightblue" points="189.413,-94.1151 186.928,-83.8157 182.448,-93.4166 189.413,-94.1151"/>
</g>
<!-- Node31&#45;&gt;Node32 -->
<g id="edge41" class="edge"><title>Node31&#45;&gt;Node32</title>
<path fill="none" stroke="midnightblue" d="M321.329,-380.435C297.303,-370.622 256.509,-353.959 228.708,-342.604"/>
<polygon fill="midnightblue" stroke="midnightblue" points="229.689,-339.224 219.108,-338.683 227.042,-345.705 229.689,-339.224"/>
</g>
<!-- Node31&#45;&gt;Node34 -->
<g id="edge44" class="edge"><title>Node31&#45;&gt;Node34</title>
<path fill="none" stroke="midnightblue" d="M339.223,-380.478C334.103,-358.869 318.748,-297.841 298.074,-250 293.19,-238.699 286.421,-226.664 280.762,-217.291"/>
<polygon fill="midnightblue" stroke="midnightblue" points="283.636,-215.284 275.392,-208.628 277.687,-218.972 283.636,-215.284"/>
</g>
<!-- Node31&#45;&gt;Node35 -->
<g id="edge45" class="edge"><title>Node31&#45;&gt;Node35</title>
<path fill="none" stroke="midnightblue" d="M352.615,-380.435C364.009,-372.473 381.854,-360.003 396.861,-349.516"/>
<polygon fill="midnightblue" stroke="midnightblue" points="399.106,-352.217 405.298,-343.62 395.096,-346.479 399.106,-352.217"/>
</g>
<!-- Node32&#45;&gt;Node13 -->
<g id="edge43" class="edge"><title>Node32&#45;&gt;Node13</title>
<path fill="none" stroke="midnightblue" d="M192.221,-320.405C184.844,-311.11 173.562,-295.066 169.074,-279 162.208,-254.424 150.434,-256.386 174.074,-120 175.651,-110.9 178.601,-101.078 181.388,-92.9821"/>
<polygon fill="midnightblue" stroke="midnightblue" points="184.693,-94.1341 184.828,-83.5401 178.116,-91.7377 184.693,-94.1341"/>
</g>
<!-- Node33 -->
<g id="node33" class="node"><title>Node33</title>
<polygon fill="white" stroke="#bfbfbf" points="178.029,-255.5 178.029,-273.5 256.119,-273.5 256.119,-255.5 178.029,-255.5"/>
<text text-anchor="middle" x="217.074" y="-261.5" font-family="Helvetica,sans-Serif" font-size="10.00">boost/any.hpp</text>
</g>
<!-- Node32&#45;&gt;Node33 -->
<g id="edge42" class="edge"><title>Node32&#45;&gt;Node33</title>
<path fill="none" stroke="midnightblue" d="M201.427,-320.264C204.083,-310.969 208.483,-295.567 211.942,-283.461"/>
<polygon fill="midnightblue" stroke="midnightblue" points="215.395,-284.116 214.777,-273.539 208.664,-282.193 215.395,-284.116"/>
</g>
<!-- Node35&#45;&gt;Node34 -->
<g id="edge46" class="edge"><title>Node35&#45;&gt;Node34</title>
<path fill="none" stroke="midnightblue" d="M410.071,-315.339C392.975,-299.429 363.006,-272.045 336.074,-250 320.945,-237.616 303.185,-224.366 289.902,-214.693"/>
<polygon fill="midnightblue" stroke="midnightblue" points="291.662,-211.647 281.508,-208.623 287.56,-217.319 291.662,-211.647"/>
</g>
<!-- Node36 -->
<g id="node36" class="node"><title>Node36</title>
<g id="a_node36"><a xlink:href="gr__ambasockets_8h.html" target="_top" xlink:title="core/common/grambasockets\l/gr_ambasockets.h">
<polygon fill="white" stroke="black" points="605.493,-250.5 605.493,-278.5 752.655,-278.5 752.655,-250.5 605.493,-250.5"/>
<text text-anchor="start" x="613.493" y="-266.5" font-family="Helvetica,sans-Serif" font-size="10.00">core/common/grambasockets</text>
<text text-anchor="middle" x="679.074" y="-256.5" font-family="Helvetica,sans-Serif" font-size="10.00">/gr_ambasockets.h</text>
</a>
</g>
</g>
<!-- Node35&#45;&gt;Node36 -->
<g id="edge47" class="edge"><title>Node35&#45;&gt;Node36</title>
<path fill="none" stroke="midnightblue" d="M476.91,-315.446C517.512,-305.415 573.71,-291.531 616.551,-280.947"/>
<polygon fill="midnightblue" stroke="midnightblue" points="617.437,-284.333 626.305,-278.537 615.758,-277.538 617.437,-284.333"/>
</g>
<!-- Node36&#45;&gt;Node9 -->
<g id="edge55" class="edge"><title>Node36&#45;&gt;Node9</title>
<path fill="none" stroke="midnightblue" d="M752.7,-260.193C880.915,-253.828 1134.68,-238.313 1167.07,-214 1203.11,-186.95 1168.92,-146.894 1205.07,-120 1240.33,-93.7762 1540.76,-80.6307 1647.57,-76.7536"/>
<polygon fill="midnightblue" stroke="midnightblue" points="1647.72,-80.2509 1657.58,-76.397 1647.47,-73.2554 1647.72,-80.2509"/>
</g>
<!-- Node36&#45;&gt;Node18 -->
<g id="edge53" class="edge"><title>Node36&#45;&gt;Node18</title>
<path fill="none" stroke="midnightblue" d="M753.061,-262.774C877.616,-260.515 1123.12,-251.311 1200.07,-214 1228.66,-200.141 1252.11,-170.51 1264.8,-151.878"/>
<polygon fill="midnightblue" stroke="midnightblue" points="1267.73,-153.789 1270.28,-143.505 1261.88,-149.953 1267.73,-153.789"/>
</g>
<!-- Node36&#45;&gt;Node34 -->
<g id="edge48" class="edge"><title>Node36&#45;&gt;Node34</title>
<path fill="none" stroke="midnightblue" d="M605.48,-252.164C527.393,-240.136 405.373,-221.341 332.028,-210.043"/>
<polygon fill="midnightblue" stroke="midnightblue" points="332.428,-206.563 322.011,-208.5 331.362,-213.482 332.428,-206.563"/>
</g>
<!-- Node37 -->
<g id="node37" class="node"><title>Node37</title>
<polygon fill="white" stroke="#bfbfbf" points="792.138,-185.5 792.138,-213.5 976.009,-213.5 976.009,-185.5 792.138,-185.5"/>
<text text-anchor="start" x="800.138" y="-201.5" font-family="Helvetica,sans-Serif" font-size="10.00">greensocket/utils/greensocketaddress</text>
<text text-anchor="middle" x="884.074" y="-191.5" font-family="Helvetica,sans-Serif" font-size="10.00">_base.h</text>
</g>
<!-- Node36&#45;&gt;Node37 -->
<g id="edge49" class="edge"><title>Node36&#45;&gt;Node37</title>
<path fill="none" stroke="midnightblue" d="M721.55,-250.446C753.572,-240.605 797.662,-227.056 831.841,-216.552"/>
<polygon fill="midnightblue" stroke="midnightblue" points="833.121,-219.82 841.652,-213.537 831.065,-213.129 833.121,-219.82"/>
</g>
<!-- Node38 -->
<g id="node38" class="node"><title>Node38</title>
<polygon fill="white" stroke="#bfbfbf" points="380.424,-185.5 380.424,-213.5 513.724,-213.5 513.724,-185.5 380.424,-185.5"/>
<text text-anchor="start" x="388.424" y="-201.5" font-family="Helvetica,sans-Serif" font-size="10.00">greenreg/greenreg_socket</text>
<text text-anchor="middle" x="447.074" y="-191.5" font-family="Helvetica,sans-Serif" font-size="10.00">/transactor_if.h</text>
</g>
<!-- Node36&#45;&gt;Node38 -->
<g id="edge50" class="edge"><title>Node36&#45;&gt;Node38</title>
<path fill="none" stroke="midnightblue" d="M631.003,-250.446C594.452,-240.521 544.009,-226.823 505.192,-216.282"/>
<polygon fill="midnightblue" stroke="midnightblue" points="505.65,-212.78 495.083,-213.537 503.816,-219.535 505.65,-212.78"/>
</g>
<!-- Node39 -->
<g id="node39" class="node"><title>Node39</title>
<polygon fill="white" stroke="#bfbfbf" points="531.333,-185.5 531.333,-213.5 636.815,-213.5 636.815,-185.5 531.333,-185.5"/>
<text text-anchor="start" x="539.333" y="-201.5" font-family="Helvetica,sans-Serif" font-size="10.00">greenreg/framework</text>
<text text-anchor="middle" x="584.074" y="-191.5" font-family="Helvetica,sans-Serif" font-size="10.00">/core/gr_common.h</text>
</g>
<!-- Node36&#45;&gt;Node39 -->
<g id="edge51" class="edge"><title>Node36&#45;&gt;Node39</title>
<path fill="none" stroke="midnightblue" d="M659.39,-250.446C645.76,-241.408 627.413,-229.241 612.24,-219.179"/>
<polygon fill="midnightblue" stroke="midnightblue" points="614.001,-216.147 603.733,-213.537 610.132,-221.981 614.001,-216.147"/>
</g>
<!-- Node40 -->
<g id="node40" class="node"><title>Node40</title>
<polygon fill="white" stroke="#bfbfbf" points="654.396,-190.5 654.396,-208.5 703.751,-208.5 703.751,-190.5 654.396,-190.5"/>
<text text-anchor="middle" x="679.074" y="-196.5" font-family="Helvetica,sans-Serif" font-size="10.00">amba.h</text>
</g>
<!-- Node36&#45;&gt;Node40 -->
<g id="edge52" class="edge"><title>Node36&#45;&gt;Node40</title>
<path fill="none" stroke="midnightblue" d="M679.074,-250.446C679.074,-241.334 679.074,-229.041 679.074,-218.931"/>
<polygon fill="midnightblue" stroke="midnightblue" points="682.574,-218.73 679.074,-208.73 675.574,-218.73 682.574,-218.73"/>
</g>
<!-- Node41 -->
<g id="node41" class="node"><title>Node41</title>
<polygon fill="white" stroke="#bfbfbf" points="721.739,-190.5 721.739,-208.5 774.409,-208.5 774.409,-190.5 721.739,-190.5"/>
<text text-anchor="middle" x="748.074" y="-196.5" font-family="Helvetica,sans-Serif" font-size="10.00">systemc</text>
</g>
<!-- Node36&#45;&gt;Node41 -->
<g id="edge54" class="edge"><title>Node36&#45;&gt;Node41</title>
<path fill="none" stroke="midnightblue" d="M693.371,-250.446C704.424,-240.354 719.751,-226.36 731.369,-215.752"/>
<polygon fill="midnightblue" stroke="midnightblue" points="734.035,-218.058 739.06,-208.73 729.315,-212.888 734.035,-218.058"/>
</g>
<!-- Node42&#45;&gt;Node2 -->
<g id="edge63" class="edge"><title>Node42&#45;&gt;Node2</title>
<path fill="none" stroke="midnightblue" d="M2132.33,-490.202C2160.07,-462.083 2251.74,-367.231 2315.07,-279 2334.59,-251.815 2337.98,-243.867 2353.07,-214 2372.73,-175.093 2392.47,-162.077 2381.07,-120 2378.38,-110.068 2372.86,-100.079 2367.6,-92.0888"/>
<polygon fill="midnightblue" stroke="midnightblue" points="2370.34,-89.9069 2361.72,-83.7502 2364.62,-93.9401 2370.34,-89.9069"/>
</g>
<!-- Node42&#45;&gt;Node3 -->
<g id="edge66" class="edge"><title>Node42&#45;&gt;Node3</title>
<path fill="none" stroke="midnightblue" d="M2122.81,-490.221C2120.63,-477.637 2115.38,-453.234 2105.07,-435 2084.42,-398.44 2048.88,-364.026 2027.62,-345.251"/>
<polygon fill="midnightblue" stroke="midnightblue" points="2029.83,-342.532 2019.97,-338.632 2025.24,-347.824 2029.83,-342.532"/>
</g>
<!-- Node42&#45;&gt;Node14 -->
<g id="edge64" class="edge"><title>Node42&#45;&gt;Node14</title>
<path fill="none" stroke="midnightblue" d="M2137.65,-490.449C2151.26,-482.102 2172.5,-468.292 2189.07,-454 2214.32,-432.227 2217.53,-423.556 2240.07,-399 2262.42,-374.665 2269.12,-369.543 2290.07,-344 2380.68,-233.528 2465.62,-82.6275 2492.95,-32.4748"/>
<polygon fill="midnightblue" stroke="midnightblue" points="2496.08,-34.05 2497.76,-23.5899 2489.92,-30.7166 2496.08,-34.05"/>
</g>
<!-- Node42&#45;&gt;Node30 -->
<g id="edge62" class="edge"><title>Node42&#45;&gt;Node30</title>
<path fill="none" stroke="midnightblue" d="M2049.84,-498.441C1814.4,-497.846 1063.33,-492.812 443.074,-454 436.785,-453.606 430.244,-453.113 423.705,-452.564"/>
<polygon fill="midnightblue" stroke="midnightblue" points="423.733,-449.053 413.464,-451.66 423.118,-456.026 423.733,-449.053"/>
</g>
<!-- Node42&#45;&gt;Node31 -->
<g id="edge65" class="edge"><title>Node42&#45;&gt;Node31</title>
<path fill="none" stroke="midnightblue" d="M2050.01,-494.014C1757.12,-476.273 682.288,-411.168 406.11,-394.439"/>
<polygon fill="midnightblue" stroke="midnightblue" points="406.05,-390.929 395.856,-393.818 405.626,-397.917 406.05,-390.929"/>
</g>
<!-- Node43 -->
<g id="node43" class="node"><title>Node43</title>
<polygon fill="white" stroke="#bfbfbf" points="1940.03,-435.5 1940.03,-453.5 2096.11,-453.5 2096.11,-435.5 1940.03,-435.5"/>
<text text-anchor="middle" x="2018.07" y="-441.5" font-family="Helvetica,sans-Serif" font-size="10.00">core/models/utils/ahbdevice.tpp</text>
</g>
<!-- Node42&#45;&gt;Node43 -->
<g id="edge67" class="edge"><title>Node42&#45;&gt;Node43</title>
<path fill="none" stroke="midnightblue" d="M2107.97,-490.45C2090.85,-481.89 2063.53,-468.229 2043.5,-458.212"/>
<polygon fill="midnightblue" stroke="midnightblue" points="2044.83,-454.967 2034.32,-453.625 2041.7,-461.228 2044.83,-454.967"/>
</g>
<!-- Node44&#45;&gt;Node9 -->
<g id="edge72" class="edge"><title>Node44&#45;&gt;Node9</title>
<path fill="none" stroke="midnightblue" d="M2390.32,-490.336C2391.5,-445.732 2394.87,-231.807 2353.07,-185 2332.02,-161.419 2107.22,-125.408 2076.07,-120 1947.06,-97.6009 1792.06,-83.7982 1722.3,-78.2751"/>
<polygon fill="midnightblue" stroke="midnightblue" points="1722.49,-74.7792 1712.25,-77.4899 1721.95,-81.7579 1722.49,-74.7792"/>
</g>
<!-- Node44&#45;&gt;Node14 -->
<g id="edge69" class="edge"><title>Node44&#45;&gt;Node14</title>
<path fill="none" stroke="midnightblue" d="M2413.46,-490.405C2430.63,-483.326 2453.26,-471.424 2467.07,-454 2521.44,-385.408 2524.07,-353.024 2524.07,-265.5 2524.07,-265.5 2524.07,-265.5 2524.07,-133.5 2524.07,-97.5037 2514.06,-56.361 2507.54,-33.4053"/>
<polygon fill="midnightblue" stroke="midnightblue" points="2510.87,-32.3034 2504.68,-23.6993 2504.15,-34.2808 2510.87,-32.3034"/>
</g>
<!-- Node44&#45;&gt;Node19 -->
<g id="edge73" class="edge"><title>Node44&#45;&gt;Node19</title>
<path fill="none" stroke="midnightblue" d="M2379.7,-490.307C2342.29,-461.227 2209.94,-362.19 2084.07,-315 1999.1,-283.14 1966.14,-315.554 1883.07,-279 1863.63,-270.443 1865.05,-257.241 1845.07,-250 1759.13,-218.839 1086.29,-280.043 1023.07,-214 1006.67,-196.866 1022.27,-169.155 1035.39,-151.654"/>
<polygon fill="midnightblue" stroke="midnightblue" points="1038.36,-153.546 1041.85,-143.542 1032.88,-149.187 1038.36,-153.546"/>
</g>
<!-- Node44&#45;&gt;Node30 -->
<g id="edge70" class="edge"><title>Node44&#45;&gt;Node30</title>
<path fill="none" stroke="midnightblue" d="M2323.16,-495.033C2288.52,-493.329 2245.53,-491.356 2207.07,-490 1509.87,-465.426 664.381,-450.523 423.8,-446.566"/>
<polygon fill="midnightblue" stroke="midnightblue" points="423.53,-443.061 413.474,-446.397 423.415,-450.06 423.53,-443.061"/>
</g>
<!-- Node45 -->
<g id="node45" class="node"><title>Node45</title>
<polygon fill="white" stroke="#bfbfbf" points="2408.4,-435.5 2408.4,-453.5 2457.74,-453.5 2457.74,-435.5 2408.4,-435.5"/>
<text text-anchor="middle" x="2433.07" y="-441.5" font-family="Helvetica,sans-Serif" font-size="10.00">fstream</text>
</g>
<!-- Node44&#45;&gt;Node45 -->
<g id="edge71" class="edge"><title>Node44&#45;&gt;Node45</title>
<path fill="none" stroke="midnightblue" d="M2396.79,-490.219C2403.01,-482.551 2412.43,-470.939 2420.12,-461.469"/>
<polygon fill="midnightblue" stroke="midnightblue" points="2422.96,-463.52 2426.54,-453.55 2417.52,-459.11 2422.96,-463.52"/>
</g>
</g>
</svg>
