<?xml version="1.0" encoding="UTF-8" standalone="no"?>
<!DOCTYPE svg PUBLIC "-//W3C//DTD SVG 1.1//EN"
 "http://www.w3.org/Graphics/SVG/1.1/DTD/svg11.dtd">
<!-- Generated by graphviz version 2.38.0 (20140413.2041)
 -->
<!-- Title: core/models/ahbmem/ahbmem.h Pages: 1 -->
<svg width="415pt" height="167pt"
 viewBox="0.00 0.00 415.49 167.00" xmlns="http://www.w3.org/2000/svg" xmlns:xlink="http://www.w3.org/1999/xlink">
<g id="graph0" class="graph" transform="scale(1 1) rotate(0) translate(4 163)">
<title>core/models/ahbmem/ahbmem.h</title>
<polygon fill="white" stroke="none" points="-4,4 -4,-163 411.495,-163 411.495,4 -4,4"/>
<!-- Node1 -->
<g id="node1" class="node"><title>Node1</title>
<polygon fill="#bfbfbf" stroke="black" points="134,-130.5 134,-158.5 246.152,-158.5 246.152,-130.5 134,-130.5"/>
<text text-anchor="start" x="142" y="-146.5" font-family="Helvetica,sans-Serif" font-size="10.00">core/models/ahbmem</text>
<text text-anchor="middle" x="190.076" y="-136.5" font-family="Helvetica,sans-Serif" font-size="10.00">/ahbmem.h</text>
</g>
<!-- Node2 -->
<g id="node2" class="node"><title>Node2</title>
<g id="a_node2"><a xlink:href="ahbmem_8cpp.html" target="_top" xlink:title="core/models/ahbmem\l/ahbmem.cpp">
<polygon fill="white" stroke="black" points="0,-65.5 0,-93.5 112.152,-93.5 112.152,-65.5 0,-65.5"/>
<text text-anchor="start" x="8" y="-81.5" font-family="Helvetica,sans-Serif" font-size="10.00">core/models/ahbmem</text>
<text text-anchor="middle" x="56.0762" y="-71.5" font-family="Helvetica,sans-Serif" font-size="10.00">/ahbmem.cpp</text>
</a>
</g>
</g>
<!-- Node1&#45;&gt;Node2 -->
<g id="edge1" class="edge"><title>Node1&#45;&gt;Node2</title>
<path fill="none" stroke="midnightblue" d="M152.984,-126.061C131.088,-115.767 103.83,-102.951 83.8055,-93.5369"/>
<polygon fill="midnightblue" stroke="midnightblue" points="151.772,-129.359 162.311,-130.446 154.751,-123.024 151.772,-129.359"/>
</g>
<!-- Node3 -->
<g id="node3" class="node"><title>Node3</title>
<g id="a_node3"><a xlink:href="leon3mp_2sc__main_8cpp.html" target="_top" xlink:title="core/platforms/leon3mp\l/sc_main.cpp">
<polygon fill="white" stroke="black" points="129.83,-65.5 129.83,-93.5 250.322,-93.5 250.322,-65.5 129.83,-65.5"/>
<text text-anchor="start" x="137.83" y="-81.5" font-family="Helvetica,sans-Serif" font-size="10.00">core/platforms/leon3mp</text>
<text text-anchor="middle" x="190.076" y="-71.5" font-family="Helvetica,sans-Serif" font-size="10.00">/sc_main.cpp</text>
</a>
</g>
</g>
<!-- Node1&#45;&gt;Node3 -->
<g id="edge2" class="edge"><title>Node1&#45;&gt;Node3</title>
<path fill="none" stroke="midnightblue" d="M190.076,-120.164C190.076,-111.169 190.076,-101.221 190.076,-93.5369"/>
<polygon fill="midnightblue" stroke="midnightblue" points="186.576,-120.446 190.076,-130.446 193.576,-120.446 186.576,-120.446"/>
</g>
<!-- Node4 -->
<g id="node4" class="node"><title>Node4</title>
<g id="a_node4"><a xlink:href="leon3mp_8h.html" target="_top" xlink:title="core/platforms/newleon3mp\l/leon3mp.h">
<polygon fill="white" stroke="black" points="268.658,-65.5 268.658,-93.5 407.495,-93.5 407.495,-65.5 268.658,-65.5"/>
<text text-anchor="start" x="276.658" y="-81.5" font-family="Helvetica,sans-Serif" font-size="10.00">core/platforms/newleon3mp</text>
<text text-anchor="middle" x="338.076" y="-71.5" font-family="Helvetica,sans-Serif" font-size="10.00">/leon3mp.h</text>
</a>
</g>
</g>
<!-- Node1&#45;&gt;Node4 -->
<g id="edge3" class="edge"><title>Node1&#45;&gt;Node4</title>
<path fill="none" stroke="midnightblue" d="M230.071,-126.475C254.416,-116.112 285.036,-103.078 307.45,-93.5369"/>
<polygon fill="midnightblue" stroke="midnightblue" points="228.572,-123.309 220.742,-130.446 231.314,-129.75 228.572,-123.309"/>
</g>
<!-- Node5 -->
<g id="node5" class="node"><title>Node5</title>
<g id="a_node5"><a xlink:href="newleon3mp_2sc__main_8cpp.html" target="_top" xlink:title="core/platforms/newleon3mp\l/sc_main.cpp">
<polygon fill="white" stroke="black" points="268.658,-0.5 268.658,-28.5 407.495,-28.5 407.495,-0.5 268.658,-0.5"/>
<text text-anchor="start" x="276.658" y="-16.5" font-family="Helvetica,sans-Serif" font-size="10.00">core/platforms/newleon3mp</text>
<text text-anchor="middle" x="338.076" y="-6.5" font-family="Helvetica,sans-Serif" font-size="10.00">/sc_main.cpp</text>
</a>
</g>
</g>
<!-- Node4&#45;&gt;Node5 -->
<g id="edge4" class="edge"><title>Node4&#45;&gt;Node5</title>
<path fill="none" stroke="midnightblue" d="M338.076,-55.1641C338.076,-46.1693 338.076,-36.2205 338.076,-28.5369"/>
<polygon fill="midnightblue" stroke="midnightblue" points="334.576,-55.4463 338.076,-65.4464 341.576,-55.4464 334.576,-55.4463"/>
</g>
</g>
</svg>
