<?xml version="1.0" encoding="UTF-8" standalone="no"?>
<!DOCTYPE svg PUBLIC "-//W3C//DTD SVG 1.1//EN"
 "http://www.w3.org/Graphics/SVG/1.1/DTD/svg11.dtd">
<!-- Generated by graphviz version 2.38.0 (20140413.2041)
 -->
<!-- Title: gaisler/leon3/intunit/alias.hpp Pages: 1 -->
<svg width="770pt" height="374pt"
 viewBox="0.00 0.00 769.87 374.00" xmlns="http://www.w3.org/2000/svg" xmlns:xlink="http://www.w3.org/1999/xlink">
<g id="graph0" class="graph" transform="scale(1 1) rotate(0) translate(4 370)">
<title>gaisler/leon3/intunit/alias.hpp</title>
<polygon fill="white" stroke="none" points="-4,4 -4,-370 765.871,-370 765.871,4 -4,4"/>
<!-- Node1 -->
<g id="node1" class="node"><title>Node1</title>
<polygon fill="#bfbfbf" stroke="black" points="207.871,-335.5 207.871,-365.5 308.871,-365.5 308.871,-335.5 207.871,-335.5"/>
<text text-anchor="start" x="215.871" y="-353.5" font-family="Helvetica,sans-Serif" font-size="10.00">gaisler/leon3/intunit</text>
<text text-anchor="middle" x="258.371" y="-342.5" font-family="Helvetica,sans-Serif" font-size="10.00">/alias.hpp</text>
</g>
<!-- Node2 -->
<g id="node2" class="node"><title>Node2</title>
<g id="a_node2"><a xlink:href="instructions_8hpp.html" target="_top" xlink:title="gaisler/leon3/intunit\l/instructions.hpp">
<polygon fill="white" stroke="black" points="324.871,-268.5 324.871,-298.5 425.871,-298.5 425.871,-268.5 324.871,-268.5"/>
<text text-anchor="start" x="332.871" y="-286.5" font-family="Helvetica,sans-Serif" font-size="10.00">gaisler/leon3/intunit</text>
<text text-anchor="middle" x="375.371" y="-275.5" font-family="Helvetica,sans-Serif" font-size="10.00">/instructions.hpp</text>
</a>
</g>
</g>
<!-- Node1&#45;&gt;Node2 -->
<g id="edge1" class="edge"><title>Node1&#45;&gt;Node2</title>
<path fill="none" stroke="midnightblue" d="M292.687,-330.435C311.043,-320.237 333.255,-307.897 350.033,-298.577"/>
<polygon fill="midnightblue" stroke="midnightblue" points="290.8,-327.48 283.758,-335.396 294.199,-333.599 290.8,-327.48"/>
</g>
<!-- Node3 -->
<g id="node3" class="node"><title>Node3</title>
<g id="a_node3"><a xlink:href="processor_8hpp.html" target="_top" xlink:title="gaisler/leon3/intunit\l/processor.hpp">
<polygon fill="white" stroke="black" points="246.871,-134.5 246.871,-164.5 347.871,-164.5 347.871,-134.5 246.871,-134.5"/>
<text text-anchor="start" x="254.871" y="-152.5" font-family="Helvetica,sans-Serif" font-size="10.00">gaisler/leon3/intunit</text>
<text text-anchor="middle" x="297.371" y="-141.5" font-family="Helvetica,sans-Serif" font-size="10.00">/processor.hpp</text>
</a>
</g>
</g>
<!-- Node1&#45;&gt;Node3 -->
<g id="edge21" class="edge"><title>Node1&#45;&gt;Node3</title>
<path fill="none" stroke="midnightblue" d="M263.12,-325.266C271.346,-283.291 287.998,-198.327 294.591,-164.682"/>
<polygon fill="midnightblue" stroke="midnightblue" points="259.664,-324.702 261.176,-335.188 266.533,-326.048 259.664,-324.702"/>
</g>
<!-- Node8 -->
<g id="node8" class="node"><title>Node8</title>
<g id="a_node8"><a xlink:href="processor_8cpp.html" target="_top" xlink:title="gaisler/leon3/intunit\l/processor.cpp">
<polygon fill="white" stroke="black" points="145.871,-67.5 145.871,-97.5 246.871,-97.5 246.871,-67.5 145.871,-67.5"/>
<text text-anchor="start" x="153.871" y="-85.5" font-family="Helvetica,sans-Serif" font-size="10.00">gaisler/leon3/intunit</text>
<text text-anchor="middle" x="196.371" y="-74.5" font-family="Helvetica,sans-Serif" font-size="10.00">/processor.cpp</text>
</a>
</g>
</g>
<!-- Node1&#45;&gt;Node8 -->
<g id="edge25" class="edge"><title>Node1&#45;&gt;Node8</title>
<path fill="none" stroke="midnightblue" d="M197.753,-343.362C133.619,-333.032 37.3503,-305.443 5.37073,-232 -24.4777,-163.452 79.5226,-118.435 145.669,-97.366"/>
<polygon fill="midnightblue" stroke="midnightblue" points="197.345,-346.84 207.756,-344.876 198.392,-339.919 197.345,-346.84"/>
</g>
<!-- Node11 -->
<g id="node11" class="node"><title>Node11</title>
<g id="a_node11"><a xlink:href="instructions_8cpp.html" target="_top" xlink:title="gaisler/leon3/intunit\l/instructions.cpp">
<polygon fill="white" stroke="black" points="660.871,-201.5 660.871,-231.5 761.871,-231.5 761.871,-201.5 660.871,-201.5"/>
<text text-anchor="start" x="668.871" y="-219.5" font-family="Helvetica,sans-Serif" font-size="10.00">gaisler/leon3/intunit</text>
<text text-anchor="middle" x="711.371" y="-208.5" font-family="Helvetica,sans-Serif" font-size="10.00">/instructions.cpp</text>
</a>
</g>
</g>
<!-- Node1&#45;&gt;Node11 -->
<g id="edge23" class="edge"><title>Node1&#45;&gt;Node11</title>
<path fill="none" stroke="midnightblue" d="M318.968,-338.282C353.967,-330.318 398.102,-317.676 434.371,-299 454.056,-288.863 453.322,-277.399 473.371,-268 544.48,-234.663 569.598,-248.55 646.371,-232 651.005,-231.001 655.822,-229.95 660.644,-228.89"/>
<polygon fill="midnightblue" stroke="midnightblue" points="317.898,-334.934 308.886,-340.506 319.405,-341.77 317.898,-334.934"/>
</g>
<!-- Node13 -->
<g id="node13" class="node"><title>Node13</title>
<g id="a_node13"><a xlink:href="interface_8hpp.html" target="_top" xlink:title="gaisler/leon3/intunit\l/interface.hpp">
<polygon fill="white" stroke="black" points="110.871,-268.5 110.871,-298.5 211.871,-298.5 211.871,-268.5 110.871,-268.5"/>
<text text-anchor="start" x="118.871" y="-286.5" font-family="Helvetica,sans-Serif" font-size="10.00">gaisler/leon3/intunit</text>
<text text-anchor="middle" x="161.371" y="-275.5" font-family="Helvetica,sans-Serif" font-size="10.00">/interface.hpp</text>
</a>
</g>
</g>
<!-- Node1&#45;&gt;Node13 -->
<g id="edge17" class="edge"><title>Node1&#45;&gt;Node13</title>
<path fill="none" stroke="midnightblue" d="M228.873,-329.734C213.863,-319.676 195.969,-307.685 182.377,-298.577"/>
<polygon fill="midnightblue" stroke="midnightblue" points="227.067,-332.737 237.323,-335.396 230.964,-326.922 227.067,-332.737"/>
</g>
<!-- Node14 -->
<g id="node14" class="node"><title>Node14</title>
<g id="a_node14"><a xlink:href="interface_8cpp.html" target="_top" xlink:title="gaisler/leon3/intunit\l/interface.cpp">
<polygon fill="white" stroke="black" points="14.8707,-201.5 14.8707,-231.5 115.871,-231.5 115.871,-201.5 14.8707,-201.5"/>
<text text-anchor="start" x="22.8707" y="-219.5" font-family="Helvetica,sans-Serif" font-size="10.00">gaisler/leon3/intunit</text>
<text text-anchor="middle" x="65.3707" y="-208.5" font-family="Helvetica,sans-Serif" font-size="10.00">/interface.cpp</text>
</a>
</g>
</g>
<!-- Node1&#45;&gt;Node14 -->
<g id="edge24" class="edge"><title>Node1&#45;&gt;Node14</title>
<path fill="none" stroke="midnightblue" d="M197.64,-342.099C165.733,-335.453 127.867,-322.857 101.371,-299 81.369,-280.991 71.926,-249.812 67.9288,-231.686"/>
<polygon fill="midnightblue" stroke="midnightblue" points="197.285,-345.595 207.767,-344.055 198.612,-338.722 197.285,-345.595"/>
</g>
<!-- Node15 -->
<g id="node15" class="node"><title>Node15</title>
<g id="a_node15"><a xlink:href="alias_8cpp.html" target="_top" xlink:title="gaisler/leon3/intunit\l/alias.cpp">
<polygon fill="white" stroke="black" points="482.871,-268.5 482.871,-298.5 583.871,-298.5 583.871,-268.5 482.871,-268.5"/>
<text text-anchor="start" x="490.871" y="-286.5" font-family="Helvetica,sans-Serif" font-size="10.00">gaisler/leon3/intunit</text>
<text text-anchor="middle" x="533.371" y="-275.5" font-family="Helvetica,sans-Serif" font-size="10.00">/alias.cpp</text>
</a>
</g>
</g>
<!-- Node1&#45;&gt;Node15 -->
<g id="edge22" class="edge"><title>Node1&#45;&gt;Node15</title>
<path fill="none" stroke="midnightblue" d="M318.974,-335.176C367.988,-323.59 436.217,-307.464 482.442,-296.538"/>
<polygon fill="midnightblue" stroke="midnightblue" points="318.057,-331.796 309.13,-337.502 319.667,-338.608 318.057,-331.796"/>
</g>
<!-- Node2&#45;&gt;Node3 -->
<g id="edge2" class="edge"><title>Node2&#45;&gt;Node3</title>
<path fill="none" stroke="midnightblue" d="M343.85,-262.317C333.332,-254.107 322.491,-243.764 315.371,-232 302.616,-210.926 298.863,-181.901 297.782,-164.778"/>
<polygon fill="midnightblue" stroke="midnightblue" points="342.014,-265.312 352.139,-268.432 346.169,-259.679 342.014,-265.312"/>
</g>
<!-- Node7 -->
<g id="node7" class="node"><title>Node7</title>
<g id="a_node7"><a xlink:href="main_8cpp.html" target="_top" xlink:title="gaisler/leon3/intunit\l/main.cpp">
<polygon fill="white" stroke="black" points="495.871,-67.5 495.871,-97.5 596.871,-97.5 596.871,-67.5 495.871,-67.5"/>
<text text-anchor="start" x="503.871" y="-85.5" font-family="Helvetica,sans-Serif" font-size="10.00">gaisler/leon3/intunit</text>
<text text-anchor="middle" x="546.371" y="-74.5" font-family="Helvetica,sans-Serif" font-size="10.00">/main.cpp</text>
</a>
</g>
</g>
<!-- Node2&#45;&gt;Node7 -->
<g id="edge14" class="edge"><title>Node2&#45;&gt;Node7</title>
<path fill="none" stroke="midnightblue" d="M436.001,-266.924C505.561,-253.923 547.588,-286.654 591.371,-232 624.214,-191.002 580.913,-126.3 558.412,-97.7931"/>
<polygon fill="midnightblue" stroke="midnightblue" points="435.04,-263.55 426,-269.075 436.513,-270.394 435.04,-263.55"/>
</g>
<!-- Node2&#45;&gt;Node8 -->
<g id="edge15" class="edge"><title>Node2&#45;&gt;Node8</title>
<path fill="none" stroke="midnightblue" d="M342.823,-262.851C329.204,-254.062 313.519,-243.174 300.371,-232 269.224,-205.531 260.799,-198.494 237.371,-165 222.028,-143.066 209.075,-114.573 202.042,-97.7406"/>
<polygon fill="midnightblue" stroke="midnightblue" points="341.106,-265.907 351.426,-268.305 344.854,-259.995 341.106,-265.907"/>
</g>
<!-- Node9 -->
<g id="node9" class="node"><title>Node9</title>
<g id="a_node9"><a xlink:href="decoder_8hpp.html" target="_top" xlink:title="gaisler/leon3/intunit\l/decoder.hpp">
<polygon fill="white" stroke="black" points="324.871,-201.5 324.871,-231.5 425.871,-231.5 425.871,-201.5 324.871,-201.5"/>
<text text-anchor="start" x="332.871" y="-219.5" font-family="Helvetica,sans-Serif" font-size="10.00">gaisler/leon3/intunit</text>
<text text-anchor="middle" x="375.371" y="-208.5" font-family="Helvetica,sans-Serif" font-size="10.00">/decoder.hpp</text>
</a>
</g>
</g>
<!-- Node2&#45;&gt;Node9 -->
<g id="edge8" class="edge"><title>Node2&#45;&gt;Node9</title>
<path fill="none" stroke="midnightblue" d="M375.371,-258.108C375.371,-249.154 375.371,-239.323 375.371,-231.577"/>
<polygon fill="midnightblue" stroke="midnightblue" points="371.871,-258.396 375.371,-268.396 378.871,-258.396 371.871,-258.396"/>
</g>
<!-- Node10 -->
<g id="node10" class="node"><title>Node10</title>
<g id="a_node10"><a xlink:href="decoder_8cpp.html" target="_top" xlink:title="gaisler/leon3/intunit\l/decoder.cpp">
<polygon fill="white" stroke="black" points="453.871,-134.5 453.871,-164.5 554.871,-164.5 554.871,-134.5 453.871,-134.5"/>
<text text-anchor="start" x="461.871" y="-152.5" font-family="Helvetica,sans-Serif" font-size="10.00">gaisler/leon3/intunit</text>
<text text-anchor="middle" x="504.371" y="-141.5" font-family="Helvetica,sans-Serif" font-size="10.00">/decoder.cpp</text>
</a>
</g>
</g>
<!-- Node2&#45;&gt;Node10 -->
<g id="edge12" class="edge"><title>Node2&#45;&gt;Node10</title>
<path fill="none" stroke="midnightblue" d="M435.941,-268.14C493.989,-254.239 573.147,-234.854 575.371,-232 594.512,-207.424 558.976,-180.452 531.624,-164.524"/>
<polygon fill="midnightblue" stroke="midnightblue" points="435.01,-264.764 426.098,-270.494 436.638,-271.572 435.01,-264.764"/>
</g>
<!-- Node2&#45;&gt;Node11 -->
<g id="edge13" class="edge"><title>Node2&#45;&gt;Node11</title>
<path fill="none" stroke="midnightblue" d="M435.965,-268.887C437.447,-268.585 438.918,-268.289 440.371,-268 531.53,-249.877 555.212,-250.123 646.371,-232 651.02,-231.076 655.848,-230.075 660.677,-229.047"/>
<polygon fill="midnightblue" stroke="midnightblue" points="435.139,-265.484 426.065,-270.953 436.569,-272.337 435.139,-265.484"/>
</g>
<!-- Node12 -->
<g id="node12" class="node"><title>Node12</title>
<g id="a_node12"><a xlink:href="mmu_8cpp.html" target="_top" xlink:title="gaisler/leon3/mmucache\l/mmu.cpp">
<polygon fill="white" stroke="black" points="444.371,-201.5 444.371,-231.5 566.371,-231.5 566.371,-201.5 444.371,-201.5"/>
<text text-anchor="start" x="452.371" y="-219.5" font-family="Helvetica,sans-Serif" font-size="10.00">gaisler/leon3/mmucache</text>
<text text-anchor="middle" x="505.371" y="-208.5" font-family="Helvetica,sans-Serif" font-size="10.00">/mmu.cpp</text>
</a>
</g>
</g>
<!-- Node2&#45;&gt;Node12 -->
<g id="edge16" class="edge"><title>Node2&#45;&gt;Node12</title>
<path fill="none" stroke="midnightblue" d="M412.664,-263.853C433.219,-253.576 458.32,-241.025 477.218,-231.577"/>
<polygon fill="midnightblue" stroke="midnightblue" points="410.958,-260.793 403.579,-268.396 414.088,-267.054 410.958,-260.793"/>
</g>
<!-- Node4 -->
<g id="node4" class="node"><title>Node4</title>
<g id="a_node4"><a xlink:href="gaisler_2leon3_2leon3_8h.html" target="_top" xlink:title="gaisler/leon3/leon3.h">
<polygon fill="white" stroke="black" points="265.371,-73 265.371,-92 371.371,-92 371.371,-73 265.371,-73"/>
<text text-anchor="middle" x="318.371" y="-80" font-family="Helvetica,sans-Serif" font-size="10.00">gaisler/leon3/leon3.h</text>
</a>
</g>
</g>
<!-- Node3&#45;&gt;Node4 -->
<g id="edge3" class="edge"><title>Node3&#45;&gt;Node4</title>
<path fill="none" stroke="midnightblue" d="M305.093,-124.596C308.75,-113.278 312.891,-100.461 315.562,-92.1945"/>
<polygon fill="midnightblue" stroke="midnightblue" points="301.671,-123.804 301.927,-134.396 308.332,-125.956 301.671,-123.804"/>
</g>
<!-- Node3&#45;&gt;Node7 -->
<g id="edge6" class="edge"><title>Node3&#45;&gt;Node7</title>
<path fill="none" stroke="midnightblue" d="M357.943,-132.688C400.178,-121.663 455.884,-107.121 495.753,-96.7135"/>
<polygon fill="midnightblue" stroke="midnightblue" points="356.851,-129.356 348.06,-135.268 358.62,-136.129 356.851,-129.356"/>
</g>
<!-- Node3&#45;&gt;Node8 -->
<g id="edge7" class="edge"><title>Node3&#45;&gt;Node8</title>
<path fill="none" stroke="midnightblue" d="M266.657,-128.734C251.028,-118.676 232.396,-106.685 218.243,-97.5765"/>
<polygon fill="midnightblue" stroke="midnightblue" points="265.152,-131.927 275.455,-134.396 268.94,-126.041 265.152,-131.927"/>
</g>
<!-- Node5 -->
<g id="node5" class="node"><title>Node5</title>
<g id="a_node5"><a xlink:href="sc__main_8cpp.html" target="_top" xlink:title="core/platforms/leon3mp\l/sc_main.cpp">
<polygon fill="white" stroke="black" points="190.871,-0.5 190.871,-30.5 309.871,-30.5 309.871,-0.5 190.871,-0.5"/>
<text text-anchor="start" x="198.871" y="-18.5" font-family="Helvetica,sans-Serif" font-size="10.00">core/platforms/leon3mp</text>
<text text-anchor="middle" x="250.371" y="-7.5" font-family="Helvetica,sans-Serif" font-size="10.00">/sc_main.cpp</text>
</a>
</g>
</g>
<!-- Node4&#45;&gt;Node5 -->
<g id="edge4" class="edge"><title>Node4&#45;&gt;Node5</title>
<path fill="none" stroke="midnightblue" d="M301.755,-65.617C290.55,-54.9065 275.899,-40.9022 265.11,-30.589"/>
<polygon fill="midnightblue" stroke="midnightblue" points="299.553,-68.354 309.2,-72.7338 304.39,-63.2939 299.553,-68.354"/>
</g>
<!-- Node6 -->
<g id="node6" class="node"><title>Node6</title>
<g id="a_node6"><a xlink:href="leon3_8cpp.html" target="_top" xlink:title="gaisler/leon3/leon3.cpp">
<polygon fill="white" stroke="black" points="328.371,-6 328.371,-25 444.371,-25 444.371,-6 328.371,-6"/>
<text text-anchor="middle" x="386.371" y="-13" font-family="Helvetica,sans-Serif" font-size="10.00">gaisler/leon3/leon3.cpp</text>
</a>
</g>
</g>
<!-- Node4&#45;&gt;Node6 -->
<g id="edge5" class="edge"><title>Node4&#45;&gt;Node6</title>
<path fill="none" stroke="midnightblue" d="M335.113,-65.4968C348.448,-52.7496 366.604,-35.3947 377.345,-25.1273"/>
<polygon fill="midnightblue" stroke="midnightblue" points="332.352,-63.2939 327.542,-72.7338 337.189,-68.354 332.352,-63.2939"/>
</g>
<!-- Node9&#45;&gt;Node3 -->
<g id="edge9" class="edge"><title>Node9&#45;&gt;Node3</title>
<path fill="none" stroke="midnightblue" d="M350.631,-194.883C338.777,-185.005 324.886,-173.429 314.263,-164.577"/>
<polygon fill="midnightblue" stroke="midnightblue" points="348.523,-197.683 358.446,-201.396 353.004,-192.305 348.523,-197.683"/>
</g>
<!-- Node9&#45;&gt;Node8 -->
<g id="edge11" class="edge"><title>Node9&#45;&gt;Node8</title>
<path fill="none" stroke="midnightblue" d="M375.821,-191.454C374.866,-173.475 370.663,-149.432 356.371,-134 348.652,-125.665 290.926,-108.736 247.006,-96.7816"/>
<polygon fill="midnightblue" stroke="midnightblue" points="372.323,-191.566 376.059,-201.48 379.321,-191.4 372.323,-191.566"/>
</g>
<!-- Node9&#45;&gt;Node10 -->
<g id="edge10" class="edge"><title>Node9&#45;&gt;Node10</title>
<path fill="none" stroke="midnightblue" d="M412.377,-196.853C432.774,-186.576 457.682,-174.025 476.434,-164.577"/>
<polygon fill="midnightblue" stroke="midnightblue" points="410.717,-193.77 403.362,-201.396 413.867,-200.022 410.717,-193.77"/>
</g>
<!-- Node13&#45;&gt;Node3 -->
<g id="edge18" class="edge"><title>Node13&#45;&gt;Node3</title>
<path fill="none" stroke="midnightblue" d="M182.843,-261.242C199.55,-244.743 223.349,-221.334 244.371,-201 257.16,-188.629 271.812,-174.686 282.464,-164.59"/>
<polygon fill="midnightblue" stroke="midnightblue" points="180.353,-258.781 175.701,-268.3 185.274,-263.76 180.353,-258.781"/>
</g>
<!-- Node13&#45;&gt;Node8 -->
<g id="edge20" class="edge"><title>Node13&#45;&gt;Node8</title>
<path fill="none" stroke="midnightblue" d="M165.633,-258.266C173.016,-216.291 187.959,-131.327 193.876,-97.6819"/>
<polygon fill="midnightblue" stroke="midnightblue" points="162.173,-257.733 163.888,-268.188 169.067,-258.946 162.173,-257.733"/>
</g>
<!-- Node13&#45;&gt;Node14 -->
<g id="edge19" class="edge"><title>Node13&#45;&gt;Node14</title>
<path fill="none" stroke="midnightblue" d="M132.177,-262.734C117.322,-252.676 99.6127,-240.685 86.1606,-231.577"/>
<polygon fill="midnightblue" stroke="midnightblue" points="130.297,-265.688 140.54,-268.396 134.222,-259.891 130.297,-265.688"/>
</g>
</g>
</svg>
