<?xml version="1.0" encoding="UTF-8" standalone="no"?>
<!DOCTYPE svg PUBLIC "-//W3C//DTD SVG 1.1//EN"
 "http://www.w3.org/Graphics/SVG/1.1/DTD/svg11.dtd">
<!-- Generated by graphviz version 2.36.0 (20140111.2315)
 -->
<!-- Title: gaisler/leon3/intunit/alias.hpp Pages: 1 -->
<!--zoomable 380 -->
<svg id="main" version="1.1" xmlns="http://www.w3.org/2000/svg" xmlns:xlink="http://www.w3.org/1999/xlink" xml:space="preserve" onload="init(evt)">
<style type="text/css"><![CDATA[
.edge:hover path { stroke: red; }
.edge:hover polygon { stroke: red; fill: red; }
]]></style>
<script type="text/javascript"><![CDATA[
var edges = document.getElementsByTagName('g');
if (edges && edges.length) {
  for (var i=0;i<edges.length;i++) {
    if (edges[i].id.substr(0,4)=='edge') {
      edges[i].setAttribute('class','edge');
    }
  }
}
]]></script>
        <defs>
                <circle id="rim" cx="0" cy="0" r="7"/>
                <circle id="rim2" cx="0" cy="0" r="3.5"/>
                <g id="zoomPlus">
                        <use xlink:href="#rim" fill="#404040">
                                <set attributeName="fill" to="#808080" begin="zoomplus.mouseover" end="zoomplus.mouseout"/>
                        </use>
                        <path d="M-4,0h8M0,-4v8" fill="none" stroke="white" stroke-width="1.5" pointer-events="none"/>
                </g>
                <g id="zoomMin">
                        <use xlink:href="#rim" fill="#404040">
                                <set attributeName="fill" to="#808080" begin="zoomminus.mouseover" end="zoomminus.mouseout"/>
                        </use>
                        <path d="M-4,0h8" fill="none" stroke="white" stroke-width="1.5" pointer-events="none"/>
                </g>
                <g id="dirArrow">
                        <path fill="none" stroke="white" stroke-width="1.5" d="M0,-3.0v7 M-2.5,-0.5L0,-3.0L2.5,-0.5"/>
                </g>
               <g id="resetDef">
                       <use xlink:href="#rim2" fill="#404040">
                               <set attributeName="fill" to="#808080" begin="reset.mouseover" end="reset.mouseout"/>
                       </use>
               </g>
        </defs>

<script type="text/javascript">
var viewWidth = 769;
var viewHeight = 380;
var sectionId = 'dynsection-1';
</script>
<script xlink:href="svgpan.js"/>
<svg id="graph" class="graph">
<g id="viewport">
<title>gaisler/leon3/intunit/alias.hpp</title>
<polygon fill="white" stroke="none" points="-4,4 -4,-376 765.365,-376 765.365,4 -4,4"/>
<!-- Node1 -->
<g id="node1" class="node"><title>Node1</title>
<polygon fill="#bfbfbf" stroke="black" points="207.865,-341 207.865,-371 308.865,-371 308.865,-341 207.865,-341"/>
<text text-anchor="start" x="215.865" y="-359" font-family="Helvetica,sans-Serif" font-size="10.00">gaisler/leon3/intunit</text>
<text text-anchor="middle" x="258.365" y="-348" font-family="Helvetica,sans-Serif" font-size="10.00">/alias.hpp</text>
</g>
<!-- Node2 -->
<g id="node2" class="node"><title>Node2</title>
<g id="a_node2"><a xlink:href="instructions_8hpp.html" target="_top" xlink:title="gaisler/leon3/intunit\l/instructions.hpp">
<polygon fill="white" stroke="black" points="324.865,-273 324.865,-303 425.865,-303 425.865,-273 324.865,-273"/>
<text text-anchor="start" x="332.865" y="-291" font-family="Helvetica,sans-Serif" font-size="10.00">gaisler/leon3/intunit</text>
<text text-anchor="middle" x="375.365" y="-280" font-family="Helvetica,sans-Serif" font-size="10.00">/instructions.hpp</text>
</a>
</g>
</g>
<!-- Node1&#45;&gt;Node2 -->
<g id="edge1" class="edge"><title>Node1&#45;&gt;Node2</title>
<path fill="none" stroke="midnightblue" d="M292.203,-335.912C310.752,-325.448 333.352,-312.7 350.307,-303.135"/>
<polygon fill="midnightblue" stroke="midnightblue" points="290.455,-332.88 283.465,-340.841 293.894,-338.977 290.455,-332.88"/>
</g>
<!-- Node3 -->
<g id="node3" class="node"><title>Node3</title>
<g id="a_node3"><a xlink:href="processor_8hpp.html" target="_top" xlink:title="gaisler/leon3/intunit\l/processor.hpp">
<polygon fill="white" stroke="black" points="246.865,-137 246.865,-167 347.865,-167 347.865,-137 246.865,-137"/>
<text text-anchor="start" x="254.865" y="-155" font-family="Helvetica,sans-Serif" font-size="10.00">gaisler/leon3/intunit</text>
<text text-anchor="middle" x="297.365" y="-144" font-family="Helvetica,sans-Serif" font-size="10.00">/processor.hpp</text>
</a>
</g>
</g>
<!-- Node1&#45;&gt;Node3 -->
<g id="edge21" class="edge"><title>Node1&#45;&gt;Node3</title>
<path fill="none" stroke="midnightblue" d="M263.047,-330.75C271.266,-288.18 288.042,-201.291 294.626,-167.189"/>
<polygon fill="midnightblue" stroke="midnightblue" points="259.567,-330.314 261.107,-340.796 266.44,-331.641 259.567,-330.314"/>
</g>
<!-- Node8 -->
<g id="node8" class="node"><title>Node8</title>
<g id="a_node8"><a xlink:href="processor_8cpp.html" target="_top" xlink:title="gaisler/leon3/intunit\l/processor.cpp">
<polygon fill="white" stroke="black" points="145.865,-69 145.865,-99 246.865,-99 246.865,-69 145.865,-69"/>
<text text-anchor="start" x="153.865" y="-87" font-family="Helvetica,sans-Serif" font-size="10.00">gaisler/leon3/intunit</text>
<text text-anchor="middle" x="196.365" y="-76" font-family="Helvetica,sans-Serif" font-size="10.00">/processor.cpp</text>
</a>
</g>
</g>
<!-- Node1&#45;&gt;Node8 -->
<g id="edge25" class="edge"><title>Node1&#45;&gt;Node8</title>
<path fill="none" stroke="midnightblue" d="M197.673,-348.539C133.472,-337.86 37.1451,-309.728 5.36508,-236 -24.5022,-166.71 80.1416,-120.634 146.237,-99.0867"/>
<polygon fill="midnightblue" stroke="midnightblue" points="197.265,-352.017 207.686,-350.107 198.348,-345.102 197.265,-352.017"/>
</g>
<!-- Node11 -->
<g id="node11" class="node"><title>Node11</title>
<g id="a_node11"><a xlink:href="instructions_8cpp.html" target="_top" xlink:title="gaisler/leon3/intunit\l/instructions.cpp">
<polygon fill="white" stroke="black" points="660.865,-205 660.865,-235 761.865,-235 761.865,-205 660.865,-205"/>
<text text-anchor="start" x="668.865" y="-223" font-family="Helvetica,sans-Serif" font-size="10.00">gaisler/leon3/intunit</text>
<text text-anchor="middle" x="711.365" y="-212" font-family="Helvetica,sans-Serif" font-size="10.00">/instructions.cpp</text>
</a>
</g>
</g>
<!-- Node1&#45;&gt;Node11 -->
<g id="edge23" class="edge"><title>Node1&#45;&gt;Node11</title>
<path fill="none" stroke="midnightblue" d="M319.069,-343.789C354.105,-335.785 398.24,-323.018 434.365,-304 454.205,-293.555 453.138,-281.675 473.365,-272 544.214,-238.112 569.654,-252.831 646.365,-236 651.003,-234.982 655.823,-233.906 660.647,-232.816"/>
<polygon fill="midnightblue" stroke="midnightblue" points="317.984,-340.444 308.976,-346.021 319.496,-347.279 317.984,-340.444"/>
</g>
<!-- Node13 -->
<g id="node13" class="node"><title>Node13</title>
<g id="a_node13"><a xlink:href="interface_8hpp.html" target="_top" xlink:title="gaisler/leon3/intunit\l/interface.hpp">
<polygon fill="white" stroke="black" points="110.865,-273 110.865,-303 211.865,-303 211.865,-273 110.865,-273"/>
<text text-anchor="start" x="118.865" y="-291" font-family="Helvetica,sans-Serif" font-size="10.00">gaisler/leon3/intunit</text>
<text text-anchor="middle" x="161.365" y="-280" font-family="Helvetica,sans-Serif" font-size="10.00">/interface.hpp</text>
</a>
</g>
</g>
<!-- Node1&#45;&gt;Node13 -->
<g id="edge17" class="edge"><title>Node1&#45;&gt;Node13</title>
<path fill="none" stroke="midnightblue" d="M228.807,-334.888C213.687,-324.6 195.652,-312.329 182.038,-303.066"/>
<polygon fill="midnightblue" stroke="midnightblue" points="227.081,-337.947 237.318,-340.679 231.019,-332.16 227.081,-337.947"/>
</g>
<!-- Node14 -->
<g id="node14" class="node"><title>Node14</title>
<g id="a_node14"><a xlink:href="interface_8cpp.html" target="_top" xlink:title="gaisler/leon3/intunit\l/interface.cpp">
<polygon fill="white" stroke="black" points="14.8651,-205 14.8651,-235 115.865,-235 115.865,-205 14.8651,-205"/>
<text text-anchor="start" x="22.8651" y="-223" font-family="Helvetica,sans-Serif" font-size="10.00">gaisler/leon3/intunit</text>
<text text-anchor="middle" x="65.3651" y="-212" font-family="Helvetica,sans-Serif" font-size="10.00">/interface.cpp</text>
</a>
</g>
</g>
<!-- Node1&#45;&gt;Node14 -->
<g id="edge24" class="edge"><title>Node1&#45;&gt;Node14</title>
<path fill="none" stroke="midnightblue" d="M197.563,-347.457C165.635,-340.725 127.771,-328.006 101.365,-304 81.0265,-285.51 71.6718,-253.514 67.7881,-235.117"/>
<polygon fill="midnightblue" stroke="midnightblue" points="197.212,-350.955 207.698,-349.439 198.556,-344.085 197.212,-350.955"/>
</g>
<!-- Node15 -->
<g id="node15" class="node"><title>Node15</title>
<g id="a_node15"><a xlink:href="alias_8cpp.html" target="_top" xlink:title="gaisler/leon3/intunit\l/alias.cpp">
<polygon fill="white" stroke="black" points="482.865,-273 482.865,-303 583.865,-303 583.865,-273 482.865,-273"/>
<text text-anchor="start" x="490.865" y="-291" font-family="Helvetica,sans-Serif" font-size="10.00">gaisler/leon3/intunit</text>
<text text-anchor="middle" x="533.365" y="-280" font-family="Helvetica,sans-Serif" font-size="10.00">/alias.cpp</text>
</a>
</g>
</g>
<!-- Node1&#45;&gt;Node15 -->
<g id="edge22" class="edge"><title>Node1&#45;&gt;Node15</title>
<path fill="none" stroke="midnightblue" d="M318.968,-340.455C367.982,-328.692 436.211,-312.317 482.436,-301.223"/>
<polygon fill="midnightblue" stroke="midnightblue" points="318.032,-337.081 309.125,-342.818 319.666,-343.887 318.032,-337.081"/>
</g>
<!-- Node2&#45;&gt;Node3 -->
<g id="edge2" class="edge"><title>Node2&#45;&gt;Node3</title>
<path fill="none" stroke="midnightblue" d="M344.067,-266.771C333.47,-258.443 322.519,-247.936 315.365,-236 302.403,-214.373 298.726,-184.605 297.714,-167.222"/>
<polygon fill="midnightblue" stroke="midnightblue" points="342.296,-269.815 352.41,-272.968 346.469,-264.195 342.296,-269.815"/>
</g>
<!-- Node7 -->
<g id="node7" class="node"><title>Node7</title>
<g id="a_node7"><a xlink:href="main_8cpp.html" target="_top" xlink:title="gaisler/leon3/intunit\l/main.cpp">
<polygon fill="white" stroke="black" points="495.865,-69 495.865,-99 596.865,-99 596.865,-69 495.865,-69"/>
<text text-anchor="start" x="503.865" y="-87" font-family="Helvetica,sans-Serif" font-size="10.00">gaisler/leon3/intunit</text>
<text text-anchor="middle" x="546.365" y="-76" font-family="Helvetica,sans-Serif" font-size="10.00">/main.cpp</text>
</a>
</g>
</g>
<!-- Node2&#45;&gt;Node7 -->
<g id="edge14" class="edge"><title>Node2&#45;&gt;Node7</title>
<path fill="none" stroke="midnightblue" d="M435.982,-270.907C505.487,-257.648 547.582,-290.654 591.365,-236 624.886,-194.156 580.7,-127.872 558.146,-99.1002"/>
<polygon fill="midnightblue" stroke="midnightblue" points="435.007,-267.537 425.99,-273.099 436.507,-274.375 435.007,-267.537"/>
</g>
<!-- Node2&#45;&gt;Node8 -->
<g id="edge15" class="edge"><title>Node2&#45;&gt;Node8</title>
<path fill="none" stroke="midnightblue" d="M343.096,-267.357C329.402,-258.448 313.585,-247.371 300.365,-236 269.131,-209.134 260.731,-201.933 237.365,-168 221.869,-145.497 208.874,-116.279 201.891,-99.1886"/>
<polygon fill="midnightblue" stroke="midnightblue" points="341.428,-270.445 351.739,-272.88 345.197,-264.546 341.428,-270.445"/>
</g>
<!-- Node9 -->
<g id="node9" class="node"><title>Node9</title>
<g id="a_node9"><a xlink:href="decoder_8hpp.html" target="_top" xlink:title="gaisler/leon3/intunit\l/decoder.hpp">
<polygon fill="white" stroke="black" points="324.865,-205 324.865,-235 425.865,-235 425.865,-205 324.865,-205"/>
<text text-anchor="start" x="332.865" y="-223" font-family="Helvetica,sans-Serif" font-size="10.00">gaisler/leon3/intunit</text>
<text text-anchor="middle" x="375.365" y="-212" font-family="Helvetica,sans-Serif" font-size="10.00">/decoder.hpp</text>
</a>
</g>
</g>
<!-- Node2&#45;&gt;Node9 -->
<g id="edge8" class="edge"><title>Node2&#45;&gt;Node9</title>
<path fill="none" stroke="midnightblue" d="M375.365,-262.532C375.365,-253.361 375.365,-243.245 375.365,-235.293"/>
<polygon fill="midnightblue" stroke="midnightblue" points="371.865,-262.679 375.365,-272.679 378.865,-262.679 371.865,-262.679"/>
</g>
<!-- Node10 -->
<g id="node10" class="node"><title>Node10</title>
<g id="a_node10"><a xlink:href="decoder_8cpp.html" target="_top" xlink:title="gaisler/leon3/intunit\l/decoder.cpp">
<polygon fill="white" stroke="black" points="453.865,-137 453.865,-167 554.865,-167 554.865,-137 453.865,-137"/>
<text text-anchor="start" x="461.865" y="-155" font-family="Helvetica,sans-Serif" font-size="10.00">gaisler/leon3/intunit</text>
<text text-anchor="middle" x="504.365" y="-144" font-family="Helvetica,sans-Serif" font-size="10.00">/decoder.cpp</text>
</a>
</g>
</g>
<!-- Node2&#45;&gt;Node10 -->
<g id="edge12" class="edge"><title>Node2&#45;&gt;Node10</title>
<path fill="none" stroke="midnightblue" d="M435.936,-272.488C493.985,-258.442 573.144,-238.859 575.365,-236 584.091,-224.769 581.856,-216.655 575.365,-204 567.053,-187.795 550.933,-175.576 536.151,-167.167"/>
<polygon fill="midnightblue" stroke="midnightblue" points="434.991,-269.116 426.093,-274.866 436.635,-275.92 434.991,-269.116"/>
</g>
<!-- Node2&#45;&gt;Node11 -->
<g id="edge13" class="edge"><title>Node2&#45;&gt;Node11</title>
<path fill="none" stroke="midnightblue" d="M435.956,-272.907C437.439,-272.597 438.911,-272.295 440.365,-272 531.457,-253.544 555.273,-254.456 646.365,-236 651.019,-235.057 655.849,-234.031 660.68,-232.974"/>
<polygon fill="midnightblue" stroke="midnightblue" points="435.096,-269.511 426.05,-275.026 436.561,-276.356 435.096,-269.511"/>
</g>
<!-- Node12 -->
<g id="node12" class="node"><title>Node12</title>
<g id="a_node12"><a xlink:href="mmu_8cpp.html" target="_top" xlink:title="gaisler/leon3/mmucache\l/mmu.cpp">
<polygon fill="white" stroke="black" points="444.365,-205 444.365,-235 566.365,-235 566.365,-205 444.365,-205"/>
<text text-anchor="start" x="452.365" y="-223" font-family="Helvetica,sans-Serif" font-size="10.00">gaisler/leon3/mmucache</text>
<text text-anchor="middle" x="505.365" y="-212" font-family="Helvetica,sans-Serif" font-size="10.00">/mmu.cpp</text>
</a>
</g>
</g>
<!-- Node2&#45;&gt;Node12 -->
<g id="edge16" class="edge"><title>Node2&#45;&gt;Node12</title>
<path fill="none" stroke="midnightblue" d="M412.402,-268.197C433.116,-257.68 458.512,-244.787 477.523,-235.135"/>
<polygon fill="midnightblue" stroke="midnightblue" points="410.586,-265.194 403.253,-272.841 413.754,-271.435 410.586,-265.194"/>
</g>
<!-- Node4 -->
<g id="node4" class="node"><title>Node4</title>
<g id="a_node4"><a xlink:href="gaisler_2leon3_2leon3_8h.html" target="_top" xlink:title="gaisler/leon3/leon3.h">
<polygon fill="white" stroke="black" points="265.365,-74.5 265.365,-93.5 371.365,-93.5 371.365,-74.5 265.365,-74.5"/>
<text text-anchor="middle" x="318.365" y="-81.5" font-family="Helvetica,sans-Serif" font-size="10.00">gaisler/leon3/leon3.h</text>
</a>
</g>
</g>
<!-- Node3&#45;&gt;Node4 -->
<g id="edge3" class="edge"><title>Node3&#45;&gt;Node4</title>
<path fill="none" stroke="midnightblue" d="M304.976,-127.08C308.66,-115.502 312.858,-102.308 315.556,-93.8283"/>
<polygon fill="midnightblue" stroke="midnightblue" points="301.619,-126.088 301.922,-136.679 308.289,-128.211 301.619,-126.088"/>
</g>
<!-- Node3&#45;&gt;Node7 -->
<g id="edge6" class="edge"><title>Node3&#45;&gt;Node7</title>
<path fill="none" stroke="midnightblue" d="M357.937,-134.945C400.173,-123.75 455.878,-108.984 495.747,-98.4168"/>
<polygon fill="midnightblue" stroke="midnightblue" points="356.824,-131.619 348.054,-137.564 358.617,-138.385 356.824,-131.619"/>
</g>
<!-- Node3&#45;&gt;Node8 -->
<g id="edge7" class="edge"><title>Node3&#45;&gt;Node8</title>
<path fill="none" stroke="midnightblue" d="M267.029,-131.176C251.196,-120.83 232.199,-108.416 217.891,-99.0663"/>
<polygon fill="midnightblue" stroke="midnightblue" points="265.164,-134.139 275.45,-136.679 268.993,-128.279 265.164,-134.139"/>
</g>
<!-- Node5 -->
<g id="node5" class="node"><title>Node5</title>
<g id="a_node5"><a xlink:href="sc__main_8cpp.html" target="_top" xlink:title="core/platforms/leon3mp\l/sc_main.cpp">
<polygon fill="white" stroke="black" points="190.865,-1 190.865,-31 309.865,-31 309.865,-1 190.865,-1"/>
<text text-anchor="start" x="198.865" y="-19" font-family="Helvetica,sans-Serif" font-size="10.00">core/platforms/leon3mp</text>
<text text-anchor="middle" x="250.365" y="-8" font-family="Helvetica,sans-Serif" font-size="10.00">/sc_main.cpp</text>
</a>
</g>
</g>
<!-- Node4&#45;&gt;Node5 -->
<g id="edge4" class="edge"><title>Node4&#45;&gt;Node5</title>
<path fill="none" stroke="midnightblue" d="M302.002,-67.1185C290.722,-56.1696 275.859,-41.7438 264.976,-31.1815"/>
<polygon fill="midnightblue" stroke="midnightblue" points="299.862,-69.9184 309.475,-74.3717 304.737,-64.8953 299.862,-69.9184"/>
</g>
<!-- Node6 -->
<g id="node6" class="node"><title>Node6</title>
<g id="a_node6"><a xlink:href="leon3_8cpp.html" target="_top" xlink:title="gaisler/leon3/leon3.cpp">
<polygon fill="white" stroke="black" points="328.365,-6.5 328.365,-25.5 444.365,-25.5 444.365,-6.5 328.365,-6.5"/>
<text text-anchor="middle" x="386.365" y="-13.5" font-family="Helvetica,sans-Serif" font-size="10.00">gaisler/leon3/leon3.cpp</text>
</a>
</g>
</g>
<!-- Node4&#45;&gt;Node6 -->
<g id="edge5" class="edge"><title>Node4&#45;&gt;Node6</title>
<path fill="none" stroke="midnightblue" d="M334.801,-67.0474C348.129,-54.1111 366.422,-36.3567 377.256,-25.8411"/>
<polygon fill="midnightblue" stroke="midnightblue" points="331.993,-64.8953 327.255,-74.3717 336.868,-69.9184 331.993,-64.8953"/>
</g>
<!-- Node9&#45;&gt;Node3 -->
<g id="edge9" class="edge"><title>Node9&#45;&gt;Node3</title>
<path fill="none" stroke="midnightblue" d="M350.569,-198.018C338.628,-187.915 324.629,-176.07 313.989,-167.066"/>
<polygon fill="midnightblue" stroke="midnightblue" points="348.546,-200.891 358.44,-204.679 353.067,-195.548 348.546,-200.891"/>
</g>
<!-- Node9&#45;&gt;Node8 -->
<g id="edge11" class="edge"><title>Node9&#45;&gt;Node8</title>
<path fill="none" stroke="midnightblue" d="M375.926,-194.531C375.031,-176.232 370.853,-151.751 356.365,-136 348.668,-127.631 290.937,-110.524 247.01,-98.4354"/>
<polygon fill="midnightblue" stroke="midnightblue" points="372.431,-194.805 376.125,-204.735 379.43,-194.669 372.431,-194.805"/>
</g>
<!-- Node9&#45;&gt;Node10 -->
<g id="edge10" class="edge"><title>Node9&#45;&gt;Node10</title>
<path fill="none" stroke="midnightblue" d="M412.117,-200.197C432.672,-189.68 457.873,-176.787 476.737,-167.135"/>
<polygon fill="midnightblue" stroke="midnightblue" points="410.347,-197.171 403.039,-204.841 413.535,-203.402 410.347,-197.171"/>
</g>
<!-- Node13&#45;&gt;Node3 -->
<g id="edge18" class="edge"><title>Node13&#45;&gt;Node3</title>
<path fill="none" stroke="midnightblue" d="M182.512,-265.628C199.219,-248.798 223.171,-224.79 244.365,-204 257.127,-191.481 271.782,-177.402 282.442,-167.213"/>
<polygon fill="midnightblue" stroke="midnightblue" points="179.938,-263.254 175.381,-272.819 184.908,-268.183 179.938,-263.254"/>
</g>
<!-- Node13&#45;&gt;Node8 -->
<g id="edge20" class="edge"><title>Node13&#45;&gt;Node8</title>
<path fill="none" stroke="midnightblue" d="M165.567,-262.75C172.943,-220.18 187.998,-133.291 193.907,-99.1886"/>
<polygon fill="midnightblue" stroke="midnightblue" points="162.085,-262.345 163.826,-272.796 168.982,-263.54 162.085,-262.345"/>
</g>
<!-- Node13&#45;&gt;Node14 -->
<g id="edge19" class="edge"><title>Node13&#45;&gt;Node14</title>
<path fill="none" stroke="midnightblue" d="M132.112,-266.888C117.147,-256.6 99.2987,-244.329 85.8252,-235.066"/>
<polygon fill="midnightblue" stroke="midnightblue" points="130.311,-269.898 140.535,-272.679 134.277,-264.129 130.311,-269.898"/>
</g>
</g>
</svg>
        <g id="navigator" transform="translate(0 0)" fill="#404254">
                <rect fill="#f2f5e9" fill-opacity="0.5" stroke="#606060" stroke-width=".5" x="0" y="0" width="60" height="60"/>
                <use id="zoomplus" xlink:href="#zoomPlus" x="17" y="9" onmousedown="handleZoom(evt,'in')"/>
                <use id="zoomminus" xlink:href="#zoomMin" x="42" y="9" onmousedown="handleZoom(evt,'out')"/>
                <use id="reset" xlink:href="#resetDef" x="30" y="36" onmousedown="handleReset()"/>
                <g id="arrowUp" xlink:href="#dirArrow" transform="translate(30 24)" onmousedown="handlePan(0,-1)">
                  <use xlink:href="#rim" fill="#404040">
                        <set attributeName="fill" to="#808080" begin="arrowUp.mouseover" end="arrowUp.mouseout"/>
                  </use>
                  <path fill="none" stroke="white" stroke-width="1.5" d="M0,-3.0v7 M-2.5,-0.5L0,-3.0L2.5,-0.5"/>
                </g>
                <g id="arrowRight" xlink:href="#dirArrow" transform="rotate(90) translate(36 -43)" onmousedown="handlePan(1,0)">
                  <use xlink:href="#rim" fill="#404040">
                        <set attributeName="fill" to="#808080" begin="arrowRight.mouseover" end="arrowRight.mouseout"/>
                  </use>
                  <path fill="none" stroke="white" stroke-width="1.5" d="M0,-3.0v7 M-2.5,-0.5L0,-3.0L2.5,-0.5"/>
                </g>
                <g id="arrowDown" xlink:href="#dirArrow" transform="rotate(180) translate(-30 -48)" onmousedown="handlePan(0,1)">
                  <use xlink:href="#rim" fill="#404040">
                        <set attributeName="fill" to="#808080" begin="arrowDown.mouseover" end="arrowDown.mouseout"/>
                  </use>
                  <path fill="none" stroke="white" stroke-width="1.5" d="M0,-3.0v7 M-2.5,-0.5L0,-3.0L2.5,-0.5"/>
                </g>
                <g id="arrowLeft" xlink:href="#dirArrow" transform="rotate(270) translate(-36 17)" onmousedown="handlePan(-1,0)">
                  <use xlink:href="#rim" fill="#404040">
                        <set attributeName="fill" to="#808080" begin="arrowLeft.mouseover" end="arrowLeft.mouseout"/>
                  </use>
                  <path fill="none" stroke="white" stroke-width="1.5" d="M0,-3.0v7 M-2.5,-0.5L0,-3.0L2.5,-0.5"/>
                </g>
        </g>
        <svg viewBox="0 0 15 15" width="100%" height="30px" preserveAspectRatio="xMaxYMin meet">
         <g id="arrow_out" transform="scale(0.3 0.3)">
          <a xlink:href="alias_8hpp__dep__incl_org.svg" target="_base">
           <rect id="button" ry="5" rx="5" y="6" x="6" height="38" width="38"
                fill="#f2f5e9" fill-opacity="0.5" stroke="#606060" stroke-width="1.0"/>
           <path id="arrow"
             d="M 11.500037,31.436501 C 11.940474,20.09759 22.043105,11.32322 32.158766,21.979434 L 37.068811,17.246167 C 37.068811,17.246167 37.088388,32 37.088388,32 L 22.160133,31.978069 C 22.160133,31.978069 26.997745,27.140456 26.997745,27.140456 C 18.528582,18.264221 13.291696,25.230495 11.500037,31.436501 z"
             style="fill:#404040;"/>
          </a>
         </g>
        </svg>
</svg>
