<?xml version="1.0" encoding="UTF-8" standalone="no"?>
<!DOCTYPE svg PUBLIC "-//W3C//DTD SVG 1.1//EN"
 "http://www.w3.org/Graphics/SVG/1.1/DTD/svg11.dtd">
<!-- Generated by graphviz version 2.26.0 (20091210.2329)
 -->
<!-- Title: core/models/utils/apbdevicebase.h Pages: 1 -->
<svg width="2178pt" height="564pt"
 viewBox="0.00 0.00 2177.59 564.00" xmlns="http://www.w3.org/2000/svg" xmlns:xlink="http://www.w3.org/1999/xlink">
<g id="graph1" class="graph" transform="scale(1 1) rotate(0) translate(4 560)">
<title>core/models/utils/apbdevicebase.h</title>
<polygon fill="white" stroke="white" points="-4,5 -4,-560 2174.59,-560 2174.59,5 -4,5"/>
<!-- Node1 -->
<g id="node1" class="node"><title>Node1</title>
<polygon fill="#bfbfbf" stroke="black" points="1510.5,-534.5 1510.5,-555.5 1677.5,-555.5 1677.5,-534.5 1510.5,-534.5"/>
<text text-anchor="middle" x="1594" y="-542.5" font-family="Helvetica,sans-Serif" font-size="10.00">core/models/utils/apbdevicebase.h</text>
</g>
<!-- Node2 -->
<g id="node3" class="node"><title>Node2</title>
<a xlink:href="common_2amba_8h.html" target="_top" xlink:title="core/common/amba.h">
<polygon fill="white" stroke="black" points="1538.5,-476.5 1538.5,-497.5 1649.5,-497.5 1649.5,-476.5 1538.5,-476.5"/>
<text text-anchor="middle" x="1594" y="-484.5" font-family="Helvetica,sans-Serif" font-size="10.00">core/common/amba.h</text>
</a>
</g>
<!-- Node1&#45;&gt;Node2 -->
<g id="edge2" class="edge"><title>Node1&#45;&gt;Node2</title>
<path fill="none" stroke="midnightblue" d="M1594,-534.362C1594,-526.922 1594,-516.743 1594,-507.728"/>
<polygon fill="midnightblue" stroke="midnightblue" points="1597.5,-507.571 1594,-497.571 1590.5,-507.571 1597.5,-507.571"/>
</g>
<!-- Node8 -->
<g id="node16" class="node"><title>Node8</title>
<a xlink:href="base_8h.html" target="_top" xlink:title="core/common/base.h">
<polygon fill="white" stroke="black" points="1357,-418.5 1357,-439.5 1465,-439.5 1465,-418.5 1357,-418.5"/>
<text text-anchor="middle" x="1411" y="-426.5" font-family="Helvetica,sans-Serif" font-size="10.00">core/common/base.h</text>
</a>
</g>
<!-- Node1&#45;&gt;Node8 -->
<g id="edge120" class="edge"><title>Node1&#45;&gt;Node8</title>
<path fill="none" stroke="midnightblue" d="M1577.11,-534.295C1544.89,-513.871 1474.48,-469.238 1436.5,-445.162"/>
<polygon fill="midnightblue" stroke="midnightblue" points="1437.9,-441.909 1427.58,-439.512 1434.16,-447.822 1437.9,-441.909"/>
</g>
<!-- Node20 -->
<g id="node43" class="node"><title>Node20</title>
<polygon fill="white" stroke="#bfbfbf" points="1711.5,-72.5 1711.5,-93.5 1760.5,-93.5 1760.5,-72.5 1711.5,-72.5"/>
<text text-anchor="middle" x="1736" y="-80.5" font-family="Helvetica,sans-Serif" font-size="10.00">stdint.h</text>
</g>
<!-- Node1&#45;&gt;Node20 -->
<g id="edge118" class="edge"><title>Node1&#45;&gt;Node20</title>
<path fill="none" stroke="midnightblue" d="M1677.51,-536.506C1835.39,-519.314 2162,-477.845 2162,-429 2162,-429 2162,-429 2162,-220 2162,-200.294 2217.58,-203.429 2026,-130 1938.08,-96.3031 1826.16,-86.7646 1770.57,-84.0651"/>
<polygon fill="midnightblue" stroke="midnightblue" points="1770.69,-80.5671 1760.55,-83.6237 1770.39,-87.5603 1770.69,-80.5671"/>
</g>
<!-- Node3 -->
<g id="node5" class="node"><title>Node3</title>
<a xlink:href="systemc_8h.html" target="_top" xlink:title="core/common/systemc.h">
<polygon fill="white" stroke="black" points="1185.5,-72.5 1185.5,-93.5 1310.5,-93.5 1310.5,-72.5 1185.5,-72.5"/>
<text text-anchor="middle" x="1248" y="-80.5" font-family="Helvetica,sans-Serif" font-size="10.00">core/common/systemc.h</text>
</a>
</g>
<!-- Node2&#45;&gt;Node3 -->
<g id="edge4" class="edge"><title>Node2&#45;&gt;Node3</title>
<path fill="none" stroke="midnightblue" d="M1649.72,-485.796C1785.79,-481.35 2124,-460.585 2124,-364 2124,-364 2124,-364 2124,-220 2124,-122.12 2017.95,-153.765 1923,-130 1810.63,-101.874 1470.79,-89.1897 1320.65,-84.8474"/>
<polygon fill="midnightblue" stroke="midnightblue" points="1320.7,-81.3475 1310.6,-84.5612 1320.5,-88.3447 1320.7,-81.3475"/>
</g>
<!-- Node2&#45;&gt;Node8 -->
<g id="edge16" class="edge"><title>Node2&#45;&gt;Node8</title>
<path fill="none" stroke="midnightblue" d="M1560.86,-476.497C1530.9,-467 1486.6,-452.962 1453.94,-442.609"/>
<polygon fill="midnightblue" stroke="midnightblue" points="1454.79,-439.208 1444.2,-439.523 1452.68,-445.881 1454.79,-439.208"/>
</g>
<!-- Node32 -->
<g id="node71" class="node"><title>Node32</title>
<a xlink:href="report_8h.html" target="_top" xlink:title="core/common/report.h">
<polygon fill="white" stroke="black" points="1685,-353.5 1685,-374.5 1797,-374.5 1797,-353.5 1685,-353.5"/>
<text text-anchor="middle" x="1741" y="-361.5" font-family="Helvetica,sans-Serif" font-size="10.00">core/common/report.h</text>
</a>
</g>
<!-- Node2&#45;&gt;Node32 -->
<g id="edge112" class="edge"><title>Node2&#45;&gt;Node32</title>
<path fill="none" stroke="midnightblue" d="M1606.79,-476.3C1632.2,-455.037 1689.26,-407.294 1720.16,-381.436"/>
<polygon fill="midnightblue" stroke="midnightblue" points="1722.71,-383.865 1728.14,-374.763 1718.22,-378.496 1722.71,-383.865"/>
</g>
<!-- Node35 -->
<g id="node79" class="node"><title>Node35</title>
<polygon fill="white" stroke="#bfbfbf" points="1275.5,-209.5 1275.5,-230.5 1378.5,-230.5 1378.5,-209.5 1275.5,-209.5"/>
<text text-anchor="middle" x="1327" y="-217.5" font-family="Helvetica,sans-Serif" font-size="10.00">greenreg/greenreg.h</text>
</g>
<!-- Node2&#45;&gt;Node35 -->
<g id="edge114" class="edge"><title>Node2&#45;&gt;Node35</title>
<path fill="none" stroke="midnightblue" d="M1583.86,-476.498C1566.95,-458.48 1532.76,-419.943 1512,-382 1487.57,-337.361 1509.73,-310.227 1474,-274 1466.35,-266.244 1410.65,-247.031 1370.07,-233.749"/>
<polygon fill="midnightblue" stroke="midnightblue" points="1370.97,-230.361 1360.38,-230.594 1368.81,-237.017 1370.97,-230.361"/>
</g>
<!-- Node36 -->
<g id="node81" class="node"><title>Node36</title>
<a xlink:href="greenreg__ambasockets_8h.html" target="_top" xlink:title="core/common/grambasockets\l/greenreg_ambasockets.h">
<polygon fill="white" stroke="black" points="1521,-347 1521,-381 1667,-381 1667,-347 1521,-347"/>
<text text-anchor="start" x="1529" y="-368" font-family="Helvetica,sans-Serif" font-size="10.00">core/common/grambasockets</text>
<text text-anchor="middle" x="1594" y="-355" font-family="Helvetica,sans-Serif" font-size="10.00">/greenreg_ambasockets.h</text>
</a>
</g>
<!-- Node2&#45;&gt;Node36 -->
<g id="edge116" class="edge"><title>Node2&#45;&gt;Node36</title>
<path fill="none" stroke="midnightblue" d="M1594,-476.085C1594,-457.275 1594,-418.21 1594,-391.547"/>
<polygon fill="midnightblue" stroke="midnightblue" points="1597.5,-391.317 1594,-381.317 1590.5,-391.317 1597.5,-391.317"/>
</g>
<!-- Node3&#45;&gt;Node3 -->
<g id="edge6" class="edge"><title>Node3&#45;&gt;Node3</title>
<path fill="none" stroke="midnightblue" d="M1279.62,-93.5168C1303.64,-97.3181 1328,-93.8125 1328,-83 1328,-73.708 1310.01,-69.8123 1289.71,-71.313"/>
<polygon fill="midnightblue" stroke="midnightblue" points="1289.15,-67.8539 1279.62,-72.4832 1289.96,-74.8073 1289.15,-67.8539"/>
</g>
<!-- Node4 -->
<g id="node8" class="node"><title>Node4</title>
<polygon fill="white" stroke="#bfbfbf" points="1067,-7.5 1067,-28.5 1105,-28.5 1105,-7.5 1067,-7.5"/>
<text text-anchor="middle" x="1086" y="-15.5" font-family="Helvetica,sans-Serif" font-size="10.00">tlm.h</text>
</g>
<!-- Node3&#45;&gt;Node4 -->
<g id="edge8" class="edge"><title>Node3&#45;&gt;Node4</title>
<path fill="none" stroke="midnightblue" d="M1210.66,-72.4802C1183.24,-64.1443 1145.46,-51.3638 1114,-36 1112.64,-35.3343 1111.26,-34.6158 1109.88,-33.8624"/>
<polygon fill="midnightblue" stroke="midnightblue" points="1111.41,-30.6958 1101.03,-28.5728 1107.82,-36.7054 1111.41,-30.6958"/>
</g>
<!-- Node5 -->
<g id="node10" class="node"><title>Node5</title>
<polygon fill="white" stroke="#bfbfbf" points="1122.5,-1 1122.5,-35 1237.5,-35 1237.5,-1 1122.5,-1"/>
<text text-anchor="start" x="1130.5" y="-22" font-family="Helvetica,sans-Serif" font-size="10.00">tlm_utils/simple_target</text>
<text text-anchor="middle" x="1180" y="-9" font-family="Helvetica,sans-Serif" font-size="10.00">_socket.h</text>
</g>
<!-- Node3&#45;&gt;Node5 -->
<g id="edge10" class="edge"><title>Node3&#45;&gt;Node5</title>
<path fill="none" stroke="midnightblue" d="M1236.77,-72.2666C1228.19,-64.0633 1216.03,-52.436 1205.16,-42.047"/>
<polygon fill="midnightblue" stroke="midnightblue" points="1207.55,-39.4896 1197.9,-35.1099 1202.71,-44.5498 1207.55,-39.4896"/>
</g>
<!-- Node6 -->
<g id="node12" class="node"><title>Node6</title>
<polygon fill="white" stroke="#bfbfbf" points="1255,-1 1255,-35 1377,-35 1377,-1 1255,-1"/>
<text text-anchor="start" x="1263" y="-22" font-family="Helvetica,sans-Serif" font-size="10.00">tlm_utils/simple_initiator</text>
<text text-anchor="middle" x="1316" y="-9" font-family="Helvetica,sans-Serif" font-size="10.00">_socket.h</text>
</g>
<!-- Node3&#45;&gt;Node6 -->
<g id="edge12" class="edge"><title>Node3&#45;&gt;Node6</title>
<path fill="none" stroke="midnightblue" d="M1259.23,-72.2666C1267.81,-64.0633 1279.97,-52.436 1290.84,-42.047"/>
<polygon fill="midnightblue" stroke="midnightblue" points="1293.29,-44.5498 1298.1,-35.1099 1288.45,-39.4896 1293.29,-44.5498"/>
</g>
<!-- Node7 -->
<g id="node14" class="node"><title>Node7</title>
<polygon fill="white" stroke="#bfbfbf" points="1394.5,-1 1394.5,-35 1489.5,-35 1489.5,-1 1394.5,-1"/>
<text text-anchor="start" x="1402.5" y="-22" font-family="Helvetica,sans-Serif" font-size="10.00">tlm_utils/peq_with</text>
<text text-anchor="middle" x="1442" y="-9" font-family="Helvetica,sans-Serif" font-size="10.00">_get.h</text>
</g>
<!-- Node3&#45;&gt;Node7 -->
<g id="edge14" class="edge"><title>Node3&#45;&gt;Node7</title>
<path fill="none" stroke="midnightblue" d="M1279.6,-72.412C1307.94,-62.9169 1350.22,-48.7511 1384.54,-37.2537"/>
<polygon fill="midnightblue" stroke="midnightblue" points="1386.07,-40.4296 1394.44,-33.9339 1383.85,-33.7923 1386.07,-40.4296"/>
</g>
<!-- Node8&#45;&gt;Node3 -->
<g id="edge18" class="edge"><title>Node8&#45;&gt;Node3</title>
<path fill="none" stroke="midnightblue" d="M1378.8,-418.436C1331.29,-400.588 1248,-359.649 1248,-292 1248,-292 1248,-292 1248,-220 1248,-178.793 1248,-130.614 1248,-103.773"/>
<polygon fill="midnightblue" stroke="midnightblue" points="1251.5,-103.658 1248,-93.6583 1244.5,-103.658 1251.5,-103.658"/>
</g>
<!-- Node9 -->
<g id="node19" class="node"><title>Node9</title>
<a xlink:href="gs__config_8h.html" target="_top" xlink:title="core/common/gs_config.h">
<polygon fill="white" stroke="black" points="875.5,-353.5 875.5,-374.5 1004.5,-374.5 1004.5,-353.5 875.5,-353.5"/>
<text text-anchor="middle" x="940" y="-361.5" font-family="Helvetica,sans-Serif" font-size="10.00">core/common/gs_config.h</text>
</a>
</g>
<!-- Node8&#45;&gt;Node9 -->
<g id="edge20" class="edge"><title>Node8&#45;&gt;Node9</title>
<path fill="none" stroke="midnightblue" d="M1356.97,-421.544C1272.81,-409.929 1110.18,-387.486 1014.8,-374.323"/>
<polygon fill="midnightblue" stroke="midnightblue" points="1015.03,-370.822 1004.65,-372.922 1014.08,-377.756 1015.03,-370.822"/>
</g>
<!-- Node8&#45;&gt;Node32 -->
<g id="edge78" class="edge"><title>Node8&#45;&gt;Node32</title>
<path fill="none" stroke="midnightblue" d="M1465.1,-420.942C1518.87,-412.573 1603.54,-398.419 1676,-382 1682.3,-380.573 1688.89,-378.927 1695.37,-377.221"/>
<polygon fill="midnightblue" stroke="midnightblue" points="1696.65,-380.5 1705.39,-374.514 1694.83,-373.743 1696.65,-380.5"/>
</g>
<!-- Node8&#45;&gt;Node35 -->
<g id="edge88" class="edge"><title>Node8&#45;&gt;Node35</title>
<path fill="none" stroke="midnightblue" d="M1403.78,-418.355C1390.4,-398.135 1361.67,-352.396 1346,-310 1337.48,-286.943 1332.34,-259.076 1329.59,-240.518"/>
<polygon fill="midnightblue" stroke="midnightblue" points="1333.05,-239.961 1328.21,-230.534 1326.11,-240.918 1333.05,-239.961"/>
</g>
<!-- Node8&#45;&gt;Node36 -->
<g id="edge90" class="edge"><title>Node8&#45;&gt;Node36</title>
<path fill="none" stroke="midnightblue" d="M1440.81,-418.412C1466.6,-409.251 1504.63,-395.742 1536.35,-384.477"/>
<polygon fill="midnightblue" stroke="midnightblue" points="1537.72,-387.706 1545.97,-381.06 1535.37,-381.109 1537.72,-387.706"/>
</g>
<!-- Node10 -->
<g id="node21" class="node"><title>Node10</title>
<polygon fill="white" stroke="#bfbfbf" points="547.5,-281.5 547.5,-302.5 654.5,-302.5 654.5,-281.5 547.5,-281.5"/>
<text text-anchor="middle" x="601" y="-289.5" font-family="Helvetica,sans-Serif" font-size="10.00">greencontrol/config.h</text>
</g>
<!-- Node9&#45;&gt;Node10 -->
<g id="edge22" class="edge"><title>Node9&#45;&gt;Node10</title>
<path fill="none" stroke="midnightblue" d="M877.495,-353.473C821.124,-343.587 736.096,-327.698 663,-310 657.208,-308.598 651.147,-307.001 645.179,-305.352"/>
<polygon fill="midnightblue" stroke="midnightblue" points="645.862,-301.908 635.287,-302.551 643.955,-308.643 645.862,-301.908"/>
</g>
<!-- Node11 -->
<g id="node23" class="node"><title>Node11</title>
<a xlink:href="gs__config_2gs__config_8h.html" target="_top" xlink:title="core/common/gs_config\l/gs_config.h">
<polygon fill="white" stroke="black" points="1087.5,-275 1087.5,-309 1208.5,-309 1208.5,-275 1087.5,-275"/>
<text text-anchor="start" x="1095.5" y="-296" font-family="Helvetica,sans-Serif" font-size="10.00">core/common/gs_config</text>
<text text-anchor="middle" x="1148" y="-283" font-family="Helvetica,sans-Serif" font-size="10.00">/gs_config.h</text>
</a>
</g>
<!-- Node9&#45;&gt;Node11 -->
<g id="edge24" class="edge"><title>Node9&#45;&gt;Node11</title>
<path fill="none" stroke="midnightblue" d="M970.691,-353.376C1001.74,-342.63 1050.51,-325.746 1089.05,-312.404"/>
<polygon fill="midnightblue" stroke="midnightblue" points="1090.31,-315.673 1098.62,-309.094 1088.02,-309.058 1090.31,-315.673"/>
</g>
<!-- Node14 -->
<g id="node29" class="node"><title>Node14</title>
<a xlink:href="gs__config__class_8h.html" target="_top" xlink:title="core/common/gs_config\l/gs_config_class.h">
<polygon fill="white" stroke="black" points="671.5,-275 671.5,-309 792.5,-309 792.5,-275 671.5,-275"/>
<text text-anchor="start" x="679.5" y="-296" font-family="Helvetica,sans-Serif" font-size="10.00">core/common/gs_config</text>
<text text-anchor="middle" x="732" y="-283" font-family="Helvetica,sans-Serif" font-size="10.00">/gs_config_class.h</text>
</a>
</g>
<!-- Node9&#45;&gt;Node14 -->
<g id="edge30" class="edge"><title>Node9&#45;&gt;Node14</title>
<path fill="none" stroke="midnightblue" d="M909.309,-353.376C878.264,-342.63 829.488,-325.746 790.945,-312.404"/>
<polygon fill="midnightblue" stroke="midnightblue" points="791.979,-309.058 781.384,-309.094 789.689,-315.673 791.979,-309.058"/>
</g>
<!-- Node12 -->
<g id="node25" class="node"><title>Node12</title>
<polygon fill="white" stroke="#bfbfbf" points="1127.5,-209.5 1127.5,-230.5 1168.5,-230.5 1168.5,-209.5 1127.5,-209.5"/>
<text text-anchor="middle" x="1148" y="-217.5" font-family="Helvetica,sans-Serif" font-size="10.00">string</text>
</g>
<!-- Node11&#45;&gt;Node12 -->
<g id="edge26" class="edge"><title>Node11&#45;&gt;Node12</title>
<path fill="none" stroke="midnightblue" d="M1148,-274.937C1148,-264.814 1148,-251.898 1148,-241.133"/>
<polygon fill="midnightblue" stroke="midnightblue" points="1151.5,-240.901 1148,-230.901 1144.5,-240.901 1151.5,-240.901"/>
</g>
<!-- Node13 -->
<g id="node27" class="node"><title>Node13</title>
<polygon fill="white" stroke="#bfbfbf" points="1185.5,-209.5 1185.5,-230.5 1220.5,-230.5 1220.5,-209.5 1185.5,-209.5"/>
<text text-anchor="middle" x="1203" y="-217.5" font-family="Helvetica,sans-Serif" font-size="10.00">map</text>
</g>
<!-- Node11&#45;&gt;Node13 -->
<g id="edge28" class="edge"><title>Node11&#45;&gt;Node13</title>
<path fill="none" stroke="midnightblue" d="M1161.03,-274.937C1169.26,-264.174 1179.89,-250.255 1188.39,-239.12"/>
<polygon fill="midnightblue" stroke="midnightblue" points="1191.38,-240.972 1194.67,-230.901 1185.82,-236.723 1191.38,-240.972"/>
</g>
<!-- Node14&#45;&gt;Node12 -->
<g id="edge32" class="edge"><title>Node14&#45;&gt;Node12</title>
<path fill="none" stroke="midnightblue" d="M792.666,-289.873C869.254,-285.739 1004.26,-273.597 1114,-238 1116.59,-237.16 1119.22,-236.13 1121.81,-234.993"/>
<polygon fill="midnightblue" stroke="midnightblue" points="1123.43,-238.097 1130.86,-230.551 1120.35,-231.812 1123.43,-238.097"/>
</g>
<!-- Node15 -->
<g id="node32" class="node"><title>Node15</title>
<polygon fill="white" stroke="#bfbfbf" points="812,-72.5 812,-93.5 866,-93.5 866,-72.5 812,-72.5"/>
<text text-anchor="middle" x="839" y="-80.5" font-family="Helvetica,sans-Serif" font-size="10.00">iostream</text>
</g>
<!-- Node14&#45;&gt;Node15 -->
<g id="edge34" class="edge"><title>Node14&#45;&gt;Node15</title>
<path fill="none" stroke="midnightblue" d="M671.454,-276.053C668.598,-275.349 665.77,-274.661 663,-274 584.78,-255.324 444.116,-262.584 497,-202 535.936,-157.394 708.372,-193.131 761,-166 789.677,-151.216 813.484,-121.562 826.98,-101.998"/>
<polygon fill="midnightblue" stroke="midnightblue" points="829.968,-103.825 832.594,-93.5608 824.141,-99.9468 829.968,-103.825"/>
</g>
<!-- Node16 -->
<g id="node34" class="node"><title>Node16</title>
<polygon fill="white" stroke="#bfbfbf" points="140,-209.5 140,-230.5 192,-230.5 192,-209.5 140,-209.5"/>
<text text-anchor="middle" x="166" y="-217.5" font-family="Helvetica,sans-Serif" font-size="10.00">sstream</text>
</g>
<!-- Node14&#45;&gt;Node16 -->
<g id="edge36" class="edge"><title>Node14&#45;&gt;Node16</title>
<path fill="none" stroke="midnightblue" d="M671.174,-275.507C668.42,-274.958 665.686,-274.451 663,-274 459.892,-239.872 399.139,-294.202 201,-238 198.165,-237.196 195.292,-236.152 192.474,-234.972"/>
<polygon fill="midnightblue" stroke="midnightblue" points="193.777,-231.715 183.242,-230.585 190.772,-238.038 193.777,-231.715"/>
</g>
<!-- Node17 -->
<g id="node36" class="node"><title>Node17</title>
<polygon fill="white" stroke="#bfbfbf" points="210,-209.5 210,-230.5 312,-230.5 312,-209.5 210,-209.5"/>
<text text-anchor="middle" x="261" y="-217.5" font-family="Helvetica,sans-Serif" font-size="10.00">boost/tokenizer.hpp</text>
</g>
<!-- Node14&#45;&gt;Node17 -->
<g id="edge38" class="edge"><title>Node14&#45;&gt;Node17</title>
<path fill="none" stroke="midnightblue" d="M671.158,-275.598C668.408,-275.024 665.68,-274.488 663,-274 512.63,-246.633 470.849,-268.09 321,-238 314.772,-236.749 308.263,-235.133 301.925,-233.382"/>
<polygon fill="midnightblue" stroke="midnightblue" points="302.751,-229.977 292.172,-230.553 300.801,-236.7 302.751,-229.977"/>
</g>
<!-- Node18 -->
<g id="node38" class="node"><title>Node18</title>
<a xlink:href="common_8h.html" target="_top" xlink:title="core/common/common.h">
<polygon fill="white" stroke="black" points="947.5,-209.5 947.5,-230.5 1072.5,-230.5 1072.5,-209.5 947.5,-209.5"/>
<text text-anchor="middle" x="1010" y="-217.5" font-family="Helvetica,sans-Serif" font-size="10.00">core/common/common.h</text>
</a>
</g>
<!-- Node14&#45;&gt;Node18 -->
<g id="edge40" class="edge"><title>Node14&#45;&gt;Node18</title>
<path fill="none" stroke="midnightblue" d="M792.665,-276.288C842.527,-263.374 912.356,-245.289 959.283,-233.135"/>
<polygon fill="midnightblue" stroke="midnightblue" points="960.423,-236.456 969.226,-230.56 958.668,-229.679 960.423,-236.456"/>
</g>
<!-- Node26 -->
<g id="node58" class="node"><title>Node26</title>
<a xlink:href="gs__config__t_8h.html" target="_top" xlink:title="core/common/gs_config\l/gs_config_t.h">
<polygon fill="white" stroke="black" points="329.5,-203 329.5,-237 450.5,-237 450.5,-203 329.5,-203"/>
<text text-anchor="start" x="337.5" y="-224" font-family="Helvetica,sans-Serif" font-size="10.00">core/common/gs_config</text>
<text text-anchor="middle" x="390" y="-211" font-family="Helvetica,sans-Serif" font-size="10.00">/gs_config_t.h</text>
</a>
</g>
<!-- Node14&#45;&gt;Node26 -->
<g id="edge64" class="edge"><title>Node14&#45;&gt;Node26</title>
<path fill="none" stroke="midnightblue" d="M671.481,-275.934C668.619,-275.262 665.781,-274.613 663,-274 575.229,-254.642 551.928,-256.63 464,-238 462.901,-237.767 461.793,-237.53 460.678,-237.289"/>
<polygon fill="midnightblue" stroke="midnightblue" points="461.03,-233.782 450.509,-235.03 459.512,-240.615 461.03,-233.782"/>
</g>
<!-- Node27 -->
<g id="node60" class="node"><title>Node27</title>
<a xlink:href="gs__config__operator__macros_8h.html" target="_top" xlink:title="core/common/gs_config\l/gs_config_operator_macros.h">
<polygon fill="white" stroke="black" points="506,-203 506,-237 654,-237 654,-203 506,-203"/>
<text text-anchor="start" x="514" y="-224" font-family="Helvetica,sans-Serif" font-size="10.00">core/common/gs_config</text>
<text text-anchor="middle" x="580" y="-211" font-family="Helvetica,sans-Serif" font-size="10.00">/gs_config_operator_macros.h</text>
</a>
</g>
<!-- Node14&#45;&gt;Node27 -->
<g id="edge66" class="edge"><title>Node14&#45;&gt;Node27</title>
<path fill="none" stroke="midnightblue" d="M695.978,-274.937C674.759,-264.886 647.728,-252.082 625.101,-241.364"/>
<polygon fill="midnightblue" stroke="midnightblue" points="626.562,-238.183 616.026,-237.065 623.565,-244.509 626.562,-238.183"/>
</g>
<!-- Node28 -->
<g id="node62" class="node"><title>Node28</title>
<a xlink:href="gs__config__delegate_8h.html" target="_top" xlink:title="core/common/gs_config\l/gs_config_delegate.h">
<polygon fill="white" stroke="black" points="671.5,-203 671.5,-237 792.5,-237 792.5,-203 671.5,-203"/>
<text text-anchor="start" x="679.5" y="-224" font-family="Helvetica,sans-Serif" font-size="10.00">core/common/gs_config</text>
<text text-anchor="middle" x="732" y="-211" font-family="Helvetica,sans-Serif" font-size="10.00">/gs_config_delegate.h</text>
</a>
</g>
<!-- Node14&#45;&gt;Node28 -->
<g id="edge68" class="edge"><title>Node14&#45;&gt;Node28</title>
<path fill="none" stroke="midnightblue" d="M732,-274.937C732,-266.807 732,-256.876 732,-247.705"/>
<polygon fill="midnightblue" stroke="midnightblue" points="735.5,-247.441 732,-237.441 728.5,-247.441 735.5,-247.441"/>
</g>
<!-- Node29 -->
<g id="node64" class="node"><title>Node29</title>
<a xlink:href="gs__config__native_8hpp.html" target="_top" xlink:title="core/common/gs_config\l/gs_config_native.hpp">
<polygon fill="white" stroke="black" points="809.5,-203 809.5,-237 930.5,-237 930.5,-203 809.5,-203"/>
<text text-anchor="start" x="817.5" y="-224" font-family="Helvetica,sans-Serif" font-size="10.00">core/common/gs_config</text>
<text text-anchor="middle" x="870" y="-211" font-family="Helvetica,sans-Serif" font-size="10.00">/gs_config_native.hpp</text>
</a>
</g>
<!-- Node14&#45;&gt;Node29 -->
<g id="edge70" class="edge"><title>Node14&#45;&gt;Node29</title>
<path fill="none" stroke="midnightblue" d="M764.704,-274.937C783.643,-265.056 807.681,-252.514 828.006,-241.91"/>
<polygon fill="midnightblue" stroke="midnightblue" points="829.806,-244.919 837.052,-237.19 826.568,-238.713 829.806,-244.919"/>
</g>
<!-- Node30 -->
<g id="node66" class="node"><title>Node30</title>
<a xlink:href="gs__config__stdint_8hpp.html" target="_top" xlink:title="core/common/gs_config\l/gs_config_stdint.hpp">
<polygon fill="white" stroke="black" points="1675.5,-131 1675.5,-165 1796.5,-165 1796.5,-131 1675.5,-131"/>
<text text-anchor="start" x="1683.5" y="-152" font-family="Helvetica,sans-Serif" font-size="10.00">core/common/gs_config</text>
<text text-anchor="middle" x="1736" y="-139" font-family="Helvetica,sans-Serif" font-size="10.00">/gs_config_stdint.hpp</text>
</a>
</g>
<!-- Node14&#45;&gt;Node30 -->
<g id="edge72" class="edge"><title>Node14&#45;&gt;Node30</title>
<path fill="none" stroke="midnightblue" d="M792.556,-287.005C878.62,-279.169 1031.39,-262.33 1081,-238 1101.89,-227.756 1097.68,-211.316 1119,-202 1227.99,-154.372 1530.63,-183.899 1665.03,-166.029"/>
<polygon fill="midnightblue" stroke="midnightblue" points="1665.8,-169.453 1675.18,-164.534 1664.78,-162.528 1665.8,-169.453"/>
</g>
<!-- Node31 -->
<g id="node69" class="node"><title>Node31</title>
<a xlink:href="gs__config__systemc_8hpp.html" target="_top" xlink:title="core/common/gs_config\l/gs_config_systemc.hpp">
<polygon fill="white" stroke="black" points="-0.5,-203 -0.5,-237 122.5,-237 122.5,-203 -0.5,-203"/>
<text text-anchor="start" x="7.5" y="-224" font-family="Helvetica,sans-Serif" font-size="10.00">core/common/gs_config</text>
<text text-anchor="middle" x="61" y="-211" font-family="Helvetica,sans-Serif" font-size="10.00">/gs_config_systemc.hpp</text>
</a>
</g>
<!-- Node14&#45;&gt;Node31 -->
<g id="edge76" class="edge"><title>Node14&#45;&gt;Node31</title>
<path fill="none" stroke="midnightblue" d="M671.179,-275.473C668.424,-274.933 665.688,-274.438 663,-274 432.406,-236.462 366.822,-274.559 132.892,-238.14"/>
<polygon fill="midnightblue" stroke="midnightblue" points="133.131,-234.634 122.706,-236.524 132.034,-241.548 133.131,-234.634"/>
</g>
<!-- Node18&#45;&gt;Node3 -->
<g id="edge42" class="edge"><title>Node18&#45;&gt;Node3</title>
<path fill="none" stroke="midnightblue" d="M1028.28,-209.477C1069.9,-185.52 1171.89,-126.809 1220.88,-98.6125"/>
<polygon fill="midnightblue" stroke="midnightblue" points="1222.74,-101.581 1229.66,-93.5585 1219.24,-95.514 1222.74,-101.581"/>
</g>
<!-- Node19 -->
<g id="node41" class="node"><title>Node19</title>
<a xlink:href="vendian_8h.html" target="_top" xlink:title="core/common/vendian.h">
<polygon fill="white" stroke="black" points="1537.5,-137.5 1537.5,-158.5 1658.5,-158.5 1658.5,-137.5 1537.5,-137.5"/>
<text text-anchor="middle" x="1598" y="-145.5" font-family="Helvetica,sans-Serif" font-size="10.00">core/common/vendian.h</text>
</a>
</g>
<!-- Node18&#45;&gt;Node19 -->
<g id="edge44" class="edge"><title>Node18&#45;&gt;Node19</title>
<path fill="none" stroke="midnightblue" d="M1050.43,-209.415C1061.87,-206.696 1074.37,-203.982 1086,-202 1242.37,-175.348 1427.99,-159.697 1527.16,-152.603"/>
<polygon fill="midnightblue" stroke="midnightblue" points="1527.63,-156.078 1537.36,-151.882 1527.14,-149.096 1527.63,-156.078"/>
</g>
<!-- Node21 -->
<g id="node45" class="node"><title>Node21</title>
<a xlink:href="verbose_8h.html" target="_top" xlink:title="Implements a unified output system for messages and debunging. ">
<polygon fill="white" stroke="black" points="630,-137.5 630,-158.5 752,-158.5 752,-137.5 630,-137.5"/>
<text text-anchor="middle" x="691" y="-145.5" font-family="Helvetica,sans-Serif" font-size="10.00">core/common/verbose.h</text>
</a>
</g>
<!-- Node18&#45;&gt;Node21 -->
<g id="edge48" class="edge"><title>Node18&#45;&gt;Node21</title>
<path fill="none" stroke="midnightblue" d="M960.783,-209.482C950.549,-206.965 939.902,-204.333 930,-202 866.533,-187.05 793.577,-171.341 745.045,-160.745"/>
<polygon fill="midnightblue" stroke="midnightblue" points="745.589,-157.281 735.072,-158.564 744.093,-164.12 745.589,-157.281"/>
</g>
<!-- Node19&#45;&gt;Node20 -->
<g id="edge46" class="edge"><title>Node19&#45;&gt;Node20</title>
<path fill="none" stroke="midnightblue" d="M1620.48,-137.412C1643.23,-126.694 1678.62,-110.025 1704.24,-97.9601"/>
<polygon fill="midnightblue" stroke="midnightblue" points="1705.98,-101.011 1713.53,-93.5835 1702.99,-94.6783 1705.98,-101.011"/>
</g>
<!-- Node21&#45;&gt;Node3 -->
<g id="edge62" class="edge"><title>Node21&#45;&gt;Node3</title>
<path fill="none" stroke="midnightblue" d="M752.202,-140.858C855.656,-128.785 1064.63,-104.399 1175.34,-91.4788"/>
<polygon fill="midnightblue" stroke="midnightblue" points="1175.89,-94.9386 1185.42,-90.303 1175.08,-87.9858 1175.89,-94.9386"/>
</g>
<!-- Node21&#45;&gt;Node15 -->
<g id="edge56" class="edge"><title>Node21&#45;&gt;Node15</title>
<path fill="none" stroke="midnightblue" d="M715.108,-137.412C739.727,-126.6 778.136,-109.731 805.661,-97.6422"/>
<polygon fill="midnightblue" stroke="midnightblue" points="807.154,-100.809 814.902,-93.5835 804.339,-94.4002 807.154,-100.809"/>
</g>
<!-- Node21&#45;&gt;Node18 -->
<g id="edge60" class="edge"><title>Node21&#45;&gt;Node18</title>
<path fill="none" stroke="midnightblue" d="M748.8,-158.564C801.15,-169.102 880.019,-185.986 948,-202 954.653,-203.567 961.642,-205.27 968.45,-206.982"/>
<polygon fill="midnightblue" stroke="midnightblue" points="967.678,-210.397 978.233,-209.482 969.412,-203.615 967.678,-210.397"/>
</g>
<!-- Node22 -->
<g id="node47" class="node"><title>Node22</title>
<polygon fill="white" stroke="#bfbfbf" points="541.5,-72.5 541.5,-93.5 584.5,-93.5 584.5,-72.5 541.5,-72.5"/>
<text text-anchor="middle" x="563" y="-80.5" font-family="Helvetica,sans-Serif" font-size="10.00">cstdio</text>
</g>
<!-- Node21&#45;&gt;Node22 -->
<g id="edge50" class="edge"><title>Node21&#45;&gt;Node22</title>
<path fill="none" stroke="midnightblue" d="M670.15,-137.412C649.137,-126.741 616.507,-110.172 592.774,-98.1198"/>
<polygon fill="midnightblue" stroke="midnightblue" points="594.342,-94.9907 583.841,-93.5835 591.173,-101.232 594.342,-94.9907"/>
</g>
<!-- Node23 -->
<g id="node49" class="node"><title>Node23</title>
<polygon fill="white" stroke="#bfbfbf" points="602,-72.5 602,-93.5 648,-93.5 648,-72.5 602,-72.5"/>
<text text-anchor="middle" x="625" y="-80.5" font-family="Helvetica,sans-Serif" font-size="10.00">cstring</text>
</g>
<!-- Node21&#45;&gt;Node23 -->
<g id="edge52" class="edge"><title>Node21&#45;&gt;Node23</title>
<path fill="none" stroke="midnightblue" d="M680.101,-137.267C670.01,-127.328 654.815,-112.363 642.936,-100.664"/>
<polygon fill="midnightblue" stroke="midnightblue" points="645.277,-98.0569 635.696,-93.5337 640.365,-103.044 645.277,-98.0569"/>
</g>
<!-- Node24 -->
<g id="node51" class="node"><title>Node24</title>
<polygon fill="white" stroke="#bfbfbf" points="666,-72.5 666,-93.5 716,-93.5 716,-72.5 666,-72.5"/>
<text text-anchor="middle" x="691" y="-80.5" font-family="Helvetica,sans-Serif" font-size="10.00">iomanip</text>
</g>
<!-- Node21&#45;&gt;Node24 -->
<g id="edge54" class="edge"><title>Node21&#45;&gt;Node24</title>
<path fill="none" stroke="midnightblue" d="M691,-137.267C691,-128.18 691,-114.892 691,-103.74"/>
<polygon fill="midnightblue" stroke="midnightblue" points="694.5,-103.534 691,-93.5337 687.5,-103.534 694.5,-103.534"/>
</g>
<!-- Node25 -->
<g id="node54" class="node"><title>Node25</title>
<polygon fill="white" stroke="#bfbfbf" points="734,-72.5 734,-93.5 794,-93.5 794,-72.5 734,-72.5"/>
<text text-anchor="middle" x="764" y="-80.5" font-family="Helvetica,sans-Serif" font-size="10.00">streambuf</text>
</g>
<!-- Node21&#45;&gt;Node25 -->
<g id="edge58" class="edge"><title>Node21&#45;&gt;Node25</title>
<path fill="none" stroke="midnightblue" d="M703.054,-137.267C714.323,-127.233 731.343,-112.078 744.536,-100.331"/>
<polygon fill="midnightblue" stroke="midnightblue" points="747.029,-102.798 752.17,-93.5337 742.374,-97.5698 747.029,-102.798"/>
</g>
<!-- Node30&#45;&gt;Node20 -->
<g id="edge74" class="edge"><title>Node30&#45;&gt;Node20</title>
<path fill="none" stroke="midnightblue" d="M1736,-130.922C1736,-122.67 1736,-112.692 1736,-103.982"/>
<polygon fill="midnightblue" stroke="midnightblue" points="1739.5,-103.852 1736,-93.8521 1732.5,-103.852 1739.5,-103.852"/>
</g>
<!-- Node32&#45;&gt;Node3 -->
<g id="edge82" class="edge"><title>Node32&#45;&gt;Node3</title>
<path fill="none" stroke="midnightblue" d="M1797.1,-356.991C1904.41,-341.27 2122.1,-296.886 2051,-202 1982.69,-110.832 1916.99,-150.894 1805,-130 1633.33,-97.9712 1427.8,-87.7472 1320.82,-84.4993"/>
<polygon fill="midnightblue" stroke="midnightblue" points="1320.88,-80.9996 1310.78,-84.2063 1320.67,-87.9966 1320.88,-80.9996"/>
</g>
<!-- Node33 -->
<g id="node73" class="node"><title>Node33</title>
<polygon fill="white" stroke="#bfbfbf" points="1772,-281.5 1772,-302.5 1850,-302.5 1850,-281.5 1772,-281.5"/>
<text text-anchor="middle" x="1811" y="-289.5" font-family="Helvetica,sans-Serif" font-size="10.00">boost/any.hpp</text>
</g>
<!-- Node32&#45;&gt;Node33 -->
<g id="edge80" class="edge"><title>Node32&#45;&gt;Node33</title>
<path fill="none" stroke="midnightblue" d="M1751.33,-353.376C1762.39,-341.997 1780.15,-323.735 1793.42,-310.085"/>
<polygon fill="midnightblue" stroke="midnightblue" points="1796.17,-312.277 1800.63,-302.667 1791.15,-307.398 1796.17,-312.277"/>
</g>
<!-- Node34 -->
<g id="node76" class="node"><title>Node34</title>
<a xlink:href="vmap_8h.html" target="_top" xlink:title="core/common/vmap.h">
<polygon fill="white" stroke="black" points="1354.5,-281.5 1354.5,-302.5 1465.5,-302.5 1465.5,-281.5 1354.5,-281.5"/>
<text text-anchor="middle" x="1410" y="-289.5" font-family="Helvetica,sans-Serif" font-size="10.00">core/common/vmap.h</text>
</a>
</g>
<!-- Node32&#45;&gt;Node34 -->
<g id="edge84" class="edge"><title>Node32&#45;&gt;Node34</title>
<path fill="none" stroke="midnightblue" d="M1704.68,-353.459C1695.36,-350.889 1685.34,-348.238 1676,-346 1608.09,-329.725 1529.66,-314.196 1475.65,-304.004"/>
<polygon fill="midnightblue" stroke="midnightblue" points="1476,-300.508 1465.52,-302.101 1474.71,-307.387 1476,-300.508"/>
</g>
<!-- Node34&#45;&gt;Node13 -->
<g id="edge86" class="edge"><title>Node34&#45;&gt;Node13</title>
<path fill="none" stroke="midnightblue" d="M1379.46,-281.376C1339.09,-267.336 1268.6,-242.818 1230.06,-229.413"/>
<polygon fill="midnightblue" stroke="midnightblue" points="1231.13,-226.08 1220.54,-226.101 1228.84,-232.692 1231.13,-226.08"/>
</g>
<!-- Node36&#45;&gt;Node35 -->
<g id="edge92" class="edge"><title>Node36&#45;&gt;Node35</title>
<path fill="none" stroke="midnightblue" d="M1581.83,-346.858C1566.57,-326.597 1538.56,-293.213 1507,-274 1501.14,-270.431 1425.2,-248.22 1373.85,-233.418"/>
<polygon fill="midnightblue" stroke="midnightblue" points="1374.52,-229.967 1363.94,-230.564 1372.58,-236.694 1374.52,-229.967"/>
</g>
<!-- Node37 -->
<g id="node84" class="node"><title>Node37</title>
<a xlink:href="gr__ambasockets_8h.html" target="_top" xlink:title="core/common/grambasockets\l/gr_ambasockets.h">
<polygon fill="white" stroke="black" points="1608,-275 1608,-309 1754,-309 1754,-275 1608,-275"/>
<text text-anchor="start" x="1616" y="-296" font-family="Helvetica,sans-Serif" font-size="10.00">core/common/grambasockets</text>
<text text-anchor="middle" x="1681" y="-283" font-family="Helvetica,sans-Serif" font-size="10.00">/gr_ambasockets.h</text>
</a>
</g>
<!-- Node36&#45;&gt;Node37 -->
<g id="edge94" class="edge"><title>Node36&#45;&gt;Node37</title>
<path fill="none" stroke="midnightblue" d="M1614.62,-346.937C1625.91,-337.59 1640.08,-325.863 1652.43,-315.646"/>
<polygon fill="midnightblue" stroke="midnightblue" points="1654.76,-318.262 1660.23,-309.19 1650.29,-312.869 1654.76,-318.262"/>
</g>
<!-- Node37&#45;&gt;Node15 -->
<g id="edge110" class="edge"><title>Node37&#45;&gt;Node15</title>
<path fill="none" stroke="midnightblue" d="M1607.77,-281.103C1543.73,-270.753 1456.22,-254.38 1425,-238 1404.4,-227.192 1407.57,-212.869 1387,-202 1211.67,-109.357 968.429,-88.8028 876.336,-84.271"/>
<polygon fill="midnightblue" stroke="midnightblue" points="876.27,-80.7644 866.121,-83.8045 875.951,-87.7571 876.27,-80.7644"/>
</g>
<!-- Node37&#45;&gt;Node19 -->
<g id="edge106" class="edge"><title>Node37&#45;&gt;Node19</title>
<path fill="none" stroke="midnightblue" d="M1754.26,-275.609C1757.21,-275.047 1760.13,-274.508 1763,-274 1883.6,-252.639 2111.21,-292.788 2029,-202 1974.74,-142.075 1746.58,-180.246 1667,-166 1659.46,-164.65 1651.53,-162.901 1643.85,-161.024"/>
<polygon fill="midnightblue" stroke="midnightblue" points="1644.49,-157.576 1633.93,-158.507 1642.76,-164.361 1644.49,-157.576"/>
</g>
<!-- Node37&#45;&gt;Node35 -->
<g id="edge96" class="edge"><title>Node37&#45;&gt;Node35</title>
<path fill="none" stroke="midnightblue" d="M1607.68,-279.038C1536.02,-266.234 1432.03,-247.265 1392,-238 1385.79,-236.562 1379.27,-234.921 1372.87,-233.228"/>
<polygon fill="midnightblue" stroke="midnightblue" points="1373.53,-229.78 1362.96,-230.548 1371.7,-236.537 1373.53,-229.78"/>
</g>
<!-- Node38 -->
<g id="node87" class="node"><title>Node38</title>
<polygon fill="white" stroke="#bfbfbf" points="1434,-203 1434,-237 1616,-237 1616,-203 1434,-203"/>
<text text-anchor="start" x="1442" y="-224" font-family="Helvetica,sans-Serif" font-size="10.00">greensocket/utils/greensocketaddress</text>
<text text-anchor="middle" x="1525" y="-211" font-family="Helvetica,sans-Serif" font-size="10.00">_base.h</text>
</g>
<!-- Node37&#45;&gt;Node38 -->
<g id="edge98" class="edge"><title>Node37&#45;&gt;Node38</title>
<path fill="none" stroke="midnightblue" d="M1644.03,-274.937C1622.25,-264.886 1594.51,-252.082 1571.29,-241.364"/>
<polygon fill="midnightblue" stroke="midnightblue" points="1572.52,-238.078 1561.97,-237.065 1569.59,-244.434 1572.52,-238.078"/>
</g>
<!-- Node39 -->
<g id="node89" class="node"><title>Node39</title>
<polygon fill="white" stroke="#bfbfbf" points="1633.5,-203 1633.5,-237 1762.5,-237 1762.5,-203 1633.5,-203"/>
<text text-anchor="start" x="1641.5" y="-224" font-family="Helvetica,sans-Serif" font-size="10.00">greenreg/greenreg_socket</text>
<text text-anchor="middle" x="1698" y="-211" font-family="Helvetica,sans-Serif" font-size="10.00">/transactor_if.h</text>
</g>
<!-- Node37&#45;&gt;Node39 -->
<g id="edge100" class="edge"><title>Node37&#45;&gt;Node39</title>
<path fill="none" stroke="midnightblue" d="M1685.03,-274.937C1686.97,-266.719 1689.34,-256.66 1691.53,-247.406"/>
<polygon fill="midnightblue" stroke="midnightblue" points="1694.99,-247.977 1693.88,-237.441 1688.18,-246.369 1694.99,-247.977"/>
</g>
<!-- Node40 -->
<g id="node91" class="node"><title>Node40</title>
<polygon fill="white" stroke="#bfbfbf" points="1779.5,-203 1779.5,-237 1882.5,-237 1882.5,-203 1779.5,-203"/>
<text text-anchor="start" x="1787.5" y="-224" font-family="Helvetica,sans-Serif" font-size="10.00">greenreg/framework</text>
<text text-anchor="middle" x="1831" y="-211" font-family="Helvetica,sans-Serif" font-size="10.00">/core/gr_common.h</text>
</g>
<!-- Node37&#45;&gt;Node40 -->
<g id="edge102" class="edge"><title>Node37&#45;&gt;Node40</title>
<path fill="none" stroke="midnightblue" d="M1716.55,-274.937C1737.39,-264.931 1763.93,-252.196 1786.19,-241.507"/>
<polygon fill="midnightblue" stroke="midnightblue" points="1787.95,-244.548 1795.45,-237.065 1784.92,-238.237 1787.95,-244.548"/>
</g>
<!-- Node41 -->
<g id="node93" class="node"><title>Node41</title>
<polygon fill="white" stroke="#bfbfbf" points="1899.5,-209.5 1899.5,-230.5 1948.5,-230.5 1948.5,-209.5 1899.5,-209.5"/>
<text text-anchor="middle" x="1924" y="-217.5" font-family="Helvetica,sans-Serif" font-size="10.00">amba.h</text>
</g>
<!-- Node37&#45;&gt;Node41 -->
<g id="edge104" class="edge"><title>Node37&#45;&gt;Node41</title>
<path fill="none" stroke="midnightblue" d="M1754.05,-275.244C1804.24,-263.345 1866.13,-247.802 1891,-238 1893.12,-237.164 1895.28,-236.221 1897.42,-235.215"/>
<polygon fill="midnightblue" stroke="midnightblue" points="1899.26,-238.207 1906.58,-230.548 1896.08,-231.971 1899.26,-238.207"/>
</g>
<!-- Node42 -->
<g id="node96" class="node"><title>Node42</title>
<polygon fill="white" stroke="#bfbfbf" points="1966,-209.5 1966,-230.5 2020,-230.5 2020,-209.5 1966,-209.5"/>
<text text-anchor="middle" x="1993" y="-217.5" font-family="Helvetica,sans-Serif" font-size="10.00">systemc</text>
</g>
<!-- Node37&#45;&gt;Node42 -->
<g id="edge108" class="edge"><title>Node37&#45;&gt;Node42</title>
<path fill="none" stroke="midnightblue" d="M1754.29,-275.787C1757.23,-275.176 1760.14,-274.579 1763,-274 1848.95,-256.597 1873.86,-265.882 1957,-238 1959.73,-237.084 1962.52,-235.995 1965.27,-234.814"/>
<polygon fill="midnightblue" stroke="midnightblue" points="1966.8,-237.965 1974.37,-230.555 1963.83,-231.625 1966.8,-237.965"/>
</g>
</g>
</svg>
