<?xml version="1.0" encoding="UTF-8" standalone="no"?>
<!DOCTYPE svg PUBLIC "-//W3C//DTD SVG 1.1//EN"
 "http://www.w3.org/Graphics/SVG/1.1/DTD/svg11.dtd">
<!-- Generated by graphviz version 2.38.0 (20140413.2041)
 -->
<!-- Title: core/common/apbdevice.h Pages: 1 -->
<svg width="1130pt" height="274pt"
 viewBox="0.00 0.00 1130.00 274.00" xmlns="http://www.w3.org/2000/svg" xmlns:xlink="http://www.w3.org/1999/xlink">
<g id="graph0" class="graph" transform="scale(1 1) rotate(0) translate(4 270)">
<title>core/common/apbdevice.h</title>
<polygon fill="white" stroke="none" points="-4,4 -4,-270 1126,-270 1126,4 -4,4"/>
<!-- Node1 -->
<g id="node1" class="node"><title>Node1</title>
<polygon fill="#bfbfbf" stroke="black" points="443.5,-246.5 443.5,-265.5 574.5,-265.5 574.5,-246.5 443.5,-246.5"/>
<text text-anchor="middle" x="509" y="-253.5" font-family="Helvetica,sans-Serif" font-size="10.00">core/common/apbdevice.h</text>
</g>
<!-- Node2 -->
<g id="node2" class="node"><title>Node2</title>
<g id="a_node2"><a xlink:href="apbslave_8h.html" target="_top" xlink:title="core/common/apbslave.h">
<polygon fill="white" stroke="black" points="492,-190.5 492,-209.5 618,-209.5 618,-190.5 492,-190.5"/>
<text text-anchor="middle" x="555" y="-197.5" font-family="Helvetica,sans-Serif" font-size="10.00">core/common/apbslave.h</text>
</a>
</g>
</g>
<!-- Node1&#45;&gt;Node2 -->
<g id="edge1" class="edge"><title>Node1&#45;&gt;Node2</title>
<path fill="none" stroke="midnightblue" d="M523.114,-238.431C531.176,-228.967 540.959,-217.483 547.545,-209.751"/>
<polygon fill="midnightblue" stroke="midnightblue" points="520.416,-236.201 516.596,-246.083 525.745,-240.74 520.416,-236.201"/>
</g>
<!-- Node8 -->
<g id="node8" class="node"><title>Node8</title>
<g id="a_node8"><a xlink:href="mctrl_8h.html" target="_top" xlink:title="gaisler/mctrl/mctrl.h">
<polygon fill="white" stroke="black" points="412.5,-134.5 412.5,-153.5 515.5,-153.5 515.5,-134.5 412.5,-134.5"/>
<text text-anchor="middle" x="464" y="-141.5" font-family="Helvetica,sans-Serif" font-size="10.00">gaisler/mctrl/mctrl.h</text>
</a>
</g>
</g>
<!-- Node1&#45;&gt;Node8 -->
<g id="edge21" class="edge"><title>Node1&#45;&gt;Node8</title>
<path fill="none" stroke="midnightblue" d="M497.74,-237.766C492.741,-229.59 487.08,-219.54 483,-210 474.678,-190.542 468.666,-166.312 465.829,-153.64"/>
<polygon fill="midnightblue" stroke="midnightblue" points="494.869,-239.776 503.168,-246.361 500.787,-236.038 494.869,-239.776"/>
</g>
<!-- Node13 -->
<g id="node13" class="node"><title>Node13</title>
<g id="a_node13"><a xlink:href="apbuart_8h.html" target="_top" xlink:title="gaisler/apbuart/apbuart.h">
<polygon fill="white" stroke="black" points="676,-134.5 676,-153.5 800,-153.5 800,-134.5 676,-134.5"/>
<text text-anchor="middle" x="738" y="-141.5" font-family="Helvetica,sans-Serif" font-size="10.00">gaisler/apbuart/apbuart.h</text>
</a>
</g>
</g>
<!-- Node1&#45;&gt;Node13 -->
<g id="edge22" class="edge"><title>Node1&#45;&gt;Node13</title>
<path fill="none" stroke="midnightblue" d="M544.948,-243.035C568.664,-234.719 600.186,-222.855 627,-210 663.851,-192.333 704.738,-166.709 725.06,-153.532"/>
<polygon fill="midnightblue" stroke="midnightblue" points="543.605,-239.796 535.299,-246.374 545.894,-246.411 543.605,-239.796"/>
</g>
<!-- Node15 -->
<g id="node15" class="node"><title>Node15</title>
<g id="a_node15"><a xlink:href="apbctrl_8h.html" target="_top" xlink:title="gaisler/apbctrl/apbctrl.h">
<polygon fill="white" stroke="black" points="142,-134.5 142,-153.5 260,-153.5 260,-134.5 142,-134.5"/>
<text text-anchor="middle" x="201" y="-141.5" font-family="Helvetica,sans-Serif" font-size="10.00">gaisler/apbctrl/apbctrl.h</text>
</a>
</g>
</g>
<!-- Node1&#45;&gt;Node15 -->
<g id="edge17" class="edge"><title>Node1&#45;&gt;Node15</title>
<path fill="none" stroke="midnightblue" d="M475.304,-242.966C412.653,-220.59 279.656,-173.092 225.109,-153.61"/>
<polygon fill="midnightblue" stroke="midnightblue" points="474.493,-246.393 485.088,-246.46 476.848,-239.8 474.493,-246.393"/>
</g>
<!-- Node3 -->
<g id="node3" class="node"><title>Node3</title>
<g id="a_node3"><a xlink:href="gaisler_2irqmp_2irqmp_8h.html" target="_top" xlink:title="gaisler/irqmp/irqmp.h">
<polygon fill="white" stroke="black" points="281.5,-134.5 281.5,-153.5 388.5,-153.5 388.5,-134.5 281.5,-134.5"/>
<text text-anchor="middle" x="335" y="-141.5" font-family="Helvetica,sans-Serif" font-size="10.00">gaisler/irqmp/irqmp.h</text>
</a>
</g>
</g>
<!-- Node2&#45;&gt;Node3 -->
<g id="edge2" class="edge"><title>Node2&#45;&gt;Node3</title>
<path fill="none" stroke="midnightblue" d="M510.282,-188.024C468.724,-177.823 407.687,-162.841 369.697,-153.516"/>
<polygon fill="midnightblue" stroke="midnightblue" points="509.594,-191.459 520.14,-190.444 511.263,-184.661 509.594,-191.459"/>
</g>
<!-- Node2&#45;&gt;Node8 -->
<g id="edge7" class="edge"><title>Node2&#45;&gt;Node8</title>
<path fill="none" stroke="midnightblue" d="M531.706,-185.177C514.961,-175.241 492.9,-162.149 478.584,-153.655"/>
<polygon fill="midnightblue" stroke="midnightblue" points="529.993,-188.231 540.379,-190.324 533.566,-182.211 529.993,-188.231"/>
</g>
<!-- Node10 -->
<g id="node10" class="node"><title>Node10</title>
<g id="a_node10"><a xlink:href="gaisler_2gptimer_2gptimer_8h.html" target="_top" xlink:title="gaisler/gptimer/gptimer.h">
<polygon fill="white" stroke="black" points="534,-134.5 534,-153.5 658,-153.5 658,-134.5 534,-134.5"/>
<text text-anchor="middle" x="596" y="-141.5" font-family="Helvetica,sans-Serif" font-size="10.00">gaisler/gptimer/gptimer.h</text>
</a>
</g>
</g>
<!-- Node2&#45;&gt;Node10 -->
<g id="edge10" class="edge"><title>Node2&#45;&gt;Node10</title>
<path fill="none" stroke="midnightblue" d="M568.017,-181.855C575.117,-172.505 583.604,-161.327 589.356,-153.751"/>
<polygon fill="midnightblue" stroke="midnightblue" points="565.03,-180.002 561.77,-190.083 570.605,-184.235 565.03,-180.002"/>
</g>
<!-- Node2&#45;&gt;Node13 -->
<g id="edge14" class="edge"><title>Node2&#45;&gt;Node13</title>
<path fill="none" stroke="midnightblue" d="M593.743,-187.568C628.265,-177.381 678.005,-162.703 709.139,-153.516"/>
<polygon fill="midnightblue" stroke="midnightblue" points="592.597,-184.256 583.997,-190.444 594.579,-190.97 592.597,-184.256"/>
</g>
<!-- Node4 -->
<g id="node4" class="node"><title>Node4</title>
<g id="a_node4"><a xlink:href="ambabase_8h.html" target="_top" xlink:title="core/platforms/base\l/ambabase.h">
<polygon fill="white" stroke="black" points="146.5,-67.5 146.5,-97.5 249.5,-97.5 249.5,-67.5 146.5,-67.5"/>
<text text-anchor="start" x="154.5" y="-85.5" font-family="Helvetica,sans-Serif" font-size="10.00">core/platforms/base</text>
<text text-anchor="middle" x="198" y="-74.5" font-family="Helvetica,sans-Serif" font-size="10.00">/ambabase.h</text>
</a>
</g>
</g>
<!-- Node3&#45;&gt;Node4 -->
<g id="edge3" class="edge"><title>Node3&#45;&gt;Node4</title>
<path fill="none" stroke="midnightblue" d="M306.128,-130.461C283.937,-120.823 253.29,-107.513 230.288,-97.523"/>
<polygon fill="midnightblue" stroke="midnightblue" points="304.805,-133.702 315.371,-134.475 307.593,-127.281 304.805,-133.702"/>
</g>
<!-- Node6 -->
<g id="node6" class="node"><title>Node6</title>
<g id="a_node6"><a xlink:href="sc__main_8cpp.html" target="_top" xlink:title="core/platforms/leon3mp\l/sc_main.cpp">
<polygon fill="white" stroke="black" points="404.5,-67.5 404.5,-97.5 523.5,-97.5 523.5,-67.5 404.5,-67.5"/>
<text text-anchor="start" x="412.5" y="-85.5" font-family="Helvetica,sans-Serif" font-size="10.00">core/platforms/leon3mp</text>
<text text-anchor="middle" x="464" y="-74.5" font-family="Helvetica,sans-Serif" font-size="10.00">/sc_main.cpp</text>
</a>
</g>
</g>
<!-- Node3&#45;&gt;Node6 -->
<g id="edge5" class="edge"><title>Node3&#45;&gt;Node6</title>
<path fill="none" stroke="midnightblue" d="M362.751,-130.2C383.598,-120.585 412.133,-107.423 433.597,-97.523"/>
<polygon fill="midnightblue" stroke="midnightblue" points="361.097,-127.108 353.483,-134.475 364.029,-133.465 361.097,-127.108"/>
</g>
<!-- Node7 -->
<g id="node7" class="node"><title>Node7</title>
<g id="a_node7"><a xlink:href="irqmp_8cpp.html" target="_top" xlink:title="gaisler/irqmp/irqmp.cpp">
<polygon fill="white" stroke="black" points="268,-73 268,-92 386,-92 386,-73 268,-73"/>
<text text-anchor="middle" x="327" y="-80" font-family="Helvetica,sans-Serif" font-size="10.00">gaisler/irqmp/irqmp.cpp</text>
</a>
</g>
</g>
<!-- Node3&#45;&gt;Node7 -->
<g id="edge6" class="edge"><title>Node3&#45;&gt;Node7</title>
<path fill="none" stroke="midnightblue" d="M332.488,-124.317C331.033,-113.496 329.272,-100.398 328.144,-92.0091"/>
<polygon fill="midnightblue" stroke="midnightblue" points="329.052,-125.031 333.854,-134.475 335.99,-124.098 329.052,-125.031"/>
</g>
<!-- Node5 -->
<g id="node5" class="node"><title>Node5</title>
<g id="a_node5"><a xlink:href="leon3processor_8h.html" target="_top" xlink:title="core/platforms/base\l/leon3processor.h">
<polygon fill="white" stroke="black" points="146.5,-0.5 146.5,-30.5 249.5,-30.5 249.5,-0.5 146.5,-0.5"/>
<text text-anchor="start" x="154.5" y="-18.5" font-family="Helvetica,sans-Serif" font-size="10.00">core/platforms/base</text>
<text text-anchor="middle" x="198" y="-7.5" font-family="Helvetica,sans-Serif" font-size="10.00">/leon3processor.h</text>
</a>
</g>
</g>
<!-- Node4&#45;&gt;Node5 -->
<g id="edge4" class="edge"><title>Node4&#45;&gt;Node5</title>
<path fill="none" stroke="midnightblue" d="M198,-57.1081C198,-48.1539 198,-38.3227 198,-30.5765"/>
<polygon fill="midnightblue" stroke="midnightblue" points="194.5,-57.3959 198,-67.396 201.5,-57.396 194.5,-57.3959"/>
</g>
<!-- Node8&#45;&gt;Node6 -->
<g id="edge8" class="edge"><title>Node8&#45;&gt;Node6</title>
<path fill="none" stroke="midnightblue" d="M464,-124.235C464,-115.586 464,-105.497 464,-97.523"/>
<polygon fill="midnightblue" stroke="midnightblue" points="460.5,-124.475 464,-134.475 467.5,-124.475 460.5,-124.475"/>
</g>
<!-- Node9 -->
<g id="node9" class="node"><title>Node9</title>
<g id="a_node9"><a xlink:href="mctrl_8cpp.html" target="_top" xlink:title="gaisler/mctrl/mctrl.cpp">
<polygon fill="white" stroke="black" points="541.5,-73 541.5,-92 654.5,-92 654.5,-73 541.5,-73"/>
<text text-anchor="middle" x="598" y="-80" font-family="Helvetica,sans-Serif" font-size="10.00">gaisler/mctrl/mctrl.cpp</text>
</a>
</g>
</g>
<!-- Node8&#45;&gt;Node9 -->
<g id="edge9" class="edge"><title>Node8&#45;&gt;Node9</title>
<path fill="none" stroke="midnightblue" d="M492.54,-130.327C518.555,-118.776 556.265,-102.032 578.837,-92.0091"/>
<polygon fill="midnightblue" stroke="midnightblue" points="490.918,-127.218 483.199,-134.475 493.759,-133.616 490.918,-127.218"/>
</g>
<!-- Node10&#45;&gt;Node6 -->
<g id="edge11" class="edge"><title>Node10&#45;&gt;Node6</title>
<path fill="none" stroke="midnightblue" d="M567.893,-130.331C546.536,-120.704 517.173,-107.468 495.11,-97.523"/>
<polygon fill="midnightblue" stroke="midnightblue" points="566.533,-133.556 577.088,-134.475 569.409,-127.175 566.533,-133.556"/>
</g>
<!-- Node11 -->
<g id="node11" class="node"><title>Node11</title>
<g id="a_node11"><a xlink:href="gpcounter_8cpp.html" target="_top" xlink:title="gaisler/gptimer/gpcounter.cpp">
<polygon fill="white" stroke="black" points="672.5,-73 672.5,-92 817.5,-92 817.5,-73 672.5,-73"/>
<text text-anchor="middle" x="745" y="-80" font-family="Helvetica,sans-Serif" font-size="10.00">gaisler/gptimer/gpcounter.cpp</text>
</a>
</g>
</g>
<!-- Node10&#45;&gt;Node11 -->
<g id="edge12" class="edge"><title>Node10&#45;&gt;Node11</title>
<path fill="none" stroke="midnightblue" d="M626.974,-130.631C655.921,-119.072 698.372,-102.12 723.692,-92.0091"/>
<polygon fill="midnightblue" stroke="midnightblue" points="625.337,-127.516 617.348,-134.475 627.933,-134.017 625.337,-127.516"/>
</g>
<!-- Node12 -->
<g id="node12" class="node"><title>Node12</title>
<g id="a_node12"><a xlink:href="gptimer_8cpp.html" target="_top" xlink:title="gaisler/gptimer/gptimer.cpp">
<polygon fill="white" stroke="black" points="836,-73 836,-92 970,-92 970,-73 836,-73"/>
<text text-anchor="middle" x="903" y="-80" font-family="Helvetica,sans-Serif" font-size="10.00">gaisler/gptimer/gptimer.cpp</text>
</a>
</g>
</g>
<!-- Node10&#45;&gt;Node12 -->
<g id="edge13" class="edge"><title>Node10&#45;&gt;Node12</title>
<path fill="none" stroke="midnightblue" d="M649.941,-132.546C709.418,-121.018 803.966,-102.694 859.096,-92.0091"/>
<polygon fill="midnightblue" stroke="midnightblue" points="649.137,-129.136 639.986,-134.475 650.469,-136.008 649.137,-129.136"/>
</g>
<!-- Node13&#45;&gt;Node6 -->
<g id="edge15" class="edge"><title>Node13&#45;&gt;Node6</title>
<path fill="none" stroke="midnightblue" d="M688.941,-132.347C642.633,-122.291 573.107,-107.193 523.622,-96.447"/>
<polygon fill="midnightblue" stroke="midnightblue" points="688.227,-135.773 698.742,-134.475 689.713,-128.933 688.227,-135.773"/>
</g>
<!-- Node14 -->
<g id="node14" class="node"><title>Node14</title>
<g id="a_node14"><a xlink:href="apbuart_8cpp.html" target="_top" xlink:title="gaisler/apbuart/apbuart.cpp">
<polygon fill="white" stroke="black" points="988,-73 988,-92 1122,-92 1122,-73 988,-73"/>
<text text-anchor="middle" x="1055" y="-80" font-family="Helvetica,sans-Serif" font-size="10.00">gaisler/apbuart/apbuart.cpp</text>
</a>
</g>
</g>
<!-- Node13&#45;&gt;Node14 -->
<g id="edge16" class="edge"><title>Node13&#45;&gt;Node14</title>
<path fill="none" stroke="midnightblue" d="M794.263,-132.559C843.112,-123.478 915.743,-109.94 979,-98 989.164,-96.0816 1000.09,-94.0054 1010.4,-92.0399"/>
<polygon fill="midnightblue" stroke="midnightblue" points="793.404,-129.159 784.211,-134.427 794.683,-136.041 793.404,-129.159"/>
</g>
<!-- Node15&#45;&gt;Node4 -->
<g id="edge18" class="edge"><title>Node15&#45;&gt;Node4</title>
<path fill="none" stroke="midnightblue" d="M200.054,-124.235C199.618,-115.586 199.109,-105.497 198.707,-97.523"/>
<polygon fill="midnightblue" stroke="midnightblue" points="196.571,-124.664 200.57,-134.475 203.562,-124.312 196.571,-124.664"/>
</g>
<!-- Node15&#45;&gt;Node6 -->
<g id="edge19" class="edge"><title>Node15&#45;&gt;Node6</title>
<path fill="none" stroke="midnightblue" d="M248.465,-132.262C292.064,-122.398 356.871,-107.736 404.033,-97.0666"/>
<polygon fill="midnightblue" stroke="midnightblue" points="247.663,-128.855 238.681,-134.475 249.207,-135.682 247.663,-128.855"/>
</g>
<!-- Node16 -->
<g id="node16" class="node"><title>Node16</title>
<g id="a_node16"><a xlink:href="apbctrl_8cpp.html" target="_top" xlink:title="gaisler/apbctrl/apbctrl.cpp">
<polygon fill="white" stroke="black" points="0,-73 0,-92 128,-92 128,-73 0,-73"/>
<text text-anchor="middle" x="64" y="-80" font-family="Helvetica,sans-Serif" font-size="10.00">gaisler/apbctrl/apbctrl.cpp</text>
</a>
</g>
</g>
<!-- Node15&#45;&gt;Node16 -->
<g id="edge20" class="edge"><title>Node15&#45;&gt;Node16</title>
<path fill="none" stroke="midnightblue" d="M172.171,-130.48C145.564,-118.924 106.771,-102.076 83.5923,-92.0091"/>
<polygon fill="midnightblue" stroke="midnightblue" points="170.805,-133.702 181.371,-134.475 173.593,-127.281 170.805,-133.702"/>
</g>
</g>
</svg>
