<?xml version="1.0" encoding="UTF-8" standalone="no"?>
<!DOCTYPE svg PUBLIC "-//W3C//DTD SVG 1.1//EN"
 "http://www.w3.org/Graphics/SVG/1.1/DTD/svg11.dtd">
<!-- Generated by graphviz version 2.36.0 (20140111.2315)
 -->
<!-- Title: core/common/apbdevicebase.h Pages: 1 -->
<svg width="1131pt" height="332pt"
 viewBox="0.00 0.00 1131.00 332.00" xmlns="http://www.w3.org/2000/svg" xmlns:xlink="http://www.w3.org/1999/xlink">
<g id="graph0" class="graph" transform="scale(1 1) rotate(0) translate(4 328)">
<title>core/common/apbdevicebase.h</title>
<polygon fill="white" stroke="none" points="-4,4 -4,-328 1127,-328 1127,4 -4,4"/>
<!-- Node1 -->
<g id="node1" class="node"><title>Node1</title>
<polygon fill="#bfbfbf" stroke="black" points="501,-304.5 501,-323.5 653,-323.5 653,-304.5 501,-304.5"/>
<text text-anchor="middle" x="577" y="-311.5" font-family="Helvetica,sans-Serif" font-size="10.00">core/common/apbdevicebase.h</text>
</g>
<!-- Node2 -->
<g id="node2" class="node"><title>Node2</title>
<g id="a_node2"><a xlink:href="apbdevice_8h.html" target="_top" xlink:title="core/common/apbdevice.h">
<polygon fill="white" stroke="black" points="558.5,-248.5 558.5,-267.5 689.5,-267.5 689.5,-248.5 558.5,-248.5"/>
<text text-anchor="middle" x="624" y="-255.5" font-family="Helvetica,sans-Serif" font-size="10.00">core/common/apbdevice.h</text>
</a>
</g>
</g>
<!-- Node1&#45;&gt;Node2 -->
<g id="edge1" class="edge"><title>Node1&#45;&gt;Node2</title>
<path fill="none" stroke="midnightblue" d="M591.421,-296.431C599.658,-286.967 609.654,-275.483 616.383,-267.751"/>
<polygon fill="midnightblue" stroke="midnightblue" points="588.686,-294.242 584.761,-304.083 593.966,-298.838 588.686,-294.242"/>
</g>
<!-- Node3 -->
<g id="node3" class="node"><title>Node3</title>
<g id="a_node3"><a xlink:href="apbslave_8h.html" target="_top" xlink:title="core/common/apbslave.h">
<polygon fill="white" stroke="black" points="467,-192.5 467,-211.5 593,-211.5 593,-192.5 467,-192.5"/>
<text text-anchor="middle" x="530" y="-199.5" font-family="Helvetica,sans-Serif" font-size="10.00">core/common/apbslave.h</text>
</a>
</g>
</g>
<!-- Node1&#45;&gt;Node3 -->
<g id="edge24" class="edge"><title>Node1&#45;&gt;Node3</title>
<path fill="none" stroke="midnightblue" d="M564.981,-296.14C559.541,-287.941 553.366,-277.765 549,-268 540.361,-248.681 534.477,-224.394 531.745,-211.677"/>
<polygon fill="midnightblue" stroke="midnightblue" points="562.129,-298.17 570.676,-304.432 567.899,-294.207 562.129,-298.17"/>
</g>
<!-- Node2&#45;&gt;Node3 -->
<g id="edge2" class="edge"><title>Node2&#45;&gt;Node3</title>
<path fill="none" stroke="midnightblue" d="M599.938,-243.177C582.641,-233.241 559.852,-220.149 545.065,-211.655"/>
<polygon fill="midnightblue" stroke="midnightblue" points="598.483,-246.378 608.897,-248.324 601.97,-240.308 598.483,-246.378"/>
</g>
<!-- Node9 -->
<g id="node9" class="node"><title>Node9</title>
<g id="a_node9"><a xlink:href="mctrl_8h.html" target="_top" xlink:title="gaisler/mctrl/mctrl.h">
<polygon fill="white" stroke="black" points="607.5,-136.5 607.5,-155.5 710.5,-155.5 710.5,-136.5 607.5,-136.5"/>
<text text-anchor="middle" x="659" y="-143.5" font-family="Helvetica,sans-Serif" font-size="10.00">gaisler/mctrl/mctrl.h</text>
</a>
</g>
</g>
<!-- Node2&#45;&gt;Node9 -->
<g id="edge22" class="edge"><title>Node2&#45;&gt;Node9</title>
<path fill="none" stroke="midnightblue" d="M629.831,-238.674C637.483,-214.625 650.604,-173.388 656.266,-155.591"/>
<polygon fill="midnightblue" stroke="midnightblue" points="626.443,-237.778 626.746,-248.368 633.114,-239.9 626.443,-237.778"/>
</g>
<!-- Node14 -->
<g id="node14" class="node"><title>Node14</title>
<g id="a_node14"><a xlink:href="apbuart_8h.html" target="_top" xlink:title="gaisler/apbuart/apbuart.h">
<polygon fill="white" stroke="black" points="465,-136.5 465,-155.5 589,-155.5 589,-136.5 465,-136.5"/>
<text text-anchor="middle" x="527" y="-143.5" font-family="Helvetica,sans-Serif" font-size="10.00">gaisler/apbuart/apbuart.h</text>
</a>
</g>
</g>
<!-- Node2&#45;&gt;Node14 -->
<g id="edge23" class="edge"><title>Node2&#45;&gt;Node14</title>
<path fill="none" stroke="midnightblue" d="M621.21,-238.118C618.35,-224.152 612.736,-205.321 602,-192 588.279,-174.975 566.263,-162.865 549.626,-155.527"/>
<polygon fill="midnightblue" stroke="midnightblue" points="617.782,-238.834 622.959,-248.078 624.677,-237.624 617.782,-238.834"/>
</g>
<!-- Node16 -->
<g id="node16" class="node"><title>Node16</title>
<g id="a_node16"><a xlink:href="apbctrl_8h.html" target="_top" xlink:title="gaisler/apbctrl/apbctrl.h">
<polygon fill="white" stroke="black" points="863,-136.5 863,-155.5 981,-155.5 981,-136.5 863,-136.5"/>
<text text-anchor="middle" x="922" y="-143.5" font-family="Helvetica,sans-Serif" font-size="10.00">gaisler/apbctrl/apbctrl.h</text>
</a>
</g>
</g>
<!-- Node2&#45;&gt;Node16 -->
<g id="edge18" class="edge"><title>Node2&#45;&gt;Node16</title>
<path fill="none" stroke="midnightblue" d="M656.875,-244.865C717.625,-222.44 846.06,-175.032 898.725,-155.591"/>
<polygon fill="midnightblue" stroke="midnightblue" points="655.553,-241.622 647.384,-248.368 657.977,-248.189 655.553,-241.622"/>
</g>
<!-- Node4 -->
<g id="node4" class="node"><title>Node4</title>
<g id="a_node4"><a xlink:href="gaisler_2irqmp_2irqmp_8h.html" target="_top" xlink:title="gaisler/irqmp/irqmp.h">
<polygon fill="white" stroke="black" points="734.5,-136.5 734.5,-155.5 841.5,-155.5 841.5,-136.5 734.5,-136.5"/>
<text text-anchor="middle" x="788" y="-143.5" font-family="Helvetica,sans-Serif" font-size="10.00">gaisler/irqmp/irqmp.h</text>
</a>
</g>
</g>
<!-- Node3&#45;&gt;Node4 -->
<g id="edge3" class="edge"><title>Node3&#45;&gt;Node4</title>
<path fill="none" stroke="midnightblue" d="M580.904,-190.346C629.662,-180.141 702.287,-164.94 747.31,-155.516"/>
<polygon fill="midnightblue" stroke="midnightblue" points="579.952,-186.969 570.881,-192.444 581.386,-193.821 579.952,-186.969"/>
</g>
<!-- Node3&#45;&gt;Node9 -->
<g id="edge8" class="edge"><title>Node3&#45;&gt;Node9</title>
<path fill="none" stroke="midnightblue" d="M559.854,-188.503C584.038,-178.38 617.462,-164.388 638.655,-155.516"/>
<polygon fill="midnightblue" stroke="midnightblue" points="558.313,-185.354 550.44,-192.444 561.016,-191.811 558.313,-185.354"/>
</g>
<!-- Node11 -->
<g id="node11" class="node"><title>Node11</title>
<g id="a_node11"><a xlink:href="gaisler_2gptimer_2gptimer_8h.html" target="_top" xlink:title="gaisler/gptimer/gptimer.h">
<polygon fill="white" stroke="black" points="243,-136.5 243,-155.5 367,-155.5 367,-136.5 243,-136.5"/>
<text text-anchor="middle" x="305" y="-143.5" font-family="Helvetica,sans-Serif" font-size="10.00">gaisler/gptimer/gptimer.h</text>
</a>
</g>
</g>
<!-- Node3&#45;&gt;Node11 -->
<g id="edge11" class="edge"><title>Node3&#45;&gt;Node11</title>
<path fill="none" stroke="midnightblue" d="M484.535,-190.088C442.027,-179.887 379.421,-164.861 340.485,-155.516"/>
<polygon fill="midnightblue" stroke="midnightblue" points="483.807,-193.513 494.348,-192.444 485.441,-186.706 483.807,-193.513"/>
</g>
<!-- Node3&#45;&gt;Node14 -->
<g id="edge15" class="edge"><title>Node3&#45;&gt;Node14</title>
<path fill="none" stroke="midnightblue" d="M528.934,-181.805C528.439,-172.91 527.877,-162.78 527.486,-155.751"/>
<polygon fill="midnightblue" stroke="midnightblue" points="525.455,-182.293 529.505,-192.083 532.444,-181.904 525.455,-182.293"/>
</g>
<!-- Node5 -->
<g id="node5" class="node"><title>Node5</title>
<g id="a_node5"><a xlink:href="ambabase_8h.html" target="_top" xlink:title="core/platforms/base\l/ambabase.h">
<polygon fill="white" stroke="black" points="873.5,-69 873.5,-99 976.5,-99 976.5,-69 873.5,-69"/>
<text text-anchor="start" x="881.5" y="-87" font-family="Helvetica,sans-Serif" font-size="10.00">core/platforms/base</text>
<text text-anchor="middle" x="925" y="-76" font-family="Helvetica,sans-Serif" font-size="10.00">/ambabase.h</text>
</a>
</g>
</g>
<!-- Node4&#45;&gt;Node5 -->
<g id="edge4" class="edge"><title>Node4&#45;&gt;Node5</title>
<path fill="none" stroke="midnightblue" d="M816.905,-132.341C839.178,-122.586 869.956,-109.107 892.976,-99.0253"/>
<polygon fill="midnightblue" stroke="midnightblue" points="815.385,-129.186 807.629,-136.403 818.193,-135.598 815.385,-129.186"/>
</g>
<!-- Node7 -->
<g id="node7" class="node"><title>Node7</title>
<g id="a_node7"><a xlink:href="sc__main_8cpp.html" target="_top" xlink:title="core/platforms/leon3mp\l/sc_main.cpp">
<polygon fill="white" stroke="black" points="599.5,-69 599.5,-99 718.5,-99 718.5,-69 599.5,-69"/>
<text text-anchor="start" x="607.5" y="-87" font-family="Helvetica,sans-Serif" font-size="10.00">core/platforms/leon3mp</text>
<text text-anchor="middle" x="659" y="-76" font-family="Helvetica,sans-Serif" font-size="10.00">/sc_main.cpp</text>
</a>
</g>
</g>
<!-- Node4&#45;&gt;Node7 -->
<g id="edge6" class="edge"><title>Node4&#45;&gt;Node7</title>
<path fill="none" stroke="midnightblue" d="M760.249,-132.093C739.402,-122.396 710.867,-109.124 689.403,-99.1408"/>
<polygon fill="midnightblue" stroke="midnightblue" points="758.974,-135.36 769.517,-136.403 761.926,-129.013 758.974,-135.36"/>
</g>
<!-- Node8 -->
<g id="node8" class="node"><title>Node8</title>
<g id="a_node8"><a xlink:href="irqmp_8cpp.html" target="_top" xlink:title="gaisler/irqmp/irqmp.cpp">
<polygon fill="white" stroke="black" points="737,-74.5 737,-93.5 855,-93.5 855,-74.5 737,-74.5"/>
<text text-anchor="middle" x="796" y="-81.5" font-family="Helvetica,sans-Serif" font-size="10.00">gaisler/irqmp/irqmp.cpp</text>
</a>
</g>
</g>
<!-- Node4&#45;&gt;Node8 -->
<g id="edge7" class="edge"><title>Node4&#45;&gt;Node8</title>
<path fill="none" stroke="midnightblue" d="M790.512,-126.16C791.967,-115.248 793.728,-102.04 794.856,-93.5806"/>
<polygon fill="midnightblue" stroke="midnightblue" points="786.999,-126.029 789.146,-136.403 793.937,-126.954 786.999,-126.029"/>
</g>
<!-- Node6 -->
<g id="node6" class="node"><title>Node6</title>
<g id="a_node6"><a xlink:href="leon3processor_8h.html" target="_top" xlink:title="core/platforms/base\l/leon3processor.h">
<polygon fill="white" stroke="black" points="873.5,-1 873.5,-31 976.5,-31 976.5,-1 873.5,-1"/>
<text text-anchor="start" x="881.5" y="-19" font-family="Helvetica,sans-Serif" font-size="10.00">core/platforms/base</text>
<text text-anchor="middle" x="925" y="-8" font-family="Helvetica,sans-Serif" font-size="10.00">/leon3processor.h</text>
</a>
</g>
</g>
<!-- Node5&#45;&gt;Node6 -->
<g id="edge5" class="edge"><title>Node5&#45;&gt;Node6</title>
<path fill="none" stroke="midnightblue" d="M925,-58.5322C925,-49.3606 925,-39.2449 925,-31.2931"/>
<polygon fill="midnightblue" stroke="midnightblue" points="921.5,-58.6789 925,-68.679 928.5,-58.679 921.5,-58.6789"/>
</g>
<!-- Node9&#45;&gt;Node7 -->
<g id="edge9" class="edge"><title>Node9&#45;&gt;Node7</title>
<path fill="none" stroke="midnightblue" d="M659,-126.371C659,-117.585 659,-107.272 659,-99.1408"/>
<polygon fill="midnightblue" stroke="midnightblue" points="655.5,-126.403 659,-136.403 662.5,-126.403 655.5,-126.403"/>
</g>
<!-- Node10 -->
<g id="node10" class="node"><title>Node10</title>
<g id="a_node10"><a xlink:href="mctrl_8cpp.html" target="_top" xlink:title="gaisler/mctrl/mctrl.cpp">
<polygon fill="white" stroke="black" points="468.5,-74.5 468.5,-93.5 581.5,-93.5 581.5,-74.5 468.5,-74.5"/>
<text text-anchor="middle" x="525" y="-81.5" font-family="Helvetica,sans-Serif" font-size="10.00">gaisler/mctrl/mctrl.cpp</text>
</a>
</g>
</g>
<!-- Node9&#45;&gt;Node10 -->
<g id="edge10" class="edge"><title>Node9&#45;&gt;Node10</title>
<path fill="none" stroke="midnightblue" d="M630.46,-132.221C604.445,-120.573 566.735,-103.687 544.163,-93.5806"/>
<polygon fill="midnightblue" stroke="midnightblue" points="629.244,-135.511 639.801,-136.403 632.105,-129.122 629.244,-135.511"/>
</g>
<!-- Node11&#45;&gt;Node7 -->
<g id="edge12" class="edge"><title>Node11&#45;&gt;Node7</title>
<path fill="none" stroke="midnightblue" d="M375.618,-135.003C433.409,-126.545 517.196,-113.649 590,-100 593.012,-99.4353 596.094,-98.8378 599.204,-98.2193"/>
<polygon fill="midnightblue" stroke="midnightblue" points="374.888,-131.572 365.497,-136.477 375.897,-138.499 374.888,-131.572"/>
</g>
<!-- Node12 -->
<g id="node12" class="node"><title>Node12</title>
<g id="a_node12"><a xlink:href="gpcounter_8cpp.html" target="_top" xlink:title="gaisler/gptimer/gpcounter.cpp">
<polygon fill="white" stroke="black" points="152.5,-74.5 152.5,-93.5 297.5,-93.5 297.5,-74.5 152.5,-74.5"/>
<text text-anchor="middle" x="225" y="-81.5" font-family="Helvetica,sans-Serif" font-size="10.00">gaisler/gptimer/gpcounter.cpp</text>
</a>
</g>
</g>
<!-- Node11&#45;&gt;Node12 -->
<g id="edge13" class="edge"><title>Node11&#45;&gt;Node12</title>
<path fill="none" stroke="midnightblue" d="M285.227,-130.17C269.881,-118.661 249.145,-103.109 236.441,-93.5806"/>
<polygon fill="midnightblue" stroke="midnightblue" points="283.438,-133.203 293.538,-136.403 287.638,-127.603 283.438,-133.203"/>
</g>
<!-- Node13 -->
<g id="node13" class="node"><title>Node13</title>
<g id="a_node13"><a xlink:href="gptimer_8cpp.html" target="_top" xlink:title="gaisler/gptimer/gptimer.cpp">
<polygon fill="white" stroke="black" points="0,-74.5 0,-93.5 134,-93.5 134,-74.5 0,-74.5"/>
<text text-anchor="middle" x="67" y="-81.5" font-family="Helvetica,sans-Serif" font-size="10.00">gaisler/gptimer/gptimer.cpp</text>
</a>
</g>
</g>
<!-- Node11&#45;&gt;Node13 -->
<g id="edge14" class="edge"><title>Node11&#45;&gt;Node13</title>
<path fill="none" stroke="midnightblue" d="M261.4,-134.008C215.092,-122.334 142.88,-104.129 100.73,-93.5034"/>
<polygon fill="midnightblue" stroke="midnightblue" points="260.601,-137.416 271.153,-136.467 262.312,-130.629 260.601,-137.416"/>
</g>
<!-- Node14&#45;&gt;Node7 -->
<g id="edge16" class="edge"><title>Node14&#45;&gt;Node7</title>
<path fill="none" stroke="midnightblue" d="M555.14,-132.209C576.576,-122.465 606.064,-109.062 628.144,-99.0253"/>
<polygon fill="midnightblue" stroke="midnightblue" points="553.568,-129.079 545.912,-136.403 556.464,-135.452 553.568,-129.079"/>
</g>
<!-- Node15 -->
<g id="node15" class="node"><title>Node15</title>
<g id="a_node15"><a xlink:href="apbuart_8cpp.html" target="_top" xlink:title="gaisler/apbuart/apbuart.cpp">
<polygon fill="white" stroke="black" points="316,-74.5 316,-93.5 450,-93.5 450,-74.5 316,-74.5"/>
<text text-anchor="middle" x="383" y="-81.5" font-family="Helvetica,sans-Serif" font-size="10.00">gaisler/apbuart/apbuart.cpp</text>
</a>
</g>
</g>
<!-- Node14&#45;&gt;Node15 -->
<g id="edge17" class="edge"><title>Node14&#45;&gt;Node15</title>
<path fill="none" stroke="midnightblue" d="M497.066,-132.527C469.09,-120.871 428.063,-103.776 403.593,-93.5806"/>
<polygon fill="midnightblue" stroke="midnightblue" points="495.791,-135.788 506.368,-136.403 498.484,-129.326 495.791,-135.788"/>
</g>
<!-- Node16&#45;&gt;Node5 -->
<g id="edge19" class="edge"><title>Node16&#45;&gt;Node5</title>
<path fill="none" stroke="midnightblue" d="M922.931,-126.371C923.371,-117.585 923.886,-107.272 924.293,-99.1408"/>
<polygon fill="midnightblue" stroke="midnightblue" points="919.434,-126.241 922.43,-136.403 926.425,-126.591 919.434,-126.241"/>
</g>
<!-- Node16&#45;&gt;Node7 -->
<g id="edge20" class="edge"><title>Node16&#45;&gt;Node7</title>
<path fill="none" stroke="midnightblue" d="M874.792,-134.23C831.079,-124.257 765.884,-109.384 718.599,-98.5966"/>
<polygon fill="midnightblue" stroke="midnightblue" points="874.07,-137.655 884.598,-136.467 875.627,-130.831 874.07,-137.655"/>
</g>
<!-- Node17 -->
<g id="node17" class="node"><title>Node17</title>
<g id="a_node17"><a xlink:href="apbctrl_8cpp.html" target="_top" xlink:title="gaisler/apbctrl/apbctrl.cpp">
<polygon fill="white" stroke="black" points="995,-74.5 995,-93.5 1123,-93.5 1123,-74.5 995,-74.5"/>
<text text-anchor="middle" x="1059" y="-81.5" font-family="Helvetica,sans-Serif" font-size="10.00">gaisler/apbctrl/apbctrl.cpp</text>
</a>
</g>
</g>
<!-- Node16&#45;&gt;Node17 -->
<g id="edge21" class="edge"><title>Node16&#45;&gt;Node17</title>
<path fill="none" stroke="midnightblue" d="M950.829,-132.374C977.436,-120.721 1016.23,-103.732 1039.41,-93.5806"/>
<polygon fill="midnightblue" stroke="midnightblue" points="949.385,-129.186 941.629,-136.403 952.193,-135.598 949.385,-129.186"/>
</g>
</g>
</svg>
