<?xml version="1.0" encoding="UTF-8" standalone="no"?>
<!DOCTYPE svg PUBLIC "-//W3C//DTD SVG 1.1//EN"
 "http://www.w3.org/Graphics/SVG/1.1/DTD/svg11.dtd">
<!-- Generated by graphviz version 2.26.0 (20091210.2329)
 -->
<!-- Title: apbps2_test Pages: 1 -->
<svg width="194pt" height="70pt"
 viewBox="0.00 0.00 194.00 70.00" xmlns="http://www.w3.org/2000/svg" xmlns:xlink="http://www.w3.org/1999/xlink">
<g id="graph1" class="graph" transform="scale(1 1) rotate(0) translate(4 66)">
<title>apbps2_test</title>
<polygon fill="white" stroke="white" points="-4,5 -4,-66 191,-66 191,5 -4,5"/>
<!-- Node1 -->
<g id="node1" class="node"><title>Node1</title>
<polygon fill="#bfbfbf" stroke="black" points="0,-20.5 0,-41.5 70,-41.5 70,-20.5 0,-20.5"/>
<text text-anchor="middle" x="35" y="-28.5" font-family="Helvetica,sans-Serif" font-size="10.00">apbps2_test</text>
</g>
<!-- Node2 -->
<g id="node3" class="node"><title>Node2</title>
<a xlink:href="report__device_8c.html#a19b399e21d163c2a92510871f1a807de" target="_top" xlink:title="report_device">
<polygon fill="white" stroke="black" points="108.5,-40.5 108.5,-61.5 183.5,-61.5 183.5,-40.5 108.5,-40.5"/>
<text text-anchor="middle" x="146" y="-48.5" font-family="Helvetica,sans-Serif" font-size="10.00">report_device</text>
</a>
</g>
<!-- Node1&#45;&gt;Node2 -->
<g id="edge2" class="edge"><title>Node1&#45;&gt;Node2</title>
<path fill="none" stroke="midnightblue" d="M70.1211,-37.3281C79.0767,-38.9417 88.8543,-40.7035 98.3221,-42.4094"/>
<polygon fill="midnightblue" stroke="midnightblue" points="97.9583,-45.9001 108.42,-44.2289 99.1996,-39.0111 97.9583,-45.9001"/>
</g>
<!-- Node3 -->
<g id="node5" class="node"><title>Node3</title>
<a xlink:href="report__device_8c.html#aa1e4c0543aa65e7b4c320fbb86c81f3c" target="_top" xlink:title="report_subtest">
<polygon fill="white" stroke="black" points="106.5,-0.5 106.5,-21.5 185.5,-21.5 185.5,-0.5 106.5,-0.5"/>
<text text-anchor="middle" x="146" y="-8.5" font-family="Helvetica,sans-Serif" font-size="10.00">report_subtest</text>
</a>
</g>
<!-- Node1&#45;&gt;Node3 -->
<g id="edge4" class="edge"><title>Node1&#45;&gt;Node3</title>
<path fill="none" stroke="midnightblue" d="M70.1211,-24.6719C78.5199,-23.1586 87.6418,-21.515 96.553,-19.9094"/>
<polygon fill="midnightblue" stroke="midnightblue" points="97.2539,-23.3395 106.475,-18.1217 96.0126,-16.4505 97.2539,-23.3395"/>
</g>
</g>
</svg>
