<?xml version="1.0" encoding="UTF-8" standalone="no"?>
<!DOCTYPE svg PUBLIC "-//W3C//DTD SVG 1.1//EN"
 "http://www.w3.org/Graphics/SVG/1.1/DTD/svg11.dtd">
<!-- Generated by graphviz version 2.38.0 (20140413.2041)
 -->
<!-- Title: gaisler/memory/basememory.h Pages: 1 -->
<svg width="862pt" height="330pt"
 viewBox="0.00 0.00 862.00 330.00" xmlns="http://www.w3.org/2000/svg" xmlns:xlink="http://www.w3.org/1999/xlink">
<g id="graph0" class="graph" transform="scale(1 1) rotate(0) translate(4 326)">
<title>gaisler/memory/basememory.h</title>
<polygon fill="white" stroke="none" points="-4,4 -4,-326 858,-326 858,4 -4,4"/>
<!-- Node1 -->
<g id="node1" class="node"><title>Node1</title>
<polygon fill="#bfbfbf" stroke="black" points="485.5,-302.5 485.5,-321.5 636.5,-321.5 636.5,-302.5 485.5,-302.5"/>
<text text-anchor="middle" x="561" y="-309.5" font-family="Helvetica,sans-Serif" font-size="10.00">gaisler/memory/basememory.h</text>
</g>
<!-- Node2 -->
<g id="node2" class="node"><title>Node2</title>
<g id="a_node2"><a xlink:href="arraystorage_8h.html" target="_top" xlink:title="gaisler/memory/arraystorage.h">
<polygon fill="white" stroke="black" points="334.5,-246.5 334.5,-265.5 483.5,-265.5 483.5,-246.5 334.5,-246.5"/>
<text text-anchor="middle" x="409" y="-253.5" font-family="Helvetica,sans-Serif" font-size="10.00">gaisler/memory/arraystorage.h</text>
</a>
</g>
</g>
<!-- Node1&#45;&gt;Node2 -->
<g id="edge1" class="edge"><title>Node1&#45;&gt;Node2</title>
<path fill="none" stroke="midnightblue" d="M536.915,-302.444C511.455,-293.399 471.106,-279.064 442.541,-268.916"/>
<polygon fill="midnightblue" stroke="midnightblue" points="443.567,-265.566 432.972,-265.516 441.223,-272.162 443.567,-265.566"/>
</g>
<!-- Node3 -->
<g id="node3" class="node"><title>Node3</title>
<g id="a_node3"><a xlink:href="storage_8h.html" target="_top" xlink:title="gaisler/memory/storage.h">
<polygon fill="white" stroke="black" points="417.5,-185 417.5,-204 544.5,-204 544.5,-185 417.5,-185"/>
<text text-anchor="middle" x="481" y="-192" font-family="Helvetica,sans-Serif" font-size="10.00">gaisler/memory/storage.h</text>
</a>
</g>
</g>
<!-- Node1&#45;&gt;Node3 -->
<g id="edge19" class="edge"><title>Node1&#45;&gt;Node3</title>
<path fill="none" stroke="midnightblue" d="M554.987,-302.319C541.841,-283.339 510.332,-237.848 492.975,-212.788"/>
<polygon fill="midnightblue" stroke="midnightblue" points="495.654,-210.51 487.083,-204.282 489.9,-214.496 495.654,-210.51"/>
</g>
<!-- Node15 -->
<g id="node15" class="node"><title>Node15</title>
<g id="a_node15"><a xlink:href="mapstorage_8h.html" target="_top" xlink:title="gaisler/memory/mapstorage.h">
<polygon fill="white" stroke="black" points="539,-246.5 539,-265.5 685,-265.5 685,-246.5 539,-246.5"/>
<text text-anchor="middle" x="612" y="-253.5" font-family="Helvetica,sans-Serif" font-size="10.00">gaisler/memory/mapstorage.h</text>
</a>
</g>
</g>
<!-- Node1&#45;&gt;Node15 -->
<g id="edge15" class="edge"><title>Node1&#45;&gt;Node15</title>
<path fill="none" stroke="midnightblue" d="M569.422,-302.083C576.848,-294.22 587.852,-282.569 596.812,-273.081"/>
<polygon fill="midnightblue" stroke="midnightblue" points="599.413,-275.424 603.735,-265.751 594.324,-270.618 599.413,-275.424"/>
</g>
<!-- Node17 -->
<g id="node17" class="node"><title>Node17</title>
<g id="a_node17"><a xlink:href="scireg_8h.html" target="_top" xlink:title="core/common/scireg.h">
<polygon fill="white" stroke="black" points="703.5,-246.5 703.5,-265.5 816.5,-265.5 816.5,-246.5 703.5,-246.5"/>
<text text-anchor="middle" x="760" y="-253.5" font-family="Helvetica,sans-Serif" font-size="10.00">core/common/scireg.h</text>
</a>
</g>
</g>
<!-- Node1&#45;&gt;Node17 -->
<g id="edge20" class="edge"><title>Node1&#45;&gt;Node17</title>
<path fill="none" stroke="midnightblue" d="M592.532,-302.444C626.592,-293.201 681.006,-278.436 718.515,-268.257"/>
<polygon fill="midnightblue" stroke="midnightblue" points="719.881,-271.513 728.615,-265.516 718.048,-264.758 719.881,-271.513"/>
</g>
<!-- Node2&#45;&gt;Node3 -->
<g id="edge2" class="edge"><title>Node2&#45;&gt;Node3</title>
<path fill="none" stroke="midnightblue" d="M419.316,-246.475C430.651,-237.108 449.073,-221.884 462.839,-210.508"/>
<polygon fill="midnightblue" stroke="midnightblue" points="465.224,-213.077 470.703,-204.009 460.765,-207.681 465.224,-213.077"/>
</g>
<!-- Node4 -->
<g id="node4" class="node"><title>Node4</title>
<g id="a_node4"><a xlink:href="core_2common_2systemc_8h.html" target="_top" xlink:title="core/common/systemc.h">
<polygon fill="white" stroke="black" points="188.5,-123.5 188.5,-142.5 313.5,-142.5 313.5,-123.5 188.5,-123.5"/>
<text text-anchor="middle" x="251" y="-130.5" font-family="Helvetica,sans-Serif" font-size="10.00">core/common/systemc.h</text>
</a>
</g>
</g>
<!-- Node3&#45;&gt;Node4 -->
<g id="edge3" class="edge"><title>Node3&#45;&gt;Node4</title>
<path fill="none" stroke="midnightblue" d="M448.047,-184.975C407.398,-174.459 338.213,-156.562 293.576,-145.014"/>
<polygon fill="midnightblue" stroke="midnightblue" points="294.45,-141.625 283.892,-142.509 292.697,-148.402 294.45,-141.625"/>
</g>
<!-- Node9 -->
<g id="node9" class="node"><title>Node9</title>
<g id="a_node9"><a xlink:href="sr__registry_8h.html" target="_top" xlink:title="core/common/sr_registry.h">
<polygon fill="white" stroke="black" points="436.5,-123.5 436.5,-142.5 569.5,-142.5 569.5,-123.5 436.5,-123.5"/>
<text text-anchor="middle" x="503" y="-130.5" font-family="Helvetica,sans-Serif" font-size="10.00">core/common/sr_registry.h</text>
</a>
</g>
</g>
<!-- Node3&#45;&gt;Node9 -->
<g id="edge9" class="edge"><title>Node3&#45;&gt;Node9</title>
<path fill="none" stroke="midnightblue" d="M484.152,-184.975C487.321,-176.404 492.304,-162.927 496.351,-151.983"/>
<polygon fill="midnightblue" stroke="midnightblue" points="499.668,-153.102 499.854,-142.509 493.103,-150.675 499.668,-153.102"/>
</g>
<!-- Node4&#45;&gt;Node4 -->
<g id="edge4" class="edge"><title>Node4&#45;&gt;Node4</title>
<path fill="none" stroke="midnightblue" d="M280.724,-142.533C305.554,-146.607 331.5,-143.43 331.5,-133 331.5,-123.996 312.164,-120.397 290.901,-122.202"/>
<polygon fill="midnightblue" stroke="midnightblue" points="290.216,-118.76 280.724,-123.467 291.079,-125.707 290.216,-118.76"/>
</g>
<!-- Node5 -->
<g id="node5" class="node"><title>Node5</title>
<polygon fill="white" stroke="#bfbfbf" points="0,-62 0,-81 38,-81 38,-62 0,-62"/>
<text text-anchor="middle" x="19" y="-69" font-family="Helvetica,sans-Serif" font-size="10.00">tlm.h</text>
</g>
<!-- Node4&#45;&gt;Node5 -->
<g id="edge5" class="edge"><title>Node4&#45;&gt;Node5</title>
<path fill="none" stroke="midnightblue" d="M193.594,-123.458C152.084,-116.296 95.0819,-104.414 47,-87 45.755,-86.5491 44.4954,-86.054 43.2349,-85.527"/>
<polygon fill="midnightblue" stroke="midnightblue" points="44.3247,-82.1712 33.7873,-81.0695 41.3377,-88.502 44.3247,-82.1712"/>
</g>
<!-- Node6 -->
<g id="node6" class="node"><title>Node6</title>
<polygon fill="white" stroke="#bfbfbf" points="56.5,-56.5 56.5,-86.5 171.5,-86.5 171.5,-56.5 56.5,-56.5"/>
<text text-anchor="start" x="64.5" y="-74.5" font-family="Helvetica,sans-Serif" font-size="10.00">tlm_utils/simple_target</text>
<text text-anchor="middle" x="114" y="-63.5" font-family="Helvetica,sans-Serif" font-size="10.00">_socket.h</text>
</g>
<!-- Node4&#45;&gt;Node6 -->
<g id="edge6" class="edge"><title>Node4&#45;&gt;Node6</title>
<path fill="none" stroke="midnightblue" d="M231.371,-123.475C211.689,-114.927 180.776,-101.501 155.614,-90.5734"/>
<polygon fill="midnightblue" stroke="midnightblue" points="156.855,-87.2963 146.288,-86.523 154.066,-93.7169 156.855,-87.2963"/>
</g>
<!-- Node7 -->
<g id="node7" class="node"><title>Node7</title>
<polygon fill="white" stroke="#bfbfbf" points="190,-56.5 190,-86.5 312,-86.5 312,-56.5 190,-56.5"/>
<text text-anchor="start" x="198" y="-74.5" font-family="Helvetica,sans-Serif" font-size="10.00">tlm_utils/simple_initiator</text>
<text text-anchor="middle" x="251" y="-63.5" font-family="Helvetica,sans-Serif" font-size="10.00">_socket.h</text>
</g>
<!-- Node4&#45;&gt;Node7 -->
<g id="edge7" class="edge"><title>Node4&#45;&gt;Node7</title>
<path fill="none" stroke="midnightblue" d="M251,-123.475C251,-116.471 251,-106.192 251,-96.6956"/>
<polygon fill="midnightblue" stroke="midnightblue" points="254.5,-96.5229 251,-86.523 247.5,-96.523 254.5,-96.5229"/>
</g>
<!-- Node8 -->
<g id="node8" class="node"><title>Node8</title>
<polygon fill="white" stroke="#bfbfbf" points="330.5,-56.5 330.5,-86.5 425.5,-86.5 425.5,-56.5 330.5,-56.5"/>
<text text-anchor="start" x="338.5" y="-74.5" font-family="Helvetica,sans-Serif" font-size="10.00">tlm_utils/peq_with</text>
<text text-anchor="middle" x="378" y="-63.5" font-family="Helvetica,sans-Serif" font-size="10.00">_get.h</text>
</g>
<!-- Node4&#45;&gt;Node8 -->
<g id="edge8" class="edge"><title>Node4&#45;&gt;Node8</title>
<path fill="none" stroke="midnightblue" d="M269.196,-123.475C287.281,-115.002 315.594,-101.737 338.805,-90.8628"/>
<polygon fill="midnightblue" stroke="midnightblue" points="340.498,-93.9349 348.069,-86.523 337.528,-87.5961 340.498,-93.9349"/>
</g>
<!-- Node10 -->
<g id="node10" class="node"><title>Node10</title>
<g id="a_node10"><a xlink:href="sr__registry_2sr__registry_8h.html" target="_top" xlink:title="core/common/sr_registry\l/sr_registry.h">
<polygon fill="white" stroke="black" points="443.5,-56.5 443.5,-86.5 568.5,-86.5 568.5,-56.5 443.5,-56.5"/>
<text text-anchor="start" x="451.5" y="-74.5" font-family="Helvetica,sans-Serif" font-size="10.00">core/common/sr_registry</text>
<text text-anchor="middle" x="506" y="-63.5" font-family="Helvetica,sans-Serif" font-size="10.00">/sr_registry.h</text>
</a>
</g>
</g>
<!-- Node9&#45;&gt;Node10 -->
<g id="edge10" class="edge"><title>Node9&#45;&gt;Node10</title>
<path fill="none" stroke="midnightblue" d="M503.43,-123.475C503.783,-116.471 504.301,-106.192 504.78,-96.6956"/>
<polygon fill="midnightblue" stroke="midnightblue" points="508.285,-96.6866 505.293,-86.523 501.294,-96.334 508.285,-96.6866"/>
</g>
<!-- Node11 -->
<g id="node11" class="node"><title>Node11</title>
<polygon fill="white" stroke="#bfbfbf" points="412.5,-0.5 412.5,-19.5 453.5,-19.5 453.5,-0.5 412.5,-0.5"/>
<text text-anchor="middle" x="433" y="-7.5" font-family="Helvetica,sans-Serif" font-size="10.00">string</text>
</g>
<!-- Node10&#45;&gt;Node11 -->
<g id="edge11" class="edge"><title>Node10&#45;&gt;Node11</title>
<path fill="none" stroke="midnightblue" d="M488.7,-56.3993C477.545,-47.3076 463.046,-35.4899 451.638,-26.1909"/>
<polygon fill="midnightblue" stroke="midnightblue" points="453.585,-23.2627 443.622,-19.6578 449.162,-28.6887 453.585,-23.2627"/>
</g>
<!-- Node12 -->
<g id="node12" class="node"><title>Node12</title>
<polygon fill="white" stroke="#bfbfbf" points="600.5,-0.5 600.5,-19.5 635.5,-19.5 635.5,-0.5 600.5,-0.5"/>
<text text-anchor="middle" x="618" y="-7.5" font-family="Helvetica,sans-Serif" font-size="10.00">map</text>
</g>
<!-- Node10&#45;&gt;Node12 -->
<g id="edge12" class="edge"><title>Node10&#45;&gt;Node12</title>
<path fill="none" stroke="midnightblue" d="M532.542,-56.3993C550.663,-46.7728 574.536,-34.0902 592.443,-24.5772"/>
<polygon fill="midnightblue" stroke="midnightblue" points="594.514,-27.4403 601.703,-19.6578 591.23,-21.2585 594.514,-27.4403"/>
</g>
<!-- Node13 -->
<g id="node13" class="node"><title>Node13</title>
<polygon fill="white" stroke="#bfbfbf" points="472,-0.5 472,-19.5 502,-19.5 502,-0.5 472,-0.5"/>
<text text-anchor="middle" x="487" y="-7.5" font-family="Helvetica,sans-Serif" font-size="10.00">set</text>
</g>
<!-- Node10&#45;&gt;Node13 -->
<g id="edge13" class="edge"><title>Node10&#45;&gt;Node13</title>
<path fill="none" stroke="midnightblue" d="M501.497,-56.3993C498.907,-48.2881 495.624,-38.0071 492.838,-29.2807"/>
<polygon fill="midnightblue" stroke="midnightblue" points="496.141,-28.1192 489.765,-19.6578 489.473,-30.2486 496.141,-28.1192"/>
</g>
<!-- Node14 -->
<g id="node14" class="node"><title>Node14</title>
<polygon fill="white" stroke="#bfbfbf" points="520,-0.5 520,-19.5 582,-19.5 582,-0.5 520,-0.5"/>
<text text-anchor="middle" x="551" y="-7.5" font-family="Helvetica,sans-Serif" font-size="10.00">systemc.h</text>
</g>
<!-- Node10&#45;&gt;Node14 -->
<g id="edge14" class="edge"><title>Node10&#45;&gt;Node14</title>
<path fill="none" stroke="midnightblue" d="M516.664,-56.3993C523.136,-47.8424 531.434,-36.8708 538.251,-27.857"/>
<polygon fill="midnightblue" stroke="midnightblue" points="541.211,-29.7449 544.452,-19.6578 535.628,-25.5223 541.211,-29.7449"/>
</g>
<!-- Node15&#45;&gt;Node3 -->
<g id="edge18" class="edge"><title>Node15&#45;&gt;Node3</title>
<path fill="none" stroke="midnightblue" d="M593.231,-246.475C571.149,-236.445 534.281,-219.7 508.861,-208.155"/>
<polygon fill="midnightblue" stroke="midnightblue" points="510.287,-204.958 499.734,-204.009 507.392,-211.331 510.287,-204.958"/>
</g>
<!-- Node16 -->
<g id="node16" class="node"><title>Node16</title>
<g id="a_node16"><a xlink:href="vmap_8h.html" target="_top" xlink:title="core/common/vmap.h">
<polygon fill="white" stroke="black" points="562.5,-185 562.5,-204 673.5,-204 673.5,-185 562.5,-185"/>
<text text-anchor="middle" x="618" y="-192" font-family="Helvetica,sans-Serif" font-size="10.00">core/common/vmap.h</text>
</a>
</g>
</g>
<!-- Node15&#45;&gt;Node16 -->
<g id="edge16" class="edge"><title>Node15&#45;&gt;Node16</title>
<path fill="none" stroke="midnightblue" d="M612.86,-246.475C613.706,-238.08 615.027,-224.981 616.118,-214.163"/>
<polygon fill="midnightblue" stroke="midnightblue" points="619.621,-214.31 617.142,-204.009 612.656,-213.607 619.621,-214.31"/>
</g>
<!-- Node16&#45;&gt;Node12 -->
<g id="edge17" class="edge"><title>Node16&#45;&gt;Node12</title>
<path fill="none" stroke="midnightblue" d="M618,-184.698C618,-156.693 618,-69.2128 618,-30.1598"/>
<polygon fill="midnightblue" stroke="midnightblue" points="621.5,-29.714 618,-19.714 614.5,-29.7141 621.5,-29.714"/>
</g>
<!-- Node18 -->
<g id="node18" class="node"><title>Node18</title>
<g id="a_node18"><a xlink:href="sr__register_2scireg_8h.html" target="_top" xlink:title="core/common/sr_register\l/scireg.h">
<polygon fill="white" stroke="black" points="697.5,-179.5 697.5,-209.5 822.5,-209.5 822.5,-179.5 697.5,-179.5"/>
<text text-anchor="start" x="705.5" y="-197.5" font-family="Helvetica,sans-Serif" font-size="10.00">core/common/sr_register</text>
<text text-anchor="middle" x="760" y="-186.5" font-family="Helvetica,sans-Serif" font-size="10.00">/scireg.h</text>
</a>
</g>
</g>
<!-- Node17&#45;&gt;Node18 -->
<g id="edge21" class="edge"><title>Node17&#45;&gt;Node18</title>
<path fill="none" stroke="midnightblue" d="M760,-246.475C760,-239.471 760,-229.192 760,-219.696"/>
<polygon fill="midnightblue" stroke="midnightblue" points="763.5,-219.523 760,-209.523 756.5,-219.523 763.5,-219.523"/>
</g>
<!-- Node19 -->
<g id="node19" class="node"><title>Node19</title>
<polygon fill="white" stroke="#bfbfbf" points="664,-123.5 664,-142.5 720,-142.5 720,-123.5 664,-123.5"/>
<text text-anchor="middle" x="692" y="-130.5" font-family="Helvetica,sans-Serif" font-size="10.00">algorithm</text>
</g>
<!-- Node18&#45;&gt;Node19 -->
<g id="edge22" class="edge"><title>Node18&#45;&gt;Node19</title>
<path fill="none" stroke="midnightblue" d="M743.885,-179.399C733.596,-170.397 720.253,-158.721 709.674,-149.465"/>
<polygon fill="midnightblue" stroke="midnightblue" points="711.725,-146.609 701.895,-142.658 707.116,-151.877 711.725,-146.609"/>
</g>
<!-- Node20 -->
<g id="node20" class="node"><title>Node20</title>
<polygon fill="white" stroke="#bfbfbf" points="738,-123.5 738,-142.5 782,-142.5 782,-123.5 738,-123.5"/>
<text text-anchor="middle" x="760" y="-130.5" font-family="Helvetica,sans-Serif" font-size="10.00">vector</text>
</g>
<!-- Node18&#45;&gt;Node20 -->
<g id="edge23" class="edge"><title>Node18&#45;&gt;Node20</title>
<path fill="none" stroke="midnightblue" d="M760,-179.399C760,-171.466 760,-161.458 760,-152.858"/>
<polygon fill="midnightblue" stroke="midnightblue" points="763.5,-152.658 760,-142.658 756.5,-152.658 763.5,-152.658"/>
</g>
<!-- Node21 -->
<g id="node21" class="node"><title>Node21</title>
<polygon fill="white" stroke="#bfbfbf" points="800,-123.5 800,-142.5 854,-142.5 854,-123.5 800,-123.5"/>
<text text-anchor="middle" x="827" y="-130.5" font-family="Helvetica,sans-Serif" font-size="10.00">systemc</text>
</g>
<!-- Node18&#45;&gt;Node21 -->
<g id="edge24" class="edge"><title>Node18&#45;&gt;Node21</title>
<path fill="none" stroke="midnightblue" d="M775.878,-179.399C786.015,-170.397 799.162,-158.721 809.585,-149.465"/>
<polygon fill="midnightblue" stroke="midnightblue" points="812.098,-151.915 817.251,-142.658 807.45,-146.681 812.098,-151.915"/>
</g>
</g>
</svg>
