<?xml version="1.0" encoding="UTF-8" standalone="no"?>
<!DOCTYPE svg PUBLIC "-//W3C//DTD SVG 1.1//EN"
 "http://www.w3.org/Graphics/SVG/1.1/DTD/svg11.dtd">
<!-- Generated by graphviz version 2.38.0 (20140413.2041)
 -->
<!-- Title: core/models/memory/basememory.h Pages: 1 -->
<svg width="893pt" height="297pt"
 viewBox="0.00 0.00 893.28 297.00" xmlns="http://www.w3.org/2000/svg" xmlns:xlink="http://www.w3.org/1999/xlink">
<g id="graph0" class="graph" transform="scale(1 1) rotate(0) translate(4 293)">
<title>core/models/memory/basememory.h</title>
<polygon fill="white" stroke="none" points="-4,4 -4,-293 889.283,-293 889.283,4 -4,4"/>
<!-- Node1 -->
<g id="node1" class="node"><title>Node1</title>
<polygon fill="#bfbfbf" stroke="black" points="497.527,-260.5 497.527,-288.5 606.886,-288.5 606.886,-260.5 497.527,-260.5"/>
<text text-anchor="start" x="505.527" y="-276.5" font-family="Helvetica,sans-Serif" font-size="10.00">core/models/memory</text>
<text text-anchor="middle" x="552.207" y="-266.5" font-family="Helvetica,sans-Serif" font-size="10.00">/basememory.h</text>
</g>
<!-- Node2 -->
<g id="node2" class="node"><title>Node2</title>
<g id="a_node2"><a xlink:href="memorypower_8h.html" target="_top" xlink:title="core/models/memory\l/memorypower.h">
<polygon fill="white" stroke="black" points="389.527,-195.5 389.527,-223.5 498.886,-223.5 498.886,-195.5 389.527,-195.5"/>
<text text-anchor="start" x="397.527" y="-211.5" font-family="Helvetica,sans-Serif" font-size="10.00">core/models/memory</text>
<text text-anchor="middle" x="444.207" y="-201.5" font-family="Helvetica,sans-Serif" font-size="10.00">/memorypower.h</text>
</a>
</g>
</g>
<!-- Node1&#45;&gt;Node2 -->
<g id="edge1" class="edge"><title>Node1&#45;&gt;Node2</title>
<path fill="none" stroke="midnightblue" d="M521.118,-255.365C503.681,-245.194 482.333,-232.74 466.556,-223.537"/>
<polygon fill="midnightblue" stroke="midnightblue" points="519.428,-258.431 529.829,-260.446 522.955,-252.384 519.428,-258.431"/>
</g>
<!-- Node11 -->
<g id="node11" class="node"><title>Node11</title>
<g id="a_node11"><a xlink:href="ahbmem_8h.html" target="_top" xlink:title="core/models/ahbmem\l/ahbmem.h">
<polygon fill="white" stroke="black" points="556.13,-130.5 556.13,-158.5 668.283,-158.5 668.283,-130.5 556.13,-130.5"/>
<text text-anchor="start" x="564.13" y="-146.5" font-family="Helvetica,sans-Serif" font-size="10.00">core/models/ahbmem</text>
<text text-anchor="middle" x="612.207" y="-136.5" font-family="Helvetica,sans-Serif" font-size="10.00">/ahbmem.h</text>
</a>
</g>
</g>
<!-- Node1&#45;&gt;Node11 -->
<g id="edge10" class="edge"><title>Node1&#45;&gt;Node11</title>
<path fill="none" stroke="midnightblue" d="M555.016,-250.194C557.627,-234.051 562.477,-212.417 571.207,-195 578.107,-181.233 589.482,-167.925 598.502,-158.581"/>
<polygon fill="midnightblue" stroke="midnightblue" points="551.511,-249.976 553.546,-260.374 558.439,-250.977 551.511,-249.976"/>
</g>
<!-- Node13 -->
<g id="node13" class="node"><title>Node13</title>
<g id="a_node13"><a xlink:href="basememory_8cpp.html" target="_top" xlink:title="core/models/memory\l/basememory.cpp">
<polygon fill="white" stroke="black" points="580.527,-195.5 580.527,-223.5 689.886,-223.5 689.886,-195.5 580.527,-195.5"/>
<text text-anchor="start" x="588.527" y="-211.5" font-family="Helvetica,sans-Serif" font-size="10.00">core/models/memory</text>
<text text-anchor="middle" x="635.207" y="-201.5" font-family="Helvetica,sans-Serif" font-size="10.00">/basememory.cpp</text>
</a>
</g>
</g>
<!-- Node1&#45;&gt;Node13 -->
<g id="edge14" class="edge"><title>Node1&#45;&gt;Node13</title>
<path fill="none" stroke="midnightblue" d="M577.586,-254.236C590.697,-244.284 606.351,-232.403 618.031,-223.537"/>
<polygon fill="midnightblue" stroke="midnightblue" points="575.253,-251.612 569.404,-260.446 579.486,-257.188 575.253,-251.612"/>
</g>
<!-- Node3 -->
<g id="node3" class="node"><title>Node3</title>
<g id="a_node3"><a xlink:href="memory_8h.html" target="_top" xlink:title="core/models/memory\l/memory.h">
<polygon fill="white" stroke="black" points="389.527,-130.5 389.527,-158.5 498.886,-158.5 498.886,-130.5 389.527,-130.5"/>
<text text-anchor="start" x="397.527" y="-146.5" font-family="Helvetica,sans-Serif" font-size="10.00">core/models/memory</text>
<text text-anchor="middle" x="444.207" y="-136.5" font-family="Helvetica,sans-Serif" font-size="10.00">/memory.h</text>
</a>
</g>
</g>
<!-- Node2&#45;&gt;Node3 -->
<g id="edge2" class="edge"><title>Node2&#45;&gt;Node3</title>
<path fill="none" stroke="midnightblue" d="M444.207,-185.164C444.207,-176.169 444.207,-166.221 444.207,-158.537"/>
<polygon fill="midnightblue" stroke="midnightblue" points="440.707,-185.446 444.207,-195.446 447.707,-185.446 440.707,-185.446"/>
</g>
<!-- Node10 -->
<g id="node10" class="node"><title>Node10</title>
<g id="a_node10"><a xlink:href="memorypower_8cpp.html" target="_top" xlink:title="core/models/memory\l/memorypower.cpp">
<polygon fill="white" stroke="black" points="262.527,-130.5 262.527,-158.5 371.886,-158.5 371.886,-130.5 262.527,-130.5"/>
<text text-anchor="start" x="270.527" y="-146.5" font-family="Helvetica,sans-Serif" font-size="10.00">core/models/memory</text>
<text text-anchor="middle" x="317.207" y="-136.5" font-family="Helvetica,sans-Serif" font-size="10.00">/memorypower.cpp</text>
</a>
</g>
</g>
<!-- Node2&#45;&gt;Node10 -->
<g id="edge9" class="edge"><title>Node2&#45;&gt;Node10</title>
<path fill="none" stroke="midnightblue" d="M408.772,-190.922C388.068,-180.652 362.381,-167.909 343.487,-158.537"/>
<polygon fill="midnightblue" stroke="midnightblue" points="407.378,-194.138 417.892,-195.446 410.489,-187.867 407.378,-194.138"/>
</g>
<!-- Node4 -->
<g id="node4" class="node"><title>Node4</title>
<g id="a_node4"><a xlink:href="block__allocator_8cpp.html" target="_top" xlink:title="core/common/block_allocator.cpp">
<polygon fill="white" stroke="black" points="0,-70.5 0,-88.5 164.413,-88.5 164.413,-70.5 0,-70.5"/>
<text text-anchor="middle" x="82.2065" y="-76.5" font-family="Helvetica,sans-Serif" font-size="10.00">core/common/block_allocator.cpp</text>
</a>
</g>
</g>
<!-- Node3&#45;&gt;Node4 -->
<g id="edge3" class="edge"><title>Node3&#45;&gt;Node4</title>
<path fill="none" stroke="midnightblue" d="M379.341,-129.691C288.397,-112.597 193.045,-97.4102 135.27,-88.513"/>
<polygon fill="midnightblue" stroke="midnightblue" points="378.786,-133.148 389.262,-131.567 380.087,-126.27 378.786,-133.148"/>
</g>
<!-- Node5 -->
<g id="node5" class="node"><title>Node5</title>
<g id="a_node5"><a xlink:href="json__parser_8cpp.html" target="_top" xlink:title="core/common/json_parser.cpp">
<polygon fill="white" stroke="black" points="182.227,-70.5 182.227,-88.5 332.187,-88.5 332.187,-70.5 182.227,-70.5"/>
<text text-anchor="middle" x="257.207" y="-76.5" font-family="Helvetica,sans-Serif" font-size="10.00">core/common/json_parser.cpp</text>
</a>
</g>
</g>
<!-- Node3&#45;&gt;Node5 -->
<g id="edge4" class="edge"><title>Node3&#45;&gt;Node5</title>
<path fill="none" stroke="midnightblue" d="M395.904,-127.227C359.069,-114.817 309.912,-98.2563 281.095,-88.548"/>
<polygon fill="midnightblue" stroke="midnightblue" points="394.866,-130.57 405.46,-130.446 397.101,-123.937 394.866,-130.57"/>
</g>
<!-- Node6 -->
<g id="node6" class="node"><title>Node6</title>
<g id="a_node6"><a xlink:href="memory_2memory_8cpp.html" target="_top" xlink:title="core/models/memory\l/memory.cpp">
<polygon fill="white" stroke="black" points="350.527,-65.5 350.527,-93.5 459.886,-93.5 459.886,-65.5 350.527,-65.5"/>
<text text-anchor="start" x="358.527" y="-81.5" font-family="Helvetica,sans-Serif" font-size="10.00">core/models/memory</text>
<text text-anchor="middle" x="405.207" y="-71.5" font-family="Helvetica,sans-Serif" font-size="10.00">/memory.cpp</text>
</a>
</g>
</g>
<!-- Node3&#45;&gt;Node6 -->
<g id="edge5" class="edge"><title>Node3&#45;&gt;Node6</title>
<path fill="none" stroke="midnightblue" d="M430.854,-121.93C425.011,-112.491 418.347,-101.727 413.277,-93.5369"/>
<polygon fill="midnightblue" stroke="midnightblue" points="427.886,-123.786 436.126,-130.446 433.838,-120.101 427.886,-123.786"/>
</g>
<!-- Node7 -->
<g id="node7" class="node"><title>Node7</title>
<g id="a_node7"><a xlink:href="leon3mp_2sc__main_8cpp.html" target="_top" xlink:title="core/platforms/leon3mp\l/sc_main.cpp">
<polygon fill="white" stroke="black" points="477.96,-65.5 477.96,-93.5 598.453,-93.5 598.453,-65.5 477.96,-65.5"/>
<text text-anchor="start" x="485.96" y="-81.5" font-family="Helvetica,sans-Serif" font-size="10.00">core/platforms/leon3mp</text>
<text text-anchor="middle" x="538.207" y="-71.5" font-family="Helvetica,sans-Serif" font-size="10.00">/sc_main.cpp</text>
</a>
</g>
</g>
<!-- Node3&#45;&gt;Node7 -->
<g id="edge6" class="edge"><title>Node3&#45;&gt;Node7</title>
<path fill="none" stroke="midnightblue" d="M472.104,-124.803C487.122,-114.738 505.274,-102.572 518.755,-93.5369"/>
<polygon fill="midnightblue" stroke="midnightblue" points="470.042,-121.972 463.683,-130.446 473.939,-127.786 470.042,-121.972"/>
</g>
<!-- Node8 -->
<g id="node8" class="node"><title>Node8</title>
<g id="a_node8"><a xlink:href="leon3mp_8h.html" target="_top" xlink:title="core/platforms/newleon3mp\l/leon3mp.h">
<polygon fill="white" stroke="black" points="616.788,-65.5 616.788,-93.5 755.625,-93.5 755.625,-65.5 616.788,-65.5"/>
<text text-anchor="start" x="624.788" y="-81.5" font-family="Helvetica,sans-Serif" font-size="10.00">core/platforms/newleon3mp</text>
<text text-anchor="middle" x="686.207" y="-71.5" font-family="Helvetica,sans-Serif" font-size="10.00">/leon3mp.h</text>
</a>
</g>
</g>
<!-- Node3&#45;&gt;Node8 -->
<g id="edge7" class="edge"><title>Node3&#45;&gt;Node8</title>
<path fill="none" stroke="midnightblue" d="M504.124,-127.902C544.73,-117.331 597.775,-103.521 636.128,-93.5369"/>
<polygon fill="midnightblue" stroke="midnightblue" points="503.145,-124.54 494.349,-130.446 504.908,-131.314 503.145,-124.54"/>
</g>
<!-- Node9 -->
<g id="node9" class="node"><title>Node9</title>
<g id="a_node9"><a xlink:href="newleon3mp_2sc__main_8cpp.html" target="_top" xlink:title="core/platforms/newleon3mp\l/sc_main.cpp">
<polygon fill="white" stroke="black" points="616.788,-0.5 616.788,-28.5 755.625,-28.5 755.625,-0.5 616.788,-0.5"/>
<text text-anchor="start" x="624.788" y="-16.5" font-family="Helvetica,sans-Serif" font-size="10.00">core/platforms/newleon3mp</text>
<text text-anchor="middle" x="686.207" y="-6.5" font-family="Helvetica,sans-Serif" font-size="10.00">/sc_main.cpp</text>
</a>
</g>
</g>
<!-- Node8&#45;&gt;Node9 -->
<g id="edge8" class="edge"><title>Node8&#45;&gt;Node9</title>
<path fill="none" stroke="midnightblue" d="M686.207,-55.1641C686.207,-46.1693 686.207,-36.2205 686.207,-28.5369"/>
<polygon fill="midnightblue" stroke="midnightblue" points="682.707,-55.4463 686.207,-65.4464 689.707,-55.4464 682.707,-55.4463"/>
</g>
<!-- Node11&#45;&gt;Node7 -->
<g id="edge12" class="edge"><title>Node11&#45;&gt;Node7</title>
<path fill="none" stroke="midnightblue" d="M589.245,-123.951C577.624,-114.058 563.834,-102.318 553.52,-93.5369"/>
<polygon fill="midnightblue" stroke="midnightblue" points="586.99,-126.629 596.874,-130.446 591.528,-121.299 586.99,-126.629"/>
</g>
<!-- Node11&#45;&gt;Node8 -->
<g id="edge13" class="edge"><title>Node11&#45;&gt;Node8</title>
<path fill="none" stroke="midnightblue" d="M635.169,-123.951C646.789,-114.058 660.579,-102.318 670.893,-93.5369"/>
<polygon fill="midnightblue" stroke="midnightblue" points="632.885,-121.299 627.539,-130.446 637.423,-126.629 632.885,-121.299"/>
</g>
<!-- Node12 -->
<g id="node12" class="node"><title>Node12</title>
<g id="a_node12"><a xlink:href="ahbmem_8cpp.html" target="_top" xlink:title="core/models/ahbmem\l/ahbmem.cpp">
<polygon fill="white" stroke="black" points="773.13,-65.5 773.13,-93.5 885.283,-93.5 885.283,-65.5 773.13,-65.5"/>
<text text-anchor="start" x="781.13" y="-81.5" font-family="Helvetica,sans-Serif" font-size="10.00">core/models/ahbmem</text>
<text text-anchor="middle" x="829.207" y="-71.5" font-family="Helvetica,sans-Serif" font-size="10.00">/ahbmem.cpp</text>
</a>
</g>
</g>
<!-- Node11&#45;&gt;Node12 -->
<g id="edge11" class="edge"><title>Node11&#45;&gt;Node12</title>
<path fill="none" stroke="midnightblue" d="M667.093,-127.565C703.349,-117.039 750.274,-103.416 784.302,-93.5369"/>
<polygon fill="midnightblue" stroke="midnightblue" points="665.797,-124.297 657.169,-130.446 667.748,-131.019 665.797,-124.297"/>
</g>
</g>
</svg>
