<?xml version="1.0" encoding="UTF-8" standalone="no"?>
<!DOCTYPE svg PUBLIC "-//W3C//DTD SVG 1.1//EN"
 "http://www.w3.org/Graphics/SVG/1.1/DTD/svg11.dtd">
<!-- Generated by graphviz version 2.26.0 (20091210.2329)
 -->
<!-- Title: core/common/base.h Pages: 1 -->
<!--zoomable 448 -->
<svg id="main" version="1.1" xmlns="http://www.w3.org/2000/svg" xmlns:xlink="http://www.w3.org/1999/xlink" xml:space="preserve" onload="init(evt)">
<style type="text/css"><![CDATA[
.edge:hover path { stroke: red; }
.edge:hover polygon { stroke: red; fill: red; }
]]></style>
<script type="text/javascript"><![CDATA[
var edges = document.getElementsByTagName('g');
if (edges && edges.length) {
  for (var i=0;i<edges.length;i++) {
    if (edges[i].id.substr(0,4)=='edge') {
      edges[i].setAttribute('class','edge');
    }
  }
}
]]></script>
        <defs>
                <circle id="rim" cx="0" cy="0" r="7"/>
                <circle id="rim2" cx="0" cy="0" r="3.5"/>
                <g id="zoomPlus">
                        <use xlink:href="#rim" fill="#404040">
                                <set attributeName="fill" to="#808080" begin="zoomplus.mouseover" end="zoomplus.mouseout"/>
                        </use>
                        <path d="M-4,0h8M0,-4v8" fill="none" stroke="white" stroke-width="1.5" pointer-events="none"/>
                </g>
                <g id="zoomMin">
                        <use xlink:href="#rim" fill="#404040">
                                <set attributeName="fill" to="#808080" begin="zoomminus.mouseover" end="zoomminus.mouseout"/>
                        </use>
                        <path d="M-4,0h8" fill="none" stroke="white" stroke-width="1.5" pointer-events="none"/>
                </g>
                <g id="dirArrow">
                        <path fill="none" stroke="white" stroke-width="1.5" d="M0,-3.0v7 M-2.5,-0.5L0,-3.0L2.5,-0.5"/>
                </g>
               <g id="resetDef">
                       <use xlink:href="#rim2" fill="#404040">
                               <set attributeName="fill" to="#808080" begin="reset.mouseover" end="reset.mouseout"/>
                       </use>
               </g>
        </defs>

<script type="text/javascript">
var viewWidth = 2094;
var viewHeight = 448;
var sectionId = 'dynsection-0';
</script>
<script xlink:href="svgpan.js"/>
<svg id="graph" class="graph">
<g id="viewport">
<title>core/common/base.h</title>
<polygon fill="white" stroke="white" points="-4,5 -4,-444 2091,-444 2091,5 -4,5"/>
<!-- Node1 -->
<g id="node1" class="node"><title>Node1</title>
<polygon fill="#bfbfbf" stroke="black" points="420,-418.5 420,-439.5 528,-439.5 528,-418.5 420,-418.5"/>
<text text-anchor="middle" x="474" y="-426.5" font-family="Helvetica,sans-Serif" font-size="10.00">core/common/base.h</text>
</g>
<!-- Node2 -->
<g id="node3" class="node"><title>Node2</title>
<a xlink:href="systemc_8h.html" target="_top" xlink:title="core/common/systemc.h">
<polygon fill="white" stroke="black" points="180.5,-72.5 180.5,-93.5 305.5,-93.5 305.5,-72.5 180.5,-72.5"/>
<text text-anchor="middle" x="243" y="-80.5" font-family="Helvetica,sans-Serif" font-size="10.00">core/common/systemc.h</text>
</a>
</g>
<!-- Node1&#45;&gt;Node2 -->
<g id="edge2" class="edge"><title>Node1&#45;&gt;Node2</title>
<path fill="none" stroke="midnightblue" d="M419.765,-425.564C332.747,-419.452 166.217,-405.115 112,-382 53.2582,-356.955 0,-355.858 0,-292 0,-292 0,-292 0,-220 0,-140.904 98.9,-106.97 170.511,-92.7667"/>
<polygon fill="midnightblue" stroke="midnightblue" points="171.247,-96.1897 180.421,-90.8909 169.945,-89.3118 171.247,-96.1897"/>
</g>
<!-- Node7 -->
<g id="node14" class="node"><title>Node7</title>
<a xlink:href="gs__config_8h.html" target="_top" xlink:title="core/common/gs_config.h">
<polygon fill="white" stroke="black" points="409.5,-353.5 409.5,-374.5 538.5,-374.5 538.5,-353.5 409.5,-353.5"/>
<text text-anchor="middle" x="474" y="-361.5" font-family="Helvetica,sans-Serif" font-size="10.00">core/common/gs_config.h</text>
</a>
</g>
<!-- Node1&#45;&gt;Node7 -->
<g id="edge14" class="edge"><title>Node1&#45;&gt;Node7</title>
<path fill="none" stroke="midnightblue" d="M474,-418.267C474,-409.18 474,-395.892 474,-384.74"/>
<polygon fill="midnightblue" stroke="midnightblue" points="477.5,-384.534 474,-374.534 470.5,-384.534 477.5,-384.534"/>
</g>
<!-- Node30 -->
<g id="node66" class="node"><title>Node30</title>
<a xlink:href="report_8h.html" target="_top" xlink:title="core/common/report.h">
<polygon fill="white" stroke="black" points="121,-353.5 121,-374.5 233,-374.5 233,-353.5 121,-353.5"/>
<text text-anchor="middle" x="177" y="-361.5" font-family="Helvetica,sans-Serif" font-size="10.00">core/common/report.h</text>
</a>
</g>
<!-- Node1&#45;&gt;Node30 -->
<g id="edge72" class="edge"><title>Node1&#45;&gt;Node30</title>
<path fill="none" stroke="midnightblue" d="M425.952,-418.484C373.867,-407.085 290.744,-388.894 235.046,-376.704"/>
<polygon fill="midnightblue" stroke="midnightblue" points="235.496,-373.219 224.979,-374.501 234,-380.058 235.496,-373.219"/>
</g>
<!-- Node33 -->
<g id="node74" class="node"><title>Node33</title>
<polygon fill="white" stroke="#bfbfbf" points="1983.5,-209.5 1983.5,-230.5 2086.5,-230.5 2086.5,-209.5 1983.5,-209.5"/>
<text text-anchor="middle" x="2035" y="-217.5" font-family="Helvetica,sans-Serif" font-size="10.00">greenreg/greenreg.h</text>
</g>
<!-- Node1&#45;&gt;Node33 -->
<g id="edge82" class="edge"><title>Node1&#45;&gt;Node33</title>
<path fill="none" stroke="midnightblue" d="M528.171,-428.121C774.394,-424 1778.75,-405.79 1841,-382 1920.35,-351.673 1990.63,-274.57 2020.18,-238.781"/>
<polygon fill="midnightblue" stroke="midnightblue" points="2023.22,-240.597 2026.8,-230.626 2017.78,-236.186 2023.22,-240.597"/>
</g>
<!-- Node34 -->
<g id="node76" class="node"><title>Node34</title>
<a xlink:href="greenreg__ambasockets_8h.html" target="_top" xlink:title="core/common/grambasockets\l/greenreg_ambasockets.h">
<polygon fill="white" stroke="black" points="1686,-347 1686,-381 1832,-381 1832,-347 1686,-347"/>
<text text-anchor="start" x="1694" y="-368" font-family="Helvetica,sans-Serif" font-size="10.00">core/common/grambasockets</text>
<text text-anchor="middle" x="1759" y="-355" font-family="Helvetica,sans-Serif" font-size="10.00">/greenreg_ambasockets.h</text>
</a>
</g>
<!-- Node1&#45;&gt;Node34 -->
<g id="edge84" class="edge"><title>Node1&#45;&gt;Node34</title>
<path fill="none" stroke="midnightblue" d="M528.394,-426.249C729.6,-416.071 1432.59,-380.511 1675.6,-368.219"/>
<polygon fill="midnightblue" stroke="midnightblue" points="1675.98,-371.704 1685.79,-367.703 1675.62,-364.713 1675.98,-371.704"/>
</g>
<!-- Node2&#45;&gt;Node2 -->
<g id="edge4" class="edge"><title>Node2&#45;&gt;Node2</title>
<path fill="none" stroke="midnightblue" d="M274.62,-93.5168C298.644,-97.3181 323,-93.8125 323,-83 323,-73.708 305.012,-69.8123 284.706,-71.313"/>
<polygon fill="midnightblue" stroke="midnightblue" points="284.15,-67.8539 274.62,-72.4832 284.957,-74.8073 284.15,-67.8539"/>
</g>
<!-- Node3 -->
<g id="node6" class="node"><title>Node3</title>
<polygon fill="white" stroke="#bfbfbf" points="62,-7.5 62,-28.5 100,-28.5 100,-7.5 62,-7.5"/>
<text text-anchor="middle" x="81" y="-15.5" font-family="Helvetica,sans-Serif" font-size="10.00">tlm.h</text>
</g>
<!-- Node2&#45;&gt;Node3 -->
<g id="edge6" class="edge"><title>Node2&#45;&gt;Node3</title>
<path fill="none" stroke="midnightblue" d="M205.662,-72.4802C178.245,-64.1443 140.456,-51.3638 109,-36 107.637,-35.3343 106.259,-34.6158 104.884,-33.8624"/>
<polygon fill="midnightblue" stroke="midnightblue" points="106.407,-30.6958 96.0274,-28.5728 102.818,-36.7054 106.407,-30.6958"/>
</g>
<!-- Node4 -->
<g id="node8" class="node"><title>Node4</title>
<polygon fill="white" stroke="#bfbfbf" points="117.5,-1 117.5,-35 232.5,-35 232.5,-1 117.5,-1"/>
<text text-anchor="start" x="125.5" y="-22" font-family="Helvetica,sans-Serif" font-size="10.00">tlm_utils/simple_target</text>
<text text-anchor="middle" x="175" y="-9" font-family="Helvetica,sans-Serif" font-size="10.00">_socket.h</text>
</g>
<!-- Node2&#45;&gt;Node4 -->
<g id="edge8" class="edge"><title>Node2&#45;&gt;Node4</title>
<path fill="none" stroke="midnightblue" d="M231.771,-72.2666C223.189,-64.0633 211.025,-52.436 200.157,-42.047"/>
<polygon fill="midnightblue" stroke="midnightblue" points="202.547,-39.4896 192.9,-35.1099 197.71,-44.5498 202.547,-39.4896"/>
</g>
<!-- Node5 -->
<g id="node10" class="node"><title>Node5</title>
<polygon fill="white" stroke="#bfbfbf" points="250,-1 250,-35 372,-35 372,-1 250,-1"/>
<text text-anchor="start" x="258" y="-22" font-family="Helvetica,sans-Serif" font-size="10.00">tlm_utils/simple_initiator</text>
<text text-anchor="middle" x="311" y="-9" font-family="Helvetica,sans-Serif" font-size="10.00">_socket.h</text>
</g>
<!-- Node2&#45;&gt;Node5 -->
<g id="edge10" class="edge"><title>Node2&#45;&gt;Node5</title>
<path fill="none" stroke="midnightblue" d="M254.229,-72.2666C262.811,-64.0633 274.975,-52.436 285.843,-42.047"/>
<polygon fill="midnightblue" stroke="midnightblue" points="288.29,-44.5498 293.1,-35.1099 283.453,-39.4896 288.29,-44.5498"/>
</g>
<!-- Node6 -->
<g id="node12" class="node"><title>Node6</title>
<polygon fill="white" stroke="#bfbfbf" points="389.5,-1 389.5,-35 484.5,-35 484.5,-1 389.5,-1"/>
<text text-anchor="start" x="397.5" y="-22" font-family="Helvetica,sans-Serif" font-size="10.00">tlm_utils/peq_with</text>
<text text-anchor="middle" x="437" y="-9" font-family="Helvetica,sans-Serif" font-size="10.00">_get.h</text>
</g>
<!-- Node2&#45;&gt;Node6 -->
<g id="edge12" class="edge"><title>Node2&#45;&gt;Node6</title>
<path fill="none" stroke="midnightblue" d="M274.601,-72.412C302.94,-62.9169 345.22,-48.7511 379.535,-37.2537"/>
<polygon fill="midnightblue" stroke="midnightblue" points="381.073,-40.4296 389.443,-33.9339 378.849,-33.7923 381.073,-40.4296"/>
</g>
<!-- Node8 -->
<g id="node16" class="node"><title>Node8</title>
<polygon fill="white" stroke="#bfbfbf" points="289.5,-281.5 289.5,-302.5 396.5,-302.5 396.5,-281.5 289.5,-281.5"/>
<text text-anchor="middle" x="343" y="-289.5" font-family="Helvetica,sans-Serif" font-size="10.00">greencontrol/config.h</text>
</g>
<!-- Node7&#45;&gt;Node8 -->
<g id="edge16" class="edge"><title>Node7&#45;&gt;Node8</title>
<path fill="none" stroke="midnightblue" d="M454.67,-353.376C432.709,-341.305 396.656,-321.49 371.475,-307.651"/>
<polygon fill="midnightblue" stroke="midnightblue" points="372.858,-304.417 362.409,-302.667 369.487,-310.551 372.858,-304.417"/>
</g>
<!-- Node9 -->
<g id="node18" class="node"><title>Node9</title>
<a xlink:href="gs__config_2gs__config_8h.html" target="_top" xlink:title="core/common/gs_config\l/gs_config.h">
<polygon fill="white" stroke="black" points="413.5,-275 413.5,-309 534.5,-309 534.5,-275 413.5,-275"/>
<text text-anchor="start" x="421.5" y="-296" font-family="Helvetica,sans-Serif" font-size="10.00">core/common/gs_config</text>
<text text-anchor="middle" x="474" y="-283" font-family="Helvetica,sans-Serif" font-size="10.00">/gs_config.h</text>
</a>
</g>
<!-- Node7&#45;&gt;Node9 -->
<g id="edge18" class="edge"><title>Node7&#45;&gt;Node9</title>
<path fill="none" stroke="midnightblue" d="M474,-353.376C474,-344.451 474,-331.293 474,-319.446"/>
<polygon fill="midnightblue" stroke="midnightblue" points="477.5,-319.094 474,-309.094 470.5,-319.094 477.5,-319.094"/>
</g>
<!-- Node12 -->
<g id="node24" class="node"><title>Node12</title>
<a xlink:href="gs__config__class_8h.html" target="_top" xlink:title="core/common/gs_config\l/gs_config_class.h">
<polygon fill="white" stroke="black" points="687.5,-275 687.5,-309 808.5,-309 808.5,-275 687.5,-275"/>
<text text-anchor="start" x="695.5" y="-296" font-family="Helvetica,sans-Serif" font-size="10.00">core/common/gs_config</text>
<text text-anchor="middle" x="748" y="-283" font-family="Helvetica,sans-Serif" font-size="10.00">/gs_config_class.h</text>
</a>
</g>
<!-- Node7&#45;&gt;Node12 -->
<g id="edge24" class="edge"><title>Node7&#45;&gt;Node12</title>
<path fill="none" stroke="midnightblue" d="M514.135,-353.453C557.006,-342.188 625.787,-324.114 677.683,-310.477"/>
<polygon fill="midnightblue" stroke="midnightblue" points="678.713,-313.826 687.495,-307.899 676.934,-307.056 678.713,-313.826"/>
</g>
<!-- Node10 -->
<g id="node20" class="node"><title>Node10</title>
<polygon fill="white" stroke="#bfbfbf" points="117.5,-209.5 117.5,-230.5 158.5,-230.5 158.5,-209.5 117.5,-209.5"/>
<text text-anchor="middle" x="138" y="-217.5" font-family="Helvetica,sans-Serif" font-size="10.00">string</text>
</g>
<!-- Node9&#45;&gt;Node10 -->
<g id="edge20" class="edge"><title>Node9&#45;&gt;Node10</title>
<path fill="none" stroke="midnightblue" d="M413.128,-275.75C410.387,-275.135 407.668,-274.548 405,-274 300.208,-252.468 267.392,-274.966 167,-238 165.123,-237.309 163.237,-236.487 161.377,-235.581"/>
<polygon fill="midnightblue" stroke="midnightblue" points="162.887,-232.415 152.454,-230.566 159.456,-238.517 162.887,-232.415"/>
</g>
<!-- Node11 -->
<g id="node22" class="node"><title>Node11</title>
<polygon fill="white" stroke="#bfbfbf" points="65.5,-209.5 65.5,-230.5 100.5,-230.5 100.5,-209.5 65.5,-209.5"/>
<text text-anchor="middle" x="83" y="-217.5" font-family="Helvetica,sans-Serif" font-size="10.00">map</text>
</g>
<!-- Node9&#45;&gt;Node11 -->
<g id="edge22" class="edge"><title>Node9&#45;&gt;Node11</title>
<path fill="none" stroke="midnightblue" d="M413.148,-275.653C410.401,-275.064 407.676,-274.509 405,-274 274.813,-249.218 232.876,-285.092 109,-238 107.557,-237.451 106.117,-236.806 104.697,-236.092"/>
<polygon fill="midnightblue" stroke="midnightblue" points="106.155,-232.882 95.7931,-230.675 102.517,-238.863 106.155,-232.882"/>
</g>
<!-- Node12&#45;&gt;Node10 -->
<g id="edge26" class="edge"><title>Node12&#45;&gt;Node10</title>
<path fill="none" stroke="midnightblue" d="M687.395,-286.549C539.772,-273.248 173.133,-240.06 167,-238 165.062,-237.349 163.12,-236.547 161.209,-235.645"/>
<polygon fill="midnightblue" stroke="midnightblue" points="162.531,-232.375 152.093,-230.559 159.121,-238.488 162.531,-232.375"/>
</g>
<!-- Node13 -->
<g id="node27" class="node"><title>Node13</title>
<polygon fill="white" stroke="#bfbfbf" points="1249,-72.5 1249,-93.5 1303,-93.5 1303,-72.5 1249,-72.5"/>
<text text-anchor="middle" x="1276" y="-80.5" font-family="Helvetica,sans-Serif" font-size="10.00">iostream</text>
</g>
<!-- Node12&#45;&gt;Node13 -->
<g id="edge28" class="edge"><title>Node12&#45;&gt;Node13</title>
<path fill="none" stroke="midnightblue" d="M808.843,-289.061C932.656,-282.541 1204.96,-265.257 1237,-238 1276.31,-204.561 1279.09,-137.904 1277.67,-103.941"/>
<polygon fill="midnightblue" stroke="midnightblue" points="1281.15,-103.549 1277.07,-93.7713 1274.16,-103.959 1281.15,-103.549"/>
</g>
<!-- Node14 -->
<g id="node29" class="node"><title>Node14</title>
<polygon fill="white" stroke="#bfbfbf" points="1038,-209.5 1038,-230.5 1090,-230.5 1090,-209.5 1038,-209.5"/>
<text text-anchor="middle" x="1064" y="-217.5" font-family="Helvetica,sans-Serif" font-size="10.00">sstream</text>
</g>
<!-- Node12&#45;&gt;Node14 -->
<g id="edge30" class="edge"><title>Node12&#45;&gt;Node14</title>
<path fill="none" stroke="midnightblue" d="M808.769,-285.403C866.575,-277.95 955.394,-263.412 1029,-238 1031.58,-237.111 1034.2,-236.062 1036.79,-234.925"/>
<polygon fill="midnightblue" stroke="midnightblue" points="1038.41,-238.03 1045.91,-230.546 1035.38,-231.72 1038.41,-238.03"/>
</g>
<!-- Node15 -->
<g id="node31" class="node"><title>Node15</title>
<polygon fill="white" stroke="#bfbfbf" points="1108,-209.5 1108,-230.5 1210,-230.5 1210,-209.5 1108,-209.5"/>
<text text-anchor="middle" x="1159" y="-217.5" font-family="Helvetica,sans-Serif" font-size="10.00">boost/tokenizer.hpp</text>
</g>
<!-- Node12&#45;&gt;Node15 -->
<g id="edge32" class="edge"><title>Node12&#45;&gt;Node15</title>
<path fill="none" stroke="midnightblue" d="M808.725,-285.256C879.086,-276.843 998.264,-260.744 1099,-238 1104.84,-236.68 1110.95,-235.095 1116.94,-233.42"/>
<polygon fill="midnightblue" stroke="midnightblue" points="1118.21,-236.696 1126.83,-230.546 1116.25,-229.974 1118.21,-236.696"/>
</g>
<!-- Node16 -->
<g id="node33" class="node"><title>Node16</title>
<a xlink:href="common_8h.html" target="_top" xlink:title="core/common/common.h">
<polygon fill="white" stroke="black" points="895.5,-209.5 895.5,-230.5 1020.5,-230.5 1020.5,-209.5 895.5,-209.5"/>
<text text-anchor="middle" x="958" y="-217.5" font-family="Helvetica,sans-Serif" font-size="10.00">core/common/common.h</text>
</a>
</g>
<!-- Node12&#45;&gt;Node16 -->
<g id="edge34" class="edge"><title>Node12&#45;&gt;Node16</title>
<path fill="none" stroke="midnightblue" d="M797.767,-274.937C834.307,-262.409 883.322,-245.604 917.48,-233.892"/>
<polygon fill="midnightblue" stroke="midnightblue" points="918.811,-237.136 927.135,-230.582 916.541,-230.515 918.811,-237.136"/>
</g>
<!-- Node24 -->
<g id="node53" class="node"><title>Node24</title>
<a xlink:href="gs__config__t_8h.html" target="_top" xlink:title="core/common/gs_config\l/gs_config_t.h">
<polygon fill="white" stroke="black" points="175.5,-203 175.5,-237 296.5,-237 296.5,-203 175.5,-203"/>
<text text-anchor="start" x="183.5" y="-224" font-family="Helvetica,sans-Serif" font-size="10.00">core/common/gs_config</text>
<text text-anchor="middle" x="236" y="-211" font-family="Helvetica,sans-Serif" font-size="10.00">/gs_config_t.h</text>
</a>
</g>
<!-- Node12&#45;&gt;Node24 -->
<g id="edge58" class="edge"><title>Node12&#45;&gt;Node24</title>
<path fill="none" stroke="midnightblue" d="M687.415,-287.203C603.737,-280.006 447.994,-264.554 306.979,-238.259"/>
<polygon fill="midnightblue" stroke="midnightblue" points="307.328,-234.763 296.853,-236.347 306.03,-241.641 307.328,-234.763"/>
</g>
<!-- Node25 -->
<g id="node55" class="node"><title>Node25</title>
<a xlink:href="gs__config__operator__macros_8h.html" target="_top" xlink:title="core/common/gs_config\l/gs_config_operator_macros.h">
<polygon fill="white" stroke="black" points="314,-203 314,-237 462,-237 462,-203 314,-203"/>
<text text-anchor="start" x="322" y="-224" font-family="Helvetica,sans-Serif" font-size="10.00">core/common/gs_config</text>
<text text-anchor="middle" x="388" y="-211" font-family="Helvetica,sans-Serif" font-size="10.00">/gs_config_operator_macros.h</text>
</a>
</g>
<!-- Node12&#45;&gt;Node25 -->
<g id="edge60" class="edge"><title>Node12&#45;&gt;Node25</title>
<path fill="none" stroke="midnightblue" d="M687.407,-280.567C633.543,-270.318 552.376,-254.663 472.443,-238.278"/>
<polygon fill="midnightblue" stroke="midnightblue" points="472.695,-234.756 462.195,-236.171 471.286,-241.613 472.695,-234.756"/>
</g>
<!-- Node26 -->
<g id="node57" class="node"><title>Node26</title>
<a xlink:href="gs__config__delegate_8h.html" target="_top" xlink:title="core/common/gs_config\l/gs_config_delegate.h">
<polygon fill="white" stroke="black" points="479.5,-203 479.5,-237 600.5,-237 600.5,-203 479.5,-203"/>
<text text-anchor="start" x="487.5" y="-224" font-family="Helvetica,sans-Serif" font-size="10.00">core/common/gs_config</text>
<text text-anchor="middle" x="540" y="-211" font-family="Helvetica,sans-Serif" font-size="10.00">/gs_config_delegate.h</text>
</a>
</g>
<!-- Node12&#45;&gt;Node26 -->
<g id="edge62" class="edge"><title>Node12&#45;&gt;Node26</title>
<path fill="none" stroke="midnightblue" d="M698.707,-274.937C668.767,-264.573 630.372,-251.283 598.846,-240.37"/>
<polygon fill="midnightblue" stroke="midnightblue" points="599.894,-237.029 589.299,-237.065 597.604,-243.644 599.894,-237.029"/>
</g>
<!-- Node27 -->
<g id="node59" class="node"><title>Node27</title>
<a xlink:href="gs__config__native_8hpp.html" target="_top" xlink:title="core/common/gs_config\l/gs_config_native.hpp">
<polygon fill="white" stroke="black" points="617.5,-203 617.5,-237 738.5,-237 738.5,-203 617.5,-203"/>
<text text-anchor="start" x="625.5" y="-224" font-family="Helvetica,sans-Serif" font-size="10.00">core/common/gs_config</text>
<text text-anchor="middle" x="678" y="-211" font-family="Helvetica,sans-Serif" font-size="10.00">/gs_config_native.hpp</text>
</a>
</g>
<!-- Node12&#45;&gt;Node27 -->
<g id="edge64" class="edge"><title>Node12&#45;&gt;Node27</title>
<path fill="none" stroke="midnightblue" d="M731.411,-274.937C722.648,-265.924 711.732,-254.696 702.057,-244.744"/>
<polygon fill="midnightblue" stroke="midnightblue" points="704.437,-242.171 694.956,-237.441 699.418,-247.05 704.437,-242.171"/>
</g>
<!-- Node28 -->
<g id="node61" class="node"><title>Node28</title>
<a xlink:href="gs__config__stdint_8hpp.html" target="_top" xlink:title="core/common/gs_config\l/gs_config_stdint.hpp">
<polygon fill="white" stroke="black" points="1127.5,-131 1127.5,-165 1248.5,-165 1248.5,-131 1127.5,-131"/>
<text text-anchor="start" x="1135.5" y="-152" font-family="Helvetica,sans-Serif" font-size="10.00">core/common/gs_config</text>
<text text-anchor="middle" x="1188" y="-139" font-family="Helvetica,sans-Serif" font-size="10.00">/gs_config_stdint.hpp</text>
</a>
</g>
<!-- Node12&#45;&gt;Node28 -->
<g id="edge66" class="edge"><title>Node12&#45;&gt;Node28</title>
<path fill="none" stroke="midnightblue" d="M808.603,-289.473C929.657,-283.802 1192.12,-268.136 1219,-238 1235.1,-219.951 1222.66,-193.127 1209.05,-173.458"/>
<polygon fill="midnightblue" stroke="midnightblue" points="1211.76,-171.236 1203.02,-165.248 1206.12,-175.38 1211.76,-171.236"/>
</g>
<!-- Node29 -->
<g id="node64" class="node"><title>Node29</title>
<a xlink:href="gs__config__systemc_8hpp.html" target="_top" xlink:title="core/common/gs_config\l/gs_config_systemc.hpp">
<polygon fill="white" stroke="black" points="755.5,-203 755.5,-237 878.5,-237 878.5,-203 755.5,-203"/>
<text text-anchor="start" x="763.5" y="-224" font-family="Helvetica,sans-Serif" font-size="10.00">core/common/gs_config</text>
<text text-anchor="middle" x="817" y="-211" font-family="Helvetica,sans-Serif" font-size="10.00">/gs_config_systemc.hpp</text>
</a>
</g>
<!-- Node12&#45;&gt;Node29 -->
<g id="edge70" class="edge"><title>Node12&#45;&gt;Node29</title>
<path fill="none" stroke="midnightblue" d="M764.352,-274.937C772.99,-265.924 783.75,-254.696 793.287,-244.744"/>
<polygon fill="midnightblue" stroke="midnightblue" points="795.894,-247.082 800.286,-237.441 790.84,-242.239 795.894,-247.082"/>
</g>
<!-- Node16&#45;&gt;Node2 -->
<g id="edge36" class="edge"><title>Node16&#45;&gt;Node2</title>
<path fill="none" stroke="midnightblue" d="M918.304,-209.448C908.131,-206.878 897.186,-204.23 887,-202 681.137,-156.936 435.786,-114.746 316.04,-94.8915"/>
<polygon fill="midnightblue" stroke="midnightblue" points="316.332,-91.3921 305.894,-93.2128 315.189,-98.2982 316.332,-91.3921"/>
</g>
<!-- Node17 -->
<g id="node36" class="node"><title>Node17</title>
<a xlink:href="vendian_8h.html" target="_top" xlink:title="core/common/vendian.h">
<polygon fill="white" stroke="black" points="989.5,-137.5 989.5,-158.5 1110.5,-158.5 1110.5,-137.5 989.5,-137.5"/>
<text text-anchor="middle" x="1050" y="-145.5" font-family="Helvetica,sans-Serif" font-size="10.00">core/common/vendian.h</text>
</a>
</g>
<!-- Node16&#45;&gt;Node17 -->
<g id="edge38" class="edge"><title>Node16&#45;&gt;Node17</title>
<path fill="none" stroke="midnightblue" d="M971.575,-209.376C986.523,-197.678 1010.77,-178.705 1028.34,-164.948"/>
<polygon fill="midnightblue" stroke="midnightblue" points="1030.65,-167.587 1036.37,-158.667 1026.34,-162.074 1030.65,-167.587"/>
</g>
<!-- Node19 -->
<g id="node40" class="node"><title>Node19</title>
<a xlink:href="verbose_8h.html" target="_top" xlink:title="core/common/verbose.h">
<polygon fill="white" stroke="black" points="850,-137.5 850,-158.5 972,-158.5 972,-137.5 850,-137.5"/>
<text text-anchor="middle" x="911" y="-145.5" font-family="Helvetica,sans-Serif" font-size="10.00">core/common/verbose.h</text>
</a>
</g>
<!-- Node16&#45;&gt;Node19 -->
<g id="edge42" class="edge"><title>Node16&#45;&gt;Node19</title>
<path fill="none" stroke="midnightblue" d="M946.11,-209.376C937.036,-198.422 925.345,-181.09 917.729,-167.634"/>
<polygon fill="midnightblue" stroke="midnightblue" points="920.761,-165.88 913,-158.667 914.57,-169.145 920.761,-165.88"/>
</g>
<!-- Node18 -->
<g id="node38" class="node"><title>Node18</title>
<polygon fill="white" stroke="#bfbfbf" points="1109.5,-72.5 1109.5,-93.5 1158.5,-93.5 1158.5,-72.5 1109.5,-72.5"/>
<text text-anchor="middle" x="1134" y="-80.5" font-family="Helvetica,sans-Serif" font-size="10.00">stdint.h</text>
</g>
<!-- Node17&#45;&gt;Node18 -->
<g id="edge40" class="edge"><title>Node17&#45;&gt;Node18</title>
<path fill="none" stroke="midnightblue" d="M1063.87,-137.267C1077.08,-127.044 1097.16,-111.504 1112.46,-99.6699"/>
<polygon fill="midnightblue" stroke="midnightblue" points="1114.62,-102.422 1120.39,-93.5337 1110.34,-96.8855 1114.62,-102.422"/>
</g>
<!-- Node19&#45;&gt;Node2 -->
<g id="edge56" class="edge"><title>Node19&#45;&gt;Node2</title>
<path fill="none" stroke="midnightblue" d="M849.949,-142.059C726.586,-130.056 448.125,-102.96 315.659,-90.0701"/>
<polygon fill="midnightblue" stroke="midnightblue" points="315.9,-86.5771 305.608,-89.0921 315.222,-93.5442 315.9,-86.5771"/>
</g>
<!-- Node19&#45;&gt;Node13 -->
<g id="edge50" class="edge"><title>Node19&#45;&gt;Node13</title>
<path fill="none" stroke="midnightblue" d="M949.36,-137.446C959.596,-134.819 970.68,-132.144 981,-130 1072.83,-110.922 1182.13,-95.3438 1238.4,-87.8412"/>
<polygon fill="midnightblue" stroke="midnightblue" points="1239.14,-91.2733 1248.59,-86.4924 1238.22,-84.3338 1239.14,-91.2733"/>
</g>
<!-- Node19&#45;&gt;Node16 -->
<g id="edge54" class="edge"><title>Node19&#45;&gt;Node16</title>
<path fill="none" stroke="midnightblue" d="M922.926,-158.667C932.007,-169.638 943.697,-186.973 951.301,-200.419"/>
<polygon fill="midnightblue" stroke="midnightblue" points="948.262,-202.161 956.02,-209.376 954.455,-198.898 948.262,-202.161"/>
</g>
<!-- Node20 -->
<g id="node42" class="node"><title>Node20</title>
<polygon fill="white" stroke="#bfbfbf" points="995.5,-72.5 995.5,-93.5 1038.5,-93.5 1038.5,-72.5 995.5,-72.5"/>
<text text-anchor="middle" x="1017" y="-80.5" font-family="Helvetica,sans-Serif" font-size="10.00">cstdio</text>
</g>
<!-- Node19&#45;&gt;Node20 -->
<g id="edge44" class="edge"><title>Node19&#45;&gt;Node20</title>
<path fill="none" stroke="midnightblue" d="M928.504,-137.267C945.56,-126.807 971.694,-110.782 991.146,-98.8541"/>
<polygon fill="midnightblue" stroke="midnightblue" points="993.127,-101.745 999.822,-93.5337 989.467,-95.7776 993.127,-101.745"/>
</g>
<!-- Node21 -->
<g id="node44" class="node"><title>Node21</title>
<polygon fill="white" stroke="#bfbfbf" points="786,-72.5 786,-93.5 832,-93.5 832,-72.5 786,-72.5"/>
<text text-anchor="middle" x="809" y="-80.5" font-family="Helvetica,sans-Serif" font-size="10.00">cstring</text>
</g>
<!-- Node19&#45;&gt;Node21 -->
<g id="edge46" class="edge"><title>Node19&#45;&gt;Node21</title>
<path fill="none" stroke="midnightblue" d="M894.157,-137.267C877.818,-126.855 852.824,-110.927 834.133,-99.0163"/>
<polygon fill="midnightblue" stroke="midnightblue" points="835.844,-95.9562 825.53,-93.5337 832.082,-101.859 835.844,-95.9562"/>
</g>
<!-- Node22 -->
<g id="node46" class="node"><title>Node22</title>
<polygon fill="white" stroke="#bfbfbf" points="850,-72.5 850,-93.5 900,-93.5 900,-72.5 850,-72.5"/>
<text text-anchor="middle" x="875" y="-80.5" font-family="Helvetica,sans-Serif" font-size="10.00">iomanip</text>
</g>
<!-- Node19&#45;&gt;Node22 -->
<g id="edge48" class="edge"><title>Node19&#45;&gt;Node22</title>
<path fill="none" stroke="midnightblue" d="M905.055,-137.267C899.813,-127.801 892.046,-113.777 885.721,-102.357"/>
<polygon fill="midnightblue" stroke="midnightblue" points="888.741,-100.586 880.834,-93.5337 882.617,-103.977 888.741,-100.586"/>
</g>
<!-- Node23 -->
<g id="node49" class="node"><title>Node23</title>
<polygon fill="white" stroke="#bfbfbf" points="918,-72.5 918,-93.5 978,-93.5 978,-72.5 918,-72.5"/>
<text text-anchor="middle" x="948" y="-80.5" font-family="Helvetica,sans-Serif" font-size="10.00">streambuf</text>
</g>
<!-- Node19&#45;&gt;Node23 -->
<g id="edge52" class="edge"><title>Node19&#45;&gt;Node23</title>
<path fill="none" stroke="midnightblue" d="M917.11,-137.267C922.498,-127.801 930.481,-113.777 936.981,-102.357"/>
<polygon fill="midnightblue" stroke="midnightblue" points="940.099,-103.956 942.004,-93.5337 934.015,-100.493 940.099,-103.956"/>
</g>
<!-- Node28&#45;&gt;Node18 -->
<g id="edge68" class="edge"><title>Node28&#45;&gt;Node18</title>
<path fill="none" stroke="midnightblue" d="M1173.81,-130.922C1166.35,-121.937 1157.18,-110.905 1149.53,-101.691"/>
<polygon fill="midnightblue" stroke="midnightblue" points="1152.1,-99.3074 1143.02,-93.8521 1146.71,-103.781 1152.1,-99.3074"/>
</g>
<!-- Node30&#45;&gt;Node2 -->
<g id="edge76" class="edge"><title>Node30&#45;&gt;Node2</title>
<path fill="none" stroke="midnightblue" d="M122.432,-353.479C98.0509,-345.767 71.5752,-332.542 57,-310 30.9374,-269.692 33.9531,-244.105 57,-202 87.0091,-147.175 154.236,-113.916 199.103,-96.9911"/>
<polygon fill="midnightblue" stroke="midnightblue" points="200.401,-100.243 208.595,-93.5272 198.001,-93.6676 200.401,-100.243"/>
</g>
<!-- Node31 -->
<g id="node68" class="node"><title>Node31</title>
<polygon fill="white" stroke="#bfbfbf" points="194,-281.5 194,-302.5 272,-302.5 272,-281.5 194,-281.5"/>
<text text-anchor="middle" x="233" y="-289.5" font-family="Helvetica,sans-Serif" font-size="10.00">boost/any.hpp</text>
</g>
<!-- Node30&#45;&gt;Node31 -->
<g id="edge74" class="edge"><title>Node30&#45;&gt;Node31</title>
<path fill="none" stroke="midnightblue" d="M185.263,-353.376C193.948,-342.209 207.788,-324.415 218.335,-310.855"/>
<polygon fill="midnightblue" stroke="midnightblue" points="221.326,-312.71 224.703,-302.667 215.801,-308.412 221.326,-312.71"/>
</g>
<!-- Node32 -->
<g id="node71" class="node"><title>Node32</title>
<a xlink:href="vmap_8h.html" target="_top" xlink:title="core/common/vmap.h">
<polygon fill="white" stroke="black" points="65.5,-281.5 65.5,-302.5 176.5,-302.5 176.5,-281.5 65.5,-281.5"/>
<text text-anchor="middle" x="121" y="-289.5" font-family="Helvetica,sans-Serif" font-size="10.00">core/common/vmap.h</text>
</a>
</g>
<!-- Node30&#45;&gt;Node32 -->
<g id="edge78" class="edge"><title>Node30&#45;&gt;Node32</title>
<path fill="none" stroke="midnightblue" d="M168.737,-353.376C160.052,-342.209 146.212,-324.415 135.665,-310.855"/>
<polygon fill="midnightblue" stroke="midnightblue" points="138.199,-308.412 129.297,-302.667 132.674,-312.71 138.199,-308.412"/>
</g>
<!-- Node32&#45;&gt;Node11 -->
<g id="edge80" class="edge"><title>Node32&#45;&gt;Node11</title>
<path fill="none" stroke="midnightblue" d="M115.393,-281.376C109.612,-270.422 100.464,-253.09 93.3625,-239.634"/>
<polygon fill="midnightblue" stroke="midnightblue" points="96.393,-237.878 88.63,-230.667 90.2023,-241.145 96.393,-237.878"/>
</g>
<!-- Node34&#45;&gt;Node33 -->
<g id="edge86" class="edge"><title>Node34&#45;&gt;Node33</title>
<path fill="none" stroke="midnightblue" d="M1791.74,-346.916C1846.05,-318.581 1953.9,-262.311 2005.79,-235.242"/>
<polygon fill="midnightblue" stroke="midnightblue" points="2007.55,-238.27 2014.8,-230.541 2004.31,-232.064 2007.55,-238.27"/>
</g>
<!-- Node35 -->
<g id="node79" class="node"><title>Node35</title>
<a xlink:href="gr__ambasockets_8h.html" target="_top" xlink:title="core/common/grambasockets\l/gr_ambasockets.h">
<polygon fill="white" stroke="black" points="1686,-275 1686,-309 1832,-309 1832,-275 1686,-275"/>
<text text-anchor="start" x="1694" y="-296" font-family="Helvetica,sans-Serif" font-size="10.00">core/common/grambasockets</text>
<text text-anchor="middle" x="1759" y="-283" font-family="Helvetica,sans-Serif" font-size="10.00">/gr_ambasockets.h</text>
</a>
</g>
<!-- Node34&#45;&gt;Node35 -->
<g id="edge88" class="edge"><title>Node34&#45;&gt;Node35</title>
<path fill="none" stroke="midnightblue" d="M1759,-346.937C1759,-338.807 1759,-328.876 1759,-319.705"/>
<polygon fill="midnightblue" stroke="midnightblue" points="1762.5,-319.441 1759,-309.441 1755.5,-319.441 1762.5,-319.441"/>
</g>
<!-- Node35&#45;&gt;Node13 -->
<g id="edge104" class="edge"><title>Node35&#45;&gt;Node13</title>
<path fill="none" stroke="midnightblue" d="M1832,-278.947C1875.22,-269.568 1924.02,-255.509 1937,-238 1946.53,-225.149 1947.26,-214.275 1937,-202 1856.16,-105.31 1440.52,-87.0614 1313.15,-83.7237"/>
<polygon fill="midnightblue" stroke="midnightblue" points="1313.19,-80.2237 1303.1,-83.4762 1313.01,-87.2216 1313.19,-80.2237"/>
</g>
<!-- Node35&#45;&gt;Node17 -->
<g id="edge100" class="edge"><title>Node35&#45;&gt;Node17</title>
<path fill="none" stroke="midnightblue" d="M1685.95,-286.803C1600.55,-279.794 1455.31,-264.965 1333,-238 1329.97,-237.331 1171.06,-186.645 1092.73,-161.642"/>
<polygon fill="midnightblue" stroke="midnightblue" points="1093.73,-158.288 1083.14,-158.581 1091.6,-164.956 1093.73,-158.288"/>
</g>
<!-- Node35&#45;&gt;Node33 -->
<g id="edge90" class="edge"><title>Node35&#45;&gt;Node33</title>
<path fill="none" stroke="midnightblue" d="M1827.03,-274.949C1868.42,-264.487 1922.32,-250.702 1970,-238 1975.73,-236.475 1981.73,-234.849 1987.67,-233.222"/>
<polygon fill="midnightblue" stroke="midnightblue" points="1988.86,-236.527 1997.57,-230.501 1987,-229.778 1988.86,-236.527"/>
</g>
<!-- Node36 -->
<g id="node82" class="node"><title>Node36</title>
<polygon fill="white" stroke="#bfbfbf" points="1342,-203 1342,-237 1524,-237 1524,-203 1342,-203"/>
<text text-anchor="start" x="1350" y="-224" font-family="Helvetica,sans-Serif" font-size="10.00">greensocket/utils/greensocketaddress</text>
<text text-anchor="middle" x="1433" y="-211" font-family="Helvetica,sans-Serif" font-size="10.00">_base.h</text>
</g>
<!-- Node35&#45;&gt;Node36 -->
<g id="edge92" class="edge"><title>Node35&#45;&gt;Node36</title>
<path fill="none" stroke="midnightblue" d="M1685.84,-275.842C1636.72,-264.994 1571.78,-250.651 1520.01,-239.217"/>
<polygon fill="midnightblue" stroke="midnightblue" points="1520.69,-235.784 1510.17,-237.045 1519.18,-242.619 1520.69,-235.784"/>
</g>
<!-- Node37 -->
<g id="node84" class="node"><title>Node37</title>
<polygon fill="white" stroke="#bfbfbf" points="1541.5,-203 1541.5,-237 1670.5,-237 1670.5,-203 1541.5,-203"/>
<text text-anchor="start" x="1549.5" y="-224" font-family="Helvetica,sans-Serif" font-size="10.00">greenreg/greenreg_socket</text>
<text text-anchor="middle" x="1606" y="-211" font-family="Helvetica,sans-Serif" font-size="10.00">/transactor_if.h</text>
</g>
<!-- Node35&#45;&gt;Node37 -->
<g id="edge94" class="edge"><title>Node35&#45;&gt;Node37</title>
<path fill="none" stroke="midnightblue" d="M1722.74,-274.937C1701.38,-264.886 1674.17,-252.082 1651.4,-241.364"/>
<polygon fill="midnightblue" stroke="midnightblue" points="1652.8,-238.156 1642.26,-237.065 1649.82,-244.49 1652.8,-238.156"/>
</g>
<!-- Node38 -->
<g id="node86" class="node"><title>Node38</title>
<polygon fill="white" stroke="#bfbfbf" points="1687.5,-203 1687.5,-237 1790.5,-237 1790.5,-203 1687.5,-203"/>
<text text-anchor="start" x="1695.5" y="-224" font-family="Helvetica,sans-Serif" font-size="10.00">greenreg/framework</text>
<text text-anchor="middle" x="1739" y="-211" font-family="Helvetica,sans-Serif" font-size="10.00">/core/gr_common.h</text>
</g>
<!-- Node35&#45;&gt;Node38 -->
<g id="edge96" class="edge"><title>Node35&#45;&gt;Node38</title>
<path fill="none" stroke="midnightblue" d="M1754.26,-274.937C1751.95,-266.63 1749.12,-256.444 1746.53,-247.108"/>
<polygon fill="midnightblue" stroke="midnightblue" points="1749.89,-246.139 1743.84,-237.441 1743.15,-248.013 1749.89,-246.139"/>
</g>
<!-- Node39 -->
<g id="node88" class="node"><title>Node39</title>
<polygon fill="white" stroke="#bfbfbf" points="1807.5,-209.5 1807.5,-230.5 1856.5,-230.5 1856.5,-209.5 1807.5,-209.5"/>
<text text-anchor="middle" x="1832" y="-217.5" font-family="Helvetica,sans-Serif" font-size="10.00">amba.h</text>
</g>
<!-- Node35&#45;&gt;Node39 -->
<g id="edge98" class="edge"><title>Node35&#45;&gt;Node39</title>
<path fill="none" stroke="midnightblue" d="M1776.3,-274.937C1787.54,-263.855 1802.17,-249.425 1813.61,-238.136"/>
<polygon fill="midnightblue" stroke="midnightblue" points="1816.29,-240.415 1820.95,-230.901 1811.37,-235.431 1816.29,-240.415"/>
</g>
<!-- Node40 -->
<g id="node91" class="node"><title>Node40</title>
<polygon fill="white" stroke="#bfbfbf" points="1874,-209.5 1874,-230.5 1928,-230.5 1928,-209.5 1874,-209.5"/>
<text text-anchor="middle" x="1901" y="-217.5" font-family="Helvetica,sans-Serif" font-size="10.00">systemc</text>
</g>
<!-- Node35&#45;&gt;Node40 -->
<g id="edge102" class="edge"><title>Node35&#45;&gt;Node40</title>
<path fill="none" stroke="midnightblue" d="M1792.65,-274.937C1816.44,-262.876 1848.05,-246.85 1870.98,-235.222"/>
<polygon fill="midnightblue" stroke="midnightblue" points="1872.58,-238.332 1879.92,-230.688 1869.42,-232.089 1872.58,-238.332"/>
</g>
</g>
</svg>
        <g id="navigator" transform="translate(0 0)" fill="#404254">
                <rect fill="#f2f5e9" fill-opacity="0.5" stroke="#606060" stroke-width=".5" x="0" y="0" width="60" height="60"/>
                <use id="zoomplus" xlink:href="#zoomPlus" x="17" y="9" onmousedown="handleZoom(evt,'in')"/>
                <use id="zoomminus" xlink:href="#zoomMin" x="42" y="9" onmousedown="handleZoom(evt,'out')"/>
                <use id="reset" xlink:href="#resetDef" x="30" y="36" onmousedown="handleReset()"/>
                <g id="arrowUp" xlink:href="#dirArrow" transform="translate(30 24)" onmousedown="handlePan(0,-1)">
                  <use xlink:href="#rim" fill="#404040">
                        <set attributeName="fill" to="#808080" begin="arrowUp.mouseover" end="arrowUp.mouseout"/>
                  </use>
                  <path fill="none" stroke="white" stroke-width="1.5" d="M0,-3.0v7 M-2.5,-0.5L0,-3.0L2.5,-0.5"/>
                </g>
                <g id="arrowRight" xlink:href="#dirArrow" transform="rotate(90) translate(36 -43)" onmousedown="handlePan(1,0)">
                  <use xlink:href="#rim" fill="#404040">
                        <set attributeName="fill" to="#808080" begin="arrowRight.mouseover" end="arrowRight.mouseout"/>
                  </use>
                  <path fill="none" stroke="white" stroke-width="1.5" d="M0,-3.0v7 M-2.5,-0.5L0,-3.0L2.5,-0.5"/>
                </g>
                <g id="arrowDown" xlink:href="#dirArrow" transform="rotate(180) translate(-30 -48)" onmousedown="handlePan(0,1)">
                  <use xlink:href="#rim" fill="#404040">
                        <set attributeName="fill" to="#808080" begin="arrowDown.mouseover" end="arrowDown.mouseout"/>
                  </use>
                  <path fill="none" stroke="white" stroke-width="1.5" d="M0,-3.0v7 M-2.5,-0.5L0,-3.0L2.5,-0.5"/>
                </g>
                <g id="arrowLeft" xlink:href="#dirArrow" transform="rotate(270) translate(-36 17)" onmousedown="handlePan(-1,0)">
                  <use xlink:href="#rim" fill="#404040">
                        <set attributeName="fill" to="#808080" begin="arrowLeft.mouseover" end="arrowLeft.mouseout"/>
                  </use>
                  <path fill="none" stroke="white" stroke-width="1.5" d="M0,-3.0v7 M-2.5,-0.5L0,-3.0L2.5,-0.5"/>
                </g>
        </g>
        <svg viewBox="0 0 15 15" width="100%" height="30px" preserveAspectRatio="xMaxYMin meet">
         <g id="arrow_out" transform="scale(0.3 0.3)">
          <a xlink:href="base_8h__incl_org.svg" target="_base">
           <rect id="button" ry="5" rx="5" y="6" x="6" height="38" width="38"
                fill="#f2f5e9" fill-opacity="0.5" stroke="#606060" stroke-width="1.0"/>
           <path id="arrow"
             d="M 11.500037,31.436501 C 11.940474,20.09759 22.043105,11.32322 32.158766,21.979434 L 37.068811,17.246167 C 37.068811,17.246167 37.088388,32 37.088388,32 L 22.160133,31.978069 C 22.160133,31.978069 26.997745,27.140456 26.997745,27.140456 C 18.528582,18.264221 13.291696,25.230495 11.500037,31.436501 z"
             style="fill:#404040;"/>
          </a>
         </g>
        </svg>
</svg>
