<?xml version="1.0" encoding="UTF-8" standalone="no"?>
<!DOCTYPE svg PUBLIC "-//W3C//DTD SVG 1.1//EN"
 "http://www.w3.org/Graphics/SVG/1.1/DTD/svg11.dtd">
<!-- Generated by graphviz version 2.36.0 (20140111.2315)
 -->
<!-- Title: core/software/trapgen/bcnt.c Pages: 1 -->
<svg width="119pt" height="96pt"
 viewBox="0.00 0.00 119.00 96.00" xmlns="http://www.w3.org/2000/svg" xmlns:xlink="http://www.w3.org/1999/xlink">
<g id="graph0" class="graph" transform="scale(1 1) rotate(0) translate(4 92)">
<title>core/software/trapgen/bcnt.c</title>
<polygon fill="white" stroke="none" points="-4,4 -4,-92 115,-92 115,4 -4,4"/>
<!-- Node1 -->
<g id="node1" class="node"><title>Node1</title>
<polygon fill="#bfbfbf" stroke="black" points="-0.5,-57 -0.5,-87 110.5,-87 110.5,-57 -0.5,-57"/>
<text text-anchor="start" x="7.5" y="-75" font-family="Helvetica,sans-Serif" font-size="10.00">core/software/trapgen</text>
<text text-anchor="middle" x="55" y="-64" font-family="Helvetica,sans-Serif" font-size="10.00">/bcnt.c</text>
</g>
<!-- Node2 -->
<g id="node2" class="node"><title>Node2</title>
<polygon fill="white" stroke="#bfbfbf" points="-0.5,-0.5 -0.5,-19.5 46.5,-19.5 46.5,-0.5 -0.5,-0.5"/>
<text text-anchor="middle" x="23" y="-7.5" font-family="Helvetica,sans-Serif" font-size="10.00">math.h</text>
</g>
<!-- Node1&#45;&gt;Node2 -->
<g id="edge1" class="edge"><title>Node1&#45;&gt;Node2</title>
<path fill="none" stroke="midnightblue" d="M47.4164,-56.7808C42.9103,-48.3318 37.159,-37.5481 32.3703,-28.5693"/>
<polygon fill="midnightblue" stroke="midnightblue" points="35.4505,-26.907 27.6563,-19.7305 29.274,-30.2012 35.4505,-26.907"/>
</g>
<!-- Node3 -->
<g id="node3" class="node"><title>Node3</title>
<polygon fill="white" stroke="#bfbfbf" points="65,-0.5 65,-19.5 111,-19.5 111,-0.5 65,-0.5"/>
<text text-anchor="middle" x="88" y="-7.5" font-family="Helvetica,sans-Serif" font-size="10.00">stdio.h</text>
</g>
<!-- Node1&#45;&gt;Node3 -->
<g id="edge2" class="edge"><title>Node1&#45;&gt;Node3</title>
<path fill="none" stroke="midnightblue" d="M62.8205,-56.7808C67.4675,-48.3318 73.3985,-37.5481 78.3369,-28.5693"/>
<polygon fill="midnightblue" stroke="midnightblue" points="81.4457,-30.1794 83.1982,-19.7305 75.3122,-26.806 81.4457,-30.1794"/>
</g>
</g>
</svg>
