<?xml version="1.0" encoding="UTF-8" standalone="no"?>
<!DOCTYPE svg PUBLIC "-//W3C//DTD SVG 1.1//EN"
 "http://www.w3.org/Graphics/SVG/1.1/DTD/svg11.dtd">
<!-- Generated by graphviz version 2.38.0 (20140413.2041)
 -->
<!-- Title: core/common/trapgen/debugger/BreakpointManager.hpp Pages: 1 -->
<svg width="235pt" height="92pt"
 viewBox="0.00 0.00 234.90 92.00" xmlns="http://www.w3.org/2000/svg" xmlns:xlink="http://www.w3.org/1999/xlink">
<g id="graph0" class="graph" transform="scale(1 1) rotate(0) translate(4 88)">
<title>core/common/trapgen/debugger/BreakpointManager.hpp</title>
<polygon fill="white" stroke="none" points="-4,4 -4,-88 230.899,-88 230.899,4 -4,4"/>
<!-- Node1 -->
<g id="node1" class="node"><title>Node1</title>
<polygon fill="#bfbfbf" stroke="black" points="37.168,-55.5 37.168,-83.5 207.177,-83.5 207.177,-55.5 37.168,-55.5"/>
<text text-anchor="start" x="45.168" y="-71.5" font-family="Helvetica,sans-Serif" font-size="10.00">core/common/trapgen</text>
<text text-anchor="middle" x="122.172" y="-61.5" font-family="Helvetica,sans-Serif" font-size="10.00">/debugger/BreakpointManager.hpp</text>
</g>
<!-- Node2 -->
<g id="node2" class="node"><title>Node2</title>
<polygon fill="white" stroke="#bfbfbf" points="0,-0.5 0,-18.5 54.3447,-18.5 54.3447,-0.5 0,-0.5"/>
<text text-anchor="middle" x="27.1724" y="-6.5" font-family="Helvetica,sans-Serif" font-size="10.00">iostream</text>
</g>
<!-- Node1&#45;&gt;Node2 -->
<g id="edge1" class="edge"><title>Node1&#45;&gt;Node2</title>
<path fill="none" stroke="midnightblue" d="M100.615,-55.3389C85.2922,-45.9837 64.773,-33.4562 49.3188,-24.021"/>
<polygon fill="midnightblue" stroke="midnightblue" points="50.8015,-20.8255 40.4426,-18.6018 47.1539,-26.8 50.8015,-20.8255"/>
</g>
<!-- Node3 -->
<g id="node3" class="node"><title>Node3</title>
<polygon fill="white" stroke="#bfbfbf" points="71.9458,-0.5 71.9458,-18.5 112.399,-18.5 112.399,-0.5 71.9458,-0.5"/>
<text text-anchor="middle" x="92.1724" y="-6.5" font-family="Helvetica,sans-Serif" font-size="10.00">string</text>
</g>
<!-- Node1&#45;&gt;Node3 -->
<g id="edge2" class="edge"><title>Node1&#45;&gt;Node3</title>
<path fill="none" stroke="midnightblue" d="M115.365,-55.3389C111.145,-47.1796 105.676,-36.6072 101.109,-27.7779"/>
<polygon fill="midnightblue" stroke="midnightblue" points="104.154,-26.0457 96.4507,-18.7715 97.9362,-29.2617 104.154,-26.0457"/>
</g>
<!-- Node4 -->
<g id="node4" class="node"><title>Node4</title>
<polygon fill="white" stroke="#bfbfbf" points="130.557,-0.5 130.557,-18.5 173.788,-18.5 173.788,-0.5 130.557,-0.5"/>
<text text-anchor="middle" x="152.172" y="-6.5" font-family="Helvetica,sans-Serif" font-size="10.00">vector</text>
</g>
<!-- Node1&#45;&gt;Node4 -->
<g id="edge3" class="edge"><title>Node1&#45;&gt;Node4</title>
<path fill="none" stroke="midnightblue" d="M128.98,-55.3389C133.2,-47.1796 138.669,-36.6072 143.236,-27.7779"/>
<polygon fill="midnightblue" stroke="midnightblue" points="146.409,-29.2617 147.894,-18.7715 140.191,-26.0457 146.409,-29.2617"/>
</g>
<!-- Node5 -->
<g id="node5" class="node"><title>Node5</title>
<polygon fill="white" stroke="#bfbfbf" points="191.446,-0.5 191.446,-18.5 226.899,-18.5 226.899,-0.5 191.446,-0.5"/>
<text text-anchor="middle" x="209.172" y="-6.5" font-family="Helvetica,sans-Serif" font-size="10.00">map</text>
</g>
<!-- Node1&#45;&gt;Node5 -->
<g id="edge4" class="edge"><title>Node1&#45;&gt;Node5</title>
<path fill="none" stroke="midnightblue" d="M141.914,-55.3389C155.732,-46.1268 174.164,-33.8387 188.238,-24.4561"/>
<polygon fill="midnightblue" stroke="midnightblue" points="190.386,-27.2307 196.765,-18.7715 186.503,-21.4063 190.386,-27.2307"/>
</g>
</g>
</svg>
