<?xml version="1.0" encoding="UTF-8" standalone="no"?>
<!DOCTYPE svg PUBLIC "-//W3C//DTD SVG 1.1//EN"
 "http://www.w3.org/Graphics/SVG/1.1/DTD/svg11.dtd">
<!-- Generated by graphviz version 2.26.0 (20091210.2329)
 -->
<!-- Title: core/common/trapgen/debugger/BreakpointManager.hpp Pages: 1 -->
<svg width="234pt" height="102pt"
 viewBox="0.00 0.00 234.00 102.00" xmlns="http://www.w3.org/2000/svg" xmlns:xlink="http://www.w3.org/1999/xlink">
<g id="graph1" class="graph" transform="scale(1 1) rotate(0) translate(4 98)">
<title>core/common/trapgen/debugger/BreakpointManager.hpp</title>
<polygon fill="white" stroke="white" points="-4,5 -4,-98 231,-98 231,5 -4,5"/>
<!-- Node1 -->
<g id="node1" class="node"><title>Node1</title>
<polygon fill="#bfbfbf" stroke="black" points="39.5,-59 39.5,-93 204.5,-93 204.5,-59 39.5,-59"/>
<text text-anchor="start" x="47.5" y="-80" font-family="Helvetica,sans-Serif" font-size="10.00">core/common/trapgen</text>
<text text-anchor="middle" x="122" y="-67" font-family="Helvetica,sans-Serif" font-size="10.00">/debugger/BreakpointManager.hpp</text>
</g>
<!-- Node2 -->
<g id="node3" class="node"><title>Node2</title>
<polygon fill="white" stroke="#bfbfbf" points="0,-0.5 0,-21.5 54,-21.5 54,-0.5 0,-0.5"/>
<text text-anchor="middle" x="27" y="-8.5" font-family="Helvetica,sans-Serif" font-size="10.00">iostream</text>
</g>
<!-- Node1&#45;&gt;Node2 -->
<g id="edge2" class="edge"><title>Node1&#45;&gt;Node2</title>
<path fill="none" stroke="midnightblue" d="M97.0399,-58.922C82.8797,-49.2335 65.2405,-37.1645 51.2065,-27.5623"/>
<polygon fill="midnightblue" stroke="midnightblue" points="52.8071,-24.4167 42.5776,-21.6584 48.8543,-30.1938 52.8071,-24.4167"/>
</g>
<!-- Node3 -->
<g id="node5" class="node"><title>Node3</title>
<polygon fill="white" stroke="#bfbfbf" points="71.5,-0.5 71.5,-21.5 112.5,-21.5 112.5,-0.5 71.5,-0.5"/>
<text text-anchor="middle" x="92" y="-8.5" font-family="Helvetica,sans-Serif" font-size="10.00">string</text>
</g>
<!-- Node1&#45;&gt;Node3 -->
<g id="edge4" class="edge"><title>Node1&#45;&gt;Node3</title>
<path fill="none" stroke="midnightblue" d="M114.118,-58.922C110.182,-50.3954 105.396,-40.0251 101.284,-31.1151"/>
<polygon fill="midnightblue" stroke="midnightblue" points="104.377,-29.465 97.0087,-21.8521 98.0214,-32.3984 104.377,-29.465"/>
</g>
<!-- Node4 -->
<g id="node7" class="node"><title>Node4</title>
<polygon fill="white" stroke="#bfbfbf" points="130,-0.5 130,-21.5 174,-21.5 174,-0.5 130,-0.5"/>
<text text-anchor="middle" x="152" y="-8.5" font-family="Helvetica,sans-Serif" font-size="10.00">vector</text>
</g>
<!-- Node1&#45;&gt;Node4 -->
<g id="edge6" class="edge"><title>Node1&#45;&gt;Node4</title>
<path fill="none" stroke="midnightblue" d="M129.882,-58.922C133.818,-50.3954 138.604,-40.0251 142.716,-31.1151"/>
<polygon fill="midnightblue" stroke="midnightblue" points="145.979,-32.3984 146.991,-21.8521 139.623,-29.465 145.979,-32.3984"/>
</g>
<!-- Node5 -->
<g id="node9" class="node"><title>Node5</title>
<polygon fill="white" stroke="#bfbfbf" points="191.5,-0.5 191.5,-21.5 226.5,-21.5 226.5,-0.5 191.5,-0.5"/>
<text text-anchor="middle" x="209" y="-8.5" font-family="Helvetica,sans-Serif" font-size="10.00">map</text>
</g>
<!-- Node1&#45;&gt;Node5 -->
<g id="edge8" class="edge"><title>Node1&#45;&gt;Node5</title>
<path fill="none" stroke="midnightblue" d="M144.858,-58.922C157.702,-49.3257 173.672,-37.3942 186.464,-27.8374"/>
<polygon fill="midnightblue" stroke="midnightblue" points="188.818,-30.4475 194.734,-21.6584 184.628,-24.8398 188.818,-30.4475"/>
</g>
</g>
</svg>
