<?xml version="1.0" encoding="UTF-8" standalone="no"?>
<!DOCTYPE svg PUBLIC "-//W3C//DTD SVG 1.1//EN"
 "http://www.w3.org/Graphics/SVG/1.1/DTD/svg11.dtd">
<!-- Generated by graphviz version 2.38.0 (20140413.2041)
 -->
<!-- Title: core/software/grlib_tests/cache.c Pages: 1 -->
<svg width="334pt" height="95pt"
 viewBox="0.00 0.00 334.00 95.00" xmlns="http://www.w3.org/2000/svg" xmlns:xlink="http://www.w3.org/1999/xlink">
<g id="graph0" class="graph" transform="scale(1 1) rotate(0) translate(4 91)">
<title>core/software/grlib_tests/cache.c</title>
<polygon fill="white" stroke="none" points="-4,4 -4,-91 330,-91 330,4 -4,4"/>
<!-- Node1 -->
<g id="node1" class="node"><title>Node1</title>
<polygon fill="#bfbfbf" stroke="black" points="121.5,-56.5 121.5,-86.5 218.5,-86.5 218.5,-56.5 121.5,-56.5"/>
<text text-anchor="start" x="129.5" y="-74.5" font-family="Helvetica,sans-Serif" font-size="10.00">core/software/grlib</text>
<text text-anchor="middle" x="170" y="-63.5" font-family="Helvetica,sans-Serif" font-size="10.00">_tests/cache.c</text>
</g>
<!-- Node2 -->
<g id="node2" class="node"><title>Node2</title>
<g id="a_node2"><a xlink:href="testmod_8h.html" target="_top" xlink:title="testmod.h">
<polygon fill="white" stroke="black" points="0,-0.5 0,-19.5 60,-19.5 60,-0.5 0,-0.5"/>
<text text-anchor="middle" x="30" y="-7.5" font-family="Helvetica,sans-Serif" font-size="10.00">testmod.h</text>
</a>
</g>
</g>
<!-- Node1&#45;&gt;Node2 -->
<g id="edge1" class="edge"><title>Node1&#45;&gt;Node2</title>
<path fill="none" stroke="midnightblue" d="M136.822,-56.3993C113.437,-46.4608 82.3881,-33.2649 59.7941,-23.6625"/>
<polygon fill="midnightblue" stroke="midnightblue" points="60.9436,-20.3481 50.3712,-19.6578 58.2055,-26.7904 60.9436,-20.3481"/>
</g>
<!-- Node3 -->
<g id="node3" class="node"><title>Node3</title>
<g id="a_node3"><a xlink:href="core_2software_2grlib__tests_2leon3_8h.html" target="_top" xlink:title="leon3.h">
<polygon fill="white" stroke="black" points="78,-0.5 78,-19.5 126,-19.5 126,-0.5 78,-0.5"/>
<text text-anchor="middle" x="102" y="-7.5" font-family="Helvetica,sans-Serif" font-size="10.00">leon3.h</text>
</a>
</g>
</g>
<!-- Node1&#45;&gt;Node3 -->
<g id="edge2" class="edge"><title>Node1&#45;&gt;Node3</title>
<path fill="none" stroke="midnightblue" d="M153.885,-56.3993C143.596,-47.3967 130.253,-35.7214 119.674,-26.4652"/>
<polygon fill="midnightblue" stroke="midnightblue" points="121.725,-23.6088 111.895,-19.6578 117.116,-28.8769 121.725,-23.6088"/>
</g>
<!-- Node4 -->
<g id="node4" class="node"><title>Node4</title>
<g id="a_node4"><a xlink:href="cache_8h.html" target="_top" xlink:title="cache.h">
<polygon fill="white" stroke="black" points="144.5,-0.5 144.5,-19.5 195.5,-19.5 195.5,-0.5 144.5,-0.5"/>
<text text-anchor="middle" x="170" y="-7.5" font-family="Helvetica,sans-Serif" font-size="10.00">cache.h</text>
</a>
</g>
</g>
<!-- Node1&#45;&gt;Node4 -->
<g id="edge3" class="edge"><title>Node1&#45;&gt;Node4</title>
<path fill="none" stroke="midnightblue" d="M170,-56.3993C170,-48.4664 170,-38.458 170,-29.8583"/>
<polygon fill="midnightblue" stroke="midnightblue" points="173.5,-29.6577 170,-19.6578 166.5,-29.6578 173.5,-29.6577"/>
</g>
<!-- Node5 -->
<g id="node5" class="node"><title>Node5</title>
<polygon fill="white" stroke="#bfbfbf" points="214,-0.5 214,-19.5 260,-19.5 260,-0.5 214,-0.5"/>
<text text-anchor="middle" x="237" y="-7.5" font-family="Helvetica,sans-Serif" font-size="10.00">stdio.h</text>
</g>
<!-- Node1&#45;&gt;Node5 -->
<g id="edge4" class="edge"><title>Node1&#45;&gt;Node5</title>
<path fill="none" stroke="midnightblue" d="M185.878,-56.3993C196.015,-47.3967 209.162,-35.7214 219.585,-26.4652"/>
<polygon fill="midnightblue" stroke="midnightblue" points="222.098,-28.915 227.251,-19.6578 217.45,-23.681 222.098,-28.915"/>
</g>
<!-- Node6 -->
<g id="node6" class="node"><title>Node6</title>
<polygon fill="white" stroke="#bfbfbf" points="278,-0.5 278,-19.5 326,-19.5 326,-0.5 278,-0.5"/>
<text text-anchor="middle" x="302" y="-7.5" font-family="Helvetica,sans-Serif" font-size="10.00">stdlib.h</text>
</g>
<!-- Node1&#45;&gt;Node6 -->
<g id="edge5" class="edge"><title>Node1&#45;&gt;Node6</title>
<path fill="none" stroke="midnightblue" d="M201.282,-56.3993C223.232,-46.5054 252.343,-33.3832 273.621,-23.7919"/>
<polygon fill="midnightblue" stroke="midnightblue" points="275.114,-26.958 282.793,-19.6578 272.238,-20.5764 275.114,-26.958"/>
</g>
</g>
</svg>
