<?xml version="1.0" encoding="UTF-8" standalone="no"?>
<!DOCTYPE svg PUBLIC "-//W3C//DTD SVG 1.1//EN"
 "http://www.w3.org/Graphics/SVG/1.1/DTD/svg11.dtd">
<!-- Generated by graphviz version 2.38.0 (20140413.2041)
 -->
<!-- Title: gaisler/leon3/mmucache/cache_if.h Pages: 1 -->
<!--zoomable 374 -->
<svg id="main" version="1.1" xmlns="http://www.w3.org/2000/svg" xmlns:xlink="http://www.w3.org/1999/xlink" xml:space="preserve" onload="init(evt)">
<style type="text/css"><![CDATA[
.edge:hover path { stroke: red; }
.edge:hover polygon { stroke: red; fill: red; }
]]></style>
<script type="text/javascript"><![CDATA[
var edges = document.getElementsByTagName('g');
if (edges && edges.length) {
  for (var i=0;i<edges.length;i++) {
    if (edges[i].id.substr(0,4)=='edge') {
      edges[i].setAttribute('class','edge');
    }
  }
}
]]></script>
        <defs>
                <circle id="rim" cx="0" cy="0" r="7"/>
                <circle id="rim2" cx="0" cy="0" r="3.5"/>
                <g id="zoomPlus">
                        <use xlink:href="#rim" fill="#404040">
                                <set attributeName="fill" to="#808080" begin="zoomplus.mouseover" end="zoomplus.mouseout"/>
                        </use>
                        <path d="M-4,0h8M0,-4v8" fill="none" stroke="white" stroke-width="1.5" pointer-events="none"/>
                </g>
                <g id="zoomMin">
                        <use xlink:href="#rim" fill="#404040">
                                <set attributeName="fill" to="#808080" begin="zoomminus.mouseover" end="zoomminus.mouseout"/>
                        </use>
                        <path d="M-4,0h8" fill="none" stroke="white" stroke-width="1.5" pointer-events="none"/>
                </g>
                <g id="dirArrow">
                        <path fill="none" stroke="white" stroke-width="1.5" d="M0,-3.0v7 M-2.5,-0.5L0,-3.0L2.5,-0.5"/>
                </g>
               <g id="resetDef">
                       <use xlink:href="#rim2" fill="#404040">
                               <set attributeName="fill" to="#808080" begin="reset.mouseover" end="reset.mouseout"/>
                       </use>
               </g>
        </defs>

<script type="text/javascript">
var viewWidth = 632;
var viewHeight = 374;
var sectionId = 'dynsection-1';
</script>
<script xlink:href="svgpan.js"/>
<svg id="graph" class="graph">
<g id="viewport">
<title>gaisler/leon3/mmucache/cache_if.h</title>
<polygon fill="white" stroke="none" points="-4,4 -4,-370 628,-370 628,4 -4,4"/>
<!-- Node1 -->
<g id="node1" class="node"><title>Node1</title>
<polygon fill="#bfbfbf" stroke="black" points="413,-335.5 413,-365.5 535,-365.5 535,-335.5 413,-335.5"/>
<text text-anchor="start" x="421" y="-353.5" font-family="Helvetica,sans-Serif" font-size="10.00">gaisler/leon3/mmucache</text>
<text text-anchor="middle" x="474" y="-342.5" font-family="Helvetica,sans-Serif" font-size="10.00">/cache_if.h</text>
</g>
<!-- Node2 -->
<g id="node2" class="node"><title>Node2</title>
<g id="a_node2"><a xlink:href="mmu__cache__base_8h.html" target="_top" xlink:title="gaisler/leon3/mmucache\l/mmu_cache_base.h">
<polygon fill="white" stroke="black" points="369,-134.5 369,-164.5 491,-164.5 491,-134.5 369,-134.5"/>
<text text-anchor="start" x="377" y="-152.5" font-family="Helvetica,sans-Serif" font-size="10.00">gaisler/leon3/mmucache</text>
<text text-anchor="middle" x="430" y="-141.5" font-family="Helvetica,sans-Serif" font-size="10.00">/mmu_cache_base.h</text>
</a>
</g>
</g>
<!-- Node1&#45;&gt;Node2 -->
<g id="edge1" class="edge"><title>Node1&#45;&gt;Node2</title>
<path fill="none" stroke="midnightblue" d="M508.26,-330.092C553.459,-301.978 623.476,-248.124 589,-201 566.682,-170.496 525.8,-157.968 491.08,-153.017"/>
<polygon fill="midnightblue" stroke="midnightblue" points="506.317,-327.178 499.589,-335.362 509.952,-333.159 506.317,-327.178"/>
</g>
<!-- Node10 -->
<g id="node10" class="node"><title>Node10</title>
<g id="a_node10"><a xlink:href="vectorcache_8h.html" target="_top" xlink:title="gaisler/leon3/mmucache\l/vectorcache.h">
<polygon fill="white" stroke="black" points="229,-268.5 229,-298.5 351,-298.5 351,-268.5 229,-268.5"/>
<text text-anchor="start" x="237" y="-286.5" font-family="Helvetica,sans-Serif" font-size="10.00">gaisler/leon3/mmucache</text>
<text text-anchor="middle" x="290" y="-275.5" font-family="Helvetica,sans-Serif" font-size="10.00">/vectorcache.h</text>
</a>
</g>
</g>
<!-- Node1&#45;&gt;Node10 -->
<g id="edge9" class="edge"><title>Node1&#45;&gt;Node10</title>
<path fill="none" stroke="midnightblue" d="M424.335,-331.955C394.695,-321.485 357.558,-308.366 329.847,-298.577"/>
<polygon fill="midnightblue" stroke="midnightblue" points="423.48,-335.365 434.075,-335.396 425.812,-328.765 423.48,-335.365"/>
</g>
<!-- Node16 -->
<g id="node16" class="node"><title>Node16</title>
<g id="a_node16"><a xlink:href="nocache_8h.html" target="_top" xlink:title="gaisler/leon3/mmucache\l/nocache.h">
<polygon fill="white" stroke="black" points="413,-268.5 413,-298.5 535,-298.5 535,-268.5 413,-268.5"/>
<text text-anchor="start" x="421" y="-286.5" font-family="Helvetica,sans-Serif" font-size="10.00">gaisler/leon3/mmucache</text>
<text text-anchor="middle" x="474" y="-275.5" font-family="Helvetica,sans-Serif" font-size="10.00">/nocache.h</text>
</a>
</g>
</g>
<!-- Node1&#45;&gt;Node16 -->
<g id="edge17" class="edge"><title>Node1&#45;&gt;Node16</title>
<path fill="none" stroke="midnightblue" d="M474,-325.108C474,-316.154 474,-306.323 474,-298.577"/>
<polygon fill="midnightblue" stroke="midnightblue" points="470.5,-325.396 474,-335.396 477.5,-325.396 470.5,-325.396"/>
</g>
<!-- Node3 -->
<g id="node3" class="node"><title>Node3</title>
<g id="a_node3"><a xlink:href="mmu__cache_8h.html" target="_top" xlink:title="gaisler/leon3/mmucache\l/mmu_cache.h">
<polygon fill="white" stroke="black" points="230,-67.5 230,-97.5 352,-97.5 352,-67.5 230,-67.5"/>
<text text-anchor="start" x="238" y="-85.5" font-family="Helvetica,sans-Serif" font-size="10.00">gaisler/leon3/mmucache</text>
<text text-anchor="middle" x="291" y="-74.5" font-family="Helvetica,sans-Serif" font-size="10.00">/mmu_cache.h</text>
</a>
</g>
</g>
<!-- Node2&#45;&gt;Node3 -->
<g id="edge2" class="edge"><title>Node2&#45;&gt;Node3</title>
<path fill="none" stroke="midnightblue" d="M390.718,-130.131C368.631,-119.802 341.49,-107.11 321.102,-97.5765"/>
<polygon fill="midnightblue" stroke="midnightblue" points="389.298,-133.33 399.839,-134.396 392.263,-126.989 389.298,-133.33"/>
</g>
<!-- Node6 -->
<g id="node6" class="node"><title>Node6</title>
<g id="a_node6"><a xlink:href="gaisler_2leon3_2leon3_8h.html" target="_top" xlink:title="gaisler/leon3/leon3.h">
<polygon fill="white" stroke="black" points="377,-73 377,-92 483,-92 483,-73 377,-73"/>
<text text-anchor="middle" x="430" y="-80" font-family="Helvetica,sans-Serif" font-size="10.00">gaisler/leon3/leon3.h</text>
</a>
</g>
</g>
<!-- Node2&#45;&gt;Node6 -->
<g id="edge5" class="edge"><title>Node2&#45;&gt;Node6</title>
<path fill="none" stroke="midnightblue" d="M430,-124.25C430,-113.017 430,-100.377 430,-92.1945"/>
<polygon fill="midnightblue" stroke="midnightblue" points="426.5,-124.396 430,-134.396 433.5,-124.396 426.5,-124.396"/>
</g>
<!-- Node9 -->
<g id="node9" class="node"><title>Node9</title>
<g id="a_node9"><a xlink:href="mmu__cache__base_8cpp.html" target="_top" xlink:title="gaisler/leon3/mmucache\l/mmu_cache_base.cpp">
<polygon fill="white" stroke="black" points="501,-67.5 501,-97.5 623,-97.5 623,-67.5 501,-67.5"/>
<text text-anchor="start" x="509" y="-85.5" font-family="Helvetica,sans-Serif" font-size="10.00">gaisler/leon3/mmucache</text>
<text text-anchor="middle" x="562" y="-74.5" font-family="Helvetica,sans-Serif" font-size="10.00">/mmu_cache_base.cpp</text>
</a>
</g>
</g>
<!-- Node2&#45;&gt;Node9 -->
<g id="edge8" class="edge"><title>Node2&#45;&gt;Node9</title>
<path fill="none" stroke="midnightblue" d="M467.867,-129.853C488.738,-119.576 514.226,-107.025 533.414,-97.5765"/>
<polygon fill="midnightblue" stroke="midnightblue" points="466.067,-126.838 458.642,-134.396 469.16,-133.118 466.067,-126.838"/>
</g>
<!-- Node4 -->
<g id="node4" class="node"><title>Node4</title>
<g id="a_node4"><a xlink:href="leon3processor_8h.html" target="_top" xlink:title="core/platforms/base\l/leon3processor.h">
<polygon fill="white" stroke="black" points="108.5,-0.5 108.5,-30.5 211.5,-30.5 211.5,-0.5 108.5,-0.5"/>
<text text-anchor="start" x="116.5" y="-18.5" font-family="Helvetica,sans-Serif" font-size="10.00">core/platforms/base</text>
<text text-anchor="middle" x="160" y="-7.5" font-family="Helvetica,sans-Serif" font-size="10.00">/leon3processor.h</text>
</a>
</g>
</g>
<!-- Node3&#45;&gt;Node4 -->
<g id="edge3" class="edge"><title>Node3&#45;&gt;Node4</title>
<path fill="none" stroke="midnightblue" d="M253.42,-62.8533C232.707,-52.5761 207.412,-40.0252 188.37,-30.5765"/>
<polygon fill="midnightblue" stroke="midnightblue" points="252.061,-66.0864 262.575,-67.396 255.173,-59.8159 252.061,-66.0864"/>
</g>
<!-- Node5 -->
<g id="node5" class="node"><title>Node5</title>
<g id="a_node5"><a xlink:href="mmu__cache_8cpp.html" target="_top" xlink:title="gaisler/leon3/mmucache\l/mmu_cache.cpp">
<polygon fill="white" stroke="black" points="230,-0.5 230,-30.5 352,-30.5 352,-0.5 230,-0.5"/>
<text text-anchor="start" x="238" y="-18.5" font-family="Helvetica,sans-Serif" font-size="10.00">gaisler/leon3/mmucache</text>
<text text-anchor="middle" x="291" y="-7.5" font-family="Helvetica,sans-Serif" font-size="10.00">/mmu_cache.cpp</text>
</a>
</g>
</g>
<!-- Node3&#45;&gt;Node5 -->
<g id="edge4" class="edge"><title>Node3&#45;&gt;Node5</title>
<path fill="none" stroke="midnightblue" d="M291,-57.1081C291,-48.1539 291,-38.3227 291,-30.5765"/>
<polygon fill="midnightblue" stroke="midnightblue" points="287.5,-57.3959 291,-67.396 294.5,-57.396 287.5,-57.3959"/>
</g>
<!-- Node7 -->
<g id="node7" class="node"><title>Node7</title>
<g id="a_node7"><a xlink:href="sc__main_8cpp.html" target="_top" xlink:title="core/platforms/leon3mp\l/sc_main.cpp">
<polygon fill="white" stroke="black" points="370.5,-0.5 370.5,-30.5 489.5,-30.5 489.5,-0.5 370.5,-0.5"/>
<text text-anchor="start" x="378.5" y="-18.5" font-family="Helvetica,sans-Serif" font-size="10.00">core/platforms/leon3mp</text>
<text text-anchor="middle" x="430" y="-7.5" font-family="Helvetica,sans-Serif" font-size="10.00">/sc_main.cpp</text>
</a>
</g>
</g>
<!-- Node6&#45;&gt;Node7 -->
<g id="edge6" class="edge"><title>Node6&#45;&gt;Node7</title>
<path fill="none" stroke="midnightblue" d="M430,-62.4107C430,-52.222 430,-39.901 430,-30.589"/>
<polygon fill="midnightblue" stroke="midnightblue" points="426.5,-62.7338 430,-72.7338 433.5,-62.7338 426.5,-62.7338"/>
</g>
<!-- Node8 -->
<g id="node8" class="node"><title>Node8</title>
<g id="a_node8"><a xlink:href="leon3_8cpp.html" target="_top" xlink:title="gaisler/leon3/leon3.cpp">
<polygon fill="white" stroke="black" points="508,-6 508,-25 624,-25 624,-6 508,-6"/>
<text text-anchor="middle" x="566" y="-13" font-family="Helvetica,sans-Serif" font-size="10.00">gaisler/leon3/leon3.cpp</text>
</a>
</g>
</g>
<!-- Node6&#45;&gt;Node8 -->
<g id="edge7" class="edge"><title>Node6&#45;&gt;Node8</title>
<path fill="none" stroke="midnightblue" d="M457.318,-68.4436C484.255,-55.5691 524.662,-36.2573 547.866,-25.1672"/>
<polygon fill="midnightblue" stroke="midnightblue" points="455.573,-65.3984 448.06,-72.8685 458.592,-71.7141 455.573,-65.3984"/>
</g>
<!-- Node11 -->
<g id="node11" class="node"><title>Node11</title>
<g id="a_node11"><a xlink:href="ivectorcache_8h.html" target="_top" xlink:title="gaisler/leon3/mmucache\l/ivectorcache.h">
<polygon fill="white" stroke="black" points="0,-201.5 0,-231.5 122,-231.5 122,-201.5 0,-201.5"/>
<text text-anchor="start" x="8" y="-219.5" font-family="Helvetica,sans-Serif" font-size="10.00">gaisler/leon3/mmucache</text>
<text text-anchor="middle" x="61" y="-208.5" font-family="Helvetica,sans-Serif" font-size="10.00">/ivectorcache.h</text>
</a>
</g>
</g>
<!-- Node10&#45;&gt;Node11 -->
<g id="edge10" class="edge"><title>Node10&#45;&gt;Node11</title>
<path fill="none" stroke="midnightblue" d="M230.865,-265.715C193.599,-255.137 146.029,-241.635 110.714,-231.611"/>
<polygon fill="midnightblue" stroke="midnightblue" points="230.017,-269.112 240.592,-268.476 231.928,-262.378 230.017,-269.112"/>
</g>
<!-- Node13 -->
<g id="node13" class="node"><title>Node13</title>
<g id="a_node13"><a xlink:href="dvectorcache_8h.html" target="_top" xlink:title="gaisler/leon3/mmucache\l/dvectorcache.h">
<polygon fill="white" stroke="black" points="280,-201.5 280,-231.5 402,-231.5 402,-201.5 280,-201.5"/>
<text text-anchor="start" x="288" y="-219.5" font-family="Helvetica,sans-Serif" font-size="10.00">gaisler/leon3/mmucache</text>
<text text-anchor="middle" x="341" y="-208.5" font-family="Helvetica,sans-Serif" font-size="10.00">/dvectorcache.h</text>
</a>
</g>
</g>
<!-- Node10&#45;&gt;Node13 -->
<g id="edge13" class="edge"><title>Node10&#45;&gt;Node13</title>
<path fill="none" stroke="midnightblue" d="M307.303,-260.447C314.795,-250.899 323.343,-240.004 329.955,-231.577"/>
<polygon fill="midnightblue" stroke="midnightblue" points="304.486,-258.368 301.066,-268.396 309.993,-262.689 304.486,-258.368"/>
</g>
<!-- Node15 -->
<g id="node15" class="node"><title>Node15</title>
<g id="a_node15"><a xlink:href="vectorcache_8cpp.html" target="_top" xlink:title="gaisler/leon3/mmucache\l/vectorcache.cpp">
<polygon fill="white" stroke="black" points="140,-201.5 140,-231.5 262,-231.5 262,-201.5 140,-201.5"/>
<text text-anchor="start" x="148" y="-219.5" font-family="Helvetica,sans-Serif" font-size="10.00">gaisler/leon3/mmucache</text>
<text text-anchor="middle" x="201" y="-208.5" font-family="Helvetica,sans-Serif" font-size="10.00">/vectorcache.cpp</text>
</a>
</g>
</g>
<!-- Node10&#45;&gt;Node15 -->
<g id="edge16" class="edge"><title>Node10&#45;&gt;Node15</title>
<path fill="none" stroke="midnightblue" d="M262.548,-262.451C248.857,-252.452 232.629,-240.6 220.274,-231.577"/>
<polygon fill="midnightblue" stroke="midnightblue" points="260.548,-265.324 270.688,-268.396 264.677,-259.672 260.548,-265.324"/>
</g>
<!-- Node11&#45;&gt;Node2 -->
<g id="edge11" class="edge"><title>Node11&#45;&gt;Node2</title>
<path fill="none" stroke="midnightblue" d="M132.15,-200.846C234.077,-182.584 261.806,-182.878 360,-165 362.93,-164.466 365.927,-163.906 368.95,-163.327"/>
<polygon fill="midnightblue" stroke="midnightblue" points="131.267,-197.449 122.05,-202.673 132.513,-204.338 131.267,-197.449"/>
</g>
<!-- Node12 -->
<g id="node12" class="node"><title>Node12</title>
<g id="a_node12"><a xlink:href="ivectorcache_8cpp.html" target="_top" xlink:title="gaisler/leon3/mmucache\l/ivectorcache.cpp">
<polygon fill="white" stroke="black" points="0,-134.5 0,-164.5 122,-164.5 122,-134.5 0,-134.5"/>
<text text-anchor="start" x="8" y="-152.5" font-family="Helvetica,sans-Serif" font-size="10.00">gaisler/leon3/mmucache</text>
<text text-anchor="middle" x="61" y="-141.5" font-family="Helvetica,sans-Serif" font-size="10.00">/ivectorcache.cpp</text>
</a>
</g>
</g>
<!-- Node11&#45;&gt;Node12 -->
<g id="edge12" class="edge"><title>Node11&#45;&gt;Node12</title>
<path fill="none" stroke="midnightblue" d="M61,-191.108C61,-182.154 61,-172.323 61,-164.577"/>
<polygon fill="midnightblue" stroke="midnightblue" points="57.5001,-191.396 61,-201.396 64.5001,-191.396 57.5001,-191.396"/>
</g>
<!-- Node13&#45;&gt;Node2 -->
<g id="edge14" class="edge"><title>Node13&#45;&gt;Node2</title>
<path fill="none" stroke="midnightblue" d="M368.452,-195.451C382.143,-185.452 398.371,-173.6 410.726,-164.577"/>
<polygon fill="midnightblue" stroke="midnightblue" points="366.323,-192.672 360.312,-201.396 370.452,-198.324 366.323,-192.672"/>
</g>
<!-- Node14 -->
<g id="node14" class="node"><title>Node14</title>
<g id="a_node14"><a xlink:href="dvectorcache_8cpp.html" target="_top" xlink:title="gaisler/leon3/mmucache\l/dvectorcache.cpp">
<polygon fill="white" stroke="black" points="229,-134.5 229,-164.5 351,-164.5 351,-134.5 229,-134.5"/>
<text text-anchor="start" x="237" y="-152.5" font-family="Helvetica,sans-Serif" font-size="10.00">gaisler/leon3/mmucache</text>
<text text-anchor="middle" x="290" y="-141.5" font-family="Helvetica,sans-Serif" font-size="10.00">/dvectorcache.cpp</text>
</a>
</g>
</g>
<!-- Node13&#45;&gt;Node14 -->
<g id="edge15" class="edge"><title>Node13&#45;&gt;Node14</title>
<path fill="none" stroke="midnightblue" d="M323.697,-193.447C316.205,-183.899 307.657,-173.004 301.045,-164.577"/>
<polygon fill="midnightblue" stroke="midnightblue" points="321.007,-195.689 329.934,-201.396 326.514,-191.368 321.007,-195.689"/>
</g>
<!-- Node16&#45;&gt;Node2 -->
<g id="edge18" class="edge"><title>Node16&#45;&gt;Node2</title>
<path fill="none" stroke="midnightblue" d="M461.177,-259.423C456.864,-250.98 452.311,-241.233 449,-232 440.76,-209.025 435.152,-181.105 432.271,-164.626"/>
<polygon fill="midnightblue" stroke="midnightblue" points="458.102,-261.094 465.867,-268.303 464.292,-257.826 458.102,-261.094"/>
</g>
<!-- Node17 -->
<g id="node17" class="node"><title>Node17</title>
<g id="a_node17"><a xlink:href="nocache_8cpp.html" target="_top" xlink:title="gaisler/leon3/mmucache\l/nocache.cpp">
<polygon fill="white" stroke="black" points="458,-201.5 458,-231.5 580,-231.5 580,-201.5 458,-201.5"/>
<text text-anchor="start" x="466" y="-219.5" font-family="Helvetica,sans-Serif" font-size="10.00">gaisler/leon3/mmucache</text>
<text text-anchor="middle" x="519" y="-208.5" font-family="Helvetica,sans-Serif" font-size="10.00">/nocache.cpp</text>
</a>
</g>
</g>
<!-- Node16&#45;&gt;Node17 -->
<g id="edge19" class="edge"><title>Node16&#45;&gt;Node17</title>
<path fill="none" stroke="midnightblue" d="M489.468,-260.157C496.03,-250.679 503.479,-239.919 509.255,-231.577"/>
<polygon fill="midnightblue" stroke="midnightblue" points="486.579,-258.182 483.764,-268.396 492.334,-262.166 486.579,-258.182"/>
</g>
</g>
</svg>
        <g id="navigator" transform="translate(0 0)" fill="#404254">
                <rect fill="#f2f5e9" fill-opacity="0.5" stroke="#606060" stroke-width=".5" x="0" y="0" width="60" height="60"/>
                <use id="zoomplus" xlink:href="#zoomPlus" x="17" y="9" onmousedown="handleZoom(evt,'in')"/>
                <use id="zoomminus" xlink:href="#zoomMin" x="42" y="9" onmousedown="handleZoom(evt,'out')"/>
                <use id="reset" xlink:href="#resetDef" x="30" y="36" onmousedown="handleReset()"/>
                <g id="arrowUp" xlink:href="#dirArrow" transform="translate(30 24)" onmousedown="handlePan(0,-1)">
                  <use xlink:href="#rim" fill="#404040">
                        <set attributeName="fill" to="#808080" begin="arrowUp.mouseover" end="arrowUp.mouseout"/>
                  </use>
                  <path fill="none" stroke="white" stroke-width="1.5" d="M0,-3.0v7 M-2.5,-0.5L0,-3.0L2.5,-0.5"/>
                </g>
                <g id="arrowRight" xlink:href="#dirArrow" transform="rotate(90) translate(36 -43)" onmousedown="handlePan(1,0)">
                  <use xlink:href="#rim" fill="#404040">
                        <set attributeName="fill" to="#808080" begin="arrowRight.mouseover" end="arrowRight.mouseout"/>
                  </use>
                  <path fill="none" stroke="white" stroke-width="1.5" d="M0,-3.0v7 M-2.5,-0.5L0,-3.0L2.5,-0.5"/>
                </g>
                <g id="arrowDown" xlink:href="#dirArrow" transform="rotate(180) translate(-30 -48)" onmousedown="handlePan(0,1)">
                  <use xlink:href="#rim" fill="#404040">
                        <set attributeName="fill" to="#808080" begin="arrowDown.mouseover" end="arrowDown.mouseout"/>
                  </use>
                  <path fill="none" stroke="white" stroke-width="1.5" d="M0,-3.0v7 M-2.5,-0.5L0,-3.0L2.5,-0.5"/>
                </g>
                <g id="arrowLeft" xlink:href="#dirArrow" transform="rotate(270) translate(-36 17)" onmousedown="handlePan(-1,0)">
                  <use xlink:href="#rim" fill="#404040">
                        <set attributeName="fill" to="#808080" begin="arrowLeft.mouseover" end="arrowLeft.mouseout"/>
                  </use>
                  <path fill="none" stroke="white" stroke-width="1.5" d="M0,-3.0v7 M-2.5,-0.5L0,-3.0L2.5,-0.5"/>
                </g>
        </g>
        <svg viewBox="0 0 15 15" width="100%" height="30px" preserveAspectRatio="xMaxYMin meet">
         <g id="arrow_out" transform="scale(0.3 0.3)">
          <a xlink:href="cache__if_8h__dep__incl_org.svg" target="_base">
           <rect id="button" ry="5" rx="5" y="6" x="6" height="38" width="38"
                fill="#f2f5e9" fill-opacity="0.5" stroke="#606060" stroke-width="1.0"/>
           <path id="arrow"
             d="M 11.500037,31.436501 C 11.940474,20.09759 22.043105,11.32322 32.158766,21.979434 L 37.068811,17.246167 C 37.068811,17.246167 37.088388,32 37.088388,32 L 22.160133,31.978069 C 22.160133,31.978069 26.997745,27.140456 26.997745,27.140456 C 18.528582,18.264221 13.291696,25.230495 11.500037,31.436501 z"
             style="fill:#404040;"/>
          </a>
         </g>
        </svg>
</svg>
