<?xml version="1.0" encoding="UTF-8" standalone="no"?>
<!DOCTYPE svg PUBLIC "-//W3C//DTD SVG 1.1//EN"
 "http://www.w3.org/Graphics/SVG/1.1/DTD/svg11.dtd">
<!-- Generated by graphviz version 2.36.0 (20140111.2315)
 -->
<!-- Title: core/software/grlib_tests/cache.c Pages: 1 -->
<svg width="334pt" height="96pt"
 viewBox="0.00 0.00 334.00 96.00" xmlns="http://www.w3.org/2000/svg" xmlns:xlink="http://www.w3.org/1999/xlink">
<g id="graph0" class="graph" transform="scale(1 1) rotate(0) translate(4 92)">
<title>core/software/grlib_tests/cache.c</title>
<polygon fill="white" stroke="none" points="-4,4 -4,-92 330,-92 330,4 -4,4"/>
<!-- Node1 -->
<g id="node1" class="node"><title>Node1</title>
<polygon fill="#bfbfbf" stroke="black" points="121.5,-57 121.5,-87 218.5,-87 218.5,-57 121.5,-57"/>
<text text-anchor="start" x="129.5" y="-75" font-family="Helvetica,sans-Serif" font-size="10.00">core/software/grlib</text>
<text text-anchor="middle" x="170" y="-64" font-family="Helvetica,sans-Serif" font-size="10.00">_tests/cache.c</text>
</g>
<!-- Node2 -->
<g id="node2" class="node"><title>Node2</title>
<g id="a_node2"><a xlink:href="testmod_8h.html" target="_top" xlink:title="testmod.h">
<polygon fill="white" stroke="black" points="0,-0.5 0,-19.5 60,-19.5 60,-0.5 0,-0.5"/>
<text text-anchor="middle" x="30" y="-7.5" font-family="Helvetica,sans-Serif" font-size="10.00">testmod.h</text>
</a>
</g>
</g>
<!-- Node1&#45;&gt;Node2 -->
<g id="edge1" class="edge"><title>Node1&#45;&gt;Node2</title>
<path fill="none" stroke="midnightblue" d="M137.176,-56.9327C113.662,-46.8552 82.2635,-33.3986 59.5341,-23.6575"/>
<polygon fill="midnightblue" stroke="midnightblue" points="60.6369,-20.3223 50.0667,-19.6 57.8794,-26.7563 60.6369,-20.3223"/>
</g>
<!-- Node3 -->
<g id="node3" class="node"><title>Node3</title>
<g id="a_node3"><a xlink:href="core_2software_2grlib__tests_2leon3_8h.html" target="_top" xlink:title="leon3.h">
<polygon fill="white" stroke="black" points="78,-0.5 78,-19.5 126,-19.5 126,-0.5 78,-0.5"/>
<text text-anchor="middle" x="102" y="-7.5" font-family="Helvetica,sans-Serif" font-size="10.00">leon3.h</text>
</a>
</g>
</g>
<!-- Node1&#45;&gt;Node3 -->
<g id="edge2" class="edge"><title>Node1&#45;&gt;Node3</title>
<path fill="none" stroke="midnightblue" d="M153.885,-56.7808C143.596,-47.7026 130.253,-35.9291 119.674,-26.5951"/>
<polygon fill="midnightblue" stroke="midnightblue" points="121.709,-23.7223 111.895,-19.7305 117.077,-28.9712 121.709,-23.7223"/>
</g>
<!-- Node4 -->
<g id="node4" class="node"><title>Node4</title>
<g id="a_node4"><a xlink:href="cache_8h.html" target="_top" xlink:title="cache.h">
<polygon fill="white" stroke="black" points="144.5,-0.5 144.5,-19.5 195.5,-19.5 195.5,-0.5 144.5,-0.5"/>
<text text-anchor="middle" x="170" y="-7.5" font-family="Helvetica,sans-Serif" font-size="10.00">cache.h</text>
</a>
</g>
</g>
<!-- Node1&#45;&gt;Node4 -->
<g id="edge3" class="edge"><title>Node1&#45;&gt;Node4</title>
<path fill="none" stroke="midnightblue" d="M170,-56.7808C170,-48.7812 170,-38.6887 170,-30.0168"/>
<polygon fill="midnightblue" stroke="midnightblue" points="173.5,-29.7305 170,-19.7305 166.5,-29.7306 173.5,-29.7305"/>
</g>
<!-- Node5 -->
<g id="node5" class="node"><title>Node5</title>
<polygon fill="white" stroke="#bfbfbf" points="214,-0.5 214,-19.5 260,-19.5 260,-0.5 214,-0.5"/>
<text text-anchor="middle" x="237" y="-7.5" font-family="Helvetica,sans-Serif" font-size="10.00">stdio.h</text>
</g>
<!-- Node1&#45;&gt;Node5 -->
<g id="edge4" class="edge"><title>Node1&#45;&gt;Node5</title>
<path fill="none" stroke="midnightblue" d="M185.878,-56.7808C196.015,-47.7026 209.162,-35.9291 219.585,-26.5951"/>
<polygon fill="midnightblue" stroke="midnightblue" points="222.136,-29.0091 227.251,-19.7305 217.466,-23.7944 222.136,-29.0091"/>
</g>
<!-- Node6 -->
<g id="node6" class="node"><title>Node6</title>
<polygon fill="white" stroke="#bfbfbf" points="278,-0.5 278,-19.5 326,-19.5 326,-0.5 278,-0.5"/>
<text text-anchor="middle" x="302" y="-7.5" font-family="Helvetica,sans-Serif" font-size="10.00">stdlib.h</text>
</g>
<!-- Node1&#45;&gt;Node6 -->
<g id="edge5" class="edge"><title>Node1&#45;&gt;Node6</title>
<path fill="none" stroke="midnightblue" d="M200.948,-56.9327C223.019,-46.9004 252.458,-33.5193 273.865,-23.7888"/>
<polygon fill="midnightblue" stroke="midnightblue" points="275.425,-26.9244 283.08,-19.6 272.528,-20.5518 275.425,-26.9244"/>
</g>
</g>
</svg>
