<?xml version="1.0" encoding="UTF-8" standalone="no"?>
<!DOCTYPE svg PUBLIC "-//W3C//DTD SVG 1.1//EN"
 "http://www.w3.org/Graphics/SVG/1.1/DTD/svg11.dtd">
<!-- Generated by graphviz version 2.36.0 (20140111.2315)
 -->
<!-- Title: core/software/grlib_tests/cache.h Pages: 1 -->
<svg width="1338pt" height="108pt"
 viewBox="0.00 0.00 1338.00 108.00" xmlns="http://www.w3.org/2000/svg" xmlns:xlink="http://www.w3.org/1999/xlink">
<g id="graph0" class="graph" transform="scale(1 1) rotate(0) translate(4 104)">
<title>core/software/grlib_tests/cache.h</title>
<polygon fill="white" stroke="none" points="-4,4 -4,-104 1334,-104 1334,4 -4,4"/>
<!-- Node1 -->
<g id="node1" class="node"><title>Node1</title>
<polygon fill="#bfbfbf" stroke="black" points="574.5,-69 574.5,-99 671.5,-99 671.5,-69 574.5,-69"/>
<text text-anchor="start" x="582.5" y="-87" font-family="Helvetica,sans-Serif" font-size="10.00">core/software/grlib</text>
<text text-anchor="middle" x="623" y="-76" font-family="Helvetica,sans-Serif" font-size="10.00">_tests/cache.h</text>
</g>
<!-- Node2 -->
<g id="node2" class="node"><title>Node2</title>
<g id="a_node2"><a xlink:href="cache_8c.html" target="_top" xlink:title="core/software/grlib\l_tests/cache.c">
<polygon fill="white" stroke="black" points="-0.5,-1 -0.5,-31 96.5,-31 96.5,-1 -0.5,-1"/>
<text text-anchor="start" x="7.5" y="-19" font-family="Helvetica,sans-Serif" font-size="10.00">core/software/grlib</text>
<text text-anchor="middle" x="48" y="-8" font-family="Helvetica,sans-Serif" font-size="10.00">_tests/cache.c</text>
</a>
</g>
</g>
<!-- Node1&#45;&gt;Node2 -->
<g id="edge1" class="edge"><title>Node1&#45;&gt;Node2</title>
<path fill="none" stroke="midnightblue" d="M564.306,-80.2689C467.834,-75.0997 269.979,-61.6347 105,-32 102.281,-31.5115 99.5009,-30.9593 96.7037,-30.362"/>
<polygon fill="midnightblue" stroke="midnightblue" points="564.272,-83.7718 574.442,-80.8013 564.639,-76.7814 564.272,-83.7718"/>
</g>
<!-- Node3 -->
<g id="node3" class="node"><title>Node3</title>
<g id="a_node3"><a xlink:href="gptimer_8c.html" target="_top" xlink:title="core/software/grlib\l_tests/gptimer.c">
<polygon fill="white" stroke="black" points="114.5,-1 114.5,-31 211.5,-31 211.5,-1 114.5,-1"/>
<text text-anchor="start" x="122.5" y="-19" font-family="Helvetica,sans-Serif" font-size="10.00">core/software/grlib</text>
<text text-anchor="middle" x="163" y="-8" font-family="Helvetica,sans-Serif" font-size="10.00">_tests/gptimer.c</text>
</a>
</g>
</g>
<!-- Node1&#45;&gt;Node3 -->
<g id="edge2" class="edge"><title>Node1&#45;&gt;Node3</title>
<path fill="none" stroke="midnightblue" d="M564.068,-77.9894C485.217,-70.7287 341.252,-55.5207 220,-32 217.288,-31.4739 214.514,-30.8919 211.721,-30.2716"/>
<polygon fill="midnightblue" stroke="midnightblue" points="564.011,-81.4986 574.287,-78.9194 564.645,-74.5274 564.011,-81.4986"/>
</g>
<!-- Node4 -->
<g id="node4" class="node"><title>Node4</title>
<g id="a_node4"><a xlink:href="irqmp_8c.html" target="_top" xlink:title="core/software/grlib\l_tests/irqmp.c">
<polygon fill="white" stroke="black" points="229.5,-1 229.5,-31 326.5,-31 326.5,-1 229.5,-1"/>
<text text-anchor="start" x="237.5" y="-19" font-family="Helvetica,sans-Serif" font-size="10.00">core/software/grlib</text>
<text text-anchor="middle" x="278" y="-8" font-family="Helvetica,sans-Serif" font-size="10.00">_tests/irqmp.c</text>
</a>
</g>
</g>
<!-- Node1&#45;&gt;Node4 -->
<g id="edge3" class="edge"><title>Node1&#45;&gt;Node4</title>
<path fill="none" stroke="midnightblue" d="M564.205,-74.0379C505.805,-64.7958 413.834,-49.3224 335,-32 332.302,-31.4071 329.538,-30.7723 326.754,-30.1112"/>
<polygon fill="midnightblue" stroke="midnightblue" points="563.929,-77.5373 574.351,-75.6342 565.017,-70.6224 563.929,-77.5373"/>
</g>
<!-- Node5 -->
<g id="node5" class="node"><title>Node5</title>
<g id="a_node5"><a xlink:href="mmu_8c.html" target="_top" xlink:title="core/software/grlib\l_tests/mmu.c">
<polygon fill="white" stroke="black" points="344.5,-1 344.5,-31 441.5,-31 441.5,-1 344.5,-1"/>
<text text-anchor="start" x="352.5" y="-19" font-family="Helvetica,sans-Serif" font-size="10.00">core/software/grlib</text>
<text text-anchor="middle" x="393" y="-8" font-family="Helvetica,sans-Serif" font-size="10.00">_tests/mmu.c</text>
</a>
</g>
</g>
<!-- Node1&#45;&gt;Node5 -->
<g id="edge4" class="edge"><title>Node1&#45;&gt;Node5</title>
<path fill="none" stroke="midnightblue" d="M564.323,-66.1622C526.358,-55.2681 477.52,-41.2535 441.707,-30.9767"/>
<polygon fill="midnightblue" stroke="midnightblue" points="563.645,-69.609 574.223,-69.0031 565.576,-62.8805 563.645,-69.609"/>
</g>
<!-- Node6 -->
<g id="node6" class="node"><title>Node6</title>
<g id="a_node6"><a xlink:href="ramfill_8c.html" target="_top" xlink:title="core/software/grlib\l_tests/ramfill.c">
<polygon fill="white" stroke="black" points="459.5,-1 459.5,-31 556.5,-31 556.5,-1 459.5,-1"/>
<text text-anchor="start" x="467.5" y="-19" font-family="Helvetica,sans-Serif" font-size="10.00">core/software/grlib</text>
<text text-anchor="middle" x="508" y="-8" font-family="Helvetica,sans-Serif" font-size="10.00">_tests/ramfill.c</text>
</a>
</g>
</g>
<!-- Node1&#45;&gt;Node6 -->
<g id="edge5" class="edge"><title>Node1&#45;&gt;Node6</title>
<path fill="none" stroke="midnightblue" d="M589.242,-63.6261C571.105,-53.2166 549.144,-40.6129 532.63,-31.1352"/>
<polygon fill="midnightblue" stroke="midnightblue" points="587.914,-66.8993 598.33,-68.8413 591.399,-60.8281 587.914,-66.8993"/>
</g>
<!-- Node7 -->
<g id="node7" class="node"><title>Node7</title>
<g id="a_node7"><a xlink:href="ramtest_8c.html" target="_top" xlink:title="core/software/grlib\l_tests/ramtest.c">
<polygon fill="white" stroke="black" points="574.5,-1 574.5,-31 671.5,-31 671.5,-1 574.5,-1"/>
<text text-anchor="start" x="582.5" y="-19" font-family="Helvetica,sans-Serif" font-size="10.00">core/software/grlib</text>
<text text-anchor="middle" x="623" y="-8" font-family="Helvetica,sans-Serif" font-size="10.00">_tests/ramtest.c</text>
</a>
</g>
</g>
<!-- Node1&#45;&gt;Node7 -->
<g id="edge6" class="edge"><title>Node1&#45;&gt;Node7</title>
<path fill="none" stroke="midnightblue" d="M623,-58.5322C623,-49.3606 623,-39.2449 623,-31.2931"/>
<polygon fill="midnightblue" stroke="midnightblue" points="619.5,-58.6789 623,-68.679 626.5,-58.679 619.5,-58.6789"/>
</g>
<!-- Node8 -->
<g id="node8" class="node"><title>Node8</title>
<g id="a_node8"><a xlink:href="readpnp_8c.html" target="_top" xlink:title="core/software/grlib\l_tests/readpnp.c">
<polygon fill="white" stroke="black" points="689.5,-1 689.5,-31 786.5,-31 786.5,-1 689.5,-1"/>
<text text-anchor="start" x="697.5" y="-19" font-family="Helvetica,sans-Serif" font-size="10.00">core/software/grlib</text>
<text text-anchor="middle" x="738" y="-8" font-family="Helvetica,sans-Serif" font-size="10.00">_tests/readpnp.c</text>
</a>
</g>
</g>
<!-- Node1&#45;&gt;Node8 -->
<g id="edge7" class="edge"><title>Node1&#45;&gt;Node8</title>
<path fill="none" stroke="midnightblue" d="M656.758,-63.6261C674.895,-53.2166 696.856,-40.6129 713.37,-31.1352"/>
<polygon fill="midnightblue" stroke="midnightblue" points="654.601,-60.8281 647.67,-68.8413 658.086,-66.8993 654.601,-60.8281"/>
</g>
<!-- Node9 -->
<g id="node9" class="node"><title>Node9</title>
<g id="a_node9"><a xlink:href="top__cache__test_8c.html" target="_top" xlink:title="core/software/grlib\l_tests/top_cache_test.c">
<polygon fill="white" stroke="black" points="805,-1 805,-31 927,-31 927,-1 805,-1"/>
<text text-anchor="start" x="813" y="-19" font-family="Helvetica,sans-Serif" font-size="10.00">core/software/grlib</text>
<text text-anchor="middle" x="866" y="-8" font-family="Helvetica,sans-Serif" font-size="10.00">_tests/top_cache_test.c</text>
</a>
</g>
</g>
<!-- Node1&#45;&gt;Node9 -->
<g id="edge8" class="edge"><title>Node1&#45;&gt;Node9</title>
<path fill="none" stroke="midnightblue" d="M681.317,-67.1608C721.768,-56.1741 775.164,-41.6714 814.134,-31.0872"/>
<polygon fill="midnightblue" stroke="midnightblue" points="680.324,-63.8037 671.591,-69.8025 682.158,-70.559 680.324,-63.8037"/>
</g>
<!-- Node10 -->
<g id="node10" class="node"><title>Node10</title>
<g id="a_node10"><a xlink:href="top__irqmp__test_8c.html" target="_top" xlink:title="core/software/grlib\l_tests/top_irqmp_test.c">
<polygon fill="white" stroke="black" points="945.5,-1 945.5,-31 1064.5,-31 1064.5,-1 945.5,-1"/>
<text text-anchor="start" x="953.5" y="-19" font-family="Helvetica,sans-Serif" font-size="10.00">core/software/grlib</text>
<text text-anchor="middle" x="1005" y="-8" font-family="Helvetica,sans-Serif" font-size="10.00">_tests/top_irqmp_test.c</text>
</a>
</g>
</g>
<!-- Node1&#45;&gt;Node10 -->
<g id="edge9" class="edge"><title>Node1&#45;&gt;Node10</title>
<path fill="none" stroke="midnightblue" d="M681.811,-74.3606C744.839,-64.8816 847.745,-48.7711 936,-32 939.011,-31.4278 942.092,-30.8244 945.2,-30.2012"/>
<polygon fill="midnightblue" stroke="midnightblue" points="681.036,-70.9376 671.665,-75.881 682.073,-77.8603 681.036,-70.9376"/>
</g>
<!-- Node11 -->
<g id="node11" class="node"><title>Node11</title>
<g id="a_node11"><a xlink:href="top__mmu__test_8c.html" target="_top" xlink:title="core/software/grlib\l_tests/top_mmu_test.c">
<polygon fill="white" stroke="black" points="1082.5,-1 1082.5,-31 1199.5,-31 1199.5,-1 1082.5,-1"/>
<text text-anchor="start" x="1090.5" y="-19" font-family="Helvetica,sans-Serif" font-size="10.00">core/software/grlib</text>
<text text-anchor="middle" x="1141" y="-8" font-family="Helvetica,sans-Serif" font-size="10.00">_tests/top_mmu_test.c</text>
</a>
</g>
</g>
<!-- Node1&#45;&gt;Node11 -->
<g id="edge10" class="edge"><title>Node1&#45;&gt;Node11</title>
<path fill="none" stroke="midnightblue" d="M681.614,-78.322C767.756,-71.003 933.446,-55.235 1073,-32 1076.1,-31.4838 1079.27,-30.9177 1082.47,-30.3172"/>
<polygon fill="midnightblue" stroke="midnightblue" points="681.182,-74.8459 671.511,-79.1726 681.769,-81.8212 681.182,-74.8459"/>
</g>
<!-- Node12 -->
<g id="node12" class="node"><title>Node12</title>
<g id="a_node12"><a xlink:href="top__ram__test_8c.html" target="_top" xlink:title="core/software/grlib\l_tests/top_ram_test.c">
<polygon fill="white" stroke="black" points="1218,-1 1218,-31 1330,-31 1330,-1 1218,-1"/>
<text text-anchor="start" x="1226" y="-19" font-family="Helvetica,sans-Serif" font-size="10.00">core/software/grlib</text>
<text text-anchor="middle" x="1274" y="-8" font-family="Helvetica,sans-Serif" font-size="10.00">_tests/top_ram_test.c</text>
</a>
</g>
</g>
<!-- Node1&#45;&gt;Node12 -->
<g id="edge11" class="edge"><title>Node1&#45;&gt;Node12</title>
<path fill="none" stroke="midnightblue" d="M681.97,-80.5244C787.846,-75.4882 1016.95,-61.8954 1208,-32 1211.25,-31.4914 1214.58,-30.9145 1217.93,-30.2905"/>
<polygon fill="midnightblue" stroke="midnightblue" points="681.634,-77.0362 671.809,-80.9993 681.961,-84.0285 681.634,-77.0362"/>
</g>
</g>
</svg>
