<?xml version="1.0" encoding="UTF-8" standalone="no"?>
<!DOCTYPE svg PUBLIC "-//W3C//DTD SVG 1.1//EN"
 "http://www.w3.org/Graphics/SVG/1.1/DTD/svg11.dtd">
<!-- Generated by graphviz version 2.38.0 (20140413.2041)
 -->
<!-- Title: trap::SparseMemoryLT&lt; N_INITIATORS, sockSize &gt; Pages: 1 -->
<svg width="218pt" height="259pt"
 viewBox="0.00 0.00 218.00 259.00" xmlns="http://www.w3.org/2000/svg" xmlns:xlink="http://www.w3.org/1999/xlink">
<g id="graph0" class="graph" transform="scale(1 1) rotate(0) translate(4 255)">
<title>trap::SparseMemoryLT&lt; N_INITIATORS, sockSize &gt;</title>
<polygon fill="white" stroke="none" points="-4,4 -4,-255 214,-255 214,4 -4,4"/>
<!-- Node1 -->
<g id="node1" class="node"><title>Node1</title>
<polygon fill="#bfbfbf" stroke="black" points="13.5,-0.5 13.5,-123.5 164.5,-123.5 164.5,-0.5 13.5,-0.5"/>
<text text-anchor="start" x="21.5" y="-111.5" font-family="Helvetica,sans-Serif" font-size="10.00">trap::SparseMemoryLT</text>
<text text-anchor="middle" x="89" y="-100.5" font-family="Helvetica,sans-Serif" font-size="10.00">&lt; N_INITIATORS, sockSize &gt;</text>
<polyline fill="none" stroke="black" points="13.5,-93.5 164.5,-93.5 "/>
<text text-anchor="middle" x="89" y="-81.5" font-family="Helvetica,sans-Serif" font-size="10.00"> </text>
<polyline fill="none" stroke="black" points="13.5,-74.5 164.5,-74.5 "/>
<text text-anchor="start" x="21.5" y="-62.5" font-family="Helvetica,sans-Serif" font-size="10.00">+ SparseMemoryLT()</text>
<text text-anchor="start" x="21.5" y="-51.5" font-family="Helvetica,sans-Serif" font-size="10.00">+ ~SparseMemoryLT()</text>
<text text-anchor="start" x="21.5" y="-40.5" font-family="Helvetica,sans-Serif" font-size="10.00">+ b_transport()</text>
<text text-anchor="start" x="21.5" y="-29.5" font-family="Helvetica,sans-Serif" font-size="10.00">+ get_direct_mem_ptr()</text>
<text text-anchor="start" x="21.5" y="-18.5" font-family="Helvetica,sans-Serif" font-size="10.00">+ transport_dbg()</text>
<text text-anchor="start" x="21.5" y="-7.5" font-family="Helvetica,sans-Serif" font-size="10.00">+ write_byte_dbg()</text>
</g>
<!-- Node2 -->
<g id="node2" class="node"><title>Node2</title>
<polygon fill="white" stroke="#bfbfbf" points="0,-182.5 0,-239.5 64,-239.5 64,-182.5 0,-182.5"/>
<text text-anchor="middle" x="32" y="-227.5" font-family="Helvetica,sans-Serif" font-size="10.00">sc_module</text>
<polyline fill="none" stroke="#bfbfbf" points="0,-220.5 64,-220.5 "/>
<text text-anchor="middle" x="32" y="-208.5" font-family="Helvetica,sans-Serif" font-size="10.00"> </text>
<polyline fill="none" stroke="#bfbfbf" points="0,-201.5 64,-201.5 "/>
<text text-anchor="middle" x="32" y="-189.5" font-family="Helvetica,sans-Serif" font-size="10.00"> </text>
</g>
<!-- Node2&#45;&gt;Node1 -->
<g id="edge1" class="edge"><title>Node2&#45;&gt;Node1</title>
<path fill="none" stroke="midnightblue" d="M46.36,-172.966C52.1479,-158.04 58.9778,-140.426 65.4553,-123.721"/>
<polygon fill="none" stroke="midnightblue" points="43.0733,-171.761 42.7213,-182.35 49.5999,-174.292 43.0733,-171.761"/>
</g>
<!-- Node3 -->
<g id="node3" class="node"><title>Node3</title>
<polygon fill="white" stroke="#bfbfbf" points="82,-171.5 82,-250.5 210,-250.5 210,-171.5 82,-171.5"/>
<text text-anchor="start" x="90" y="-238.5" font-family="Helvetica,sans-Serif" font-size="10.00">simple_target_socket</text>
<text text-anchor="start" x="90" y="-227.5" font-family="Helvetica,sans-Serif" font-size="10.00">&lt; trap::SparseMemoryLT,</text>
<text text-anchor="middle" x="146" y="-216.5" font-family="Helvetica,sans-Serif" font-size="10.00"> sockSize &gt; *</text>
<polyline fill="none" stroke="#bfbfbf" points="82,-209.5 210,-209.5 "/>
<text text-anchor="middle" x="146" y="-197.5" font-family="Helvetica,sans-Serif" font-size="10.00"> </text>
<polyline fill="none" stroke="#bfbfbf" points="82,-190.5 210,-190.5 "/>
<text text-anchor="middle" x="146" y="-178.5" font-family="Helvetica,sans-Serif" font-size="10.00"> </text>
</g>
<!-- Node3&#45;&gt;Node1 -->
<g id="edge2" class="edge"><title>Node3&#45;&gt;Node1</title>
<path fill="none" stroke="#404040" d="M131.024,-171.377C126.68,-160.175 121.791,-147.566 116.924,-135.015"/>
<polygon fill="none" stroke="#404040" points="116.816,-134.735 110.917,-130.587 112.477,-123.546 118.376,-127.694 116.816,-134.735"/>
<text text-anchor="middle" x="141.5" y="-145" font-family="Helvetica,sans-Serif" font-size="10.00"> +socket</text>
</g>
</g>
</svg>
