<?xml version="1.0" encoding="UTF-8" standalone="no"?>
<!DOCTYPE svg PUBLIC "-//W3C//DTD SVG 1.1//EN"
 "http://www.w3.org/Graphics/SVG/1.1/DTD/svg11.dtd">
<!-- Generated by graphviz version 2.36.0 (20140111.2315)
 -->
<!-- Title: sc_register&lt; T, M &gt; Pages: 1 -->
<!--zoomable 1106 -->
<svg id="main" version="1.1" xmlns="http://www.w3.org/2000/svg" xmlns:xlink="http://www.w3.org/1999/xlink" xml:space="preserve" onload="init(evt)">
<style type="text/css"><![CDATA[
.edge:hover path { stroke: red; }
.edge:hover polygon { stroke: red; fill: red; }
]]></style>
<script type="text/javascript"><![CDATA[
var edges = document.getElementsByTagName('g');
if (edges && edges.length) {
  for (var i=0;i<edges.length;i++) {
    if (edges[i].id.substr(0,4)=='edge') {
      edges[i].setAttribute('class','edge');
    }
  }
}
]]></script>
        <defs>
                <circle id="rim" cx="0" cy="0" r="7"/>
                <circle id="rim2" cx="0" cy="0" r="3.5"/>
                <g id="zoomPlus">
                        <use xlink:href="#rim" fill="#404040">
                                <set attributeName="fill" to="#808080" begin="zoomplus.mouseover" end="zoomplus.mouseout"/>
                        </use>
                        <path d="M-4,0h8M0,-4v8" fill="none" stroke="white" stroke-width="1.5" pointer-events="none"/>
                </g>
                <g id="zoomMin">
                        <use xlink:href="#rim" fill="#404040">
                                <set attributeName="fill" to="#808080" begin="zoomminus.mouseover" end="zoomminus.mouseout"/>
                        </use>
                        <path d="M-4,0h8" fill="none" stroke="white" stroke-width="1.5" pointer-events="none"/>
                </g>
                <g id="dirArrow">
                        <path fill="none" stroke="white" stroke-width="1.5" d="M0,-3.0v7 M-2.5,-0.5L0,-3.0L2.5,-0.5"/>
                </g>
               <g id="resetDef">
                       <use xlink:href="#rim2" fill="#404040">
                               <set attributeName="fill" to="#808080" begin="reset.mouseover" end="reset.mouseout"/>
                       </use>
               </g>
        </defs>

<script type="text/javascript">
var viewWidth = 771;
var viewHeight = 1106;
var sectionId = 'dynsection-1';
</script>
<script xlink:href="svgpan.js"/>
<svg id="graph" class="graph">
<g id="viewport">
<title>sc_register&lt; T, M &gt;</title>
<polygon fill="white" stroke="none" points="-4,4 -4,-1102 767,-1102 767,4 -4,4"/>
<!-- Node1 -->
<g id="node1" class="node"><title>Node1</title>
<polygon fill="#bfbfbf" stroke="black" points="325.5,-0.5 325.5,-57.5 428.5,-57.5 428.5,-0.5 325.5,-0.5"/>
<text text-anchor="middle" x="377" y="-45.5" font-family="Helvetica,sans-Serif" font-size="10.00">sc_register&lt; T, M &gt;</text>
<polyline fill="none" stroke="black" points="325.5,-38.5 428.5,-38.5 "/>
<text text-anchor="middle" x="377" y="-26.5" font-family="Helvetica,sans-Serif" font-size="10.00"> </text>
<polyline fill="none" stroke="black" points="325.5,-19.5 428.5,-19.5 "/>
<text text-anchor="middle" x="377" y="-7.5" font-family="Helvetica,sans-Serif" font-size="10.00"> </text>
</g>
<!-- Node2 -->
<g id="node2" class="node"><title>Node2</title>
<g id="a_node2"><a xlink:href="classsc__register__b.html" target="_top" xlink:title="{sc_register_b\&lt; T \&gt;\n||+ sc_register_b()\l+ sc_register_b()\l+ ~sc_register_b()\l+ reset()\l+ read()\l+ write()\l+ update()\l+ number_of_fields()\l+ get_all_fields()\l+ get_mask()\l+ scireg_read()\l+ scireg_write()\l+ scireg_get_bit_width()\l+ scireg_add_callback()\l+ scireg_remove_callback()\l# add_field()\l# mask_read()\l# mask_write()\l# check_and_init()\l}">
<polygon fill="white" stroke="black" points="308.5,-96.5 308.5,-351.5 445.5,-351.5 445.5,-96.5 308.5,-96.5"/>
<text text-anchor="middle" x="377" y="-339.5" font-family="Helvetica,sans-Serif" font-size="10.00">sc_register_b&lt; T &gt;</text>
<polyline fill="none" stroke="black" points="308.5,-332.5 445.5,-332.5 "/>
<text text-anchor="middle" x="377" y="-320.5" font-family="Helvetica,sans-Serif" font-size="10.00"> </text>
<polyline fill="none" stroke="black" points="308.5,-313.5 445.5,-313.5 "/>
<text text-anchor="start" x="316.5" y="-301.5" font-family="Helvetica,sans-Serif" font-size="10.00">+ sc_register_b()</text>
<text text-anchor="start" x="316.5" y="-290.5" font-family="Helvetica,sans-Serif" font-size="10.00">+ sc_register_b()</text>
<text text-anchor="start" x="316.5" y="-279.5" font-family="Helvetica,sans-Serif" font-size="10.00">+ ~sc_register_b()</text>
<text text-anchor="start" x="316.5" y="-268.5" font-family="Helvetica,sans-Serif" font-size="10.00">+ reset()</text>
<text text-anchor="start" x="316.5" y="-257.5" font-family="Helvetica,sans-Serif" font-size="10.00">+ read()</text>
<text text-anchor="start" x="316.5" y="-246.5" font-family="Helvetica,sans-Serif" font-size="10.00">+ write()</text>
<text text-anchor="start" x="316.5" y="-235.5" font-family="Helvetica,sans-Serif" font-size="10.00">+ update()</text>
<text text-anchor="start" x="316.5" y="-224.5" font-family="Helvetica,sans-Serif" font-size="10.00">+ number_of_fields()</text>
<text text-anchor="start" x="316.5" y="-213.5" font-family="Helvetica,sans-Serif" font-size="10.00">+ get_all_fields()</text>
<text text-anchor="start" x="316.5" y="-202.5" font-family="Helvetica,sans-Serif" font-size="10.00">+ get_mask()</text>
<text text-anchor="start" x="316.5" y="-191.5" font-family="Helvetica,sans-Serif" font-size="10.00">+ scireg_read()</text>
<text text-anchor="start" x="316.5" y="-180.5" font-family="Helvetica,sans-Serif" font-size="10.00">+ scireg_write()</text>
<text text-anchor="start" x="316.5" y="-169.5" font-family="Helvetica,sans-Serif" font-size="10.00">+ scireg_get_bit_width()</text>
<text text-anchor="start" x="316.5" y="-158.5" font-family="Helvetica,sans-Serif" font-size="10.00">+ scireg_add_callback()</text>
<text text-anchor="start" x="316.5" y="-147.5" font-family="Helvetica,sans-Serif" font-size="10.00">+ scireg_remove_callback()</text>
<text text-anchor="start" x="316.5" y="-136.5" font-family="Helvetica,sans-Serif" font-size="10.00"># add_field()</text>
<text text-anchor="start" x="316.5" y="-125.5" font-family="Helvetica,sans-Serif" font-size="10.00"># mask_read()</text>
<text text-anchor="start" x="316.5" y="-114.5" font-family="Helvetica,sans-Serif" font-size="10.00"># mask_write()</text>
<text text-anchor="start" x="316.5" y="-103.5" font-family="Helvetica,sans-Serif" font-size="10.00"># check_and_init()</text>
</a>
</g>
</g>
<!-- Node2&#45;&gt;Node1 -->
<g id="edge1" class="edge"><title>Node2&#45;&gt;Node1</title>
<path fill="none" stroke="midnightblue" d="M377,-86.186C377,-75.7364 377,-66.0557 377,-57.7774"/>
<polygon fill="none" stroke="midnightblue" points="373.5,-86.4196 377,-96.4197 380.5,-86.4197 373.5,-86.4196"/>
</g>
<!-- Node3 -->
<g id="node3" class="node"><title>Node3</title>
<g id="a_node3"><a xlink:href="classsc__register__base.html" target="_top" xlink:title="Register. ">
<polygon fill="white" stroke="black" points="59,-552 59,-752 209,-752 209,-552 59,-552"/>
<text text-anchor="middle" x="134" y="-740" font-family="Helvetica,sans-Serif" font-size="10.00">sc_register_base</text>
<polyline fill="none" stroke="black" points="59,-733 209,-733 "/>
<text text-anchor="middle" x="134" y="-721" font-family="Helvetica,sans-Serif" font-size="10.00"> </text>
<polyline fill="none" stroke="black" points="59,-714 209,-714 "/>
<text text-anchor="start" x="67" y="-702" font-family="Helvetica,sans-Serif" font-size="10.00">+ sc_register_base()</text>
<text text-anchor="start" x="67" y="-691" font-family="Helvetica,sans-Serif" font-size="10.00">+ sc_register_base()</text>
<text text-anchor="start" x="67" y="-680" font-family="Helvetica,sans-Serif" font-size="10.00">+ sc_register_base()</text>
<text text-anchor="start" x="67" y="-669" font-family="Helvetica,sans-Serif" font-size="10.00">+ ~sc_register_base()</text>
<text text-anchor="start" x="67" y="-658" font-family="Helvetica,sans-Serif" font-size="10.00">+ kind()</text>
<text text-anchor="start" x="67" y="-647" font-family="Helvetica,sans-Serif" font-size="10.00">+ desc()</text>
<text text-anchor="start" x="67" y="-636" font-family="Helvetica,sans-Serif" font-size="10.00">+ access_mode()</text>
<text text-anchor="start" x="67" y="-625" font-family="Helvetica,sans-Serif" font-size="10.00">+ get_all_fields()</text>
<text text-anchor="start" x="67" y="-614" font-family="Helvetica,sans-Serif" font-size="10.00">+ access_type_to_str()</text>
<text text-anchor="start" x="67" y="-603" font-family="Helvetica,sans-Serif" font-size="10.00">+ access_mode_to_str()</text>
<text text-anchor="start" x="67" y="-592" font-family="Helvetica,sans-Serif" font-size="10.00"># scireg_get_string_attribute()</text>
<text text-anchor="start" x="67" y="-581" font-family="Helvetica,sans-Serif" font-size="10.00"># scireg_get_region_type()</text>
<text text-anchor="start" x="67" y="-570" font-family="Helvetica,sans-Serif" font-size="10.00"># scireg_get_child_regions()</text>
<text text-anchor="start" x="67" y="-559" font-family="Helvetica,sans-Serif" font-size="10.00"># scireg_get_parent_modules()</text>
</a>
</g>
</g>
<!-- Node3&#45;&gt;Node2 -->
<g id="edge2" class="edge"><title>Node3&#45;&gt;Node2</title>
<path fill="none" stroke="midnightblue" d="M154.651,-541.876C166.294,-496.025 183.718,-443.38 209,-400 234.872,-355.607 274.24,-313.782 308.364,-282.159"/>
<polygon fill="none" stroke="midnightblue" points="151.187,-541.305 152.181,-551.853 157.982,-542.987 151.187,-541.305"/>
</g>
<!-- Node4 -->
<g id="node4" class="node"><title>Node4</title>
<polygon fill="white" stroke="#bfbfbf" points="-0.5,-877.5 -0.5,-934.5 130.5,-934.5 130.5,-877.5 -0.5,-877.5"/>
<text text-anchor="middle" x="65" y="-922.5" font-family="Helvetica,sans-Serif" font-size="10.00">sc_core::sc_prim_channel</text>
<polyline fill="none" stroke="#bfbfbf" points="-0.5,-915.5 130.5,-915.5 "/>
<text text-anchor="middle" x="65" y="-903.5" font-family="Helvetica,sans-Serif" font-size="10.00"> </text>
<polyline fill="none" stroke="#bfbfbf" points="-0.5,-896.5 130.5,-896.5 "/>
<text text-anchor="middle" x="65" y="-884.5" font-family="Helvetica,sans-Serif" font-size="10.00"> </text>
</g>
<!-- Node4&#45;&gt;Node3 -->
<g id="edge3" class="edge"><title>Node4&#45;&gt;Node3</title>
<path fill="none" stroke="midnightblue" d="M75.325,-867.291C83.6684,-836.82 95.8043,-792.497 106.877,-752.059"/>
<polygon fill="none" stroke="midnightblue" points="71.9131,-866.499 72.6478,-877.069 78.6645,-868.348 71.9131,-866.499"/>
</g>
<!-- Node5 -->
<g id="node5" class="node"><title>Node5</title>
<g id="a_node5"><a xlink:href="classscireg__ns_1_1scireg__region__if.html" target="_top" xlink:title="{scireg_ns::scireg_region_if\n||+ scireg_region_if()\l+ ~scireg_region_if()\l+ scireg_get_region_type()\l+ scireg_read()\l+ scireg_write()\l+ scireg_get_bit_attributes()\l+ scireg_get_string_attribute()\l+ scireg_get_bit_width()\l+ scireg_get_byte_width()\l+ scireg_get_low_pos()\land 9 more...\l}">
<polygon fill="white" stroke="black" points="227,-822.5 227,-989.5 373,-989.5 373,-822.5 227,-822.5"/>
<text text-anchor="middle" x="300" y="-977.5" font-family="Helvetica,sans-Serif" font-size="10.00">scireg_ns::scireg_region_if</text>
<polyline fill="none" stroke="black" points="227,-970.5 373,-970.5 "/>
<text text-anchor="middle" x="300" y="-958.5" font-family="Helvetica,sans-Serif" font-size="10.00"> </text>
<polyline fill="none" stroke="black" points="227,-951.5 373,-951.5 "/>
<text text-anchor="start" x="235" y="-939.5" font-family="Helvetica,sans-Serif" font-size="10.00">+ scireg_region_if()</text>
<text text-anchor="start" x="235" y="-928.5" font-family="Helvetica,sans-Serif" font-size="10.00">+ ~scireg_region_if()</text>
<text text-anchor="start" x="235" y="-917.5" font-family="Helvetica,sans-Serif" font-size="10.00">+ scireg_get_region_type()</text>
<text text-anchor="start" x="235" y="-906.5" font-family="Helvetica,sans-Serif" font-size="10.00">+ scireg_read()</text>
<text text-anchor="start" x="235" y="-895.5" font-family="Helvetica,sans-Serif" font-size="10.00">+ scireg_write()</text>
<text text-anchor="start" x="235" y="-884.5" font-family="Helvetica,sans-Serif" font-size="10.00">+ scireg_get_bit_attributes()</text>
<text text-anchor="start" x="235" y="-873.5" font-family="Helvetica,sans-Serif" font-size="10.00">+ scireg_get_string_attribute()</text>
<text text-anchor="start" x="235" y="-862.5" font-family="Helvetica,sans-Serif" font-size="10.00">+ scireg_get_bit_width()</text>
<text text-anchor="start" x="235" y="-851.5" font-family="Helvetica,sans-Serif" font-size="10.00">+ scireg_get_byte_width()</text>
<text text-anchor="start" x="235" y="-840.5" font-family="Helvetica,sans-Serif" font-size="10.00">+ scireg_get_low_pos()</text>
<text text-anchor="start" x="235" y="-829.5" font-family="Helvetica,sans-Serif" font-size="10.00">and 9 more...</text>
</a>
</g>
</g>
<!-- Node5&#45;&gt;Node3 -->
<g id="edge4" class="edge"><title>Node5&#45;&gt;Node3</title>
<path fill="none" stroke="midnightblue" d="M279.132,-813.163C273.859,-801.822 267.258,-791.055 259,-782 245.589,-767.296 233.619,-776.332 218,-764 213.353,-760.331 208.826,-756.347 204.439,-752.143"/>
<polygon fill="none" stroke="midnightblue" points="275.92,-814.553 283.084,-822.359 282.352,-811.79 275.92,-814.553"/>
</g>
<!-- Node9 -->
<g id="node9" class="node"><title>Node9</title>
<g id="a_node9"><a xlink:href="classsc__register__field__base.html" target="_top" xlink:title="{sc_register_field_base\n||+ sc_register_field_base()\l+ sc_register_field_base()\l+ ~sc_register_field_base()\l+ name()\l+ desc()\l+ low_pos()\l+ high_pos()\l+ bit_width()\l+ get_value_mnemonic()\l+ get_value_desc()\l+ print()\l# scireg_get_low_pos()\l# scireg_get_high_pos()\l# scireg_get_bit_width()\l# scireg_get_region_type()\l# scireg_get_string_attribute()\l}">
<polygon fill="white" stroke="black" points="227,-541 227,-763 373,-763 373,-541 227,-541"/>
<text text-anchor="middle" x="300" y="-751" font-family="Helvetica,sans-Serif" font-size="10.00">sc_register_field_base</text>
<polyline fill="none" stroke="black" points="227,-744 373,-744 "/>
<text text-anchor="middle" x="300" y="-732" font-family="Helvetica,sans-Serif" font-size="10.00"> </text>
<polyline fill="none" stroke="black" points="227,-725 373,-725 "/>
<text text-anchor="start" x="235" y="-713" font-family="Helvetica,sans-Serif" font-size="10.00">+ sc_register_field_base()</text>
<text text-anchor="start" x="235" y="-702" font-family="Helvetica,sans-Serif" font-size="10.00">+ sc_register_field_base()</text>
<text text-anchor="start" x="235" y="-691" font-family="Helvetica,sans-Serif" font-size="10.00">+ ~sc_register_field_base()</text>
<text text-anchor="start" x="235" y="-680" font-family="Helvetica,sans-Serif" font-size="10.00">+ name()</text>
<text text-anchor="start" x="235" y="-669" font-family="Helvetica,sans-Serif" font-size="10.00">+ desc()</text>
<text text-anchor="start" x="235" y="-658" font-family="Helvetica,sans-Serif" font-size="10.00">+ low_pos()</text>
<text text-anchor="start" x="235" y="-647" font-family="Helvetica,sans-Serif" font-size="10.00">+ high_pos()</text>
<text text-anchor="start" x="235" y="-636" font-family="Helvetica,sans-Serif" font-size="10.00">+ bit_width()</text>
<text text-anchor="start" x="235" y="-625" font-family="Helvetica,sans-Serif" font-size="10.00">+ get_value_mnemonic()</text>
<text text-anchor="start" x="235" y="-614" font-family="Helvetica,sans-Serif" font-size="10.00">+ get_value_desc()</text>
<text text-anchor="start" x="235" y="-603" font-family="Helvetica,sans-Serif" font-size="10.00">+ print()</text>
<text text-anchor="start" x="235" y="-592" font-family="Helvetica,sans-Serif" font-size="10.00"># scireg_get_low_pos()</text>
<text text-anchor="start" x="235" y="-581" font-family="Helvetica,sans-Serif" font-size="10.00"># scireg_get_high_pos()</text>
<text text-anchor="start" x="235" y="-570" font-family="Helvetica,sans-Serif" font-size="10.00"># scireg_get_bit_width()</text>
<text text-anchor="start" x="235" y="-559" font-family="Helvetica,sans-Serif" font-size="10.00"># scireg_get_region_type()</text>
<text text-anchor="start" x="235" y="-548" font-family="Helvetica,sans-Serif" font-size="10.00"># scireg_get_string_attribute()</text>
</a>
</g>
</g>
<!-- Node5&#45;&gt;Node9 -->
<g id="edge9" class="edge"><title>Node5&#45;&gt;Node9</title>
<path fill="none" stroke="midnightblue" d="M300,-812.139C300,-796.209 300,-779.518 300,-763.187"/>
<polygon fill="none" stroke="midnightblue" points="296.5,-812.486 300,-822.486 303.5,-812.486 296.5,-812.486"/>
</g>
<!-- Node6 -->
<g id="node6" class="node"><title>Node6</title>
<g id="a_node6"><a xlink:title="STL class. ">
<polygon fill="white" stroke="#bfbfbf" points="149,-877.5 149,-934.5 209,-934.5 209,-877.5 149,-877.5"/>
<text text-anchor="middle" x="179" y="-922.5" font-family="Helvetica,sans-Serif" font-size="10.00">std::string</text>
<polyline fill="none" stroke="#bfbfbf" points="149,-915.5 209,-915.5 "/>
<text text-anchor="middle" x="179" y="-903.5" font-family="Helvetica,sans-Serif" font-size="10.00"> </text>
<polyline fill="none" stroke="#bfbfbf" points="149,-896.5 209,-896.5 "/>
<text text-anchor="middle" x="179" y="-884.5" font-family="Helvetica,sans-Serif" font-size="10.00"> </text>
</a>
</g>
</g>
<!-- Node6&#45;&gt;Node3 -->
<g id="edge5" class="edge"><title>Node6&#45;&gt;Node3</title>
<path fill="none" stroke="#404040" d="M167.533,-877.222C159.803,-857.218 150.113,-829.392 145,-804 142.438,-791.275 140.454,-777.841 138.922,-764.444"/>
<polygon fill="none" stroke="#404040" points="138.887,-764.108 134.285,-758.557 137.639,-752.173 142.241,-757.724 138.887,-764.108"/>
<text text-anchor="middle" x="166.5" y="-790.5" font-family="Helvetica,sans-Serif" font-size="10.00"> #m_desc</text>
</g>
<!-- Node6&#45;&gt;Node9 -->
<g id="edge10" class="edge"><title>Node6&#45;&gt;Node9</title>
<path fill="none" stroke="#404040" d="M191.914,-877.293C199.468,-861.14 209.218,-840.39 218,-822 225.365,-806.578 233.15,-790.387 240.876,-774.39"/>
<polygon fill="none" stroke="#404040" points="240.986,-774.161 239.996,-767.018 246.209,-763.357 247.199,-770.5 240.986,-774.161"/>
<text text-anchor="middle" x="259" y="-796" font-family="Helvetica,sans-Serif" font-size="10.00"> #m_name</text>
<text text-anchor="middle" x="259" y="-785" font-family="Helvetica,sans-Serif" font-size="10.00">#m_desc</text>
</g>
<!-- Node7 -->
<g id="node7" class="node"><title>Node7</title>
<g id="a_node7"><a xlink:title="STL class. ">
<polygon fill="white" stroke="#bfbfbf" points="131.5,-1029 131.5,-1097 226.5,-1097 226.5,-1029 131.5,-1029"/>
<text text-anchor="start" x="139.5" y="-1085" font-family="Helvetica,sans-Serif" font-size="10.00">std::basic_string&lt;</text>
<text text-anchor="middle" x="179" y="-1074" font-family="Helvetica,sans-Serif" font-size="10.00"> char &gt;</text>
<polyline fill="none" stroke="#bfbfbf" points="131.5,-1067 226.5,-1067 "/>
<text text-anchor="middle" x="179" y="-1055" font-family="Helvetica,sans-Serif" font-size="10.00"> </text>
<polyline fill="none" stroke="#bfbfbf" points="131.5,-1048 226.5,-1048 "/>
<text text-anchor="middle" x="179" y="-1036" font-family="Helvetica,sans-Serif" font-size="10.00"> </text>
</a>
</g>
</g>
<!-- Node7&#45;&gt;Node6 -->
<g id="edge6" class="edge"><title>Node7&#45;&gt;Node6</title>
<path fill="none" stroke="midnightblue" d="M179,-1018.43C179,-991.499 179,-957.764 179,-934.507"/>
<polygon fill="none" stroke="midnightblue" points="175.5,-1018.75 179,-1028.75 182.5,-1018.75 175.5,-1018.75"/>
</g>
<!-- Node8 -->
<g id="node8" class="node"><title>Node8</title>
<polygon fill="white" stroke="#bfbfbf" points="218,-401 218,-469 338,-469 338,-401 218,-401"/>
<text text-anchor="start" x="226" y="-457" font-family="Helvetica,sans-Serif" font-size="10.00">std::vector&lt; sc_register</text>
<text text-anchor="middle" x="278" y="-446" font-family="Helvetica,sans-Serif" font-size="10.00">_field_base * &gt;</text>
<polyline fill="none" stroke="#bfbfbf" points="218,-439 338,-439 "/>
<text text-anchor="middle" x="278" y="-427" font-family="Helvetica,sans-Serif" font-size="10.00"> </text>
<polyline fill="none" stroke="#bfbfbf" points="218,-420 338,-420 "/>
<text text-anchor="middle" x="278" y="-408" font-family="Helvetica,sans-Serif" font-size="10.00"> </text>
</g>
<!-- Node8&#45;&gt;Node2 -->
<g id="edge7" class="edge"><title>Node8&#45;&gt;Node2</title>
<path fill="none" stroke="#404040" d="M293.687,-400.883C298.944,-389.785 305.176,-376.629 311.829,-362.584"/>
<polygon fill="none" stroke="#404040" points="311.852,-362.534 310.806,-355.4 316.989,-351.689 318.036,-358.824 311.852,-362.534"/>
<text text-anchor="middle" x="331" y="-373.5" font-family="Helvetica,sans-Serif" font-size="10.00"> #m_fields</text>
</g>
<!-- Node9&#45;&gt;Node8 -->
<g id="edge8" class="edge"><title>Node9&#45;&gt;Node8</title>
<path fill="none" stroke="#404040" d="M280.922,-540.654C280.181,-534.355 279.529,-528.104 279,-522 277.856,-508.811 277.385,-494.441 277.257,-481.291"/>
<polygon fill="none" stroke="#404040" points="277.257,-481.136 273.243,-475.145 277.229,-469.136 281.243,-475.127 277.257,-481.136"/>
<text text-anchor="middle" x="303.5" y="-502.5" font-family="Helvetica,sans-Serif" font-size="10.00"> +elements</text>
</g>
<!-- Node10 -->
<g id="node10" class="node"><title>Node10</title>
<g id="a_node10"><a xlink:title="STL class. ">
<polygon fill="white" stroke="#bfbfbf" points="413.5,-623.5 413.5,-680.5 500.5,-680.5 500.5,-623.5 413.5,-623.5"/>
<text text-anchor="middle" x="457" y="-668.5" font-family="Helvetica,sans-Serif" font-size="10.00">std::vector&lt; T &gt;</text>
<polyline fill="none" stroke="#bfbfbf" points="413.5,-661.5 500.5,-661.5 "/>
<text text-anchor="middle" x="457" y="-649.5" font-family="Helvetica,sans-Serif" font-size="10.00"> </text>
<polyline fill="none" stroke="#bfbfbf" points="413.5,-642.5 500.5,-642.5 "/>
<text text-anchor="middle" x="457" y="-630.5" font-family="Helvetica,sans-Serif" font-size="10.00"> </text>
</a>
</g>
</g>
<!-- Node10&#45;&gt;Node8 -->
<g id="edge11" class="edge"><title>Node10&#45;&gt;Node8</title>
<path fill="none" stroke="orange" d="M438.592,-614.511C425.333,-590.988 405.65,-560.987 382,-540 368.916,-528.39 359.581,-534.153 347,-522 334.55,-509.973 338.306,-501.909 328,-488 323.228,-481.56 317.717,-475.09 312.135,-469.007"/>
<polygon fill="orange" stroke="orange" points="435.647,-616.418 443.527,-623.499 441.783,-613.049 435.647,-616.418"/>
<text text-anchor="start" x="347" y="-508" font-family="Helvetica,sans-Serif" font-size="10.00"> &lt; sc_register_field</text>
<text text-anchor="middle" x="389" y="-497" font-family="Helvetica,sans-Serif" font-size="10.00">_base * &gt;</text>
</g>
<!-- Node13 -->
<g id="node13" class="node"><title>Node13</title>
<polygon fill="white" stroke="#bfbfbf" points="356,-401 356,-469 478,-469 478,-401 356,-401"/>
<text text-anchor="start" x="364" y="-457" font-family="Helvetica,sans-Serif" font-size="10.00">std::vector&lt; scireg</text>
<text text-anchor="middle" x="417" y="-446" font-family="Helvetica,sans-Serif" font-size="10.00">_ns::scireg_callback * &gt;</text>
<polyline fill="none" stroke="#bfbfbf" points="356,-439 478,-439 "/>
<text text-anchor="middle" x="417" y="-427" font-family="Helvetica,sans-Serif" font-size="10.00"> </text>
<polyline fill="none" stroke="#bfbfbf" points="356,-420 478,-420 "/>
<text text-anchor="middle" x="417" y="-408" font-family="Helvetica,sans-Serif" font-size="10.00"> </text>
</g>
<!-- Node10&#45;&gt;Node13 -->
<g id="edge18" class="edge"><title>Node10&#45;&gt;Node13</title>
<path fill="none" stroke="orange" d="M454.037,-613.089C450.926,-579.8 445.054,-530.236 435,-488 433.54,-481.866 431.636,-475.439 429.615,-469.277"/>
<polygon fill="orange" stroke="orange" points="450.573,-613.647 454.952,-623.295 457.545,-613.022 450.573,-613.647"/>
<text text-anchor="start" x="442" y="-508" font-family="Helvetica,sans-Serif" font-size="10.00"> &lt; scireg_ns::scireg</text>
<text text-anchor="middle" x="485.5" y="-497" font-family="Helvetica,sans-Serif" font-size="10.00">_callback * &gt;</text>
</g>
<!-- Node11 -->
<g id="node11" class="node"><title>Node11</title>
<polygon fill="white" stroke="#bfbfbf" points="511.5,-877.5 511.5,-934.5 540.5,-934.5 540.5,-877.5 511.5,-877.5"/>
<text text-anchor="middle" x="526" y="-922.5" font-family="Helvetica,sans-Serif" font-size="10.00">T</text>
<polyline fill="none" stroke="#bfbfbf" points="511.5,-915.5 540.5,-915.5 "/>
<text text-anchor="middle" x="526" y="-903.5" font-family="Helvetica,sans-Serif" font-size="10.00"> </text>
<polyline fill="none" stroke="#bfbfbf" points="511.5,-896.5 540.5,-896.5 "/>
<text text-anchor="middle" x="526" y="-884.5" font-family="Helvetica,sans-Serif" font-size="10.00"> </text>
</g>
<!-- Node11&#45;&gt;Node2 -->
<g id="edge19" class="edge"><title>Node11&#45;&gt;Node2</title>
<path fill="none" stroke="#404040" d="M534.348,-877.421C540.07,-857.277 547.276,-829.196 551,-804 565.113,-708.519 610.912,-456.454 568,-370 544.587,-322.83 497.681,-286.874 456.214,-262.566"/>
<polygon fill="none" stroke="#404040" points="455.956,-262.42 448.763,-262.928 445.528,-256.483 452.721,-255.975 455.956,-262.42"/>
<text text-anchor="middle" x="615.5" y="-513.5" font-family="Helvetica,sans-Serif" font-size="10.00"> #m_cur_val</text>
<text text-anchor="middle" x="615.5" y="-502.5" font-family="Helvetica,sans-Serif" font-size="10.00">#m_mask</text>
<text text-anchor="middle" x="615.5" y="-491.5" font-family="Helvetica,sans-Serif" font-size="10.00">#m_reset_val</text>
</g>
<!-- Node11&#45;&gt;Node10 -->
<g id="edge12" class="edge"><title>Node11&#45;&gt;Node10</title>
<path fill="none" stroke="#404040" d="M518.352,-877.069C506.041,-832.106 481.791,-743.539 467.746,-692.248"/>
<polygon fill="none" stroke="#404040" points="467.746,-692.246 462.304,-687.516 464.577,-680.672 470.019,-685.403 467.746,-692.246"/>
<text text-anchor="middle" x="522.5" y="-790.5" font-family="Helvetica,sans-Serif" font-size="10.00"> +elements</text>
</g>
<!-- Node12 -->
<g id="node12" class="node"><title>Node12</title>
<polygon fill="white" stroke="#bfbfbf" points="496.5,-406.5 496.5,-463.5 559.5,-463.5 559.5,-406.5 496.5,-406.5"/>
<text text-anchor="middle" x="528" y="-451.5" font-family="Helvetica,sans-Serif" font-size="10.00">sc_event *</text>
<polyline fill="none" stroke="#bfbfbf" points="496.5,-444.5 559.5,-444.5 "/>
<text text-anchor="middle" x="528" y="-432.5" font-family="Helvetica,sans-Serif" font-size="10.00"> </text>
<polyline fill="none" stroke="#bfbfbf" points="496.5,-425.5 559.5,-425.5 "/>
<text text-anchor="middle" x="528" y="-413.5" font-family="Helvetica,sans-Serif" font-size="10.00"> </text>
</g>
<!-- Node12&#45;&gt;Node2 -->
<g id="edge13" class="edge"><title>Node12&#45;&gt;Node2</title>
<path fill="none" stroke="#404040" d="M507.948,-406.246C493.596,-386.381 473.285,-358.268 452.932,-330.098"/>
<polygon fill="none" stroke="#404040" points="452.769,-329.872 446.012,-327.351 445.741,-320.145 452.497,-322.666 452.769,-329.872"/>
<text text-anchor="middle" x="526" y="-373.5" font-family="Helvetica,sans-Serif" font-size="10.00"> #m_probe_event</text>
</g>
<!-- Node13&#45;&gt;Node2 -->
<g id="edge14" class="edge"><title>Node13&#45;&gt;Node2</title>
<path fill="none" stroke="#404040" d="M387.413,-400.805C383.562,-394.891 380.198,-388.523 378,-382 376.011,-376.097 374.37,-369.997 373.029,-363.782"/>
<polygon fill="none" stroke="#404040" points="372.98,-363.513 367.961,-358.335 370.81,-351.71 375.829,-356.888 372.98,-363.513"/>
<text text-anchor="middle" x="426.5" y="-373.5" font-family="Helvetica,sans-Serif" font-size="10.00"> #scireg_callback_vec</text>
</g>
<!-- Node14 -->
<g id="node14" class="node"><title>Node14</title>
<g id="a_node14"><a xlink:href="classscireg__ns_1_1scireg__callback.html" target="_top" xlink:title="The scireg_callback is an abstract base class that is used to implement callbacks to tools...">
<polygon fill="white" stroke="black" points="616,-618 616,-686 748,-686 748,-618 616,-618"/>
<text text-anchor="middle" x="682" y="-674" font-family="Helvetica,sans-Serif" font-size="10.00">scireg_ns::scireg_callback</text>
<polyline fill="none" stroke="black" points="616,-667 748,-667 "/>
<text text-anchor="middle" x="682" y="-655" font-family="Helvetica,sans-Serif" font-size="10.00"> </text>
<polyline fill="none" stroke="black" points="616,-648 748,-648 "/>
<text text-anchor="start" x="624" y="-636" font-family="Helvetica,sans-Serif" font-size="10.00">+ ~scireg_callback()</text>
<text text-anchor="start" x="624" y="-625" font-family="Helvetica,sans-Serif" font-size="10.00">+ do_callback()</text>
</a>
</g>
</g>
<!-- Node14&#45;&gt;Node13 -->
<g id="edge15" class="edge"><title>Node14&#45;&gt;Node13</title>
<path fill="none" stroke="#404040" d="M686.151,-617.77C688.769,-580.425 686.432,-520.751 651,-488 626.285,-465.155 538.433,-477.644 490.268,-469.843"/>
<polygon fill="none" stroke="#404040" points="490.099,-469.806 483.379,-472.422 478.379,-467.226 485.099,-464.609 490.099,-469.806"/>
<text text-anchor="middle" x="698.5" y="-502.5" font-family="Helvetica,sans-Serif" font-size="10.00"> +elements</text>
</g>
<!-- Node15 -->
<g id="node15" class="node"><title>Node15</title>
<polygon fill="white" stroke="#bfbfbf" points="720.5,-877.5 720.5,-934.5 763.5,-934.5 763.5,-877.5 720.5,-877.5"/>
<text text-anchor="middle" x="742" y="-922.5" font-family="Helvetica,sans-Serif" font-size="10.00">uint64</text>
<polyline fill="none" stroke="#bfbfbf" points="720.5,-915.5 763.5,-915.5 "/>
<text text-anchor="middle" x="742" y="-903.5" font-family="Helvetica,sans-Serif" font-size="10.00"> </text>
<polyline fill="none" stroke="#bfbfbf" points="720.5,-896.5 763.5,-896.5 "/>
<text text-anchor="middle" x="742" y="-884.5" font-family="Helvetica,sans-Serif" font-size="10.00"> </text>
</g>
<!-- Node15&#45;&gt;Node14 -->
<g id="edge16" class="edge"><title>Node15&#45;&gt;Node14</title>
<path fill="none" stroke="#404040" d="M735.35,-877.069C725.04,-833.767 705.101,-750.023 692.733,-698.08"/>
<polygon fill="none" stroke="#404040" points="692.693,-697.912 687.412,-693.002 689.914,-686.238 695.195,-691.149 692.693,-697.912"/>
<text text-anchor="middle" x="734" y="-796" font-family="Helvetica,sans-Serif" font-size="10.00"> +offset</text>
<text text-anchor="middle" x="734" y="-785" font-family="Helvetica,sans-Serif" font-size="10.00">+size</text>
</g>
<!-- Node16 -->
<g id="node16" class="node"><title>Node16</title>
<polygon fill="white" stroke="#bfbfbf" points="594,-877.5 594,-934.5 702,-934.5 702,-877.5 594,-877.5"/>
<text text-anchor="middle" x="648" y="-922.5" font-family="Helvetica,sans-Serif" font-size="10.00">scireg_callback_type</text>
<polyline fill="none" stroke="#bfbfbf" points="594,-915.5 702,-915.5 "/>
<text text-anchor="middle" x="648" y="-903.5" font-family="Helvetica,sans-Serif" font-size="10.00"> </text>
<polyline fill="none" stroke="#bfbfbf" points="594,-896.5 702,-896.5 "/>
<text text-anchor="middle" x="648" y="-884.5" font-family="Helvetica,sans-Serif" font-size="10.00"> </text>
</g>
<!-- Node16&#45;&gt;Node14 -->
<g id="edge17" class="edge"><title>Node16&#45;&gt;Node14</title>
<path fill="none" stroke="#404040" d="M651.769,-877.069C657.599,-833.858 668.862,-750.376 675.873,-698.41"/>
<polygon fill="none" stroke="#404040" points="675.911,-698.13 672.749,-691.649 677.515,-686.238 680.677,-692.719 675.911,-698.13"/>
<text text-anchor="middle" x="678" y="-790.5" font-family="Helvetica,sans-Serif" font-size="10.00"> +type</text>
</g>
</g>
</svg>
        <g id="navigator" transform="translate(0 0)" fill="#404254">
                <rect fill="#f2f5e9" fill-opacity="0.5" stroke="#606060" stroke-width=".5" x="0" y="0" width="60" height="60"/>
                <use id="zoomplus" xlink:href="#zoomPlus" x="17" y="9" onmousedown="handleZoom(evt,'in')"/>
                <use id="zoomminus" xlink:href="#zoomMin" x="42" y="9" onmousedown="handleZoom(evt,'out')"/>
                <use id="reset" xlink:href="#resetDef" x="30" y="36" onmousedown="handleReset()"/>
                <g id="arrowUp" xlink:href="#dirArrow" transform="translate(30 24)" onmousedown="handlePan(0,-1)">
                  <use xlink:href="#rim" fill="#404040">
                        <set attributeName="fill" to="#808080" begin="arrowUp.mouseover" end="arrowUp.mouseout"/>
                  </use>
                  <path fill="none" stroke="white" stroke-width="1.5" d="M0,-3.0v7 M-2.5,-0.5L0,-3.0L2.5,-0.5"/>
                </g>
                <g id="arrowRight" xlink:href="#dirArrow" transform="rotate(90) translate(36 -43)" onmousedown="handlePan(1,0)">
                  <use xlink:href="#rim" fill="#404040">
                        <set attributeName="fill" to="#808080" begin="arrowRight.mouseover" end="arrowRight.mouseout"/>
                  </use>
                  <path fill="none" stroke="white" stroke-width="1.5" d="M0,-3.0v7 M-2.5,-0.5L0,-3.0L2.5,-0.5"/>
                </g>
                <g id="arrowDown" xlink:href="#dirArrow" transform="rotate(180) translate(-30 -48)" onmousedown="handlePan(0,1)">
                  <use xlink:href="#rim" fill="#404040">
                        <set attributeName="fill" to="#808080" begin="arrowDown.mouseover" end="arrowDown.mouseout"/>
                  </use>
                  <path fill="none" stroke="white" stroke-width="1.5" d="M0,-3.0v7 M-2.5,-0.5L0,-3.0L2.5,-0.5"/>
                </g>
                <g id="arrowLeft" xlink:href="#dirArrow" transform="rotate(270) translate(-36 17)" onmousedown="handlePan(-1,0)">
                  <use xlink:href="#rim" fill="#404040">
                        <set attributeName="fill" to="#808080" begin="arrowLeft.mouseover" end="arrowLeft.mouseout"/>
                  </use>
                  <path fill="none" stroke="white" stroke-width="1.5" d="M0,-3.0v7 M-2.5,-0.5L0,-3.0L2.5,-0.5"/>
                </g>
        </g>
        <svg viewBox="0 0 15 15" width="100%" height="30px" preserveAspectRatio="xMaxYMin meet">
         <g id="arrow_out" transform="scale(0.3 0.3)">
          <a xlink:href="classsc__register__coll__graph_org.svg" target="_base">
           <rect id="button" ry="5" rx="5" y="6" x="6" height="38" width="38"
                fill="#f2f5e9" fill-opacity="0.5" stroke="#606060" stroke-width="1.0"/>
           <path id="arrow"
             d="M 11.500037,31.436501 C 11.940474,20.09759 22.043105,11.32322 32.158766,21.979434 L 37.068811,17.246167 C 37.068811,17.246167 37.088388,32 37.088388,32 L 22.160133,31.978069 C 22.160133,31.978069 26.997745,27.140456 26.997745,27.140456 C 18.528582,18.264221 13.291696,25.230495 11.500037,31.436501 z"
             style="fill:#404040;"/>
          </a>
         </g>
        </svg>
</svg>
