<?xml version="1.0" encoding="UTF-8" standalone="no"?>
<!DOCTYPE svg PUBLIC "-//W3C//DTD SVG 1.1//EN"
 "http://www.w3.org/Graphics/SVG/1.1/DTD/svg11.dtd">
<!-- Generated by graphviz version 2.26.0 (20091210.2329)
 -->
<!-- Title: trap::writeSysCall::operator() Pages: 1 -->
<svg width="272pt" height="230pt"
 viewBox="0.00 0.00 272.00 230.00" xmlns="http://www.w3.org/2000/svg" xmlns:xlink="http://www.w3.org/1999/xlink">
<g id="graph1" class="graph" transform="scale(1 1) rotate(0) translate(4 226)">
<title>trap::writeSysCall::operator()</title>
<polygon fill="white" stroke="white" points="-4,5 -4,-226 269,-226 269,5 -4,5"/>
<!-- Node1 -->
<g id="node1" class="node"><title>Node1</title>
<polygon fill="#bfbfbf" stroke="black" points="0.5,-94 0.5,-128 95.5,-128 95.5,-94 0.5,-94"/>
<text text-anchor="start" x="8.5" y="-115" font-family="Helvetica,sans-Serif" font-size="10.00">trap::writeSysCall</text>
<text text-anchor="middle" x="48" y="-102" font-family="Helvetica,sans-Serif" font-size="10.00">::operator()</text>
</g>
<!-- Node2 -->
<g id="node3" class="node"><title>Node2</title>
<a xlink:href="classtrap_1_1ABIIf.html#a09009b16205964fa8feecd9cb5efdc2b" target="_top" xlink:title="trap::ABIIf::postCall">
<polygon fill="white" stroke="black" points="146,-200.5 146,-221.5 250,-221.5 250,-200.5 146,-200.5"/>
<text text-anchor="middle" x="198" y="-208.5" font-family="Helvetica,sans-Serif" font-size="10.00">trap::ABIIf::postCall</text>
</a>
</g>
<!-- Node1&#45;&gt;Node2 -->
<g id="edge2" class="edge"><title>Node1&#45;&gt;Node2</title>
<path fill="none" stroke="midnightblue" d="M61.6921,-128.127C77.016,-146.216 103.464,-174.371 132,-191 135.608,-193.102 139.457,-195.003 143.416,-196.718"/>
<polygon fill="midnightblue" stroke="midnightblue" points="142.201,-200.001 152.788,-200.39 144.754,-193.483 142.201,-200.001"/>
</g>
<!-- Node3 -->
<g id="node5" class="node"><title>Node3</title>
<a xlink:href="classtrap_1_1ABIIf.html#ab078dd4f7d791c2bd95148c3cd568600" target="_top" xlink:title="trap::ABIIf::preCall">
<polygon fill="white" stroke="black" points="149,-160.5 149,-181.5 247,-181.5 247,-160.5 149,-160.5"/>
<text text-anchor="middle" x="198" y="-168.5" font-family="Helvetica,sans-Serif" font-size="10.00">trap::ABIIf::preCall</text>
</a>
</g>
<!-- Node1&#45;&gt;Node3 -->
<g id="edge4" class="edge"><title>Node1&#45;&gt;Node3</title>
<path fill="none" stroke="midnightblue" d="M81.0127,-128.133C96.2923,-135.694 114.828,-144.353 132,-151 137.789,-153.241 143.94,-155.394 150.069,-157.404"/>
<polygon fill="midnightblue" stroke="midnightblue" points="149.036,-160.748 159.627,-160.435 151.153,-154.076 149.036,-160.748"/>
</g>
<!-- Node4 -->
<g id="node7" class="node"><title>Node4</title>
<a xlink:href="classtrap_1_1ABIIf.html#a15542f4ec43296551f50c35ceb6da94a" target="_top" xlink:title="trap::ABIIf::readArgs">
<polygon fill="white" stroke="black" points="144.5,-120.5 144.5,-141.5 251.5,-141.5 251.5,-120.5 144.5,-120.5"/>
<text text-anchor="middle" x="198" y="-128.5" font-family="Helvetica,sans-Serif" font-size="10.00">trap::ABIIf::readArgs</text>
</a>
</g>
<!-- Node1&#45;&gt;Node4 -->
<g id="edge6" class="edge"><title>Node1&#45;&gt;Node4</title>
<path fill="none" stroke="midnightblue" d="M95.8734,-117.383C108.051,-119.007 121.331,-120.778 134.166,-122.489"/>
<polygon fill="midnightblue" stroke="midnightblue" points="133.958,-125.992 144.333,-123.844 134.883,-119.053 133.958,-125.992"/>
</g>
<!-- Node5 -->
<g id="node9" class="node"><title>Node5</title>
<a xlink:href="classtrap_1_1ABIIf.html#a60fa8913c98701581368cdd84bb34ca6" target="_top" xlink:title="trap::ABIIf::readCharMem">
<polygon fill="white" stroke="black" points="133.5,-80.5 133.5,-101.5 262.5,-101.5 262.5,-80.5 133.5,-80.5"/>
<text text-anchor="middle" x="198" y="-88.5" font-family="Helvetica,sans-Serif" font-size="10.00">trap::ABIIf::readCharMem</text>
</a>
</g>
<!-- Node1&#45;&gt;Node5 -->
<g id="edge8" class="edge"><title>Node1&#45;&gt;Node5</title>
<path fill="none" stroke="midnightblue" d="M95.8734,-104.617C104.625,-103.45 113.947,-102.207 123.263,-100.965"/>
<polygon fill="midnightblue" stroke="midnightblue" points="123.894,-104.412 133.343,-99.6209 122.968,-97.4733 123.894,-104.412"/>
</g>
<!-- Node6 -->
<g id="node11" class="node"><title>Node6</title>
<a xlink:href="classtrap_1_1ABIIf.html#a5c0112912c658eb7be33283f1141a726" target="_top" xlink:title="trap::ABIIf::returnFromCall">
<polygon fill="white" stroke="black" points="132,-40.5 132,-61.5 264,-61.5 264,-40.5 132,-40.5"/>
<text text-anchor="middle" x="198" y="-48.5" font-family="Helvetica,sans-Serif" font-size="10.00">trap::ABIIf::returnFromCall</text>
</a>
</g>
<!-- Node1&#45;&gt;Node6 -->
<g id="edge10" class="edge"><title>Node1&#45;&gt;Node6</title>
<path fill="none" stroke="midnightblue" d="M81.0127,-93.8674C96.2923,-86.3063 114.828,-77.6471 132,-71 137.789,-68.7593 143.94,-66.6059 150.069,-64.5963"/>
<polygon fill="midnightblue" stroke="midnightblue" points="151.153,-67.9244 159.627,-61.565 149.036,-61.2519 151.153,-67.9244"/>
</g>
<!-- Node7 -->
<g id="node13" class="node"><title>Node7</title>
<a xlink:href="classtrap_1_1ABIIf.html#a0c2cec804e41cd95ffe4fc073268a10f" target="_top" xlink:title="trap::ABIIf::setRetVal">
<polygon fill="white" stroke="black" points="142.5,-0.5 142.5,-21.5 253.5,-21.5 253.5,-0.5 142.5,-0.5"/>
<text text-anchor="middle" x="198" y="-8.5" font-family="Helvetica,sans-Serif" font-size="10.00">trap::ABIIf::setRetVal</text>
</a>
</g>
<!-- Node1&#45;&gt;Node7 -->
<g id="edge12" class="edge"><title>Node1&#45;&gt;Node7</title>
<path fill="none" stroke="midnightblue" d="M61.6921,-93.8729C77.016,-75.784 103.464,-47.6289 132,-31 135.608,-28.8977 139.457,-26.997 143.416,-25.282"/>
<polygon fill="midnightblue" stroke="midnightblue" points="144.754,-28.5168 152.788,-21.6099 142.201,-21.9992 144.754,-28.5168"/>
</g>
</g>
</svg>
