<?xml version="1.0" encoding="UTF-8" standalone="no"?>
<!DOCTYPE svg PUBLIC "-//W3C//DTD SVG 1.1//EN"
 "http://www.w3.org/Graphics/SVG/1.1/DTD/svg11.dtd">
<!-- Generated by graphviz version 2.38.0 (20140413.2041)
 -->
<!-- Title: leon3_funclt_trap::PinTLM_out_32 Pages: 1 -->
<svg width="129pt" height="248pt"
 viewBox="0.00 0.00 129.00 248.00" xmlns="http://www.w3.org/2000/svg" xmlns:xlink="http://www.w3.org/1999/xlink">
<g id="graph0" class="graph" transform="scale(1 1) rotate(0) translate(4 244)">
<title>leon3_funclt_trap::PinTLM_out_32</title>
<polygon fill="white" stroke="none" points="-4,4 -4,-244 125,-244 125,4 -4,4"/>
<!-- Node1 -->
<g id="node1" class="node"><title>Node1</title>
<polygon fill="#bfbfbf" stroke="black" points="-7.10543e-15,-0.5 -7.10543e-15,-145.5 121,-145.5 121,-0.5 -7.10543e-15,-0.5"/>
<text text-anchor="start" x="8" y="-133.5" font-family="Helvetica,sans-Serif" font-size="10.00">leon3_funclt_trap::</text>
<text text-anchor="middle" x="60.5" y="-122.5" font-family="Helvetica,sans-Serif" font-size="10.00">PinTLM_out_32</text>
<polyline fill="none" stroke="black" points="-7.10543e-15,-115.5 121,-115.5 "/>
<text text-anchor="start" x="8" y="-103.5" font-family="Helvetica,sans-Serif" font-size="10.00">+ initSignal</text>
<text text-anchor="start" x="8" y="-92.5" font-family="Helvetica,sans-Serif" font-size="10.00">+ status</text>
<text text-anchor="start" x="8" y="-81.5" font-family="Helvetica,sans-Serif" font-size="10.00">+ run</text>
<text text-anchor="start" x="8" y="-70.5" font-family="Helvetica,sans-Serif" font-size="10.00">+ stopped</text>
<text text-anchor="start" x="8" y="-59.5" font-family="Helvetica,sans-Serif" font-size="10.00">+ start</text>
<polyline fill="none" stroke="black" points="-7.10543e-15,-52.5 121,-52.5 "/>
<text text-anchor="start" x="8" y="-40.5" font-family="Helvetica,sans-Serif" font-size="10.00">+ SR_HAS_SIGNALS()</text>
<text text-anchor="start" x="8" y="-29.5" font-family="Helvetica,sans-Serif" font-size="10.00">+ PinTLM_out_32()</text>
<text text-anchor="start" x="8" y="-18.5" font-family="Helvetica,sans-Serif" font-size="10.00">+ send_pin_req()</text>
<text text-anchor="start" x="8" y="-7.5" font-family="Helvetica,sans-Serif" font-size="10.00">+ on_run()</text>
</g>
<!-- Node2 -->
<g id="node2" class="node"><title>Node2</title>
<polygon fill="white" stroke="#bfbfbf" points="28.5,-182.5 28.5,-239.5 92.5,-239.5 92.5,-182.5 28.5,-182.5"/>
<text text-anchor="middle" x="60.5" y="-227.5" font-family="Helvetica,sans-Serif" font-size="10.00">sc_module</text>
<polyline fill="none" stroke="#bfbfbf" points="28.5,-220.5 92.5,-220.5 "/>
<text text-anchor="middle" x="60.5" y="-208.5" font-family="Helvetica,sans-Serif" font-size="10.00"> </text>
<polyline fill="none" stroke="#bfbfbf" points="28.5,-201.5 92.5,-201.5 "/>
<text text-anchor="middle" x="60.5" y="-189.5" font-family="Helvetica,sans-Serif" font-size="10.00"> </text>
</g>
<!-- Node2&#45;&gt;Node1 -->
<g id="edge1" class="edge"><title>Node2&#45;&gt;Node1</title>
<path fill="none" stroke="midnightblue" d="M60.5,-172.356C60.5,-163.999 60.5,-154.872 60.5,-145.656"/>
<polygon fill="none" stroke="midnightblue" points="57.0001,-172.478 60.5,-182.478 64.0001,-172.478 57.0001,-172.478"/>
</g>
</g>
</svg>
