<?xml version="1.0" encoding="UTF-8" standalone="no"?>
<!DOCTYPE svg PUBLIC "-//W3C//DTD SVG 1.1//EN"
 "http://www.w3.org/Graphics/SVG/1.1/DTD/svg11.dtd">
<!-- Generated by graphviz version 2.38.0 (20140413.2041)
 -->
<!-- Title: trap::WatchpointManager&lt; AddressType &gt; Pages: 1 -->
<svg width="282pt" height="304pt"
 viewBox="0.00 0.00 281.91 304.00" xmlns="http://www.w3.org/2000/svg" xmlns:xlink="http://www.w3.org/1999/xlink">
<g id="graph0" class="graph" transform="scale(1 1) rotate(0) translate(4 300)">
<title>trap::WatchpointManager&lt; AddressType &gt;</title>
<polygon fill="white" stroke="none" points="-4,4 -4,-300 277.914,-300 277.914,4 -4,4"/>
<!-- Node1 -->
<g id="node1" class="node"><title>Node1</title>
<polygon fill="#bfbfbf" stroke="black" points="73,-171.5 73,-295.5 200.914,-295.5 200.914,-171.5 73,-171.5"/>
<text text-anchor="start" x="81" y="-283.5" font-family="Helvetica,sans-Serif" font-size="10.00">trap::WatchpointManager</text>
<text text-anchor="middle" x="136.957" y="-273.5" font-family="Helvetica,sans-Serif" font-size="10.00">&lt; AddressType &gt;</text>
<polyline fill="none" stroke="black" points="73,-267.5 200.914,-267.5 "/>
<text text-anchor="middle" x="136.957" y="-255.5" font-family="Helvetica,sans-Serif" font-size="10.00"> </text>
<polyline fill="none" stroke="black" points="73,-249.5 200.914,-249.5 "/>
<text text-anchor="start" x="81" y="-237.5" font-family="Helvetica,sans-Serif" font-size="10.00">+ WatchpointManager()</text>
<text text-anchor="start" x="81" y="-227.5" font-family="Helvetica,sans-Serif" font-size="10.00">+ clearAllWatchs()</text>
<text text-anchor="start" x="81" y="-217.5" font-family="Helvetica,sans-Serif" font-size="10.00">+ addWatchpoint()</text>
<text text-anchor="start" x="81" y="-207.5" font-family="Helvetica,sans-Serif" font-size="10.00">+ removeWatchpoint()</text>
<text text-anchor="start" x="81" y="-197.5" font-family="Helvetica,sans-Serif" font-size="10.00">+ hasWatchpoint()</text>
<text text-anchor="start" x="81" y="-187.5" font-family="Helvetica,sans-Serif" font-size="10.00">+ getWatchPoint()</text>
<text text-anchor="start" x="81" y="-177.5" font-family="Helvetica,sans-Serif" font-size="10.00">+ getWatchpoints()</text>
</g>
<!-- Node2 -->
<g id="node2" class="node"><title>Node2</title>
<g id="a_node2"><a xlink:href="classtrap_1_1WatchpointManager.html" target="_top" xlink:title="{trap::WatchpointManager\l\&lt; issueWidth \&gt;\n||+ WatchpointManager()\l+ clearAllWatchs()\l+ addWatchpoint()\l+ removeWatchpoint()\l+ hasWatchpoint()\l+ getWatchPoint()\l+ getWatchpoints()\l}">
<polygon fill="white" stroke="black" points="0,-0.5 0,-124.5 127.914,-124.5 127.914,-0.5 0,-0.5"/>
<text text-anchor="start" x="8" y="-112.5" font-family="Helvetica,sans-Serif" font-size="10.00">trap::WatchpointManager</text>
<text text-anchor="middle" x="63.957" y="-102.5" font-family="Helvetica,sans-Serif" font-size="10.00">&lt; issueWidth &gt;</text>
<polyline fill="none" stroke="black" points="0,-96.5 127.914,-96.5 "/>
<text text-anchor="middle" x="63.957" y="-84.5" font-family="Helvetica,sans-Serif" font-size="10.00"> </text>
<polyline fill="none" stroke="black" points="0,-78.5 127.914,-78.5 "/>
<text text-anchor="start" x="8" y="-66.5" font-family="Helvetica,sans-Serif" font-size="10.00">+ WatchpointManager()</text>
<text text-anchor="start" x="8" y="-56.5" font-family="Helvetica,sans-Serif" font-size="10.00">+ clearAllWatchs()</text>
<text text-anchor="start" x="8" y="-46.5" font-family="Helvetica,sans-Serif" font-size="10.00">+ addWatchpoint()</text>
<text text-anchor="start" x="8" y="-36.5" font-family="Helvetica,sans-Serif" font-size="10.00">+ removeWatchpoint()</text>
<text text-anchor="start" x="8" y="-26.5" font-family="Helvetica,sans-Serif" font-size="10.00">+ hasWatchpoint()</text>
<text text-anchor="start" x="8" y="-16.5" font-family="Helvetica,sans-Serif" font-size="10.00">+ getWatchPoint()</text>
<text text-anchor="start" x="8" y="-6.5" font-family="Helvetica,sans-Serif" font-size="10.00">+ getWatchpoints()</text>
</a>
</g>
</g>
<!-- Node1&#45;&gt;Node2 -->
<g id="edge1" class="edge"><title>Node1&#45;&gt;Node2</title>
<path fill="none" stroke="orange" d="M106.544,-162.093C101.182,-149.678 95.6384,-136.845 90.3956,-124.707"/>
<polygon fill="orange" stroke="orange" points="103.424,-163.695 110.602,-171.487 109.85,-160.919 103.424,-163.695"/>
<text text-anchor="middle" x="135.417" y="-145" font-family="Helvetica,sans-Serif" font-size="10.00"> &lt; issueWidth &gt;</text>
</g>
<!-- Node3 -->
<g id="node3" class="node"><title>Node3</title>
<g id="a_node3"><a xlink:href="classtrap_1_1WatchpointManager.html" target="_top" xlink:title="{trap::WatchpointManager\l\&lt; unsigned int \&gt;\n||+ WatchpointManager()\l+ clearAllWatchs()\l+ addWatchpoint()\l+ removeWatchpoint()\l+ hasWatchpoint()\l+ getWatchPoint()\l+ getWatchpoints()\l}">
<polygon fill="white" stroke="black" points="146,-0.5 146,-124.5 273.914,-124.5 273.914,-0.5 146,-0.5"/>
<text text-anchor="start" x="154" y="-112.5" font-family="Helvetica,sans-Serif" font-size="10.00">trap::WatchpointManager</text>
<text text-anchor="middle" x="209.957" y="-102.5" font-family="Helvetica,sans-Serif" font-size="10.00">&lt; unsigned int &gt;</text>
<polyline fill="none" stroke="black" points="146,-96.5 273.914,-96.5 "/>
<text text-anchor="middle" x="209.957" y="-84.5" font-family="Helvetica,sans-Serif" font-size="10.00"> </text>
<polyline fill="none" stroke="black" points="146,-78.5 273.914,-78.5 "/>
<text text-anchor="start" x="154" y="-66.5" font-family="Helvetica,sans-Serif" font-size="10.00">+ WatchpointManager()</text>
<text text-anchor="start" x="154" y="-56.5" font-family="Helvetica,sans-Serif" font-size="10.00">+ clearAllWatchs()</text>
<text text-anchor="start" x="154" y="-46.5" font-family="Helvetica,sans-Serif" font-size="10.00">+ addWatchpoint()</text>
<text text-anchor="start" x="154" y="-36.5" font-family="Helvetica,sans-Serif" font-size="10.00">+ removeWatchpoint()</text>
<text text-anchor="start" x="154" y="-26.5" font-family="Helvetica,sans-Serif" font-size="10.00">+ hasWatchpoint()</text>
<text text-anchor="start" x="154" y="-16.5" font-family="Helvetica,sans-Serif" font-size="10.00">+ getWatchPoint()</text>
<text text-anchor="start" x="154" y="-6.5" font-family="Helvetica,sans-Serif" font-size="10.00">+ getWatchpoints()</text>
</a>
</g>
</g>
<!-- Node1&#45;&gt;Node3 -->
<g id="edge2" class="edge"><title>Node1&#45;&gt;Node3</title>
<path fill="none" stroke="orange" d="M169.941,-162.148C171.311,-159.063 172.655,-156.003 173.957,-153 177.887,-143.934 181.917,-134.293 185.794,-124.823"/>
<polygon fill="orange" stroke="orange" points="166.668,-160.893 165.769,-171.449 173.055,-163.757 166.668,-160.893"/>
<text text-anchor="middle" x="215.93" y="-145" font-family="Helvetica,sans-Serif" font-size="10.00"> &lt; unsigned int &gt;</text>
</g>
</g>
</svg>
