<?xml version="1.0" encoding="UTF-8" standalone="no"?>
<!DOCTYPE svg PUBLIC "-//W3C//DTD SVG 1.1//EN"
 "http://www.w3.org/Graphics/SVG/1.1/DTD/svg11.dtd">
<!-- Generated by graphviz version 2.26.0 (20091210.2329)
 -->
<!-- Title: leon3_funcat_trap::Processor_leon3_funcat::Processor_leon3_funcat Pages: 1 -->
<!--zoomable 309 -->
<svg id="main" version="1.1" xmlns="http://www.w3.org/2000/svg" xmlns:xlink="http://www.w3.org/1999/xlink" xml:space="preserve" onload="init(evt)">
<style type="text/css"><![CDATA[
.edge:hover path { stroke: red; }
.edge:hover polygon { stroke: red; fill: red; }
]]></style>
<script type="text/javascript"><![CDATA[
var edges = document.getElementsByTagName('g');
if (edges && edges.length) {
  for (var i=0;i<edges.length;i++) {
    if (edges[i].id.substr(0,4)=='edge') {
      edges[i].setAttribute('class','edge');
    }
  }
}
]]></script>
        <defs>
                <circle id="rim" cx="0" cy="0" r="7"/>
                <circle id="rim2" cx="0" cy="0" r="3.5"/>
                <g id="zoomPlus">
                        <use xlink:href="#rim" fill="#404040">
                                <set attributeName="fill" to="#808080" begin="zoomplus.mouseover" end="zoomplus.mouseout"/>
                        </use>
                        <path d="M-4,0h8M0,-4v8" fill="none" stroke="white" stroke-width="1.5" pointer-events="none"/>
                </g>
                <g id="zoomMin">
                        <use xlink:href="#rim" fill="#404040">
                                <set attributeName="fill" to="#808080" begin="zoomminus.mouseover" end="zoomminus.mouseout"/>
                        </use>
                        <path d="M-4,0h8" fill="none" stroke="white" stroke-width="1.5" pointer-events="none"/>
                </g>
                <g id="dirArrow">
                        <path fill="none" stroke="white" stroke-width="1.5" d="M0,-3.0v7 M-2.5,-0.5L0,-3.0L2.5,-0.5"/>
                </g>
               <g id="resetDef">
                       <use xlink:href="#rim2" fill="#404040">
                               <set attributeName="fill" to="#808080" begin="reset.mouseover" end="reset.mouseout"/>
                       </use>
               </g>
        </defs>

<script type="text/javascript">
var viewWidth = 540;
var viewHeight = 309;
var sectionId = 'dynsection-2';
</script>
<script xlink:href="svgpan.js"/>
<svg id="graph" class="graph">
<g id="viewport">
<title>leon3_funcat_trap::Processor_leon3_funcat::Processor_leon3_funcat</title>
<polygon fill="white" stroke="white" points="-4,5 -4,-305 537,-305 537,5 -4,5"/>
<!-- Node1 -->
<g id="node1" class="node"><title>Node1</title>
<polygon fill="#bfbfbf" stroke="black" points="0,-71.5 0,-118.5 128,-118.5 128,-71.5 0,-71.5"/>
<text text-anchor="start" x="8" y="-105.5" font-family="Helvetica,sans-Serif" font-size="10.00">leon3_funcat_trap::</text>
<text text-anchor="start" x="8" y="-92.5" font-family="Helvetica,sans-Serif" font-size="10.00">Processor_leon3_funcat</text>
<text text-anchor="middle" x="64" y="-79.5" font-family="Helvetica,sans-Serif" font-size="10.00">::Processor_leon3_funcat</text>
</g>
<!-- Node2 -->
<g id="node3" class="node"><title>Node2</title>
<a xlink:href="classleon3__funcat__trap_1_1Processor__leon3__funcat.html#af3b530d3c8646abe68588ce9821a3190" target="_top" xlink:title="leon3_funcat_trap::\lProcessor_leon3_funcat\l::mainLoop">
<polygon fill="white" stroke="black" points="192,-156.5 192,-203.5 314,-203.5 314,-156.5 192,-156.5"/>
<text text-anchor="start" x="200" y="-190.5" font-family="Helvetica,sans-Serif" font-size="10.00">leon3_funcat_trap::</text>
<text text-anchor="start" x="200" y="-177.5" font-family="Helvetica,sans-Serif" font-size="10.00">Processor_leon3_funcat</text>
<text text-anchor="middle" x="253" y="-164.5" font-family="Helvetica,sans-Serif" font-size="10.00">::mainLoop</text>
</a>
</g>
<!-- Node1&#45;&gt;Node2 -->
<g id="edge2" class="edge"><title>Node1&#45;&gt;Node2</title>
<path fill="none" stroke="midnightblue" d="M106.742,-118.717C124.249,-128.038 144.859,-138.514 164,-147 169.833,-149.586 175.938,-152.145 182.098,-154.625"/>
<polygon fill="midnightblue" stroke="midnightblue" points="181.207,-158.036 191.794,-158.451 183.776,-151.525 181.207,-158.036"/>
</g>
<!-- Node8 -->
<g id="node15" class="node"><title>Node8</title>
<a xlink:href="classleon3__funcat__trap_1_1RegisterBankClass.html#af98be24d106213cfdcde69a320fe3720" target="_top" xlink:title="leon3_funcat_trap::\lRegisterBankClass::setNewRegister">
<polygon fill="white" stroke="black" points="164,-104 164,-138 342,-138 342,-104 164,-104"/>
<text text-anchor="start" x="172" y="-125" font-family="Helvetica,sans-Serif" font-size="10.00">leon3_funcat_trap::</text>
<text text-anchor="middle" x="253" y="-112" font-family="Helvetica,sans-Serif" font-size="10.00">RegisterBankClass::setNewRegister</text>
</a>
</g>
<!-- Node1&#45;&gt;Node8 -->
<g id="edge14" class="edge"><title>Node1&#45;&gt;Node8</title>
<path fill="none" stroke="midnightblue" d="M128.251,-103.839C136.481,-104.971 145.053,-106.15 153.679,-107.337"/>
<polygon fill="midnightblue" stroke="midnightblue" points="153.429,-110.835 163.812,-108.731 154.383,-103.901 153.429,-110.835"/>
</g>
<!-- Node9 -->
<g id="node17" class="node"><title>Node9</title>
<a xlink:href="classleon3__funcat__trap_1_1RegisterBankClass.html#adf01b28993a877eae0c7723306084470" target="_top" xlink:title="leon3_funcat_trap::\lRegisterBankClass::setSize">
<polygon fill="white" stroke="black" points="183,-52 183,-86 323,-86 323,-52 183,-52"/>
<text text-anchor="start" x="191" y="-73" font-family="Helvetica,sans-Serif" font-size="10.00">leon3_funcat_trap::</text>
<text text-anchor="middle" x="253" y="-60" font-family="Helvetica,sans-Serif" font-size="10.00">RegisterBankClass::setSize</text>
</a>
</g>
<!-- Node1&#45;&gt;Node9 -->
<g id="edge16" class="edge"><title>Node1&#45;&gt;Node9</title>
<path fill="none" stroke="midnightblue" d="M128.251,-86.1613C142.51,-84.1997 157.797,-82.0967 172.611,-80.0588"/>
<polygon fill="midnightblue" stroke="midnightblue" points="173.343,-83.4912 182.772,-78.6609 172.389,-76.5565 173.343,-83.4912"/>
</g>
<!-- Node10 -->
<g id="node19" class="node"><title>Node10</title>
<a xlink:href="classleon3__funcat__trap_1_1Alias.html#aba0a56db8aeed4adcb4782313ce3959a" target="_top" xlink:title="leon3_funcat_trap::\lAlias::updateAlias">
<polygon fill="white" stroke="black" points="203,-0 203,-34 303,-34 303,-0 203,-0"/>
<text text-anchor="start" x="211" y="-21" font-family="Helvetica,sans-Serif" font-size="10.00">leon3_funcat_trap::</text>
<text text-anchor="middle" x="253" y="-8" font-family="Helvetica,sans-Serif" font-size="10.00">Alias::updateAlias</text>
</a>
</g>
<!-- Node1&#45;&gt;Node10 -->
<g id="edge18" class="edge"><title>Node1&#45;&gt;Node10</title>
<path fill="none" stroke="midnightblue" d="M104.987,-71.3788C122.754,-61.7503 144.026,-51.0214 164,-43 173.299,-39.2658 183.338,-35.8102 193.207,-32.7187"/>
<polygon fill="midnightblue" stroke="midnightblue" points="194.433,-36.0043 202.986,-29.7516 192.401,-29.3058 194.433,-36.0043"/>
</g>
<!-- Node3 -->
<g id="node5" class="node"><title>Node3</title>
<a xlink:href="classleon3__funcat__trap_1_1Instruction.html#a27ffef1cd7043743c7b988d4d02a1a5d" target="_top" xlink:title="Returns the instruction name. ">
<polygon fill="white" stroke="black" points="378,-267 378,-301 532,-301 532,-267 378,-267"/>
<text text-anchor="start" x="386" y="-288" font-family="Helvetica,sans-Serif" font-size="10.00">leon3_funcat_trap::</text>
<text text-anchor="middle" x="455" y="-275" font-family="Helvetica,sans-Serif" font-size="10.00">Instruction::getInstructionName</text>
</a>
</g>
<!-- Node2&#45;&gt;Node3 -->
<g id="edge4" class="edge"><title>Node2&#45;&gt;Node3</title>
<path fill="none" stroke="midnightblue" d="M286.012,-203.566C310.541,-220.327 345.279,-242.525 378,-258 381.803,-259.798 385.764,-261.531 389.795,-263.187"/>
<polygon fill="midnightblue" stroke="midnightblue" points="388.699,-266.517 399.287,-266.913 391.257,-260.001 388.699,-266.517"/>
</g>
<!-- Node4 -->
<g id="node7" class="node"><title>Node4</title>
<a xlink:href="classleon3__funcat__trap_1_1Instruction.html#a436f42e11d2fdd1d66fb9caafcecf407" target="_top" xlink:title="leon3_funcat_trap::\lInstruction::getMnemonic">
<polygon fill="white" stroke="black" points="391.5,-215 391.5,-249 518.5,-249 518.5,-215 391.5,-215"/>
<text text-anchor="start" x="399.5" y="-236" font-family="Helvetica,sans-Serif" font-size="10.00">leon3_funcat_trap::</text>
<text text-anchor="middle" x="455" y="-223" font-family="Helvetica,sans-Serif" font-size="10.00">Instruction::getMnemonic</text>
</a>
</g>
<!-- Node2&#45;&gt;Node4 -->
<g id="edge6" class="edge"><title>Node2&#45;&gt;Node4</title>
<path fill="none" stroke="midnightblue" d="M314.155,-195.743C335.302,-201.187 359.224,-207.345 381.271,-213.02"/>
<polygon fill="midnightblue" stroke="midnightblue" points="380.696,-216.486 391.253,-215.59 382.441,-209.707 380.696,-216.486"/>
</g>
<!-- Node5 -->
<g id="node9" class="node"><title>Node5</title>
<a xlink:href="classleon3__funcat__trap_1_1Instruction.html#a416a047866ae8edf687f34c1efc7da52" target="_top" xlink:title="leon3_funcat_trap::\lInstruction::behavior">
<polygon fill="white" stroke="black" points="402.5,-163 402.5,-197 507.5,-197 507.5,-163 402.5,-163"/>
<text text-anchor="start" x="410.5" y="-184" font-family="Helvetica,sans-Serif" font-size="10.00">leon3_funcat_trap::</text>
<text text-anchor="middle" x="455" y="-171" font-family="Helvetica,sans-Serif" font-size="10.00">Instruction::behavior</text>
</a>
</g>
<!-- Node2&#45;&gt;Node5 -->
<g id="edge8" class="edge"><title>Node2&#45;&gt;Node5</title>
<path fill="none" stroke="midnightblue" d="M314.155,-180C338.853,-180 367.337,-180 392.2,-180"/>
<polygon fill="midnightblue" stroke="midnightblue" points="392.25,-183.5 402.25,-180 392.25,-176.5 392.25,-183.5"/>
</g>
<!-- Node6 -->
<g id="node11" class="node"><title>Node6</title>
<a xlink:href="classleon3__funcat__trap_1_1Instruction.html#a8dd0e3ad06a819e1e1ac303cbf148b5c" target="_top" xlink:title="leon3_funcat_trap::\lInstruction::setParams">
<polygon fill="white" stroke="black" points="397,-111 397,-145 513,-145 513,-111 397,-111"/>
<text text-anchor="start" x="405" y="-132" font-family="Helvetica,sans-Serif" font-size="10.00">leon3_funcat_trap::</text>
<text text-anchor="middle" x="455" y="-119" font-family="Helvetica,sans-Serif" font-size="10.00">Instruction::setParams</text>
</a>
</g>
<!-- Node2&#45;&gt;Node6 -->
<g id="edge10" class="edge"><title>Node2&#45;&gt;Node6</title>
<path fill="none" stroke="midnightblue" d="M314.155,-164.257C337.118,-158.346 363.353,-151.592 386.908,-145.529"/>
<polygon fill="midnightblue" stroke="midnightblue" points="388.009,-148.859 396.821,-142.977 386.264,-142.08 388.009,-148.859"/>
</g>
<!-- Node7 -->
<g id="node13" class="node"><title>Node7</title>
<a xlink:href="classleon3__funcat__trap_1_1Instruction.html#a0779665b1a0555a8fd4e41f1f15d9290" target="_top" xlink:title="leon3_funcat_trap::\lInstruction::replicate">
<polygon fill="white" stroke="black" points="402.5,-59 402.5,-93 507.5,-93 507.5,-59 402.5,-59"/>
<text text-anchor="start" x="410.5" y="-80" font-family="Helvetica,sans-Serif" font-size="10.00">leon3_funcat_trap::</text>
<text text-anchor="middle" x="455" y="-67" font-family="Helvetica,sans-Serif" font-size="10.00">Instruction::replicate</text>
</a>
</g>
<!-- Node2&#45;&gt;Node7 -->
<g id="edge12" class="edge"><title>Node2&#45;&gt;Node7</title>
<path fill="none" stroke="midnightblue" d="M314.133,-162.378C323.92,-158.165 333.584,-153.079 342,-147 362.762,-132.002 357.019,-116.69 378,-102 382.551,-98.8135 387.524,-95.9921 392.68,-93.499"/>
<polygon fill="midnightblue" stroke="midnightblue" points="394.362,-96.5832 402.111,-89.3577 391.547,-90.174 394.362,-96.5832"/>
</g>
</g>
</svg>
        <g id="navigator" transform="translate(0 0)" fill="#404254">
                <rect fill="#f2f5e9" fill-opacity="0.5" stroke="#606060" stroke-width=".5" x="0" y="0" width="60" height="60"/>
                <use id="zoomplus" xlink:href="#zoomPlus" x="17" y="9" onmousedown="handleZoom(evt,'in')"/>
                <use id="zoomminus" xlink:href="#zoomMin" x="42" y="9" onmousedown="handleZoom(evt,'out')"/>
                <use id="reset" xlink:href="#resetDef" x="30" y="36" onmousedown="handleReset()"/>
                <g id="arrowUp" xlink:href="#dirArrow" transform="translate(30 24)" onmousedown="handlePan(0,-1)">
                  <use xlink:href="#rim" fill="#404040">
                        <set attributeName="fill" to="#808080" begin="arrowUp.mouseover" end="arrowUp.mouseout"/>
                  </use>
                  <path fill="none" stroke="white" stroke-width="1.5" d="M0,-3.0v7 M-2.5,-0.5L0,-3.0L2.5,-0.5"/>
                </g>
                <g id="arrowRight" xlink:href="#dirArrow" transform="rotate(90) translate(36 -43)" onmousedown="handlePan(1,0)">
                  <use xlink:href="#rim" fill="#404040">
                        <set attributeName="fill" to="#808080" begin="arrowRight.mouseover" end="arrowRight.mouseout"/>
                  </use>
                  <path fill="none" stroke="white" stroke-width="1.5" d="M0,-3.0v7 M-2.5,-0.5L0,-3.0L2.5,-0.5"/>
                </g>
                <g id="arrowDown" xlink:href="#dirArrow" transform="rotate(180) translate(-30 -48)" onmousedown="handlePan(0,1)">
                  <use xlink:href="#rim" fill="#404040">
                        <set attributeName="fill" to="#808080" begin="arrowDown.mouseover" end="arrowDown.mouseout"/>
                  </use>
                  <path fill="none" stroke="white" stroke-width="1.5" d="M0,-3.0v7 M-2.5,-0.5L0,-3.0L2.5,-0.5"/>
                </g>
                <g id="arrowLeft" xlink:href="#dirArrow" transform="rotate(270) translate(-36 17)" onmousedown="handlePan(-1,0)">
                  <use xlink:href="#rim" fill="#404040">
                        <set attributeName="fill" to="#808080" begin="arrowLeft.mouseover" end="arrowLeft.mouseout"/>
                  </use>
                  <path fill="none" stroke="white" stroke-width="1.5" d="M0,-3.0v7 M-2.5,-0.5L0,-3.0L2.5,-0.5"/>
                </g>
        </g>
        <svg viewBox="0 0 15 15" width="100%" height="30px" preserveAspectRatio="xMaxYMin meet">
         <g id="arrow_out" transform="scale(0.3 0.3)">
          <a xlink:href="classleon3__funcat__trap_1_1Processor__leon3__funcat_a60702ab9b36aee8afcc45aa0bc386e61_cgraph_org.svg" target="_base">
           <rect id="button" ry="5" rx="5" y="6" x="6" height="38" width="38"
                fill="#f2f5e9" fill-opacity="0.5" stroke="#606060" stroke-width="1.0"/>
           <path id="arrow"
             d="M 11.500037,31.436501 C 11.940474,20.09759 22.043105,11.32322 32.158766,21.979434 L 37.068811,17.246167 C 37.068811,17.246167 37.088388,32 37.088388,32 L 22.160133,31.978069 C 22.160133,31.978069 26.997745,27.140456 26.997745,27.140456 C 18.528582,18.264221 13.291696,25.230495 11.500037,31.436501 z"
             style="fill:#404040;"/>
          </a>
         </g>
        </svg>
</svg>
