<?xml version="1.0" encoding="UTF-8" standalone="no"?>
<!DOCTYPE svg PUBLIC "-//W3C//DTD SVG 1.1//EN"
 "http://www.w3.org/Graphics/SVG/1.1/DTD/svg11.dtd">
<!-- Generated by graphviz version 2.36.0 (20140111.2315)
 -->
<!-- Title: core.tools.generator.wizard.config.ConfigPage Pages: 1 -->
<svg width="174pt" height="260pt"
 viewBox="0.00 0.00 174.00 260.00" xmlns="http://www.w3.org/2000/svg" xmlns:xlink="http://www.w3.org/1999/xlink">
<g id="graph0" class="graph" transform="scale(1 1) rotate(0) translate(4 256)">
<title>core.tools.generator.wizard.config.ConfigPage</title>
<polygon fill="white" stroke="none" points="-4,4 -4,-256 170,-256 170,4 -4,4"/>
<!-- Node1 -->
<g id="node1" class="node"><title>Node1</title>
<polygon fill="#bfbfbf" stroke="black" points="-0.5,-1 -0.5,-157 166.5,-157 166.5,-1 -0.5,-1"/>
<text text-anchor="start" x="7.5" y="-145" font-family="Helvetica,sans-Serif" font-size="10.00">core.tools.generator.wizard.config.</text>
<text text-anchor="middle" x="83" y="-134" font-family="Helvetica,sans-Serif" font-size="10.00">ConfigPage</text>
<polyline fill="none" stroke="black" points="-0.5,-127 166.5,-127 "/>
<text text-anchor="start" x="7.5" y="-115" font-family="Helvetica,sans-Serif" font-size="10.00">+ templates</text>
<text text-anchor="start" x="7.5" y="-104" font-family="Helvetica,sans-Serif" font-size="10.00">+ view</text>
<text text-anchor="start" x="7.5" y="-93" font-family="Helvetica,sans-Serif" font-size="10.00">+ panel</text>
<text text-anchor="start" x="7.5" y="-82" font-family="Helvetica,sans-Serif" font-size="10.00">+ info</text>
<text text-anchor="start" x="7.5" y="-71" font-family="Helvetica,sans-Serif" font-size="10.00">+ hsplit</text>
<text text-anchor="start" x="7.5" y="-60" font-family="Helvetica,sans-Serif" font-size="10.00">+ vsplit</text>
<text text-anchor="start" x="7.5" y="-49" font-family="Helvetica,sans-Serif" font-size="10.00">+ layout</text>
<text text-anchor="start" x="7.5" y="-38" font-family="Helvetica,sans-Serif" font-size="10.00">+ model</text>
<polyline fill="none" stroke="black" points="-0.5,-31 166.5,-31 "/>
<text text-anchor="start" x="7.5" y="-19" font-family="Helvetica,sans-Serif" font-size="10.00">+ __init__()</text>
<text text-anchor="start" x="7.5" y="-8" font-family="Helvetica,sans-Serif" font-size="10.00">+ initializePage()</text>
</g>
<!-- Node2 -->
<g id="node2" class="node"><title>Node2</title>
<polygon fill="white" stroke="#bfbfbf" points="44.5,-194.5 44.5,-251.5 121.5,-251.5 121.5,-194.5 44.5,-194.5"/>
<text text-anchor="middle" x="83" y="-239.5" font-family="Helvetica,sans-Serif" font-size="10.00">QWizardPage</text>
<polyline fill="none" stroke="#bfbfbf" points="44.5,-232.5 121.5,-232.5 "/>
<text text-anchor="middle" x="83" y="-220.5" font-family="Helvetica,sans-Serif" font-size="10.00"> </text>
<polyline fill="none" stroke="#bfbfbf" points="44.5,-213.5 121.5,-213.5 "/>
<text text-anchor="middle" x="83" y="-201.5" font-family="Helvetica,sans-Serif" font-size="10.00"> </text>
</g>
<!-- Node2&#45;&gt;Node1 -->
<g id="edge1" class="edge"><title>Node2&#45;&gt;Node1</title>
<path fill="none" stroke="midnightblue" d="M83,-184.128C83,-175.734 83,-166.545 83,-157.212"/>
<polygon fill="none" stroke="midnightblue" points="79.5001,-184.284 83,-194.284 86.5001,-184.284 79.5001,-184.284"/>
</g>
</g>
</svg>
