<?xml version="1.0" encoding="UTF-8" standalone="no"?>
<!DOCTYPE svg PUBLIC "-//W3C//DTD SVG 1.1//EN"
 "http://www.w3.org/Graphics/SVG/1.1/DTD/svg11.dtd">
<!-- Generated by graphviz version 2.36.0 (20140111.2315)
 -->
<!-- Title: localram Pages: 1 -->
<svg width="177pt" height="414pt"
 viewBox="0.00 0.00 177.00 414.00" xmlns="http://www.w3.org/2000/svg" xmlns:xlink="http://www.w3.org/1999/xlink">
<g id="graph0" class="graph" transform="scale(1 1) rotate(0) translate(4 410)">
<title>localram</title>
<polygon fill="white" stroke="none" points="-4,4 -4,-410 173,-410 173,4 -4,4"/>
<!-- Node1 -->
<g id="node1" class="node"><title>Node1</title>
<polygon fill="#bfbfbf" stroke="black" points="13.5,-1 13.5,-289 150.5,-289 150.5,-1 13.5,-1"/>
<text text-anchor="middle" x="82" y="-277" font-family="Helvetica,sans-Serif" font-size="10.00">localram</text>
<polyline fill="none" stroke="black" points="13.5,-270 150.5,-270 "/>
<text text-anchor="start" x="21.5" y="-258" font-family="Helvetica,sans-Serif" font-size="10.00">+ scratchpad</text>
<text text-anchor="start" x="21.5" y="-247" font-family="Helvetica,sans-Serif" font-size="10.00">+ m_default_entry</text>
<text text-anchor="start" x="21.5" y="-236" font-family="Helvetica,sans-Serif" font-size="10.00">+ m_lrsize</text>
<text text-anchor="start" x="21.5" y="-225" font-family="Helvetica,sans-Serif" font-size="10.00">+ m_lrstart</text>
<text text-anchor="start" x="21.5" y="-214" font-family="Helvetica,sans-Serif" font-size="10.00">+ m_pow_mon</text>
<text text-anchor="start" x="21.5" y="-203" font-family="Helvetica,sans-Serif" font-size="10.00">+ m_api</text>
<text text-anchor="start" x="21.5" y="-192" font-family="Helvetica,sans-Serif" font-size="10.00">+ m_performance_counters</text>
<text text-anchor="start" x="21.5" y="-181" font-family="Helvetica,sans-Serif" font-size="10.00">+ sreads</text>
<text text-anchor="start" x="21.5" y="-170" font-family="Helvetica,sans-Serif" font-size="10.00">+ swrites</text>
<text text-anchor="start" x="21.5" y="-159" font-family="Helvetica,sans-Serif" font-size="10.00">+ sreads_byte</text>
<text text-anchor="start" x="21.5" y="-148" font-family="Helvetica,sans-Serif" font-size="10.00">and 15 more...</text>
<polyline fill="none" stroke="black" points="13.5,-141 150.5,-141 "/>
<text text-anchor="start" x="21.5" y="-129" font-family="Helvetica,sans-Serif" font-size="10.00">+ GC_HAS_CALLBACKS()</text>
<text text-anchor="start" x="21.5" y="-118" font-family="Helvetica,sans-Serif" font-size="10.00">+ mem_read()</text>
<text text-anchor="start" x="21.5" y="-107" font-family="Helvetica,sans-Serif" font-size="10.00">+ mem_write()</text>
<text text-anchor="start" x="21.5" y="-96" font-family="Helvetica,sans-Serif" font-size="10.00">+ clkcng()</text>
<text text-anchor="start" x="21.5" y="-85" font-family="Helvetica,sans-Serif" font-size="10.00">+ start_of_simulation()</text>
<text text-anchor="start" x="21.5" y="-74" font-family="Helvetica,sans-Serif" font-size="10.00">+ power_model()</text>
<text text-anchor="start" x="21.5" y="-63" font-family="Helvetica,sans-Serif" font-size="10.00">+ sta_power_cb()</text>
<text text-anchor="start" x="21.5" y="-52" font-family="Helvetica,sans-Serif" font-size="10.00">+ int_power_cb()</text>
<text text-anchor="start" x="21.5" y="-41" font-family="Helvetica,sans-Serif" font-size="10.00">+ swi_power_cb()</text>
<text text-anchor="start" x="21.5" y="-30" font-family="Helvetica,sans-Serif" font-size="10.00">+ end_of_simulation()</text>
<text text-anchor="start" x="21.5" y="-19" font-family="Helvetica,sans-Serif" font-size="10.00">+ localram()</text>
<text text-anchor="start" x="21.5" y="-8" font-family="Helvetica,sans-Serif" font-size="10.00">+ ~localram()</text>
</g>
<!-- Node2 -->
<g id="node2" class="node"><title>Node2</title>
<polygon fill="white" stroke="#bfbfbf" points="-0.5,-337.5 -0.5,-394.5 70.5,-394.5 70.5,-337.5 -0.5,-337.5"/>
<text text-anchor="middle" x="35" y="-382.5" font-family="Helvetica,sans-Serif" font-size="10.00">DefaultBase</text>
<polyline fill="none" stroke="#bfbfbf" points="-0.5,-375.5 70.5,-375.5 "/>
<text text-anchor="middle" x="35" y="-363.5" font-family="Helvetica,sans-Serif" font-size="10.00"> </text>
<polyline fill="none" stroke="#bfbfbf" points="-0.5,-356.5 70.5,-356.5 "/>
<text text-anchor="middle" x="35" y="-344.5" font-family="Helvetica,sans-Serif" font-size="10.00"> </text>
</g>
<!-- Node2&#45;&gt;Node1 -->
<g id="edge1" class="edge"><title>Node2&#45;&gt;Node1</title>
<path fill="none" stroke="midnightblue" d="M43.055,-327.467C45.4707,-316.211 48.2773,-303.133 51.256,-289.254"/>
<polygon fill="none" stroke="midnightblue" points="39.6289,-326.752 40.9526,-337.263 46.4731,-328.221 39.6289,-326.752"/>
</g>
<!-- Node3 -->
<g id="node3" class="node"><title>Node3</title>
<g id="a_node3"><a xlink:href="classmem__if.html" target="_top" xlink:title="{mem_if\n||+ mem_write()\l+ mem_read()\l+ ~mem_if()\l}">
<polygon fill="white" stroke="black" points="89,-326.5 89,-405.5 169,-405.5 169,-326.5 89,-326.5"/>
<text text-anchor="middle" x="129" y="-393.5" font-family="Helvetica,sans-Serif" font-size="10.00">mem_if</text>
<polyline fill="none" stroke="black" points="89,-386.5 169,-386.5 "/>
<text text-anchor="middle" x="129" y="-374.5" font-family="Helvetica,sans-Serif" font-size="10.00"> </text>
<polyline fill="none" stroke="black" points="89,-367.5 169,-367.5 "/>
<text text-anchor="start" x="97" y="-355.5" font-family="Helvetica,sans-Serif" font-size="10.00">+ mem_write()</text>
<text text-anchor="start" x="97" y="-344.5" font-family="Helvetica,sans-Serif" font-size="10.00">+ mem_read()</text>
<text text-anchor="start" x="97" y="-333.5" font-family="Helvetica,sans-Serif" font-size="10.00">+ ~mem_if()</text>
</a>
</g>
</g>
<!-- Node3&#45;&gt;Node1 -->
<g id="edge2" class="edge"><title>Node3&#45;&gt;Node1</title>
<path fill="none" stroke="midnightblue" d="M118.563,-316.367C116.74,-307.872 114.763,-298.661 112.704,-289.069"/>
<polygon fill="none" stroke="midnightblue" points="115.185,-317.308 120.706,-326.351 122.029,-315.839 115.185,-317.308"/>
</g>
</g>
</svg>
