<?xml version="1.0" encoding="UTF-8" standalone="no"?>
<!DOCTYPE svg PUBLIC "-//W3C//DTD SVG 1.1//EN"
 "http://www.w3.org/Graphics/SVG/1.1/DTD/svg11.dtd">
<!-- Generated by graphviz version 2.36.0 (20140111.2315)
 -->
<!-- Title: sr_param&lt; T &gt; Pages: 1 -->
<!--zoomable 716 -->
<svg id="main" version="1.1" xmlns="http://www.w3.org/2000/svg" xmlns:xlink="http://www.w3.org/1999/xlink" xml:space="preserve" onload="init(evt)">
<style type="text/css"><![CDATA[
.edge:hover path { stroke: red; }
.edge:hover polygon { stroke: red; fill: red; }
]]></style>
<script type="text/javascript"><![CDATA[
var edges = document.getElementsByTagName('g');
if (edges && edges.length) {
  for (var i=0;i<edges.length;i++) {
    if (edges[i].id.substr(0,4)=='edge') {
      edges[i].setAttribute('class','edge');
    }
  }
}
]]></script>
        <defs>
                <circle id="rim" cx="0" cy="0" r="7"/>
                <circle id="rim2" cx="0" cy="0" r="3.5"/>
                <g id="zoomPlus">
                        <use xlink:href="#rim" fill="#404040">
                                <set attributeName="fill" to="#808080" begin="zoomplus.mouseover" end="zoomplus.mouseout"/>
                        </use>
                        <path d="M-4,0h8M0,-4v8" fill="none" stroke="white" stroke-width="1.5" pointer-events="none"/>
                </g>
                <g id="zoomMin">
                        <use xlink:href="#rim" fill="#404040">
                                <set attributeName="fill" to="#808080" begin="zoomminus.mouseover" end="zoomminus.mouseout"/>
                        </use>
                        <path d="M-4,0h8" fill="none" stroke="white" stroke-width="1.5" pointer-events="none"/>
                </g>
                <g id="dirArrow">
                        <path fill="none" stroke="white" stroke-width="1.5" d="M0,-3.0v7 M-2.5,-0.5L0,-3.0L2.5,-0.5"/>
                </g>
               <g id="resetDef">
                       <use xlink:href="#rim2" fill="#404040">
                               <set attributeName="fill" to="#808080" begin="reset.mouseover" end="reset.mouseout"/>
                       </use>
               </g>
        </defs>

<script type="text/javascript">
var viewWidth = 275;
var viewHeight = 716;
var sectionId = 'dynsection-0';
</script>
<script xlink:href="svgpan.js"/>
<svg id="graph" class="graph">
<g id="viewport">
<title>sr_param&lt; T &gt;</title>
<polygon fill="white" stroke="none" points="-4,4 -4,-712 271,-712 271,4 -4,4"/>
<!-- Node1 -->
<g id="node1" class="node"><title>Node1</title>
<polygon fill="#bfbfbf" stroke="black" points="70.5,-119 70.5,-187 195.5,-187 195.5,-119 70.5,-119"/>
<text text-anchor="middle" x="133" y="-175" font-family="Helvetica,sans-Serif" font-size="10.00">sr_param&lt; T &gt;</text>
<polyline fill="none" stroke="black" points="70.5,-168 195.5,-168 "/>
<text text-anchor="start" x="78.5" y="-156" font-family="Helvetica,sans-Serif" font-size="10.00">+ SR_PARAM_HEAD</text>
<polyline fill="none" stroke="black" points="70.5,-149 195.5,-149 "/>
<text text-anchor="start" x="78.5" y="-137" font-family="Helvetica,sans-Serif" font-size="10.00">+ convertValueToString()</text>
<text text-anchor="start" x="78.5" y="-126" font-family="Helvetica,sans-Serif" font-size="10.00">+ static_deserialize()</text>
</g>
<!-- Node5 -->
<g id="node5" class="node"><title>Node5</title>
<g id="a_node5"><a xlink:href="classsr__param.html" target="_top" xlink:title="{sr_param\&lt; uint16_t \&gt;\n|+ SR_PARAM_HEAD\l|+ convertValueToString()\l+ static_deserialize()\l}">
<polygon fill="white" stroke="black" points="-0.5,-1 -0.5,-69 124.5,-69 124.5,-1 -0.5,-1"/>
<text text-anchor="middle" x="62" y="-57" font-family="Helvetica,sans-Serif" font-size="10.00">sr_param&lt; uint16_t &gt;</text>
<polyline fill="none" stroke="black" points="-0.5,-50 124.5,-50 "/>
<text text-anchor="start" x="7.5" y="-38" font-family="Helvetica,sans-Serif" font-size="10.00">+ SR_PARAM_HEAD</text>
<polyline fill="none" stroke="black" points="-0.5,-31 124.5,-31 "/>
<text text-anchor="start" x="7.5" y="-19" font-family="Helvetica,sans-Serif" font-size="10.00">+ convertValueToString()</text>
<text text-anchor="start" x="7.5" y="-8" font-family="Helvetica,sans-Serif" font-size="10.00">+ static_deserialize()</text>
</a>
</g>
</g>
<!-- Node1&#45;&gt;Node5 -->
<g id="edge4" class="edge"><title>Node1&#45;&gt;Node5</title>
<path fill="none" stroke="orange" d="M107.377,-110.138C99.1472,-96.6912 90.1475,-81.9875 82.3487,-69.2458"/>
<polygon fill="orange" stroke="orange" points="104.449,-112.057 112.654,-118.759 110.419,-108.403 104.449,-112.057"/>
<text text-anchor="middle" x="128" y="-91.5" font-family="Helvetica,sans-Serif" font-size="10.00"> &lt; uint16_t &gt;</text>
</g>
<!-- Node6 -->
<g id="node6" class="node"><title>Node6</title>
<g id="a_node6"><a xlink:href="classsr__param.html" target="_top" xlink:title="{sr_param\&lt; sc_time \&gt;\n|+ SR_PARAM_HEAD\l|+ convertValueToString()\l+ static_deserialize()\l}">
<polygon fill="white" stroke="black" points="142.5,-1 142.5,-69 267.5,-69 267.5,-1 142.5,-1"/>
<text text-anchor="middle" x="205" y="-57" font-family="Helvetica,sans-Serif" font-size="10.00">sr_param&lt; sc_time &gt;</text>
<polyline fill="none" stroke="black" points="142.5,-50 267.5,-50 "/>
<text text-anchor="start" x="150.5" y="-38" font-family="Helvetica,sans-Serif" font-size="10.00">+ SR_PARAM_HEAD</text>
<polyline fill="none" stroke="black" points="142.5,-31 267.5,-31 "/>
<text text-anchor="start" x="150.5" y="-19" font-family="Helvetica,sans-Serif" font-size="10.00">+ convertValueToString()</text>
<text text-anchor="start" x="150.5" y="-8" font-family="Helvetica,sans-Serif" font-size="10.00">+ static_deserialize()</text>
</a>
</g>
</g>
<!-- Node1&#45;&gt;Node6 -->
<g id="edge5" class="edge"><title>Node1&#45;&gt;Node6</title>
<path fill="none" stroke="orange" d="M158.984,-110.138C167.33,-96.6912 176.456,-81.9875 184.365,-69.2458"/>
<polygon fill="orange" stroke="orange" points="155.932,-108.417 153.632,-118.759 161.88,-112.108 155.932,-108.417"/>
<text text-anchor="middle" x="199" y="-91.5" font-family="Helvetica,sans-Serif" font-size="10.00"> &lt; sc_time &gt;</text>
</g>
<!-- Node2 -->
<g id="node2" class="node"><title>Node2</title>
<g id="a_node2"><a xlink:href="classsr__param__t.html" target="_top" xlink:title="Template specialized base class for configuration parameters. ">
<polygon fill="white" stroke="black" points="70.5,-227 70.5,-449 195.5,-449 195.5,-227 70.5,-227"/>
<text text-anchor="middle" x="133" y="-437" font-family="Helvetica,sans-Serif" font-size="10.00">sr_param_t&lt; T &gt;</text>
<polyline fill="none" stroke="black" points="70.5,-430 195.5,-430 "/>
<text text-anchor="start" x="78.5" y="-418" font-family="Helvetica,sans-Serif" font-size="10.00"># my_value</text>
<text text-anchor="start" x="78.5" y="-407" font-family="Helvetica,sans-Serif" font-size="10.00"># return_string</text>
<text text-anchor="start" x="78.5" y="-396" font-family="Helvetica,sans-Serif" font-size="10.00"># m_mirror_param</text>
<text text-anchor="start" x="78.5" y="-385" font-family="Helvetica,sans-Serif" font-size="10.00"># m_mirror_val</text>
<polyline fill="none" stroke="black" points="70.5,-378 195.5,-378 "/>
<text text-anchor="start" x="78.5" y="-366" font-family="Helvetica,sans-Serif" font-size="10.00">+ operator+=()</text>
<text text-anchor="start" x="78.5" y="-355" font-family="Helvetica,sans-Serif" font-size="10.00">+ operator&#45;=()</text>
<text text-anchor="start" x="78.5" y="-344" font-family="Helvetica,sans-Serif" font-size="10.00">+ operator/=()</text>
<text text-anchor="start" x="78.5" y="-333" font-family="Helvetica,sans-Serif" font-size="10.00">+ operator*=()</text>
<text text-anchor="start" x="78.5" y="-322" font-family="Helvetica,sans-Serif" font-size="10.00">+ operator+()</text>
<text text-anchor="start" x="78.5" y="-311" font-family="Helvetica,sans-Serif" font-size="10.00">+ operator&#45;()</text>
<text text-anchor="start" x="78.5" y="-300" font-family="Helvetica,sans-Serif" font-size="10.00">+ operator/()</text>
<text text-anchor="start" x="78.5" y="-289" font-family="Helvetica,sans-Serif" font-size="10.00">+ operator*()</text>
<text text-anchor="start" x="78.5" y="-278" font-family="Helvetica,sans-Serif" font-size="10.00">+ operator%=()</text>
<text text-anchor="start" x="78.5" y="-267" font-family="Helvetica,sans-Serif" font-size="10.00">+ operator^=()</text>
<text text-anchor="start" x="78.5" y="-256" font-family="Helvetica,sans-Serif" font-size="10.00">and 27 more...</text>
<text text-anchor="start" x="78.5" y="-245" font-family="Helvetica,sans-Serif" font-size="10.00"># mirror_callback()</text>
<text text-anchor="start" x="78.5" y="-234" font-family="Helvetica,sans-Serif" font-size="10.00"># convertStringToValue()</text>
</a>
</g>
</g>
<!-- Node2&#45;&gt;Node1 -->
<g id="edge1" class="edge"><title>Node2&#45;&gt;Node1</title>
<path fill="none" stroke="midnightblue" d="M133,-216.537C133,-205.94 133,-195.921 133,-187.135"/>
<polygon fill="none" stroke="midnightblue" points="129.5,-216.852 133,-226.852 136.5,-216.852 129.5,-216.852"/>
</g>
<!-- Node3 -->
<g id="node3" class="node"><title>Node3</title>
<g id="a_node3"><a xlink:href="classsr__param__base.html" target="_top" xlink:title="{sr_param_base\n||+ sr_param_base()\l+ setProperty()\l+ getProperty()\l+ getProperties()\l+ deleteProperty()\l+ exists()\l+ add_properties()\l}">
<polygon fill="white" stroke="black" points="84,-488.5 84,-611.5 182,-611.5 182,-488.5 84,-488.5"/>
<text text-anchor="middle" x="133" y="-599.5" font-family="Helvetica,sans-Serif" font-size="10.00">sr_param_base</text>
<polyline fill="none" stroke="black" points="84,-592.5 182,-592.5 "/>
<text text-anchor="middle" x="133" y="-580.5" font-family="Helvetica,sans-Serif" font-size="10.00"> </text>
<polyline fill="none" stroke="black" points="84,-573.5 182,-573.5 "/>
<text text-anchor="start" x="92" y="-561.5" font-family="Helvetica,sans-Serif" font-size="10.00">+ sr_param_base()</text>
<text text-anchor="start" x="92" y="-550.5" font-family="Helvetica,sans-Serif" font-size="10.00">+ setProperty()</text>
<text text-anchor="start" x="92" y="-539.5" font-family="Helvetica,sans-Serif" font-size="10.00">+ getProperty()</text>
<text text-anchor="start" x="92" y="-528.5" font-family="Helvetica,sans-Serif" font-size="10.00">+ getProperties()</text>
<text text-anchor="start" x="92" y="-517.5" font-family="Helvetica,sans-Serif" font-size="10.00">+ deleteProperty()</text>
<text text-anchor="start" x="92" y="-506.5" font-family="Helvetica,sans-Serif" font-size="10.00">+ exists()</text>
<text text-anchor="start" x="92" y="-495.5" font-family="Helvetica,sans-Serif" font-size="10.00">+ add_properties()</text>
</a>
</g>
</g>
<!-- Node3&#45;&gt;Node2 -->
<g id="edge2" class="edge"><title>Node3&#45;&gt;Node2</title>
<path fill="none" stroke="midnightblue" d="M133,-478.218C133,-468.8 133,-458.969 133,-449.079"/>
<polygon fill="none" stroke="midnightblue" points="129.5,-478.259 133,-488.259 136.5,-478.259 129.5,-478.259"/>
</g>
<!-- Node4 -->
<g id="node4" class="node"><title>Node4</title>
<polygon fill="white" stroke="#bfbfbf" points="72,-650.5 72,-707.5 194,-707.5 194,-650.5 72,-650.5"/>
<text text-anchor="middle" x="133" y="-695.5" font-family="Helvetica,sans-Serif" font-size="10.00">gs::cnf::gs_param_base</text>
<polyline fill="none" stroke="#bfbfbf" points="72,-688.5 194,-688.5 "/>
<text text-anchor="middle" x="133" y="-676.5" font-family="Helvetica,sans-Serif" font-size="10.00"> </text>
<polyline fill="none" stroke="#bfbfbf" points="72,-669.5 194,-669.5 "/>
<text text-anchor="middle" x="133" y="-657.5" font-family="Helvetica,sans-Serif" font-size="10.00"> </text>
</g>
<!-- Node4&#45;&gt;Node3 -->
<g id="edge3" class="edge"><title>Node4&#45;&gt;Node3</title>
<path fill="none" stroke="midnightblue" d="M133,-640.283C133,-631.252 133,-621.384 133,-611.607"/>
<polygon fill="none" stroke="midnightblue" points="129.5,-640.443 133,-650.443 136.5,-640.443 129.5,-640.443"/>
</g>
</g>
</svg>
        <g id="navigator" transform="translate(0 0)" fill="#404254">
                <rect fill="#f2f5e9" fill-opacity="0.5" stroke="#606060" stroke-width=".5" x="0" y="0" width="60" height="60"/>
                <use id="zoomplus" xlink:href="#zoomPlus" x="17" y="9" onmousedown="handleZoom(evt,'in')"/>
                <use id="zoomminus" xlink:href="#zoomMin" x="42" y="9" onmousedown="handleZoom(evt,'out')"/>
                <use id="reset" xlink:href="#resetDef" x="30" y="36" onmousedown="handleReset()"/>
                <g id="arrowUp" xlink:href="#dirArrow" transform="translate(30 24)" onmousedown="handlePan(0,-1)">
                  <use xlink:href="#rim" fill="#404040">
                        <set attributeName="fill" to="#808080" begin="arrowUp.mouseover" end="arrowUp.mouseout"/>
                  </use>
                  <path fill="none" stroke="white" stroke-width="1.5" d="M0,-3.0v7 M-2.5,-0.5L0,-3.0L2.5,-0.5"/>
                </g>
                <g id="arrowRight" xlink:href="#dirArrow" transform="rotate(90) translate(36 -43)" onmousedown="handlePan(1,0)">
                  <use xlink:href="#rim" fill="#404040">
                        <set attributeName="fill" to="#808080" begin="arrowRight.mouseover" end="arrowRight.mouseout"/>
                  </use>
                  <path fill="none" stroke="white" stroke-width="1.5" d="M0,-3.0v7 M-2.5,-0.5L0,-3.0L2.5,-0.5"/>
                </g>
                <g id="arrowDown" xlink:href="#dirArrow" transform="rotate(180) translate(-30 -48)" onmousedown="handlePan(0,1)">
                  <use xlink:href="#rim" fill="#404040">
                        <set attributeName="fill" to="#808080" begin="arrowDown.mouseover" end="arrowDown.mouseout"/>
                  </use>
                  <path fill="none" stroke="white" stroke-width="1.5" d="M0,-3.0v7 M-2.5,-0.5L0,-3.0L2.5,-0.5"/>
                </g>
                <g id="arrowLeft" xlink:href="#dirArrow" transform="rotate(270) translate(-36 17)" onmousedown="handlePan(-1,0)">
                  <use xlink:href="#rim" fill="#404040">
                        <set attributeName="fill" to="#808080" begin="arrowLeft.mouseover" end="arrowLeft.mouseout"/>
                  </use>
                  <path fill="none" stroke="white" stroke-width="1.5" d="M0,-3.0v7 M-2.5,-0.5L0,-3.0L2.5,-0.5"/>
                </g>
        </g>
        <svg viewBox="0 0 15 15" width="100%" height="30px" preserveAspectRatio="xMaxYMin meet">
         <g id="arrow_out" transform="scale(0.3 0.3)">
          <a xlink:href="classsr__param__inherit__graph_org.svg" target="_base">
           <rect id="button" ry="5" rx="5" y="6" x="6" height="38" width="38"
                fill="#f2f5e9" fill-opacity="0.5" stroke="#606060" stroke-width="1.0"/>
           <path id="arrow"
             d="M 11.500037,31.436501 C 11.940474,20.09759 22.043105,11.32322 32.158766,21.979434 L 37.068811,17.246167 C 37.068811,17.246167 37.088388,32 37.088388,32 L 22.160133,31.978069 C 22.160133,31.978069 26.997745,27.140456 26.997745,27.140456 C 18.528582,18.264221 13.291696,25.230495 11.500037,31.436501 z"
             style="fill:#404040;"/>
          </a>
         </g>
        </svg>
</svg>
