<?xml version="1.0" encoding="UTF-8" standalone="no"?>
<!DOCTYPE svg PUBLIC "-//W3C//DTD SVG 1.1//EN"
 "http://www.w3.org/Graphics/SVG/1.1/DTD/svg11.dtd">
<!-- Generated by graphviz version 2.36.0 (20140111.2315)
 -->
<!-- Title: sr_register&lt; DATA_TYPE &gt; Pages: 1 -->
<svg width="873pt" height="1554pt"
 viewBox="0.00 0.00 873.00 1554.00" xmlns="http://www.w3.org/2000/svg" xmlns:xlink="http://www.w3.org/1999/xlink">
<g id="graph0" class="graph" transform="scale(1 1) rotate(0) translate(4 1550)">
<title>sr_register&lt; DATA_TYPE &gt;</title>
<polygon fill="white" stroke="none" points="-4,4 -4,-1550 869,-1550 869,4 -4,4"/>
<!-- Node1 -->
<g id="node1" class="node"><title>Node1</title>
<polygon fill="#bfbfbf" stroke="black" points="287.5,-0.5 287.5,-167.5 426.5,-167.5 426.5,-0.5 287.5,-0.5"/>
<text text-anchor="middle" x="357" y="-155.5" font-family="Helvetica,sans-Serif" font-size="10.00">sr_register&lt; DATA_TYPE &gt;</text>
<polyline fill="none" stroke="black" points="287.5,-148.5 426.5,-148.5 "/>
<text text-anchor="middle" x="357" y="-136.5" font-family="Helvetica,sans-Serif" font-size="10.00"> </text>
<polyline fill="none" stroke="black" points="287.5,-129.5 426.5,-129.5 "/>
<text text-anchor="start" x="295.5" y="-117.5" font-family="Helvetica,sans-Serif" font-size="10.00">+ sr_register()</text>
<text text-anchor="start" x="295.5" y="-106.5" font-family="Helvetica,sans-Serif" font-size="10.00">+ sr_register()</text>
<text text-anchor="start" x="295.5" y="-95.5" font-family="Helvetica,sans-Serif" font-size="10.00">+ ~sr_register()</text>
<text text-anchor="start" x="295.5" y="-84.5" font-family="Helvetica,sans-Serif" font-size="10.00">+ callback()</text>
<text text-anchor="start" x="295.5" y="-73.5" font-family="Helvetica,sans-Serif" font-size="10.00">+ create_field()</text>
<text text-anchor="start" x="295.5" y="-62.5" font-family="Helvetica,sans-Serif" font-size="10.00">+ field()</text>
<text text-anchor="start" x="295.5" y="-51.5" font-family="Helvetica,sans-Serif" font-size="10.00">+ get_write_mask()</text>
<text text-anchor="start" x="295.5" y="-40.5" font-family="Helvetica,sans-Serif" font-size="10.00">+ raise_callback()</text>
<text text-anchor="start" x="295.5" y="-29.5" font-family="Helvetica,sans-Serif" font-size="10.00">+ bus_read()</text>
<text text-anchor="start" x="295.5" y="-18.5" font-family="Helvetica,sans-Serif" font-size="10.00">+ bus_write()</text>
<text text-anchor="start" x="295.5" y="-7.5" font-family="Helvetica,sans-Serif" font-size="10.00">and 20 more...</text>
</g>
<!-- Node2 -->
<g id="node2" class="node"><title>Node2</title>
<g id="a_node2"><a xlink:href="classsc__register__b.html" target="_top" xlink:title="{sc_register_b\&lt; DATA\l_TYPE \&gt;\n||+ sc_register_b()\l+ sc_register_b()\l+ ~sc_register_b()\l+ reset()\l+ read()\l+ write()\l+ update()\l+ number_of_fields()\l+ get_all_fields()\l+ get_mask()\l+ scireg_read()\l+ scireg_write()\l+ scireg_get_bit_width()\l+ scireg_add_callback()\l+ scireg_remove_callback()\l# add_field()\l# mask_read()\l# mask_write()\l# check_and_init()\l}">
<polygon fill="white" stroke="black" points="288.5,-207 288.5,-473 425.5,-473 425.5,-207 288.5,-207"/>
<text text-anchor="start" x="296.5" y="-461" font-family="Helvetica,sans-Serif" font-size="10.00">sc_register_b&lt; DATA</text>
<text text-anchor="middle" x="357" y="-450" font-family="Helvetica,sans-Serif" font-size="10.00">_TYPE &gt;</text>
<polyline fill="none" stroke="black" points="288.5,-443 425.5,-443 "/>
<text text-anchor="middle" x="357" y="-431" font-family="Helvetica,sans-Serif" font-size="10.00"> </text>
<polyline fill="none" stroke="black" points="288.5,-424 425.5,-424 "/>
<text text-anchor="start" x="296.5" y="-412" font-family="Helvetica,sans-Serif" font-size="10.00">+ sc_register_b()</text>
<text text-anchor="start" x="296.5" y="-401" font-family="Helvetica,sans-Serif" font-size="10.00">+ sc_register_b()</text>
<text text-anchor="start" x="296.5" y="-390" font-family="Helvetica,sans-Serif" font-size="10.00">+ ~sc_register_b()</text>
<text text-anchor="start" x="296.5" y="-379" font-family="Helvetica,sans-Serif" font-size="10.00">+ reset()</text>
<text text-anchor="start" x="296.5" y="-368" font-family="Helvetica,sans-Serif" font-size="10.00">+ read()</text>
<text text-anchor="start" x="296.5" y="-357" font-family="Helvetica,sans-Serif" font-size="10.00">+ write()</text>
<text text-anchor="start" x="296.5" y="-346" font-family="Helvetica,sans-Serif" font-size="10.00">+ update()</text>
<text text-anchor="start" x="296.5" y="-335" font-family="Helvetica,sans-Serif" font-size="10.00">+ number_of_fields()</text>
<text text-anchor="start" x="296.5" y="-324" font-family="Helvetica,sans-Serif" font-size="10.00">+ get_all_fields()</text>
<text text-anchor="start" x="296.5" y="-313" font-family="Helvetica,sans-Serif" font-size="10.00">+ get_mask()</text>
<text text-anchor="start" x="296.5" y="-302" font-family="Helvetica,sans-Serif" font-size="10.00">+ scireg_read()</text>
<text text-anchor="start" x="296.5" y="-291" font-family="Helvetica,sans-Serif" font-size="10.00">+ scireg_write()</text>
<text text-anchor="start" x="296.5" y="-280" font-family="Helvetica,sans-Serif" font-size="10.00">+ scireg_get_bit_width()</text>
<text text-anchor="start" x="296.5" y="-269" font-family="Helvetica,sans-Serif" font-size="10.00">+ scireg_add_callback()</text>
<text text-anchor="start" x="296.5" y="-258" font-family="Helvetica,sans-Serif" font-size="10.00">+ scireg_remove_callback()</text>
<text text-anchor="start" x="296.5" y="-247" font-family="Helvetica,sans-Serif" font-size="10.00"># add_field()</text>
<text text-anchor="start" x="296.5" y="-236" font-family="Helvetica,sans-Serif" font-size="10.00"># mask_read()</text>
<text text-anchor="start" x="296.5" y="-225" font-family="Helvetica,sans-Serif" font-size="10.00"># mask_write()</text>
<text text-anchor="start" x="296.5" y="-214" font-family="Helvetica,sans-Serif" font-size="10.00"># check_and_init()</text>
</a>
</g>
</g>
<!-- Node2&#45;&gt;Node1 -->
<g id="edge1" class="edge"><title>Node2&#45;&gt;Node1</title>
<path fill="none" stroke="midnightblue" d="M350.295,-196.562C350.351,-186.778 350.462,-177.119 350.627,-167.82"/>
<polygon fill="none" stroke="midnightblue" points="346.794,-196.779 350.255,-206.792 353.794,-196.806 346.794,-196.779"/>
</g>
<!-- Node2&#45;&gt;Node1 -->
<g id="edge26" class="edge"><title>Node2&#45;&gt;Node1</title>
<path fill="none" stroke="midnightblue" d="M363.705,-196.562C363.649,-186.778 363.538,-177.119 363.373,-167.82"/>
<polygon fill="none" stroke="midnightblue" points="360.206,-196.806 363.745,-206.792 367.206,-196.779 360.206,-196.806"/>
</g>
<!-- Node3 -->
<g id="node3" class="node"><title>Node3</title>
<g id="a_node3"><a xlink:href="classsc__register__base.html" target="_top" xlink:title="Register. ">
<polygon fill="white" stroke="black" points="93,-1000 93,-1200 243,-1200 243,-1000 93,-1000"/>
<text text-anchor="middle" x="168" y="-1188" font-family="Helvetica,sans-Serif" font-size="10.00">sc_register_base</text>
<polyline fill="none" stroke="black" points="93,-1181 243,-1181 "/>
<text text-anchor="middle" x="168" y="-1169" font-family="Helvetica,sans-Serif" font-size="10.00"> </text>
<polyline fill="none" stroke="black" points="93,-1162 243,-1162 "/>
<text text-anchor="start" x="101" y="-1150" font-family="Helvetica,sans-Serif" font-size="10.00">+ sc_register_base()</text>
<text text-anchor="start" x="101" y="-1139" font-family="Helvetica,sans-Serif" font-size="10.00">+ sc_register_base()</text>
<text text-anchor="start" x="101" y="-1128" font-family="Helvetica,sans-Serif" font-size="10.00">+ sc_register_base()</text>
<text text-anchor="start" x="101" y="-1117" font-family="Helvetica,sans-Serif" font-size="10.00">+ ~sc_register_base()</text>
<text text-anchor="start" x="101" y="-1106" font-family="Helvetica,sans-Serif" font-size="10.00">+ kind()</text>
<text text-anchor="start" x="101" y="-1095" font-family="Helvetica,sans-Serif" font-size="10.00">+ desc()</text>
<text text-anchor="start" x="101" y="-1084" font-family="Helvetica,sans-Serif" font-size="10.00">+ access_mode()</text>
<text text-anchor="start" x="101" y="-1073" font-family="Helvetica,sans-Serif" font-size="10.00">+ get_all_fields()</text>
<text text-anchor="start" x="101" y="-1062" font-family="Helvetica,sans-Serif" font-size="10.00">+ access_type_to_str()</text>
<text text-anchor="start" x="101" y="-1051" font-family="Helvetica,sans-Serif" font-size="10.00">+ access_mode_to_str()</text>
<text text-anchor="start" x="101" y="-1040" font-family="Helvetica,sans-Serif" font-size="10.00"># scireg_get_string_attribute()</text>
<text text-anchor="start" x="101" y="-1029" font-family="Helvetica,sans-Serif" font-size="10.00"># scireg_get_region_type()</text>
<text text-anchor="start" x="101" y="-1018" font-family="Helvetica,sans-Serif" font-size="10.00"># scireg_get_child_regions()</text>
<text text-anchor="start" x="101" y="-1007" font-family="Helvetica,sans-Serif" font-size="10.00"># scireg_get_parent_modules()</text>
</a>
</g>
</g>
<!-- Node3&#45;&gt;Node2 -->
<g id="edge2" class="edge"><title>Node3&#45;&gt;Node2</title>
<path fill="none" stroke="midnightblue" d="M164.495,-989.784C161.328,-852.096 160.584,-623.743 187,-544 205.864,-487.054 249.672,-435.414 288.091,-398.469"/>
<polygon fill="none" stroke="midnightblue" points="161,-990.033 164.737,-999.947 167.998,-989.867 161,-990.033"/>
</g>
<!-- Node18 -->
<g id="node18" class="node"><title>Node18</title>
<g id="a_node18"><a xlink:href="classsc__register__b.html" target="_top" xlink:title="{sc_register_b\&lt; T \&gt;\n||+ sc_register_b()\l+ sc_register_b()\l+ ~sc_register_b()\l+ reset()\l+ read()\l+ write()\l+ update()\l+ number_of_fields()\l+ get_all_fields()\l+ get_mask()\l+ scireg_read()\l+ scireg_write()\l+ scireg_get_bit_width()\l+ scireg_add_callback()\l+ scireg_remove_callback()\l# add_field()\l# mask_read()\l# mask_write()\l# check_and_init()\l}">
<polygon fill="white" stroke="black" points="402.5,-544.5 402.5,-799.5 539.5,-799.5 539.5,-544.5 402.5,-544.5"/>
<text text-anchor="middle" x="471" y="-787.5" font-family="Helvetica,sans-Serif" font-size="10.00">sc_register_b&lt; T &gt;</text>
<polyline fill="none" stroke="black" points="402.5,-780.5 539.5,-780.5 "/>
<text text-anchor="middle" x="471" y="-768.5" font-family="Helvetica,sans-Serif" font-size="10.00"> </text>
<polyline fill="none" stroke="black" points="402.5,-761.5 539.5,-761.5 "/>
<text text-anchor="start" x="410.5" y="-749.5" font-family="Helvetica,sans-Serif" font-size="10.00">+ sc_register_b()</text>
<text text-anchor="start" x="410.5" y="-738.5" font-family="Helvetica,sans-Serif" font-size="10.00">+ sc_register_b()</text>
<text text-anchor="start" x="410.5" y="-727.5" font-family="Helvetica,sans-Serif" font-size="10.00">+ ~sc_register_b()</text>
<text text-anchor="start" x="410.5" y="-716.5" font-family="Helvetica,sans-Serif" font-size="10.00">+ reset()</text>
<text text-anchor="start" x="410.5" y="-705.5" font-family="Helvetica,sans-Serif" font-size="10.00">+ read()</text>
<text text-anchor="start" x="410.5" y="-694.5" font-family="Helvetica,sans-Serif" font-size="10.00">+ write()</text>
<text text-anchor="start" x="410.5" y="-683.5" font-family="Helvetica,sans-Serif" font-size="10.00">+ update()</text>
<text text-anchor="start" x="410.5" y="-672.5" font-family="Helvetica,sans-Serif" font-size="10.00">+ number_of_fields()</text>
<text text-anchor="start" x="410.5" y="-661.5" font-family="Helvetica,sans-Serif" font-size="10.00">+ get_all_fields()</text>
<text text-anchor="start" x="410.5" y="-650.5" font-family="Helvetica,sans-Serif" font-size="10.00">+ get_mask()</text>
<text text-anchor="start" x="410.5" y="-639.5" font-family="Helvetica,sans-Serif" font-size="10.00">+ scireg_read()</text>
<text text-anchor="start" x="410.5" y="-628.5" font-family="Helvetica,sans-Serif" font-size="10.00">+ scireg_write()</text>
<text text-anchor="start" x="410.5" y="-617.5" font-family="Helvetica,sans-Serif" font-size="10.00">+ scireg_get_bit_width()</text>
<text text-anchor="start" x="410.5" y="-606.5" font-family="Helvetica,sans-Serif" font-size="10.00">+ scireg_add_callback()</text>
<text text-anchor="start" x="410.5" y="-595.5" font-family="Helvetica,sans-Serif" font-size="10.00">+ scireg_remove_callback()</text>
<text text-anchor="start" x="410.5" y="-584.5" font-family="Helvetica,sans-Serif" font-size="10.00"># add_field()</text>
<text text-anchor="start" x="410.5" y="-573.5" font-family="Helvetica,sans-Serif" font-size="10.00"># mask_read()</text>
<text text-anchor="start" x="410.5" y="-562.5" font-family="Helvetica,sans-Serif" font-size="10.00"># mask_write()</text>
<text text-anchor="start" x="410.5" y="-551.5" font-family="Helvetica,sans-Serif" font-size="10.00"># check_and_init()</text>
</a>
</g>
</g>
<!-- Node3&#45;&gt;Node18 -->
<g id="edge21" class="edge"><title>Node3&#45;&gt;Node18</title>
<path fill="none" stroke="midnightblue" d="M141.747,-989.628C141.918,-970.974 145.281,-952.36 154,-936 186.987,-874.102 223.387,-881.516 285,-848 296.893,-841.53 386.857,-808.969 397,-800 398.816,-798.394 400.599,-796.733 402.35,-795.022"/>
<polygon fill="none" stroke="midnightblue" points="138.249,-989.75 141.952,-999.677 145.247,-989.608 138.249,-989.75"/>
</g>
<!-- Node4 -->
<g id="node4" class="node"><title>Node4</title>
<polygon fill="white" stroke="#bfbfbf" points="-0.5,-1325.5 -0.5,-1382.5 130.5,-1382.5 130.5,-1325.5 -0.5,-1325.5"/>
<text text-anchor="middle" x="65" y="-1370.5" font-family="Helvetica,sans-Serif" font-size="10.00">sc_core::sc_prim_channel</text>
<polyline fill="none" stroke="#bfbfbf" points="-0.5,-1363.5 130.5,-1363.5 "/>
<text text-anchor="middle" x="65" y="-1351.5" font-family="Helvetica,sans-Serif" font-size="10.00"> </text>
<polyline fill="none" stroke="#bfbfbf" points="-0.5,-1344.5 130.5,-1344.5 "/>
<text text-anchor="middle" x="65" y="-1332.5" font-family="Helvetica,sans-Serif" font-size="10.00"> </text>
</g>
<!-- Node4&#45;&gt;Node3 -->
<g id="edge3" class="edge"><title>Node4&#45;&gt;Node3</title>
<path fill="none" stroke="midnightblue" d="M80.2505,-1315.69C92.7098,-1285.21 110.911,-1240.67 127.512,-1200.06"/>
<polygon fill="none" stroke="midnightblue" points="76.96,-1314.49 76.4163,-1325.07 83.4397,-1317.14 76.96,-1314.49"/>
</g>
<!-- Node5 -->
<g id="node5" class="node"><title>Node5</title>
<g id="a_node5"><a xlink:href="classscireg__ns_1_1scireg__region__if.html" target="_top" xlink:title="{scireg_ns::scireg_region_if\n||+ scireg_region_if()\l+ ~scireg_region_if()\l+ scireg_get_region_type()\l+ scireg_read()\l+ scireg_write()\l+ scireg_get_bit_attributes()\l+ scireg_get_string_attribute()\l+ scireg_get_bit_width()\l+ scireg_get_byte_width()\l+ scireg_get_low_pos()\land 9 more...\l}">
<polygon fill="white" stroke="black" points="149,-1270.5 149,-1437.5 295,-1437.5 295,-1270.5 149,-1270.5"/>
<text text-anchor="middle" x="222" y="-1425.5" font-family="Helvetica,sans-Serif" font-size="10.00">scireg_ns::scireg_region_if</text>
<polyline fill="none" stroke="black" points="149,-1418.5 295,-1418.5 "/>
<text text-anchor="middle" x="222" y="-1406.5" font-family="Helvetica,sans-Serif" font-size="10.00"> </text>
<polyline fill="none" stroke="black" points="149,-1399.5 295,-1399.5 "/>
<text text-anchor="start" x="157" y="-1387.5" font-family="Helvetica,sans-Serif" font-size="10.00">+ scireg_region_if()</text>
<text text-anchor="start" x="157" y="-1376.5" font-family="Helvetica,sans-Serif" font-size="10.00">+ ~scireg_region_if()</text>
<text text-anchor="start" x="157" y="-1365.5" font-family="Helvetica,sans-Serif" font-size="10.00">+ scireg_get_region_type()</text>
<text text-anchor="start" x="157" y="-1354.5" font-family="Helvetica,sans-Serif" font-size="10.00">+ scireg_read()</text>
<text text-anchor="start" x="157" y="-1343.5" font-family="Helvetica,sans-Serif" font-size="10.00">+ scireg_write()</text>
<text text-anchor="start" x="157" y="-1332.5" font-family="Helvetica,sans-Serif" font-size="10.00">+ scireg_get_bit_attributes()</text>
<text text-anchor="start" x="157" y="-1321.5" font-family="Helvetica,sans-Serif" font-size="10.00">+ scireg_get_string_attribute()</text>
<text text-anchor="start" x="157" y="-1310.5" font-family="Helvetica,sans-Serif" font-size="10.00">+ scireg_get_bit_width()</text>
<text text-anchor="start" x="157" y="-1299.5" font-family="Helvetica,sans-Serif" font-size="10.00">+ scireg_get_byte_width()</text>
<text text-anchor="start" x="157" y="-1288.5" font-family="Helvetica,sans-Serif" font-size="10.00">+ scireg_get_low_pos()</text>
<text text-anchor="start" x="157" y="-1277.5" font-family="Helvetica,sans-Serif" font-size="10.00">and 9 more...</text>
</a>
</g>
</g>
<!-- Node5&#45;&gt;Node3 -->
<g id="edge4" class="edge"><title>Node5&#45;&gt;Node3</title>
<path fill="none" stroke="midnightblue" d="M202.212,-1260.66C198.009,-1241.04 193.555,-1220.26 189.299,-1200.39"/>
<polygon fill="none" stroke="midnightblue" points="198.801,-1261.44 204.318,-1270.49 205.645,-1259.97 198.801,-1261.44"/>
</g>
<!-- Node10 -->
<g id="node10" class="node"><title>Node10</title>
<g id="a_node10"><a xlink:href="classsc__register__field__base.html" target="_top" xlink:title="{sc_register_field_base\n||+ sc_register_field_base()\l+ sc_register_field_base()\l+ ~sc_register_field_base()\l+ name()\l+ desc()\l+ low_pos()\l+ high_pos()\l+ bit_width()\l+ get_value_mnemonic()\l+ get_value_desc()\l+ print()\l# scireg_get_low_pos()\l# scireg_get_high_pos()\l# scireg_get_bit_width()\l# scireg_get_region_type()\l# scireg_get_string_attribute()\l}">
<polygon fill="white" stroke="black" points="270,-989 270,-1211 416,-1211 416,-989 270,-989"/>
<text text-anchor="middle" x="343" y="-1199" font-family="Helvetica,sans-Serif" font-size="10.00">sc_register_field_base</text>
<polyline fill="none" stroke="black" points="270,-1192 416,-1192 "/>
<text text-anchor="middle" x="343" y="-1180" font-family="Helvetica,sans-Serif" font-size="10.00"> </text>
<polyline fill="none" stroke="black" points="270,-1173 416,-1173 "/>
<text text-anchor="start" x="278" y="-1161" font-family="Helvetica,sans-Serif" font-size="10.00">+ sc_register_field_base()</text>
<text text-anchor="start" x="278" y="-1150" font-family="Helvetica,sans-Serif" font-size="10.00">+ sc_register_field_base()</text>
<text text-anchor="start" x="278" y="-1139" font-family="Helvetica,sans-Serif" font-size="10.00">+ ~sc_register_field_base()</text>
<text text-anchor="start" x="278" y="-1128" font-family="Helvetica,sans-Serif" font-size="10.00">+ name()</text>
<text text-anchor="start" x="278" y="-1117" font-family="Helvetica,sans-Serif" font-size="10.00">+ desc()</text>
<text text-anchor="start" x="278" y="-1106" font-family="Helvetica,sans-Serif" font-size="10.00">+ low_pos()</text>
<text text-anchor="start" x="278" y="-1095" font-family="Helvetica,sans-Serif" font-size="10.00">+ high_pos()</text>
<text text-anchor="start" x="278" y="-1084" font-family="Helvetica,sans-Serif" font-size="10.00">+ bit_width()</text>
<text text-anchor="start" x="278" y="-1073" font-family="Helvetica,sans-Serif" font-size="10.00">+ get_value_mnemonic()</text>
<text text-anchor="start" x="278" y="-1062" font-family="Helvetica,sans-Serif" font-size="10.00">+ get_value_desc()</text>
<text text-anchor="start" x="278" y="-1051" font-family="Helvetica,sans-Serif" font-size="10.00">+ print()</text>
<text text-anchor="start" x="278" y="-1040" font-family="Helvetica,sans-Serif" font-size="10.00"># scireg_get_low_pos()</text>
<text text-anchor="start" x="278" y="-1029" font-family="Helvetica,sans-Serif" font-size="10.00"># scireg_get_high_pos()</text>
<text text-anchor="start" x="278" y="-1018" font-family="Helvetica,sans-Serif" font-size="10.00"># scireg_get_bit_width()</text>
<text text-anchor="start" x="278" y="-1007" font-family="Helvetica,sans-Serif" font-size="10.00"># scireg_get_region_type()</text>
<text text-anchor="start" x="278" y="-996" font-family="Helvetica,sans-Serif" font-size="10.00"># scireg_get_string_attribute()</text>
</a>
</g>
</g>
<!-- Node5&#45;&gt;Node10 -->
<g id="edge10" class="edge"><title>Node5&#45;&gt;Node10</title>
<path fill="none" stroke="midnightblue" d="M233.62,-1260.29C236.375,-1249.86 239.784,-1239.55 244,-1230 250.842,-1214.5 259.914,-1199.19 269.797,-1184.81"/>
<polygon fill="none" stroke="midnightblue" points="230.143,-1259.78 231.173,-1270.33 236.943,-1261.44 230.143,-1259.78"/>
</g>
<!-- Node6 -->
<g id="node6" class="node"><title>Node6</title>
<g id="a_node6"><a xlink:title="STL class. ">
<polygon fill="white" stroke="#bfbfbf" points="313,-1325.5 313,-1382.5 373,-1382.5 373,-1325.5 313,-1325.5"/>
<text text-anchor="middle" x="343" y="-1370.5" font-family="Helvetica,sans-Serif" font-size="10.00">std::string</text>
<polyline fill="none" stroke="#bfbfbf" points="313,-1363.5 373,-1363.5 "/>
<text text-anchor="middle" x="343" y="-1351.5" font-family="Helvetica,sans-Serif" font-size="10.00"> </text>
<polyline fill="none" stroke="#bfbfbf" points="313,-1344.5 373,-1344.5 "/>
<text text-anchor="middle" x="343" y="-1332.5" font-family="Helvetica,sans-Serif" font-size="10.00"> </text>
</a>
</g>
</g>
<!-- Node6&#45;&gt;Node3 -->
<g id="edge5" class="edge"><title>Node6&#45;&gt;Node3</title>
<path fill="none" stroke="#404040" d="M331.927,-1325.23C324.853,-1308.68 314.967,-1287.55 304,-1270 294.588,-1254.93 273.644,-1228.02 250.947,-1200.04"/>
<polygon fill="none" stroke="#404040" points="250.775,-1199.83 243.884,-1197.71 243.196,-1190.53 250.087,-1192.65 250.775,-1199.83"/>
<text text-anchor="middle" x="313.5" y="-1238.5" font-family="Helvetica,sans-Serif" font-size="10.00"> #m_desc</text>
</g>
<!-- Node6&#45;&gt;Node10 -->
<g id="edge11" class="edge"><title>Node6&#45;&gt;Node10</title>
<path fill="none" stroke="#404040" d="M343,-1325.07C343,-1300.03 343,-1261.48 343,-1223.37"/>
<polygon fill="none" stroke="#404040" points="343,-1223.03 339,-1217.03 343,-1211.03 347,-1217.03 343,-1223.03"/>
<text text-anchor="middle" x="366" y="-1244" font-family="Helvetica,sans-Serif" font-size="10.00"> #m_name</text>
<text text-anchor="middle" x="366" y="-1233" font-family="Helvetica,sans-Serif" font-size="10.00">#m_desc</text>
</g>
<!-- Node7 -->
<g id="node7" class="node"><title>Node7</title>
<g id="a_node7"><a xlink:title="STL class. ">
<polygon fill="white" stroke="#bfbfbf" points="295.5,-1477 295.5,-1545 390.5,-1545 390.5,-1477 295.5,-1477"/>
<text text-anchor="start" x="303.5" y="-1533" font-family="Helvetica,sans-Serif" font-size="10.00">std::basic_string&lt;</text>
<text text-anchor="middle" x="343" y="-1522" font-family="Helvetica,sans-Serif" font-size="10.00"> char &gt;</text>
<polyline fill="none" stroke="#bfbfbf" points="295.5,-1515 390.5,-1515 "/>
<text text-anchor="middle" x="343" y="-1503" font-family="Helvetica,sans-Serif" font-size="10.00"> </text>
<polyline fill="none" stroke="#bfbfbf" points="295.5,-1496 390.5,-1496 "/>
<text text-anchor="middle" x="343" y="-1484" font-family="Helvetica,sans-Serif" font-size="10.00"> </text>
</a>
</g>
</g>
<!-- Node7&#45;&gt;Node6 -->
<g id="edge6" class="edge"><title>Node7&#45;&gt;Node6</title>
<path fill="none" stroke="midnightblue" d="M343,-1466.43C343,-1439.5 343,-1405.76 343,-1382.51"/>
<polygon fill="none" stroke="midnightblue" points="339.5,-1466.75 343,-1476.75 346.5,-1466.75 339.5,-1466.75"/>
</g>
<!-- Node8 -->
<g id="node8" class="node"><title>Node8</title>
<g id="a_node8"><a xlink:href="classDATA__TYPE.html" target="_top" xlink:title="{DATA_TYPE\n||}">
<polygon fill="white" stroke="black" points="196.5,-643.5 196.5,-700.5 271.5,-700.5 271.5,-643.5 196.5,-643.5"/>
<text text-anchor="middle" x="234" y="-688.5" font-family="Helvetica,sans-Serif" font-size="10.00">DATA_TYPE</text>
<polyline fill="none" stroke="black" points="196.5,-681.5 271.5,-681.5 "/>
<text text-anchor="middle" x="234" y="-669.5" font-family="Helvetica,sans-Serif" font-size="10.00"> </text>
<polyline fill="none" stroke="black" points="196.5,-662.5 271.5,-662.5 "/>
<text text-anchor="middle" x="234" y="-650.5" font-family="Helvetica,sans-Serif" font-size="10.00"> </text>
</a>
</g>
</g>
<!-- Node8&#45;&gt;Node2 -->
<g id="edge7" class="edge"><title>Node8&#45;&gt;Node2</title>
<path fill="none" stroke="#404040" d="M228.651,-643.346C222.902,-607.322 216.836,-542.932 235,-492 244.807,-464.502 261.946,-438.324 280.332,-415.721"/>
<polygon fill="none" stroke="#404040" points="280.558,-415.452 281.35,-408.285 288.271,-406.259 287.478,-413.427 280.558,-415.452"/>
<text text-anchor="middle" x="264.5" y="-517.5" font-family="Helvetica,sans-Serif" font-size="10.00"> #m_cur_val</text>
<text text-anchor="middle" x="264.5" y="-506.5" font-family="Helvetica,sans-Serif" font-size="10.00">#m_mask</text>
<text text-anchor="middle" x="264.5" y="-495.5" font-family="Helvetica,sans-Serif" font-size="10.00">#m_reset_val</text>
</g>
<!-- Node9 -->
<g id="node9" class="node"><title>Node9</title>
<polygon fill="white" stroke="#bfbfbf" points="490,-849 490,-917 610,-917 610,-849 490,-849"/>
<text text-anchor="start" x="498" y="-905" font-family="Helvetica,sans-Serif" font-size="10.00">std::vector&lt; sc_register</text>
<text text-anchor="middle" x="550" y="-894" font-family="Helvetica,sans-Serif" font-size="10.00">_field_base * &gt;</text>
<polyline fill="none" stroke="#bfbfbf" points="490,-887 610,-887 "/>
<text text-anchor="middle" x="550" y="-875" font-family="Helvetica,sans-Serif" font-size="10.00"> </text>
<polyline fill="none" stroke="#bfbfbf" points="490,-868 610,-868 "/>
<text text-anchor="middle" x="550" y="-856" font-family="Helvetica,sans-Serif" font-size="10.00"> </text>
</g>
<!-- Node9&#45;&gt;Node2 -->
<g id="edge8" class="edge"><title>Node9&#45;&gt;Node2</title>
<path fill="none" stroke="#404040" d="M558.816,-848.906C560.141,-842.669 561.298,-836.168 562,-830 562.604,-824.701 562.136,-823.332 562,-818 558.888,-696.103 592.207,-657.641 548,-544 525.445,-486.019 477.371,-435.075 435.099,-398.724"/>
<polygon fill="none" stroke="#404040" points="435.071,-398.701 427.906,-397.888 425.9,-390.961 433.065,-391.774 435.071,-398.701"/>
<text text-anchor="middle" x="595" y="-669.5" font-family="Helvetica,sans-Serif" font-size="10.00"> #m_fields</text>
</g>
<!-- Node9&#45;&gt;Node18 -->
<g id="edge22" class="edge"><title>Node9&#45;&gt;Node18</title>
<path fill="none" stroke="#404040" d="M526.159,-848.718C522.433,-842.666 518.872,-836.277 516,-830 513.235,-823.957 510.599,-817.704 508.092,-811.331"/>
<polygon fill="none" stroke="#404040" points="507.958,-810.975 502.096,-806.776 503.718,-799.749 509.58,-803.949 507.958,-810.975"/>
<text text-anchor="middle" x="539" y="-821.5" font-family="Helvetica,sans-Serif" font-size="10.00"> #m_fields</text>
</g>
<!-- Node10&#45;&gt;Node9 -->
<g id="edge9" class="edge"><title>Node10&#45;&gt;Node9</title>
<path fill="none" stroke="#404040" d="M359.57,-988.941C366.655,-969.448 376.719,-950.711 391,-936 413.859,-912.452 447.517,-899.561 477.987,-892.506"/>
<polygon fill="none" stroke="#404040" points="478.177,-892.466 483.225,-887.316 489.92,-889.994 484.873,-895.145 478.177,-892.466"/>
<text text-anchor="middle" x="415.5" y="-950.5" font-family="Helvetica,sans-Serif" font-size="10.00"> +elements</text>
</g>
<!-- Node11 -->
<g id="node11" class="node"><title>Node11</title>
<g id="a_node11"><a xlink:title="STL class. ">
<polygon fill="white" stroke="#bfbfbf" points="503.5,-1071.5 503.5,-1128.5 590.5,-1128.5 590.5,-1071.5 503.5,-1071.5"/>
<text text-anchor="middle" x="547" y="-1116.5" font-family="Helvetica,sans-Serif" font-size="10.00">std::vector&lt; T &gt;</text>
<polyline fill="none" stroke="#bfbfbf" points="503.5,-1109.5 590.5,-1109.5 "/>
<text text-anchor="middle" x="547" y="-1097.5" font-family="Helvetica,sans-Serif" font-size="10.00"> </text>
<polyline fill="none" stroke="#bfbfbf" points="503.5,-1090.5 590.5,-1090.5 "/>
<text text-anchor="middle" x="547" y="-1078.5" font-family="Helvetica,sans-Serif" font-size="10.00"> </text>
</a>
</g>
</g>
<!-- Node11&#45;&gt;Node9 -->
<g id="edge12" class="edge"><title>Node11&#45;&gt;Node9</title>
<path fill="none" stroke="orange" d="M546.886,-1061.18C546.869,-1028.14 547.044,-978.889 548,-936 548.137,-929.858 548.342,-923.31 548.57,-917.005"/>
<polygon fill="orange" stroke="orange" points="543.386,-1061.31 546.898,-1071.31 550.386,-1061.3 543.386,-1061.31"/>
<text text-anchor="start" x="548" y="-956" font-family="Helvetica,sans-Serif" font-size="10.00"> &lt; sc_register_field</text>
<text text-anchor="middle" x="590" y="-945" font-family="Helvetica,sans-Serif" font-size="10.00">_base * &gt;</text>
</g>
<!-- Node14 -->
<g id="node14" class="node"><title>Node14</title>
<polygon fill="white" stroke="#bfbfbf" points="639,-849 639,-917 761,-917 761,-849 639,-849"/>
<text text-anchor="start" x="647" y="-905" font-family="Helvetica,sans-Serif" font-size="10.00">std::vector&lt; scireg</text>
<text text-anchor="middle" x="700" y="-894" font-family="Helvetica,sans-Serif" font-size="10.00">_ns::scireg_callback * &gt;</text>
<polyline fill="none" stroke="#bfbfbf" points="639,-887 761,-887 "/>
<text text-anchor="middle" x="700" y="-875" font-family="Helvetica,sans-Serif" font-size="10.00"> </text>
<polyline fill="none" stroke="#bfbfbf" points="639,-868 761,-868 "/>
<text text-anchor="middle" x="700" y="-856" font-family="Helvetica,sans-Serif" font-size="10.00"> </text>
</g>
<!-- Node11&#45;&gt;Node14 -->
<g id="edge19" class="edge"><title>Node11&#45;&gt;Node14</title>
<path fill="none" stroke="orange" d="M571.638,-1063.15C589.004,-1037.51 612.539,-1002.02 632,-970 640.99,-955.207 640.765,-949.96 651,-936 655.694,-929.598 661.104,-923.146 666.578,-917.071"/>
<polygon fill="orange" stroke="orange" points="568.725,-1061.21 566,-1071.44 574.515,-1065.14 568.725,-1061.21"/>
<text text-anchor="start" x="651" y="-956" font-family="Helvetica,sans-Serif" font-size="10.00"> &lt; scireg_ns::scireg</text>
<text text-anchor="middle" x="694.5" y="-945" font-family="Helvetica,sans-Serif" font-size="10.00">_callback * &gt;</text>
</g>
<!-- Node12 -->
<g id="node12" class="node"><title>Node12</title>
<polygon fill="white" stroke="#bfbfbf" points="477.5,-1325.5 477.5,-1382.5 506.5,-1382.5 506.5,-1325.5 477.5,-1325.5"/>
<text text-anchor="middle" x="492" y="-1370.5" font-family="Helvetica,sans-Serif" font-size="10.00">T</text>
<polyline fill="none" stroke="#bfbfbf" points="477.5,-1363.5 506.5,-1363.5 "/>
<text text-anchor="middle" x="492" y="-1351.5" font-family="Helvetica,sans-Serif" font-size="10.00"> </text>
<polyline fill="none" stroke="#bfbfbf" points="477.5,-1344.5 506.5,-1344.5 "/>
<text text-anchor="middle" x="492" y="-1332.5" font-family="Helvetica,sans-Serif" font-size="10.00"> </text>
</g>
<!-- Node12&#45;&gt;Node11 -->
<g id="edge13" class="edge"><title>Node12&#45;&gt;Node11</title>
<path fill="none" stroke="#404040" d="M498.096,-1325.07C507.889,-1280.2 527.158,-1191.91 538.363,-1140.57"/>
<polygon fill="none" stroke="#404040" points="538.402,-1140.4 535.773,-1133.68 540.96,-1128.67 543.589,-1135.39 538.402,-1140.4"/>
<text text-anchor="middle" x="542.5" y="-1238.5" font-family="Helvetica,sans-Serif" font-size="10.00"> +elements</text>
</g>
<!-- Node12&#45;&gt;Node18 -->
<g id="edge25" class="edge"><title>Node12&#45;&gt;Node18</title>
<path fill="none" stroke="#404040" d="M491.138,-1325.08C488.493,-1239.43 480.368,-976.337 475.283,-811.684"/>
<polygon fill="none" stroke="#404040" points="475.277,-811.506 471.094,-805.632 474.907,-799.511 479.09,-805.385 475.277,-811.506"/>
<text text-anchor="middle" x="510.5" y="-961.5" font-family="Helvetica,sans-Serif" font-size="10.00"> #m_cur_val</text>
<text text-anchor="middle" x="510.5" y="-950.5" font-family="Helvetica,sans-Serif" font-size="10.00">#m_mask</text>
<text text-anchor="middle" x="510.5" y="-939.5" font-family="Helvetica,sans-Serif" font-size="10.00">#m_reset_val</text>
</g>
<!-- Node13 -->
<g id="node13" class="node"><title>Node13</title>
<polygon fill="white" stroke="#bfbfbf" points="294.5,-854.5 294.5,-911.5 357.5,-911.5 357.5,-854.5 294.5,-854.5"/>
<text text-anchor="middle" x="326" y="-899.5" font-family="Helvetica,sans-Serif" font-size="10.00">sc_event *</text>
<polyline fill="none" stroke="#bfbfbf" points="294.5,-892.5 357.5,-892.5 "/>
<text text-anchor="middle" x="326" y="-880.5" font-family="Helvetica,sans-Serif" font-size="10.00"> </text>
<polyline fill="none" stroke="#bfbfbf" points="294.5,-873.5 357.5,-873.5 "/>
<text text-anchor="middle" x="326" y="-861.5" font-family="Helvetica,sans-Serif" font-size="10.00"> </text>
</g>
<!-- Node13&#45;&gt;Node2 -->
<g id="edge14" class="edge"><title>Node13&#45;&gt;Node2</title>
<path fill="none" stroke="#404040" d="M322.204,-854.354C320.216,-838.484 317.994,-818.161 317,-800 310.784,-686.392 305.95,-657.24 317,-544 318.872,-524.814 321.717,-504.751 325.045,-485.022"/>
<polygon fill="none" stroke="#404040" points="325.058,-484.946 322.146,-478.349 327.116,-473.124 330.028,-479.721 325.058,-484.946"/>
<text text-anchor="middle" x="355" y="-669.5" font-family="Helvetica,sans-Serif" font-size="10.00"> #m_probe_event</text>
</g>
<!-- Node13&#45;&gt;Node18 -->
<g id="edge23" class="edge"><title>Node13&#45;&gt;Node18</title>
<path fill="none" stroke="#404040" d="M344.865,-854.446C352.958,-842.976 362.681,-829.645 372,-818 378.688,-809.643 381.499,-808.503 388,-800 390.4,-796.861 392.803,-793.654 395.202,-790.398"/>
<polygon fill="none" stroke="#404040" points="395.333,-790.217 395.614,-783.011 402.374,-780.499 402.092,-787.705 395.333,-790.217"/>
<text text-anchor="middle" x="410" y="-821.5" font-family="Helvetica,sans-Serif" font-size="10.00"> #m_probe_event</text>
</g>
<!-- Node14&#45;&gt;Node2 -->
<g id="edge15" class="edge"><title>Node14&#45;&gt;Node2</title>
<path fill="none" stroke="#404040" d="M699.805,-848.786C697.918,-784.589 686.214,-641.242 622,-544 575.454,-473.514 496.012,-417.487 436.218,-382.303"/>
<polygon fill="none" stroke="#404040" points="436.055,-382.209 428.858,-382.662 425.672,-376.193 432.868,-375.74 436.055,-382.209"/>
<text text-anchor="middle" x="744.5" y="-669.5" font-family="Helvetica,sans-Serif" font-size="10.00"> #scireg_callback_vec</text>
</g>
<!-- Node14&#45;&gt;Node18 -->
<g id="edge24" class="edge"><title>Node14&#45;&gt;Node18</title>
<path fill="none" stroke="#404040" d="M638.865,-855.916C610.919,-842.028 578.632,-823.032 554,-800 552.007,-798.136 550.039,-796.216 548.098,-794.245"/>
<polygon fill="none" stroke="#404040" points="547.95,-794.086 540.931,-792.429 539.761,-785.314 546.78,-786.971 547.95,-794.086"/>
<text text-anchor="middle" x="639.5" y="-821.5" font-family="Helvetica,sans-Serif" font-size="10.00"> #scireg_callback_vec</text>
</g>
<!-- Node15 -->
<g id="node15" class="node"><title>Node15</title>
<g id="a_node15"><a xlink:href="classscireg__ns_1_1scireg__callback.html" target="_top" xlink:title="The scireg_callback is an abstract base class that is used to implement callbacks to tools...">
<polygon fill="white" stroke="black" points="698,-1066 698,-1134 830,-1134 830,-1066 698,-1066"/>
<text text-anchor="middle" x="764" y="-1122" font-family="Helvetica,sans-Serif" font-size="10.00">scireg_ns::scireg_callback</text>
<polyline fill="none" stroke="black" points="698,-1115 830,-1115 "/>
<text text-anchor="middle" x="764" y="-1103" font-family="Helvetica,sans-Serif" font-size="10.00"> </text>
<polyline fill="none" stroke="black" points="698,-1096 830,-1096 "/>
<text text-anchor="start" x="706" y="-1084" font-family="Helvetica,sans-Serif" font-size="10.00">+ ~scireg_callback()</text>
<text text-anchor="start" x="706" y="-1073" font-family="Helvetica,sans-Serif" font-size="10.00">+ do_callback()</text>
</a>
</g>
</g>
<!-- Node15&#45;&gt;Node14 -->
<g id="edge16" class="edge"><title>Node15&#45;&gt;Node14</title>
<path fill="none" stroke="#404040" d="M764.675,-1065.76C764.202,-1031.81 760.19,-978.222 742,-936 740.775,-933.156 739.348,-930.339 737.776,-927.576"/>
<polygon fill="none" stroke="#404040" points="737.61,-927.319 730.997,-924.444 731.107,-917.233 737.72,-920.108 737.61,-927.319"/>
<text text-anchor="middle" x="777.5" y="-950.5" font-family="Helvetica,sans-Serif" font-size="10.00"> +elements</text>
</g>
<!-- Node16 -->
<g id="node16" class="node"><title>Node16</title>
<polygon fill="white" stroke="#bfbfbf" points="695.5,-1325.5 695.5,-1382.5 738.5,-1382.5 738.5,-1325.5 695.5,-1325.5"/>
<text text-anchor="middle" x="717" y="-1370.5" font-family="Helvetica,sans-Serif" font-size="10.00">uint64</text>
<polyline fill="none" stroke="#bfbfbf" points="695.5,-1363.5 738.5,-1363.5 "/>
<text text-anchor="middle" x="717" y="-1351.5" font-family="Helvetica,sans-Serif" font-size="10.00"> </text>
<polyline fill="none" stroke="#bfbfbf" points="695.5,-1344.5 738.5,-1344.5 "/>
<text text-anchor="middle" x="717" y="-1332.5" font-family="Helvetica,sans-Serif" font-size="10.00"> </text>
</g>
<!-- Node16&#45;&gt;Node15 -->
<g id="edge17" class="edge"><title>Node16&#45;&gt;Node15</title>
<path fill="none" stroke="#404040" d="M722.209,-1325.07C730.286,-1281.77 745.904,-1198.02 755.592,-1146.08"/>
<polygon fill="none" stroke="#404040" points="755.601,-1146.03 752.768,-1139.4 757.801,-1134.24 760.633,-1140.87 755.601,-1146.03"/>
<text text-anchor="middle" x="756" y="-1244" font-family="Helvetica,sans-Serif" font-size="10.00"> +offset</text>
<text text-anchor="middle" x="756" y="-1233" font-family="Helvetica,sans-Serif" font-size="10.00">+size</text>
</g>
<!-- Node17 -->
<g id="node17" class="node"><title>Node17</title>
<polygon fill="white" stroke="#bfbfbf" points="757,-1325.5 757,-1382.5 865,-1382.5 865,-1325.5 757,-1325.5"/>
<text text-anchor="middle" x="811" y="-1370.5" font-family="Helvetica,sans-Serif" font-size="10.00">scireg_callback_type</text>
<polyline fill="none" stroke="#bfbfbf" points="757,-1363.5 865,-1363.5 "/>
<text text-anchor="middle" x="811" y="-1351.5" font-family="Helvetica,sans-Serif" font-size="10.00"> </text>
<polyline fill="none" stroke="#bfbfbf" points="757,-1344.5 865,-1344.5 "/>
<text text-anchor="middle" x="811" y="-1332.5" font-family="Helvetica,sans-Serif" font-size="10.00"> </text>
</g>
<!-- Node17&#45;&gt;Node15 -->
<g id="edge18" class="edge"><title>Node17&#45;&gt;Node15</title>
<path fill="none" stroke="#404040" d="M805.791,-1325.07C797.714,-1281.77 782.096,-1198.02 772.408,-1146.08"/>
<polygon fill="none" stroke="#404040" points="772.399,-1146.03 767.367,-1140.87 770.199,-1134.24 775.232,-1139.4 772.399,-1146.03"/>
<text text-anchor="middle" x="805" y="-1238.5" font-family="Helvetica,sans-Serif" font-size="10.00"> +type</text>
</g>
<!-- Node18&#45;&gt;Node2 -->
<g id="edge20" class="edge"><title>Node18&#45;&gt;Node2</title>
<path fill="none" stroke="orange" d="M423.922,-534.722C416.879,-514.335 409.628,-493.345 402.616,-473.048"/>
<polygon fill="orange" stroke="orange" points="420.677,-536.048 427.251,-544.357 427.294,-533.762 420.677,-536.048"/>
<text text-anchor="middle" x="461" y="-506.5" font-family="Helvetica,sans-Serif" font-size="10.00"> &lt; DATA_TYPE &gt;</text>
</g>
</g>
</svg>
