<?xml version="1.0" encoding="UTF-8" standalone="no"?>
<!DOCTYPE svg PUBLIC "-//W3C//DTD SVG 1.1//EN"
 "http://www.w3.org/Graphics/SVG/1.1/DTD/svg11.dtd">
<!-- Generated by graphviz version 2.38.0 (20140413.2041)
 -->
<!-- Title: trap::annull_exception Pages: 1 -->
<svg width="122pt" height="255pt"
 viewBox="0.00 0.00 121.85 255.00" xmlns="http://www.w3.org/2000/svg" xmlns:xlink="http://www.w3.org/1999/xlink">
<g id="graph0" class="graph" transform="scale(1 1) rotate(0) translate(4 251)">
<title>trap::annull_exception</title>
<polygon fill="white" stroke="none" points="-4,4 -4,-251 117.847,-251 117.847,4 -4,4"/>
<!-- Node1 -->
<g id="node1" class="node"><title>Node1</title>
<polygon fill="#bfbfbf" stroke="black" points="0,-0.5 0,-64.5 113.847,-64.5 113.847,-0.5 0,-0.5"/>
<text text-anchor="middle" x="56.9233" y="-52.5" font-family="Helvetica,sans-Serif" font-size="10.00">trap::annull_exception</text>
<polyline fill="none" stroke="black" points="0,-46.5 113.847,-46.5 "/>
<text text-anchor="middle" x="56.9233" y="-34.5" font-family="Helvetica,sans-Serif" font-size="10.00"> </text>
<polyline fill="none" stroke="black" points="0,-28.5 113.847,-28.5 "/>
<text text-anchor="start" x="8" y="-16.5" font-family="Helvetica,sans-Serif" font-size="10.00">+ annull_exception()</text>
<text text-anchor="start" x="8" y="-6.5" font-family="Helvetica,sans-Serif" font-size="10.00">+ annull_exception()</text>
</g>
<!-- Node2 -->
<g id="node2" class="node"><title>Node2</title>
<g id="a_node2"><a xlink:title="STL class. ">
<polygon fill="white" stroke="#bfbfbf" points="9.46533,-101.5 9.46533,-155.5 104.381,-155.5 104.381,-101.5 9.46533,-101.5"/>
<text text-anchor="middle" x="56.9233" y="-143.5" font-family="Helvetica,sans-Serif" font-size="10.00">std::runtime_error</text>
<polyline fill="none" stroke="#bfbfbf" points="9.46533,-137.5 104.381,-137.5 "/>
<text text-anchor="middle" x="56.9233" y="-125.5" font-family="Helvetica,sans-Serif" font-size="10.00"> </text>
<polyline fill="none" stroke="#bfbfbf" points="9.46533,-119.5 104.381,-119.5 "/>
<text text-anchor="middle" x="56.9233" y="-107.5" font-family="Helvetica,sans-Serif" font-size="10.00"> </text>
</a>
</g>
</g>
<!-- Node2&#45;&gt;Node1 -->
<g id="edge1" class="edge"><title>Node2&#45;&gt;Node1</title>
<path fill="none" stroke="midnightblue" d="M56.9233,-91.2838C56.9233,-82.4601 56.9233,-73.1003 56.9233,-64.5417"/>
<polygon fill="none" stroke="midnightblue" points="53.4234,-91.3157 56.9233,-101.316 60.4234,-91.3158 53.4234,-91.3157"/>
</g>
<!-- Node3 -->
<g id="node3" class="node"><title>Node3</title>
<g id="a_node3"><a xlink:title="STL class. ">
<polygon fill="white" stroke="#bfbfbf" points="18.0713,-192.5 18.0713,-246.5 95.7754,-246.5 95.7754,-192.5 18.0713,-192.5"/>
<text text-anchor="middle" x="56.9233" y="-234.5" font-family="Helvetica,sans-Serif" font-size="10.00">std::exception</text>
<polyline fill="none" stroke="#bfbfbf" points="18.0713,-228.5 95.7754,-228.5 "/>
<text text-anchor="middle" x="56.9233" y="-216.5" font-family="Helvetica,sans-Serif" font-size="10.00"> </text>
<polyline fill="none" stroke="#bfbfbf" points="18.0713,-210.5 95.7754,-210.5 "/>
<text text-anchor="middle" x="56.9233" y="-198.5" font-family="Helvetica,sans-Serif" font-size="10.00"> </text>
</a>
</g>
</g>
<!-- Node3&#45;&gt;Node2 -->
<g id="edge2" class="edge"><title>Node3&#45;&gt;Node2</title>
<path fill="none" stroke="midnightblue" d="M56.9233,-182.115C56.9233,-173.206 56.9233,-163.848 56.9233,-155.534"/>
<polygon fill="none" stroke="midnightblue" points="53.4234,-182.278 56.9233,-192.278 60.4234,-182.278 53.4234,-182.278"/>
</g>
</g>
</svg>
