<?xml version="1.0" encoding="UTF-8" standalone="no"?>
<!DOCTYPE svg PUBLIC "-//W3C//DTD SVG 1.1//EN"
 "http://www.w3.org/Graphics/SVG/1.1/DTD/svg11.dtd">
<!-- Generated by graphviz version 2.26.0 (20091210.2329)
 -->
<!-- Title: sc_register_example::sc_register_field_base::scireg_get_high_pos Pages: 1 -->
<svg width="290pt" height="56pt"
 viewBox="0.00 0.00 290.00 56.00" xmlns="http://www.w3.org/2000/svg" xmlns:xlink="http://www.w3.org/1999/xlink">
<g id="graph1" class="graph" transform="scale(1 1) rotate(0) translate(4 52)">
<title>sc_register_example::sc_register_field_base::scireg_get_high_pos</title>
<polygon fill="white" stroke="white" points="-4,5 -4,-52 287,-52 287,5 -4,5"/>
<!-- Node1 -->
<g id="node1" class="node"><title>Node1</title>
<polygon fill="#bfbfbf" stroke="black" points="0,-0.5 0,-47.5 138,-47.5 138,-0.5 0,-0.5"/>
<text text-anchor="start" x="8" y="-34.5" font-family="Helvetica,sans-Serif" font-size="10.00">sc_register_example</text>
<text text-anchor="start" x="8" y="-21.5" font-family="Helvetica,sans-Serif" font-size="10.00">::sc_register_field</text>
<text text-anchor="middle" x="69" y="-8.5" font-family="Helvetica,sans-Serif" font-size="10.00">_base::scireg_get_high_pos</text>
</g>
<!-- Node2 -->
<g id="node3" class="node"><title>Node2</title>
<a xlink:href="classsc__register__example_1_1sc__register__field__base.html#abbc7018afc3684d95891a57e50527de4" target="_top" xlink:title="sc_register_example\l::sc_register_field\l_base::high_pos">
<polygon fill="white" stroke="black" points="174.5,-0.5 174.5,-47.5 281.5,-47.5 281.5,-0.5 174.5,-0.5"/>
<text text-anchor="start" x="182.5" y="-34.5" font-family="Helvetica,sans-Serif" font-size="10.00">sc_register_example</text>
<text text-anchor="start" x="182.5" y="-21.5" font-family="Helvetica,sans-Serif" font-size="10.00">::sc_register_field</text>
<text text-anchor="middle" x="228" y="-8.5" font-family="Helvetica,sans-Serif" font-size="10.00">_base::high_pos</text>
</a>
</g>
<!-- Node1&#45;&gt;Node2 -->
<g id="edge2" class="edge"><title>Node1&#45;&gt;Node2</title>
<path fill="none" stroke="midnightblue" d="M138.277,-24C146.845,-24 155.573,-24 164.055,-24"/>
<polygon fill="midnightblue" stroke="midnightblue" points="164.253,-27.5001 174.253,-24 164.253,-20.5001 164.253,-27.5001"/>
</g>
</g>
</svg>
