<?xml version="1.0" encoding="UTF-8" standalone="no"?>
<!DOCTYPE svg PUBLIC "-//W3C//DTD SVG 1.1//EN"
 "http://www.w3.org/Graphics/SVG/1.1/DTD/svg11.dtd">
<!-- Generated by graphviz version 2.38.0 (20140413.2041)
 -->
<!-- Title: mmu_cache_if Pages: 1 -->
<svg width="114pt" height="226pt"
 viewBox="0.00 0.00 114.00 226.00" xmlns="http://www.w3.org/2000/svg" xmlns:xlink="http://www.w3.org/1999/xlink">
<g id="graph0" class="graph" transform="scale(1 1) rotate(0) translate(4 222)">
<title>mmu_cache_if</title>
<polygon fill="white" stroke="none" points="-4,4 -4,-222 110,-222 110,4 -4,4"/>
<!-- Node1 -->
<g id="node1" class="node"><title>Node1</title>
<polygon fill="#bfbfbf" stroke="black" points="-7.10543e-15,-0.5 -7.10543e-15,-101.5 106,-101.5 106,-0.5 -7.10543e-15,-0.5"/>
<text text-anchor="middle" x="53" y="-89.5" font-family="Helvetica,sans-Serif" font-size="10.00">mmu_cache_if</text>
<polyline fill="none" stroke="black" points="-7.10543e-15,-82.5 106,-82.5 "/>
<text text-anchor="middle" x="53" y="-70.5" font-family="Helvetica,sans-Serif" font-size="10.00"> </text>
<polyline fill="none" stroke="black" points="-7.10543e-15,-63.5 106,-63.5 "/>
<text text-anchor="start" x="8" y="-51.5" font-family="Helvetica,sans-Serif" font-size="10.00">+ set_irq()</text>
<text text-anchor="start" x="8" y="-40.5" font-family="Helvetica,sans-Serif" font-size="10.00">+ trigger_exception()</text>
<text text-anchor="start" x="8" y="-29.5" font-family="Helvetica,sans-Serif" font-size="10.00">+ read_ccr()</text>
<text text-anchor="start" x="8" y="-18.5" font-family="Helvetica,sans-Serif" font-size="10.00">+ write_ccr()</text>
<text text-anchor="start" x="8" y="-7.5" font-family="Helvetica,sans-Serif" font-size="10.00">+ ~mmu_cache_if()</text>
</g>
<!-- Node2 -->
<g id="node2" class="node"><title>Node2</title>
<g id="a_node2"><a xlink:href="classmem__if.html" target="_top" xlink:title="{mem_if\n||+ mem_write()\l+ mem_read()\l+ ~mem_if()\l}">
<polygon fill="white" stroke="black" points="13,-138.5 13,-217.5 93,-217.5 93,-138.5 13,-138.5"/>
<text text-anchor="middle" x="53" y="-205.5" font-family="Helvetica,sans-Serif" font-size="10.00">mem_if</text>
<polyline fill="none" stroke="black" points="13,-198.5 93,-198.5 "/>
<text text-anchor="middle" x="53" y="-186.5" font-family="Helvetica,sans-Serif" font-size="10.00"> </text>
<polyline fill="none" stroke="black" points="13,-179.5 93,-179.5 "/>
<text text-anchor="start" x="21" y="-167.5" font-family="Helvetica,sans-Serif" font-size="10.00">+ mem_write()</text>
<text text-anchor="start" x="21" y="-156.5" font-family="Helvetica,sans-Serif" font-size="10.00">+ mem_read()</text>
<text text-anchor="start" x="21" y="-145.5" font-family="Helvetica,sans-Serif" font-size="10.00">+ ~mem_if()</text>
</a>
</g>
</g>
<!-- Node2&#45;&gt;Node1 -->
<g id="edge1" class="edge"><title>Node2&#45;&gt;Node1</title>
<path fill="none" stroke="midnightblue" d="M53,-128.406C53,-119.639 53,-110.488 53,-101.691"/>
<polygon fill="none" stroke="midnightblue" points="49.5001,-128.476 53,-138.476 56.5001,-128.476 49.5001,-128.476"/>
</g>
</g>
</svg>
