<?xml version="1.0" encoding="UTF-8" standalone="no"?>
<!DOCTYPE svg PUBLIC "-//W3C//DTD SVG 1.1//EN"
 "http://www.w3.org/Graphics/SVG/1.1/DTD/svg11.dtd">
<!-- Generated by graphviz version 2.38.0 (20140413.2041)
 -->
<!-- Title: gs::cnf::gs_config&lt; bool &gt; Pages: 1 -->
<!--zoomable 879 -->
<svg id="main" version="1.1" xmlns="http://www.w3.org/2000/svg" xmlns:xlink="http://www.w3.org/1999/xlink" xml:space="preserve" onload="init(evt)">
<style type="text/css"><![CDATA[
.edge:hover path { stroke: red; }
.edge:hover polygon { stroke: red; fill: red; }
]]></style>
<script type="text/javascript"><![CDATA[
var edges = document.getElementsByTagName('g');
if (edges && edges.length) {
  for (var i=0;i<edges.length;i++) {
    if (edges[i].id.substr(0,4)=='edge') {
      edges[i].setAttribute('class','edge');
    }
  }
}
]]></script>
        <defs>
                <circle id="rim" cx="0" cy="0" r="7"/>
                <circle id="rim2" cx="0" cy="0" r="3.5"/>
                <g id="zoomPlus">
                        <use xlink:href="#rim" fill="#404040">
                                <set attributeName="fill" to="#808080" begin="zoomplus.mouseover" end="zoomplus.mouseout"/>
                        </use>
                        <path d="M-4,0h8M0,-4v8" fill="none" stroke="white" stroke-width="1.5" pointer-events="none"/>
                </g>
                <g id="zoomMin">
                        <use xlink:href="#rim" fill="#404040">
                                <set attributeName="fill" to="#808080" begin="zoomminus.mouseover" end="zoomminus.mouseout"/>
                        </use>
                        <path d="M-4,0h8" fill="none" stroke="white" stroke-width="1.5" pointer-events="none"/>
                </g>
                <g id="dirArrow">
                        <path fill="none" stroke="white" stroke-width="1.5" d="M0,-3.0v7 M-2.5,-0.5L0,-3.0L2.5,-0.5"/>
                </g>
               <g id="resetDef">
                       <use xlink:href="#rim2" fill="#404040">
                               <set attributeName="fill" to="#808080" begin="reset.mouseover" end="reset.mouseout"/>
                       </use>
               </g>
        </defs>

<script type="text/javascript">
var viewWidth = 510;
var viewHeight = 879;
var sectionId = 'dynsection-1';
</script>
<script xlink:href="svgpan.js"/>
<svg id="graph" class="graph">
<g id="viewport">
<title>gs::cnf::gs_config&lt; bool &gt;</title>
<polygon fill="white" stroke="none" points="-4,4 -4,-875 505.947,-875 505.947,4 -4,4"/>
<!-- Node1 -->
<g id="node1" class="node"><title>Node1</title>
<polygon fill="#bfbfbf" stroke="black" points="261.8,-0.5 261.8,-134.5 416.296,-134.5 416.296,-0.5 261.8,-0.5"/>
<text text-anchor="start" x="269.8" y="-122.5" font-family="Helvetica,sans-Serif" font-size="10.00">gs::cnf::gs_config</text>
<text text-anchor="middle" x="339.048" y="-112.5" font-family="Helvetica,sans-Serif" font-size="10.00">&lt; bool &gt;</text>
<polyline fill="none" stroke="black" points="261.8,-106.5 416.296,-106.5 "/>
<text text-anchor="start" x="269.8" y="-94.5" font-family="Helvetica,sans-Serif" font-size="10.00">+ GS_CONFIG_HEAD</text>
<text text-anchor="start" x="269.8" y="-84.5" font-family="Helvetica,sans-Serif" font-size="10.00">+ GC_SPECIALISATIONS</text>
<text text-anchor="start" x="269.8" y="-74.5" font-family="Helvetica,sans-Serif" font-size="10.00">_INCREMENT_OPERATORS</text>
<text text-anchor="start" x="269.8" y="-64.5" font-family="Helvetica,sans-Serif" font-size="10.00">+ GS_CONFIG_DELEGATE</text>
<polyline fill="none" stroke="black" points="261.8,-58.5 416.296,-58.5 "/>
<text text-anchor="start" x="269.8" y="-46.5" font-family="Helvetica,sans-Serif" font-size="10.00">+ getTypeString()</text>
<text text-anchor="start" x="269.8" y="-36.5" font-family="Helvetica,sans-Serif" font-size="10.00">+ getType()</text>
<text text-anchor="start" x="269.8" y="-26.5" font-family="Helvetica,sans-Serif" font-size="10.00">+ convertValueToString()</text>
<text text-anchor="start" x="269.8" y="-16.5" font-family="Helvetica,sans-Serif" font-size="10.00">+ static_convertValueToString()</text>
<text text-anchor="start" x="269.8" y="-6.5" font-family="Helvetica,sans-Serif" font-size="10.00">+ static_deserialize()</text>
</g>
<!-- Node2 -->
<g id="node2" class="node"><title>Node2</title>
<g id="a_node2"><a xlink:href="classgs_1_1cnf_1_1gs__config__t.html" target="_top" xlink:title="{gs::cnf::gs_config\l_t\&lt; bool \&gt;\n||+ operator+=()\l+ operator&#45;=()\l+ operator/=()\l+ operator*=()\l+ operator+()\l+ operator&#45;()\l+ operator/()\l+ operator*()\l+ operator%=()\l+ operator^=()\land 27 more...\l# mirror_callback()\l# convertStringToValue()\l}">
<polygon fill="white" stroke="black" points="276.39,-172.5 276.39,-356.5 401.706,-356.5 401.706,-172.5 276.39,-172.5"/>
<text text-anchor="start" x="284.39" y="-344.5" font-family="Helvetica,sans-Serif" font-size="10.00">gs::cnf::gs_config</text>
<text text-anchor="middle" x="339.048" y="-334.5" font-family="Helvetica,sans-Serif" font-size="10.00">_t&lt; bool &gt;</text>
<polyline fill="none" stroke="black" points="276.39,-328.5 401.706,-328.5 "/>
<text text-anchor="middle" x="339.048" y="-316.5" font-family="Helvetica,sans-Serif" font-size="10.00"> </text>
<polyline fill="none" stroke="black" points="276.39,-310.5 401.706,-310.5 "/>
<text text-anchor="start" x="284.39" y="-298.5" font-family="Helvetica,sans-Serif" font-size="10.00">+ operator+=()</text>
<text text-anchor="start" x="284.39" y="-288.5" font-family="Helvetica,sans-Serif" font-size="10.00">+ operator&#45;=()</text>
<text text-anchor="start" x="284.39" y="-278.5" font-family="Helvetica,sans-Serif" font-size="10.00">+ operator/=()</text>
<text text-anchor="start" x="284.39" y="-268.5" font-family="Helvetica,sans-Serif" font-size="10.00">+ operator*=()</text>
<text text-anchor="start" x="284.39" y="-258.5" font-family="Helvetica,sans-Serif" font-size="10.00">+ operator+()</text>
<text text-anchor="start" x="284.39" y="-248.5" font-family="Helvetica,sans-Serif" font-size="10.00">+ operator&#45;()</text>
<text text-anchor="start" x="284.39" y="-238.5" font-family="Helvetica,sans-Serif" font-size="10.00">+ operator/()</text>
<text text-anchor="start" x="284.39" y="-228.5" font-family="Helvetica,sans-Serif" font-size="10.00">+ operator*()</text>
<text text-anchor="start" x="284.39" y="-218.5" font-family="Helvetica,sans-Serif" font-size="10.00">+ operator%=()</text>
<text text-anchor="start" x="284.39" y="-208.5" font-family="Helvetica,sans-Serif" font-size="10.00">+ operator^=()</text>
<text text-anchor="start" x="284.39" y="-198.5" font-family="Helvetica,sans-Serif" font-size="10.00">and 27 more...</text>
<text text-anchor="start" x="284.39" y="-188.5" font-family="Helvetica,sans-Serif" font-size="10.00"># mirror_callback()</text>
<text text-anchor="start" x="284.39" y="-178.5" font-family="Helvetica,sans-Serif" font-size="10.00"># convertStringToValue()</text>
</a>
</g>
</g>
<!-- Node2&#45;&gt;Node1 -->
<g id="edge1" class="edge"><title>Node2&#45;&gt;Node1</title>
<path fill="none" stroke="midnightblue" d="M339.048,-162.156C339.048,-152.828 339.048,-143.546 339.048,-134.654"/>
<polygon fill="none" stroke="midnightblue" points="335.548,-162.28 339.048,-172.28 342.548,-162.28 335.548,-162.28"/>
</g>
<!-- Node2&#45;&gt;Node2 -->
<g id="edge4" class="edge"><title>Node2&#45;&gt;Node2</title>
<path fill="none" stroke="#404040" d="M401.949,-283.67C412.456,-280.988 419.706,-274.598 419.706,-264.5 419.706,-258.505 417.15,-253.816 412.874,-250.435"/>
<polygon fill="none" stroke="#404040" points="412.821,-250.41 405.692,-251.494 401.949,-245.33 409.079,-244.246 412.821,-250.41"/>
<text text-anchor="middle" x="460.827" y="-261.5" font-family="Helvetica,sans-Serif" font-size="10.00"> #m_mirror_param</text>
</g>
<!-- Node3 -->
<g id="node3" class="node"><title>Node3</title>
<g id="a_node3"><a xlink:href="classgs_1_1cnf_1_1gs__config__base.html" target="_top" xlink:title="{gs::cnf::gs_config_base\n||+ gs_config_base()\l+ setProperty()\l+ getProperty()\l+ getProperties()\l+ deleteProperty()\l+ exists()\l+ add_properties()\l}">
<polygon fill="white" stroke="black" points="299.514,-654.5 299.514,-768.5 420.582,-768.5 420.582,-654.5 299.514,-654.5"/>
<text text-anchor="middle" x="360.048" y="-756.5" font-family="Helvetica,sans-Serif" font-size="10.00">gs::cnf::gs_config_base</text>
<polyline fill="none" stroke="black" points="299.514,-750.5 420.582,-750.5 "/>
<text text-anchor="middle" x="360.048" y="-738.5" font-family="Helvetica,sans-Serif" font-size="10.00"> </text>
<polyline fill="none" stroke="black" points="299.514,-732.5 420.582,-732.5 "/>
<text text-anchor="start" x="307.514" y="-720.5" font-family="Helvetica,sans-Serif" font-size="10.00">+ gs_config_base()</text>
<text text-anchor="start" x="307.514" y="-710.5" font-family="Helvetica,sans-Serif" font-size="10.00">+ setProperty()</text>
<text text-anchor="start" x="307.514" y="-700.5" font-family="Helvetica,sans-Serif" font-size="10.00">+ getProperty()</text>
<text text-anchor="start" x="307.514" y="-690.5" font-family="Helvetica,sans-Serif" font-size="10.00">+ getProperties()</text>
<text text-anchor="start" x="307.514" y="-680.5" font-family="Helvetica,sans-Serif" font-size="10.00">+ deleteProperty()</text>
<text text-anchor="start" x="307.514" y="-670.5" font-family="Helvetica,sans-Serif" font-size="10.00">+ exists()</text>
<text text-anchor="start" x="307.514" y="-660.5" font-family="Helvetica,sans-Serif" font-size="10.00">+ add_properties()</text>
</a>
</g>
</g>
<!-- Node3&#45;&gt;Node2 -->
<g id="edge2" class="edge"><title>Node3&#45;&gt;Node2</title>
<path fill="none" stroke="midnightblue" d="M357.285,-644.299C354.414,-576.621 349.698,-468.469 345.048,-375 344.75,-369.01 344.434,-362.836 344.11,-356.615"/>
<polygon fill="none" stroke="midnightblue" points="353.792,-644.552 357.712,-654.395 360.786,-644.256 353.792,-644.552"/>
</g>
<!-- Node8 -->
<g id="node8" class="node"><title>Node8</title>
<g id="a_node8"><a xlink:href="classgs_1_1cnf_1_1gs__config__t.html" target="_top" xlink:title="Template specialized base class for configuration parameters. ">
<polygon fill="white" stroke="black" points="197.39,-413.5 197.39,-597.5 322.706,-597.5 322.706,-413.5 197.39,-413.5"/>
<text text-anchor="start" x="205.39" y="-585.5" font-family="Helvetica,sans-Serif" font-size="10.00">gs::cnf::gs_config</text>
<text text-anchor="middle" x="260.048" y="-575.5" font-family="Helvetica,sans-Serif" font-size="10.00">_t&lt; T &gt;</text>
<polyline fill="none" stroke="black" points="197.39,-569.5 322.706,-569.5 "/>
<text text-anchor="middle" x="260.048" y="-557.5" font-family="Helvetica,sans-Serif" font-size="10.00"> </text>
<polyline fill="none" stroke="black" points="197.39,-551.5 322.706,-551.5 "/>
<text text-anchor="start" x="205.39" y="-539.5" font-family="Helvetica,sans-Serif" font-size="10.00">+ operator+=()</text>
<text text-anchor="start" x="205.39" y="-529.5" font-family="Helvetica,sans-Serif" font-size="10.00">+ operator&#45;=()</text>
<text text-anchor="start" x="205.39" y="-519.5" font-family="Helvetica,sans-Serif" font-size="10.00">+ operator/=()</text>
<text text-anchor="start" x="205.39" y="-509.5" font-family="Helvetica,sans-Serif" font-size="10.00">+ operator*=()</text>
<text text-anchor="start" x="205.39" y="-499.5" font-family="Helvetica,sans-Serif" font-size="10.00">+ operator+()</text>
<text text-anchor="start" x="205.39" y="-489.5" font-family="Helvetica,sans-Serif" font-size="10.00">+ operator&#45;()</text>
<text text-anchor="start" x="205.39" y="-479.5" font-family="Helvetica,sans-Serif" font-size="10.00">+ operator/()</text>
<text text-anchor="start" x="205.39" y="-469.5" font-family="Helvetica,sans-Serif" font-size="10.00">+ operator*()</text>
<text text-anchor="start" x="205.39" y="-459.5" font-family="Helvetica,sans-Serif" font-size="10.00">+ operator%=()</text>
<text text-anchor="start" x="205.39" y="-449.5" font-family="Helvetica,sans-Serif" font-size="10.00">+ operator^=()</text>
<text text-anchor="start" x="205.39" y="-439.5" font-family="Helvetica,sans-Serif" font-size="10.00">and 27 more...</text>
<text text-anchor="start" x="205.39" y="-429.5" font-family="Helvetica,sans-Serif" font-size="10.00"># mirror_callback()</text>
<text text-anchor="start" x="205.39" y="-419.5" font-family="Helvetica,sans-Serif" font-size="10.00"># convertStringToValue()</text>
</a>
</g>
</g>
<!-- Node3&#45;&gt;Node8 -->
<g id="edge9" class="edge"><title>Node3&#45;&gt;Node8</title>
<path fill="none" stroke="midnightblue" d="M339.882,-644.532C336.291,-634.819 332.319,-625.046 328.048,-616 325.182,-609.929 322.053,-603.778 318.764,-597.647"/>
<polygon fill="none" stroke="midnightblue" points="336.676,-645.961 343.343,-654.195 343.266,-643.6 336.676,-645.961"/>
</g>
<!-- Node4 -->
<g id="node4" class="node"><title>Node4</title>
<g id="a_node4"><a xlink:href="classgs__param__base.html" target="_top" xlink:title="{gs_param_base\n||}">
<polygon fill="white" stroke="black" points="316.191,-811.5 316.191,-865.5 403.905,-865.5 403.905,-811.5 316.191,-811.5"/>
<text text-anchor="middle" x="360.048" y="-853.5" font-family="Helvetica,sans-Serif" font-size="10.00">gs_param_base</text>
<polyline fill="none" stroke="black" points="316.191,-847.5 403.905,-847.5 "/>
<text text-anchor="middle" x="360.048" y="-835.5" font-family="Helvetica,sans-Serif" font-size="10.00"> </text>
<polyline fill="none" stroke="black" points="316.191,-829.5 403.905,-829.5 "/>
<text text-anchor="middle" x="360.048" y="-817.5" font-family="Helvetica,sans-Serif" font-size="10.00"> </text>
</a>
</g>
</g>
<!-- Node4&#45;&gt;Node3 -->
<g id="edge3" class="edge"><title>Node4&#45;&gt;Node3</title>
<path fill="none" stroke="midnightblue" d="M360.048,-801.133C360.048,-790.931 360.048,-779.596 360.048,-768.534"/>
<polygon fill="none" stroke="midnightblue" points="356.548,-801.296 360.048,-811.296 363.548,-801.296 356.548,-801.296"/>
</g>
<!-- Node5 -->
<g id="node5" class="node"><title>Node5</title>
<g id="a_node5"><a xlink:title="STL class. ">
<polygon fill="white" stroke="#bfbfbf" points="17.373,-684.5 17.373,-738.5 76.7227,-738.5 76.7227,-684.5 17.373,-684.5"/>
<text text-anchor="middle" x="47.0479" y="-726.5" font-family="Helvetica,sans-Serif" font-size="10.00">std::string</text>
<polyline fill="none" stroke="#bfbfbf" points="17.373,-720.5 76.7227,-720.5 "/>
<text text-anchor="middle" x="47.0479" y="-708.5" font-family="Helvetica,sans-Serif" font-size="10.00"> </text>
<polyline fill="none" stroke="#bfbfbf" points="17.373,-702.5 76.7227,-702.5 "/>
<text text-anchor="middle" x="47.0479" y="-690.5" font-family="Helvetica,sans-Serif" font-size="10.00"> </text>
</a>
</g>
</g>
<!-- Node5&#45;&gt;Node2 -->
<g id="edge5" class="edge"><title>Node5&#45;&gt;Node2</title>
<path fill="none" stroke="#404040" d="M47.7618,-684.089C50.4679,-628.834 63.2856,-499.044 123.57,-413 159.046,-362.365 217.876,-323.82 265.109,-298.853"/>
<polygon fill="none" stroke="#404040" points="265.258,-298.775 268.752,-292.467 275.919,-293.266 272.425,-299.574 265.258,-298.775"/>
<text text-anchor="middle" x="156.287" y="-502.5" font-family="Helvetica,sans-Serif" font-size="10.00"> #return_string</text>
</g>
<!-- Node5&#45;&gt;Node8 -->
<g id="edge10" class="edge"><title>Node5&#45;&gt;Node8</title>
<path fill="none" stroke="#404040" d="M57.2547,-684.34C66.0548,-664.097 80.2343,-636.201 98.5703,-616 123.618,-588.404 156.964,-564.302 186.848,-545.788"/>
<polygon fill="none" stroke="#404040" points="186.994,-545.699 190.05,-539.168 197.254,-539.476 194.199,-546.008 186.994,-545.699"/>
<text text-anchor="middle" x="131.287" y="-623" font-family="Helvetica,sans-Serif" font-size="10.00"> #return_string</text>
</g>
<!-- Node6 -->
<g id="node6" class="node"><title>Node6</title>
<g id="a_node6"><a xlink:title="STL class. ">
<polygon fill="white" stroke="#bfbfbf" points="0,-806.5 0,-870.5 94.0957,-870.5 94.0957,-806.5 0,-806.5"/>
<text text-anchor="start" x="8" y="-858.5" font-family="Helvetica,sans-Serif" font-size="10.00">std::basic_string&lt;</text>
<text text-anchor="middle" x="47.0479" y="-848.5" font-family="Helvetica,sans-Serif" font-size="10.00"> char &gt;</text>
<polyline fill="none" stroke="#bfbfbf" points="0,-842.5 94.0957,-842.5 "/>
<text text-anchor="middle" x="47.0479" y="-830.5" font-family="Helvetica,sans-Serif" font-size="10.00"> </text>
<polyline fill="none" stroke="#bfbfbf" points="0,-824.5 94.0957,-824.5 "/>
<text text-anchor="middle" x="47.0479" y="-812.5" font-family="Helvetica,sans-Serif" font-size="10.00"> </text>
</a>
</g>
</g>
<!-- Node6&#45;&gt;Node5 -->
<g id="edge6" class="edge"><title>Node6&#45;&gt;Node5</title>
<path fill="none" stroke="midnightblue" d="M47.0479,-796.112C47.0479,-777.174 47.0479,-755.306 47.0479,-738.685"/>
<polygon fill="none" stroke="midnightblue" points="43.5479,-796.28 47.0479,-806.28 50.5479,-796.28 43.5479,-796.28"/>
</g>
<!-- Node7 -->
<g id="node7" class="node"><title>Node7</title>
<g id="a_node7"><a xlink:href="classbool.html" target="_top" xlink:title="{bool\n||}">
<polygon fill="white" stroke="black" points="394.595,-478.5 394.595,-532.5 429.501,-532.5 429.501,-478.5 394.595,-478.5"/>
<text text-anchor="middle" x="412.048" y="-520.5" font-family="Helvetica,sans-Serif" font-size="10.00">bool</text>
<polyline fill="none" stroke="black" points="394.595,-514.5 429.501,-514.5 "/>
<text text-anchor="middle" x="412.048" y="-502.5" font-family="Helvetica,sans-Serif" font-size="10.00"> </text>
<polyline fill="none" stroke="black" points="394.595,-496.5 429.501,-496.5 "/>
<text text-anchor="middle" x="412.048" y="-484.5" font-family="Helvetica,sans-Serif" font-size="10.00"> </text>
</a>
</g>
</g>
<!-- Node7&#45;&gt;Node2 -->
<g id="edge7" class="edge"><title>Node7&#45;&gt;Node2</title>
<path fill="none" stroke="#404040" d="M406.86,-478.43C401.371,-452.083 392,-410.33 381.048,-375 380.347,-372.739 379.623,-370.458 378.88,-368.163"/>
<polygon fill="none" stroke="#404040" points="378.82,-367.982 373.125,-363.559 375.018,-356.6 380.713,-361.024 378.82,-367.982"/>
<text text-anchor="middle" x="420.388" y="-387" font-family="Helvetica,sans-Serif" font-size="10.00"> #m_mirror_val</text>
<text text-anchor="middle" x="420.388" y="-377" font-family="Helvetica,sans-Serif" font-size="10.00">#my_value</text>
</g>
<!-- Node8&#45;&gt;Node2 -->
<g id="edge8" class="edge"><title>Node8&#45;&gt;Node2</title>
<path fill="none" stroke="orange" d="M293.335,-403.795C298.503,-388.161 303.816,-372.087 308.909,-356.68"/>
<polygon fill="orange" stroke="orange" points="289.955,-402.869 290.14,-413.463 296.601,-405.066 289.955,-402.869"/>
<text text-anchor="middle" x="321.508" y="-382" font-family="Helvetica,sans-Serif" font-size="10.00"> &lt; bool &gt;</text>
</g>
<!-- Node9 -->
<g id="node9" class="node"><title>Node9</title>
<polygon fill="white" stroke="#bfbfbf" points="106.643,-684.5 106.643,-738.5 203.453,-738.5 203.453,-684.5 106.643,-684.5"/>
<text text-anchor="middle" x="155.048" y="-726.5" font-family="Helvetica,sans-Serif" font-size="10.00">gs_config_t&lt; T &gt; *</text>
<polyline fill="none" stroke="#bfbfbf" points="106.643,-720.5 203.453,-720.5 "/>
<text text-anchor="middle" x="155.048" y="-708.5" font-family="Helvetica,sans-Serif" font-size="10.00"> </text>
<polyline fill="none" stroke="#bfbfbf" points="106.643,-702.5 203.453,-702.5 "/>
<text text-anchor="middle" x="155.048" y="-690.5" font-family="Helvetica,sans-Serif" font-size="10.00"> </text>
</g>
<!-- Node9&#45;&gt;Node8 -->
<g id="edge11" class="edge"><title>Node9&#45;&gt;Node8</title>
<path fill="none" stroke="#404040" d="M156.938,-684.217C159.121,-664.666 163.802,-637.726 173.807,-616 178.415,-605.992 184.112,-596.081 190.365,-586.547"/>
<polygon fill="none" stroke="#404040" points="190.56,-586.263 190.652,-579.053 197.343,-576.365 197.251,-583.575 190.56,-586.263"/>
<text text-anchor="middle" x="215.168" y="-623" font-family="Helvetica,sans-Serif" font-size="10.00"> #m_mirror_param</text>
</g>
<!-- Node10 -->
<g id="node10" class="node"><title>Node10</title>
<polygon fill="white" stroke="#bfbfbf" points="245.548,-684.5 245.548,-738.5 274.548,-738.5 274.548,-684.5 245.548,-684.5"/>
<text text-anchor="middle" x="259.602" y="-726.5" font-family="Helvetica,sans-Serif" font-size="10.00">T</text>
<polyline fill="none" stroke="#bfbfbf" points="245.548,-720.5 273.656,-720.5 "/>
<text text-anchor="middle" x="259.602" y="-708.5" font-family="Helvetica,sans-Serif" font-size="10.00"> </text>
<polyline fill="none" stroke="#bfbfbf" points="245.548,-702.5 273.656,-702.5 "/>
<text text-anchor="middle" x="259.602" y="-690.5" font-family="Helvetica,sans-Serif" font-size="10.00"> </text>
</g>
<!-- Node10&#45;&gt;Node8 -->
<g id="edge12" class="edge"><title>Node10&#45;&gt;Node8</title>
<path fill="none" stroke="#404040" d="M260.048,-684.248C260.048,-665.032 260.048,-637.597 260.048,-610.015"/>
<polygon fill="none" stroke="#404040" points="260.048,-609.787 256.048,-603.787 260.048,-597.787 264.048,-603.787 260.048,-609.787"/>
<text text-anchor="middle" x="293.388" y="-628" font-family="Helvetica,sans-Serif" font-size="10.00"> #m_mirror_val</text>
<text text-anchor="middle" x="293.388" y="-618" font-family="Helvetica,sans-Serif" font-size="10.00">#my_value</text>
</g>
</g>
</svg>
        <g id="navigator" transform="translate(0 0)" fill="#404254">
                <rect fill="#f2f5e9" fill-opacity="0.5" stroke="#606060" stroke-width=".5" x="0" y="0" width="60" height="60"/>
                <use id="zoomplus" xlink:href="#zoomPlus" x="17" y="9" onmousedown="handleZoom(evt,'in')"/>
                <use id="zoomminus" xlink:href="#zoomMin" x="42" y="9" onmousedown="handleZoom(evt,'out')"/>
                <use id="reset" xlink:href="#resetDef" x="30" y="36" onmousedown="handleReset()"/>
                <g id="arrowUp" xlink:href="#dirArrow" transform="translate(30 24)" onmousedown="handlePan(0,-1)">
                  <use xlink:href="#rim" fill="#404040">
                        <set attributeName="fill" to="#808080" begin="arrowUp.mouseover" end="arrowUp.mouseout"/>
                  </use>
                  <path fill="none" stroke="white" stroke-width="1.5" d="M0,-3.0v7 M-2.5,-0.5L0,-3.0L2.5,-0.5"/>
                </g>
                <g id="arrowRight" xlink:href="#dirArrow" transform="rotate(90) translate(36 -43)" onmousedown="handlePan(1,0)">
                  <use xlink:href="#rim" fill="#404040">
                        <set attributeName="fill" to="#808080" begin="arrowRight.mouseover" end="arrowRight.mouseout"/>
                  </use>
                  <path fill="none" stroke="white" stroke-width="1.5" d="M0,-3.0v7 M-2.5,-0.5L0,-3.0L2.5,-0.5"/>
                </g>
                <g id="arrowDown" xlink:href="#dirArrow" transform="rotate(180) translate(-30 -48)" onmousedown="handlePan(0,1)">
                  <use xlink:href="#rim" fill="#404040">
                        <set attributeName="fill" to="#808080" begin="arrowDown.mouseover" end="arrowDown.mouseout"/>
                  </use>
                  <path fill="none" stroke="white" stroke-width="1.5" d="M0,-3.0v7 M-2.5,-0.5L0,-3.0L2.5,-0.5"/>
                </g>
                <g id="arrowLeft" xlink:href="#dirArrow" transform="rotate(270) translate(-36 17)" onmousedown="handlePan(-1,0)">
                  <use xlink:href="#rim" fill="#404040">
                        <set attributeName="fill" to="#808080" begin="arrowLeft.mouseover" end="arrowLeft.mouseout"/>
                  </use>
                  <path fill="none" stroke="white" stroke-width="1.5" d="M0,-3.0v7 M-2.5,-0.5L0,-3.0L2.5,-0.5"/>
                </g>
        </g>
        <svg viewBox="0 0 15 15" width="100%" height="30px" preserveAspectRatio="xMaxYMin meet">
         <g id="arrow_out" transform="scale(0.3 0.3)">
          <a xlink:href="classgs_1_1cnf_1_1gs__config_3_01bool_01_4__coll__graph_org.svg" target="_base">
           <rect id="button" ry="5" rx="5" y="6" x="6" height="38" width="38"
                fill="#f2f5e9" fill-opacity="0.5" stroke="#606060" stroke-width="1.0"/>
           <path id="arrow"
             d="M 11.500037,31.436501 C 11.940474,20.09759 22.043105,11.32322 32.158766,21.979434 L 37.068811,17.246167 C 37.068811,17.246167 37.088388,32 37.088388,32 L 22.160133,31.978069 C 22.160133,31.978069 26.997745,27.140456 26.997745,27.140456 C 18.528582,18.264221 13.291696,25.230495 11.500037,31.436501 z"
             style="fill:#404040;"/>
          </a>
         </g>
        </svg>
</svg>
