<?xml version="1.0" encoding="UTF-8" standalone="no"?>
<!DOCTYPE svg PUBLIC "-//W3C//DTD SVG 1.1//EN"
 "http://www.w3.org/Graphics/SVG/1.1/DTD/svg11.dtd">
<!-- Generated by graphviz version 2.36.0 (20140111.2315)
 -->
<!-- Title: sr_param&lt; uint64_t &gt; Pages: 1 -->
<svg width="210pt" height="1090pt"
 viewBox="0.00 0.00 210.00 1090.00" xmlns="http://www.w3.org/2000/svg" xmlns:xlink="http://www.w3.org/1999/xlink">
<g id="graph0" class="graph" transform="scale(1 1) rotate(0) translate(4 1086)">
<title>sr_param&lt; uint64_t &gt;</title>
<polygon fill="white" stroke="none" points="-4,4 -4,-1086 206,-1086 206,4 -4,4"/>
<!-- Node1 -->
<g id="node1" class="node"><title>Node1</title>
<polygon fill="#bfbfbf" stroke="black" points="2.5,-1 2.5,-289 157.5,-289 157.5,-1 2.5,-1"/>
<text text-anchor="middle" x="80" y="-277" font-family="Helvetica,sans-Serif" font-size="10.00">sr_param&lt; uint64_t &gt;</text>
<polyline fill="none" stroke="black" points="2.5,-270 157.5,-270 "/>
<text text-anchor="start" x="10.5" y="-258" font-family="Helvetica,sans-Serif" font-size="10.00">+ SR_PARAM_HEAD</text>
<text text-anchor="start" x="10.5" y="-247" font-family="Helvetica,sans-Serif" font-size="10.00">+ GC_SPECIALISATIONS</text>
<text text-anchor="start" x="10.5" y="-236" font-family="Helvetica,sans-Serif" font-size="10.00">_ARITHMETIC_OPERATORS</text>
<text text-anchor="start" x="10.5" y="-225" font-family="Helvetica,sans-Serif" font-size="10.00">+ GC_SPECIALISATIONS</text>
<text text-anchor="start" x="10.5" y="-214" font-family="Helvetica,sans-Serif" font-size="10.00">_BINARY_OPERATORS</text>
<text text-anchor="start" x="10.5" y="-203" font-family="Helvetica,sans-Serif" font-size="10.00">+ GC_SPECIALISATIONS</text>
<text text-anchor="start" x="10.5" y="-192" font-family="Helvetica,sans-Serif" font-size="10.00">_INCREMENT_OPERATORS</text>
<text text-anchor="start" x="10.5" y="-181" font-family="Helvetica,sans-Serif" font-size="10.00">+ GC_SPECIALISATIONS</text>
<text text-anchor="start" x="10.5" y="-170" font-family="Helvetica,sans-Serif" font-size="10.00">_DECREMENT_OPERATORS</text>
<text text-anchor="start" x="10.5" y="-159" font-family="Helvetica,sans-Serif" font-size="10.00">+ SR_PARAM_DELEGATE</text>
<polyline fill="none" stroke="black" points="2.5,-152 157.5,-152 "/>
<text text-anchor="start" x="10.5" y="-140" font-family="Helvetica,sans-Serif" font-size="10.00">+ sr_param()</text>
<text text-anchor="start" x="10.5" y="-129" font-family="Helvetica,sans-Serif" font-size="10.00">+ sr_param()</text>
<text text-anchor="start" x="10.5" y="-118" font-family="Helvetica,sans-Serif" font-size="10.00">+ sr_param()</text>
<text text-anchor="start" x="10.5" y="-107" font-family="Helvetica,sans-Serif" font-size="10.00">+ sr_param()</text>
<text text-anchor="start" x="10.5" y="-96" font-family="Helvetica,sans-Serif" font-size="10.00">+ sr_param()</text>
<text text-anchor="start" x="10.5" y="-85" font-family="Helvetica,sans-Serif" font-size="10.00">+ sr_param()</text>
<text text-anchor="start" x="10.5" y="-74" font-family="Helvetica,sans-Serif" font-size="10.00">+ sr_param()</text>
<text text-anchor="start" x="10.5" y="-63" font-family="Helvetica,sans-Serif" font-size="10.00">+ sr_param()</text>
<text text-anchor="start" x="10.5" y="-52" font-family="Helvetica,sans-Serif" font-size="10.00">+ sr_param()</text>
<text text-anchor="start" x="10.5" y="-41" font-family="Helvetica,sans-Serif" font-size="10.00">+ sr_param()</text>
<text text-anchor="start" x="10.5" y="-30" font-family="Helvetica,sans-Serif" font-size="10.00">and 6 more...</text>
<text text-anchor="start" x="10.5" y="-19" font-family="Helvetica,sans-Serif" font-size="10.00">+ static_convertValueToString()</text>
<text text-anchor="start" x="10.5" y="-8" font-family="Helvetica,sans-Serif" font-size="10.00">+ static_deserialize()</text>
</g>
<!-- Node2 -->
<g id="node2" class="node"><title>Node2</title>
<g id="a_node2"><a xlink:href="classsr__param__t.html" target="_top" xlink:title="{sr_param_t\&lt; uint64_t \&gt;\n|# my_value\l# return_string\l# m_mirror_param\l# m_mirror_val\l|+ operator+=()\l+ operator&#45;=()\l+ operator/=()\l+ operator*=()\l+ operator+()\l+ operator&#45;()\l+ operator/()\l+ operator*()\l+ operator%=()\l+ operator^=()\land 27 more...\l# mirror_callback()\l# convertStringToValue()\l}">
<polygon fill="white" stroke="black" points="17.5,-329 17.5,-551 142.5,-551 142.5,-329 17.5,-329"/>
<text text-anchor="middle" x="80" y="-539" font-family="Helvetica,sans-Serif" font-size="10.00">sr_param_t&lt; uint64_t &gt;</text>
<polyline fill="none" stroke="black" points="17.5,-532 142.5,-532 "/>
<text text-anchor="start" x="25.5" y="-520" font-family="Helvetica,sans-Serif" font-size="10.00"># my_value</text>
<text text-anchor="start" x="25.5" y="-509" font-family="Helvetica,sans-Serif" font-size="10.00"># return_string</text>
<text text-anchor="start" x="25.5" y="-498" font-family="Helvetica,sans-Serif" font-size="10.00"># m_mirror_param</text>
<text text-anchor="start" x="25.5" y="-487" font-family="Helvetica,sans-Serif" font-size="10.00"># m_mirror_val</text>
<polyline fill="none" stroke="black" points="17.5,-480 142.5,-480 "/>
<text text-anchor="start" x="25.5" y="-468" font-family="Helvetica,sans-Serif" font-size="10.00">+ operator+=()</text>
<text text-anchor="start" x="25.5" y="-457" font-family="Helvetica,sans-Serif" font-size="10.00">+ operator&#45;=()</text>
<text text-anchor="start" x="25.5" y="-446" font-family="Helvetica,sans-Serif" font-size="10.00">+ operator/=()</text>
<text text-anchor="start" x="25.5" y="-435" font-family="Helvetica,sans-Serif" font-size="10.00">+ operator*=()</text>
<text text-anchor="start" x="25.5" y="-424" font-family="Helvetica,sans-Serif" font-size="10.00">+ operator+()</text>
<text text-anchor="start" x="25.5" y="-413" font-family="Helvetica,sans-Serif" font-size="10.00">+ operator&#45;()</text>
<text text-anchor="start" x="25.5" y="-402" font-family="Helvetica,sans-Serif" font-size="10.00">+ operator/()</text>
<text text-anchor="start" x="25.5" y="-391" font-family="Helvetica,sans-Serif" font-size="10.00">+ operator*()</text>
<text text-anchor="start" x="25.5" y="-380" font-family="Helvetica,sans-Serif" font-size="10.00">+ operator%=()</text>
<text text-anchor="start" x="25.5" y="-369" font-family="Helvetica,sans-Serif" font-size="10.00">+ operator^=()</text>
<text text-anchor="start" x="25.5" y="-358" font-family="Helvetica,sans-Serif" font-size="10.00">and 27 more...</text>
<text text-anchor="start" x="25.5" y="-347" font-family="Helvetica,sans-Serif" font-size="10.00"># mirror_callback()</text>
<text text-anchor="start" x="25.5" y="-336" font-family="Helvetica,sans-Serif" font-size="10.00"># convertStringToValue()</text>
</a>
</g>
</g>
<!-- Node2&#45;&gt;Node1 -->
<g id="edge1" class="edge"><title>Node2&#45;&gt;Node1</title>
<path fill="none" stroke="midnightblue" d="M80,-318.6C80,-308.897 80,-299.037 80,-289.196"/>
<polygon fill="none" stroke="midnightblue" points="76.5001,-318.647 80,-328.647 83.5001,-318.647 76.5001,-318.647"/>
</g>
<!-- Node3 -->
<g id="node3" class="node"><title>Node3</title>
<g id="a_node3"><a xlink:href="classsr__param__base.html" target="_top" xlink:title="{sr_param_base\n||+ sr_param_base()\l+ setProperty()\l+ getProperty()\l+ getProperties()\l+ deleteProperty()\l+ exists()\l+ add_properties()\l}">
<polygon fill="white" stroke="black" points="12,-862.5 12,-985.5 110,-985.5 110,-862.5 12,-862.5"/>
<text text-anchor="middle" x="61" y="-973.5" font-family="Helvetica,sans-Serif" font-size="10.00">sr_param_base</text>
<polyline fill="none" stroke="black" points="12,-966.5 110,-966.5 "/>
<text text-anchor="middle" x="61" y="-954.5" font-family="Helvetica,sans-Serif" font-size="10.00"> </text>
<polyline fill="none" stroke="black" points="12,-947.5 110,-947.5 "/>
<text text-anchor="start" x="20" y="-935.5" font-family="Helvetica,sans-Serif" font-size="10.00">+ sr_param_base()</text>
<text text-anchor="start" x="20" y="-924.5" font-family="Helvetica,sans-Serif" font-size="10.00">+ setProperty()</text>
<text text-anchor="start" x="20" y="-913.5" font-family="Helvetica,sans-Serif" font-size="10.00">+ getProperty()</text>
<text text-anchor="start" x="20" y="-902.5" font-family="Helvetica,sans-Serif" font-size="10.00">+ getProperties()</text>
<text text-anchor="start" x="20" y="-891.5" font-family="Helvetica,sans-Serif" font-size="10.00">+ deleteProperty()</text>
<text text-anchor="start" x="20" y="-880.5" font-family="Helvetica,sans-Serif" font-size="10.00">+ exists()</text>
<text text-anchor="start" x="20" y="-869.5" font-family="Helvetica,sans-Serif" font-size="10.00">+ add_properties()</text>
</a>
</g>
</g>
<!-- Node3&#45;&gt;Node2 -->
<g id="edge2" class="edge"><title>Node3&#45;&gt;Node2</title>
<path fill="none" stroke="midnightblue" d="M61.8544,-852.046C62.8571,-786.581 64.9295,-686.694 69,-600 69.7397,-584.245 70.6954,-567.624 71.7341,-551.303"/>
<polygon fill="none" stroke="midnightblue" points="58.3518,-852.198 61.7025,-862.249 65.351,-852.303 58.3518,-852.198"/>
</g>
<!-- Node5 -->
<g id="node5" class="node"><title>Node5</title>
<g id="a_node5"><a xlink:href="classsr__param__t.html" target="_top" xlink:title="Template specialized base class for configuration parameters. ">
<polygon fill="white" stroke="black" points="77.5,-601 77.5,-823 202.5,-823 202.5,-601 77.5,-601"/>
<text text-anchor="middle" x="140" y="-811" font-family="Helvetica,sans-Serif" font-size="10.00">sr_param_t&lt; T &gt;</text>
<polyline fill="none" stroke="black" points="77.5,-804 202.5,-804 "/>
<text text-anchor="start" x="85.5" y="-792" font-family="Helvetica,sans-Serif" font-size="10.00"># my_value</text>
<text text-anchor="start" x="85.5" y="-781" font-family="Helvetica,sans-Serif" font-size="10.00"># return_string</text>
<text text-anchor="start" x="85.5" y="-770" font-family="Helvetica,sans-Serif" font-size="10.00"># m_mirror_param</text>
<text text-anchor="start" x="85.5" y="-759" font-family="Helvetica,sans-Serif" font-size="10.00"># m_mirror_val</text>
<polyline fill="none" stroke="black" points="77.5,-752 202.5,-752 "/>
<text text-anchor="start" x="85.5" y="-740" font-family="Helvetica,sans-Serif" font-size="10.00">+ operator+=()</text>
<text text-anchor="start" x="85.5" y="-729" font-family="Helvetica,sans-Serif" font-size="10.00">+ operator&#45;=()</text>
<text text-anchor="start" x="85.5" y="-718" font-family="Helvetica,sans-Serif" font-size="10.00">+ operator/=()</text>
<text text-anchor="start" x="85.5" y="-707" font-family="Helvetica,sans-Serif" font-size="10.00">+ operator*=()</text>
<text text-anchor="start" x="85.5" y="-696" font-family="Helvetica,sans-Serif" font-size="10.00">+ operator+()</text>
<text text-anchor="start" x="85.5" y="-685" font-family="Helvetica,sans-Serif" font-size="10.00">+ operator&#45;()</text>
<text text-anchor="start" x="85.5" y="-674" font-family="Helvetica,sans-Serif" font-size="10.00">+ operator/()</text>
<text text-anchor="start" x="85.5" y="-663" font-family="Helvetica,sans-Serif" font-size="10.00">+ operator*()</text>
<text text-anchor="start" x="85.5" y="-652" font-family="Helvetica,sans-Serif" font-size="10.00">+ operator%=()</text>
<text text-anchor="start" x="85.5" y="-641" font-family="Helvetica,sans-Serif" font-size="10.00">+ operator^=()</text>
<text text-anchor="start" x="85.5" y="-630" font-family="Helvetica,sans-Serif" font-size="10.00">and 27 more...</text>
<text text-anchor="start" x="85.5" y="-619" font-family="Helvetica,sans-Serif" font-size="10.00"># mirror_callback()</text>
<text text-anchor="start" x="85.5" y="-608" font-family="Helvetica,sans-Serif" font-size="10.00"># convertStringToValue()</text>
</a>
</g>
</g>
<!-- Node3&#45;&gt;Node5 -->
<g id="edge5" class="edge"><title>Node3&#45;&gt;Node5</title>
<path fill="none" stroke="midnightblue" d="M87.4015,-852.819C91.0131,-843.218 94.7895,-833.18 98.5894,-823.079"/>
<polygon fill="none" stroke="midnightblue" points="84.0953,-851.667 83.8501,-862.259 90.647,-854.132 84.0953,-851.667"/>
</g>
<!-- Node4 -->
<g id="node4" class="node"><title>Node4</title>
<polygon fill="white" stroke="#bfbfbf" points="0,-1024.5 0,-1081.5 122,-1081.5 122,-1024.5 0,-1024.5"/>
<text text-anchor="middle" x="61" y="-1069.5" font-family="Helvetica,sans-Serif" font-size="10.00">gs::cnf::gs_param_base</text>
<polyline fill="none" stroke="#bfbfbf" points="0,-1062.5 122,-1062.5 "/>
<text text-anchor="middle" x="61" y="-1050.5" font-family="Helvetica,sans-Serif" font-size="10.00"> </text>
<polyline fill="none" stroke="#bfbfbf" points="0,-1043.5 122,-1043.5 "/>
<text text-anchor="middle" x="61" y="-1031.5" font-family="Helvetica,sans-Serif" font-size="10.00"> </text>
</g>
<!-- Node4&#45;&gt;Node3 -->
<g id="edge3" class="edge"><title>Node4&#45;&gt;Node3</title>
<path fill="none" stroke="midnightblue" d="M61,-1014.28C61,-1005.25 61,-995.384 61,-985.607"/>
<polygon fill="none" stroke="midnightblue" points="57.5001,-1014.44 61,-1024.44 64.5001,-1014.44 57.5001,-1014.44"/>
</g>
<!-- Node5&#45;&gt;Node2 -->
<g id="edge4" class="edge"><title>Node5&#45;&gt;Node2</title>
<path fill="none" stroke="orange" d="M113.286,-590.786C110.365,-577.642 107.402,-564.309 104.51,-551.294"/>
<polygon fill="orange" stroke="orange" points="109.923,-591.789 115.509,-600.791 116.756,-590.27 109.923,-591.789"/>
<text text-anchor="middle" x="138" y="-573.5" font-family="Helvetica,sans-Serif" font-size="10.00"> &lt; uint64_t &gt;</text>
</g>
</g>
</svg>
