<?xml version="1.0" encoding="UTF-8" standalone="no"?>
<!DOCTYPE svg PUBLIC "-//W3C//DTD SVG 1.1//EN"
 "http://www.w3.org/Graphics/SVG/1.1/DTD/svg11.dtd">
<!-- Generated by graphviz version 2.38.0 (20140413.2041)
 -->
<!-- Title: sr_param&lt; unsigned int &gt; Pages: 1 -->
<svg width="561pt" height="1005pt"
 viewBox="0.00 0.00 561.00 1005.00" xmlns="http://www.w3.org/2000/svg" xmlns:xlink="http://www.w3.org/1999/xlink">
<g id="graph0" class="graph" transform="scale(1 1) rotate(0) translate(4 1001)">
<title>sr_param&lt; unsigned int &gt;</title>
<polygon fill="white" stroke="none" points="-4,4 -4,-1001 557,-1001 557,4 -4,4"/>
<!-- Node1 -->
<g id="node1" class="node"><title>Node1</title>
<polygon fill="#bfbfbf" stroke="black" points="284,-0.5 284,-233.5 439,-233.5 439,-0.5 284,-0.5"/>
<text text-anchor="start" x="292" y="-221.5" font-family="Helvetica,sans-Serif" font-size="10.00">sr_param&lt; unsigned</text>
<text text-anchor="middle" x="361.5" y="-210.5" font-family="Helvetica,sans-Serif" font-size="10.00"> int &gt;</text>
<polyline fill="none" stroke="black" points="284,-203.5 439,-203.5 "/>
<text text-anchor="start" x="292" y="-191.5" font-family="Helvetica,sans-Serif" font-size="10.00">+ SR_PARAM_HEAD</text>
<text text-anchor="start" x="292" y="-180.5" font-family="Helvetica,sans-Serif" font-size="10.00">+ GC_SPECIALISATIONS</text>
<text text-anchor="start" x="292" y="-169.5" font-family="Helvetica,sans-Serif" font-size="10.00">_ARITHMETIC_OPERATORS</text>
<text text-anchor="start" x="292" y="-158.5" font-family="Helvetica,sans-Serif" font-size="10.00">+ GC_SPECIALISATIONS</text>
<text text-anchor="start" x="292" y="-147.5" font-family="Helvetica,sans-Serif" font-size="10.00">_BINARY_OPERATORS</text>
<text text-anchor="start" x="292" y="-136.5" font-family="Helvetica,sans-Serif" font-size="10.00">+ GC_SPECIALISATIONS</text>
<text text-anchor="start" x="292" y="-125.5" font-family="Helvetica,sans-Serif" font-size="10.00">_INCREMENT_OPERATORS</text>
<text text-anchor="start" x="292" y="-114.5" font-family="Helvetica,sans-Serif" font-size="10.00">+ GC_SPECIALISATIONS</text>
<text text-anchor="start" x="292" y="-103.5" font-family="Helvetica,sans-Serif" font-size="10.00">_DECREMENT_OPERATORS</text>
<text text-anchor="start" x="292" y="-92.5" font-family="Helvetica,sans-Serif" font-size="10.00">+ SR_PARAM_DELEGATE</text>
<polyline fill="none" stroke="black" points="284,-85.5 439,-85.5 "/>
<text text-anchor="start" x="292" y="-73.5" font-family="Helvetica,sans-Serif" font-size="10.00">+ sr_param()</text>
<text text-anchor="start" x="292" y="-62.5" font-family="Helvetica,sans-Serif" font-size="10.00">+ sr_param()</text>
<text text-anchor="start" x="292" y="-51.5" font-family="Helvetica,sans-Serif" font-size="10.00">+ getTypeString()</text>
<text text-anchor="start" x="292" y="-40.5" font-family="Helvetica,sans-Serif" font-size="10.00">+ getType()</text>
<text text-anchor="start" x="292" y="-29.5" font-family="Helvetica,sans-Serif" font-size="10.00">+ convertValueToString()</text>
<text text-anchor="start" x="292" y="-18.5" font-family="Helvetica,sans-Serif" font-size="10.00">+ static_convertValueToString()</text>
<text text-anchor="start" x="292" y="-7.5" font-family="Helvetica,sans-Serif" font-size="10.00">+ static_deserialize()</text>
</g>
<!-- Node2 -->
<g id="node2" class="node"><title>Node2</title>
<g id="a_node2"><a xlink:href="classsr__param__t.html" target="_top" xlink:title="{sr_param_t\&lt; unsigned\l int \&gt;\n||+ operator+=()\l+ operator&#45;=()\l+ operator/=()\l+ operator*=()\l+ operator+()\l+ operator&#45;()\l+ operator/()\l+ operator*()\l+ operator%=()\l+ operator^=()\land 27 more...\l# mirror_callback()\l# convertStringToValue()\l}">
<polygon fill="white" stroke="black" points="299,-271.5 299,-471.5 424,-471.5 424,-271.5 299,-271.5"/>
<text text-anchor="start" x="307" y="-459.5" font-family="Helvetica,sans-Serif" font-size="10.00">sr_param_t&lt; unsigned</text>
<text text-anchor="middle" x="361.5" y="-448.5" font-family="Helvetica,sans-Serif" font-size="10.00"> int &gt;</text>
<polyline fill="none" stroke="black" points="299,-441.5 424,-441.5 "/>
<text text-anchor="middle" x="361.5" y="-429.5" font-family="Helvetica,sans-Serif" font-size="10.00"> </text>
<polyline fill="none" stroke="black" points="299,-422.5 424,-422.5 "/>
<text text-anchor="start" x="307" y="-410.5" font-family="Helvetica,sans-Serif" font-size="10.00">+ operator+=()</text>
<text text-anchor="start" x="307" y="-399.5" font-family="Helvetica,sans-Serif" font-size="10.00">+ operator&#45;=()</text>
<text text-anchor="start" x="307" y="-388.5" font-family="Helvetica,sans-Serif" font-size="10.00">+ operator/=()</text>
<text text-anchor="start" x="307" y="-377.5" font-family="Helvetica,sans-Serif" font-size="10.00">+ operator*=()</text>
<text text-anchor="start" x="307" y="-366.5" font-family="Helvetica,sans-Serif" font-size="10.00">+ operator+()</text>
<text text-anchor="start" x="307" y="-355.5" font-family="Helvetica,sans-Serif" font-size="10.00">+ operator&#45;()</text>
<text text-anchor="start" x="307" y="-344.5" font-family="Helvetica,sans-Serif" font-size="10.00">+ operator/()</text>
<text text-anchor="start" x="307" y="-333.5" font-family="Helvetica,sans-Serif" font-size="10.00">+ operator*()</text>
<text text-anchor="start" x="307" y="-322.5" font-family="Helvetica,sans-Serif" font-size="10.00">+ operator%=()</text>
<text text-anchor="start" x="307" y="-311.5" font-family="Helvetica,sans-Serif" font-size="10.00">+ operator^=()</text>
<text text-anchor="start" x="307" y="-300.5" font-family="Helvetica,sans-Serif" font-size="10.00">and 27 more...</text>
<text text-anchor="start" x="307" y="-289.5" font-family="Helvetica,sans-Serif" font-size="10.00"># mirror_callback()</text>
<text text-anchor="start" x="307" y="-278.5" font-family="Helvetica,sans-Serif" font-size="10.00"># convertStringToValue()</text>
</a>
</g>
</g>
<!-- Node2&#45;&gt;Node1 -->
<g id="edge1" class="edge"><title>Node2&#45;&gt;Node1</title>
<path fill="none" stroke="midnightblue" d="M361.5,-261.157C361.5,-252.004 361.5,-242.73 361.5,-233.532"/>
<polygon fill="none" stroke="midnightblue" points="358,-261.43 361.5,-271.43 365,-261.43 358,-261.43"/>
</g>
<!-- Node2&#45;&gt;Node2 -->
<g id="edge8" class="edge"><title>Node2&#45;&gt;Node2</title>
<path fill="none" stroke="#404040" d="M424.278,-392.064C434.764,-389.187 442,-382.332 442,-371.5 442,-365.068 439.449,-360.039 435.182,-356.412"/>
<polygon fill="none" stroke="#404040" points="435.002,-356.322 427.845,-357.203 424.278,-350.936 431.435,-350.054 435.002,-356.322"/>
<text text-anchor="middle" x="481.5" y="-369" font-family="Helvetica,sans-Serif" font-size="10.00"> #m_mirror_param</text>
</g>
<!-- Node3 -->
<g id="node3" class="node"><title>Node3</title>
<g id="a_node3"><a xlink:href="classsr__param__base.html" target="_top" xlink:title="{sr_param_base\n||+ sr_param_base()\l+ setProperty()\l+ getProperty()\l+ getProperties()\l+ deleteProperty()\l+ exists()\l+ add_properties()\l}">
<polygon fill="white" stroke="black" points="300.5,-767.5 300.5,-890.5 398.5,-890.5 398.5,-767.5 300.5,-767.5"/>
<text text-anchor="middle" x="349.5" y="-878.5" font-family="Helvetica,sans-Serif" font-size="10.00">sr_param_base</text>
<polyline fill="none" stroke="black" points="300.5,-871.5 398.5,-871.5 "/>
<text text-anchor="middle" x="349.5" y="-859.5" font-family="Helvetica,sans-Serif" font-size="10.00"> </text>
<polyline fill="none" stroke="black" points="300.5,-852.5 398.5,-852.5 "/>
<text text-anchor="start" x="308.5" y="-840.5" font-family="Helvetica,sans-Serif" font-size="10.00">+ sr_param_base()</text>
<text text-anchor="start" x="308.5" y="-829.5" font-family="Helvetica,sans-Serif" font-size="10.00">+ setProperty()</text>
<text text-anchor="start" x="308.5" y="-818.5" font-family="Helvetica,sans-Serif" font-size="10.00">+ getProperty()</text>
<text text-anchor="start" x="308.5" y="-807.5" font-family="Helvetica,sans-Serif" font-size="10.00">+ getProperties()</text>
<text text-anchor="start" x="308.5" y="-796.5" font-family="Helvetica,sans-Serif" font-size="10.00">+ deleteProperty()</text>
<text text-anchor="start" x="308.5" y="-785.5" font-family="Helvetica,sans-Serif" font-size="10.00">+ exists()</text>
<text text-anchor="start" x="308.5" y="-774.5" font-family="Helvetica,sans-Serif" font-size="10.00">+ add_properties()</text>
</a>
</g>
</g>
<!-- Node3&#45;&gt;Node2 -->
<g id="edge2" class="edge"><title>Node3&#45;&gt;Node2</title>
<path fill="none" stroke="midnightblue" d="M351.37,-757.015C353.387,-680.458 356.613,-557.994 358.882,-471.884"/>
<polygon fill="none" stroke="midnightblue" points="347.871,-756.953 351.106,-767.042 354.868,-757.138 347.871,-756.953"/>
</g>
<!-- Node9 -->
<g id="node9" class="node"><title>Node9</title>
<g id="a_node9"><a xlink:href="classsr__param__t.html" target="_top" xlink:title="Template specialized base class for configuration parameters. ">
<polygon fill="white" stroke="black" points="194,-519.5 194,-708.5 319,-708.5 319,-519.5 194,-519.5"/>
<text text-anchor="middle" x="256.5" y="-696.5" font-family="Helvetica,sans-Serif" font-size="10.00">sr_param_t&lt; T &gt;</text>
<polyline fill="none" stroke="black" points="194,-689.5 319,-689.5 "/>
<text text-anchor="middle" x="256.5" y="-677.5" font-family="Helvetica,sans-Serif" font-size="10.00"> </text>
<polyline fill="none" stroke="black" points="194,-670.5 319,-670.5 "/>
<text text-anchor="start" x="202" y="-658.5" font-family="Helvetica,sans-Serif" font-size="10.00">+ operator+=()</text>
<text text-anchor="start" x="202" y="-647.5" font-family="Helvetica,sans-Serif" font-size="10.00">+ operator&#45;=()</text>
<text text-anchor="start" x="202" y="-636.5" font-family="Helvetica,sans-Serif" font-size="10.00">+ operator/=()</text>
<text text-anchor="start" x="202" y="-625.5" font-family="Helvetica,sans-Serif" font-size="10.00">+ operator*=()</text>
<text text-anchor="start" x="202" y="-614.5" font-family="Helvetica,sans-Serif" font-size="10.00">+ operator+()</text>
<text text-anchor="start" x="202" y="-603.5" font-family="Helvetica,sans-Serif" font-size="10.00">+ operator&#45;()</text>
<text text-anchor="start" x="202" y="-592.5" font-family="Helvetica,sans-Serif" font-size="10.00">+ operator/()</text>
<text text-anchor="start" x="202" y="-581.5" font-family="Helvetica,sans-Serif" font-size="10.00">+ operator*()</text>
<text text-anchor="start" x="202" y="-570.5" font-family="Helvetica,sans-Serif" font-size="10.00">+ operator%=()</text>
<text text-anchor="start" x="202" y="-559.5" font-family="Helvetica,sans-Serif" font-size="10.00">+ operator^=()</text>
<text text-anchor="start" x="202" y="-548.5" font-family="Helvetica,sans-Serif" font-size="10.00">and 27 more...</text>
<text text-anchor="start" x="202" y="-537.5" font-family="Helvetica,sans-Serif" font-size="10.00"># mirror_callback()</text>
<text text-anchor="start" x="202" y="-526.5" font-family="Helvetica,sans-Serif" font-size="10.00"># convertStringToValue()</text>
</a>
</g>
</g>
<!-- Node3&#45;&gt;Node9 -->
<g id="edge10" class="edge"><title>Node3&#45;&gt;Node9</title>
<path fill="none" stroke="midnightblue" d="M333.266,-757.409C330.13,-747.056 326.541,-736.641 322.5,-727 319.97,-720.964 317.166,-714.857 314.184,-708.775"/>
<polygon fill="none" stroke="midnightblue" points="329.985,-758.661 336.134,-767.289 336.707,-756.709 329.985,-758.661"/>
</g>
<!-- Node4 -->
<g id="node4" class="node"><title>Node4</title>
<polygon fill="white" stroke="#bfbfbf" points="288.5,-934 288.5,-991 410.5,-991 410.5,-934 288.5,-934"/>
<text text-anchor="middle" x="349.5" y="-979" font-family="Helvetica,sans-Serif" font-size="10.00">gs::cnf::gs_param_base</text>
<polyline fill="none" stroke="#bfbfbf" points="288.5,-972 410.5,-972 "/>
<text text-anchor="middle" x="349.5" y="-960" font-family="Helvetica,sans-Serif" font-size="10.00"> </text>
<polyline fill="none" stroke="#bfbfbf" points="288.5,-953 410.5,-953 "/>
<text text-anchor="middle" x="349.5" y="-941" font-family="Helvetica,sans-Serif" font-size="10.00"> </text>
</g>
<!-- Node4&#45;&gt;Node3 -->
<g id="edge3" class="edge"><title>Node4&#45;&gt;Node3</title>
<path fill="none" stroke="midnightblue" d="M349.5,-923.628C349.5,-913.293 349.5,-901.831 349.5,-890.572"/>
<polygon fill="none" stroke="midnightblue" points="346,-923.933 349.5,-933.933 353,-923.933 346,-923.933"/>
</g>
<!-- Node5 -->
<g id="node5" class="node"><title>Node5</title>
<g id="a_node5"><a xlink:href="classunsigned_01int_01_5.html" target="_top" xlink:title="{unsigned int *\n||}">
<polygon fill="white" stroke="black" points="389.5,-585.5 389.5,-642.5 465.5,-642.5 465.5,-585.5 389.5,-585.5"/>
<text text-anchor="middle" x="427.5" y="-630.5" font-family="Helvetica,sans-Serif" font-size="10.00">unsigned int *</text>
<polyline fill="none" stroke="black" points="389.5,-623.5 465.5,-623.5 "/>
<text text-anchor="middle" x="427.5" y="-611.5" font-family="Helvetica,sans-Serif" font-size="10.00"> </text>
<polyline fill="none" stroke="black" points="389.5,-604.5 465.5,-604.5 "/>
<text text-anchor="middle" x="427.5" y="-592.5" font-family="Helvetica,sans-Serif" font-size="10.00"> </text>
</a>
</g>
</g>
<!-- Node5&#45;&gt;Node2 -->
<g id="edge4" class="edge"><title>Node5&#45;&gt;Node2</title>
<path fill="none" stroke="#404040" d="M419.929,-585.412C413.009,-560.197 402.305,-521.192 391.94,-483.421"/>
<polygon fill="none" stroke="#404040" points="391.914,-483.327 386.469,-478.6 388.738,-471.755 394.184,-476.483 391.914,-483.327"/>
<text text-anchor="middle" x="429" y="-493" font-family="Helvetica,sans-Serif" font-size="10.00"> #m_mirror_val</text>
</g>
<!-- Node6 -->
<g id="node6" class="node"><title>Node6</title>
<g id="a_node6"><a xlink:title="STL class. ">
<polygon fill="white" stroke="#bfbfbf" points="17.5,-800.5 17.5,-857.5 77.5,-857.5 77.5,-800.5 17.5,-800.5"/>
<text text-anchor="middle" x="47.5" y="-845.5" font-family="Helvetica,sans-Serif" font-size="10.00">std::string</text>
<polyline fill="none" stroke="#bfbfbf" points="17.5,-838.5 77.5,-838.5 "/>
<text text-anchor="middle" x="47.5" y="-826.5" font-family="Helvetica,sans-Serif" font-size="10.00"> </text>
<polyline fill="none" stroke="#bfbfbf" points="17.5,-819.5 77.5,-819.5 "/>
<text text-anchor="middle" x="47.5" y="-807.5" font-family="Helvetica,sans-Serif" font-size="10.00"> </text>
</a>
</g>
</g>
<!-- Node6&#45;&gt;Node2 -->
<g id="edge5" class="edge"><title>Node6&#45;&gt;Node2</title>
<path fill="none" stroke="#404040" d="M47.2935,-800.33C48.2127,-742.49 57.5736,-606.879 121.5,-519 162.854,-462.152 233.627,-422.903 287.635,-399.442"/>
<polygon fill="none" stroke="#404040" points="287.84,-399.355 291.804,-393.332 298.889,-394.675 294.925,-400.698 287.84,-399.355"/>
<text text-anchor="middle" x="153" y="-611.5" font-family="Helvetica,sans-Serif" font-size="10.00"> #return_string</text>
</g>
<!-- Node6&#45;&gt;Node9 -->
<g id="edge12" class="edge"><title>Node6&#45;&gt;Node9</title>
<path fill="none" stroke="#404040" d="M57.6157,-800.143C66.395,-778.563 80.6587,-748.775 99.5,-727 123.11,-699.715 154.663,-675.554 183.289,-656.723"/>
<polygon fill="none" stroke="#404040" points="183.593,-656.527 186.473,-649.916 193.683,-650.03 190.804,-656.642 183.593,-656.527"/>
<text text-anchor="middle" x="131" y="-735.5" font-family="Helvetica,sans-Serif" font-size="10.00"> #return_string</text>
</g>
<!-- Node7 -->
<g id="node7" class="node"><title>Node7</title>
<g id="a_node7"><a xlink:title="STL class. ">
<polygon fill="white" stroke="#bfbfbf" points="0,-928.5 0,-996.5 95,-996.5 95,-928.5 0,-928.5"/>
<text text-anchor="start" x="8" y="-984.5" font-family="Helvetica,sans-Serif" font-size="10.00">std::basic_string&lt;</text>
<text text-anchor="middle" x="47.5" y="-973.5" font-family="Helvetica,sans-Serif" font-size="10.00"> char &gt;</text>
<polyline fill="none" stroke="#bfbfbf" points="0,-966.5 95,-966.5 "/>
<text text-anchor="middle" x="47.5" y="-954.5" font-family="Helvetica,sans-Serif" font-size="10.00"> </text>
<polyline fill="none" stroke="#bfbfbf" points="0,-947.5 95,-947.5 "/>
<text text-anchor="middle" x="47.5" y="-935.5" font-family="Helvetica,sans-Serif" font-size="10.00"> </text>
</a>
</g>
</g>
<!-- Node7&#45;&gt;Node6 -->
<g id="edge6" class="edge"><title>Node7&#45;&gt;Node6</title>
<path fill="none" stroke="midnightblue" d="M47.5,-918.251C47.5,-898.372 47.5,-875.372 47.5,-857.838"/>
<polygon fill="none" stroke="midnightblue" points="44.0001,-918.317 47.5,-928.317 51.0001,-918.317 44.0001,-918.317"/>
</g>
<!-- Node8 -->
<g id="node8" class="node"><title>Node8</title>
<g id="a_node8"><a xlink:href="classunsigned_01int.html" target="_top" xlink:title="{unsigned int\n||}">
<polygon fill="white" stroke="black" points="484,-585.5 484,-642.5 553,-642.5 553,-585.5 484,-585.5"/>
<text text-anchor="middle" x="518.5" y="-630.5" font-family="Helvetica,sans-Serif" font-size="10.00">unsigned int</text>
<polyline fill="none" stroke="black" points="484,-623.5 553,-623.5 "/>
<text text-anchor="middle" x="518.5" y="-611.5" font-family="Helvetica,sans-Serif" font-size="10.00"> </text>
<polyline fill="none" stroke="black" points="484,-604.5 553,-604.5 "/>
<text text-anchor="middle" x="518.5" y="-592.5" font-family="Helvetica,sans-Serif" font-size="10.00"> </text>
</a>
</g>
</g>
<!-- Node8&#45;&gt;Node2 -->
<g id="edge7" class="edge"><title>Node8&#45;&gt;Node2</title>
<path fill="none" stroke="#404040" d="M509.457,-585.376C500.37,-559.599 484.942,-520.623 465.5,-490 455.738,-474.624 443.982,-459.266 431.939,-444.964"/>
<polygon fill="none" stroke="#404040" points="431.823,-444.83 424.879,-442.887 424.001,-435.729 430.946,-437.672 431.823,-444.83"/>
<text text-anchor="middle" x="497" y="-493" font-family="Helvetica,sans-Serif" font-size="10.00"> #my_value</text>
</g>
<!-- Node9&#45;&gt;Node2 -->
<g id="edge9" class="edge"><title>Node9&#45;&gt;Node2</title>
<path fill="none" stroke="orange" d="M266.88,-509.453C268.75,-502.77 270.939,-496.229 273.5,-490 279.945,-474.325 288.979,-458.865 298.823,-444.566"/>
<polygon fill="orange" stroke="orange" points="263.442,-508.772 264.363,-519.327 270.225,-510.502 263.442,-508.772"/>
<text text-anchor="middle" x="310.5" y="-493" font-family="Helvetica,sans-Serif" font-size="10.00"> &lt; unsigned int &gt;</text>
</g>
<!-- Node10 -->
<g id="node10" class="node"><title>Node10</title>
<polygon fill="white" stroke="#bfbfbf" points="106.5,-800.5 106.5,-857.5 202.5,-857.5 202.5,-800.5 106.5,-800.5"/>
<text text-anchor="middle" x="154.5" y="-845.5" font-family="Helvetica,sans-Serif" font-size="10.00">sr_param_t&lt; T &gt; *</text>
<polyline fill="none" stroke="#bfbfbf" points="106.5,-838.5 202.5,-838.5 "/>
<text text-anchor="middle" x="154.5" y="-826.5" font-family="Helvetica,sans-Serif" font-size="10.00"> </text>
<polyline fill="none" stroke="#bfbfbf" points="106.5,-819.5 202.5,-819.5 "/>
<text text-anchor="middle" x="154.5" y="-807.5" font-family="Helvetica,sans-Serif" font-size="10.00"> </text>
</g>
<!-- Node10&#45;&gt;Node9 -->
<g id="edge11" class="edge"><title>Node10&#45;&gt;Node9</title>
<path fill="none" stroke="#404040" d="M156.322,-800.439C158.489,-779.558 163.215,-750.544 173.5,-727 177.392,-718.092 182.105,-709.221 187.287,-700.597"/>
<polygon fill="none" stroke="#404040" points="187.429,-700.371 187.237,-693.162 193.817,-690.212 194.009,-697.421 187.429,-700.371"/>
<text text-anchor="middle" x="213" y="-735.5" font-family="Helvetica,sans-Serif" font-size="10.00"> #m_mirror_param</text>
</g>
<!-- Node11 -->
<g id="node11" class="node"><title>Node11</title>
<polygon fill="white" stroke="#bfbfbf" points="242,-800.5 242,-857.5 271,-857.5 271,-800.5 242,-800.5"/>
<text text-anchor="middle" x="256.5" y="-845.5" font-family="Helvetica,sans-Serif" font-size="10.00">T</text>
<polyline fill="none" stroke="#bfbfbf" points="242,-838.5 271,-838.5 "/>
<text text-anchor="middle" x="256.5" y="-826.5" font-family="Helvetica,sans-Serif" font-size="10.00"> </text>
<polyline fill="none" stroke="#bfbfbf" points="242,-819.5 271,-819.5 "/>
<text text-anchor="middle" x="256.5" y="-807.5" font-family="Helvetica,sans-Serif" font-size="10.00"> </text>
</g>
<!-- Node11&#45;&gt;Node9 -->
<g id="edge13" class="edge"><title>Node11&#45;&gt;Node9</title>
<path fill="none" stroke="#404040" d="M256.5,-800.154C256.5,-779.539 256.5,-750.04 256.5,-720.63"/>
<polygon fill="none" stroke="#404040" points="256.5,-720.502 252.5,-714.502 256.5,-708.502 260.5,-714.502 256.5,-720.502"/>
<text text-anchor="middle" x="289" y="-741" font-family="Helvetica,sans-Serif" font-size="10.00"> #m_mirror_val</text>
<text text-anchor="middle" x="289" y="-730" font-family="Helvetica,sans-Serif" font-size="10.00">#my_value</text>
</g>
</g>
</svg>
