<?xml version="1.0" encoding="UTF-8" standalone="no"?>
<!DOCTYPE svg PUBLIC "-//W3C//DTD SVG 1.1//EN"
 "http://www.w3.org/Graphics/SVG/1.1/DTD/svg11.dtd">
<!-- Generated by graphviz version 2.26.0 (20091210.2329)
 -->
<!-- Title: leon3_funclt_trap::ADDX_imm Pages: 1 -->
<svg width="1471pt" height="1182pt"
 viewBox="0.00 0.00 1471.00 1182.00" xmlns="http://www.w3.org/2000/svg" xmlns:xlink="http://www.w3.org/1999/xlink">
<g id="graph1" class="graph" transform="scale(1 1) rotate(0) translate(4 1178)">
<title>leon3_funclt_trap::ADDX_imm</title>
<polygon fill="white" stroke="white" points="-4,5 -4,-1178 1468,-1178 1468,5 -4,5"/>
<!-- Node1 -->
<g id="node1" class="node"><title>Node1</title>
<polygon fill="#bfbfbf" stroke="black" points="177.5,-0.5 177.5,-167.5 294.5,-167.5 294.5,-0.5 177.5,-0.5"/>
<text text-anchor="start" x="185.5" y="-154.5" font-family="Helvetica,sans-Serif" font-size="10.00">leon3_funclt_trap::</text>
<text text-anchor="middle" x="236" y="-141.5" font-family="Helvetica,sans-Serif" font-size="10.00">ADDX_imm</text>
<polyline fill="none" stroke="black" points="177.5,-133.5 294.5,-133.5 "/>
<text text-anchor="middle" x="236" y="-120.5" font-family="Helvetica,sans-Serif" font-size="10.00"> </text>
<polyline fill="none" stroke="black" points="177.5,-112.5 294.5,-112.5 "/>
<text text-anchor="start" x="185.5" y="-99.5" font-family="Helvetica,sans-Serif" font-size="10.00">+ ADDX_imm()</text>
<text text-anchor="start" x="185.5" y="-86.5" font-family="Helvetica,sans-Serif" font-size="10.00">+ behavior()</text>
<text text-anchor="start" x="185.5" y="-73.5" font-family="Helvetica,sans-Serif" font-size="10.00">+ replicate()</text>
<text text-anchor="start" x="185.5" y="-60.5" font-family="Helvetica,sans-Serif" font-size="10.00">+ getInstructionName()</text>
<text text-anchor="start" x="185.5" y="-47.5" font-family="Helvetica,sans-Serif" font-size="10.00">+ getId()</text>
<text text-anchor="start" x="185.5" y="-34.5" font-family="Helvetica,sans-Serif" font-size="10.00">+ setParams()</text>
<text text-anchor="start" x="185.5" y="-21.5" font-family="Helvetica,sans-Serif" font-size="10.00">+ getMnemonic()</text>
<text text-anchor="start" x="185.5" y="-8.5" font-family="Helvetica,sans-Serif" font-size="10.00">+ ~ADDX_imm()</text>
</g>
<!-- Node2 -->
<g id="node2" class="node"><title>Node2</title>
<a xlink:href="classleon3__funclt__trap_1_1WB__plain__op.html" target="_top" xlink:title="{leon3_funclt_trap::\lWB_plain_op\n||+ WB_plain_op()\l+ ~WB_plain_op()\l# WB_plain()\l}">
<polygon fill="white" stroke="black" points="324.5,-207 324.5,-309 421.5,-309 421.5,-207 324.5,-207"/>
<text text-anchor="start" x="332.5" y="-296" font-family="Helvetica,sans-Serif" font-size="10.00">leon3_funclt_trap::</text>
<text text-anchor="middle" x="373" y="-283" font-family="Helvetica,sans-Serif" font-size="10.00">WB_plain_op</text>
<polyline fill="none" stroke="black" points="324.5,-275 421.5,-275 "/>
<text text-anchor="middle" x="373" y="-262" font-family="Helvetica,sans-Serif" font-size="10.00"> </text>
<polyline fill="none" stroke="black" points="324.5,-254 421.5,-254 "/>
<text text-anchor="start" x="332.5" y="-241" font-family="Helvetica,sans-Serif" font-size="10.00">+ WB_plain_op()</text>
<text text-anchor="start" x="332.5" y="-228" font-family="Helvetica,sans-Serif" font-size="10.00">+ ~WB_plain_op()</text>
<text text-anchor="start" x="332.5" y="-215" font-family="Helvetica,sans-Serif" font-size="10.00"># WB_plain()</text>
</a>
</g>
<!-- Node2&#45;&gt;Node1 -->
<g id="edge2" class="edge"><title>Node2&#45;&gt;Node1</title>
<path fill="none" stroke="midnightblue" d="M326.379,-198.787C316.162,-185.812 305.221,-171.916 294.603,-158.431"/>
<polygon fill="none" stroke="midnightblue" points="323.7,-201.044 332.636,-206.735 329.2,-196.713 323.7,-201.044"/>
</g>
<!-- Node3 -->
<g id="node4" class="node"><title>Node3</title>
<a xlink:href="classleon3__funclt__trap_1_1Instruction.html" target="_top" xlink:title="{leon3_funclt_trap::\lInstruction\n||+ Instruction()\l+ behavior()\l+ replicate()\l+ setParams()\l+ getInstructionName()\l+ getMnemonic()\l+ getId()\l+ annull()\l+ flush()\l+ stall()\land 7 more...\l# IncrementPC()\l}">
<polygon fill="white" stroke="black" points="665.5,-386.5 665.5,-605.5 782.5,-605.5 782.5,-386.5 665.5,-386.5"/>
<text text-anchor="start" x="673.5" y="-592.5" font-family="Helvetica,sans-Serif" font-size="10.00">leon3_funclt_trap::</text>
<text text-anchor="middle" x="724" y="-579.5" font-family="Helvetica,sans-Serif" font-size="10.00">Instruction</text>
<polyline fill="none" stroke="black" points="665.5,-571.5 782.5,-571.5 "/>
<text text-anchor="middle" x="724" y="-558.5" font-family="Helvetica,sans-Serif" font-size="10.00"> </text>
<polyline fill="none" stroke="black" points="665.5,-550.5 782.5,-550.5 "/>
<text text-anchor="start" x="673.5" y="-537.5" font-family="Helvetica,sans-Serif" font-size="10.00">+ Instruction()</text>
<text text-anchor="start" x="673.5" y="-524.5" font-family="Helvetica,sans-Serif" font-size="10.00">+ behavior()</text>
<text text-anchor="start" x="673.5" y="-511.5" font-family="Helvetica,sans-Serif" font-size="10.00">+ replicate()</text>
<text text-anchor="start" x="673.5" y="-498.5" font-family="Helvetica,sans-Serif" font-size="10.00">+ setParams()</text>
<text text-anchor="start" x="673.5" y="-485.5" font-family="Helvetica,sans-Serif" font-size="10.00">+ getInstructionName()</text>
<text text-anchor="start" x="673.5" y="-472.5" font-family="Helvetica,sans-Serif" font-size="10.00">+ getMnemonic()</text>
<text text-anchor="start" x="673.5" y="-459.5" font-family="Helvetica,sans-Serif" font-size="10.00">+ getId()</text>
<text text-anchor="start" x="673.5" y="-446.5" font-family="Helvetica,sans-Serif" font-size="10.00">+ annull()</text>
<text text-anchor="start" x="673.5" y="-433.5" font-family="Helvetica,sans-Serif" font-size="10.00">+ flush()</text>
<text text-anchor="start" x="673.5" y="-420.5" font-family="Helvetica,sans-Serif" font-size="10.00">+ stall()</text>
<text text-anchor="start" x="673.5" y="-407.5" font-family="Helvetica,sans-Serif" font-size="10.00">and 7 more...</text>
<text text-anchor="start" x="673.5" y="-394.5" font-family="Helvetica,sans-Serif" font-size="10.00"># IncrementPC()</text>
</a>
</g>
<!-- Node3&#45;&gt;Node2 -->
<g id="edge4" class="edge"><title>Node3&#45;&gt;Node2</title>
<path fill="none" stroke="midnightblue" d="M656.634,-450.322C587.88,-403.702 482.844,-332.481 421.745,-291.052"/>
<polygon fill="none" stroke="midnightblue" points="655.01,-453.449 665.25,-456.164 658.938,-447.655 655.01,-453.449"/>
</g>
<!-- Node4 -->
<g id="node6" class="node"><title>Node4</title>
<a xlink:href="classtrap_1_1InstructionBase.html" target="_top" xlink:title="{trap::InstructionBase\n||+ getInstructionName()\l+ getMnemonic()\l+ getId()\l}">
<polygon fill="white" stroke="black" points="1346.5,-767.5 1346.5,-856.5 1463.5,-856.5 1463.5,-767.5 1346.5,-767.5"/>
<text text-anchor="middle" x="1405" y="-843.5" font-family="Helvetica,sans-Serif" font-size="10.00">trap::InstructionBase</text>
<polyline fill="none" stroke="black" points="1346.5,-835.5 1463.5,-835.5 "/>
<text text-anchor="middle" x="1405" y="-822.5" font-family="Helvetica,sans-Serif" font-size="10.00"> </text>
<polyline fill="none" stroke="black" points="1346.5,-814.5 1463.5,-814.5 "/>
<text text-anchor="start" x="1354.5" y="-801.5" font-family="Helvetica,sans-Serif" font-size="10.00">+ getInstructionName()</text>
<text text-anchor="start" x="1354.5" y="-788.5" font-family="Helvetica,sans-Serif" font-size="10.00">+ getMnemonic()</text>
<text text-anchor="start" x="1354.5" y="-775.5" font-family="Helvetica,sans-Serif" font-size="10.00">+ getId()</text>
</a>
</g>
<!-- Node4&#45;&gt;Node3 -->
<g id="edge6" class="edge"><title>Node4&#45;&gt;Node3</title>
<path fill="none" stroke="midnightblue" d="M1375.05,-758.625C1364.39,-741.64 1351.62,-723.304 1338,-708 1298.96,-664.124 1288.44,-650.437 1236,-624 1083.21,-546.973 880.872,-514.211 782.586,-502.122"/>
<polygon fill="none" stroke="midnightblue" points="1372.21,-760.68 1380.43,-767.36 1378.17,-757.01 1372.21,-760.68"/>
</g>
<!-- Node5 -->
<g id="node8" class="node"><title>Node5</title>
<a xlink:href="classleon3__funclt__trap_1_1PinTLM__out__32.html" target="_top" xlink:title="{leon3_funclt_trap::\lPinTLM_out_32\n||+ SK_HAS_SIGNALS()\l+ PinTLM_out_32()\l+ send_pin_req()\l+ on_run()\l}">
<polygon fill="white" stroke="black" points="214,-754.5 214,-869.5 334,-869.5 334,-754.5 214,-754.5"/>
<text text-anchor="start" x="222" y="-856.5" font-family="Helvetica,sans-Serif" font-size="10.00">leon3_funclt_trap::</text>
<text text-anchor="middle" x="274" y="-843.5" font-family="Helvetica,sans-Serif" font-size="10.00">PinTLM_out_32</text>
<polyline fill="none" stroke="black" points="214,-835.5 334,-835.5 "/>
<text text-anchor="middle" x="274" y="-822.5" font-family="Helvetica,sans-Serif" font-size="10.00"> </text>
<polyline fill="none" stroke="black" points="214,-814.5 334,-814.5 "/>
<text text-anchor="start" x="222" y="-801.5" font-family="Helvetica,sans-Serif" font-size="10.00">+ SK_HAS_SIGNALS()</text>
<text text-anchor="start" x="222" y="-788.5" font-family="Helvetica,sans-Serif" font-size="10.00">+ PinTLM_out_32()</text>
<text text-anchor="start" x="222" y="-775.5" font-family="Helvetica,sans-Serif" font-size="10.00">+ send_pin_req()</text>
<text text-anchor="start" x="222" y="-762.5" font-family="Helvetica,sans-Serif" font-size="10.00">+ on_run()</text>
</a>
</g>
<!-- Node5&#45;&gt;Node3 -->
<g id="edge8" class="edge"><title>Node5&#45;&gt;Node3</title>
<path fill="none" stroke="#404040" d="M289.593,-754.175C303.979,-702.531 324.5,-633.578 334,-624 379.209,-578.419 553.967,-533.594 653.524,-511.039"/>
<polygon fill="none" stroke="#404040" points="653.57,-511.029 658.548,-505.812 665.279,-508.401 660.301,-513.618 653.57,-511.029"/>
<text text-anchor="middle" x="352.5" y="-654.5" font-family="Helvetica,sans-Serif" font-size="10.00"> #irqAck</text>
</g>
<!-- Node6 -->
<g id="node10" class="node"><title>Node6</title>
<polygon fill="white" stroke="#bfbfbf" points="0,-1038.5 0,-1101.5 64,-1101.5 64,-1038.5 0,-1038.5"/>
<text text-anchor="middle" x="32" y="-1088.5" font-family="Helvetica,sans-Serif" font-size="10.00">sc_module</text>
<polyline fill="none" stroke="#bfbfbf" points="0,-1080.5 64,-1080.5 "/>
<text text-anchor="middle" x="32" y="-1067.5" font-family="Helvetica,sans-Serif" font-size="10.00"> </text>
<polyline fill="none" stroke="#bfbfbf" points="0,-1059.5 64,-1059.5 "/>
<text text-anchor="middle" x="32" y="-1046.5" font-family="Helvetica,sans-Serif" font-size="10.00"> </text>
</g>
<!-- Node6&#45;&gt;Node5 -->
<g id="edge10" class="edge"><title>Node6&#45;&gt;Node5</title>
<path fill="none" stroke="midnightblue" d="M41.6432,-1028.35C47.9686,-1007.88 57.9294,-983.836 73,-966 90.7593,-944.982 100.484,-944.298 126,-934 159.394,-920.522 175.371,-936.467 205,-916 222.026,-904.239 235.951,-886.78 246.72,-869.51"/>
<polygon fill="none" stroke="midnightblue" points="38.2476,-1027.5 38.8236,-1038.08 44.9706,-1029.45 38.2476,-1027.5"/>
</g>
<!-- Node7 -->
<g id="node12" class="node"><title>Node7</title>
<polygon fill="white" stroke="#bfbfbf" points="81.5,-1038.5 81.5,-1101.5 110.5,-1101.5 110.5,-1038.5 81.5,-1038.5"/>
<text text-anchor="middle" x="96" y="-1088.5" font-family="Helvetica,sans-Serif" font-size="10.00">in</text>
<polyline fill="none" stroke="#bfbfbf" points="81.5,-1080.5 110.5,-1080.5 "/>
<text text-anchor="middle" x="96" y="-1067.5" font-family="Helvetica,sans-Serif" font-size="10.00"> </text>
<polyline fill="none" stroke="#bfbfbf" points="81.5,-1059.5 110.5,-1059.5 "/>
<text text-anchor="middle" x="96" y="-1046.5" font-family="Helvetica,sans-Serif" font-size="10.00"> </text>
</g>
<!-- Node7&#45;&gt;Node5 -->
<g id="edge12" class="edge"><title>Node7&#45;&gt;Node5</title>
<path fill="none" stroke="#404040" d="M97.8596,-1038.27C101.373,-1007.44 111.42,-961.384 140,-934 161.644,-913.262 180.736,-933.602 205,-916 218.208,-906.419 229.616,-893.475 239.14,-879.977"/>
<polygon fill="none" stroke="#404040" points="239.403,-879.581 239.4,-872.37 246.054,-869.592 246.058,-876.804 239.403,-879.581"/>
<text text-anchor="middle" x="151.5" y="-938.5" font-family="Helvetica,sans-Serif" font-size="10.00"> +run</text>
</g>
<!-- Node8 -->
<g id="node14" class="node"><title>Node8</title>
<polygon fill="white" stroke="#bfbfbf" points="163,-1038.5 163,-1101.5 193,-1101.5 193,-1038.5 163,-1038.5"/>
<text text-anchor="middle" x="178" y="-1088.5" font-family="Helvetica,sans-Serif" font-size="10.00">out</text>
<polyline fill="none" stroke="#bfbfbf" points="163,-1080.5 193,-1080.5 "/>
<text text-anchor="middle" x="178" y="-1067.5" font-family="Helvetica,sans-Serif" font-size="10.00"> </text>
<polyline fill="none" stroke="#bfbfbf" points="163,-1059.5 193,-1059.5 "/>
<text text-anchor="middle" x="178" y="-1046.5" font-family="Helvetica,sans-Serif" font-size="10.00"> </text>
</g>
<!-- Node8&#45;&gt;Node5 -->
<g id="edge14" class="edge"><title>Node8&#45;&gt;Node5</title>
<path fill="none" stroke="#404040" d="M189.771,-1038.36C204.271,-999.397 229.315,-932.091 248.336,-880.971"/>
<polygon fill="none" stroke="#404040" points="248.357,-880.916 246.7,-873.898 252.542,-869.669 254.198,-876.688 248.357,-880.916"/>
<text text-anchor="middle" x="244.5" y="-938.5" font-family="Helvetica,sans-Serif" font-size="10.00"> +status</text>
</g>
<!-- Node8&#45;&gt;Node5 -->
<g id="edge20" class="edge"><title>Node8&#45;&gt;Node5</title>
<path fill="none" stroke="#404040" d="M167.718,-1038.24C160.282,-1009.08 154.452,-965.714 173,-934 181.238,-919.914 193.046,-927.107 205,-916 216.273,-905.526 226.601,-892.86 235.641,-880.024"/>
<polygon fill="none" stroke="#404040" points="235.881,-879.669 235.933,-872.458 242.609,-869.732 242.557,-876.943 235.881,-879.669"/>
<text text-anchor="middle" x="197.5" y="-938.5" font-family="Helvetica,sans-Serif" font-size="10.00"> +initSignal</text>
</g>
<!-- Node9 -->
<g id="node16" class="node"><title>Node9</title>
<a xlink:href="classsc__event.html" target="_top" xlink:title="{sc_event\n||}">
<polygon fill="white" stroke="black" points="246,-1038.5 246,-1101.5 302,-1101.5 302,-1038.5 246,-1038.5"/>
<text text-anchor="middle" x="274" y="-1088.5" font-family="Helvetica,sans-Serif" font-size="10.00">sc_event</text>
<polyline fill="none" stroke="black" points="246,-1080.5 302,-1080.5 "/>
<text text-anchor="middle" x="274" y="-1067.5" font-family="Helvetica,sans-Serif" font-size="10.00"> </text>
<polyline fill="none" stroke="black" points="246,-1059.5 302,-1059.5 "/>
<text text-anchor="middle" x="274" y="-1046.5" font-family="Helvetica,sans-Serif" font-size="10.00"> </text>
</a>
</g>
<!-- Node9&#45;&gt;Node5 -->
<g id="edge16" class="edge"><title>Node9&#45;&gt;Node5</title>
<path fill="none" stroke="#404040" d="M274,-1038.36C274,-999.642 274,-932.938 274,-881.939"/>
<polygon fill="none" stroke="#404040" points="274,-881.669 270,-875.669 274,-869.669 278,-875.669 274,-881.669"/>
<text text-anchor="middle" x="288.5" y="-938.5" font-family="Helvetica,sans-Serif" font-size="10.00"> +start</text>
</g>
<!-- Node10 -->
<g id="node18" class="node"><title>Node10</title>
<a xlink:href="classbool.html" target="_top" xlink:title="{bool\n||}">
<polygon fill="white" stroke="black" points="343.5,-1038.5 343.5,-1101.5 378.5,-1101.5 378.5,-1038.5 343.5,-1038.5"/>
<text text-anchor="middle" x="361" y="-1088.5" font-family="Helvetica,sans-Serif" font-size="10.00">bool</text>
<polyline fill="none" stroke="black" points="343.5,-1080.5 378.5,-1080.5 "/>
<text text-anchor="middle" x="361" y="-1067.5" font-family="Helvetica,sans-Serif" font-size="10.00"> </text>
<polyline fill="none" stroke="black" points="343.5,-1059.5 378.5,-1059.5 "/>
<text text-anchor="middle" x="361" y="-1046.5" font-family="Helvetica,sans-Serif" font-size="10.00"> </text>
</a>
</g>
<!-- Node10&#45;&gt;Node3 -->
<g id="edge30" class="edge"><title>Node10&#45;&gt;Node3</title>
<path fill="none" stroke="#404040" d="M362.302,-1038.36C365.939,-955.373 377.06,-735.921 394,-708 453.046,-610.677 575.694,-550.059 653.701,-519.709"/>
<polygon fill="none" stroke="#404040" points="654.133,-519.544 658.316,-513.671 665.347,-515.273 661.163,-521.147 654.133,-519.544"/>
<text text-anchor="middle" x="441" y="-809.5" font-family="Helvetica,sans-Serif" font-size="10.00"> #PIPELINED_MULT</text>
</g>
<!-- Node10&#45;&gt;Node5 -->
<g id="edge18" class="edge"><title>Node10&#45;&gt;Node5</title>
<path fill="none" stroke="#404040" d="M350.332,-1038.36C337.219,-999.478 314.591,-932.374 297.366,-881.293"/>
<polygon fill="none" stroke="#404040" points="297.281,-881.04 291.574,-876.633 293.447,-869.669 299.154,-874.077 297.281,-881.04"/>
<text text-anchor="middle" x="340" y="-938.5" font-family="Helvetica,sans-Serif" font-size="10.00"> +stopped</text>
</g>
<!-- Node11 -->
<g id="node21" class="node"><title>Node11</title>
<a xlink:href="classleon3__funclt__trap_1_1Alias.html" target="_top" xlink:title="{leon3_funclt_trap::\lAlias\n||+ ~Alias()\l+ Alias()\l+ Alias()\l+ Alias()\l+ operator[]()\l+ immediateWrite()\l+ readNewValue()\l+ getReg()\l+ operator~()\l+ operator=()\land 63 more...\l}">
<polygon fill="white" stroke="black" points="497,-709 497,-915 597,-915 597,-709 497,-709"/>
<text text-anchor="start" x="505" y="-902" font-family="Helvetica,sans-Serif" font-size="10.00">leon3_funclt_trap::</text>
<text text-anchor="middle" x="547" y="-889" font-family="Helvetica,sans-Serif" font-size="10.00">Alias</text>
<polyline fill="none" stroke="black" points="497,-881 597,-881 "/>
<text text-anchor="middle" x="547" y="-868" font-family="Helvetica,sans-Serif" font-size="10.00"> </text>
<polyline fill="none" stroke="black" points="497,-860 597,-860 "/>
<text text-anchor="start" x="505" y="-847" font-family="Helvetica,sans-Serif" font-size="10.00">+ ~Alias()</text>
<text text-anchor="start" x="505" y="-834" font-family="Helvetica,sans-Serif" font-size="10.00">+ Alias()</text>
<text text-anchor="start" x="505" y="-821" font-family="Helvetica,sans-Serif" font-size="10.00">+ Alias()</text>
<text text-anchor="start" x="505" y="-808" font-family="Helvetica,sans-Serif" font-size="10.00">+ Alias()</text>
<text text-anchor="start" x="505" y="-795" font-family="Helvetica,sans-Serif" font-size="10.00">+ operator[]()</text>
<text text-anchor="start" x="505" y="-782" font-family="Helvetica,sans-Serif" font-size="10.00">+ immediateWrite()</text>
<text text-anchor="start" x="505" y="-769" font-family="Helvetica,sans-Serif" font-size="10.00">+ readNewValue()</text>
<text text-anchor="start" x="505" y="-756" font-family="Helvetica,sans-Serif" font-size="10.00">+ getReg()</text>
<text text-anchor="start" x="505" y="-743" font-family="Helvetica,sans-Serif" font-size="10.00">+ operator~()</text>
<text text-anchor="start" x="505" y="-730" font-family="Helvetica,sans-Serif" font-size="10.00">+ operator=()</text>
<text text-anchor="start" x="505" y="-717" font-family="Helvetica,sans-Serif" font-size="10.00">and 63 more...</text>
</a>
</g>
<!-- Node11&#45;&gt;Node3 -->
<g id="edge22" class="edge"><title>Node11&#45;&gt;Node3</title>
<path fill="none" stroke="#404040" d="M593.785,-708.683C607.286,-680.785 622.563,-650.887 638,-624 644.43,-612.801 651.49,-601.278 658.714,-589.951"/>
<polygon fill="none" stroke="#404040" points="658.875,-589.702 658.767,-582.491 665.381,-579.619 665.489,-586.829 658.875,-589.702"/>
<text text-anchor="middle" x="656.5" y="-680.5" font-family="Helvetica,sans-Serif" font-size="10.00"> #REGS</text>
<text text-anchor="middle" x="656.5" y="-667.5" font-family="Helvetica,sans-Serif" font-size="10.00">#LR</text>
<text text-anchor="middle" x="656.5" y="-654.5" font-family="Helvetica,sans-Serif" font-size="10.00">#PCR</text>
<text text-anchor="middle" x="656.5" y="-641.5" font-family="Helvetica,sans-Serif" font-size="10.00">#FP</text>
<text text-anchor="middle" x="656.5" y="-628.5" font-family="Helvetica,sans-Serif" font-size="10.00">#SP</text>
</g>
<!-- Node12 -->
<g id="node23" class="node"><title>Node12</title>
<a xlink:href="classint.html" target="_top" xlink:title="{int\n||}">
<polygon fill="white" stroke="black" points="167.5,-780.5 167.5,-843.5 196.5,-843.5 196.5,-780.5 167.5,-780.5"/>
<text text-anchor="middle" x="182" y="-830.5" font-family="Helvetica,sans-Serif" font-size="10.00">int</text>
<polyline fill="none" stroke="black" points="167.5,-822.5 196.5,-822.5 "/>
<text text-anchor="middle" x="182" y="-809.5" font-family="Helvetica,sans-Serif" font-size="10.00"> </text>
<polyline fill="none" stroke="black" points="167.5,-801.5 196.5,-801.5 "/>
<text text-anchor="middle" x="182" y="-788.5" font-family="Helvetica,sans-Serif" font-size="10.00"> </text>
</a>
</g>
<!-- Node12&#45;&gt;Node1 -->
<g id="edge48" class="edge"><title>Node12&#45;&gt;Node1</title>
<path fill="none" stroke="#404040" d="M184.355,-780.251C192.044,-676.592 216.621,-345.256 228.891,-179.84"/>
<polygon fill="none" stroke="#404040" points="228.901,-179.706 225.356,-173.426 229.789,-167.739 233.334,-174.018 228.901,-179.706"/>
<text text-anchor="middle" x="237" y="-358.5" font-family="Helvetica,sans-Serif" font-size="10.00"> #rs2_op</text>
<text text-anchor="middle" x="237" y="-345.5" font-family="Helvetica,sans-Serif" font-size="10.00">#rs1_op</text>
<text text-anchor="middle" x="237" y="-332.5" font-family="Helvetica,sans-Serif" font-size="10.00">#result</text>
</g>
<!-- Node12&#45;&gt;Node3 -->
<g id="edge24" class="edge"><title>Node12&#45;&gt;Node3</title>
<path fill="none" stroke="#404040" d="M184.563,-780.234C189.049,-732.64 199.92,-646.043 221,-624 280.293,-562 529.652,-521.417 653.538,-504.692"/>
<polygon fill="none" stroke="#404040" points="653.59,-504.685 659.01,-499.928 665.485,-503.101 660.066,-507.858 653.59,-504.685"/>
<text text-anchor="middle" x="263.5" y="-661" font-family="Helvetica,sans-Serif" font-size="10.00"> #NUM_REG_WIN</text>
<text text-anchor="middle" x="263.5" y="-648" font-family="Helvetica,sans-Serif" font-size="10.00">+totalInstrCycles</text>
</g>
<!-- Node13 -->
<g id="node25" class="node"><title>Node13</title>
<a xlink:href="classleon3__funclt__trap_1_1Reg32__0.html" target="_top" xlink:title="{leon3_funclt_trap::\lReg32_0\n||+ Reg32_0()\l+ operator[]()\l+ immediateWrite()\l+ readNewValue()\l+ operator~()\l+ operator=()\l+ operator+=()\l+ operator&#45;=()\l+ operator*=()\l+ operator/=()\land 57 more...\l}">
<polygon fill="white" stroke="black" points="733,-709 733,-915 833,-915 833,-709 733,-709"/>
<text text-anchor="start" x="741" y="-902" font-family="Helvetica,sans-Serif" font-size="10.00">leon3_funclt_trap::</text>
<text text-anchor="middle" x="783" y="-889" font-family="Helvetica,sans-Serif" font-size="10.00">Reg32_0</text>
<polyline fill="none" stroke="black" points="733,-881 833,-881 "/>
<text text-anchor="middle" x="783" y="-868" font-family="Helvetica,sans-Serif" font-size="10.00"> </text>
<polyline fill="none" stroke="black" points="733,-860 833,-860 "/>
<text text-anchor="start" x="741" y="-847" font-family="Helvetica,sans-Serif" font-size="10.00">+ Reg32_0()</text>
<text text-anchor="start" x="741" y="-834" font-family="Helvetica,sans-Serif" font-size="10.00">+ operator[]()</text>
<text text-anchor="start" x="741" y="-821" font-family="Helvetica,sans-Serif" font-size="10.00">+ immediateWrite()</text>
<text text-anchor="start" x="741" y="-808" font-family="Helvetica,sans-Serif" font-size="10.00">+ readNewValue()</text>
<text text-anchor="start" x="741" y="-795" font-family="Helvetica,sans-Serif" font-size="10.00">+ operator~()</text>
<text text-anchor="start" x="741" y="-782" font-family="Helvetica,sans-Serif" font-size="10.00">+ operator=()</text>
<text text-anchor="start" x="741" y="-769" font-family="Helvetica,sans-Serif" font-size="10.00">+ operator+=()</text>
<text text-anchor="start" x="741" y="-756" font-family="Helvetica,sans-Serif" font-size="10.00">+ operator&#45;=()</text>
<text text-anchor="start" x="741" y="-743" font-family="Helvetica,sans-Serif" font-size="10.00">+ operator*=()</text>
<text text-anchor="start" x="741" y="-730" font-family="Helvetica,sans-Serif" font-size="10.00">+ operator/=()</text>
<text text-anchor="start" x="741" y="-717" font-family="Helvetica,sans-Serif" font-size="10.00">and 57 more...</text>
</a>
</g>
<!-- Node13&#45;&gt;Node3 -->
<g id="edge26" class="edge"><title>Node13&#45;&gt;Node3</title>
<path fill="none" stroke="#404040" d="M763.763,-708.967C758.315,-679.79 752.334,-647.757 746.703,-617.595"/>
<polygon fill="none" stroke="#404040" points="746.683,-617.49 741.65,-612.326 744.481,-605.694 749.514,-610.858 746.683,-617.49"/>
<text text-anchor="middle" x="773" y="-654.5" font-family="Helvetica,sans-Serif" font-size="10.00"> #PSR</text>
</g>
<!-- Node14 -->
<g id="node27" class="node"><title>Node14</title>
<a xlink:href="classleon3__funclt__trap_1_1Register.html" target="_top" xlink:title="{leon3_funclt_trap::\lRegister\n||+ Register()\l+ Register()\l+ immediateWrite()\l+ readNewValue()\l+ clockCycle()\l+ operator[]()\l+ operator~()\l+ operator+()\l+ operator&#45;()\l+ operator*()\land 34 more...\l}">
<polygon fill="white" stroke="black" points="791,-967 791,-1173 891,-1173 891,-967 791,-967"/>
<text text-anchor="start" x="799" y="-1160" font-family="Helvetica,sans-Serif" font-size="10.00">leon3_funclt_trap::</text>
<text text-anchor="middle" x="841" y="-1147" font-family="Helvetica,sans-Serif" font-size="10.00">Register</text>
<polyline fill="none" stroke="black" points="791,-1139 891,-1139 "/>
<text text-anchor="middle" x="841" y="-1126" font-family="Helvetica,sans-Serif" font-size="10.00"> </text>
<polyline fill="none" stroke="black" points="791,-1118 891,-1118 "/>
<text text-anchor="start" x="799" y="-1105" font-family="Helvetica,sans-Serif" font-size="10.00">+ Register()</text>
<text text-anchor="start" x="799" y="-1092" font-family="Helvetica,sans-Serif" font-size="10.00">+ Register()</text>
<text text-anchor="start" x="799" y="-1079" font-family="Helvetica,sans-Serif" font-size="10.00">+ immediateWrite()</text>
<text text-anchor="start" x="799" y="-1066" font-family="Helvetica,sans-Serif" font-size="10.00">+ readNewValue()</text>
<text text-anchor="start" x="799" y="-1053" font-family="Helvetica,sans-Serif" font-size="10.00">+ clockCycle()</text>
<text text-anchor="start" x="799" y="-1040" font-family="Helvetica,sans-Serif" font-size="10.00">+ operator[]()</text>
<text text-anchor="start" x="799" y="-1027" font-family="Helvetica,sans-Serif" font-size="10.00">+ operator~()</text>
<text text-anchor="start" x="799" y="-1014" font-family="Helvetica,sans-Serif" font-size="10.00">+ operator+()</text>
<text text-anchor="start" x="799" y="-1001" font-family="Helvetica,sans-Serif" font-size="10.00">+ operator&#45;()</text>
<text text-anchor="start" x="799" y="-988" font-family="Helvetica,sans-Serif" font-size="10.00">+ operator*()</text>
<text text-anchor="start" x="799" y="-975" font-family="Helvetica,sans-Serif" font-size="10.00">and 34 more...</text>
</a>
</g>
<!-- Node14&#45;&gt;Node13 -->
<g id="edge28" class="edge"><title>Node14&#45;&gt;Node13</title>
<path fill="none" stroke="midnightblue" d="M815.576,-956.906C812.468,-943.081 809.304,-929.009 806.231,-915.338"/>
<polygon fill="none" stroke="midnightblue" points="812.219,-957.93 817.827,-966.919 819.048,-956.395 812.219,-957.93"/>
</g>
<!-- Node15 -->
<g id="node30" class="node"><title>Node15</title>
<a xlink:href="classleon3__funclt__trap_1_1Reg32__1.html" target="_top" xlink:title="{leon3_funclt_trap::\lReg32_1\n||+ Reg32_1()\l+ operator[]()\l+ immediateWrite()\l+ readNewValue()\l+ operator~()\l+ operator=()\l+ operator+=()\l+ operator&#45;=()\l+ operator*=()\l+ operator/=()\land 57 more...\l}">
<polygon fill="white" stroke="black" points="851,-709 851,-915 951,-915 951,-709 851,-709"/>
<text text-anchor="start" x="859" y="-902" font-family="Helvetica,sans-Serif" font-size="10.00">leon3_funclt_trap::</text>
<text text-anchor="middle" x="901" y="-889" font-family="Helvetica,sans-Serif" font-size="10.00">Reg32_1</text>
<polyline fill="none" stroke="black" points="851,-881 951,-881 "/>
<text text-anchor="middle" x="901" y="-868" font-family="Helvetica,sans-Serif" font-size="10.00"> </text>
<polyline fill="none" stroke="black" points="851,-860 951,-860 "/>
<text text-anchor="start" x="859" y="-847" font-family="Helvetica,sans-Serif" font-size="10.00">+ Reg32_1()</text>
<text text-anchor="start" x="859" y="-834" font-family="Helvetica,sans-Serif" font-size="10.00">+ operator[]()</text>
<text text-anchor="start" x="859" y="-821" font-family="Helvetica,sans-Serif" font-size="10.00">+ immediateWrite()</text>
<text text-anchor="start" x="859" y="-808" font-family="Helvetica,sans-Serif" font-size="10.00">+ readNewValue()</text>
<text text-anchor="start" x="859" y="-795" font-family="Helvetica,sans-Serif" font-size="10.00">+ operator~()</text>
<text text-anchor="start" x="859" y="-782" font-family="Helvetica,sans-Serif" font-size="10.00">+ operator=()</text>
<text text-anchor="start" x="859" y="-769" font-family="Helvetica,sans-Serif" font-size="10.00">+ operator+=()</text>
<text text-anchor="start" x="859" y="-756" font-family="Helvetica,sans-Serif" font-size="10.00">+ operator&#45;=()</text>
<text text-anchor="start" x="859" y="-743" font-family="Helvetica,sans-Serif" font-size="10.00">+ operator*=()</text>
<text text-anchor="start" x="859" y="-730" font-family="Helvetica,sans-Serif" font-size="10.00">+ operator/=()</text>
<text text-anchor="start" x="859" y="-717" font-family="Helvetica,sans-Serif" font-size="10.00">and 57 more...</text>
</a>
</g>
<!-- Node14&#45;&gt;Node15 -->
<g id="edge34" class="edge"><title>Node14&#45;&gt;Node15</title>
<path fill="none" stroke="midnightblue" d="M867.301,-956.906C870.516,-943.081 873.789,-929.009 876.968,-915.338"/>
<polygon fill="none" stroke="midnightblue" points="863.828,-956.386 864.972,-966.919 870.646,-957.972 863.828,-956.386"/>
</g>
<!-- Node17 -->
<g id="node35" class="node"><title>Node17</title>
<a xlink:href="classleon3__funclt__trap_1_1Reg32__2.html" target="_top" xlink:title="{leon3_funclt_trap::\lReg32_2\n||+ Reg32_2()\l+ operator[]()\l+ immediateWrite()\l+ readNewValue()\l+ operator~()\l+ operator=()\l+ operator+=()\l+ operator&#45;=()\l+ operator*=()\l+ operator/=()\land 57 more...\l}">
<polygon fill="white" stroke="black" points="969,-709 969,-915 1069,-915 1069,-709 969,-709"/>
<text text-anchor="start" x="977" y="-902" font-family="Helvetica,sans-Serif" font-size="10.00">leon3_funclt_trap::</text>
<text text-anchor="middle" x="1019" y="-889" font-family="Helvetica,sans-Serif" font-size="10.00">Reg32_2</text>
<polyline fill="none" stroke="black" points="969,-881 1069,-881 "/>
<text text-anchor="middle" x="1019" y="-868" font-family="Helvetica,sans-Serif" font-size="10.00"> </text>
<polyline fill="none" stroke="black" points="969,-860 1069,-860 "/>
<text text-anchor="start" x="977" y="-847" font-family="Helvetica,sans-Serif" font-size="10.00">+ Reg32_2()</text>
<text text-anchor="start" x="977" y="-834" font-family="Helvetica,sans-Serif" font-size="10.00">+ operator[]()</text>
<text text-anchor="start" x="977" y="-821" font-family="Helvetica,sans-Serif" font-size="10.00">+ immediateWrite()</text>
<text text-anchor="start" x="977" y="-808" font-family="Helvetica,sans-Serif" font-size="10.00">+ readNewValue()</text>
<text text-anchor="start" x="977" y="-795" font-family="Helvetica,sans-Serif" font-size="10.00">+ operator~()</text>
<text text-anchor="start" x="977" y="-782" font-family="Helvetica,sans-Serif" font-size="10.00">+ operator=()</text>
<text text-anchor="start" x="977" y="-769" font-family="Helvetica,sans-Serif" font-size="10.00">+ operator+=()</text>
<text text-anchor="start" x="977" y="-756" font-family="Helvetica,sans-Serif" font-size="10.00">+ operator&#45;=()</text>
<text text-anchor="start" x="977" y="-743" font-family="Helvetica,sans-Serif" font-size="10.00">+ operator*=()</text>
<text text-anchor="start" x="977" y="-730" font-family="Helvetica,sans-Serif" font-size="10.00">+ operator/=()</text>
<text text-anchor="start" x="977" y="-717" font-family="Helvetica,sans-Serif" font-size="10.00">and 57 more...</text>
</a>
</g>
<!-- Node14&#45;&gt;Node17 -->
<g id="edge40" class="edge"><title>Node14&#45;&gt;Node17</title>
<path fill="none" stroke="midnightblue" d="M897.413,-1001.33C917.963,-975.214 940.837,-944.81 960,-916 962.989,-911.506 965.98,-906.852 968.941,-902.117"/>
<polygon fill="none" stroke="midnightblue" points="894.576,-999.271 891.117,-1009.29 900.066,-1003.61 894.576,-999.271"/>
</g>
<!-- Node18 -->
<g id="node38" class="node"><title>Node18</title>
<a xlink:href="classleon3__funclt__trap_1_1Reg32__3.html" target="_top" xlink:title="{leon3_funclt_trap::\lReg32_3\n||+ Reg32_3()\l+ operator[]()\l+ immediateWrite()\l+ readNewValue()\l+ operator~()\l+ operator=()\l+ operator+=()\l+ operator&#45;=()\l+ operator*=()\l+ operator/=()\land 57 more...\l}">
<polygon fill="white" stroke="black" points="615,-709 615,-915 715,-915 715,-709 615,-709"/>
<text text-anchor="start" x="623" y="-902" font-family="Helvetica,sans-Serif" font-size="10.00">leon3_funclt_trap::</text>
<text text-anchor="middle" x="665" y="-889" font-family="Helvetica,sans-Serif" font-size="10.00">Reg32_3</text>
<polyline fill="none" stroke="black" points="615,-881 715,-881 "/>
<text text-anchor="middle" x="665" y="-868" font-family="Helvetica,sans-Serif" font-size="10.00"> </text>
<polyline fill="none" stroke="black" points="615,-860 715,-860 "/>
<text text-anchor="start" x="623" y="-847" font-family="Helvetica,sans-Serif" font-size="10.00">+ Reg32_3()</text>
<text text-anchor="start" x="623" y="-834" font-family="Helvetica,sans-Serif" font-size="10.00">+ operator[]()</text>
<text text-anchor="start" x="623" y="-821" font-family="Helvetica,sans-Serif" font-size="10.00">+ immediateWrite()</text>
<text text-anchor="start" x="623" y="-808" font-family="Helvetica,sans-Serif" font-size="10.00">+ readNewValue()</text>
<text text-anchor="start" x="623" y="-795" font-family="Helvetica,sans-Serif" font-size="10.00">+ operator~()</text>
<text text-anchor="start" x="623" y="-782" font-family="Helvetica,sans-Serif" font-size="10.00">+ operator=()</text>
<text text-anchor="start" x="623" y="-769" font-family="Helvetica,sans-Serif" font-size="10.00">+ operator+=()</text>
<text text-anchor="start" x="623" y="-756" font-family="Helvetica,sans-Serif" font-size="10.00">+ operator&#45;=()</text>
<text text-anchor="start" x="623" y="-743" font-family="Helvetica,sans-Serif" font-size="10.00">+ operator*=()</text>
<text text-anchor="start" x="623" y="-730" font-family="Helvetica,sans-Serif" font-size="10.00">+ operator/=()</text>
<text text-anchor="start" x="623" y="-717" font-family="Helvetica,sans-Serif" font-size="10.00">and 57 more...</text>
</a>
</g>
<!-- Node14&#45;&gt;Node18 -->
<g id="edge44" class="edge"><title>Node14&#45;&gt;Node18</title>
<path fill="none" stroke="midnightblue" d="M784.563,-999.837C764.645,-974.026 742.595,-944.204 724,-916 721.029,-911.494 718.053,-906.83 715.104,-902.088"/>
<polygon fill="none" stroke="midnightblue" points="782.053,-1002.31 790.948,-1008.07 787.585,-998.023 782.053,-1002.31"/>
</g>
<!-- Node15&#45;&gt;Node3 -->
<g id="edge32" class="edge"><title>Node15&#45;&gt;Node3</title>
<path fill="none" stroke="#404040" d="M850.989,-722.714C831.636,-688.163 809.233,-648.167 788.681,-611.476"/>
<polygon fill="none" stroke="#404040" points="788.518,-611.185 782.096,-607.905 782.654,-600.716 789.076,-603.996 788.518,-611.185"/>
<text text-anchor="middle" x="843" y="-654.5" font-family="Helvetica,sans-Serif" font-size="10.00"> #WIM</text>
</g>
<!-- Node16 -->
<g id="node33" class="node"><title>Node16</title>
<a xlink:href="classleon3__funclt__trap_1_1MemoryInterface.html" target="_top" xlink:title="{leon3_funclt_trap::\lMemoryInterface\n||+ read_dword()\l+ read_word()\l+ read_half()\l+ read_byte()\l+ read_instr()\l+ read_dword_dbg()\l+ read_word_dbg()\l+ read_half_dbg()\l+ read_byte_dbg()\l+ write_dword()\land 12 more...\l}">
<polygon fill="white" stroke="black" points="1086.5,-709 1086.5,-915 1189.5,-915 1189.5,-709 1086.5,-709"/>
<text text-anchor="start" x="1094.5" y="-902" font-family="Helvetica,sans-Serif" font-size="10.00">leon3_funclt_trap::</text>
<text text-anchor="middle" x="1138" y="-889" font-family="Helvetica,sans-Serif" font-size="10.00">MemoryInterface</text>
<polyline fill="none" stroke="black" points="1086.5,-881 1189.5,-881 "/>
<text text-anchor="middle" x="1138" y="-868" font-family="Helvetica,sans-Serif" font-size="10.00"> </text>
<polyline fill="none" stroke="black" points="1086.5,-860 1189.5,-860 "/>
<text text-anchor="start" x="1094.5" y="-847" font-family="Helvetica,sans-Serif" font-size="10.00">+ read_dword()</text>
<text text-anchor="start" x="1094.5" y="-834" font-family="Helvetica,sans-Serif" font-size="10.00">+ read_word()</text>
<text text-anchor="start" x="1094.5" y="-821" font-family="Helvetica,sans-Serif" font-size="10.00">+ read_half()</text>
<text text-anchor="start" x="1094.5" y="-808" font-family="Helvetica,sans-Serif" font-size="10.00">+ read_byte()</text>
<text text-anchor="start" x="1094.5" y="-795" font-family="Helvetica,sans-Serif" font-size="10.00">+ read_instr()</text>
<text text-anchor="start" x="1094.5" y="-782" font-family="Helvetica,sans-Serif" font-size="10.00">+ read_dword_dbg()</text>
<text text-anchor="start" x="1094.5" y="-769" font-family="Helvetica,sans-Serif" font-size="10.00">+ read_word_dbg()</text>
<text text-anchor="start" x="1094.5" y="-756" font-family="Helvetica,sans-Serif" font-size="10.00">+ read_half_dbg()</text>
<text text-anchor="start" x="1094.5" y="-743" font-family="Helvetica,sans-Serif" font-size="10.00">+ read_byte_dbg()</text>
<text text-anchor="start" x="1094.5" y="-730" font-family="Helvetica,sans-Serif" font-size="10.00">+ write_dword()</text>
<text text-anchor="start" x="1094.5" y="-717" font-family="Helvetica,sans-Serif" font-size="10.00">and 12 more...</text>
</a>
</g>
<!-- Node16&#45;&gt;Node3 -->
<g id="edge36" class="edge"><title>Node16&#45;&gt;Node3</title>
<path fill="none" stroke="#404040" d="M1086.49,-718.687C1083.73,-715 1080.9,-711.42 1078,-708 1000.46,-616.419 872.824,-553.918 793.853,-521.652"/>
<polygon fill="none" stroke="#404040" points="793.699,-521.59 786.64,-523.061 782.567,-517.111 789.626,-515.64 793.699,-521.59"/>
<text text-anchor="middle" x="1079.5" y="-661" font-family="Helvetica,sans-Serif" font-size="10.00"> #dataMem</text>
<text text-anchor="middle" x="1079.5" y="-648" font-family="Helvetica,sans-Serif" font-size="10.00">#instrMem</text>
</g>
<!-- Node17&#45;&gt;Node3 -->
<g id="edge38" class="edge"><title>Node17&#45;&gt;Node3</title>
<path fill="none" stroke="#404040" d="M968.967,-719.874C966.051,-715.78 963.058,-711.801 960,-708 910.54,-646.52 842.526,-587.456 792.215,-547.359"/>
<polygon fill="none" stroke="#404040" points="792.13,-547.292 784.942,-546.707 782.718,-539.847 789.905,-540.432 792.13,-547.292"/>
<text text-anchor="middle" x="957.5" y="-654.5" font-family="Helvetica,sans-Serif" font-size="10.00"> #TBR</text>
</g>
<!-- Node18&#45;&gt;Node3 -->
<g id="edge42" class="edge"><title>Node18&#45;&gt;Node3</title>
<path fill="none" stroke="#404040" d="M675.557,-708.638C679.096,-681.015 683.56,-651.266 689,-624 689.429,-621.848 689.875,-619.68 690.336,-617.498"/>
<polygon fill="none" stroke="#404040" points="690.345,-617.453 687.73,-610.733 692.928,-605.734 695.543,-612.454 690.345,-617.453"/>
<text text-anchor="middle" x="716.5" y="-680.5" font-family="Helvetica,sans-Serif" font-size="10.00"> #Y</text>
<text text-anchor="middle" x="716.5" y="-667.5" font-family="Helvetica,sans-Serif" font-size="10.00">#WINREGS</text>
<text text-anchor="middle" x="716.5" y="-654.5" font-family="Helvetica,sans-Serif" font-size="10.00">#PC</text>
<text text-anchor="middle" x="716.5" y="-641.5" font-family="Helvetica,sans-Serif" font-size="10.00">#ASR</text>
<text text-anchor="middle" x="716.5" y="-628.5" font-family="Helvetica,sans-Serif" font-size="10.00">#NPC</text>
</g>
<!-- Node19 -->
<g id="node41" class="node"><title>Node19</title>
<a xlink:href="classleon3__funclt__trap_1_1RegisterBankClass.html" target="_top" xlink:title="{leon3_funclt_trap::\lRegisterBankClass\n||+ RegisterBankClass()\l+ RegisterBankClass()\l+ setNewRegister()\l+ setSize()\l+ operator[]()\l+ ~RegisterBankClass()\l}">
<polygon fill="white" stroke="black" points="1207,-741.5 1207,-882.5 1329,-882.5 1329,-741.5 1207,-741.5"/>
<text text-anchor="start" x="1215" y="-869.5" font-family="Helvetica,sans-Serif" font-size="10.00">leon3_funclt_trap::</text>
<text text-anchor="middle" x="1268" y="-856.5" font-family="Helvetica,sans-Serif" font-size="10.00">RegisterBankClass</text>
<polyline fill="none" stroke="black" points="1207,-848.5 1329,-848.5 "/>
<text text-anchor="middle" x="1268" y="-835.5" font-family="Helvetica,sans-Serif" font-size="10.00"> </text>
<polyline fill="none" stroke="black" points="1207,-827.5 1329,-827.5 "/>
<text text-anchor="start" x="1215" y="-814.5" font-family="Helvetica,sans-Serif" font-size="10.00">+ RegisterBankClass()</text>
<text text-anchor="start" x="1215" y="-801.5" font-family="Helvetica,sans-Serif" font-size="10.00">+ RegisterBankClass()</text>
<text text-anchor="start" x="1215" y="-788.5" font-family="Helvetica,sans-Serif" font-size="10.00">+ setNewRegister()</text>
<text text-anchor="start" x="1215" y="-775.5" font-family="Helvetica,sans-Serif" font-size="10.00">+ setSize()</text>
<text text-anchor="start" x="1215" y="-762.5" font-family="Helvetica,sans-Serif" font-size="10.00">+ operator[]()</text>
<text text-anchor="start" x="1215" y="-749.5" font-family="Helvetica,sans-Serif" font-size="10.00">+ ~RegisterBankClass()</text>
</a>
</g>
<!-- Node19&#45;&gt;Node3 -->
<g id="edge46" class="edge"><title>Node19&#45;&gt;Node3</title>
<path fill="none" stroke="#404040" d="M1225.01,-741.36C1196.72,-700.876 1156.08,-652.58 1108,-624 1007.16,-564.057 874.557,-527.863 794.488,-509.933"/>
<polygon fill="none" stroke="#404040" points="794.303,-509.893 787.584,-512.511 782.583,-507.316 789.302,-504.698 794.303,-509.893"/>
<text text-anchor="middle" x="1208" y="-654.5" font-family="Helvetica,sans-Serif" font-size="10.00"> #GLOBAL</text>
</g>
</g>
</svg>
