<?xml version="1.0" encoding="UTF-8" standalone="no"?>
<!DOCTYPE svg PUBLIC "-//W3C//DTD SVG 1.1//EN"
 "http://www.w3.org/Graphics/SVG/1.1/DTD/svg11.dtd">
<!-- Generated by graphviz version 2.38.0 (20140413.2041)
 -->
<!-- Title: leon3_funclt_trap::SETHI Pages: 1 -->
<!--zoomable 948 -->
<svg id="main" version="1.1" xmlns="http://www.w3.org/2000/svg" xmlns:xlink="http://www.w3.org/1999/xlink" xml:space="preserve" onload="init(evt)">
<style type="text/css"><![CDATA[
.edge:hover path { stroke: red; }
.edge:hover polygon { stroke: red; fill: red; }
]]></style>
<script type="text/javascript"><![CDATA[
var edges = document.getElementsByTagName('g');
if (edges && edges.length) {
  for (var i=0;i<edges.length;i++) {
    if (edges[i].id.substr(0,4)=='edge') {
      edges[i].setAttribute('class','edge');
    }
  }
}
]]></script>
        <defs>
                <circle id="rim" cx="0" cy="0" r="7"/>
                <circle id="rim2" cx="0" cy="0" r="3.5"/>
                <g id="zoomPlus">
                        <use xlink:href="#rim" fill="#404040">
                                <set attributeName="fill" to="#808080" begin="zoomplus.mouseover" end="zoomplus.mouseout"/>
                        </use>
                        <path d="M-4,0h8M0,-4v8" fill="none" stroke="white" stroke-width="1.5" pointer-events="none"/>
                </g>
                <g id="zoomMin">
                        <use xlink:href="#rim" fill="#404040">
                                <set attributeName="fill" to="#808080" begin="zoomminus.mouseover" end="zoomminus.mouseout"/>
                        </use>
                        <path d="M-4,0h8" fill="none" stroke="white" stroke-width="1.5" pointer-events="none"/>
                </g>
                <g id="dirArrow">
                        <path fill="none" stroke="white" stroke-width="1.5" d="M0,-3.0v7 M-2.5,-0.5L0,-3.0L2.5,-0.5"/>
                </g>
               <g id="resetDef">
                       <use xlink:href="#rim2" fill="#404040">
                               <set attributeName="fill" to="#808080" begin="reset.mouseover" end="reset.mouseout"/>
                       </use>
               </g>
        </defs>

<script type="text/javascript">
var viewWidth = 1478;
var viewHeight = 948;
var sectionId = 'dynsection-1';
</script>
<script xlink:href="svgpan.js"/>
<svg id="graph" class="graph">
<g id="viewport">
<title>leon3_funclt_trap::SETHI</title>
<polygon fill="white" stroke="none" points="-4,4 -4,-944 1474.17,-944 1474.17,4 -4,4"/>
<!-- Node1 -->
<g id="node1" class="node"><title>Node1</title>
<polygon fill="#bfbfbf" stroke="black" points="176.186,-0.5 176.186,-134.5 294.173,-134.5 294.173,-0.5 176.186,-0.5"/>
<text text-anchor="start" x="184.186" y="-122.5" font-family="Helvetica,sans-Serif" font-size="10.00">leon3_funclt_trap::</text>
<text text-anchor="middle" x="235.18" y="-112.5" font-family="Helvetica,sans-Serif" font-size="10.00">SETHI</text>
<polyline fill="none" stroke="black" points="176.186,-106.5 294.173,-106.5 "/>
<text text-anchor="middle" x="235.18" y="-94.5" font-family="Helvetica,sans-Serif" font-size="10.00"> </text>
<polyline fill="none" stroke="black" points="176.186,-88.5 294.173,-88.5 "/>
<text text-anchor="start" x="184.186" y="-76.5" font-family="Helvetica,sans-Serif" font-size="10.00">+ SETHI()</text>
<text text-anchor="start" x="184.186" y="-66.5" font-family="Helvetica,sans-Serif" font-size="10.00">+ behavior()</text>
<text text-anchor="start" x="184.186" y="-56.5" font-family="Helvetica,sans-Serif" font-size="10.00">+ replicate()</text>
<text text-anchor="start" x="184.186" y="-46.5" font-family="Helvetica,sans-Serif" font-size="10.00">+ getInstructionName()</text>
<text text-anchor="start" x="184.186" y="-36.5" font-family="Helvetica,sans-Serif" font-size="10.00">+ getId()</text>
<text text-anchor="start" x="184.186" y="-26.5" font-family="Helvetica,sans-Serif" font-size="10.00">+ setParams()</text>
<text text-anchor="start" x="184.186" y="-16.5" font-family="Helvetica,sans-Serif" font-size="10.00">+ getMnemonic()</text>
<text text-anchor="start" x="184.186" y="-6.5" font-family="Helvetica,sans-Serif" font-size="10.00">+ ~SETHI()</text>
</g>
<!-- Node2 -->
<g id="node2" class="node"><title>Node2</title>
<g id="a_node2"><a xlink:href="classleon3__funclt__trap_1_1WB__plain__op.html" target="_top" xlink:title="{leon3_funclt_trap::\lWB_plain_op\n||+ WB_plain_op()\l+ ~WB_plain_op()\l# WB_plain()\l}">
<polygon fill="white" stroke="black" points="323.04,-172.5 323.04,-256.5 421.32,-256.5 421.32,-172.5 323.04,-172.5"/>
<text text-anchor="start" x="331.04" y="-244.5" font-family="Helvetica,sans-Serif" font-size="10.00">leon3_funclt_trap::</text>
<text text-anchor="middle" x="372.18" y="-234.5" font-family="Helvetica,sans-Serif" font-size="10.00">WB_plain_op</text>
<polyline fill="none" stroke="black" points="323.04,-228.5 421.32,-228.5 "/>
<text text-anchor="middle" x="372.18" y="-216.5" font-family="Helvetica,sans-Serif" font-size="10.00"> </text>
<polyline fill="none" stroke="black" points="323.04,-210.5 421.32,-210.5 "/>
<text text-anchor="start" x="331.04" y="-198.5" font-family="Helvetica,sans-Serif" font-size="10.00">+ WB_plain_op()</text>
<text text-anchor="start" x="331.04" y="-188.5" font-family="Helvetica,sans-Serif" font-size="10.00">+ ~WB_plain_op()</text>
<text text-anchor="start" x="331.04" y="-178.5" font-family="Helvetica,sans-Serif" font-size="10.00"># WB_plain()</text>
</a>
</g>
</g>
<!-- Node2&#45;&gt;Node1 -->
<g id="edge1" class="edge"><title>Node2&#45;&gt;Node1</title>
<path fill="none" stroke="midnightblue" d="M326.331,-164.974C316.089,-154.134 305.085,-142.487 294.389,-131.167"/>
<polygon fill="none" stroke="midnightblue" points="323.876,-167.472 333.287,-172.337 328.964,-162.664 323.876,-167.472"/>
</g>
<!-- Node3 -->
<g id="node3" class="node"><title>Node3</title>
<g id="a_node3"><a xlink:href="classleon3__funclt__trap_1_1Instruction.html" target="_top" xlink:title="{leon3_funclt_trap::\lInstruction\n||+ Instruction()\l+ behavior()\l+ replicate()\l+ setParams()\l+ getInstructionName()\l+ getMnemonic()\l+ getId()\l+ annull()\l+ flush()\l+ stall()\land 7 more...\l# IncrementPC()\l}">
<polygon fill="white" stroke="black" points="663.186,-303.5 663.186,-477.5 781.173,-477.5 781.173,-303.5 663.186,-303.5"/>
<text text-anchor="start" x="671.186" y="-465.5" font-family="Helvetica,sans-Serif" font-size="10.00">leon3_funclt_trap::</text>
<text text-anchor="middle" x="722.18" y="-455.5" font-family="Helvetica,sans-Serif" font-size="10.00">Instruction</text>
<polyline fill="none" stroke="black" points="663.186,-449.5 781.173,-449.5 "/>
<text text-anchor="middle" x="722.18" y="-437.5" font-family="Helvetica,sans-Serif" font-size="10.00"> </text>
<polyline fill="none" stroke="black" points="663.186,-431.5 781.173,-431.5 "/>
<text text-anchor="start" x="671.186" y="-419.5" font-family="Helvetica,sans-Serif" font-size="10.00">+ Instruction()</text>
<text text-anchor="start" x="671.186" y="-409.5" font-family="Helvetica,sans-Serif" font-size="10.00">+ behavior()</text>
<text text-anchor="start" x="671.186" y="-399.5" font-family="Helvetica,sans-Serif" font-size="10.00">+ replicate()</text>
<text text-anchor="start" x="671.186" y="-389.5" font-family="Helvetica,sans-Serif" font-size="10.00">+ setParams()</text>
<text text-anchor="start" x="671.186" y="-379.5" font-family="Helvetica,sans-Serif" font-size="10.00">+ getInstructionName()</text>
<text text-anchor="start" x="671.186" y="-369.5" font-family="Helvetica,sans-Serif" font-size="10.00">+ getMnemonic()</text>
<text text-anchor="start" x="671.186" y="-359.5" font-family="Helvetica,sans-Serif" font-size="10.00">+ getId()</text>
<text text-anchor="start" x="671.186" y="-349.5" font-family="Helvetica,sans-Serif" font-size="10.00">+ annull()</text>
<text text-anchor="start" x="671.186" y="-339.5" font-family="Helvetica,sans-Serif" font-size="10.00">+ flush()</text>
<text text-anchor="start" x="671.186" y="-329.5" font-family="Helvetica,sans-Serif" font-size="10.00">+ stall()</text>
<text text-anchor="start" x="671.186" y="-319.5" font-family="Helvetica,sans-Serif" font-size="10.00">and 7 more...</text>
<text text-anchor="start" x="671.186" y="-309.5" font-family="Helvetica,sans-Serif" font-size="10.00"># IncrementPC()</text>
</a>
</g>
</g>
<!-- Node3&#45;&gt;Node2 -->
<g id="edge2" class="edge"><title>Node3&#45;&gt;Node2</title>
<path fill="none" stroke="midnightblue" d="M653.819,-355.515C585.464,-321.533 482.025,-270.109 421.369,-239.954"/>
<polygon fill="none" stroke="midnightblue" points="652.294,-358.666 662.807,-359.983 655.411,-352.397 652.294,-358.666"/>
</g>
<!-- Node4 -->
<g id="node4" class="node"><title>Node4</title>
<g id="a_node4"><a xlink:href="classtrap_1_1InstructionBase.html" target="_top" xlink:title="{trap::InstructionBase\n||+ getInstructionName()\l+ getMnemonic()\l+ getId()\l}">
<polygon fill="white" stroke="black" points="1352.19,-609.5 1352.19,-683.5 1470.17,-683.5 1470.17,-609.5 1352.19,-609.5"/>
<text text-anchor="middle" x="1411.18" y="-671.5" font-family="Helvetica,sans-Serif" font-size="10.00">trap::InstructionBase</text>
<polyline fill="none" stroke="black" points="1352.19,-665.5 1470.17,-665.5 "/>
<text text-anchor="middle" x="1411.18" y="-653.5" font-family="Helvetica,sans-Serif" font-size="10.00"> </text>
<polyline fill="none" stroke="black" points="1352.19,-647.5 1470.17,-647.5 "/>
<text text-anchor="start" x="1360.19" y="-635.5" font-family="Helvetica,sans-Serif" font-size="10.00">+ getInstructionName()</text>
<text text-anchor="start" x="1360.19" y="-625.5" font-family="Helvetica,sans-Serif" font-size="10.00">+ getMnemonic()</text>
<text text-anchor="start" x="1360.19" y="-615.5" font-family="Helvetica,sans-Serif" font-size="10.00">+ getId()</text>
</a>
</g>
</g>
<!-- Node4&#45;&gt;Node3 -->
<g id="edge3" class="edge"><title>Node4&#45;&gt;Node3</title>
<path fill="none" stroke="midnightblue" d="M1378.58,-601.405C1368.04,-588.592 1355.79,-575.079 1343.18,-564 1300.85,-526.813 1288.44,-517.075 1236.18,-496 1079.1,-432.649 878.939,-406.19 781.221,-396.457"/>
<polygon fill="none" stroke="midnightblue" points="1375.91,-603.674 1384.91,-609.265 1381.37,-599.282 1375.91,-603.674"/>
</g>
<!-- Node5 -->
<g id="node5" class="node"><title>Node5</title>
<g id="a_node5"><a xlink:href="classleon3__funclt__trap_1_1PinTLM__out__32.html" target="_top" xlink:title="{leon3_funclt_trap::\lPinTLM_out_32\n||+ SK_HAS_SIGNALS()\l+ PinTLM_out_32()\l+ send_pin_req()\l+ on_run()\l}">
<polygon fill="white" stroke="black" points="213.354,-599.5 213.354,-693.5 333.006,-693.5 333.006,-599.5 213.354,-599.5"/>
<text text-anchor="start" x="221.354" y="-681.5" font-family="Helvetica,sans-Serif" font-size="10.00">leon3_funclt_trap::</text>
<text text-anchor="middle" x="273.18" y="-671.5" font-family="Helvetica,sans-Serif" font-size="10.00">PinTLM_out_32</text>
<polyline fill="none" stroke="black" points="213.354,-665.5 333.006,-665.5 "/>
<text text-anchor="middle" x="273.18" y="-653.5" font-family="Helvetica,sans-Serif" font-size="10.00"> </text>
<polyline fill="none" stroke="black" points="213.354,-647.5 333.006,-647.5 "/>
<text text-anchor="start" x="221.354" y="-635.5" font-family="Helvetica,sans-Serif" font-size="10.00">+ SK_HAS_SIGNALS()</text>
<text text-anchor="start" x="221.354" y="-625.5" font-family="Helvetica,sans-Serif" font-size="10.00">+ PinTLM_out_32()</text>
<text text-anchor="start" x="221.354" y="-615.5" font-family="Helvetica,sans-Serif" font-size="10.00">+ send_pin_req()</text>
<text text-anchor="start" x="221.354" y="-605.5" font-family="Helvetica,sans-Serif" font-size="10.00">+ on_run()</text>
</a>
</g>
</g>
<!-- Node5&#45;&gt;Node3 -->
<g id="edge4" class="edge"><title>Node5&#45;&gt;Node3</title>
<path fill="none" stroke="#404040" d="M286.691,-599.268C298.799,-560.828 317.063,-510.201 333.057,-496 422.296,-416.762 565.417,-396.726 650.966,-392.176"/>
<polygon fill="none" stroke="#404040" points="651.17,-392.166 656.979,-387.893 663.157,-391.612 657.349,-395.885 651.17,-392.166"/>
<text text-anchor="middle" x="351.241" y="-518" font-family="Helvetica,sans-Serif" font-size="10.00"> #irqAck</text>
</g>
<!-- Node6 -->
<g id="node6" class="node"><title>Node6</title>
<polygon fill="white" stroke="#bfbfbf" points="0,-830.5 0,-884.5 64.3594,-884.5 64.3594,-830.5 0,-830.5"/>
<text text-anchor="middle" x="32.1797" y="-872.5" font-family="Helvetica,sans-Serif" font-size="10.00">sc_module</text>
<polyline fill="none" stroke="#bfbfbf" points="0,-866.5 64.3594,-866.5 "/>
<text text-anchor="middle" x="32.1797" y="-854.5" font-family="Helvetica,sans-Serif" font-size="10.00"> </text>
<polyline fill="none" stroke="#bfbfbf" points="0,-848.5 64.3594,-848.5 "/>
<text text-anchor="middle" x="32.1797" y="-836.5" font-family="Helvetica,sans-Serif" font-size="10.00"> </text>
</g>
<!-- Node6&#45;&gt;Node5 -->
<g id="edge5" class="edge"><title>Node6&#45;&gt;Node5</title>
<path fill="none" stroke="midnightblue" d="M44.1397,-820.935C50.771,-805.345 60.3198,-787.738 73.1797,-775 93.2322,-755.137 103.643,-756.615 130.18,-747 162.003,-735.47 175.385,-746.791 204.18,-729 218.847,-719.938 231.964,-706.704 242.721,-693.525"/>
<polygon fill="none" stroke="midnightblue" points="40.85,-819.736 40.3843,-830.32 47.349,-822.336 40.85,-819.736"/>
</g>
<!-- Node7 -->
<g id="node7" class="node"><title>Node7</title>
<polygon fill="white" stroke="#bfbfbf" points="82.6797,-830.5 82.6797,-884.5 111.68,-884.5 111.68,-830.5 82.6797,-830.5"/>
<text text-anchor="middle" x="97.0713" y="-872.5" font-family="Helvetica,sans-Serif" font-size="10.00">in</text>
<polyline fill="none" stroke="#bfbfbf" points="82.6797,-866.5 111.463,-866.5 "/>
<text text-anchor="middle" x="97.0713" y="-854.5" font-family="Helvetica,sans-Serif" font-size="10.00"> </text>
<polyline fill="none" stroke="#bfbfbf" points="82.6797,-848.5 111.463,-848.5 "/>
<text text-anchor="middle" x="97.0713" y="-836.5" font-family="Helvetica,sans-Serif" font-size="10.00"> </text>
</g>
<!-- Node7&#45;&gt;Node5 -->
<g id="edge6" class="edge"><title>Node7&#45;&gt;Node5</title>
<path fill="none" stroke="#404040" d="M101.272,-830.184C106.502,-805.321 117.955,-768.695 142.108,-747 163.477,-727.806 180.079,-744.627 204.18,-729 215.137,-721.895 225.288,-712.531 234.247,-702.687"/>
<polygon fill="none" stroke="#404040" points="234.284,-702.644 235.179,-695.489 242.128,-693.563 241.233,-700.719 234.284,-702.644"/>
<text text-anchor="middle" x="153.715" y="-749" font-family="Helvetica,sans-Serif" font-size="10.00"> +run</text>
</g>
<!-- Node8 -->
<g id="node8" class="node"><title>Node8</title>
<polygon fill="white" stroke="#bfbfbf" points="163.229,-830.5 163.229,-884.5 193.13,-884.5 193.13,-830.5 163.229,-830.5"/>
<text text-anchor="middle" x="178.18" y="-872.5" font-family="Helvetica,sans-Serif" font-size="10.00">out</text>
<polyline fill="none" stroke="#bfbfbf" points="163.229,-866.5 193.13,-866.5 "/>
<text text-anchor="middle" x="178.18" y="-854.5" font-family="Helvetica,sans-Serif" font-size="10.00"> </text>
<polyline fill="none" stroke="#bfbfbf" points="163.229,-848.5 193.13,-848.5 "/>
<text text-anchor="middle" x="178.18" y="-836.5" font-family="Helvetica,sans-Serif" font-size="10.00"> </text>
</g>
<!-- Node8&#45;&gt;Node5 -->
<g id="edge7" class="edge"><title>Node8&#45;&gt;Node5</title>
<path fill="none" stroke="#404040" d="M190.019,-830.453C204.235,-799.179 228.492,-745.814 247.15,-704.765"/>
<polygon fill="none" stroke="#404040" points="247.164,-704.735 246.005,-697.618 252.129,-693.811 253.288,-700.928 247.164,-704.735"/>
<text text-anchor="middle" x="243.829" y="-749" font-family="Helvetica,sans-Serif" font-size="10.00"> +status</text>
</g>
<!-- Node8&#45;&gt;Node5 -->
<g id="edge10" class="edge"><title>Node8&#45;&gt;Node5</title>
<path fill="none" stroke="#404040" d="M169.38,-830.29C163.181,-806.85 158.322,-772.38 172.98,-747 180.987,-733.137 191.892,-739.261 204.18,-729 213.465,-721.246 222.499,-712.15 230.808,-702.9"/>
<polygon fill="none" stroke="#404040" points="230.983,-702.699 231.901,-695.546 238.856,-693.643 237.938,-700.795 230.983,-702.699"/>
<text text-anchor="middle" x="197.779" y="-749" font-family="Helvetica,sans-Serif" font-size="10.00"> +initSignal</text>
</g>
<!-- Node9 -->
<g id="node9" class="node"><title>Node9</title>
<g id="a_node9"><a xlink:href="classsc__event.html" target="_top" xlink:title="{sc_event\n||}">
<polygon fill="white" stroke="black" points="245.167,-830.5 245.167,-884.5 301.192,-884.5 301.192,-830.5 245.167,-830.5"/>
<text text-anchor="middle" x="273.18" y="-872.5" font-family="Helvetica,sans-Serif" font-size="10.00">sc_event</text>
<polyline fill="none" stroke="black" points="245.167,-866.5 301.192,-866.5 "/>
<text text-anchor="middle" x="273.18" y="-854.5" font-family="Helvetica,sans-Serif" font-size="10.00"> </text>
<polyline fill="none" stroke="black" points="245.167,-848.5 301.192,-848.5 "/>
<text text-anchor="middle" x="273.18" y="-836.5" font-family="Helvetica,sans-Serif" font-size="10.00"> </text>
</a>
</g>
</g>
<!-- Node9&#45;&gt;Node5 -->
<g id="edge8" class="edge"><title>Node9&#45;&gt;Node5</title>
<path fill="none" stroke="#404040" d="M273.18,-830.453C273.18,-799.446 273.18,-746.723 273.18,-705.818"/>
<polygon fill="none" stroke="#404040" points="273.18,-705.811 269.18,-699.811 273.18,-693.811 277.18,-699.811 273.18,-705.811"/>
<text text-anchor="middle" x="287.213" y="-749" font-family="Helvetica,sans-Serif" font-size="10.00"> +start</text>
</g>
<!-- Node10 -->
<g id="node10" class="node"><title>Node10</title>
<g id="a_node10"><a xlink:href="classbool.html" target="_top" xlink:title="{bool\n||}">
<polygon fill="white" stroke="black" points="342.727,-830.5 342.727,-884.5 377.633,-884.5 377.633,-830.5 342.727,-830.5"/>
<text text-anchor="middle" x="360.18" y="-872.5" font-family="Helvetica,sans-Serif" font-size="10.00">bool</text>
<polyline fill="none" stroke="black" points="342.727,-866.5 377.633,-866.5 "/>
<text text-anchor="middle" x="360.18" y="-854.5" font-family="Helvetica,sans-Serif" font-size="10.00"> </text>
<polyline fill="none" stroke="black" points="342.727,-848.5 377.633,-848.5 "/>
<text text-anchor="middle" x="360.18" y="-836.5" font-family="Helvetica,sans-Serif" font-size="10.00"> </text>
</a>
</g>
</g>
<!-- Node10&#45;&gt;Node3 -->
<g id="edge15" class="edge"><title>Node10&#45;&gt;Node3</title>
<path fill="none" stroke="#404040" d="M361.674,-830.364C365.734,-762.742 377.672,-585.777 392.553,-564 452.999,-475.542 573.504,-429.294 650.86,-407.695"/>
<polygon fill="none" stroke="#404040" points="651.306,-407.574 656.051,-402.145 662.888,-404.437 658.143,-409.866 651.306,-407.574"/>
<text text-anchor="middle" x="439.493" y="-643.5" font-family="Helvetica,sans-Serif" font-size="10.00"> #PIPELINED_MULT</text>
</g>
<!-- Node10&#45;&gt;Node5 -->
<g id="edge9" class="edge"><title>Node10&#45;&gt;Node5</title>
<path fill="none" stroke="#404040" d="M349.337,-830.453C336.347,-799.246 314.199,-746.041 297.126,-705.027"/>
<polygon fill="none" stroke="#404040" points="297.069,-704.889 291.07,-700.887 292.457,-693.811 298.456,-697.813 297.069,-704.889"/>
<text text-anchor="middle" x="339.282" y="-749" font-family="Helvetica,sans-Serif" font-size="10.00"> +stopped</text>
</g>
<!-- Node11 -->
<g id="node11" class="node"><title>Node11</title>
<g id="a_node11"><a xlink:href="classleon3__funclt__trap_1_1Alias.html" target="_top" xlink:title="{leon3_funclt_trap::\lAlias\n||+ ~Alias()\l+ Alias()\l+ Alias()\l+ Alias()\l+ operator[]()\l+ immediateWrite()\l+ readNewValue()\l+ getReg()\l+ operator~()\l+ operator=()\land 63 more...\l}">
<polygon fill="white" stroke="black" points="493.899,-564.5 493.899,-728.5 594.46,-728.5 594.46,-564.5 493.899,-564.5"/>
<text text-anchor="start" x="501.899" y="-716.5" font-family="Helvetica,sans-Serif" font-size="10.00">leon3_funclt_trap::</text>
<text text-anchor="middle" x="544.18" y="-706.5" font-family="Helvetica,sans-Serif" font-size="10.00">Alias</text>
<polyline fill="none" stroke="black" points="493.899,-700.5 594.46,-700.5 "/>
<text text-anchor="middle" x="544.18" y="-688.5" font-family="Helvetica,sans-Serif" font-size="10.00"> </text>
<polyline fill="none" stroke="black" points="493.899,-682.5 594.46,-682.5 "/>
<text text-anchor="start" x="501.899" y="-670.5" font-family="Helvetica,sans-Serif" font-size="10.00">+ ~Alias()</text>
<text text-anchor="start" x="501.899" y="-660.5" font-family="Helvetica,sans-Serif" font-size="10.00">+ Alias()</text>
<text text-anchor="start" x="501.899" y="-650.5" font-family="Helvetica,sans-Serif" font-size="10.00">+ Alias()</text>
<text text-anchor="start" x="501.899" y="-640.5" font-family="Helvetica,sans-Serif" font-size="10.00">+ Alias()</text>
<text text-anchor="start" x="501.899" y="-630.5" font-family="Helvetica,sans-Serif" font-size="10.00">+ operator[]()</text>
<text text-anchor="start" x="501.899" y="-620.5" font-family="Helvetica,sans-Serif" font-size="10.00">+ immediateWrite()</text>
<text text-anchor="start" x="501.899" y="-610.5" font-family="Helvetica,sans-Serif" font-size="10.00">+ readNewValue()</text>
<text text-anchor="start" x="501.899" y="-600.5" font-family="Helvetica,sans-Serif" font-size="10.00">+ getReg()</text>
<text text-anchor="start" x="501.899" y="-590.5" font-family="Helvetica,sans-Serif" font-size="10.00">+ operator~()</text>
<text text-anchor="start" x="501.899" y="-580.5" font-family="Helvetica,sans-Serif" font-size="10.00">+ operator=()</text>
<text text-anchor="start" x="501.899" y="-570.5" font-family="Helvetica,sans-Serif" font-size="10.00">and 63 more...</text>
</a>
</g>
</g>
<!-- Node11&#45;&gt;Node3 -->
<g id="edge11" class="edge"><title>Node11&#45;&gt;Node3</title>
<path fill="none" stroke="#404040" d="M594.512,-568.962C610.282,-545.399 627.906,-519.485 644.5,-496 648.21,-490.75 652.054,-485.377 655.956,-479.972"/>
<polygon fill="none" stroke="#404040" points="655.978,-479.942 656.267,-472.737 663.029,-470.231 662.74,-477.437 655.978,-479.942"/>
<text text-anchor="middle" x="663.52" y="-538" font-family="Helvetica,sans-Serif" font-size="10.00"> #REGS</text>
<text text-anchor="middle" x="663.52" y="-528" font-family="Helvetica,sans-Serif" font-size="10.00">#LR</text>
<text text-anchor="middle" x="663.52" y="-518" font-family="Helvetica,sans-Serif" font-size="10.00">#PCR</text>
<text text-anchor="middle" x="663.52" y="-508" font-family="Helvetica,sans-Serif" font-size="10.00">#FP</text>
<text text-anchor="middle" x="663.52" y="-498" font-family="Helvetica,sans-Serif" font-size="10.00">#SP</text>
</g>
<!-- Node12 -->
<g id="node12" class="node"><title>Node12</title>
<g id="a_node12"><a xlink:href="classint.html" target="_top" xlink:title="{int\n||}">
<polygon fill="white" stroke="black" points="166.68,-619.5 166.68,-673.5 195.68,-673.5 195.68,-619.5 166.68,-619.5"/>
<text text-anchor="middle" x="180.96" y="-661.5" font-family="Helvetica,sans-Serif" font-size="10.00">int</text>
<polyline fill="none" stroke="black" points="166.68,-655.5 195.241,-655.5 "/>
<text text-anchor="middle" x="180.96" y="-643.5" font-family="Helvetica,sans-Serif" font-size="10.00"> </text>
<polyline fill="none" stroke="black" points="166.68,-637.5 195.241,-637.5 "/>
<text text-anchor="middle" x="180.96" y="-625.5" font-family="Helvetica,sans-Serif" font-size="10.00"> </text>
</a>
</g>
</g>
<!-- Node12&#45;&gt;Node1 -->
<g id="edge24" class="edge"><title>Node12&#45;&gt;Node1</title>
<path fill="none" stroke="#404040" d="M183.64,-619.208C191.396,-536.341 215.541,-278.341 227.832,-147.011"/>
<polygon fill="none" stroke="#404040" points="227.865,-146.655 224.442,-140.308 228.984,-134.707 232.407,-141.053 227.865,-146.655"/>
<text text-anchor="middle" x="232.576" y="-277" font-family="Helvetica,sans-Serif" font-size="10.00"> #result</text>
</g>
<!-- Node12&#45;&gt;Node3 -->
<g id="edge12" class="edge"><title>Node12&#45;&gt;Node3</title>
<path fill="none" stroke="#404040" d="M184.576,-619.466C190.088,-581.293 202.176,-512.832 219.835,-496 280.927,-437.768 526.814,-408.487 650.451,-397.204"/>
<polygon fill="none" stroke="#404040" points="650.792,-397.173 656.412,-392.655 662.744,-396.104 657.124,-400.623 650.792,-397.173"/>
<text text-anchor="middle" x="261.852" y="-523" font-family="Helvetica,sans-Serif" font-size="10.00"> #NUM_REG_WIN</text>
<text text-anchor="middle" x="261.852" y="-513" font-family="Helvetica,sans-Serif" font-size="10.00">+totalInstrCycles</text>
</g>
<!-- Node13 -->
<g id="node13" class="node"><title>Node13</title>
<g id="a_node13"><a xlink:href="classleon3__funclt__trap_1_1Reg32__0.html" target="_top" xlink:title="{leon3_funclt_trap::\lReg32_0\n||+ Reg32_0()\l+ operator[]()\l+ immediateWrite()\l+ readNewValue()\l+ operator~()\l+ operator=()\l+ operator+=()\l+ operator&#45;=()\l+ operator*=()\l+ operator/=()\land 57 more...\l}">
<polygon fill="white" stroke="black" points="731.899,-564.5 731.899,-728.5 832.46,-728.5 832.46,-564.5 731.899,-564.5"/>
<text text-anchor="start" x="739.899" y="-716.5" font-family="Helvetica,sans-Serif" font-size="10.00">leon3_funclt_trap::</text>
<text text-anchor="middle" x="782.18" y="-706.5" font-family="Helvetica,sans-Serif" font-size="10.00">Reg32_0</text>
<polyline fill="none" stroke="black" points="731.899,-700.5 832.46,-700.5 "/>
<text text-anchor="middle" x="782.18" y="-688.5" font-family="Helvetica,sans-Serif" font-size="10.00"> </text>
<polyline fill="none" stroke="black" points="731.899,-682.5 832.46,-682.5 "/>
<text text-anchor="start" x="739.899" y="-670.5" font-family="Helvetica,sans-Serif" font-size="10.00">+ Reg32_0()</text>
<text text-anchor="start" x="739.899" y="-660.5" font-family="Helvetica,sans-Serif" font-size="10.00">+ operator[]()</text>
<text text-anchor="start" x="739.899" y="-650.5" font-family="Helvetica,sans-Serif" font-size="10.00">+ immediateWrite()</text>
<text text-anchor="start" x="739.899" y="-640.5" font-family="Helvetica,sans-Serif" font-size="10.00">+ readNewValue()</text>
<text text-anchor="start" x="739.899" y="-630.5" font-family="Helvetica,sans-Serif" font-size="10.00">+ operator~()</text>
<text text-anchor="start" x="739.899" y="-620.5" font-family="Helvetica,sans-Serif" font-size="10.00">+ operator=()</text>
<text text-anchor="start" x="739.899" y="-610.5" font-family="Helvetica,sans-Serif" font-size="10.00">+ operator+=()</text>
<text text-anchor="start" x="739.899" y="-600.5" font-family="Helvetica,sans-Serif" font-size="10.00">+ operator&#45;=()</text>
<text text-anchor="start" x="739.899" y="-590.5" font-family="Helvetica,sans-Serif" font-size="10.00">+ operator*=()</text>
<text text-anchor="start" x="739.899" y="-580.5" font-family="Helvetica,sans-Serif" font-size="10.00">+ operator/=()</text>
<text text-anchor="start" x="739.899" y="-570.5" font-family="Helvetica,sans-Serif" font-size="10.00">and 57 more...</text>
</a>
</g>
</g>
<!-- Node13&#45;&gt;Node3 -->
<g id="edge13" class="edge"><title>Node13&#45;&gt;Node3</title>
<path fill="none" stroke="#404040" d="M764.807,-564.299C759.911,-542.115 754.472,-518.101 749.18,-496 748.662,-493.839 748.135,-491.654 747.599,-489.451"/>
<polygon fill="none" stroke="#404040" points="747.538,-489.202 742.22,-484.331 744.671,-477.549 749.989,-482.42 747.538,-489.202"/>
<text text-anchor="middle" x="775.63" y="-518" font-family="Helvetica,sans-Serif" font-size="10.00"> #PSR</text>
</g>
<!-- Node14 -->
<g id="node14" class="node"><title>Node14</title>
<g id="a_node14"><a xlink:href="classleon3__funclt__trap_1_1Register.html" target="_top" xlink:title="{leon3_funclt_trap::\lRegister\n||+ Register()\l+ Register()\l+ immediateWrite()\l+ readNewValue()\l+ clockCycle()\l+ operator[]()\l+ operator~()\l+ operator+()\l+ operator&#45;()\l+ operator*()\land 34 more...\l}">
<polygon fill="white" stroke="black" points="790.899,-775.5 790.899,-939.5 891.46,-939.5 891.46,-775.5 790.899,-775.5"/>
<text text-anchor="start" x="798.899" y="-927.5" font-family="Helvetica,sans-Serif" font-size="10.00">leon3_funclt_trap::</text>
<text text-anchor="middle" x="841.18" y="-917.5" font-family="Helvetica,sans-Serif" font-size="10.00">Register</text>
<polyline fill="none" stroke="black" points="790.899,-911.5 891.46,-911.5 "/>
<text text-anchor="middle" x="841.18" y="-899.5" font-family="Helvetica,sans-Serif" font-size="10.00"> </text>
<polyline fill="none" stroke="black" points="790.899,-893.5 891.46,-893.5 "/>
<text text-anchor="start" x="798.899" y="-881.5" font-family="Helvetica,sans-Serif" font-size="10.00">+ Register()</text>
<text text-anchor="start" x="798.899" y="-871.5" font-family="Helvetica,sans-Serif" font-size="10.00">+ Register()</text>
<text text-anchor="start" x="798.899" y="-861.5" font-family="Helvetica,sans-Serif" font-size="10.00">+ immediateWrite()</text>
<text text-anchor="start" x="798.899" y="-851.5" font-family="Helvetica,sans-Serif" font-size="10.00">+ readNewValue()</text>
<text text-anchor="start" x="798.899" y="-841.5" font-family="Helvetica,sans-Serif" font-size="10.00">+ clockCycle()</text>
<text text-anchor="start" x="798.899" y="-831.5" font-family="Helvetica,sans-Serif" font-size="10.00">+ operator[]()</text>
<text text-anchor="start" x="798.899" y="-821.5" font-family="Helvetica,sans-Serif" font-size="10.00">+ operator~()</text>
<text text-anchor="start" x="798.899" y="-811.5" font-family="Helvetica,sans-Serif" font-size="10.00">+ operator+()</text>
<text text-anchor="start" x="798.899" y="-801.5" font-family="Helvetica,sans-Serif" font-size="10.00">+ operator&#45;()</text>
<text text-anchor="start" x="798.899" y="-791.5" font-family="Helvetica,sans-Serif" font-size="10.00">+ operator*()</text>
<text text-anchor="start" x="798.899" y="-781.5" font-family="Helvetica,sans-Serif" font-size="10.00">and 34 more...</text>
</a>
</g>
</g>
<!-- Node14&#45;&gt;Node13 -->
<g id="edge14" class="edge"><title>Node14&#45;&gt;Node13</title>
<path fill="none" stroke="midnightblue" d="M815.515,-765.584C812.037,-753.265 808.487,-740.69 805.062,-728.558"/>
<polygon fill="none" stroke="midnightblue" points="812.199,-766.723 818.284,-775.396 818.936,-764.821 812.199,-766.723"/>
</g>
<!-- Node15 -->
<g id="node15" class="node"><title>Node15</title>
<g id="a_node15"><a xlink:href="classleon3__funclt__trap_1_1Reg32__1.html" target="_top" xlink:title="{leon3_funclt_trap::\lReg32_1\n||+ Reg32_1()\l+ operator[]()\l+ immediateWrite()\l+ readNewValue()\l+ operator~()\l+ operator=()\l+ operator+=()\l+ operator&#45;=()\l+ operator*=()\l+ operator/=()\land 57 more...\l}">
<polygon fill="white" stroke="black" points="850.899,-564.5 850.899,-728.5 951.46,-728.5 951.46,-564.5 850.899,-564.5"/>
<text text-anchor="start" x="858.899" y="-716.5" font-family="Helvetica,sans-Serif" font-size="10.00">leon3_funclt_trap::</text>
<text text-anchor="middle" x="901.18" y="-706.5" font-family="Helvetica,sans-Serif" font-size="10.00">Reg32_1</text>
<polyline fill="none" stroke="black" points="850.899,-700.5 951.46,-700.5 "/>
<text text-anchor="middle" x="901.18" y="-688.5" font-family="Helvetica,sans-Serif" font-size="10.00"> </text>
<polyline fill="none" stroke="black" points="850.899,-682.5 951.46,-682.5 "/>
<text text-anchor="start" x="858.899" y="-670.5" font-family="Helvetica,sans-Serif" font-size="10.00">+ Reg32_1()</text>
<text text-anchor="start" x="858.899" y="-660.5" font-family="Helvetica,sans-Serif" font-size="10.00">+ operator[]()</text>
<text text-anchor="start" x="858.899" y="-650.5" font-family="Helvetica,sans-Serif" font-size="10.00">+ immediateWrite()</text>
<text text-anchor="start" x="858.899" y="-640.5" font-family="Helvetica,sans-Serif" font-size="10.00">+ readNewValue()</text>
<text text-anchor="start" x="858.899" y="-630.5" font-family="Helvetica,sans-Serif" font-size="10.00">+ operator~()</text>
<text text-anchor="start" x="858.899" y="-620.5" font-family="Helvetica,sans-Serif" font-size="10.00">+ operator=()</text>
<text text-anchor="start" x="858.899" y="-610.5" font-family="Helvetica,sans-Serif" font-size="10.00">+ operator+=()</text>
<text text-anchor="start" x="858.899" y="-600.5" font-family="Helvetica,sans-Serif" font-size="10.00">+ operator&#45;=()</text>
<text text-anchor="start" x="858.899" y="-590.5" font-family="Helvetica,sans-Serif" font-size="10.00">+ operator*=()</text>
<text text-anchor="start" x="858.899" y="-580.5" font-family="Helvetica,sans-Serif" font-size="10.00">+ operator/=()</text>
<text text-anchor="start" x="858.899" y="-570.5" font-family="Helvetica,sans-Serif" font-size="10.00">and 57 more...</text>
</a>
</g>
</g>
<!-- Node14&#45;&gt;Node15 -->
<g id="edge17" class="edge"><title>Node14&#45;&gt;Node15</title>
<path fill="none" stroke="midnightblue" d="M867.28,-765.584C870.816,-753.265 874.427,-740.69 877.909,-728.558"/>
<polygon fill="none" stroke="midnightblue" points="863.858,-764.818 864.463,-775.396 870.587,-766.75 863.858,-764.818"/>
</g>
<!-- Node17 -->
<g id="node17" class="node"><title>Node17</title>
<g id="a_node17"><a xlink:href="classleon3__funclt__trap_1_1Reg32__2.html" target="_top" xlink:title="{leon3_funclt_trap::\lReg32_2\n||+ Reg32_2()\l+ operator[]()\l+ immediateWrite()\l+ readNewValue()\l+ operator~()\l+ operator=()\l+ operator+=()\l+ operator&#45;=()\l+ operator*=()\l+ operator/=()\land 57 more...\l}">
<polygon fill="white" stroke="black" points="969.899,-564.5 969.899,-728.5 1070.46,-728.5 1070.46,-564.5 969.899,-564.5"/>
<text text-anchor="start" x="977.899" y="-716.5" font-family="Helvetica,sans-Serif" font-size="10.00">leon3_funclt_trap::</text>
<text text-anchor="middle" x="1020.18" y="-706.5" font-family="Helvetica,sans-Serif" font-size="10.00">Reg32_2</text>
<polyline fill="none" stroke="black" points="969.899,-700.5 1070.46,-700.5 "/>
<text text-anchor="middle" x="1020.18" y="-688.5" font-family="Helvetica,sans-Serif" font-size="10.00"> </text>
<polyline fill="none" stroke="black" points="969.899,-682.5 1070.46,-682.5 "/>
<text text-anchor="start" x="977.899" y="-670.5" font-family="Helvetica,sans-Serif" font-size="10.00">+ Reg32_2()</text>
<text text-anchor="start" x="977.899" y="-660.5" font-family="Helvetica,sans-Serif" font-size="10.00">+ operator[]()</text>
<text text-anchor="start" x="977.899" y="-650.5" font-family="Helvetica,sans-Serif" font-size="10.00">+ immediateWrite()</text>
<text text-anchor="start" x="977.899" y="-640.5" font-family="Helvetica,sans-Serif" font-size="10.00">+ readNewValue()</text>
<text text-anchor="start" x="977.899" y="-630.5" font-family="Helvetica,sans-Serif" font-size="10.00">+ operator~()</text>
<text text-anchor="start" x="977.899" y="-620.5" font-family="Helvetica,sans-Serif" font-size="10.00">+ operator=()</text>
<text text-anchor="start" x="977.899" y="-610.5" font-family="Helvetica,sans-Serif" font-size="10.00">+ operator+=()</text>
<text text-anchor="start" x="977.899" y="-600.5" font-family="Helvetica,sans-Serif" font-size="10.00">+ operator&#45;=()</text>
<text text-anchor="start" x="977.899" y="-590.5" font-family="Helvetica,sans-Serif" font-size="10.00">+ operator*=()</text>
<text text-anchor="start" x="977.899" y="-580.5" font-family="Helvetica,sans-Serif" font-size="10.00">+ operator/=()</text>
<text text-anchor="start" x="977.899" y="-570.5" font-family="Helvetica,sans-Serif" font-size="10.00">and 57 more...</text>
</a>
</g>
</g>
<!-- Node14&#45;&gt;Node17 -->
<g id="edge20" class="edge"><title>Node14&#45;&gt;Node17</title>
<path fill="none" stroke="midnightblue" d="M898.506,-797.955C918.57,-776.723 940.892,-752.238 960.18,-729 963.322,-725.214 966.494,-721.282 969.653,-717.28"/>
<polygon fill="none" stroke="midnightblue" points="895.858,-795.66 891.511,-805.322 900.935,-800.48 895.858,-795.66"/>
</g>
<!-- Node18 -->
<g id="node18" class="node"><title>Node18</title>
<g id="a_node18"><a xlink:href="classleon3__funclt__trap_1_1Reg32__3.html" target="_top" xlink:title="{leon3_funclt_trap::\lReg32_3\n||+ Reg32_3()\l+ operator[]()\l+ immediateWrite()\l+ readNewValue()\l+ operator~()\l+ operator=()\l+ operator+=()\l+ operator&#45;=()\l+ operator*=()\l+ operator/=()\land 57 more...\l}">
<polygon fill="white" stroke="black" points="612.899,-564.5 612.899,-728.5 713.46,-728.5 713.46,-564.5 612.899,-564.5"/>
<text text-anchor="start" x="620.899" y="-716.5" font-family="Helvetica,sans-Serif" font-size="10.00">leon3_funclt_trap::</text>
<text text-anchor="middle" x="663.18" y="-706.5" font-family="Helvetica,sans-Serif" font-size="10.00">Reg32_3</text>
<polyline fill="none" stroke="black" points="612.899,-700.5 713.46,-700.5 "/>
<text text-anchor="middle" x="663.18" y="-688.5" font-family="Helvetica,sans-Serif" font-size="10.00"> </text>
<polyline fill="none" stroke="black" points="612.899,-682.5 713.46,-682.5 "/>
<text text-anchor="start" x="620.899" y="-670.5" font-family="Helvetica,sans-Serif" font-size="10.00">+ Reg32_3()</text>
<text text-anchor="start" x="620.899" y="-660.5" font-family="Helvetica,sans-Serif" font-size="10.00">+ operator[]()</text>
<text text-anchor="start" x="620.899" y="-650.5" font-family="Helvetica,sans-Serif" font-size="10.00">+ immediateWrite()</text>
<text text-anchor="start" x="620.899" y="-640.5" font-family="Helvetica,sans-Serif" font-size="10.00">+ readNewValue()</text>
<text text-anchor="start" x="620.899" y="-630.5" font-family="Helvetica,sans-Serif" font-size="10.00">+ operator~()</text>
<text text-anchor="start" x="620.899" y="-620.5" font-family="Helvetica,sans-Serif" font-size="10.00">+ operator=()</text>
<text text-anchor="start" x="620.899" y="-610.5" font-family="Helvetica,sans-Serif" font-size="10.00">+ operator+=()</text>
<text text-anchor="start" x="620.899" y="-600.5" font-family="Helvetica,sans-Serif" font-size="10.00">+ operator&#45;=()</text>
<text text-anchor="start" x="620.899" y="-590.5" font-family="Helvetica,sans-Serif" font-size="10.00">+ operator*=()</text>
<text text-anchor="start" x="620.899" y="-580.5" font-family="Helvetica,sans-Serif" font-size="10.00">+ operator/=()</text>
<text text-anchor="start" x="620.899" y="-570.5" font-family="Helvetica,sans-Serif" font-size="10.00">and 57 more...</text>
</a>
</g>
</g>
<!-- Node14&#45;&gt;Node18 -->
<g id="edge22" class="edge"><title>Node14&#45;&gt;Node18</title>
<path fill="none" stroke="midnightblue" d="M783.842,-797.327C764.09,-776.223 742.172,-751.98 723.18,-729 720.046,-725.208 716.879,-721.27 713.725,-717.264"/>
<polygon fill="none" stroke="midnightblue" points="781.331,-799.765 790.731,-804.653 786.431,-794.97 781.331,-799.765"/>
</g>
<!-- Node15&#45;&gt;Node3 -->
<g id="edge16" class="edge"><title>Node15&#45;&gt;Node3</title>
<path fill="none" stroke="#404040" d="M850.842,-574.071C831.425,-546.518 808.945,-514.619 788.26,-485.268"/>
<polygon fill="none" stroke="#404040" points="788.234,-485.23 781.508,-482.63 781.321,-475.421 788.047,-478.021 788.234,-485.23"/>
<text text-anchor="middle" x="842.623" y="-518" font-family="Helvetica,sans-Serif" font-size="10.00"> #WIM</text>
</g>
<!-- Node16 -->
<g id="node16" class="node"><title>Node16</title>
<g id="a_node16"><a xlink:href="classleon3__funclt__trap_1_1MemoryInterface.html" target="_top" xlink:title="{leon3_funclt_trap::\lMemoryInterface\n||+ read_dword()\l+ read_word()\l+ read_half()\l+ read_byte()\l+ read_instr()\l+ read_dword_dbg()\l+ read_word_dbg()\l+ read_half_dbg()\l+ read_byte_dbg()\l+ write_dword()\land 12 more...\l}">
<polygon fill="white" stroke="black" points="1088.01,-564.5 1088.01,-728.5 1194.35,-728.5 1194.35,-564.5 1088.01,-564.5"/>
<text text-anchor="start" x="1096.01" y="-716.5" font-family="Helvetica,sans-Serif" font-size="10.00">leon3_funclt_trap::</text>
<text text-anchor="middle" x="1141.18" y="-706.5" font-family="Helvetica,sans-Serif" font-size="10.00">MemoryInterface</text>
<polyline fill="none" stroke="black" points="1088.01,-700.5 1194.35,-700.5 "/>
<text text-anchor="middle" x="1141.18" y="-688.5" font-family="Helvetica,sans-Serif" font-size="10.00"> </text>
<polyline fill="none" stroke="black" points="1088.01,-682.5 1194.35,-682.5 "/>
<text text-anchor="start" x="1096.01" y="-670.5" font-family="Helvetica,sans-Serif" font-size="10.00">+ read_dword()</text>
<text text-anchor="start" x="1096.01" y="-660.5" font-family="Helvetica,sans-Serif" font-size="10.00">+ read_word()</text>
<text text-anchor="start" x="1096.01" y="-650.5" font-family="Helvetica,sans-Serif" font-size="10.00">+ read_half()</text>
<text text-anchor="start" x="1096.01" y="-640.5" font-family="Helvetica,sans-Serif" font-size="10.00">+ read_byte()</text>
<text text-anchor="start" x="1096.01" y="-630.5" font-family="Helvetica,sans-Serif" font-size="10.00">+ read_instr()</text>
<text text-anchor="start" x="1096.01" y="-620.5" font-family="Helvetica,sans-Serif" font-size="10.00">+ read_dword_dbg()</text>
<text text-anchor="start" x="1096.01" y="-610.5" font-family="Helvetica,sans-Serif" font-size="10.00">+ read_word_dbg()</text>
<text text-anchor="start" x="1096.01" y="-600.5" font-family="Helvetica,sans-Serif" font-size="10.00">+ read_half_dbg()</text>
<text text-anchor="start" x="1096.01" y="-590.5" font-family="Helvetica,sans-Serif" font-size="10.00">+ read_byte_dbg()</text>
<text text-anchor="start" x="1096.01" y="-580.5" font-family="Helvetica,sans-Serif" font-size="10.00">+ write_dword()</text>
<text text-anchor="start" x="1096.01" y="-570.5" font-family="Helvetica,sans-Serif" font-size="10.00">and 12 more...</text>
</a>
</g>
</g>
<!-- Node16&#45;&gt;Node3 -->
<g id="edge18" class="edge"><title>Node16&#45;&gt;Node3</title>
<path fill="none" stroke="#404040" d="M1087.73,-572.291C1084.93,-569.408 1082.08,-566.629 1079.18,-564 994.825,-487.429 870.328,-437.765 792.851,-412.222"/>
<polygon fill="none" stroke="#404040" points="792.717,-412.179 785.776,-414.134 781.302,-408.479 788.243,-406.524 792.717,-412.179"/>
<text text-anchor="middle" x="1080.19" y="-523" font-family="Helvetica,sans-Serif" font-size="10.00"> #dataMem</text>
<text text-anchor="middle" x="1080.19" y="-513" font-family="Helvetica,sans-Serif" font-size="10.00">#instrMem</text>
</g>
<!-- Node17&#45;&gt;Node3 -->
<g id="edge19" class="edge"><title>Node17&#45;&gt;Node3</title>
<path fill="none" stroke="#404040" d="M969.762,-574.144C966.624,-570.623 963.422,-567.218 960.18,-564 908.953,-513.153 841.681,-465.835 791.731,-433.668"/>
<polygon fill="none" stroke="#404040" points="791.461,-433.496 784.252,-433.639 781.347,-427.038 788.557,-426.896 791.461,-433.496"/>
<text text-anchor="middle" x="951.35" y="-518" font-family="Helvetica,sans-Serif" font-size="10.00"> #TBR</text>
</g>
<!-- Node18&#45;&gt;Node3 -->
<g id="edge21" class="edge"><title>Node18&#45;&gt;Node3</title>
<path fill="none" stroke="#404040" d="M680.424,-564.313C685.269,-542.129 690.639,-518.111 695.84,-496 696.348,-493.84 696.865,-491.656 697.39,-489.455"/>
<polygon fill="none" stroke="#404040" points="697.446,-489.222 694.963,-482.452 700.258,-477.557 702.741,-484.327 697.446,-489.222"/>
<text text-anchor="middle" x="722.85" y="-538" font-family="Helvetica,sans-Serif" font-size="10.00"> #Y</text>
<text text-anchor="middle" x="722.85" y="-528" font-family="Helvetica,sans-Serif" font-size="10.00">#WINREGS</text>
<text text-anchor="middle" x="722.85" y="-518" font-family="Helvetica,sans-Serif" font-size="10.00">#PC</text>
<text text-anchor="middle" x="722.85" y="-508" font-family="Helvetica,sans-Serif" font-size="10.00">#ASR</text>
<text text-anchor="middle" x="722.85" y="-498" font-family="Helvetica,sans-Serif" font-size="10.00">#NPC</text>
</g>
<!-- Node19 -->
<g id="node19" class="node"><title>Node19</title>
<g id="a_node19"><a xlink:href="classleon3__funclt__trap_1_1RegisterBankClass.html" target="_top" xlink:title="{leon3_funclt_trap::\lRegisterBankClass\n||+ RegisterBankClass()\l+ RegisterBankClass()\l+ setNewRegister()\l+ setSize()\l+ operator[]()\l+ ~RegisterBankClass()\l}">
<polygon fill="white" stroke="black" points="1212.1,-589.5 1212.1,-703.5 1334.26,-703.5 1334.26,-589.5 1212.1,-589.5"/>
<text text-anchor="start" x="1220.1" y="-691.5" font-family="Helvetica,sans-Serif" font-size="10.00">leon3_funclt_trap::</text>
<text text-anchor="middle" x="1273.18" y="-681.5" font-family="Helvetica,sans-Serif" font-size="10.00">RegisterBankClass</text>
<polyline fill="none" stroke="black" points="1212.1,-675.5 1334.26,-675.5 "/>
<text text-anchor="middle" x="1273.18" y="-663.5" font-family="Helvetica,sans-Serif" font-size="10.00"> </text>
<polyline fill="none" stroke="black" points="1212.1,-657.5 1334.26,-657.5 "/>
<text text-anchor="start" x="1220.1" y="-645.5" font-family="Helvetica,sans-Serif" font-size="10.00">+ RegisterBankClass()</text>
<text text-anchor="start" x="1220.1" y="-635.5" font-family="Helvetica,sans-Serif" font-size="10.00">+ RegisterBankClass()</text>
<text text-anchor="start" x="1220.1" y="-625.5" font-family="Helvetica,sans-Serif" font-size="10.00">+ setNewRegister()</text>
<text text-anchor="start" x="1220.1" y="-615.5" font-family="Helvetica,sans-Serif" font-size="10.00">+ setSize()</text>
<text text-anchor="start" x="1220.1" y="-605.5" font-family="Helvetica,sans-Serif" font-size="10.00">+ operator[]()</text>
<text text-anchor="start" x="1220.1" y="-595.5" font-family="Helvetica,sans-Serif" font-size="10.00">+ ~RegisterBankClass()</text>
</a>
</g>
</g>
<!-- Node19&#45;&gt;Node3 -->
<g id="edge23" class="edge"><title>Node19&#45;&gt;Node3</title>
<path fill="none" stroke="#404040" d="M1227.78,-589.085C1219.91,-580.362 1211.55,-571.703 1203.18,-564 1165.23,-529.09 1155.72,-518.196 1109.18,-496 1004.77,-446.206 872.794,-417.019 793.066,-402.671"/>
<polygon fill="none" stroke="#404040" points="793.029,-402.664 786.425,-405.56 781.212,-400.578 787.816,-397.682 793.029,-402.664"/>
<text text-anchor="middle" x="1208.36" y="-518" font-family="Helvetica,sans-Serif" font-size="10.00"> #GLOBAL</text>
</g>
</g>
</svg>
        <g id="navigator" transform="translate(0 0)" fill="#404254">
                <rect fill="#f2f5e9" fill-opacity="0.5" stroke="#606060" stroke-width=".5" x="0" y="0" width="60" height="60"/>
                <use id="zoomplus" xlink:href="#zoomPlus" x="17" y="9" onmousedown="handleZoom(evt,'in')"/>
                <use id="zoomminus" xlink:href="#zoomMin" x="42" y="9" onmousedown="handleZoom(evt,'out')"/>
                <use id="reset" xlink:href="#resetDef" x="30" y="36" onmousedown="handleReset()"/>
                <g id="arrowUp" xlink:href="#dirArrow" transform="translate(30 24)" onmousedown="handlePan(0,-1)">
                  <use xlink:href="#rim" fill="#404040">
                        <set attributeName="fill" to="#808080" begin="arrowUp.mouseover" end="arrowUp.mouseout"/>
                  </use>
                  <path fill="none" stroke="white" stroke-width="1.5" d="M0,-3.0v7 M-2.5,-0.5L0,-3.0L2.5,-0.5"/>
                </g>
                <g id="arrowRight" xlink:href="#dirArrow" transform="rotate(90) translate(36 -43)" onmousedown="handlePan(1,0)">
                  <use xlink:href="#rim" fill="#404040">
                        <set attributeName="fill" to="#808080" begin="arrowRight.mouseover" end="arrowRight.mouseout"/>
                  </use>
                  <path fill="none" stroke="white" stroke-width="1.5" d="M0,-3.0v7 M-2.5,-0.5L0,-3.0L2.5,-0.5"/>
                </g>
                <g id="arrowDown" xlink:href="#dirArrow" transform="rotate(180) translate(-30 -48)" onmousedown="handlePan(0,1)">
                  <use xlink:href="#rim" fill="#404040">
                        <set attributeName="fill" to="#808080" begin="arrowDown.mouseover" end="arrowDown.mouseout"/>
                  </use>
                  <path fill="none" stroke="white" stroke-width="1.5" d="M0,-3.0v7 M-2.5,-0.5L0,-3.0L2.5,-0.5"/>
                </g>
                <g id="arrowLeft" xlink:href="#dirArrow" transform="rotate(270) translate(-36 17)" onmousedown="handlePan(-1,0)">
                  <use xlink:href="#rim" fill="#404040">
                        <set attributeName="fill" to="#808080" begin="arrowLeft.mouseover" end="arrowLeft.mouseout"/>
                  </use>
                  <path fill="none" stroke="white" stroke-width="1.5" d="M0,-3.0v7 M-2.5,-0.5L0,-3.0L2.5,-0.5"/>
                </g>
        </g>
        <svg viewBox="0 0 15 15" width="100%" height="30px" preserveAspectRatio="xMaxYMin meet">
         <g id="arrow_out" transform="scale(0.3 0.3)">
          <a xlink:href="classleon3__funclt__trap_1_1SETHI__coll__graph_org.svg" target="_base">
           <rect id="button" ry="5" rx="5" y="6" x="6" height="38" width="38"
                fill="#f2f5e9" fill-opacity="0.5" stroke="#606060" stroke-width="1.0"/>
           <path id="arrow"
             d="M 11.500037,31.436501 C 11.940474,20.09759 22.043105,11.32322 32.158766,21.979434 L 37.068811,17.246167 C 37.068811,17.246167 37.088388,32 37.088388,32 L 22.160133,31.978069 C 22.160133,31.978069 26.997745,27.140456 26.997745,27.140456 C 18.528582,18.264221 13.291696,25.230495 11.500037,31.436501 z"
             style="fill:#404040;"/>
          </a>
         </g>
        </svg>
</svg>
