<?xml version="1.0" encoding="UTF-8" standalone="no"?>
<!DOCTYPE svg PUBLIC "-//W3C//DTD SVG 1.1//EN"
 "http://www.w3.org/Graphics/SVG/1.1/DTD/svg11.dtd">
<!-- Generated by graphviz version 2.26.0 (20091210.2329)
 -->
<!-- Title: gs::cnf::gs_config&lt; std::vector&lt; std::string &gt; &gt; Pages: 1 -->
<svg width="208pt" height="1130pt"
 viewBox="0.00 0.00 208.00 1130.00" xmlns="http://www.w3.org/2000/svg" xmlns:xlink="http://www.w3.org/1999/xlink">
<g id="graph1" class="graph" transform="scale(1 1) rotate(0) translate(4 1126)">
<title>gs::cnf::gs_config&lt; std::vector&lt; std::string &gt; &gt;</title>
<polygon fill="white" stroke="white" points="-4,5 -4,-1126 205,-1126 205,5 -4,5"/>
<!-- Node1 -->
<g id="node1" class="node"><title>Node1</title>
<polygon fill="#bfbfbf" stroke="black" points="0.5,-1 0.5,-181 155.5,-181 155.5,-1 0.5,-1"/>
<text text-anchor="start" x="8.5" y="-168" font-family="Helvetica,sans-Serif" font-size="10.00">gs::cnf::gs_config</text>
<text text-anchor="start" x="8.5" y="-155" font-family="Helvetica,sans-Serif" font-size="10.00">&lt; std::vector&lt; std::</text>
<text text-anchor="middle" x="78" y="-142" font-family="Helvetica,sans-Serif" font-size="10.00">string &gt; &gt;</text>
<polyline fill="none" stroke="black" points="0.5,-134 155.5,-134 "/>
<text text-anchor="start" x="8.5" y="-121" font-family="Helvetica,sans-Serif" font-size="10.00">+ GS_CONFIG_HEAD</text>
<polyline fill="none" stroke="black" points="0.5,-113 155.5,-113 "/>
<text text-anchor="start" x="8.5" y="-100" font-family="Helvetica,sans-Serif" font-size="10.00">+ empty()</text>
<text text-anchor="start" x="8.5" y="-87" font-family="Helvetica,sans-Serif" font-size="10.00">+ getTypeString()</text>
<text text-anchor="start" x="8.5" y="-74" font-family="Helvetica,sans-Serif" font-size="10.00">+ getType()</text>
<text text-anchor="start" x="8.5" y="-61" font-family="Helvetica,sans-Serif" font-size="10.00">+ operator[]()</text>
<text text-anchor="start" x="8.5" y="-48" font-family="Helvetica,sans-Serif" font-size="10.00">+ size()</text>
<text text-anchor="start" x="8.5" y="-35" font-family="Helvetica,sans-Serif" font-size="10.00">+ convertValueToString()</text>
<text text-anchor="start" x="8.5" y="-22" font-family="Helvetica,sans-Serif" font-size="10.00">+ static_convertValueToString()</text>
<text text-anchor="start" x="8.5" y="-9" font-family="Helvetica,sans-Serif" font-size="10.00">+ static_deserialize()</text>
</g>
<!-- Node2 -->
<g id="node2" class="node"><title>Node2</title>
<a xlink:href="classgs_1_1cnf_1_1gs__config__t.html" target="_top" xlink:title="{gs::cnf::gs_config\l_t\&lt; std::vector\&lt; std\l::string \&gt; \&gt;\n|# my_value\l# return_string\l# m_mirror_param\l# m_mirror_val\l|+ operator+=()\l+ operator&#45;=()\l+ operator/=()\l+ operator*=()\l+ operator+()\l+ operator&#45;()\l+ operator/()\l+ operator*()\l+ operator%=()\l+ operator^=()\land 27 more...\l# mirror_callback()\l# convertStringToValue()\l}">
<polygon fill="white" stroke="black" points="15.5,-221 15.5,-505 140.5,-505 140.5,-221 15.5,-221"/>
<text text-anchor="start" x="23.5" y="-492" font-family="Helvetica,sans-Serif" font-size="10.00">gs::cnf::gs_config</text>
<text text-anchor="start" x="23.5" y="-479" font-family="Helvetica,sans-Serif" font-size="10.00">_t&lt; std::vector&lt; std</text>
<text text-anchor="middle" x="78" y="-466" font-family="Helvetica,sans-Serif" font-size="10.00">::string &gt; &gt;</text>
<polyline fill="none" stroke="black" points="15.5,-458 140.5,-458 "/>
<text text-anchor="start" x="23.5" y="-445" font-family="Helvetica,sans-Serif" font-size="10.00"># my_value</text>
<text text-anchor="start" x="23.5" y="-432" font-family="Helvetica,sans-Serif" font-size="10.00"># return_string</text>
<text text-anchor="start" x="23.5" y="-419" font-family="Helvetica,sans-Serif" font-size="10.00"># m_mirror_param</text>
<text text-anchor="start" x="23.5" y="-406" font-family="Helvetica,sans-Serif" font-size="10.00"># m_mirror_val</text>
<polyline fill="none" stroke="black" points="15.5,-398 140.5,-398 "/>
<text text-anchor="start" x="23.5" y="-385" font-family="Helvetica,sans-Serif" font-size="10.00">+ operator+=()</text>
<text text-anchor="start" x="23.5" y="-372" font-family="Helvetica,sans-Serif" font-size="10.00">+ operator&#45;=()</text>
<text text-anchor="start" x="23.5" y="-359" font-family="Helvetica,sans-Serif" font-size="10.00">+ operator/=()</text>
<text text-anchor="start" x="23.5" y="-346" font-family="Helvetica,sans-Serif" font-size="10.00">+ operator*=()</text>
<text text-anchor="start" x="23.5" y="-333" font-family="Helvetica,sans-Serif" font-size="10.00">+ operator+()</text>
<text text-anchor="start" x="23.5" y="-320" font-family="Helvetica,sans-Serif" font-size="10.00">+ operator&#45;()</text>
<text text-anchor="start" x="23.5" y="-307" font-family="Helvetica,sans-Serif" font-size="10.00">+ operator/()</text>
<text text-anchor="start" x="23.5" y="-294" font-family="Helvetica,sans-Serif" font-size="10.00">+ operator*()</text>
<text text-anchor="start" x="23.5" y="-281" font-family="Helvetica,sans-Serif" font-size="10.00">+ operator%=()</text>
<text text-anchor="start" x="23.5" y="-268" font-family="Helvetica,sans-Serif" font-size="10.00">+ operator^=()</text>
<text text-anchor="start" x="23.5" y="-255" font-family="Helvetica,sans-Serif" font-size="10.00">and 27 more...</text>
<text text-anchor="start" x="23.5" y="-242" font-family="Helvetica,sans-Serif" font-size="10.00"># mirror_callback()</text>
<text text-anchor="start" x="23.5" y="-229" font-family="Helvetica,sans-Serif" font-size="10.00"># convertStringToValue()</text>
</a>
</g>
<!-- Node2&#45;&gt;Node1 -->
<g id="edge2" class="edge"><title>Node2&#45;&gt;Node1</title>
<path fill="none" stroke="midnightblue" d="M78,-210.625C78,-200.654 78,-190.802 78,-181.289"/>
<polygon fill="none" stroke="midnightblue" points="74.5001,-210.627 78,-220.627 81.5001,-210.627 74.5001,-210.627"/>
</g>
<!-- Node3 -->
<g id="node4" class="node"><title>Node3</title>
<a xlink:href="classgs_1_1cnf_1_1gs__config__base.html" target="_top" xlink:title="{gs::cnf::gs_config_base\n||+ gs_config_base()\l+ setProperty()\l+ getProperty()\l+ getProperties()\l+ deleteProperty()\l+ exists()\l+ add_properties()\l}">
<polygon fill="white" stroke="black" points="-0.5,-878.5 -0.5,-1019.5 120.5,-1019.5 120.5,-878.5 -0.5,-878.5"/>
<text text-anchor="middle" x="60" y="-1006.5" font-family="Helvetica,sans-Serif" font-size="10.00">gs::cnf::gs_config_base</text>
<polyline fill="none" stroke="black" points="-0.5,-998.5 120.5,-998.5 "/>
<text text-anchor="middle" x="60" y="-985.5" font-family="Helvetica,sans-Serif" font-size="10.00"> </text>
<polyline fill="none" stroke="black" points="-0.5,-977.5 120.5,-977.5 "/>
<text text-anchor="start" x="7.5" y="-964.5" font-family="Helvetica,sans-Serif" font-size="10.00">+ gs_config_base()</text>
<text text-anchor="start" x="7.5" y="-951.5" font-family="Helvetica,sans-Serif" font-size="10.00">+ setProperty()</text>
<text text-anchor="start" x="7.5" y="-938.5" font-family="Helvetica,sans-Serif" font-size="10.00">+ getProperty()</text>
<text text-anchor="start" x="7.5" y="-925.5" font-family="Helvetica,sans-Serif" font-size="10.00">+ getProperties()</text>
<text text-anchor="start" x="7.5" y="-912.5" font-family="Helvetica,sans-Serif" font-size="10.00">+ deleteProperty()</text>
<text text-anchor="start" x="7.5" y="-899.5" font-family="Helvetica,sans-Serif" font-size="10.00">+ exists()</text>
<text text-anchor="start" x="7.5" y="-886.5" font-family="Helvetica,sans-Serif" font-size="10.00">+ add_properties()</text>
</a>
</g>
<!-- Node3&#45;&gt;Node2 -->
<g id="edge4" class="edge"><title>Node3&#45;&gt;Node2</title>
<path fill="none" stroke="midnightblue" d="M60.6587,-868.28C61.4832,-791.145 63.2696,-671.61 67,-568 67.731,-547.698 68.6818,-526.273 69.7183,-505.232"/>
<polygon fill="none" stroke="midnightblue" points="57.1576,-868.372 60.5534,-878.408 64.1573,-868.445 57.1576,-868.372"/>
</g>
<!-- Node5 -->
<g id="node8" class="node"><title>Node5</title>
<a xlink:href="classgs_1_1cnf_1_1gs__config__t.html" target="_top" xlink:title="Template specialized base class for configuration parameters. ">
<polygon fill="white" stroke="black" points="75.5,-568.5 75.5,-839.5 200.5,-839.5 200.5,-568.5 75.5,-568.5"/>
<text text-anchor="start" x="83.5" y="-826.5" font-family="Helvetica,sans-Serif" font-size="10.00">gs::cnf::gs_config</text>
<text text-anchor="middle" x="138" y="-813.5" font-family="Helvetica,sans-Serif" font-size="10.00">_t&lt; T &gt;</text>
<polyline fill="none" stroke="black" points="75.5,-805.5 200.5,-805.5 "/>
<text text-anchor="start" x="83.5" y="-792.5" font-family="Helvetica,sans-Serif" font-size="10.00"># my_value</text>
<text text-anchor="start" x="83.5" y="-779.5" font-family="Helvetica,sans-Serif" font-size="10.00"># return_string</text>
<text text-anchor="start" x="83.5" y="-766.5" font-family="Helvetica,sans-Serif" font-size="10.00"># m_mirror_param</text>
<text text-anchor="start" x="83.5" y="-753.5" font-family="Helvetica,sans-Serif" font-size="10.00"># m_mirror_val</text>
<polyline fill="none" stroke="black" points="75.5,-745.5 200.5,-745.5 "/>
<text text-anchor="start" x="83.5" y="-732.5" font-family="Helvetica,sans-Serif" font-size="10.00">+ operator+=()</text>
<text text-anchor="start" x="83.5" y="-719.5" font-family="Helvetica,sans-Serif" font-size="10.00">+ operator&#45;=()</text>
<text text-anchor="start" x="83.5" y="-706.5" font-family="Helvetica,sans-Serif" font-size="10.00">+ operator/=()</text>
<text text-anchor="start" x="83.5" y="-693.5" font-family="Helvetica,sans-Serif" font-size="10.00">+ operator*=()</text>
<text text-anchor="start" x="83.5" y="-680.5" font-family="Helvetica,sans-Serif" font-size="10.00">+ operator+()</text>
<text text-anchor="start" x="83.5" y="-667.5" font-family="Helvetica,sans-Serif" font-size="10.00">+ operator&#45;()</text>
<text text-anchor="start" x="83.5" y="-654.5" font-family="Helvetica,sans-Serif" font-size="10.00">+ operator/()</text>
<text text-anchor="start" x="83.5" y="-641.5" font-family="Helvetica,sans-Serif" font-size="10.00">+ operator*()</text>
<text text-anchor="start" x="83.5" y="-628.5" font-family="Helvetica,sans-Serif" font-size="10.00">+ operator%=()</text>
<text text-anchor="start" x="83.5" y="-615.5" font-family="Helvetica,sans-Serif" font-size="10.00">+ operator^=()</text>
<text text-anchor="start" x="83.5" y="-602.5" font-family="Helvetica,sans-Serif" font-size="10.00">and 27 more...</text>
<text text-anchor="start" x="83.5" y="-589.5" font-family="Helvetica,sans-Serif" font-size="10.00"># mirror_callback()</text>
<text text-anchor="start" x="83.5" y="-576.5" font-family="Helvetica,sans-Serif" font-size="10.00"># convertStringToValue()</text>
</a>
</g>
<!-- Node3&#45;&gt;Node5 -->
<g id="edge10" class="edge"><title>Node3&#45;&gt;Node5</title>
<path fill="none" stroke="midnightblue" d="M85.5355,-868.792C88.5358,-859.368 91.6574,-849.563 94.816,-839.642"/>
<polygon fill="none" stroke="midnightblue" points="82.1548,-867.874 82.4562,-878.465 88.825,-869.998 82.1548,-867.874"/>
</g>
<!-- Node4 -->
<g id="node6" class="node"><title>Node4</title>
<a xlink:href="classgs__param__base.html" target="_top" xlink:title="{gs_param_base\n||}">
<polygon fill="white" stroke="black" points="17,-1058.5 17,-1121.5 103,-1121.5 103,-1058.5 17,-1058.5"/>
<text text-anchor="middle" x="60" y="-1108.5" font-family="Helvetica,sans-Serif" font-size="10.00">gs_param_base</text>
<polyline fill="none" stroke="black" points="17,-1100.5 103,-1100.5 "/>
<text text-anchor="middle" x="60" y="-1087.5" font-family="Helvetica,sans-Serif" font-size="10.00"> </text>
<polyline fill="none" stroke="black" points="17,-1079.5 103,-1079.5 "/>
<text text-anchor="middle" x="60" y="-1066.5" font-family="Helvetica,sans-Serif" font-size="10.00"> </text>
</a>
</g>
<!-- Node4&#45;&gt;Node3 -->
<g id="edge6" class="edge"><title>Node4&#45;&gt;Node3</title>
<path fill="none" stroke="midnightblue" d="M60,-1048.19C60,-1039.21 60,-1029.47 60,-1019.72"/>
<polygon fill="none" stroke="midnightblue" points="56.5001,-1048.36 60,-1058.36 63.5001,-1048.36 56.5001,-1048.36"/>
</g>
<!-- Node5&#45;&gt;Node2 -->
<g id="edge8" class="edge"><title>Node5&#45;&gt;Node2</title>
<path fill="none" stroke="orange" d="M112.311,-558.003C109.236,-540.525 106.099,-522.696 103.033,-505.272"/>
<polygon fill="orange" stroke="orange" points="108.934,-559.006 114.114,-568.248 115.828,-557.793 108.934,-559.006"/>
<text text-anchor="start" x="109" y="-541" font-family="Helvetica,sans-Serif" font-size="10.00"> &lt; std::vector&lt; std</text>
<text text-anchor="middle" x="150" y="-528" font-family="Helvetica,sans-Serif" font-size="10.00">::string &gt; &gt;</text>
</g>
</g>
</svg>
