<?xml version="1.0" encoding="UTF-8" standalone="no"?>
<!DOCTYPE svg PUBLIC "-//W3C//DTD SVG 1.1//EN"
 "http://www.w3.org/Graphics/SVG/1.1/DTD/svg11.dtd">
<!-- Generated by graphviz version 2.38.0 (20140413.2041)
 -->
<!-- Title: leon3_funclt_trap::FLUSH_reg Pages: 1 -->
<svg width="1389pt" height="817pt"
 viewBox="0.00 0.00 1389.26 817.00" xmlns="http://www.w3.org/2000/svg" xmlns:xlink="http://www.w3.org/1999/xlink">
<g id="graph0" class="graph" transform="scale(1 1) rotate(0) translate(4 813)">
<title>leon3_funclt_trap::FLUSH_reg</title>
<polygon fill="white" stroke="none" points="-4,4 -4,-813 1385.26,-813 1385.26,4 -4,4"/>
<!-- Node1 -->
<g id="node1" class="node"><title>Node1</title>
<polygon fill="#bfbfbf" stroke="black" points="674.186,-0.5 674.186,-134.5 792.173,-134.5 792.173,-0.5 674.186,-0.5"/>
<text text-anchor="start" x="682.186" y="-122.5" font-family="Helvetica,sans-Serif" font-size="10.00">leon3_funclt_trap::</text>
<text text-anchor="middle" x="733.18" y="-112.5" font-family="Helvetica,sans-Serif" font-size="10.00">FLUSH_reg</text>
<polyline fill="none" stroke="black" points="674.186,-106.5 792.173,-106.5 "/>
<text text-anchor="middle" x="733.18" y="-94.5" font-family="Helvetica,sans-Serif" font-size="10.00"> </text>
<polyline fill="none" stroke="black" points="674.186,-88.5 792.173,-88.5 "/>
<text text-anchor="start" x="682.186" y="-76.5" font-family="Helvetica,sans-Serif" font-size="10.00">+ FLUSH_reg()</text>
<text text-anchor="start" x="682.186" y="-66.5" font-family="Helvetica,sans-Serif" font-size="10.00">+ behavior()</text>
<text text-anchor="start" x="682.186" y="-56.5" font-family="Helvetica,sans-Serif" font-size="10.00">+ replicate()</text>
<text text-anchor="start" x="682.186" y="-46.5" font-family="Helvetica,sans-Serif" font-size="10.00">+ getInstructionName()</text>
<text text-anchor="start" x="682.186" y="-36.5" font-family="Helvetica,sans-Serif" font-size="10.00">+ getId()</text>
<text text-anchor="start" x="682.186" y="-26.5" font-family="Helvetica,sans-Serif" font-size="10.00">+ setParams()</text>
<text text-anchor="start" x="682.186" y="-16.5" font-family="Helvetica,sans-Serif" font-size="10.00">+ getMnemonic()</text>
<text text-anchor="start" x="682.186" y="-6.5" font-family="Helvetica,sans-Serif" font-size="10.00">+ ~FLUSH_reg()</text>
</g>
<!-- Node2 -->
<g id="node2" class="node"><title>Node2</title>
<g id="a_node2"><a xlink:href="classleon3__funclt__trap_1_1Instruction.html" target="_top" xlink:title="{leon3_funclt_trap::\lInstruction\n||+ Instruction()\l+ behavior()\l+ replicate()\l+ setParams()\l+ getInstructionName()\l+ getMnemonic()\l+ getId()\l+ annull()\l+ flush()\l+ stall()\land 7 more...\l# IncrementPC()\l}">
<polygon fill="white" stroke="black" points="674.186,-172.5 674.186,-346.5 792.173,-346.5 792.173,-172.5 674.186,-172.5"/>
<text text-anchor="start" x="682.186" y="-334.5" font-family="Helvetica,sans-Serif" font-size="10.00">leon3_funclt_trap::</text>
<text text-anchor="middle" x="733.18" y="-324.5" font-family="Helvetica,sans-Serif" font-size="10.00">Instruction</text>
<polyline fill="none" stroke="black" points="674.186,-318.5 792.173,-318.5 "/>
<text text-anchor="middle" x="733.18" y="-306.5" font-family="Helvetica,sans-Serif" font-size="10.00"> </text>
<polyline fill="none" stroke="black" points="674.186,-300.5 792.173,-300.5 "/>
<text text-anchor="start" x="682.186" y="-288.5" font-family="Helvetica,sans-Serif" font-size="10.00">+ Instruction()</text>
<text text-anchor="start" x="682.186" y="-278.5" font-family="Helvetica,sans-Serif" font-size="10.00">+ behavior()</text>
<text text-anchor="start" x="682.186" y="-268.5" font-family="Helvetica,sans-Serif" font-size="10.00">+ replicate()</text>
<text text-anchor="start" x="682.186" y="-258.5" font-family="Helvetica,sans-Serif" font-size="10.00">+ setParams()</text>
<text text-anchor="start" x="682.186" y="-248.5" font-family="Helvetica,sans-Serif" font-size="10.00">+ getInstructionName()</text>
<text text-anchor="start" x="682.186" y="-238.5" font-family="Helvetica,sans-Serif" font-size="10.00">+ getMnemonic()</text>
<text text-anchor="start" x="682.186" y="-228.5" font-family="Helvetica,sans-Serif" font-size="10.00">+ getId()</text>
<text text-anchor="start" x="682.186" y="-218.5" font-family="Helvetica,sans-Serif" font-size="10.00">+ annull()</text>
<text text-anchor="start" x="682.186" y="-208.5" font-family="Helvetica,sans-Serif" font-size="10.00">+ flush()</text>
<text text-anchor="start" x="682.186" y="-198.5" font-family="Helvetica,sans-Serif" font-size="10.00">+ stall()</text>
<text text-anchor="start" x="682.186" y="-188.5" font-family="Helvetica,sans-Serif" font-size="10.00">and 7 more...</text>
<text text-anchor="start" x="682.186" y="-178.5" font-family="Helvetica,sans-Serif" font-size="10.00"># IncrementPC()</text>
</a>
</g>
</g>
<!-- Node2&#45;&gt;Node1 -->
<g id="edge1" class="edge"><title>Node2&#45;&gt;Node1</title>
<path fill="none" stroke="midnightblue" d="M733.18,-162.273C733.18,-152.936 733.18,-143.614 733.18,-134.669"/>
<polygon fill="none" stroke="midnightblue" points="729.68,-162.395 733.18,-172.395 736.68,-162.395 729.68,-162.395"/>
</g>
<!-- Node3 -->
<g id="node3" class="node"><title>Node3</title>
<g id="a_node3"><a xlink:href="classtrap_1_1InstructionBase.html" target="_top" xlink:title="{trap::InstructionBase\n||+ getInstructionName()\l+ getMnemonic()\l+ getId()\l}">
<polygon fill="white" stroke="black" points="41.186,-478.5 41.186,-552.5 159.173,-552.5 159.173,-478.5 41.186,-478.5"/>
<text text-anchor="middle" x="100.18" y="-540.5" font-family="Helvetica,sans-Serif" font-size="10.00">trap::InstructionBase</text>
<polyline fill="none" stroke="black" points="41.186,-534.5 159.173,-534.5 "/>
<text text-anchor="middle" x="100.18" y="-522.5" font-family="Helvetica,sans-Serif" font-size="10.00"> </text>
<polyline fill="none" stroke="black" points="41.186,-516.5 159.173,-516.5 "/>
<text text-anchor="start" x="49.186" y="-504.5" font-family="Helvetica,sans-Serif" font-size="10.00">+ getInstructionName()</text>
<text text-anchor="start" x="49.186" y="-494.5" font-family="Helvetica,sans-Serif" font-size="10.00">+ getMnemonic()</text>
<text text-anchor="start" x="49.186" y="-484.5" font-family="Helvetica,sans-Serif" font-size="10.00">+ getId()</text>
</a>
</g>
</g>
<!-- Node3&#45;&gt;Node2 -->
<g id="edge2" class="edge"><title>Node3&#45;&gt;Node2</title>
<path fill="none" stroke="midnightblue" d="M132.271,-470.501C142.871,-457.574 155.276,-443.973 168.18,-433 213.413,-394.533 228.062,-387.085 283.18,-365 417.562,-311.156 586.155,-281.29 673.91,-268.357"/>
<polygon fill="none" stroke="midnightblue" points="129.438,-468.44 125.916,-478.433 134.901,-472.817 129.438,-468.44"/>
</g>
<!-- Node4 -->
<g id="node4" class="node"><title>Node4</title>
<g id="a_node4"><a xlink:href="classleon3__funclt__trap_1_1PinTLM__out__32.html" target="_top" xlink:title="{leon3_funclt_trap::\lPinTLM_out_32\n||+ SK_HAS_SIGNALS()\l+ PinTLM_out_32()\l+ send_pin_req()\l+ on_run()\l}">
<polygon fill="white" stroke="black" points="177.354,-468.5 177.354,-562.5 297.006,-562.5 297.006,-468.5 177.354,-468.5"/>
<text text-anchor="start" x="185.354" y="-550.5" font-family="Helvetica,sans-Serif" font-size="10.00">leon3_funclt_trap::</text>
<text text-anchor="middle" x="237.18" y="-540.5" font-family="Helvetica,sans-Serif" font-size="10.00">PinTLM_out_32</text>
<polyline fill="none" stroke="black" points="177.354,-534.5 297.006,-534.5 "/>
<text text-anchor="middle" x="237.18" y="-522.5" font-family="Helvetica,sans-Serif" font-size="10.00"> </text>
<polyline fill="none" stroke="black" points="177.354,-516.5 297.006,-516.5 "/>
<text text-anchor="start" x="185.354" y="-504.5" font-family="Helvetica,sans-Serif" font-size="10.00">+ SK_HAS_SIGNALS()</text>
<text text-anchor="start" x="185.354" y="-494.5" font-family="Helvetica,sans-Serif" font-size="10.00">+ PinTLM_out_32()</text>
<text text-anchor="start" x="185.354" y="-484.5" font-family="Helvetica,sans-Serif" font-size="10.00">+ send_pin_req()</text>
<text text-anchor="start" x="185.354" y="-474.5" font-family="Helvetica,sans-Serif" font-size="10.00">+ on_run()</text>
</a>
</g>
</g>
<!-- Node4&#45;&gt;Node2 -->
<g id="edge3" class="edge"><title>Node4&#45;&gt;Node2</title>
<path fill="none" stroke="#404040" d="M255.71,-468.322C271.462,-434.823 297.252,-390.996 333.057,-365 431.899,-293.234 576.086,-270.702 661.691,-263.661"/>
<polygon fill="none" stroke="#404040" points="661.918,-263.644 667.597,-259.199 673.884,-262.731 668.205,-267.176 661.918,-263.644"/>
<text text-anchor="middle" x="351.241" y="-387" font-family="Helvetica,sans-Serif" font-size="10.00"> #irqAck</text>
</g>
<!-- Node5 -->
<g id="node5" class="node"><title>Node5</title>
<polygon fill="white" stroke="#bfbfbf" points="0,-699.5 0,-753.5 64.3594,-753.5 64.3594,-699.5 0,-699.5"/>
<text text-anchor="middle" x="32.1797" y="-741.5" font-family="Helvetica,sans-Serif" font-size="10.00">sc_module</text>
<polyline fill="none" stroke="#bfbfbf" points="0,-735.5 64.3594,-735.5 "/>
<text text-anchor="middle" x="32.1797" y="-723.5" font-family="Helvetica,sans-Serif" font-size="10.00"> </text>
<polyline fill="none" stroke="#bfbfbf" points="0,-717.5 64.3594,-717.5 "/>
<text text-anchor="middle" x="32.1797" y="-705.5" font-family="Helvetica,sans-Serif" font-size="10.00"> </text>
</g>
<!-- Node5&#45;&gt;Node4 -->
<g id="edge4" class="edge"><title>Node5&#45;&gt;Node4</title>
<path fill="none" stroke="midnightblue" d="M46.5321,-690.034C53.4427,-675.084 62.5485,-657.951 73.1797,-644 84.4325,-629.233 87.9258,-624.972 104.18,-616 130.048,-601.72 143.323,-613.975 168.18,-598 182.528,-588.779 195.475,-575.659 206.174,-562.635"/>
<polygon fill="none" stroke="midnightblue" points="43.1923,-688.93 42.3138,-699.488 49.5848,-691.782 43.1923,-688.93"/>
</g>
<!-- Node6 -->
<g id="node6" class="node"><title>Node6</title>
<polygon fill="white" stroke="#bfbfbf" points="82.6797,-699.5 82.6797,-753.5 111.68,-753.5 111.68,-699.5 82.6797,-699.5"/>
<text text-anchor="middle" x="97.0713" y="-741.5" font-family="Helvetica,sans-Serif" font-size="10.00">in</text>
<polyline fill="none" stroke="#bfbfbf" points="82.6797,-735.5 111.463,-735.5 "/>
<text text-anchor="middle" x="97.0713" y="-723.5" font-family="Helvetica,sans-Serif" font-size="10.00"> </text>
<polyline fill="none" stroke="#bfbfbf" points="82.6797,-717.5 111.463,-717.5 "/>
<text text-anchor="middle" x="97.0713" y="-705.5" font-family="Helvetica,sans-Serif" font-size="10.00"> </text>
</g>
<!-- Node6&#45;&gt;Node4 -->
<g id="edge5" class="edge"><title>Node6&#45;&gt;Node4</title>
<path fill="none" stroke="#404040" d="M94.0731,-699.389C92.6681,-675.029 94.6198,-639.071 114.108,-616 130.453,-596.651 147.201,-612.193 168.18,-598 178.769,-590.836 188.66,-581.618 197.461,-571.972"/>
<polygon fill="none" stroke="#404040" points="197.688,-571.71 198.598,-564.556 205.552,-562.645 204.641,-569.799 197.688,-571.71"/>
<text text-anchor="middle" x="125.715" y="-618" font-family="Helvetica,sans-Serif" font-size="10.00"> +run</text>
</g>
<!-- Node7 -->
<g id="node7" class="node"><title>Node7</title>
<polygon fill="white" stroke="#bfbfbf" points="158.229,-699.5 158.229,-753.5 188.13,-753.5 188.13,-699.5 158.229,-699.5"/>
<text text-anchor="middle" x="173.18" y="-741.5" font-family="Helvetica,sans-Serif" font-size="10.00">out</text>
<polyline fill="none" stroke="#bfbfbf" points="158.229,-735.5 188.13,-735.5 "/>
<text text-anchor="middle" x="173.18" y="-723.5" font-family="Helvetica,sans-Serif" font-size="10.00"> </text>
<polyline fill="none" stroke="#bfbfbf" points="158.229,-717.5 188.13,-717.5 "/>
<text text-anchor="middle" x="173.18" y="-705.5" font-family="Helvetica,sans-Serif" font-size="10.00"> </text>
</g>
<!-- Node7&#45;&gt;Node4 -->
<g id="edge6" class="edge"><title>Node7&#45;&gt;Node4</title>
<path fill="none" stroke="#404040" d="M158.182,-703.144C144.891,-680.311 129.629,-644.296 143.882,-616 149.928,-603.997 158.373,-607.19 168.18,-598 176.804,-589.919 185.411,-580.808 193.476,-571.682"/>
<polygon fill="none" stroke="#404040" points="193.491,-571.665 194.39,-564.51 201.34,-562.589 200.441,-569.743 193.491,-571.665"/>
<text text-anchor="middle" x="161.829" y="-618" font-family="Helvetica,sans-Serif" font-size="10.00"> +status</text>
</g>
<!-- Node7&#45;&gt;Node4 -->
<g id="edge9" class="edge"><title>Node7&#45;&gt;Node4</title>
<path fill="none" stroke="#404040" d="M179.442,-699.221C184.909,-676.931 193.306,-644.181 201.98,-616 206.15,-602.455 211.013,-588.013 215.77,-574.451"/>
<polygon fill="none" stroke="#404040" points="215.889,-574.114 214.126,-567.121 219.902,-562.805 221.666,-569.797 215.889,-574.114"/>
<text text-anchor="middle" x="226.779" y="-618" font-family="Helvetica,sans-Serif" font-size="10.00"> +initSignal</text>
</g>
<!-- Node8 -->
<g id="node8" class="node"><title>Node8</title>
<g id="a_node8"><a xlink:href="classsc__event.html" target="_top" xlink:title="{sc_event\n||}">
<polygon fill="white" stroke="black" points="245.167,-699.5 245.167,-753.5 301.192,-753.5 301.192,-699.5 245.167,-699.5"/>
<text text-anchor="middle" x="273.18" y="-741.5" font-family="Helvetica,sans-Serif" font-size="10.00">sc_event</text>
<polyline fill="none" stroke="black" points="245.167,-735.5 301.192,-735.5 "/>
<text text-anchor="middle" x="273.18" y="-723.5" font-family="Helvetica,sans-Serif" font-size="10.00"> </text>
<polyline fill="none" stroke="black" points="245.167,-717.5 301.192,-717.5 "/>
<text text-anchor="middle" x="273.18" y="-705.5" font-family="Helvetica,sans-Serif" font-size="10.00"> </text>
</a>
</g>
</g>
<!-- Node8&#45;&gt;Node4 -->
<g id="edge7" class="edge"><title>Node8&#45;&gt;Node4</title>
<path fill="none" stroke="#404040" d="M268.693,-699.453C263.352,-668.446 254.271,-615.723 247.225,-574.818"/>
<polygon fill="none" stroke="#404040" points="247.194,-574.637 242.233,-569.403 245.157,-562.811 250.117,-568.045 247.194,-574.637"/>
<text text-anchor="middle" x="269.213" y="-618" font-family="Helvetica,sans-Serif" font-size="10.00"> +start</text>
</g>
<!-- Node9 -->
<g id="node9" class="node"><title>Node9</title>
<g id="a_node9"><a xlink:href="classbool.html" target="_top" xlink:title="{bool\n||}">
<polygon fill="white" stroke="black" points="342.727,-699.5 342.727,-753.5 377.633,-753.5 377.633,-699.5 342.727,-699.5"/>
<text text-anchor="middle" x="360.18" y="-741.5" font-family="Helvetica,sans-Serif" font-size="10.00">bool</text>
<polyline fill="none" stroke="black" points="342.727,-735.5 377.633,-735.5 "/>
<text text-anchor="middle" x="360.18" y="-723.5" font-family="Helvetica,sans-Serif" font-size="10.00"> </text>
<polyline fill="none" stroke="black" points="342.727,-717.5 377.633,-717.5 "/>
<text text-anchor="middle" x="360.18" y="-705.5" font-family="Helvetica,sans-Serif" font-size="10.00"> </text>
</a>
</g>
</g>
<!-- Node9&#45;&gt;Node2 -->
<g id="edge14" class="edge"><title>Node9&#45;&gt;Node2</title>
<path fill="none" stroke="#404040" d="M355.409,-699.233C346.952,-644.341 335.214,-515.72 392.553,-433 455.86,-341.669 582.328,-295.981 662.084,-275.323"/>
<polygon fill="none" stroke="#404040" points="662.344,-275.258 667.19,-269.917 673.983,-272.336 669.137,-277.677 662.344,-275.258"/>
<text text-anchor="middle" x="439.493" y="-512.5" font-family="Helvetica,sans-Serif" font-size="10.00"> #PIPELINED_MULT</text>
</g>
<!-- Node9&#45;&gt;Node4 -->
<g id="edge8" class="edge"><title>Node9&#45;&gt;Node4</title>
<path fill="none" stroke="#404040" d="M344.85,-699.453C326.367,-668.046 294.771,-614.358 270.572,-573.24"/>
<polygon fill="none" stroke="#404040" points="270.521,-573.153 264.03,-570.011 264.434,-562.811 270.925,-565.953 270.521,-573.153"/>
<text text-anchor="middle" x="321.282" y="-618" font-family="Helvetica,sans-Serif" font-size="10.00"> +stopped</text>
</g>
<!-- Node10 -->
<g id="node10" class="node"><title>Node10</title>
<g id="a_node10"><a xlink:href="classleon3__funclt__trap_1_1Alias.html" target="_top" xlink:title="{leon3_funclt_trap::\lAlias\n||+ ~Alias()\l+ Alias()\l+ Alias()\l+ Alias()\l+ operator[]()\l+ immediateWrite()\l+ readNewValue()\l+ getReg()\l+ operator~()\l+ operator=()\land 63 more...\l}">
<polygon fill="white" stroke="black" points="493.899,-433.5 493.899,-597.5 594.46,-597.5 594.46,-433.5 493.899,-433.5"/>
<text text-anchor="start" x="501.899" y="-585.5" font-family="Helvetica,sans-Serif" font-size="10.00">leon3_funclt_trap::</text>
<text text-anchor="middle" x="544.18" y="-575.5" font-family="Helvetica,sans-Serif" font-size="10.00">Alias</text>
<polyline fill="none" stroke="black" points="493.899,-569.5 594.46,-569.5 "/>
<text text-anchor="middle" x="544.18" y="-557.5" font-family="Helvetica,sans-Serif" font-size="10.00"> </text>
<polyline fill="none" stroke="black" points="493.899,-551.5 594.46,-551.5 "/>
<text text-anchor="start" x="501.899" y="-539.5" font-family="Helvetica,sans-Serif" font-size="10.00">+ ~Alias()</text>
<text text-anchor="start" x="501.899" y="-529.5" font-family="Helvetica,sans-Serif" font-size="10.00">+ Alias()</text>
<text text-anchor="start" x="501.899" y="-519.5" font-family="Helvetica,sans-Serif" font-size="10.00">+ Alias()</text>
<text text-anchor="start" x="501.899" y="-509.5" font-family="Helvetica,sans-Serif" font-size="10.00">+ Alias()</text>
<text text-anchor="start" x="501.899" y="-499.5" font-family="Helvetica,sans-Serif" font-size="10.00">+ operator[]()</text>
<text text-anchor="start" x="501.899" y="-489.5" font-family="Helvetica,sans-Serif" font-size="10.00">+ immediateWrite()</text>
<text text-anchor="start" x="501.899" y="-479.5" font-family="Helvetica,sans-Serif" font-size="10.00">+ readNewValue()</text>
<text text-anchor="start" x="501.899" y="-469.5" font-family="Helvetica,sans-Serif" font-size="10.00">+ getReg()</text>
<text text-anchor="start" x="501.899" y="-459.5" font-family="Helvetica,sans-Serif" font-size="10.00">+ operator~()</text>
<text text-anchor="start" x="501.899" y="-449.5" font-family="Helvetica,sans-Serif" font-size="10.00">+ operator=()</text>
<text text-anchor="start" x="501.899" y="-439.5" font-family="Helvetica,sans-Serif" font-size="10.00">and 63 more...</text>
</a>
</g>
</g>
<!-- Node10&#45;&gt;Node2 -->
<g id="edge10" class="edge"><title>Node10&#45;&gt;Node2</title>
<path fill="none" stroke="#404040" d="M553.423,-433.177C558.908,-409.682 567.633,-385.008 581.5,-365 602.104,-335.272 634.112,-311.414 663.423,-294.041"/>
<polygon fill="none" stroke="#404040" points="663.663,-293.904 666.879,-287.45 674.074,-287.936 670.858,-294.39 663.663,-293.904"/>
<text text-anchor="middle" x="600.52" y="-407" font-family="Helvetica,sans-Serif" font-size="10.00"> #REGS</text>
<text text-anchor="middle" x="600.52" y="-397" font-family="Helvetica,sans-Serif" font-size="10.00">#LR</text>
<text text-anchor="middle" x="600.52" y="-387" font-family="Helvetica,sans-Serif" font-size="10.00">#PCR</text>
<text text-anchor="middle" x="600.52" y="-377" font-family="Helvetica,sans-Serif" font-size="10.00">#FP</text>
<text text-anchor="middle" x="600.52" y="-367" font-family="Helvetica,sans-Serif" font-size="10.00">#SP</text>
</g>
<!-- Node11 -->
<g id="node11" class="node"><title>Node11</title>
<g id="a_node11"><a xlink:href="classint.html" target="_top" xlink:title="{int\n||}">
<polygon fill="white" stroke="black" points="612.68,-488.5 612.68,-542.5 641.68,-542.5 641.68,-488.5 612.68,-488.5"/>
<text text-anchor="middle" x="626.96" y="-530.5" font-family="Helvetica,sans-Serif" font-size="10.00">int</text>
<polyline fill="none" stroke="black" points="612.68,-524.5 641.241,-524.5 "/>
<text text-anchor="middle" x="626.96" y="-512.5" font-family="Helvetica,sans-Serif" font-size="10.00"> </text>
<polyline fill="none" stroke="black" points="612.68,-506.5 641.241,-506.5 "/>
<text text-anchor="middle" x="626.96" y="-494.5" font-family="Helvetica,sans-Serif" font-size="10.00"> </text>
</a>
</g>
</g>
<!-- Node11&#45;&gt;Node2 -->
<g id="edge11" class="edge"><title>Node11&#45;&gt;Node2</title>
<path fill="none" stroke="#404040" d="M622.752,-488.436C618.712,-457.616 615.682,-405.405 632.835,-365 640.405,-347.169 652.501,-330.609 665.717,-316.169"/>
<polygon fill="none" stroke="#404040" points="665.758,-316.125 667.02,-309.025 674.059,-307.459 672.797,-314.559 665.758,-316.125"/>
<text text-anchor="middle" x="674.852" y="-392" font-family="Helvetica,sans-Serif" font-size="10.00"> #NUM_REG_WIN</text>
<text text-anchor="middle" x="674.852" y="-382" font-family="Helvetica,sans-Serif" font-size="10.00">+totalInstrCycles</text>
</g>
<!-- Node12 -->
<g id="node12" class="node"><title>Node12</title>
<g id="a_node12"><a xlink:href="classleon3__funclt__trap_1_1Reg32__0.html" target="_top" xlink:title="{leon3_funclt_trap::\lReg32_0\n||+ Reg32_0()\l+ operator[]()\l+ immediateWrite()\l+ readNewValue()\l+ operator~()\l+ operator=()\l+ operator+=()\l+ operator&#45;=()\l+ operator*=()\l+ operator/=()\land 57 more...\l}">
<polygon fill="white" stroke="black" points="659.899,-433.5 659.899,-597.5 760.46,-597.5 760.46,-433.5 659.899,-433.5"/>
<text text-anchor="start" x="667.899" y="-585.5" font-family="Helvetica,sans-Serif" font-size="10.00">leon3_funclt_trap::</text>
<text text-anchor="middle" x="710.18" y="-575.5" font-family="Helvetica,sans-Serif" font-size="10.00">Reg32_0</text>
<polyline fill="none" stroke="black" points="659.899,-569.5 760.46,-569.5 "/>
<text text-anchor="middle" x="710.18" y="-557.5" font-family="Helvetica,sans-Serif" font-size="10.00"> </text>
<polyline fill="none" stroke="black" points="659.899,-551.5 760.46,-551.5 "/>
<text text-anchor="start" x="667.899" y="-539.5" font-family="Helvetica,sans-Serif" font-size="10.00">+ Reg32_0()</text>
<text text-anchor="start" x="667.899" y="-529.5" font-family="Helvetica,sans-Serif" font-size="10.00">+ operator[]()</text>
<text text-anchor="start" x="667.899" y="-519.5" font-family="Helvetica,sans-Serif" font-size="10.00">+ immediateWrite()</text>
<text text-anchor="start" x="667.899" y="-509.5" font-family="Helvetica,sans-Serif" font-size="10.00">+ readNewValue()</text>
<text text-anchor="start" x="667.899" y="-499.5" font-family="Helvetica,sans-Serif" font-size="10.00">+ operator~()</text>
<text text-anchor="start" x="667.899" y="-489.5" font-family="Helvetica,sans-Serif" font-size="10.00">+ operator=()</text>
<text text-anchor="start" x="667.899" y="-479.5" font-family="Helvetica,sans-Serif" font-size="10.00">+ operator+=()</text>
<text text-anchor="start" x="667.899" y="-469.5" font-family="Helvetica,sans-Serif" font-size="10.00">+ operator&#45;=()</text>
<text text-anchor="start" x="667.899" y="-459.5" font-family="Helvetica,sans-Serif" font-size="10.00">+ operator*=()</text>
<text text-anchor="start" x="667.899" y="-449.5" font-family="Helvetica,sans-Serif" font-size="10.00">+ operator/=()</text>
<text text-anchor="start" x="667.899" y="-439.5" font-family="Helvetica,sans-Serif" font-size="10.00">and 57 more...</text>
</a>
</g>
</g>
<!-- Node12&#45;&gt;Node2 -->
<g id="edge12" class="edge"><title>Node12&#45;&gt;Node2</title>
<path fill="none" stroke="#404040" d="M717.52,-433.434C719.667,-409.728 722.037,-383.555 724.27,-358.898"/>
<polygon fill="none" stroke="#404040" points="724.271,-358.884 720.828,-352.548 725.353,-346.933 728.796,-353.269 724.271,-358.884"/>
<text text-anchor="middle" x="737.63" y="-387" font-family="Helvetica,sans-Serif" font-size="10.00"> #PSR</text>
</g>
<!-- Node13 -->
<g id="node13" class="node"><title>Node13</title>
<g id="a_node13"><a xlink:href="classleon3__funclt__trap_1_1Register.html" target="_top" xlink:title="{leon3_funclt_trap::\lRegister\n||+ Register()\l+ Register()\l+ immediateWrite()\l+ readNewValue()\l+ clockCycle()\l+ operator[]()\l+ operator~()\l+ operator+()\l+ operator&#45;()\l+ operator*()\land 34 more...\l}">
<polygon fill="white" stroke="black" points="837.899,-644.5 837.899,-808.5 938.46,-808.5 938.46,-644.5 837.899,-644.5"/>
<text text-anchor="start" x="845.899" y="-796.5" font-family="Helvetica,sans-Serif" font-size="10.00">leon3_funclt_trap::</text>
<text text-anchor="middle" x="888.18" y="-786.5" font-family="Helvetica,sans-Serif" font-size="10.00">Register</text>
<polyline fill="none" stroke="black" points="837.899,-780.5 938.46,-780.5 "/>
<text text-anchor="middle" x="888.18" y="-768.5" font-family="Helvetica,sans-Serif" font-size="10.00"> </text>
<polyline fill="none" stroke="black" points="837.899,-762.5 938.46,-762.5 "/>
<text text-anchor="start" x="845.899" y="-750.5" font-family="Helvetica,sans-Serif" font-size="10.00">+ Register()</text>
<text text-anchor="start" x="845.899" y="-740.5" font-family="Helvetica,sans-Serif" font-size="10.00">+ Register()</text>
<text text-anchor="start" x="845.899" y="-730.5" font-family="Helvetica,sans-Serif" font-size="10.00">+ immediateWrite()</text>
<text text-anchor="start" x="845.899" y="-720.5" font-family="Helvetica,sans-Serif" font-size="10.00">+ readNewValue()</text>
<text text-anchor="start" x="845.899" y="-710.5" font-family="Helvetica,sans-Serif" font-size="10.00">+ clockCycle()</text>
<text text-anchor="start" x="845.899" y="-700.5" font-family="Helvetica,sans-Serif" font-size="10.00">+ operator[]()</text>
<text text-anchor="start" x="845.899" y="-690.5" font-family="Helvetica,sans-Serif" font-size="10.00">+ operator~()</text>
<text text-anchor="start" x="845.899" y="-680.5" font-family="Helvetica,sans-Serif" font-size="10.00">+ operator+()</text>
<text text-anchor="start" x="845.899" y="-670.5" font-family="Helvetica,sans-Serif" font-size="10.00">+ operator&#45;()</text>
<text text-anchor="start" x="845.899" y="-660.5" font-family="Helvetica,sans-Serif" font-size="10.00">+ operator*()</text>
<text text-anchor="start" x="845.899" y="-650.5" font-family="Helvetica,sans-Serif" font-size="10.00">and 34 more...</text>
</a>
</g>
</g>
<!-- Node13&#45;&gt;Node12 -->
<g id="edge13" class="edge"><title>Node13&#45;&gt;Node12</title>
<path fill="none" stroke="midnightblue" d="M830.842,-666.327C811.09,-645.223 789.172,-620.98 770.18,-598 767.046,-594.208 763.879,-590.27 760.725,-586.264"/>
<polygon fill="none" stroke="midnightblue" points="828.331,-668.765 837.731,-673.653 833.431,-663.97 828.331,-668.765"/>
</g>
<!-- Node14 -->
<g id="node14" class="node"><title>Node14</title>
<g id="a_node14"><a xlink:href="classleon3__funclt__trap_1_1Reg32__1.html" target="_top" xlink:title="{leon3_funclt_trap::\lReg32_1\n||+ Reg32_1()\l+ operator[]()\l+ immediateWrite()\l+ readNewValue()\l+ operator~()\l+ operator=()\l+ operator+=()\l+ operator&#45;=()\l+ operator*=()\l+ operator/=()\land 57 more...\l}">
<polygon fill="white" stroke="black" points="778.899,-433.5 778.899,-597.5 879.46,-597.5 879.46,-433.5 778.899,-433.5"/>
<text text-anchor="start" x="786.899" y="-585.5" font-family="Helvetica,sans-Serif" font-size="10.00">leon3_funclt_trap::</text>
<text text-anchor="middle" x="829.18" y="-575.5" font-family="Helvetica,sans-Serif" font-size="10.00">Reg32_1</text>
<polyline fill="none" stroke="black" points="778.899,-569.5 879.46,-569.5 "/>
<text text-anchor="middle" x="829.18" y="-557.5" font-family="Helvetica,sans-Serif" font-size="10.00"> </text>
<polyline fill="none" stroke="black" points="778.899,-551.5 879.46,-551.5 "/>
<text text-anchor="start" x="786.899" y="-539.5" font-family="Helvetica,sans-Serif" font-size="10.00">+ Reg32_1()</text>
<text text-anchor="start" x="786.899" y="-529.5" font-family="Helvetica,sans-Serif" font-size="10.00">+ operator[]()</text>
<text text-anchor="start" x="786.899" y="-519.5" font-family="Helvetica,sans-Serif" font-size="10.00">+ immediateWrite()</text>
<text text-anchor="start" x="786.899" y="-509.5" font-family="Helvetica,sans-Serif" font-size="10.00">+ readNewValue()</text>
<text text-anchor="start" x="786.899" y="-499.5" font-family="Helvetica,sans-Serif" font-size="10.00">+ operator~()</text>
<text text-anchor="start" x="786.899" y="-489.5" font-family="Helvetica,sans-Serif" font-size="10.00">+ operator=()</text>
<text text-anchor="start" x="786.899" y="-479.5" font-family="Helvetica,sans-Serif" font-size="10.00">+ operator+=()</text>
<text text-anchor="start" x="786.899" y="-469.5" font-family="Helvetica,sans-Serif" font-size="10.00">+ operator&#45;=()</text>
<text text-anchor="start" x="786.899" y="-459.5" font-family="Helvetica,sans-Serif" font-size="10.00">+ operator*=()</text>
<text text-anchor="start" x="786.899" y="-449.5" font-family="Helvetica,sans-Serif" font-size="10.00">+ operator/=()</text>
<text text-anchor="start" x="786.899" y="-439.5" font-family="Helvetica,sans-Serif" font-size="10.00">and 57 more...</text>
</a>
</g>
</g>
<!-- Node13&#45;&gt;Node14 -->
<g id="edge16" class="edge"><title>Node13&#45;&gt;Node14</title>
<path fill="none" stroke="midnightblue" d="M862.515,-634.584C859.037,-622.265 855.487,-609.69 852.062,-597.558"/>
<polygon fill="none" stroke="midnightblue" points="859.199,-635.723 865.284,-644.396 865.936,-633.821 859.199,-635.723"/>
</g>
<!-- Node16 -->
<g id="node16" class="node"><title>Node16</title>
<g id="a_node16"><a xlink:href="classleon3__funclt__trap_1_1Reg32__2.html" target="_top" xlink:title="{leon3_funclt_trap::\lReg32_2\n||+ Reg32_2()\l+ operator[]()\l+ immediateWrite()\l+ readNewValue()\l+ operator~()\l+ operator=()\l+ operator+=()\l+ operator&#45;=()\l+ operator*=()\l+ operator/=()\land 57 more...\l}">
<polygon fill="white" stroke="black" points="897.899,-433.5 897.899,-597.5 998.46,-597.5 998.46,-433.5 897.899,-433.5"/>
<text text-anchor="start" x="905.899" y="-585.5" font-family="Helvetica,sans-Serif" font-size="10.00">leon3_funclt_trap::</text>
<text text-anchor="middle" x="948.18" y="-575.5" font-family="Helvetica,sans-Serif" font-size="10.00">Reg32_2</text>
<polyline fill="none" stroke="black" points="897.899,-569.5 998.46,-569.5 "/>
<text text-anchor="middle" x="948.18" y="-557.5" font-family="Helvetica,sans-Serif" font-size="10.00"> </text>
<polyline fill="none" stroke="black" points="897.899,-551.5 998.46,-551.5 "/>
<text text-anchor="start" x="905.899" y="-539.5" font-family="Helvetica,sans-Serif" font-size="10.00">+ Reg32_2()</text>
<text text-anchor="start" x="905.899" y="-529.5" font-family="Helvetica,sans-Serif" font-size="10.00">+ operator[]()</text>
<text text-anchor="start" x="905.899" y="-519.5" font-family="Helvetica,sans-Serif" font-size="10.00">+ immediateWrite()</text>
<text text-anchor="start" x="905.899" y="-509.5" font-family="Helvetica,sans-Serif" font-size="10.00">+ readNewValue()</text>
<text text-anchor="start" x="905.899" y="-499.5" font-family="Helvetica,sans-Serif" font-size="10.00">+ operator~()</text>
<text text-anchor="start" x="905.899" y="-489.5" font-family="Helvetica,sans-Serif" font-size="10.00">+ operator=()</text>
<text text-anchor="start" x="905.899" y="-479.5" font-family="Helvetica,sans-Serif" font-size="10.00">+ operator+=()</text>
<text text-anchor="start" x="905.899" y="-469.5" font-family="Helvetica,sans-Serif" font-size="10.00">+ operator&#45;=()</text>
<text text-anchor="start" x="905.899" y="-459.5" font-family="Helvetica,sans-Serif" font-size="10.00">+ operator*=()</text>
<text text-anchor="start" x="905.899" y="-449.5" font-family="Helvetica,sans-Serif" font-size="10.00">+ operator/=()</text>
<text text-anchor="start" x="905.899" y="-439.5" font-family="Helvetica,sans-Serif" font-size="10.00">and 57 more...</text>
</a>
</g>
</g>
<!-- Node13&#45;&gt;Node16 -->
<g id="edge19" class="edge"><title>Node13&#45;&gt;Node16</title>
<path fill="none" stroke="midnightblue" d="M914.28,-634.584C917.816,-622.265 921.427,-609.69 924.909,-597.558"/>
<polygon fill="none" stroke="midnightblue" points="910.858,-633.818 911.463,-644.396 917.587,-635.75 910.858,-633.818"/>
</g>
<!-- Node17 -->
<g id="node17" class="node"><title>Node17</title>
<g id="a_node17"><a xlink:href="classleon3__funclt__trap_1_1Reg32__3.html" target="_top" xlink:title="{leon3_funclt_trap::\lReg32_3\n||+ Reg32_3()\l+ operator[]()\l+ immediateWrite()\l+ readNewValue()\l+ operator~()\l+ operator=()\l+ operator+=()\l+ operator&#45;=()\l+ operator*=()\l+ operator/=()\land 57 more...\l}">
<polygon fill="white" stroke="black" points="1016.9,-433.5 1016.9,-597.5 1117.46,-597.5 1117.46,-433.5 1016.9,-433.5"/>
<text text-anchor="start" x="1024.9" y="-585.5" font-family="Helvetica,sans-Serif" font-size="10.00">leon3_funclt_trap::</text>
<text text-anchor="middle" x="1067.18" y="-575.5" font-family="Helvetica,sans-Serif" font-size="10.00">Reg32_3</text>
<polyline fill="none" stroke="black" points="1016.9,-569.5 1117.46,-569.5 "/>
<text text-anchor="middle" x="1067.18" y="-557.5" font-family="Helvetica,sans-Serif" font-size="10.00"> </text>
<polyline fill="none" stroke="black" points="1016.9,-551.5 1117.46,-551.5 "/>
<text text-anchor="start" x="1024.9" y="-539.5" font-family="Helvetica,sans-Serif" font-size="10.00">+ Reg32_3()</text>
<text text-anchor="start" x="1024.9" y="-529.5" font-family="Helvetica,sans-Serif" font-size="10.00">+ operator[]()</text>
<text text-anchor="start" x="1024.9" y="-519.5" font-family="Helvetica,sans-Serif" font-size="10.00">+ immediateWrite()</text>
<text text-anchor="start" x="1024.9" y="-509.5" font-family="Helvetica,sans-Serif" font-size="10.00">+ readNewValue()</text>
<text text-anchor="start" x="1024.9" y="-499.5" font-family="Helvetica,sans-Serif" font-size="10.00">+ operator~()</text>
<text text-anchor="start" x="1024.9" y="-489.5" font-family="Helvetica,sans-Serif" font-size="10.00">+ operator=()</text>
<text text-anchor="start" x="1024.9" y="-479.5" font-family="Helvetica,sans-Serif" font-size="10.00">+ operator+=()</text>
<text text-anchor="start" x="1024.9" y="-469.5" font-family="Helvetica,sans-Serif" font-size="10.00">+ operator&#45;=()</text>
<text text-anchor="start" x="1024.9" y="-459.5" font-family="Helvetica,sans-Serif" font-size="10.00">+ operator*=()</text>
<text text-anchor="start" x="1024.9" y="-449.5" font-family="Helvetica,sans-Serif" font-size="10.00">+ operator/=()</text>
<text text-anchor="start" x="1024.9" y="-439.5" font-family="Helvetica,sans-Serif" font-size="10.00">and 57 more...</text>
</a>
</g>
</g>
<!-- Node13&#45;&gt;Node17 -->
<g id="edge21" class="edge"><title>Node13&#45;&gt;Node17</title>
<path fill="none" stroke="midnightblue" d="M945.506,-666.955C965.57,-645.723 987.892,-621.238 1007.18,-598 1010.32,-594.214 1013.49,-590.282 1016.65,-586.28"/>
<polygon fill="none" stroke="midnightblue" points="942.858,-664.66 938.511,-674.322 947.935,-669.48 942.858,-664.66"/>
</g>
<!-- Node14&#45;&gt;Node2 -->
<g id="edge15" class="edge"><title>Node14&#45;&gt;Node2</title>
<path fill="none" stroke="#404040" d="M798.541,-433.434C789.5,-409.513 779.509,-383.079 770.115,-358.226"/>
<polygon fill="none" stroke="#404040" points="770.09,-358.158 764.227,-353.96 765.847,-346.933 771.71,-351.131 770.09,-358.158"/>
<text text-anchor="middle" x="804.623" y="-387" font-family="Helvetica,sans-Serif" font-size="10.00"> #WIM</text>
</g>
<!-- Node15 -->
<g id="node15" class="node"><title>Node15</title>
<g id="a_node15"><a xlink:href="classleon3__funclt__trap_1_1MemoryInterface.html" target="_top" xlink:title="{leon3_funclt_trap::\lMemoryInterface\n||+ read_dword()\l+ read_word()\l+ read_half()\l+ read_byte()\l+ read_instr()\l+ read_dword_dbg()\l+ read_word_dbg()\l+ read_half_dbg()\l+ read_byte_dbg()\l+ write_dword()\land 12 more...\l}">
<polygon fill="white" stroke="black" points="1135.01,-433.5 1135.01,-597.5 1241.35,-597.5 1241.35,-433.5 1135.01,-433.5"/>
<text text-anchor="start" x="1143.01" y="-585.5" font-family="Helvetica,sans-Serif" font-size="10.00">leon3_funclt_trap::</text>
<text text-anchor="middle" x="1188.18" y="-575.5" font-family="Helvetica,sans-Serif" font-size="10.00">MemoryInterface</text>
<polyline fill="none" stroke="black" points="1135.01,-569.5 1241.35,-569.5 "/>
<text text-anchor="middle" x="1188.18" y="-557.5" font-family="Helvetica,sans-Serif" font-size="10.00"> </text>
<polyline fill="none" stroke="black" points="1135.01,-551.5 1241.35,-551.5 "/>
<text text-anchor="start" x="1143.01" y="-539.5" font-family="Helvetica,sans-Serif" font-size="10.00">+ read_dword()</text>
<text text-anchor="start" x="1143.01" y="-529.5" font-family="Helvetica,sans-Serif" font-size="10.00">+ read_word()</text>
<text text-anchor="start" x="1143.01" y="-519.5" font-family="Helvetica,sans-Serif" font-size="10.00">+ read_half()</text>
<text text-anchor="start" x="1143.01" y="-509.5" font-family="Helvetica,sans-Serif" font-size="10.00">+ read_byte()</text>
<text text-anchor="start" x="1143.01" y="-499.5" font-family="Helvetica,sans-Serif" font-size="10.00">+ read_instr()</text>
<text text-anchor="start" x="1143.01" y="-489.5" font-family="Helvetica,sans-Serif" font-size="10.00">+ read_dword_dbg()</text>
<text text-anchor="start" x="1143.01" y="-479.5" font-family="Helvetica,sans-Serif" font-size="10.00">+ read_word_dbg()</text>
<text text-anchor="start" x="1143.01" y="-469.5" font-family="Helvetica,sans-Serif" font-size="10.00">+ read_half_dbg()</text>
<text text-anchor="start" x="1143.01" y="-459.5" font-family="Helvetica,sans-Serif" font-size="10.00">+ read_byte_dbg()</text>
<text text-anchor="start" x="1143.01" y="-449.5" font-family="Helvetica,sans-Serif" font-size="10.00">+ write_dword()</text>
<text text-anchor="start" x="1143.01" y="-439.5" font-family="Helvetica,sans-Serif" font-size="10.00">and 12 more...</text>
</a>
</g>
</g>
<!-- Node15&#45;&gt;Node2 -->
<g id="edge17" class="edge"><title>Node15&#45;&gt;Node2</title>
<path fill="none" stroke="#404040" d="M1134.75,-442.068C1131.92,-438.941 1129.06,-435.902 1126.18,-433 1091.36,-397.918 1081.7,-388.436 1038.18,-365 962.483,-324.236 867.822,-294.768 804.205,-277.717"/>
<polygon fill="none" stroke="#404040" points="803.907,-277.639 797.085,-279.974 792.305,-274.575 799.127,-272.239 803.907,-277.639"/>
<text text-anchor="middle" x="1133.19" y="-392" font-family="Helvetica,sans-Serif" font-size="10.00"> #dataMem</text>
<text text-anchor="middle" x="1133.19" y="-382" font-family="Helvetica,sans-Serif" font-size="10.00">#instrMem</text>
</g>
<!-- Node16&#45;&gt;Node2 -->
<g id="edge18" class="edge"><title>Node16&#45;&gt;Node2</title>
<path fill="none" stroke="#404040" d="M897.567,-444.79C894.43,-440.771 891.286,-436.815 888.18,-433 860.651,-399.187 828.675,-363.112 800.941,-332.74"/>
<polygon fill="none" stroke="#404040" points="800.586,-332.353 793.584,-330.632 792.479,-323.506 799.482,-325.227 800.586,-332.353"/>
<text text-anchor="middle" x="886.35" y="-387" font-family="Helvetica,sans-Serif" font-size="10.00"> #TBR</text>
</g>
<!-- Node17&#45;&gt;Node2 -->
<g id="edge20" class="edge"><title>Node17&#45;&gt;Node2</title>
<path fill="none" stroke="#404040" d="M1016.56,-442.571C1013.5,-439.238 1010.36,-436.026 1007.18,-433 945.8,-374.679 861.793,-325.27 803.035,-294.476"/>
<polygon fill="none" stroke="#404040" points="803.022,-294.469 795.854,-295.258 792.369,-288.945 799.537,-288.156 803.022,-294.469"/>
<text text-anchor="middle" x="1007.85" y="-407" font-family="Helvetica,sans-Serif" font-size="10.00"> #Y</text>
<text text-anchor="middle" x="1007.85" y="-397" font-family="Helvetica,sans-Serif" font-size="10.00">#WINREGS</text>
<text text-anchor="middle" x="1007.85" y="-387" font-family="Helvetica,sans-Serif" font-size="10.00">#PC</text>
<text text-anchor="middle" x="1007.85" y="-377" font-family="Helvetica,sans-Serif" font-size="10.00">#ASR</text>
<text text-anchor="middle" x="1007.85" y="-367" font-family="Helvetica,sans-Serif" font-size="10.00">#NPC</text>
</g>
<!-- Node18 -->
<g id="node18" class="node"><title>Node18</title>
<g id="a_node18"><a xlink:href="classleon3__funclt__trap_1_1RegisterBankClass.html" target="_top" xlink:title="{leon3_funclt_trap::\lRegisterBankClass\n||+ RegisterBankClass()\l+ RegisterBankClass()\l+ setNewRegister()\l+ setSize()\l+ operator[]()\l+ ~RegisterBankClass()\l}">
<polygon fill="white" stroke="black" points="1259.1,-458.5 1259.1,-572.5 1381.26,-572.5 1381.26,-458.5 1259.1,-458.5"/>
<text text-anchor="start" x="1267.1" y="-560.5" font-family="Helvetica,sans-Serif" font-size="10.00">leon3_funclt_trap::</text>
<text text-anchor="middle" x="1320.18" y="-550.5" font-family="Helvetica,sans-Serif" font-size="10.00">RegisterBankClass</text>
<polyline fill="none" stroke="black" points="1259.1,-544.5 1381.26,-544.5 "/>
<text text-anchor="middle" x="1320.18" y="-532.5" font-family="Helvetica,sans-Serif" font-size="10.00"> </text>
<polyline fill="none" stroke="black" points="1259.1,-526.5 1381.26,-526.5 "/>
<text text-anchor="start" x="1267.1" y="-514.5" font-family="Helvetica,sans-Serif" font-size="10.00">+ RegisterBankClass()</text>
<text text-anchor="start" x="1267.1" y="-504.5" font-family="Helvetica,sans-Serif" font-size="10.00">+ RegisterBankClass()</text>
<text text-anchor="start" x="1267.1" y="-494.5" font-family="Helvetica,sans-Serif" font-size="10.00">+ setNewRegister()</text>
<text text-anchor="start" x="1267.1" y="-484.5" font-family="Helvetica,sans-Serif" font-size="10.00">+ setSize()</text>
<text text-anchor="start" x="1267.1" y="-474.5" font-family="Helvetica,sans-Serif" font-size="10.00">+ operator[]()</text>
<text text-anchor="start" x="1267.1" y="-464.5" font-family="Helvetica,sans-Serif" font-size="10.00">+ ~RegisterBankClass()</text>
</a>
</g>
</g>
<!-- Node18&#45;&gt;Node2 -->
<g id="edge22" class="edge"><title>Node18&#45;&gt;Node2</title>
<path fill="none" stroke="#404040" d="M1276.5,-458.464C1247.7,-425.683 1207.1,-386.611 1162.18,-365 1043.92,-308.105 891.975,-280.572 804.286,-268.574"/>
<polygon fill="none" stroke="#404040" points="804.244,-268.569 797.768,-271.741 792.349,-266.983 798.825,-263.811 804.244,-268.569"/>
<text text-anchor="middle" x="1255.36" y="-387" font-family="Helvetica,sans-Serif" font-size="10.00"> #GLOBAL</text>
</g>
</g>
</svg>
