<?xml version="1.0" encoding="UTF-8" standalone="no"?>
<!DOCTYPE svg PUBLIC "-//W3C//DTD SVG 1.1//EN"
 "http://www.w3.org/Graphics/SVG/1.1/DTD/svg11.dtd">
<!-- Generated by graphviz version 2.38.0 (20140413.2041)
 -->
<!-- Title: gs_config&lt; int32_t &gt; Pages: 1 -->
<svg width="162pt" height="274pt"
 viewBox="0.00 0.00 162.50 274.00" xmlns="http://www.w3.org/2000/svg" xmlns:xlink="http://www.w3.org/1999/xlink">
<g id="graph0" class="graph" transform="scale(1 1) rotate(0) translate(4 270)">
<title>gs_config&lt; int32_t &gt;</title>
<polygon fill="white" stroke="none" points="-4,4 -4,-270 158.496,-270 158.496,4 -4,4"/>
<!-- Node1 -->
<g id="node1" class="node"><title>Node1</title>
<polygon fill="#bfbfbf" stroke="black" points="0,-0.5 0,-174.5 154.496,-174.5 154.496,-0.5 0,-0.5"/>
<text text-anchor="middle" x="77.248" y="-162.5" font-family="Helvetica,sans-Serif" font-size="10.00">gs_config&lt; int32_t &gt;</text>
<polyline fill="none" stroke="black" points="0,-156.5 154.496,-156.5 "/>
<text text-anchor="start" x="8" y="-144.5" font-family="Helvetica,sans-Serif" font-size="10.00">+ GS_CONFIG_HEAD</text>
<text text-anchor="start" x="8" y="-134.5" font-family="Helvetica,sans-Serif" font-size="10.00">+ GC_SPECIALISATIONS</text>
<text text-anchor="start" x="8" y="-124.5" font-family="Helvetica,sans-Serif" font-size="10.00">_ARITHMETIC_OPERATORS</text>
<text text-anchor="start" x="8" y="-114.5" font-family="Helvetica,sans-Serif" font-size="10.00">+ GC_SPECIALISATIONS</text>
<text text-anchor="start" x="8" y="-104.5" font-family="Helvetica,sans-Serif" font-size="10.00">_BINARY_OPERATORS</text>
<text text-anchor="start" x="8" y="-94.5" font-family="Helvetica,sans-Serif" font-size="10.00">+ GC_SPECIALISATIONS</text>
<text text-anchor="start" x="8" y="-84.5" font-family="Helvetica,sans-Serif" font-size="10.00">_INCREMENT_OPERATORS</text>
<text text-anchor="start" x="8" y="-74.5" font-family="Helvetica,sans-Serif" font-size="10.00">+ GC_SPECIALISATIONS</text>
<text text-anchor="start" x="8" y="-64.5" font-family="Helvetica,sans-Serif" font-size="10.00">_DECREMENT_OPERATORS</text>
<polyline fill="none" stroke="black" points="0,-58.5 154.496,-58.5 "/>
<text text-anchor="start" x="8" y="-46.5" font-family="Helvetica,sans-Serif" font-size="10.00">+ getTypeString()</text>
<text text-anchor="start" x="8" y="-36.5" font-family="Helvetica,sans-Serif" font-size="10.00">+ getType()</text>
<text text-anchor="start" x="8" y="-26.5" font-family="Helvetica,sans-Serif" font-size="10.00">+ convertValueToString()</text>
<text text-anchor="start" x="8" y="-16.5" font-family="Helvetica,sans-Serif" font-size="10.00">+ static_convertValueToString()</text>
<text text-anchor="start" x="8" y="-6.5" font-family="Helvetica,sans-Serif" font-size="10.00">+ static_deserialize()</text>
</g>
<!-- Node2 -->
<g id="node2" class="node"><title>Node2</title>
<g id="a_node2"><a xlink:href="classgs__config__t.html" target="_top" xlink:title="{gs_config_t\&lt; int32_t \&gt;\n||}">
<polygon fill="white" stroke="black" points="20.0439,-211.5 20.0439,-265.5 134.452,-265.5 134.452,-211.5 20.0439,-211.5"/>
<text text-anchor="middle" x="77.248" y="-253.5" font-family="Helvetica,sans-Serif" font-size="10.00">gs_config_t&lt; int32_t &gt;</text>
<polyline fill="none" stroke="black" points="20.0439,-247.5 134.452,-247.5 "/>
<text text-anchor="middle" x="77.248" y="-235.5" font-family="Helvetica,sans-Serif" font-size="10.00"> </text>
<polyline fill="none" stroke="black" points="20.0439,-229.5 134.452,-229.5 "/>
<text text-anchor="middle" x="77.248" y="-217.5" font-family="Helvetica,sans-Serif" font-size="10.00"> </text>
</a>
</g>
</g>
<!-- Node2&#45;&gt;Node1 -->
<g id="edge1" class="edge"><title>Node2&#45;&gt;Node1</title>
<path fill="none" stroke="midnightblue" d="M77.248,-201.005C77.248,-192.845 77.248,-183.854 77.248,-174.619"/>
<polygon fill="none" stroke="midnightblue" points="73.7481,-201.205 77.248,-211.205 80.7481,-201.205 73.7481,-201.205"/>
</g>
</g>
</svg>
