<?xml version="1.0" encoding="UTF-8" standalone="no"?>
<!DOCTYPE svg PUBLIC "-//W3C//DTD SVG 1.1//EN"
 "http://www.w3.org/Graphics/SVG/1.1/DTD/svg11.dtd">
<!-- Generated by graphviz version 2.38.0 (20140413.2041)
 -->
<!-- Title: pysc::api::cci::CallbackAdapter::call Pages: 1 -->
<svg width="513pt" height="195pt"
 viewBox="0.00 0.00 513.00 194.50" xmlns="http://www.w3.org/2000/svg" xmlns:xlink="http://www.w3.org/1999/xlink">
<g id="graph0" class="graph" transform="scale(1 1) rotate(0) translate(4 190.5)">
<title>pysc::api::cci::CallbackAdapter::call</title>
<polygon fill="white" stroke="none" points="-4,4 -4,-190.5 509,-190.5 509,4 -4,4"/>
<!-- Node1 -->
<g id="node1" class="node"><title>Node1</title>
<polygon fill="#bfbfbf" stroke="black" points="0,-73.5 0,-103.5 119,-103.5 119,-73.5 0,-73.5"/>
<text text-anchor="start" x="8" y="-91.5" font-family="Helvetica,sans-Serif" font-size="10.00">pysc::api::cci::Callback</text>
<text text-anchor="middle" x="59.5" y="-80.5" font-family="Helvetica,sans-Serif" font-size="10.00">Adapter::call</text>
</g>
<!-- Node2 -->
<g id="node2" class="node"><title>Node2</title>
<g id="a_node2"><a xlink:href="namespaceusi_1_1shell.html#a09444d6e6abd027ac8537ccb3afccfe4" target="_top" xlink:title="usi.shell.args">
<polygon fill="white" stroke="black" points="177.5,-148 177.5,-167 251.5,-167 251.5,-148 177.5,-148"/>
<text text-anchor="middle" x="214.5" y="-155" font-family="Helvetica,sans-Serif" font-size="10.00">usi.shell.args</text>
</a>
</g>
</g>
<!-- Node1&#45;&gt;Node2 -->
<g id="edge1" class="edge"><title>Node1&#45;&gt;Node2</title>
<path fill="none" stroke="midnightblue" d="M85.9855,-103.53C104.679,-114.168 130.898,-128.3 155,-138.5 160.101,-140.659 165.538,-142.723 170.963,-144.642"/>
<polygon fill="midnightblue" stroke="midnightblue" points="170.049,-148.028 180.643,-147.929 172.3,-141.4 170.049,-148.028"/>
</g>
<!-- Node6 -->
<g id="node6" class="node"><title>Node6</title>
<g id="a_node6"><a xlink:href="group__pysc.html#ga658e9d4b7a220eefb2c9cfa744b3451a" target="_top" xlink:title="PythonModule::block\l_threads">
<polygon fill="white" stroke="black" points="160.5,-98.5 160.5,-128.5 268.5,-128.5 268.5,-98.5 160.5,-98.5"/>
<text text-anchor="start" x="168.5" y="-116.5" font-family="Helvetica,sans-Serif" font-size="10.00">PythonModule::block</text>
<text text-anchor="middle" x="214.5" y="-105.5" font-family="Helvetica,sans-Serif" font-size="10.00">_threads</text>
</a>
</g>
</g>
<!-- Node1&#45;&gt;Node6 -->
<g id="edge5" class="edge"><title>Node1&#45;&gt;Node6</title>
<path fill="none" stroke="midnightblue" d="M119.216,-98.0942C129.329,-99.7465 139.88,-101.471 150.109,-103.142"/>
<polygon fill="midnightblue" stroke="midnightblue" points="149.769,-106.633 160.203,-104.791 150.898,-99.7244 149.769,-106.633"/>
</g>
<!-- Node7 -->
<g id="node7" class="node"><title>Node7</title>
<g id="a_node7"><a xlink:href="namespacepysc_1_1api_1_1systemc.html#aa0aa7a0870208e6337df87472175f92f" target="_top" xlink:title="pysc::api::systemc\l::simulation_time">
<polygon fill="white" stroke="black" points="164.5,-49.5 164.5,-79.5 264.5,-79.5 264.5,-49.5 164.5,-49.5"/>
<text text-anchor="start" x="172.5" y="-67.5" font-family="Helvetica,sans-Serif" font-size="10.00">pysc::api::systemc</text>
<text text-anchor="middle" x="214.5" y="-56.5" font-family="Helvetica,sans-Serif" font-size="10.00">::simulation_time</text>
</a>
</g>
</g>
<!-- Node1&#45;&gt;Node7 -->
<g id="edge6" class="edge"><title>Node1&#45;&gt;Node7</title>
<path fill="none" stroke="midnightblue" d="M119.216,-79.2896C130.688,-77.4902 142.724,-75.6021 154.214,-73.7998"/>
<polygon fill="midnightblue" stroke="midnightblue" points="154.805,-77.2499 164.142,-72.2424 153.721,-70.3345 154.805,-77.2499"/>
</g>
<!-- Node8 -->
<g id="node8" class="node"><title>Node8</title>
<g id="a_node8"><a xlink:href="group__pysc.html#gaa90e2ceae31dc619f83e9d0f91986219" target="_top" xlink:title="Unblock our singleton thread. ">
<polygon fill="white" stroke="black" points="155,-0.5 155,-30.5 274,-30.5 274,-0.5 155,-0.5"/>
<text text-anchor="start" x="163" y="-18.5" font-family="Helvetica,sans-Serif" font-size="10.00">PythonModule::unblock</text>
<text text-anchor="middle" x="214.5" y="-7.5" font-family="Helvetica,sans-Serif" font-size="10.00">_threads</text>
</a>
</g>
</g>
<!-- Node1&#45;&gt;Node8 -->
<g id="edge7" class="edge"><title>Node1&#45;&gt;Node8</title>
<path fill="none" stroke="midnightblue" d="M89.2081,-73.2953C107.814,-63.5962 132.659,-50.9339 155,-40.5 159.108,-38.5816 163.402,-36.6357 167.718,-34.7204"/>
<polygon fill="midnightblue" stroke="midnightblue" points="169.377,-37.8147 177.135,-30.599 166.571,-31.402 169.377,-37.8147"/>
</g>
<!-- Node3 -->
<g id="node3" class="node"><title>Node3</title>
<g id="a_node3"><a xlink:href="namespaceusi_1_1tools_1_1args.html#acd7d2cd9e866375a689882329a800b97" target="_top" xlink:title="usi.tools.args.get_args">
<polygon fill="white" stroke="black" points="310,-167 310,-186 426,-186 426,-167 310,-167"/>
<text text-anchor="middle" x="368" y="-174" font-family="Helvetica,sans-Serif" font-size="10.00">usi.tools.args.get_args</text>
</a>
</g>
</g>
<!-- Node2&#45;&gt;Node3 -->
<g id="edge2" class="edge"><title>Node2&#45;&gt;Node3</title>
<path fill="none" stroke="midnightblue" d="M251.788,-162.051C266.142,-163.851 283.118,-165.98 299.565,-168.043"/>
<polygon fill="midnightblue" stroke="midnightblue" points="299.351,-171.543 309.709,-169.315 300.222,-164.598 299.351,-171.543"/>
</g>
<!-- Node5 -->
<g id="node5" class="node"><title>Node5</title>
<g id="a_node5"><a xlink:href="namespaceusi_1_1shell.html#a99381cf4105d5d843121ef85f02ca637" target="_top" xlink:title="usi.shell.start">
<polygon fill="white" stroke="black" points="330.5,-129 330.5,-148 405.5,-148 405.5,-129 330.5,-129"/>
<text text-anchor="middle" x="368" y="-136" font-family="Helvetica,sans-Serif" font-size="10.00">usi.shell.start</text>
</a>
</g>
</g>
<!-- Node2&#45;&gt;Node5 -->
<g id="edge4" class="edge"><title>Node2&#45;&gt;Node5</title>
<path fill="none" stroke="midnightblue" d="M251.788,-152.949C272.343,-150.371 298.277,-147.119 320.333,-144.353"/>
<polygon fill="midnightblue" stroke="midnightblue" points="320.996,-147.797 330.483,-143.08 320.125,-140.851 320.996,-147.797"/>
</g>
<!-- Node4 -->
<g id="node4" class="node"><title>Node4</title>
<g id="a_node4"><a xlink:href="namespaceusi.html#ab17dcbaca4eb938e35fdfa1a02cc3a4a" target="_top" xlink:title="usi.on">
<polygon fill="white" stroke="black" points="462,-167 462,-186 505,-186 505,-167 462,-167"/>
<text text-anchor="middle" x="483.5" y="-174" font-family="Helvetica,sans-Serif" font-size="10.00">usi.on</text>
</a>
</g>
</g>
<!-- Node3&#45;&gt;Node4 -->
<g id="edge3" class="edge"><title>Node3&#45;&gt;Node4</title>
<path fill="none" stroke="midnightblue" d="M426.083,-176.5C434.887,-176.5 443.681,-176.5 451.617,-176.5"/>
<polygon fill="midnightblue" stroke="midnightblue" points="451.827,-180 461.827,-176.5 451.827,-173 451.827,-180"/>
</g>
</g>
</svg>
