<?xml version="1.0" encoding="UTF-8" standalone="no"?>
<!DOCTYPE svg PUBLIC "-//W3C//DTD SVG 1.1//EN"
 "http://www.w3.org/Graphics/SVG/1.1/DTD/svg11.dtd">
<!-- Generated by graphviz version 2.26.0 (20091210.2329)
 -->
<!-- Title: signalkit::signal_infield::update Pages: 1 -->
<svg width="256pt" height="42pt"
 viewBox="0.00 0.00 256.00 42.00" xmlns="http://www.w3.org/2000/svg" xmlns:xlink="http://www.w3.org/1999/xlink">
<g id="graph1" class="graph" transform="scale(1 1) rotate(0) translate(4 38)">
<title>signalkit::signal_infield::update</title>
<polygon fill="white" stroke="white" points="-4,5 -4,-38 253,-38 253,5 -4,5"/>
<!-- Node1 -->
<g id="node1" class="node"><title>Node1</title>
<polygon fill="#bfbfbf" stroke="black" points="0.5,-0 0.5,-34 115.5,-34 115.5,-0 0.5,-0"/>
<text text-anchor="start" x="8.5" y="-21" font-family="Helvetica,sans-Serif" font-size="10.00">signalkit::signal_infield</text>
<text text-anchor="middle" x="58" y="-8" font-family="Helvetica,sans-Serif" font-size="10.00">::update</text>
</g>
<!-- Node2 -->
<g id="node3" class="node"><title>Node2</title>
<a xlink:href="classsignalkit_1_1signal__if.html#a5e6444af3e7a06aa9df486578a02db4a" target="_top" xlink:title="Read the current signal value. ">
<polygon fill="white" stroke="black" points="152.5,-0 152.5,-34 247.5,-34 247.5,-0 152.5,-0"/>
<text text-anchor="start" x="160.5" y="-21" font-family="Helvetica,sans-Serif" font-size="10.00">signalkit::signal_if</text>
<text text-anchor="middle" x="200" y="-8" font-family="Helvetica,sans-Serif" font-size="10.00">::read</text>
</a>
</g>
<!-- Node1&#45;&gt;Node2 -->
<g id="edge2" class="edge"><title>Node1&#45;&gt;Node2</title>
<path fill="none" stroke="midnightblue" d="M115.757,-17C124.477,-17 133.473,-17 142.194,-17"/>
<polygon fill="midnightblue" stroke="midnightblue" points="142.272,-20.5001 152.272,-17 142.272,-13.5001 142.272,-20.5001"/>
</g>
</g>
</svg>
