<?xml version="1.0" encoding="UTF-8" standalone="no"?>
<!DOCTYPE svg PUBLIC "-//W3C//DTD SVG 1.1//EN"
 "http://www.w3.org/Graphics/SVG/1.1/DTD/svg11.dtd">
<!-- Generated by graphviz version 2.38.0 (20140413.2041)
 -->
<!-- Title: leon3_funclt_trap::SUBXcc_reg Pages: 1 -->
<!--zoomable 766 -->
<svg id="main" version="1.1" xmlns="http://www.w3.org/2000/svg" xmlns:xlink="http://www.w3.org/1999/xlink" xml:space="preserve" onload="init(evt)">
<style type="text/css"><![CDATA[
.edge:hover path { stroke: red; }
.edge:hover polygon { stroke: red; fill: red; }
]]></style>
<script type="text/javascript"><![CDATA[
var edges = document.getElementsByTagName('g');
if (edges && edges.length) {
  for (var i=0;i<edges.length;i++) {
    if (edges[i].id.substr(0,4)=='edge') {
      edges[i].setAttribute('class','edge');
    }
  }
}
]]></script>
        <defs>
                <circle id="rim" cx="0" cy="0" r="7"/>
                <circle id="rim2" cx="0" cy="0" r="3.5"/>
                <g id="zoomPlus">
                        <use xlink:href="#rim" fill="#404040">
                                <set attributeName="fill" to="#808080" begin="zoomplus.mouseover" end="zoomplus.mouseout"/>
                        </use>
                        <path d="M-4,0h8M0,-4v8" fill="none" stroke="white" stroke-width="1.5" pointer-events="none"/>
                </g>
                <g id="zoomMin">
                        <use xlink:href="#rim" fill="#404040">
                                <set attributeName="fill" to="#808080" begin="zoomminus.mouseover" end="zoomminus.mouseout"/>
                        </use>
                        <path d="M-4,0h8" fill="none" stroke="white" stroke-width="1.5" pointer-events="none"/>
                </g>
                <g id="dirArrow">
                        <path fill="none" stroke="white" stroke-width="1.5" d="M0,-3.0v7 M-2.5,-0.5L0,-3.0L2.5,-0.5"/>
                </g>
               <g id="resetDef">
                       <use xlink:href="#rim2" fill="#404040">
                               <set attributeName="fill" to="#808080" begin="reset.mouseover" end="reset.mouseout"/>
                       </use>
               </g>
        </defs>

<script type="text/javascript">
var viewWidth = 238;
var viewHeight = 766;
var sectionId = 'dynsection-0';
</script>
<script xlink:href="svgpan.js"/>
<svg id="graph" class="graph">
<g id="viewport">
<title>leon3_funclt_trap::SUBXcc_reg</title>
<polygon fill="white" stroke="none" points="-4,4 -4,-762 234,-762 234,4 -4,4"/>
<!-- Node1 -->
<g id="node1" class="node"><title>Node1</title>
<polygon fill="#bfbfbf" stroke="black" points="61,-0.5 61,-167.5 178,-167.5 178,-0.5 61,-0.5"/>
<text text-anchor="start" x="69" y="-155.5" font-family="Helvetica,sans-Serif" font-size="10.00">leon3_funclt_trap::</text>
<text text-anchor="middle" x="119.5" y="-144.5" font-family="Helvetica,sans-Serif" font-size="10.00">SUBXcc_reg</text>
<polyline fill="none" stroke="black" points="61,-137.5 178,-137.5 "/>
<text text-anchor="start" x="69" y="-125.5" font-family="Helvetica,sans-Serif" font-size="10.00"># result</text>
<text text-anchor="start" x="69" y="-114.5" font-family="Helvetica,sans-Serif" font-size="10.00"># rs1_op</text>
<text text-anchor="start" x="69" y="-103.5" font-family="Helvetica,sans-Serif" font-size="10.00"># rs2_op</text>
<polyline fill="none" stroke="black" points="61,-96.5 178,-96.5 "/>
<text text-anchor="start" x="69" y="-84.5" font-family="Helvetica,sans-Serif" font-size="10.00">+ SUBXcc_reg()</text>
<text text-anchor="start" x="69" y="-73.5" font-family="Helvetica,sans-Serif" font-size="10.00">+ behavior()</text>
<text text-anchor="start" x="69" y="-62.5" font-family="Helvetica,sans-Serif" font-size="10.00">+ replicate()</text>
<text text-anchor="start" x="69" y="-51.5" font-family="Helvetica,sans-Serif" font-size="10.00">+ getInstructionName()</text>
<text text-anchor="start" x="69" y="-40.5" font-family="Helvetica,sans-Serif" font-size="10.00">+ getId()</text>
<text text-anchor="start" x="69" y="-29.5" font-family="Helvetica,sans-Serif" font-size="10.00">+ setParams()</text>
<text text-anchor="start" x="69" y="-18.5" font-family="Helvetica,sans-Serif" font-size="10.00">+ getMnemonic()</text>
<text text-anchor="start" x="69" y="-7.5" font-family="Helvetica,sans-Serif" font-size="10.00">+ ~SUBXcc_reg()</text>
</g>
<!-- Node2 -->
<g id="node2" class="node"><title>Node2</title>
<g id="a_node2"><a xlink:href="classleon3__funclt__trap_1_1ICC__writeSub__op.html" target="_top" xlink:title="{leon3_funclt_trap::\lICC_writeSub_op\n||+ ICC_writeSub_op()\l+ ~ICC_writeSub_op()\l# ICC_writeSub()\l}">
<polygon fill="white" stroke="black" points="0,-204.5 0,-294.5 115,-294.5 115,-204.5 0,-204.5"/>
<text text-anchor="start" x="8" y="-282.5" font-family="Helvetica,sans-Serif" font-size="10.00">leon3_funclt_trap::</text>
<text text-anchor="middle" x="57.5" y="-271.5" font-family="Helvetica,sans-Serif" font-size="10.00">ICC_writeSub_op</text>
<polyline fill="none" stroke="black" points="0,-264.5 115,-264.5 "/>
<text text-anchor="middle" x="57.5" y="-252.5" font-family="Helvetica,sans-Serif" font-size="10.00"> </text>
<polyline fill="none" stroke="black" points="0,-245.5 115,-245.5 "/>
<text text-anchor="start" x="8" y="-233.5" font-family="Helvetica,sans-Serif" font-size="10.00">+ ICC_writeSub_op()</text>
<text text-anchor="start" x="8" y="-222.5" font-family="Helvetica,sans-Serif" font-size="10.00">+ ~ICC_writeSub_op()</text>
<text text-anchor="start" x="8" y="-211.5" font-family="Helvetica,sans-Serif" font-size="10.00"># ICC_writeSub()</text>
</a>
</g>
</g>
<!-- Node2&#45;&gt;Node1 -->
<g id="edge1" class="edge"><title>Node2&#45;&gt;Node1</title>
<path fill="none" stroke="midnightblue" d="M77.9037,-194.693C81.1912,-186.024 84.6595,-176.878 88.1339,-167.715"/>
<polygon fill="none" stroke="midnightblue" points="74.5512,-193.663 74.2781,-204.255 81.0964,-196.145 74.5512,-193.663"/>
</g>
<!-- Node3 -->
<g id="node3" class="node"><title>Node3</title>
<g id="a_node3"><a xlink:href="classleon3__funclt__trap_1_1Instruction.html" target="_top" xlink:title="{leon3_funclt_trap::\lInstruction\n|+ totalInstrCycles\l# PSR\l# WIM\l# TBR\l# Y\l# PC\l# NPC\l# GLOBAL\l# WINREGS\l# ASR\l# FP\land 9 more...\l|+ Instruction()\l+ behavior()\l+ replicate()\l+ setParams()\l+ getInstructionName()\l+ getMnemonic()\l+ getId()\l+ annull()\l+ flush()\l+ stall()\land 7 more...\l# IncrementPC()\l}">
<polygon fill="white" stroke="black" points="61,-331.5 61,-641.5 178,-641.5 178,-331.5 61,-331.5"/>
<text text-anchor="start" x="69" y="-629.5" font-family="Helvetica,sans-Serif" font-size="10.00">leon3_funclt_trap::</text>
<text text-anchor="middle" x="119.5" y="-618.5" font-family="Helvetica,sans-Serif" font-size="10.00">Instruction</text>
<polyline fill="none" stroke="black" points="61,-611.5 178,-611.5 "/>
<text text-anchor="start" x="69" y="-599.5" font-family="Helvetica,sans-Serif" font-size="10.00">+ totalInstrCycles</text>
<text text-anchor="start" x="69" y="-588.5" font-family="Helvetica,sans-Serif" font-size="10.00"># PSR</text>
<text text-anchor="start" x="69" y="-577.5" font-family="Helvetica,sans-Serif" font-size="10.00"># WIM</text>
<text text-anchor="start" x="69" y="-566.5" font-family="Helvetica,sans-Serif" font-size="10.00"># TBR</text>
<text text-anchor="start" x="69" y="-555.5" font-family="Helvetica,sans-Serif" font-size="10.00"># Y</text>
<text text-anchor="start" x="69" y="-544.5" font-family="Helvetica,sans-Serif" font-size="10.00"># PC</text>
<text text-anchor="start" x="69" y="-533.5" font-family="Helvetica,sans-Serif" font-size="10.00"># NPC</text>
<text text-anchor="start" x="69" y="-522.5" font-family="Helvetica,sans-Serif" font-size="10.00"># GLOBAL</text>
<text text-anchor="start" x="69" y="-511.5" font-family="Helvetica,sans-Serif" font-size="10.00"># WINREGS</text>
<text text-anchor="start" x="69" y="-500.5" font-family="Helvetica,sans-Serif" font-size="10.00"># ASR</text>
<text text-anchor="start" x="69" y="-489.5" font-family="Helvetica,sans-Serif" font-size="10.00"># FP</text>
<text text-anchor="start" x="69" y="-478.5" font-family="Helvetica,sans-Serif" font-size="10.00">and 9 more...</text>
<polyline fill="none" stroke="black" points="61,-471.5 178,-471.5 "/>
<text text-anchor="start" x="69" y="-459.5" font-family="Helvetica,sans-Serif" font-size="10.00">+ Instruction()</text>
<text text-anchor="start" x="69" y="-448.5" font-family="Helvetica,sans-Serif" font-size="10.00">+ behavior()</text>
<text text-anchor="start" x="69" y="-437.5" font-family="Helvetica,sans-Serif" font-size="10.00">+ replicate()</text>
<text text-anchor="start" x="69" y="-426.5" font-family="Helvetica,sans-Serif" font-size="10.00">+ setParams()</text>
<text text-anchor="start" x="69" y="-415.5" font-family="Helvetica,sans-Serif" font-size="10.00">+ getInstructionName()</text>
<text text-anchor="start" x="69" y="-404.5" font-family="Helvetica,sans-Serif" font-size="10.00">+ getMnemonic()</text>
<text text-anchor="start" x="69" y="-393.5" font-family="Helvetica,sans-Serif" font-size="10.00">+ getId()</text>
<text text-anchor="start" x="69" y="-382.5" font-family="Helvetica,sans-Serif" font-size="10.00">+ annull()</text>
<text text-anchor="start" x="69" y="-371.5" font-family="Helvetica,sans-Serif" font-size="10.00">+ flush()</text>
<text text-anchor="start" x="69" y="-360.5" font-family="Helvetica,sans-Serif" font-size="10.00">+ stall()</text>
<text text-anchor="start" x="69" y="-349.5" font-family="Helvetica,sans-Serif" font-size="10.00">and 7 more...</text>
<text text-anchor="start" x="69" y="-338.5" font-family="Helvetica,sans-Serif" font-size="10.00"># IncrementPC()</text>
</a>
</g>
</g>
<!-- Node3&#45;&gt;Node2 -->
<g id="edge2" class="edge"><title>Node3&#45;&gt;Node2</title>
<path fill="none" stroke="midnightblue" d="M76.2716,-321.65C73.7462,-312.078 71.3497,-302.995 69.1663,-294.719"/>
<polygon fill="none" stroke="midnightblue" points="72.9016,-322.597 78.8369,-331.374 79.67,-320.812 72.9016,-322.597"/>
</g>
<!-- Node5 -->
<g id="node5" class="node"><title>Node5</title>
<g id="a_node5"><a xlink:href="classleon3__funclt__trap_1_1WB__plain__op.html" target="_top" xlink:title="{leon3_funclt_trap::\lWB_plain_op\n||+ WB_plain_op()\l+ ~WB_plain_op()\l# WB_plain()\l}">
<polygon fill="white" stroke="black" points="133,-204.5 133,-294.5 230,-294.5 230,-204.5 133,-204.5"/>
<text text-anchor="start" x="141" y="-282.5" font-family="Helvetica,sans-Serif" font-size="10.00">leon3_funclt_trap::</text>
<text text-anchor="middle" x="181.5" y="-271.5" font-family="Helvetica,sans-Serif" font-size="10.00">WB_plain_op</text>
<polyline fill="none" stroke="black" points="133,-264.5 230,-264.5 "/>
<text text-anchor="middle" x="181.5" y="-252.5" font-family="Helvetica,sans-Serif" font-size="10.00"> </text>
<polyline fill="none" stroke="black" points="133,-245.5 230,-245.5 "/>
<text text-anchor="start" x="141" y="-233.5" font-family="Helvetica,sans-Serif" font-size="10.00">+ WB_plain_op()</text>
<text text-anchor="start" x="141" y="-222.5" font-family="Helvetica,sans-Serif" font-size="10.00">+ ~WB_plain_op()</text>
<text text-anchor="start" x="141" y="-211.5" font-family="Helvetica,sans-Serif" font-size="10.00"># WB_plain()</text>
</a>
</g>
</g>
<!-- Node3&#45;&gt;Node5 -->
<g id="edge5" class="edge"><title>Node3&#45;&gt;Node5</title>
<path fill="none" stroke="midnightblue" d="M162.728,-321.65C165.254,-312.078 167.65,-302.995 169.834,-294.719"/>
<polygon fill="none" stroke="midnightblue" points="159.33,-320.812 160.163,-331.374 166.098,-322.597 159.33,-320.812"/>
</g>
<!-- Node4 -->
<g id="node4" class="node"><title>Node4</title>
<g id="a_node4"><a xlink:href="classtrap_1_1InstructionBase.html" target="_top" xlink:title="{trap::InstructionBase\n||+ getInstructionName()\l+ getMnemonic()\l+ getId()\l}">
<polygon fill="white" stroke="black" points="61,-678.5 61,-757.5 178,-757.5 178,-678.5 61,-678.5"/>
<text text-anchor="middle" x="119.5" y="-745.5" font-family="Helvetica,sans-Serif" font-size="10.00">trap::InstructionBase</text>
<polyline fill="none" stroke="black" points="61,-738.5 178,-738.5 "/>
<text text-anchor="middle" x="119.5" y="-726.5" font-family="Helvetica,sans-Serif" font-size="10.00"> </text>
<polyline fill="none" stroke="black" points="61,-719.5 178,-719.5 "/>
<text text-anchor="start" x="69" y="-707.5" font-family="Helvetica,sans-Serif" font-size="10.00">+ getInstructionName()</text>
<text text-anchor="start" x="69" y="-696.5" font-family="Helvetica,sans-Serif" font-size="10.00">+ getMnemonic()</text>
<text text-anchor="start" x="69" y="-685.5" font-family="Helvetica,sans-Serif" font-size="10.00">+ getId()</text>
</a>
</g>
</g>
<!-- Node4&#45;&gt;Node3 -->
<g id="edge3" class="edge"><title>Node4&#45;&gt;Node3</title>
<path fill="none" stroke="midnightblue" d="M119.5,-668.242C119.5,-659.969 119.5,-651.003 119.5,-641.639"/>
<polygon fill="none" stroke="midnightblue" points="116,-668.328 119.5,-678.328 123,-668.328 116,-668.328"/>
</g>
<!-- Node5&#45;&gt;Node1 -->
<g id="edge4" class="edge"><title>Node5&#45;&gt;Node1</title>
<path fill="none" stroke="midnightblue" d="M161.096,-194.693C157.809,-186.024 154.341,-176.878 150.866,-167.715"/>
<polygon fill="none" stroke="midnightblue" points="157.904,-196.145 164.722,-204.255 164.449,-193.663 157.904,-196.145"/>
</g>
</g>
</svg>
        <g id="navigator" transform="translate(0 0)" fill="#404254">
                <rect fill="#f2f5e9" fill-opacity="0.5" stroke="#606060" stroke-width=".5" x="0" y="0" width="60" height="60"/>
                <use id="zoomplus" xlink:href="#zoomPlus" x="17" y="9" onmousedown="handleZoom(evt,'in')"/>
                <use id="zoomminus" xlink:href="#zoomMin" x="42" y="9" onmousedown="handleZoom(evt,'out')"/>
                <use id="reset" xlink:href="#resetDef" x="30" y="36" onmousedown="handleReset()"/>
                <g id="arrowUp" xlink:href="#dirArrow" transform="translate(30 24)" onmousedown="handlePan(0,-1)">
                  <use xlink:href="#rim" fill="#404040">
                        <set attributeName="fill" to="#808080" begin="arrowUp.mouseover" end="arrowUp.mouseout"/>
                  </use>
                  <path fill="none" stroke="white" stroke-width="1.5" d="M0,-3.0v7 M-2.5,-0.5L0,-3.0L2.5,-0.5"/>
                </g>
                <g id="arrowRight" xlink:href="#dirArrow" transform="rotate(90) translate(36 -43)" onmousedown="handlePan(1,0)">
                  <use xlink:href="#rim" fill="#404040">
                        <set attributeName="fill" to="#808080" begin="arrowRight.mouseover" end="arrowRight.mouseout"/>
                  </use>
                  <path fill="none" stroke="white" stroke-width="1.5" d="M0,-3.0v7 M-2.5,-0.5L0,-3.0L2.5,-0.5"/>
                </g>
                <g id="arrowDown" xlink:href="#dirArrow" transform="rotate(180) translate(-30 -48)" onmousedown="handlePan(0,1)">
                  <use xlink:href="#rim" fill="#404040">
                        <set attributeName="fill" to="#808080" begin="arrowDown.mouseover" end="arrowDown.mouseout"/>
                  </use>
                  <path fill="none" stroke="white" stroke-width="1.5" d="M0,-3.0v7 M-2.5,-0.5L0,-3.0L2.5,-0.5"/>
                </g>
                <g id="arrowLeft" xlink:href="#dirArrow" transform="rotate(270) translate(-36 17)" onmousedown="handlePan(-1,0)">
                  <use xlink:href="#rim" fill="#404040">
                        <set attributeName="fill" to="#808080" begin="arrowLeft.mouseover" end="arrowLeft.mouseout"/>
                  </use>
                  <path fill="none" stroke="white" stroke-width="1.5" d="M0,-3.0v7 M-2.5,-0.5L0,-3.0L2.5,-0.5"/>
                </g>
        </g>
        <svg viewBox="0 0 15 15" width="100%" height="30px" preserveAspectRatio="xMaxYMin meet">
         <g id="arrow_out" transform="scale(0.3 0.3)">
          <a xlink:href="classleon3__funclt__trap_1_1SUBXcc__reg__inherit__graph_org.svg" target="_base">
           <rect id="button" ry="5" rx="5" y="6" x="6" height="38" width="38"
                fill="#f2f5e9" fill-opacity="0.5" stroke="#606060" stroke-width="1.0"/>
           <path id="arrow"
             d="M 11.500037,31.436501 C 11.940474,20.09759 22.043105,11.32322 32.158766,21.979434 L 37.068811,17.246167 C 37.068811,17.246167 37.088388,32 37.088388,32 L 22.160133,31.978069 C 22.160133,31.978069 26.997745,27.140456 26.997745,27.140456 C 18.528582,18.264221 13.291696,25.230495 11.500037,31.436501 z"
             style="fill:#404040;"/>
          </a>
         </g>
        </svg>
</svg>
