<?xml version="1.0" encoding="UTF-8" standalone="no"?>
<!DOCTYPE svg PUBLIC "-//W3C//DTD SVG 1.1//EN"
 "http://www.w3.org/Graphics/SVG/1.1/DTD/svg11.dtd">
<!-- Generated by graphviz version 2.26.0 (20091210.2329)
 -->
<!-- Title: leon3_funcat_trap::TLMMemory Pages: 1 -->
<!--zoomable 474 -->
<svg id="main" version="1.1" xmlns="http://www.w3.org/2000/svg" xmlns:xlink="http://www.w3.org/1999/xlink" xml:space="preserve" onload="init(evt)">
<style type="text/css"><![CDATA[
.edge:hover path { stroke: red; }
.edge:hover polygon { stroke: red; fill: red; }
]]></style>
<script type="text/javascript"><![CDATA[
var edges = document.getElementsByTagName('g');
if (edges && edges.length) {
  for (var i=0;i<edges.length;i++) {
    if (edges[i].id.substr(0,4)=='edge') {
      edges[i].setAttribute('class','edge');
    }
  }
}
]]></script>
        <defs>
                <circle id="rim" cx="0" cy="0" r="7"/>
                <circle id="rim2" cx="0" cy="0" r="3.5"/>
                <g id="zoomPlus">
                        <use xlink:href="#rim" fill="#404040">
                                <set attributeName="fill" to="#808080" begin="zoomplus.mouseover" end="zoomplus.mouseout"/>
                        </use>
                        <path d="M-4,0h8M0,-4v8" fill="none" stroke="white" stroke-width="1.5" pointer-events="none"/>
                </g>
                <g id="zoomMin">
                        <use xlink:href="#rim" fill="#404040">
                                <set attributeName="fill" to="#808080" begin="zoomminus.mouseover" end="zoomminus.mouseout"/>
                        </use>
                        <path d="M-4,0h8" fill="none" stroke="white" stroke-width="1.5" pointer-events="none"/>
                </g>
                <g id="dirArrow">
                        <path fill="none" stroke="white" stroke-width="1.5" d="M0,-3.0v7 M-2.5,-0.5L0,-3.0L2.5,-0.5"/>
                </g>
               <g id="resetDef">
                       <use xlink:href="#rim2" fill="#404040">
                               <set attributeName="fill" to="#808080" begin="reset.mouseover" end="reset.mouseout"/>
                       </use>
               </g>
        </defs>

<script type="text/javascript">
var viewWidth = 398;
var viewHeight = 474;
var sectionId = 'dynsection-1';
</script>
<script xlink:href="svgpan.js"/>
<svg id="graph" class="graph">
<g id="viewport">
<title>leon3_funcat_trap::TLMMemory</title>
<polygon fill="white" stroke="white" points="-4,5 -4,-470 395,-470 395,5 -4,5"/>
<!-- Node1 -->
<g id="node1" class="node"><title>Node1</title>
<polygon fill="#bfbfbf" stroke="black" points="100,-1 100,-207 204,-207 204,-1 100,-1"/>
<text text-anchor="start" x="108" y="-194" font-family="Helvetica,sans-Serif" font-size="10.00">leon3_funcat_trap::</text>
<text text-anchor="middle" x="152" y="-181" font-family="Helvetica,sans-Serif" font-size="10.00">TLMMemory</text>
<polyline fill="none" stroke="black" points="100,-173 204,-173 "/>
<text text-anchor="middle" x="152" y="-160" font-family="Helvetica,sans-Serif" font-size="10.00"> </text>
<polyline fill="none" stroke="black" points="100,-152 204,-152 "/>
<text text-anchor="start" x="108" y="-139" font-family="Helvetica,sans-Serif" font-size="10.00">+ TLMMemory()</text>
<text text-anchor="start" x="108" y="-126" font-family="Helvetica,sans-Serif" font-size="10.00">+ setDebugger()</text>
<text text-anchor="start" x="108" y="-113" font-family="Helvetica,sans-Serif" font-size="10.00">+ nb_transport_bw()</text>
<text text-anchor="start" x="108" y="-100" font-family="Helvetica,sans-Serif" font-size="10.00">+ peq_cb()</text>
<text text-anchor="start" x="108" y="-87" font-family="Helvetica,sans-Serif" font-size="10.00">+ read_dword()</text>
<text text-anchor="start" x="108" y="-74" font-family="Helvetica,sans-Serif" font-size="10.00">+ read_word()</text>
<text text-anchor="start" x="108" y="-61" font-family="Helvetica,sans-Serif" font-size="10.00">+ read_half()</text>
<text text-anchor="start" x="108" y="-48" font-family="Helvetica,sans-Serif" font-size="10.00">+ read_byte()</text>
<text text-anchor="start" x="108" y="-35" font-family="Helvetica,sans-Serif" font-size="10.00">+ read_instr()</text>
<text text-anchor="start" x="108" y="-22" font-family="Helvetica,sans-Serif" font-size="10.00">+ write_dword()</text>
<text text-anchor="start" x="108" y="-9" font-family="Helvetica,sans-Serif" font-size="10.00">and 13 more...</text>
</g>
<!-- Node2 -->
<g id="node2" class="node"><title>Node2</title>
<a xlink:href="classleon3__funcat__trap_1_1MemoryInterface.html" target="_top" xlink:title="{leon3_funcat_trap::\lMemoryInterface\n||+ read_dword()\l+ read_word()\l+ read_half()\l+ read_byte()\l+ read_instr()\l+ read_dword_dbg()\l+ read_word_dbg()\l+ read_half_dbg()\l+ read_byte_dbg()\l+ write_dword()\land 12 more...\l}">
<polygon fill="white" stroke="black" points="-0.5,-259 -0.5,-465 102.5,-465 102.5,-259 -0.5,-259"/>
<text text-anchor="start" x="7.5" y="-452" font-family="Helvetica,sans-Serif" font-size="10.00">leon3_funcat_trap::</text>
<text text-anchor="middle" x="51" y="-439" font-family="Helvetica,sans-Serif" font-size="10.00">MemoryInterface</text>
<polyline fill="none" stroke="black" points="-0.5,-431 102.5,-431 "/>
<text text-anchor="middle" x="51" y="-418" font-family="Helvetica,sans-Serif" font-size="10.00"> </text>
<polyline fill="none" stroke="black" points="-0.5,-410 102.5,-410 "/>
<text text-anchor="start" x="7.5" y="-397" font-family="Helvetica,sans-Serif" font-size="10.00">+ read_dword()</text>
<text text-anchor="start" x="7.5" y="-384" font-family="Helvetica,sans-Serif" font-size="10.00">+ read_word()</text>
<text text-anchor="start" x="7.5" y="-371" font-family="Helvetica,sans-Serif" font-size="10.00">+ read_half()</text>
<text text-anchor="start" x="7.5" y="-358" font-family="Helvetica,sans-Serif" font-size="10.00">+ read_byte()</text>
<text text-anchor="start" x="7.5" y="-345" font-family="Helvetica,sans-Serif" font-size="10.00">+ read_instr()</text>
<text text-anchor="start" x="7.5" y="-332" font-family="Helvetica,sans-Serif" font-size="10.00">+ read_dword_dbg()</text>
<text text-anchor="start" x="7.5" y="-319" font-family="Helvetica,sans-Serif" font-size="10.00">+ read_word_dbg()</text>
<text text-anchor="start" x="7.5" y="-306" font-family="Helvetica,sans-Serif" font-size="10.00">+ read_half_dbg()</text>
<text text-anchor="start" x="7.5" y="-293" font-family="Helvetica,sans-Serif" font-size="10.00">+ read_byte_dbg()</text>
<text text-anchor="start" x="7.5" y="-280" font-family="Helvetica,sans-Serif" font-size="10.00">+ write_dword()</text>
<text text-anchor="start" x="7.5" y="-267" font-family="Helvetica,sans-Serif" font-size="10.00">and 12 more...</text>
</a>
</g>
<!-- Node2&#45;&gt;Node1 -->
<g id="edge2" class="edge"><title>Node2&#45;&gt;Node1</title>
<path fill="none" stroke="midnightblue" d="M95.1157,-249.308C100.578,-235.355 106.142,-221.142 111.546,-207.338"/>
<polygon fill="none" stroke="midnightblue" points="91.7396,-248.331 91.3533,-258.919 98.2579,-250.883 91.7396,-248.331"/>
</g>
<!-- Node3 -->
<g id="node4" class="node"><title>Node3</title>
<polygon fill="white" stroke="#bfbfbf" points="120,-330.5 120,-393.5 184,-393.5 184,-330.5 120,-330.5"/>
<text text-anchor="middle" x="152" y="-380.5" font-family="Helvetica,sans-Serif" font-size="10.00">sc_module</text>
<polyline fill="none" stroke="#bfbfbf" points="120,-372.5 184,-372.5 "/>
<text text-anchor="middle" x="152" y="-359.5" font-family="Helvetica,sans-Serif" font-size="10.00"> </text>
<polyline fill="none" stroke="#bfbfbf" points="120,-351.5 184,-351.5 "/>
<text text-anchor="middle" x="152" y="-338.5" font-family="Helvetica,sans-Serif" font-size="10.00"> </text>
</g>
<!-- Node3&#45;&gt;Node1 -->
<g id="edge4" class="edge"><title>Node3&#45;&gt;Node1</title>
<path fill="none" stroke="midnightblue" d="M152,-320.073C152,-289.458 152,-246.572 152,-207.069"/>
<polygon fill="none" stroke="midnightblue" points="148.5,-320.364 152,-330.364 155.5,-320.364 148.5,-320.364"/>
</g>
<!-- Node4 -->
<g id="node6" class="node"><title>Node4</title>
<polygon fill="white" stroke="#bfbfbf" points="201.5,-324 201.5,-400 390.5,-400 390.5,-324 201.5,-324"/>
<text text-anchor="start" x="209.5" y="-387" font-family="Helvetica,sans-Serif" font-size="10.00">simple_initiator_socket</text>
<text text-anchor="middle" x="296" y="-374" font-family="Helvetica,sans-Serif" font-size="10.00">&lt; leon3_funcat_trap::TLMMemory, 32 &gt;</text>
<polyline fill="none" stroke="#bfbfbf" points="201.5,-366 390.5,-366 "/>
<text text-anchor="middle" x="296" y="-353" font-family="Helvetica,sans-Serif" font-size="10.00"> </text>
<polyline fill="none" stroke="#bfbfbf" points="201.5,-345 390.5,-345 "/>
<text text-anchor="middle" x="296" y="-332" font-family="Helvetica,sans-Serif" font-size="10.00"> </text>
</g>
<!-- Node4&#45;&gt;Node1 -->
<g id="edge6" class="edge"><title>Node4&#45;&gt;Node1</title>
<path fill="none" stroke="#404040" d="M274.752,-323.931C257.696,-293.371 232.907,-248.958 210.064,-208.032"/>
<polygon fill="none" stroke="#404040" points="209.998,-207.913 203.581,-204.623 204.15,-197.435 210.567,-200.724 209.998,-207.913"/>
<text text-anchor="middle" x="250.5" y="-230.5" font-family="Helvetica,sans-Serif" font-size="10.00"> +initSocket</text>
</g>
</g>
</svg>
        <g id="navigator" transform="translate(0 0)" fill="#404254">
                <rect fill="#f2f5e9" fill-opacity="0.5" stroke="#606060" stroke-width=".5" x="0" y="0" width="60" height="60"/>
                <use id="zoomplus" xlink:href="#zoomPlus" x="17" y="9" onmousedown="handleZoom(evt,'in')"/>
                <use id="zoomminus" xlink:href="#zoomMin" x="42" y="9" onmousedown="handleZoom(evt,'out')"/>
                <use id="reset" xlink:href="#resetDef" x="30" y="36" onmousedown="handleReset()"/>
                <g id="arrowUp" xlink:href="#dirArrow" transform="translate(30 24)" onmousedown="handlePan(0,-1)">
                  <use xlink:href="#rim" fill="#404040">
                        <set attributeName="fill" to="#808080" begin="arrowUp.mouseover" end="arrowUp.mouseout"/>
                  </use>
                  <path fill="none" stroke="white" stroke-width="1.5" d="M0,-3.0v7 M-2.5,-0.5L0,-3.0L2.5,-0.5"/>
                </g>
                <g id="arrowRight" xlink:href="#dirArrow" transform="rotate(90) translate(36 -43)" onmousedown="handlePan(1,0)">
                  <use xlink:href="#rim" fill="#404040">
                        <set attributeName="fill" to="#808080" begin="arrowRight.mouseover" end="arrowRight.mouseout"/>
                  </use>
                  <path fill="none" stroke="white" stroke-width="1.5" d="M0,-3.0v7 M-2.5,-0.5L0,-3.0L2.5,-0.5"/>
                </g>
                <g id="arrowDown" xlink:href="#dirArrow" transform="rotate(180) translate(-30 -48)" onmousedown="handlePan(0,1)">
                  <use xlink:href="#rim" fill="#404040">
                        <set attributeName="fill" to="#808080" begin="arrowDown.mouseover" end="arrowDown.mouseout"/>
                  </use>
                  <path fill="none" stroke="white" stroke-width="1.5" d="M0,-3.0v7 M-2.5,-0.5L0,-3.0L2.5,-0.5"/>
                </g>
                <g id="arrowLeft" xlink:href="#dirArrow" transform="rotate(270) translate(-36 17)" onmousedown="handlePan(-1,0)">
                  <use xlink:href="#rim" fill="#404040">
                        <set attributeName="fill" to="#808080" begin="arrowLeft.mouseover" end="arrowLeft.mouseout"/>
                  </use>
                  <path fill="none" stroke="white" stroke-width="1.5" d="M0,-3.0v7 M-2.5,-0.5L0,-3.0L2.5,-0.5"/>
                </g>
        </g>
        <svg viewBox="0 0 15 15" width="100%" height="30px" preserveAspectRatio="xMaxYMin meet">
         <g id="arrow_out" transform="scale(0.3 0.3)">
          <a xlink:href="classleon3__funcat__trap_1_1TLMMemory__coll__graph_org.svg" target="_base">
           <rect id="button" ry="5" rx="5" y="6" x="6" height="38" width="38"
                fill="#f2f5e9" fill-opacity="0.5" stroke="#606060" stroke-width="1.0"/>
           <path id="arrow"
             d="M 11.500037,31.436501 C 11.940474,20.09759 22.043105,11.32322 32.158766,21.979434 L 37.068811,17.246167 C 37.068811,17.246167 37.088388,32 37.088388,32 L 22.160133,31.978069 C 22.160133,31.978069 26.997745,27.140456 26.997745,27.140456 C 18.528582,18.264221 13.291696,25.230495 11.500037,31.436501 z"
             style="fill:#404040;"/>
          </a>
         </g>
        </svg>
</svg>
