<?xml version="1.0" encoding="UTF-8" standalone="no"?>
<!DOCTYPE svg PUBLIC "-//W3C//DTD SVG 1.1//EN"
 "http://www.w3.org/Graphics/SVG/1.1/DTD/svg11.dtd">
<!-- Generated by graphviz version 2.26.0 (20091210.2329)
 -->
<!-- Title: nocache Pages: 1 -->
<!--zoomable 624 -->
<svg id="main" version="1.1" xmlns="http://www.w3.org/2000/svg" xmlns:xlink="http://www.w3.org/1999/xlink" xml:space="preserve" onload="init(evt)">
<style type="text/css"><![CDATA[
.edge:hover path { stroke: red; }
.edge:hover polygon { stroke: red; fill: red; }
]]></style>
<script type="text/javascript"><![CDATA[
var edges = document.getElementsByTagName('g');
if (edges && edges.length) {
  for (var i=0;i<edges.length;i++) {
    if (edges[i].id.substr(0,4)=='edge') {
      edges[i].setAttribute('class','edge');
    }
  }
}
]]></script>
        <defs>
                <circle id="rim" cx="0" cy="0" r="7"/>
                <circle id="rim2" cx="0" cy="0" r="3.5"/>
                <g id="zoomPlus">
                        <use xlink:href="#rim" fill="#404040">
                                <set attributeName="fill" to="#808080" begin="zoomplus.mouseover" end="zoomplus.mouseout"/>
                        </use>
                        <path d="M-4,0h8M0,-4v8" fill="none" stroke="white" stroke-width="1.5" pointer-events="none"/>
                </g>
                <g id="zoomMin">
                        <use xlink:href="#rim" fill="#404040">
                                <set attributeName="fill" to="#808080" begin="zoomminus.mouseover" end="zoomminus.mouseout"/>
                        </use>
                        <path d="M-4,0h8" fill="none" stroke="white" stroke-width="1.5" pointer-events="none"/>
                </g>
                <g id="dirArrow">
                        <path fill="none" stroke="white" stroke-width="1.5" d="M0,-3.0v7 M-2.5,-0.5L0,-3.0L2.5,-0.5"/>
                </g>
               <g id="resetDef">
                       <use xlink:href="#rim2" fill="#404040">
                               <set attributeName="fill" to="#808080" begin="reset.mouseover" end="reset.mouseout"/>
                       </use>
               </g>
        </defs>

<script type="text/javascript">
var viewWidth = 206;
var viewHeight = 624;
var sectionId = 'dynsection-1';
</script>
<script xlink:href="svgpan.js"/>
<svg id="graph" class="graph">
<g id="viewport">
<title>nocache</title>
<polygon fill="white" stroke="white" points="-4,5 -4,-620 203,-620 203,5 -4,5"/>
<!-- Node1 -->
<g id="node1" class="node"><title>Node1</title>
<polygon fill="#bfbfbf" stroke="black" points="33.5,-0.5 33.5,-245.5 144.5,-245.5 144.5,-0.5 33.5,-0.5"/>
<text text-anchor="middle" x="89" y="-232.5" font-family="Helvetica,sans-Serif" font-size="10.00">nocache</text>
<polyline fill="none" stroke="black" points="33.5,-224.5 144.5,-224.5 "/>
<text text-anchor="middle" x="89" y="-211.5" font-family="Helvetica,sans-Serif" font-size="10.00"> </text>
<polyline fill="none" stroke="black" points="33.5,-203.5 144.5,-203.5 "/>
<text text-anchor="start" x="41.5" y="-190.5" font-family="Helvetica,sans-Serif" font-size="10.00">+ mem_read()</text>
<text text-anchor="start" x="41.5" y="-177.5" font-family="Helvetica,sans-Serif" font-size="10.00">+ mem_write()</text>
<text text-anchor="start" x="41.5" y="-164.5" font-family="Helvetica,sans-Serif" font-size="10.00">+ flush()</text>
<text text-anchor="start" x="41.5" y="-151.5" font-family="Helvetica,sans-Serif" font-size="10.00">+ read_cache_tag()</text>
<text text-anchor="start" x="41.5" y="-138.5" font-family="Helvetica,sans-Serif" font-size="10.00">+ write_cache_tag()</text>
<text text-anchor="start" x="41.5" y="-125.5" font-family="Helvetica,sans-Serif" font-size="10.00">+ read_cache_entry()</text>
<text text-anchor="start" x="41.5" y="-112.5" font-family="Helvetica,sans-Serif" font-size="10.00">+ write_cache_entry()</text>
<text text-anchor="start" x="41.5" y="-99.5" font-family="Helvetica,sans-Serif" font-size="10.00">+ read_config_reg()</text>
<text text-anchor="start" x="41.5" y="-86.5" font-family="Helvetica,sans-Serif" font-size="10.00">+ check_mode()</text>
<text text-anchor="start" x="41.5" y="-73.5" font-family="Helvetica,sans-Serif" font-size="10.00">+ get_cache_type()</text>
<text text-anchor="start" x="41.5" y="-60.5" font-family="Helvetica,sans-Serif" font-size="10.00">+ snoop_invalidate()</text>
<text text-anchor="start" x="41.5" y="-47.5" font-family="Helvetica,sans-Serif" font-size="10.00">+ clkcng()</text>
<text text-anchor="start" x="41.5" y="-34.5" font-family="Helvetica,sans-Serif" font-size="10.00">+ dbg_out()</text>
<text text-anchor="start" x="41.5" y="-21.5" font-family="Helvetica,sans-Serif" font-size="10.00">+ nocache()</text>
<text text-anchor="start" x="41.5" y="-8.5" font-family="Helvetica,sans-Serif" font-size="10.00">+ ~nocache()</text>
</g>
<!-- Node2 -->
<g id="node2" class="node"><title>Node2</title>
<polygon fill="white" stroke="#bfbfbf" points="-0.5,-354.5 -0.5,-417.5 70.5,-417.5 70.5,-354.5 -0.5,-354.5"/>
<text text-anchor="middle" x="35" y="-404.5" font-family="Helvetica,sans-Serif" font-size="10.00">DefaultBase</text>
<polyline fill="none" stroke="#bfbfbf" points="-0.5,-396.5 70.5,-396.5 "/>
<text text-anchor="middle" x="35" y="-383.5" font-family="Helvetica,sans-Serif" font-size="10.00"> </text>
<polyline fill="none" stroke="#bfbfbf" points="-0.5,-375.5 70.5,-375.5 "/>
<text text-anchor="middle" x="35" y="-362.5" font-family="Helvetica,sans-Serif" font-size="10.00"> </text>
</g>
<!-- Node2&#45;&gt;Node1 -->
<g id="edge2" class="edge"><title>Node2&#45;&gt;Node1</title>
<path fill="none" stroke="midnightblue" d="M43.526,-344.475C49.0407,-317.617 56.5309,-281.137 63.8403,-245.537"/>
<polygon fill="none" stroke="midnightblue" points="40.0965,-343.776 41.5137,-354.276 46.9535,-345.184 40.0965,-343.776"/>
</g>
<!-- Node3 -->
<g id="node4" class="node"><title>Node3</title>
<a xlink:href="classcache__if.html" target="_top" xlink:title="{cache_if\n||+ flush()\l+ read_cache_tag()\l+ write_cache_tag()\l+ read_cache_entry()\l+ write_cache_entry()\l+ read_config_reg()\l+ check_mode()\l+ get_cache_type()\l+ snoop_invalidate()\l+ clkcng()\l+ dbg_out()\l+ ~cache_if()\l}">
<polygon fill="white" stroke="black" points="87.5,-283 87.5,-489 198.5,-489 198.5,-283 87.5,-283"/>
<text text-anchor="middle" x="143" y="-476" font-family="Helvetica,sans-Serif" font-size="10.00">cache_if</text>
<polyline fill="none" stroke="black" points="87.5,-468 198.5,-468 "/>
<text text-anchor="middle" x="143" y="-455" font-family="Helvetica,sans-Serif" font-size="10.00"> </text>
<polyline fill="none" stroke="black" points="87.5,-447 198.5,-447 "/>
<text text-anchor="start" x="95.5" y="-434" font-family="Helvetica,sans-Serif" font-size="10.00">+ flush()</text>
<text text-anchor="start" x="95.5" y="-421" font-family="Helvetica,sans-Serif" font-size="10.00">+ read_cache_tag()</text>
<text text-anchor="start" x="95.5" y="-408" font-family="Helvetica,sans-Serif" font-size="10.00">+ write_cache_tag()</text>
<text text-anchor="start" x="95.5" y="-395" font-family="Helvetica,sans-Serif" font-size="10.00">+ read_cache_entry()</text>
<text text-anchor="start" x="95.5" y="-382" font-family="Helvetica,sans-Serif" font-size="10.00">+ write_cache_entry()</text>
<text text-anchor="start" x="95.5" y="-369" font-family="Helvetica,sans-Serif" font-size="10.00">+ read_config_reg()</text>
<text text-anchor="start" x="95.5" y="-356" font-family="Helvetica,sans-Serif" font-size="10.00">+ check_mode()</text>
<text text-anchor="start" x="95.5" y="-343" font-family="Helvetica,sans-Serif" font-size="10.00">+ get_cache_type()</text>
<text text-anchor="start" x="95.5" y="-330" font-family="Helvetica,sans-Serif" font-size="10.00">+ snoop_invalidate()</text>
<text text-anchor="start" x="95.5" y="-317" font-family="Helvetica,sans-Serif" font-size="10.00">+ clkcng()</text>
<text text-anchor="start" x="95.5" y="-304" font-family="Helvetica,sans-Serif" font-size="10.00">+ dbg_out()</text>
<text text-anchor="start" x="95.5" y="-291" font-family="Helvetica,sans-Serif" font-size="10.00">+ ~cache_if()</text>
</a>
</g>
<!-- Node3&#45;&gt;Node1 -->
<g id="edge4" class="edge"><title>Node3&#45;&gt;Node1</title>
<path fill="none" stroke="midnightblue" d="M119.798,-272.999C117.931,-263.905 116.039,-254.691 114.159,-245.535"/>
<polygon fill="none" stroke="midnightblue" points="116.373,-273.719 121.813,-282.81 123.23,-272.311 116.373,-273.719"/>
</g>
<!-- Node4 -->
<g id="node6" class="node"><title>Node4</title>
<a xlink:href="classmem__if.html" target="_top" xlink:title="{mem_if\n||+ mem_write()\l+ mem_read()\l+ ~mem_if()\l}">
<polygon fill="white" stroke="black" points="103,-526.5 103,-615.5 183,-615.5 183,-526.5 103,-526.5"/>
<text text-anchor="middle" x="143" y="-602.5" font-family="Helvetica,sans-Serif" font-size="10.00">mem_if</text>
<polyline fill="none" stroke="black" points="103,-594.5 183,-594.5 "/>
<text text-anchor="middle" x="143" y="-581.5" font-family="Helvetica,sans-Serif" font-size="10.00"> </text>
<polyline fill="none" stroke="black" points="103,-573.5 183,-573.5 "/>
<text text-anchor="start" x="111" y="-560.5" font-family="Helvetica,sans-Serif" font-size="10.00">+ mem_write()</text>
<text text-anchor="start" x="111" y="-547.5" font-family="Helvetica,sans-Serif" font-size="10.00">+ mem_read()</text>
<text text-anchor="start" x="111" y="-534.5" font-family="Helvetica,sans-Serif" font-size="10.00">+ ~mem_if()</text>
</a>
</g>
<!-- Node4&#45;&gt;Node3 -->
<g id="edge6" class="edge"><title>Node4&#45;&gt;Node3</title>
<path fill="none" stroke="midnightblue" d="M143,-516.082C143,-507.543 143,-498.49 143,-489.293"/>
<polygon fill="none" stroke="midnightblue" points="139.5,-516.217 143,-526.217 146.5,-516.217 139.5,-516.217"/>
</g>
</g>
</svg>
        <g id="navigator" transform="translate(0 0)" fill="#404254">
                <rect fill="#f2f5e9" fill-opacity="0.5" stroke="#606060" stroke-width=".5" x="0" y="0" width="60" height="60"/>
                <use id="zoomplus" xlink:href="#zoomPlus" x="17" y="9" onmousedown="handleZoom(evt,'in')"/>
                <use id="zoomminus" xlink:href="#zoomMin" x="42" y="9" onmousedown="handleZoom(evt,'out')"/>
                <use id="reset" xlink:href="#resetDef" x="30" y="36" onmousedown="handleReset()"/>
                <g id="arrowUp" xlink:href="#dirArrow" transform="translate(30 24)" onmousedown="handlePan(0,-1)">
                  <use xlink:href="#rim" fill="#404040">
                        <set attributeName="fill" to="#808080" begin="arrowUp.mouseover" end="arrowUp.mouseout"/>
                  </use>
                  <path fill="none" stroke="white" stroke-width="1.5" d="M0,-3.0v7 M-2.5,-0.5L0,-3.0L2.5,-0.5"/>
                </g>
                <g id="arrowRight" xlink:href="#dirArrow" transform="rotate(90) translate(36 -43)" onmousedown="handlePan(1,0)">
                  <use xlink:href="#rim" fill="#404040">
                        <set attributeName="fill" to="#808080" begin="arrowRight.mouseover" end="arrowRight.mouseout"/>
                  </use>
                  <path fill="none" stroke="white" stroke-width="1.5" d="M0,-3.0v7 M-2.5,-0.5L0,-3.0L2.5,-0.5"/>
                </g>
                <g id="arrowDown" xlink:href="#dirArrow" transform="rotate(180) translate(-30 -48)" onmousedown="handlePan(0,1)">
                  <use xlink:href="#rim" fill="#404040">
                        <set attributeName="fill" to="#808080" begin="arrowDown.mouseover" end="arrowDown.mouseout"/>
                  </use>
                  <path fill="none" stroke="white" stroke-width="1.5" d="M0,-3.0v7 M-2.5,-0.5L0,-3.0L2.5,-0.5"/>
                </g>
                <g id="arrowLeft" xlink:href="#dirArrow" transform="rotate(270) translate(-36 17)" onmousedown="handlePan(-1,0)">
                  <use xlink:href="#rim" fill="#404040">
                        <set attributeName="fill" to="#808080" begin="arrowLeft.mouseover" end="arrowLeft.mouseout"/>
                  </use>
                  <path fill="none" stroke="white" stroke-width="1.5" d="M0,-3.0v7 M-2.5,-0.5L0,-3.0L2.5,-0.5"/>
                </g>
        </g>
        <svg viewBox="0 0 15 15" width="100%" height="30px" preserveAspectRatio="xMaxYMin meet">
         <g id="arrow_out" transform="scale(0.3 0.3)">
          <a xlink:href="classnocache__coll__graph_org.svg" target="_base">
           <rect id="button" ry="5" rx="5" y="6" x="6" height="38" width="38"
                fill="#f2f5e9" fill-opacity="0.5" stroke="#606060" stroke-width="1.0"/>
           <path id="arrow"
             d="M 11.500037,31.436501 C 11.940474,20.09759 22.043105,11.32322 32.158766,21.979434 L 37.068811,17.246167 C 37.068811,17.246167 37.088388,32 37.088388,32 L 22.160133,31.978069 C 22.160133,31.978069 26.997745,27.140456 26.997745,27.140456 C 18.528582,18.264221 13.291696,25.230495 11.500037,31.436501 z"
             style="fill:#404040;"/>
          </a>
         </g>
        </svg>
</svg>
