<?xml version="1.0" encoding="UTF-8" standalone="no"?>
<!DOCTYPE svg PUBLIC "-//W3C//DTD SVG 1.1//EN"
 "http://www.w3.org/Graphics/SVG/1.1/DTD/svg11.dtd">
<!-- Generated by graphviz version 2.38.0 (20140413.2041)
 -->
<!-- Title: trap::ExecLoader::ExecLoader Pages: 1 -->
<svg width="414pt" height="74pt"
 viewBox="0.00 0.00 413.72 74.00" xmlns="http://www.w3.org/2000/svg" xmlns:xlink="http://www.w3.org/1999/xlink">
<g id="graph0" class="graph" transform="scale(1 1) rotate(0) translate(4 70)">
<title>trap::ExecLoader::ExecLoader</title>
<polygon fill="white" stroke="none" points="-4,4 -4,-70 409.718,-70 409.718,4 -4,4"/>
<!-- Node1 -->
<g id="node1" class="node"><title>Node1</title>
<polygon fill="#bfbfbf" stroke="black" points="0,-21.5 0,-39.5 151.083,-39.5 151.083,-21.5 0,-21.5"/>
<text text-anchor="middle" x="75.5415" y="-27.5" font-family="Helvetica,sans-Serif" font-size="10.00">trap::ExecLoader::ExecLoader</text>
</g>
<!-- Node2 -->
<g id="node2" class="node"><title>Node2</title>
<g id="a_node2"><a xlink:href="classtrap_1_1ELFFrontend.html#a200f11fbad5e2a1625ab3275f54fa5c2" target="_top" xlink:title="trap::ELFFrontend::\lgetInstance">
<polygon fill="white" stroke="black" points="210.984,-37.5 210.984,-65.5 313.693,-65.5 313.693,-37.5 210.984,-37.5"/>
<text text-anchor="start" x="218.984" y="-53.5" font-family="Helvetica,sans-Serif" font-size="10.00">trap::ELFFrontend::</text>
<text text-anchor="middle" x="262.339" y="-43.5" font-family="Helvetica,sans-Serif" font-size="10.00">getInstance</text>
</a>
</g>
</g>
<!-- Node1&#45;&gt;Node2 -->
<g id="edge1" class="edge"><title>Node1&#45;&gt;Node2</title>
<path fill="none" stroke="midnightblue" d="M151.173,-38.981C167.607,-40.8486 184.821,-42.8047 200.627,-44.6009"/>
<polygon fill="midnightblue" stroke="midnightblue" points="200.457,-48.104 210.789,-45.7556 201.248,-41.1488 200.457,-48.104"/>
</g>
<!-- Node4 -->
<g id="node4" class="node"><title>Node4</title>
<g id="a_node4"><a xlink:href="classtrap_1_1ExecLoader.html#a0e3554473742226b3f3d860b52fa8b63" target="_top" xlink:title="Returns the dimension of the loaded program. ">
<polygon fill="white" stroke="black" points="187.083,-0.5 187.083,-18.5 337.595,-18.5 337.595,-0.5 187.083,-0.5"/>
<text text-anchor="middle" x="262.339" y="-6.5" font-family="Helvetica,sans-Serif" font-size="10.00">trap::ExecLoader::getProgDim</text>
</a>
</g>
</g>
<!-- Node1&#45;&gt;Node4 -->
<g id="edge3" class="edge"><title>Node1&#45;&gt;Node4</title>
<path fill="none" stroke="midnightblue" d="M151.173,-22.019C159.669,-21.0536 168.373,-20.0645 176.983,-19.086"/>
<polygon fill="midnightblue" stroke="midnightblue" points="177.489,-22.5512 187.03,-17.9444 176.698,-15.5959 177.489,-22.5512"/>
</g>
<!-- Node3 -->
<g id="node3" class="node"><title>Node3</title>
<g id="a_node3"><a xlink:href="io__less_2queens_8c.html#a7f56768641bb4ced349493752655eb74" target="_top" xlink:title="find">
<polygon fill="white" stroke="black" points="373.595,-42.5 373.595,-60.5 405.718,-60.5 405.718,-42.5 373.595,-42.5"/>
<text text-anchor="middle" x="389.656" y="-48.5" font-family="Helvetica,sans-Serif" font-size="10.00">find</text>
</a>
</g>
</g>
<!-- Node2&#45;&gt;Node3 -->
<g id="edge2" class="edge"><title>Node2&#45;&gt;Node3</title>
<path fill="none" stroke="midnightblue" d="M313.949,-51.5C330.78,-51.5 348.816,-51.5 362.949,-51.5"/>
<polygon fill="midnightblue" stroke="midnightblue" points="363.35,-55.0001 373.35,-51.5 363.35,-48.0001 363.35,-55.0001"/>
</g>
</g>
</svg>
