<?xml version="1.0" encoding="UTF-8" standalone="no"?>
<!DOCTYPE svg PUBLIC "-//W3C//DTD SVG 1.1//EN"
 "http://www.w3.org/Graphics/SVG/1.1/DTD/svg11.dtd">
<!-- Generated by graphviz version 2.38.0 (20140413.2041)
 -->
<!-- Title: gs::cnf::gs_config&lt; std::string &gt; Pages: 1 -->
<svg width="429pt" height="919pt"
 viewBox="0.00 0.00 428.58 919.00" xmlns="http://www.w3.org/2000/svg" xmlns:xlink="http://www.w3.org/1999/xlink">
<g id="graph0" class="graph" transform="scale(1 1) rotate(0) translate(4 915)">
<title>gs::cnf::gs_config&lt; std::string &gt;</title>
<polygon fill="white" stroke="none" points="-4,4 -4,-915 424.582,-915 424.582,4 -4,4"/>
<!-- Node1 -->
<g id="node1" class="node"><title>Node1</title>
<polygon fill="#bfbfbf" stroke="black" points="142.8,-0.5 142.8,-184.5 297.296,-184.5 297.296,-0.5 142.8,-0.5"/>
<text text-anchor="start" x="150.8" y="-172.5" font-family="Helvetica,sans-Serif" font-size="10.00">gs::cnf::gs_config</text>
<text text-anchor="middle" x="220.048" y="-162.5" font-family="Helvetica,sans-Serif" font-size="10.00">&lt; std::string &gt;</text>
<polyline fill="none" stroke="black" points="142.8,-156.5 297.296,-156.5 "/>
<text text-anchor="start" x="150.8" y="-144.5" font-family="Helvetica,sans-Serif" font-size="10.00">+ GS_CONFIG_DELEGATE</text>
<polyline fill="none" stroke="black" points="142.8,-138.5 297.296,-138.5 "/>
<text text-anchor="start" x="150.8" y="-126.5" font-family="Helvetica,sans-Serif" font-size="10.00">+ gs_config()</text>
<text text-anchor="start" x="150.8" y="-116.5" font-family="Helvetica,sans-Serif" font-size="10.00">+ gs_config()</text>
<text text-anchor="start" x="150.8" y="-106.5" font-family="Helvetica,sans-Serif" font-size="10.00">+ gs_config()</text>
<text text-anchor="start" x="150.8" y="-96.5" font-family="Helvetica,sans-Serif" font-size="10.00">+ gs_config()</text>
<text text-anchor="start" x="150.8" y="-86.5" font-family="Helvetica,sans-Serif" font-size="10.00">+ gs_config()</text>
<text text-anchor="start" x="150.8" y="-76.5" font-family="Helvetica,sans-Serif" font-size="10.00">+ gs_config()</text>
<text text-anchor="start" x="150.8" y="-66.5" font-family="Helvetica,sans-Serif" font-size="10.00">+ gs_config()</text>
<text text-anchor="start" x="150.8" y="-56.5" font-family="Helvetica,sans-Serif" font-size="10.00">+ gs_config()</text>
<text text-anchor="start" x="150.8" y="-46.5" font-family="Helvetica,sans-Serif" font-size="10.00">+ gs_config()</text>
<text text-anchor="start" x="150.8" y="-36.5" font-family="Helvetica,sans-Serif" font-size="10.00">+ gs_config()</text>
<text text-anchor="start" x="150.8" y="-26.5" font-family="Helvetica,sans-Serif" font-size="10.00">and 21 more...</text>
<text text-anchor="start" x="150.8" y="-16.5" font-family="Helvetica,sans-Serif" font-size="10.00">+ static_convertValueToString()</text>
<text text-anchor="start" x="150.8" y="-6.5" font-family="Helvetica,sans-Serif" font-size="10.00">+ static_deserialize()</text>
</g>
<!-- Node2 -->
<g id="node2" class="node"><title>Node2</title>
<g id="a_node2"><a xlink:href="classgs_1_1cnf_1_1gs__config__t.html" target="_top" xlink:title="{gs::cnf::gs_config\l_t\&lt; std::string \&gt;\n||+ operator+=()\l+ operator&#45;=()\l+ operator/=()\l+ operator*=()\l+ operator+()\l+ operator&#45;()\l+ operator/()\l+ operator*()\l+ operator%=()\l+ operator^=()\land 27 more...\l# mirror_callback()\l# convertStringToValue()\l}">
<polygon fill="white" stroke="black" points="157.39,-222.5 157.39,-406.5 282.706,-406.5 282.706,-222.5 157.39,-222.5"/>
<text text-anchor="start" x="165.39" y="-394.5" font-family="Helvetica,sans-Serif" font-size="10.00">gs::cnf::gs_config</text>
<text text-anchor="middle" x="220.048" y="-384.5" font-family="Helvetica,sans-Serif" font-size="10.00">_t&lt; std::string &gt;</text>
<polyline fill="none" stroke="black" points="157.39,-378.5 282.706,-378.5 "/>
<text text-anchor="middle" x="220.048" y="-366.5" font-family="Helvetica,sans-Serif" font-size="10.00"> </text>
<polyline fill="none" stroke="black" points="157.39,-360.5 282.706,-360.5 "/>
<text text-anchor="start" x="165.39" y="-348.5" font-family="Helvetica,sans-Serif" font-size="10.00">+ operator+=()</text>
<text text-anchor="start" x="165.39" y="-338.5" font-family="Helvetica,sans-Serif" font-size="10.00">+ operator&#45;=()</text>
<text text-anchor="start" x="165.39" y="-328.5" font-family="Helvetica,sans-Serif" font-size="10.00">+ operator/=()</text>
<text text-anchor="start" x="165.39" y="-318.5" font-family="Helvetica,sans-Serif" font-size="10.00">+ operator*=()</text>
<text text-anchor="start" x="165.39" y="-308.5" font-family="Helvetica,sans-Serif" font-size="10.00">+ operator+()</text>
<text text-anchor="start" x="165.39" y="-298.5" font-family="Helvetica,sans-Serif" font-size="10.00">+ operator&#45;()</text>
<text text-anchor="start" x="165.39" y="-288.5" font-family="Helvetica,sans-Serif" font-size="10.00">+ operator/()</text>
<text text-anchor="start" x="165.39" y="-278.5" font-family="Helvetica,sans-Serif" font-size="10.00">+ operator*()</text>
<text text-anchor="start" x="165.39" y="-268.5" font-family="Helvetica,sans-Serif" font-size="10.00">+ operator%=()</text>
<text text-anchor="start" x="165.39" y="-258.5" font-family="Helvetica,sans-Serif" font-size="10.00">+ operator^=()</text>
<text text-anchor="start" x="165.39" y="-248.5" font-family="Helvetica,sans-Serif" font-size="10.00">and 27 more...</text>
<text text-anchor="start" x="165.39" y="-238.5" font-family="Helvetica,sans-Serif" font-size="10.00"># mirror_callback()</text>
<text text-anchor="start" x="165.39" y="-228.5" font-family="Helvetica,sans-Serif" font-size="10.00"># convertStringToValue()</text>
</a>
</g>
</g>
<!-- Node2&#45;&gt;Node1 -->
<g id="edge1" class="edge"><title>Node2&#45;&gt;Node1</title>
<path fill="none" stroke="midnightblue" d="M220.048,-212.386C220.048,-203.087 220.048,-193.703 220.048,-184.502"/>
<polygon fill="none" stroke="midnightblue" points="216.548,-212.429 220.048,-222.43 223.548,-212.43 216.548,-212.429"/>
</g>
<!-- Node2&#45;&gt;Node2 -->
<g id="edge4" class="edge"><title>Node2&#45;&gt;Node2</title>
<path fill="none" stroke="#404040" d="M282.949,-333.67C293.456,-330.988 300.706,-324.598 300.706,-314.5 300.706,-308.505 298.15,-303.816 293.874,-300.435"/>
<polygon fill="none" stroke="#404040" points="293.821,-300.41 286.692,-301.494 282.949,-295.33 290.079,-294.246 293.821,-300.41"/>
<text text-anchor="middle" x="341.827" y="-311.5" font-family="Helvetica,sans-Serif" font-size="10.00"> #m_mirror_param</text>
</g>
<!-- Node3 -->
<g id="node3" class="node"><title>Node3</title>
<g id="a_node3"><a xlink:href="classgs_1_1cnf_1_1gs__config__base.html" target="_top" xlink:title="{gs::cnf::gs_config_base\n||+ gs_config_base()\l+ setProperty()\l+ getProperty()\l+ getProperties()\l+ deleteProperty()\l+ exists()\l+ add_properties()\l}">
<polygon fill="white" stroke="black" points="299.514,-694.5 299.514,-808.5 420.582,-808.5 420.582,-694.5 299.514,-694.5"/>
<text text-anchor="middle" x="360.048" y="-796.5" font-family="Helvetica,sans-Serif" font-size="10.00">gs::cnf::gs_config_base</text>
<polyline fill="none" stroke="black" points="299.514,-790.5 420.582,-790.5 "/>
<text text-anchor="middle" x="360.048" y="-778.5" font-family="Helvetica,sans-Serif" font-size="10.00"> </text>
<polyline fill="none" stroke="black" points="299.514,-772.5 420.582,-772.5 "/>
<text text-anchor="start" x="307.514" y="-760.5" font-family="Helvetica,sans-Serif" font-size="10.00">+ gs_config_base()</text>
<text text-anchor="start" x="307.514" y="-750.5" font-family="Helvetica,sans-Serif" font-size="10.00">+ setProperty()</text>
<text text-anchor="start" x="307.514" y="-740.5" font-family="Helvetica,sans-Serif" font-size="10.00">+ getProperty()</text>
<text text-anchor="start" x="307.514" y="-730.5" font-family="Helvetica,sans-Serif" font-size="10.00">+ getProperties()</text>
<text text-anchor="start" x="307.514" y="-720.5" font-family="Helvetica,sans-Serif" font-size="10.00">+ deleteProperty()</text>
<text text-anchor="start" x="307.514" y="-710.5" font-family="Helvetica,sans-Serif" font-size="10.00">+ exists()</text>
<text text-anchor="start" x="307.514" y="-700.5" font-family="Helvetica,sans-Serif" font-size="10.00">+ add_properties()</text>
</a>
</g>
</g>
<!-- Node3&#45;&gt;Node2 -->
<g id="edge2" class="edge"><title>Node3&#45;&gt;Node2</title>
<path fill="none" stroke="midnightblue" d="M351.722,-684.384C341.781,-617.236 321.947,-511.158 287.048,-425 284.58,-418.906 281.79,-412.763 278.787,-406.662"/>
<polygon fill="none" stroke="midnightblue" points="348.276,-685.015 353.175,-694.409 355.204,-684.01 348.276,-685.015"/>
</g>
<!-- Node7 -->
<g id="node7" class="node"><title>Node7</title>
<g id="a_node7"><a xlink:href="classgs_1_1cnf_1_1gs__config__t.html" target="_top" xlink:title="Template specialized base class for configuration parameters. ">
<polygon fill="white" stroke="black" points="157.39,-453.5 157.39,-637.5 282.706,-637.5 282.706,-453.5 157.39,-453.5"/>
<text text-anchor="start" x="165.39" y="-625.5" font-family="Helvetica,sans-Serif" font-size="10.00">gs::cnf::gs_config</text>
<text text-anchor="middle" x="220.048" y="-615.5" font-family="Helvetica,sans-Serif" font-size="10.00">_t&lt; T &gt;</text>
<polyline fill="none" stroke="black" points="157.39,-609.5 282.706,-609.5 "/>
<text text-anchor="middle" x="220.048" y="-597.5" font-family="Helvetica,sans-Serif" font-size="10.00"> </text>
<polyline fill="none" stroke="black" points="157.39,-591.5 282.706,-591.5 "/>
<text text-anchor="start" x="165.39" y="-579.5" font-family="Helvetica,sans-Serif" font-size="10.00">+ operator+=()</text>
<text text-anchor="start" x="165.39" y="-569.5" font-family="Helvetica,sans-Serif" font-size="10.00">+ operator&#45;=()</text>
<text text-anchor="start" x="165.39" y="-559.5" font-family="Helvetica,sans-Serif" font-size="10.00">+ operator/=()</text>
<text text-anchor="start" x="165.39" y="-549.5" font-family="Helvetica,sans-Serif" font-size="10.00">+ operator*=()</text>
<text text-anchor="start" x="165.39" y="-539.5" font-family="Helvetica,sans-Serif" font-size="10.00">+ operator+()</text>
<text text-anchor="start" x="165.39" y="-529.5" font-family="Helvetica,sans-Serif" font-size="10.00">+ operator&#45;()</text>
<text text-anchor="start" x="165.39" y="-519.5" font-family="Helvetica,sans-Serif" font-size="10.00">+ operator/()</text>
<text text-anchor="start" x="165.39" y="-509.5" font-family="Helvetica,sans-Serif" font-size="10.00">+ operator*()</text>
<text text-anchor="start" x="165.39" y="-499.5" font-family="Helvetica,sans-Serif" font-size="10.00">+ operator%=()</text>
<text text-anchor="start" x="165.39" y="-489.5" font-family="Helvetica,sans-Serif" font-size="10.00">+ operator^=()</text>
<text text-anchor="start" x="165.39" y="-479.5" font-family="Helvetica,sans-Serif" font-size="10.00">and 27 more...</text>
<text text-anchor="start" x="165.39" y="-469.5" font-family="Helvetica,sans-Serif" font-size="10.00"># mirror_callback()</text>
<text text-anchor="start" x="165.39" y="-459.5" font-family="Helvetica,sans-Serif" font-size="10.00"># convertStringToValue()</text>
</a>
</g>
</g>
<!-- Node3&#45;&gt;Node7 -->
<g id="edge8" class="edge"><title>Node3&#45;&gt;Node7</title>
<path fill="none" stroke="midnightblue" d="M332.524,-684.995C327.494,-675.025 321.951,-665.053 316.048,-656 306.313,-641.069 294.66,-626.058 282.882,-612.142"/>
<polygon fill="none" stroke="midnightblue" points="329.453,-686.682 336.995,-694.123 335.739,-683.603 329.453,-686.682"/>
</g>
<!-- Node4 -->
<g id="node4" class="node"><title>Node4</title>
<g id="a_node4"><a xlink:href="classgs__param__base.html" target="_top" xlink:title="{gs_param_base\n||}">
<polygon fill="white" stroke="black" points="316.191,-851.5 316.191,-905.5 403.905,-905.5 403.905,-851.5 316.191,-851.5"/>
<text text-anchor="middle" x="360.048" y="-893.5" font-family="Helvetica,sans-Serif" font-size="10.00">gs_param_base</text>
<polyline fill="none" stroke="black" points="316.191,-887.5 403.905,-887.5 "/>
<text text-anchor="middle" x="360.048" y="-875.5" font-family="Helvetica,sans-Serif" font-size="10.00"> </text>
<polyline fill="none" stroke="black" points="316.191,-869.5 403.905,-869.5 "/>
<text text-anchor="middle" x="360.048" y="-857.5" font-family="Helvetica,sans-Serif" font-size="10.00"> </text>
</a>
</g>
</g>
<!-- Node4&#45;&gt;Node3 -->
<g id="edge3" class="edge"><title>Node4&#45;&gt;Node3</title>
<path fill="none" stroke="midnightblue" d="M360.048,-841.133C360.048,-830.931 360.048,-819.596 360.048,-808.534"/>
<polygon fill="none" stroke="midnightblue" points="356.548,-841.296 360.048,-851.296 363.548,-841.296 356.548,-841.296"/>
</g>
<!-- Node5 -->
<g id="node5" class="node"><title>Node5</title>
<g id="a_node5"><a xlink:title="STL class. ">
<polygon fill="white" stroke="#bfbfbf" points="17.373,-724.5 17.373,-778.5 76.7227,-778.5 76.7227,-724.5 17.373,-724.5"/>
<text text-anchor="middle" x="47.0479" y="-766.5" font-family="Helvetica,sans-Serif" font-size="10.00">std::string</text>
<polyline fill="none" stroke="#bfbfbf" points="17.373,-760.5 76.7227,-760.5 "/>
<text text-anchor="middle" x="47.0479" y="-748.5" font-family="Helvetica,sans-Serif" font-size="10.00"> </text>
<polyline fill="none" stroke="#bfbfbf" points="17.373,-742.5 76.7227,-742.5 "/>
<text text-anchor="middle" x="47.0479" y="-730.5" font-family="Helvetica,sans-Serif" font-size="10.00"> </text>
</a>
</g>
</g>
<!-- Node5&#45;&gt;Node2 -->
<g id="edge5" class="edge"><title>Node5&#45;&gt;Node2</title>
<path fill="none" stroke="#404040" d="M44.7864,-724.255C41.2841,-670.399 39.0317,-544.754 83.5703,-453 98.6789,-421.875 123.682,-393.562 148.188,-370.827"/>
<polygon fill="none" stroke="#404040" points="148.27,-370.753 150.041,-363.763 157.174,-362.709 155.403,-369.699 148.27,-370.753"/>
<text text-anchor="middle" x="116.287" y="-552.5" font-family="Helvetica,sans-Serif" font-size="10.00"> #return_string</text>
<text text-anchor="middle" x="116.287" y="-542.5" font-family="Helvetica,sans-Serif" font-size="10.00">#m_mirror_val</text>
<text text-anchor="middle" x="116.287" y="-532.5" font-family="Helvetica,sans-Serif" font-size="10.00">#my_value</text>
</g>
<!-- Node5&#45;&gt;Node7 -->
<g id="edge9" class="edge"><title>Node5&#45;&gt;Node7</title>
<path fill="none" stroke="#404040" d="M53.8735,-724.253C59.9567,-704.223 70.2853,-676.648 85.5703,-656 90.7429,-649.013 118.622,-626.041 147.665,-602.931"/>
<polygon fill="none" stroke="#404040" points="147.706,-602.898 149.922,-596.036 157.108,-595.442 154.892,-602.305 147.706,-602.898"/>
<text text-anchor="middle" x="118.287" y="-663" font-family="Helvetica,sans-Serif" font-size="10.00"> #return_string</text>
</g>
<!-- Node6 -->
<g id="node6" class="node"><title>Node6</title>
<g id="a_node6"><a xlink:title="STL class. ">
<polygon fill="white" stroke="#bfbfbf" points="0,-846.5 0,-910.5 94.0957,-910.5 94.0957,-846.5 0,-846.5"/>
<text text-anchor="start" x="8" y="-898.5" font-family="Helvetica,sans-Serif" font-size="10.00">std::basic_string&lt;</text>
<text text-anchor="middle" x="47.0479" y="-888.5" font-family="Helvetica,sans-Serif" font-size="10.00"> char &gt;</text>
<polyline fill="none" stroke="#bfbfbf" points="0,-882.5 94.0957,-882.5 "/>
<text text-anchor="middle" x="47.0479" y="-870.5" font-family="Helvetica,sans-Serif" font-size="10.00"> </text>
<polyline fill="none" stroke="#bfbfbf" points="0,-864.5 94.0957,-864.5 "/>
<text text-anchor="middle" x="47.0479" y="-852.5" font-family="Helvetica,sans-Serif" font-size="10.00"> </text>
</a>
</g>
</g>
<!-- Node6&#45;&gt;Node5 -->
<g id="edge6" class="edge"><title>Node6&#45;&gt;Node5</title>
<path fill="none" stroke="midnightblue" d="M47.0479,-836.112C47.0479,-817.174 47.0479,-795.306 47.0479,-778.685"/>
<polygon fill="none" stroke="midnightblue" points="43.5479,-836.28 47.0479,-846.28 50.5479,-836.28 43.5479,-836.28"/>
</g>
<!-- Node7&#45;&gt;Node2 -->
<g id="edge7" class="edge"><title>Node7&#45;&gt;Node2</title>
<path fill="none" stroke="orange" d="M220.048,-443.196C220.048,-431.054 220.048,-418.712 220.048,-406.725"/>
<polygon fill="orange" stroke="orange" points="216.548,-443.335 220.048,-453.335 223.548,-443.335 216.548,-443.335"/>
<text text-anchor="middle" x="251.73" y="-427" font-family="Helvetica,sans-Serif" font-size="10.00"> &lt; std::string &gt;</text>
</g>
<!-- Node8 -->
<g id="node8" class="node"><title>Node8</title>
<polygon fill="white" stroke="#bfbfbf" points="106.643,-724.5 106.643,-778.5 203.453,-778.5 203.453,-724.5 106.643,-724.5"/>
<text text-anchor="middle" x="155.048" y="-766.5" font-family="Helvetica,sans-Serif" font-size="10.00">gs_config_t&lt; T &gt; *</text>
<polyline fill="none" stroke="#bfbfbf" points="106.643,-760.5 203.453,-760.5 "/>
<text text-anchor="middle" x="155.048" y="-748.5" font-family="Helvetica,sans-Serif" font-size="10.00"> </text>
<polyline fill="none" stroke="#bfbfbf" points="106.643,-742.5 203.453,-742.5 "/>
<text text-anchor="middle" x="155.048" y="-730.5" font-family="Helvetica,sans-Serif" font-size="10.00"> </text>
</g>
<!-- Node8&#45;&gt;Node7 -->
<g id="edge10" class="edge"><title>Node8&#45;&gt;Node7</title>
<path fill="none" stroke="#404040" d="M152.07,-724.326C150.707,-705.07 150.565,-678.449 156.807,-656 157.446,-653.7 158.145,-651.397 158.898,-649.097"/>
<polygon fill="none" stroke="#404040" points="158.967,-648.908 157.266,-641.9 163.08,-637.634 164.781,-644.642 158.967,-648.908"/>
<text text-anchor="middle" x="198.168" y="-663" font-family="Helvetica,sans-Serif" font-size="10.00"> #m_mirror_param</text>
</g>
<!-- Node9 -->
<g id="node9" class="node"><title>Node9</title>
<polygon fill="white" stroke="#bfbfbf" points="245.548,-724.5 245.548,-778.5 274.548,-778.5 274.548,-724.5 245.548,-724.5"/>
<text text-anchor="middle" x="259.602" y="-766.5" font-family="Helvetica,sans-Serif" font-size="10.00">T</text>
<polyline fill="none" stroke="#bfbfbf" points="245.548,-760.5 273.656,-760.5 "/>
<text text-anchor="middle" x="259.602" y="-748.5" font-family="Helvetica,sans-Serif" font-size="10.00"> </text>
<polyline fill="none" stroke="#bfbfbf" points="245.548,-742.5 273.656,-742.5 "/>
<text text-anchor="middle" x="259.602" y="-730.5" font-family="Helvetica,sans-Serif" font-size="10.00"> </text>
</g>
<!-- Node9&#45;&gt;Node7 -->
<g id="edge11" class="edge"><title>Node9&#45;&gt;Node7</title>
<path fill="none" stroke="#404040" d="M254.9,-724.248C251.116,-704.945 245.705,-677.351 240.272,-649.644"/>
<polygon fill="none" stroke="#404040" points="240.256,-649.562 235.176,-644.444 237.947,-637.787 243.027,-642.905 240.256,-649.562"/>
<text text-anchor="middle" x="278.388" y="-668" font-family="Helvetica,sans-Serif" font-size="10.00"> #m_mirror_val</text>
<text text-anchor="middle" x="278.388" y="-658" font-family="Helvetica,sans-Serif" font-size="10.00">#my_value</text>
</g>
</g>
</svg>
