<?xml version="1.0" encoding="UTF-8" standalone="no"?>
<!DOCTYPE svg PUBLIC "-//W3C//DTD SVG 1.1//EN"
 "http://www.w3.org/Graphics/SVG/1.1/DTD/svg11.dtd">
<!-- Generated by graphviz version 2.36.0 (20140111.2315)
 -->
<!-- Title: core.waf.wizard.Generate Pages: 1 -->
<svg width="136pt" height="172pt"
 viewBox="0.00 0.00 136.00 172.00" xmlns="http://www.w3.org/2000/svg" xmlns:xlink="http://www.w3.org/1999/xlink">
<g id="graph0" class="graph" transform="scale(1 1) rotate(0) translate(4 168)">
<title>core.waf.wizard.Generate</title>
<polygon fill="white" stroke="none" points="-4,4 -4,-168 132,-168 132,4 -4,4"/>
<!-- Node1 -->
<g id="node1" class="node"><title>Node1</title>
<polygon fill="#bfbfbf" stroke="black" points="0,-1 0,-69 128,-69 128,-1 0,-1"/>
<text text-anchor="middle" x="64" y="-57" font-family="Helvetica,sans-Serif" font-size="10.00">core.waf.wizard.Generate</text>
<polyline fill="none" stroke="black" points="0,-50 128,-50 "/>
<text text-anchor="start" x="8" y="-38" font-family="Helvetica,sans-Serif" font-size="10.00">+ cmd</text>
<text text-anchor="start" x="8" y="-27" font-family="Helvetica,sans-Serif" font-size="10.00">+ fun</text>
<polyline fill="none" stroke="black" points="0,-20 128,-20 "/>
<text text-anchor="middle" x="64" y="-8" font-family="Helvetica,sans-Serif" font-size="10.00"> </text>
</g>
<!-- Node2 -->
<g id="node2" class="node"><title>Node2</title>
<polygon fill="white" stroke="#bfbfbf" points="27.5,-106.5 27.5,-163.5 100.5,-163.5 100.5,-106.5 27.5,-106.5"/>
<text text-anchor="middle" x="64" y="-151.5" font-family="Helvetica,sans-Serif" font-size="10.00">BuildContext</text>
<polyline fill="none" stroke="#bfbfbf" points="27.5,-144.5 100.5,-144.5 "/>
<text text-anchor="middle" x="64" y="-132.5" font-family="Helvetica,sans-Serif" font-size="10.00"> </text>
<polyline fill="none" stroke="#bfbfbf" points="27.5,-125.5 100.5,-125.5 "/>
<text text-anchor="middle" x="64" y="-113.5" font-family="Helvetica,sans-Serif" font-size="10.00"> </text>
</g>
<!-- Node2&#45;&gt;Node1 -->
<g id="edge1" class="edge"><title>Node2&#45;&gt;Node1</title>
<path fill="none" stroke="midnightblue" d="M64,-96.3023C64,-87.3951 64,-77.9608 64,-69.2659"/>
<polygon fill="none" stroke="midnightblue" points="60.5001,-96.4407 64,-106.441 67.5001,-96.4408 60.5001,-96.4407"/>
</g>
</g>
</svg>
