<?xml version="1.0" encoding="UTF-8" standalone="no"?>
<!DOCTYPE svg PUBLIC "-//W3C//DTD SVG 1.1//EN"
 "http://www.w3.org/Graphics/SVG/1.1/DTD/svg11.dtd">
<!-- Generated by graphviz version 2.26.0 (20091210.2329)
 -->
<!-- Title: gs::cnf::gs_config&lt; std::string &gt; Pages: 1 -->
<!--zoomable 1118 -->
<svg id="main" version="1.1" xmlns="http://www.w3.org/2000/svg" xmlns:xlink="http://www.w3.org/1999/xlink" xml:space="preserve" onload="init(evt)">
<style type="text/css"><![CDATA[
.edge:hover path { stroke: red; }
.edge:hover polygon { stroke: red; fill: red; }
]]></style>
<script type="text/javascript"><![CDATA[
var edges = document.getElementsByTagName('g');
if (edges && edges.length) {
  for (var i=0;i<edges.length;i++) {
    if (edges[i].id.substr(0,4)=='edge') {
      edges[i].setAttribute('class','edge');
    }
  }
}
]]></script>
        <defs>
                <circle id="rim" cx="0" cy="0" r="7"/>
                <circle id="rim2" cx="0" cy="0" r="3.5"/>
                <g id="zoomPlus">
                        <use xlink:href="#rim" fill="#404040">
                                <set attributeName="fill" to="#808080" begin="zoomplus.mouseover" end="zoomplus.mouseout"/>
                        </use>
                        <path d="M-4,0h8M0,-4v8" fill="none" stroke="white" stroke-width="1.5" pointer-events="none"/>
                </g>
                <g id="zoomMin">
                        <use xlink:href="#rim" fill="#404040">
                                <set attributeName="fill" to="#808080" begin="zoomminus.mouseover" end="zoomminus.mouseout"/>
                        </use>
                        <path d="M-4,0h8" fill="none" stroke="white" stroke-width="1.5" pointer-events="none"/>
                </g>
                <g id="dirArrow">
                        <path fill="none" stroke="white" stroke-width="1.5" d="M0,-3.0v7 M-2.5,-0.5L0,-3.0L2.5,-0.5"/>
                </g>
               <g id="resetDef">
                       <use xlink:href="#rim2" fill="#404040">
                               <set attributeName="fill" to="#808080" begin="reset.mouseover" end="reset.mouseout"/>
                       </use>
               </g>
        </defs>

<script type="text/javascript">
var viewWidth = 423;
var viewHeight = 1118;
var sectionId = 'dynsection-1';
</script>
<script xlink:href="svgpan.js"/>
<svg id="graph" class="graph">
<g id="viewport">
<title>gs::cnf::gs_config&lt; std::string &gt;</title>
<polygon fill="white" stroke="white" points="-4,5 -4,-1114 420,-1114 420,5 -4,5"/>
<!-- Node1 -->
<g id="node1" class="node"><title>Node1</title>
<polygon fill="#bfbfbf" stroke="black" points="140.5,-1 140.5,-233 295.5,-233 295.5,-1 140.5,-1"/>
<text text-anchor="start" x="148.5" y="-220" font-family="Helvetica,sans-Serif" font-size="10.00">gs::cnf::gs_config</text>
<text text-anchor="middle" x="218" y="-207" font-family="Helvetica,sans-Serif" font-size="10.00">&lt; std::string &gt;</text>
<polyline fill="none" stroke="black" points="140.5,-199 295.5,-199 "/>
<text text-anchor="start" x="148.5" y="-186" font-family="Helvetica,sans-Serif" font-size="10.00">+ GS_CONFIG_DELEGATE</text>
<polyline fill="none" stroke="black" points="140.5,-178 295.5,-178 "/>
<text text-anchor="start" x="148.5" y="-165" font-family="Helvetica,sans-Serif" font-size="10.00">+ gs_config()</text>
<text text-anchor="start" x="148.5" y="-152" font-family="Helvetica,sans-Serif" font-size="10.00">+ gs_config()</text>
<text text-anchor="start" x="148.5" y="-139" font-family="Helvetica,sans-Serif" font-size="10.00">+ gs_config()</text>
<text text-anchor="start" x="148.5" y="-126" font-family="Helvetica,sans-Serif" font-size="10.00">+ gs_config()</text>
<text text-anchor="start" x="148.5" y="-113" font-family="Helvetica,sans-Serif" font-size="10.00">+ gs_config()</text>
<text text-anchor="start" x="148.5" y="-100" font-family="Helvetica,sans-Serif" font-size="10.00">+ gs_config()</text>
<text text-anchor="start" x="148.5" y="-87" font-family="Helvetica,sans-Serif" font-size="10.00">+ gs_config()</text>
<text text-anchor="start" x="148.5" y="-74" font-family="Helvetica,sans-Serif" font-size="10.00">+ gs_config()</text>
<text text-anchor="start" x="148.5" y="-61" font-family="Helvetica,sans-Serif" font-size="10.00">+ gs_config()</text>
<text text-anchor="start" x="148.5" y="-48" font-family="Helvetica,sans-Serif" font-size="10.00">+ gs_config()</text>
<text text-anchor="start" x="148.5" y="-35" font-family="Helvetica,sans-Serif" font-size="10.00">and 21 more...</text>
<text text-anchor="start" x="148.5" y="-22" font-family="Helvetica,sans-Serif" font-size="10.00">+ static_convertValueToString()</text>
<text text-anchor="start" x="148.5" y="-9" font-family="Helvetica,sans-Serif" font-size="10.00">+ static_deserialize()</text>
</g>
<!-- Node2 -->
<g id="node2" class="node"><title>Node2</title>
<a xlink:href="classgs_1_1cnf_1_1gs__config__t.html" target="_top" xlink:title="{gs::cnf::gs_config\l_t\&lt; std::string \&gt;\n||+ operator+=()\l+ operator&#45;=()\l+ operator/=()\l+ operator*=()\l+ operator+()\l+ operator&#45;()\l+ operator/()\l+ operator*()\l+ operator%=()\l+ operator^=()\land 27 more...\l# mirror_callback()\l# convertStringToValue()\l}">
<polygon fill="white" stroke="black" points="155.5,-273 155.5,-505 280.5,-505 280.5,-273 155.5,-273"/>
<text text-anchor="start" x="163.5" y="-492" font-family="Helvetica,sans-Serif" font-size="10.00">gs::cnf::gs_config</text>
<text text-anchor="middle" x="218" y="-479" font-family="Helvetica,sans-Serif" font-size="10.00">_t&lt; std::string &gt;</text>
<polyline fill="none" stroke="black" points="155.5,-471 280.5,-471 "/>
<text text-anchor="middle" x="218" y="-458" font-family="Helvetica,sans-Serif" font-size="10.00"> </text>
<polyline fill="none" stroke="black" points="155.5,-450 280.5,-450 "/>
<text text-anchor="start" x="163.5" y="-437" font-family="Helvetica,sans-Serif" font-size="10.00">+ operator+=()</text>
<text text-anchor="start" x="163.5" y="-424" font-family="Helvetica,sans-Serif" font-size="10.00">+ operator&#45;=()</text>
<text text-anchor="start" x="163.5" y="-411" font-family="Helvetica,sans-Serif" font-size="10.00">+ operator/=()</text>
<text text-anchor="start" x="163.5" y="-398" font-family="Helvetica,sans-Serif" font-size="10.00">+ operator*=()</text>
<text text-anchor="start" x="163.5" y="-385" font-family="Helvetica,sans-Serif" font-size="10.00">+ operator+()</text>
<text text-anchor="start" x="163.5" y="-372" font-family="Helvetica,sans-Serif" font-size="10.00">+ operator&#45;()</text>
<text text-anchor="start" x="163.5" y="-359" font-family="Helvetica,sans-Serif" font-size="10.00">+ operator/()</text>
<text text-anchor="start" x="163.5" y="-346" font-family="Helvetica,sans-Serif" font-size="10.00">+ operator*()</text>
<text text-anchor="start" x="163.5" y="-333" font-family="Helvetica,sans-Serif" font-size="10.00">+ operator%=()</text>
<text text-anchor="start" x="163.5" y="-320" font-family="Helvetica,sans-Serif" font-size="10.00">+ operator^=()</text>
<text text-anchor="start" x="163.5" y="-307" font-family="Helvetica,sans-Serif" font-size="10.00">and 27 more...</text>
<text text-anchor="start" x="163.5" y="-294" font-family="Helvetica,sans-Serif" font-size="10.00"># mirror_callback()</text>
<text text-anchor="start" x="163.5" y="-281" font-family="Helvetica,sans-Serif" font-size="10.00"># convertStringToValue()</text>
</a>
</g>
<!-- Node2&#45;&gt;Node1 -->
<g id="edge2" class="edge"><title>Node2&#45;&gt;Node1</title>
<path fill="none" stroke="midnightblue" d="M218,-262.654C218,-252.83 218,-242.939 218,-233.186"/>
<polygon fill="none" stroke="midnightblue" points="214.5,-262.859 218,-272.859 221.5,-262.859 214.5,-262.859"/>
</g>
<!-- Node2&#45;&gt;Node2 -->
<g id="edge8" class="edge"><title>Node2&#45;&gt;Node2</title>
<path fill="none" stroke="#404040" d="M280.72,-412.593C290.961,-409.216 298,-401.352 298,-389 298,-381.666 295.519,-375.914 291.359,-371.744"/>
<polygon fill="none" stroke="#404040" points="291.029,-371.548 283.827,-371.914 280.72,-365.407 287.922,-365.041 291.029,-371.548"/>
<text text-anchor="middle" x="337.5" y="-386.5" font-family="Helvetica,sans-Serif" font-size="10.00"> #m_mirror_param</text>
</g>
<!-- Node3 -->
<g id="node4" class="node"><title>Node3</title>
<a xlink:href="classgs_1_1cnf_1_1gs__config__base.html" target="_top" xlink:title="{gs::cnf::gs_config_base\n||+ gs_config_base()\l+ setProperty()\l+ getProperty()\l+ getProperties()\l+ deleteProperty()\l+ exists()\l+ add_properties()\l}">
<polygon fill="white" stroke="black" points="294.5,-852.5 294.5,-993.5 415.5,-993.5 415.5,-852.5 294.5,-852.5"/>
<text text-anchor="middle" x="355" y="-980.5" font-family="Helvetica,sans-Serif" font-size="10.00">gs::cnf::gs_config_base</text>
<polyline fill="none" stroke="black" points="294.5,-972.5 415.5,-972.5 "/>
<text text-anchor="middle" x="355" y="-959.5" font-family="Helvetica,sans-Serif" font-size="10.00"> </text>
<polyline fill="none" stroke="black" points="294.5,-951.5 415.5,-951.5 "/>
<text text-anchor="start" x="302.5" y="-938.5" font-family="Helvetica,sans-Serif" font-size="10.00">+ gs_config_base()</text>
<text text-anchor="start" x="302.5" y="-925.5" font-family="Helvetica,sans-Serif" font-size="10.00">+ setProperty()</text>
<text text-anchor="start" x="302.5" y="-912.5" font-family="Helvetica,sans-Serif" font-size="10.00">+ getProperty()</text>
<text text-anchor="start" x="302.5" y="-899.5" font-family="Helvetica,sans-Serif" font-size="10.00">+ getProperties()</text>
<text text-anchor="start" x="302.5" y="-886.5" font-family="Helvetica,sans-Serif" font-size="10.00">+ deleteProperty()</text>
<text text-anchor="start" x="302.5" y="-873.5" font-family="Helvetica,sans-Serif" font-size="10.00">+ exists()</text>
<text text-anchor="start" x="302.5" y="-860.5" font-family="Helvetica,sans-Serif" font-size="10.00">+ add_properties()</text>
</a>
</g>
<!-- Node3&#45;&gt;Node2 -->
<g id="edge4" class="edge"><title>Node3&#45;&gt;Node2</title>
<path fill="none" stroke="midnightblue" d="M348.483,-842.249C340.209,-760.391 322.506,-630.91 287,-524 284.926,-517.755 282.599,-511.442 280.088,-505.135"/>
<polygon fill="none" stroke="midnightblue" points="345.003,-842.631 349.469,-852.238 351.969,-841.942 345.003,-842.631"/>
</g>
<!-- Node7 -->
<g id="node13" class="node"><title>Node7</title>
<a xlink:href="classgs_1_1cnf_1_1gs__config__t.html" target="_top" xlink:title="Template specialized base class for configuration parameters. ">
<polygon fill="white" stroke="black" points="155.5,-557 155.5,-789 280.5,-789 280.5,-557 155.5,-557"/>
<text text-anchor="start" x="163.5" y="-776" font-family="Helvetica,sans-Serif" font-size="10.00">gs::cnf::gs_config</text>
<text text-anchor="middle" x="218" y="-763" font-family="Helvetica,sans-Serif" font-size="10.00">_t&lt; T &gt;</text>
<polyline fill="none" stroke="black" points="155.5,-755 280.5,-755 "/>
<text text-anchor="middle" x="218" y="-742" font-family="Helvetica,sans-Serif" font-size="10.00"> </text>
<polyline fill="none" stroke="black" points="155.5,-734 280.5,-734 "/>
<text text-anchor="start" x="163.5" y="-721" font-family="Helvetica,sans-Serif" font-size="10.00">+ operator+=()</text>
<text text-anchor="start" x="163.5" y="-708" font-family="Helvetica,sans-Serif" font-size="10.00">+ operator&#45;=()</text>
<text text-anchor="start" x="163.5" y="-695" font-family="Helvetica,sans-Serif" font-size="10.00">+ operator/=()</text>
<text text-anchor="start" x="163.5" y="-682" font-family="Helvetica,sans-Serif" font-size="10.00">+ operator*=()</text>
<text text-anchor="start" x="163.5" y="-669" font-family="Helvetica,sans-Serif" font-size="10.00">+ operator+()</text>
<text text-anchor="start" x="163.5" y="-656" font-family="Helvetica,sans-Serif" font-size="10.00">+ operator&#45;()</text>
<text text-anchor="start" x="163.5" y="-643" font-family="Helvetica,sans-Serif" font-size="10.00">+ operator/()</text>
<text text-anchor="start" x="163.5" y="-630" font-family="Helvetica,sans-Serif" font-size="10.00">+ operator*()</text>
<text text-anchor="start" x="163.5" y="-617" font-family="Helvetica,sans-Serif" font-size="10.00">+ operator%=()</text>
<text text-anchor="start" x="163.5" y="-604" font-family="Helvetica,sans-Serif" font-size="10.00">+ operator^=()</text>
<text text-anchor="start" x="163.5" y="-591" font-family="Helvetica,sans-Serif" font-size="10.00">and 27 more...</text>
<text text-anchor="start" x="163.5" y="-578" font-family="Helvetica,sans-Serif" font-size="10.00"># mirror_callback()</text>
<text text-anchor="start" x="163.5" y="-565" font-family="Helvetica,sans-Serif" font-size="10.00"># convertStringToValue()</text>
</a>
</g>
<!-- Node3&#45;&gt;Node7 -->
<g id="edge16" class="edge"><title>Node3&#45;&gt;Node7</title>
<path fill="none" stroke="midnightblue" d="M328.024,-842.922C323.162,-830.999 317.781,-819.022 312,-808 302.847,-790.548 291.8,-772.697 280.543,-755.929"/>
<polygon fill="none" stroke="midnightblue" points="324.865,-844.451 331.81,-852.453 331.371,-841.867 324.865,-844.451"/>
</g>
<!-- Node4 -->
<g id="node6" class="node"><title>Node4</title>
<a xlink:href="classgs__param__base.html" target="_top" xlink:title="{gs_param_base\n||}">
<polygon fill="white" stroke="black" points="312,-1039.5 312,-1102.5 398,-1102.5 398,-1039.5 312,-1039.5"/>
<text text-anchor="middle" x="355" y="-1089.5" font-family="Helvetica,sans-Serif" font-size="10.00">gs_param_base</text>
<polyline fill="none" stroke="black" points="312,-1081.5 398,-1081.5 "/>
<text text-anchor="middle" x="355" y="-1068.5" font-family="Helvetica,sans-Serif" font-size="10.00"> </text>
<polyline fill="none" stroke="black" points="312,-1060.5 398,-1060.5 "/>
<text text-anchor="middle" x="355" y="-1047.5" font-family="Helvetica,sans-Serif" font-size="10.00"> </text>
</a>
</g>
<!-- Node4&#45;&gt;Node3 -->
<g id="edge6" class="edge"><title>Node4&#45;&gt;Node3</title>
<path fill="none" stroke="midnightblue" d="M355,-1029.05C355,-1017.99 355,-1005.75 355,-993.625"/>
<polygon fill="none" stroke="midnightblue" points="351.5,-1029.25 355,-1039.25 358.5,-1029.25 351.5,-1029.25"/>
</g>
<!-- Node5 -->
<g id="node9" class="node"><title>Node5</title>
<a xlink:title="STL class. ">
<polygon fill="white" stroke="#bfbfbf" points="17,-891.5 17,-954.5 77,-954.5 77,-891.5 17,-891.5"/>
<text text-anchor="middle" x="47" y="-941.5" font-family="Helvetica,sans-Serif" font-size="10.00">std::string</text>
<polyline fill="none" stroke="#bfbfbf" points="17,-933.5 77,-933.5 "/>
<text text-anchor="middle" x="47" y="-920.5" font-family="Helvetica,sans-Serif" font-size="10.00"> </text>
<polyline fill="none" stroke="#bfbfbf" points="17,-912.5 77,-912.5 "/>
<text text-anchor="middle" x="47" y="-899.5" font-family="Helvetica,sans-Serif" font-size="10.00"> </text>
</a>
</g>
<!-- Node5&#45;&gt;Node2 -->
<g id="edge10" class="edge"><title>Node5&#45;&gt;Node2</title>
<path fill="none" stroke="#404040" d="M44.3126,-891.114C40.0333,-825.583 36.4736,-672.169 84,-556 98.4796,-520.607 122.96,-486.693 147.066,-458.783"/>
<polygon fill="none" stroke="#404040" points="147.27,-458.552 148.242,-451.406 155.211,-449.555 154.239,-456.7 147.27,-458.552"/>
<text text-anchor="middle" x="115.5" y="-683.5" font-family="Helvetica,sans-Serif" font-size="10.00"> #return_string</text>
<text text-anchor="middle" x="115.5" y="-670.5" font-family="Helvetica,sans-Serif" font-size="10.00">#m_mirror_val</text>
<text text-anchor="middle" x="115.5" y="-657.5" font-family="Helvetica,sans-Serif" font-size="10.00">#my_value</text>
</g>
<!-- Node5&#45;&gt;Node7 -->
<g id="edge18" class="edge"><title>Node5&#45;&gt;Node7</title>
<path fill="none" stroke="#404040" d="M54.0956,-891.103C60.3644,-867.058 71.0236,-833.91 87,-808 89.5157,-803.92 117.279,-775.186 146.602,-745.271"/>
<polygon fill="none" stroke="#404040" points="146.903,-744.964 148.251,-737.88 155.308,-736.399 153.96,-743.483 146.903,-744.964"/>
<text text-anchor="middle" x="118.5" y="-818.5" font-family="Helvetica,sans-Serif" font-size="10.00"> #return_string</text>
</g>
<!-- Node6 -->
<g id="node11" class="node"><title>Node6</title>
<a xlink:title="STL class. ">
<polygon fill="white" stroke="#bfbfbf" points="-0.5,-1033 -0.5,-1109 94.5,-1109 94.5,-1033 -0.5,-1033"/>
<text text-anchor="start" x="7.5" y="-1096" font-family="Helvetica,sans-Serif" font-size="10.00">std::basic_string&lt;</text>
<text text-anchor="middle" x="47" y="-1083" font-family="Helvetica,sans-Serif" font-size="10.00"> char &gt;</text>
<polyline fill="none" stroke="#bfbfbf" points="-0.5,-1075 94.5,-1075 "/>
<text text-anchor="middle" x="47" y="-1062" font-family="Helvetica,sans-Serif" font-size="10.00"> </text>
<polyline fill="none" stroke="#bfbfbf" points="-0.5,-1054 94.5,-1054 "/>
<text text-anchor="middle" x="47" y="-1041" font-family="Helvetica,sans-Serif" font-size="10.00"> </text>
</a>
</g>
<!-- Node6&#45;&gt;Node5 -->
<g id="edge12" class="edge"><title>Node6&#45;&gt;Node5</title>
<path fill="none" stroke="midnightblue" d="M47,-1022.64C47,-1000.44 47,-974.725 47,-954.98"/>
<polygon fill="none" stroke="midnightblue" points="43.5001,-1022.89 47,-1032.89 50.5001,-1022.89 43.5001,-1022.89"/>
</g>
<!-- Node7&#45;&gt;Node2 -->
<g id="edge14" class="edge"><title>Node7&#45;&gt;Node2</title>
<path fill="none" stroke="orange" d="M218,-546.653C218,-532.843 218,-518.832 218,-505.152"/>
<polygon fill="orange" stroke="orange" points="214.5,-546.667 218,-556.667 221.5,-546.667 214.5,-546.667"/>
<text text-anchor="middle" x="250.5" y="-528.5" font-family="Helvetica,sans-Serif" font-size="10.00"> &lt; std::string &gt;</text>
</g>
<!-- Node8 -->
<g id="node17" class="node"><title>Node8</title>
<polygon fill="white" stroke="#bfbfbf" points="106,-891.5 106,-954.5 204,-954.5 204,-891.5 106,-891.5"/>
<text text-anchor="middle" x="155" y="-941.5" font-family="Helvetica,sans-Serif" font-size="10.00">gs_config_t&lt; T &gt; *</text>
<polyline fill="none" stroke="#bfbfbf" points="106,-933.5 204,-933.5 "/>
<text text-anchor="middle" x="155" y="-920.5" font-family="Helvetica,sans-Serif" font-size="10.00"> </text>
<polyline fill="none" stroke="#bfbfbf" points="106,-912.5 204,-912.5 "/>
<text text-anchor="middle" x="155" y="-899.5" font-family="Helvetica,sans-Serif" font-size="10.00"> </text>
</g>
<!-- Node8&#45;&gt;Node7 -->
<g id="edge20" class="edge"><title>Node8&#45;&gt;Node7</title>
<path fill="none" stroke="#404040" d="M152.141,-891.355C150.852,-868.023 150.787,-835.666 157,-808 157.55,-805.549 158.147,-803.089 158.787,-800.624"/>
<polygon fill="none" stroke="#404040" points="158.791,-800.608 156.585,-793.742 162.073,-789.065 164.28,-795.93 158.791,-800.608"/>
<text text-anchor="middle" x="196.5" y="-818.5" font-family="Helvetica,sans-Serif" font-size="10.00"> #m_mirror_param</text>
</g>
<!-- Node9 -->
<g id="node19" class="node"><title>Node9</title>
<polygon fill="white" stroke="#bfbfbf" points="242.5,-891.5 242.5,-954.5 271.5,-954.5 271.5,-891.5 242.5,-891.5"/>
<text text-anchor="middle" x="257" y="-941.5" font-family="Helvetica,sans-Serif" font-size="10.00">T</text>
<polyline fill="none" stroke="#bfbfbf" points="242.5,-933.5 271.5,-933.5 "/>
<text text-anchor="middle" x="257" y="-920.5" font-family="Helvetica,sans-Serif" font-size="10.00"> </text>
<polyline fill="none" stroke="#bfbfbf" points="242.5,-912.5 271.5,-912.5 "/>
<text text-anchor="middle" x="257" y="-899.5" font-family="Helvetica,sans-Serif" font-size="10.00"> </text>
</g>
<!-- Node9&#45;&gt;Node7 -->
<g id="edge22" class="edge"><title>Node9&#45;&gt;Node7</title>
<path fill="none" stroke="#404040" d="M252.061,-891.337C248.43,-868.066 243.236,-834.767 237.993,-801.163"/>
<polygon fill="none" stroke="#404040" points="237.989,-801.137 233.112,-795.825 236.14,-789.28 241.017,-794.592 237.989,-801.137"/>
<text text-anchor="middle" x="275.5" y="-825" font-family="Helvetica,sans-Serif" font-size="10.00"> #m_mirror_val</text>
<text text-anchor="middle" x="275.5" y="-812" font-family="Helvetica,sans-Serif" font-size="10.00">#my_value</text>
</g>
</g>
</svg>
        <g id="navigator" transform="translate(0 0)" fill="#404254">
                <rect fill="#f2f5e9" fill-opacity="0.5" stroke="#606060" stroke-width=".5" x="0" y="0" width="60" height="60"/>
                <use id="zoomplus" xlink:href="#zoomPlus" x="17" y="9" onmousedown="handleZoom(evt,'in')"/>
                <use id="zoomminus" xlink:href="#zoomMin" x="42" y="9" onmousedown="handleZoom(evt,'out')"/>
                <use id="reset" xlink:href="#resetDef" x="30" y="36" onmousedown="handleReset()"/>
                <g id="arrowUp" xlink:href="#dirArrow" transform="translate(30 24)" onmousedown="handlePan(0,-1)">
                  <use xlink:href="#rim" fill="#404040">
                        <set attributeName="fill" to="#808080" begin="arrowUp.mouseover" end="arrowUp.mouseout"/>
                  </use>
                  <path fill="none" stroke="white" stroke-width="1.5" d="M0,-3.0v7 M-2.5,-0.5L0,-3.0L2.5,-0.5"/>
                </g>
                <g id="arrowRight" xlink:href="#dirArrow" transform="rotate(90) translate(36 -43)" onmousedown="handlePan(1,0)">
                  <use xlink:href="#rim" fill="#404040">
                        <set attributeName="fill" to="#808080" begin="arrowRight.mouseover" end="arrowRight.mouseout"/>
                  </use>
                  <path fill="none" stroke="white" stroke-width="1.5" d="M0,-3.0v7 M-2.5,-0.5L0,-3.0L2.5,-0.5"/>
                </g>
                <g id="arrowDown" xlink:href="#dirArrow" transform="rotate(180) translate(-30 -48)" onmousedown="handlePan(0,1)">
                  <use xlink:href="#rim" fill="#404040">
                        <set attributeName="fill" to="#808080" begin="arrowDown.mouseover" end="arrowDown.mouseout"/>
                  </use>
                  <path fill="none" stroke="white" stroke-width="1.5" d="M0,-3.0v7 M-2.5,-0.5L0,-3.0L2.5,-0.5"/>
                </g>
                <g id="arrowLeft" xlink:href="#dirArrow" transform="rotate(270) translate(-36 17)" onmousedown="handlePan(-1,0)">
                  <use xlink:href="#rim" fill="#404040">
                        <set attributeName="fill" to="#808080" begin="arrowLeft.mouseover" end="arrowLeft.mouseout"/>
                  </use>
                  <path fill="none" stroke="white" stroke-width="1.5" d="M0,-3.0v7 M-2.5,-0.5L0,-3.0L2.5,-0.5"/>
                </g>
        </g>
        <svg viewBox="0 0 15 15" width="100%" height="30px" preserveAspectRatio="xMaxYMin meet">
         <g id="arrow_out" transform="scale(0.3 0.3)">
          <a xlink:href="classgs_1_1cnf_1_1gs__config_3_01std_1_1string_01_4__coll__graph_org.svg" target="_base">
           <rect id="button" ry="5" rx="5" y="6" x="6" height="38" width="38"
                fill="#f2f5e9" fill-opacity="0.5" stroke="#606060" stroke-width="1.0"/>
           <path id="arrow"
             d="M 11.500037,31.436501 C 11.940474,20.09759 22.043105,11.32322 32.158766,21.979434 L 37.068811,17.246167 C 37.068811,17.246167 37.088388,32 37.088388,32 L 22.160133,31.978069 C 22.160133,31.978069 26.997745,27.140456 26.997745,27.140456 C 18.528582,18.264221 13.291696,25.230495 11.500037,31.436501 z"
             style="fill:#404040;"/>
          </a>
         </g>
        </svg>
</svg>
