<?xml version="1.0" encoding="UTF-8" standalone="no"?>
<!DOCTYPE svg PUBLIC "-//W3C//DTD SVG 1.1//EN"
 "http://www.w3.org/Graphics/SVG/1.1/DTD/svg11.dtd">
<!-- Generated by graphviz version 2.36.0 (20140111.2315)
 -->
<!-- Title: sr_signal::tlmsc_inout_adapter&lt; INTYPE, OUTTYPE &gt; Pages: 1 -->
<svg width="276pt" height="346pt"
 viewBox="0.00 0.00 276.00 346.00" xmlns="http://www.w3.org/2000/svg" xmlns:xlink="http://www.w3.org/1999/xlink">
<g id="graph0" class="graph" transform="scale(1 1) rotate(0) translate(4 342)">
<title>sr_signal::tlmsc_inout_adapter&lt; INTYPE, OUTTYPE &gt;</title>
<polygon fill="white" stroke="none" points="-4,4 -4,-342 272,-342 272,4 -4,4"/>
<!-- Node1 -->
<g id="node1" class="node"><title>Node1</title>
<polygon fill="#bfbfbf" stroke="black" points="106,-1 106,-91 268,-91 268,-1 106,-1"/>
<text text-anchor="start" x="114" y="-79" font-family="Helvetica,sans-Serif" font-size="10.00">sr_signal::tlmsc_inout</text>
<text text-anchor="middle" x="187" y="-68" font-family="Helvetica,sans-Serif" font-size="10.00">_adapter&lt; INTYPE, OUTTYPE &gt;</text>
<polyline fill="none" stroke="black" points="106,-61 268,-61 "/>
<text text-anchor="start" x="114" y="-49" font-family="Helvetica,sans-Serif" font-size="10.00">+ tlm</text>
<text text-anchor="start" x="114" y="-38" font-family="Helvetica,sans-Serif" font-size="10.00">+ sc</text>
<polyline fill="none" stroke="black" points="106,-31 268,-31 "/>
<text text-anchor="start" x="114" y="-19" font-family="Helvetica,sans-Serif" font-size="10.00">+ SC_HAS_PROCESS()</text>
<text text-anchor="start" x="114" y="-8" font-family="Helvetica,sans-Serif" font-size="10.00">+ tlmsc_inout_adapter()</text>
</g>
<!-- Node2 -->
<g id="node2" class="node"><title>Node2</title>
<g id="a_node2"><a xlink:href="classsr__signal_1_1sr__signal__module.html" target="_top" xlink:title="{sr_signal::sr_signal\l_module\&lt; tlmsc_inout\l_adapter\&lt; INTYPE, OUTTYPE \&gt; \&gt;\n||}">
<polygon fill="white" stroke="black" points="-0.5,-130.5 -0.5,-209.5 170.5,-209.5 170.5,-130.5 -0.5,-130.5"/>
<text text-anchor="start" x="7.5" y="-197.5" font-family="Helvetica,sans-Serif" font-size="10.00">sr_signal::sr_signal</text>
<text text-anchor="start" x="7.5" y="-186.5" font-family="Helvetica,sans-Serif" font-size="10.00">_module&lt; tlmsc_inout</text>
<text text-anchor="middle" x="85" y="-175.5" font-family="Helvetica,sans-Serif" font-size="10.00">_adapter&lt; INTYPE, OUTTYPE &gt; &gt;</text>
<polyline fill="none" stroke="black" points="-0.5,-168.5 170.5,-168.5 "/>
<text text-anchor="middle" x="85" y="-156.5" font-family="Helvetica,sans-Serif" font-size="10.00"> </text>
<polyline fill="none" stroke="black" points="-0.5,-149.5 170.5,-149.5 "/>
<text text-anchor="middle" x="85" y="-137.5" font-family="Helvetica,sans-Serif" font-size="10.00"> </text>
</a>
</g>
</g>
<!-- Node2&#45;&gt;Node1 -->
<g id="edge1" class="edge"><title>Node2&#45;&gt;Node1</title>
<path fill="none" stroke="midnightblue" d="M123.736,-122.669C132.335,-112.383 141.43,-101.506 149.959,-91.3036"/>
<polygon fill="none" stroke="midnightblue" points="121.003,-120.482 117.273,-130.398 126.373,-124.972 121.003,-120.482"/>
</g>
<!-- Node3 -->
<g id="node3" class="node"><title>Node3</title>
<g id="a_node3"><a xlink:href="classsr__signal_1_1sr__signal__module.html" target="_top" xlink:title="{sr_signal::sr_signal\l_module\&lt; MODULE \&gt;\n||}">
<polygon fill="white" stroke="black" points="28,-269 28,-337 142,-337 142,-269 28,-269"/>
<text text-anchor="start" x="36" y="-325" font-family="Helvetica,sans-Serif" font-size="10.00">sr_signal::sr_signal</text>
<text text-anchor="middle" x="85" y="-314" font-family="Helvetica,sans-Serif" font-size="10.00">_module&lt; MODULE &gt;</text>
<polyline fill="none" stroke="black" points="28,-307 142,-307 "/>
<text text-anchor="middle" x="85" y="-295" font-family="Helvetica,sans-Serif" font-size="10.00"> </text>
<polyline fill="none" stroke="black" points="28,-288 142,-288 "/>
<text text-anchor="middle" x="85" y="-276" font-family="Helvetica,sans-Serif" font-size="10.00"> </text>
</a>
</g>
</g>
<!-- Node3&#45;&gt;Node2 -->
<g id="edge2" class="edge"><title>Node3&#45;&gt;Node2</title>
<path fill="none" stroke="orange" d="M85,-258.84C85,-242.958 85,-225.086 85,-209.629"/>
<polygon fill="orange" stroke="orange" points="81.5001,-258.943 85,-268.943 88.5001,-258.943 81.5001,-258.943"/>
<text text-anchor="start" x="85" y="-242" font-family="Helvetica,sans-Serif" font-size="10.00"> &lt; tlmsc_inout_adapter</text>
<text text-anchor="middle" x="144" y="-231" font-family="Helvetica,sans-Serif" font-size="10.00">&lt; INTYPE, OUTTYPE &gt; &gt;</text>
</g>
<!-- Node4 -->
<g id="node4" class="node"><title>Node4</title>
<polygon fill="white" stroke="#bfbfbf" points="189,-141.5 189,-198.5 253,-198.5 253,-141.5 189,-141.5"/>
<text text-anchor="middle" x="221" y="-186.5" font-family="Helvetica,sans-Serif" font-size="10.00">sc_module</text>
<polyline fill="none" stroke="#bfbfbf" points="189,-179.5 253,-179.5 "/>
<text text-anchor="middle" x="221" y="-167.5" font-family="Helvetica,sans-Serif" font-size="10.00"> </text>
<polyline fill="none" stroke="#bfbfbf" points="189,-160.5 253,-160.5 "/>
<text text-anchor="middle" x="221" y="-148.5" font-family="Helvetica,sans-Serif" font-size="10.00"> </text>
</g>
<!-- Node4&#45;&gt;Node1 -->
<g id="edge3" class="edge"><title>Node4&#45;&gt;Node1</title>
<path fill="none" stroke="midnightblue" d="M210.556,-131.525C207.015,-118.82 203.027,-104.508 199.352,-91.3225"/>
<polygon fill="none" stroke="midnightblue" points="207.229,-132.623 213.285,-141.316 213.972,-130.744 207.229,-132.623"/>
</g>
</g>
</svg>
