<?xml version="1.0" encoding="UTF-8" standalone="no"?>
<!DOCTYPE svg PUBLIC "-//W3C//DTD SVG 1.1//EN"
 "http://www.w3.org/Graphics/SVG/1.1/DTD/svg11.dtd">
<!-- Generated by graphviz version 2.26.0 (20091210.2329)
 -->
<!-- Title: signalkit::signal_if&lt; TYPE &gt; Pages: 1 -->
<!--zoomable 634 -->
<svg id="main" version="1.1" xmlns="http://www.w3.org/2000/svg" xmlns:xlink="http://www.w3.org/1999/xlink" xml:space="preserve" onload="init(evt)">
<style type="text/css"><![CDATA[
.edge:hover path { stroke: red; }
.edge:hover polygon { stroke: red; fill: red; }
]]></style>
<script type="text/javascript"><![CDATA[
var edges = document.getElementsByTagName('g');
if (edges && edges.length) {
  for (var i=0;i<edges.length;i++) {
    if (edges[i].id.substr(0,4)=='edge') {
      edges[i].setAttribute('class','edge');
    }
  }
}
]]></script>
        <defs>
                <circle id="rim" cx="0" cy="0" r="7"/>
                <circle id="rim2" cx="0" cy="0" r="3.5"/>
                <g id="zoomPlus">
                        <use xlink:href="#rim" fill="#404040">
                                <set attributeName="fill" to="#808080" begin="zoomplus.mouseover" end="zoomplus.mouseout"/>
                        </use>
                        <path d="M-4,0h8M0,-4v8" fill="none" stroke="white" stroke-width="1.5" pointer-events="none"/>
                </g>
                <g id="zoomMin">
                        <use xlink:href="#rim" fill="#404040">
                                <set attributeName="fill" to="#808080" begin="zoomminus.mouseover" end="zoomminus.mouseout"/>
                        </use>
                        <path d="M-4,0h8" fill="none" stroke="white" stroke-width="1.5" pointer-events="none"/>
                </g>
                <g id="dirArrow">
                        <path fill="none" stroke="white" stroke-width="1.5" d="M0,-3.0v7 M-2.5,-0.5L0,-3.0L2.5,-0.5"/>
                </g>
               <g id="resetDef">
                       <use xlink:href="#rim2" fill="#404040">
                               <set attributeName="fill" to="#808080" begin="reset.mouseover" end="reset.mouseout"/>
                       </use>
               </g>
        </defs>

<script type="text/javascript">
var viewWidth = 356;
var viewHeight = 634;
var sectionId = 'dynsection-0';
</script>
<script xlink:href="svgpan.js"/>
<svg id="graph" class="graph">
<g id="viewport">
<title>signalkit::signal_if&lt; TYPE &gt;</title>
<polygon fill="white" stroke="white" points="-4,5 -4,-630 353,-630 353,5 -4,5"/>
<!-- Node1 -->
<g id="node1" class="node"><title>Node1</title>
<polygon fill="#bfbfbf" stroke="black" points="183,-510.5 183,-625.5 279,-625.5 279,-510.5 183,-510.5"/>
<text text-anchor="start" x="191" y="-612.5" font-family="Helvetica,sans-Serif" font-size="10.00">signalkit::signal_if</text>
<text text-anchor="middle" x="231" y="-599.5" font-family="Helvetica,sans-Serif" font-size="10.00">&lt; TYPE &gt;</text>
<polyline fill="none" stroke="black" points="183,-591.5 279,-591.5 "/>
<text text-anchor="start" x="191" y="-578.5" font-family="Helvetica,sans-Serif" font-size="10.00"># m_value</text>
<polyline fill="none" stroke="black" points="183,-570.5 279,-570.5 "/>
<text text-anchor="start" x="191" y="-557.5" font-family="Helvetica,sans-Serif" font-size="10.00">+ ~signal_if()</text>
<text text-anchor="start" x="191" y="-544.5" font-family="Helvetica,sans-Serif" font-size="10.00">+ read()</text>
<text text-anchor="start" x="191" y="-531.5" font-family="Helvetica,sans-Serif" font-size="10.00">+ operator TYPE()</text>
<text text-anchor="start" x="191" y="-518.5" font-family="Helvetica,sans-Serif" font-size="10.00">+ operator==()</text>
</g>
<!-- Node2 -->
<g id="node3" class="node"><title>Node2</title>
<a xlink:href="classsignalkit_1_1signal__in__if.html" target="_top" xlink:title="{signalkit::signal_in\l_if\&lt; TYPE \&gt;\n||+ ~signal_in_if()\l+ bind()\l+ update()\l}">
<polygon fill="white" stroke="black" points="122.5,-365 122.5,-467 219.5,-467 219.5,-365 122.5,-365"/>
<text text-anchor="start" x="130.5" y="-454" font-family="Helvetica,sans-Serif" font-size="10.00">signalkit::signal_in</text>
<text text-anchor="middle" x="171" y="-441" font-family="Helvetica,sans-Serif" font-size="10.00">_if&lt; TYPE &gt;</text>
<polyline fill="none" stroke="black" points="122.5,-433 219.5,-433 "/>
<text text-anchor="middle" x="171" y="-420" font-family="Helvetica,sans-Serif" font-size="10.00"> </text>
<polyline fill="none" stroke="black" points="122.5,-412 219.5,-412 "/>
<text text-anchor="start" x="130.5" y="-399" font-family="Helvetica,sans-Serif" font-size="10.00">+ ~signal_in_if()</text>
<text text-anchor="start" x="130.5" y="-386" font-family="Helvetica,sans-Serif" font-size="10.00">+ bind()</text>
<text text-anchor="start" x="130.5" y="-373" font-family="Helvetica,sans-Serif" font-size="10.00">+ update()</text>
</a>
</g>
<!-- Node1&#45;&gt;Node2 -->
<g id="edge2" class="edge"><title>Node1&#45;&gt;Node2</title>
<path fill="none" stroke="midnightblue" d="M204.453,-500.747C200.018,-489.513 195.482,-478.02 191.237,-467.268"/>
<polygon fill="none" stroke="midnightblue" points="201.218,-502.085 208.145,-510.102 207.729,-499.515 201.218,-502.085"/>
</g>
<!-- Node6 -->
<g id="node11" class="node"><title>Node6</title>
<a xlink:href="classsignalkit_1_1signal__out__if.html" target="_top" xlink:title="{signalkit::signal_out\l_if\&lt; TYPE \&gt;\n||+ ~signal_out_if()\l+ write()\l+ operator=()\l+ operator=()\l}">
<polygon fill="white" stroke="black" points="240.5,-358.5 240.5,-473.5 343.5,-473.5 343.5,-358.5 240.5,-358.5"/>
<text text-anchor="start" x="248.5" y="-460.5" font-family="Helvetica,sans-Serif" font-size="10.00">signalkit::signal_out</text>
<text text-anchor="middle" x="292" y="-447.5" font-family="Helvetica,sans-Serif" font-size="10.00">_if&lt; TYPE &gt;</text>
<polyline fill="none" stroke="black" points="240.5,-439.5 343.5,-439.5 "/>
<text text-anchor="middle" x="292" y="-426.5" font-family="Helvetica,sans-Serif" font-size="10.00"> </text>
<polyline fill="none" stroke="black" points="240.5,-418.5 343.5,-418.5 "/>
<text text-anchor="start" x="248.5" y="-405.5" font-family="Helvetica,sans-Serif" font-size="10.00">+ ~signal_out_if()</text>
<text text-anchor="start" x="248.5" y="-392.5" font-family="Helvetica,sans-Serif" font-size="10.00">+ write()</text>
<text text-anchor="start" x="248.5" y="-379.5" font-family="Helvetica,sans-Serif" font-size="10.00">+ operator=()</text>
<text text-anchor="start" x="248.5" y="-366.5" font-family="Helvetica,sans-Serif" font-size="10.00">+ operator=()</text>
</a>
</g>
<!-- Node1&#45;&gt;Node6 -->
<g id="edge10" class="edge"><title>Node1&#45;&gt;Node6</title>
<path fill="none" stroke="midnightblue" d="M257.975,-500.784C261.595,-491.763 265.282,-482.575 268.829,-473.737"/>
<polygon fill="none" stroke="midnightblue" points="254.712,-499.518 254.235,-510.102 261.208,-502.125 254.712,-499.518"/>
</g>
<!-- Node3 -->
<g id="node5" class="node"><title>Node3</title>
<a xlink:href="classsignalkit_1_1signal__in.html" target="_top" xlink:title="{signalkit::signal_in\l\&lt; TYPE \&gt;\n||+ signal_in()\l+ signal_in()\l+ ~signal_in()\l+ bind()\l+ update()\l+ operator TYPE()\l+ operator()()\l}">
<polygon fill="white" stroke="black" points="-0.5,-154 -0.5,-308 96.5,-308 96.5,-154 -0.5,-154"/>
<text text-anchor="start" x="7.5" y="-295" font-family="Helvetica,sans-Serif" font-size="10.00">signalkit::signal_in</text>
<text text-anchor="middle" x="48" y="-282" font-family="Helvetica,sans-Serif" font-size="10.00">&lt; TYPE &gt;</text>
<polyline fill="none" stroke="black" points="-0.5,-274 96.5,-274 "/>
<text text-anchor="middle" x="48" y="-261" font-family="Helvetica,sans-Serif" font-size="10.00"> </text>
<polyline fill="none" stroke="black" points="-0.5,-253 96.5,-253 "/>
<text text-anchor="start" x="7.5" y="-240" font-family="Helvetica,sans-Serif" font-size="10.00">+ signal_in()</text>
<text text-anchor="start" x="7.5" y="-227" font-family="Helvetica,sans-Serif" font-size="10.00">+ signal_in()</text>
<text text-anchor="start" x="7.5" y="-214" font-family="Helvetica,sans-Serif" font-size="10.00">+ ~signal_in()</text>
<text text-anchor="start" x="7.5" y="-201" font-family="Helvetica,sans-Serif" font-size="10.00">+ bind()</text>
<text text-anchor="start" x="7.5" y="-188" font-family="Helvetica,sans-Serif" font-size="10.00">+ update()</text>
<text text-anchor="start" x="7.5" y="-175" font-family="Helvetica,sans-Serif" font-size="10.00">+ operator TYPE()</text>
<text text-anchor="start" x="7.5" y="-162" font-family="Helvetica,sans-Serif" font-size="10.00">+ operator()()</text>
</a>
</g>
<!-- Node2&#45;&gt;Node3 -->
<g id="edge4" class="edge"><title>Node2&#45;&gt;Node3</title>
<path fill="none" stroke="midnightblue" d="M128.253,-356.117C120.413,-344.854 112.38,-333.122 105,-322 102.011,-317.495 98.9674,-312.844 95.9204,-308.136"/>
<polygon fill="none" stroke="midnightblue" points="125.599,-358.429 134.197,-364.621 131.337,-354.419 125.599,-358.429"/>
</g>
<!-- Node5 -->
<g id="node9" class="node"><title>Node5</title>
<a xlink:href="classsignalkit_1_1signal__infield.html" target="_top" xlink:title="{signalkit::signal_infield\l\&lt; TYPE \&gt;\n||+ signal_infield()\l+ signal_infield()\l+ ~signal_infield()\l+ bind()\l+ update()\l+ read()\l+ read()\l+ operator[]()\l+ operator()()\l}">
<polygon fill="white" stroke="black" points="113.5,-141 113.5,-321 228.5,-321 228.5,-141 113.5,-141"/>
<text text-anchor="start" x="121.5" y="-308" font-family="Helvetica,sans-Serif" font-size="10.00">signalkit::signal_infield</text>
<text text-anchor="middle" x="171" y="-295" font-family="Helvetica,sans-Serif" font-size="10.00">&lt; TYPE &gt;</text>
<polyline fill="none" stroke="black" points="113.5,-287 228.5,-287 "/>
<text text-anchor="middle" x="171" y="-274" font-family="Helvetica,sans-Serif" font-size="10.00"> </text>
<polyline fill="none" stroke="black" points="113.5,-266 228.5,-266 "/>
<text text-anchor="start" x="121.5" y="-253" font-family="Helvetica,sans-Serif" font-size="10.00">+ signal_infield()</text>
<text text-anchor="start" x="121.5" y="-240" font-family="Helvetica,sans-Serif" font-size="10.00">+ signal_infield()</text>
<text text-anchor="start" x="121.5" y="-227" font-family="Helvetica,sans-Serif" font-size="10.00">+ ~signal_infield()</text>
<text text-anchor="start" x="121.5" y="-214" font-family="Helvetica,sans-Serif" font-size="10.00">+ bind()</text>
<text text-anchor="start" x="121.5" y="-201" font-family="Helvetica,sans-Serif" font-size="10.00">+ update()</text>
<text text-anchor="start" x="121.5" y="-188" font-family="Helvetica,sans-Serif" font-size="10.00">+ read()</text>
<text text-anchor="start" x="121.5" y="-175" font-family="Helvetica,sans-Serif" font-size="10.00">+ read()</text>
<text text-anchor="start" x="121.5" y="-162" font-family="Helvetica,sans-Serif" font-size="10.00">+ operator[]()</text>
<text text-anchor="start" x="121.5" y="-149" font-family="Helvetica,sans-Serif" font-size="10.00">+ operator()()</text>
</a>
</g>
<!-- Node2&#45;&gt;Node5 -->
<g id="edge8" class="edge"><title>Node2&#45;&gt;Node5</title>
<path fill="none" stroke="midnightblue" d="M171,-354.847C171,-344.072 171,-332.654 171,-321.28"/>
<polygon fill="none" stroke="midnightblue" points="167.5,-354.958 171,-364.958 174.5,-354.958 167.5,-354.958"/>
</g>
<!-- Node4 -->
<g id="node7" class="node"><title>Node4</title>
<a xlink:href="classsignalkit_1_1signal__inout.html" target="_top" xlink:title="{signalkit::signal_inout\l\&lt; TYPE, MODULE \&gt;\n||+ signal_inout()\l+ signal_inout()\l+ ~signal_inout()\l}">
<polygon fill="white" stroke="black" points="117,-1 117,-103 227,-103 227,-1 117,-1"/>
<text text-anchor="start" x="125" y="-90" font-family="Helvetica,sans-Serif" font-size="10.00">signalkit::signal_inout</text>
<text text-anchor="middle" x="172" y="-77" font-family="Helvetica,sans-Serif" font-size="10.00">&lt; TYPE, MODULE &gt;</text>
<polyline fill="none" stroke="black" points="117,-69 227,-69 "/>
<text text-anchor="middle" x="172" y="-56" font-family="Helvetica,sans-Serif" font-size="10.00"> </text>
<polyline fill="none" stroke="black" points="117,-48 227,-48 "/>
<text text-anchor="start" x="125" y="-35" font-family="Helvetica,sans-Serif" font-size="10.00">+ signal_inout()</text>
<text text-anchor="start" x="125" y="-22" font-family="Helvetica,sans-Serif" font-size="10.00">+ signal_inout()</text>
<text text-anchor="start" x="125" y="-9" font-family="Helvetica,sans-Serif" font-size="10.00">+ ~signal_inout()</text>
</a>
</g>
<!-- Node3&#45;&gt;Node4 -->
<g id="edge6" class="edge"><title>Node3&#45;&gt;Node4</title>
<path fill="none" stroke="midnightblue" d="M101.528,-145.065C102.688,-143.357 103.847,-141.667 105,-140 113.411,-127.84 122.824,-115.034 131.875,-103.07"/>
<polygon fill="none" stroke="midnightblue" points="98.3817,-143.472 95.7167,-153.726 104.195,-147.372 98.3817,-143.472"/>
</g>
<!-- Node7 -->
<g id="node13" class="node"><title>Node7</title>
<a xlink:href="classsignalkit_1_1signal__out.html" target="_top" xlink:title="{signalkit::signal_out\l\&lt; TYPE \&gt;\n|# m_receiver\l|+ signal_out()\l+ ~signal_out()\l+ bind()\l+ write()\l+ operator()()\l+ operator=()\l+ operator=()\l}">
<polygon fill="white" stroke="black" points="245.5,-154 245.5,-308 348.5,-308 348.5,-154 245.5,-154"/>
<text text-anchor="start" x="253.5" y="-295" font-family="Helvetica,sans-Serif" font-size="10.00">signalkit::signal_out</text>
<text text-anchor="middle" x="297" y="-282" font-family="Helvetica,sans-Serif" font-size="10.00">&lt; TYPE &gt;</text>
<polyline fill="none" stroke="black" points="245.5,-274 348.5,-274 "/>
<text text-anchor="start" x="253.5" y="-261" font-family="Helvetica,sans-Serif" font-size="10.00"># m_receiver</text>
<polyline fill="none" stroke="black" points="245.5,-253 348.5,-253 "/>
<text text-anchor="start" x="253.5" y="-240" font-family="Helvetica,sans-Serif" font-size="10.00">+ signal_out()</text>
<text text-anchor="start" x="253.5" y="-227" font-family="Helvetica,sans-Serif" font-size="10.00">+ ~signal_out()</text>
<text text-anchor="start" x="253.5" y="-214" font-family="Helvetica,sans-Serif" font-size="10.00">+ bind()</text>
<text text-anchor="start" x="253.5" y="-201" font-family="Helvetica,sans-Serif" font-size="10.00">+ write()</text>
<text text-anchor="start" x="253.5" y="-188" font-family="Helvetica,sans-Serif" font-size="10.00">+ operator()()</text>
<text text-anchor="start" x="253.5" y="-175" font-family="Helvetica,sans-Serif" font-size="10.00">+ operator=()</text>
<text text-anchor="start" x="253.5" y="-162" font-family="Helvetica,sans-Serif" font-size="10.00">+ operator=()</text>
</a>
</g>
<!-- Node6&#45;&gt;Node7 -->
<g id="edge12" class="edge"><title>Node6&#45;&gt;Node7</title>
<path fill="none" stroke="midnightblue" d="M293.832,-348.216C294.184,-335.204 294.554,-321.488 294.913,-308.205"/>
<polygon fill="none" stroke="midnightblue" points="290.326,-348.388 293.555,-358.479 297.324,-348.577 290.326,-348.388"/>
</g>
<!-- Node7&#45;&gt;Node4 -->
<g id="edge14" class="edge"><title>Node7&#45;&gt;Node4</title>
<path fill="none" stroke="midnightblue" d="M240.854,-145.551C239.562,-143.68 238.276,-141.828 237,-140 228.627,-128.009 219.411,-115.27 210.615,-103.318"/>
<polygon fill="none" stroke="midnightblue" points="238.005,-147.584 246.546,-153.852 243.778,-143.626 238.005,-147.584"/>
</g>
</g>
</svg>
        <g id="navigator" transform="translate(0 0)" fill="#404254">
                <rect fill="#f2f5e9" fill-opacity="0.5" stroke="#606060" stroke-width=".5" x="0" y="0" width="60" height="60"/>
                <use id="zoomplus" xlink:href="#zoomPlus" x="17" y="9" onmousedown="handleZoom(evt,'in')"/>
                <use id="zoomminus" xlink:href="#zoomMin" x="42" y="9" onmousedown="handleZoom(evt,'out')"/>
                <use id="reset" xlink:href="#resetDef" x="30" y="36" onmousedown="handleReset()"/>
                <g id="arrowUp" xlink:href="#dirArrow" transform="translate(30 24)" onmousedown="handlePan(0,-1)">
                  <use xlink:href="#rim" fill="#404040">
                        <set attributeName="fill" to="#808080" begin="arrowUp.mouseover" end="arrowUp.mouseout"/>
                  </use>
                  <path fill="none" stroke="white" stroke-width="1.5" d="M0,-3.0v7 M-2.5,-0.5L0,-3.0L2.5,-0.5"/>
                </g>
                <g id="arrowRight" xlink:href="#dirArrow" transform="rotate(90) translate(36 -43)" onmousedown="handlePan(1,0)">
                  <use xlink:href="#rim" fill="#404040">
                        <set attributeName="fill" to="#808080" begin="arrowRight.mouseover" end="arrowRight.mouseout"/>
                  </use>
                  <path fill="none" stroke="white" stroke-width="1.5" d="M0,-3.0v7 M-2.5,-0.5L0,-3.0L2.5,-0.5"/>
                </g>
                <g id="arrowDown" xlink:href="#dirArrow" transform="rotate(180) translate(-30 -48)" onmousedown="handlePan(0,1)">
                  <use xlink:href="#rim" fill="#404040">
                        <set attributeName="fill" to="#808080" begin="arrowDown.mouseover" end="arrowDown.mouseout"/>
                  </use>
                  <path fill="none" stroke="white" stroke-width="1.5" d="M0,-3.0v7 M-2.5,-0.5L0,-3.0L2.5,-0.5"/>
                </g>
                <g id="arrowLeft" xlink:href="#dirArrow" transform="rotate(270) translate(-36 17)" onmousedown="handlePan(-1,0)">
                  <use xlink:href="#rim" fill="#404040">
                        <set attributeName="fill" to="#808080" begin="arrowLeft.mouseover" end="arrowLeft.mouseout"/>
                  </use>
                  <path fill="none" stroke="white" stroke-width="1.5" d="M0,-3.0v7 M-2.5,-0.5L0,-3.0L2.5,-0.5"/>
                </g>
        </g>
        <svg viewBox="0 0 15 15" width="100%" height="30px" preserveAspectRatio="xMaxYMin meet">
         <g id="arrow_out" transform="scale(0.3 0.3)">
          <a xlink:href="classsignalkit_1_1signal__if__inherit__graph_org.svg" target="_base">
           <rect id="button" ry="5" rx="5" y="6" x="6" height="38" width="38"
                fill="#f2f5e9" fill-opacity="0.5" stroke="#606060" stroke-width="1.0"/>
           <path id="arrow"
             d="M 11.500037,31.436501 C 11.940474,20.09759 22.043105,11.32322 32.158766,21.979434 L 37.068811,17.246167 C 37.068811,17.246167 37.088388,32 37.088388,32 L 22.160133,31.978069 C 22.160133,31.978069 26.997745,27.140456 26.997745,27.140456 C 18.528582,18.264221 13.291696,25.230495 11.500037,31.436501 z"
             style="fill:#404040;"/>
          </a>
         </g>
        </svg>
</svg>
