<?xml version="1.0" encoding="UTF-8" standalone="no"?>
<!DOCTYPE svg PUBLIC "-//W3C//DTD SVG 1.1//EN"
 "http://www.w3.org/Graphics/SVG/1.1/DTD/svg11.dtd">
<!-- Generated by graphviz version 2.38.0 (20140413.2041)
 -->
<!-- Title: core.tools.generator.wizard.template.TemplatePage Pages: 1 -->
<svg width="186pt" height="259pt"
 viewBox="0.00 0.00 186.00 259.00" xmlns="http://www.w3.org/2000/svg" xmlns:xlink="http://www.w3.org/1999/xlink">
<g id="graph0" class="graph" transform="scale(1 1) rotate(0) translate(4 255)">
<title>core.tools.generator.wizard.template.TemplatePage</title>
<polygon fill="white" stroke="none" points="-4,4 -4,-255 182,-255 182,4 -4,4"/>
<!-- Node1 -->
<g id="node1" class="node"><title>Node1</title>
<polygon fill="#bfbfbf" stroke="black" points="-1.42109e-14,-0.5 -1.42109e-14,-156.5 178,-156.5 178,-0.5 -1.42109e-14,-0.5"/>
<text text-anchor="start" x="8" y="-144.5" font-family="Helvetica,sans-Serif" font-size="10.00">core.tools.generator.wizard.template.</text>
<text text-anchor="middle" x="89" y="-133.5" font-family="Helvetica,sans-Serif" font-size="10.00">TemplatePage</text>
<polyline fill="none" stroke="black" points="-1.42109e-14,-126.5 178,-126.5 "/>
<text text-anchor="start" x="8" y="-114.5" font-family="Helvetica,sans-Serif" font-size="10.00">+ templates</text>
<text text-anchor="start" x="8" y="-103.5" font-family="Helvetica,sans-Serif" font-size="10.00">+ hsplit</text>
<text text-anchor="start" x="8" y="-92.5" font-family="Helvetica,sans-Serif" font-size="10.00">+ view</text>
<text text-anchor="start" x="8" y="-81.5" font-family="Helvetica,sans-Serif" font-size="10.00">+ info</text>
<text text-anchor="start" x="8" y="-70.5" font-family="Helvetica,sans-Serif" font-size="10.00">+ template</text>
<text text-anchor="start" x="8" y="-59.5" font-family="Helvetica,sans-Serif" font-size="10.00">+ ready</text>
<polyline fill="none" stroke="black" points="-1.42109e-14,-52.5 178,-52.5 "/>
<text text-anchor="start" x="8" y="-40.5" font-family="Helvetica,sans-Serif" font-size="10.00">+ __init__()</text>
<text text-anchor="start" x="8" y="-29.5" font-family="Helvetica,sans-Serif" font-size="10.00">+ getTemplate()</text>
<text text-anchor="start" x="8" y="-18.5" font-family="Helvetica,sans-Serif" font-size="10.00">+ isComplete()</text>
<text text-anchor="start" x="8" y="-7.5" font-family="Helvetica,sans-Serif" font-size="10.00">+ initializePage()</text>
</g>
<!-- Node2 -->
<g id="node2" class="node"><title>Node2</title>
<polygon fill="white" stroke="#bfbfbf" points="50.5,-193.5 50.5,-250.5 127.5,-250.5 127.5,-193.5 50.5,-193.5"/>
<text text-anchor="middle" x="89" y="-238.5" font-family="Helvetica,sans-Serif" font-size="10.00">QWizardPage</text>
<polyline fill="none" stroke="#bfbfbf" points="50.5,-231.5 127.5,-231.5 "/>
<text text-anchor="middle" x="89" y="-219.5" font-family="Helvetica,sans-Serif" font-size="10.00"> </text>
<polyline fill="none" stroke="#bfbfbf" points="50.5,-212.5 127.5,-212.5 "/>
<text text-anchor="middle" x="89" y="-200.5" font-family="Helvetica,sans-Serif" font-size="10.00"> </text>
</g>
<!-- Node2&#45;&gt;Node1 -->
<g id="edge1" class="edge"><title>Node2&#45;&gt;Node1</title>
<path fill="none" stroke="midnightblue" d="M89,-183.34C89,-175.044 89,-165.964 89,-156.736"/>
<polygon fill="none" stroke="midnightblue" points="85.5001,-183.381 89,-193.381 92.5001,-183.382 85.5001,-183.381"/>
</g>
</g>
</svg>
