<?xml version="1.0" encoding="UTF-8" standalone="no"?>
<!DOCTYPE svg PUBLIC "-//W3C//DTD SVG 1.1//EN"
 "http://www.w3.org/Graphics/SVG/1.1/DTD/svg11.dtd">
<!-- Generated by graphviz version 2.26.0 (20091210.2329)
 -->
<!-- Title: leon3_funclt_trap::CacheElem Pages: 1 -->
<svg width="1333pt" height="936pt"
 viewBox="0.00 0.00 1333.00 936.00" xmlns="http://www.w3.org/2000/svg" xmlns:xlink="http://www.w3.org/1999/xlink">
<g id="graph1" class="graph" transform="scale(1 1) rotate(0) translate(4 932)">
<title>leon3_funclt_trap::CacheElem</title>
<polygon fill="white" stroke="white" points="-4,5 -4,-932 1330,-932 1330,5 -4,5"/>
<!-- Node1 -->
<g id="node1" class="node"><title>Node1</title>
<polygon fill="#bfbfbf" stroke="black" points="141.5,-0.5 141.5,-89.5 238.5,-89.5 238.5,-0.5 141.5,-0.5"/>
<text text-anchor="start" x="149.5" y="-76.5" font-family="Helvetica,sans-Serif" font-size="10.00">leon3_funclt_trap::</text>
<text text-anchor="middle" x="190" y="-63.5" font-family="Helvetica,sans-Serif" font-size="10.00">CacheElem</text>
<polyline fill="none" stroke="black" points="141.5,-55.5 238.5,-55.5 "/>
<text text-anchor="middle" x="190" y="-42.5" font-family="Helvetica,sans-Serif" font-size="10.00"> </text>
<polyline fill="none" stroke="black" points="141.5,-34.5 238.5,-34.5 "/>
<text text-anchor="start" x="149.5" y="-21.5" font-family="Helvetica,sans-Serif" font-size="10.00">+ CacheElem()</text>
<text text-anchor="start" x="149.5" y="-8.5" font-family="Helvetica,sans-Serif" font-size="10.00">+ CacheElem()</text>
</g>
<!-- Node2 -->
<g id="node2" class="node"><title>Node2</title>
<a xlink:href="classint.html" target="_top" xlink:title="{int\n||}">
<polygon fill="white" stroke="black" points="37.5,-534.5 37.5,-597.5 66.5,-597.5 66.5,-534.5 37.5,-534.5"/>
<text text-anchor="middle" x="52" y="-584.5" font-family="Helvetica,sans-Serif" font-size="10.00">int</text>
<polyline fill="none" stroke="black" points="37.5,-576.5 66.5,-576.5 "/>
<text text-anchor="middle" x="52" y="-563.5" font-family="Helvetica,sans-Serif" font-size="10.00"> </text>
<polyline fill="none" stroke="black" points="37.5,-555.5 66.5,-555.5 "/>
<text text-anchor="middle" x="52" y="-542.5" font-family="Helvetica,sans-Serif" font-size="10.00"> </text>
</a>
</g>
<!-- Node2&#45;&gt;Node1 -->
<g id="edge2" class="edge"><title>Node2&#45;&gt;Node1</title>
<path fill="none" stroke="#404040" d="M55.0335,-534.418C59.0288,-496.808 67.099,-432.255 80,-378 103.651,-278.536 143.602,-166.284 168.294,-100.813"/>
<polygon fill="none" stroke="#404040" points="168.314,-100.759 166.702,-93.7309 172.57,-89.5393 174.182,-96.5679 168.314,-100.759"/>
<text text-anchor="middle" x="171" y="-247.5" font-family="Helvetica,sans-Serif" font-size="10.00"> +count</text>
</g>
<!-- Node3 -->
<g id="node4" class="node"><title>Node3</title>
<a xlink:href="classleon3__funclt__trap_1_1Instruction.html" target="_top" xlink:title="{leon3_funclt_trap::\lInstruction\n||+ Instruction()\l+ behavior()\l+ replicate()\l+ setParams()\l+ getInstructionName()\l+ getMnemonic()\l+ getId()\l+ annull()\l+ flush()\l+ stall()\land 7 more...\l# IncrementPC()\l}">
<polygon fill="white" stroke="black" points="522.5,-140.5 522.5,-359.5 639.5,-359.5 639.5,-140.5 522.5,-140.5"/>
<text text-anchor="start" x="530.5" y="-346.5" font-family="Helvetica,sans-Serif" font-size="10.00">leon3_funclt_trap::</text>
<text text-anchor="middle" x="581" y="-333.5" font-family="Helvetica,sans-Serif" font-size="10.00">Instruction</text>
<polyline fill="none" stroke="black" points="522.5,-325.5 639.5,-325.5 "/>
<text text-anchor="middle" x="581" y="-312.5" font-family="Helvetica,sans-Serif" font-size="10.00"> </text>
<polyline fill="none" stroke="black" points="522.5,-304.5 639.5,-304.5 "/>
<text text-anchor="start" x="530.5" y="-291.5" font-family="Helvetica,sans-Serif" font-size="10.00">+ Instruction()</text>
<text text-anchor="start" x="530.5" y="-278.5" font-family="Helvetica,sans-Serif" font-size="10.00">+ behavior()</text>
<text text-anchor="start" x="530.5" y="-265.5" font-family="Helvetica,sans-Serif" font-size="10.00">+ replicate()</text>
<text text-anchor="start" x="530.5" y="-252.5" font-family="Helvetica,sans-Serif" font-size="10.00">+ setParams()</text>
<text text-anchor="start" x="530.5" y="-239.5" font-family="Helvetica,sans-Serif" font-size="10.00">+ getInstructionName()</text>
<text text-anchor="start" x="530.5" y="-226.5" font-family="Helvetica,sans-Serif" font-size="10.00">+ getMnemonic()</text>
<text text-anchor="start" x="530.5" y="-213.5" font-family="Helvetica,sans-Serif" font-size="10.00">+ getId()</text>
<text text-anchor="start" x="530.5" y="-200.5" font-family="Helvetica,sans-Serif" font-size="10.00">+ annull()</text>
<text text-anchor="start" x="530.5" y="-187.5" font-family="Helvetica,sans-Serif" font-size="10.00">+ flush()</text>
<text text-anchor="start" x="530.5" y="-174.5" font-family="Helvetica,sans-Serif" font-size="10.00">+ stall()</text>
<text text-anchor="start" x="530.5" y="-161.5" font-family="Helvetica,sans-Serif" font-size="10.00">and 7 more...</text>
<text text-anchor="start" x="530.5" y="-148.5" font-family="Helvetica,sans-Serif" font-size="10.00"># IncrementPC()</text>
</a>
</g>
<!-- Node2&#45;&gt;Node3 -->
<g id="edge24" class="edge"><title>Node2&#45;&gt;Node3</title>
<path fill="none" stroke="#404040" d="M55.4917,-534.425C58.6644,-513.225 64.5141,-485.062 75,-462 94.206,-419.76 98.9093,-404.499 137,-378 252.178,-297.874 417.216,-267.486 510.227,-256.275"/>
<polygon fill="none" stroke="#404040" points="510.388,-256.256 515.889,-251.594 522.309,-254.878 516.808,-259.541 510.388,-256.256"/>
<text text-anchor="middle" x="179.5" y="-415" font-family="Helvetica,sans-Serif" font-size="10.00"> #NUM_REG_WIN</text>
<text text-anchor="middle" x="179.5" y="-402" font-family="Helvetica,sans-Serif" font-size="10.00">+totalInstrCycles</text>
</g>
<!-- Node3&#45;&gt;Node1 -->
<g id="edge4" class="edge"><title>Node3&#45;&gt;Node1</title>
<path fill="none" stroke="#404040" d="M522.463,-219.309C449.008,-180.797 323.71,-115.103 249.708,-76.3046"/>
<polygon fill="none" stroke="#404040" points="249.358,-76.1215 242.187,-76.878 238.731,-70.5493 245.902,-69.7928 249.358,-76.1215"/>
<text text-anchor="middle" x="342" y="-112.5" font-family="Helvetica,sans-Serif" font-size="10.00"> +instr</text>
</g>
<!-- Node4 -->
<g id="node6" class="node"><title>Node4</title>
<a xlink:href="classtrap_1_1InstructionBase.html" target="_top" xlink:title="{trap::InstructionBase\n||+ getInstructionName()\l+ getMnemonic()\l+ getId()\l}">
<polygon fill="white" stroke="black" points="83.5,-521.5 83.5,-610.5 200.5,-610.5 200.5,-521.5 83.5,-521.5"/>
<text text-anchor="middle" x="142" y="-597.5" font-family="Helvetica,sans-Serif" font-size="10.00">trap::InstructionBase</text>
<polyline fill="none" stroke="black" points="83.5,-589.5 200.5,-589.5 "/>
<text text-anchor="middle" x="142" y="-576.5" font-family="Helvetica,sans-Serif" font-size="10.00"> </text>
<polyline fill="none" stroke="black" points="83.5,-568.5 200.5,-568.5 "/>
<text text-anchor="start" x="91.5" y="-555.5" font-family="Helvetica,sans-Serif" font-size="10.00">+ getInstructionName()</text>
<text text-anchor="start" x="91.5" y="-542.5" font-family="Helvetica,sans-Serif" font-size="10.00">+ getMnemonic()</text>
<text text-anchor="start" x="91.5" y="-529.5" font-family="Helvetica,sans-Serif" font-size="10.00">+ getId()</text>
</a>
</g>
<!-- Node4&#45;&gt;Node3 -->
<g id="edge6" class="edge"><title>Node4&#45;&gt;Node3</title>
<path fill="none" stroke="midnightblue" d="M172.525,-512.823C199.276,-470.651 241.829,-413.144 293,-378 365.954,-327.895 461.692,-290.007 522.299,-268.9"/>
<polygon fill="none" stroke="midnightblue" points="169.554,-510.973 167.224,-521.309 175.491,-514.682 169.554,-510.973"/>
</g>
<!-- Node5 -->
<g id="node8" class="node"><title>Node5</title>
<a xlink:href="classleon3__funclt__trap_1_1PinTLM__out__32.html" target="_top" xlink:title="{leon3_funclt_trap::\lPinTLM_out_32\n||+ SK_HAS_SIGNALS()\l+ PinTLM_out_32()\l+ send_pin_req()\l+ on_run()\l}">
<polygon fill="white" stroke="black" points="218,-508.5 218,-623.5 338,-623.5 338,-508.5 218,-508.5"/>
<text text-anchor="start" x="226" y="-610.5" font-family="Helvetica,sans-Serif" font-size="10.00">leon3_funclt_trap::</text>
<text text-anchor="middle" x="278" y="-597.5" font-family="Helvetica,sans-Serif" font-size="10.00">PinTLM_out_32</text>
<polyline fill="none" stroke="black" points="218,-589.5 338,-589.5 "/>
<text text-anchor="middle" x="278" y="-576.5" font-family="Helvetica,sans-Serif" font-size="10.00"> </text>
<polyline fill="none" stroke="black" points="218,-568.5 338,-568.5 "/>
<text text-anchor="start" x="226" y="-555.5" font-family="Helvetica,sans-Serif" font-size="10.00">+ SK_HAS_SIGNALS()</text>
<text text-anchor="start" x="226" y="-542.5" font-family="Helvetica,sans-Serif" font-size="10.00">+ PinTLM_out_32()</text>
<text text-anchor="start" x="226" y="-529.5" font-family="Helvetica,sans-Serif" font-size="10.00">+ send_pin_req()</text>
<text text-anchor="start" x="226" y="-516.5" font-family="Helvetica,sans-Serif" font-size="10.00">+ on_run()</text>
</a>
</g>
<!-- Node5&#45;&gt;Node3 -->
<g id="edge8" class="edge"><title>Node5&#45;&gt;Node3</title>
<path fill="none" stroke="#404040" d="M281.832,-508.235C287.19,-467.889 299.915,-414.861 330,-378 376.201,-321.393 453.943,-287.266 510.688,-268.658"/>
<polygon fill="none" stroke="#404040" points="511.022,-268.552 515.53,-262.924 522.46,-264.92 517.952,-270.549 511.022,-268.552"/>
<text text-anchor="middle" x="348.5" y="-408.5" font-family="Helvetica,sans-Serif" font-size="10.00"> #irqAck</text>
</g>
<!-- Node6 -->
<g id="node10" class="node"><title>Node6</title>
<polygon fill="white" stroke="#bfbfbf" points="0,-792.5 0,-855.5 64,-855.5 64,-792.5 0,-792.5"/>
<text text-anchor="middle" x="32" y="-842.5" font-family="Helvetica,sans-Serif" font-size="10.00">sc_module</text>
<polyline fill="none" stroke="#bfbfbf" points="0,-834.5 64,-834.5 "/>
<text text-anchor="middle" x="32" y="-821.5" font-family="Helvetica,sans-Serif" font-size="10.00"> </text>
<polyline fill="none" stroke="#bfbfbf" points="0,-813.5 64,-813.5 "/>
<text text-anchor="middle" x="32" y="-800.5" font-family="Helvetica,sans-Serif" font-size="10.00"> </text>
</g>
<!-- Node6&#45;&gt;Node5 -->
<g id="edge10" class="edge"><title>Node6&#45;&gt;Node5</title>
<path fill="none" stroke="midnightblue" d="M45.4595,-782.516C52.5155,-762.987 61.9866,-739.712 73,-720 81.6711,-704.48 81.7823,-697.191 97,-688 140.156,-661.935 166.614,-697.299 209,-670 226.579,-658.678 240.71,-641.114 251.494,-623.623"/>
<polygon fill="none" stroke="midnightblue" points="42.1196,-781.463 42.0943,-792.058 48.7211,-783.791 42.1196,-781.463"/>
</g>
<!-- Node7 -->
<g id="node12" class="node"><title>Node7</title>
<polygon fill="white" stroke="#bfbfbf" points="81.5,-792.5 81.5,-855.5 110.5,-855.5 110.5,-792.5 81.5,-792.5"/>
<text text-anchor="middle" x="96" y="-842.5" font-family="Helvetica,sans-Serif" font-size="10.00">in</text>
<polyline fill="none" stroke="#bfbfbf" points="81.5,-834.5 110.5,-834.5 "/>
<text text-anchor="middle" x="96" y="-821.5" font-family="Helvetica,sans-Serif" font-size="10.00"> </text>
<polyline fill="none" stroke="#bfbfbf" points="81.5,-813.5 110.5,-813.5 "/>
<text text-anchor="middle" x="96" y="-800.5" font-family="Helvetica,sans-Serif" font-size="10.00"> </text>
</g>
<!-- Node7&#45;&gt;Node5 -->
<g id="edge12" class="edge"><title>Node7&#45;&gt;Node5</title>
<path fill="none" stroke="#404040" d="M89.2274,-792.46C84.6379,-761.778 83.3792,-715.835 109,-688 139.583,-654.774 171.265,-694.807 209,-670 222.987,-660.805 234.815,-647.689 244.515,-633.857"/>
<polygon fill="none" stroke="#404040" points="244.601,-633.725 244.561,-626.514 251.201,-623.703 251.242,-630.914 244.601,-633.725"/>
<text text-anchor="middle" x="120.5" y="-692.5" font-family="Helvetica,sans-Serif" font-size="10.00"> +run</text>
</g>
<!-- Node8 -->
<g id="node14" class="node"><title>Node8</title>
<polygon fill="white" stroke="#bfbfbf" points="158,-792.5 158,-855.5 188,-855.5 188,-792.5 158,-792.5"/>
<text text-anchor="middle" x="173" y="-842.5" font-family="Helvetica,sans-Serif" font-size="10.00">out</text>
<polyline fill="none" stroke="#bfbfbf" points="158,-834.5 188,-834.5 "/>
<text text-anchor="middle" x="173" y="-821.5" font-family="Helvetica,sans-Serif" font-size="10.00"> </text>
<polyline fill="none" stroke="#bfbfbf" points="158,-813.5 188,-813.5 "/>
<text text-anchor="middle" x="173" y="-800.5" font-family="Helvetica,sans-Serif" font-size="10.00"> </text>
</g>
<!-- Node8&#45;&gt;Node5 -->
<g id="edge14" class="edge"><title>Node8&#45;&gt;Node5</title>
<path fill="none" stroke="#404040" d="M157.878,-801.369C140.5,-772.247 117.463,-721.434 143,-688 161.455,-663.837 184.354,-687.805 209,-670 222.226,-660.445 233.642,-647.512 243.168,-634.015"/>
<polygon fill="none" stroke="#404040" points="243.431,-633.619 243.427,-626.408 250.082,-623.631 250.086,-630.842 243.431,-633.619"/>
<text text-anchor="middle" x="161.5" y="-692.5" font-family="Helvetica,sans-Serif" font-size="10.00"> +status</text>
</g>
<!-- Node8&#45;&gt;Node5 -->
<g id="edge20" class="edge"><title>Node8&#45;&gt;Node5</title>
<path fill="none" stroke="#404040" d="M183.543,-792.384C192.997,-764.635 207.565,-723.311 222,-688 229.126,-670.569 237.332,-651.988 245.227,-634.719"/>
<polygon fill="none" stroke="#404040" points="245.335,-634.485 244.212,-627.362 250.356,-623.586 251.478,-630.709 245.335,-634.485"/>
<text text-anchor="middle" x="246.5" y="-692.5" font-family="Helvetica,sans-Serif" font-size="10.00"> +initSignal</text>
</g>
<!-- Node9 -->
<g id="node16" class="node"><title>Node9</title>
<a xlink:href="classsc__event.html" target="_top" xlink:title="{sc_event\n||}">
<polygon fill="white" stroke="black" points="246,-792.5 246,-855.5 302,-855.5 302,-792.5 246,-792.5"/>
<text text-anchor="middle" x="274" y="-842.5" font-family="Helvetica,sans-Serif" font-size="10.00">sc_event</text>
<polyline fill="none" stroke="black" points="246,-834.5 302,-834.5 "/>
<text text-anchor="middle" x="274" y="-821.5" font-family="Helvetica,sans-Serif" font-size="10.00"> </text>
<polyline fill="none" stroke="black" points="246,-813.5 302,-813.5 "/>
<text text-anchor="middle" x="274" y="-800.5" font-family="Helvetica,sans-Serif" font-size="10.00"> </text>
</a>
</g>
<!-- Node9&#45;&gt;Node5 -->
<g id="edge16" class="edge"><title>Node9&#45;&gt;Node5</title>
<path fill="none" stroke="#404040" d="M274.078,-792.396C274.183,-764.831 274.429,-723.767 275,-688 275.27,-671.124 275.662,-652.937 276.074,-635.889"/>
<polygon fill="none" stroke="#404040" points="276.079,-635.708 272.229,-629.61 276.377,-623.712 280.227,-629.809 276.079,-635.708"/>
<text text-anchor="middle" x="289.5" y="-692.5" font-family="Helvetica,sans-Serif" font-size="10.00"> +start</text>
</g>
<!-- Node10 -->
<g id="node18" class="node"><title>Node10</title>
<a xlink:href="classbool.html" target="_top" xlink:title="{bool\n||}">
<polygon fill="white" stroke="black" points="343.5,-792.5 343.5,-855.5 378.5,-855.5 378.5,-792.5 343.5,-792.5"/>
<text text-anchor="middle" x="361" y="-842.5" font-family="Helvetica,sans-Serif" font-size="10.00">bool</text>
<polyline fill="none" stroke="black" points="343.5,-834.5 378.5,-834.5 "/>
<text text-anchor="middle" x="361" y="-821.5" font-family="Helvetica,sans-Serif" font-size="10.00"> </text>
<polyline fill="none" stroke="black" points="343.5,-813.5 378.5,-813.5 "/>
<text text-anchor="middle" x="361" y="-800.5" font-family="Helvetica,sans-Serif" font-size="10.00"> </text>
</a>
</g>
<!-- Node10&#45;&gt;Node3 -->
<g id="edge30" class="edge"><title>Node10&#45;&gt;Node3</title>
<path fill="none" stroke="#404040" d="M362.973,-792.489C368.388,-707.175 383.509,-477.074 390,-462 416.891,-399.556 469.841,-343.136 513.183,-304.228"/>
<polygon fill="none" stroke="#404040" points="513.281,-304.141 515.128,-297.171 522.273,-296.195 520.426,-303.165 513.281,-304.141"/>
<text text-anchor="middle" x="437" y="-563.5" font-family="Helvetica,sans-Serif" font-size="10.00"> #PIPELINED_MULT</text>
</g>
<!-- Node10&#45;&gt;Node5 -->
<g id="edge18" class="edge"><title>Node10&#45;&gt;Node5</title>
<path fill="none" stroke="#404040" d="M350.823,-792.364C338.313,-753.478 316.725,-686.374 300.292,-635.293"/>
<polygon fill="none" stroke="#404040" points="300.228,-635.093 294.582,-630.606 296.553,-623.669 302.198,-628.156 300.228,-635.093"/>
<text text-anchor="middle" x="342" y="-692.5" font-family="Helvetica,sans-Serif" font-size="10.00"> +stopped</text>
</g>
<!-- Node11 -->
<g id="node21" class="node"><title>Node11</title>
<a xlink:href="classleon3__funclt__trap_1_1Alias.html" target="_top" xlink:title="{leon3_funclt_trap::\lAlias\n||+ ~Alias()\l+ Alias()\l+ Alias()\l+ Alias()\l+ operator[]()\l+ immediateWrite()\l+ readNewValue()\l+ getReg()\l+ operator~()\l+ operator=()\land 63 more...\l}">
<polygon fill="white" stroke="black" points="493,-463 493,-669 593,-669 593,-463 493,-463"/>
<text text-anchor="start" x="501" y="-656" font-family="Helvetica,sans-Serif" font-size="10.00">leon3_funclt_trap::</text>
<text text-anchor="middle" x="543" y="-643" font-family="Helvetica,sans-Serif" font-size="10.00">Alias</text>
<polyline fill="none" stroke="black" points="493,-635 593,-635 "/>
<text text-anchor="middle" x="543" y="-622" font-family="Helvetica,sans-Serif" font-size="10.00"> </text>
<polyline fill="none" stroke="black" points="493,-614 593,-614 "/>
<text text-anchor="start" x="501" y="-601" font-family="Helvetica,sans-Serif" font-size="10.00">+ ~Alias()</text>
<text text-anchor="start" x="501" y="-588" font-family="Helvetica,sans-Serif" font-size="10.00">+ Alias()</text>
<text text-anchor="start" x="501" y="-575" font-family="Helvetica,sans-Serif" font-size="10.00">+ Alias()</text>
<text text-anchor="start" x="501" y="-562" font-family="Helvetica,sans-Serif" font-size="10.00">+ Alias()</text>
<text text-anchor="start" x="501" y="-549" font-family="Helvetica,sans-Serif" font-size="10.00">+ operator[]()</text>
<text text-anchor="start" x="501" y="-536" font-family="Helvetica,sans-Serif" font-size="10.00">+ immediateWrite()</text>
<text text-anchor="start" x="501" y="-523" font-family="Helvetica,sans-Serif" font-size="10.00">+ readNewValue()</text>
<text text-anchor="start" x="501" y="-510" font-family="Helvetica,sans-Serif" font-size="10.00">+ getReg()</text>
<text text-anchor="start" x="501" y="-497" font-family="Helvetica,sans-Serif" font-size="10.00">+ operator~()</text>
<text text-anchor="start" x="501" y="-484" font-family="Helvetica,sans-Serif" font-size="10.00">+ operator=()</text>
<text text-anchor="start" x="501" y="-471" font-family="Helvetica,sans-Serif" font-size="10.00">and 63 more...</text>
</a>
</g>
<!-- Node11&#45;&gt;Node3 -->
<g id="edge22" class="edge"><title>Node11&#45;&gt;Node3</title>
<path fill="none" stroke="#404040" d="M550.966,-462.914C553.471,-435.29 556.509,-405.471 560,-378 560.275,-375.832 560.56,-373.645 560.853,-371.443"/>
<polygon fill="none" stroke="#404040" points="560.854,-371.437 557.71,-364.947 562.491,-359.549 565.635,-366.039 560.854,-371.437"/>
<text text-anchor="middle" x="578.5" y="-434.5" font-family="Helvetica,sans-Serif" font-size="10.00"> #REGS</text>
<text text-anchor="middle" x="578.5" y="-421.5" font-family="Helvetica,sans-Serif" font-size="10.00">#LR</text>
<text text-anchor="middle" x="578.5" y="-408.5" font-family="Helvetica,sans-Serif" font-size="10.00">#PCR</text>
<text text-anchor="middle" x="578.5" y="-395.5" font-family="Helvetica,sans-Serif" font-size="10.00">#FP</text>
<text text-anchor="middle" x="578.5" y="-382.5" font-family="Helvetica,sans-Serif" font-size="10.00">#SP</text>
</g>
<!-- Node12 -->
<g id="node24" class="node"><title>Node12</title>
<a xlink:href="classleon3__funclt__trap_1_1Reg32__0.html" target="_top" xlink:title="{leon3_funclt_trap::\lReg32_0\n||+ Reg32_0()\l+ operator[]()\l+ immediateWrite()\l+ readNewValue()\l+ operator~()\l+ operator=()\l+ operator+=()\l+ operator&#45;=()\l+ operator*=()\l+ operator/=()\land 57 more...\l}">
<polygon fill="white" stroke="black" points="611,-463 611,-669 711,-669 711,-463 611,-463"/>
<text text-anchor="start" x="619" y="-656" font-family="Helvetica,sans-Serif" font-size="10.00">leon3_funclt_trap::</text>
<text text-anchor="middle" x="661" y="-643" font-family="Helvetica,sans-Serif" font-size="10.00">Reg32_0</text>
<polyline fill="none" stroke="black" points="611,-635 711,-635 "/>
<text text-anchor="middle" x="661" y="-622" font-family="Helvetica,sans-Serif" font-size="10.00"> </text>
<polyline fill="none" stroke="black" points="611,-614 711,-614 "/>
<text text-anchor="start" x="619" y="-601" font-family="Helvetica,sans-Serif" font-size="10.00">+ Reg32_0()</text>
<text text-anchor="start" x="619" y="-588" font-family="Helvetica,sans-Serif" font-size="10.00">+ operator[]()</text>
<text text-anchor="start" x="619" y="-575" font-family="Helvetica,sans-Serif" font-size="10.00">+ immediateWrite()</text>
<text text-anchor="start" x="619" y="-562" font-family="Helvetica,sans-Serif" font-size="10.00">+ readNewValue()</text>
<text text-anchor="start" x="619" y="-549" font-family="Helvetica,sans-Serif" font-size="10.00">+ operator~()</text>
<text text-anchor="start" x="619" y="-536" font-family="Helvetica,sans-Serif" font-size="10.00">+ operator=()</text>
<text text-anchor="start" x="619" y="-523" font-family="Helvetica,sans-Serif" font-size="10.00">+ operator+=()</text>
<text text-anchor="start" x="619" y="-510" font-family="Helvetica,sans-Serif" font-size="10.00">+ operator&#45;=()</text>
<text text-anchor="start" x="619" y="-497" font-family="Helvetica,sans-Serif" font-size="10.00">+ operator*=()</text>
<text text-anchor="start" x="619" y="-484" font-family="Helvetica,sans-Serif" font-size="10.00">+ operator/=()</text>
<text text-anchor="start" x="619" y="-471" font-family="Helvetica,sans-Serif" font-size="10.00">and 57 more...</text>
</a>
</g>
<!-- Node12&#45;&gt;Node3 -->
<g id="edge26" class="edge"><title>Node12&#45;&gt;Node3</title>
<path fill="none" stroke="#404040" d="M634.916,-462.967C627.529,-433.79 619.419,-401.757 611.784,-371.595"/>
<polygon fill="none" stroke="#404040" points="611.716,-371.327 606.366,-366.492 608.771,-359.694 614.121,-364.529 611.716,-371.327"/>
<text text-anchor="middle" x="644" y="-408.5" font-family="Helvetica,sans-Serif" font-size="10.00"> #PSR</text>
</g>
<!-- Node13 -->
<g id="node26" class="node"><title>Node13</title>
<a xlink:href="classleon3__funclt__trap_1_1Register.html" target="_top" xlink:title="{leon3_funclt_trap::\lRegister\n||+ Register()\l+ Register()\l+ immediateWrite()\l+ readNewValue()\l+ clockCycle()\l+ operator[]()\l+ operator~()\l+ operator+()\l+ operator&#45;()\l+ operator*()\land 34 more...\l}">
<polygon fill="white" stroke="black" points="787,-721 787,-927 887,-927 887,-721 787,-721"/>
<text text-anchor="start" x="795" y="-914" font-family="Helvetica,sans-Serif" font-size="10.00">leon3_funclt_trap::</text>
<text text-anchor="middle" x="837" y="-901" font-family="Helvetica,sans-Serif" font-size="10.00">Register</text>
<polyline fill="none" stroke="black" points="787,-893 887,-893 "/>
<text text-anchor="middle" x="837" y="-880" font-family="Helvetica,sans-Serif" font-size="10.00"> </text>
<polyline fill="none" stroke="black" points="787,-872 887,-872 "/>
<text text-anchor="start" x="795" y="-859" font-family="Helvetica,sans-Serif" font-size="10.00">+ Register()</text>
<text text-anchor="start" x="795" y="-846" font-family="Helvetica,sans-Serif" font-size="10.00">+ Register()</text>
<text text-anchor="start" x="795" y="-833" font-family="Helvetica,sans-Serif" font-size="10.00">+ immediateWrite()</text>
<text text-anchor="start" x="795" y="-820" font-family="Helvetica,sans-Serif" font-size="10.00">+ readNewValue()</text>
<text text-anchor="start" x="795" y="-807" font-family="Helvetica,sans-Serif" font-size="10.00">+ clockCycle()</text>
<text text-anchor="start" x="795" y="-794" font-family="Helvetica,sans-Serif" font-size="10.00">+ operator[]()</text>
<text text-anchor="start" x="795" y="-781" font-family="Helvetica,sans-Serif" font-size="10.00">+ operator~()</text>
<text text-anchor="start" x="795" y="-768" font-family="Helvetica,sans-Serif" font-size="10.00">+ operator+()</text>
<text text-anchor="start" x="795" y="-755" font-family="Helvetica,sans-Serif" font-size="10.00">+ operator&#45;()</text>
<text text-anchor="start" x="795" y="-742" font-family="Helvetica,sans-Serif" font-size="10.00">+ operator*()</text>
<text text-anchor="start" x="795" y="-729" font-family="Helvetica,sans-Serif" font-size="10.00">and 34 more...</text>
</a>
</g>
<!-- Node13&#45;&gt;Node12 -->
<g id="edge28" class="edge"><title>Node13&#45;&gt;Node12</title>
<path fill="none" stroke="midnightblue" d="M780.563,-753.837C760.645,-728.026 738.595,-698.204 720,-670 717.029,-665.494 714.053,-660.83 711.104,-656.088"/>
<polygon fill="none" stroke="midnightblue" points="778.053,-756.313 786.948,-762.07 783.585,-752.023 778.053,-756.313"/>
</g>
<!-- Node14 -->
<g id="node29" class="node"><title>Node14</title>
<a xlink:href="classleon3__funclt__trap_1_1Reg32__1.html" target="_top" xlink:title="{leon3_funclt_trap::\lReg32_1\n||+ Reg32_1()\l+ operator[]()\l+ immediateWrite()\l+ readNewValue()\l+ operator~()\l+ operator=()\l+ operator+=()\l+ operator&#45;=()\l+ operator*=()\l+ operator/=()\land 57 more...\l}">
<polygon fill="white" stroke="black" points="729,-463 729,-669 829,-669 829,-463 729,-463"/>
<text text-anchor="start" x="737" y="-656" font-family="Helvetica,sans-Serif" font-size="10.00">leon3_funclt_trap::</text>
<text text-anchor="middle" x="779" y="-643" font-family="Helvetica,sans-Serif" font-size="10.00">Reg32_1</text>
<polyline fill="none" stroke="black" points="729,-635 829,-635 "/>
<text text-anchor="middle" x="779" y="-622" font-family="Helvetica,sans-Serif" font-size="10.00"> </text>
<polyline fill="none" stroke="black" points="729,-614 829,-614 "/>
<text text-anchor="start" x="737" y="-601" font-family="Helvetica,sans-Serif" font-size="10.00">+ Reg32_1()</text>
<text text-anchor="start" x="737" y="-588" font-family="Helvetica,sans-Serif" font-size="10.00">+ operator[]()</text>
<text text-anchor="start" x="737" y="-575" font-family="Helvetica,sans-Serif" font-size="10.00">+ immediateWrite()</text>
<text text-anchor="start" x="737" y="-562" font-family="Helvetica,sans-Serif" font-size="10.00">+ readNewValue()</text>
<text text-anchor="start" x="737" y="-549" font-family="Helvetica,sans-Serif" font-size="10.00">+ operator~()</text>
<text text-anchor="start" x="737" y="-536" font-family="Helvetica,sans-Serif" font-size="10.00">+ operator=()</text>
<text text-anchor="start" x="737" y="-523" font-family="Helvetica,sans-Serif" font-size="10.00">+ operator+=()</text>
<text text-anchor="start" x="737" y="-510" font-family="Helvetica,sans-Serif" font-size="10.00">+ operator&#45;=()</text>
<text text-anchor="start" x="737" y="-497" font-family="Helvetica,sans-Serif" font-size="10.00">+ operator*=()</text>
<text text-anchor="start" x="737" y="-484" font-family="Helvetica,sans-Serif" font-size="10.00">+ operator/=()</text>
<text text-anchor="start" x="737" y="-471" font-family="Helvetica,sans-Serif" font-size="10.00">and 57 more...</text>
</a>
</g>
<!-- Node13&#45;&gt;Node14 -->
<g id="edge34" class="edge"><title>Node13&#45;&gt;Node14</title>
<path fill="none" stroke="midnightblue" d="M811.576,-710.906C808.468,-697.081 805.304,-683.009 802.231,-669.338"/>
<polygon fill="none" stroke="midnightblue" points="808.219,-711.93 813.827,-720.919 815.048,-710.395 808.219,-711.93"/>
</g>
<!-- Node16 -->
<g id="node34" class="node"><title>Node16</title>
<a xlink:href="classleon3__funclt__trap_1_1Reg32__2.html" target="_top" xlink:title="{leon3_funclt_trap::\lReg32_2\n||+ Reg32_2()\l+ operator[]()\l+ immediateWrite()\l+ readNewValue()\l+ operator~()\l+ operator=()\l+ operator+=()\l+ operator&#45;=()\l+ operator*=()\l+ operator/=()\land 57 more...\l}">
<polygon fill="white" stroke="black" points="847,-463 847,-669 947,-669 947,-463 847,-463"/>
<text text-anchor="start" x="855" y="-656" font-family="Helvetica,sans-Serif" font-size="10.00">leon3_funclt_trap::</text>
<text text-anchor="middle" x="897" y="-643" font-family="Helvetica,sans-Serif" font-size="10.00">Reg32_2</text>
<polyline fill="none" stroke="black" points="847,-635 947,-635 "/>
<text text-anchor="middle" x="897" y="-622" font-family="Helvetica,sans-Serif" font-size="10.00"> </text>
<polyline fill="none" stroke="black" points="847,-614 947,-614 "/>
<text text-anchor="start" x="855" y="-601" font-family="Helvetica,sans-Serif" font-size="10.00">+ Reg32_2()</text>
<text text-anchor="start" x="855" y="-588" font-family="Helvetica,sans-Serif" font-size="10.00">+ operator[]()</text>
<text text-anchor="start" x="855" y="-575" font-family="Helvetica,sans-Serif" font-size="10.00">+ immediateWrite()</text>
<text text-anchor="start" x="855" y="-562" font-family="Helvetica,sans-Serif" font-size="10.00">+ readNewValue()</text>
<text text-anchor="start" x="855" y="-549" font-family="Helvetica,sans-Serif" font-size="10.00">+ operator~()</text>
<text text-anchor="start" x="855" y="-536" font-family="Helvetica,sans-Serif" font-size="10.00">+ operator=()</text>
<text text-anchor="start" x="855" y="-523" font-family="Helvetica,sans-Serif" font-size="10.00">+ operator+=()</text>
<text text-anchor="start" x="855" y="-510" font-family="Helvetica,sans-Serif" font-size="10.00">+ operator&#45;=()</text>
<text text-anchor="start" x="855" y="-497" font-family="Helvetica,sans-Serif" font-size="10.00">+ operator*=()</text>
<text text-anchor="start" x="855" y="-484" font-family="Helvetica,sans-Serif" font-size="10.00">+ operator/=()</text>
<text text-anchor="start" x="855" y="-471" font-family="Helvetica,sans-Serif" font-size="10.00">and 57 more...</text>
</a>
</g>
<!-- Node13&#45;&gt;Node16 -->
<g id="edge40" class="edge"><title>Node13&#45;&gt;Node16</title>
<path fill="none" stroke="midnightblue" d="M863.301,-710.906C866.516,-697.081 869.789,-683.009 872.968,-669.338"/>
<polygon fill="none" stroke="midnightblue" points="859.828,-710.386 860.972,-720.919 866.646,-711.972 859.828,-710.386"/>
</g>
<!-- Node17 -->
<g id="node37" class="node"><title>Node17</title>
<a xlink:href="classleon3__funclt__trap_1_1Reg32__3.html" target="_top" xlink:title="{leon3_funclt_trap::\lReg32_3\n||+ Reg32_3()\l+ operator[]()\l+ immediateWrite()\l+ readNewValue()\l+ operator~()\l+ operator=()\l+ operator+=()\l+ operator&#45;=()\l+ operator*=()\l+ operator/=()\land 57 more...\l}">
<polygon fill="white" stroke="black" points="965,-463 965,-669 1065,-669 1065,-463 965,-463"/>
<text text-anchor="start" x="973" y="-656" font-family="Helvetica,sans-Serif" font-size="10.00">leon3_funclt_trap::</text>
<text text-anchor="middle" x="1015" y="-643" font-family="Helvetica,sans-Serif" font-size="10.00">Reg32_3</text>
<polyline fill="none" stroke="black" points="965,-635 1065,-635 "/>
<text text-anchor="middle" x="1015" y="-622" font-family="Helvetica,sans-Serif" font-size="10.00"> </text>
<polyline fill="none" stroke="black" points="965,-614 1065,-614 "/>
<text text-anchor="start" x="973" y="-601" font-family="Helvetica,sans-Serif" font-size="10.00">+ Reg32_3()</text>
<text text-anchor="start" x="973" y="-588" font-family="Helvetica,sans-Serif" font-size="10.00">+ operator[]()</text>
<text text-anchor="start" x="973" y="-575" font-family="Helvetica,sans-Serif" font-size="10.00">+ immediateWrite()</text>
<text text-anchor="start" x="973" y="-562" font-family="Helvetica,sans-Serif" font-size="10.00">+ readNewValue()</text>
<text text-anchor="start" x="973" y="-549" font-family="Helvetica,sans-Serif" font-size="10.00">+ operator~()</text>
<text text-anchor="start" x="973" y="-536" font-family="Helvetica,sans-Serif" font-size="10.00">+ operator=()</text>
<text text-anchor="start" x="973" y="-523" font-family="Helvetica,sans-Serif" font-size="10.00">+ operator+=()</text>
<text text-anchor="start" x="973" y="-510" font-family="Helvetica,sans-Serif" font-size="10.00">+ operator&#45;=()</text>
<text text-anchor="start" x="973" y="-497" font-family="Helvetica,sans-Serif" font-size="10.00">+ operator*=()</text>
<text text-anchor="start" x="973" y="-484" font-family="Helvetica,sans-Serif" font-size="10.00">+ operator/=()</text>
<text text-anchor="start" x="973" y="-471" font-family="Helvetica,sans-Serif" font-size="10.00">and 57 more...</text>
</a>
</g>
<!-- Node13&#45;&gt;Node17 -->
<g id="edge44" class="edge"><title>Node13&#45;&gt;Node17</title>
<path fill="none" stroke="midnightblue" d="M893.413,-755.326C913.963,-729.214 936.837,-698.81 956,-670 958.989,-665.506 961.98,-660.852 964.941,-656.117"/>
<polygon fill="none" stroke="midnightblue" points="890.576,-753.271 887.117,-763.285 896.066,-757.614 890.576,-753.271"/>
</g>
<!-- Node14&#45;&gt;Node3 -->
<g id="edge32" class="edge"><title>Node14&#45;&gt;Node3</title>
<path fill="none" stroke="#404040" d="M728.842,-476.71C725.882,-471.715 722.921,-466.784 720,-462 696.776,-423.966 670.178,-382.854 646.508,-347.048"/>
<polygon fill="none" stroke="#404040" points="646.219,-346.611 639.57,-343.819 639.591,-336.608 646.239,-339.4 646.219,-346.611"/>
<text text-anchor="middle" x="720" y="-408.5" font-family="Helvetica,sans-Serif" font-size="10.00"> #WIM</text>
</g>
<!-- Node15 -->
<g id="node32" class="node"><title>Node15</title>
<a xlink:href="classleon3__funclt__trap_1_1MemoryInterface.html" target="_top" xlink:title="{leon3_funclt_trap::\lMemoryInterface\n||+ read_dword()\l+ read_word()\l+ read_half()\l+ read_byte()\l+ read_instr()\l+ read_dword_dbg()\l+ read_word_dbg()\l+ read_half_dbg()\l+ read_byte_dbg()\l+ write_dword()\land 12 more...\l}">
<polygon fill="white" stroke="black" points="1082.5,-463 1082.5,-669 1185.5,-669 1185.5,-463 1082.5,-463"/>
<text text-anchor="start" x="1090.5" y="-656" font-family="Helvetica,sans-Serif" font-size="10.00">leon3_funclt_trap::</text>
<text text-anchor="middle" x="1134" y="-643" font-family="Helvetica,sans-Serif" font-size="10.00">MemoryInterface</text>
<polyline fill="none" stroke="black" points="1082.5,-635 1185.5,-635 "/>
<text text-anchor="middle" x="1134" y="-622" font-family="Helvetica,sans-Serif" font-size="10.00"> </text>
<polyline fill="none" stroke="black" points="1082.5,-614 1185.5,-614 "/>
<text text-anchor="start" x="1090.5" y="-601" font-family="Helvetica,sans-Serif" font-size="10.00">+ read_dword()</text>
<text text-anchor="start" x="1090.5" y="-588" font-family="Helvetica,sans-Serif" font-size="10.00">+ read_word()</text>
<text text-anchor="start" x="1090.5" y="-575" font-family="Helvetica,sans-Serif" font-size="10.00">+ read_half()</text>
<text text-anchor="start" x="1090.5" y="-562" font-family="Helvetica,sans-Serif" font-size="10.00">+ read_byte()</text>
<text text-anchor="start" x="1090.5" y="-549" font-family="Helvetica,sans-Serif" font-size="10.00">+ read_instr()</text>
<text text-anchor="start" x="1090.5" y="-536" font-family="Helvetica,sans-Serif" font-size="10.00">+ read_dword_dbg()</text>
<text text-anchor="start" x="1090.5" y="-523" font-family="Helvetica,sans-Serif" font-size="10.00">+ read_word_dbg()</text>
<text text-anchor="start" x="1090.5" y="-510" font-family="Helvetica,sans-Serif" font-size="10.00">+ read_half_dbg()</text>
<text text-anchor="start" x="1090.5" y="-497" font-family="Helvetica,sans-Serif" font-size="10.00">+ read_byte_dbg()</text>
<text text-anchor="start" x="1090.5" y="-484" font-family="Helvetica,sans-Serif" font-size="10.00">+ write_dword()</text>
<text text-anchor="start" x="1090.5" y="-471" font-family="Helvetica,sans-Serif" font-size="10.00">and 12 more...</text>
</a>
</g>
<!-- Node15&#45;&gt;Node3 -->
<g id="edge36" class="edge"><title>Node15&#45;&gt;Node3</title>
<path fill="none" stroke="#404040" d="M1082.49,-471.291C1059.02,-436.727 1028.13,-400.609 991,-378 882.534,-311.946 736.929,-277.129 651.604,-261.221"/>
<polygon fill="none" stroke="#404040" points="651.525,-261.207 644.905,-264.066 639.719,-259.055 646.339,-256.196 651.525,-261.207"/>
<text text-anchor="middle" x="1085.5" y="-415" font-family="Helvetica,sans-Serif" font-size="10.00"> #dataMem</text>
<text text-anchor="middle" x="1085.5" y="-402" font-family="Helvetica,sans-Serif" font-size="10.00">#instrMem</text>
</g>
<!-- Node16&#45;&gt;Node3 -->
<g id="edge38" class="edge"><title>Node16&#45;&gt;Node3</title>
<path fill="none" stroke="#404040" d="M846.911,-473.507C844.019,-469.534 841.045,-465.677 838,-462 783.131,-395.736 705.262,-334.905 649.643,-295.564"/>
<polygon fill="none" stroke="#404040" points="649.353,-295.361 642.144,-295.191 639.528,-288.472 646.737,-288.641 649.353,-295.361"/>
<text text-anchor="middle" x="834.5" y="-408.5" font-family="Helvetica,sans-Serif" font-size="10.00"> #TBR</text>
</g>
<!-- Node17&#45;&gt;Node3 -->
<g id="edge42" class="edge"><title>Node17&#45;&gt;Node3</title>
<path fill="none" stroke="#404040" d="M964.999,-473.432C962.084,-469.479 959.081,-465.648 956,-462 873.732,-364.594 734.73,-302.904 651.042,-272.558"/>
<polygon fill="none" stroke="#404040" points="650.916,-272.513 643.921,-274.266 639.612,-268.483 646.607,-266.73 650.916,-272.513"/>
<text text-anchor="middle" x="959.5" y="-434.5" font-family="Helvetica,sans-Serif" font-size="10.00"> #Y</text>
<text text-anchor="middle" x="959.5" y="-421.5" font-family="Helvetica,sans-Serif" font-size="10.00">#WINREGS</text>
<text text-anchor="middle" x="959.5" y="-408.5" font-family="Helvetica,sans-Serif" font-size="10.00">#PC</text>
<text text-anchor="middle" x="959.5" y="-395.5" font-family="Helvetica,sans-Serif" font-size="10.00">#ASR</text>
<text text-anchor="middle" x="959.5" y="-382.5" font-family="Helvetica,sans-Serif" font-size="10.00">#NPC</text>
</g>
<!-- Node18 -->
<g id="node40" class="node"><title>Node18</title>
<a xlink:href="classleon3__funclt__trap_1_1RegisterBankClass.html" target="_top" xlink:title="{leon3_funclt_trap::\lRegisterBankClass\n||+ RegisterBankClass()\l+ RegisterBankClass()\l+ setNewRegister()\l+ setSize()\l+ operator[]()\l+ ~RegisterBankClass()\l}">
<polygon fill="white" stroke="black" points="1203,-495.5 1203,-636.5 1325,-636.5 1325,-495.5 1203,-495.5"/>
<text text-anchor="start" x="1211" y="-623.5" font-family="Helvetica,sans-Serif" font-size="10.00">leon3_funclt_trap::</text>
<text text-anchor="middle" x="1264" y="-610.5" font-family="Helvetica,sans-Serif" font-size="10.00">RegisterBankClass</text>
<polyline fill="none" stroke="black" points="1203,-602.5 1325,-602.5 "/>
<text text-anchor="middle" x="1264" y="-589.5" font-family="Helvetica,sans-Serif" font-size="10.00"> </text>
<polyline fill="none" stroke="black" points="1203,-581.5 1325,-581.5 "/>
<text text-anchor="start" x="1211" y="-568.5" font-family="Helvetica,sans-Serif" font-size="10.00">+ RegisterBankClass()</text>
<text text-anchor="start" x="1211" y="-555.5" font-family="Helvetica,sans-Serif" font-size="10.00">+ RegisterBankClass()</text>
<text text-anchor="start" x="1211" y="-542.5" font-family="Helvetica,sans-Serif" font-size="10.00">+ setNewRegister()</text>
<text text-anchor="start" x="1211" y="-529.5" font-family="Helvetica,sans-Serif" font-size="10.00">+ setSize()</text>
<text text-anchor="start" x="1211" y="-516.5" font-family="Helvetica,sans-Serif" font-size="10.00">+ operator[]()</text>
<text text-anchor="start" x="1211" y="-503.5" font-family="Helvetica,sans-Serif" font-size="10.00">+ ~RegisterBankClass()</text>
</a>
</g>
<!-- Node18&#45;&gt;Node3 -->
<g id="edge46" class="edge"><title>Node18&#45;&gt;Node3</title>
<path fill="none" stroke="#404040" d="M1225.83,-495.305C1199.85,-454.269 1161.58,-405.413 1114,-378 964.29,-291.737 758.838,-263.45 652.014,-254.293"/>
<polygon fill="none" stroke="#404040" points="651.759,-254.272 645.453,-257.769 639.799,-253.293 646.106,-249.796 651.759,-254.272"/>
<text text-anchor="middle" x="1211" y="-408.5" font-family="Helvetica,sans-Serif" font-size="10.00"> #GLOBAL</text>
</g>
</g>
</svg>
