<?xml version="1.0" encoding="UTF-8" standalone="no"?>
<!DOCTYPE svg PUBLIC "-//W3C//DTD SVG 1.1//EN"
 "http://www.w3.org/Graphics/SVG/1.1/DTD/svg11.dtd">
<!-- Generated by graphviz version 2.38.0 (20140413.2041)
 -->
<!-- Title: sc_rf_valuecode Pages: 1 -->
<svg width="127pt" height="332pt"
 viewBox="0.00 0.00 126.50 332.00" xmlns="http://www.w3.org/2000/svg" xmlns:xlink="http://www.w3.org/1999/xlink">
<g id="graph0" class="graph" transform="scale(1 1) rotate(0) translate(4 328)">
<title>sc_rf_valuecode</title>
<polygon fill="white" stroke="none" points="-4,4 -4,-328 122.5,-328 122.5,4 -4,4"/>
<!-- Node1 -->
<g id="node1" class="node"><title>Node1</title>
<polygon fill="#bfbfbf" stroke="black" points="0,-0.5 0,-101.5 109,-101.5 109,-0.5 0,-0.5"/>
<text text-anchor="middle" x="54.5" y="-89.5" font-family="Helvetica,sans-Serif" font-size="10.00">sc_rf_valuecode</text>
<polyline fill="none" stroke="black" points="0,-82.5 109,-82.5 "/>
<text text-anchor="middle" x="54.5" y="-70.5" font-family="Helvetica,sans-Serif" font-size="10.00"> </text>
<polyline fill="none" stroke="black" points="0,-63.5 109,-63.5 "/>
<text text-anchor="start" x="8" y="-51.5" font-family="Helvetica,sans-Serif" font-size="10.00">+ sc_rf_valuecode()</text>
<text text-anchor="start" x="8" y="-40.5" font-family="Helvetica,sans-Serif" font-size="10.00">+ sc_rf_valuecode()</text>
<text text-anchor="start" x="8" y="-29.5" font-family="Helvetica,sans-Serif" font-size="10.00">+ ~sc_rf_valuecode()</text>
<text text-anchor="start" x="8" y="-18.5" font-family="Helvetica,sans-Serif" font-size="10.00">+ mnemonic()</text>
<text text-anchor="start" x="8" y="-7.5" font-family="Helvetica,sans-Serif" font-size="10.00">+ desc()</text>
</g>
<!-- Node2 -->
<g id="node2" class="node"><title>Node2</title>
<g id="a_node2"><a xlink:title="STL class. ">
<polygon fill="white" stroke="#bfbfbf" points="24.5,-160.5 24.5,-217.5 84.5,-217.5 84.5,-160.5 24.5,-160.5"/>
<text text-anchor="middle" x="54.5" y="-205.5" font-family="Helvetica,sans-Serif" font-size="10.00">std::string</text>
<polyline fill="none" stroke="#bfbfbf" points="24.5,-198.5 84.5,-198.5 "/>
<text text-anchor="middle" x="54.5" y="-186.5" font-family="Helvetica,sans-Serif" font-size="10.00"> </text>
<polyline fill="none" stroke="#bfbfbf" points="24.5,-179.5 84.5,-179.5 "/>
<text text-anchor="middle" x="54.5" y="-167.5" font-family="Helvetica,sans-Serif" font-size="10.00"> </text>
</a>
</g>
</g>
<!-- Node2&#45;&gt;Node1 -->
<g id="edge1" class="edge"><title>Node2&#45;&gt;Node1</title>
<path fill="none" stroke="#404040" d="M54.5,-160.478C54.5,-147.057 54.5,-130.327 54.5,-114.055"/>
<polygon fill="none" stroke="#404040" points="54.5001,-113.764 50.5,-107.764 54.5,-101.764 58.5,-107.764 54.5001,-113.764"/>
<text text-anchor="middle" x="86.5" y="-134" font-family="Helvetica,sans-Serif" font-size="10.00"> #m_desc</text>
<text text-anchor="middle" x="86.5" y="-123" font-family="Helvetica,sans-Serif" font-size="10.00">#m_mnemonic</text>
</g>
<!-- Node3 -->
<g id="node3" class="node"><title>Node3</title>
<g id="a_node3"><a xlink:title="STL class. ">
<polygon fill="white" stroke="#bfbfbf" points="7,-255.5 7,-323.5 102,-323.5 102,-255.5 7,-255.5"/>
<text text-anchor="start" x="15" y="-311.5" font-family="Helvetica,sans-Serif" font-size="10.00">std::basic_string&lt;</text>
<text text-anchor="middle" x="54.5" y="-300.5" font-family="Helvetica,sans-Serif" font-size="10.00"> char &gt;</text>
<polyline fill="none" stroke="#bfbfbf" points="7,-293.5 102,-293.5 "/>
<text text-anchor="middle" x="54.5" y="-281.5" font-family="Helvetica,sans-Serif" font-size="10.00"> </text>
<polyline fill="none" stroke="#bfbfbf" points="7,-274.5 102,-274.5 "/>
<text text-anchor="middle" x="54.5" y="-262.5" font-family="Helvetica,sans-Serif" font-size="10.00"> </text>
</a>
</g>
</g>
<!-- Node3&#45;&gt;Node2 -->
<g id="edge2" class="edge"><title>Node3&#45;&gt;Node2</title>
<path fill="none" stroke="midnightblue" d="M54.5,-245.375C54.5,-235.94 54.5,-226.201 54.5,-217.571"/>
<polygon fill="none" stroke="midnightblue" points="51.0001,-245.427 54.5,-255.427 58.0001,-245.427 51.0001,-245.427"/>
</g>
</g>
</svg>
