<?xml version="1.0" encoding="UTF-8" standalone="no"?>
<!DOCTYPE svg PUBLIC "-//W3C//DTD SVG 1.1//EN"
 "http://www.w3.org/Graphics/SVG/1.1/DTD/svg11.dtd">
<!-- Generated by graphviz version 2.26.0 (20091210.2329)
 -->
<!-- Title: scireg_ns::scireg_region_if::scireg_get_byte_width Pages: 1 -->
<svg width="298pt" height="42pt"
 viewBox="0.00 0.00 298.00 42.00" xmlns="http://www.w3.org/2000/svg" xmlns:xlink="http://www.w3.org/1999/xlink">
<g id="graph1" class="graph" transform="scale(1 1) rotate(0) translate(4 38)">
<title>scireg_ns::scireg_region_if::scireg_get_byte_width</title>
<polygon fill="white" stroke="white" points="-4,5 -4,-38 295,-38 295,5 -4,5"/>
<!-- Node1 -->
<g id="node1" class="node"><title>Node1</title>
<polygon fill="#bfbfbf" stroke="black" points="0.5,-0 0.5,-34 131.5,-34 131.5,-0 0.5,-0"/>
<text text-anchor="start" x="8.5" y="-21" font-family="Helvetica,sans-Serif" font-size="10.00">scireg_ns::scireg_region</text>
<text text-anchor="middle" x="66" y="-8" font-family="Helvetica,sans-Serif" font-size="10.00">_if::scireg_get_byte_width</text>
</g>
<!-- Node2 -->
<g id="node3" class="node"><title>Node2</title>
<a xlink:href="classscireg__ns_1_1scireg__region__if.html#a3fb4005db262abdc798f8ed63b571372" target="_top" xlink:title="Get bit width and byte width of this region. ">
<polygon fill="white" stroke="black" points="168,-0 168,-34 290,-34 290,-0 168,-0"/>
<text text-anchor="start" x="176" y="-21" font-family="Helvetica,sans-Serif" font-size="10.00">scireg_ns::scireg_region</text>
<text text-anchor="middle" x="229" y="-8" font-family="Helvetica,sans-Serif" font-size="10.00">_if::scireg_get_bit_width</text>
</a>
</g>
<!-- Node1&#45;&gt;Node2 -->
<g id="edge2" class="edge"><title>Node1&#45;&gt;Node2</title>
<path fill="none" stroke="midnightblue" d="M131.828,-17C140.402,-17 149.216,-17 157.871,-17"/>
<polygon fill="midnightblue" stroke="midnightblue" points="157.934,-20.5001 167.934,-17 157.934,-13.5001 157.934,-20.5001"/>
</g>
</g>
</svg>
