<?xml version="1.0" encoding="UTF-8" standalone="no"?>
<!DOCTYPE svg PUBLIC "-//W3C//DTD SVG 1.1//EN"
 "http://www.w3.org/Graphics/SVG/1.1/DTD/svg11.dtd">
<!-- Generated by graphviz version 2.26.0 (20091210.2329)
 -->
<!-- Title: leon3_funclt_trap::Reg32_0::InnerField_CWP Pages: 1 -->
<svg width="142pt" height="276pt"
 viewBox="0.00 0.00 142.00 276.00" xmlns="http://www.w3.org/2000/svg" xmlns:xlink="http://www.w3.org/1999/xlink">
<g id="graph1" class="graph" transform="scale(1 1) rotate(0) translate(4 272)">
<title>leon3_funclt_trap::Reg32_0::InnerField_CWP</title>
<polygon fill="white" stroke="white" points="-4,5 -4,-272 139,-272 139,5 -4,5"/>
<!-- Node1 -->
<g id="node1" class="node"><title>Node1</title>
<polygon fill="#bfbfbf" stroke="black" points="0,-0.5 0,-115.5 134,-115.5 134,-0.5 0,-0.5"/>
<text text-anchor="start" x="8" y="-102.5" font-family="Helvetica,sans-Serif" font-size="10.00">leon3_funclt_trap::</text>
<text text-anchor="middle" x="67" y="-89.5" font-family="Helvetica,sans-Serif" font-size="10.00">Reg32_0::InnerField_CWP</text>
<polyline fill="none" stroke="black" points="0,-81.5 134,-81.5 "/>
<text text-anchor="middle" x="67" y="-68.5" font-family="Helvetica,sans-Serif" font-size="10.00"> </text>
<polyline fill="none" stroke="black" points="0,-60.5 134,-60.5 "/>
<text text-anchor="start" x="8" y="-47.5" font-family="Helvetica,sans-Serif" font-size="10.00">+ InnerField_CWP()</text>
<text text-anchor="start" x="8" y="-34.5" font-family="Helvetica,sans-Serif" font-size="10.00">+ operator=()</text>
<text text-anchor="start" x="8" y="-21.5" font-family="Helvetica,sans-Serif" font-size="10.00">+ operator unsigned int()</text>
<text text-anchor="start" x="8" y="-8.5" font-family="Helvetica,sans-Serif" font-size="10.00">+ ~InnerField_CWP()</text>
</g>
<!-- Node2 -->
<g id="node2" class="node"><title>Node2</title>
<a xlink:href="classleon3__funclt__trap_1_1InnerField.html" target="_top" xlink:title="{leon3_funclt_trap::\lInnerField\n||+ operator=()\l+ operator=()\l+ operator unsigned int()\l+ ~InnerField()\l}">
<polygon fill="white" stroke="black" points="6,-152.5 6,-267.5 128,-267.5 128,-152.5 6,-152.5"/>
<text text-anchor="start" x="14" y="-254.5" font-family="Helvetica,sans-Serif" font-size="10.00">leon3_funclt_trap::</text>
<text text-anchor="middle" x="67" y="-241.5" font-family="Helvetica,sans-Serif" font-size="10.00">InnerField</text>
<polyline fill="none" stroke="black" points="6,-233.5 128,-233.5 "/>
<text text-anchor="middle" x="67" y="-220.5" font-family="Helvetica,sans-Serif" font-size="10.00"> </text>
<polyline fill="none" stroke="black" points="6,-212.5 128,-212.5 "/>
<text text-anchor="start" x="14" y="-199.5" font-family="Helvetica,sans-Serif" font-size="10.00">+ operator=()</text>
<text text-anchor="start" x="14" y="-186.5" font-family="Helvetica,sans-Serif" font-size="10.00">+ operator=()</text>
<text text-anchor="start" x="14" y="-173.5" font-family="Helvetica,sans-Serif" font-size="10.00">+ operator unsigned int()</text>
<text text-anchor="start" x="14" y="-160.5" font-family="Helvetica,sans-Serif" font-size="10.00">+ ~InnerField()</text>
</a>
</g>
<!-- Node2&#45;&gt;Node1 -->
<g id="edge2" class="edge"><title>Node2&#45;&gt;Node1</title>
<path fill="none" stroke="midnightblue" d="M67,-141.928C67,-133.183 67,-124.296 67,-115.737"/>
<polygon fill="none" stroke="midnightblue" points="63.5001,-142.102 67,-152.102 70.5001,-142.102 63.5001,-142.102"/>
</g>
</g>
</svg>
