<?xml version="1.0" encoding="UTF-8" standalone="no"?>
<!DOCTYPE svg PUBLIC "-//W3C//DTD SVG 1.1//EN"
 "http://www.w3.org/Graphics/SVG/1.1/DTD/svg11.dtd">
<!-- Generated by graphviz version 2.26.0 (20091210.2329)
 -->
<!-- Title: leon3_funclt_trap::TSUBcc_imm Pages: 1 -->
<svg width="1532pt" height="1182pt"
 viewBox="0.00 0.00 1532.00 1182.00" xmlns="http://www.w3.org/2000/svg" xmlns:xlink="http://www.w3.org/1999/xlink">
<g id="graph1" class="graph" transform="scale(1 1) rotate(0) translate(4 1178)">
<title>leon3_funclt_trap::TSUBcc_imm</title>
<polygon fill="white" stroke="white" points="-4,5 -4,-1178 1529,-1178 1529,5 -4,5"/>
<!-- Node1 -->
<g id="node1" class="node"><title>Node1</title>
<polygon fill="#bfbfbf" stroke="black" points="1029.5,-0.5 1029.5,-167.5 1146.5,-167.5 1146.5,-0.5 1029.5,-0.5"/>
<text text-anchor="start" x="1037.5" y="-154.5" font-family="Helvetica,sans-Serif" font-size="10.00">leon3_funclt_trap::</text>
<text text-anchor="middle" x="1088" y="-141.5" font-family="Helvetica,sans-Serif" font-size="10.00">TSUBcc_imm</text>
<polyline fill="none" stroke="black" points="1029.5,-133.5 1146.5,-133.5 "/>
<text text-anchor="middle" x="1088" y="-120.5" font-family="Helvetica,sans-Serif" font-size="10.00"> </text>
<polyline fill="none" stroke="black" points="1029.5,-112.5 1146.5,-112.5 "/>
<text text-anchor="start" x="1037.5" y="-99.5" font-family="Helvetica,sans-Serif" font-size="10.00">+ TSUBcc_imm()</text>
<text text-anchor="start" x="1037.5" y="-86.5" font-family="Helvetica,sans-Serif" font-size="10.00">+ behavior()</text>
<text text-anchor="start" x="1037.5" y="-73.5" font-family="Helvetica,sans-Serif" font-size="10.00">+ replicate()</text>
<text text-anchor="start" x="1037.5" y="-60.5" font-family="Helvetica,sans-Serif" font-size="10.00">+ getInstructionName()</text>
<text text-anchor="start" x="1037.5" y="-47.5" font-family="Helvetica,sans-Serif" font-size="10.00">+ getId()</text>
<text text-anchor="start" x="1037.5" y="-34.5" font-family="Helvetica,sans-Serif" font-size="10.00">+ setParams()</text>
<text text-anchor="start" x="1037.5" y="-21.5" font-family="Helvetica,sans-Serif" font-size="10.00">+ getMnemonic()</text>
<text text-anchor="start" x="1037.5" y="-8.5" font-family="Helvetica,sans-Serif" font-size="10.00">+ ~TSUBcc_imm()</text>
</g>
<!-- Node2 -->
<g id="node2" class="node"><title>Node2</title>
<a xlink:href="classleon3__funclt__trap_1_1ICC__writeTSub__op.html" target="_top" xlink:title="{leon3_funclt_trap::\lICC_writeTSub_op\n||+ ICC_writeTSub_op()\l+ ~ICC_writeTSub_op()\l# ICC_writeTSub()\l}">
<polygon fill="white" stroke="black" points="810.5,-207 810.5,-309 931.5,-309 931.5,-207 810.5,-207"/>
<text text-anchor="start" x="818.5" y="-296" font-family="Helvetica,sans-Serif" font-size="10.00">leon3_funclt_trap::</text>
<text text-anchor="middle" x="871" y="-283" font-family="Helvetica,sans-Serif" font-size="10.00">ICC_writeTSub_op</text>
<polyline fill="none" stroke="black" points="810.5,-275 931.5,-275 "/>
<text text-anchor="middle" x="871" y="-262" font-family="Helvetica,sans-Serif" font-size="10.00"> </text>
<polyline fill="none" stroke="black" points="810.5,-254 931.5,-254 "/>
<text text-anchor="start" x="818.5" y="-241" font-family="Helvetica,sans-Serif" font-size="10.00">+ ICC_writeTSub_op()</text>
<text text-anchor="start" x="818.5" y="-228" font-family="Helvetica,sans-Serif" font-size="10.00">+ ~ICC_writeTSub_op()</text>
<text text-anchor="start" x="818.5" y="-215" font-family="Helvetica,sans-Serif" font-size="10.00"># ICC_writeTSub()</text>
</a>
</g>
<!-- Node2&#45;&gt;Node1 -->
<g id="edge2" class="edge"><title>Node2&#45;&gt;Node1</title>
<path fill="none" stroke="midnightblue" d="M939.721,-202.896C968.471,-179.844 1001.55,-153.323 1029.15,-131.187"/>
<polygon fill="none" stroke="midnightblue" points="937.347,-200.314 931.735,-209.3 941.726,-205.775 937.347,-200.314"/>
</g>
<!-- Node3 -->
<g id="node4" class="node"><title>Node3</title>
<a xlink:href="classleon3__funclt__trap_1_1Instruction.html" target="_top" xlink:title="{leon3_funclt_trap::\lInstruction\n||+ Instruction()\l+ behavior()\l+ replicate()\l+ setParams()\l+ getInstructionName()\l+ getMnemonic()\l+ getId()\l+ annull()\l+ flush()\l+ stall()\land 7 more...\l# IncrementPC()\l}">
<polygon fill="white" stroke="black" points="739.5,-386.5 739.5,-605.5 856.5,-605.5 856.5,-386.5 739.5,-386.5"/>
<text text-anchor="start" x="747.5" y="-592.5" font-family="Helvetica,sans-Serif" font-size="10.00">leon3_funclt_trap::</text>
<text text-anchor="middle" x="798" y="-579.5" font-family="Helvetica,sans-Serif" font-size="10.00">Instruction</text>
<polyline fill="none" stroke="black" points="739.5,-571.5 856.5,-571.5 "/>
<text text-anchor="middle" x="798" y="-558.5" font-family="Helvetica,sans-Serif" font-size="10.00"> </text>
<polyline fill="none" stroke="black" points="739.5,-550.5 856.5,-550.5 "/>
<text text-anchor="start" x="747.5" y="-537.5" font-family="Helvetica,sans-Serif" font-size="10.00">+ Instruction()</text>
<text text-anchor="start" x="747.5" y="-524.5" font-family="Helvetica,sans-Serif" font-size="10.00">+ behavior()</text>
<text text-anchor="start" x="747.5" y="-511.5" font-family="Helvetica,sans-Serif" font-size="10.00">+ replicate()</text>
<text text-anchor="start" x="747.5" y="-498.5" font-family="Helvetica,sans-Serif" font-size="10.00">+ setParams()</text>
<text text-anchor="start" x="747.5" y="-485.5" font-family="Helvetica,sans-Serif" font-size="10.00">+ getInstructionName()</text>
<text text-anchor="start" x="747.5" y="-472.5" font-family="Helvetica,sans-Serif" font-size="10.00">+ getMnemonic()</text>
<text text-anchor="start" x="747.5" y="-459.5" font-family="Helvetica,sans-Serif" font-size="10.00">+ getId()</text>
<text text-anchor="start" x="747.5" y="-446.5" font-family="Helvetica,sans-Serif" font-size="10.00">+ annull()</text>
<text text-anchor="start" x="747.5" y="-433.5" font-family="Helvetica,sans-Serif" font-size="10.00">+ flush()</text>
<text text-anchor="start" x="747.5" y="-420.5" font-family="Helvetica,sans-Serif" font-size="10.00">+ stall()</text>
<text text-anchor="start" x="747.5" y="-407.5" font-family="Helvetica,sans-Serif" font-size="10.00">and 7 more...</text>
<text text-anchor="start" x="747.5" y="-394.5" font-family="Helvetica,sans-Serif" font-size="10.00"># IncrementPC()</text>
</a>
</g>
<!-- Node3&#45;&gt;Node2 -->
<g id="edge4" class="edge"><title>Node3&#45;&gt;Node2</title>
<path fill="none" stroke="midnightblue" d="M834.625,-376.591C841.914,-352.828 849.196,-329.087 855.309,-309.158"/>
<polygon fill="none" stroke="midnightblue" points="831.202,-375.818 831.615,-386.404 837.894,-377.87 831.202,-375.818"/>
</g>
<!-- Node20 -->
<g id="node43" class="node"><title>Node20</title>
<a xlink:href="classleon3__funclt__trap_1_1WB__plain__op.html" target="_top" xlink:title="{leon3_funclt_trap::\lWB_plain_op\n||+ WB_plain_op()\l+ ~WB_plain_op()\l# WB_plain()\l}">
<polygon fill="white" stroke="black" points="977.5,-207 977.5,-309 1074.5,-309 1074.5,-207 977.5,-207"/>
<text text-anchor="start" x="985.5" y="-296" font-family="Helvetica,sans-Serif" font-size="10.00">leon3_funclt_trap::</text>
<text text-anchor="middle" x="1026" y="-283" font-family="Helvetica,sans-Serif" font-size="10.00">WB_plain_op</text>
<polyline fill="none" stroke="black" points="977.5,-275 1074.5,-275 "/>
<text text-anchor="middle" x="1026" y="-262" font-family="Helvetica,sans-Serif" font-size="10.00"> </text>
<polyline fill="none" stroke="black" points="977.5,-254 1074.5,-254 "/>
<text text-anchor="start" x="985.5" y="-241" font-family="Helvetica,sans-Serif" font-size="10.00">+ WB_plain_op()</text>
<text text-anchor="start" x="985.5" y="-228" font-family="Helvetica,sans-Serif" font-size="10.00">+ ~WB_plain_op()</text>
<text text-anchor="start" x="985.5" y="-215" font-family="Helvetica,sans-Serif" font-size="10.00"># WB_plain()</text>
</a>
</g>
<!-- Node3&#45;&gt;Node20 -->
<g id="edge50" class="edge"><title>Node3&#45;&gt;Node20</title>
<path fill="none" stroke="midnightblue" d="M863.859,-427.252C900.136,-389.384 944.381,-343.199 977.481,-308.647"/>
<polygon fill="none" stroke="midnightblue" points="861.106,-425.067 856.716,-434.709 866.161,-429.909 861.106,-425.067"/>
</g>
<!-- Node4 -->
<g id="node6" class="node"><title>Node4</title>
<a xlink:href="classtrap_1_1InstructionBase.html" target="_top" xlink:title="{trap::InstructionBase\n||+ getInstructionName()\l+ getMnemonic()\l+ getId()\l}">
<polygon fill="white" stroke="black" points="613.5,-767.5 613.5,-856.5 730.5,-856.5 730.5,-767.5 613.5,-767.5"/>
<text text-anchor="middle" x="672" y="-843.5" font-family="Helvetica,sans-Serif" font-size="10.00">trap::InstructionBase</text>
<polyline fill="none" stroke="black" points="613.5,-835.5 730.5,-835.5 "/>
<text text-anchor="middle" x="672" y="-822.5" font-family="Helvetica,sans-Serif" font-size="10.00"> </text>
<polyline fill="none" stroke="black" points="613.5,-814.5 730.5,-814.5 "/>
<text text-anchor="start" x="621.5" y="-801.5" font-family="Helvetica,sans-Serif" font-size="10.00">+ getInstructionName()</text>
<text text-anchor="start" x="621.5" y="-788.5" font-family="Helvetica,sans-Serif" font-size="10.00">+ getMnemonic()</text>
<text text-anchor="start" x="621.5" y="-775.5" font-family="Helvetica,sans-Serif" font-size="10.00">+ getId()</text>
</a>
</g>
<!-- Node4&#45;&gt;Node3 -->
<g id="edge6" class="edge"><title>Node4&#45;&gt;Node3</title>
<path fill="none" stroke="midnightblue" d="M693.539,-757.982C710.16,-716.298 733.706,-657.246 754.237,-605.756"/>
<polygon fill="none" stroke="midnightblue" points="690.238,-756.81 689.785,-767.395 696.74,-759.403 690.238,-756.81"/>
</g>
<!-- Node5 -->
<g id="node8" class="node"><title>Node5</title>
<a xlink:href="classleon3__funclt__trap_1_1PinTLM__out__32.html" target="_top" xlink:title="{leon3_funclt_trap::\lPinTLM_out_32\n||+ SK_HAS_SIGNALS()\l+ PinTLM_out_32()\l+ send_pin_req()\l+ on_run()\l}">
<polygon fill="white" stroke="black" points="1262,-754.5 1262,-869.5 1382,-869.5 1382,-754.5 1262,-754.5"/>
<text text-anchor="start" x="1270" y="-856.5" font-family="Helvetica,sans-Serif" font-size="10.00">leon3_funclt_trap::</text>
<text text-anchor="middle" x="1322" y="-843.5" font-family="Helvetica,sans-Serif" font-size="10.00">PinTLM_out_32</text>
<polyline fill="none" stroke="black" points="1262,-835.5 1382,-835.5 "/>
<text text-anchor="middle" x="1322" y="-822.5" font-family="Helvetica,sans-Serif" font-size="10.00"> </text>
<polyline fill="none" stroke="black" points="1262,-814.5 1382,-814.5 "/>
<text text-anchor="start" x="1270" y="-801.5" font-family="Helvetica,sans-Serif" font-size="10.00">+ SK_HAS_SIGNALS()</text>
<text text-anchor="start" x="1270" y="-788.5" font-family="Helvetica,sans-Serif" font-size="10.00">+ PinTLM_out_32()</text>
<text text-anchor="start" x="1270" y="-775.5" font-family="Helvetica,sans-Serif" font-size="10.00">+ send_pin_req()</text>
<text text-anchor="start" x="1270" y="-762.5" font-family="Helvetica,sans-Serif" font-size="10.00">+ on_run()</text>
</a>
</g>
<!-- Node5&#45;&gt;Node3 -->
<g id="edge8" class="edge"><title>Node5&#45;&gt;Node3</title>
<path fill="none" stroke="#404040" d="M1266.34,-754.165C1225.17,-713.785 1166.19,-660.746 1107,-624 1030.37,-576.425 932.971,-539.459 868.218,-517.743"/>
<polygon fill="none" stroke="#404040" points="867.911,-517.641 860.957,-519.55 856.52,-513.866 863.474,-511.956 867.911,-517.641"/>
<text text-anchor="middle" x="1213.5" y="-654.5" font-family="Helvetica,sans-Serif" font-size="10.00"> #irqAck</text>
</g>
<!-- Node6 -->
<g id="node10" class="node"><title>Node6</title>
<polygon fill="white" stroke="#bfbfbf" points="1414,-1038.5 1414,-1101.5 1478,-1101.5 1478,-1038.5 1414,-1038.5"/>
<text text-anchor="middle" x="1446" y="-1088.5" font-family="Helvetica,sans-Serif" font-size="10.00">sc_module</text>
<polyline fill="none" stroke="#bfbfbf" points="1414,-1080.5 1478,-1080.5 "/>
<text text-anchor="middle" x="1446" y="-1067.5" font-family="Helvetica,sans-Serif" font-size="10.00"> </text>
<polyline fill="none" stroke="#bfbfbf" points="1414,-1059.5 1478,-1059.5 "/>
<text text-anchor="middle" x="1446" y="-1046.5" font-family="Helvetica,sans-Serif" font-size="10.00"> </text>
</g>
<!-- Node6&#45;&gt;Node5 -->
<g id="edge10" class="edge"><title>Node6&#45;&gt;Node5</title>
<path fill="none" stroke="midnightblue" d="M1440.74,-1028.12C1436.18,-1000.44 1428.02,-963.89 1414,-934 1403.41,-911.424 1388.19,-888.979 1373.17,-869.611"/>
<polygon fill="none" stroke="midnightblue" points="1437.33,-1028.92 1442.32,-1038.26 1444.24,-1027.84 1437.33,-1028.92"/>
</g>
<!-- Node7 -->
<g id="node12" class="node"><title>Node7</title>
<polygon fill="white" stroke="#bfbfbf" points="1495.5,-1038.5 1495.5,-1101.5 1524.5,-1101.5 1524.5,-1038.5 1495.5,-1038.5"/>
<text text-anchor="middle" x="1510" y="-1088.5" font-family="Helvetica,sans-Serif" font-size="10.00">in</text>
<polyline fill="none" stroke="#bfbfbf" points="1495.5,-1080.5 1524.5,-1080.5 "/>
<text text-anchor="middle" x="1510" y="-1067.5" font-family="Helvetica,sans-Serif" font-size="10.00"> </text>
<polyline fill="none" stroke="#bfbfbf" points="1495.5,-1059.5 1524.5,-1059.5 "/>
<text text-anchor="middle" x="1510" y="-1046.5" font-family="Helvetica,sans-Serif" font-size="10.00"> </text>
</g>
<!-- Node7&#45;&gt;Node5 -->
<g id="edge12" class="edge"><title>Node7&#45;&gt;Node5</title>
<path fill="none" stroke="#404040" d="M1507.91,-1038.21C1505.35,-1016.65 1499.65,-988.161 1487,-966 1463.57,-924.963 1425.6,-888.414 1391.99,-861.232"/>
<polygon fill="none" stroke="#404040" points="1391.58,-860.913 1384.4,-860.322 1382.18,-853.461 1389.37,-854.052 1391.58,-860.913"/>
<text text-anchor="middle" x="1484.5" y="-938.5" font-family="Helvetica,sans-Serif" font-size="10.00"> +run</text>
</g>
<!-- Node8 -->
<g id="node14" class="node"><title>Node8</title>
<polygon fill="white" stroke="#bfbfbf" points="1341,-1038.5 1341,-1101.5 1371,-1101.5 1371,-1038.5 1341,-1038.5"/>
<text text-anchor="middle" x="1356" y="-1088.5" font-family="Helvetica,sans-Serif" font-size="10.00">out</text>
<polyline fill="none" stroke="#bfbfbf" points="1341,-1080.5 1371,-1080.5 "/>
<text text-anchor="middle" x="1356" y="-1067.5" font-family="Helvetica,sans-Serif" font-size="10.00"> </text>
<polyline fill="none" stroke="#bfbfbf" points="1341,-1059.5 1371,-1059.5 "/>
<text text-anchor="middle" x="1356" y="-1046.5" font-family="Helvetica,sans-Serif" font-size="10.00"> </text>
</g>
<!-- Node8&#45;&gt;Node5 -->
<g id="edge14" class="edge"><title>Node8&#45;&gt;Node5</title>
<path fill="none" stroke="#404040" d="M1365.23,-1038.46C1372.03,-1010.75 1378.98,-969.455 1372,-934 1368.51,-916.3 1362.43,-897.935 1355.69,-880.992"/>
<polygon fill="none" stroke="#404040" points="1355.53,-880.603 1349.54,-876.589 1350.94,-869.516 1356.93,-873.529 1355.53,-880.603"/>
<text text-anchor="middle" x="1391.5" y="-938.5" font-family="Helvetica,sans-Serif" font-size="10.00"> +status</text>
</g>
<!-- Node8&#45;&gt;Node5 -->
<g id="edge20" class="edge"><title>Node8&#45;&gt;Node5</title>
<path fill="none" stroke="#404040" d="M1343.64,-1038.48C1334.8,-1014.19 1323.68,-979.527 1319,-948 1315.83,-926.616 1315.31,-903.137 1315.95,-881.795"/>
<polygon fill="none" stroke="#404040" points="1315.96,-881.498 1312.21,-875.34 1316.45,-869.507 1320.2,-875.665 1315.96,-881.498"/>
<text text-anchor="middle" x="1343.5" y="-938.5" font-family="Helvetica,sans-Serif" font-size="10.00"> +initSignal</text>
</g>
<!-- Node9 -->
<g id="node16" class="node"><title>Node9</title>
<a xlink:href="classsc__event.html" target="_top" xlink:title="{sc_event\n||}">
<polygon fill="white" stroke="black" points="1242,-1038.5 1242,-1101.5 1298,-1101.5 1298,-1038.5 1242,-1038.5"/>
<text text-anchor="middle" x="1270" y="-1088.5" font-family="Helvetica,sans-Serif" font-size="10.00">sc_event</text>
<polyline fill="none" stroke="black" points="1242,-1080.5 1298,-1080.5 "/>
<text text-anchor="middle" x="1270" y="-1067.5" font-family="Helvetica,sans-Serif" font-size="10.00"> </text>
<polyline fill="none" stroke="black" points="1242,-1059.5 1298,-1059.5 "/>
<text text-anchor="middle" x="1270" y="-1046.5" font-family="Helvetica,sans-Serif" font-size="10.00"> </text>
</a>
</g>
<!-- Node9&#45;&gt;Node5 -->
<g id="edge16" class="edge"><title>Node9&#45;&gt;Node5</title>
<path fill="none" stroke="#404040" d="M1271.47,-1038.4C1273.18,-1010.66 1276.75,-969.343 1284,-934 1287.55,-916.696 1292.57,-898.354 1297.8,-881.293"/>
<polygon fill="none" stroke="#404040" points="1297.84,-881.163 1295.82,-874.24 1301.43,-869.715 1303.45,-876.638 1297.84,-881.163"/>
<text text-anchor="middle" x="1298.5" y="-938.5" font-family="Helvetica,sans-Serif" font-size="10.00"> +start</text>
</g>
<!-- Node10 -->
<g id="node18" class="node"><title>Node10</title>
<a xlink:href="classbool.html" target="_top" xlink:title="{bool\n||}">
<polygon fill="white" stroke="black" points="1152.5,-1038.5 1152.5,-1101.5 1187.5,-1101.5 1187.5,-1038.5 1152.5,-1038.5"/>
<text text-anchor="middle" x="1170" y="-1088.5" font-family="Helvetica,sans-Serif" font-size="10.00">bool</text>
<polyline fill="none" stroke="black" points="1152.5,-1080.5 1187.5,-1080.5 "/>
<text text-anchor="middle" x="1170" y="-1067.5" font-family="Helvetica,sans-Serif" font-size="10.00"> </text>
<polyline fill="none" stroke="black" points="1152.5,-1059.5 1187.5,-1059.5 "/>
<text text-anchor="middle" x="1170" y="-1046.5" font-family="Helvetica,sans-Serif" font-size="10.00"> </text>
</a>
</g>
<!-- Node10&#45;&gt;Node1 -->
<g id="edge54" class="edge"><title>Node10&#45;&gt;Node1</title>
<path fill="none" stroke="#404040" d="M1170,-1038.22C1170,-989.531 1170,-893.521 1170,-812 1170,-812 1170,-812 1170,-258 1170,-230.801 1161.7,-203.296 1150.38,-178.434"/>
<polygon fill="none" stroke="#404040" points="1150.36,-178.399 1144.16,-174.719 1145.17,-167.579 1151.38,-171.259 1150.36,-178.399"/>
<text text-anchor="middle" x="1191.5" y="-493.5" font-family="Helvetica,sans-Serif" font-size="10.00"> #temp_V</text>
</g>
<!-- Node10&#45;&gt;Node3 -->
<g id="edge30" class="edge"><title>Node10&#45;&gt;Node3</title>
<path fill="none" stroke="#404040" d="M1152.15,-1065.82C1102.07,-1053.07 959.573,-1009.77 893,-916 838.688,-839.501 877.603,-799.529 857,-708 850.334,-678.386 842.123,-646.734 833.967,-617.16"/>
<polygon fill="none" stroke="#404040" points="833.941,-617.064 828.48,-612.355 830.726,-605.503 836.187,-610.212 833.941,-617.064"/>
<text text-anchor="middle" x="940" y="-809.5" font-family="Helvetica,sans-Serif" font-size="10.00"> #PIPELINED_MULT</text>
</g>
<!-- Node10&#45;&gt;Node5 -->
<g id="edge18" class="edge"><title>Node10&#45;&gt;Node5</title>
<path fill="none" stroke="#404040" d="M1182.58,-1038.33C1194.25,-1010.19 1212.8,-968.31 1233,-934 1243.73,-915.774 1256.53,-896.921 1269.04,-879.645"/>
<polygon fill="none" stroke="#404040" points="1269.26,-879.35 1269.58,-872.146 1276.35,-869.672 1276.03,-876.876 1269.26,-879.35"/>
<text text-anchor="middle" x="1255" y="-938.5" font-family="Helvetica,sans-Serif" font-size="10.00"> +stopped</text>
</g>
<!-- Node11 -->
<g id="node21" class="node"><title>Node11</title>
<a xlink:href="classleon3__funclt__trap_1_1Alias.html" target="_top" xlink:title="{leon3_funclt_trap::\lAlias\n||+ ~Alias()\l+ Alias()\l+ Alias()\l+ Alias()\l+ operator[]()\l+ immediateWrite()\l+ readNewValue()\l+ getReg()\l+ operator~()\l+ operator=()\land 63 more...\l}">
<polygon fill="white" stroke="black" points="996,-709 996,-915 1096,-915 1096,-709 996,-709"/>
<text text-anchor="start" x="1004" y="-902" font-family="Helvetica,sans-Serif" font-size="10.00">leon3_funclt_trap::</text>
<text text-anchor="middle" x="1046" y="-889" font-family="Helvetica,sans-Serif" font-size="10.00">Alias</text>
<polyline fill="none" stroke="black" points="996,-881 1096,-881 "/>
<text text-anchor="middle" x="1046" y="-868" font-family="Helvetica,sans-Serif" font-size="10.00"> </text>
<polyline fill="none" stroke="black" points="996,-860 1096,-860 "/>
<text text-anchor="start" x="1004" y="-847" font-family="Helvetica,sans-Serif" font-size="10.00">+ ~Alias()</text>
<text text-anchor="start" x="1004" y="-834" font-family="Helvetica,sans-Serif" font-size="10.00">+ Alias()</text>
<text text-anchor="start" x="1004" y="-821" font-family="Helvetica,sans-Serif" font-size="10.00">+ Alias()</text>
<text text-anchor="start" x="1004" y="-808" font-family="Helvetica,sans-Serif" font-size="10.00">+ Alias()</text>
<text text-anchor="start" x="1004" y="-795" font-family="Helvetica,sans-Serif" font-size="10.00">+ operator[]()</text>
<text text-anchor="start" x="1004" y="-782" font-family="Helvetica,sans-Serif" font-size="10.00">+ immediateWrite()</text>
<text text-anchor="start" x="1004" y="-769" font-family="Helvetica,sans-Serif" font-size="10.00">+ readNewValue()</text>
<text text-anchor="start" x="1004" y="-756" font-family="Helvetica,sans-Serif" font-size="10.00">+ getReg()</text>
<text text-anchor="start" x="1004" y="-743" font-family="Helvetica,sans-Serif" font-size="10.00">+ operator~()</text>
<text text-anchor="start" x="1004" y="-730" font-family="Helvetica,sans-Serif" font-size="10.00">+ operator=()</text>
<text text-anchor="start" x="1004" y="-717" font-family="Helvetica,sans-Serif" font-size="10.00">and 63 more...</text>
</a>
</g>
<!-- Node11&#45;&gt;Node3 -->
<g id="edge22" class="edge"><title>Node11&#45;&gt;Node3</title>
<path fill="none" stroke="#404040" d="M995.847,-724.768C991.416,-718.902 986.786,-713.247 982,-708 973.015,-698.149 967.643,-699.208 958,-690 938.034,-670.935 898.746,-623.359 864.099,-580.096"/>
<polygon fill="none" stroke="#404040" points="864.047,-580.031 857.177,-577.84 856.557,-570.655 863.427,-572.846 864.047,-580.031"/>
<text text-anchor="middle" x="976.5" y="-680.5" font-family="Helvetica,sans-Serif" font-size="10.00"> #REGS</text>
<text text-anchor="middle" x="976.5" y="-667.5" font-family="Helvetica,sans-Serif" font-size="10.00">#LR</text>
<text text-anchor="middle" x="976.5" y="-654.5" font-family="Helvetica,sans-Serif" font-size="10.00">#PCR</text>
<text text-anchor="middle" x="976.5" y="-641.5" font-family="Helvetica,sans-Serif" font-size="10.00">#FP</text>
<text text-anchor="middle" x="976.5" y="-628.5" font-family="Helvetica,sans-Serif" font-size="10.00">#SP</text>
</g>
<!-- Node12 -->
<g id="node23" class="node"><title>Node12</title>
<a xlink:href="classint.html" target="_top" xlink:title="{int\n||}">
<polygon fill="white" stroke="black" points="1113.5,-780.5 1113.5,-843.5 1142.5,-843.5 1142.5,-780.5 1113.5,-780.5"/>
<text text-anchor="middle" x="1128" y="-830.5" font-family="Helvetica,sans-Serif" font-size="10.00">int</text>
<polyline fill="none" stroke="black" points="1113.5,-822.5 1142.5,-822.5 "/>
<text text-anchor="middle" x="1128" y="-809.5" font-family="Helvetica,sans-Serif" font-size="10.00"> </text>
<polyline fill="none" stroke="black" points="1113.5,-801.5 1142.5,-801.5 "/>
<text text-anchor="middle" x="1128" y="-788.5" font-family="Helvetica,sans-Serif" font-size="10.00"> </text>
</a>
</g>
<!-- Node12&#45;&gt;Node1 -->
<g id="edge52" class="edge"><title>Node12&#45;&gt;Node1</title>
<path fill="none" stroke="#404040" d="M1126.26,-780.251C1120.56,-676.592 1102.35,-345.256 1093.27,-179.84"/>
<polygon fill="none" stroke="#404040" points="1093.26,-179.721 1088.94,-173.949 1092.6,-167.739 1096.92,-173.51 1093.26,-179.721"/>
<text text-anchor="middle" x="1122" y="-358.5" font-family="Helvetica,sans-Serif" font-size="10.00"> #rs2_op</text>
<text text-anchor="middle" x="1122" y="-345.5" font-family="Helvetica,sans-Serif" font-size="10.00">#rs1_op</text>
<text text-anchor="middle" x="1122" y="-332.5" font-family="Helvetica,sans-Serif" font-size="10.00">#result</text>
</g>
<!-- Node12&#45;&gt;Node3 -->
<g id="edge24" class="edge"><title>Node12&#45;&gt;Node3</title>
<path fill="none" stroke="#404040" d="M1129.53,-780.437C1128.86,-757.269 1123.96,-726.7 1105,-708 1076.89,-680.27 1047.69,-716.029 1018,-690 994.641,-669.523 1014.17,-648.445 995,-624 961.546,-581.334 909.719,-548.465 867.618,-526.723"/>
<polygon fill="none" stroke="#404040" points="867.578,-526.703 860.42,-527.572 856.864,-521.299 864.022,-520.429 867.578,-526.703"/>
<text text-anchor="middle" x="1060.5" y="-661" font-family="Helvetica,sans-Serif" font-size="10.00"> #NUM_REG_WIN</text>
<text text-anchor="middle" x="1060.5" y="-648" font-family="Helvetica,sans-Serif" font-size="10.00">+totalInstrCycles</text>
</g>
<!-- Node13 -->
<g id="node25" class="node"><title>Node13</title>
<a xlink:href="classleon3__funclt__trap_1_1Reg32__0.html" target="_top" xlink:title="{leon3_funclt_trap::\lReg32_0\n||+ Reg32_0()\l+ operator[]()\l+ immediateWrite()\l+ readNewValue()\l+ operator~()\l+ operator=()\l+ operator+=()\l+ operator&#45;=()\l+ operator*=()\l+ operator/=()\land 57 more...\l}">
<polygon fill="white" stroke="black" points="748,-709 748,-915 848,-915 848,-709 748,-709"/>
<text text-anchor="start" x="756" y="-902" font-family="Helvetica,sans-Serif" font-size="10.00">leon3_funclt_trap::</text>
<text text-anchor="middle" x="798" y="-889" font-family="Helvetica,sans-Serif" font-size="10.00">Reg32_0</text>
<polyline fill="none" stroke="black" points="748,-881 848,-881 "/>
<text text-anchor="middle" x="798" y="-868" font-family="Helvetica,sans-Serif" font-size="10.00"> </text>
<polyline fill="none" stroke="black" points="748,-860 848,-860 "/>
<text text-anchor="start" x="756" y="-847" font-family="Helvetica,sans-Serif" font-size="10.00">+ Reg32_0()</text>
<text text-anchor="start" x="756" y="-834" font-family="Helvetica,sans-Serif" font-size="10.00">+ operator[]()</text>
<text text-anchor="start" x="756" y="-821" font-family="Helvetica,sans-Serif" font-size="10.00">+ immediateWrite()</text>
<text text-anchor="start" x="756" y="-808" font-family="Helvetica,sans-Serif" font-size="10.00">+ readNewValue()</text>
<text text-anchor="start" x="756" y="-795" font-family="Helvetica,sans-Serif" font-size="10.00">+ operator~()</text>
<text text-anchor="start" x="756" y="-782" font-family="Helvetica,sans-Serif" font-size="10.00">+ operator=()</text>
<text text-anchor="start" x="756" y="-769" font-family="Helvetica,sans-Serif" font-size="10.00">+ operator+=()</text>
<text text-anchor="start" x="756" y="-756" font-family="Helvetica,sans-Serif" font-size="10.00">+ operator&#45;=()</text>
<text text-anchor="start" x="756" y="-743" font-family="Helvetica,sans-Serif" font-size="10.00">+ operator*=()</text>
<text text-anchor="start" x="756" y="-730" font-family="Helvetica,sans-Serif" font-size="10.00">+ operator/=()</text>
<text text-anchor="start" x="756" y="-717" font-family="Helvetica,sans-Serif" font-size="10.00">and 57 more...</text>
</a>
</g>
<!-- Node13&#45;&gt;Node3 -->
<g id="edge26" class="edge"><title>Node13&#45;&gt;Node3</title>
<path fill="none" stroke="#404040" d="M798,-708.967C798,-679.919 798,-648.04 798,-617.996"/>
<polygon fill="none" stroke="#404040" points="798,-617.694 794,-611.694 798,-605.694 802,-611.694 798,-617.694"/>
<text text-anchor="middle" x="813" y="-654.5" font-family="Helvetica,sans-Serif" font-size="10.00"> #PSR</text>
</g>
<!-- Node14 -->
<g id="node27" class="node"><title>Node14</title>
<a xlink:href="classleon3__funclt__trap_1_1Register.html" target="_top" xlink:title="{leon3_funclt_trap::\lRegister\n||+ Register()\l+ Register()\l+ immediateWrite()\l+ readNewValue()\l+ clockCycle()\l+ operator[]()\l+ operator~()\l+ operator+()\l+ operator&#45;()\l+ operator*()\land 34 more...\l}">
<polygon fill="white" stroke="black" points="297,-967 297,-1173 397,-1173 397,-967 297,-967"/>
<text text-anchor="start" x="305" y="-1160" font-family="Helvetica,sans-Serif" font-size="10.00">leon3_funclt_trap::</text>
<text text-anchor="middle" x="347" y="-1147" font-family="Helvetica,sans-Serif" font-size="10.00">Register</text>
<polyline fill="none" stroke="black" points="297,-1139 397,-1139 "/>
<text text-anchor="middle" x="347" y="-1126" font-family="Helvetica,sans-Serif" font-size="10.00"> </text>
<polyline fill="none" stroke="black" points="297,-1118 397,-1118 "/>
<text text-anchor="start" x="305" y="-1105" font-family="Helvetica,sans-Serif" font-size="10.00">+ Register()</text>
<text text-anchor="start" x="305" y="-1092" font-family="Helvetica,sans-Serif" font-size="10.00">+ Register()</text>
<text text-anchor="start" x="305" y="-1079" font-family="Helvetica,sans-Serif" font-size="10.00">+ immediateWrite()</text>
<text text-anchor="start" x="305" y="-1066" font-family="Helvetica,sans-Serif" font-size="10.00">+ readNewValue()</text>
<text text-anchor="start" x="305" y="-1053" font-family="Helvetica,sans-Serif" font-size="10.00">+ clockCycle()</text>
<text text-anchor="start" x="305" y="-1040" font-family="Helvetica,sans-Serif" font-size="10.00">+ operator[]()</text>
<text text-anchor="start" x="305" y="-1027" font-family="Helvetica,sans-Serif" font-size="10.00">+ operator~()</text>
<text text-anchor="start" x="305" y="-1014" font-family="Helvetica,sans-Serif" font-size="10.00">+ operator+()</text>
<text text-anchor="start" x="305" y="-1001" font-family="Helvetica,sans-Serif" font-size="10.00">+ operator&#45;()</text>
<text text-anchor="start" x="305" y="-988" font-family="Helvetica,sans-Serif" font-size="10.00">+ operator*()</text>
<text text-anchor="start" x="305" y="-975" font-family="Helvetica,sans-Serif" font-size="10.00">and 34 more...</text>
</a>
</g>
<!-- Node14&#45;&gt;Node13 -->
<g id="edge28" class="edge"><title>Node14&#45;&gt;Node13</title>
<path fill="none" stroke="midnightblue" d="M407.187,-1059.46C490.264,-1042.24 640.91,-1001.09 739,-916 741.979,-913.415 744.841,-910.642 747.587,-907.721"/>
<polygon fill="none" stroke="midnightblue" points="406.26,-1056.07 397.153,-1061.49 407.649,-1062.93 406.26,-1056.07"/>
</g>
<!-- Node15 -->
<g id="node30" class="node"><title>Node15</title>
<a xlink:href="classleon3__funclt__trap_1_1Reg32__1.html" target="_top" xlink:title="{leon3_funclt_trap::\lReg32_1\n||+ Reg32_1()\l+ operator[]()\l+ immediateWrite()\l+ readNewValue()\l+ operator~()\l+ operator=()\l+ operator+=()\l+ operator&#45;=()\l+ operator*=()\l+ operator/=()\land 57 more...\l}">
<polygon fill="white" stroke="black" points="0,-709 0,-915 100,-915 100,-709 0,-709"/>
<text text-anchor="start" x="8" y="-902" font-family="Helvetica,sans-Serif" font-size="10.00">leon3_funclt_trap::</text>
<text text-anchor="middle" x="50" y="-889" font-family="Helvetica,sans-Serif" font-size="10.00">Reg32_1</text>
<polyline fill="none" stroke="black" points="0,-881 100,-881 "/>
<text text-anchor="middle" x="50" y="-868" font-family="Helvetica,sans-Serif" font-size="10.00"> </text>
<polyline fill="none" stroke="black" points="0,-860 100,-860 "/>
<text text-anchor="start" x="8" y="-847" font-family="Helvetica,sans-Serif" font-size="10.00">+ Reg32_1()</text>
<text text-anchor="start" x="8" y="-834" font-family="Helvetica,sans-Serif" font-size="10.00">+ operator[]()</text>
<text text-anchor="start" x="8" y="-821" font-family="Helvetica,sans-Serif" font-size="10.00">+ immediateWrite()</text>
<text text-anchor="start" x="8" y="-808" font-family="Helvetica,sans-Serif" font-size="10.00">+ readNewValue()</text>
<text text-anchor="start" x="8" y="-795" font-family="Helvetica,sans-Serif" font-size="10.00">+ operator~()</text>
<text text-anchor="start" x="8" y="-782" font-family="Helvetica,sans-Serif" font-size="10.00">+ operator=()</text>
<text text-anchor="start" x="8" y="-769" font-family="Helvetica,sans-Serif" font-size="10.00">+ operator+=()</text>
<text text-anchor="start" x="8" y="-756" font-family="Helvetica,sans-Serif" font-size="10.00">+ operator&#45;=()</text>
<text text-anchor="start" x="8" y="-743" font-family="Helvetica,sans-Serif" font-size="10.00">+ operator*=()</text>
<text text-anchor="start" x="8" y="-730" font-family="Helvetica,sans-Serif" font-size="10.00">+ operator/=()</text>
<text text-anchor="start" x="8" y="-717" font-family="Helvetica,sans-Serif" font-size="10.00">and 57 more...</text>
</a>
</g>
<!-- Node14&#45;&gt;Node15 -->
<g id="edge34" class="edge"><title>Node14&#45;&gt;Node15</title>
<path fill="none" stroke="midnightblue" d="M287.814,-1042.03C235.881,-1015.25 160.771,-970.879 109,-916 106.009,-912.829 103.111,-909.478 100.312,-905.999"/>
<polygon fill="none" stroke="midnightblue" points="286.409,-1045.24 296.908,-1046.66 289.585,-1039 286.409,-1045.24"/>
</g>
<!-- Node17 -->
<g id="node35" class="node"><title>Node17</title>
<a xlink:href="classleon3__funclt__trap_1_1Reg32__2.html" target="_top" xlink:title="{leon3_funclt_trap::\lReg32_2\n||+ Reg32_2()\l+ operator[]()\l+ immediateWrite()\l+ readNewValue()\l+ operator~()\l+ operator=()\l+ operator+=()\l+ operator&#45;=()\l+ operator*=()\l+ operator/=()\land 57 more...\l}">
<polygon fill="white" stroke="black" points="238,-709 238,-915 338,-915 338,-709 238,-709"/>
<text text-anchor="start" x="246" y="-902" font-family="Helvetica,sans-Serif" font-size="10.00">leon3_funclt_trap::</text>
<text text-anchor="middle" x="288" y="-889" font-family="Helvetica,sans-Serif" font-size="10.00">Reg32_2</text>
<polyline fill="none" stroke="black" points="238,-881 338,-881 "/>
<text text-anchor="middle" x="288" y="-868" font-family="Helvetica,sans-Serif" font-size="10.00"> </text>
<polyline fill="none" stroke="black" points="238,-860 338,-860 "/>
<text text-anchor="start" x="246" y="-847" font-family="Helvetica,sans-Serif" font-size="10.00">+ Reg32_2()</text>
<text text-anchor="start" x="246" y="-834" font-family="Helvetica,sans-Serif" font-size="10.00">+ operator[]()</text>
<text text-anchor="start" x="246" y="-821" font-family="Helvetica,sans-Serif" font-size="10.00">+ immediateWrite()</text>
<text text-anchor="start" x="246" y="-808" font-family="Helvetica,sans-Serif" font-size="10.00">+ readNewValue()</text>
<text text-anchor="start" x="246" y="-795" font-family="Helvetica,sans-Serif" font-size="10.00">+ operator~()</text>
<text text-anchor="start" x="246" y="-782" font-family="Helvetica,sans-Serif" font-size="10.00">+ operator=()</text>
<text text-anchor="start" x="246" y="-769" font-family="Helvetica,sans-Serif" font-size="10.00">+ operator+=()</text>
<text text-anchor="start" x="246" y="-756" font-family="Helvetica,sans-Serif" font-size="10.00">+ operator&#45;=()</text>
<text text-anchor="start" x="246" y="-743" font-family="Helvetica,sans-Serif" font-size="10.00">+ operator*=()</text>
<text text-anchor="start" x="246" y="-730" font-family="Helvetica,sans-Serif" font-size="10.00">+ operator/=()</text>
<text text-anchor="start" x="246" y="-717" font-family="Helvetica,sans-Serif" font-size="10.00">and 57 more...</text>
</a>
</g>
<!-- Node14&#45;&gt;Node17 -->
<g id="edge40" class="edge"><title>Node14&#45;&gt;Node17</title>
<path fill="none" stroke="midnightblue" d="M321.137,-956.906C317.976,-943.081 314.758,-929.009 311.632,-915.338"/>
<polygon fill="none" stroke="midnightblue" points="317.786,-957.951 323.427,-966.919 324.61,-956.391 317.786,-957.951"/>
</g>
<!-- Node18 -->
<g id="node38" class="node"><title>Node18</title>
<a xlink:href="classleon3__funclt__trap_1_1Reg32__3.html" target="_top" xlink:title="{leon3_funclt_trap::\lReg32_3\n||+ Reg32_3()\l+ operator[]()\l+ immediateWrite()\l+ readNewValue()\l+ operator~()\l+ operator=()\l+ operator+=()\l+ operator&#45;=()\l+ operator*=()\l+ operator/=()\land 57 more...\l}">
<polygon fill="white" stroke="black" points="356,-709 356,-915 456,-915 456,-709 356,-709"/>
<text text-anchor="start" x="364" y="-902" font-family="Helvetica,sans-Serif" font-size="10.00">leon3_funclt_trap::</text>
<text text-anchor="middle" x="406" y="-889" font-family="Helvetica,sans-Serif" font-size="10.00">Reg32_3</text>
<polyline fill="none" stroke="black" points="356,-881 456,-881 "/>
<text text-anchor="middle" x="406" y="-868" font-family="Helvetica,sans-Serif" font-size="10.00"> </text>
<polyline fill="none" stroke="black" points="356,-860 456,-860 "/>
<text text-anchor="start" x="364" y="-847" font-family="Helvetica,sans-Serif" font-size="10.00">+ Reg32_3()</text>
<text text-anchor="start" x="364" y="-834" font-family="Helvetica,sans-Serif" font-size="10.00">+ operator[]()</text>
<text text-anchor="start" x="364" y="-821" font-family="Helvetica,sans-Serif" font-size="10.00">+ immediateWrite()</text>
<text text-anchor="start" x="364" y="-808" font-family="Helvetica,sans-Serif" font-size="10.00">+ readNewValue()</text>
<text text-anchor="start" x="364" y="-795" font-family="Helvetica,sans-Serif" font-size="10.00">+ operator~()</text>
<text text-anchor="start" x="364" y="-782" font-family="Helvetica,sans-Serif" font-size="10.00">+ operator=()</text>
<text text-anchor="start" x="364" y="-769" font-family="Helvetica,sans-Serif" font-size="10.00">+ operator+=()</text>
<text text-anchor="start" x="364" y="-756" font-family="Helvetica,sans-Serif" font-size="10.00">+ operator&#45;=()</text>
<text text-anchor="start" x="364" y="-743" font-family="Helvetica,sans-Serif" font-size="10.00">+ operator*=()</text>
<text text-anchor="start" x="364" y="-730" font-family="Helvetica,sans-Serif" font-size="10.00">+ operator/=()</text>
<text text-anchor="start" x="364" y="-717" font-family="Helvetica,sans-Serif" font-size="10.00">and 57 more...</text>
</a>
</g>
<!-- Node14&#45;&gt;Node18 -->
<g id="edge44" class="edge"><title>Node14&#45;&gt;Node18</title>
<path fill="none" stroke="midnightblue" d="M372.863,-956.906C376.024,-943.081 379.242,-929.009 382.368,-915.338"/>
<polygon fill="none" stroke="midnightblue" points="369.39,-956.391 370.573,-966.919 376.214,-957.951 369.39,-956.391"/>
</g>
<!-- Node15&#45;&gt;Node3 -->
<g id="edge32" class="edge"><title>Node15&#45;&gt;Node3</title>
<path fill="none" stroke="#404040" d="M100.136,-719.545C103.015,-715.561 105.974,-711.693 109,-708 145.15,-663.892 154.983,-649.487 206,-624 380.259,-536.942 612.316,-508.854 727.273,-499.978"/>
<polygon fill="none" stroke="#404040" points="727.397,-499.968 733.085,-495.536 739.364,-499.082 733.676,-503.514 727.397,-499.968"/>
<text text-anchor="middle" x="221" y="-654.5" font-family="Helvetica,sans-Serif" font-size="10.00"> #WIM</text>
</g>
<!-- Node16 -->
<g id="node33" class="node"><title>Node16</title>
<a xlink:href="classleon3__funclt__trap_1_1MemoryInterface.html" target="_top" xlink:title="{leon3_funclt_trap::\lMemoryInterface\n||+ read_dword()\l+ read_word()\l+ read_half()\l+ read_byte()\l+ read_instr()\l+ read_dword_dbg()\l+ read_word_dbg()\l+ read_half_dbg()\l+ read_byte_dbg()\l+ write_dword()\land 12 more...\l}">
<polygon fill="white" stroke="black" points="117.5,-709 117.5,-915 220.5,-915 220.5,-709 117.5,-709"/>
<text text-anchor="start" x="125.5" y="-902" font-family="Helvetica,sans-Serif" font-size="10.00">leon3_funclt_trap::</text>
<text text-anchor="middle" x="169" y="-889" font-family="Helvetica,sans-Serif" font-size="10.00">MemoryInterface</text>
<polyline fill="none" stroke="black" points="117.5,-881 220.5,-881 "/>
<text text-anchor="middle" x="169" y="-868" font-family="Helvetica,sans-Serif" font-size="10.00"> </text>
<polyline fill="none" stroke="black" points="117.5,-860 220.5,-860 "/>
<text text-anchor="start" x="125.5" y="-847" font-family="Helvetica,sans-Serif" font-size="10.00">+ read_dword()</text>
<text text-anchor="start" x="125.5" y="-834" font-family="Helvetica,sans-Serif" font-size="10.00">+ read_word()</text>
<text text-anchor="start" x="125.5" y="-821" font-family="Helvetica,sans-Serif" font-size="10.00">+ read_half()</text>
<text text-anchor="start" x="125.5" y="-808" font-family="Helvetica,sans-Serif" font-size="10.00">+ read_byte()</text>
<text text-anchor="start" x="125.5" y="-795" font-family="Helvetica,sans-Serif" font-size="10.00">+ read_instr()</text>
<text text-anchor="start" x="125.5" y="-782" font-family="Helvetica,sans-Serif" font-size="10.00">+ read_dword_dbg()</text>
<text text-anchor="start" x="125.5" y="-769" font-family="Helvetica,sans-Serif" font-size="10.00">+ read_word_dbg()</text>
<text text-anchor="start" x="125.5" y="-756" font-family="Helvetica,sans-Serif" font-size="10.00">+ read_half_dbg()</text>
<text text-anchor="start" x="125.5" y="-743" font-family="Helvetica,sans-Serif" font-size="10.00">+ read_byte_dbg()</text>
<text text-anchor="start" x="125.5" y="-730" font-family="Helvetica,sans-Serif" font-size="10.00">+ write_dword()</text>
<text text-anchor="start" x="125.5" y="-717" font-family="Helvetica,sans-Serif" font-size="10.00">and 12 more...</text>
</a>
</g>
<!-- Node16&#45;&gt;Node3 -->
<g id="edge36" class="edge"><title>Node16&#45;&gt;Node3</title>
<path fill="none" stroke="#404040" d="M220.709,-714.069C243.547,-680.165 273.568,-645.349 310,-624 444.569,-545.145 628.048,-514.059 727.281,-502.441"/>
<polygon fill="none" stroke="#404040" points="727.325,-502.436 732.837,-497.787 739.249,-501.087 733.737,-505.736 727.325,-502.436"/>
<text text-anchor="middle" x="334.5" y="-661" font-family="Helvetica,sans-Serif" font-size="10.00"> #dataMem</text>
<text text-anchor="middle" x="334.5" y="-648" font-family="Helvetica,sans-Serif" font-size="10.00">#instrMem</text>
</g>
<!-- Node17&#45;&gt;Node3 -->
<g id="edge38" class="edge"><title>Node17&#45;&gt;Node3</title>
<path fill="none" stroke="#404040" d="M338.149,-719.139C341.016,-715.287 343.97,-711.554 347,-708 385.776,-662.525 399.975,-653.411 452,-624 541.918,-573.167 655.858,-535.582 727.87,-514.727"/>
<polygon fill="none" stroke="#404040" points="727.958,-514.702 732.626,-509.206 739.495,-511.401 734.827,-516.897 727.958,-514.702"/>
<text text-anchor="middle" x="466.5" y="-654.5" font-family="Helvetica,sans-Serif" font-size="10.00"> #TBR</text>
</g>
<!-- Node18&#45;&gt;Node3 -->
<g id="edge42" class="edge"><title>Node18&#45;&gt;Node3</title>
<path fill="none" stroke="#404040" d="M456.021,-719.864C458.94,-715.773 461.937,-711.797 465,-708 535.907,-620.096 653.511,-557.516 728.311,-524.082"/>
<polygon fill="none" stroke="#404040" points="728.497,-524 732.377,-517.921 739.48,-519.164 735.601,-525.243 728.497,-524"/>
<text text-anchor="middle" x="577.5" y="-680.5" font-family="Helvetica,sans-Serif" font-size="10.00"> #Y</text>
<text text-anchor="middle" x="577.5" y="-667.5" font-family="Helvetica,sans-Serif" font-size="10.00">#WINREGS</text>
<text text-anchor="middle" x="577.5" y="-654.5" font-family="Helvetica,sans-Serif" font-size="10.00">#PC</text>
<text text-anchor="middle" x="577.5" y="-641.5" font-family="Helvetica,sans-Serif" font-size="10.00">#ASR</text>
<text text-anchor="middle" x="577.5" y="-628.5" font-family="Helvetica,sans-Serif" font-size="10.00">#NPC</text>
</g>
<!-- Node19 -->
<g id="node41" class="node"><title>Node19</title>
<a xlink:href="classleon3__funclt__trap_1_1RegisterBankClass.html" target="_top" xlink:title="{leon3_funclt_trap::\lRegisterBankClass\n||+ RegisterBankClass()\l+ RegisterBankClass()\l+ setNewRegister()\l+ setSize()\l+ operator[]()\l+ ~RegisterBankClass()\l}">
<polygon fill="white" stroke="black" points="474,-741.5 474,-882.5 596,-882.5 596,-741.5 474,-741.5"/>
<text text-anchor="start" x="482" y="-869.5" font-family="Helvetica,sans-Serif" font-size="10.00">leon3_funclt_trap::</text>
<text text-anchor="middle" x="535" y="-856.5" font-family="Helvetica,sans-Serif" font-size="10.00">RegisterBankClass</text>
<polyline fill="none" stroke="black" points="474,-848.5 596,-848.5 "/>
<text text-anchor="middle" x="535" y="-835.5" font-family="Helvetica,sans-Serif" font-size="10.00"> </text>
<polyline fill="none" stroke="black" points="474,-827.5 596,-827.5 "/>
<text text-anchor="start" x="482" y="-814.5" font-family="Helvetica,sans-Serif" font-size="10.00">+ RegisterBankClass()</text>
<text text-anchor="start" x="482" y="-801.5" font-family="Helvetica,sans-Serif" font-size="10.00">+ RegisterBankClass()</text>
<text text-anchor="start" x="482" y="-788.5" font-family="Helvetica,sans-Serif" font-size="10.00">+ setNewRegister()</text>
<text text-anchor="start" x="482" y="-775.5" font-family="Helvetica,sans-Serif" font-size="10.00">+ setSize()</text>
<text text-anchor="start" x="482" y="-762.5" font-family="Helvetica,sans-Serif" font-size="10.00">+ operator[]()</text>
<text text-anchor="start" x="482" y="-749.5" font-family="Helvetica,sans-Serif" font-size="10.00">+ ~RegisterBankClass()</text>
</a>
</g>
<!-- Node19&#45;&gt;Node3 -->
<g id="edge46" class="edge"><title>Node19&#45;&gt;Node3</title>
<path fill="none" stroke="#404040" d="M581.562,-741.306C589.255,-730.069 597.251,-718.646 605,-708 632.941,-669.614 639.561,-659.578 671,-624 689.689,-602.851 710.966,-580.722 730.69,-560.927"/>
<polygon fill="none" stroke="#404040" points="730.838,-560.78 732.259,-553.711 739.332,-552.304 737.91,-559.373 730.838,-560.78"/>
<text text-anchor="middle" x="695" y="-654.5" font-family="Helvetica,sans-Serif" font-size="10.00"> #GLOBAL</text>
</g>
<!-- Node20&#45;&gt;Node1 -->
<g id="edge48" class="edge"><title>Node20&#45;&gt;Node1</title>
<path fill="none" stroke="midnightblue" d="M1047.63,-197.29C1051.06,-187.667 1054.66,-177.571 1058.23,-167.536"/>
<polygon fill="none" stroke="midnightblue" points="1044.33,-196.141 1044.27,-206.735 1050.92,-198.49 1044.33,-196.141"/>
</g>
</g>
</svg>
