<?xml version="1.0" encoding="UTF-8" standalone="no"?>
<!DOCTYPE svg PUBLIC "-//W3C//DTD SVG 1.1//EN"
 "http://www.w3.org/Graphics/SVG/1.1/DTD/svg11.dtd">
<!-- Generated by graphviz version 2.36.0 (20140111.2315)
 -->
<!-- Title: sr_signal::signal_in::operator() Pages: 1 -->
<svg width="250pt" height="87pt"
 viewBox="0.00 0.00 250.00 87.00" xmlns="http://www.w3.org/2000/svg" xmlns:xlink="http://www.w3.org/1999/xlink">
<g id="graph0" class="graph" transform="scale(1 1) rotate(0) translate(4 83)">
<title>sr_signal::signal_in::operator()</title>
<polygon fill="white" stroke="none" points="-4,4 -4,-83 246,-83 246,4 -4,4"/>
<!-- Node1 -->
<g id="node1" class="node"><title>Node1</title>
<polygon fill="#bfbfbf" stroke="black" points="0,-24 0,-54 100,-54 100,-24 0,-24"/>
<text text-anchor="start" x="8" y="-42" font-family="Helvetica,sans-Serif" font-size="10.00">sr_signal::signal_in</text>
<text text-anchor="middle" x="50" y="-31" font-family="Helvetica,sans-Serif" font-size="10.00">::operator()</text>
</g>
<!-- Node2 -->
<g id="node2" class="node"><title>Node2</title>
<g id="a_node2"><a xlink:href="classsr__signal_1_1signal__in.html#a9aa752525556de55761af3ecee3c6b45" target="_top" xlink:title="sr_signal::signal_in\l::bind">
<polygon fill="white" stroke="black" points="139,-49 139,-79 239,-79 239,-49 139,-49"/>
<text text-anchor="start" x="147" y="-67" font-family="Helvetica,sans-Serif" font-size="10.00">sr_signal::signal_in</text>
<text text-anchor="middle" x="189" y="-56" font-family="Helvetica,sans-Serif" font-size="10.00">::bind</text>
</a>
</g>
</g>
<!-- Node1&#45;&gt;Node2 -->
<g id="edge1" class="edge"><title>Node1&#45;&gt;Node2</title>
<path fill="none" stroke="midnightblue" d="M100.073,-47.955C109.419,-49.6603 119.29,-51.4617 128.909,-53.217"/>
<polygon fill="midnightblue" stroke="midnightblue" points="128.343,-56.6714 138.809,-55.0235 129.6,-49.7851 128.343,-56.6714"/>
</g>
<!-- Node3 -->
<g id="node3" class="node"><title>Node3</title>
<g id="a_node3"><a xlink:href="classsr__signal_1_1signal__out__bind__if.html#ac7c60ef8cd575cdeef5e68461f178f45" target="_top" xlink:title="sr_signal::signal_out\l_bind_if::bind">
<polygon fill="white" stroke="black" points="136,-0 136,-30 242,-30 242,-0 136,-0"/>
<text text-anchor="start" x="144" y="-18" font-family="Helvetica,sans-Serif" font-size="10.00">sr_signal::signal_out</text>
<text text-anchor="middle" x="189" y="-7" font-family="Helvetica,sans-Serif" font-size="10.00">_bind_if::bind</text>
</a>
</g>
</g>
<!-- Node1&#45;&gt;Node3 -->
<g id="edge2" class="edge"><title>Node1&#45;&gt;Node3</title>
<path fill="none" stroke="midnightblue" d="M100.073,-30.4032C108.351,-28.9531 117.041,-27.4307 125.603,-25.9308"/>
<polygon fill="midnightblue" stroke="midnightblue" points="126.317,-29.3591 135.563,-24.186 125.109,-22.4641 126.317,-29.3591"/>
</g>
</g>
</svg>
