<?xml version="1.0" encoding="UTF-8" standalone="no"?>
<!DOCTYPE svg PUBLIC "-//W3C//DTD SVG 1.1//EN"
 "http://www.w3.org/Graphics/SVG/1.1/DTD/svg11.dtd">
<!-- Generated by graphviz version 2.36.0 (20140111.2315)
 -->
<!-- Title: sr_param&lt; std::string &gt; Pages: 1 -->
<!--zoomable 990 -->
<svg id="main" version="1.1" xmlns="http://www.w3.org/2000/svg" xmlns:xlink="http://www.w3.org/1999/xlink" xml:space="preserve" onload="init(evt)">
<style type="text/css"><![CDATA[
.edge:hover path { stroke: red; }
.edge:hover polygon { stroke: red; fill: red; }
]]></style>
<script type="text/javascript"><![CDATA[
var edges = document.getElementsByTagName('g');
if (edges && edges.length) {
  for (var i=0;i<edges.length;i++) {
    if (edges[i].id.substr(0,4)=='edge') {
      edges[i].setAttribute('class','edge');
    }
  }
}
]]></script>
        <defs>
                <circle id="rim" cx="0" cy="0" r="7"/>
                <circle id="rim2" cx="0" cy="0" r="3.5"/>
                <g id="zoomPlus">
                        <use xlink:href="#rim" fill="#404040">
                                <set attributeName="fill" to="#808080" begin="zoomplus.mouseover" end="zoomplus.mouseout"/>
                        </use>
                        <path d="M-4,0h8M0,-4v8" fill="none" stroke="white" stroke-width="1.5" pointer-events="none"/>
                </g>
                <g id="zoomMin">
                        <use xlink:href="#rim" fill="#404040">
                                <set attributeName="fill" to="#808080" begin="zoomminus.mouseover" end="zoomminus.mouseout"/>
                        </use>
                        <path d="M-4,0h8" fill="none" stroke="white" stroke-width="1.5" pointer-events="none"/>
                </g>
                <g id="dirArrow">
                        <path fill="none" stroke="white" stroke-width="1.5" d="M0,-3.0v7 M-2.5,-0.5L0,-3.0L2.5,-0.5"/>
                </g>
               <g id="resetDef">
                       <use xlink:href="#rim2" fill="#404040">
                               <set attributeName="fill" to="#808080" begin="reset.mouseover" end="reset.mouseout"/>
                       </use>
               </g>
        </defs>

<script type="text/javascript">
var viewWidth = 210;
var viewHeight = 990;
var sectionId = 'dynsection-0';
</script>
<script xlink:href="svgpan.js"/>
<svg id="graph" class="graph">
<g id="viewport">
<title>sr_param&lt; std::string &gt;</title>
<polygon fill="white" stroke="none" points="-4,4 -4,-986 206,-986 206,4 -4,4"/>
<!-- Node1 -->
<g id="node1" class="node"><title>Node1</title>
<polygon fill="#bfbfbf" stroke="black" points="2.5,-0.5 2.5,-189.5 157.5,-189.5 157.5,-0.5 2.5,-0.5"/>
<text text-anchor="middle" x="80" y="-177.5" font-family="Helvetica,sans-Serif" font-size="10.00">sr_param&lt; std::string &gt;</text>
<polyline fill="none" stroke="black" points="2.5,-170.5 157.5,-170.5 "/>
<text text-anchor="start" x="10.5" y="-158.5" font-family="Helvetica,sans-Serif" font-size="10.00">+ SR_PARAM_DELEGATE</text>
<polyline fill="none" stroke="black" points="2.5,-151.5 157.5,-151.5 "/>
<text text-anchor="start" x="10.5" y="-139.5" font-family="Helvetica,sans-Serif" font-size="10.00">+ sr_param()</text>
<text text-anchor="start" x="10.5" y="-128.5" font-family="Helvetica,sans-Serif" font-size="10.00">+ sr_param()</text>
<text text-anchor="start" x="10.5" y="-117.5" font-family="Helvetica,sans-Serif" font-size="10.00">+ sr_param()</text>
<text text-anchor="start" x="10.5" y="-106.5" font-family="Helvetica,sans-Serif" font-size="10.00">+ sr_param()</text>
<text text-anchor="start" x="10.5" y="-95.5" font-family="Helvetica,sans-Serif" font-size="10.00">+ sr_param()</text>
<text text-anchor="start" x="10.5" y="-84.5" font-family="Helvetica,sans-Serif" font-size="10.00">+ sr_param()</text>
<text text-anchor="start" x="10.5" y="-73.5" font-family="Helvetica,sans-Serif" font-size="10.00">+ sr_param()</text>
<text text-anchor="start" x="10.5" y="-62.5" font-family="Helvetica,sans-Serif" font-size="10.00">+ sr_param()</text>
<text text-anchor="start" x="10.5" y="-51.5" font-family="Helvetica,sans-Serif" font-size="10.00">+ sr_param()</text>
<text text-anchor="start" x="10.5" y="-40.5" font-family="Helvetica,sans-Serif" font-size="10.00">+ sr_param()</text>
<text text-anchor="start" x="10.5" y="-29.5" font-family="Helvetica,sans-Serif" font-size="10.00">and 21 more...</text>
<text text-anchor="start" x="10.5" y="-18.5" font-family="Helvetica,sans-Serif" font-size="10.00">+ static_convertValueToString()</text>
<text text-anchor="start" x="10.5" y="-7.5" font-family="Helvetica,sans-Serif" font-size="10.00">+ static_deserialize()</text>
</g>
<!-- Node2 -->
<g id="node2" class="node"><title>Node2</title>
<g id="a_node2"><a xlink:href="classsr__param__t.html" target="_top" xlink:title="{sr_param_t\&lt; std::string \&gt;\n|# my_value\l# return_string\l# m_mirror_param\l# m_mirror_val\l|+ operator+=()\l+ operator&#45;=()\l+ operator/=()\l+ operator*=()\l+ operator+()\l+ operator&#45;()\l+ operator/()\l+ operator*()\l+ operator%=()\l+ operator^=()\land 27 more...\l# mirror_callback()\l# convertStringToValue()\l}">
<polygon fill="white" stroke="black" points="16.5,-229 16.5,-451 143.5,-451 143.5,-229 16.5,-229"/>
<text text-anchor="middle" x="80" y="-439" font-family="Helvetica,sans-Serif" font-size="10.00">sr_param_t&lt; std::string &gt;</text>
<polyline fill="none" stroke="black" points="16.5,-432 143.5,-432 "/>
<text text-anchor="start" x="24.5" y="-420" font-family="Helvetica,sans-Serif" font-size="10.00"># my_value</text>
<text text-anchor="start" x="24.5" y="-409" font-family="Helvetica,sans-Serif" font-size="10.00"># return_string</text>
<text text-anchor="start" x="24.5" y="-398" font-family="Helvetica,sans-Serif" font-size="10.00"># m_mirror_param</text>
<text text-anchor="start" x="24.5" y="-387" font-family="Helvetica,sans-Serif" font-size="10.00"># m_mirror_val</text>
<polyline fill="none" stroke="black" points="16.5,-380 143.5,-380 "/>
<text text-anchor="start" x="24.5" y="-368" font-family="Helvetica,sans-Serif" font-size="10.00">+ operator+=()</text>
<text text-anchor="start" x="24.5" y="-357" font-family="Helvetica,sans-Serif" font-size="10.00">+ operator&#45;=()</text>
<text text-anchor="start" x="24.5" y="-346" font-family="Helvetica,sans-Serif" font-size="10.00">+ operator/=()</text>
<text text-anchor="start" x="24.5" y="-335" font-family="Helvetica,sans-Serif" font-size="10.00">+ operator*=()</text>
<text text-anchor="start" x="24.5" y="-324" font-family="Helvetica,sans-Serif" font-size="10.00">+ operator+()</text>
<text text-anchor="start" x="24.5" y="-313" font-family="Helvetica,sans-Serif" font-size="10.00">+ operator&#45;()</text>
<text text-anchor="start" x="24.5" y="-302" font-family="Helvetica,sans-Serif" font-size="10.00">+ operator/()</text>
<text text-anchor="start" x="24.5" y="-291" font-family="Helvetica,sans-Serif" font-size="10.00">+ operator*()</text>
<text text-anchor="start" x="24.5" y="-280" font-family="Helvetica,sans-Serif" font-size="10.00">+ operator%=()</text>
<text text-anchor="start" x="24.5" y="-269" font-family="Helvetica,sans-Serif" font-size="10.00">+ operator^=()</text>
<text text-anchor="start" x="24.5" y="-258" font-family="Helvetica,sans-Serif" font-size="10.00">and 27 more...</text>
<text text-anchor="start" x="24.5" y="-247" font-family="Helvetica,sans-Serif" font-size="10.00"># mirror_callback()</text>
<text text-anchor="start" x="24.5" y="-236" font-family="Helvetica,sans-Serif" font-size="10.00"># convertStringToValue()</text>
</a>
</g>
</g>
<!-- Node2&#45;&gt;Node1 -->
<g id="edge1" class="edge"><title>Node2&#45;&gt;Node1</title>
<path fill="none" stroke="midnightblue" d="M80,-218.75C80,-209.02 80,-199.278 80,-189.776"/>
<polygon fill="none" stroke="midnightblue" points="76.5001,-218.876 80,-228.876 83.5001,-218.876 76.5001,-218.876"/>
</g>
<!-- Node3 -->
<g id="node3" class="node"><title>Node3</title>
<g id="a_node3"><a xlink:href="classsr__param__base.html" target="_top" xlink:title="{sr_param_base\n||+ sr_param_base()\l+ setProperty()\l+ getProperty()\l+ getProperties()\l+ deleteProperty()\l+ exists()\l+ add_properties()\l}">
<polygon fill="white" stroke="black" points="12,-762.5 12,-885.5 110,-885.5 110,-762.5 12,-762.5"/>
<text text-anchor="middle" x="61" y="-873.5" font-family="Helvetica,sans-Serif" font-size="10.00">sr_param_base</text>
<polyline fill="none" stroke="black" points="12,-866.5 110,-866.5 "/>
<text text-anchor="middle" x="61" y="-854.5" font-family="Helvetica,sans-Serif" font-size="10.00"> </text>
<polyline fill="none" stroke="black" points="12,-847.5 110,-847.5 "/>
<text text-anchor="start" x="20" y="-835.5" font-family="Helvetica,sans-Serif" font-size="10.00">+ sr_param_base()</text>
<text text-anchor="start" x="20" y="-824.5" font-family="Helvetica,sans-Serif" font-size="10.00">+ setProperty()</text>
<text text-anchor="start" x="20" y="-813.5" font-family="Helvetica,sans-Serif" font-size="10.00">+ getProperty()</text>
<text text-anchor="start" x="20" y="-802.5" font-family="Helvetica,sans-Serif" font-size="10.00">+ getProperties()</text>
<text text-anchor="start" x="20" y="-791.5" font-family="Helvetica,sans-Serif" font-size="10.00">+ deleteProperty()</text>
<text text-anchor="start" x="20" y="-780.5" font-family="Helvetica,sans-Serif" font-size="10.00">+ exists()</text>
<text text-anchor="start" x="20" y="-769.5" font-family="Helvetica,sans-Serif" font-size="10.00">+ add_properties()</text>
</a>
</g>
</g>
<!-- Node3&#45;&gt;Node2 -->
<g id="edge2" class="edge"><title>Node3&#45;&gt;Node2</title>
<path fill="none" stroke="midnightblue" d="M61.8544,-752.046C62.8571,-686.581 64.9295,-586.694 69,-500 69.7397,-484.245 70.6954,-467.624 71.7341,-451.303"/>
<polygon fill="none" stroke="midnightblue" points="58.3518,-752.198 61.7025,-762.249 65.351,-752.303 58.3518,-752.198"/>
</g>
<!-- Node5 -->
<g id="node5" class="node"><title>Node5</title>
<g id="a_node5"><a xlink:href="classsr__param__t.html" target="_top" xlink:title="Template specialized base class for configuration parameters. ">
<polygon fill="white" stroke="black" points="77.5,-501 77.5,-723 202.5,-723 202.5,-501 77.5,-501"/>
<text text-anchor="middle" x="140" y="-711" font-family="Helvetica,sans-Serif" font-size="10.00">sr_param_t&lt; T &gt;</text>
<polyline fill="none" stroke="black" points="77.5,-704 202.5,-704 "/>
<text text-anchor="start" x="85.5" y="-692" font-family="Helvetica,sans-Serif" font-size="10.00"># my_value</text>
<text text-anchor="start" x="85.5" y="-681" font-family="Helvetica,sans-Serif" font-size="10.00"># return_string</text>
<text text-anchor="start" x="85.5" y="-670" font-family="Helvetica,sans-Serif" font-size="10.00"># m_mirror_param</text>
<text text-anchor="start" x="85.5" y="-659" font-family="Helvetica,sans-Serif" font-size="10.00"># m_mirror_val</text>
<polyline fill="none" stroke="black" points="77.5,-652 202.5,-652 "/>
<text text-anchor="start" x="85.5" y="-640" font-family="Helvetica,sans-Serif" font-size="10.00">+ operator+=()</text>
<text text-anchor="start" x="85.5" y="-629" font-family="Helvetica,sans-Serif" font-size="10.00">+ operator&#45;=()</text>
<text text-anchor="start" x="85.5" y="-618" font-family="Helvetica,sans-Serif" font-size="10.00">+ operator/=()</text>
<text text-anchor="start" x="85.5" y="-607" font-family="Helvetica,sans-Serif" font-size="10.00">+ operator*=()</text>
<text text-anchor="start" x="85.5" y="-596" font-family="Helvetica,sans-Serif" font-size="10.00">+ operator+()</text>
<text text-anchor="start" x="85.5" y="-585" font-family="Helvetica,sans-Serif" font-size="10.00">+ operator&#45;()</text>
<text text-anchor="start" x="85.5" y="-574" font-family="Helvetica,sans-Serif" font-size="10.00">+ operator/()</text>
<text text-anchor="start" x="85.5" y="-563" font-family="Helvetica,sans-Serif" font-size="10.00">+ operator*()</text>
<text text-anchor="start" x="85.5" y="-552" font-family="Helvetica,sans-Serif" font-size="10.00">+ operator%=()</text>
<text text-anchor="start" x="85.5" y="-541" font-family="Helvetica,sans-Serif" font-size="10.00">+ operator^=()</text>
<text text-anchor="start" x="85.5" y="-530" font-family="Helvetica,sans-Serif" font-size="10.00">and 27 more...</text>
<text text-anchor="start" x="85.5" y="-519" font-family="Helvetica,sans-Serif" font-size="10.00"># mirror_callback()</text>
<text text-anchor="start" x="85.5" y="-508" font-family="Helvetica,sans-Serif" font-size="10.00"># convertStringToValue()</text>
</a>
</g>
</g>
<!-- Node3&#45;&gt;Node5 -->
<g id="edge5" class="edge"><title>Node3&#45;&gt;Node5</title>
<path fill="none" stroke="midnightblue" d="M87.4015,-752.819C91.0131,-743.218 94.7895,-733.18 98.5894,-723.079"/>
<polygon fill="none" stroke="midnightblue" points="84.0953,-751.667 83.8501,-762.259 90.647,-754.132 84.0953,-751.667"/>
</g>
<!-- Node4 -->
<g id="node4" class="node"><title>Node4</title>
<polygon fill="white" stroke="#bfbfbf" points="0,-924.5 0,-981.5 122,-981.5 122,-924.5 0,-924.5"/>
<text text-anchor="middle" x="61" y="-969.5" font-family="Helvetica,sans-Serif" font-size="10.00">gs::cnf::gs_param_base</text>
<polyline fill="none" stroke="#bfbfbf" points="0,-962.5 122,-962.5 "/>
<text text-anchor="middle" x="61" y="-950.5" font-family="Helvetica,sans-Serif" font-size="10.00"> </text>
<polyline fill="none" stroke="#bfbfbf" points="0,-943.5 122,-943.5 "/>
<text text-anchor="middle" x="61" y="-931.5" font-family="Helvetica,sans-Serif" font-size="10.00"> </text>
</g>
<!-- Node4&#45;&gt;Node3 -->
<g id="edge3" class="edge"><title>Node4&#45;&gt;Node3</title>
<path fill="none" stroke="midnightblue" d="M61,-914.283C61,-905.252 61,-895.384 61,-885.607"/>
<polygon fill="none" stroke="midnightblue" points="57.5001,-914.443 61,-924.443 64.5001,-914.443 57.5001,-914.443"/>
</g>
<!-- Node5&#45;&gt;Node2 -->
<g id="edge4" class="edge"><title>Node5&#45;&gt;Node2</title>
<path fill="none" stroke="orange" d="M113.286,-490.786C110.365,-477.642 107.402,-464.309 104.51,-451.294"/>
<polygon fill="orange" stroke="orange" points="109.923,-491.789 115.509,-500.791 116.756,-490.27 109.923,-491.789"/>
<text text-anchor="middle" x="142.5" y="-473.5" font-family="Helvetica,sans-Serif" font-size="10.00"> &lt; std::string &gt;</text>
</g>
</g>
</svg>
        <g id="navigator" transform="translate(0 0)" fill="#404254">
                <rect fill="#f2f5e9" fill-opacity="0.5" stroke="#606060" stroke-width=".5" x="0" y="0" width="60" height="60"/>
                <use id="zoomplus" xlink:href="#zoomPlus" x="17" y="9" onmousedown="handleZoom(evt,'in')"/>
                <use id="zoomminus" xlink:href="#zoomMin" x="42" y="9" onmousedown="handleZoom(evt,'out')"/>
                <use id="reset" xlink:href="#resetDef" x="30" y="36" onmousedown="handleReset()"/>
                <g id="arrowUp" xlink:href="#dirArrow" transform="translate(30 24)" onmousedown="handlePan(0,-1)">
                  <use xlink:href="#rim" fill="#404040">
                        <set attributeName="fill" to="#808080" begin="arrowUp.mouseover" end="arrowUp.mouseout"/>
                  </use>
                  <path fill="none" stroke="white" stroke-width="1.5" d="M0,-3.0v7 M-2.5,-0.5L0,-3.0L2.5,-0.5"/>
                </g>
                <g id="arrowRight" xlink:href="#dirArrow" transform="rotate(90) translate(36 -43)" onmousedown="handlePan(1,0)">
                  <use xlink:href="#rim" fill="#404040">
                        <set attributeName="fill" to="#808080" begin="arrowRight.mouseover" end="arrowRight.mouseout"/>
                  </use>
                  <path fill="none" stroke="white" stroke-width="1.5" d="M0,-3.0v7 M-2.5,-0.5L0,-3.0L2.5,-0.5"/>
                </g>
                <g id="arrowDown" xlink:href="#dirArrow" transform="rotate(180) translate(-30 -48)" onmousedown="handlePan(0,1)">
                  <use xlink:href="#rim" fill="#404040">
                        <set attributeName="fill" to="#808080" begin="arrowDown.mouseover" end="arrowDown.mouseout"/>
                  </use>
                  <path fill="none" stroke="white" stroke-width="1.5" d="M0,-3.0v7 M-2.5,-0.5L0,-3.0L2.5,-0.5"/>
                </g>
                <g id="arrowLeft" xlink:href="#dirArrow" transform="rotate(270) translate(-36 17)" onmousedown="handlePan(-1,0)">
                  <use xlink:href="#rim" fill="#404040">
                        <set attributeName="fill" to="#808080" begin="arrowLeft.mouseover" end="arrowLeft.mouseout"/>
                  </use>
                  <path fill="none" stroke="white" stroke-width="1.5" d="M0,-3.0v7 M-2.5,-0.5L0,-3.0L2.5,-0.5"/>
                </g>
        </g>
        <svg viewBox="0 0 15 15" width="100%" height="30px" preserveAspectRatio="xMaxYMin meet">
         <g id="arrow_out" transform="scale(0.3 0.3)">
          <a xlink:href="classsr__param_3_01std_1_1string_01_4__inherit__graph_org.svg" target="_base">
           <rect id="button" ry="5" rx="5" y="6" x="6" height="38" width="38"
                fill="#f2f5e9" fill-opacity="0.5" stroke="#606060" stroke-width="1.0"/>
           <path id="arrow"
             d="M 11.500037,31.436501 C 11.940474,20.09759 22.043105,11.32322 32.158766,21.979434 L 37.068811,17.246167 C 37.068811,17.246167 37.088388,32 37.088388,32 L 22.160133,31.978069 C 22.160133,31.978069 26.997745,27.140456 26.997745,27.140456 C 18.528582,18.264221 13.291696,25.230495 11.500037,31.436501 z"
             style="fill:#404040;"/>
          </a>
         </g>
        </svg>
</svg>
