<?xml version="1.0" encoding="UTF-8" standalone="no"?>
<!DOCTYPE svg PUBLIC "-//W3C//DTD SVG 1.1//EN"
 "http://www.w3.org/Graphics/SVG/1.1/DTD/svg11.dtd">
<!-- Generated by graphviz version 2.36.0 (20140111.2315)
 -->
<!-- Title: AHBCtrl Pages: 1 -->
<svg width="290pt" height="706pt"
 viewBox="0.00 0.00 290.00 706.00" xmlns="http://www.w3.org/2000/svg" xmlns:xlink="http://www.w3.org/1999/xlink">
<g id="graph0" class="graph" transform="scale(1 1) rotate(0) translate(4 702)">
<title>AHBCtrl</title>
<polygon fill="white" stroke="none" points="-4,4 -4,-702 286,-702 286,4 -4,4"/>
<!-- Node1 -->
<g id="node1" class="node"><title>Node1</title>
<polygon fill="#bfbfbf" stroke="black" points="110,-0.5 110,-189.5 256,-189.5 256,-0.5 110,-0.5"/>
<text text-anchor="middle" x="183" y="-177.5" font-family="Helvetica,sans-Serif" font-size="10.00">AHBCtrl</text>
<polyline fill="none" stroke="black" points="110,-170.5 256,-170.5 "/>
<text text-anchor="start" x="118" y="-158.5" font-family="Helvetica,sans-Serif" font-size="10.00">+ ahbIN</text>
<text text-anchor="start" x="118" y="-147.5" font-family="Helvetica,sans-Serif" font-size="10.00">+ ahbOUT</text>
<text text-anchor="start" x="118" y="-136.5" font-family="Helvetica,sans-Serif" font-size="10.00">+ snoop</text>
<polyline fill="none" stroke="black" points="110,-129.5 256,-129.5 "/>
<text text-anchor="start" x="118" y="-117.5" font-family="Helvetica,sans-Serif" font-size="10.00">+ GC_HAS_CALLBACKS()</text>
<text text-anchor="start" x="118" y="-106.5" font-family="Helvetica,sans-Serif" font-size="10.00">+ SC_HAS_PROCESS()</text>
<text text-anchor="start" x="118" y="-95.5" font-family="Helvetica,sans-Serif" font-size="10.00">+ SR_HAS_SIGNALS()</text>
<text text-anchor="start" x="118" y="-84.5" font-family="Helvetica,sans-Serif" font-size="10.00">+ b_transport()</text>
<text text-anchor="start" x="118" y="-73.5" font-family="Helvetica,sans-Serif" font-size="10.00">+ nb_transport_fw()</text>
<text text-anchor="start" x="118" y="-62.5" font-family="Helvetica,sans-Serif" font-size="10.00">+ nb_transport_bw()</text>
<text text-anchor="start" x="118" y="-51.5" font-family="Helvetica,sans-Serif" font-size="10.00">+ transport_dbg()</text>
<text text-anchor="start" x="118" y="-40.5" font-family="Helvetica,sans-Serif" font-size="10.00">+ get_direct_mem_ptr()</text>
<text text-anchor="start" x="118" y="-29.5" font-family="Helvetica,sans-Serif" font-size="10.00">+ invalidate_direct_mem_ptr()</text>
<text text-anchor="start" x="118" y="-18.5" font-family="Helvetica,sans-Serif" font-size="10.00">+ arbitrate()</text>
<text text-anchor="start" x="118" y="-7.5" font-family="Helvetica,sans-Serif" font-size="10.00">and 11 more...</text>
</g>
<!-- Node2 -->
<g id="node2" class="node"><title>Node2</title>
<g id="a_node2"><a xlink:href="classBaseModule.html" target="_top" xlink:title="{BaseModule\&lt; DefaultBase \&gt;\n|# m_api\l# m_generics\l# m_counters\l# m_power\l|+ BaseModule()\l+ ~BaseModule()\l+ init_generics()\l+ init_registers()\l+ init_counters()\l+ init_power()\l}">
<polygon fill="white" stroke="black" points="-0.5,-245.5 -0.5,-390.5 142.5,-390.5 142.5,-245.5 -0.5,-245.5"/>
<text text-anchor="middle" x="71" y="-378.5" font-family="Helvetica,sans-Serif" font-size="10.00">BaseModule&lt; DefaultBase &gt;</text>
<polyline fill="none" stroke="black" points="-0.5,-371.5 142.5,-371.5 "/>
<text text-anchor="start" x="7.5" y="-359.5" font-family="Helvetica,sans-Serif" font-size="10.00"># m_api</text>
<text text-anchor="start" x="7.5" y="-348.5" font-family="Helvetica,sans-Serif" font-size="10.00"># m_generics</text>
<text text-anchor="start" x="7.5" y="-337.5" font-family="Helvetica,sans-Serif" font-size="10.00"># m_counters</text>
<text text-anchor="start" x="7.5" y="-326.5" font-family="Helvetica,sans-Serif" font-size="10.00"># m_power</text>
<polyline fill="none" stroke="black" points="-0.5,-319.5 142.5,-319.5 "/>
<text text-anchor="start" x="7.5" y="-307.5" font-family="Helvetica,sans-Serif" font-size="10.00">+ BaseModule()</text>
<text text-anchor="start" x="7.5" y="-296.5" font-family="Helvetica,sans-Serif" font-size="10.00">+ ~BaseModule()</text>
<text text-anchor="start" x="7.5" y="-285.5" font-family="Helvetica,sans-Serif" font-size="10.00">+ init_generics()</text>
<text text-anchor="start" x="7.5" y="-274.5" font-family="Helvetica,sans-Serif" font-size="10.00">+ init_registers()</text>
<text text-anchor="start" x="7.5" y="-263.5" font-family="Helvetica,sans-Serif" font-size="10.00">+ init_counters()</text>
<text text-anchor="start" x="7.5" y="-252.5" font-family="Helvetica,sans-Serif" font-size="10.00">+ init_power()</text>
</a>
</g>
</g>
<!-- Node2&#45;&gt;Node1 -->
<g id="edge1" class="edge"><title>Node2&#45;&gt;Node1</title>
<path fill="none" stroke="midnightblue" d="M112.07,-235.96C119.722,-220.861 127.775,-204.97 135.599,-189.532"/>
<polygon fill="none" stroke="midnightblue" points="108.762,-234.746 107.363,-245.248 115.006,-237.91 108.762,-234.746"/>
</g>
<!-- Node3 -->
<g id="node3" class="node"><title>Node3</title>
<polygon fill="white" stroke="#bfbfbf" points="19.5,-500.5 19.5,-557.5 90.5,-557.5 90.5,-500.5 19.5,-500.5"/>
<text text-anchor="middle" x="55" y="-545.5" font-family="Helvetica,sans-Serif" font-size="10.00">DefaultBase</text>
<polyline fill="none" stroke="#bfbfbf" points="19.5,-538.5 90.5,-538.5 "/>
<text text-anchor="middle" x="55" y="-526.5" font-family="Helvetica,sans-Serif" font-size="10.00"> </text>
<polyline fill="none" stroke="#bfbfbf" points="19.5,-519.5 90.5,-519.5 "/>
<text text-anchor="middle" x="55" y="-507.5" font-family="Helvetica,sans-Serif" font-size="10.00"> </text>
</g>
<!-- Node3&#45;&gt;Node2 -->
<g id="edge2" class="edge"><title>Node3&#45;&gt;Node2</title>
<path fill="none" stroke="midnightblue" d="M57.8951,-490.183C60.017,-462.465 62.9618,-423.999 65.5225,-390.55"/>
<polygon fill="none" stroke="midnightblue" points="54.3983,-490.008 57.1247,-500.246 61.3779,-490.543 54.3983,-490.008"/>
</g>
<!-- Node4 -->
<g id="node4" class="node"><title>Node4</title>
<g id="a_node4"><a xlink:href="classBaseModule.html" target="_top" xlink:title="{BaseModule\&lt; BASE \&gt;\n|# m_api\l# m_generics\l# m_counters\l# m_power\l|+ BaseModule()\l+ ~BaseModule()\l+ init_generics()\l+ init_registers()\l+ init_counters()\l+ init_power()\l}">
<polygon fill="white" stroke="black" points="109,-456.5 109,-601.5 225,-601.5 225,-456.5 109,-456.5"/>
<text text-anchor="middle" x="167" y="-589.5" font-family="Helvetica,sans-Serif" font-size="10.00">BaseModule&lt; BASE &gt;</text>
<polyline fill="none" stroke="black" points="109,-582.5 225,-582.5 "/>
<text text-anchor="start" x="117" y="-570.5" font-family="Helvetica,sans-Serif" font-size="10.00"># m_api</text>
<text text-anchor="start" x="117" y="-559.5" font-family="Helvetica,sans-Serif" font-size="10.00"># m_generics</text>
<text text-anchor="start" x="117" y="-548.5" font-family="Helvetica,sans-Serif" font-size="10.00"># m_counters</text>
<text text-anchor="start" x="117" y="-537.5" font-family="Helvetica,sans-Serif" font-size="10.00"># m_power</text>
<polyline fill="none" stroke="black" points="109,-530.5 225,-530.5 "/>
<text text-anchor="start" x="117" y="-518.5" font-family="Helvetica,sans-Serif" font-size="10.00">+ BaseModule()</text>
<text text-anchor="start" x="117" y="-507.5" font-family="Helvetica,sans-Serif" font-size="10.00">+ ~BaseModule()</text>
<text text-anchor="start" x="117" y="-496.5" font-family="Helvetica,sans-Serif" font-size="10.00">+ init_generics()</text>
<text text-anchor="start" x="117" y="-485.5" font-family="Helvetica,sans-Serif" font-size="10.00">+ init_registers()</text>
<text text-anchor="start" x="117" y="-474.5" font-family="Helvetica,sans-Serif" font-size="10.00">+ init_counters()</text>
<text text-anchor="start" x="117" y="-463.5" font-family="Helvetica,sans-Serif" font-size="10.00">+ init_power()</text>
</a>
</g>
</g>
<!-- Node4&#45;&gt;Node2 -->
<g id="edge3" class="edge"><title>Node4&#45;&gt;Node2</title>
<path fill="none" stroke="orange" d="M129.808,-447.029C121.253,-428.406 112.216,-408.731 103.86,-390.54"/>
<polygon fill="orange" stroke="orange" points="126.742,-448.74 134.097,-456.366 133.103,-445.818 126.742,-448.74"/>
<text text-anchor="middle" x="163" y="-429.5" font-family="Helvetica,sans-Serif" font-size="10.00"> &lt; DefaultBase &gt;</text>
</g>
<!-- Node5 -->
<g id="node5" class="node"><title>Node5</title>
<g id="a_node5"><a xlink:href="classBASE.html" target="_top" xlink:title="{BASE\n||}">
<polygon fill="white" stroke="black" points="145,-640.5 145,-697.5 189,-697.5 189,-640.5 145,-640.5"/>
<text text-anchor="middle" x="167" y="-685.5" font-family="Helvetica,sans-Serif" font-size="10.00">BASE</text>
<polyline fill="none" stroke="black" points="145,-678.5 189,-678.5 "/>
<text text-anchor="middle" x="167" y="-666.5" font-family="Helvetica,sans-Serif" font-size="10.00"> </text>
<polyline fill="none" stroke="black" points="145,-659.5 189,-659.5 "/>
<text text-anchor="middle" x="167" y="-647.5" font-family="Helvetica,sans-Serif" font-size="10.00"> </text>
</a>
</g>
</g>
<!-- Node5&#45;&gt;Node4 -->
<g id="edge4" class="edge"><title>Node5&#45;&gt;Node4</title>
<path fill="none" stroke="midnightblue" d="M167,-630.338C167,-621.368 167,-611.502 167,-601.564"/>
<polygon fill="none" stroke="midnightblue" points="163.5,-630.405 167,-640.405 170.5,-630.405 163.5,-630.405"/>
</g>
<!-- Node6 -->
<g id="node6" class="node"><title>Node6</title>
<g id="a_node6"><a xlink:href="classCLKDevice.html" target="_top" xlink:title="{CLKDevice\n|+ rst\l+ clk\l# clock_cycle\l|+ SR_HAS_SIGNALS()\l+ CLKDevice()\l+ ~CLKDevice()\l+ onrst()\l+ onclk()\l+ set_clk()\l+ set_clk()\l+ set_clk()\l+ dorst()\l+ clkcng()\l}">
<polygon fill="white" stroke="black" points="160.5,-229 160.5,-407 281.5,-407 281.5,-229 160.5,-229"/>
<text text-anchor="middle" x="221" y="-395" font-family="Helvetica,sans-Serif" font-size="10.00">CLKDevice</text>
<polyline fill="none" stroke="black" points="160.5,-388 281.5,-388 "/>
<text text-anchor="start" x="168.5" y="-376" font-family="Helvetica,sans-Serif" font-size="10.00">+ rst</text>
<text text-anchor="start" x="168.5" y="-365" font-family="Helvetica,sans-Serif" font-size="10.00">+ clk</text>
<text text-anchor="start" x="168.5" y="-354" font-family="Helvetica,sans-Serif" font-size="10.00"># clock_cycle</text>
<polyline fill="none" stroke="black" points="160.5,-347 281.5,-347 "/>
<text text-anchor="start" x="168.5" y="-335" font-family="Helvetica,sans-Serif" font-size="10.00">+ SR_HAS_SIGNALS()</text>
<text text-anchor="start" x="168.5" y="-324" font-family="Helvetica,sans-Serif" font-size="10.00">+ CLKDevice()</text>
<text text-anchor="start" x="168.5" y="-313" font-family="Helvetica,sans-Serif" font-size="10.00">+ ~CLKDevice()</text>
<text text-anchor="start" x="168.5" y="-302" font-family="Helvetica,sans-Serif" font-size="10.00">+ onrst()</text>
<text text-anchor="start" x="168.5" y="-291" font-family="Helvetica,sans-Serif" font-size="10.00">+ onclk()</text>
<text text-anchor="start" x="168.5" y="-280" font-family="Helvetica,sans-Serif" font-size="10.00">+ set_clk()</text>
<text text-anchor="start" x="168.5" y="-269" font-family="Helvetica,sans-Serif" font-size="10.00">+ set_clk()</text>
<text text-anchor="start" x="168.5" y="-258" font-family="Helvetica,sans-Serif" font-size="10.00">+ set_clk()</text>
<text text-anchor="start" x="168.5" y="-247" font-family="Helvetica,sans-Serif" font-size="10.00">+ dorst()</text>
<text text-anchor="start" x="168.5" y="-236" font-family="Helvetica,sans-Serif" font-size="10.00">+ clkcng()</text>
</a>
</g>
</g>
<!-- Node6&#45;&gt;Node1 -->
<g id="edge5" class="edge"><title>Node6&#45;&gt;Node1</title>
<path fill="none" stroke="midnightblue" d="M204.095,-218.681C202.432,-209.01 200.747,-199.212 199.092,-189.589"/>
<polygon fill="none" stroke="midnightblue" points="200.674,-219.44 205.818,-228.702 207.572,-218.254 200.674,-219.44"/>
</g>
</g>
</svg>
