<?xml version="1.0" encoding="UTF-8" standalone="no"?>
<!DOCTYPE svg PUBLIC "-//W3C//DTD SVG 1.1//EN"
 "http://www.w3.org/Graphics/SVG/1.1/DTD/svg11.dtd">
<!-- Generated by graphviz version 2.36.0 (20140111.2315)
 -->
<!-- Title: sr_signal::signal_infield::operator() Pages: 1 -->
<svg width="268pt" height="38pt"
 viewBox="0.00 0.00 268.00 38.00" xmlns="http://www.w3.org/2000/svg" xmlns:xlink="http://www.w3.org/1999/xlink">
<g id="graph0" class="graph" transform="scale(1 1) rotate(0) translate(4 34)">
<title>sr_signal::signal_infield::operator()</title>
<polygon fill="white" stroke="none" points="-4,4 -4,-34 264,-34 264,4 -4,4"/>
<!-- Node1 -->
<g id="node1" class="node"><title>Node1</title>
<polygon fill="#bfbfbf" stroke="black" points="0,-0 0,-30 118,-30 118,-0 0,-0"/>
<text text-anchor="start" x="8" y="-18" font-family="Helvetica,sans-Serif" font-size="10.00">sr_signal::signal_infield</text>
<text text-anchor="middle" x="59" y="-7" font-family="Helvetica,sans-Serif" font-size="10.00">::operator()</text>
</g>
<!-- Node2 -->
<g id="node2" class="node"><title>Node2</title>
<g id="a_node2"><a xlink:href="classsr__signal_1_1signal__out__bind__if.html#ac7c60ef8cd575cdeef5e68461f178f45" target="_top" xlink:title="sr_signal::signal_out\l_bind_if::bind">
<polygon fill="white" stroke="black" points="154,-0 154,-30 260,-30 260,-0 154,-0"/>
<text text-anchor="start" x="162" y="-18" font-family="Helvetica,sans-Serif" font-size="10.00">sr_signal::signal_out</text>
<text text-anchor="middle" x="207" y="-7" font-family="Helvetica,sans-Serif" font-size="10.00">_bind_if::bind</text>
</a>
</g>
</g>
<!-- Node1&#45;&gt;Node2 -->
<g id="edge1" class="edge"><title>Node1&#45;&gt;Node2</title>
<path fill="none" stroke="midnightblue" d="M118.123,-15C126.49,-15 135.129,-15 143.576,-15"/>
<polygon fill="midnightblue" stroke="midnightblue" points="143.751,-18.5001 153.751,-15 143.751,-11.5001 143.751,-18.5001"/>
</g>
</g>
</svg>
