<?xml version="1.0" encoding="UTF-8" standalone="no"?>
<!DOCTYPE svg PUBLIC "-//W3C//DTD SVG 1.1//EN"
 "http://www.w3.org/Graphics/SVG/1.1/DTD/svg11.dtd">
<!-- Generated by graphviz version 2.38.0 (20140413.2041)
 -->
<!-- Title: leon3_funcat_trap::STB_reg Pages: 1 -->
<svg width="1399pt" height="826pt"
 viewBox="0.00 0.00 1398.54 826.00" xmlns="http://www.w3.org/2000/svg" xmlns:xlink="http://www.w3.org/1999/xlink">
<g id="graph0" class="graph" transform="scale(1 1) rotate(0) translate(4 822)">
<title>leon3_funcat_trap::STB_reg</title>
<polygon fill="white" stroke="none" points="-4,4 -4,-822 1394.54,-822 1394.54,4 -4,4"/>
<!-- Node1 -->
<g id="node1" class="node"><title>Node1</title>
<polygon fill="#bfbfbf" stroke="black" points="1233.82,-0.5 1233.82,-134.5 1351.8,-134.5 1351.8,-0.5 1233.82,-0.5"/>
<text text-anchor="start" x="1241.82" y="-122.5" font-family="Helvetica,sans-Serif" font-size="10.00">leon3_funcat_trap::</text>
<text text-anchor="middle" x="1292.81" y="-112.5" font-family="Helvetica,sans-Serif" font-size="10.00">STB_reg</text>
<polyline fill="none" stroke="black" points="1233.82,-106.5 1351.8,-106.5 "/>
<text text-anchor="middle" x="1292.81" y="-94.5" font-family="Helvetica,sans-Serif" font-size="10.00"> </text>
<polyline fill="none" stroke="black" points="1233.82,-88.5 1351.8,-88.5 "/>
<text text-anchor="start" x="1241.82" y="-76.5" font-family="Helvetica,sans-Serif" font-size="10.00">+ STB_reg()</text>
<text text-anchor="start" x="1241.82" y="-66.5" font-family="Helvetica,sans-Serif" font-size="10.00">+ behavior()</text>
<text text-anchor="start" x="1241.82" y="-56.5" font-family="Helvetica,sans-Serif" font-size="10.00">+ replicate()</text>
<text text-anchor="start" x="1241.82" y="-46.5" font-family="Helvetica,sans-Serif" font-size="10.00">+ getInstructionName()</text>
<text text-anchor="start" x="1241.82" y="-36.5" font-family="Helvetica,sans-Serif" font-size="10.00">+ getId()</text>
<text text-anchor="start" x="1241.82" y="-26.5" font-family="Helvetica,sans-Serif" font-size="10.00">+ setParams()</text>
<text text-anchor="start" x="1241.82" y="-16.5" font-family="Helvetica,sans-Serif" font-size="10.00">+ getMnemonic()</text>
<text text-anchor="start" x="1241.82" y="-6.5" font-family="Helvetica,sans-Serif" font-size="10.00">+ ~STB_reg()</text>
</g>
<!-- Node2 -->
<g id="node2" class="node"><title>Node2</title>
<g id="a_node2"><a xlink:href="classleon3__funcat__trap_1_1Instruction.html" target="_top" xlink:title="{leon3_funcat_trap::\lInstruction\n||+ Instruction()\l+ behavior()\l+ replicate()\l+ setParams()\l+ getInstructionName()\l+ getMnemonic()\l+ getId()\l+ annull()\l+ flush()\l+ stall()\land 7 more...\l# IncrementPC()\l}">
<polygon fill="white" stroke="black" points="671.816,-181.5 671.816,-355.5 789.804,-355.5 789.804,-181.5 671.816,-181.5"/>
<text text-anchor="start" x="679.816" y="-343.5" font-family="Helvetica,sans-Serif" font-size="10.00">leon3_funcat_trap::</text>
<text text-anchor="middle" x="730.81" y="-333.5" font-family="Helvetica,sans-Serif" font-size="10.00">Instruction</text>
<polyline fill="none" stroke="black" points="671.816,-327.5 789.804,-327.5 "/>
<text text-anchor="middle" x="730.81" y="-315.5" font-family="Helvetica,sans-Serif" font-size="10.00"> </text>
<polyline fill="none" stroke="black" points="671.816,-309.5 789.804,-309.5 "/>
<text text-anchor="start" x="679.816" y="-297.5" font-family="Helvetica,sans-Serif" font-size="10.00">+ Instruction()</text>
<text text-anchor="start" x="679.816" y="-287.5" font-family="Helvetica,sans-Serif" font-size="10.00">+ behavior()</text>
<text text-anchor="start" x="679.816" y="-277.5" font-family="Helvetica,sans-Serif" font-size="10.00">+ replicate()</text>
<text text-anchor="start" x="679.816" y="-267.5" font-family="Helvetica,sans-Serif" font-size="10.00">+ setParams()</text>
<text text-anchor="start" x="679.816" y="-257.5" font-family="Helvetica,sans-Serif" font-size="10.00">+ getInstructionName()</text>
<text text-anchor="start" x="679.816" y="-247.5" font-family="Helvetica,sans-Serif" font-size="10.00">+ getMnemonic()</text>
<text text-anchor="start" x="679.816" y="-237.5" font-family="Helvetica,sans-Serif" font-size="10.00">+ getId()</text>
<text text-anchor="start" x="679.816" y="-227.5" font-family="Helvetica,sans-Serif" font-size="10.00">+ annull()</text>
<text text-anchor="start" x="679.816" y="-217.5" font-family="Helvetica,sans-Serif" font-size="10.00">+ flush()</text>
<text text-anchor="start" x="679.816" y="-207.5" font-family="Helvetica,sans-Serif" font-size="10.00">+ stall()</text>
<text text-anchor="start" x="679.816" y="-197.5" font-family="Helvetica,sans-Serif" font-size="10.00">and 7 more...</text>
<text text-anchor="start" x="679.816" y="-187.5" font-family="Helvetica,sans-Serif" font-size="10.00"># IncrementPC()</text>
</a>
</g>
</g>
<!-- Node2&#45;&gt;Node1 -->
<g id="edge1" class="edge"><title>Node2&#45;&gt;Node1</title>
<path fill="none" stroke="midnightblue" d="M799.345,-243.232C910.639,-203.824 1128.76,-126.589 1233.68,-89.4387"/>
<polygon fill="none" stroke="midnightblue" points="798.15,-239.942 789.892,-246.58 800.486,-246.541 798.15,-239.942"/>
</g>
<!-- Node3 -->
<g id="node3" class="node"><title>Node3</title>
<g id="a_node3"><a xlink:href="classtrap_1_1InstructionBase.html" target="_top" xlink:title="{trap::InstructionBase\n||+ getInstructionName()\l+ getMnemonic()\l+ getId()\l}">
<polygon fill="white" stroke="black" points="870.816,-487.5 870.816,-561.5 988.804,-561.5 988.804,-487.5 870.816,-487.5"/>
<text text-anchor="middle" x="929.81" y="-549.5" font-family="Helvetica,sans-Serif" font-size="10.00">trap::InstructionBase</text>
<polyline fill="none" stroke="black" points="870.816,-543.5 988.804,-543.5 "/>
<text text-anchor="middle" x="929.81" y="-531.5" font-family="Helvetica,sans-Serif" font-size="10.00"> </text>
<polyline fill="none" stroke="black" points="870.816,-525.5 988.804,-525.5 "/>
<text text-anchor="start" x="878.816" y="-513.5" font-family="Helvetica,sans-Serif" font-size="10.00">+ getInstructionName()</text>
<text text-anchor="start" x="878.816" y="-503.5" font-family="Helvetica,sans-Serif" font-size="10.00">+ getMnemonic()</text>
<text text-anchor="start" x="878.816" y="-493.5" font-family="Helvetica,sans-Serif" font-size="10.00">+ getId()</text>
</a>
</g>
</g>
<!-- Node3&#45;&gt;Node2 -->
<g id="edge2" class="edge"><title>Node3&#45;&gt;Node2</title>
<path fill="none" stroke="midnightblue" d="M895.169,-479.284C866.198,-442.307 824.229,-388.738 789.953,-344.989"/>
<polygon fill="none" stroke="midnightblue" points="892.587,-481.664 901.51,-487.378 898.097,-477.347 892.587,-481.664"/>
</g>
<!-- Node4 -->
<g id="node4" class="node"><title>Node4</title>
<g id="a_node4"><a xlink:href="classleon3__funcat__trap_1_1Reg32__0.html" target="_top" xlink:title="{leon3_funcat_trap::\lReg32_0\n||+ Reg32_0()\l+ operator[]()\l+ immediateWrite()\l+ readNewValue()\l+ operator~()\l+ operator=()\l+ operator+=()\l+ operator&#45;=()\l+ operator*=()\l+ operator/=()\land 57 more...\l}">
<polygon fill="white" stroke="black" points="240,-442.5 240,-606.5 341.62,-606.5 341.62,-442.5 240,-442.5"/>
<text text-anchor="start" x="248" y="-594.5" font-family="Helvetica,sans-Serif" font-size="10.00">leon3_funcat_trap::</text>
<text text-anchor="middle" x="290.81" y="-584.5" font-family="Helvetica,sans-Serif" font-size="10.00">Reg32_0</text>
<polyline fill="none" stroke="black" points="240,-578.5 341.62,-578.5 "/>
<text text-anchor="middle" x="290.81" y="-566.5" font-family="Helvetica,sans-Serif" font-size="10.00"> </text>
<polyline fill="none" stroke="black" points="240,-560.5 341.62,-560.5 "/>
<text text-anchor="start" x="248" y="-548.5" font-family="Helvetica,sans-Serif" font-size="10.00">+ Reg32_0()</text>
<text text-anchor="start" x="248" y="-538.5" font-family="Helvetica,sans-Serif" font-size="10.00">+ operator[]()</text>
<text text-anchor="start" x="248" y="-528.5" font-family="Helvetica,sans-Serif" font-size="10.00">+ immediateWrite()</text>
<text text-anchor="start" x="248" y="-518.5" font-family="Helvetica,sans-Serif" font-size="10.00">+ readNewValue()</text>
<text text-anchor="start" x="248" y="-508.5" font-family="Helvetica,sans-Serif" font-size="10.00">+ operator~()</text>
<text text-anchor="start" x="248" y="-498.5" font-family="Helvetica,sans-Serif" font-size="10.00">+ operator=()</text>
<text text-anchor="start" x="248" y="-488.5" font-family="Helvetica,sans-Serif" font-size="10.00">+ operator+=()</text>
<text text-anchor="start" x="248" y="-478.5" font-family="Helvetica,sans-Serif" font-size="10.00">+ operator&#45;=()</text>
<text text-anchor="start" x="248" y="-468.5" font-family="Helvetica,sans-Serif" font-size="10.00">+ operator*=()</text>
<text text-anchor="start" x="248" y="-458.5" font-family="Helvetica,sans-Serif" font-size="10.00">+ operator/=()</text>
<text text-anchor="start" x="248" y="-448.5" font-family="Helvetica,sans-Serif" font-size="10.00">and 57 more...</text>
</a>
</g>
</g>
<!-- Node4&#45;&gt;Node2 -->
<g id="edge3" class="edge"><title>Node4&#45;&gt;Node2</title>
<path fill="none" stroke="#404040" d="M341.66,-451.026C344.642,-447.874 347.698,-444.846 350.81,-442 441.012,-359.518 577.353,-310.834 659.85,-287.222"/>
<polygon fill="none" stroke="#404040" points="660.066,-287.162 664.762,-281.69 671.619,-283.92 666.923,-289.392 660.066,-287.162"/>
<text text-anchor="middle" x="458.261" y="-396" font-family="Helvetica,sans-Serif" font-size="10.00"> #PSR</text>
</g>
<!-- Node5 -->
<g id="node5" class="node"><title>Node5</title>
<g id="a_node5"><a xlink:href="classleon3__funcat__trap_1_1Register.html" target="_top" xlink:title="{leon3_funcat_trap::\lRegister\n||+ Register()\l+ Register()\l+ immediateWrite()\l+ readNewValue()\l+ clockCycle()\l+ operator[]()\l+ operator~()\l+ operator+()\l+ operator&#45;()\l+ operator*()\land 34 more...\l}">
<polygon fill="white" stroke="black" points="87,-653.5 87,-817.5 188.62,-817.5 188.62,-653.5 87,-653.5"/>
<text text-anchor="start" x="95" y="-805.5" font-family="Helvetica,sans-Serif" font-size="10.00">leon3_funcat_trap::</text>
<text text-anchor="middle" x="137.81" y="-795.5" font-family="Helvetica,sans-Serif" font-size="10.00">Register</text>
<polyline fill="none" stroke="black" points="87,-789.5 188.62,-789.5 "/>
<text text-anchor="middle" x="137.81" y="-777.5" font-family="Helvetica,sans-Serif" font-size="10.00"> </text>
<polyline fill="none" stroke="black" points="87,-771.5 188.62,-771.5 "/>
<text text-anchor="start" x="95" y="-759.5" font-family="Helvetica,sans-Serif" font-size="10.00">+ Register()</text>
<text text-anchor="start" x="95" y="-749.5" font-family="Helvetica,sans-Serif" font-size="10.00">+ Register()</text>
<text text-anchor="start" x="95" y="-739.5" font-family="Helvetica,sans-Serif" font-size="10.00">+ immediateWrite()</text>
<text text-anchor="start" x="95" y="-729.5" font-family="Helvetica,sans-Serif" font-size="10.00">+ readNewValue()</text>
<text text-anchor="start" x="95" y="-719.5" font-family="Helvetica,sans-Serif" font-size="10.00">+ clockCycle()</text>
<text text-anchor="start" x="95" y="-709.5" font-family="Helvetica,sans-Serif" font-size="10.00">+ operator[]()</text>
<text text-anchor="start" x="95" y="-699.5" font-family="Helvetica,sans-Serif" font-size="10.00">+ operator~()</text>
<text text-anchor="start" x="95" y="-689.5" font-family="Helvetica,sans-Serif" font-size="10.00">+ operator+()</text>
<text text-anchor="start" x="95" y="-679.5" font-family="Helvetica,sans-Serif" font-size="10.00">+ operator&#45;()</text>
<text text-anchor="start" x="95" y="-669.5" font-family="Helvetica,sans-Serif" font-size="10.00">+ operator*()</text>
<text text-anchor="start" x="95" y="-659.5" font-family="Helvetica,sans-Serif" font-size="10.00">and 34 more...</text>
</a>
</g>
</g>
<!-- Node5&#45;&gt;Node4 -->
<g id="edge4" class="edge"><title>Node5&#45;&gt;Node4</title>
<path fill="none" stroke="midnightblue" d="M194.696,-656.597C202.46,-645.976 210.329,-635.218 217.81,-625 224.961,-615.233 232.511,-604.93 239.936,-594.805"/>
<polygon fill="none" stroke="midnightblue" points="191.863,-654.542 188.788,-664.68 197.515,-658.672 191.863,-654.542"/>
</g>
<!-- Node6 -->
<g id="node6" class="node"><title>Node6</title>
<g id="a_node6"><a xlink:href="classleon3__funcat__trap_1_1Reg32__1.html" target="_top" xlink:title="{leon3_funcat_trap::\lReg32_1\n||+ Reg32_1()\l+ operator[]()\l+ immediateWrite()\l+ readNewValue()\l+ operator~()\l+ operator=()\l+ operator+=()\l+ operator&#45;=()\l+ operator*=()\l+ operator/=()\land 57 more...\l}">
<polygon fill="white" stroke="black" points="360,-442.5 360,-606.5 461.62,-606.5 461.62,-442.5 360,-442.5"/>
<text text-anchor="start" x="368" y="-594.5" font-family="Helvetica,sans-Serif" font-size="10.00">leon3_funcat_trap::</text>
<text text-anchor="middle" x="410.81" y="-584.5" font-family="Helvetica,sans-Serif" font-size="10.00">Reg32_1</text>
<polyline fill="none" stroke="black" points="360,-578.5 461.62,-578.5 "/>
<text text-anchor="middle" x="410.81" y="-566.5" font-family="Helvetica,sans-Serif" font-size="10.00"> </text>
<polyline fill="none" stroke="black" points="360,-560.5 461.62,-560.5 "/>
<text text-anchor="start" x="368" y="-548.5" font-family="Helvetica,sans-Serif" font-size="10.00">+ Reg32_1()</text>
<text text-anchor="start" x="368" y="-538.5" font-family="Helvetica,sans-Serif" font-size="10.00">+ operator[]()</text>
<text text-anchor="start" x="368" y="-528.5" font-family="Helvetica,sans-Serif" font-size="10.00">+ immediateWrite()</text>
<text text-anchor="start" x="368" y="-518.5" font-family="Helvetica,sans-Serif" font-size="10.00">+ readNewValue()</text>
<text text-anchor="start" x="368" y="-508.5" font-family="Helvetica,sans-Serif" font-size="10.00">+ operator~()</text>
<text text-anchor="start" x="368" y="-498.5" font-family="Helvetica,sans-Serif" font-size="10.00">+ operator=()</text>
<text text-anchor="start" x="368" y="-488.5" font-family="Helvetica,sans-Serif" font-size="10.00">+ operator+=()</text>
<text text-anchor="start" x="368" y="-478.5" font-family="Helvetica,sans-Serif" font-size="10.00">+ operator&#45;=()</text>
<text text-anchor="start" x="368" y="-468.5" font-family="Helvetica,sans-Serif" font-size="10.00">+ operator*=()</text>
<text text-anchor="start" x="368" y="-458.5" font-family="Helvetica,sans-Serif" font-size="10.00">+ operator/=()</text>
<text text-anchor="start" x="368" y="-448.5" font-family="Helvetica,sans-Serif" font-size="10.00">and 57 more...</text>
</a>
</g>
</g>
<!-- Node5&#45;&gt;Node6 -->
<g id="edge6" class="edge"><title>Node5&#45;&gt;Node6</title>
<path fill="none" stroke="midnightblue" d="M196.125,-654.537C196.685,-654.019 197.247,-653.506 197.81,-653 216.179,-636.491 222.601,-633.444 245.81,-625 290.304,-608.812 310.519,-631.868 350.81,-607 353.95,-605.062 356.978,-602.894 359.893,-600.546"/>
<polygon fill="none" stroke="midnightblue" points="193.651,-652.062 188.975,-661.569 198.559,-657.053 193.651,-652.062"/>
</g>
<!-- Node7 -->
<g id="node7" class="node"><title>Node7</title>
<g id="a_node7"><a xlink:href="classleon3__funcat__trap_1_1Reg32__2.html" target="_top" xlink:title="{leon3_funcat_trap::\lReg32_2\n||+ Reg32_2()\l+ operator[]()\l+ immediateWrite()\l+ readNewValue()\l+ operator~()\l+ operator=()\l+ operator+=()\l+ operator&#45;=()\l+ operator*=()\l+ operator/=()\land 57 more...\l}">
<polygon fill="white" stroke="black" points="0,-442.5 0,-606.5 101.62,-606.5 101.62,-442.5 0,-442.5"/>
<text text-anchor="start" x="8" y="-594.5" font-family="Helvetica,sans-Serif" font-size="10.00">leon3_funcat_trap::</text>
<text text-anchor="middle" x="50.8101" y="-584.5" font-family="Helvetica,sans-Serif" font-size="10.00">Reg32_2</text>
<polyline fill="none" stroke="black" points="0,-578.5 101.62,-578.5 "/>
<text text-anchor="middle" x="50.8101" y="-566.5" font-family="Helvetica,sans-Serif" font-size="10.00"> </text>
<polyline fill="none" stroke="black" points="0,-560.5 101.62,-560.5 "/>
<text text-anchor="start" x="8" y="-548.5" font-family="Helvetica,sans-Serif" font-size="10.00">+ Reg32_2()</text>
<text text-anchor="start" x="8" y="-538.5" font-family="Helvetica,sans-Serif" font-size="10.00">+ operator[]()</text>
<text text-anchor="start" x="8" y="-528.5" font-family="Helvetica,sans-Serif" font-size="10.00">+ immediateWrite()</text>
<text text-anchor="start" x="8" y="-518.5" font-family="Helvetica,sans-Serif" font-size="10.00">+ readNewValue()</text>
<text text-anchor="start" x="8" y="-508.5" font-family="Helvetica,sans-Serif" font-size="10.00">+ operator~()</text>
<text text-anchor="start" x="8" y="-498.5" font-family="Helvetica,sans-Serif" font-size="10.00">+ operator=()</text>
<text text-anchor="start" x="8" y="-488.5" font-family="Helvetica,sans-Serif" font-size="10.00">+ operator+=()</text>
<text text-anchor="start" x="8" y="-478.5" font-family="Helvetica,sans-Serif" font-size="10.00">+ operator&#45;=()</text>
<text text-anchor="start" x="8" y="-468.5" font-family="Helvetica,sans-Serif" font-size="10.00">+ operator*=()</text>
<text text-anchor="start" x="8" y="-458.5" font-family="Helvetica,sans-Serif" font-size="10.00">+ operator/=()</text>
<text text-anchor="start" x="8" y="-448.5" font-family="Helvetica,sans-Serif" font-size="10.00">and 57 more...</text>
</a>
</g>
</g>
<!-- Node5&#45;&gt;Node7 -->
<g id="edge8" class="edge"><title>Node5&#45;&gt;Node7</title>
<path fill="none" stroke="midnightblue" d="M100.117,-643.95C94.9404,-631.514 89.6519,-618.81 84.5521,-606.558"/>
<polygon fill="none" stroke="midnightblue" points="96.9748,-645.509 104.049,-653.396 103.437,-642.819 96.9748,-645.509"/>
</g>
<!-- Node8 -->
<g id="node8" class="node"><title>Node8</title>
<g id="a_node8"><a xlink:href="classleon3__funcat__trap_1_1Reg32__3.html" target="_top" xlink:title="{leon3_funcat_trap::\lReg32_3\n||+ Reg32_3()\l+ operator[]()\l+ immediateWrite()\l+ readNewValue()\l+ operator~()\l+ operator=()\l+ operator+=()\l+ operator&#45;=()\l+ operator*=()\l+ operator/=()\land 57 more...\l}">
<polygon fill="white" stroke="black" points="120,-442.5 120,-606.5 221.62,-606.5 221.62,-442.5 120,-442.5"/>
<text text-anchor="start" x="128" y="-594.5" font-family="Helvetica,sans-Serif" font-size="10.00">leon3_funcat_trap::</text>
<text text-anchor="middle" x="170.81" y="-584.5" font-family="Helvetica,sans-Serif" font-size="10.00">Reg32_3</text>
<polyline fill="none" stroke="black" points="120,-578.5 221.62,-578.5 "/>
<text text-anchor="middle" x="170.81" y="-566.5" font-family="Helvetica,sans-Serif" font-size="10.00"> </text>
<polyline fill="none" stroke="black" points="120,-560.5 221.62,-560.5 "/>
<text text-anchor="start" x="128" y="-548.5" font-family="Helvetica,sans-Serif" font-size="10.00">+ Reg32_3()</text>
<text text-anchor="start" x="128" y="-538.5" font-family="Helvetica,sans-Serif" font-size="10.00">+ operator[]()</text>
<text text-anchor="start" x="128" y="-528.5" font-family="Helvetica,sans-Serif" font-size="10.00">+ immediateWrite()</text>
<text text-anchor="start" x="128" y="-518.5" font-family="Helvetica,sans-Serif" font-size="10.00">+ readNewValue()</text>
<text text-anchor="start" x="128" y="-508.5" font-family="Helvetica,sans-Serif" font-size="10.00">+ operator~()</text>
<text text-anchor="start" x="128" y="-498.5" font-family="Helvetica,sans-Serif" font-size="10.00">+ operator=()</text>
<text text-anchor="start" x="128" y="-488.5" font-family="Helvetica,sans-Serif" font-size="10.00">+ operator+=()</text>
<text text-anchor="start" x="128" y="-478.5" font-family="Helvetica,sans-Serif" font-size="10.00">+ operator&#45;=()</text>
<text text-anchor="start" x="128" y="-468.5" font-family="Helvetica,sans-Serif" font-size="10.00">+ operator*=()</text>
<text text-anchor="start" x="128" y="-458.5" font-family="Helvetica,sans-Serif" font-size="10.00">+ operator/=()</text>
<text text-anchor="start" x="128" y="-448.5" font-family="Helvetica,sans-Serif" font-size="10.00">and 57 more...</text>
</a>
</g>
</g>
<!-- Node5&#45;&gt;Node8 -->
<g id="edge10" class="edge"><title>Node5&#45;&gt;Node8</title>
<path fill="none" stroke="midnightblue" d="M152.223,-643.218C154.15,-631.016 156.115,-618.569 158.011,-606.558"/>
<polygon fill="none" stroke="midnightblue" points="148.718,-642.972 150.616,-653.396 155.633,-644.064 148.718,-642.972"/>
</g>
<!-- Node6&#45;&gt;Node2 -->
<g id="edge5" class="edge"><title>Node6&#45;&gt;Node2</title>
<path fill="none" stroke="#404040" d="M461.876,-451.256C464.802,-448.043 467.786,-444.939 470.81,-442 527.988,-386.432 605.365,-337.738 660.812,-306.384"/>
<polygon fill="none" stroke="#404040" points="661.126,-306.208 664.408,-299.787 671.597,-300.347 668.315,-306.768 661.126,-306.208"/>
<text text-anchor="middle" x="565.253" y="-396" font-family="Helvetica,sans-Serif" font-size="10.00"> #WIM</text>
</g>
<!-- Node7&#45;&gt;Node2 -->
<g id="edge7" class="edge"><title>Node7&#45;&gt;Node2</title>
<path fill="none" stroke="#404040" d="M101.738,-451.111C104.7,-447.937 107.73,-444.88 110.81,-442 151.873,-403.602 165.35,-395.072 217.47,-374 367.822,-313.215 557.775,-286.408 659.218,-275.736"/>
<polygon fill="none" stroke="#404040" points="659.502,-275.707 665.063,-271.117 671.44,-274.484 665.879,-279.075 659.502,-275.707"/>
<text text-anchor="middle" x="231.98" y="-396" font-family="Helvetica,sans-Serif" font-size="10.00"> #TBR</text>
</g>
<!-- Node8&#45;&gt;Node2 -->
<g id="edge9" class="edge"><title>Node8&#45;&gt;Node2</title>
<path fill="none" stroke="#404040" d="M221.693,-451.841C224.688,-448.437 227.735,-445.136 230.81,-442 265.578,-406.542 274.787,-395.669 319.47,-374 431.632,-319.608 575.193,-291.468 659.669,-278.637"/>
<polygon fill="none" stroke="#404040" points="659.822,-278.615 665.171,-273.778 671.693,-276.854 666.344,-281.691 659.822,-278.615"/>
<text text-anchor="middle" x="346.48" y="-416" font-family="Helvetica,sans-Serif" font-size="10.00"> #Y</text>
<text text-anchor="middle" x="346.48" y="-406" font-family="Helvetica,sans-Serif" font-size="10.00">#WINREGS</text>
<text text-anchor="middle" x="346.48" y="-396" font-family="Helvetica,sans-Serif" font-size="10.00">#PC</text>
<text text-anchor="middle" x="346.48" y="-386" font-family="Helvetica,sans-Serif" font-size="10.00">#ASR</text>
<text text-anchor="middle" x="346.48" y="-376" font-family="Helvetica,sans-Serif" font-size="10.00">#NPC</text>
</g>
<!-- Node9 -->
<g id="node9" class="node"><title>Node9</title>
<g id="a_node9"><a xlink:href="classleon3__funcat__trap_1_1TLMMemory.html" target="_top" xlink:title="{leon3_funcat_trap::\lTLMMemory\n||+ TLMMemory()\l+ setDebugger()\l+ nb_transport_bw()\l+ peq_cb()\l+ read_dword()\l+ read_word()\l+ read_half()\l+ read_byte()\l+ read_instr()\l+ write_dword()\land 13 more...\l}">
<polygon fill="white" stroke="black" points="479.925,-442.5 479.925,-606.5 585.695,-606.5 585.695,-442.5 479.925,-442.5"/>
<text text-anchor="start" x="487.925" y="-594.5" font-family="Helvetica,sans-Serif" font-size="10.00">leon3_funcat_trap::</text>
<text text-anchor="middle" x="532.81" y="-584.5" font-family="Helvetica,sans-Serif" font-size="10.00">TLMMemory</text>
<polyline fill="none" stroke="black" points="479.925,-578.5 585.695,-578.5 "/>
<text text-anchor="middle" x="532.81" y="-566.5" font-family="Helvetica,sans-Serif" font-size="10.00"> </text>
<polyline fill="none" stroke="black" points="479.925,-560.5 585.695,-560.5 "/>
<text text-anchor="start" x="487.925" y="-548.5" font-family="Helvetica,sans-Serif" font-size="10.00">+ TLMMemory()</text>
<text text-anchor="start" x="487.925" y="-538.5" font-family="Helvetica,sans-Serif" font-size="10.00">+ setDebugger()</text>
<text text-anchor="start" x="487.925" y="-528.5" font-family="Helvetica,sans-Serif" font-size="10.00">+ nb_transport_bw()</text>
<text text-anchor="start" x="487.925" y="-518.5" font-family="Helvetica,sans-Serif" font-size="10.00">+ peq_cb()</text>
<text text-anchor="start" x="487.925" y="-508.5" font-family="Helvetica,sans-Serif" font-size="10.00">+ read_dword()</text>
<text text-anchor="start" x="487.925" y="-498.5" font-family="Helvetica,sans-Serif" font-size="10.00">+ read_word()</text>
<text text-anchor="start" x="487.925" y="-488.5" font-family="Helvetica,sans-Serif" font-size="10.00">+ read_half()</text>
<text text-anchor="start" x="487.925" y="-478.5" font-family="Helvetica,sans-Serif" font-size="10.00">+ read_byte()</text>
<text text-anchor="start" x="487.925" y="-468.5" font-family="Helvetica,sans-Serif" font-size="10.00">+ read_instr()</text>
<text text-anchor="start" x="487.925" y="-458.5" font-family="Helvetica,sans-Serif" font-size="10.00">+ write_dword()</text>
<text text-anchor="start" x="487.925" y="-448.5" font-family="Helvetica,sans-Serif" font-size="10.00">and 13 more...</text>
</a>
</g>
</g>
<!-- Node9&#45;&gt;Node2 -->
<g id="edge11" class="edge"><title>Node9&#45;&gt;Node2</title>
<path fill="none" stroke="#404040" d="M585.903,-444.281C602.033,-421.218 620.164,-396.252 637.786,-374 646.008,-363.617 654.948,-352.916 663.927,-342.504"/>
<polygon fill="none" stroke="#404040" points="663.933,-342.496 664.854,-335.344 671.81,-333.443 670.889,-340.595 663.933,-342.496"/>
<text text-anchor="middle" x="662.822" y="-401" font-family="Helvetica,sans-Serif" font-size="10.00"> #dataMem</text>
<text text-anchor="middle" x="662.822" y="-391" font-family="Helvetica,sans-Serif" font-size="10.00">#instrMem</text>
</g>
<!-- Node10 -->
<g id="node10" class="node"><title>Node10</title>
<g id="a_node10"><a xlink:href="classleon3__funcat__trap_1_1MemoryInterface.html" target="_top" xlink:title="{leon3_funcat_trap::\lMemoryInterface\n||+ read_dword()\l+ read_word()\l+ read_half()\l+ read_byte()\l+ read_instr()\l+ read_dword_dbg()\l+ read_word_dbg()\l+ read_half_dbg()\l+ read_byte_dbg()\l+ write_dword()\land 12 more...\l}">
<polygon fill="white" stroke="black" points="206.642,-653.5 206.642,-817.5 312.979,-817.5 312.979,-653.5 206.642,-653.5"/>
<text text-anchor="start" x="214.642" y="-805.5" font-family="Helvetica,sans-Serif" font-size="10.00">leon3_funcat_trap::</text>
<text text-anchor="middle" x="259.81" y="-795.5" font-family="Helvetica,sans-Serif" font-size="10.00">MemoryInterface</text>
<polyline fill="none" stroke="black" points="206.642,-789.5 312.979,-789.5 "/>
<text text-anchor="middle" x="259.81" y="-777.5" font-family="Helvetica,sans-Serif" font-size="10.00"> </text>
<polyline fill="none" stroke="black" points="206.642,-771.5 312.979,-771.5 "/>
<text text-anchor="start" x="214.642" y="-759.5" font-family="Helvetica,sans-Serif" font-size="10.00">+ read_dword()</text>
<text text-anchor="start" x="214.642" y="-749.5" font-family="Helvetica,sans-Serif" font-size="10.00">+ read_word()</text>
<text text-anchor="start" x="214.642" y="-739.5" font-family="Helvetica,sans-Serif" font-size="10.00">+ read_half()</text>
<text text-anchor="start" x="214.642" y="-729.5" font-family="Helvetica,sans-Serif" font-size="10.00">+ read_byte()</text>
<text text-anchor="start" x="214.642" y="-719.5" font-family="Helvetica,sans-Serif" font-size="10.00">+ read_instr()</text>
<text text-anchor="start" x="214.642" y="-709.5" font-family="Helvetica,sans-Serif" font-size="10.00">+ read_dword_dbg()</text>
<text text-anchor="start" x="214.642" y="-699.5" font-family="Helvetica,sans-Serif" font-size="10.00">+ read_word_dbg()</text>
<text text-anchor="start" x="214.642" y="-689.5" font-family="Helvetica,sans-Serif" font-size="10.00">+ read_half_dbg()</text>
<text text-anchor="start" x="214.642" y="-679.5" font-family="Helvetica,sans-Serif" font-size="10.00">+ read_byte_dbg()</text>
<text text-anchor="start" x="214.642" y="-669.5" font-family="Helvetica,sans-Serif" font-size="10.00">+ write_dword()</text>
<text text-anchor="start" x="214.642" y="-659.5" font-family="Helvetica,sans-Serif" font-size="10.00">and 12 more...</text>
</a>
</g>
</g>
<!-- Node10&#45;&gt;Node9 -->
<g id="edge12" class="edge"><title>Node10&#45;&gt;Node9</title>
<path fill="none" stroke="midnightblue" d="M320.92,-654.344C321.547,-653.888 322.177,-653.44 322.81,-653 379.385,-613.707 414.387,-646.511 470.81,-607 473.868,-604.858 476.842,-602.52 479.724,-600.031"/>
<polygon fill="none" stroke="midnightblue" points="318.609,-651.711 312.98,-660.686 322.978,-657.18 318.609,-651.711"/>
</g>
<!-- Node11 -->
<g id="node11" class="node"><title>Node11</title>
<polygon fill="white" stroke="#bfbfbf" points="540.63,-708.5 540.63,-762.5 604.99,-762.5 604.99,-708.5 540.63,-708.5"/>
<text text-anchor="middle" x="572.81" y="-750.5" font-family="Helvetica,sans-Serif" font-size="10.00">sc_module</text>
<polyline fill="none" stroke="#bfbfbf" points="540.63,-744.5 604.99,-744.5 "/>
<text text-anchor="middle" x="572.81" y="-732.5" font-family="Helvetica,sans-Serif" font-size="10.00"> </text>
<polyline fill="none" stroke="#bfbfbf" points="540.63,-726.5 604.99,-726.5 "/>
<text text-anchor="middle" x="572.81" y="-714.5" font-family="Helvetica,sans-Serif" font-size="10.00"> </text>
</g>
<!-- Node11&#45;&gt;Node9 -->
<g id="edge13" class="edge"><title>Node11&#45;&gt;Node9</title>
<path fill="none" stroke="midnightblue" d="M562.201,-698.467C556.974,-679.681 550.927,-656.247 546.81,-635 545.042,-625.875 543.441,-616.277 542.008,-606.713"/>
<polygon fill="none" stroke="midnightblue" points="558.837,-699.434 564.923,-708.106 565.573,-697.531 558.837,-699.434"/>
</g>
<!-- Node16 -->
<g id="node16" class="node"><title>Node16</title>
<g id="a_node16"><a xlink:href="classleon3__funcat__trap_1_1PinTLM__out__32.html" target="_top" xlink:title="{leon3_funcat_trap::\lPinTLM_out_32\n||+ SK_HAS_SIGNALS()\l+ PinTLM_out_32()\l+ send_pin_req()\l+ on_run()\l}">
<polygon fill="white" stroke="black" points="603.984,-477.5 603.984,-571.5 723.636,-571.5 723.636,-477.5 603.984,-477.5"/>
<text text-anchor="start" x="611.984" y="-559.5" font-family="Helvetica,sans-Serif" font-size="10.00">leon3_funcat_trap::</text>
<text text-anchor="middle" x="663.81" y="-549.5" font-family="Helvetica,sans-Serif" font-size="10.00">PinTLM_out_32</text>
<polyline fill="none" stroke="black" points="603.984,-543.5 723.636,-543.5 "/>
<text text-anchor="middle" x="663.81" y="-531.5" font-family="Helvetica,sans-Serif" font-size="10.00"> </text>
<polyline fill="none" stroke="black" points="603.984,-525.5 723.636,-525.5 "/>
<text text-anchor="start" x="611.984" y="-513.5" font-family="Helvetica,sans-Serif" font-size="10.00">+ SK_HAS_SIGNALS()</text>
<text text-anchor="start" x="611.984" y="-503.5" font-family="Helvetica,sans-Serif" font-size="10.00">+ PinTLM_out_32()</text>
<text text-anchor="start" x="611.984" y="-493.5" font-family="Helvetica,sans-Serif" font-size="10.00">+ send_pin_req()</text>
<text text-anchor="start" x="611.984" y="-483.5" font-family="Helvetica,sans-Serif" font-size="10.00">+ on_run()</text>
</a>
</g>
</g>
<!-- Node11&#45;&gt;Node16 -->
<g id="edge19" class="edge"><title>Node11&#45;&gt;Node16</title>
<path fill="none" stroke="midnightblue" d="M572.698,-698.075C573.777,-676.162 577.226,-648.127 586.81,-625 594.713,-605.931 607.273,-587.382 619.976,-571.568"/>
<polygon fill="none" stroke="midnightblue" points="569.193,-698.177 572.342,-708.292 576.188,-698.42 569.193,-698.177"/>
</g>
<!-- Node12 -->
<g id="node12" class="node"><title>Node12</title>
<polygon fill="white" stroke="#bfbfbf" points="331.354,-703.5 331.354,-767.5 522.266,-767.5 522.266,-703.5 331.354,-703.5"/>
<text text-anchor="start" x="339.354" y="-755.5" font-family="Helvetica,sans-Serif" font-size="10.00">simple_initiator_socket</text>
<text text-anchor="middle" x="426.81" y="-745.5" font-family="Helvetica,sans-Serif" font-size="10.00">&lt; leon3_funcat_trap::TLMMemory, 32 &gt;</text>
<polyline fill="none" stroke="#bfbfbf" points="331.354,-739.5 522.266,-739.5 "/>
<text text-anchor="middle" x="426.81" y="-727.5" font-family="Helvetica,sans-Serif" font-size="10.00"> </text>
<polyline fill="none" stroke="#bfbfbf" points="331.354,-721.5 522.266,-721.5 "/>
<text text-anchor="middle" x="426.81" y="-709.5" font-family="Helvetica,sans-Serif" font-size="10.00"> </text>
</g>
<!-- Node12&#45;&gt;Node9 -->
<g id="edge14" class="edge"><title>Node12&#45;&gt;Node9</title>
<path fill="none" stroke="#404040" d="M442.679,-703.211C454.252,-680.393 470.571,-648.217 486.149,-617.502"/>
<polygon fill="none" stroke="#404040" points="486.191,-617.418 485.338,-610.258 491.619,-606.716 492.472,-613.877 486.191,-617.418"/>
<text text-anchor="middle" x="505.796" y="-627" font-family="Helvetica,sans-Serif" font-size="10.00"> +initSocket</text>
</g>
<!-- Node13 -->
<g id="node13" class="node"><title>Node13</title>
<g id="a_node13"><a xlink:href="classint.html" target="_top" xlink:title="{int\n||}">
<polygon fill="white" stroke="black" points="1270.31,-497.5 1270.31,-551.5 1299.31,-551.5 1299.31,-497.5 1270.31,-497.5"/>
<text text-anchor="middle" x="1284.59" y="-539.5" font-family="Helvetica,sans-Serif" font-size="10.00">int</text>
<polyline fill="none" stroke="black" points="1270.31,-533.5 1298.87,-533.5 "/>
<text text-anchor="middle" x="1284.59" y="-521.5" font-family="Helvetica,sans-Serif" font-size="10.00"> </text>
<polyline fill="none" stroke="black" points="1270.31,-515.5 1298.87,-515.5 "/>
<text text-anchor="middle" x="1284.59" y="-503.5" font-family="Helvetica,sans-Serif" font-size="10.00"> </text>
</a>
</g>
</g>
<!-- Node13&#45;&gt;Node1 -->
<g id="edge27" class="edge"><title>Node13&#45;&gt;Node1</title>
<path fill="none" stroke="#404040" d="M1285.27,-497.403C1286.44,-430.56 1289.6,-251.128 1291.43,-146.741"/>
<polygon fill="none" stroke="#404040" points="1291.43,-146.705 1287.54,-140.635 1291.65,-134.707 1295.54,-140.776 1291.43,-146.705"/>
<text text-anchor="middle" x="1312.77" y="-265.5" font-family="Helvetica,sans-Serif" font-size="10.00"> #address</text>
</g>
<!-- Node13&#45;&gt;Node2 -->
<g id="edge15" class="edge"><title>Node13&#45;&gt;Node2</title>
<path fill="none" stroke="#404040" d="M1282.47,-497.375C1279.51,-479.485 1272.85,-456.466 1257.81,-442 1237.02,-422.006 1219.79,-439.492 1195.47,-424 1170.58,-408.154 1176.99,-389.373 1151.81,-374 1041.47,-306.626 889.789,-282.62 801.837,-274.115"/>
<polygon fill="none" stroke="#404040" points="801.81,-274.113 795.469,-277.547 789.86,-273.015 796.201,-269.58 801.81,-274.113"/>
<text text-anchor="middle" x="1237.48" y="-401" font-family="Helvetica,sans-Serif" font-size="10.00"> #NUM_REG_WIN</text>
<text text-anchor="middle" x="1237.48" y="-391" font-family="Helvetica,sans-Serif" font-size="10.00">+totalInstrCycles</text>
</g>
<!-- Node14 -->
<g id="node14" class="node"><title>Node14</title>
<g id="a_node14"><a xlink:href="classbool.html" target="_top" xlink:title="{bool\n||}">
<polygon fill="white" stroke="black" points="835.357,-708.5 835.357,-762.5 870.263,-762.5 870.263,-708.5 835.357,-708.5"/>
<text text-anchor="middle" x="852.81" y="-750.5" font-family="Helvetica,sans-Serif" font-size="10.00">bool</text>
<polyline fill="none" stroke="black" points="835.357,-744.5 870.263,-744.5 "/>
<text text-anchor="middle" x="852.81" y="-732.5" font-family="Helvetica,sans-Serif" font-size="10.00"> </text>
<polyline fill="none" stroke="black" points="835.357,-726.5 870.263,-726.5 "/>
<text text-anchor="middle" x="852.81" y="-714.5" font-family="Helvetica,sans-Serif" font-size="10.00"> </text>
</a>
</g>
</g>
<!-- Node14&#45;&gt;Node2 -->
<g id="edge16" class="edge"><title>Node14&#45;&gt;Node2</title>
<path fill="none" stroke="#404040" d="M854.424,-708.1C854.446,-683.53 850.478,-647.426 829.81,-625 810.762,-604.331 787.241,-628.54 769.183,-607 767.24,-604.682 752.011,-466.567 741.333,-367.761"/>
<polygon fill="none" stroke="#404040" points="741.31,-367.547 736.69,-362.011 740.022,-355.616 744.643,-361.152 741.31,-367.547"/>
<text text-anchor="middle" x="816.124" y="-521.5" font-family="Helvetica,sans-Serif" font-size="10.00"> #PIPELINED_MULT</text>
</g>
<!-- Node14&#45;&gt;Node16 -->
<g id="edge23" class="edge"><title>Node14&#45;&gt;Node16</title>
<path fill="none" stroke="#404040" d="M840.374,-708.135C831.621,-691.244 818.815,-669.481 803.81,-653 789.687,-637.487 783.087,-636.9 765.81,-625 753.627,-616.608 749.102,-616.558 737.81,-607 728.303,-598.953 718.841,-589.721 710.017,-580.429"/>
<polygon fill="none" stroke="#404040" points="709.932,-580.337 702.919,-578.657 701.771,-571.538 708.784,-573.217 709.932,-580.337"/>
<text text-anchor="middle" x="803.912" y="-627" font-family="Helvetica,sans-Serif" font-size="10.00"> +stopped</text>
</g>
<!-- Node15 -->
<g id="node15" class="node"><title>Node15</title>
<g id="a_node15"><a xlink:href="classleon3__funcat__trap_1_1RegisterBankClass.html" target="_top" xlink:title="{leon3_funcat_trap::\lRegisterBankClass\n||+ RegisterBankClass()\l+ RegisterBankClass()\l+ setNewRegister()\l+ setSize()\l+ operator[]()\l+ ~RegisterBankClass()\l}">
<polygon fill="white" stroke="black" points="1006.73,-467.5 1006.73,-581.5 1128.89,-581.5 1128.89,-467.5 1006.73,-467.5"/>
<text text-anchor="start" x="1014.73" y="-569.5" font-family="Helvetica,sans-Serif" font-size="10.00">leon3_funcat_trap::</text>
<text text-anchor="middle" x="1067.81" y="-559.5" font-family="Helvetica,sans-Serif" font-size="10.00">RegisterBankClass</text>
<polyline fill="none" stroke="black" points="1006.73,-553.5 1128.89,-553.5 "/>
<text text-anchor="middle" x="1067.81" y="-541.5" font-family="Helvetica,sans-Serif" font-size="10.00"> </text>
<polyline fill="none" stroke="black" points="1006.73,-535.5 1128.89,-535.5 "/>
<text text-anchor="start" x="1014.73" y="-523.5" font-family="Helvetica,sans-Serif" font-size="10.00">+ RegisterBankClass()</text>
<text text-anchor="start" x="1014.73" y="-513.5" font-family="Helvetica,sans-Serif" font-size="10.00">+ RegisterBankClass()</text>
<text text-anchor="start" x="1014.73" y="-503.5" font-family="Helvetica,sans-Serif" font-size="10.00">+ setNewRegister()</text>
<text text-anchor="start" x="1014.73" y="-493.5" font-family="Helvetica,sans-Serif" font-size="10.00">+ setSize()</text>
<text text-anchor="start" x="1014.73" y="-483.5" font-family="Helvetica,sans-Serif" font-size="10.00">+ operator[]()</text>
<text text-anchor="start" x="1014.73" y="-473.5" font-family="Helvetica,sans-Serif" font-size="10.00">+ ~RegisterBankClass()</text>
</a>
</g>
</g>
<!-- Node15&#45;&gt;Node2 -->
<g id="edge17" class="edge"><title>Node15&#45;&gt;Node2</title>
<path fill="none" stroke="#404040" d="M1023.15,-467.123C1015.12,-458.303 1006.52,-449.602 997.81,-442 936.279,-388.318 856.681,-339.064 800.455,-307.053"/>
<polygon fill="none" stroke="#404040" points="800.335,-306.985 793.143,-307.516 789.887,-301.082 797.078,-300.551 800.335,-306.985"/>
<text text-anchor="middle" x="995.99" y="-396" font-family="Helvetica,sans-Serif" font-size="10.00"> #GLOBAL</text>
</g>
<!-- Node16&#45;&gt;Node2 -->
<g id="edge18" class="edge"><title>Node16&#45;&gt;Node2</title>
<path fill="none" stroke="#404040" d="M676.021,-477.208C684.128,-446.475 695.075,-404.975 705.052,-367.15"/>
<polygon fill="none" stroke="#404040" points="705.052,-367.148 702.715,-360.326 708.113,-355.545 710.451,-362.367 705.052,-367.148"/>
<text text-anchor="middle" x="719.872" y="-396" font-family="Helvetica,sans-Serif" font-size="10.00"> #irqAck</text>
</g>
<!-- Node17 -->
<g id="node17" class="node"><title>Node17</title>
<polygon fill="white" stroke="#bfbfbf" points="623.31,-708.5 623.31,-762.5 652.31,-762.5 652.31,-708.5 623.31,-708.5"/>
<text text-anchor="middle" x="637.702" y="-750.5" font-family="Helvetica,sans-Serif" font-size="10.00">in</text>
<polyline fill="none" stroke="#bfbfbf" points="623.31,-744.5 652.093,-744.5 "/>
<text text-anchor="middle" x="637.702" y="-732.5" font-family="Helvetica,sans-Serif" font-size="10.00"> </text>
<polyline fill="none" stroke="#bfbfbf" points="623.31,-726.5 652.093,-726.5 "/>
<text text-anchor="middle" x="637.702" y="-714.5" font-family="Helvetica,sans-Serif" font-size="10.00"> </text>
</g>
<!-- Node17&#45;&gt;Node16 -->
<g id="edge20" class="edge"><title>Node17&#45;&gt;Node16</title>
<path fill="none" stroke="#404040" d="M634.18,-708.205C630.902,-691.342 624.831,-669.585 613.81,-653 606.804,-642.457 597.168,-646.434 591.739,-635 589.832,-630.985 590.368,-629.228 591.739,-625 596.665,-609.801 604.879,-594.978 614.035,-581.612"/>
<polygon fill="none" stroke="#404040" points="614.166,-581.429 614.428,-574.222 621.181,-571.692 620.919,-578.899 614.166,-581.429"/>
<text text-anchor="middle" x="603.346" y="-627" font-family="Helvetica,sans-Serif" font-size="10.00"> +run</text>
</g>
<!-- Node18 -->
<g id="node18" class="node"><title>Node18</title>
<polygon fill="white" stroke="#bfbfbf" points="674.859,-708.5 674.859,-762.5 704.761,-762.5 704.761,-708.5 674.859,-708.5"/>
<text text-anchor="middle" x="689.81" y="-750.5" font-family="Helvetica,sans-Serif" font-size="10.00">out</text>
<polyline fill="none" stroke="#bfbfbf" points="674.859,-744.5 704.761,-744.5 "/>
<text text-anchor="middle" x="689.81" y="-732.5" font-family="Helvetica,sans-Serif" font-size="10.00"> </text>
<polyline fill="none" stroke="#bfbfbf" points="674.859,-726.5 704.761,-726.5 "/>
<text text-anchor="middle" x="689.81" y="-714.5" font-family="Helvetica,sans-Serif" font-size="10.00"> </text>
</g>
<!-- Node18&#45;&gt;Node16 -->
<g id="edge21" class="edge"><title>Node18&#45;&gt;Node16</title>
<path fill="none" stroke="#404040" d="M684.572,-708.465C680.236,-691.503 672.801,-669.535 660.81,-653 653.128,-642.407 643.28,-646.745 637.512,-635 629.635,-618.959 630.735,-600.413 635.407,-583.196"/>
<polygon fill="none" stroke="#404040" points="635.482,-582.963 633.504,-576.028 639.145,-571.536 641.122,-578.471 635.482,-582.963"/>
<text text-anchor="middle" x="655.459" y="-627" font-family="Helvetica,sans-Serif" font-size="10.00"> +status</text>
</g>
<!-- Node18&#45;&gt;Node16 -->
<g id="edge24" class="edge"><title>Node18&#45;&gt;Node16</title>
<path fill="none" stroke="#404040" d="M686.57,-708.453C682.712,-677.446 676.154,-624.723 671.065,-583.818"/>
<polygon fill="none" stroke="#404040" points="671.053,-583.719 666.343,-578.259 669.571,-571.811 674.281,-577.271 671.053,-583.719"/>
<text text-anchor="middle" x="701.41" y="-627" font-family="Helvetica,sans-Serif" font-size="10.00"> +initSignal</text>
</g>
<!-- Node19 -->
<g id="node19" class="node"><title>Node19</title>
<g id="a_node19"><a xlink:href="classsc__event.html" target="_top" xlink:title="{sc_event\n||}">
<polygon fill="white" stroke="black" points="738.798,-708.5 738.798,-762.5 794.822,-762.5 794.822,-708.5 738.798,-708.5"/>
<text text-anchor="middle" x="766.81" y="-750.5" font-family="Helvetica,sans-Serif" font-size="10.00">sc_event</text>
<polyline fill="none" stroke="black" points="738.798,-744.5 794.822,-744.5 "/>
<text text-anchor="middle" x="766.81" y="-732.5" font-family="Helvetica,sans-Serif" font-size="10.00"> </text>
<polyline fill="none" stroke="black" points="738.798,-726.5 794.822,-726.5 "/>
<text text-anchor="middle" x="766.81" y="-714.5" font-family="Helvetica,sans-Serif" font-size="10.00"> </text>
</a>
</g>
</g>
<!-- Node19&#45;&gt;Node16 -->
<g id="edge22" class="edge"><title>Node19&#45;&gt;Node16</title>
<path fill="none" stroke="#404040" d="M759.974,-708.079C753.623,-685.415 743.147,-652.207 729.81,-625 722.685,-610.464 713.765,-595.538 704.808,-581.811"/>
<polygon fill="none" stroke="#404040" points="704.64,-581.558 697.983,-578.786 697.981,-571.575 704.638,-574.347 704.64,-581.558"/>
<text text-anchor="middle" x="747.843" y="-627" font-family="Helvetica,sans-Serif" font-size="10.00"> +start</text>
</g>
<!-- Node20 -->
<g id="node20" class="node"><title>Node20</title>
<g id="a_node20"><a xlink:href="classleon3__funcat__trap_1_1Alias.html" target="_top" xlink:title="{leon3_funcat_trap::\lAlias\n||+ ~Alias()\l+ Alias()\l+ Alias()\l+ Alias()\l+ operator[]()\l+ immediateWrite()\l+ readNewValue()\l+ getReg()\l+ operator~()\l+ operator=()\land 63 more...\l}">
<polygon fill="white" stroke="black" points="1147,-442.5 1147,-606.5 1248.62,-606.5 1248.62,-442.5 1147,-442.5"/>
<text text-anchor="start" x="1155" y="-594.5" font-family="Helvetica,sans-Serif" font-size="10.00">leon3_funcat_trap::</text>
<text text-anchor="middle" x="1197.81" y="-584.5" font-family="Helvetica,sans-Serif" font-size="10.00">Alias</text>
<polyline fill="none" stroke="black" points="1147,-578.5 1248.62,-578.5 "/>
<text text-anchor="middle" x="1197.81" y="-566.5" font-family="Helvetica,sans-Serif" font-size="10.00"> </text>
<polyline fill="none" stroke="black" points="1147,-560.5 1248.62,-560.5 "/>
<text text-anchor="start" x="1155" y="-548.5" font-family="Helvetica,sans-Serif" font-size="10.00">+ ~Alias()</text>
<text text-anchor="start" x="1155" y="-538.5" font-family="Helvetica,sans-Serif" font-size="10.00">+ Alias()</text>
<text text-anchor="start" x="1155" y="-528.5" font-family="Helvetica,sans-Serif" font-size="10.00">+ Alias()</text>
<text text-anchor="start" x="1155" y="-518.5" font-family="Helvetica,sans-Serif" font-size="10.00">+ Alias()</text>
<text text-anchor="start" x="1155" y="-508.5" font-family="Helvetica,sans-Serif" font-size="10.00">+ operator[]()</text>
<text text-anchor="start" x="1155" y="-498.5" font-family="Helvetica,sans-Serif" font-size="10.00">+ immediateWrite()</text>
<text text-anchor="start" x="1155" y="-488.5" font-family="Helvetica,sans-Serif" font-size="10.00">+ readNewValue()</text>
<text text-anchor="start" x="1155" y="-478.5" font-family="Helvetica,sans-Serif" font-size="10.00">+ getReg()</text>
<text text-anchor="start" x="1155" y="-468.5" font-family="Helvetica,sans-Serif" font-size="10.00">+ operator~()</text>
<text text-anchor="start" x="1155" y="-458.5" font-family="Helvetica,sans-Serif" font-size="10.00">+ operator=()</text>
<text text-anchor="start" x="1155" y="-448.5" font-family="Helvetica,sans-Serif" font-size="10.00">and 63 more...</text>
</a>
</g>
</g>
<!-- Node20&#45;&gt;Node2 -->
<g id="edge25" class="edge"><title>Node20&#45;&gt;Node2</title>
<path fill="none" stroke="#404040" d="M1146.99,-450.997C1144,-447.853 1140.93,-444.834 1137.81,-442 1040.02,-353.239 889.783,-305.862 801.805,-284.341"/>
<polygon fill="none" stroke="#404040" points="801.749,-284.328 794.983,-286.822 790.078,-281.535 796.845,-279.041 801.749,-284.328"/>
<text text-anchor="middle" x="1129.15" y="-416" font-family="Helvetica,sans-Serif" font-size="10.00"> #REGS</text>
<text text-anchor="middle" x="1129.15" y="-406" font-family="Helvetica,sans-Serif" font-size="10.00">#LR</text>
<text text-anchor="middle" x="1129.15" y="-396" font-family="Helvetica,sans-Serif" font-size="10.00">#PCR</text>
<text text-anchor="middle" x="1129.15" y="-386" font-family="Helvetica,sans-Serif" font-size="10.00">#FP</text>
<text text-anchor="middle" x="1129.15" y="-376" font-family="Helvetica,sans-Serif" font-size="10.00">#SP</text>
</g>
<!-- Node21 -->
<g id="node21" class="node"><title>Node21</title>
<g id="a_node21"><a xlink:href="classchar.html" target="_top" xlink:title="{char\n||}">
<polygon fill="white" stroke="black" points="1355.08,-241.5 1355.08,-295.5 1390.54,-295.5 1390.54,-241.5 1355.08,-241.5"/>
<text text-anchor="middle" x="1372.81" y="-283.5" font-family="Helvetica,sans-Serif" font-size="10.00">char</text>
<polyline fill="none" stroke="black" points="1355.08,-277.5 1390.54,-277.5 "/>
<text text-anchor="middle" x="1372.81" y="-265.5" font-family="Helvetica,sans-Serif" font-size="10.00"> </text>
<polyline fill="none" stroke="black" points="1355.08,-259.5 1390.54,-259.5 "/>
<text text-anchor="middle" x="1372.81" y="-247.5" font-family="Helvetica,sans-Serif" font-size="10.00"> </text>
</a>
</g>
</g>
<!-- Node21&#45;&gt;Node1 -->
<g id="edge26" class="edge"><title>Node21&#45;&gt;Node1</title>
<path fill="none" stroke="#404040" d="M1363.48,-241.255C1357.27,-224.04 1348.8,-201.084 1340.81,-181 1336.26,-169.562 1331.31,-157.536 1326.37,-145.773"/>
<polygon fill="none" stroke="#404040" points="1326.32,-145.66 1320.3,-141.688 1321.65,-134.605 1327.67,-138.576 1326.32,-145.66"/>
<text text-anchor="middle" x="1353.73" y="-155" font-family="Helvetica,sans-Serif" font-size="10.00"> #toWrite</text>
</g>
</g>
</svg>
