<?xml version="1.0" encoding="UTF-8" standalone="no"?>
<!DOCTYPE svg PUBLIC "-//W3C//DTD SVG 1.1//EN"
 "http://www.w3.org/Graphics/SVG/1.1/DTD/svg11.dtd">
<!-- Generated by graphviz version 2.26.0 (20091210.2329)
 -->
<!-- Title: leon3_funclt_trap::PinTLM_out_32 Pages: 1 -->
<svg width="362pt" height="238pt"
 viewBox="0.00 0.00 362.00 238.00" xmlns="http://www.w3.org/2000/svg" xmlns:xlink="http://www.w3.org/1999/xlink">
<g id="graph1" class="graph" transform="scale(1 1) rotate(0) translate(4 234)">
<title>leon3_funclt_trap::PinTLM_out_32</title>
<polygon fill="white" stroke="white" points="-4,5 -4,-234 359,-234 359,5 -4,5"/>
<!-- Node1 -->
<g id="node1" class="node"><title>Node1</title>
<polygon fill="#bfbfbf" stroke="black" points="112,-0.5 112,-115.5 232,-115.5 232,-0.5 112,-0.5"/>
<text text-anchor="start" x="120" y="-102.5" font-family="Helvetica,sans-Serif" font-size="10.00">leon3_funclt_trap::</text>
<text text-anchor="middle" x="172" y="-89.5" font-family="Helvetica,sans-Serif" font-size="10.00">PinTLM_out_32</text>
<polyline fill="none" stroke="black" points="112,-81.5 232,-81.5 "/>
<text text-anchor="middle" x="172" y="-68.5" font-family="Helvetica,sans-Serif" font-size="10.00"> </text>
<polyline fill="none" stroke="black" points="112,-60.5 232,-60.5 "/>
<text text-anchor="start" x="120" y="-47.5" font-family="Helvetica,sans-Serif" font-size="10.00">+ SK_HAS_SIGNALS()</text>
<text text-anchor="start" x="120" y="-34.5" font-family="Helvetica,sans-Serif" font-size="10.00">+ PinTLM_out_32()</text>
<text text-anchor="start" x="120" y="-21.5" font-family="Helvetica,sans-Serif" font-size="10.00">+ send_pin_req()</text>
<text text-anchor="start" x="120" y="-8.5" font-family="Helvetica,sans-Serif" font-size="10.00">+ on_run()</text>
</g>
<!-- Node2 -->
<g id="node2" class="node"><title>Node2</title>
<polygon fill="white" stroke="#bfbfbf" points="0,-166.5 0,-229.5 64,-229.5 64,-166.5 0,-166.5"/>
<text text-anchor="middle" x="32" y="-216.5" font-family="Helvetica,sans-Serif" font-size="10.00">sc_module</text>
<polyline fill="none" stroke="#bfbfbf" points="0,-208.5 64,-208.5 "/>
<text text-anchor="middle" x="32" y="-195.5" font-family="Helvetica,sans-Serif" font-size="10.00"> </text>
<polyline fill="none" stroke="#bfbfbf" points="0,-187.5 64,-187.5 "/>
<text text-anchor="middle" x="32" y="-174.5" font-family="Helvetica,sans-Serif" font-size="10.00"> </text>
</g>
<!-- Node2&#45;&gt;Node1 -->
<g id="edge2" class="edge"><title>Node2&#45;&gt;Node1</title>
<path fill="none" stroke="midnightblue" d="M71.0328,-158.967C84.4939,-145.506 99.8686,-130.131 114.492,-115.508"/>
<polygon fill="none" stroke="midnightblue" points="68.3644,-156.686 63.7682,-166.232 73.3141,-161.636 68.3644,-156.686"/>
</g>
<!-- Node3 -->
<g id="node4" class="node"><title>Node3</title>
<polygon fill="white" stroke="#bfbfbf" points="81.5,-166.5 81.5,-229.5 110.5,-229.5 110.5,-166.5 81.5,-166.5"/>
<text text-anchor="middle" x="96" y="-216.5" font-family="Helvetica,sans-Serif" font-size="10.00">in</text>
<polyline fill="none" stroke="#bfbfbf" points="81.5,-208.5 110.5,-208.5 "/>
<text text-anchor="middle" x="96" y="-195.5" font-family="Helvetica,sans-Serif" font-size="10.00"> </text>
<polyline fill="none" stroke="#bfbfbf" points="81.5,-187.5 110.5,-187.5 "/>
<text text-anchor="middle" x="96" y="-174.5" font-family="Helvetica,sans-Serif" font-size="10.00"> </text>
</g>
<!-- Node3&#45;&gt;Node1 -->
<g id="edge4" class="edge"><title>Node3&#45;&gt;Node1</title>
<path fill="none" stroke="#404040" d="M102.418,-166.195C105.204,-155.632 108.999,-144.017 114,-134 115.282,-131.431 116.656,-128.863 118.103,-126.306"/>
<polygon fill="none" stroke="#404040" points="118.196,-126.153 117.887,-118.949 124.418,-115.893 124.727,-123.097 118.196,-126.153"/>
<text text-anchor="middle" x="125.5" y="-138.5" font-family="Helvetica,sans-Serif" font-size="10.00"> +run</text>
</g>
<!-- Node4 -->
<g id="node6" class="node"><title>Node4</title>
<polygon fill="white" stroke="#bfbfbf" points="157,-166.5 157,-229.5 187,-229.5 187,-166.5 157,-166.5"/>
<text text-anchor="middle" x="172" y="-216.5" font-family="Helvetica,sans-Serif" font-size="10.00">out</text>
<polyline fill="none" stroke="#bfbfbf" points="157,-208.5 187,-208.5 "/>
<text text-anchor="middle" x="172" y="-195.5" font-family="Helvetica,sans-Serif" font-size="10.00"> </text>
<polyline fill="none" stroke="#bfbfbf" points="157,-187.5 187,-187.5 "/>
<text text-anchor="middle" x="172" y="-174.5" font-family="Helvetica,sans-Serif" font-size="10.00"> </text>
</g>
<!-- Node4&#45;&gt;Node1 -->
<g id="edge6" class="edge"><title>Node4&#45;&gt;Node1</title>
<path fill="none" stroke="#404040" d="M156.952,-177.682C151.417,-169 145.815,-158.466 143,-148 141.241,-141.461 140.802,-134.692 141.303,-127.938"/>
<polygon fill="none" stroke="#404040" points="141.337,-127.713 138.282,-121.18 143.138,-115.848 146.192,-122.381 141.337,-127.713"/>
<text text-anchor="middle" x="161.5" y="-138.5" font-family="Helvetica,sans-Serif" font-size="10.00"> +status</text>
</g>
<!-- Node4&#45;&gt;Node1 -->
<g id="edge12" class="edge"><title>Node4&#45;&gt;Node1</title>
<path fill="none" stroke="#404040" d="M177.84,-166.351C178.74,-160.28 179.526,-153.959 180,-148 180.521,-141.452 180.657,-134.638 180.52,-127.82"/>
<polygon fill="none" stroke="#404040" points="180.511,-127.59 176.261,-121.764 180.005,-115.601 184.254,-121.427 180.511,-127.59"/>
<text text-anchor="middle" x="204.5" y="-138.5" font-family="Helvetica,sans-Serif" font-size="10.00"> +initSignal</text>
</g>
<!-- Node5 -->
<g id="node8" class="node"><title>Node5</title>
<a xlink:href="classsc__event.html" target="_top" xlink:title="{sc_event\n||}">
<polygon fill="white" stroke="black" points="246,-166.5 246,-229.5 302,-229.5 302,-166.5 246,-166.5"/>
<text text-anchor="middle" x="274" y="-216.5" font-family="Helvetica,sans-Serif" font-size="10.00">sc_event</text>
<polyline fill="none" stroke="black" points="246,-208.5 302,-208.5 "/>
<text text-anchor="middle" x="274" y="-195.5" font-family="Helvetica,sans-Serif" font-size="10.00"> </text>
<polyline fill="none" stroke="black" points="246,-187.5 302,-187.5 "/>
<text text-anchor="middle" x="274" y="-174.5" font-family="Helvetica,sans-Serif" font-size="10.00"> </text>
</a>
</g>
<!-- Node5&#45;&gt;Node1 -->
<g id="edge8" class="edge"><title>Node5&#45;&gt;Node1</title>
<path fill="none" stroke="#404040" d="M254.635,-166.306C248.005,-155.859 240.392,-144.288 233,-134 230.964,-131.166 228.86,-128.296 226.712,-125.413"/>
<polygon fill="none" stroke="#404040" points="226.523,-125.163 219.712,-122.796 219.277,-115.599 226.088,-117.965 226.523,-125.163"/>
<text text-anchor="middle" x="256.5" y="-138.5" font-family="Helvetica,sans-Serif" font-size="10.00"> +start</text>
</g>
<!-- Node6 -->
<g id="node10" class="node"><title>Node6</title>
<a xlink:href="classbool.html" target="_top" xlink:title="{bool\n||}">
<polygon fill="white" stroke="black" points="319.5,-166.5 319.5,-229.5 354.5,-229.5 354.5,-166.5 319.5,-166.5"/>
<text text-anchor="middle" x="337" y="-216.5" font-family="Helvetica,sans-Serif" font-size="10.00">bool</text>
<polyline fill="none" stroke="black" points="319.5,-208.5 354.5,-208.5 "/>
<text text-anchor="middle" x="337" y="-195.5" font-family="Helvetica,sans-Serif" font-size="10.00"> </text>
<polyline fill="none" stroke="black" points="319.5,-187.5 354.5,-187.5 "/>
<text text-anchor="middle" x="337" y="-174.5" font-family="Helvetica,sans-Serif" font-size="10.00"> </text>
</a>
</g>
<!-- Node6&#45;&gt;Node1 -->
<g id="edge10" class="edge"><title>Node6&#45;&gt;Node1</title>
<path fill="none" stroke="#404040" d="M319.262,-175.228C316.574,-172.057 313.771,-168.897 311,-166 290.298,-144.359 265.076,-123.46 241.828,-105.906"/>
<polygon fill="none" stroke="#404040" points="241.632,-105.76 234.43,-105.387 232.005,-98.5955 239.206,-98.9688 241.632,-105.76"/>
<text text-anchor="middle" x="312" y="-138.5" font-family="Helvetica,sans-Serif" font-size="10.00"> +stopped</text>
</g>
</g>
</svg>
