<?xml version="1.0" encoding="UTF-8" standalone="no"?>
<!DOCTYPE svg PUBLIC "-//W3C//DTD SVG 1.1//EN"
 "http://www.w3.org/Graphics/SVG/1.1/DTD/svg11.dtd">
<!-- Generated by graphviz version 2.38.0 (20140413.2041)
 -->
<!-- Title: trap::MemoryAT::MemoryAT Pages: 1 -->
<svg width="473pt" height="78pt"
 viewBox="0.00 0.00 473.00 77.50" xmlns="http://www.w3.org/2000/svg" xmlns:xlink="http://www.w3.org/1999/xlink">
<g id="graph0" class="graph" transform="scale(1 1) rotate(0) translate(4 73.5)">
<title>trap::MemoryAT::MemoryAT</title>
<polygon fill="white" stroke="none" points="-4,4 -4,-73.5 469,-73.5 469,4 -4,4"/>
<!-- Node1 -->
<g id="node1" class="node"><title>Node1</title>
<polygon fill="#bfbfbf" stroke="black" points="0,-22.5 0,-41.5 141,-41.5 141,-22.5 0,-22.5"/>
<text text-anchor="middle" x="70.5" y="-29.5" font-family="Helvetica,sans-Serif" font-size="10.00">trap::MemoryAT::MemoryAT</text>
</g>
<!-- Node2 -->
<g id="node2" class="node"><title>Node2</title>
<g id="a_node2"><a xlink:href="classtrap_1_1MemoryAT.html#a7eacc7d0b4ea266280eacfdd64f07add" target="_top" xlink:title="trap::MemoryAT::nb\l_transport_fw">
<polygon fill="white" stroke="black" points="201,-39 201,-69 305,-69 305,-39 201,-39"/>
<text text-anchor="start" x="209" y="-57" font-family="Helvetica,sans-Serif" font-size="10.00">trap::MemoryAT::nb</text>
<text text-anchor="middle" x="253" y="-46" font-family="Helvetica,sans-Serif" font-size="10.00">_transport_fw</text>
</a>
</g>
</g>
<!-- Node1&#45;&gt;Node2 -->
<g id="edge1" class="edge"><title>Node1&#45;&gt;Node2</title>
<path fill="none" stroke="midnightblue" d="M141.028,-40.4743C157.321,-42.4602 174.567,-44.5622 190.482,-46.502"/>
<polygon fill="midnightblue" stroke="midnightblue" points="190.375,-50.0147 200.725,-47.7504 191.222,-43.0661 190.375,-50.0147"/>
</g>
<!-- Node4 -->
<g id="node4" class="node"><title>Node4</title>
<g id="a_node4"><a xlink:href="classtrap_1_1MemoryAT.html#a01affb0c38bf6f60ddde17e1d357c886" target="_top" xlink:title="trap::MemoryAT::transport_dbg">
<polygon fill="white" stroke="black" points="177,-0.5 177,-19.5 329,-19.5 329,-0.5 177,-0.5"/>
<text text-anchor="middle" x="253" y="-7.5" font-family="Helvetica,sans-Serif" font-size="10.00">trap::MemoryAT::transport_dbg</text>
</a>
</g>
</g>
<!-- Node1&#45;&gt;Node4 -->
<g id="edge3" class="edge"><title>Node1&#45;&gt;Node4</title>
<path fill="none" stroke="midnightblue" d="M141.028,-23.5257C149.451,-22.4991 158.128,-21.4414 166.745,-20.3912"/>
<polygon fill="midnightblue" stroke="midnightblue" points="167.31,-23.8483 176.813,-19.1641 166.463,-16.8998 167.31,-23.8483"/>
</g>
<!-- Node3 -->
<g id="node3" class="node"><title>Node3</title>
<g id="a_node3"><a xlink:href="namespacepysc_1_1api_1_1systemc.html#a0f19169551bf6f5170fb3be515ce4365" target="_top" xlink:title="pysc::api::systemc\l::wait">
<polygon fill="white" stroke="black" points="365,-39 365,-69 465,-69 465,-39 365,-39"/>
<text text-anchor="start" x="373" y="-57" font-family="Helvetica,sans-Serif" font-size="10.00">pysc::api::systemc</text>
<text text-anchor="middle" x="415" y="-46" font-family="Helvetica,sans-Serif" font-size="10.00">::wait</text>
</a>
</g>
</g>
<!-- Node2&#45;&gt;Node3 -->
<g id="edge2" class="edge"><title>Node2&#45;&gt;Node3</title>
<path fill="none" stroke="midnightblue" d="M305.065,-54C320.744,-54 338.138,-54 354.339,-54"/>
<polygon fill="midnightblue" stroke="midnightblue" points="354.784,-57.5001 364.784,-54 354.784,-50.5001 354.784,-57.5001"/>
</g>
</g>
</svg>
