<?xml version="1.0" encoding="UTF-8" standalone="no"?>
<!DOCTYPE svg PUBLIC "-//W3C//DTD SVG 1.1//EN"
 "http://www.w3.org/Graphics/SVG/1.1/DTD/svg11.dtd">
<!-- Generated by graphviz version 2.38.0 (20140413.2041)
 -->
<!-- Title: signalkit::tlmin_scout_adapter&lt; INTYPE, OUTTYPE &gt; Pages: 1 -->
<!--zoomable 325 -->
<svg id="main" version="1.1" xmlns="http://www.w3.org/2000/svg" xmlns:xlink="http://www.w3.org/1999/xlink" xml:space="preserve" onload="init(evt)">
<style type="text/css"><![CDATA[
.edge:hover path { stroke: red; }
.edge:hover polygon { stroke: red; fill: red; }
]]></style>
<script type="text/javascript"><![CDATA[
var edges = document.getElementsByTagName('g');
if (edges && edges.length) {
  for (var i=0;i<edges.length;i++) {
    if (edges[i].id.substr(0,4)=='edge') {
      edges[i].setAttribute('class','edge');
    }
  }
}
]]></script>
        <defs>
                <circle id="rim" cx="0" cy="0" r="7"/>
                <circle id="rim2" cx="0" cy="0" r="3.5"/>
                <g id="zoomPlus">
                        <use xlink:href="#rim" fill="#404040">
                                <set attributeName="fill" to="#808080" begin="zoomplus.mouseover" end="zoomplus.mouseout"/>
                        </use>
                        <path d="M-4,0h8M0,-4v8" fill="none" stroke="white" stroke-width="1.5" pointer-events="none"/>
                </g>
                <g id="zoomMin">
                        <use xlink:href="#rim" fill="#404040">
                                <set attributeName="fill" to="#808080" begin="zoomminus.mouseover" end="zoomminus.mouseout"/>
                        </use>
                        <path d="M-4,0h8" fill="none" stroke="white" stroke-width="1.5" pointer-events="none"/>
                </g>
                <g id="dirArrow">
                        <path fill="none" stroke="white" stroke-width="1.5" d="M0,-3.0v7 M-2.5,-0.5L0,-3.0L2.5,-0.5"/>
                </g>
               <g id="resetDef">
                       <use xlink:href="#rim2" fill="#404040">
                               <set attributeName="fill" to="#808080" begin="reset.mouseover" end="reset.mouseout"/>
                       </use>
               </g>
        </defs>

<script type="text/javascript">
var viewWidth = 531;
var viewHeight = 325;
var sectionId = 'dynsection-1';
</script>
<script xlink:href="svgpan.js"/>
<svg id="graph" class="graph">
<g id="viewport">
<title>signalkit::tlmin_scout_adapter&lt; INTYPE, OUTTYPE &gt;</title>
<polygon fill="white" stroke="none" points="-4,4 -4,-321 527.421,-321 527.421,4 -4,4"/>
<!-- Node1 -->
<g id="node1" class="node"><title>Node1</title>
<polygon fill="#bfbfbf" stroke="black" points="248.65,-0.5 248.65,-64.5 410.266,-64.5 410.266,-0.5 248.65,-0.5"/>
<text text-anchor="start" x="256.65" y="-52.5" font-family="Helvetica,sans-Serif" font-size="10.00">signalkit::tlmin_scout</text>
<text text-anchor="middle" x="329.458" y="-42.5" font-family="Helvetica,sans-Serif" font-size="10.00">_adapter&lt; INTYPE, OUTTYPE &gt;</text>
<polyline fill="none" stroke="black" points="248.65,-36.5 410.266,-36.5 "/>
<text text-anchor="middle" x="329.458" y="-24.5" font-family="Helvetica,sans-Serif" font-size="10.00"> </text>
<polyline fill="none" stroke="black" points="248.65,-18.5 410.266,-18.5 "/>
<text text-anchor="start" x="256.65" y="-6.5" font-family="Helvetica,sans-Serif" font-size="10.00">+ tlmin_scout_adapter()</text>
</g>
<!-- Node2 -->
<g id="node2" class="node"><title>Node2</title>
<g id="a_node2"><a xlink:href="classsignalkit_1_1signal__module.html" target="_top" xlink:title="{signalkit::signal_module\l\&lt; tlmin_scout_adapter\&lt;\l INTYPE, OUTTYPE \&gt; \&gt;\n||}">
<polygon fill="white" stroke="black" points="0,-111.5 0,-185.5 124.916,-185.5 124.916,-111.5 0,-111.5"/>
<text text-anchor="start" x="8" y="-173.5" font-family="Helvetica,sans-Serif" font-size="10.00">signalkit::signal_module</text>
<text text-anchor="start" x="8" y="-163.5" font-family="Helvetica,sans-Serif" font-size="10.00">&lt; tlmin_scout_adapter&lt;</text>
<text text-anchor="middle" x="62.458" y="-153.5" font-family="Helvetica,sans-Serif" font-size="10.00"> INTYPE, OUTTYPE &gt; &gt;</text>
<polyline fill="none" stroke="black" points="0,-147.5 124.916,-147.5 "/>
<text text-anchor="middle" x="62.458" y="-135.5" font-family="Helvetica,sans-Serif" font-size="10.00"> </text>
<polyline fill="none" stroke="black" points="0,-129.5 124.916,-129.5 "/>
<text text-anchor="middle" x="62.458" y="-117.5" font-family="Helvetica,sans-Serif" font-size="10.00"> </text>
</a>
</g>
</g>
<!-- Node2&#45;&gt;Node1 -->
<g id="edge1" class="edge"><title>Node2&#45;&gt;Node1</title>
<path fill="none" stroke="midnightblue" d="M134.17,-111.13C134.266,-111.086 134.362,-111.043 134.458,-111 171.485,-94.2984 213.25,-77.4436 248.601,-63.7374"/>
<polygon fill="none" stroke="midnightblue" points="132.734,-107.938 125.124,-115.31 135.67,-114.292 132.734,-107.938"/>
</g>
<!-- Node3 -->
<g id="node3" class="node"><title>Node3</title>
<g id="a_node3"><a xlink:href="classsignalkit_1_1signal__module.html" target="_top" xlink:title="{signalkit::signal_module\l\&lt; MODULE \&gt;\n||}">
<polygon fill="white" stroke="black" points="87.3721,-252.5 87.3721,-316.5 209.544,-316.5 209.544,-252.5 87.3721,-252.5"/>
<text text-anchor="start" x="95.3721" y="-304.5" font-family="Helvetica,sans-Serif" font-size="10.00">signalkit::signal_module</text>
<text text-anchor="middle" x="148.458" y="-294.5" font-family="Helvetica,sans-Serif" font-size="10.00">&lt; MODULE &gt;</text>
<polyline fill="none" stroke="black" points="87.3721,-288.5 209.544,-288.5 "/>
<text text-anchor="middle" x="148.458" y="-276.5" font-family="Helvetica,sans-Serif" font-size="10.00"> </text>
<polyline fill="none" stroke="black" points="87.3721,-270.5 209.544,-270.5 "/>
<text text-anchor="middle" x="148.458" y="-258.5" font-family="Helvetica,sans-Serif" font-size="10.00"> </text>
</a>
</g>
</g>
<!-- Node3&#45;&gt;Node2 -->
<g id="edge2" class="edge"><title>Node3&#45;&gt;Node2</title>
<path fill="none" stroke="orange" d="M85.33,-245.052C82.115,-241.596 79.1927,-237.912 76.7021,-234 67.6734,-219.819 63.84,-201.693 62.3746,-185.868"/>
<polygon fill="orange" stroke="orange" points="83.1579,-247.82 92.7819,-252.25 88.0213,-242.785 83.1579,-247.82"/>
<text text-anchor="start" x="77.458" y="-221" font-family="Helvetica,sans-Serif" font-size="10.00"> &lt; tlmin_scout_adapter</text>
<text text-anchor="middle" x="134.836" y="-211" font-family="Helvetica,sans-Serif" font-size="10.00">&lt; INTYPE, OUTTYPE &gt; &gt;</text>
</g>
<!-- Node5 -->
<g id="node5" class="node"><title>Node5</title>
<g id="a_node5"><a xlink:href="classsignalkit_1_1signal__module.html" target="_top" xlink:title="{signalkit::signal_module\l\&lt; signalkit::tlmin_scout\l_adapter\&lt; INTYPE, OUTTYPE \&gt; \&gt;\n||}">
<polygon fill="white" stroke="black" points="143.341,-111.5 143.341,-185.5 313.575,-185.5 313.575,-111.5 143.341,-111.5"/>
<text text-anchor="start" x="151.341" y="-173.5" font-family="Helvetica,sans-Serif" font-size="10.00">signalkit::signal_module</text>
<text text-anchor="start" x="151.341" y="-163.5" font-family="Helvetica,sans-Serif" font-size="10.00">&lt; signalkit::tlmin_scout</text>
<text text-anchor="middle" x="228.458" y="-153.5" font-family="Helvetica,sans-Serif" font-size="10.00">_adapter&lt; INTYPE, OUTTYPE &gt; &gt;</text>
<polyline fill="none" stroke="black" points="143.341,-147.5 313.575,-147.5 "/>
<text text-anchor="middle" x="228.458" y="-135.5" font-family="Helvetica,sans-Serif" font-size="10.00"> </text>
<polyline fill="none" stroke="black" points="143.341,-129.5 313.575,-129.5 "/>
<text text-anchor="middle" x="228.458" y="-117.5" font-family="Helvetica,sans-Serif" font-size="10.00"> </text>
</a>
</g>
</g>
<!-- Node3&#45;&gt;Node5 -->
<g id="edge5" class="edge"><title>Node3&#45;&gt;Node5</title>
<path fill="none" stroke="orange" d="M187.991,-244.477C190.677,-241.057 193.206,-237.545 195.458,-234 204.831,-219.244 212.28,-201.398 217.712,-185.915"/>
<polygon fill="orange" stroke="orange" points="185.213,-242.343 181.494,-252.263 190.588,-246.828 185.213,-242.343"/>
<text text-anchor="start" x="210.458" y="-226" font-family="Helvetica,sans-Serif" font-size="10.00"> &lt; signalkit::tlmin</text>
<text text-anchor="start" x="210.458" y="-216" font-family="Helvetica,sans-Serif" font-size="10.00">_scout_adapter&lt; INTYPE,</text>
<text text-anchor="middle" x="268.686" y="-206" font-family="Helvetica,sans-Serif" font-size="10.00"> OUTTYPE &gt; &gt;</text>
</g>
<!-- Node4 -->
<g id="node4" class="node"><title>Node4</title>
<polygon fill="white" stroke="#bfbfbf" points="331.278,-121.5 331.278,-175.5 395.638,-175.5 395.638,-121.5 331.278,-121.5"/>
<text text-anchor="middle" x="363.458" y="-163.5" font-family="Helvetica,sans-Serif" font-size="10.00">sc_module</text>
<polyline fill="none" stroke="#bfbfbf" points="331.278,-157.5 395.638,-157.5 "/>
<text text-anchor="middle" x="363.458" y="-145.5" font-family="Helvetica,sans-Serif" font-size="10.00"> </text>
<polyline fill="none" stroke="#bfbfbf" points="331.278,-139.5 395.638,-139.5 "/>
<text text-anchor="middle" x="363.458" y="-127.5" font-family="Helvetica,sans-Serif" font-size="10.00"> </text>
</g>
<!-- Node4&#45;&gt;Node1 -->
<g id="edge3" class="edge"><title>Node4&#45;&gt;Node1</title>
<path fill="none" stroke="midnightblue" d="M352.691,-111.4C348.227,-96.4301 343.096,-79.2273 338.794,-64.8018"/>
<polygon fill="none" stroke="midnightblue" points="349.446,-112.764 355.658,-121.346 356.154,-110.763 349.446,-112.764"/>
</g>
<!-- Node5&#45;&gt;Node1 -->
<g id="edge4" class="edge"><title>Node5&#45;&gt;Node1</title>
<path fill="none" stroke="#404040" d="M260.415,-111.43C271.007,-99.474 282.864,-86.0917 293.721,-73.8363"/>
<polygon fill="none" stroke="#404040" points="293.835,-73.7083 294.82,-66.5648 301.793,-64.7264 300.808,-71.8699 293.835,-73.7083"/>
<text text-anchor="middle" x="293.659" y="-85" font-family="Helvetica,sans-Serif" font-size="10.00"> +in</text>
</g>
<!-- Node6 -->
<g id="node6" class="node"><title>Node6</title>
<polygon fill="white" stroke="#bfbfbf" points="413.495,-121.5 413.495,-175.5 523.421,-175.5 523.421,-121.5 413.495,-121.5"/>
<text text-anchor="middle" x="468.458" y="-163.5" font-family="Helvetica,sans-Serif" font-size="10.00">sc_out&lt; OUTTYPE &gt;</text>
<polyline fill="none" stroke="#bfbfbf" points="413.495,-157.5 523.421,-157.5 "/>
<text text-anchor="middle" x="468.458" y="-145.5" font-family="Helvetica,sans-Serif" font-size="10.00"> </text>
<polyline fill="none" stroke="#bfbfbf" points="413.495,-139.5 523.421,-139.5 "/>
<text text-anchor="middle" x="468.458" y="-127.5" font-family="Helvetica,sans-Serif" font-size="10.00"> </text>
</g>
<!-- Node6&#45;&gt;Node1 -->
<g id="edge6" class="edge"><title>Node6&#45;&gt;Node1</title>
<path fill="none" stroke="#404040" d="M436.569,-121.346C418.866,-106.828 396.506,-88.4887 376.799,-72.3268"/>
<polygon fill="none" stroke="#404040" points="376.649,-72.2037 369.473,-71.4917 367.371,-64.5939 374.547,-65.306 376.649,-72.2037"/>
<text text-anchor="middle" x="410.718" y="-85" font-family="Helvetica,sans-Serif" font-size="10.00"> +out</text>
</g>
</g>
</svg>
        <g id="navigator" transform="translate(0 0)" fill="#404254">
                <rect fill="#f2f5e9" fill-opacity="0.5" stroke="#606060" stroke-width=".5" x="0" y="0" width="60" height="60"/>
                <use id="zoomplus" xlink:href="#zoomPlus" x="17" y="9" onmousedown="handleZoom(evt,'in')"/>
                <use id="zoomminus" xlink:href="#zoomMin" x="42" y="9" onmousedown="handleZoom(evt,'out')"/>
                <use id="reset" xlink:href="#resetDef" x="30" y="36" onmousedown="handleReset()"/>
                <g id="arrowUp" xlink:href="#dirArrow" transform="translate(30 24)" onmousedown="handlePan(0,-1)">
                  <use xlink:href="#rim" fill="#404040">
                        <set attributeName="fill" to="#808080" begin="arrowUp.mouseover" end="arrowUp.mouseout"/>
                  </use>
                  <path fill="none" stroke="white" stroke-width="1.5" d="M0,-3.0v7 M-2.5,-0.5L0,-3.0L2.5,-0.5"/>
                </g>
                <g id="arrowRight" xlink:href="#dirArrow" transform="rotate(90) translate(36 -43)" onmousedown="handlePan(1,0)">
                  <use xlink:href="#rim" fill="#404040">
                        <set attributeName="fill" to="#808080" begin="arrowRight.mouseover" end="arrowRight.mouseout"/>
                  </use>
                  <path fill="none" stroke="white" stroke-width="1.5" d="M0,-3.0v7 M-2.5,-0.5L0,-3.0L2.5,-0.5"/>
                </g>
                <g id="arrowDown" xlink:href="#dirArrow" transform="rotate(180) translate(-30 -48)" onmousedown="handlePan(0,1)">
                  <use xlink:href="#rim" fill="#404040">
                        <set attributeName="fill" to="#808080" begin="arrowDown.mouseover" end="arrowDown.mouseout"/>
                  </use>
                  <path fill="none" stroke="white" stroke-width="1.5" d="M0,-3.0v7 M-2.5,-0.5L0,-3.0L2.5,-0.5"/>
                </g>
                <g id="arrowLeft" xlink:href="#dirArrow" transform="rotate(270) translate(-36 17)" onmousedown="handlePan(-1,0)">
                  <use xlink:href="#rim" fill="#404040">
                        <set attributeName="fill" to="#808080" begin="arrowLeft.mouseover" end="arrowLeft.mouseout"/>
                  </use>
                  <path fill="none" stroke="white" stroke-width="1.5" d="M0,-3.0v7 M-2.5,-0.5L0,-3.0L2.5,-0.5"/>
                </g>
        </g>
        <svg viewBox="0 0 15 15" width="100%" height="30px" preserveAspectRatio="xMaxYMin meet">
         <g id="arrow_out" transform="scale(0.3 0.3)">
          <a xlink:href="classsignalkit_1_1tlmin__scout__adapter__coll__graph_org.svg" target="_base">
           <rect id="button" ry="5" rx="5" y="6" x="6" height="38" width="38"
                fill="#f2f5e9" fill-opacity="0.5" stroke="#606060" stroke-width="1.0"/>
           <path id="arrow"
             d="M 11.500037,31.436501 C 11.940474,20.09759 22.043105,11.32322 32.158766,21.979434 L 37.068811,17.246167 C 37.068811,17.246167 37.088388,32 37.088388,32 L 22.160133,31.978069 C 22.160133,31.978069 26.997745,27.140456 26.997745,27.140456 C 18.528582,18.264221 13.291696,25.230495 11.500037,31.436501 z"
             style="fill:#404040;"/>
          </a>
         </g>
        </svg>
</svg>
