<?xml version="1.0" encoding="UTF-8" standalone="no"?>
<!DOCTYPE svg PUBLIC "-//W3C//DTD SVG 1.1//EN"
 "http://www.w3.org/Graphics/SVG/1.1/DTD/svg11.dtd">
<!-- Generated by graphviz version 2.36.0 (20140111.2315)
 -->
<!-- Title: sr_signal::signal_inout&lt; TYPE, MODULE &gt; Pages: 1 -->
<!--zoomable 690 -->
<svg id="main" version="1.1" xmlns="http://www.w3.org/2000/svg" xmlns:xlink="http://www.w3.org/1999/xlink" xml:space="preserve" onload="init(evt)">
<style type="text/css"><![CDATA[
.edge:hover path { stroke: red; }
.edge:hover polygon { stroke: red; fill: red; }
]]></style>
<script type="text/javascript"><![CDATA[
var edges = document.getElementsByTagName('g');
if (edges && edges.length) {
  for (var i=0;i<edges.length;i++) {
    if (edges[i].id.substr(0,4)=='edge') {
      edges[i].setAttribute('class','edge');
    }
  }
}
]]></script>
        <defs>
                <circle id="rim" cx="0" cy="0" r="7"/>
                <circle id="rim2" cx="0" cy="0" r="3.5"/>
                <g id="zoomPlus">
                        <use xlink:href="#rim" fill="#404040">
                                <set attributeName="fill" to="#808080" begin="zoomplus.mouseover" end="zoomplus.mouseout"/>
                        </use>
                        <path d="M-4,0h8M0,-4v8" fill="none" stroke="white" stroke-width="1.5" pointer-events="none"/>
                </g>
                <g id="zoomMin">
                        <use xlink:href="#rim" fill="#404040">
                                <set attributeName="fill" to="#808080" begin="zoomminus.mouseover" end="zoomminus.mouseout"/>
                        </use>
                        <path d="M-4,0h8" fill="none" stroke="white" stroke-width="1.5" pointer-events="none"/>
                </g>
                <g id="dirArrow">
                        <path fill="none" stroke="white" stroke-width="1.5" d="M0,-3.0v7 M-2.5,-0.5L0,-3.0L2.5,-0.5"/>
                </g>
               <g id="resetDef">
                       <use xlink:href="#rim2" fill="#404040">
                               <set attributeName="fill" to="#808080" begin="reset.mouseover" end="reset.mouseout"/>
                       </use>
               </g>
        </defs>

<script type="text/javascript">
var viewWidth = 615;
var viewHeight = 690;
var sectionId = 'dynsection-1';
</script>
<script xlink:href="svgpan.js"/>
<svg id="graph" class="graph">
<g id="viewport">
<title>sr_signal::signal_inout&lt; TYPE, MODULE &gt;</title>
<polygon fill="white" stroke="none" points="-4,4 -4,-686 611,-686 611,4 -4,4"/>
<!-- Node1 -->
<g id="node1" class="node"><title>Node1</title>
<polygon fill="#bfbfbf" stroke="black" points="193.5,-1 193.5,-91 306.5,-91 306.5,-1 193.5,-1"/>
<text text-anchor="start" x="201.5" y="-79" font-family="Helvetica,sans-Serif" font-size="10.00">sr_signal::signal_inout</text>
<text text-anchor="middle" x="250" y="-68" font-family="Helvetica,sans-Serif" font-size="10.00">&lt; TYPE, MODULE &gt;</text>
<polyline fill="none" stroke="black" points="193.5,-61 306.5,-61 "/>
<text text-anchor="middle" x="250" y="-49" font-family="Helvetica,sans-Serif" font-size="10.00"> </text>
<polyline fill="none" stroke="black" points="193.5,-42 306.5,-42 "/>
<text text-anchor="start" x="201.5" y="-30" font-family="Helvetica,sans-Serif" font-size="10.00">+ signal_inout()</text>
<text text-anchor="start" x="201.5" y="-19" font-family="Helvetica,sans-Serif" font-size="10.00">+ signal_inout()</text>
<text text-anchor="start" x="201.5" y="-8" font-family="Helvetica,sans-Serif" font-size="10.00">+ ~signal_inout()</text>
</g>
<!-- Node2 -->
<g id="node2" class="node"><title>Node2</title>
<g id="a_node2"><a xlink:href="classsr__signal_1_1signal__out.html" target="_top" xlink:title="{sr_signal::signal_out\l\&lt; TYPE, MODULE \&gt;\n||+ signal_out()\l+ ~signal_out()\l+ bind()\l+ write()\l+ operator()()\l+ operator=()\l+ operator=()\l}">
<polygon fill="white" stroke="black" points="247,-131 247,-265 357,-265 357,-131 247,-131"/>
<text text-anchor="start" x="255" y="-253" font-family="Helvetica,sans-Serif" font-size="10.00">sr_signal::signal_out</text>
<text text-anchor="middle" x="302" y="-242" font-family="Helvetica,sans-Serif" font-size="10.00">&lt; TYPE, MODULE &gt;</text>
<polyline fill="none" stroke="black" points="247,-235 357,-235 "/>
<text text-anchor="middle" x="302" y="-223" font-family="Helvetica,sans-Serif" font-size="10.00"> </text>
<polyline fill="none" stroke="black" points="247,-216 357,-216 "/>
<text text-anchor="start" x="255" y="-204" font-family="Helvetica,sans-Serif" font-size="10.00">+ signal_out()</text>
<text text-anchor="start" x="255" y="-193" font-family="Helvetica,sans-Serif" font-size="10.00">+ ~signal_out()</text>
<text text-anchor="start" x="255" y="-182" font-family="Helvetica,sans-Serif" font-size="10.00">+ bind()</text>
<text text-anchor="start" x="255" y="-171" font-family="Helvetica,sans-Serif" font-size="10.00">+ write()</text>
<text text-anchor="start" x="255" y="-160" font-family="Helvetica,sans-Serif" font-size="10.00">+ operator()()</text>
<text text-anchor="start" x="255" y="-149" font-family="Helvetica,sans-Serif" font-size="10.00">+ operator=()</text>
<text text-anchor="start" x="255" y="-138" font-family="Helvetica,sans-Serif" font-size="10.00">+ operator=()</text>
</a>
</g>
</g>
<!-- Node2&#45;&gt;Node1 -->
<g id="edge1" class="edge"><title>Node2&#45;&gt;Node1</title>
<path fill="none" stroke="midnightblue" d="M275.666,-121.036C272.139,-110.864 268.621,-100.715 265.371,-91.3391"/>
<polygon fill="none" stroke="midnightblue" points="272.458,-122.469 279.041,-130.771 279.072,-120.176 272.458,-122.469"/>
</g>
<!-- Node3 -->
<g id="node3" class="node"><title>Node3</title>
<g id="a_node3"><a xlink:href="classsr__signal_1_1signal__base.html" target="_top" xlink:title="{sr_signal::signal_base\l\&lt; TYPE, MODULE \&gt;\n||+ signal_base()\l+ ~signal_base()\l# get_module()\l}">
<polygon fill="white" stroke="black" points="-0.5,-320 -0.5,-410 112.5,-410 112.5,-320 -0.5,-320"/>
<text text-anchor="start" x="7.5" y="-398" font-family="Helvetica,sans-Serif" font-size="10.00">sr_signal::signal_base</text>
<text text-anchor="middle" x="56" y="-387" font-family="Helvetica,sans-Serif" font-size="10.00">&lt; TYPE, MODULE &gt;</text>
<polyline fill="none" stroke="black" points="-0.5,-380 112.5,-380 "/>
<text text-anchor="middle" x="56" y="-368" font-family="Helvetica,sans-Serif" font-size="10.00"> </text>
<polyline fill="none" stroke="black" points="-0.5,-361 112.5,-361 "/>
<text text-anchor="start" x="7.5" y="-349" font-family="Helvetica,sans-Serif" font-size="10.00">+ signal_base()</text>
<text text-anchor="start" x="7.5" y="-338" font-family="Helvetica,sans-Serif" font-size="10.00">+ ~signal_base()</text>
<text text-anchor="start" x="7.5" y="-327" font-family="Helvetica,sans-Serif" font-size="10.00"># get_module()</text>
</a>
</g>
</g>
<!-- Node3&#45;&gt;Node2 -->
<g id="edge2" class="edge"><title>Node3&#45;&gt;Node2</title>
<path fill="none" stroke="midnightblue" d="M120.783,-314.703C121.189,-314.467 121.595,-314.232 122,-314 170.411,-286.26 191.96,-297.519 238,-266 240.92,-264.001 243.811,-261.85 246.656,-259.59"/>
<polygon fill="none" stroke="midnightblue" points="118.937,-311.73 112.243,-319.942 122.597,-317.696 118.937,-311.73"/>
</g>
<!-- Node13 -->
<g id="node13" class="node"><title>Node13</title>
<g id="a_node13"><a xlink:href="classsr__signal_1_1signal__in.html" target="_top" xlink:title="{sr_signal::signal_in\l\&lt; TYPE, MODULE \&gt;\n||+ signal_in()\l+ signal_in()\l+ ~signal_in()\l+ bind()\l+ update()\l+ operator TYPE()\l+ operator()()\l}">
<polygon fill="white" stroke="black" points="119,-131 119,-265 229,-265 229,-131 119,-131"/>
<text text-anchor="start" x="127" y="-253" font-family="Helvetica,sans-Serif" font-size="10.00">sr_signal::signal_in</text>
<text text-anchor="middle" x="174" y="-242" font-family="Helvetica,sans-Serif" font-size="10.00">&lt; TYPE, MODULE &gt;</text>
<polyline fill="none" stroke="black" points="119,-235 229,-235 "/>
<text text-anchor="middle" x="174" y="-223" font-family="Helvetica,sans-Serif" font-size="10.00"> </text>
<polyline fill="none" stroke="black" points="119,-216 229,-216 "/>
<text text-anchor="start" x="127" y="-204" font-family="Helvetica,sans-Serif" font-size="10.00">+ signal_in()</text>
<text text-anchor="start" x="127" y="-193" font-family="Helvetica,sans-Serif" font-size="10.00">+ signal_in()</text>
<text text-anchor="start" x="127" y="-182" font-family="Helvetica,sans-Serif" font-size="10.00">+ ~signal_in()</text>
<text text-anchor="start" x="127" y="-171" font-family="Helvetica,sans-Serif" font-size="10.00">+ bind()</text>
<text text-anchor="start" x="127" y="-160" font-family="Helvetica,sans-Serif" font-size="10.00">+ update()</text>
<text text-anchor="start" x="127" y="-149" font-family="Helvetica,sans-Serif" font-size="10.00">+ operator TYPE()</text>
<text text-anchor="start" x="127" y="-138" font-family="Helvetica,sans-Serif" font-size="10.00">+ operator()()</text>
</a>
</g>
</g>
<!-- Node3&#45;&gt;Node13 -->
<g id="edge13" class="edge"><title>Node3&#45;&gt;Node13</title>
<path fill="none" stroke="midnightblue" d="M85.5326,-310.9C91.0824,-301.763 97.0258,-292.484 103,-284 107.982,-276.926 113.406,-269.712 118.963,-262.626"/>
<polygon fill="none" stroke="midnightblue" points="82.4672,-309.207 80.344,-319.587 88.4768,-312.797 82.4672,-309.207"/>
</g>
<!-- Node4 -->
<g id="node4" class="node"><title>Node4</title>
<polygon fill="white" stroke="#bfbfbf" points="26.5,-496.5 26.5,-553.5 85.5,-553.5 85.5,-496.5 26.5,-496.5"/>
<text text-anchor="middle" x="56" y="-541.5" font-family="Helvetica,sans-Serif" font-size="10.00">sc_object</text>
<polyline fill="none" stroke="#bfbfbf" points="26.5,-534.5 85.5,-534.5 "/>
<text text-anchor="middle" x="56" y="-522.5" font-family="Helvetica,sans-Serif" font-size="10.00"> </text>
<polyline fill="none" stroke="#bfbfbf" points="26.5,-515.5 85.5,-515.5 "/>
<text text-anchor="middle" x="56" y="-503.5" font-family="Helvetica,sans-Serif" font-size="10.00"> </text>
</g>
<!-- Node4&#45;&gt;Node3 -->
<g id="edge3" class="edge"><title>Node4&#45;&gt;Node3</title>
<path fill="none" stroke="midnightblue" d="M56,-486.461C56,-463.575 56,-434.209 56,-410.202"/>
<polygon fill="none" stroke="midnightblue" points="52.5001,-486.478 56,-496.479 59.5001,-486.479 52.5001,-486.478"/>
</g>
<!-- Node5 -->
<g id="node5" class="node"><title>Node5</title>
<g id="a_node5"><a xlink:href="classsr__signal_1_1signal__out__if.html" target="_top" xlink:title="{sr_signal::signal_out\l_if\&lt; TYPE \&gt;\n||+ ~signal_out_if()\l+ write()\l+ operator=()\l+ operator=()\l}">
<polygon fill="white" stroke="black" points="249,-314.5 249,-415.5 355,-415.5 355,-314.5 249,-314.5"/>
<text text-anchor="start" x="257" y="-403.5" font-family="Helvetica,sans-Serif" font-size="10.00">sr_signal::signal_out</text>
<text text-anchor="middle" x="302" y="-392.5" font-family="Helvetica,sans-Serif" font-size="10.00">_if&lt; TYPE &gt;</text>
<polyline fill="none" stroke="black" points="249,-385.5 355,-385.5 "/>
<text text-anchor="middle" x="302" y="-373.5" font-family="Helvetica,sans-Serif" font-size="10.00"> </text>
<polyline fill="none" stroke="black" points="249,-366.5 355,-366.5 "/>
<text text-anchor="start" x="257" y="-354.5" font-family="Helvetica,sans-Serif" font-size="10.00">+ ~signal_out_if()</text>
<text text-anchor="start" x="257" y="-343.5" font-family="Helvetica,sans-Serif" font-size="10.00">+ write()</text>
<text text-anchor="start" x="257" y="-332.5" font-family="Helvetica,sans-Serif" font-size="10.00">+ operator=()</text>
<text text-anchor="start" x="257" y="-321.5" font-family="Helvetica,sans-Serif" font-size="10.00">+ operator=()</text>
</a>
</g>
</g>
<!-- Node5&#45;&gt;Node2 -->
<g id="edge4" class="edge"><title>Node5&#45;&gt;Node2</title>
<path fill="none" stroke="midnightblue" d="M302,-304.481C302,-291.752 302,-278.229 302,-265.263"/>
<polygon fill="none" stroke="midnightblue" points="298.5,-304.495 302,-314.495 305.5,-304.495 298.5,-304.495"/>
</g>
<!-- Node6 -->
<g id="node6" class="node"><title>Node6</title>
<g id="a_node6"><a xlink:href="classsr__signal_1_1signal__if.html" target="_top" xlink:title="{sr_signal::signal_if\l\&lt; TYPE \&gt;\n||+ ~signal_if()\l+ read()\l+ operator TYPE()\l+ operator==()\l}">
<polygon fill="white" stroke="black" points="130,-474.5 130,-575.5 228,-575.5 228,-474.5 130,-474.5"/>
<text text-anchor="start" x="138" y="-563.5" font-family="Helvetica,sans-Serif" font-size="10.00">sr_signal::signal_if</text>
<text text-anchor="middle" x="179" y="-552.5" font-family="Helvetica,sans-Serif" font-size="10.00">&lt; TYPE &gt;</text>
<polyline fill="none" stroke="black" points="130,-545.5 228,-545.5 "/>
<text text-anchor="middle" x="179" y="-533.5" font-family="Helvetica,sans-Serif" font-size="10.00"> </text>
<polyline fill="none" stroke="black" points="130,-526.5 228,-526.5 "/>
<text text-anchor="start" x="138" y="-514.5" font-family="Helvetica,sans-Serif" font-size="10.00">+ ~signal_if()</text>
<text text-anchor="start" x="138" y="-503.5" font-family="Helvetica,sans-Serif" font-size="10.00">+ read()</text>
<text text-anchor="start" x="138" y="-492.5" font-family="Helvetica,sans-Serif" font-size="10.00">+ operator TYPE()</text>
<text text-anchor="start" x="138" y="-481.5" font-family="Helvetica,sans-Serif" font-size="10.00">+ operator==()</text>
</a>
</g>
</g>
<!-- Node6&#45;&gt;Node5 -->
<g id="edge5" class="edge"><title>Node6&#45;&gt;Node5</title>
<path fill="none" stroke="midnightblue" d="M223.841,-466.399C236.791,-449.765 250.806,-431.761 263.345,-415.654"/>
<polygon fill="none" stroke="midnightblue" points="220.962,-464.4 217.58,-474.441 226.485,-468.7 220.962,-464.4"/>
</g>
<!-- Node14 -->
<g id="node14" class="node"><title>Node14</title>
<g id="a_node14"><a xlink:href="classsr__signal_1_1signal__in__if.html" target="_top" xlink:title="{sr_signal::signal_in\l_if\&lt; TYPE \&gt;\n||+ ~signal_in_if()\l+ bind()\l+ update()\l}">
<polygon fill="white" stroke="black" points="131,-320 131,-410 231,-410 231,-320 131,-320"/>
<text text-anchor="start" x="139" y="-398" font-family="Helvetica,sans-Serif" font-size="10.00">sr_signal::signal_in</text>
<text text-anchor="middle" x="181" y="-387" font-family="Helvetica,sans-Serif" font-size="10.00">_if&lt; TYPE &gt;</text>
<polyline fill="none" stroke="black" points="131,-380 231,-380 "/>
<text text-anchor="middle" x="181" y="-368" font-family="Helvetica,sans-Serif" font-size="10.00"> </text>
<polyline fill="none" stroke="black" points="131,-361 231,-361 "/>
<text text-anchor="start" x="139" y="-349" font-family="Helvetica,sans-Serif" font-size="10.00">+ ~signal_in_if()</text>
<text text-anchor="start" x="139" y="-338" font-family="Helvetica,sans-Serif" font-size="10.00">+ bind()</text>
<text text-anchor="start" x="139" y="-327" font-family="Helvetica,sans-Serif" font-size="10.00">+ update()</text>
</a>
</g>
</g>
<!-- Node6&#45;&gt;Node14 -->
<g id="edge15" class="edge"><title>Node6&#45;&gt;Node14</title>
<path fill="none" stroke="midnightblue" d="M179.756,-464.315C179.984,-446.292 180.23,-426.841 180.443,-410.035"/>
<polygon fill="none" stroke="midnightblue" points="176.254,-464.398 179.627,-474.441 183.254,-464.486 176.254,-464.398"/>
</g>
<!-- Node7 -->
<g id="node7" class="node"><title>Node7</title>
<polygon fill="white" stroke="#bfbfbf" points="157.5,-624.5 157.5,-681.5 200.5,-681.5 200.5,-624.5 157.5,-624.5"/>
<text text-anchor="middle" x="179" y="-669.5" font-family="Helvetica,sans-Serif" font-size="10.00">TYPE</text>
<polyline fill="none" stroke="#bfbfbf" points="157.5,-662.5 200.5,-662.5 "/>
<text text-anchor="middle" x="179" y="-650.5" font-family="Helvetica,sans-Serif" font-size="10.00"> </text>
<polyline fill="none" stroke="#bfbfbf" points="157.5,-643.5 200.5,-643.5 "/>
<text text-anchor="middle" x="179" y="-631.5" font-family="Helvetica,sans-Serif" font-size="10.00"> </text>
</g>
<!-- Node7&#45;&gt;Node6 -->
<g id="edge6" class="edge"><title>Node7&#45;&gt;Node6</title>
<path fill="none" stroke="#404040" d="M179,-624.349C179,-613.534 179,-600.664 179,-587.858"/>
<polygon fill="none" stroke="#404040" points="179,-587.668 175,-581.668 179,-575.668 183,-581.668 179,-587.668"/>
<text text-anchor="middle" x="202" y="-597.5" font-family="Helvetica,sans-Serif" font-size="10.00"> #m_value</text>
</g>
<!-- Node8 -->
<g id="node8" class="node"><title>Node8</title>
<g id="a_node8"><a xlink:href="classsr__signal_1_1signal__out__bind__if.html" target="_top" xlink:title="{sr_signal::signal_out\l_bind_if\&lt; TYPE \&gt;\n||+ ~signal_out_bind_if()\l+ bind()\l}">
<polygon fill="white" stroke="black" points="246,-485.5 246,-564.5 362,-564.5 362,-485.5 246,-485.5"/>
<text text-anchor="start" x="254" y="-552.5" font-family="Helvetica,sans-Serif" font-size="10.00">sr_signal::signal_out</text>
<text text-anchor="middle" x="304" y="-541.5" font-family="Helvetica,sans-Serif" font-size="10.00">_bind_if&lt; TYPE &gt;</text>
<polyline fill="none" stroke="black" points="246,-534.5 362,-534.5 "/>
<text text-anchor="middle" x="304" y="-522.5" font-family="Helvetica,sans-Serif" font-size="10.00"> </text>
<polyline fill="none" stroke="black" points="246,-515.5 362,-515.5 "/>
<text text-anchor="start" x="254" y="-503.5" font-family="Helvetica,sans-Serif" font-size="10.00">+ ~signal_out_bind_if()</text>
<text text-anchor="start" x="254" y="-492.5" font-family="Helvetica,sans-Serif" font-size="10.00">+ bind()</text>
</a>
</g>
</g>
<!-- Node8&#45;&gt;Node5 -->
<g id="edge7" class="edge"><title>Node8&#45;&gt;Node5</title>
<path fill="none" stroke="midnightblue" d="M303.382,-475.152C303.142,-456.234 302.868,-434.601 302.628,-415.611"/>
<polygon fill="none" stroke="midnightblue" points="299.884,-475.394 303.511,-485.349 306.884,-475.305 299.884,-475.394"/>
</g>
<!-- Node9 -->
<g id="node9" class="node"><title>Node9</title>
<polygon fill="white" stroke="#bfbfbf" points="388,-331 388,-399 488,-399 488,-331 388,-331"/>
<text text-anchor="start" x="396" y="-387" font-family="Helvetica,sans-Serif" font-size="10.00">std::vector&lt; signal</text>
<text text-anchor="middle" x="438" y="-376" font-family="Helvetica,sans-Serif" font-size="10.00">_in_if&lt; TYPE &gt; * &gt;</text>
<polyline fill="none" stroke="#bfbfbf" points="388,-369 488,-369 "/>
<text text-anchor="middle" x="438" y="-357" font-family="Helvetica,sans-Serif" font-size="10.00"> </text>
<polyline fill="none" stroke="#bfbfbf" points="388,-350 488,-350 "/>
<text text-anchor="middle" x="438" y="-338" font-family="Helvetica,sans-Serif" font-size="10.00"> </text>
</g>
<!-- Node9&#45;&gt;Node2 -->
<g id="edge8" class="edge"><title>Node9&#45;&gt;Node2</title>
<path fill="none" stroke="#404040" d="M410.478,-330.61C397.077,-314.351 380.379,-294.092 364.13,-274.379"/>
<polygon fill="none" stroke="#404040" points="364.092,-274.332 357.189,-272.246 356.459,-265.072 363.362,-267.158 364.092,-274.332"/>
<text text-anchor="middle" x="407.5" y="-287.5" font-family="Helvetica,sans-Serif" font-size="10.00"> #m_receiver</text>
</g>
<!-- Node10 -->
<g id="node10" class="node"><title>Node10</title>
<polygon fill="white" stroke="#bfbfbf" points="380,-496.5 380,-553.5 496,-553.5 496,-496.5 380,-496.5"/>
<text text-anchor="middle" x="438" y="-541.5" font-family="Helvetica,sans-Serif" font-size="10.00">signal_in_if&lt; TYPE &gt; *</text>
<polyline fill="none" stroke="#bfbfbf" points="380,-534.5 496,-534.5 "/>
<text text-anchor="middle" x="438" y="-522.5" font-family="Helvetica,sans-Serif" font-size="10.00"> </text>
<polyline fill="none" stroke="#bfbfbf" points="380,-515.5 496,-515.5 "/>
<text text-anchor="middle" x="438" y="-503.5" font-family="Helvetica,sans-Serif" font-size="10.00"> </text>
</g>
<!-- Node10&#45;&gt;Node9 -->
<g id="edge9" class="edge"><title>Node10&#45;&gt;Node9</title>
<path fill="none" stroke="#404040" d="M438,-496.479C438,-473.017 438,-438.826 438,-411.33"/>
<polygon fill="none" stroke="#404040" points="438,-411.23 434,-405.23 438,-399.23 442,-405.23 438,-411.23"/>
<text text-anchor="middle" x="462.5" y="-442.5" font-family="Helvetica,sans-Serif" font-size="10.00"> +elements</text>
</g>
<!-- Node11 -->
<g id="node11" class="node"><title>Node11</title>
<g id="a_node11"><a xlink:title="STL class. ">
<polygon fill="white" stroke="#bfbfbf" points="514.5,-496.5 514.5,-553.5 601.5,-553.5 601.5,-496.5 514.5,-496.5"/>
<text text-anchor="middle" x="558" y="-541.5" font-family="Helvetica,sans-Serif" font-size="10.00">std::vector&lt; T &gt;</text>
<polyline fill="none" stroke="#bfbfbf" points="514.5,-534.5 601.5,-534.5 "/>
<text text-anchor="middle" x="558" y="-522.5" font-family="Helvetica,sans-Serif" font-size="10.00"> </text>
<polyline fill="none" stroke="#bfbfbf" points="514.5,-515.5 601.5,-515.5 "/>
<text text-anchor="middle" x="558" y="-503.5" font-family="Helvetica,sans-Serif" font-size="10.00"> </text>
</a>
</g>
</g>
<!-- Node11&#45;&gt;Node9 -->
<g id="edge10" class="edge"><title>Node11&#45;&gt;Node9</title>
<path fill="none" stroke="orange" d="M531.482,-487.999C519.243,-471.482 504.47,-451.682 491,-434 482.293,-422.57 472.663,-410.15 464.026,-399.089"/>
<polygon fill="orange" stroke="orange" points="528.869,-490.352 537.631,-496.309 534.496,-486.188 528.869,-490.352"/>
<text text-anchor="start" x="506" y="-448" font-family="Helvetica,sans-Serif" font-size="10.00"> &lt; signal_in_if&lt; TYPE</text>
<text text-anchor="middle" x="554.5" y="-437" font-family="Helvetica,sans-Serif" font-size="10.00"> &gt; * &gt;</text>
</g>
<!-- Node12 -->
<g id="node12" class="node"><title>Node12</title>
<polygon fill="white" stroke="#bfbfbf" points="543.5,-624.5 543.5,-681.5 572.5,-681.5 572.5,-624.5 543.5,-624.5"/>
<text text-anchor="middle" x="558" y="-669.5" font-family="Helvetica,sans-Serif" font-size="10.00">T</text>
<polyline fill="none" stroke="#bfbfbf" points="543.5,-662.5 572.5,-662.5 "/>
<text text-anchor="middle" x="558" y="-650.5" font-family="Helvetica,sans-Serif" font-size="10.00"> </text>
<polyline fill="none" stroke="#bfbfbf" points="543.5,-643.5 572.5,-643.5 "/>
<text text-anchor="middle" x="558" y="-631.5" font-family="Helvetica,sans-Serif" font-size="10.00"> </text>
</g>
<!-- Node12&#45;&gt;Node11 -->
<g id="edge11" class="edge"><title>Node12&#45;&gt;Node11</title>
<path fill="none" stroke="#404040" d="M558,-624.349C558,-607.198 558,-584.879 558,-565.838"/>
<polygon fill="none" stroke="#404040" points="558,-565.587 554,-559.587 558,-553.587 562,-559.587 558,-565.587"/>
<text text-anchor="middle" x="582.5" y="-597.5" font-family="Helvetica,sans-Serif" font-size="10.00"> +elements</text>
</g>
<!-- Node13&#45;&gt;Node1 -->
<g id="edge12" class="edge"><title>Node13&#45;&gt;Node1</title>
<path fill="none" stroke="midnightblue" d="M212.17,-121.665C217.43,-111.283 222.686,-100.909 227.535,-91.3391"/>
<polygon fill="none" stroke="midnightblue" points="208.954,-120.269 207.556,-130.771 215.198,-123.433 208.954,-120.269"/>
</g>
<!-- Node14&#45;&gt;Node13 -->
<g id="edge14" class="edge"><title>Node14&#45;&gt;Node13</title>
<path fill="none" stroke="midnightblue" d="M178.695,-309.656C178.09,-295.4 177.431,-279.868 176.803,-265.072"/>
<polygon fill="none" stroke="midnightblue" points="175.203,-309.94 179.124,-319.783 182.197,-309.644 175.203,-309.94"/>
</g>
</g>
</svg>
        <g id="navigator" transform="translate(0 0)" fill="#404254">
                <rect fill="#f2f5e9" fill-opacity="0.5" stroke="#606060" stroke-width=".5" x="0" y="0" width="60" height="60"/>
                <use id="zoomplus" xlink:href="#zoomPlus" x="17" y="9" onmousedown="handleZoom(evt,'in')"/>
                <use id="zoomminus" xlink:href="#zoomMin" x="42" y="9" onmousedown="handleZoom(evt,'out')"/>
                <use id="reset" xlink:href="#resetDef" x="30" y="36" onmousedown="handleReset()"/>
                <g id="arrowUp" xlink:href="#dirArrow" transform="translate(30 24)" onmousedown="handlePan(0,-1)">
                  <use xlink:href="#rim" fill="#404040">
                        <set attributeName="fill" to="#808080" begin="arrowUp.mouseover" end="arrowUp.mouseout"/>
                  </use>
                  <path fill="none" stroke="white" stroke-width="1.5" d="M0,-3.0v7 M-2.5,-0.5L0,-3.0L2.5,-0.5"/>
                </g>
                <g id="arrowRight" xlink:href="#dirArrow" transform="rotate(90) translate(36 -43)" onmousedown="handlePan(1,0)">
                  <use xlink:href="#rim" fill="#404040">
                        <set attributeName="fill" to="#808080" begin="arrowRight.mouseover" end="arrowRight.mouseout"/>
                  </use>
                  <path fill="none" stroke="white" stroke-width="1.5" d="M0,-3.0v7 M-2.5,-0.5L0,-3.0L2.5,-0.5"/>
                </g>
                <g id="arrowDown" xlink:href="#dirArrow" transform="rotate(180) translate(-30 -48)" onmousedown="handlePan(0,1)">
                  <use xlink:href="#rim" fill="#404040">
                        <set attributeName="fill" to="#808080" begin="arrowDown.mouseover" end="arrowDown.mouseout"/>
                  </use>
                  <path fill="none" stroke="white" stroke-width="1.5" d="M0,-3.0v7 M-2.5,-0.5L0,-3.0L2.5,-0.5"/>
                </g>
                <g id="arrowLeft" xlink:href="#dirArrow" transform="rotate(270) translate(-36 17)" onmousedown="handlePan(-1,0)">
                  <use xlink:href="#rim" fill="#404040">
                        <set attributeName="fill" to="#808080" begin="arrowLeft.mouseover" end="arrowLeft.mouseout"/>
                  </use>
                  <path fill="none" stroke="white" stroke-width="1.5" d="M0,-3.0v7 M-2.5,-0.5L0,-3.0L2.5,-0.5"/>
                </g>
        </g>
        <svg viewBox="0 0 15 15" width="100%" height="30px" preserveAspectRatio="xMaxYMin meet">
         <g id="arrow_out" transform="scale(0.3 0.3)">
          <a xlink:href="classsr__signal_1_1signal__inout__coll__graph_org.svg" target="_base">
           <rect id="button" ry="5" rx="5" y="6" x="6" height="38" width="38"
                fill="#f2f5e9" fill-opacity="0.5" stroke="#606060" stroke-width="1.0"/>
           <path id="arrow"
             d="M 11.500037,31.436501 C 11.940474,20.09759 22.043105,11.32322 32.158766,21.979434 L 37.068811,17.246167 C 37.068811,17.246167 37.088388,32 37.088388,32 L 22.160133,31.978069 C 22.160133,31.978069 26.997745,27.140456 26.997745,27.140456 C 18.528582,18.264221 13.291696,25.230495 11.500037,31.436501 z"
             style="fill:#404040;"/>
          </a>
         </g>
        </svg>
</svg>
