<?xml version="1.0" encoding="UTF-8" standalone="no"?>
<!DOCTYPE svg PUBLIC "-//W3C//DTD SVG 1.1//EN"
 "http://www.w3.org/Graphics/SVG/1.1/DTD/svg11.dtd">
<!-- Generated by graphviz version 2.38.0 (20140413.2041)
 -->
<!-- Title: leon3_funcat_trap::CALL Pages: 1 -->
<svg width="1332pt" height="807pt"
 viewBox="0.00 0.00 1331.85 807.00" xmlns="http://www.w3.org/2000/svg" xmlns:xlink="http://www.w3.org/1999/xlink">
<g id="graph0" class="graph" transform="scale(1 1) rotate(0) translate(4 803)">
<title>leon3_funcat_trap::CALL</title>
<polygon fill="white" stroke="none" points="-4,4 -4,-803 1327.85,-803 1327.85,4 -4,4"/>
<!-- Node1 -->
<g id="node1" class="node"><title>Node1</title>
<polygon fill="#bfbfbf" stroke="black" points="1071.49,-0.5 1071.49,-124.5 1198.13,-124.5 1198.13,-0.5 1071.49,-0.5"/>
<text text-anchor="middle" x="1134.81" y="-112.5" font-family="Helvetica,sans-Serif" font-size="10.00">leon3_funcat_trap::CALL</text>
<polyline fill="none" stroke="black" points="1071.49,-106.5 1198.13,-106.5 "/>
<text text-anchor="middle" x="1134.81" y="-94.5" font-family="Helvetica,sans-Serif" font-size="10.00"> </text>
<polyline fill="none" stroke="black" points="1071.49,-88.5 1198.13,-88.5 "/>
<text text-anchor="start" x="1079.49" y="-76.5" font-family="Helvetica,sans-Serif" font-size="10.00">+ CALL()</text>
<text text-anchor="start" x="1079.49" y="-66.5" font-family="Helvetica,sans-Serif" font-size="10.00">+ behavior()</text>
<text text-anchor="start" x="1079.49" y="-56.5" font-family="Helvetica,sans-Serif" font-size="10.00">+ replicate()</text>
<text text-anchor="start" x="1079.49" y="-46.5" font-family="Helvetica,sans-Serif" font-size="10.00">+ getInstructionName()</text>
<text text-anchor="start" x="1079.49" y="-36.5" font-family="Helvetica,sans-Serif" font-size="10.00">+ getId()</text>
<text text-anchor="start" x="1079.49" y="-26.5" font-family="Helvetica,sans-Serif" font-size="10.00">+ setParams()</text>
<text text-anchor="start" x="1079.49" y="-16.5" font-family="Helvetica,sans-Serif" font-size="10.00">+ getMnemonic()</text>
<text text-anchor="start" x="1079.49" y="-6.5" font-family="Helvetica,sans-Serif" font-size="10.00">+ ~CALL()</text>
</g>
<!-- Node2 -->
<g id="node2" class="node"><title>Node2</title>
<g id="a_node2"><a xlink:href="classleon3__funcat__trap_1_1Instruction.html" target="_top" xlink:title="{leon3_funcat_trap::\lInstruction\n||+ Instruction()\l+ behavior()\l+ replicate()\l+ setParams()\l+ getInstructionName()\l+ getMnemonic()\l+ getId()\l+ annull()\l+ flush()\l+ stall()\land 7 more...\l# IncrementPC()\l}">
<polygon fill="white" stroke="black" points="663.816,-162.5 663.816,-336.5 781.804,-336.5 781.804,-162.5 663.816,-162.5"/>
<text text-anchor="start" x="671.816" y="-324.5" font-family="Helvetica,sans-Serif" font-size="10.00">leon3_funcat_trap::</text>
<text text-anchor="middle" x="722.81" y="-314.5" font-family="Helvetica,sans-Serif" font-size="10.00">Instruction</text>
<polyline fill="none" stroke="black" points="663.816,-308.5 781.804,-308.5 "/>
<text text-anchor="middle" x="722.81" y="-296.5" font-family="Helvetica,sans-Serif" font-size="10.00"> </text>
<polyline fill="none" stroke="black" points="663.816,-290.5 781.804,-290.5 "/>
<text text-anchor="start" x="671.816" y="-278.5" font-family="Helvetica,sans-Serif" font-size="10.00">+ Instruction()</text>
<text text-anchor="start" x="671.816" y="-268.5" font-family="Helvetica,sans-Serif" font-size="10.00">+ behavior()</text>
<text text-anchor="start" x="671.816" y="-258.5" font-family="Helvetica,sans-Serif" font-size="10.00">+ replicate()</text>
<text text-anchor="start" x="671.816" y="-248.5" font-family="Helvetica,sans-Serif" font-size="10.00">+ setParams()</text>
<text text-anchor="start" x="671.816" y="-238.5" font-family="Helvetica,sans-Serif" font-size="10.00">+ getInstructionName()</text>
<text text-anchor="start" x="671.816" y="-228.5" font-family="Helvetica,sans-Serif" font-size="10.00">+ getMnemonic()</text>
<text text-anchor="start" x="671.816" y="-218.5" font-family="Helvetica,sans-Serif" font-size="10.00">+ getId()</text>
<text text-anchor="start" x="671.816" y="-208.5" font-family="Helvetica,sans-Serif" font-size="10.00">+ annull()</text>
<text text-anchor="start" x="671.816" y="-198.5" font-family="Helvetica,sans-Serif" font-size="10.00">+ flush()</text>
<text text-anchor="start" x="671.816" y="-188.5" font-family="Helvetica,sans-Serif" font-size="10.00">+ stall()</text>
<text text-anchor="start" x="671.816" y="-178.5" font-family="Helvetica,sans-Serif" font-size="10.00">and 7 more...</text>
<text text-anchor="start" x="671.816" y="-168.5" font-family="Helvetica,sans-Serif" font-size="10.00"># IncrementPC()</text>
</a>
</g>
</g>
<!-- Node2&#45;&gt;Node1 -->
<g id="edge1" class="edge"><title>Node2&#45;&gt;Node1</title>
<path fill="none" stroke="midnightblue" d="M791.089,-217.841C868.956,-182.876 995.265,-126.16 1071.15,-92.0846"/>
<polygon fill="none" stroke="midnightblue" points="789.528,-214.705 781.84,-221.994 792.396,-221.091 789.528,-214.705"/>
</g>
<!-- Node3 -->
<g id="node3" class="node"><title>Node3</title>
<g id="a_node3"><a xlink:href="classtrap_1_1InstructionBase.html" target="_top" xlink:title="{trap::InstructionBase\n||+ getInstructionName()\l+ getMnemonic()\l+ getId()\l}">
<polygon fill="white" stroke="black" points="870.816,-468.5 870.816,-542.5 988.804,-542.5 988.804,-468.5 870.816,-468.5"/>
<text text-anchor="middle" x="929.81" y="-530.5" font-family="Helvetica,sans-Serif" font-size="10.00">trap::InstructionBase</text>
<polyline fill="none" stroke="black" points="870.816,-524.5 988.804,-524.5 "/>
<text text-anchor="middle" x="929.81" y="-512.5" font-family="Helvetica,sans-Serif" font-size="10.00"> </text>
<polyline fill="none" stroke="black" points="870.816,-506.5 988.804,-506.5 "/>
<text text-anchor="start" x="878.816" y="-494.5" font-family="Helvetica,sans-Serif" font-size="10.00">+ getInstructionName()</text>
<text text-anchor="start" x="878.816" y="-484.5" font-family="Helvetica,sans-Serif" font-size="10.00">+ getMnemonic()</text>
<text text-anchor="start" x="878.816" y="-474.5" font-family="Helvetica,sans-Serif" font-size="10.00">+ getId()</text>
</a>
</g>
</g>
<!-- Node3&#45;&gt;Node2 -->
<g id="edge2" class="edge"><title>Node3&#45;&gt;Node2</title>
<path fill="none" stroke="midnightblue" d="M894.024,-460.588C863.221,-422.792 818.158,-367.497 781.994,-323.122"/>
<polygon fill="none" stroke="midnightblue" points="891.341,-462.837 900.372,-468.378 896.768,-458.415 891.341,-462.837"/>
</g>
<!-- Node4 -->
<g id="node4" class="node"><title>Node4</title>
<g id="a_node4"><a xlink:href="classleon3__funcat__trap_1_1Reg32__0.html" target="_top" xlink:title="{leon3_funcat_trap::\lReg32_0\n||+ Reg32_0()\l+ operator[]()\l+ immediateWrite()\l+ readNewValue()\l+ operator~()\l+ operator=()\l+ operator+=()\l+ operator&#45;=()\l+ operator*=()\l+ operator/=()\land 57 more...\l}">
<polygon fill="white" stroke="black" points="240,-423.5 240,-587.5 341.62,-587.5 341.62,-423.5 240,-423.5"/>
<text text-anchor="start" x="248" y="-575.5" font-family="Helvetica,sans-Serif" font-size="10.00">leon3_funcat_trap::</text>
<text text-anchor="middle" x="290.81" y="-565.5" font-family="Helvetica,sans-Serif" font-size="10.00">Reg32_0</text>
<polyline fill="none" stroke="black" points="240,-559.5 341.62,-559.5 "/>
<text text-anchor="middle" x="290.81" y="-547.5" font-family="Helvetica,sans-Serif" font-size="10.00"> </text>
<polyline fill="none" stroke="black" points="240,-541.5 341.62,-541.5 "/>
<text text-anchor="start" x="248" y="-529.5" font-family="Helvetica,sans-Serif" font-size="10.00">+ Reg32_0()</text>
<text text-anchor="start" x="248" y="-519.5" font-family="Helvetica,sans-Serif" font-size="10.00">+ operator[]()</text>
<text text-anchor="start" x="248" y="-509.5" font-family="Helvetica,sans-Serif" font-size="10.00">+ immediateWrite()</text>
<text text-anchor="start" x="248" y="-499.5" font-family="Helvetica,sans-Serif" font-size="10.00">+ readNewValue()</text>
<text text-anchor="start" x="248" y="-489.5" font-family="Helvetica,sans-Serif" font-size="10.00">+ operator~()</text>
<text text-anchor="start" x="248" y="-479.5" font-family="Helvetica,sans-Serif" font-size="10.00">+ operator=()</text>
<text text-anchor="start" x="248" y="-469.5" font-family="Helvetica,sans-Serif" font-size="10.00">+ operator+=()</text>
<text text-anchor="start" x="248" y="-459.5" font-family="Helvetica,sans-Serif" font-size="10.00">+ operator&#45;=()</text>
<text text-anchor="start" x="248" y="-449.5" font-family="Helvetica,sans-Serif" font-size="10.00">+ operator*=()</text>
<text text-anchor="start" x="248" y="-439.5" font-family="Helvetica,sans-Serif" font-size="10.00">+ operator/=()</text>
<text text-anchor="start" x="248" y="-429.5" font-family="Helvetica,sans-Serif" font-size="10.00">and 57 more...</text>
</a>
</g>
</g>
<!-- Node4&#45;&gt;Node2 -->
<g id="edge3" class="edge"><title>Node4&#45;&gt;Node2</title>
<path fill="none" stroke="#404040" d="M341.66,-432.026C344.642,-428.874 347.698,-425.846 350.81,-423 438.939,-342.413 571.302,-293.37 652.086,-269.134"/>
<polygon fill="none" stroke="#404040" points="652.108,-269.128 656.734,-263.596 663.62,-265.738 658.994,-271.27 652.108,-269.128"/>
<text text-anchor="middle" x="456.261" y="-377" font-family="Helvetica,sans-Serif" font-size="10.00"> #PSR</text>
</g>
<!-- Node5 -->
<g id="node5" class="node"><title>Node5</title>
<g id="a_node5"><a xlink:href="classleon3__funcat__trap_1_1Register.html" target="_top" xlink:title="{leon3_funcat_trap::\lRegister\n||+ Register()\l+ Register()\l+ immediateWrite()\l+ readNewValue()\l+ clockCycle()\l+ operator[]()\l+ operator~()\l+ operator+()\l+ operator&#45;()\l+ operator*()\land 34 more...\l}">
<polygon fill="white" stroke="black" points="87,-634.5 87,-798.5 188.62,-798.5 188.62,-634.5 87,-634.5"/>
<text text-anchor="start" x="95" y="-786.5" font-family="Helvetica,sans-Serif" font-size="10.00">leon3_funcat_trap::</text>
<text text-anchor="middle" x="137.81" y="-776.5" font-family="Helvetica,sans-Serif" font-size="10.00">Register</text>
<polyline fill="none" stroke="black" points="87,-770.5 188.62,-770.5 "/>
<text text-anchor="middle" x="137.81" y="-758.5" font-family="Helvetica,sans-Serif" font-size="10.00"> </text>
<polyline fill="none" stroke="black" points="87,-752.5 188.62,-752.5 "/>
<text text-anchor="start" x="95" y="-740.5" font-family="Helvetica,sans-Serif" font-size="10.00">+ Register()</text>
<text text-anchor="start" x="95" y="-730.5" font-family="Helvetica,sans-Serif" font-size="10.00">+ Register()</text>
<text text-anchor="start" x="95" y="-720.5" font-family="Helvetica,sans-Serif" font-size="10.00">+ immediateWrite()</text>
<text text-anchor="start" x="95" y="-710.5" font-family="Helvetica,sans-Serif" font-size="10.00">+ readNewValue()</text>
<text text-anchor="start" x="95" y="-700.5" font-family="Helvetica,sans-Serif" font-size="10.00">+ clockCycle()</text>
<text text-anchor="start" x="95" y="-690.5" font-family="Helvetica,sans-Serif" font-size="10.00">+ operator[]()</text>
<text text-anchor="start" x="95" y="-680.5" font-family="Helvetica,sans-Serif" font-size="10.00">+ operator~()</text>
<text text-anchor="start" x="95" y="-670.5" font-family="Helvetica,sans-Serif" font-size="10.00">+ operator+()</text>
<text text-anchor="start" x="95" y="-660.5" font-family="Helvetica,sans-Serif" font-size="10.00">+ operator&#45;()</text>
<text text-anchor="start" x="95" y="-650.5" font-family="Helvetica,sans-Serif" font-size="10.00">+ operator*()</text>
<text text-anchor="start" x="95" y="-640.5" font-family="Helvetica,sans-Serif" font-size="10.00">and 34 more...</text>
</a>
</g>
</g>
<!-- Node5&#45;&gt;Node4 -->
<g id="edge4" class="edge"><title>Node5&#45;&gt;Node4</title>
<path fill="none" stroke="midnightblue" d="M194.696,-637.597C202.46,-626.976 210.329,-616.218 217.81,-606 224.961,-596.233 232.511,-585.93 239.936,-575.805"/>
<polygon fill="none" stroke="midnightblue" points="191.863,-635.542 188.788,-645.68 197.515,-639.672 191.863,-635.542"/>
</g>
<!-- Node6 -->
<g id="node6" class="node"><title>Node6</title>
<g id="a_node6"><a xlink:href="classleon3__funcat__trap_1_1Reg32__1.html" target="_top" xlink:title="{leon3_funcat_trap::\lReg32_1\n||+ Reg32_1()\l+ operator[]()\l+ immediateWrite()\l+ readNewValue()\l+ operator~()\l+ operator=()\l+ operator+=()\l+ operator&#45;=()\l+ operator*=()\l+ operator/=()\land 57 more...\l}">
<polygon fill="white" stroke="black" points="360,-423.5 360,-587.5 461.62,-587.5 461.62,-423.5 360,-423.5"/>
<text text-anchor="start" x="368" y="-575.5" font-family="Helvetica,sans-Serif" font-size="10.00">leon3_funcat_trap::</text>
<text text-anchor="middle" x="410.81" y="-565.5" font-family="Helvetica,sans-Serif" font-size="10.00">Reg32_1</text>
<polyline fill="none" stroke="black" points="360,-559.5 461.62,-559.5 "/>
<text text-anchor="middle" x="410.81" y="-547.5" font-family="Helvetica,sans-Serif" font-size="10.00"> </text>
<polyline fill="none" stroke="black" points="360,-541.5 461.62,-541.5 "/>
<text text-anchor="start" x="368" y="-529.5" font-family="Helvetica,sans-Serif" font-size="10.00">+ Reg32_1()</text>
<text text-anchor="start" x="368" y="-519.5" font-family="Helvetica,sans-Serif" font-size="10.00">+ operator[]()</text>
<text text-anchor="start" x="368" y="-509.5" font-family="Helvetica,sans-Serif" font-size="10.00">+ immediateWrite()</text>
<text text-anchor="start" x="368" y="-499.5" font-family="Helvetica,sans-Serif" font-size="10.00">+ readNewValue()</text>
<text text-anchor="start" x="368" y="-489.5" font-family="Helvetica,sans-Serif" font-size="10.00">+ operator~()</text>
<text text-anchor="start" x="368" y="-479.5" font-family="Helvetica,sans-Serif" font-size="10.00">+ operator=()</text>
<text text-anchor="start" x="368" y="-469.5" font-family="Helvetica,sans-Serif" font-size="10.00">+ operator+=()</text>
<text text-anchor="start" x="368" y="-459.5" font-family="Helvetica,sans-Serif" font-size="10.00">+ operator&#45;=()</text>
<text text-anchor="start" x="368" y="-449.5" font-family="Helvetica,sans-Serif" font-size="10.00">+ operator*=()</text>
<text text-anchor="start" x="368" y="-439.5" font-family="Helvetica,sans-Serif" font-size="10.00">+ operator/=()</text>
<text text-anchor="start" x="368" y="-429.5" font-family="Helvetica,sans-Serif" font-size="10.00">and 57 more...</text>
</a>
</g>
</g>
<!-- Node5&#45;&gt;Node6 -->
<g id="edge6" class="edge"><title>Node5&#45;&gt;Node6</title>
<path fill="none" stroke="midnightblue" d="M196.125,-635.537C196.685,-635.019 197.247,-634.506 197.81,-634 216.179,-617.491 222.601,-614.444 245.81,-606 290.304,-589.812 310.519,-612.868 350.81,-588 353.95,-586.062 356.978,-583.894 359.893,-581.546"/>
<polygon fill="none" stroke="midnightblue" points="193.651,-633.062 188.975,-642.569 198.559,-638.053 193.651,-633.062"/>
</g>
<!-- Node7 -->
<g id="node7" class="node"><title>Node7</title>
<g id="a_node7"><a xlink:href="classleon3__funcat__trap_1_1Reg32__2.html" target="_top" xlink:title="{leon3_funcat_trap::\lReg32_2\n||+ Reg32_2()\l+ operator[]()\l+ immediateWrite()\l+ readNewValue()\l+ operator~()\l+ operator=()\l+ operator+=()\l+ operator&#45;=()\l+ operator*=()\l+ operator/=()\land 57 more...\l}">
<polygon fill="white" stroke="black" points="0,-423.5 0,-587.5 101.62,-587.5 101.62,-423.5 0,-423.5"/>
<text text-anchor="start" x="8" y="-575.5" font-family="Helvetica,sans-Serif" font-size="10.00">leon3_funcat_trap::</text>
<text text-anchor="middle" x="50.8101" y="-565.5" font-family="Helvetica,sans-Serif" font-size="10.00">Reg32_2</text>
<polyline fill="none" stroke="black" points="0,-559.5 101.62,-559.5 "/>
<text text-anchor="middle" x="50.8101" y="-547.5" font-family="Helvetica,sans-Serif" font-size="10.00"> </text>
<polyline fill="none" stroke="black" points="0,-541.5 101.62,-541.5 "/>
<text text-anchor="start" x="8" y="-529.5" font-family="Helvetica,sans-Serif" font-size="10.00">+ Reg32_2()</text>
<text text-anchor="start" x="8" y="-519.5" font-family="Helvetica,sans-Serif" font-size="10.00">+ operator[]()</text>
<text text-anchor="start" x="8" y="-509.5" font-family="Helvetica,sans-Serif" font-size="10.00">+ immediateWrite()</text>
<text text-anchor="start" x="8" y="-499.5" font-family="Helvetica,sans-Serif" font-size="10.00">+ readNewValue()</text>
<text text-anchor="start" x="8" y="-489.5" font-family="Helvetica,sans-Serif" font-size="10.00">+ operator~()</text>
<text text-anchor="start" x="8" y="-479.5" font-family="Helvetica,sans-Serif" font-size="10.00">+ operator=()</text>
<text text-anchor="start" x="8" y="-469.5" font-family="Helvetica,sans-Serif" font-size="10.00">+ operator+=()</text>
<text text-anchor="start" x="8" y="-459.5" font-family="Helvetica,sans-Serif" font-size="10.00">+ operator&#45;=()</text>
<text text-anchor="start" x="8" y="-449.5" font-family="Helvetica,sans-Serif" font-size="10.00">+ operator*=()</text>
<text text-anchor="start" x="8" y="-439.5" font-family="Helvetica,sans-Serif" font-size="10.00">+ operator/=()</text>
<text text-anchor="start" x="8" y="-429.5" font-family="Helvetica,sans-Serif" font-size="10.00">and 57 more...</text>
</a>
</g>
</g>
<!-- Node5&#45;&gt;Node7 -->
<g id="edge8" class="edge"><title>Node5&#45;&gt;Node7</title>
<path fill="none" stroke="midnightblue" d="M100.117,-624.95C94.9404,-612.514 89.6519,-599.81 84.5521,-587.558"/>
<polygon fill="none" stroke="midnightblue" points="96.9748,-626.509 104.049,-634.396 103.437,-623.819 96.9748,-626.509"/>
</g>
<!-- Node8 -->
<g id="node8" class="node"><title>Node8</title>
<g id="a_node8"><a xlink:href="classleon3__funcat__trap_1_1Reg32__3.html" target="_top" xlink:title="{leon3_funcat_trap::\lReg32_3\n||+ Reg32_3()\l+ operator[]()\l+ immediateWrite()\l+ readNewValue()\l+ operator~()\l+ operator=()\l+ operator+=()\l+ operator&#45;=()\l+ operator*=()\l+ operator/=()\land 57 more...\l}">
<polygon fill="white" stroke="black" points="120,-423.5 120,-587.5 221.62,-587.5 221.62,-423.5 120,-423.5"/>
<text text-anchor="start" x="128" y="-575.5" font-family="Helvetica,sans-Serif" font-size="10.00">leon3_funcat_trap::</text>
<text text-anchor="middle" x="170.81" y="-565.5" font-family="Helvetica,sans-Serif" font-size="10.00">Reg32_3</text>
<polyline fill="none" stroke="black" points="120,-559.5 221.62,-559.5 "/>
<text text-anchor="middle" x="170.81" y="-547.5" font-family="Helvetica,sans-Serif" font-size="10.00"> </text>
<polyline fill="none" stroke="black" points="120,-541.5 221.62,-541.5 "/>
<text text-anchor="start" x="128" y="-529.5" font-family="Helvetica,sans-Serif" font-size="10.00">+ Reg32_3()</text>
<text text-anchor="start" x="128" y="-519.5" font-family="Helvetica,sans-Serif" font-size="10.00">+ operator[]()</text>
<text text-anchor="start" x="128" y="-509.5" font-family="Helvetica,sans-Serif" font-size="10.00">+ immediateWrite()</text>
<text text-anchor="start" x="128" y="-499.5" font-family="Helvetica,sans-Serif" font-size="10.00">+ readNewValue()</text>
<text text-anchor="start" x="128" y="-489.5" font-family="Helvetica,sans-Serif" font-size="10.00">+ operator~()</text>
<text text-anchor="start" x="128" y="-479.5" font-family="Helvetica,sans-Serif" font-size="10.00">+ operator=()</text>
<text text-anchor="start" x="128" y="-469.5" font-family="Helvetica,sans-Serif" font-size="10.00">+ operator+=()</text>
<text text-anchor="start" x="128" y="-459.5" font-family="Helvetica,sans-Serif" font-size="10.00">+ operator&#45;=()</text>
<text text-anchor="start" x="128" y="-449.5" font-family="Helvetica,sans-Serif" font-size="10.00">+ operator*=()</text>
<text text-anchor="start" x="128" y="-439.5" font-family="Helvetica,sans-Serif" font-size="10.00">+ operator/=()</text>
<text text-anchor="start" x="128" y="-429.5" font-family="Helvetica,sans-Serif" font-size="10.00">and 57 more...</text>
</a>
</g>
</g>
<!-- Node5&#45;&gt;Node8 -->
<g id="edge10" class="edge"><title>Node5&#45;&gt;Node8</title>
<path fill="none" stroke="midnightblue" d="M152.223,-624.218C154.15,-612.016 156.115,-599.569 158.011,-587.558"/>
<polygon fill="none" stroke="midnightblue" points="148.718,-623.972 150.616,-634.396 155.633,-625.064 148.718,-623.972"/>
</g>
<!-- Node6&#45;&gt;Node2 -->
<g id="edge5" class="edge"><title>Node6&#45;&gt;Node2</title>
<path fill="none" stroke="#404040" d="M461.911,-432.292C464.828,-429.07 467.8,-425.953 470.81,-423 525.887,-368.952 599.794,-320.602 653.316,-288.942"/>
<polygon fill="none" stroke="#404040" points="653.383,-288.902 656.538,-282.418 663.737,-282.836 660.582,-289.32 653.383,-288.902"/>
<text text-anchor="middle" x="562.253" y="-377" font-family="Helvetica,sans-Serif" font-size="10.00"> #WIM</text>
</g>
<!-- Node7&#45;&gt;Node2 -->
<g id="edge7" class="edge"><title>Node7&#45;&gt;Node2</title>
<path fill="none" stroke="#404040" d="M101.738,-432.111C104.7,-428.937 107.73,-425.88 110.81,-423 151.873,-384.602 165.382,-376.152 217.47,-355 365.082,-295.057 551.466,-267.967 651.526,-257.013"/>
<polygon fill="none" stroke="#404040" points="651.654,-256.999 657.195,-252.385 663.586,-255.725 658.045,-260.34 651.654,-256.999"/>
<text text-anchor="middle" x="231.98" y="-377" font-family="Helvetica,sans-Serif" font-size="10.00"> #TBR</text>
</g>
<!-- Node8&#45;&gt;Node2 -->
<g id="edge9" class="edge"><title>Node8&#45;&gt;Node2</title>
<path fill="none" stroke="#404040" d="M221.693,-432.841C224.688,-429.437 227.735,-426.136 230.81,-423 265.578,-387.542 274.839,-376.774 319.47,-355 428.726,-301.698 568.353,-273.344 651.394,-260.153"/>
<polygon fill="none" stroke="#404040" points="651.616,-260.119 656.931,-255.246 663.474,-258.278 658.158,-263.151 651.616,-260.119"/>
<text text-anchor="middle" x="346.48" y="-397" font-family="Helvetica,sans-Serif" font-size="10.00"> #Y</text>
<text text-anchor="middle" x="346.48" y="-387" font-family="Helvetica,sans-Serif" font-size="10.00">#WINREGS</text>
<text text-anchor="middle" x="346.48" y="-377" font-family="Helvetica,sans-Serif" font-size="10.00">#PC</text>
<text text-anchor="middle" x="346.48" y="-367" font-family="Helvetica,sans-Serif" font-size="10.00">#ASR</text>
<text text-anchor="middle" x="346.48" y="-357" font-family="Helvetica,sans-Serif" font-size="10.00">#NPC</text>
</g>
<!-- Node9 -->
<g id="node9" class="node"><title>Node9</title>
<g id="a_node9"><a xlink:href="classleon3__funcat__trap_1_1TLMMemory.html" target="_top" xlink:title="{leon3_funcat_trap::\lTLMMemory\n||+ TLMMemory()\l+ setDebugger()\l+ nb_transport_bw()\l+ peq_cb()\l+ read_dword()\l+ read_word()\l+ read_half()\l+ read_byte()\l+ read_instr()\l+ write_dword()\land 13 more...\l}">
<polygon fill="white" stroke="black" points="479.925,-423.5 479.925,-587.5 585.695,-587.5 585.695,-423.5 479.925,-423.5"/>
<text text-anchor="start" x="487.925" y="-575.5" font-family="Helvetica,sans-Serif" font-size="10.00">leon3_funcat_trap::</text>
<text text-anchor="middle" x="532.81" y="-565.5" font-family="Helvetica,sans-Serif" font-size="10.00">TLMMemory</text>
<polyline fill="none" stroke="black" points="479.925,-559.5 585.695,-559.5 "/>
<text text-anchor="middle" x="532.81" y="-547.5" font-family="Helvetica,sans-Serif" font-size="10.00"> </text>
<polyline fill="none" stroke="black" points="479.925,-541.5 585.695,-541.5 "/>
<text text-anchor="start" x="487.925" y="-529.5" font-family="Helvetica,sans-Serif" font-size="10.00">+ TLMMemory()</text>
<text text-anchor="start" x="487.925" y="-519.5" font-family="Helvetica,sans-Serif" font-size="10.00">+ setDebugger()</text>
<text text-anchor="start" x="487.925" y="-509.5" font-family="Helvetica,sans-Serif" font-size="10.00">+ nb_transport_bw()</text>
<text text-anchor="start" x="487.925" y="-499.5" font-family="Helvetica,sans-Serif" font-size="10.00">+ peq_cb()</text>
<text text-anchor="start" x="487.925" y="-489.5" font-family="Helvetica,sans-Serif" font-size="10.00">+ read_dword()</text>
<text text-anchor="start" x="487.925" y="-479.5" font-family="Helvetica,sans-Serif" font-size="10.00">+ read_word()</text>
<text text-anchor="start" x="487.925" y="-469.5" font-family="Helvetica,sans-Serif" font-size="10.00">+ read_half()</text>
<text text-anchor="start" x="487.925" y="-459.5" font-family="Helvetica,sans-Serif" font-size="10.00">+ read_byte()</text>
<text text-anchor="start" x="487.925" y="-449.5" font-family="Helvetica,sans-Serif" font-size="10.00">+ read_instr()</text>
<text text-anchor="start" x="487.925" y="-439.5" font-family="Helvetica,sans-Serif" font-size="10.00">+ write_dword()</text>
<text text-anchor="start" x="487.925" y="-429.5" font-family="Helvetica,sans-Serif" font-size="10.00">and 13 more...</text>
</a>
</g>
</g>
<!-- Node9&#45;&gt;Node2 -->
<g id="edge11" class="edge"><title>Node9&#45;&gt;Node2</title>
<path fill="none" stroke="#404040" d="M585.85,-423.527C601.187,-401.011 618.258,-376.771 634.786,-355 641.545,-346.096 648.799,-336.928 656.137,-327.896"/>
<polygon fill="none" stroke="#404040" points="656.19,-327.831 656.899,-320.655 663.796,-318.55 663.087,-325.726 656.19,-327.831"/>
<text text-anchor="middle" x="659.822" y="-382" font-family="Helvetica,sans-Serif" font-size="10.00"> #dataMem</text>
<text text-anchor="middle" x="659.822" y="-372" font-family="Helvetica,sans-Serif" font-size="10.00">#instrMem</text>
</g>
<!-- Node10 -->
<g id="node10" class="node"><title>Node10</title>
<g id="a_node10"><a xlink:href="classleon3__funcat__trap_1_1MemoryInterface.html" target="_top" xlink:title="{leon3_funcat_trap::\lMemoryInterface\n||+ read_dword()\l+ read_word()\l+ read_half()\l+ read_byte()\l+ read_instr()\l+ read_dword_dbg()\l+ read_word_dbg()\l+ read_half_dbg()\l+ read_byte_dbg()\l+ write_dword()\land 12 more...\l}">
<polygon fill="white" stroke="black" points="206.642,-634.5 206.642,-798.5 312.979,-798.5 312.979,-634.5 206.642,-634.5"/>
<text text-anchor="start" x="214.642" y="-786.5" font-family="Helvetica,sans-Serif" font-size="10.00">leon3_funcat_trap::</text>
<text text-anchor="middle" x="259.81" y="-776.5" font-family="Helvetica,sans-Serif" font-size="10.00">MemoryInterface</text>
<polyline fill="none" stroke="black" points="206.642,-770.5 312.979,-770.5 "/>
<text text-anchor="middle" x="259.81" y="-758.5" font-family="Helvetica,sans-Serif" font-size="10.00"> </text>
<polyline fill="none" stroke="black" points="206.642,-752.5 312.979,-752.5 "/>
<text text-anchor="start" x="214.642" y="-740.5" font-family="Helvetica,sans-Serif" font-size="10.00">+ read_dword()</text>
<text text-anchor="start" x="214.642" y="-730.5" font-family="Helvetica,sans-Serif" font-size="10.00">+ read_word()</text>
<text text-anchor="start" x="214.642" y="-720.5" font-family="Helvetica,sans-Serif" font-size="10.00">+ read_half()</text>
<text text-anchor="start" x="214.642" y="-710.5" font-family="Helvetica,sans-Serif" font-size="10.00">+ read_byte()</text>
<text text-anchor="start" x="214.642" y="-700.5" font-family="Helvetica,sans-Serif" font-size="10.00">+ read_instr()</text>
<text text-anchor="start" x="214.642" y="-690.5" font-family="Helvetica,sans-Serif" font-size="10.00">+ read_dword_dbg()</text>
<text text-anchor="start" x="214.642" y="-680.5" font-family="Helvetica,sans-Serif" font-size="10.00">+ read_word_dbg()</text>
<text text-anchor="start" x="214.642" y="-670.5" font-family="Helvetica,sans-Serif" font-size="10.00">+ read_half_dbg()</text>
<text text-anchor="start" x="214.642" y="-660.5" font-family="Helvetica,sans-Serif" font-size="10.00">+ read_byte_dbg()</text>
<text text-anchor="start" x="214.642" y="-650.5" font-family="Helvetica,sans-Serif" font-size="10.00">+ write_dword()</text>
<text text-anchor="start" x="214.642" y="-640.5" font-family="Helvetica,sans-Serif" font-size="10.00">and 12 more...</text>
</a>
</g>
</g>
<!-- Node10&#45;&gt;Node9 -->
<g id="edge12" class="edge"><title>Node10&#45;&gt;Node9</title>
<path fill="none" stroke="midnightblue" d="M320.92,-635.344C321.547,-634.888 322.177,-634.44 322.81,-634 379.385,-594.707 414.387,-627.511 470.81,-588 473.868,-585.858 476.842,-583.52 479.724,-581.031"/>
<polygon fill="none" stroke="midnightblue" points="318.609,-632.711 312.98,-641.686 322.978,-638.18 318.609,-632.711"/>
</g>
<!-- Node11 -->
<g id="node11" class="node"><title>Node11</title>
<polygon fill="white" stroke="#bfbfbf" points="540.63,-689.5 540.63,-743.5 604.99,-743.5 604.99,-689.5 540.63,-689.5"/>
<text text-anchor="middle" x="572.81" y="-731.5" font-family="Helvetica,sans-Serif" font-size="10.00">sc_module</text>
<polyline fill="none" stroke="#bfbfbf" points="540.63,-725.5 604.99,-725.5 "/>
<text text-anchor="middle" x="572.81" y="-713.5" font-family="Helvetica,sans-Serif" font-size="10.00"> </text>
<polyline fill="none" stroke="#bfbfbf" points="540.63,-707.5 604.99,-707.5 "/>
<text text-anchor="middle" x="572.81" y="-695.5" font-family="Helvetica,sans-Serif" font-size="10.00"> </text>
</g>
<!-- Node11&#45;&gt;Node9 -->
<g id="edge13" class="edge"><title>Node11&#45;&gt;Node9</title>
<path fill="none" stroke="midnightblue" d="M562.201,-679.467C556.974,-660.681 550.927,-637.247 546.81,-616 545.042,-606.875 543.441,-597.277 542.008,-587.713"/>
<polygon fill="none" stroke="midnightblue" points="558.837,-680.434 564.923,-689.106 565.573,-678.531 558.837,-680.434"/>
</g>
<!-- Node16 -->
<g id="node16" class="node"><title>Node16</title>
<g id="a_node16"><a xlink:href="classleon3__funcat__trap_1_1PinTLM__out__32.html" target="_top" xlink:title="{leon3_funcat_trap::\lPinTLM_out_32\n||+ SK_HAS_SIGNALS()\l+ PinTLM_out_32()\l+ send_pin_req()\l+ on_run()\l}">
<polygon fill="white" stroke="black" points="603.984,-458.5 603.984,-552.5 723.636,-552.5 723.636,-458.5 603.984,-458.5"/>
<text text-anchor="start" x="611.984" y="-540.5" font-family="Helvetica,sans-Serif" font-size="10.00">leon3_funcat_trap::</text>
<text text-anchor="middle" x="663.81" y="-530.5" font-family="Helvetica,sans-Serif" font-size="10.00">PinTLM_out_32</text>
<polyline fill="none" stroke="black" points="603.984,-524.5 723.636,-524.5 "/>
<text text-anchor="middle" x="663.81" y="-512.5" font-family="Helvetica,sans-Serif" font-size="10.00"> </text>
<polyline fill="none" stroke="black" points="603.984,-506.5 723.636,-506.5 "/>
<text text-anchor="start" x="611.984" y="-494.5" font-family="Helvetica,sans-Serif" font-size="10.00">+ SK_HAS_SIGNALS()</text>
<text text-anchor="start" x="611.984" y="-484.5" font-family="Helvetica,sans-Serif" font-size="10.00">+ PinTLM_out_32()</text>
<text text-anchor="start" x="611.984" y="-474.5" font-family="Helvetica,sans-Serif" font-size="10.00">+ send_pin_req()</text>
<text text-anchor="start" x="611.984" y="-464.5" font-family="Helvetica,sans-Serif" font-size="10.00">+ on_run()</text>
</a>
</g>
</g>
<!-- Node11&#45;&gt;Node16 -->
<g id="edge19" class="edge"><title>Node11&#45;&gt;Node16</title>
<path fill="none" stroke="midnightblue" d="M572.698,-679.075C573.777,-657.162 577.226,-629.127 586.81,-606 594.713,-586.931 607.273,-568.382 619.976,-552.568"/>
<polygon fill="none" stroke="midnightblue" points="569.193,-679.177 572.342,-689.292 576.188,-679.42 569.193,-679.177"/>
</g>
<!-- Node12 -->
<g id="node12" class="node"><title>Node12</title>
<polygon fill="white" stroke="#bfbfbf" points="331.354,-684.5 331.354,-748.5 522.266,-748.5 522.266,-684.5 331.354,-684.5"/>
<text text-anchor="start" x="339.354" y="-736.5" font-family="Helvetica,sans-Serif" font-size="10.00">simple_initiator_socket</text>
<text text-anchor="middle" x="426.81" y="-726.5" font-family="Helvetica,sans-Serif" font-size="10.00">&lt; leon3_funcat_trap::TLMMemory, 32 &gt;</text>
<polyline fill="none" stroke="#bfbfbf" points="331.354,-720.5 522.266,-720.5 "/>
<text text-anchor="middle" x="426.81" y="-708.5" font-family="Helvetica,sans-Serif" font-size="10.00"> </text>
<polyline fill="none" stroke="#bfbfbf" points="331.354,-702.5 522.266,-702.5 "/>
<text text-anchor="middle" x="426.81" y="-690.5" font-family="Helvetica,sans-Serif" font-size="10.00"> </text>
</g>
<!-- Node12&#45;&gt;Node9 -->
<g id="edge14" class="edge"><title>Node12&#45;&gt;Node9</title>
<path fill="none" stroke="#404040" d="M442.679,-684.211C454.252,-661.393 470.571,-629.217 486.149,-598.502"/>
<polygon fill="none" stroke="#404040" points="486.191,-598.418 485.338,-591.258 491.619,-587.716 492.472,-594.877 486.191,-598.418"/>
<text text-anchor="middle" x="505.796" y="-608" font-family="Helvetica,sans-Serif" font-size="10.00"> +initSocket</text>
</g>
<!-- Node13 -->
<g id="node13" class="node"><title>Node13</title>
<g id="a_node13"><a xlink:href="classint.html" target="_top" xlink:title="{int\n||}">
<polygon fill="white" stroke="black" points="1270.31,-478.5 1270.31,-532.5 1299.31,-532.5 1299.31,-478.5 1270.31,-478.5"/>
<text text-anchor="middle" x="1284.59" y="-520.5" font-family="Helvetica,sans-Serif" font-size="10.00">int</text>
<polyline fill="none" stroke="black" points="1270.31,-514.5 1298.87,-514.5 "/>
<text text-anchor="middle" x="1284.59" y="-502.5" font-family="Helvetica,sans-Serif" font-size="10.00"> </text>
<polyline fill="none" stroke="black" points="1270.31,-496.5 1298.87,-496.5 "/>
<text text-anchor="middle" x="1284.59" y="-484.5" font-family="Helvetica,sans-Serif" font-size="10.00"> </text>
</a>
</g>
</g>
<!-- Node13&#45;&gt;Node1 -->
<g id="edge26" class="edge"><title>Node13&#45;&gt;Node1</title>
<path fill="none" stroke="#404040" d="M1287.01,-478.369C1288.81,-448.153 1289.55,-397.162 1278.81,-355 1258.51,-275.314 1214.68,-191.922 1180.67,-134.847"/>
<polygon fill="none" stroke="#404040" points="1180.64,-134.784 1174.12,-131.707 1174.45,-124.503 1180.97,-127.581 1180.64,-134.784"/>
<text text-anchor="middle" x="1298.83" y="-256.5" font-family="Helvetica,sans-Serif" font-size="10.00"> #pcounter</text>
<text text-anchor="middle" x="1298.83" y="-246.5" font-family="Helvetica,sans-Serif" font-size="10.00">#oldPC</text>
<text text-anchor="middle" x="1298.83" y="-236.5" font-family="Helvetica,sans-Serif" font-size="10.00">#npcounter</text>
</g>
<!-- Node13&#45;&gt;Node2 -->
<g id="edge15" class="edge"><title>Node13&#45;&gt;Node2</title>
<path fill="none" stroke="#404040" d="M1282.47,-478.375C1279.51,-460.485 1272.85,-437.466 1257.81,-423 1237.02,-403.006 1219.79,-420.492 1195.47,-405 1170.58,-389.154 1177.02,-370.319 1151.81,-355 1038.87,-286.379 883.5,-262.79 794.059,-254.7"/>
<polygon fill="none" stroke="#404040" points="793.843,-254.682 787.524,-258.156 781.887,-253.659 788.206,-250.185 793.843,-254.682"/>
<text text-anchor="middle" x="1237.48" y="-382" font-family="Helvetica,sans-Serif" font-size="10.00"> #NUM_REG_WIN</text>
<text text-anchor="middle" x="1237.48" y="-372" font-family="Helvetica,sans-Serif" font-size="10.00">+totalInstrCycles</text>
</g>
<!-- Node14 -->
<g id="node14" class="node"><title>Node14</title>
<g id="a_node14"><a xlink:href="classbool.html" target="_top" xlink:title="{bool\n||}">
<polygon fill="white" stroke="black" points="835.357,-689.5 835.357,-743.5 870.263,-743.5 870.263,-689.5 835.357,-689.5"/>
<text text-anchor="middle" x="852.81" y="-731.5" font-family="Helvetica,sans-Serif" font-size="10.00">bool</text>
<polyline fill="none" stroke="black" points="835.357,-725.5 870.263,-725.5 "/>
<text text-anchor="middle" x="852.81" y="-713.5" font-family="Helvetica,sans-Serif" font-size="10.00"> </text>
<polyline fill="none" stroke="black" points="835.357,-707.5 870.263,-707.5 "/>
<text text-anchor="middle" x="852.81" y="-695.5" font-family="Helvetica,sans-Serif" font-size="10.00"> </text>
</a>
</g>
</g>
<!-- Node14&#45;&gt;Node2 -->
<g id="edge16" class="edge"><title>Node14&#45;&gt;Node2</title>
<path fill="none" stroke="#404040" d="M854.424,-689.1C854.446,-664.53 850.478,-628.426 829.81,-606 810.762,-585.331 787.462,-609.352 769.183,-588 701.23,-508.624 752.205,-458.494 737.81,-355 737.524,-352.941 737.233,-350.859 736.939,-348.76"/>
<polygon fill="none" stroke="#404040" points="736.901,-348.484 732.104,-343.1 735.23,-336.601 740.026,-341.986 736.901,-348.484"/>
<text text-anchor="middle" x="816.124" y="-502.5" font-family="Helvetica,sans-Serif" font-size="10.00"> #PIPELINED_MULT</text>
</g>
<!-- Node14&#45;&gt;Node16 -->
<g id="edge23" class="edge"><title>Node14&#45;&gt;Node16</title>
<path fill="none" stroke="#404040" d="M840.374,-689.135C831.621,-672.244 818.815,-650.481 803.81,-634 789.687,-618.487 783.087,-617.9 765.81,-606 753.627,-597.608 749.102,-597.558 737.81,-588 728.303,-579.953 718.841,-570.721 710.017,-561.429"/>
<polygon fill="none" stroke="#404040" points="709.932,-561.337 702.919,-559.657 701.771,-552.538 708.784,-554.217 709.932,-561.337"/>
<text text-anchor="middle" x="803.912" y="-608" font-family="Helvetica,sans-Serif" font-size="10.00"> +stopped</text>
</g>
<!-- Node15 -->
<g id="node15" class="node"><title>Node15</title>
<g id="a_node15"><a xlink:href="classleon3__funcat__trap_1_1RegisterBankClass.html" target="_top" xlink:title="{leon3_funcat_trap::\lRegisterBankClass\n||+ RegisterBankClass()\l+ RegisterBankClass()\l+ setNewRegister()\l+ setSize()\l+ operator[]()\l+ ~RegisterBankClass()\l}">
<polygon fill="white" stroke="black" points="1006.73,-448.5 1006.73,-562.5 1128.89,-562.5 1128.89,-448.5 1006.73,-448.5"/>
<text text-anchor="start" x="1014.73" y="-550.5" font-family="Helvetica,sans-Serif" font-size="10.00">leon3_funcat_trap::</text>
<text text-anchor="middle" x="1067.81" y="-540.5" font-family="Helvetica,sans-Serif" font-size="10.00">RegisterBankClass</text>
<polyline fill="none" stroke="black" points="1006.73,-534.5 1128.89,-534.5 "/>
<text text-anchor="middle" x="1067.81" y="-522.5" font-family="Helvetica,sans-Serif" font-size="10.00"> </text>
<polyline fill="none" stroke="black" points="1006.73,-516.5 1128.89,-516.5 "/>
<text text-anchor="start" x="1014.73" y="-504.5" font-family="Helvetica,sans-Serif" font-size="10.00">+ RegisterBankClass()</text>
<text text-anchor="start" x="1014.73" y="-494.5" font-family="Helvetica,sans-Serif" font-size="10.00">+ RegisterBankClass()</text>
<text text-anchor="start" x="1014.73" y="-484.5" font-family="Helvetica,sans-Serif" font-size="10.00">+ setNewRegister()</text>
<text text-anchor="start" x="1014.73" y="-474.5" font-family="Helvetica,sans-Serif" font-size="10.00">+ setSize()</text>
<text text-anchor="start" x="1014.73" y="-464.5" font-family="Helvetica,sans-Serif" font-size="10.00">+ operator[]()</text>
<text text-anchor="start" x="1014.73" y="-454.5" font-family="Helvetica,sans-Serif" font-size="10.00">+ ~RegisterBankClass()</text>
</a>
</g>
</g>
<!-- Node15&#45;&gt;Node2 -->
<g id="edge17" class="edge"><title>Node15&#45;&gt;Node2</title>
<path fill="none" stroke="#404040" d="M1023.63,-448.449C1015.48,-439.494 1006.72,-430.666 997.81,-423 933.906,-367.995 850.773,-318.367 792.711,-286.616"/>
<polygon fill="none" stroke="#404040" points="792.358,-286.425 785.176,-287.08 781.809,-280.704 788.99,-280.048 792.358,-286.425"/>
<text text-anchor="middle" x="994.99" y="-377" font-family="Helvetica,sans-Serif" font-size="10.00"> #GLOBAL</text>
</g>
<!-- Node16&#45;&gt;Node2 -->
<g id="edge18" class="edge"><title>Node16&#45;&gt;Node2</title>
<path fill="none" stroke="#404040" d="M674.563,-458.208C681.671,-427.607 691.258,-386.332 700.014,-348.639"/>
<polygon fill="none" stroke="#404040" points="700.108,-348.234 697.569,-341.484 702.823,-336.545 705.362,-343.294 700.108,-348.234"/>
<text text-anchor="middle" x="715.872" y="-377" font-family="Helvetica,sans-Serif" font-size="10.00"> #irqAck</text>
</g>
<!-- Node17 -->
<g id="node17" class="node"><title>Node17</title>
<polygon fill="white" stroke="#bfbfbf" points="623.31,-689.5 623.31,-743.5 652.31,-743.5 652.31,-689.5 623.31,-689.5"/>
<text text-anchor="middle" x="637.702" y="-731.5" font-family="Helvetica,sans-Serif" font-size="10.00">in</text>
<polyline fill="none" stroke="#bfbfbf" points="623.31,-725.5 652.093,-725.5 "/>
<text text-anchor="middle" x="637.702" y="-713.5" font-family="Helvetica,sans-Serif" font-size="10.00"> </text>
<polyline fill="none" stroke="#bfbfbf" points="623.31,-707.5 652.093,-707.5 "/>
<text text-anchor="middle" x="637.702" y="-695.5" font-family="Helvetica,sans-Serif" font-size="10.00"> </text>
</g>
<!-- Node17&#45;&gt;Node16 -->
<g id="edge20" class="edge"><title>Node17&#45;&gt;Node16</title>
<path fill="none" stroke="#404040" d="M634.18,-689.205C630.902,-672.342 624.831,-650.585 613.81,-634 606.804,-623.457 597.168,-627.434 591.739,-616 589.832,-611.985 590.368,-610.228 591.739,-606 596.665,-590.801 604.879,-575.978 614.035,-562.612"/>
<polygon fill="none" stroke="#404040" points="614.166,-562.429 614.428,-555.222 621.181,-552.692 620.919,-559.899 614.166,-562.429"/>
<text text-anchor="middle" x="603.346" y="-608" font-family="Helvetica,sans-Serif" font-size="10.00"> +run</text>
</g>
<!-- Node18 -->
<g id="node18" class="node"><title>Node18</title>
<polygon fill="white" stroke="#bfbfbf" points="674.859,-689.5 674.859,-743.5 704.761,-743.5 704.761,-689.5 674.859,-689.5"/>
<text text-anchor="middle" x="689.81" y="-731.5" font-family="Helvetica,sans-Serif" font-size="10.00">out</text>
<polyline fill="none" stroke="#bfbfbf" points="674.859,-725.5 704.761,-725.5 "/>
<text text-anchor="middle" x="689.81" y="-713.5" font-family="Helvetica,sans-Serif" font-size="10.00"> </text>
<polyline fill="none" stroke="#bfbfbf" points="674.859,-707.5 704.761,-707.5 "/>
<text text-anchor="middle" x="689.81" y="-695.5" font-family="Helvetica,sans-Serif" font-size="10.00"> </text>
</g>
<!-- Node18&#45;&gt;Node16 -->
<g id="edge21" class="edge"><title>Node18&#45;&gt;Node16</title>
<path fill="none" stroke="#404040" d="M684.572,-689.465C680.236,-672.503 672.801,-650.535 660.81,-634 653.128,-623.407 643.28,-627.745 637.512,-616 629.635,-599.959 630.735,-581.413 635.407,-564.196"/>
<polygon fill="none" stroke="#404040" points="635.482,-563.963 633.504,-557.028 639.145,-552.536 641.122,-559.471 635.482,-563.963"/>
<text text-anchor="middle" x="655.459" y="-608" font-family="Helvetica,sans-Serif" font-size="10.00"> +status</text>
</g>
<!-- Node18&#45;&gt;Node16 -->
<g id="edge24" class="edge"><title>Node18&#45;&gt;Node16</title>
<path fill="none" stroke="#404040" d="M686.57,-689.453C682.712,-658.446 676.154,-605.723 671.065,-564.818"/>
<polygon fill="none" stroke="#404040" points="671.053,-564.719 666.343,-559.259 669.571,-552.811 674.281,-558.271 671.053,-564.719"/>
<text text-anchor="middle" x="701.41" y="-608" font-family="Helvetica,sans-Serif" font-size="10.00"> +initSignal</text>
</g>
<!-- Node19 -->
<g id="node19" class="node"><title>Node19</title>
<g id="a_node19"><a xlink:href="classsc__event.html" target="_top" xlink:title="{sc_event\n||}">
<polygon fill="white" stroke="black" points="738.798,-689.5 738.798,-743.5 794.822,-743.5 794.822,-689.5 738.798,-689.5"/>
<text text-anchor="middle" x="766.81" y="-731.5" font-family="Helvetica,sans-Serif" font-size="10.00">sc_event</text>
<polyline fill="none" stroke="black" points="738.798,-725.5 794.822,-725.5 "/>
<text text-anchor="middle" x="766.81" y="-713.5" font-family="Helvetica,sans-Serif" font-size="10.00"> </text>
<polyline fill="none" stroke="black" points="738.798,-707.5 794.822,-707.5 "/>
<text text-anchor="middle" x="766.81" y="-695.5" font-family="Helvetica,sans-Serif" font-size="10.00"> </text>
</a>
</g>
</g>
<!-- Node19&#45;&gt;Node16 -->
<g id="edge22" class="edge"><title>Node19&#45;&gt;Node16</title>
<path fill="none" stroke="#404040" d="M759.974,-689.079C753.623,-666.415 743.147,-633.207 729.81,-606 722.685,-591.464 713.765,-576.538 704.808,-562.811"/>
<polygon fill="none" stroke="#404040" points="704.64,-562.558 697.983,-559.786 697.981,-552.575 704.638,-555.347 704.64,-562.558"/>
<text text-anchor="middle" x="747.843" y="-608" font-family="Helvetica,sans-Serif" font-size="10.00"> +start</text>
</g>
<!-- Node20 -->
<g id="node20" class="node"><title>Node20</title>
<g id="a_node20"><a xlink:href="classleon3__funcat__trap_1_1Alias.html" target="_top" xlink:title="{leon3_funcat_trap::\lAlias\n||+ ~Alias()\l+ Alias()\l+ Alias()\l+ Alias()\l+ operator[]()\l+ immediateWrite()\l+ readNewValue()\l+ getReg()\l+ operator~()\l+ operator=()\land 63 more...\l}">
<polygon fill="white" stroke="black" points="1147,-423.5 1147,-587.5 1248.62,-587.5 1248.62,-423.5 1147,-423.5"/>
<text text-anchor="start" x="1155" y="-575.5" font-family="Helvetica,sans-Serif" font-size="10.00">leon3_funcat_trap::</text>
<text text-anchor="middle" x="1197.81" y="-565.5" font-family="Helvetica,sans-Serif" font-size="10.00">Alias</text>
<polyline fill="none" stroke="black" points="1147,-559.5 1248.62,-559.5 "/>
<text text-anchor="middle" x="1197.81" y="-547.5" font-family="Helvetica,sans-Serif" font-size="10.00"> </text>
<polyline fill="none" stroke="black" points="1147,-541.5 1248.62,-541.5 "/>
<text text-anchor="start" x="1155" y="-529.5" font-family="Helvetica,sans-Serif" font-size="10.00">+ ~Alias()</text>
<text text-anchor="start" x="1155" y="-519.5" font-family="Helvetica,sans-Serif" font-size="10.00">+ Alias()</text>
<text text-anchor="start" x="1155" y="-509.5" font-family="Helvetica,sans-Serif" font-size="10.00">+ Alias()</text>
<text text-anchor="start" x="1155" y="-499.5" font-family="Helvetica,sans-Serif" font-size="10.00">+ Alias()</text>
<text text-anchor="start" x="1155" y="-489.5" font-family="Helvetica,sans-Serif" font-size="10.00">+ operator[]()</text>
<text text-anchor="start" x="1155" y="-479.5" font-family="Helvetica,sans-Serif" font-size="10.00">+ immediateWrite()</text>
<text text-anchor="start" x="1155" y="-469.5" font-family="Helvetica,sans-Serif" font-size="10.00">+ readNewValue()</text>
<text text-anchor="start" x="1155" y="-459.5" font-family="Helvetica,sans-Serif" font-size="10.00">+ getReg()</text>
<text text-anchor="start" x="1155" y="-449.5" font-family="Helvetica,sans-Serif" font-size="10.00">+ operator~()</text>
<text text-anchor="start" x="1155" y="-439.5" font-family="Helvetica,sans-Serif" font-size="10.00">+ operator=()</text>
<text text-anchor="start" x="1155" y="-429.5" font-family="Helvetica,sans-Serif" font-size="10.00">and 63 more...</text>
</a>
</g>
</g>
<!-- Node20&#45;&gt;Node2 -->
<g id="edge25" class="edge"><title>Node20&#45;&gt;Node2</title>
<path fill="none" stroke="#404040" d="M1147,-431.983C1144.01,-428.842 1140.94,-425.828 1137.81,-423 1037.66,-332.449 883.28,-285.496 793.748,-264.576"/>
<polygon fill="none" stroke="#404040" points="793.524,-264.525 786.784,-267.089 781.824,-261.854 788.564,-259.29 793.524,-264.525"/>
<text text-anchor="middle" x="1129.15" y="-397" font-family="Helvetica,sans-Serif" font-size="10.00"> #REGS</text>
<text text-anchor="middle" x="1129.15" y="-387" font-family="Helvetica,sans-Serif" font-size="10.00">#LR</text>
<text text-anchor="middle" x="1129.15" y="-377" font-family="Helvetica,sans-Serif" font-size="10.00">#PCR</text>
<text text-anchor="middle" x="1129.15" y="-367" font-family="Helvetica,sans-Serif" font-size="10.00">#FP</text>
<text text-anchor="middle" x="1129.15" y="-357" font-family="Helvetica,sans-Serif" font-size="10.00">#SP</text>
</g>
</g>
</svg>
