<?xml version="1.0" encoding="UTF-8" standalone="no"?>
<!DOCTYPE svg PUBLIC "-//W3C//DTD SVG 1.1//EN"
 "http://www.w3.org/Graphics/SVG/1.1/DTD/svg11.dtd">
<!-- Generated by graphviz version 2.38.0 (20140413.2041)
 -->
<!-- Title: trap::mainSysCall::operator() Pages: 1 -->
<svg width="276pt" height="218pt"
 viewBox="0.00 0.00 276.00 218.00" xmlns="http://www.w3.org/2000/svg" xmlns:xlink="http://www.w3.org/1999/xlink">
<g id="graph0" class="graph" transform="scale(1 1) rotate(0) translate(4 214)">
<title>trap::mainSysCall::operator()</title>
<polygon fill="white" stroke="none" points="-4,4 -4,-214 272,-214 272,4 -4,4"/>
<!-- Node1 -->
<g id="node1" class="node"><title>Node1</title>
<polygon fill="#bfbfbf" stroke="black" points="0,-90 0,-120 101,-120 101,-90 0,-90"/>
<text text-anchor="start" x="8" y="-108" font-family="Helvetica,sans-Serif" font-size="10.00">trap::mainSysCall::</text>
<text text-anchor="middle" x="50.5" y="-97" font-family="Helvetica,sans-Serif" font-size="10.00">operator()</text>
</g>
<!-- Node2 -->
<g id="node2" class="node"><title>Node2</title>
<g id="a_node2"><a xlink:href="classtrap_1_1ABIIf.html#a09009b16205964fa8feecd9cb5efdc2b" target="_top" xlink:title="trap::ABIIf::postCall">
<polygon fill="white" stroke="black" points="150.5,-190.5 150.5,-209.5 254.5,-209.5 254.5,-190.5 150.5,-190.5"/>
<text text-anchor="middle" x="202.5" y="-197.5" font-family="Helvetica,sans-Serif" font-size="10.00">trap::ABIIf::postCall</text>
</a>
</g>
</g>
<!-- Node1&#45;&gt;Node2 -->
<g id="edge1" class="edge"><title>Node1&#45;&gt;Node2</title>
<path fill="none" stroke="midnightblue" d="M64.5209,-120.029C80.1202,-137.14 107.825,-164.812 137,-181 140.954,-183.194 145.188,-185.159 149.527,-186.914"/>
<polygon fill="midnightblue" stroke="midnightblue" points="148.531,-190.276 159.125,-190.428 150.938,-183.703 148.531,-190.276"/>
</g>
<!-- Node3 -->
<g id="node3" class="node"><title>Node3</title>
<g id="a_node3"><a xlink:href="classtrap_1_1ABIIf.html#ab078dd4f7d791c2bd95148c3cd568600" target="_top" xlink:title="trap::ABIIf::preCall">
<polygon fill="white" stroke="black" points="153.5,-152.5 153.5,-171.5 251.5,-171.5 251.5,-152.5 153.5,-152.5"/>
<text text-anchor="middle" x="202.5" y="-159.5" font-family="Helvetica,sans-Serif" font-size="10.00">trap::ABIIf::preCall</text>
</a>
</g>
</g>
<!-- Node1&#45;&gt;Node3 -->
<g id="edge2" class="edge"><title>Node1&#45;&gt;Node3</title>
<path fill="none" stroke="midnightblue" d="M82.7626,-120.083C98.7749,-127.503 118.705,-136.273 137,-143 143.112,-145.247 149.622,-147.417 156.068,-149.437"/>
<polygon fill="midnightblue" stroke="midnightblue" points="155.491,-152.919 166.076,-152.477 157.525,-146.222 155.491,-152.919"/>
</g>
<!-- Node4 -->
<g id="node4" class="node"><title>Node4</title>
<g id="a_node4"><a xlink:href="classtrap_1_1ABIIf.html#a15542f4ec43296551f50c35ceb6da94a" target="_top" xlink:title="trap::ABIIf::readArgs">
<polygon fill="white" stroke="black" points="149,-114.5 149,-133.5 256,-133.5 256,-114.5 149,-114.5"/>
<text text-anchor="middle" x="202.5" y="-121.5" font-family="Helvetica,sans-Serif" font-size="10.00">trap::ABIIf::readArgs</text>
</a>
</g>
</g>
<!-- Node1&#45;&gt;Node4 -->
<g id="edge3" class="edge"><title>Node1&#45;&gt;Node4</title>
<path fill="none" stroke="midnightblue" d="M101.031,-111.274C113.152,-112.809 126.279,-114.472 138.922,-116.073"/>
<polygon fill="midnightblue" stroke="midnightblue" points="138.568,-119.557 148.929,-117.341 139.448,-112.612 138.568,-119.557"/>
</g>
<!-- Node5 -->
<g id="node5" class="node"><title>Node5</title>
<g id="a_node5"><a xlink:href="classtrap_1_1ABIIf.html#a6b50b9544281f1ad85bd0115c0a4f25c" target="_top" xlink:title="trap::ABIIf::setArgs">
<polygon fill="white" stroke="black" points="152,-76.5 152,-95.5 253,-95.5 253,-76.5 152,-76.5"/>
<text text-anchor="middle" x="202.5" y="-83.5" font-family="Helvetica,sans-Serif" font-size="10.00">trap::ABIIf::setArgs</text>
</a>
</g>
</g>
<!-- Node1&#45;&gt;Node5 -->
<g id="edge4" class="edge"><title>Node1&#45;&gt;Node5</title>
<path fill="none" stroke="midnightblue" d="M101.031,-98.726C114.02,-97.0808 128.164,-95.2892 141.63,-93.5835"/>
<polygon fill="midnightblue" stroke="midnightblue" points="142.284,-97.0288 151.765,-92.2998 141.404,-90.0843 142.284,-97.0288"/>
</g>
<!-- Node6 -->
<g id="node6" class="node"><title>Node6</title>
<g id="a_node6"><a xlink:href="classtrap_1_1ABIIf.html#ad98b0492efecd08057aa0a4f7ac1632b" target="_top" xlink:title="trap::ABIIf::writeCharMem">
<polygon fill="white" stroke="black" points="137,-38.5 137,-57.5 268,-57.5 268,-38.5 137,-38.5"/>
<text text-anchor="middle" x="202.5" y="-45.5" font-family="Helvetica,sans-Serif" font-size="10.00">trap::ABIIf::writeCharMem</text>
</a>
</g>
</g>
<!-- Node1&#45;&gt;Node6 -->
<g id="edge5" class="edge"><title>Node1&#45;&gt;Node6</title>
<path fill="none" stroke="midnightblue" d="M82.7626,-89.9166C98.7749,-82.497 118.705,-73.7269 137,-67 143.112,-64.7528 149.622,-62.5828 156.068,-60.5631"/>
<polygon fill="midnightblue" stroke="midnightblue" points="157.525,-63.7785 166.076,-57.5234 155.491,-57.0806 157.525,-63.7785"/>
</g>
<!-- Node7 -->
<g id="node7" class="node"><title>Node7</title>
<g id="a_node7"><a xlink:href="classtrap_1_1ABIIf.html#a70c68f65b9728763bd98cb007c79f8fc" target="_top" xlink:title="trap::ABIIf::writeMem">
<polygon fill="white" stroke="black" points="147.5,-0.5 147.5,-19.5 257.5,-19.5 257.5,-0.5 147.5,-0.5"/>
<text text-anchor="middle" x="202.5" y="-7.5" font-family="Helvetica,sans-Serif" font-size="10.00">trap::ABIIf::writeMem</text>
</a>
</g>
</g>
<!-- Node1&#45;&gt;Node7 -->
<g id="edge6" class="edge"><title>Node1&#45;&gt;Node7</title>
<path fill="none" stroke="midnightblue" d="M64.5209,-89.9711C80.1202,-72.8596 107.825,-45.1878 137,-29 140.954,-26.8062 145.188,-24.8413 149.527,-23.0862"/>
<polygon fill="midnightblue" stroke="midnightblue" points="150.938,-26.2969 159.125,-19.5719 148.531,-19.7237 150.938,-26.2969"/>
</g>
</g>
</svg>
