<?xml version="1.0" encoding="UTF-8" standalone="no"?>
<!DOCTYPE svg PUBLIC "-//W3C//DTD SVG 1.1//EN"
 "http://www.w3.org/Graphics/SVG/1.1/DTD/svg11.dtd">
<!-- Generated by graphviz version 2.38.0 (20140413.2041)
 -->
<!-- Title: leon3_funclt_trap::SETHI Pages: 1 -->
<svg width="125pt" height="744pt"
 viewBox="0.00 0.00 125.00 744.00" xmlns="http://www.w3.org/2000/svg" xmlns:xlink="http://www.w3.org/1999/xlink">
<g id="graph0" class="graph" transform="scale(1 1) rotate(0) translate(4 740)">
<title>leon3_funclt_trap::SETHI</title>
<polygon fill="white" stroke="none" points="-4,4 -4,-740 121,-740 121,4 -4,4"/>
<!-- Node1 -->
<g id="node1" class="node"><title>Node1</title>
<polygon fill="#bfbfbf" stroke="black" points="0,-0.5 0,-145.5 117,-145.5 117,-0.5 0,-0.5"/>
<text text-anchor="start" x="8" y="-133.5" font-family="Helvetica,sans-Serif" font-size="10.00">leon3_funclt_trap::</text>
<text text-anchor="middle" x="58.5" y="-122.5" font-family="Helvetica,sans-Serif" font-size="10.00">SETHI</text>
<polyline fill="none" stroke="black" points="0,-115.5 117,-115.5 "/>
<text text-anchor="start" x="8" y="-103.5" font-family="Helvetica,sans-Serif" font-size="10.00"># result</text>
<polyline fill="none" stroke="black" points="0,-96.5 117,-96.5 "/>
<text text-anchor="start" x="8" y="-84.5" font-family="Helvetica,sans-Serif" font-size="10.00">+ SETHI()</text>
<text text-anchor="start" x="8" y="-73.5" font-family="Helvetica,sans-Serif" font-size="10.00">+ behavior()</text>
<text text-anchor="start" x="8" y="-62.5" font-family="Helvetica,sans-Serif" font-size="10.00">+ replicate()</text>
<text text-anchor="start" x="8" y="-51.5" font-family="Helvetica,sans-Serif" font-size="10.00">+ getInstructionName()</text>
<text text-anchor="start" x="8" y="-40.5" font-family="Helvetica,sans-Serif" font-size="10.00">+ getId()</text>
<text text-anchor="start" x="8" y="-29.5" font-family="Helvetica,sans-Serif" font-size="10.00">+ setParams()</text>
<text text-anchor="start" x="8" y="-18.5" font-family="Helvetica,sans-Serif" font-size="10.00">+ getMnemonic()</text>
<text text-anchor="start" x="8" y="-7.5" font-family="Helvetica,sans-Serif" font-size="10.00">+ ~SETHI()</text>
</g>
<!-- Node2 -->
<g id="node2" class="node"><title>Node2</title>
<g id="a_node2"><a xlink:href="classleon3__funclt__trap_1_1WB__plain__op.html" target="_top" xlink:title="{leon3_funclt_trap::\lWB_plain_op\n||+ WB_plain_op()\l+ ~WB_plain_op()\l# WB_plain()\l}">
<polygon fill="white" stroke="black" points="10,-182.5 10,-272.5 107,-272.5 107,-182.5 10,-182.5"/>
<text text-anchor="start" x="18" y="-260.5" font-family="Helvetica,sans-Serif" font-size="10.00">leon3_funclt_trap::</text>
<text text-anchor="middle" x="58.5" y="-249.5" font-family="Helvetica,sans-Serif" font-size="10.00">WB_plain_op</text>
<polyline fill="none" stroke="black" points="10,-242.5 107,-242.5 "/>
<text text-anchor="middle" x="58.5" y="-230.5" font-family="Helvetica,sans-Serif" font-size="10.00"> </text>
<polyline fill="none" stroke="black" points="10,-223.5 107,-223.5 "/>
<text text-anchor="start" x="18" y="-211.5" font-family="Helvetica,sans-Serif" font-size="10.00">+ WB_plain_op()</text>
<text text-anchor="start" x="18" y="-200.5" font-family="Helvetica,sans-Serif" font-size="10.00">+ ~WB_plain_op()</text>
<text text-anchor="start" x="18" y="-189.5" font-family="Helvetica,sans-Serif" font-size="10.00"># WB_plain()</text>
</a>
</g>
</g>
<!-- Node2&#45;&gt;Node1 -->
<g id="edge1" class="edge"><title>Node2&#45;&gt;Node1</title>
<path fill="none" stroke="midnightblue" d="M58.5,-172.13C58.5,-163.526 58.5,-154.516 58.5,-145.591"/>
<polygon fill="none" stroke="midnightblue" points="55.0001,-172.391 58.5,-182.391 62.0001,-172.391 55.0001,-172.391"/>
</g>
<!-- Node3 -->
<g id="node3" class="node"><title>Node3</title>
<g id="a_node3"><a xlink:href="classleon3__funclt__trap_1_1Instruction.html" target="_top" xlink:title="{leon3_funclt_trap::\lInstruction\n|+ totalInstrCycles\l# PSR\l# WIM\l# TBR\l# Y\l# PC\l# NPC\l# GLOBAL\l# WINREGS\l# ASR\l# FP\land 9 more...\l|+ Instruction()\l+ behavior()\l+ replicate()\l+ setParams()\l+ getInstructionName()\l+ getMnemonic()\l+ getId()\l+ annull()\l+ flush()\l+ stall()\land 7 more...\l# IncrementPC()\l}">
<polygon fill="white" stroke="black" points="0,-309.5 0,-619.5 117,-619.5 117,-309.5 0,-309.5"/>
<text text-anchor="start" x="8" y="-607.5" font-family="Helvetica,sans-Serif" font-size="10.00">leon3_funclt_trap::</text>
<text text-anchor="middle" x="58.5" y="-596.5" font-family="Helvetica,sans-Serif" font-size="10.00">Instruction</text>
<polyline fill="none" stroke="black" points="0,-589.5 117,-589.5 "/>
<text text-anchor="start" x="8" y="-577.5" font-family="Helvetica,sans-Serif" font-size="10.00">+ totalInstrCycles</text>
<text text-anchor="start" x="8" y="-566.5" font-family="Helvetica,sans-Serif" font-size="10.00"># PSR</text>
<text text-anchor="start" x="8" y="-555.5" font-family="Helvetica,sans-Serif" font-size="10.00"># WIM</text>
<text text-anchor="start" x="8" y="-544.5" font-family="Helvetica,sans-Serif" font-size="10.00"># TBR</text>
<text text-anchor="start" x="8" y="-533.5" font-family="Helvetica,sans-Serif" font-size="10.00"># Y</text>
<text text-anchor="start" x="8" y="-522.5" font-family="Helvetica,sans-Serif" font-size="10.00"># PC</text>
<text text-anchor="start" x="8" y="-511.5" font-family="Helvetica,sans-Serif" font-size="10.00"># NPC</text>
<text text-anchor="start" x="8" y="-500.5" font-family="Helvetica,sans-Serif" font-size="10.00"># GLOBAL</text>
<text text-anchor="start" x="8" y="-489.5" font-family="Helvetica,sans-Serif" font-size="10.00"># WINREGS</text>
<text text-anchor="start" x="8" y="-478.5" font-family="Helvetica,sans-Serif" font-size="10.00"># ASR</text>
<text text-anchor="start" x="8" y="-467.5" font-family="Helvetica,sans-Serif" font-size="10.00"># FP</text>
<text text-anchor="start" x="8" y="-456.5" font-family="Helvetica,sans-Serif" font-size="10.00">and 9 more...</text>
<polyline fill="none" stroke="black" points="0,-449.5 117,-449.5 "/>
<text text-anchor="start" x="8" y="-437.5" font-family="Helvetica,sans-Serif" font-size="10.00">+ Instruction()</text>
<text text-anchor="start" x="8" y="-426.5" font-family="Helvetica,sans-Serif" font-size="10.00">+ behavior()</text>
<text text-anchor="start" x="8" y="-415.5" font-family="Helvetica,sans-Serif" font-size="10.00">+ replicate()</text>
<text text-anchor="start" x="8" y="-404.5" font-family="Helvetica,sans-Serif" font-size="10.00">+ setParams()</text>
<text text-anchor="start" x="8" y="-393.5" font-family="Helvetica,sans-Serif" font-size="10.00">+ getInstructionName()</text>
<text text-anchor="start" x="8" y="-382.5" font-family="Helvetica,sans-Serif" font-size="10.00">+ getMnemonic()</text>
<text text-anchor="start" x="8" y="-371.5" font-family="Helvetica,sans-Serif" font-size="10.00">+ getId()</text>
<text text-anchor="start" x="8" y="-360.5" font-family="Helvetica,sans-Serif" font-size="10.00">+ annull()</text>
<text text-anchor="start" x="8" y="-349.5" font-family="Helvetica,sans-Serif" font-size="10.00">+ flush()</text>
<text text-anchor="start" x="8" y="-338.5" font-family="Helvetica,sans-Serif" font-size="10.00">+ stall()</text>
<text text-anchor="start" x="8" y="-327.5" font-family="Helvetica,sans-Serif" font-size="10.00">and 7 more...</text>
<text text-anchor="start" x="8" y="-316.5" font-family="Helvetica,sans-Serif" font-size="10.00"># IncrementPC()</text>
</a>
</g>
</g>
<!-- Node3&#45;&gt;Node2 -->
<g id="edge2" class="edge"><title>Node3&#45;&gt;Node2</title>
<path fill="none" stroke="midnightblue" d="M58.5,-299.352C58.5,-289.889 58.5,-280.909 58.5,-272.719"/>
<polygon fill="none" stroke="midnightblue" points="55.0001,-299.374 58.5,-309.374 62.0001,-299.374 55.0001,-299.374"/>
</g>
<!-- Node4 -->
<g id="node4" class="node"><title>Node4</title>
<g id="a_node4"><a xlink:href="classtrap_1_1InstructionBase.html" target="_top" xlink:title="{trap::InstructionBase\n||+ getInstructionName()\l+ getMnemonic()\l+ getId()\l}">
<polygon fill="white" stroke="black" points="0,-656.5 0,-735.5 117,-735.5 117,-656.5 0,-656.5"/>
<text text-anchor="middle" x="58.5" y="-723.5" font-family="Helvetica,sans-Serif" font-size="10.00">trap::InstructionBase</text>
<polyline fill="none" stroke="black" points="0,-716.5 117,-716.5 "/>
<text text-anchor="middle" x="58.5" y="-704.5" font-family="Helvetica,sans-Serif" font-size="10.00"> </text>
<polyline fill="none" stroke="black" points="0,-697.5 117,-697.5 "/>
<text text-anchor="start" x="8" y="-685.5" font-family="Helvetica,sans-Serif" font-size="10.00">+ getInstructionName()</text>
<text text-anchor="start" x="8" y="-674.5" font-family="Helvetica,sans-Serif" font-size="10.00">+ getMnemonic()</text>
<text text-anchor="start" x="8" y="-663.5" font-family="Helvetica,sans-Serif" font-size="10.00">+ getId()</text>
</a>
</g>
</g>
<!-- Node4&#45;&gt;Node3 -->
<g id="edge3" class="edge"><title>Node4&#45;&gt;Node3</title>
<path fill="none" stroke="midnightblue" d="M58.5,-646.242C58.5,-637.969 58.5,-629.003 58.5,-619.639"/>
<polygon fill="none" stroke="midnightblue" points="55.0001,-646.328 58.5,-656.328 62.0001,-646.328 55.0001,-646.328"/>
</g>
</g>
</svg>
