<?xml version="1.0" encoding="UTF-8" standalone="no"?>
<!DOCTYPE svg PUBLIC "-//W3C//DTD SVG 1.1//EN"
 "http://www.w3.org/Graphics/SVG/1.1/DTD/svg11.dtd">
<!-- Generated by graphviz version 2.36.0 (20140111.2315)
 -->
<!-- Title: trap::BreakpointManager&lt; AddressType &gt; Pages: 1 -->
<svg width="271pt" height="328pt"
 viewBox="0.00 0.00 271.00 328.00" xmlns="http://www.w3.org/2000/svg" xmlns:xlink="http://www.w3.org/1999/xlink">
<g id="graph0" class="graph" transform="scale(1 1) rotate(0) translate(4 324)">
<title>trap::BreakpointManager&lt; AddressType &gt;</title>
<polygon fill="white" stroke="none" points="-4,4 -4,-324 267,-324 267,4 -4,4"/>
<!-- Node1 -->
<g id="node1" class="node"><title>Node1</title>
<polygon fill="#bfbfbf" stroke="black" points="69.5,-185 69.5,-319 192.5,-319 192.5,-185 69.5,-185"/>
<text text-anchor="start" x="77.5" y="-307" font-family="Helvetica,sans-Serif" font-size="10.00">trap::BreakpointManager</text>
<text text-anchor="middle" x="131" y="-296" font-family="Helvetica,sans-Serif" font-size="10.00">&lt; AddressType &gt;</text>
<polyline fill="none" stroke="black" points="69.5,-289 192.5,-289 "/>
<text text-anchor="middle" x="131" y="-277" font-family="Helvetica,sans-Serif" font-size="10.00"> </text>
<polyline fill="none" stroke="black" points="69.5,-270 192.5,-270 "/>
<text text-anchor="start" x="77.5" y="-258" font-family="Helvetica,sans-Serif" font-size="10.00">+ BreakpointManager()</text>
<text text-anchor="start" x="77.5" y="-247" font-family="Helvetica,sans-Serif" font-size="10.00">+ clearAllBreaks()</text>
<text text-anchor="start" x="77.5" y="-236" font-family="Helvetica,sans-Serif" font-size="10.00">+ addBreakpoint()</text>
<text text-anchor="start" x="77.5" y="-225" font-family="Helvetica,sans-Serif" font-size="10.00">+ removeBreakpoint()</text>
<text text-anchor="start" x="77.5" y="-214" font-family="Helvetica,sans-Serif" font-size="10.00">+ hasBreakpoint()</text>
<text text-anchor="start" x="77.5" y="-203" font-family="Helvetica,sans-Serif" font-size="10.00">+ getBreakPoint()</text>
<text text-anchor="start" x="77.5" y="-192" font-family="Helvetica,sans-Serif" font-size="10.00">+ getBreakpoints()</text>
</g>
<!-- Node2 -->
<g id="node2" class="node"><title>Node2</title>
<g id="a_node2"><a xlink:href="classtrap_1_1BreakpointManager.html" target="_top" xlink:title="{trap::BreakpointManager\l\&lt; issueWidth \&gt;\n||+ BreakpointManager()\l+ clearAllBreaks()\l+ addBreakpoint()\l+ removeBreakpoint()\l+ hasBreakpoint()\l+ getBreakPoint()\l+ getBreakpoints()\l}">
<polygon fill="white" stroke="black" points="-0.5,-1 -0.5,-135 122.5,-135 122.5,-1 -0.5,-1"/>
<text text-anchor="start" x="7.5" y="-123" font-family="Helvetica,sans-Serif" font-size="10.00">trap::BreakpointManager</text>
<text text-anchor="middle" x="61" y="-112" font-family="Helvetica,sans-Serif" font-size="10.00">&lt; issueWidth &gt;</text>
<polyline fill="none" stroke="black" points="-0.5,-105 122.5,-105 "/>
<text text-anchor="middle" x="61" y="-93" font-family="Helvetica,sans-Serif" font-size="10.00"> </text>
<polyline fill="none" stroke="black" points="-0.5,-86 122.5,-86 "/>
<text text-anchor="start" x="7.5" y="-74" font-family="Helvetica,sans-Serif" font-size="10.00">+ BreakpointManager()</text>
<text text-anchor="start" x="7.5" y="-63" font-family="Helvetica,sans-Serif" font-size="10.00">+ clearAllBreaks()</text>
<text text-anchor="start" x="7.5" y="-52" font-family="Helvetica,sans-Serif" font-size="10.00">+ addBreakpoint()</text>
<text text-anchor="start" x="7.5" y="-41" font-family="Helvetica,sans-Serif" font-size="10.00">+ removeBreakpoint()</text>
<text text-anchor="start" x="7.5" y="-30" font-family="Helvetica,sans-Serif" font-size="10.00">+ hasBreakpoint()</text>
<text text-anchor="start" x="7.5" y="-19" font-family="Helvetica,sans-Serif" font-size="10.00">+ getBreakPoint()</text>
<text text-anchor="start" x="7.5" y="-8" font-family="Helvetica,sans-Serif" font-size="10.00">+ getBreakpoints()</text>
</a>
</g>
</g>
<!-- Node1&#45;&gt;Node2 -->
<g id="edge1" class="edge"><title>Node1&#45;&gt;Node2</title>
<path fill="none" stroke="orange" d="M101.845,-175.198C96.734,-161.908 91.4515,-148.174 86.4507,-135.172"/>
<polygon fill="orange" stroke="orange" points="98.6738,-176.702 105.53,-184.779 105.207,-174.189 98.6738,-176.702"/>
<text text-anchor="middle" x="134" y="-157.5" font-family="Helvetica,sans-Serif" font-size="10.00"> &lt; issueWidth &gt;</text>
</g>
<!-- Node3 -->
<g id="node3" class="node"><title>Node3</title>
<g id="a_node3"><a xlink:href="classtrap_1_1BreakpointManager.html" target="_top" xlink:title="{trap::BreakpointManager\l\&lt; unsigned int \&gt;\n||+ BreakpointManager()\l+ clearAllBreaks()\l+ addBreakpoint()\l+ removeBreakpoint()\l+ hasBreakpoint()\l+ getBreakPoint()\l+ getBreakpoints()\l}">
<polygon fill="white" stroke="black" points="140.5,-1 140.5,-135 263.5,-135 263.5,-1 140.5,-1"/>
<text text-anchor="start" x="148.5" y="-123" font-family="Helvetica,sans-Serif" font-size="10.00">trap::BreakpointManager</text>
<text text-anchor="middle" x="202" y="-112" font-family="Helvetica,sans-Serif" font-size="10.00">&lt; unsigned int &gt;</text>
<polyline fill="none" stroke="black" points="140.5,-105 263.5,-105 "/>
<text text-anchor="middle" x="202" y="-93" font-family="Helvetica,sans-Serif" font-size="10.00"> </text>
<polyline fill="none" stroke="black" points="140.5,-86 263.5,-86 "/>
<text text-anchor="start" x="148.5" y="-74" font-family="Helvetica,sans-Serif" font-size="10.00">+ BreakpointManager()</text>
<text text-anchor="start" x="148.5" y="-63" font-family="Helvetica,sans-Serif" font-size="10.00">+ clearAllBreaks()</text>
<text text-anchor="start" x="148.5" y="-52" font-family="Helvetica,sans-Serif" font-size="10.00">+ addBreakpoint()</text>
<text text-anchor="start" x="148.5" y="-41" font-family="Helvetica,sans-Serif" font-size="10.00">+ removeBreakpoint()</text>
<text text-anchor="start" x="148.5" y="-30" font-family="Helvetica,sans-Serif" font-size="10.00">+ hasBreakpoint()</text>
<text text-anchor="start" x="148.5" y="-19" font-family="Helvetica,sans-Serif" font-size="10.00">+ getBreakPoint()</text>
<text text-anchor="start" x="148.5" y="-8" font-family="Helvetica,sans-Serif" font-size="10.00">+ getBreakpoints()</text>
</a>
</g>
</g>
<!-- Node1&#45;&gt;Node3 -->
<g id="edge2" class="edge"><title>Node1&#45;&gt;Node3</title>
<path fill="none" stroke="orange" d="M169.199,-175.286C170.522,-172.167 171.795,-169.064 173,-166 176.86,-156.186 180.504,-145.644 183.82,-135.254"/>
<polygon fill="orange" stroke="orange" points="165.898,-174.099 165.097,-184.663 172.312,-176.904 165.898,-174.099"/>
<text text-anchor="middle" x="213" y="-157.5" font-family="Helvetica,sans-Serif" font-size="10.00"> &lt; unsigned int &gt;</text>
</g>
</g>
</svg>
