<?xml version="1.0" encoding="UTF-8" standalone="no"?>
<!DOCTYPE svg PUBLIC "-//W3C//DTD SVG 1.1//EN"
 "http://www.w3.org/Graphics/SVG/1.1/DTD/svg11.dtd">
<!-- Generated by graphviz version 2.26.0 (20091210.2329)
 -->
<!-- Title: signalkit::tlmin_scout_adapter&lt; INTYPE, OUTTYPE &gt; Pages: 1 -->
<!--zoomable 380 -->
<svg id="main" version="1.1" xmlns="http://www.w3.org/2000/svg" xmlns:xlink="http://www.w3.org/1999/xlink" xml:space="preserve" onload="init(evt)">
<style type="text/css"><![CDATA[
.edge:hover path { stroke: red; }
.edge:hover polygon { stroke: red; fill: red; }
]]></style>
<script type="text/javascript"><![CDATA[
var edges = document.getElementsByTagName('g');
if (edges && edges.length) {
  for (var i=0;i<edges.length;i++) {
    if (edges[i].id.substr(0,4)=='edge') {
      edges[i].setAttribute('class','edge');
    }
  }
}
]]></script>
        <defs>
                <circle id="rim" cx="0" cy="0" r="7"/>
                <circle id="rim2" cx="0" cy="0" r="3.5"/>
                <g id="zoomPlus">
                        <use xlink:href="#rim" fill="#404040">
                                <set attributeName="fill" to="#808080" begin="zoomplus.mouseover" end="zoomplus.mouseout"/>
                        </use>
                        <path d="M-4,0h8M0,-4v8" fill="none" stroke="white" stroke-width="1.5" pointer-events="none"/>
                </g>
                <g id="zoomMin">
                        <use xlink:href="#rim" fill="#404040">
                                <set attributeName="fill" to="#808080" begin="zoomminus.mouseover" end="zoomminus.mouseout"/>
                        </use>
                        <path d="M-4,0h8" fill="none" stroke="white" stroke-width="1.5" pointer-events="none"/>
                </g>
                <g id="dirArrow">
                        <path fill="none" stroke="white" stroke-width="1.5" d="M0,-3.0v7 M-2.5,-0.5L0,-3.0L2.5,-0.5"/>
                </g>
               <g id="resetDef">
                       <use xlink:href="#rim2" fill="#404040">
                               <set attributeName="fill" to="#808080" begin="reset.mouseover" end="reset.mouseout"/>
                       </use>
               </g>
        </defs>

<script type="text/javascript">
var viewWidth = 534;
var viewHeight = 380;
var sectionId = 'dynsection-1';
</script>
<script xlink:href="svgpan.js"/>
<svg id="graph" class="graph">
<g id="viewport">
<title>signalkit::tlmin_scout_adapter&lt; INTYPE, OUTTYPE &gt;</title>
<polygon fill="white" stroke="white" points="-4,5 -4,-376 531,-376 531,5 -4,5"/>
<!-- Node1 -->
<g id="node1" class="node"><title>Node1</title>
<polygon fill="#bfbfbf" stroke="black" points="251,-1 251,-77 413,-77 413,-1 251,-1"/>
<text text-anchor="start" x="259" y="-64" font-family="Helvetica,sans-Serif" font-size="10.00">signalkit::tlmin_scout</text>
<text text-anchor="middle" x="332" y="-51" font-family="Helvetica,sans-Serif" font-size="10.00">_adapter&lt; INTYPE, OUTTYPE &gt;</text>
<polyline fill="none" stroke="black" points="251,-43 413,-43 "/>
<text text-anchor="middle" x="332" y="-30" font-family="Helvetica,sans-Serif" font-size="10.00"> </text>
<polyline fill="none" stroke="black" points="251,-22 413,-22 "/>
<text text-anchor="start" x="259" y="-9" font-family="Helvetica,sans-Serif" font-size="10.00">+ tlmin_scout_adapter()</text>
</g>
<!-- Node2 -->
<g id="node2" class="node"><title>Node2</title>
<a xlink:href="classsignalkit_1_1signal__module.html" target="_top" xlink:title="{signalkit::signal_module\l\&lt; tlmin_scout_adapter\&lt;\l INTYPE, OUTTYPE \&gt; \&gt;\n||}">
<polygon fill="white" stroke="black" points="0,-128.5 0,-217.5 128,-217.5 128,-128.5 0,-128.5"/>
<text text-anchor="start" x="8" y="-204.5" font-family="Helvetica,sans-Serif" font-size="10.00">signalkit::signal_module</text>
<text text-anchor="start" x="8" y="-191.5" font-family="Helvetica,sans-Serif" font-size="10.00">&lt; tlmin_scout_adapter&lt;</text>
<text text-anchor="middle" x="64" y="-178.5" font-family="Helvetica,sans-Serif" font-size="10.00"> INTYPE, OUTTYPE &gt; &gt;</text>
<polyline fill="none" stroke="black" points="0,-170.5 128,-170.5 "/>
<text text-anchor="middle" x="64" y="-157.5" font-family="Helvetica,sans-Serif" font-size="10.00"> </text>
<polyline fill="none" stroke="black" points="0,-149.5 128,-149.5 "/>
<text text-anchor="middle" x="64" y="-136.5" font-family="Helvetica,sans-Serif" font-size="10.00"> </text>
</a>
</g>
<!-- Node2&#45;&gt;Node1 -->
<g id="edge2" class="edge"><title>Node2&#45;&gt;Node1</title>
<path fill="none" stroke="midnightblue" d="M137.222,-128.021C179.117,-105.901 217.668,-88.0183 250.74,-73.3814"/>
<polygon fill="none" stroke="midnightblue" points="135.416,-125.018 128.233,-132.806 138.705,-131.197 135.416,-125.018"/>
</g>
<!-- Node3 -->
<g id="node4" class="node"><title>Node3</title>
<a xlink:href="classsignalkit_1_1signal__module.html" target="_top" xlink:title="{signalkit::signal_module\l\&lt; MODULE \&gt;\n||}">
<polygon fill="white" stroke="black" points="89.5,-295 89.5,-371 210.5,-371 210.5,-295 89.5,-295"/>
<text text-anchor="start" x="97.5" y="-358" font-family="Helvetica,sans-Serif" font-size="10.00">signalkit::signal_module</text>
<text text-anchor="middle" x="150" y="-345" font-family="Helvetica,sans-Serif" font-size="10.00">&lt; MODULE &gt;</text>
<polyline fill="none" stroke="black" points="89.5,-337 210.5,-337 "/>
<text text-anchor="middle" x="150" y="-324" font-family="Helvetica,sans-Serif" font-size="10.00"> </text>
<polyline fill="none" stroke="black" points="89.5,-316 210.5,-316 "/>
<text text-anchor="middle" x="150" y="-303" font-family="Helvetica,sans-Serif" font-size="10.00"> </text>
</a>
</g>
<!-- Node3&#45;&gt;Node2 -->
<g id="edge4" class="edge"><title>Node3&#45;&gt;Node2</title>
<path fill="none" stroke="orange" d="M84.8232,-287.337C81.8964,-283.742 79.2502,-279.96 77,-276 67.072,-258.527 63.3261,-236.735 62.2604,-217.702"/>
<polygon fill="orange" stroke="orange" points="82.3423,-289.812 91.6342,-294.902 87.5447,-285.128 82.3423,-289.812"/>
<text text-anchor="start" x="77" y="-260" font-family="Helvetica,sans-Serif" font-size="10.00"> &lt; tlmin_scout_adapter</text>
<text text-anchor="middle" x="136" y="-247" font-family="Helvetica,sans-Serif" font-size="10.00">&lt; INTYPE, OUTTYPE &gt; &gt;</text>
</g>
<!-- Node5 -->
<g id="node8" class="node"><title>Node5</title>
<a xlink:href="classsignalkit_1_1signal__module.html" target="_top" xlink:title="{signalkit::signal_module\l\&lt; signalkit::tlmin_scout\l_adapter\&lt; INTYPE, OUTTYPE \&gt; \&gt;\n||}">
<polygon fill="white" stroke="black" points="145.5,-128.5 145.5,-217.5 316.5,-217.5 316.5,-128.5 145.5,-128.5"/>
<text text-anchor="start" x="153.5" y="-204.5" font-family="Helvetica,sans-Serif" font-size="10.00">signalkit::signal_module</text>
<text text-anchor="start" x="153.5" y="-191.5" font-family="Helvetica,sans-Serif" font-size="10.00">&lt; signalkit::tlmin_scout</text>
<text text-anchor="middle" x="231" y="-178.5" font-family="Helvetica,sans-Serif" font-size="10.00">_adapter&lt; INTYPE, OUTTYPE &gt; &gt;</text>
<polyline fill="none" stroke="black" points="145.5,-170.5 316.5,-170.5 "/>
<text text-anchor="middle" x="231" y="-157.5" font-family="Helvetica,sans-Serif" font-size="10.00"> </text>
<polyline fill="none" stroke="black" points="145.5,-149.5 316.5,-149.5 "/>
<text text-anchor="middle" x="231" y="-136.5" font-family="Helvetica,sans-Serif" font-size="10.00"> </text>
</a>
</g>
<!-- Node3&#45;&gt;Node5 -->
<g id="edge10" class="edge"><title>Node3&#45;&gt;Node5</title>
<path fill="none" stroke="orange" d="M192.563,-286.382C194.89,-282.972 197.064,-279.496 199,-276 208.977,-257.98 216.288,-236.429 221.382,-217.708"/>
<polygon fill="orange" stroke="orange" points="189.566,-284.551 186.51,-294.696 195.225,-288.671 189.566,-284.551"/>
<text text-anchor="start" x="216" y="-266.5" font-family="Helvetica,sans-Serif" font-size="10.00"> &lt; signalkit::tlmin</text>
<text text-anchor="start" x="216" y="-253.5" font-family="Helvetica,sans-Serif" font-size="10.00">_scout_adapter&lt; INTYPE,</text>
<text text-anchor="middle" x="274" y="-240.5" font-family="Helvetica,sans-Serif" font-size="10.00"> OUTTYPE &gt; &gt;</text>
</g>
<!-- Node4 -->
<g id="node6" class="node"><title>Node4</title>
<polygon fill="white" stroke="#bfbfbf" points="334,-141.5 334,-204.5 398,-204.5 398,-141.5 334,-141.5"/>
<text text-anchor="middle" x="366" y="-191.5" font-family="Helvetica,sans-Serif" font-size="10.00">sc_module</text>
<polyline fill="none" stroke="#bfbfbf" points="334,-183.5 398,-183.5 "/>
<text text-anchor="middle" x="366" y="-170.5" font-family="Helvetica,sans-Serif" font-size="10.00"> </text>
<polyline fill="none" stroke="#bfbfbf" points="334,-162.5 398,-162.5 "/>
<text text-anchor="middle" x="366" y="-149.5" font-family="Helvetica,sans-Serif" font-size="10.00"> </text>
</g>
<!-- Node4&#45;&gt;Node1 -->
<g id="edge6" class="edge"><title>Node4&#45;&gt;Node1</title>
<path fill="none" stroke="midnightblue" d="M355.446,-131.404C351.055,-114.099 345.991,-94.1392 341.695,-77.2085"/>
<polygon fill="none" stroke="midnightblue" points="352.091,-132.412 357.942,-141.244 358.876,-130.69 352.091,-132.412"/>
</g>
<!-- Node5&#45;&gt;Node1 -->
<g id="edge8" class="edge"><title>Node5&#45;&gt;Node1</title>
<path fill="none" stroke="#404040" d="M264.632,-128.38C274.698,-115.024 285.775,-100.328 295.988,-86.7782"/>
<polygon fill="none" stroke="#404040" points="296.022,-86.7325 296.44,-79.5335 303.245,-77.1497 302.828,-84.3488 296.022,-86.7325"/>
<text text-anchor="middle" x="296.5" y="-100.5" font-family="Helvetica,sans-Serif" font-size="10.00"> +in</text>
</g>
<!-- Node6 -->
<g id="node11" class="node"><title>Node6</title>
<polygon fill="white" stroke="#bfbfbf" points="415.5,-141.5 415.5,-204.5 526.5,-204.5 526.5,-141.5 415.5,-141.5"/>
<text text-anchor="middle" x="471" y="-191.5" font-family="Helvetica,sans-Serif" font-size="10.00">sc_out&lt; OUTTYPE &gt;</text>
<polyline fill="none" stroke="#bfbfbf" points="415.5,-183.5 526.5,-183.5 "/>
<text text-anchor="middle" x="471" y="-170.5" font-family="Helvetica,sans-Serif" font-size="10.00"> </text>
<polyline fill="none" stroke="#bfbfbf" points="415.5,-162.5 526.5,-162.5 "/>
<text text-anchor="middle" x="471" y="-149.5" font-family="Helvetica,sans-Serif" font-size="10.00"> </text>
</g>
<!-- Node6&#45;&gt;Node1 -->
<g id="edge12" class="edge"><title>Node6&#45;&gt;Node1</title>
<path fill="none" stroke="#404040" d="M438.059,-141.244C420.871,-124.674 399.513,-104.085 380.478,-85.7338"/>
<polygon fill="none" stroke="#404040" points="380.273,-85.537 373.178,-84.2525 371.634,-77.2085 378.73,-78.493 380.273,-85.537"/>
<text text-anchor="middle" x="412.5" y="-100.5" font-family="Helvetica,sans-Serif" font-size="10.00"> +out</text>
</g>
</g>
</svg>
        <g id="navigator" transform="translate(0 0)" fill="#404254">
                <rect fill="#f2f5e9" fill-opacity="0.5" stroke="#606060" stroke-width=".5" x="0" y="0" width="60" height="60"/>
                <use id="zoomplus" xlink:href="#zoomPlus" x="17" y="9" onmousedown="handleZoom(evt,'in')"/>
                <use id="zoomminus" xlink:href="#zoomMin" x="42" y="9" onmousedown="handleZoom(evt,'out')"/>
                <use id="reset" xlink:href="#resetDef" x="30" y="36" onmousedown="handleReset()"/>
                <g id="arrowUp" xlink:href="#dirArrow" transform="translate(30 24)" onmousedown="handlePan(0,-1)">
                  <use xlink:href="#rim" fill="#404040">
                        <set attributeName="fill" to="#808080" begin="arrowUp.mouseover" end="arrowUp.mouseout"/>
                  </use>
                  <path fill="none" stroke="white" stroke-width="1.5" d="M0,-3.0v7 M-2.5,-0.5L0,-3.0L2.5,-0.5"/>
                </g>
                <g id="arrowRight" xlink:href="#dirArrow" transform="rotate(90) translate(36 -43)" onmousedown="handlePan(1,0)">
                  <use xlink:href="#rim" fill="#404040">
                        <set attributeName="fill" to="#808080" begin="arrowRight.mouseover" end="arrowRight.mouseout"/>
                  </use>
                  <path fill="none" stroke="white" stroke-width="1.5" d="M0,-3.0v7 M-2.5,-0.5L0,-3.0L2.5,-0.5"/>
                </g>
                <g id="arrowDown" xlink:href="#dirArrow" transform="rotate(180) translate(-30 -48)" onmousedown="handlePan(0,1)">
                  <use xlink:href="#rim" fill="#404040">
                        <set attributeName="fill" to="#808080" begin="arrowDown.mouseover" end="arrowDown.mouseout"/>
                  </use>
                  <path fill="none" stroke="white" stroke-width="1.5" d="M0,-3.0v7 M-2.5,-0.5L0,-3.0L2.5,-0.5"/>
                </g>
                <g id="arrowLeft" xlink:href="#dirArrow" transform="rotate(270) translate(-36 17)" onmousedown="handlePan(-1,0)">
                  <use xlink:href="#rim" fill="#404040">
                        <set attributeName="fill" to="#808080" begin="arrowLeft.mouseover" end="arrowLeft.mouseout"/>
                  </use>
                  <path fill="none" stroke="white" stroke-width="1.5" d="M0,-3.0v7 M-2.5,-0.5L0,-3.0L2.5,-0.5"/>
                </g>
        </g>
        <svg viewBox="0 0 15 15" width="100%" height="30px" preserveAspectRatio="xMaxYMin meet">
         <g id="arrow_out" transform="scale(0.3 0.3)">
          <a xlink:href="classsignalkit_1_1tlmin__scout__adapter__coll__graph_org.svg" target="_base">
           <rect id="button" ry="5" rx="5" y="6" x="6" height="38" width="38"
                fill="#f2f5e9" fill-opacity="0.5" stroke="#606060" stroke-width="1.0"/>
           <path id="arrow"
             d="M 11.500037,31.436501 C 11.940474,20.09759 22.043105,11.32322 32.158766,21.979434 L 37.068811,17.246167 C 37.068811,17.246167 37.088388,32 37.088388,32 L 22.160133,31.978069 C 22.160133,31.978069 26.997745,27.140456 26.997745,27.140456 C 18.528582,18.264221 13.291696,25.230495 11.500037,31.436501 z"
             style="fill:#404040;"/>
          </a>
         </g>
        </svg>
</svg>
