<?xml version="1.0" encoding="UTF-8" standalone="no"?>
<!DOCTYPE svg PUBLIC "-//W3C//DTD SVG 1.1//EN"
 "http://www.w3.org/Graphics/SVG/1.1/DTD/svg11.dtd">
<!-- Generated by graphviz version 2.26.0 (20091210.2329)
 -->
<!-- Title: leon3_funcat_trap::Instruction Pages: 1 -->
<!--zoomable 796 -->
<svg id="main" version="1.1" xmlns="http://www.w3.org/2000/svg" xmlns:xlink="http://www.w3.org/1999/xlink" xml:space="preserve" onload="init(evt)">
<style type="text/css"><![CDATA[
.edge:hover path { stroke: red; }
.edge:hover polygon { stroke: red; fill: red; }
]]></style>
<script type="text/javascript"><![CDATA[
var edges = document.getElementsByTagName('g');
if (edges && edges.length) {
  for (var i=0;i<edges.length;i++) {
    if (edges[i].id.substr(0,4)=='edge') {
      edges[i].setAttribute('class','edge');
    }
  }
}
]]></script>
        <defs>
                <circle id="rim" cx="0" cy="0" r="7"/>
                <circle id="rim2" cx="0" cy="0" r="3.5"/>
                <g id="zoomPlus">
                        <use xlink:href="#rim" fill="#404040">
                                <set attributeName="fill" to="#808080" begin="zoomplus.mouseover" end="zoomplus.mouseout"/>
                        </use>
                        <path d="M-4,0h8M0,-4v8" fill="none" stroke="white" stroke-width="1.5" pointer-events="none"/>
                </g>
                <g id="zoomMin">
                        <use xlink:href="#rim" fill="#404040">
                                <set attributeName="fill" to="#808080" begin="zoomminus.mouseover" end="zoomminus.mouseout"/>
                        </use>
                        <path d="M-4,0h8" fill="none" stroke="white" stroke-width="1.5" pointer-events="none"/>
                </g>
                <g id="dirArrow">
                        <path fill="none" stroke="white" stroke-width="1.5" d="M0,-3.0v7 M-2.5,-0.5L0,-3.0L2.5,-0.5"/>
                </g>
               <g id="resetDef">
                       <use xlink:href="#rim2" fill="#404040">
                               <set attributeName="fill" to="#808080" begin="reset.mouseover" end="reset.mouseout"/>
                       </use>
               </g>
        </defs>

<script type="text/javascript">
var viewWidth = 1350;
var viewHeight = 796;
var sectionId = 'dynsection-0';
</script>
<script xlink:href="svgpan.js"/>
<svg id="graph" class="graph">
<g id="viewport">
<title>leon3_funcat_trap::Instruction</title>
<polygon fill="white" stroke="white" points="-4,5 -4,-792 1347,-792 1347,5 -4,5"/>
<!-- Node1 -->
<g id="node1" class="node"><title>Node1</title>
<polygon fill="#bfbfbf" stroke="black" points="599.5,-0.5 599.5,-219.5 716.5,-219.5 716.5,-0.5 599.5,-0.5"/>
<text text-anchor="start" x="607.5" y="-206.5" font-family="Helvetica,sans-Serif" font-size="10.00">leon3_funcat_trap::</text>
<text text-anchor="middle" x="658" y="-193.5" font-family="Helvetica,sans-Serif" font-size="10.00">Instruction</text>
<polyline fill="none" stroke="black" points="599.5,-185.5 716.5,-185.5 "/>
<text text-anchor="middle" x="658" y="-172.5" font-family="Helvetica,sans-Serif" font-size="10.00"> </text>
<polyline fill="none" stroke="black" points="599.5,-164.5 716.5,-164.5 "/>
<text text-anchor="start" x="607.5" y="-151.5" font-family="Helvetica,sans-Serif" font-size="10.00">+ Instruction()</text>
<text text-anchor="start" x="607.5" y="-138.5" font-family="Helvetica,sans-Serif" font-size="10.00">+ behavior()</text>
<text text-anchor="start" x="607.5" y="-125.5" font-family="Helvetica,sans-Serif" font-size="10.00">+ replicate()</text>
<text text-anchor="start" x="607.5" y="-112.5" font-family="Helvetica,sans-Serif" font-size="10.00">+ setParams()</text>
<text text-anchor="start" x="607.5" y="-99.5" font-family="Helvetica,sans-Serif" font-size="10.00">+ getInstructionName()</text>
<text text-anchor="start" x="607.5" y="-86.5" font-family="Helvetica,sans-Serif" font-size="10.00">+ getMnemonic()</text>
<text text-anchor="start" x="607.5" y="-73.5" font-family="Helvetica,sans-Serif" font-size="10.00">+ getId()</text>
<text text-anchor="start" x="607.5" y="-60.5" font-family="Helvetica,sans-Serif" font-size="10.00">+ annull()</text>
<text text-anchor="start" x="607.5" y="-47.5" font-family="Helvetica,sans-Serif" font-size="10.00">+ flush()</text>
<text text-anchor="start" x="607.5" y="-34.5" font-family="Helvetica,sans-Serif" font-size="10.00">+ stall()</text>
<text text-anchor="start" x="607.5" y="-21.5" font-family="Helvetica,sans-Serif" font-size="10.00">and 7 more...</text>
<text text-anchor="start" x="607.5" y="-8.5" font-family="Helvetica,sans-Serif" font-size="10.00"># IncrementPC()</text>
</g>
<!-- Node2 -->
<g id="node2" class="node"><title>Node2</title>
<a xlink:href="classtrap_1_1InstructionBase.html" target="_top" xlink:title="{trap::InstructionBase\n||+ getInstructionName()\l+ getMnemonic()\l+ getId()\l}">
<polygon fill="white" stroke="black" points="-0.5,-381.5 -0.5,-470.5 116.5,-470.5 116.5,-381.5 -0.5,-381.5"/>
<text text-anchor="middle" x="58" y="-457.5" font-family="Helvetica,sans-Serif" font-size="10.00">trap::InstructionBase</text>
<polyline fill="none" stroke="black" points="-0.5,-449.5 116.5,-449.5 "/>
<text text-anchor="middle" x="58" y="-436.5" font-family="Helvetica,sans-Serif" font-size="10.00"> </text>
<polyline fill="none" stroke="black" points="-0.5,-428.5 116.5,-428.5 "/>
<text text-anchor="start" x="7.5" y="-415.5" font-family="Helvetica,sans-Serif" font-size="10.00">+ getInstructionName()</text>
<text text-anchor="start" x="7.5" y="-402.5" font-family="Helvetica,sans-Serif" font-size="10.00">+ getMnemonic()</text>
<text text-anchor="start" x="7.5" y="-389.5" font-family="Helvetica,sans-Serif" font-size="10.00">+ getId()</text>
</a>
</g>
<!-- Node2&#45;&gt;Node1 -->
<g id="edge2" class="edge"><title>Node2&#45;&gt;Node1</title>
<path fill="none" stroke="midnightblue" d="M86.3395,-372.551C97.0406,-355.241 110.241,-336.728 125,-322 259.994,-187.294 491.277,-135.491 599.253,-117.938"/>
<polygon fill="none" stroke="midnightblue" points="83.1318,-371.093 80.9762,-381.467 89.1301,-374.702 83.1318,-371.093"/>
</g>
<!-- Node3 -->
<g id="node4" class="node"><title>Node3</title>
<a xlink:href="classleon3__funcat__trap_1_1Reg32__0.html" target="_top" xlink:title="{leon3_funcat_trap::\lReg32_0\n||+ Reg32_0()\l+ operator[]()\l+ immediateWrite()\l+ readNewValue()\l+ operator~()\l+ operator=()\l+ operator+=()\l+ operator&#45;=()\l+ operator*=()\l+ operator/=()\land 57 more...\l}">
<polygon fill="white" stroke="black" points="370,-323 370,-529 470,-529 470,-323 370,-323"/>
<text text-anchor="start" x="378" y="-516" font-family="Helvetica,sans-Serif" font-size="10.00">leon3_funcat_trap::</text>
<text text-anchor="middle" x="420" y="-503" font-family="Helvetica,sans-Serif" font-size="10.00">Reg32_0</text>
<polyline fill="none" stroke="black" points="370,-495 470,-495 "/>
<text text-anchor="middle" x="420" y="-482" font-family="Helvetica,sans-Serif" font-size="10.00"> </text>
<polyline fill="none" stroke="black" points="370,-474 470,-474 "/>
<text text-anchor="start" x="378" y="-461" font-family="Helvetica,sans-Serif" font-size="10.00">+ Reg32_0()</text>
<text text-anchor="start" x="378" y="-448" font-family="Helvetica,sans-Serif" font-size="10.00">+ operator[]()</text>
<text text-anchor="start" x="378" y="-435" font-family="Helvetica,sans-Serif" font-size="10.00">+ immediateWrite()</text>
<text text-anchor="start" x="378" y="-422" font-family="Helvetica,sans-Serif" font-size="10.00">+ readNewValue()</text>
<text text-anchor="start" x="378" y="-409" font-family="Helvetica,sans-Serif" font-size="10.00">+ operator~()</text>
<text text-anchor="start" x="378" y="-396" font-family="Helvetica,sans-Serif" font-size="10.00">+ operator=()</text>
<text text-anchor="start" x="378" y="-383" font-family="Helvetica,sans-Serif" font-size="10.00">+ operator+=()</text>
<text text-anchor="start" x="378" y="-370" font-family="Helvetica,sans-Serif" font-size="10.00">+ operator&#45;=()</text>
<text text-anchor="start" x="378" y="-357" font-family="Helvetica,sans-Serif" font-size="10.00">+ operator*=()</text>
<text text-anchor="start" x="378" y="-344" font-family="Helvetica,sans-Serif" font-size="10.00">+ operator/=()</text>
<text text-anchor="start" x="378" y="-331" font-family="Helvetica,sans-Serif" font-size="10.00">and 57 more...</text>
</a>
</g>
<!-- Node3&#45;&gt;Node1 -->
<g id="edge4" class="edge"><title>Node3&#45;&gt;Node1</title>
<path fill="none" stroke="#404040" d="M470.174,-335.182C473.083,-330.676 476.033,-326.258 479,-322 512.982,-273.236 555.79,-222.229 591.022,-182.47"/>
<polygon fill="none" stroke="#404040" points="591.128,-182.351 592.131,-175.21 599.109,-173.39 598.105,-180.531 591.128,-182.351"/>
<text text-anchor="middle" x="555" y="-268.5" font-family="Helvetica,sans-Serif" font-size="10.00"> #PSR</text>
</g>
<!-- Node4 -->
<g id="node6" class="node"><title>Node4</title>
<a xlink:href="classleon3__funcat__trap_1_1Register.html" target="_top" xlink:title="{leon3_funcat_trap::\lRegister\n||+ Register()\l+ Register()\l+ immediateWrite()\l+ readNewValue()\l+ clockCycle()\l+ operator[]()\l+ operator~()\l+ operator+()\l+ operator&#45;()\l+ operator*()\land 34 more...\l}">
<polygon fill="white" stroke="black" points="224,-581 224,-787 324,-787 324,-581 224,-581"/>
<text text-anchor="start" x="232" y="-774" font-family="Helvetica,sans-Serif" font-size="10.00">leon3_funcat_trap::</text>
<text text-anchor="middle" x="274" y="-761" font-family="Helvetica,sans-Serif" font-size="10.00">Register</text>
<polyline fill="none" stroke="black" points="224,-753 324,-753 "/>
<text text-anchor="middle" x="274" y="-740" font-family="Helvetica,sans-Serif" font-size="10.00"> </text>
<polyline fill="none" stroke="black" points="224,-732 324,-732 "/>
<text text-anchor="start" x="232" y="-719" font-family="Helvetica,sans-Serif" font-size="10.00">+ Register()</text>
<text text-anchor="start" x="232" y="-706" font-family="Helvetica,sans-Serif" font-size="10.00">+ Register()</text>
<text text-anchor="start" x="232" y="-693" font-family="Helvetica,sans-Serif" font-size="10.00">+ immediateWrite()</text>
<text text-anchor="start" x="232" y="-680" font-family="Helvetica,sans-Serif" font-size="10.00">+ readNewValue()</text>
<text text-anchor="start" x="232" y="-667" font-family="Helvetica,sans-Serif" font-size="10.00">+ clockCycle()</text>
<text text-anchor="start" x="232" y="-654" font-family="Helvetica,sans-Serif" font-size="10.00">+ operator[]()</text>
<text text-anchor="start" x="232" y="-641" font-family="Helvetica,sans-Serif" font-size="10.00">+ operator~()</text>
<text text-anchor="start" x="232" y="-628" font-family="Helvetica,sans-Serif" font-size="10.00">+ operator+()</text>
<text text-anchor="start" x="232" y="-615" font-family="Helvetica,sans-Serif" font-size="10.00">+ operator&#45;()</text>
<text text-anchor="start" x="232" y="-602" font-family="Helvetica,sans-Serif" font-size="10.00">+ operator*()</text>
<text text-anchor="start" x="232" y="-589" font-family="Helvetica,sans-Serif" font-size="10.00">and 34 more...</text>
</a>
</g>
<!-- Node4&#45;&gt;Node3 -->
<g id="edge6" class="edge"><title>Node4&#45;&gt;Node3</title>
<path fill="none" stroke="midnightblue" d="M329.112,-586.61C342.463,-563.017 356.665,-537.921 369.777,-514.75"/>
<polygon fill="none" stroke="midnightblue" points="325.92,-585.145 324.041,-595.572 332.012,-588.593 325.92,-585.145"/>
</g>
<!-- Node5 -->
<g id="node8" class="node"><title>Node5</title>
<a xlink:href="classleon3__funcat__trap_1_1Reg32__1.html" target="_top" xlink:title="{leon3_funcat_trap::\lReg32_1\n||+ Reg32_1()\l+ operator[]()\l+ immediateWrite()\l+ readNewValue()\l+ operator~()\l+ operator=()\l+ operator+=()\l+ operator&#45;=()\l+ operator*=()\l+ operator/=()\land 57 more...\l}">
<polygon fill="white" stroke="black" points="488,-323 488,-529 588,-529 588,-323 488,-323"/>
<text text-anchor="start" x="496" y="-516" font-family="Helvetica,sans-Serif" font-size="10.00">leon3_funcat_trap::</text>
<text text-anchor="middle" x="538" y="-503" font-family="Helvetica,sans-Serif" font-size="10.00">Reg32_1</text>
<polyline fill="none" stroke="black" points="488,-495 588,-495 "/>
<text text-anchor="middle" x="538" y="-482" font-family="Helvetica,sans-Serif" font-size="10.00"> </text>
<polyline fill="none" stroke="black" points="488,-474 588,-474 "/>
<text text-anchor="start" x="496" y="-461" font-family="Helvetica,sans-Serif" font-size="10.00">+ Reg32_1()</text>
<text text-anchor="start" x="496" y="-448" font-family="Helvetica,sans-Serif" font-size="10.00">+ operator[]()</text>
<text text-anchor="start" x="496" y="-435" font-family="Helvetica,sans-Serif" font-size="10.00">+ immediateWrite()</text>
<text text-anchor="start" x="496" y="-422" font-family="Helvetica,sans-Serif" font-size="10.00">+ readNewValue()</text>
<text text-anchor="start" x="496" y="-409" font-family="Helvetica,sans-Serif" font-size="10.00">+ operator~()</text>
<text text-anchor="start" x="496" y="-396" font-family="Helvetica,sans-Serif" font-size="10.00">+ operator=()</text>
<text text-anchor="start" x="496" y="-383" font-family="Helvetica,sans-Serif" font-size="10.00">+ operator+=()</text>
<text text-anchor="start" x="496" y="-370" font-family="Helvetica,sans-Serif" font-size="10.00">+ operator&#45;=()</text>
<text text-anchor="start" x="496" y="-357" font-family="Helvetica,sans-Serif" font-size="10.00">+ operator*=()</text>
<text text-anchor="start" x="496" y="-344" font-family="Helvetica,sans-Serif" font-size="10.00">+ operator/=()</text>
<text text-anchor="start" x="496" y="-331" font-family="Helvetica,sans-Serif" font-size="10.00">and 57 more...</text>
</a>
</g>
<!-- Node4&#45;&gt;Node5 -->
<g id="edge10" class="edge"><title>Node4&#45;&gt;Node5</title>
<path fill="none" stroke="midnightblue" d="M330.412,-582.878C331.267,-581.904 332.13,-580.945 333,-580 350.124,-561.416 356.615,-557.58 380,-548 421.383,-531.047 442.532,-555.887 479,-530 482.047,-527.837 484.957,-525.464 487.735,-522.922"/>
<polygon fill="none" stroke="midnightblue" points="327.704,-580.66 324.011,-590.59 333.091,-585.131 327.704,-580.66"/>
</g>
<!-- Node6 -->
<g id="node11" class="node"><title>Node6</title>
<a xlink:href="classleon3__funcat__trap_1_1Reg32__2.html" target="_top" xlink:title="{leon3_funcat_trap::\lReg32_2\n||+ Reg32_2()\l+ operator[]()\l+ immediateWrite()\l+ readNewValue()\l+ operator~()\l+ operator=()\l+ operator+=()\l+ operator&#45;=()\l+ operator*=()\l+ operator/=()\land 57 more...\l}">
<polygon fill="white" stroke="black" points="134,-323 134,-529 234,-529 234,-323 134,-323"/>
<text text-anchor="start" x="142" y="-516" font-family="Helvetica,sans-Serif" font-size="10.00">leon3_funcat_trap::</text>
<text text-anchor="middle" x="184" y="-503" font-family="Helvetica,sans-Serif" font-size="10.00">Reg32_2</text>
<polyline fill="none" stroke="black" points="134,-495 234,-495 "/>
<text text-anchor="middle" x="184" y="-482" font-family="Helvetica,sans-Serif" font-size="10.00"> </text>
<polyline fill="none" stroke="black" points="134,-474 234,-474 "/>
<text text-anchor="start" x="142" y="-461" font-family="Helvetica,sans-Serif" font-size="10.00">+ Reg32_2()</text>
<text text-anchor="start" x="142" y="-448" font-family="Helvetica,sans-Serif" font-size="10.00">+ operator[]()</text>
<text text-anchor="start" x="142" y="-435" font-family="Helvetica,sans-Serif" font-size="10.00">+ immediateWrite()</text>
<text text-anchor="start" x="142" y="-422" font-family="Helvetica,sans-Serif" font-size="10.00">+ readNewValue()</text>
<text text-anchor="start" x="142" y="-409" font-family="Helvetica,sans-Serif" font-size="10.00">+ operator~()</text>
<text text-anchor="start" x="142" y="-396" font-family="Helvetica,sans-Serif" font-size="10.00">+ operator=()</text>
<text text-anchor="start" x="142" y="-383" font-family="Helvetica,sans-Serif" font-size="10.00">+ operator+=()</text>
<text text-anchor="start" x="142" y="-370" font-family="Helvetica,sans-Serif" font-size="10.00">+ operator&#45;=()</text>
<text text-anchor="start" x="142" y="-357" font-family="Helvetica,sans-Serif" font-size="10.00">+ operator*=()</text>
<text text-anchor="start" x="142" y="-344" font-family="Helvetica,sans-Serif" font-size="10.00">+ operator/=()</text>
<text text-anchor="start" x="142" y="-331" font-family="Helvetica,sans-Serif" font-size="10.00">and 57 more...</text>
</a>
</g>
<!-- Node4&#45;&gt;Node6 -->
<g id="edge14" class="edge"><title>Node4&#45;&gt;Node6</title>
<path fill="none" stroke="midnightblue" d="M234.689,-571.308C229.821,-557.355 224.864,-543.142 220.048,-529.338"/>
<polygon fill="none" stroke="midnightblue" points="231.443,-572.63 238.042,-580.919 238.053,-570.324 231.443,-572.63"/>
</g>
<!-- Node7 -->
<g id="node14" class="node"><title>Node7</title>
<a xlink:href="classleon3__funcat__trap_1_1Reg32__3.html" target="_top" xlink:title="{leon3_funcat_trap::\lReg32_3\n||+ Reg32_3()\l+ operator[]()\l+ immediateWrite()\l+ readNewValue()\l+ operator~()\l+ operator=()\l+ operator+=()\l+ operator&#45;=()\l+ operator*=()\l+ operator/=()\land 57 more...\l}">
<polygon fill="white" stroke="black" points="252,-323 252,-529 352,-529 352,-323 252,-323"/>
<text text-anchor="start" x="260" y="-516" font-family="Helvetica,sans-Serif" font-size="10.00">leon3_funcat_trap::</text>
<text text-anchor="middle" x="302" y="-503" font-family="Helvetica,sans-Serif" font-size="10.00">Reg32_3</text>
<polyline fill="none" stroke="black" points="252,-495 352,-495 "/>
<text text-anchor="middle" x="302" y="-482" font-family="Helvetica,sans-Serif" font-size="10.00"> </text>
<polyline fill="none" stroke="black" points="252,-474 352,-474 "/>
<text text-anchor="start" x="260" y="-461" font-family="Helvetica,sans-Serif" font-size="10.00">+ Reg32_3()</text>
<text text-anchor="start" x="260" y="-448" font-family="Helvetica,sans-Serif" font-size="10.00">+ operator[]()</text>
<text text-anchor="start" x="260" y="-435" font-family="Helvetica,sans-Serif" font-size="10.00">+ immediateWrite()</text>
<text text-anchor="start" x="260" y="-422" font-family="Helvetica,sans-Serif" font-size="10.00">+ readNewValue()</text>
<text text-anchor="start" x="260" y="-409" font-family="Helvetica,sans-Serif" font-size="10.00">+ operator~()</text>
<text text-anchor="start" x="260" y="-396" font-family="Helvetica,sans-Serif" font-size="10.00">+ operator=()</text>
<text text-anchor="start" x="260" y="-383" font-family="Helvetica,sans-Serif" font-size="10.00">+ operator+=()</text>
<text text-anchor="start" x="260" y="-370" font-family="Helvetica,sans-Serif" font-size="10.00">+ operator&#45;=()</text>
<text text-anchor="start" x="260" y="-357" font-family="Helvetica,sans-Serif" font-size="10.00">+ operator*=()</text>
<text text-anchor="start" x="260" y="-344" font-family="Helvetica,sans-Serif" font-size="10.00">+ operator/=()</text>
<text text-anchor="start" x="260" y="-331" font-family="Helvetica,sans-Serif" font-size="10.00">and 57 more...</text>
</a>
</g>
<!-- Node4&#45;&gt;Node7 -->
<g id="edge18" class="edge"><title>Node4&#45;&gt;Node7</title>
<path fill="none" stroke="midnightblue" d="M286.274,-570.906C287.774,-557.081 289.301,-543.009 290.785,-529.338"/>
<polygon fill="none" stroke="midnightblue" points="282.787,-570.6 285.187,-580.919 289.746,-571.355 282.787,-570.6"/>
</g>
<!-- Node5&#45;&gt;Node1 -->
<g id="edge8" class="edge"><title>Node5&#45;&gt;Node1</title>
<path fill="none" stroke="#404040" d="M577.126,-322.967C588.255,-293.661 600.478,-261.473 611.977,-231.195"/>
<polygon fill="none" stroke="#404040" points="612.084,-230.912 610.475,-223.883 616.344,-219.694 617.953,-226.723 612.084,-230.912"/>
<text text-anchor="middle" x="624" y="-268.5" font-family="Helvetica,sans-Serif" font-size="10.00"> #WIM</text>
</g>
<!-- Node6&#45;&gt;Node1 -->
<g id="edge12" class="edge"><title>Node6&#45;&gt;Node1</title>
<path fill="none" stroke="#404040" d="M234.089,-333.507C236.981,-329.534 239.955,-325.677 243,-322 333.585,-212.603 495.092,-153.55 587.651,-127.238"/>
<polygon fill="none" stroke="#404040" points="587.852,-127.182 592.56,-121.72 599.413,-123.966 594.705,-129.428 587.852,-127.182"/>
<text text-anchor="middle" x="351.5" y="-268.5" font-family="Helvetica,sans-Serif" font-size="10.00"> #TBR</text>
</g>
<!-- Node7&#45;&gt;Node1 -->
<g id="edge16" class="edge"><title>Node7&#45;&gt;Node1</title>
<path fill="none" stroke="#404040" d="M352.1,-335.13C355.028,-330.637 358.003,-326.237 361,-322 389.567,-281.622 395.767,-269.379 434,-238 481.439,-199.066 542.264,-165.142 588.557,-142.018"/>
<polygon fill="none" stroke="#404040" points="588.636,-141.979 592.245,-135.736 599.396,-136.667 595.786,-142.91 588.636,-141.979"/>
<text text-anchor="middle" x="461.5" y="-294.5" font-family="Helvetica,sans-Serif" font-size="10.00"> #Y</text>
<text text-anchor="middle" x="461.5" y="-281.5" font-family="Helvetica,sans-Serif" font-size="10.00">#WINREGS</text>
<text text-anchor="middle" x="461.5" y="-268.5" font-family="Helvetica,sans-Serif" font-size="10.00">#PC</text>
<text text-anchor="middle" x="461.5" y="-255.5" font-family="Helvetica,sans-Serif" font-size="10.00">#ASR</text>
<text text-anchor="middle" x="461.5" y="-242.5" font-family="Helvetica,sans-Serif" font-size="10.00">#NPC</text>
</g>
<!-- Node8 -->
<g id="node17" class="node"><title>Node8</title>
<a xlink:href="classleon3__funcat__trap_1_1TLMMemory.html" target="_top" xlink:title="{leon3_funcat_trap::\lTLMMemory\n||+ TLMMemory()\l+ setDebugger()\l+ nb_transport_bw()\l+ peq_cb()\l+ read_dword()\l+ read_word()\l+ read_half()\l+ read_byte()\l+ read_instr()\l+ write_dword()\land 13 more...\l}">
<polygon fill="white" stroke="black" points="606,-323 606,-529 710,-529 710,-323 606,-323"/>
<text text-anchor="start" x="614" y="-516" font-family="Helvetica,sans-Serif" font-size="10.00">leon3_funcat_trap::</text>
<text text-anchor="middle" x="658" y="-503" font-family="Helvetica,sans-Serif" font-size="10.00">TLMMemory</text>
<polyline fill="none" stroke="black" points="606,-495 710,-495 "/>
<text text-anchor="middle" x="658" y="-482" font-family="Helvetica,sans-Serif" font-size="10.00"> </text>
<polyline fill="none" stroke="black" points="606,-474 710,-474 "/>
<text text-anchor="start" x="614" y="-461" font-family="Helvetica,sans-Serif" font-size="10.00">+ TLMMemory()</text>
<text text-anchor="start" x="614" y="-448" font-family="Helvetica,sans-Serif" font-size="10.00">+ setDebugger()</text>
<text text-anchor="start" x="614" y="-435" font-family="Helvetica,sans-Serif" font-size="10.00">+ nb_transport_bw()</text>
<text text-anchor="start" x="614" y="-422" font-family="Helvetica,sans-Serif" font-size="10.00">+ peq_cb()</text>
<text text-anchor="start" x="614" y="-409" font-family="Helvetica,sans-Serif" font-size="10.00">+ read_dword()</text>
<text text-anchor="start" x="614" y="-396" font-family="Helvetica,sans-Serif" font-size="10.00">+ read_word()</text>
<text text-anchor="start" x="614" y="-383" font-family="Helvetica,sans-Serif" font-size="10.00">+ read_half()</text>
<text text-anchor="start" x="614" y="-370" font-family="Helvetica,sans-Serif" font-size="10.00">+ read_byte()</text>
<text text-anchor="start" x="614" y="-357" font-family="Helvetica,sans-Serif" font-size="10.00">+ read_instr()</text>
<text text-anchor="start" x="614" y="-344" font-family="Helvetica,sans-Serif" font-size="10.00">+ write_dword()</text>
<text text-anchor="start" x="614" y="-331" font-family="Helvetica,sans-Serif" font-size="10.00">and 13 more...</text>
</a>
</g>
<!-- Node8&#45;&gt;Node1 -->
<g id="edge20" class="edge"><title>Node8&#45;&gt;Node1</title>
<path fill="none" stroke="#404040" d="M658,-322.967C658,-293.919 658,-262.04 658,-231.996"/>
<polygon fill="none" stroke="#404040" points="658,-231.694 654,-225.694 658,-219.694 662,-225.694 658,-231.694"/>
<text text-anchor="middle" x="682.5" y="-275" font-family="Helvetica,sans-Serif" font-size="10.00"> #dataMem</text>
<text text-anchor="middle" x="682.5" y="-262" font-family="Helvetica,sans-Serif" font-size="10.00">#instrMem</text>
</g>
<!-- Node9 -->
<g id="node19" class="node"><title>Node9</title>
<a xlink:href="classleon3__funcat__trap_1_1MemoryInterface.html" target="_top" xlink:title="{leon3_funcat_trap::\lMemoryInterface\n||+ read_dword()\l+ read_word()\l+ read_half()\l+ read_byte()\l+ read_instr()\l+ read_dword_dbg()\l+ read_word_dbg()\l+ read_half_dbg()\l+ read_byte_dbg()\l+ write_dword()\land 12 more...\l}">
<polygon fill="white" stroke="black" points="341.5,-581 341.5,-787 444.5,-787 444.5,-581 341.5,-581"/>
<text text-anchor="start" x="349.5" y="-774" font-family="Helvetica,sans-Serif" font-size="10.00">leon3_funcat_trap::</text>
<text text-anchor="middle" x="393" y="-761" font-family="Helvetica,sans-Serif" font-size="10.00">MemoryInterface</text>
<polyline fill="none" stroke="black" points="341.5,-753 444.5,-753 "/>
<text text-anchor="middle" x="393" y="-740" font-family="Helvetica,sans-Serif" font-size="10.00"> </text>
<polyline fill="none" stroke="black" points="341.5,-732 444.5,-732 "/>
<text text-anchor="start" x="349.5" y="-719" font-family="Helvetica,sans-Serif" font-size="10.00">+ read_dword()</text>
<text text-anchor="start" x="349.5" y="-706" font-family="Helvetica,sans-Serif" font-size="10.00">+ read_word()</text>
<text text-anchor="start" x="349.5" y="-693" font-family="Helvetica,sans-Serif" font-size="10.00">+ read_half()</text>
<text text-anchor="start" x="349.5" y="-680" font-family="Helvetica,sans-Serif" font-size="10.00">+ read_byte()</text>
<text text-anchor="start" x="349.5" y="-667" font-family="Helvetica,sans-Serif" font-size="10.00">+ read_instr()</text>
<text text-anchor="start" x="349.5" y="-654" font-family="Helvetica,sans-Serif" font-size="10.00">+ read_dword_dbg()</text>
<text text-anchor="start" x="349.5" y="-641" font-family="Helvetica,sans-Serif" font-size="10.00">+ read_word_dbg()</text>
<text text-anchor="start" x="349.5" y="-628" font-family="Helvetica,sans-Serif" font-size="10.00">+ read_half_dbg()</text>
<text text-anchor="start" x="349.5" y="-615" font-family="Helvetica,sans-Serif" font-size="10.00">+ read_byte_dbg()</text>
<text text-anchor="start" x="349.5" y="-602" font-family="Helvetica,sans-Serif" font-size="10.00">+ write_dword()</text>
<text text-anchor="start" x="349.5" y="-589" font-family="Helvetica,sans-Serif" font-size="10.00">and 12 more...</text>
</a>
</g>
<!-- Node9&#45;&gt;Node8 -->
<g id="edge22" class="edge"><title>Node9&#45;&gt;Node8</title>
<path fill="none" stroke="midnightblue" d="M452.19,-580.677C452.459,-580.45 452.729,-580.224 453,-580 505.214,-536.831 544.632,-572.981 597,-530 600.074,-527.477 603.028,-524.755 605.863,-521.879"/>
<polygon fill="none" stroke="midnightblue" points="449.604,-578.302 444.654,-587.669 454.365,-583.433 449.604,-578.302"/>
</g>
<!-- Node10 -->
<g id="node21" class="node"><title>Node10</title>
<polygon fill="white" stroke="#bfbfbf" points="668,-652.5 668,-715.5 732,-715.5 732,-652.5 668,-652.5"/>
<text text-anchor="middle" x="700" y="-702.5" font-family="Helvetica,sans-Serif" font-size="10.00">sc_module</text>
<polyline fill="none" stroke="#bfbfbf" points="668,-694.5 732,-694.5 "/>
<text text-anchor="middle" x="700" y="-681.5" font-family="Helvetica,sans-Serif" font-size="10.00"> </text>
<polyline fill="none" stroke="#bfbfbf" points="668,-673.5 732,-673.5 "/>
<text text-anchor="middle" x="700" y="-660.5" font-family="Helvetica,sans-Serif" font-size="10.00"> </text>
</g>
<!-- Node10&#45;&gt;Node8 -->
<g id="edge24" class="edge"><title>Node10&#45;&gt;Node8</title>
<path fill="none" stroke="midnightblue" d="M689.115,-642.398C683.312,-618.93 676.468,-588.986 672,-562 670.236,-551.345 668.656,-540.182 667.252,-529.027"/>
<polygon fill="none" stroke="midnightblue" points="685.785,-643.511 691.611,-652.36 692.575,-641.809 685.785,-643.511"/>
</g>
<!-- Node15 -->
<g id="node31" class="node"><title>Node15</title>
<a xlink:href="classleon3__funcat__trap_1_1PinTLM__out__32.html" target="_top" xlink:title="{leon3_funcat_trap::\lPinTLM_out_32\n||+ SK_HAS_SIGNALS()\l+ PinTLM_out_32()\l+ send_pin_req()\l+ on_run()\l}">
<polygon fill="white" stroke="black" points="728,-368.5 728,-483.5 848,-483.5 848,-368.5 728,-368.5"/>
<text text-anchor="start" x="736" y="-470.5" font-family="Helvetica,sans-Serif" font-size="10.00">leon3_funcat_trap::</text>
<text text-anchor="middle" x="788" y="-457.5" font-family="Helvetica,sans-Serif" font-size="10.00">PinTLM_out_32</text>
<polyline fill="none" stroke="black" points="728,-449.5 848,-449.5 "/>
<text text-anchor="middle" x="788" y="-436.5" font-family="Helvetica,sans-Serif" font-size="10.00"> </text>
<polyline fill="none" stroke="black" points="728,-428.5 848,-428.5 "/>
<text text-anchor="start" x="736" y="-415.5" font-family="Helvetica,sans-Serif" font-size="10.00">+ SK_HAS_SIGNALS()</text>
<text text-anchor="start" x="736" y="-402.5" font-family="Helvetica,sans-Serif" font-size="10.00">+ PinTLM_out_32()</text>
<text text-anchor="start" x="736" y="-389.5" font-family="Helvetica,sans-Serif" font-size="10.00">+ send_pin_req()</text>
<text text-anchor="start" x="736" y="-376.5" font-family="Helvetica,sans-Serif" font-size="10.00">+ on_run()</text>
</a>
</g>
<!-- Node10&#45;&gt;Node15 -->
<g id="edge36" class="edge"><title>Node10&#45;&gt;Node15</title>
<path fill="none" stroke="midnightblue" d="M698.705,-642.319C699.047,-614.867 701.806,-578.499 712,-548 719.475,-525.635 731.788,-503.157 744.348,-483.697"/>
<polygon fill="none" stroke="midnightblue" points="695.205,-642.364 698.682,-652.372 702.205,-642.38 695.205,-642.364"/>
</g>
<!-- Node11 -->
<g id="node23" class="node"><title>Node11</title>
<polygon fill="white" stroke="#bfbfbf" points="461.5,-646 461.5,-722 650.5,-722 650.5,-646 461.5,-646"/>
<text text-anchor="start" x="469.5" y="-709" font-family="Helvetica,sans-Serif" font-size="10.00">simple_initiator_socket</text>
<text text-anchor="middle" x="556" y="-696" font-family="Helvetica,sans-Serif" font-size="10.00">&lt; leon3_funcat_trap::TLMMemory, 32 &gt;</text>
<polyline fill="none" stroke="#bfbfbf" points="461.5,-688 650.5,-688 "/>
<text text-anchor="middle" x="556" y="-675" font-family="Helvetica,sans-Serif" font-size="10.00"> </text>
<polyline fill="none" stroke="#bfbfbf" points="461.5,-667 650.5,-667 "/>
<text text-anchor="middle" x="556" y="-654" font-family="Helvetica,sans-Serif" font-size="10.00"> </text>
</g>
<!-- Node11&#45;&gt;Node8 -->
<g id="edge26" class="edge"><title>Node11&#45;&gt;Node8</title>
<path fill="none" stroke="#404040" d="M571.05,-645.931C582.121,-617.928 597.791,-578.294 612.785,-540.368"/>
<polygon fill="none" stroke="#404040" points="612.788,-540.359 611.274,-533.309 617.2,-529.2 618.714,-536.25 612.788,-540.359"/>
<text text-anchor="middle" x="633.5" y="-552.5" font-family="Helvetica,sans-Serif" font-size="10.00"> +initSocket</text>
</g>
<!-- Node12 -->
<g id="node25" class="node"><title>Node12</title>
<a xlink:href="classint.html" target="_top" xlink:title="{int\n||}">
<polygon fill="white" stroke="black" points="1055.5,-394.5 1055.5,-457.5 1084.5,-457.5 1084.5,-394.5 1055.5,-394.5"/>
<text text-anchor="middle" x="1070" y="-444.5" font-family="Helvetica,sans-Serif" font-size="10.00">int</text>
<polyline fill="none" stroke="black" points="1055.5,-436.5 1084.5,-436.5 "/>
<text text-anchor="middle" x="1070" y="-423.5" font-family="Helvetica,sans-Serif" font-size="10.00"> </text>
<polyline fill="none" stroke="black" points="1055.5,-415.5 1084.5,-415.5 "/>
<text text-anchor="middle" x="1070" y="-402.5" font-family="Helvetica,sans-Serif" font-size="10.00"> </text>
</a>
</g>
<!-- Node12&#45;&gt;Node1 -->
<g id="edge28" class="edge"><title>Node12&#45;&gt;Node1</title>
<path fill="none" stroke="#404040" d="M1065.87,-394.32C1062.04,-372.815 1054.92,-344.339 1042,-322 1015.57,-276.292 1001.74,-267.564 958,-238 885.567,-189.045 791.386,-152.583 728.034,-131.351"/>
<polygon fill="none" stroke="#404040" points="727.97,-131.329 721.018,-133.245 716.576,-127.564 723.528,-125.649 727.97,-131.329"/>
<text text-anchor="middle" x="1072.5" y="-275" font-family="Helvetica,sans-Serif" font-size="10.00"> #NUM_REG_WIN</text>
<text text-anchor="middle" x="1072.5" y="-262" font-family="Helvetica,sans-Serif" font-size="10.00">+totalInstrCycles</text>
</g>
<!-- Node13 -->
<g id="node27" class="node"><title>Node13</title>
<a xlink:href="classbool.html" target="_top" xlink:title="{bool\n||}">
<polygon fill="white" stroke="black" points="963.5,-652.5 963.5,-715.5 998.5,-715.5 998.5,-652.5 963.5,-652.5"/>
<text text-anchor="middle" x="981" y="-702.5" font-family="Helvetica,sans-Serif" font-size="10.00">bool</text>
<polyline fill="none" stroke="black" points="963.5,-694.5 998.5,-694.5 "/>
<text text-anchor="middle" x="981" y="-681.5" font-family="Helvetica,sans-Serif" font-size="10.00"> </text>
<polyline fill="none" stroke="black" points="963.5,-673.5 998.5,-673.5 "/>
<text text-anchor="middle" x="981" y="-660.5" font-family="Helvetica,sans-Serif" font-size="10.00"> </text>
</a>
</g>
<!-- Node13&#45;&gt;Node1 -->
<g id="edge30" class="edge"><title>Node13&#45;&gt;Node1</title>
<path fill="none" stroke="#404040" d="M981.414,-652.247C980.822,-624.048 977.56,-582.137 965,-548 961.68,-538.977 957.695,-538.39 953,-530 903.278,-441.151 913.908,-406.427 857,-322 819.332,-266.117 766.831,-210.864 725.213,-170.782"/>
<polygon fill="none" stroke="#404040" points="725.183,-170.753 718.082,-169.501 716.506,-162.464 723.608,-163.716 725.183,-170.753"/>
<text text-anchor="middle" x="1000" y="-423.5" font-family="Helvetica,sans-Serif" font-size="10.00"> #PIPELINED_MULT</text>
</g>
<!-- Node13&#45;&gt;Node15 -->
<g id="edge44" class="edge"><title>Node13&#45;&gt;Node15</title>
<path fill="none" stroke="#404040" d="M968.653,-652.177C959.691,-630.87 946.458,-602.679 931,-580 909.584,-548.58 881.906,-517.219 856.612,-491.077"/>
<polygon fill="none" stroke="#404040" points="856.532,-490.995 849.477,-489.505 848.139,-482.419 855.194,-483.909 856.532,-490.995"/>
<text text-anchor="middle" x="939" y="-552.5" font-family="Helvetica,sans-Serif" font-size="10.00"> +stopped</text>
</g>
<!-- Node14 -->
<g id="node29" class="node"><title>Node14</title>
<a xlink:href="classleon3__funcat__trap_1_1RegisterBankClass.html" target="_top" xlink:title="{leon3_funcat_trap::\lRegisterBankClass\n||+ RegisterBankClass()\l+ RegisterBankClass()\l+ setNewRegister()\l+ setSize()\l+ operator[]()\l+ ~RegisterBankClass()\l}">
<polygon fill="white" stroke="black" points="1102,-355.5 1102,-496.5 1224,-496.5 1224,-355.5 1102,-355.5"/>
<text text-anchor="start" x="1110" y="-483.5" font-family="Helvetica,sans-Serif" font-size="10.00">leon3_funcat_trap::</text>
<text text-anchor="middle" x="1163" y="-470.5" font-family="Helvetica,sans-Serif" font-size="10.00">RegisterBankClass</text>
<polyline fill="none" stroke="black" points="1102,-462.5 1224,-462.5 "/>
<text text-anchor="middle" x="1163" y="-449.5" font-family="Helvetica,sans-Serif" font-size="10.00"> </text>
<polyline fill="none" stroke="black" points="1102,-441.5 1224,-441.5 "/>
<text text-anchor="start" x="1110" y="-428.5" font-family="Helvetica,sans-Serif" font-size="10.00">+ RegisterBankClass()</text>
<text text-anchor="start" x="1110" y="-415.5" font-family="Helvetica,sans-Serif" font-size="10.00">+ RegisterBankClass()</text>
<text text-anchor="start" x="1110" y="-402.5" font-family="Helvetica,sans-Serif" font-size="10.00">+ setNewRegister()</text>
<text text-anchor="start" x="1110" y="-389.5" font-family="Helvetica,sans-Serif" font-size="10.00">+ setSize()</text>
<text text-anchor="start" x="1110" y="-376.5" font-family="Helvetica,sans-Serif" font-size="10.00">+ operator[]()</text>
<text text-anchor="start" x="1110" y="-363.5" font-family="Helvetica,sans-Serif" font-size="10.00">+ ~RegisterBankClass()</text>
</a>
</g>
<!-- Node14&#45;&gt;Node1 -->
<g id="edge32" class="edge"><title>Node14&#45;&gt;Node1</title>
<path fill="none" stroke="#404040" d="M1163.28,-355.216C1159.71,-315.954 1148.71,-268.954 1119,-238 1065.24,-181.99 844.172,-139.526 728.81,-120.691"/>
<polygon fill="none" stroke="#404040" points="728.481,-120.638 721.921,-123.632 716.634,-118.727 723.195,-115.734 728.481,-120.638"/>
<text text-anchor="middle" x="1177" y="-268.5" font-family="Helvetica,sans-Serif" font-size="10.00"> #GLOBAL</text>
</g>
<!-- Node15&#45;&gt;Node1 -->
<g id="edge34" class="edge"><title>Node15&#45;&gt;Node1</title>
<path fill="none" stroke="#404040" d="M764.467,-368.38C749.25,-331.163 728.997,-281.702 711,-238 710.034,-235.654 709.058,-233.285 708.074,-230.897"/>
<polygon fill="none" stroke="#404040" points="707.995,-230.707 702.01,-226.686 703.419,-219.614 709.405,-223.635 707.995,-230.707"/>
<text text-anchor="middle" x="755.5" y="-268.5" font-family="Helvetica,sans-Serif" font-size="10.00"> #irqAck</text>
</g>
<!-- Node16 -->
<g id="node34" class="node"><title>Node16</title>
<polygon fill="white" stroke="#bfbfbf" points="749.5,-652.5 749.5,-715.5 778.5,-715.5 778.5,-652.5 749.5,-652.5"/>
<text text-anchor="middle" x="764" y="-702.5" font-family="Helvetica,sans-Serif" font-size="10.00">in</text>
<polyline fill="none" stroke="#bfbfbf" points="749.5,-694.5 778.5,-694.5 "/>
<text text-anchor="middle" x="764" y="-681.5" font-family="Helvetica,sans-Serif" font-size="10.00"> </text>
<polyline fill="none" stroke="#bfbfbf" points="749.5,-673.5 778.5,-673.5 "/>
<text text-anchor="middle" x="764" y="-660.5" font-family="Helvetica,sans-Serif" font-size="10.00"> </text>
</g>
<!-- Node16&#45;&gt;Node15 -->
<g id="edge38" class="edge"><title>Node16&#45;&gt;Node15</title>
<path fill="none" stroke="#404040" d="M762.704,-652.225C760.508,-630.41 754.924,-601.606 741,-580 733.777,-568.792 722.963,-573.926 717,-562 714.217,-556.435 715.379,-554.007 717,-548 721.949,-529.659 730.41,-511.239 739.804,-494.469"/>
<polygon fill="none" stroke="#404040" points="740.037,-494.07 739.606,-486.872 746.084,-483.705 746.516,-490.903 740.037,-494.07"/>
<text text-anchor="middle" x="728.5" y="-552.5" font-family="Helvetica,sans-Serif" font-size="10.00"> +run</text>
</g>
<!-- Node17 -->
<g id="node36" class="node"><title>Node17</title>
<polygon fill="white" stroke="#bfbfbf" points="801,-652.5 801,-715.5 831,-715.5 831,-652.5 801,-652.5"/>
<text text-anchor="middle" x="816" y="-702.5" font-family="Helvetica,sans-Serif" font-size="10.00">out</text>
<polyline fill="none" stroke="#bfbfbf" points="801,-694.5 831,-694.5 "/>
<text text-anchor="middle" x="816" y="-681.5" font-family="Helvetica,sans-Serif" font-size="10.00"> </text>
<polyline fill="none" stroke="#bfbfbf" points="801,-673.5 831,-673.5 "/>
<text text-anchor="middle" x="816" y="-660.5" font-family="Helvetica,sans-Serif" font-size="10.00"> </text>
</g>
<!-- Node17&#45;&gt;Node15 -->
<g id="edge40" class="edge"><title>Node17&#45;&gt;Node15</title>
<path fill="none" stroke="#404040" d="M812.578,-652.165C808.989,-630.322 801.703,-601.509 787,-580 779.476,-568.993 768.963,-573.926 763,-562 752.762,-541.524 753.62,-517.431 758.729,-495.258"/>
<polygon fill="none" stroke="#404040" points="758.766,-495.116 756.446,-488.289 761.855,-483.521 764.176,-490.348 758.766,-495.116"/>
<text text-anchor="middle" x="781.5" y="-552.5" font-family="Helvetica,sans-Serif" font-size="10.00"> +status</text>
</g>
<!-- Node17&#45;&gt;Node15 -->
<g id="edge46" class="edge"><title>Node17&#45;&gt;Node15</title>
<path fill="none" stroke="#404040" d="M812.567,-652.364C808.355,-613.56 801.094,-546.656 795.555,-495.616"/>
<polygon fill="none" stroke="#404040" points="795.554,-495.599 790.929,-490.066 794.259,-483.669 798.883,-489.203 795.554,-495.599"/>
<text text-anchor="middle" x="826.5" y="-552.5" font-family="Helvetica,sans-Serif" font-size="10.00"> +initSignal</text>
</g>
<!-- Node18 -->
<g id="node38" class="node"><title>Node18</title>
<a xlink:href="classsc__event.html" target="_top" xlink:title="{sc_event\n||}">
<polygon fill="white" stroke="black" points="866,-652.5 866,-715.5 922,-715.5 922,-652.5 866,-652.5"/>
<text text-anchor="middle" x="894" y="-702.5" font-family="Helvetica,sans-Serif" font-size="10.00">sc_event</text>
<polyline fill="none" stroke="black" points="866,-694.5 922,-694.5 "/>
<text text-anchor="middle" x="894" y="-681.5" font-family="Helvetica,sans-Serif" font-size="10.00"> </text>
<polyline fill="none" stroke="black" points="866,-673.5 922,-673.5 "/>
<text text-anchor="middle" x="894" y="-660.5" font-family="Helvetica,sans-Serif" font-size="10.00"> </text>
</a>
</g>
<!-- Node18&#45;&gt;Node15 -->
<g id="edge42" class="edge"><title>Node18&#45;&gt;Node15</title>
<path fill="none" stroke="#404040" d="M887.026,-652.269C880.376,-624.267 869.267,-582.635 855,-548 847.677,-530.222 838.433,-511.709 829.17,-494.635"/>
<polygon fill="none" stroke="#404040" points="828.902,-494.15 822.5,-490.832 823.1,-483.646 829.503,-486.964 828.902,-494.15"/>
<text text-anchor="middle" x="873.5" y="-552.5" font-family="Helvetica,sans-Serif" font-size="10.00"> +start</text>
</g>
<!-- Node19 -->
<g id="node42" class="node"><title>Node19</title>
<a xlink:href="classleon3__funcat__trap_1_1Alias.html" target="_top" xlink:title="{leon3_funcat_trap::\lAlias\n||+ ~Alias()\l+ Alias()\l+ Alias()\l+ Alias()\l+ operator[]()\l+ immediateWrite()\l+ readNewValue()\l+ getReg()\l+ operator~()\l+ operator=()\land 63 more...\l}">
<polygon fill="white" stroke="black" points="1242,-323 1242,-529 1342,-529 1342,-323 1242,-323"/>
<text text-anchor="start" x="1250" y="-516" font-family="Helvetica,sans-Serif" font-size="10.00">leon3_funcat_trap::</text>
<text text-anchor="middle" x="1292" y="-503" font-family="Helvetica,sans-Serif" font-size="10.00">Alias</text>
<polyline fill="none" stroke="black" points="1242,-495 1342,-495 "/>
<text text-anchor="middle" x="1292" y="-482" font-family="Helvetica,sans-Serif" font-size="10.00"> </text>
<polyline fill="none" stroke="black" points="1242,-474 1342,-474 "/>
<text text-anchor="start" x="1250" y="-461" font-family="Helvetica,sans-Serif" font-size="10.00">+ ~Alias()</text>
<text text-anchor="start" x="1250" y="-448" font-family="Helvetica,sans-Serif" font-size="10.00">+ Alias()</text>
<text text-anchor="start" x="1250" y="-435" font-family="Helvetica,sans-Serif" font-size="10.00">+ Alias()</text>
<text text-anchor="start" x="1250" y="-422" font-family="Helvetica,sans-Serif" font-size="10.00">+ Alias()</text>
<text text-anchor="start" x="1250" y="-409" font-family="Helvetica,sans-Serif" font-size="10.00">+ operator[]()</text>
<text text-anchor="start" x="1250" y="-396" font-family="Helvetica,sans-Serif" font-size="10.00">+ immediateWrite()</text>
<text text-anchor="start" x="1250" y="-383" font-family="Helvetica,sans-Serif" font-size="10.00">+ readNewValue()</text>
<text text-anchor="start" x="1250" y="-370" font-family="Helvetica,sans-Serif" font-size="10.00">+ getReg()</text>
<text text-anchor="start" x="1250" y="-357" font-family="Helvetica,sans-Serif" font-size="10.00">+ operator~()</text>
<text text-anchor="start" x="1250" y="-344" font-family="Helvetica,sans-Serif" font-size="10.00">+ operator=()</text>
<text text-anchor="start" x="1250" y="-331" font-family="Helvetica,sans-Serif" font-size="10.00">and 63 more...</text>
</a>
</g>
<!-- Node19&#45;&gt;Node1 -->
<g id="edge48" class="edge"><title>Node19&#45;&gt;Node1</title>
<path fill="none" stroke="#404040" d="M1263.69,-322.549C1250.5,-291.364 1231.63,-259.693 1205,-238 1132.21,-178.697 859.492,-136.193 728.757,-118.765"/>
<polygon fill="none" stroke="#404040" points="728.457,-118.725 721.985,-121.907 716.56,-117.157 723.031,-113.975 728.457,-118.725"/>
<text text-anchor="middle" x="1270.5" y="-294.5" font-family="Helvetica,sans-Serif" font-size="10.00"> #REGS</text>
<text text-anchor="middle" x="1270.5" y="-281.5" font-family="Helvetica,sans-Serif" font-size="10.00">#LR</text>
<text text-anchor="middle" x="1270.5" y="-268.5" font-family="Helvetica,sans-Serif" font-size="10.00">#PCR</text>
<text text-anchor="middle" x="1270.5" y="-255.5" font-family="Helvetica,sans-Serif" font-size="10.00">#FP</text>
<text text-anchor="middle" x="1270.5" y="-242.5" font-family="Helvetica,sans-Serif" font-size="10.00">#SP</text>
</g>
</g>
</svg>
        <g id="navigator" transform="translate(0 0)" fill="#404254">
                <rect fill="#f2f5e9" fill-opacity="0.5" stroke="#606060" stroke-width=".5" x="0" y="0" width="60" height="60"/>
                <use id="zoomplus" xlink:href="#zoomPlus" x="17" y="9" onmousedown="handleZoom(evt,'in')"/>
                <use id="zoomminus" xlink:href="#zoomMin" x="42" y="9" onmousedown="handleZoom(evt,'out')"/>
                <use id="reset" xlink:href="#resetDef" x="30" y="36" onmousedown="handleReset()"/>
                <g id="arrowUp" xlink:href="#dirArrow" transform="translate(30 24)" onmousedown="handlePan(0,-1)">
                  <use xlink:href="#rim" fill="#404040">
                        <set attributeName="fill" to="#808080" begin="arrowUp.mouseover" end="arrowUp.mouseout"/>
                  </use>
                  <path fill="none" stroke="white" stroke-width="1.5" d="M0,-3.0v7 M-2.5,-0.5L0,-3.0L2.5,-0.5"/>
                </g>
                <g id="arrowRight" xlink:href="#dirArrow" transform="rotate(90) translate(36 -43)" onmousedown="handlePan(1,0)">
                  <use xlink:href="#rim" fill="#404040">
                        <set attributeName="fill" to="#808080" begin="arrowRight.mouseover" end="arrowRight.mouseout"/>
                  </use>
                  <path fill="none" stroke="white" stroke-width="1.5" d="M0,-3.0v7 M-2.5,-0.5L0,-3.0L2.5,-0.5"/>
                </g>
                <g id="arrowDown" xlink:href="#dirArrow" transform="rotate(180) translate(-30 -48)" onmousedown="handlePan(0,1)">
                  <use xlink:href="#rim" fill="#404040">
                        <set attributeName="fill" to="#808080" begin="arrowDown.mouseover" end="arrowDown.mouseout"/>
                  </use>
                  <path fill="none" stroke="white" stroke-width="1.5" d="M0,-3.0v7 M-2.5,-0.5L0,-3.0L2.5,-0.5"/>
                </g>
                <g id="arrowLeft" xlink:href="#dirArrow" transform="rotate(270) translate(-36 17)" onmousedown="handlePan(-1,0)">
                  <use xlink:href="#rim" fill="#404040">
                        <set attributeName="fill" to="#808080" begin="arrowLeft.mouseover" end="arrowLeft.mouseout"/>
                  </use>
                  <path fill="none" stroke="white" stroke-width="1.5" d="M0,-3.0v7 M-2.5,-0.5L0,-3.0L2.5,-0.5"/>
                </g>
        </g>
        <svg viewBox="0 0 15 15" width="100%" height="30px" preserveAspectRatio="xMaxYMin meet">
         <g id="arrow_out" transform="scale(0.3 0.3)">
          <a xlink:href="classleon3__funcat__trap_1_1Instruction__coll__graph_org.svg" target="_base">
           <rect id="button" ry="5" rx="5" y="6" x="6" height="38" width="38"
                fill="#f2f5e9" fill-opacity="0.5" stroke="#606060" stroke-width="1.0"/>
           <path id="arrow"
             d="M 11.500037,31.436501 C 11.940474,20.09759 22.043105,11.32322 32.158766,21.979434 L 37.068811,17.246167 C 37.068811,17.246167 37.088388,32 37.088388,32 L 22.160133,31.978069 C 22.160133,31.978069 26.997745,27.140456 26.997745,27.140456 C 18.528582,18.264221 13.291696,25.230495 11.500037,31.436501 z"
             style="fill:#404040;"/>
          </a>
         </g>
        </svg>
</svg>
