<?xml version="1.0" encoding="UTF-8" standalone="no"?>
<!DOCTYPE svg PUBLIC "-//W3C//DTD SVG 1.1//EN"
 "http://www.w3.org/Graphics/SVG/1.1/DTD/svg11.dtd">
<!-- Generated by graphviz version 2.26.0 (20091210.2329)
 -->
<!-- Title: leon3_funcat_trap::LocalMemory::write_word Pages: 1 -->
<svg width="276pt" height="42pt"
 viewBox="0.00 0.00 276.00 42.00" xmlns="http://www.w3.org/2000/svg" xmlns:xlink="http://www.w3.org/1999/xlink">
<g id="graph1" class="graph" transform="scale(1 1) rotate(0) translate(4 38)">
<title>leon3_funcat_trap::LocalMemory::write_word</title>
<polygon fill="white" stroke="white" points="-4,5 -4,-38 273,-38 273,5 -4,5"/>
<!-- Node1 -->
<g id="node1" class="node"><title>Node1</title>
<polygon fill="#bfbfbf" stroke="black" points="0,-0 0,-34 128,-34 128,-0 0,-0"/>
<text text-anchor="start" x="8" y="-21" font-family="Helvetica,sans-Serif" font-size="10.00">leon3_funcat_trap::</text>
<text text-anchor="middle" x="64" y="-8" font-family="Helvetica,sans-Serif" font-size="10.00">LocalMemory::write_word</text>
</g>
<!-- Node2 -->
<g id="node3" class="node"><title>Node2</title>
<a xlink:href="classtrap_1_1MemoryToolsIf.html#a686fcfbf1ff7862779713aa04f1d5fe9" target="_top" xlink:title="trap::MemoryToolsIf\l::notifyAddress">
<polygon fill="white" stroke="black" points="164,-0 164,-34 268,-34 268,-0 164,-0"/>
<text text-anchor="start" x="172" y="-21" font-family="Helvetica,sans-Serif" font-size="10.00">trap::MemoryToolsIf</text>
<text text-anchor="middle" x="216" y="-8" font-family="Helvetica,sans-Serif" font-size="10.00">::notifyAddress</text>
</a>
</g>
<!-- Node1&#45;&gt;Node2 -->
<g id="edge2" class="edge"><title>Node1&#45;&gt;Node2</title>
<path fill="none" stroke="midnightblue" d="M128.021,-17C136.443,-17 145.065,-17 153.462,-17"/>
<polygon fill="midnightblue" stroke="midnightblue" points="153.562,-20.5001 163.562,-17 153.562,-13.5001 153.562,-20.5001"/>
</g>
</g>
</svg>
