<?xml version="1.0" encoding="UTF-8" standalone="no"?>
<!DOCTYPE svg PUBLIC "-//W3C//DTD SVG 1.1//EN"
 "http://www.w3.org/Graphics/SVG/1.1/DTD/svg11.dtd">
<!-- Generated by graphviz version 2.36.0 (20140111.2315)
 -->
<!-- Title: IntrinsicManager&lt; issueWidth &gt; Pages: 1 -->
<svg width="349pt" height="500pt"
 viewBox="0.00 0.00 349.00 500.00" xmlns="http://www.w3.org/2000/svg" xmlns:xlink="http://www.w3.org/1999/xlink">
<g id="graph0" class="graph" transform="scale(1 1) rotate(0) translate(4 496)">
<title>IntrinsicManager&lt; issueWidth &gt;</title>
<polygon fill="white" stroke="none" points="-4,4 -4,-496 345,-496 345,4 -4,4"/>
<!-- Node1 -->
<g id="node1" class="node"><title>Node1</title>
<polygon fill="#bfbfbf" stroke="black" points="67.5,-173 67.5,-285 222.5,-285 222.5,-173 67.5,-173"/>
<text text-anchor="middle" x="145" y="-273" font-family="Helvetica,sans-Serif" font-size="10.00">IntrinsicManager&lt; issueWidth &gt;</text>
<polyline fill="none" stroke="black" points="67.5,-266 222.5,-266 "/>
<text text-anchor="start" x="75.5" y="-254" font-family="Helvetica,sans-Serif" font-size="10.00">+ processorInstance</text>
<polyline fill="none" stroke="black" points="67.5,-247 222.5,-247 "/>
<text text-anchor="start" x="75.5" y="-235" font-family="Helvetica,sans-Serif" font-size="10.00">+ IntrinsicManager()</text>
<text text-anchor="start" x="75.5" y="-224" font-family="Helvetica,sans-Serif" font-size="10.00">+ register_intrinsic()</text>
<text text-anchor="start" x="75.5" y="-213" font-family="Helvetica,sans-Serif" font-size="10.00">+ newIssue()</text>
<text text-anchor="start" x="75.5" y="-202" font-family="Helvetica,sans-Serif" font-size="10.00">+ emptyPipeline()</text>
<text text-anchor="start" x="75.5" y="-191" font-family="Helvetica,sans-Serif" font-size="10.00">+ reset()</text>
<text text-anchor="start" x="75.5" y="-180" font-family="Helvetica,sans-Serif" font-size="10.00">+ ~IntrinsicManager()</text>
</g>
<!-- Node5 -->
<g id="node5" class="node"><title>Node5</title>
<g id="a_node5"><a xlink:href="classIntrinsicManager.html" target="_top" xlink:title="{IntrinsicManager\&lt; unsigned\l int \&gt;\n|+ processorInstance\l|+ IntrinsicManager()\l+ register_intrinsic()\l+ newIssue()\l+ emptyPipeline()\l+ reset()\l+ ~IntrinsicManager()\l}">
<polygon fill="white" stroke="black" points="76.5,-0.5 76.5,-123.5 213.5,-123.5 213.5,-0.5 76.5,-0.5"/>
<text text-anchor="start" x="84.5" y="-111.5" font-family="Helvetica,sans-Serif" font-size="10.00">IntrinsicManager&lt; unsigned</text>
<text text-anchor="middle" x="145" y="-100.5" font-family="Helvetica,sans-Serif" font-size="10.00"> int &gt;</text>
<polyline fill="none" stroke="black" points="76.5,-93.5 213.5,-93.5 "/>
<text text-anchor="start" x="84.5" y="-81.5" font-family="Helvetica,sans-Serif" font-size="10.00">+ processorInstance</text>
<polyline fill="none" stroke="black" points="76.5,-74.5 213.5,-74.5 "/>
<text text-anchor="start" x="84.5" y="-62.5" font-family="Helvetica,sans-Serif" font-size="10.00">+ IntrinsicManager()</text>
<text text-anchor="start" x="84.5" y="-51.5" font-family="Helvetica,sans-Serif" font-size="10.00">+ register_intrinsic()</text>
<text text-anchor="start" x="84.5" y="-40.5" font-family="Helvetica,sans-Serif" font-size="10.00">+ newIssue()</text>
<text text-anchor="start" x="84.5" y="-29.5" font-family="Helvetica,sans-Serif" font-size="10.00">+ emptyPipeline()</text>
<text text-anchor="start" x="84.5" y="-18.5" font-family="Helvetica,sans-Serif" font-size="10.00">+ reset()</text>
<text text-anchor="start" x="84.5" y="-7.5" font-family="Helvetica,sans-Serif" font-size="10.00">+ ~IntrinsicManager()</text>
</a>
</g>
</g>
<!-- Node1&#45;&gt;Node5 -->
<g id="edge4" class="edge"><title>Node1&#45;&gt;Node5</title>
<path fill="none" stroke="orange" d="M145,-162.473C145,-149.664 145,-136.284 145,-123.642"/>
<polygon fill="orange" stroke="orange" points="141.5,-162.598 145,-172.598 148.5,-162.598 141.5,-162.598"/>
<text text-anchor="middle" x="182" y="-145.5" font-family="Helvetica,sans-Serif" font-size="10.00"> &lt; unsigned int &gt;</text>
</g>
<!-- Node2 -->
<g id="node2" class="node"><title>Node2</title>
<polygon fill="white" stroke="#bfbfbf" points="-0.5,-379.5 -0.5,-436.5 58.5,-436.5 58.5,-379.5 -0.5,-379.5"/>
<text text-anchor="middle" x="29" y="-424.5" font-family="Helvetica,sans-Serif" font-size="10.00">sc_object</text>
<polyline fill="none" stroke="#bfbfbf" points="-0.5,-417.5 58.5,-417.5 "/>
<text text-anchor="middle" x="29" y="-405.5" font-family="Helvetica,sans-Serif" font-size="10.00"> </text>
<polyline fill="none" stroke="#bfbfbf" points="-0.5,-398.5 58.5,-398.5 "/>
<text text-anchor="middle" x="29" y="-386.5" font-family="Helvetica,sans-Serif" font-size="10.00"> </text>
</g>
<!-- Node2&#45;&gt;Node1 -->
<g id="edge1" class="edge"><title>Node2&#45;&gt;Node1</title>
<path fill="none" stroke="midnightblue" d="M44.0849,-369.873C50.6621,-355.159 58.9412,-338.36 68,-324 76.2728,-310.886 86.1424,-297.554 96.0101,-285.21"/>
<polygon fill="none" stroke="midnightblue" points="40.8089,-368.629 40.0175,-379.195 47.2248,-371.429 40.8089,-368.629"/>
</g>
<!-- Node3 -->
<g id="node3" class="node"><title>Node3</title>
<g id="a_node3"><a xlink:href="classtrap_1_1ToolsIf.html" target="_top" xlink:title="Base class for all the tools (profilers, debugger, etc...) ">
<polygon fill="white" stroke="black" points="77,-368.5 77,-447.5 213,-447.5 213,-368.5 77,-368.5"/>
<text text-anchor="middle" x="145" y="-435.5" font-family="Helvetica,sans-Serif" font-size="10.00">trap::ToolsIf&lt; issueWidth &gt;</text>
<polyline fill="none" stroke="black" points="77,-428.5 213,-428.5 "/>
<text text-anchor="middle" x="145" y="-416.5" font-family="Helvetica,sans-Serif" font-size="10.00"> </text>
<polyline fill="none" stroke="black" points="77,-409.5 213,-409.5 "/>
<text text-anchor="start" x="85" y="-397.5" font-family="Helvetica,sans-Serif" font-size="10.00">+ newIssue()</text>
<text text-anchor="start" x="85" y="-386.5" font-family="Helvetica,sans-Serif" font-size="10.00">+ emptyPipeline()</text>
<text text-anchor="start" x="85" y="-375.5" font-family="Helvetica,sans-Serif" font-size="10.00">+ ~ToolsIf()</text>
</a>
</g>
</g>
<!-- Node3&#45;&gt;Node1 -->
<g id="edge2" class="edge"><title>Node3&#45;&gt;Node1</title>
<path fill="none" stroke="midnightblue" d="M145,-358.103C145,-335.495 145,-308.542 145,-285.205"/>
<polygon fill="none" stroke="midnightblue" points="141.5,-358.157 145,-368.157 148.5,-358.157 141.5,-358.157"/>
</g>
<!-- Node4 -->
<g id="node4" class="node"><title>Node4</title>
<g id="a_node4"><a xlink:href="classIntrinsicBase.html" target="_top" xlink:title="{IntrinsicBase\n|+ env\l+ sysconfmap\l+ programArgs\l+ heapPointer\l+ exitValue\l+ groupIDs\l+ programsCount\l|+ set_program_args()\l+ correct_flags()\l+ set_environ()\l+ set_sysconf()\l+ reset()\l}">
<polygon fill="white" stroke="black" points="231,-324.5 231,-491.5 341,-491.5 341,-324.5 231,-324.5"/>
<text text-anchor="middle" x="286" y="-479.5" font-family="Helvetica,sans-Serif" font-size="10.00">IntrinsicBase</text>
<polyline fill="none" stroke="black" points="231,-472.5 341,-472.5 "/>
<text text-anchor="start" x="239" y="-460.5" font-family="Helvetica,sans-Serif" font-size="10.00">+ env</text>
<text text-anchor="start" x="239" y="-449.5" font-family="Helvetica,sans-Serif" font-size="10.00">+ sysconfmap</text>
<text text-anchor="start" x="239" y="-438.5" font-family="Helvetica,sans-Serif" font-size="10.00">+ programArgs</text>
<text text-anchor="start" x="239" y="-427.5" font-family="Helvetica,sans-Serif" font-size="10.00">+ heapPointer</text>
<text text-anchor="start" x="239" y="-416.5" font-family="Helvetica,sans-Serif" font-size="10.00">+ exitValue</text>
<text text-anchor="start" x="239" y="-405.5" font-family="Helvetica,sans-Serif" font-size="10.00">+ groupIDs</text>
<text text-anchor="start" x="239" y="-394.5" font-family="Helvetica,sans-Serif" font-size="10.00">+ programsCount</text>
<polyline fill="none" stroke="black" points="231,-387.5 341,-387.5 "/>
<text text-anchor="start" x="239" y="-375.5" font-family="Helvetica,sans-Serif" font-size="10.00">+ set_program_args()</text>
<text text-anchor="start" x="239" y="-364.5" font-family="Helvetica,sans-Serif" font-size="10.00">+ correct_flags()</text>
<text text-anchor="start" x="239" y="-353.5" font-family="Helvetica,sans-Serif" font-size="10.00">+ set_environ()</text>
<text text-anchor="start" x="239" y="-342.5" font-family="Helvetica,sans-Serif" font-size="10.00">+ set_sysconf()</text>
<text text-anchor="start" x="239" y="-331.5" font-family="Helvetica,sans-Serif" font-size="10.00">+ reset()</text>
</a>
</g>
</g>
<!-- Node4&#45;&gt;Node1 -->
<g id="edge3" class="edge"><title>Node4&#45;&gt;Node1</title>
<path fill="none" stroke="midnightblue" d="M224.777,-327.501C223.846,-326.325 222.92,-325.157 222,-324 212.024,-311.449 201.185,-298.065 190.874,-285.45"/>
<polygon fill="none" stroke="midnightblue" points="222.035,-329.677 230.975,-335.363 227.532,-325.343 222.035,-329.677"/>
</g>
</g>
</svg>
