<?xml version="1.0" encoding="UTF-8" standalone="no"?>
<!DOCTYPE svg PUBLIC "-//W3C//DTD SVG 1.1//EN"
 "http://www.w3.org/Graphics/SVG/1.1/DTD/svg11.dtd">
<!-- Generated by graphviz version 2.26.0 (20091210.2329)
 -->
<!-- Title: gs_config&lt; long long &gt; Pages: 1 -->
<!--zoomable 1144 -->
<svg id="main" version="1.1" xmlns="http://www.w3.org/2000/svg" xmlns:xlink="http://www.w3.org/1999/xlink" xml:space="preserve" onload="init(evt)">
<style type="text/css"><![CDATA[
.edge:hover path { stroke: red; }
.edge:hover polygon { stroke: red; fill: red; }
]]></style>
<script type="text/javascript"><![CDATA[
var edges = document.getElementsByTagName('g');
if (edges && edges.length) {
  for (var i=0;i<edges.length;i++) {
    if (edges[i].id.substr(0,4)=='edge') {
      edges[i].setAttribute('class','edge');
    }
  }
}
]]></script>
        <defs>
                <circle id="rim" cx="0" cy="0" r="7"/>
                <circle id="rim2" cx="0" cy="0" r="3.5"/>
                <g id="zoomPlus">
                        <use xlink:href="#rim" fill="#404040">
                                <set attributeName="fill" to="#808080" begin="zoomplus.mouseover" end="zoomplus.mouseout"/>
                        </use>
                        <path d="M-4,0h8M0,-4v8" fill="none" stroke="white" stroke-width="1.5" pointer-events="none"/>
                </g>
                <g id="zoomMin">
                        <use xlink:href="#rim" fill="#404040">
                                <set attributeName="fill" to="#808080" begin="zoomminus.mouseover" end="zoomminus.mouseout"/>
                        </use>
                        <path d="M-4,0h8" fill="none" stroke="white" stroke-width="1.5" pointer-events="none"/>
                </g>
                <g id="dirArrow">
                        <path fill="none" stroke="white" stroke-width="1.5" d="M0,-3.0v7 M-2.5,-0.5L0,-3.0L2.5,-0.5"/>
                </g>
               <g id="resetDef">
                       <use xlink:href="#rim2" fill="#404040">
                               <set attributeName="fill" to="#808080" begin="reset.mouseover" end="reset.mouseout"/>
                       </use>
               </g>
        </defs>

<script type="text/javascript">
var viewWidth = 539;
var viewHeight = 1144;
var sectionId = 'dynsection-1';
</script>
<script xlink:href="svgpan.js"/>
<svg id="graph" class="graph">
<g id="viewport">
<title>gs_config&lt; long long &gt;</title>
<polygon fill="white" stroke="white" points="-4,5 -4,-1140 536,-1140 536,5 -4,5"/>
<!-- Node1 -->
<g id="node1" class="node"><title>Node1</title>
<polygon fill="#bfbfbf" stroke="black" points="284.5,-1 284.5,-259 439.5,-259 439.5,-1 284.5,-1"/>
<text text-anchor="middle" x="362" y="-246" font-family="Helvetica,sans-Serif" font-size="10.00">gs_config&lt; long long &gt;</text>
<polyline fill="none" stroke="black" points="284.5,-238 439.5,-238 "/>
<text text-anchor="start" x="292.5" y="-225" font-family="Helvetica,sans-Serif" font-size="10.00">+ GS_CONFIG_HEAD</text>
<text text-anchor="start" x="292.5" y="-212" font-family="Helvetica,sans-Serif" font-size="10.00">+ GC_SPECIALISATIONS</text>
<text text-anchor="start" x="292.5" y="-199" font-family="Helvetica,sans-Serif" font-size="10.00">_ARITHMETIC_OPERATORS</text>
<text text-anchor="start" x="292.5" y="-186" font-family="Helvetica,sans-Serif" font-size="10.00">+ GC_SPECIALISATIONS</text>
<text text-anchor="start" x="292.5" y="-173" font-family="Helvetica,sans-Serif" font-size="10.00">_BINARY_OPERATORS</text>
<text text-anchor="start" x="292.5" y="-160" font-family="Helvetica,sans-Serif" font-size="10.00">+ GC_SPECIALISATIONS</text>
<text text-anchor="start" x="292.5" y="-147" font-family="Helvetica,sans-Serif" font-size="10.00">_INCREMENT_OPERATORS</text>
<text text-anchor="start" x="292.5" y="-134" font-family="Helvetica,sans-Serif" font-size="10.00">+ GC_SPECIALISATIONS</text>
<text text-anchor="start" x="292.5" y="-121" font-family="Helvetica,sans-Serif" font-size="10.00">_DECREMENT_OPERATORS</text>
<text text-anchor="start" x="292.5" y="-108" font-family="Helvetica,sans-Serif" font-size="10.00">+ GS_CONFIG_DELEGATE</text>
<polyline fill="none" stroke="black" points="284.5,-100 439.5,-100 "/>
<text text-anchor="start" x="292.5" y="-87" font-family="Helvetica,sans-Serif" font-size="10.00">+ gs_config()</text>
<text text-anchor="start" x="292.5" y="-74" font-family="Helvetica,sans-Serif" font-size="10.00">+ gs_config()</text>
<text text-anchor="start" x="292.5" y="-61" font-family="Helvetica,sans-Serif" font-size="10.00">+ getTypeString()</text>
<text text-anchor="start" x="292.5" y="-48" font-family="Helvetica,sans-Serif" font-size="10.00">+ getType()</text>
<text text-anchor="start" x="292.5" y="-35" font-family="Helvetica,sans-Serif" font-size="10.00">+ convertValueToString()</text>
<text text-anchor="start" x="292.5" y="-22" font-family="Helvetica,sans-Serif" font-size="10.00">+ static_convertValueToString()</text>
<text text-anchor="start" x="292.5" y="-9" font-family="Helvetica,sans-Serif" font-size="10.00">+ static_deserialize()</text>
</g>
<!-- Node2 -->
<g id="node2" class="node"><title>Node2</title>
<a xlink:href="classgs_1_1cnf_1_1gs__config__t.html" target="_top" xlink:title="{gs::cnf::gs_config\l_t\&lt; long long \&gt;\n||+ operator+=()\l+ operator&#45;=()\l+ operator/=()\l+ operator*=()\l+ operator+()\l+ operator&#45;()\l+ operator/()\l+ operator*()\l+ operator%=()\l+ operator^=()\land 27 more...\l# mirror_callback()\l# convertStringToValue()\l}">
<polygon fill="white" stroke="black" points="299.5,-299 299.5,-531 424.5,-531 424.5,-299 299.5,-299"/>
<text text-anchor="start" x="307.5" y="-518" font-family="Helvetica,sans-Serif" font-size="10.00">gs::cnf::gs_config</text>
<text text-anchor="middle" x="362" y="-505" font-family="Helvetica,sans-Serif" font-size="10.00">_t&lt; long long &gt;</text>
<polyline fill="none" stroke="black" points="299.5,-497 424.5,-497 "/>
<text text-anchor="middle" x="362" y="-484" font-family="Helvetica,sans-Serif" font-size="10.00"> </text>
<polyline fill="none" stroke="black" points="299.5,-476 424.5,-476 "/>
<text text-anchor="start" x="307.5" y="-463" font-family="Helvetica,sans-Serif" font-size="10.00">+ operator+=()</text>
<text text-anchor="start" x="307.5" y="-450" font-family="Helvetica,sans-Serif" font-size="10.00">+ operator&#45;=()</text>
<text text-anchor="start" x="307.5" y="-437" font-family="Helvetica,sans-Serif" font-size="10.00">+ operator/=()</text>
<text text-anchor="start" x="307.5" y="-424" font-family="Helvetica,sans-Serif" font-size="10.00">+ operator*=()</text>
<text text-anchor="start" x="307.5" y="-411" font-family="Helvetica,sans-Serif" font-size="10.00">+ operator+()</text>
<text text-anchor="start" x="307.5" y="-398" font-family="Helvetica,sans-Serif" font-size="10.00">+ operator&#45;()</text>
<text text-anchor="start" x="307.5" y="-385" font-family="Helvetica,sans-Serif" font-size="10.00">+ operator/()</text>
<text text-anchor="start" x="307.5" y="-372" font-family="Helvetica,sans-Serif" font-size="10.00">+ operator*()</text>
<text text-anchor="start" x="307.5" y="-359" font-family="Helvetica,sans-Serif" font-size="10.00">+ operator%=()</text>
<text text-anchor="start" x="307.5" y="-346" font-family="Helvetica,sans-Serif" font-size="10.00">+ operator^=()</text>
<text text-anchor="start" x="307.5" y="-333" font-family="Helvetica,sans-Serif" font-size="10.00">and 27 more...</text>
<text text-anchor="start" x="307.5" y="-320" font-family="Helvetica,sans-Serif" font-size="10.00"># mirror_callback()</text>
<text text-anchor="start" x="307.5" y="-307" font-family="Helvetica,sans-Serif" font-size="10.00"># convertStringToValue()</text>
</a>
</g>
<!-- Node2&#45;&gt;Node1 -->
<g id="edge2" class="edge"><title>Node2&#45;&gt;Node1</title>
<path fill="none" stroke="midnightblue" d="M362,-288.617C362,-278.929 362,-269.141 362,-259.434"/>
<polygon fill="none" stroke="midnightblue" points="358.5,-288.668 362,-298.669 365.5,-288.669 358.5,-288.668"/>
</g>
<!-- Node2&#45;&gt;Node2 -->
<g id="edge10" class="edge"><title>Node2&#45;&gt;Node2</title>
<path fill="none" stroke="#404040" d="M424.72,-438.593C434.961,-435.216 442,-427.352 442,-415 442,-407.666 439.519,-401.914 435.359,-397.744"/>
<polygon fill="none" stroke="#404040" points="435.029,-397.548 427.827,-397.914 424.72,-391.407 431.922,-391.041 435.029,-397.548"/>
<text text-anchor="middle" x="481.5" y="-412.5" font-family="Helvetica,sans-Serif" font-size="10.00"> #m_mirror_param</text>
</g>
<!-- Node3 -->
<g id="node4" class="node"><title>Node3</title>
<a xlink:href="classgs_1_1cnf_1_1gs__config__base.html" target="_top" xlink:title="{gs::cnf::gs_config_base\n||+ gs_config_base()\l+ setProperty()\l+ getProperty()\l+ getProperties()\l+ deleteProperty()\l+ exists()\l+ add_properties()\l}">
<polygon fill="white" stroke="black" points="294.5,-878.5 294.5,-1019.5 415.5,-1019.5 415.5,-878.5 294.5,-878.5"/>
<text text-anchor="middle" x="355" y="-1006.5" font-family="Helvetica,sans-Serif" font-size="10.00">gs::cnf::gs_config_base</text>
<polyline fill="none" stroke="black" points="294.5,-998.5 415.5,-998.5 "/>
<text text-anchor="middle" x="355" y="-985.5" font-family="Helvetica,sans-Serif" font-size="10.00"> </text>
<polyline fill="none" stroke="black" points="294.5,-977.5 415.5,-977.5 "/>
<text text-anchor="start" x="302.5" y="-964.5" font-family="Helvetica,sans-Serif" font-size="10.00">+ gs_config_base()</text>
<text text-anchor="start" x="302.5" y="-951.5" font-family="Helvetica,sans-Serif" font-size="10.00">+ setProperty()</text>
<text text-anchor="start" x="302.5" y="-938.5" font-family="Helvetica,sans-Serif" font-size="10.00">+ getProperty()</text>
<text text-anchor="start" x="302.5" y="-925.5" font-family="Helvetica,sans-Serif" font-size="10.00">+ getProperties()</text>
<text text-anchor="start" x="302.5" y="-912.5" font-family="Helvetica,sans-Serif" font-size="10.00">+ deleteProperty()</text>
<text text-anchor="start" x="302.5" y="-899.5" font-family="Helvetica,sans-Serif" font-size="10.00">+ exists()</text>
<text text-anchor="start" x="302.5" y="-886.5" font-family="Helvetica,sans-Serif" font-size="10.00">+ add_properties()</text>
</a>
</g>
<!-- Node3&#45;&gt;Node2 -->
<g id="edge4" class="edge"><title>Node3&#45;&gt;Node2</title>
<path fill="none" stroke="midnightblue" d="M356.059,-868.251C357.234,-778.571 359.142,-633.034 360.478,-531.135"/>
<polygon fill="none" stroke="midnightblue" points="352.557,-868.319 355.926,-878.365 359.557,-868.411 352.557,-868.319"/>
</g>
<!-- Node9 -->
<g id="node17" class="node"><title>Node9</title>
<a xlink:href="classgs_1_1cnf_1_1gs__config__t.html" target="_top" xlink:title="Template specialized base class for configuration parameters. ">
<polygon fill="white" stroke="black" points="194.5,-583 194.5,-815 319.5,-815 319.5,-583 194.5,-583"/>
<text text-anchor="start" x="202.5" y="-802" font-family="Helvetica,sans-Serif" font-size="10.00">gs::cnf::gs_config</text>
<text text-anchor="middle" x="257" y="-789" font-family="Helvetica,sans-Serif" font-size="10.00">_t&lt; T &gt;</text>
<polyline fill="none" stroke="black" points="194.5,-781 319.5,-781 "/>
<text text-anchor="middle" x="257" y="-768" font-family="Helvetica,sans-Serif" font-size="10.00"> </text>
<polyline fill="none" stroke="black" points="194.5,-760 319.5,-760 "/>
<text text-anchor="start" x="202.5" y="-747" font-family="Helvetica,sans-Serif" font-size="10.00">+ operator+=()</text>
<text text-anchor="start" x="202.5" y="-734" font-family="Helvetica,sans-Serif" font-size="10.00">+ operator&#45;=()</text>
<text text-anchor="start" x="202.5" y="-721" font-family="Helvetica,sans-Serif" font-size="10.00">+ operator/=()</text>
<text text-anchor="start" x="202.5" y="-708" font-family="Helvetica,sans-Serif" font-size="10.00">+ operator*=()</text>
<text text-anchor="start" x="202.5" y="-695" font-family="Helvetica,sans-Serif" font-size="10.00">+ operator+()</text>
<text text-anchor="start" x="202.5" y="-682" font-family="Helvetica,sans-Serif" font-size="10.00">+ operator&#45;()</text>
<text text-anchor="start" x="202.5" y="-669" font-family="Helvetica,sans-Serif" font-size="10.00">+ operator/()</text>
<text text-anchor="start" x="202.5" y="-656" font-family="Helvetica,sans-Serif" font-size="10.00">+ operator*()</text>
<text text-anchor="start" x="202.5" y="-643" font-family="Helvetica,sans-Serif" font-size="10.00">+ operator%=()</text>
<text text-anchor="start" x="202.5" y="-630" font-family="Helvetica,sans-Serif" font-size="10.00">+ operator^=()</text>
<text text-anchor="start" x="202.5" y="-617" font-family="Helvetica,sans-Serif" font-size="10.00">and 27 more...</text>
<text text-anchor="start" x="202.5" y="-604" font-family="Helvetica,sans-Serif" font-size="10.00"># mirror_callback()</text>
<text text-anchor="start" x="202.5" y="-591" font-family="Helvetica,sans-Serif" font-size="10.00"># convertStringToValue()</text>
</a>
</g>
<!-- Node3&#45;&gt;Node9 -->
<g id="edge20" class="edge"><title>Node3&#45;&gt;Node9</title>
<path fill="none" stroke="midnightblue" d="M334.663,-868.602C331.113,-856.882 327.197,-845.049 323,-834 320.637,-827.781 318.091,-821.462 315.42,-815.123"/>
<polygon fill="none" stroke="midnightblue" points="331.368,-869.802 337.558,-878.4 338.081,-867.819 331.368,-869.802"/>
</g>
<!-- Node4 -->
<g id="node6" class="node"><title>Node4</title>
<a xlink:href="classgs__param__base.html" target="_top" xlink:title="{gs_param_base\n||}">
<polygon fill="white" stroke="black" points="312,-1065.5 312,-1128.5 398,-1128.5 398,-1065.5 312,-1065.5"/>
<text text-anchor="middle" x="355" y="-1115.5" font-family="Helvetica,sans-Serif" font-size="10.00">gs_param_base</text>
<polyline fill="none" stroke="black" points="312,-1107.5 398,-1107.5 "/>
<text text-anchor="middle" x="355" y="-1094.5" font-family="Helvetica,sans-Serif" font-size="10.00"> </text>
<polyline fill="none" stroke="black" points="312,-1086.5 398,-1086.5 "/>
<text text-anchor="middle" x="355" y="-1073.5" font-family="Helvetica,sans-Serif" font-size="10.00"> </text>
</a>
</g>
<!-- Node4&#45;&gt;Node3 -->
<g id="edge6" class="edge"><title>Node4&#45;&gt;Node3</title>
<path fill="none" stroke="midnightblue" d="M355,-1055.05C355,-1043.99 355,-1031.75 355,-1019.63"/>
<polygon fill="none" stroke="midnightblue" points="351.5,-1055.25 355,-1065.25 358.5,-1055.25 351.5,-1055.25"/>
</g>
<!-- Node5 -->
<g id="node8" class="node"><title>Node5</title>
<a xlink:href="classlong_01long_01_5.html" target="_top" xlink:title="{long long *\n||}">
<polygon fill="white" stroke="black" points="390,-667.5 390,-730.5 452,-730.5 452,-667.5 390,-667.5"/>
<text text-anchor="middle" x="421" y="-717.5" font-family="Helvetica,sans-Serif" font-size="10.00">long long *</text>
<polyline fill="none" stroke="black" points="390,-709.5 452,-709.5 "/>
<text text-anchor="middle" x="421" y="-696.5" font-family="Helvetica,sans-Serif" font-size="10.00"> </text>
<polyline fill="none" stroke="black" points="390,-688.5 452,-688.5 "/>
<text text-anchor="middle" x="421" y="-675.5" font-family="Helvetica,sans-Serif" font-size="10.00"> </text>
</a>
</g>
<!-- Node5&#45;&gt;Node2 -->
<g id="edge8" class="edge"><title>Node5&#45;&gt;Node2</title>
<path fill="none" stroke="#404040" d="M414.404,-667.248C408.097,-636.889 398.163,-589.073 388.632,-543.196"/>
<polygon fill="none" stroke="#404040" points="388.596,-543.021 383.459,-537.96 386.155,-531.272 391.292,-536.333 388.596,-543.021"/>
<text text-anchor="middle" x="423.5" y="-554.5" font-family="Helvetica,sans-Serif" font-size="10.00"> #m_mirror_val</text>
</g>
<!-- Node6 -->
<g id="node11" class="node"><title>Node6</title>
<a xlink:href="classlong_01long.html" target="_top" xlink:title="{long long\n||}">
<polygon fill="white" stroke="black" points="475,-667.5 475,-730.5 531,-730.5 531,-667.5 475,-667.5"/>
<text text-anchor="middle" x="503" y="-717.5" font-family="Helvetica,sans-Serif" font-size="10.00">long long</text>
<polyline fill="none" stroke="black" points="475,-709.5 531,-709.5 "/>
<text text-anchor="middle" x="503" y="-696.5" font-family="Helvetica,sans-Serif" font-size="10.00"> </text>
<polyline fill="none" stroke="black" points="475,-688.5 531,-688.5 "/>
<text text-anchor="middle" x="503" y="-675.5" font-family="Helvetica,sans-Serif" font-size="10.00"> </text>
</a>
</g>
<!-- Node6&#45;&gt;Node2 -->
<g id="edge12" class="edge"><title>Node6&#45;&gt;Node2</title>
<path fill="none" stroke="#404040" d="M497.191,-667.309C490.752,-636.324 478.732,-588.343 460,-550 452.022,-533.67 442.067,-517.234 431.583,-501.725"/>
<polygon fill="none" stroke="#404040" points="431.459,-501.546 424.756,-498.888 424.632,-491.677 431.335,-494.336 431.459,-501.546"/>
<text text-anchor="middle" x="490.5" y="-554.5" font-family="Helvetica,sans-Serif" font-size="10.00"> #my_value</text>
</g>
<!-- Node7 -->
<g id="node13" class="node"><title>Node7</title>
<a xlink:title="STL class. ">
<polygon fill="white" stroke="#bfbfbf" points="17,-917.5 17,-980.5 77,-980.5 77,-917.5 17,-917.5"/>
<text text-anchor="middle" x="47" y="-967.5" font-family="Helvetica,sans-Serif" font-size="10.00">std::string</text>
<polyline fill="none" stroke="#bfbfbf" points="17,-959.5 77,-959.5 "/>
<text text-anchor="middle" x="47" y="-946.5" font-family="Helvetica,sans-Serif" font-size="10.00"> </text>
<polyline fill="none" stroke="#bfbfbf" points="17,-938.5 77,-938.5 "/>
<text text-anchor="middle" x="47" y="-925.5" font-family="Helvetica,sans-Serif" font-size="10.00"> </text>
</a>
</g>
<!-- Node7&#45;&gt;Node2 -->
<g id="edge14" class="edge"><title>Node7&#45;&gt;Node2</title>
<path fill="none" stroke="#404040" d="M46.0187,-917.333C45.4365,-849.884 52.2108,-689.447 123,-582 163.253,-520.902 234.242,-475.56 288.427,-447.659"/>
<polygon fill="none" stroke="#404040" points="288.656,-447.544 292.213,-441.271 299.371,-442.141 295.814,-448.414 288.656,-447.544"/>
<text text-anchor="middle" x="154.5" y="-696.5" font-family="Helvetica,sans-Serif" font-size="10.00"> #return_string</text>
</g>
<!-- Node7&#45;&gt;Node9 -->
<g id="edge22" class="edge"><title>Node7&#45;&gt;Node9</title>
<path fill="none" stroke="#404040" d="M57.3333,-917.492C66.2513,-893.194 80.7386,-859.536 100,-834 123.63,-802.672 155.654,-773.514 184.617,-750.373"/>
<polygon fill="none" stroke="#404040" points="184.87,-750.175 187.117,-743.323 194.306,-742.761 192.059,-749.613 184.87,-750.175"/>
<text text-anchor="middle" x="131.5" y="-844.5" font-family="Helvetica,sans-Serif" font-size="10.00"> #return_string</text>
</g>
<!-- Node8 -->
<g id="node15" class="node"><title>Node8</title>
<a xlink:title="STL class. ">
<polygon fill="white" stroke="#bfbfbf" points="-0.5,-1059 -0.5,-1135 94.5,-1135 94.5,-1059 -0.5,-1059"/>
<text text-anchor="start" x="7.5" y="-1122" font-family="Helvetica,sans-Serif" font-size="10.00">std::basic_string&lt;</text>
<text text-anchor="middle" x="47" y="-1109" font-family="Helvetica,sans-Serif" font-size="10.00"> char &gt;</text>
<polyline fill="none" stroke="#bfbfbf" points="-0.5,-1101 94.5,-1101 "/>
<text text-anchor="middle" x="47" y="-1088" font-family="Helvetica,sans-Serif" font-size="10.00"> </text>
<polyline fill="none" stroke="#bfbfbf" points="-0.5,-1080 94.5,-1080 "/>
<text text-anchor="middle" x="47" y="-1067" font-family="Helvetica,sans-Serif" font-size="10.00"> </text>
</a>
</g>
<!-- Node8&#45;&gt;Node7 -->
<g id="edge16" class="edge"><title>Node8&#45;&gt;Node7</title>
<path fill="none" stroke="midnightblue" d="M47,-1048.64C47,-1026.44 47,-1000.72 47,-980.98"/>
<polygon fill="none" stroke="midnightblue" points="43.5001,-1048.89 47,-1058.89 50.5001,-1048.89 43.5001,-1048.89"/>
</g>
<!-- Node9&#45;&gt;Node2 -->
<g id="edge18" class="edge"><title>Node9&#45;&gt;Node2</title>
<path fill="none" stroke="orange" d="M279.415,-573.196C281.722,-565.273 284.244,-557.482 287,-550 290.614,-540.188 294.867,-530.232 299.482,-520.404"/>
<polygon fill="orange" stroke="orange" points="276.019,-572.342 276.707,-582.915 282.762,-574.221 276.019,-572.342"/>
<text text-anchor="middle" x="317.5" y="-554.5" font-family="Helvetica,sans-Serif" font-size="10.00"> &lt; long long &gt;</text>
</g>
<!-- Node10 -->
<g id="node21" class="node"><title>Node10</title>
<polygon fill="white" stroke="#bfbfbf" points="106,-917.5 106,-980.5 204,-980.5 204,-917.5 106,-917.5"/>
<text text-anchor="middle" x="155" y="-967.5" font-family="Helvetica,sans-Serif" font-size="10.00">gs_config_t&lt; T &gt; *</text>
<polyline fill="none" stroke="#bfbfbf" points="106,-959.5 204,-959.5 "/>
<text text-anchor="middle" x="155" y="-946.5" font-family="Helvetica,sans-Serif" font-size="10.00"> </text>
<polyline fill="none" stroke="#bfbfbf" points="106,-938.5 204,-938.5 "/>
<text text-anchor="middle" x="155" y="-925.5" font-family="Helvetica,sans-Serif" font-size="10.00"> </text>
</g>
<!-- Node10&#45;&gt;Node9 -->
<g id="edge24" class="edge"><title>Node10&#45;&gt;Node9</title>
<path fill="none" stroke="#404040" d="M156.919,-917.406C159.132,-893.814 163.874,-861.108 174,-834 178.116,-822.982 183.171,-811.879 188.738,-801.027"/>
<polygon fill="none" stroke="#404040" points="188.824,-800.865 188.111,-793.689 194.46,-790.271 195.174,-797.446 188.824,-800.865"/>
<text text-anchor="middle" x="213.5" y="-844.5" font-family="Helvetica,sans-Serif" font-size="10.00"> #m_mirror_param</text>
</g>
<!-- Node11 -->
<g id="node23" class="node"><title>Node11</title>
<polygon fill="white" stroke="#bfbfbf" points="242.5,-917.5 242.5,-980.5 271.5,-980.5 271.5,-917.5 242.5,-917.5"/>
<text text-anchor="middle" x="257" y="-967.5" font-family="Helvetica,sans-Serif" font-size="10.00">T</text>
<polyline fill="none" stroke="#bfbfbf" points="242.5,-959.5 271.5,-959.5 "/>
<text text-anchor="middle" x="257" y="-946.5" font-family="Helvetica,sans-Serif" font-size="10.00"> </text>
<polyline fill="none" stroke="#bfbfbf" points="242.5,-938.5 271.5,-938.5 "/>
<text text-anchor="middle" x="257" y="-925.5" font-family="Helvetica,sans-Serif" font-size="10.00"> </text>
</g>
<!-- Node11&#45;&gt;Node9 -->
<g id="edge26" class="edge"><title>Node11&#45;&gt;Node9</title>
<path fill="none" stroke="#404040" d="M257,-917.337C257,-894.168 257,-861.058 257,-827.603"/>
<polygon fill="none" stroke="#404040" points="257,-827.28 253,-821.28 257,-815.28 261,-821.28 257,-827.28"/>
<text text-anchor="middle" x="289.5" y="-851" font-family="Helvetica,sans-Serif" font-size="10.00"> #m_mirror_val</text>
<text text-anchor="middle" x="289.5" y="-838" font-family="Helvetica,sans-Serif" font-size="10.00">#my_value</text>
</g>
</g>
</svg>
        <g id="navigator" transform="translate(0 0)" fill="#404254">
                <rect fill="#f2f5e9" fill-opacity="0.5" stroke="#606060" stroke-width=".5" x="0" y="0" width="60" height="60"/>
                <use id="zoomplus" xlink:href="#zoomPlus" x="17" y="9" onmousedown="handleZoom(evt,'in')"/>
                <use id="zoomminus" xlink:href="#zoomMin" x="42" y="9" onmousedown="handleZoom(evt,'out')"/>
                <use id="reset" xlink:href="#resetDef" x="30" y="36" onmousedown="handleReset()"/>
                <g id="arrowUp" xlink:href="#dirArrow" transform="translate(30 24)" onmousedown="handlePan(0,-1)">
                  <use xlink:href="#rim" fill="#404040">
                        <set attributeName="fill" to="#808080" begin="arrowUp.mouseover" end="arrowUp.mouseout"/>
                  </use>
                  <path fill="none" stroke="white" stroke-width="1.5" d="M0,-3.0v7 M-2.5,-0.5L0,-3.0L2.5,-0.5"/>
                </g>
                <g id="arrowRight" xlink:href="#dirArrow" transform="rotate(90) translate(36 -43)" onmousedown="handlePan(1,0)">
                  <use xlink:href="#rim" fill="#404040">
                        <set attributeName="fill" to="#808080" begin="arrowRight.mouseover" end="arrowRight.mouseout"/>
                  </use>
                  <path fill="none" stroke="white" stroke-width="1.5" d="M0,-3.0v7 M-2.5,-0.5L0,-3.0L2.5,-0.5"/>
                </g>
                <g id="arrowDown" xlink:href="#dirArrow" transform="rotate(180) translate(-30 -48)" onmousedown="handlePan(0,1)">
                  <use xlink:href="#rim" fill="#404040">
                        <set attributeName="fill" to="#808080" begin="arrowDown.mouseover" end="arrowDown.mouseout"/>
                  </use>
                  <path fill="none" stroke="white" stroke-width="1.5" d="M0,-3.0v7 M-2.5,-0.5L0,-3.0L2.5,-0.5"/>
                </g>
                <g id="arrowLeft" xlink:href="#dirArrow" transform="rotate(270) translate(-36 17)" onmousedown="handlePan(-1,0)">
                  <use xlink:href="#rim" fill="#404040">
                        <set attributeName="fill" to="#808080" begin="arrowLeft.mouseover" end="arrowLeft.mouseout"/>
                  </use>
                  <path fill="none" stroke="white" stroke-width="1.5" d="M0,-3.0v7 M-2.5,-0.5L0,-3.0L2.5,-0.5"/>
                </g>
        </g>
        <svg viewBox="0 0 15 15" width="100%" height="30px" preserveAspectRatio="xMaxYMin meet">
         <g id="arrow_out" transform="scale(0.3 0.3)">
          <a xlink:href="classgs__config_3_01long_01long_01_4__coll__graph_org.svg" target="_base">
           <rect id="button" ry="5" rx="5" y="6" x="6" height="38" width="38"
                fill="#f2f5e9" fill-opacity="0.5" stroke="#606060" stroke-width="1.0"/>
           <path id="arrow"
             d="M 11.500037,31.436501 C 11.940474,20.09759 22.043105,11.32322 32.158766,21.979434 L 37.068811,17.246167 C 37.068811,17.246167 37.088388,32 37.088388,32 L 22.160133,31.978069 C 22.160133,31.978069 26.997745,27.140456 26.997745,27.140456 C 18.528582,18.264221 13.291696,25.230495 11.500037,31.436501 z"
             style="fill:#404040;"/>
          </a>
         </g>
        </svg>
</svg>
