<?xml version="1.0" encoding="UTF-8" standalone="no"?>
<!DOCTYPE svg PUBLIC "-//W3C//DTD SVG 1.1//EN"
 "http://www.w3.org/Graphics/SVG/1.1/DTD/svg11.dtd">
<!-- Generated by graphviz version 2.38.0 (20140413.2041)
 -->
<!-- Title: trap::dup2SysCall::operator() Pages: 1 -->
<svg width="277pt" height="175pt"
 viewBox="0.00 0.00 277.19 175.00" xmlns="http://www.w3.org/2000/svg" xmlns:xlink="http://www.w3.org/1999/xlink">
<g id="graph0" class="graph" transform="scale(1 1) rotate(0) translate(4 171)">
<title>trap::dup2SysCall::operator()</title>
<polygon fill="white" stroke="none" points="-4,4 -4,-171 273.187,-171 273.187,4 -4,4"/>
<!-- Node1 -->
<g id="node1" class="node"><title>Node1</title>
<polygon fill="#bfbfbf" stroke="black" points="0,-69.5 0,-97.5 100.487,-97.5 100.487,-69.5 0,-69.5"/>
<text text-anchor="start" x="8" y="-85.5" font-family="Helvetica,sans-Serif" font-size="10.00">trap::dup2SysCall::</text>
<text text-anchor="middle" x="50.2437" y="-75.5" font-family="Helvetica,sans-Serif" font-size="10.00">operator()</text>
</g>
<!-- Node2 -->
<g id="node2" class="node"><title>Node2</title>
<g id="a_node2"><a xlink:href="classtrap_1_1ABIIf.html#a09009b16205964fa8feecd9cb5efdc2b" target="_top" xlink:title="trap::ABIIf::postCall">
<polygon fill="white" stroke="black" points="151.763,-148.5 151.763,-166.5 253.911,-166.5 253.911,-148.5 151.763,-148.5"/>
<text text-anchor="middle" x="202.837" y="-154.5" font-family="Helvetica,sans-Serif" font-size="10.00">trap::ABIIf::postCall</text>
</a>
</g>
</g>
<!-- Node1&#45;&gt;Node2 -->
<g id="edge1" class="edge"><title>Node1&#45;&gt;Node2</title>
<path fill="none" stroke="midnightblue" d="M69.2261,-97.7312C85.8429,-110.275 111.644,-128.256 136.487,-139.5 141.256,-141.658 146.341,-143.61 151.488,-145.362"/>
<polygon fill="midnightblue" stroke="midnightblue" points="150.806,-148.817 161.396,-148.486 152.912,-142.141 150.806,-148.817"/>
</g>
<!-- Node3 -->
<g id="node3" class="node"><title>Node3</title>
<g id="a_node3"><a xlink:href="classtrap_1_1ABIIf.html#ab078dd4f7d791c2bd95148c3cd568600" target="_top" xlink:title="trap::ABIIf::preCall">
<polygon fill="white" stroke="black" points="153.987,-111.5 153.987,-129.5 251.687,-129.5 251.687,-111.5 153.987,-111.5"/>
<text text-anchor="middle" x="202.837" y="-117.5" font-family="Helvetica,sans-Serif" font-size="10.00">trap::ABIIf::preCall</text>
</a>
</g>
</g>
<!-- Node1&#45;&gt;Node3 -->
<g id="edge2" class="edge"><title>Node1&#45;&gt;Node3</title>
<path fill="none" stroke="midnightblue" d="M100.554,-95.6152C118.05,-99.914 137.68,-104.737 154.967,-108.984"/>
<polygon fill="midnightblue" stroke="midnightblue" points="154.295,-112.423 164.841,-111.41 155.965,-105.625 154.295,-112.423"/>
</g>
<!-- Node4 -->
<g id="node4" class="node"><title>Node4</title>
<g id="a_node4"><a xlink:href="classtrap_1_1ABIIf.html#a15542f4ec43296551f50c35ceb6da94a" target="_top" xlink:title="trap::ABIIf::readArgs">
<polygon fill="white" stroke="black" points="149.539,-74.5 149.539,-92.5 256.135,-92.5 256.135,-74.5 149.539,-74.5"/>
<text text-anchor="middle" x="202.837" y="-80.5" font-family="Helvetica,sans-Serif" font-size="10.00">trap::ABIIf::readArgs</text>
</a>
</g>
</g>
<!-- Node1&#45;&gt;Node4 -->
<g id="edge3" class="edge"><title>Node1&#45;&gt;Node4</title>
<path fill="none" stroke="midnightblue" d="M100.554,-83.5C112.872,-83.5 126.249,-83.5 139.121,-83.5"/>
<polygon fill="midnightblue" stroke="midnightblue" points="139.305,-87.0001 149.305,-83.5 139.305,-80.0001 139.305,-87.0001"/>
</g>
<!-- Node5 -->
<g id="node5" class="node"><title>Node5</title>
<g id="a_node5"><a xlink:href="classtrap_1_1ABIIf.html#a5c0112912c658eb7be33283f1141a726" target="_top" xlink:title="trap::ABIIf::returnFromCall">
<polygon fill="white" stroke="black" points="136.487,-37.5 136.487,-55.5 269.187,-55.5 269.187,-37.5 136.487,-37.5"/>
<text text-anchor="middle" x="202.837" y="-43.5" font-family="Helvetica,sans-Serif" font-size="10.00">trap::ABIIf::returnFromCall</text>
</a>
</g>
</g>
<!-- Node1&#45;&gt;Node5 -->
<g id="edge4" class="edge"><title>Node1&#45;&gt;Node5</title>
<path fill="none" stroke="midnightblue" d="M100.554,-71.3848C118.05,-67.086 137.68,-62.263 154.967,-58.0157"/>
<polygon fill="midnightblue" stroke="midnightblue" points="155.965,-61.3747 164.841,-55.5897 154.295,-54.5769 155.965,-61.3747"/>
</g>
<!-- Node6 -->
<g id="node6" class="node"><title>Node6</title>
<g id="a_node6"><a xlink:href="classtrap_1_1ABIIf.html#a0c2cec804e41cd95ffe4fc073268a10f" target="_top" xlink:title="trap::ABIIf::setRetVal">
<polygon fill="white" stroke="black" points="148.519,-0.5 148.519,-18.5 257.155,-18.5 257.155,-0.5 148.519,-0.5"/>
<text text-anchor="middle" x="202.837" y="-6.5" font-family="Helvetica,sans-Serif" font-size="10.00">trap::ABIIf::setRetVal</text>
</a>
</g>
</g>
<!-- Node1&#45;&gt;Node6 -->
<g id="edge5" class="edge"><title>Node1&#45;&gt;Node6</title>
<path fill="none" stroke="midnightblue" d="M69.6312,-69.3854C86.3108,-57.145 111.971,-39.6836 136.487,-28.5 142.131,-25.9256 148.208,-23.608 154.304,-21.5502"/>
<polygon fill="midnightblue" stroke="midnightblue" points="155.362,-24.8866 163.838,-18.5307 153.248,-18.2133 155.362,-24.8866"/>
</g>
</g>
</svg>
