<?xml version="1.0" encoding="UTF-8" standalone="no"?>
<!DOCTYPE svg PUBLIC "-//W3C//DTD SVG 1.1//EN"
 "http://www.w3.org/Graphics/SVG/1.1/DTD/svg11.dtd">
<!-- Generated by graphviz version 2.26.0 (20091210.2329)
 -->
<!-- Title: core.tools.generator.template.TemplateCollection Pages: 1 -->
<svg width="154pt" height="444pt"
 viewBox="0.00 0.00 154.00 444.00" xmlns="http://www.w3.org/2000/svg" xmlns:xlink="http://www.w3.org/1999/xlink">
<g id="graph1" class="graph" transform="scale(1 1) rotate(0) translate(4 440)">
<title>core.tools.generator.template.TemplateCollection</title>
<polygon fill="white" stroke="white" points="-4,5 -4,-440 151,-440 151,5 -4,5"/>
<!-- Node1 -->
<g id="node1" class="node"><title>Node1</title>
<polygon fill="#bfbfbf" stroke="black" points="0,-1 0,-181 146,-181 146,-1 0,-1"/>
<text text-anchor="start" x="8" y="-168" font-family="Helvetica,sans-Serif" font-size="10.00">core.tools.generator.template.</text>
<text text-anchor="middle" x="73" y="-155" font-family="Helvetica,sans-Serif" font-size="10.00">TemplateCollection</text>
<polyline fill="none" stroke="black" points="0,-147 146,-147 "/>
<text text-anchor="middle" x="73" y="-134" font-family="Helvetica,sans-Serif" font-size="10.00"> </text>
<polyline fill="none" stroke="black" points="0,-126 146,-126 "/>
<text text-anchor="start" x="8" y="-113" font-family="Helvetica,sans-Serif" font-size="10.00">+ __init__()</text>
<text text-anchor="start" x="8" y="-100" font-family="Helvetica,sans-Serif" font-size="10.00">+ getModel()</text>
<text text-anchor="start" x="8" y="-87" font-family="Helvetica,sans-Serif" font-size="10.00">+ setTemplate()</text>
<text text-anchor="start" x="8" y="-74" font-family="Helvetica,sans-Serif" font-size="10.00">+ getTemplate()</text>
<text text-anchor="start" x="8" y="-61" font-family="Helvetica,sans-Serif" font-size="10.00">+ getConfiguration()</text>
<text text-anchor="start" x="8" y="-48" font-family="Helvetica,sans-Serif" font-size="10.00">+ listConfigurations()</text>
<text text-anchor="start" x="8" y="-35" font-family="Helvetica,sans-Serif" font-size="10.00">+ loadConfiguration()</text>
<text text-anchor="start" x="8" y="-22" font-family="Helvetica,sans-Serif" font-size="10.00">+ storeConfiguration()</text>
<text text-anchor="start" x="8" y="-9" font-family="Helvetica,sans-Serif" font-size="10.00">+ generate()</text>
</g>
<!-- Node2 -->
<g id="node2" class="node"><title>Node2</title>
<a xlink:href="structdict.html" target="_top" xlink:title="{dict\n||}">
<polygon fill="white" stroke="black" points="57,-220.5 57,-283.5 89,-283.5 89,-220.5 57,-220.5"/>
<text text-anchor="middle" x="73" y="-270.5" font-family="Helvetica,sans-Serif" font-size="10.00">dict</text>
<polyline fill="none" stroke="black" points="57,-262.5 89,-262.5 "/>
<text text-anchor="middle" x="73" y="-249.5" font-family="Helvetica,sans-Serif" font-size="10.00"> </text>
<polyline fill="none" stroke="black" points="57,-241.5 89,-241.5 "/>
<text text-anchor="middle" x="73" y="-228.5" font-family="Helvetica,sans-Serif" font-size="10.00"> </text>
</a>
</g>
<!-- Node2&#45;&gt;Node1 -->
<g id="edge2" class="edge"><title>Node2&#45;&gt;Node1</title>
<path fill="none" stroke="midnightblue" d="M73,-210.064C73,-201.076 73,-191.249 73,-181.216"/>
<polygon fill="none" stroke="midnightblue" points="69.5001,-210.192 73,-220.192 76.5001,-210.192 69.5001,-210.192"/>
</g>
<!-- Node3 -->
<g id="node4" class="node"><title>Node3</title>
<a xlink:href="classint.html" target="_top" xlink:title="{int\n||}">
<polygon fill="white" stroke="black" points="58.5,-372.5 58.5,-435.5 87.5,-435.5 87.5,-372.5 58.5,-372.5"/>
<text text-anchor="middle" x="73" y="-422.5" font-family="Helvetica,sans-Serif" font-size="10.00">int</text>
<polyline fill="none" stroke="black" points="58.5,-414.5 87.5,-414.5 "/>
<text text-anchor="middle" x="73" y="-401.5" font-family="Helvetica,sans-Serif" font-size="10.00"> </text>
<polyline fill="none" stroke="black" points="58.5,-393.5 87.5,-393.5 "/>
<text text-anchor="middle" x="73" y="-380.5" font-family="Helvetica,sans-Serif" font-size="10.00"> </text>
</a>
</g>
<!-- Node3&#45;&gt;Node2 -->
<g id="edge4" class="edge"><title>Node3&#45;&gt;Node2</title>
<path fill="none" stroke="#404040" d="M73,-372.136C73,-349.971 73,-320.14 73,-295.751"/>
<polygon fill="none" stroke="#404040" points="73.0001,-295.562 69,-289.562 73,-283.562 77,-289.562 73.0001,-295.562"/>
<text text-anchor="middle" x="90" y="-345" font-family="Helvetica,sans-Serif" font-size="10.00"> +data</text>
<text text-anchor="middle" x="90" y="-332" font-family="Helvetica,sans-Serif" font-size="10.00">+kids</text>
<text text-anchor="middle" x="90" y="-319" font-family="Helvetica,sans-Serif" font-size="10.00">+parent</text>
<text text-anchor="middle" x="90" y="-306" font-family="Helvetica,sans-Serif" font-size="10.00">+sibling</text>
</g>
</g>
</svg>
