<?xml version="1.0" encoding="UTF-8" standalone="no"?>
<!DOCTYPE svg PUBLIC "-//W3C//DTD SVG 1.1//EN"
 "http://www.w3.org/Graphics/SVG/1.1/DTD/svg11.dtd">
<!-- Generated by graphviz version 2.38.0 (20140413.2041)
 -->
<!-- Title: vectorcache Pages: 1 -->
<!--zoomable 1022 -->
<svg id="main" version="1.1" xmlns="http://www.w3.org/2000/svg" xmlns:xlink="http://www.w3.org/1999/xlink" xml:space="preserve" onload="init(evt)">
<style type="text/css"><![CDATA[
.edge:hover path { stroke: red; }
.edge:hover polygon { stroke: red; fill: red; }
]]></style>
<script type="text/javascript"><![CDATA[
var edges = document.getElementsByTagName('g');
if (edges && edges.length) {
  for (var i=0;i<edges.length;i++) {
    if (edges[i].id.substr(0,4)=='edge') {
      edges[i].setAttribute('class','edge');
    }
  }
}
]]></script>
        <defs>
                <circle id="rim" cx="0" cy="0" r="7"/>
                <circle id="rim2" cx="0" cy="0" r="3.5"/>
                <g id="zoomPlus">
                        <use xlink:href="#rim" fill="#404040">
                                <set attributeName="fill" to="#808080" begin="zoomplus.mouseover" end="zoomplus.mouseout"/>
                        </use>
                        <path d="M-4,0h8M0,-4v8" fill="none" stroke="white" stroke-width="1.5" pointer-events="none"/>
                </g>
                <g id="zoomMin">
                        <use xlink:href="#rim" fill="#404040">
                                <set attributeName="fill" to="#808080" begin="zoomminus.mouseover" end="zoomminus.mouseout"/>
                        </use>
                        <path d="M-4,0h8" fill="none" stroke="white" stroke-width="1.5" pointer-events="none"/>
                </g>
                <g id="dirArrow">
                        <path fill="none" stroke="white" stroke-width="1.5" d="M0,-3.0v7 M-2.5,-0.5L0,-3.0L2.5,-0.5"/>
                </g>
               <g id="resetDef">
                       <use xlink:href="#rim2" fill="#404040">
                               <set attributeName="fill" to="#808080" begin="reset.mouseover" end="reset.mouseout"/>
                       </use>
               </g>
        </defs>

<script type="text/javascript">
var viewWidth = 1549;
var viewHeight = 1022;
var sectionId = 'dynsection-1';
</script>
<script xlink:href="svgpan.js"/>
<svg id="graph" class="graph">
<g id="viewport">
<title>vectorcache</title>
<polygon fill="white" stroke="none" points="-4,4 -4,-1018 1545.3,-1018 1545.3,4 -4,4"/>
<!-- Node1 -->
<g id="node1" class="node"><title>Node1</title>
<polygon fill="#bfbfbf" stroke="black" points="689.936,-0.5 689.936,-334.5 816.542,-334.5 816.542,-0.5 689.936,-0.5"/>
<text text-anchor="middle" x="753.239" y="-322.5" font-family="Helvetica,sans-Serif" font-size="10.00">vectorcache</text>
<polyline fill="none" stroke="black" points="689.936,-316.5 816.542,-316.5 "/>
<text text-anchor="start" x="697.936" y="-304.5" font-family="Helvetica,sans-Serif" font-size="10.00"># m_pseudo_rand</text>
<text text-anchor="start" x="697.936" y="-294.5" font-family="Helvetica,sans-Serif" font-size="10.00"># m_sets</text>
<text text-anchor="start" x="697.936" y="-284.5" font-family="Helvetica,sans-Serif" font-size="10.00"># m_setlock</text>
<text text-anchor="start" x="697.936" y="-274.5" font-family="Helvetica,sans-Serif" font-size="10.00"># m_linesize</text>
<text text-anchor="start" x="697.936" y="-264.5" font-family="Helvetica,sans-Serif" font-size="10.00"># m_wordsperline</text>
<text text-anchor="start" x="697.936" y="-254.5" font-family="Helvetica,sans-Serif" font-size="10.00"># m_bytesperline</text>
<text text-anchor="start" x="697.936" y="-244.5" font-family="Helvetica,sans-Serif" font-size="10.00"># m_offset_bits</text>
<text text-anchor="start" x="697.936" y="-234.5" font-family="Helvetica,sans-Serif" font-size="10.00"># m_tagwidth</text>
<text text-anchor="start" x="697.936" y="-224.5" font-family="Helvetica,sans-Serif" font-size="10.00"># m_lramsize</text>
<polyline fill="none" stroke="black" points="689.936,-218.5 816.542,-218.5 "/>
<text text-anchor="start" x="697.936" y="-206.5" font-family="Helvetica,sans-Serif" font-size="10.00">+ mem_read()</text>
<text text-anchor="start" x="697.936" y="-196.5" font-family="Helvetica,sans-Serif" font-size="10.00">+ mem_write()</text>
<text text-anchor="start" x="697.936" y="-186.5" font-family="Helvetica,sans-Serif" font-size="10.00">+ flush()</text>
<text text-anchor="start" x="697.936" y="-176.5" font-family="Helvetica,sans-Serif" font-size="10.00">+ read_cache_tag()</text>
<text text-anchor="start" x="697.936" y="-166.5" font-family="Helvetica,sans-Serif" font-size="10.00">+ write_cache_tag()</text>
<text text-anchor="start" x="697.936" y="-156.5" font-family="Helvetica,sans-Serif" font-size="10.00">+ read_cache_entry()</text>
<text text-anchor="start" x="697.936" y="-146.5" font-family="Helvetica,sans-Serif" font-size="10.00">+ write_cache_entry()</text>
<text text-anchor="start" x="697.936" y="-136.5" font-family="Helvetica,sans-Serif" font-size="10.00">+ read_config_reg()</text>
<text text-anchor="start" x="697.936" y="-126.5" font-family="Helvetica,sans-Serif" font-size="10.00">+ check_mode()</text>
<text text-anchor="start" x="697.936" y="-116.5" font-family="Helvetica,sans-Serif" font-size="10.00">+ get_cache_type()</text>
<text text-anchor="start" x="697.936" y="-106.5" font-family="Helvetica,sans-Serif" font-size="10.00">+ snoop_invalidate()</text>
<text text-anchor="start" x="697.936" y="-96.5" font-family="Helvetica,sans-Serif" font-size="10.00">+ dbg_out()</text>
<text text-anchor="start" x="697.936" y="-86.5" font-family="Helvetica,sans-Serif" font-size="10.00">+ clkcng()</text>
<text text-anchor="start" x="697.936" y="-76.5" font-family="Helvetica,sans-Serif" font-size="10.00">+ offset2valid()</text>
<text text-anchor="start" x="697.936" y="-66.5" font-family="Helvetica,sans-Serif" font-size="10.00">+ end_of_simulation()</text>
<text text-anchor="start" x="697.936" y="-56.5" font-family="Helvetica,sans-Serif" font-size="10.00"># lookup()</text>
<text text-anchor="start" x="697.936" y="-46.5" font-family="Helvetica,sans-Serif" font-size="10.00"># replacement_selector()</text>
<text text-anchor="start" x="697.936" y="-36.5" font-family="Helvetica,sans-Serif" font-size="10.00"># lru_update()</text>
<text text-anchor="start" x="697.936" y="-26.5" font-family="Helvetica,sans-Serif" font-size="10.00"># lrr_update()</text>
<text text-anchor="start" x="697.936" y="-16.5" font-family="Helvetica,sans-Serif" font-size="10.00"># vectorcache()</text>
<text text-anchor="start" x="697.936" y="-6.5" font-family="Helvetica,sans-Serif" font-size="10.00"># ~vectorcache()</text>
</g>
<!-- Node2 -->
<g id="node2" class="node"><title>Node2</title>
<polygon fill="white" stroke="#bfbfbf" points="0,-496.5 0,-550.5 70.4775,-550.5 70.4775,-496.5 0,-496.5"/>
<text text-anchor="middle" x="35.2388" y="-538.5" font-family="Helvetica,sans-Serif" font-size="10.00">DefaultBase</text>
<polyline fill="none" stroke="#bfbfbf" points="0,-532.5 70.4775,-532.5 "/>
<text text-anchor="middle" x="35.2388" y="-520.5" font-family="Helvetica,sans-Serif" font-size="10.00"> </text>
<polyline fill="none" stroke="#bfbfbf" points="0,-514.5 70.4775,-514.5 "/>
<text text-anchor="middle" x="35.2388" y="-502.5" font-family="Helvetica,sans-Serif" font-size="10.00"> </text>
</g>
<!-- Node2&#45;&gt;Node1 -->
<g id="edge1" class="edge"><title>Node2&#45;&gt;Node1</title>
<path fill="none" stroke="midnightblue" d="M37.7173,-486.194C42.2903,-447.81 55.2914,-388.067 92.2388,-353 261.833,-192.037 559.86,-169.436 689.739,-167.655"/>
<polygon fill="none" stroke="midnightblue" points="34.2075,-486.103 36.6381,-496.415 41.1688,-486.838 34.2075,-486.103"/>
</g>
<!-- Node3 -->
<g id="node3" class="node"><title>Node3</title>
<g id="a_node3"><a xlink:href="classcache__if.html" target="_top" xlink:title="{cache_if\n||+ flush()\l+ read_cache_tag()\l+ write_cache_tag()\l+ read_cache_entry()\l+ write_cache_entry()\l+ read_config_reg()\l+ check_mode()\l+ get_cache_type()\l+ snoop_invalidate()\l+ clkcng()\l+ dbg_out()\l+ ~cache_if()\l}">
<polygon fill="white" stroke="black" points="196.023,-441.5 196.023,-605.5 308.454,-605.5 308.454,-441.5 196.023,-441.5"/>
<text text-anchor="middle" x="252.239" y="-593.5" font-family="Helvetica,sans-Serif" font-size="10.00">cache_if</text>
<polyline fill="none" stroke="black" points="196.023,-587.5 308.454,-587.5 "/>
<text text-anchor="middle" x="252.239" y="-575.5" font-family="Helvetica,sans-Serif" font-size="10.00"> </text>
<polyline fill="none" stroke="black" points="196.023,-569.5 308.454,-569.5 "/>
<text text-anchor="start" x="204.023" y="-557.5" font-family="Helvetica,sans-Serif" font-size="10.00">+ flush()</text>
<text text-anchor="start" x="204.023" y="-547.5" font-family="Helvetica,sans-Serif" font-size="10.00">+ read_cache_tag()</text>
<text text-anchor="start" x="204.023" y="-537.5" font-family="Helvetica,sans-Serif" font-size="10.00">+ write_cache_tag()</text>
<text text-anchor="start" x="204.023" y="-527.5" font-family="Helvetica,sans-Serif" font-size="10.00">+ read_cache_entry()</text>
<text text-anchor="start" x="204.023" y="-517.5" font-family="Helvetica,sans-Serif" font-size="10.00">+ write_cache_entry()</text>
<text text-anchor="start" x="204.023" y="-507.5" font-family="Helvetica,sans-Serif" font-size="10.00">+ read_config_reg()</text>
<text text-anchor="start" x="204.023" y="-497.5" font-family="Helvetica,sans-Serif" font-size="10.00">+ check_mode()</text>
<text text-anchor="start" x="204.023" y="-487.5" font-family="Helvetica,sans-Serif" font-size="10.00">+ get_cache_type()</text>
<text text-anchor="start" x="204.023" y="-477.5" font-family="Helvetica,sans-Serif" font-size="10.00">+ snoop_invalidate()</text>
<text text-anchor="start" x="204.023" y="-467.5" font-family="Helvetica,sans-Serif" font-size="10.00">+ clkcng()</text>
<text text-anchor="start" x="204.023" y="-457.5" font-family="Helvetica,sans-Serif" font-size="10.00">+ dbg_out()</text>
<text text-anchor="start" x="204.023" y="-447.5" font-family="Helvetica,sans-Serif" font-size="10.00">+ ~cache_if()</text>
</a>
</g>
</g>
<!-- Node3&#45;&gt;Node1 -->
<g id="edge2" class="edge"><title>Node3&#45;&gt;Node1</title>
<path fill="none" stroke="midnightblue" d="M310.859,-432.878C332.01,-404.971 357.559,-375.619 385.239,-353 479.874,-275.67 612.277,-219.327 689.769,-190.438"/>
<polygon fill="none" stroke="midnightblue" points="307.905,-430.985 304.727,-441.092 313.514,-435.173 307.905,-430.985"/>
</g>
<!-- Node4 -->
<g id="node4" class="node"><title>Node4</title>
<g id="a_node4"><a xlink:href="classmem__if.html" target="_top" xlink:title="{mem_if\n||+ mem_write()\l+ mem_read()\l+ ~mem_if()\l}">
<polygon fill="white" stroke="black" points="212.151,-680 212.151,-754 292.326,-754 292.326,-680 212.151,-680"/>
<text text-anchor="middle" x="252.239" y="-742" font-family="Helvetica,sans-Serif" font-size="10.00">mem_if</text>
<polyline fill="none" stroke="black" points="212.151,-736 292.326,-736 "/>
<text text-anchor="middle" x="252.239" y="-724" font-family="Helvetica,sans-Serif" font-size="10.00"> </text>
<polyline fill="none" stroke="black" points="212.151,-718 292.326,-718 "/>
<text text-anchor="start" x="220.151" y="-706" font-family="Helvetica,sans-Serif" font-size="10.00">+ mem_write()</text>
<text text-anchor="start" x="220.151" y="-696" font-family="Helvetica,sans-Serif" font-size="10.00">+ mem_read()</text>
<text text-anchor="start" x="220.151" y="-686" font-family="Helvetica,sans-Serif" font-size="10.00">+ ~mem_if()</text>
</a>
</g>
</g>
<!-- Node4&#45;&gt;Node1 -->
<g id="edge21" class="edge"><title>Node4&#45;&gt;Node1</title>
<path fill="none" stroke="#404040" d="M211.977,-696.645C179.1,-678.372 134.928,-647.571 114.968,-606 83.228,-539.891 74.8222,-502.368 114.968,-441 241.743,-247.208 537.931,-190.806 677.69,-174.73"/>
<polygon fill="none" stroke="#404040" points="677.98,-174.698 683.505,-170.064 689.908,-173.382 684.382,-178.016 677.98,-174.698"/>
<text text-anchor="middle" x="151.374" y="-520.5" font-family="Helvetica,sans-Serif" font-size="10.00"> #m_tlb_adaptor</text>
</g>
<!-- Node4&#45;&gt;Node3 -->
<g id="edge3" class="edge"><title>Node4&#45;&gt;Node3</title>
<path fill="none" stroke="midnightblue" d="M252.239,-669.957C252.239,-650.643 252.239,-627.596 252.239,-605.605"/>
<polygon fill="none" stroke="midnightblue" points="248.739,-669.98 252.239,-679.98 255.739,-669.98 248.739,-669.98"/>
</g>
<!-- Node21 -->
<g id="node21" class="node"><title>Node21</title>
<g id="a_node21"><a xlink:href="classmmu__cache__if.html" target="_top" xlink:title="{mmu_cache_if\n||+ set_irq()\l+ read_ccr()\l+ write_ccr()\l+ ~mmu_cache_if()\l}">
<polygon fill="white" stroke="black" points="326.165,-481.5 326.165,-565.5 428.312,-565.5 428.312,-481.5 326.165,-481.5"/>
<text text-anchor="middle" x="377.239" y="-553.5" font-family="Helvetica,sans-Serif" font-size="10.00">mmu_cache_if</text>
<polyline fill="none" stroke="black" points="326.165,-547.5 428.312,-547.5 "/>
<text text-anchor="middle" x="377.239" y="-535.5" font-family="Helvetica,sans-Serif" font-size="10.00"> </text>
<polyline fill="none" stroke="black" points="326.165,-529.5 428.312,-529.5 "/>
<text text-anchor="start" x="334.165" y="-517.5" font-family="Helvetica,sans-Serif" font-size="10.00">+ set_irq()</text>
<text text-anchor="start" x="334.165" y="-507.5" font-family="Helvetica,sans-Serif" font-size="10.00">+ read_ccr()</text>
<text text-anchor="start" x="334.165" y="-497.5" font-family="Helvetica,sans-Serif" font-size="10.00">+ write_ccr()</text>
<text text-anchor="start" x="334.165" y="-487.5" font-family="Helvetica,sans-Serif" font-size="10.00">+ ~mmu_cache_if()</text>
</a>
</g>
</g>
<!-- Node4&#45;&gt;Node21 -->
<g id="edge25" class="edge"><title>Node4&#45;&gt;Node21</title>
<path fill="none" stroke="midnightblue" d="M281.429,-671.28C302.262,-639.364 330.071,-596.761 350.361,-565.677"/>
<polygon fill="none" stroke="midnightblue" points="278.285,-669.693 275.75,-679.98 284.147,-673.519 278.285,-669.693"/>
</g>
<!-- Node5 -->
<g id="node5" class="node"><title>Node5</title>
<polygon fill="white" stroke="#bfbfbf" points="445.833,-496.5 445.833,-550.5 534.645,-550.5 534.645,-496.5 445.833,-496.5"/>
<text text-anchor="middle" x="490.239" y="-538.5" font-family="Helvetica,sans-Serif" font-size="10.00">gs_param_array</text>
<polyline fill="none" stroke="#bfbfbf" points="445.833,-532.5 534.645,-532.5 "/>
<text text-anchor="middle" x="490.239" y="-520.5" font-family="Helvetica,sans-Serif" font-size="10.00"> </text>
<polyline fill="none" stroke="#bfbfbf" points="445.833,-514.5 534.645,-514.5 "/>
<text text-anchor="middle" x="490.239" y="-502.5" font-family="Helvetica,sans-Serif" font-size="10.00"> </text>
</g>
<!-- Node5&#45;&gt;Node1 -->
<g id="edge4" class="edge"><title>Node5&#45;&gt;Node1</title>
<path fill="none" stroke="#404040" d="M490.24,-496.419C491.372,-461.344 497.477,-398.165 524.954,-353 562.368,-291.499 628.006,-241.691 679.325,-209.399"/>
<polygon fill="none" stroke="#404040" points="679.507,-209.287 682.507,-202.729 689.714,-202.976 686.714,-209.534 679.507,-209.287"/>
<text text-anchor="middle" x="586.381" y="-385" font-family="Helvetica,sans-Serif" font-size="10.00"> #m_performance_counters</text>
</g>
<!-- Node6 -->
<g id="node6" class="node"><title>Node6</title>
<polygon fill="white" stroke="#bfbfbf" points="552.4,-491.5 552.4,-555.5 662.077,-555.5 662.077,-491.5 552.4,-491.5"/>
<text text-anchor="start" x="560.4" y="-543.5" font-family="Helvetica,sans-Serif" font-size="10.00">gs_param&lt; unsigned</text>
<text text-anchor="middle" x="607.239" y="-533.5" font-family="Helvetica,sans-Serif" font-size="10.00"> long long * &gt;</text>
<polyline fill="none" stroke="#bfbfbf" points="552.4,-527.5 662.077,-527.5 "/>
<text text-anchor="middle" x="607.239" y="-515.5" font-family="Helvetica,sans-Serif" font-size="10.00"> </text>
<polyline fill="none" stroke="#bfbfbf" points="552.4,-509.5 662.077,-509.5 "/>
<text text-anchor="middle" x="607.239" y="-497.5" font-family="Helvetica,sans-Serif" font-size="10.00"> </text>
</g>
<!-- Node6&#45;&gt;Node1 -->
<g id="edge5" class="edge"><title>Node6&#45;&gt;Node1</title>
<path fill="none" stroke="#404040" d="M620.067,-491.395C634.904,-455.42 660.481,-393.406 685.278,-333.282"/>
<polygon fill="none" stroke="#404040" points="685.321,-333.177 683.911,-326.106 689.896,-322.084 691.306,-329.156 685.321,-333.177"/>
<text text-anchor="middle" x="690.411" y="-390" font-family="Helvetica,sans-Serif" font-size="10.00"> #rhits</text>
<text text-anchor="middle" x="690.411" y="-380" font-family="Helvetica,sans-Serif" font-size="10.00">#whits</text>
</g>
<!-- Node7 -->
<g id="node7" class="node"><title>Node7</title>
<polygon fill="white" stroke="#bfbfbf" points="679.781,-496.5 679.781,-550.5 734.697,-550.5 734.697,-496.5 679.781,-496.5"/>
<text text-anchor="middle" x="707.239" y="-538.5" font-family="Helvetica,sans-Serif" font-size="10.00">cnf_api *</text>
<polyline fill="none" stroke="#bfbfbf" points="679.781,-532.5 734.697,-532.5 "/>
<text text-anchor="middle" x="707.239" y="-520.5" font-family="Helvetica,sans-Serif" font-size="10.00"> </text>
<polyline fill="none" stroke="#bfbfbf" points="679.781,-514.5 734.697,-514.5 "/>
<text text-anchor="middle" x="707.239" y="-502.5" font-family="Helvetica,sans-Serif" font-size="10.00"> </text>
</g>
<!-- Node7&#45;&gt;Node1 -->
<g id="edge6" class="edge"><title>Node7&#45;&gt;Node1</title>
<path fill="none" stroke="#404040" d="M710.621,-496.47C714.843,-463.979 722.441,-405.512 730.064,-346.848"/>
<polygon fill="none" stroke="#404040" points="730.092,-346.629 726.899,-340.163 731.638,-334.729 734.832,-341.194 730.092,-346.629"/>
<text text-anchor="middle" x="747.027" y="-385" font-family="Helvetica,sans-Serif" font-size="10.00"> #m_api</text>
</g>
<!-- Node8 -->
<g id="node8" class="node"><title>Node8</title>
<polygon fill="white" stroke="#bfbfbf" points="752.424,-496.5 752.424,-550.5 864.054,-550.5 864.054,-496.5 752.424,-496.5"/>
<text text-anchor="middle" x="808.239" y="-538.5" font-family="Helvetica,sans-Serif" font-size="10.00">gs_config&lt; uint64_t &gt;</text>
<polyline fill="none" stroke="#bfbfbf" points="752.424,-532.5 864.054,-532.5 "/>
<text text-anchor="middle" x="808.239" y="-520.5" font-family="Helvetica,sans-Serif" font-size="10.00"> </text>
<polyline fill="none" stroke="#bfbfbf" points="752.424,-514.5 864.054,-514.5 "/>
<text text-anchor="middle" x="808.239" y="-502.5" font-family="Helvetica,sans-Serif" font-size="10.00"> </text>
</g>
<!-- Node8&#45;&gt;Node1 -->
<g id="edge7" class="edge"><title>Node8&#45;&gt;Node1</title>
<path fill="none" stroke="#404040" d="M804.194,-496.47C799.147,-463.979 790.063,-405.512 780.948,-346.848"/>
<polygon fill="none" stroke="#404040" points="780.908,-346.586 776.034,-341.272 779.065,-334.729 783.939,-340.043 780.908,-346.586"/>
<text text-anchor="middle" x="831.431" y="-415" font-family="Helvetica,sans-Serif" font-size="10.00"> #rmisses</text>
<text text-anchor="middle" x="831.431" y="-405" font-family="Helvetica,sans-Serif" font-size="10.00">#dyn_tag_reads</text>
<text text-anchor="middle" x="831.431" y="-395" font-family="Helvetica,sans-Serif" font-size="10.00">#wmisses</text>
<text text-anchor="middle" x="831.431" y="-385" font-family="Helvetica,sans-Serif" font-size="10.00">#dyn_data_reads</text>
<text text-anchor="middle" x="831.431" y="-375" font-family="Helvetica,sans-Serif" font-size="10.00">#dyn_data_writes</text>
<text text-anchor="middle" x="831.431" y="-365" font-family="Helvetica,sans-Serif" font-size="10.00">#bypassops</text>
<text text-anchor="middle" x="831.431" y="-355" font-family="Helvetica,sans-Serif" font-size="10.00">#dyn_tag_writes</text>
</g>
<!-- Node9 -->
<g id="node9" class="node"><title>Node9</title>
<polygon fill="white" stroke="#bfbfbf" points="1053.35,-491.5 1053.35,-555.5 1159.12,-555.5 1159.12,-491.5 1053.35,-491.5"/>
<text text-anchor="start" x="1061.35" y="-543.5" font-family="Helvetica,sans-Serif" font-size="10.00">std::vector&lt; t_cache</text>
<text text-anchor="middle" x="1106.24" y="-533.5" font-family="Helvetica,sans-Serif" font-size="10.00">_line * &gt;</text>
<polyline fill="none" stroke="#bfbfbf" points="1053.35,-527.5 1159.12,-527.5 "/>
<text text-anchor="middle" x="1106.24" y="-515.5" font-family="Helvetica,sans-Serif" font-size="10.00"> </text>
<polyline fill="none" stroke="#bfbfbf" points="1053.35,-509.5 1159.12,-509.5 "/>
<text text-anchor="middle" x="1106.24" y="-497.5" font-family="Helvetica,sans-Serif" font-size="10.00"> </text>
</g>
<!-- Node9&#45;&gt;Node1 -->
<g id="edge8" class="edge"><title>Node9&#45;&gt;Node1</title>
<path fill="none" stroke="#404040" d="M1081.75,-491.366C1069.34,-475.935 1053.84,-457.186 1039.24,-441 970.863,-365.189 885.304,-285.406 825.664,-231.903"/>
<polygon fill="none" stroke="#404040" points="825.634,-231.876 818.495,-230.857 816.69,-223.876 823.829,-224.895 825.634,-231.876"/>
<text text-anchor="middle" x="1068.82" y="-385" font-family="Helvetica,sans-Serif" font-size="10.00"> #m_current_cacheline</text>
</g>
<!-- Node10 -->
<g id="node10" class="node"><title>Node10</title>
<g id="a_node10"><a xlink:href="structt__cache__line.html" target="_top" xlink:title="{t_cache_line\n||}">
<polygon fill="white" stroke="black" points="1022.16,-690 1022.16,-744 1094.31,-744 1094.31,-690 1022.16,-690"/>
<text text-anchor="middle" x="1058.24" y="-732" font-family="Helvetica,sans-Serif" font-size="10.00">t_cache_line</text>
<polyline fill="none" stroke="black" points="1022.16,-726 1094.31,-726 "/>
<text text-anchor="middle" x="1058.24" y="-714" font-family="Helvetica,sans-Serif" font-size="10.00"> </text>
<polyline fill="none" stroke="black" points="1022.16,-708 1094.31,-708 "/>
<text text-anchor="middle" x="1058.24" y="-696" font-family="Helvetica,sans-Serif" font-size="10.00"> </text>
</a>
</g>
</g>
<!-- Node10&#45;&gt;Node1 -->
<g id="edge26" class="edge"><title>Node10&#45;&gt;Node1</title>
<path fill="none" stroke="#404040" d="M1034.76,-689.766C1026.53,-680.806 1017.12,-670.824 1008.24,-662 982.061,-635.996 964.477,-638.469 946.949,-606 892.846,-505.78 953.296,-456.715 906.239,-353 886.83,-310.223 854.788,-269.296 825.028,-236.906"/>
<polygon fill="none" stroke="#404040" points="824.9,-236.769 817.881,-235.117 816.707,-228.002 823.726,-229.655 824.9,-236.769"/>
<text text-anchor="middle" x="995.884" y="-525.5" font-family="Helvetica,sans-Serif" font-size="10.00"> #m_snoop_cacheline</text>
<text text-anchor="middle" x="995.884" y="-515.5" font-family="Helvetica,sans-Serif" font-size="10.00">#m_default_cacheline</text>
</g>
<!-- Node10&#45;&gt;Node9 -->
<g id="edge9" class="edge"><title>Node10&#45;&gt;Node9</title>
<path fill="none" stroke="#404040" d="M1055.08,-689.875C1053.57,-671.266 1053.04,-645.795 1058.04,-624 1062.59,-604.203 1071.61,-583.772 1080.63,-566.613"/>
<polygon fill="none" stroke="#404040" points="1080.76,-566.379 1080.12,-559.196 1086.51,-555.849 1087.15,-563.032 1080.76,-566.379"/>
<text text-anchor="middle" x="1082.84" y="-631" font-family="Helvetica,sans-Serif" font-size="10.00"> +elements</text>
</g>
<!-- Node11 -->
<g id="node11" class="node"><title>Node11</title>
<g id="a_node11"><a xlink:href="uniont__cache__data.html" target="_top" xlink:title="{t_cache_data\n||}">
<polygon fill="white" stroke="black" points="922.214,-818.5 922.214,-872.5 998.263,-872.5 998.263,-818.5 922.214,-818.5"/>
<text text-anchor="middle" x="960.239" y="-860.5" font-family="Helvetica,sans-Serif" font-size="10.00">t_cache_data</text>
<polyline fill="none" stroke="black" points="922.214,-854.5 998.263,-854.5 "/>
<text text-anchor="middle" x="960.239" y="-842.5" font-family="Helvetica,sans-Serif" font-size="10.00"> </text>
<polyline fill="none" stroke="black" points="922.214,-836.5 998.263,-836.5 "/>
<text text-anchor="middle" x="960.239" y="-824.5" font-family="Helvetica,sans-Serif" font-size="10.00"> </text>
</a>
</g>
</g>
<!-- Node11&#45;&gt;Node10 -->
<g id="edge10" class="edge"><title>Node11&#45;&gt;Node10</title>
<path fill="none" stroke="#404040" d="M980.544,-818.289C994.998,-799.632 1014.6,-774.335 1030.49,-753.816"/>
<polygon fill="none" stroke="#404040" points="1030.61,-753.664 1031.12,-746.471 1037.96,-744.177 1037.45,-751.37 1030.61,-753.664"/>
<text text-anchor="middle" x="1016.66" y="-792" font-family="Helvetica,sans-Serif" font-size="10.00"> +entry</text>
</g>
<!-- Node12 -->
<g id="node12" class="node"><title>Node12</title>
<g id="a_node12"><a xlink:href="classchar.html" target="_top" xlink:title="{char\n||}">
<polygon fill="white" stroke="black" points="845.512,-959.5 845.512,-1013.5 880.965,-1013.5 880.965,-959.5 845.512,-959.5"/>
<text text-anchor="middle" x="863.239" y="-1001.5" font-family="Helvetica,sans-Serif" font-size="10.00">char</text>
<polyline fill="none" stroke="black" points="845.512,-995.5 880.965,-995.5 "/>
<text text-anchor="middle" x="863.239" y="-983.5" font-family="Helvetica,sans-Serif" font-size="10.00"> </text>
<polyline fill="none" stroke="black" points="845.512,-977.5 880.965,-977.5 "/>
<text text-anchor="middle" x="863.239" y="-965.5" font-family="Helvetica,sans-Serif" font-size="10.00"> </text>
</a>
</g>
</g>
<!-- Node12&#45;&gt;Node11 -->
<g id="edge11" class="edge"><title>Node12&#45;&gt;Node11</title>
<path fill="none" stroke="#404040" d="M881.03,-960.005C896.153,-938.335 918.042,-906.967 934.98,-882.696"/>
<polygon fill="none" stroke="#404040" points="935.034,-882.618 935.187,-875.409 941.901,-872.778 941.748,-879.987 935.034,-882.618"/>
<text text-anchor="middle" x="936.048" y="-913" font-family="Helvetica,sans-Serif" font-size="10.00"> +c</text>
</g>
<!-- Node13 -->
<g id="node13" class="node"><title>Node13</title>
<g id="a_node13"><a xlink:href="classint.html" target="_top" xlink:title="{int\n||}">
<polygon fill="white" stroke="black" points="945.739,-959.5 945.739,-1013.5 974.739,-1013.5 974.739,-959.5 945.739,-959.5"/>
<text text-anchor="middle" x="960.02" y="-1001.5" font-family="Helvetica,sans-Serif" font-size="10.00">int</text>
<polyline fill="none" stroke="black" points="945.739,-995.5 974.3,-995.5 "/>
<text text-anchor="middle" x="960.02" y="-983.5" font-family="Helvetica,sans-Serif" font-size="10.00"> </text>
<polyline fill="none" stroke="black" points="945.739,-977.5 974.3,-977.5 "/>
<text text-anchor="middle" x="960.02" y="-965.5" font-family="Helvetica,sans-Serif" font-size="10.00"> </text>
</a>
</g>
</g>
<!-- Node13&#45;&gt;Node1 -->
<g id="edge20" class="edge"><title>Node13&#45;&gt;Node1</title>
<path fill="none" stroke="#404040" d="M945.484,-968.391C925.484,-943.386 892.239,-894.588 892.239,-846.5 892.239,-846.5 892.239,-846.5 892.239,-522.5 892.239,-446.743 899.726,-424.341 874.239,-353 862.307,-319.603 843.18,-286.231 823.622,-257.233"/>
<polygon fill="none" stroke="#404040" points="823.498,-257.053 816.802,-254.377 816.697,-247.166 823.393,-249.843 823.498,-257.053"/>
<text text-anchor="middle" x="948.362" y="-764" font-family="Helvetica,sans-Serif" font-size="10.00"> #m_mmu_en</text>
<text text-anchor="middle" x="948.362" y="-754" font-family="Helvetica,sans-Serif" font-size="10.00">#m_max_lru</text>
<text text-anchor="middle" x="948.362" y="-744" font-family="Helvetica,sans-Serif" font-size="10.00">#m_idx_bits</text>
<text text-anchor="middle" x="948.362" y="-734" font-family="Helvetica,sans-Serif" font-size="10.00">#m_burst_en</text>
<text text-anchor="middle" x="948.362" y="-724" font-family="Helvetica,sans-Serif" font-size="10.00">#CACHE_CONFIG_REG</text>
<text text-anchor="middle" x="948.362" y="-714" font-family="Helvetica,sans-Serif" font-size="10.00">#m_lramstart</text>
<text text-anchor="middle" x="948.362" y="-704" font-family="Helvetica,sans-Serif" font-size="10.00">#m_number_of_vectors</text>
<text text-anchor="middle" x="948.362" y="-694" font-family="Helvetica,sans-Serif" font-size="10.00">#m_setsize</text>
<text text-anchor="middle" x="948.362" y="-684" font-family="Helvetica,sans-Serif" font-size="10.00">#m_repl</text>
<text text-anchor="middle" x="948.362" y="-674" font-family="Helvetica,sans-Serif" font-size="10.00">#m_lram</text>
<text text-anchor="middle" x="948.362" y="-664" font-family="Helvetica,sans-Serif" font-size="10.00">...</text>
</g>
<!-- Node13&#45;&gt;Node11 -->
<g id="edge12" class="edge"><title>Node13&#45;&gt;Node11</title>
<path fill="none" stroke="#404040" d="M960.239,-959.355C960.239,-938.29 960.239,-908.378 960.239,-884.64"/>
<polygon fill="none" stroke="#404040" points="960.239,-884.528 956.239,-878.528 960.239,-872.528 964.239,-878.528 960.239,-884.528"/>
<text text-anchor="middle" x="965.659" y="-913" font-family="Helvetica,sans-Serif" font-size="10.00"> +i</text>
</g>
<!-- Node14 -->
<g id="node14" class="node"><title>Node14</title>
<g id="a_node14"><a xlink:href="structt__cache__tag.html" target="_top" xlink:title="{t_cache_tag\n||}">
<polygon fill="white" stroke="black" points="1017,-818.5 1017,-872.5 1087.48,-872.5 1087.48,-818.5 1017,-818.5"/>
<text text-anchor="middle" x="1052.24" y="-860.5" font-family="Helvetica,sans-Serif" font-size="10.00">t_cache_tag</text>
<polyline fill="none" stroke="black" points="1017,-854.5 1087.48,-854.5 "/>
<text text-anchor="middle" x="1052.24" y="-842.5" font-family="Helvetica,sans-Serif" font-size="10.00"> </text>
<polyline fill="none" stroke="black" points="1017,-836.5 1087.48,-836.5 "/>
<text text-anchor="middle" x="1052.24" y="-824.5" font-family="Helvetica,sans-Serif" font-size="10.00"> </text>
</a>
</g>
</g>
<!-- Node13&#45;&gt;Node14 -->
<g id="edge14" class="edge"><title>Node13&#45;&gt;Node14</title>
<path fill="none" stroke="#404040" d="M974.816,-963.475C989.156,-941.81 1011.3,-908.356 1028.24,-882.765"/>
<polygon fill="none" stroke="#404040" points="1028.28,-882.694 1028.26,-875.483 1034.91,-872.687 1034.93,-879.898 1028.28,-882.694"/>
<text text-anchor="middle" x="1036.44" y="-933" font-family="Helvetica,sans-Serif" font-size="10.00"> +lru</text>
<text text-anchor="middle" x="1036.44" y="-923" font-family="Helvetica,sans-Serif" font-size="10.00">+atag</text>
<text text-anchor="middle" x="1036.44" y="-913" font-family="Helvetica,sans-Serif" font-size="10.00">+lock</text>
<text text-anchor="middle" x="1036.44" y="-903" font-family="Helvetica,sans-Serif" font-size="10.00">+valid</text>
<text text-anchor="middle" x="1036.44" y="-893" font-family="Helvetica,sans-Serif" font-size="10.00">+lrr</text>
</g>
<!-- Node14&#45;&gt;Node10 -->
<g id="edge13" class="edge"><title>Node14&#45;&gt;Node10</title>
<path fill="none" stroke="#404040" d="M1053.48,-818.289C1054.33,-800.395 1055.47,-776.394 1056.42,-756.358"/>
<polygon fill="none" stroke="#404040" points="1056.43,-756.164 1052.72,-749.981 1057,-744.177 1060.71,-750.36 1056.43,-756.164"/>
<text text-anchor="middle" x="1066.5" y="-792" font-family="Helvetica,sans-Serif" font-size="10.00"> +tag</text>
</g>
<!-- Node15 -->
<g id="node15" class="node"><title>Node15</title>
<g id="a_node15"><a xlink:title="STL class. ">
<polygon fill="white" stroke="#bfbfbf" points="1152.68,-690 1152.68,-744 1237.8,-744 1237.8,-690 1152.68,-690"/>
<text text-anchor="middle" x="1195.24" y="-732" font-family="Helvetica,sans-Serif" font-size="10.00">std::vector&lt; T &gt;</text>
<polyline fill="none" stroke="#bfbfbf" points="1152.68,-726 1237.8,-726 "/>
<text text-anchor="middle" x="1195.24" y="-714" font-family="Helvetica,sans-Serif" font-size="10.00"> </text>
<polyline fill="none" stroke="#bfbfbf" points="1152.68,-708 1237.8,-708 "/>
<text text-anchor="middle" x="1195.24" y="-696" font-family="Helvetica,sans-Serif" font-size="10.00"> </text>
</a>
</g>
</g>
<!-- Node15&#45;&gt;Node9 -->
<g id="edge15" class="edge"><title>Node15&#45;&gt;Node9</title>
<path fill="none" stroke="orange" d="M1155.42,-682.676C1144.4,-671.483 1133.53,-658.201 1126.4,-644 1112.48,-616.262 1107.91,-580.817 1106.53,-555.754"/>
<polygon fill="orange" stroke="orange" points="1153.04,-685.243 1162.65,-689.718 1157.93,-680.231 1153.04,-685.243"/>
<text text-anchor="middle" x="1168.66" y="-631" font-family="Helvetica,sans-Serif" font-size="10.00"> &lt; t_cache_line * &gt;</text>
</g>
<!-- Node17 -->
<g id="node17" class="node"><title>Node17</title>
<polygon fill="white" stroke="#bfbfbf" points="1176.8,-491.5 1176.8,-555.5 1293.68,-555.5 1293.68,-491.5 1176.8,-491.5"/>
<text text-anchor="start" x="1184.8" y="-543.5" font-family="Helvetica,sans-Serif" font-size="10.00">std::vector&lt; std::vector</text>
<text text-anchor="middle" x="1235.24" y="-533.5" font-family="Helvetica,sans-Serif" font-size="10.00">&lt; t_cache_line &gt; * &gt;</text>
<polyline fill="none" stroke="#bfbfbf" points="1176.8,-527.5 1293.68,-527.5 "/>
<text text-anchor="middle" x="1235.24" y="-515.5" font-family="Helvetica,sans-Serif" font-size="10.00"> </text>
<polyline fill="none" stroke="#bfbfbf" points="1176.8,-509.5 1293.68,-509.5 "/>
<text text-anchor="middle" x="1235.24" y="-497.5" font-family="Helvetica,sans-Serif" font-size="10.00"> </text>
</g>
<!-- Node15&#45;&gt;Node17 -->
<g id="edge19" class="edge"><title>Node15&#45;&gt;Node17</title>
<path fill="none" stroke="orange" d="M1204.7,-680.061C1207.59,-668.575 1210.68,-655.784 1213.24,-644 1219.72,-614.107 1225.92,-579.739 1230.07,-555.556"/>
<polygon fill="orange" stroke="orange" points="1201.3,-679.206 1202.22,-689.761 1208.08,-680.937 1201.3,-679.206"/>
<text text-anchor="start" x="1218.24" y="-636" font-family="Helvetica,sans-Serif" font-size="10.00"> &lt; std::vector&lt; t_cache</text>
<text text-anchor="middle" x="1268.82" y="-626" font-family="Helvetica,sans-Serif" font-size="10.00">_line &gt; * &gt;</text>
</g>
<!-- Node16 -->
<g id="node16" class="node"><title>Node16</title>
<polygon fill="white" stroke="#bfbfbf" points="1180.74,-818.5 1180.74,-872.5 1209.74,-872.5 1209.74,-818.5 1180.74,-818.5"/>
<text text-anchor="middle" x="1194.79" y="-860.5" font-family="Helvetica,sans-Serif" font-size="10.00">T</text>
<polyline fill="none" stroke="#bfbfbf" points="1180.74,-854.5 1208.85,-854.5 "/>
<text text-anchor="middle" x="1194.79" y="-842.5" font-family="Helvetica,sans-Serif" font-size="10.00"> </text>
<polyline fill="none" stroke="#bfbfbf" points="1180.74,-836.5 1208.85,-836.5 "/>
<text text-anchor="middle" x="1194.79" y="-824.5" font-family="Helvetica,sans-Serif" font-size="10.00"> </text>
</g>
<!-- Node16&#45;&gt;Node15 -->
<g id="edge16" class="edge"><title>Node16&#45;&gt;Node15</title>
<path fill="none" stroke="#404040" d="M1195.24,-818.289C1195.24,-800.395 1195.24,-776.394 1195.24,-756.358"/>
<polygon fill="none" stroke="#404040" points="1195.24,-756.177 1191.24,-750.177 1195.24,-744.177 1199.24,-750.177 1195.24,-756.177"/>
<text text-anchor="middle" x="1219.84" y="-792" font-family="Helvetica,sans-Serif" font-size="10.00"> +elements</text>
</g>
<!-- Node17&#45;&gt;Node1 -->
<g id="edge17" class="edge"><title>Node17&#45;&gt;Node1</title>
<path fill="none" stroke="#404040" d="M1221.01,-491.424C1202.79,-454.453 1168.13,-392.75 1123.24,-353 1035.14,-274.991 908.142,-221.232 828.194,-192.655"/>
<polygon fill="none" stroke="#404040" points="828.068,-192.61 821.079,-194.388 816.75,-188.621 823.738,-186.843 828.068,-192.61"/>
<text text-anchor="middle" x="1212.64" y="-385" font-family="Helvetica,sans-Serif" font-size="10.00"> #cache_mem</text>
</g>
<!-- Node18 -->
<g id="node18" class="node"><title>Node18</title>
<polygon fill="white" stroke="#bfbfbf" points="1297.59,-690 1297.59,-744 1420.88,-744 1420.88,-690 1297.59,-690"/>
<text text-anchor="middle" x="1359.24" y="-732" font-family="Helvetica,sans-Serif" font-size="10.00">vector&lt; t_cache_line &gt; *</text>
<polyline fill="none" stroke="#bfbfbf" points="1297.59,-726 1420.88,-726 "/>
<text text-anchor="middle" x="1359.24" y="-714" font-family="Helvetica,sans-Serif" font-size="10.00"> </text>
<polyline fill="none" stroke="#bfbfbf" points="1297.59,-708 1420.88,-708 "/>
<text text-anchor="middle" x="1359.24" y="-696" font-family="Helvetica,sans-Serif" font-size="10.00"> </text>
</g>
<!-- Node18&#45;&gt;Node17 -->
<g id="edge18" class="edge"><title>Node18&#45;&gt;Node17</title>
<path fill="none" stroke="#404040" d="M1352.55,-689.837C1346.8,-670.51 1337.2,-644.166 1323.24,-624 1316.43,-614.167 1311.53,-614.613 1303.24,-606 1290.89,-593.184 1278.19,-578.441 1267.15,-565.048"/>
<polygon fill="none" stroke="#404040" points="1267.01,-564.883 1260.12,-562.759 1259.43,-555.581 1266.32,-557.705 1267.01,-564.883"/>
<text text-anchor="middle" x="1358.84" y="-631" font-family="Helvetica,sans-Serif" font-size="10.00"> +elements</text>
</g>
<!-- Node19 -->
<g id="node19" class="node"><title>Node19</title>
<g id="a_node19"><a xlink:href="classbool.html" target="_top" xlink:title="{bool\n||}">
<polygon fill="white" stroke="black" points="1311.79,-496.5 1311.79,-550.5 1346.69,-550.5 1346.69,-496.5 1311.79,-496.5"/>
<text text-anchor="middle" x="1329.24" y="-538.5" font-family="Helvetica,sans-Serif" font-size="10.00">bool</text>
<polyline fill="none" stroke="black" points="1311.79,-532.5 1346.69,-532.5 "/>
<text text-anchor="middle" x="1329.24" y="-520.5" font-family="Helvetica,sans-Serif" font-size="10.00"> </text>
<polyline fill="none" stroke="black" points="1311.79,-514.5 1346.69,-514.5 "/>
<text text-anchor="middle" x="1329.24" y="-502.5" font-family="Helvetica,sans-Serif" font-size="10.00"> </text>
</a>
</g>
</g>
<!-- Node19&#45;&gt;Node1 -->
<g id="edge22" class="edge"><title>Node19&#45;&gt;Node1</title>
<path fill="none" stroke="#404040" d="M1324.05,-496.417C1315.2,-458.948 1293.57,-390.305 1248.24,-353 1122.56,-249.57 933.239,-200.876 828.916,-180.734"/>
<polygon fill="none" stroke="#404040" points="828.726,-180.698 822.089,-183.517 816.934,-178.474 823.571,-175.656 828.726,-180.698"/>
<text text-anchor="middle" x="1349.27" y="-390" font-family="Helvetica,sans-Serif" font-size="10.00"> #m_new_linefetch_en</text>
<text text-anchor="middle" x="1349.27" y="-380" font-family="Helvetica,sans-Serif" font-size="10.00">#m_pow_mon</text>
</g>
<!-- Node20 -->
<g id="node20" class="node"><title>Node20</title>
<polygon fill="white" stroke="#bfbfbf" points="1396.01,-496.5 1396.01,-550.5 1446.47,-550.5 1446.47,-496.5 1396.01,-496.5"/>
<text text-anchor="middle" x="1421.24" y="-538.5" font-family="Helvetica,sans-Serif" font-size="10.00">sc_time</text>
<polyline fill="none" stroke="#bfbfbf" points="1396.01,-532.5 1446.47,-532.5 "/>
<text text-anchor="middle" x="1421.24" y="-520.5" font-family="Helvetica,sans-Serif" font-size="10.00"> </text>
<polyline fill="none" stroke="#bfbfbf" points="1396.01,-514.5 1446.47,-514.5 "/>
<text text-anchor="middle" x="1421.24" y="-502.5" font-family="Helvetica,sans-Serif" font-size="10.00"> </text>
</g>
<!-- Node20&#45;&gt;Node1 -->
<g id="edge23" class="edge"><title>Node20&#45;&gt;Node1</title>
<path fill="none" stroke="#404040" d="M1425.91,-496.339C1430.86,-459.711 1433.8,-393.14 1399.24,-353 1324.36,-266.027 982.849,-203.742 828.896,-179.584"/>
<polygon fill="none" stroke="#404040" points="828.667,-179.549 822.124,-182.58 816.81,-177.706 823.353,-174.675 828.667,-179.549"/>
<text text-anchor="start" x="1426.24" y="-415" font-family="Helvetica,sans-Serif" font-size="10.00"> #m_miss_read_response</text>
<text text-anchor="middle" x="1483.77" y="-405" font-family="Helvetica,sans-Serif" font-size="10.00">_delay</text>
<text text-anchor="start" x="1426.24" y="-395" font-family="Helvetica,sans-Serif" font-size="10.00">#m_hit_read_response</text>
<text text-anchor="middle" x="1483.77" y="-385" font-family="Helvetica,sans-Serif" font-size="10.00">_delay</text>
<text text-anchor="middle" x="1483.77" y="-375" font-family="Helvetica,sans-Serif" font-size="10.00">#clockcycle</text>
<text text-anchor="start" x="1426.24" y="-365" font-family="Helvetica,sans-Serif" font-size="10.00">#m_write_response</text>
<text text-anchor="middle" x="1483.77" y="-355" font-family="Helvetica,sans-Serif" font-size="10.00">_delay</text>
</g>
<!-- Node21&#45;&gt;Node1 -->
<g id="edge24" class="edge"><title>Node21&#45;&gt;Node1</title>
<path fill="none" stroke="#404040" d="M378.45,-481.216C381.493,-444.202 390.989,-390.157 419.54,-353 485.047,-267.745 601.747,-216.405 678.318,-190.262"/>
<polygon fill="none" stroke="#404040" points="678.399,-190.236 682.823,-184.541 689.781,-186.434 685.357,-192.129 678.399,-190.236"/>
<text text-anchor="middle" x="458.588" y="-385" font-family="Helvetica,sans-Serif" font-size="10.00"> #m_mmu_cache</text>
</g>
</g>
</svg>
        <g id="navigator" transform="translate(0 0)" fill="#404254">
                <rect fill="#f2f5e9" fill-opacity="0.5" stroke="#606060" stroke-width=".5" x="0" y="0" width="60" height="60"/>
                <use id="zoomplus" xlink:href="#zoomPlus" x="17" y="9" onmousedown="handleZoom(evt,'in')"/>
                <use id="zoomminus" xlink:href="#zoomMin" x="42" y="9" onmousedown="handleZoom(evt,'out')"/>
                <use id="reset" xlink:href="#resetDef" x="30" y="36" onmousedown="handleReset()"/>
                <g id="arrowUp" xlink:href="#dirArrow" transform="translate(30 24)" onmousedown="handlePan(0,-1)">
                  <use xlink:href="#rim" fill="#404040">
                        <set attributeName="fill" to="#808080" begin="arrowUp.mouseover" end="arrowUp.mouseout"/>
                  </use>
                  <path fill="none" stroke="white" stroke-width="1.5" d="M0,-3.0v7 M-2.5,-0.5L0,-3.0L2.5,-0.5"/>
                </g>
                <g id="arrowRight" xlink:href="#dirArrow" transform="rotate(90) translate(36 -43)" onmousedown="handlePan(1,0)">
                  <use xlink:href="#rim" fill="#404040">
                        <set attributeName="fill" to="#808080" begin="arrowRight.mouseover" end="arrowRight.mouseout"/>
                  </use>
                  <path fill="none" stroke="white" stroke-width="1.5" d="M0,-3.0v7 M-2.5,-0.5L0,-3.0L2.5,-0.5"/>
                </g>
                <g id="arrowDown" xlink:href="#dirArrow" transform="rotate(180) translate(-30 -48)" onmousedown="handlePan(0,1)">
                  <use xlink:href="#rim" fill="#404040">
                        <set attributeName="fill" to="#808080" begin="arrowDown.mouseover" end="arrowDown.mouseout"/>
                  </use>
                  <path fill="none" stroke="white" stroke-width="1.5" d="M0,-3.0v7 M-2.5,-0.5L0,-3.0L2.5,-0.5"/>
                </g>
                <g id="arrowLeft" xlink:href="#dirArrow" transform="rotate(270) translate(-36 17)" onmousedown="handlePan(-1,0)">
                  <use xlink:href="#rim" fill="#404040">
                        <set attributeName="fill" to="#808080" begin="arrowLeft.mouseover" end="arrowLeft.mouseout"/>
                  </use>
                  <path fill="none" stroke="white" stroke-width="1.5" d="M0,-3.0v7 M-2.5,-0.5L0,-3.0L2.5,-0.5"/>
                </g>
        </g>
        <svg viewBox="0 0 15 15" width="100%" height="30px" preserveAspectRatio="xMaxYMin meet">
         <g id="arrow_out" transform="scale(0.3 0.3)">
          <a xlink:href="classvectorcache__coll__graph_org.svg" target="_base">
           <rect id="button" ry="5" rx="5" y="6" x="6" height="38" width="38"
                fill="#f2f5e9" fill-opacity="0.5" stroke="#606060" stroke-width="1.0"/>
           <path id="arrow"
             d="M 11.500037,31.436501 C 11.940474,20.09759 22.043105,11.32322 32.158766,21.979434 L 37.068811,17.246167 C 37.068811,17.246167 37.088388,32 37.088388,32 L 22.160133,31.978069 C 22.160133,31.978069 26.997745,27.140456 26.997745,27.140456 C 18.528582,18.264221 13.291696,25.230495 11.500037,31.436501 z"
             style="fill:#404040;"/>
          </a>
         </g>
        </svg>
</svg>
