<?xml version="1.0" encoding="UTF-8" standalone="no"?>
<!DOCTYPE svg PUBLIC "-//W3C//DTD SVG 1.1//EN"
 "http://www.w3.org/Graphics/SVG/1.1/DTD/svg11.dtd">
<!-- Generated by graphviz version 2.26.0 (20091210.2329)
 -->
<!-- Title: MemoryPower Pages: 1 -->
<!--zoomable 716 -->
<svg id="main" version="1.1" xmlns="http://www.w3.org/2000/svg" xmlns:xlink="http://www.w3.org/1999/xlink" xml:space="preserve" onload="init(evt)">
<style type="text/css"><![CDATA[
.edge:hover path { stroke: red; }
.edge:hover polygon { stroke: red; fill: red; }
]]></style>
<script type="text/javascript"><![CDATA[
var edges = document.getElementsByTagName('g');
if (edges && edges.length) {
  for (var i=0;i<edges.length;i++) {
    if (edges[i].id.substr(0,4)=='edge') {
      edges[i].setAttribute('class','edge');
    }
  }
}
]]></script>
        <defs>
                <circle id="rim" cx="0" cy="0" r="7"/>
                <circle id="rim2" cx="0" cy="0" r="3.5"/>
                <g id="zoomPlus">
                        <use xlink:href="#rim" fill="#404040">
                                <set attributeName="fill" to="#808080" begin="zoomplus.mouseover" end="zoomplus.mouseout"/>
                        </use>
                        <path d="M-4,0h8M0,-4v8" fill="none" stroke="white" stroke-width="1.5" pointer-events="none"/>
                </g>
                <g id="zoomMin">
                        <use xlink:href="#rim" fill="#404040">
                                <set attributeName="fill" to="#808080" begin="zoomminus.mouseover" end="zoomminus.mouseout"/>
                        </use>
                        <path d="M-4,0h8" fill="none" stroke="white" stroke-width="1.5" pointer-events="none"/>
                </g>
                <g id="dirArrow">
                        <path fill="none" stroke="white" stroke-width="1.5" d="M0,-3.0v7 M-2.5,-0.5L0,-3.0L2.5,-0.5"/>
                </g>
               <g id="resetDef">
                       <use xlink:href="#rim2" fill="#404040">
                               <set attributeName="fill" to="#808080" begin="reset.mouseover" end="reset.mouseout"/>
                       </use>
               </g>
        </defs>

<script type="text/javascript">
var viewWidth = 1111;
var viewHeight = 716;
var sectionId = 'dynsection-1';
</script>
<script xlink:href="svgpan.js"/>
<svg id="graph" class="graph">
<g id="viewport">
<title>MemoryPower</title>
<polygon fill="white" stroke="white" points="-4,5 -4,-712 1108,-712 1108,5 -4,5"/>
<!-- Node1 -->
<g id="node1" class="node"><title>Node1</title>
<polygon fill="#bfbfbf" stroke="black" points="470.5,-0.5 470.5,-167.5 607.5,-167.5 607.5,-0.5 470.5,-0.5"/>
<text text-anchor="middle" x="539" y="-154.5" font-family="Helvetica,sans-Serif" font-size="10.00">MemoryPower</text>
<polyline fill="none" stroke="black" points="470.5,-146.5 607.5,-146.5 "/>
<text text-anchor="middle" x="539" y="-133.5" font-family="Helvetica,sans-Serif" font-size="10.00"> </text>
<polyline fill="none" stroke="black" points="470.5,-125.5 607.5,-125.5 "/>
<text text-anchor="start" x="478.5" y="-112.5" font-family="Helvetica,sans-Serif" font-size="10.00">+ GC_HAS_CALLBACKS()</text>
<text text-anchor="start" x="478.5" y="-99.5" font-family="Helvetica,sans-Serif" font-size="10.00">+ MemoryPower()</text>
<text text-anchor="start" x="478.5" y="-86.5" font-family="Helvetica,sans-Serif" font-size="10.00">+ ~MemoryPower()</text>
<text text-anchor="start" x="478.5" y="-73.5" font-family="Helvetica,sans-Serif" font-size="10.00">+ power_model()</text>
<text text-anchor="start" x="478.5" y="-60.5" font-family="Helvetica,sans-Serif" font-size="10.00">+ swi_power_cb()</text>
<text text-anchor="start" x="478.5" y="-47.5" font-family="Helvetica,sans-Serif" font-size="10.00">+ dyn_reads_cb()</text>
<text text-anchor="start" x="478.5" y="-34.5" font-family="Helvetica,sans-Serif" font-size="10.00">+ dyn_writes_cb()</text>
<text text-anchor="start" x="478.5" y="-21.5" font-family="Helvetica,sans-Serif" font-size="10.00">+ dyn_reads_write_cb()</text>
<text text-anchor="start" x="478.5" y="-8.5" font-family="Helvetica,sans-Serif" font-size="10.00">+ dyn_writes_write_cb()</text>
</g>
<!-- Node2 -->
<g id="node2" class="node"><title>Node2</title>
<polygon fill="white" stroke="#bfbfbf" points="-0.5,-420.5 -0.5,-483.5 70.5,-483.5 70.5,-420.5 -0.5,-420.5"/>
<text text-anchor="middle" x="35" y="-470.5" font-family="Helvetica,sans-Serif" font-size="10.00">DefaultBase</text>
<polyline fill="none" stroke="#bfbfbf" points="-0.5,-462.5 70.5,-462.5 "/>
<text text-anchor="middle" x="35" y="-449.5" font-family="Helvetica,sans-Serif" font-size="10.00"> </text>
<polyline fill="none" stroke="#bfbfbf" points="-0.5,-441.5 70.5,-441.5 "/>
<text text-anchor="middle" x="35" y="-428.5" font-family="Helvetica,sans-Serif" font-size="10.00"> </text>
</g>
<!-- Node2&#45;&gt;Node1 -->
<g id="edge2" class="edge"><title>Node2&#45;&gt;Node1</title>
<path fill="none" stroke="midnightblue" d="M49.547,-410.826C72.8272,-351.262 124.323,-242.067 206,-186 286.88,-130.48 399.001,-104.363 470.273,-92.6812"/>
<polygon fill="none" stroke="midnightblue" points="46.2288,-409.704 45.921,-420.295 52.7658,-412.208 46.2288,-409.704"/>
</g>
<!-- Node3 -->
<g id="node4" class="node"><title>Node3</title>
<a xlink:href="classCLKDevice.html" target="_top" xlink:title="{CLKDevice\n||+ SK_HAS_SIGNALS()\l+ CLKDevice()\l+ ~CLKDevice()\l+ onrst()\l+ onclk()\l+ set_clk()\l+ set_clk()\l+ set_clk()\l+ dorst()\l+ clkcng()\l}">
<polygon fill="white" stroke="black" points="88,-362 88,-542 208,-542 208,-362 88,-362"/>
<text text-anchor="middle" x="148" y="-529" font-family="Helvetica,sans-Serif" font-size="10.00">CLKDevice</text>
<polyline fill="none" stroke="black" points="88,-521 208,-521 "/>
<text text-anchor="middle" x="148" y="-508" font-family="Helvetica,sans-Serif" font-size="10.00"> </text>
<polyline fill="none" stroke="black" points="88,-500 208,-500 "/>
<text text-anchor="start" x="96" y="-487" font-family="Helvetica,sans-Serif" font-size="10.00">+ SK_HAS_SIGNALS()</text>
<text text-anchor="start" x="96" y="-474" font-family="Helvetica,sans-Serif" font-size="10.00">+ CLKDevice()</text>
<text text-anchor="start" x="96" y="-461" font-family="Helvetica,sans-Serif" font-size="10.00">+ ~CLKDevice()</text>
<text text-anchor="start" x="96" y="-448" font-family="Helvetica,sans-Serif" font-size="10.00">+ onrst()</text>
<text text-anchor="start" x="96" y="-435" font-family="Helvetica,sans-Serif" font-size="10.00">+ onclk()</text>
<text text-anchor="start" x="96" y="-422" font-family="Helvetica,sans-Serif" font-size="10.00">+ set_clk()</text>
<text text-anchor="start" x="96" y="-409" font-family="Helvetica,sans-Serif" font-size="10.00">+ set_clk()</text>
<text text-anchor="start" x="96" y="-396" font-family="Helvetica,sans-Serif" font-size="10.00">+ set_clk()</text>
<text text-anchor="start" x="96" y="-383" font-family="Helvetica,sans-Serif" font-size="10.00">+ dorst()</text>
<text text-anchor="start" x="96" y="-370" font-family="Helvetica,sans-Serif" font-size="10.00">+ clkcng()</text>
</a>
</g>
<!-- Node3&#45;&gt;Node1 -->
<g id="edge4" class="edge"><title>Node3&#45;&gt;Node1</title>
<path fill="none" stroke="midnightblue" d="M195.015,-352.944C224.948,-298.162 268.044,-232.063 321,-186 364.507,-148.156 424.457,-121.472 470.479,-104.914"/>
<polygon fill="none" stroke="midnightblue" points="191.806,-351.52 190.139,-361.983 197.967,-354.843 191.806,-351.52"/>
</g>
<!-- Node4 -->
<g id="node6" class="node"><title>Node4</title>
<polygon fill="white" stroke="#bfbfbf" points="105.5,-644.5 105.5,-707.5 134.5,-707.5 134.5,-644.5 105.5,-644.5"/>
<text text-anchor="middle" x="120" y="-694.5" font-family="Helvetica,sans-Serif" font-size="10.00">in</text>
<polyline fill="none" stroke="#bfbfbf" points="105.5,-686.5 134.5,-686.5 "/>
<text text-anchor="middle" x="120" y="-673.5" font-family="Helvetica,sans-Serif" font-size="10.00"> </text>
<polyline fill="none" stroke="#bfbfbf" points="105.5,-665.5 134.5,-665.5 "/>
<text text-anchor="middle" x="120" y="-652.5" font-family="Helvetica,sans-Serif" font-size="10.00"> </text>
</g>
<!-- Node4&#45;&gt;Node3 -->
<g id="edge6" class="edge"><title>Node4&#45;&gt;Node3</title>
<path fill="none" stroke="#404040" d="M108.986,-644.305C107.329,-638.296 105.882,-632.008 105,-626 101.644,-603.134 101.103,-596.78 105,-574 106.138,-567.346 107.602,-560.573 109.299,-553.8"/>
<polygon fill="none" stroke="#404040" points="109.348,-553.62 107.047,-546.786 112.471,-542.034 114.772,-548.868 109.348,-553.62"/>
<text text-anchor="middle" x="115.5" y="-597.5" font-family="Helvetica,sans-Serif" font-size="10.00"> +rst</text>
</g>
<!-- Node4&#45;&gt;Node3 -->
<g id="edge10" class="edge"><title>Node4&#45;&gt;Node3</title>
<path fill="none" stroke="#404040" d="M123.952,-644.381C126.906,-620.752 131.121,-587.033 135.199,-554.408"/>
<polygon fill="none" stroke="#404040" points="135.204,-554.366 131.979,-547.916 136.693,-542.459 139.918,-548.908 135.204,-554.366"/>
<text text-anchor="middle" x="144" y="-597.5" font-family="Helvetica,sans-Serif" font-size="10.00"> +clk</text>
</g>
<!-- Node5 -->
<g id="node8" class="node"><title>Node5</title>
<polygon fill="white" stroke="#bfbfbf" points="167.5,-644.5 167.5,-707.5 218.5,-707.5 218.5,-644.5 167.5,-644.5"/>
<text text-anchor="middle" x="193" y="-694.5" font-family="Helvetica,sans-Serif" font-size="10.00">sc_time</text>
<polyline fill="none" stroke="#bfbfbf" points="167.5,-686.5 218.5,-686.5 "/>
<text text-anchor="middle" x="193" y="-673.5" font-family="Helvetica,sans-Serif" font-size="10.00"> </text>
<polyline fill="none" stroke="#bfbfbf" points="167.5,-665.5 218.5,-665.5 "/>
<text text-anchor="middle" x="193" y="-652.5" font-family="Helvetica,sans-Serif" font-size="10.00"> </text>
</g>
<!-- Node5&#45;&gt;Node3 -->
<g id="edge8" class="edge"><title>Node5&#45;&gt;Node3</title>
<path fill="none" stroke="#404040" d="M186.648,-644.381C181.901,-620.752 175.127,-587.033 168.573,-554.408"/>
<polygon fill="none" stroke="#404040" points="168.536,-554.224 163.433,-549.129 166.172,-542.459 171.276,-547.553 168.536,-554.224"/>
<text text-anchor="middle" x="213.5" y="-597.5" font-family="Helvetica,sans-Serif" font-size="10.00"> #clock_cycle</text>
</g>
<!-- Node6 -->
<g id="node11" class="node"><title>Node6</title>
<a xlink:href="classMEMDevice.html" target="_top" xlink:title="{MEMDevice\n||+ MEMDevice()\l+ MEMDevice()\l+ ~MEMDevice()\l+ get_device_info()\l+ get_type()\l+ get_type_name()\l+ get_banks()\l+ get_bsize()\l+ get_bits()\l+ get_cols()\l}">
<polygon fill="white" stroke="black" points="226,-362 226,-542 326,-542 326,-362 226,-362"/>
<text text-anchor="middle" x="276" y="-529" font-family="Helvetica,sans-Serif" font-size="10.00">MEMDevice</text>
<polyline fill="none" stroke="black" points="226,-521 326,-521 "/>
<text text-anchor="middle" x="276" y="-508" font-family="Helvetica,sans-Serif" font-size="10.00"> </text>
<polyline fill="none" stroke="black" points="226,-500 326,-500 "/>
<text text-anchor="start" x="234" y="-487" font-family="Helvetica,sans-Serif" font-size="10.00">+ MEMDevice()</text>
<text text-anchor="start" x="234" y="-474" font-family="Helvetica,sans-Serif" font-size="10.00">+ MEMDevice()</text>
<text text-anchor="start" x="234" y="-461" font-family="Helvetica,sans-Serif" font-size="10.00">+ ~MEMDevice()</text>
<text text-anchor="start" x="234" y="-448" font-family="Helvetica,sans-Serif" font-size="10.00">+ get_device_info()</text>
<text text-anchor="start" x="234" y="-435" font-family="Helvetica,sans-Serif" font-size="10.00">+ get_type()</text>
<text text-anchor="start" x="234" y="-422" font-family="Helvetica,sans-Serif" font-size="10.00">+ get_type_name()</text>
<text text-anchor="start" x="234" y="-409" font-family="Helvetica,sans-Serif" font-size="10.00">+ get_banks()</text>
<text text-anchor="start" x="234" y="-396" font-family="Helvetica,sans-Serif" font-size="10.00">+ get_bsize()</text>
<text text-anchor="start" x="234" y="-383" font-family="Helvetica,sans-Serif" font-size="10.00">+ get_bits()</text>
<text text-anchor="start" x="234" y="-370" font-family="Helvetica,sans-Serif" font-size="10.00">+ get_cols()</text>
</a>
</g>
<!-- Node6&#45;&gt;Node1 -->
<g id="edge12" class="edge"><title>Node6&#45;&gt;Node1</title>
<path fill="none" stroke="midnightblue" d="M311.707,-352.486C333.739,-299.583 365.554,-235.45 406,-186 424.054,-163.926 447.777,-143.805 470.181,-127.376"/>
<polygon fill="none" stroke="midnightblue" points="308.407,-351.308 307.845,-361.888 314.882,-353.968 308.407,-351.308"/>
</g>
<!-- Node7 -->
<g id="node13" class="node"><title>Node7</title>
<a xlink:href="classBaseMemory.html" target="_top" xlink:title="{BaseMemory\n||+ BaseMemory()\l+ ~BaseMemory()\l+ read()\l+ read_dbg()\l+ write()\l+ write_dbg()\l+ write_block()\l+ write_block_dbg()\l+ read_block()\l+ read_block_dbg()\l+ erase()\l+ erase_dbg()\l}">
<polygon fill="white" stroke="black" points="344,-349 344,-555 446,-555 446,-349 344,-349"/>
<text text-anchor="middle" x="395" y="-542" font-family="Helvetica,sans-Serif" font-size="10.00">BaseMemory</text>
<polyline fill="none" stroke="black" points="344,-534 446,-534 "/>
<text text-anchor="middle" x="395" y="-521" font-family="Helvetica,sans-Serif" font-size="10.00"> </text>
<polyline fill="none" stroke="black" points="344,-513 446,-513 "/>
<text text-anchor="start" x="352" y="-500" font-family="Helvetica,sans-Serif" font-size="10.00">+ BaseMemory()</text>
<text text-anchor="start" x="352" y="-487" font-family="Helvetica,sans-Serif" font-size="10.00">+ ~BaseMemory()</text>
<text text-anchor="start" x="352" y="-474" font-family="Helvetica,sans-Serif" font-size="10.00">+ read()</text>
<text text-anchor="start" x="352" y="-461" font-family="Helvetica,sans-Serif" font-size="10.00">+ read_dbg()</text>
<text text-anchor="start" x="352" y="-448" font-family="Helvetica,sans-Serif" font-size="10.00">+ write()</text>
<text text-anchor="start" x="352" y="-435" font-family="Helvetica,sans-Serif" font-size="10.00">+ write_dbg()</text>
<text text-anchor="start" x="352" y="-422" font-family="Helvetica,sans-Serif" font-size="10.00">+ write_block()</text>
<text text-anchor="start" x="352" y="-409" font-family="Helvetica,sans-Serif" font-size="10.00">+ write_block_dbg()</text>
<text text-anchor="start" x="352" y="-396" font-family="Helvetica,sans-Serif" font-size="10.00">+ read_block()</text>
<text text-anchor="start" x="352" y="-383" font-family="Helvetica,sans-Serif" font-size="10.00">+ read_block_dbg()</text>
<text text-anchor="start" x="352" y="-370" font-family="Helvetica,sans-Serif" font-size="10.00">+ erase()</text>
<text text-anchor="start" x="352" y="-357" font-family="Helvetica,sans-Serif" font-size="10.00">+ erase_dbg()</text>
</a>
</g>
<!-- Node7&#45;&gt;Node1 -->
<g id="edge14" class="edge"><title>Node7&#45;&gt;Node1</title>
<path fill="none" stroke="midnightblue" d="M408.564,-338.821C417.393,-290.042 431.771,-233.433 455,-186 459.338,-177.141 464.589,-168.38 470.324,-159.935"/>
<polygon fill="none" stroke="midnightblue" points="405.096,-338.331 406.817,-348.786 411.991,-339.54 405.096,-338.331"/>
</g>
<!-- Node8 -->
<g id="node15" class="node"><title>Node8</title>
<polygon fill="white" stroke="#bfbfbf" points="346,-644.5 346,-707.5 444,-707.5 444,-644.5 346,-644.5"/>
<text text-anchor="middle" x="395" y="-694.5" font-family="Helvetica,sans-Serif" font-size="10.00">unsigned long long</text>
<polyline fill="none" stroke="#bfbfbf" points="346,-686.5 444,-686.5 "/>
<text text-anchor="middle" x="395" y="-673.5" font-family="Helvetica,sans-Serif" font-size="10.00"> </text>
<polyline fill="none" stroke="#bfbfbf" points="346,-665.5 444,-665.5 "/>
<text text-anchor="middle" x="395" y="-652.5" font-family="Helvetica,sans-Serif" font-size="10.00"> </text>
</g>
<!-- Node8&#45;&gt;Node7 -->
<g id="edge16" class="edge"><title>Node8&#45;&gt;Node7</title>
<path fill="none" stroke="#404040" d="M395,-644.381C395,-623.91 395,-595.866 395,-567.521"/>
<polygon fill="none" stroke="#404040" points="395,-567.376 391,-561.376 395,-555.376 399,-561.376 395,-567.376"/>
<text text-anchor="middle" x="418" y="-617" font-family="Helvetica,sans-Serif" font-size="10.00"> +writes32</text>
<text text-anchor="middle" x="418" y="-604" font-family="Helvetica,sans-Serif" font-size="10.00">+writes</text>
<text text-anchor="middle" x="418" y="-591" font-family="Helvetica,sans-Serif" font-size="10.00">+reads32</text>
<text text-anchor="middle" x="418" y="-578" font-family="Helvetica,sans-Serif" font-size="10.00">+reads</text>
</g>
<!-- Node9 -->
<g id="node17" class="node"><title>Node9</title>
<polygon fill="white" stroke="#bfbfbf" points="464,-420.5 464,-483.5 550,-483.5 550,-420.5 464,-420.5"/>
<text text-anchor="middle" x="507" y="-470.5" font-family="Helvetica,sans-Serif" font-size="10.00">gs_param_array</text>
<polyline fill="none" stroke="#bfbfbf" points="464,-462.5 550,-462.5 "/>
<text text-anchor="middle" x="507" y="-449.5" font-family="Helvetica,sans-Serif" font-size="10.00"> </text>
<polyline fill="none" stroke="#bfbfbf" points="464,-441.5 550,-441.5 "/>
<text text-anchor="middle" x="507" y="-428.5" font-family="Helvetica,sans-Serif" font-size="10.00"> </text>
</g>
<!-- Node9&#45;&gt;Node1 -->
<g id="edge18" class="edge"><title>Node9&#45;&gt;Node1</title>
<path fill="none" stroke="#404040" d="M493.64,-420.167C474.329,-369.531 443.574,-267.983 469,-186 469.746,-183.596 470.569,-181.199 471.463,-178.812"/>
<polygon fill="none" stroke="#404040" points="471.468,-178.799 470.108,-171.717 476.121,-167.737 477.482,-174.819 471.468,-178.799"/>
<text text-anchor="middle" x="529" y="-262" font-family="Helvetica,sans-Serif" font-size="10.00"> +m_performance_counters</text>
<text text-anchor="middle" x="529" y="-249" font-family="Helvetica,sans-Serif" font-size="10.00">+power</text>
</g>
<!-- Node10 -->
<g id="node19" class="node"><title>Node10</title>
<polygon fill="white" stroke="#bfbfbf" points="567.5,-420.5 567.5,-483.5 622.5,-483.5 622.5,-420.5 567.5,-420.5"/>
<text text-anchor="middle" x="595" y="-470.5" font-family="Helvetica,sans-Serif" font-size="10.00">cnf_api *</text>
<polyline fill="none" stroke="#bfbfbf" points="567.5,-462.5 622.5,-462.5 "/>
<text text-anchor="middle" x="595" y="-449.5" font-family="Helvetica,sans-Serif" font-size="10.00"> </text>
<polyline fill="none" stroke="#bfbfbf" points="567.5,-441.5 622.5,-441.5 "/>
<text text-anchor="middle" x="595" y="-428.5" font-family="Helvetica,sans-Serif" font-size="10.00"> </text>
</g>
<!-- Node10&#45;&gt;Node1 -->
<g id="edge20" class="edge"><title>Node10&#45;&gt;Node1</title>
<path fill="none" stroke="#404040" d="M598.621,-420.308C603.425,-369.864 609.134,-268.575 589,-186 588.439,-183.701 587.821,-181.393 587.153,-179.082"/>
<polygon fill="none" stroke="#404040" points="587.111,-178.952 581.458,-174.474 583.418,-167.534 589.07,-172.012 587.111,-178.952"/>
<text text-anchor="middle" x="621" y="-255.5" font-family="Helvetica,sans-Serif" font-size="10.00"> +m_api</text>
</g>
<!-- Node11 -->
<g id="node21" class="node"><title>Node11</title>
<polygon fill="white" stroke="#bfbfbf" points="639.5,-420.5 639.5,-483.5 750.5,-483.5 750.5,-420.5 639.5,-420.5"/>
<text text-anchor="middle" x="695" y="-470.5" font-family="Helvetica,sans-Serif" font-size="10.00">gs_config&lt; uint64_t &gt;</text>
<polyline fill="none" stroke="#bfbfbf" points="639.5,-462.5 750.5,-462.5 "/>
<text text-anchor="middle" x="695" y="-449.5" font-family="Helvetica,sans-Serif" font-size="10.00"> </text>
<polyline fill="none" stroke="#bfbfbf" points="639.5,-441.5 750.5,-441.5 "/>
<text text-anchor="middle" x="695" y="-428.5" font-family="Helvetica,sans-Serif" font-size="10.00"> </text>
</g>
<!-- Node11&#45;&gt;Node1 -->
<g id="edge22" class="edge"><title>Node11&#45;&gt;Node1</title>
<path fill="none" stroke="#404040" d="M694.772,-420.495C693.148,-368.559 684.505,-263.055 643,-186 635.855,-172.735 626.404,-160.121 616.106,-148.572"/>
<polygon fill="none" stroke="#404040" points="615.876,-148.325 608.859,-146.663 607.694,-139.546 614.711,-141.208 615.876,-148.325"/>
<text text-anchor="middle" x="712.5" y="-262" font-family="Helvetica,sans-Serif" font-size="10.00"> +dyn_reads</text>
<text text-anchor="middle" x="712.5" y="-249" font-family="Helvetica,sans-Serif" font-size="10.00">+dyn_writes</text>
</g>
<!-- Node12 -->
<g id="node23" class="node"><title>Node12</title>
<polygon fill="white" stroke="#bfbfbf" points="768,-414 768,-490 870,-490 870,-414 768,-414"/>
<text text-anchor="start" x="776" y="-477" font-family="Helvetica,sans-Serif" font-size="10.00">gs_config&lt; sc_core</text>
<text text-anchor="middle" x="819" y="-464" font-family="Helvetica,sans-Serif" font-size="10.00">::sc_time &gt;</text>
<polyline fill="none" stroke="#bfbfbf" points="768,-456 870,-456 "/>
<text text-anchor="middle" x="819" y="-443" font-family="Helvetica,sans-Serif" font-size="10.00"> </text>
<polyline fill="none" stroke="#bfbfbf" points="768,-435 870,-435 "/>
<text text-anchor="middle" x="819" y="-422" font-family="Helvetica,sans-Serif" font-size="10.00"> </text>
</g>
<!-- Node12&#45;&gt;Node1 -->
<g id="edge24" class="edge"><title>Node12&#45;&gt;Node1</title>
<path fill="none" stroke="#404040" d="M799.104,-413.956C787.544,-390.362 773.605,-359.097 765,-330 746.62,-267.85 780.276,-238.301 742,-186 712.385,-145.534 662.116,-120.103 619.013,-104.755"/>
<polygon fill="none" stroke="#404040" points="619.007,-104.753 612.036,-106.601 607.649,-100.878 614.619,-99.0299 619.007,-104.753"/>
<text text-anchor="middle" x="828.5" y="-255.5" font-family="Helvetica,sans-Serif" font-size="10.00"> +power_frame_starting_time</text>
</g>
<!-- Node13 -->
<g id="node25" class="node"><title>Node13</title>
<a xlink:href="classbool.html" target="_top" xlink:title="{bool\n||}">
<polygon fill="white" stroke="black" points="896.5,-420.5 896.5,-483.5 931.5,-483.5 931.5,-420.5 896.5,-420.5"/>
<text text-anchor="middle" x="914" y="-470.5" font-family="Helvetica,sans-Serif" font-size="10.00">bool</text>
<polyline fill="none" stroke="black" points="896.5,-462.5 931.5,-462.5 "/>
<text text-anchor="middle" x="914" y="-449.5" font-family="Helvetica,sans-Serif" font-size="10.00"> </text>
<polyline fill="none" stroke="black" points="896.5,-441.5 931.5,-441.5 "/>
<text text-anchor="middle" x="914" y="-428.5" font-family="Helvetica,sans-Serif" font-size="10.00"> </text>
</a>
</g>
<!-- Node13&#45;&gt;Node1 -->
<g id="edge26" class="edge"><title>Node13&#45;&gt;Node1</title>
<path fill="none" stroke="#404040" d="M913.374,-420.463C911.771,-353.92 906.567,-203.793 892,-186 857.594,-143.973 712.771,-112.726 619.648,-96.5126"/>
<polygon fill="none" stroke="#404040" points="619.542,-96.4945 612.953,-99.4236 607.714,-94.4676 614.304,-91.5385 619.542,-96.4945"/>
<text text-anchor="middle" x="942.5" y="-255.5" font-family="Helvetica,sans-Serif" font-size="10.00"> +m_pow_mon</text>
</g>
<!-- Node14 -->
<g id="node27" class="node"><title>Node14</title>
<polygon fill="white" stroke="#bfbfbf" points="949.5,-420.5 949.5,-483.5 1054.5,-483.5 1054.5,-420.5 949.5,-420.5"/>
<text text-anchor="middle" x="1002" y="-470.5" font-family="Helvetica,sans-Serif" font-size="10.00">gs_config&lt; double &gt;</text>
<polyline fill="none" stroke="#bfbfbf" points="949.5,-462.5 1054.5,-462.5 "/>
<text text-anchor="middle" x="1002" y="-449.5" font-family="Helvetica,sans-Serif" font-size="10.00"> </text>
<polyline fill="none" stroke="#bfbfbf" points="949.5,-441.5 1054.5,-441.5 "/>
<text text-anchor="middle" x="1002" y="-428.5" font-family="Helvetica,sans-Serif" font-size="10.00"> </text>
</g>
<!-- Node14&#45;&gt;Node1 -->
<g id="edge28" class="edge"><title>Node14&#45;&gt;Node1</title>
<path fill="none" stroke="#404040" d="M1009.9,-420.475C1021.59,-365.623 1036.41,-252.173 979,-186 932.703,-132.639 733.603,-103.863 619.734,-91.499"/>
<polygon fill="none" stroke="#404040" points="619.571,-91.4817 613.181,-94.8247 607.638,-90.2125 614.027,-86.8696 619.571,-91.4817"/>
<text text-anchor="middle" x="1061.5" y="-320.5" font-family="Helvetica,sans-Serif" font-size="10.00"> +swi_power</text>
<text text-anchor="middle" x="1061.5" y="-307.5" font-family="Helvetica,sans-Serif" font-size="10.00">+dyn_write_energy</text>
<text text-anchor="middle" x="1061.5" y="-294.5" font-family="Helvetica,sans-Serif" font-size="10.00">+dyn_read_energy</text>
<text text-anchor="start" x="1020" y="-281.5" font-family="Helvetica,sans-Serif" font-size="10.00">+dyn_write_energy</text>
<text text-anchor="middle" x="1061.5" y="-268.5" font-family="Helvetica,sans-Serif" font-size="10.00">_norm</text>
<text text-anchor="middle" x="1061.5" y="-255.5" font-family="Helvetica,sans-Serif" font-size="10.00">+sta_power</text>
<text text-anchor="middle" x="1061.5" y="-242.5" font-family="Helvetica,sans-Serif" font-size="10.00">+int_power_norm</text>
<text text-anchor="middle" x="1061.5" y="-229.5" font-family="Helvetica,sans-Serif" font-size="10.00">+sta_power_norm</text>
<text text-anchor="start" x="1020" y="-216.5" font-family="Helvetica,sans-Serif" font-size="10.00">+dyn_read_energy</text>
<text text-anchor="middle" x="1061.5" y="-203.5" font-family="Helvetica,sans-Serif" font-size="10.00">_norm</text>
<text text-anchor="middle" x="1061.5" y="-190.5" font-family="Helvetica,sans-Serif" font-size="10.00">+int_power</text>
</g>
</g>
</svg>
        <g id="navigator" transform="translate(0 0)" fill="#404254">
                <rect fill="#f2f5e9" fill-opacity="0.5" stroke="#606060" stroke-width=".5" x="0" y="0" width="60" height="60"/>
                <use id="zoomplus" xlink:href="#zoomPlus" x="17" y="9" onmousedown="handleZoom(evt,'in')"/>
                <use id="zoomminus" xlink:href="#zoomMin" x="42" y="9" onmousedown="handleZoom(evt,'out')"/>
                <use id="reset" xlink:href="#resetDef" x="30" y="36" onmousedown="handleReset()"/>
                <g id="arrowUp" xlink:href="#dirArrow" transform="translate(30 24)" onmousedown="handlePan(0,-1)">
                  <use xlink:href="#rim" fill="#404040">
                        <set attributeName="fill" to="#808080" begin="arrowUp.mouseover" end="arrowUp.mouseout"/>
                  </use>
                  <path fill="none" stroke="white" stroke-width="1.5" d="M0,-3.0v7 M-2.5,-0.5L0,-3.0L2.5,-0.5"/>
                </g>
                <g id="arrowRight" xlink:href="#dirArrow" transform="rotate(90) translate(36 -43)" onmousedown="handlePan(1,0)">
                  <use xlink:href="#rim" fill="#404040">
                        <set attributeName="fill" to="#808080" begin="arrowRight.mouseover" end="arrowRight.mouseout"/>
                  </use>
                  <path fill="none" stroke="white" stroke-width="1.5" d="M0,-3.0v7 M-2.5,-0.5L0,-3.0L2.5,-0.5"/>
                </g>
                <g id="arrowDown" xlink:href="#dirArrow" transform="rotate(180) translate(-30 -48)" onmousedown="handlePan(0,1)">
                  <use xlink:href="#rim" fill="#404040">
                        <set attributeName="fill" to="#808080" begin="arrowDown.mouseover" end="arrowDown.mouseout"/>
                  </use>
                  <path fill="none" stroke="white" stroke-width="1.5" d="M0,-3.0v7 M-2.5,-0.5L0,-3.0L2.5,-0.5"/>
                </g>
                <g id="arrowLeft" xlink:href="#dirArrow" transform="rotate(270) translate(-36 17)" onmousedown="handlePan(-1,0)">
                  <use xlink:href="#rim" fill="#404040">
                        <set attributeName="fill" to="#808080" begin="arrowLeft.mouseover" end="arrowLeft.mouseout"/>
                  </use>
                  <path fill="none" stroke="white" stroke-width="1.5" d="M0,-3.0v7 M-2.5,-0.5L0,-3.0L2.5,-0.5"/>
                </g>
        </g>
        <svg viewBox="0 0 15 15" width="100%" height="30px" preserveAspectRatio="xMaxYMin meet">
         <g id="arrow_out" transform="scale(0.3 0.3)">
          <a xlink:href="classMemoryPower__coll__graph_org.svg" target="_base">
           <rect id="button" ry="5" rx="5" y="6" x="6" height="38" width="38"
                fill="#f2f5e9" fill-opacity="0.5" stroke="#606060" stroke-width="1.0"/>
           <path id="arrow"
             d="M 11.500037,31.436501 C 11.940474,20.09759 22.043105,11.32322 32.158766,21.979434 L 37.068811,17.246167 C 37.068811,17.246167 37.088388,32 37.088388,32 L 22.160133,31.978069 C 22.160133,31.978069 26.997745,27.140456 26.997745,27.140456 C 18.528582,18.264221 13.291696,25.230495 11.500037,31.436501 z"
             style="fill:#404040;"/>
          </a>
         </g>
        </svg>
</svg>
