<?xml version="1.0" encoding="UTF-8" standalone="no"?>
<!DOCTYPE svg PUBLIC "-//W3C//DTD SVG 1.1//EN"
 "http://www.w3.org/Graphics/SVG/1.1/DTD/svg11.dtd">
<!-- Generated by graphviz version 2.38.0 (20140413.2041)
 -->
<!-- Title: leon3_funclt_trap::Processor_leon3_funclt::Processor_leon3_funclt Pages: 1 -->
<!--zoomable 391 -->
<svg id="main" version="1.1" xmlns="http://www.w3.org/2000/svg" xmlns:xlink="http://www.w3.org/1999/xlink" xml:space="preserve" onload="init(evt)">
<style type="text/css"><![CDATA[
.edge:hover path { stroke: red; }
.edge:hover polygon { stroke: red; fill: red; }
]]></style>
<script type="text/javascript"><![CDATA[
var edges = document.getElementsByTagName('g');
if (edges && edges.length) {
  for (var i=0;i<edges.length;i++) {
    if (edges[i].id.substr(0,4)=='edge') {
      edges[i].setAttribute('class','edge');
    }
  }
}
]]></script>
        <defs>
                <circle id="rim" cx="0" cy="0" r="7"/>
                <circle id="rim2" cx="0" cy="0" r="3.5"/>
                <g id="zoomPlus">
                        <use xlink:href="#rim" fill="#404040">
                                <set attributeName="fill" to="#808080" begin="zoomplus.mouseover" end="zoomplus.mouseout"/>
                        </use>
                        <path d="M-4,0h8M0,-4v8" fill="none" stroke="white" stroke-width="1.5" pointer-events="none"/>
                </g>
                <g id="zoomMin">
                        <use xlink:href="#rim" fill="#404040">
                                <set attributeName="fill" to="#808080" begin="zoomminus.mouseover" end="zoomminus.mouseout"/>
                        </use>
                        <path d="M-4,0h8" fill="none" stroke="white" stroke-width="1.5" pointer-events="none"/>
                </g>
                <g id="dirArrow">
                        <path fill="none" stroke="white" stroke-width="1.5" d="M0,-3.0v7 M-2.5,-0.5L0,-3.0L2.5,-0.5"/>
                </g>
               <g id="resetDef">
                       <use xlink:href="#rim2" fill="#404040">
                               <set attributeName="fill" to="#808080" begin="reset.mouseover" end="reset.mouseout"/>
                       </use>
               </g>
        </defs>

<script type="text/javascript">
var viewWidth = 538;
var viewHeight = 391;
var sectionId = 'dynsection-2';
</script>
<script xlink:href="svgpan.js"/>
<svg id="graph" class="graph">
<g id="viewport">
<title>leon3_funclt_trap::Processor_leon3_funclt::Processor_leon3_funclt</title>
<polygon fill="white" stroke="none" points="-4,4 -4,-387 533.634,-387 533.634,4 -4,4"/>
<!-- Node1 -->
<g id="node1" class="node"><title>Node1</title>
<polygon fill="#bfbfbf" stroke="black" points="0,-156.5 0,-194.5 126.063,-194.5 126.063,-156.5 0,-156.5"/>
<text text-anchor="start" x="8" y="-182.5" font-family="Helvetica,sans-Serif" font-size="10.00">leon3_funclt_trap::</text>
<text text-anchor="start" x="8" y="-172.5" font-family="Helvetica,sans-Serif" font-size="10.00">Processor_leon3_funclt</text>
<text text-anchor="middle" x="63.0317" y="-162.5" font-family="Helvetica,sans-Serif" font-size="10.00">::Processor_leon3_funclt</text>
</g>
<!-- Node2 -->
<g id="node2" class="node"><title>Node2</title>
<g id="a_node2"><a xlink:href="classleon3__funclt__trap_1_1Processor__leon3__funclt.html#aae188e80bf6392a32fab0258029cb60e" target="_top" xlink:title="leon3_funclt_trap::\lProcessor_leon3_funclt\l::int_power_cb">
<polygon fill="white" stroke="black" points="190.396,-312.5 190.396,-350.5 310.903,-350.5 310.903,-312.5 190.396,-312.5"/>
<text text-anchor="start" x="198.396" y="-338.5" font-family="Helvetica,sans-Serif" font-size="10.00">leon3_funclt_trap::</text>
<text text-anchor="start" x="198.396" y="-328.5" font-family="Helvetica,sans-Serif" font-size="10.00">Processor_leon3_funclt</text>
<text text-anchor="middle" x="250.649" y="-318.5" font-family="Helvetica,sans-Serif" font-size="10.00">::int_power_cb</text>
</a>
</g>
</g>
<!-- Node1&#45;&gt;Node2 -->
<g id="edge1" class="edge"><title>Node1&#45;&gt;Node2</title>
<path fill="none" stroke="midnightblue" d="M73.6762,-194.513C88.7829,-222.427 120.634,-274.339 162.063,-303.5 167.897,-307.606 174.363,-311.132 181.063,-314.155"/>
<polygon fill="midnightblue" stroke="midnightblue" points="179.727,-317.39 190.306,-317.973 182.4,-310.92 179.727,-317.39"/>
</g>
<!-- Node3 -->
<g id="node3" class="node"><title>Node3</title>
<g id="a_node3"><a xlink:href="classleon3__funclt__trap_1_1Processor__leon3__funclt.html#aa236872038d2d898e9a685e61800b644" target="_top" xlink:title="leon3_funclt_trap::\lProcessor_leon3_funclt\l::mainLoop">
<polygon fill="white" stroke="black" points="190.396,-255.5 190.396,-293.5 310.903,-293.5 310.903,-255.5 190.396,-255.5"/>
<text text-anchor="start" x="198.396" y="-281.5" font-family="Helvetica,sans-Serif" font-size="10.00">leon3_funclt_trap::</text>
<text text-anchor="start" x="198.396" y="-271.5" font-family="Helvetica,sans-Serif" font-size="10.00">Processor_leon3_funclt</text>
<text text-anchor="middle" x="250.649" y="-261.5" font-family="Helvetica,sans-Serif" font-size="10.00">::mainLoop</text>
</a>
</g>
</g>
<!-- Node1&#45;&gt;Node3 -->
<g id="edge2" class="edge"><title>Node1&#45;&gt;Node3</title>
<path fill="none" stroke="midnightblue" d="M86.0665,-194.622C105.112,-210.346 133.933,-232.277 162.063,-246.5 167.998,-249.501 174.32,-252.266 180.747,-254.793"/>
<polygon fill="midnightblue" stroke="midnightblue" points="179.612,-258.106 190.205,-258.326 182.061,-251.548 179.612,-258.106"/>
</g>
<!-- Node9 -->
<g id="node9" class="node"><title>Node9</title>
<g id="a_node9"><a xlink:href="classleon3__funclt__trap_1_1RegisterBankClass.html#a8a96bdf3398d825906e3bd028b74af42" target="_top" xlink:title="leon3_funclt_trap::\lRegisterBankClass::setNewRegister">
<polygon fill="white" stroke="black" points="162.063,-208.5 162.063,-236.5 339.235,-236.5 339.235,-208.5 162.063,-208.5"/>
<text text-anchor="start" x="170.063" y="-224.5" font-family="Helvetica,sans-Serif" font-size="10.00">leon3_funclt_trap::</text>
<text text-anchor="middle" x="250.649" y="-214.5" font-family="Helvetica,sans-Serif" font-size="10.00">RegisterBankClass::setNewRegister</text>
</a>
</g>
</g>
<!-- Node1&#45;&gt;Node9 -->
<g id="edge8" class="edge"><title>Node1&#45;&gt;Node9</title>
<path fill="none" stroke="midnightblue" d="M126.098,-191.216C144.855,-195.965 165.501,-201.193 184.456,-205.992"/>
<polygon fill="midnightblue" stroke="midnightblue" points="183.642,-209.397 194.195,-208.459 185.36,-202.611 183.642,-209.397"/>
</g>
<!-- Node10 -->
<g id="node10" class="node"><title>Node10</title>
<g id="a_node10"><a xlink:href="classleon3__funclt__trap_1_1RegisterBankClass.html#a020ea3ce4e960feb499199807a909f6b" target="_top" xlink:title="leon3_funclt_trap::\lRegisterBankClass::setSize">
<polygon fill="white" stroke="black" points="180.958,-161.5 180.958,-189.5 320.341,-189.5 320.341,-161.5 180.958,-161.5"/>
<text text-anchor="start" x="188.958" y="-177.5" font-family="Helvetica,sans-Serif" font-size="10.00">leon3_funclt_trap::</text>
<text text-anchor="middle" x="250.649" y="-167.5" font-family="Helvetica,sans-Serif" font-size="10.00">RegisterBankClass::setSize</text>
</a>
</g>
</g>
<!-- Node1&#45;&gt;Node10 -->
<g id="edge9" class="edge"><title>Node1&#45;&gt;Node10</title>
<path fill="none" stroke="midnightblue" d="M126.098,-175.5C140.398,-175.5 155.796,-175.5 170.706,-175.5"/>
<polygon fill="midnightblue" stroke="midnightblue" points="170.93,-179 180.93,-175.5 170.93,-172 170.93,-179"/>
</g>
<!-- Node11 -->
<g id="node11" class="node"><title>Node11</title>
<g id="a_node11"><a xlink:href="classleon3__funclt__trap_1_1Processor__leon3__funclt.html#a5d464ae38e3c788b7f1c5b8dd1751129" target="_top" xlink:title="leon3_funclt_trap::\lProcessor_leon3_funclt\l::sta_power_cb">
<polygon fill="white" stroke="black" points="190.396,-104.5 190.396,-142.5 310.903,-142.5 310.903,-104.5 190.396,-104.5"/>
<text text-anchor="start" x="198.396" y="-130.5" font-family="Helvetica,sans-Serif" font-size="10.00">leon3_funclt_trap::</text>
<text text-anchor="start" x="198.396" y="-120.5" font-family="Helvetica,sans-Serif" font-size="10.00">Processor_leon3_funclt</text>
<text text-anchor="middle" x="250.649" y="-110.5" font-family="Helvetica,sans-Serif" font-size="10.00">::sta_power_cb</text>
</a>
</g>
</g>
<!-- Node1&#45;&gt;Node11 -->
<g id="edge10" class="edge"><title>Node1&#45;&gt;Node11</title>
<path fill="none" stroke="midnightblue" d="M126.098,-158.112C143.527,-153.23 162.587,-147.89 180.406,-142.898"/>
<polygon fill="midnightblue" stroke="midnightblue" points="181.474,-146.234 190.159,-140.166 179.585,-139.493 181.474,-146.234"/>
</g>
<!-- Node12 -->
<g id="node12" class="node"><title>Node12</title>
<g id="a_node12"><a xlink:href="classleon3__funclt__trap_1_1Processor__leon3__funclt.html#a04bd340d9e3267014abc48705d7c2afc" target="_top" xlink:title="leon3_funclt_trap::\lProcessor_leon3_funclt\l::swi_power_cb">
<polygon fill="white" stroke="black" points="190.396,-47.5 190.396,-85.5 310.903,-85.5 310.903,-47.5 190.396,-47.5"/>
<text text-anchor="start" x="198.396" y="-73.5" font-family="Helvetica,sans-Serif" font-size="10.00">leon3_funclt_trap::</text>
<text text-anchor="start" x="198.396" y="-63.5" font-family="Helvetica,sans-Serif" font-size="10.00">Processor_leon3_funclt</text>
<text text-anchor="middle" x="250.649" y="-53.5" font-family="Helvetica,sans-Serif" font-size="10.00">::swi_power_cb</text>
</a>
</g>
</g>
<!-- Node1&#45;&gt;Node12 -->
<g id="edge11" class="edge"><title>Node1&#45;&gt;Node12</title>
<path fill="none" stroke="midnightblue" d="M82.6727,-156.33C101.284,-138.158 131.451,-111.223 162.063,-94.5 167.899,-91.3119 174.155,-88.42 180.54,-85.8122"/>
<polygon fill="midnightblue" stroke="midnightblue" points="181.874,-89.0491 189.952,-82.1935 179.362,-82.5153 181.874,-89.0491"/>
</g>
<!-- Node13 -->
<g id="node13" class="node"><title>Node13</title>
<g id="a_node13"><a xlink:href="classleon3__funclt__trap_1_1Alias.html#ae2d59e78e59aa01755d057a02e78fe3c" target="_top" xlink:title="leon3_funclt_trap::\lAlias::updateAlias">
<polygon fill="white" stroke="black" points="201.509,-0.5 201.509,-28.5 299.79,-28.5 299.79,-0.5 201.509,-0.5"/>
<text text-anchor="start" x="209.509" y="-16.5" font-family="Helvetica,sans-Serif" font-size="10.00">leon3_funclt_trap::</text>
<text text-anchor="middle" x="250.649" y="-6.5" font-family="Helvetica,sans-Serif" font-size="10.00">Alias::updateAlias</text>
</a>
</g>
</g>
<!-- Node1&#45;&gt;Node13 -->
<g id="edge12" class="edge"><title>Node1&#45;&gt;Node13</title>
<path fill="none" stroke="midnightblue" d="M72.3786,-156.19C86.4018,-126.09 117.586,-68.254 162.063,-37.5 170.785,-31.4695 180.99,-27.0201 191.292,-23.7373"/>
<polygon fill="midnightblue" stroke="midnightblue" points="192.492,-27.035 201.154,-20.9338 190.578,-20.3018 192.492,-27.035"/>
</g>
<!-- Node4 -->
<g id="node4" class="node"><title>Node4</title>
<g id="a_node4"><a xlink:href="classleon3__funclt__trap_1_1Instruction.html#a5ee0c32a3a7e5aced35a5c8aa3cb784e" target="_top" xlink:title="Returns the instruction name. ">
<polygon fill="white" stroke="black" points="375.235,-354.5 375.235,-382.5 529.634,-382.5 529.634,-354.5 375.235,-354.5"/>
<text text-anchor="start" x="383.235" y="-370.5" font-family="Helvetica,sans-Serif" font-size="10.00">leon3_funclt_trap::</text>
<text text-anchor="middle" x="452.435" y="-360.5" font-family="Helvetica,sans-Serif" font-size="10.00">Instruction::getInstructionName</text>
</a>
</g>
</g>
<!-- Node3&#45;&gt;Node4 -->
<g id="edge3" class="edge"><title>Node3&#45;&gt;Node4</title>
<path fill="none" stroke="midnightblue" d="M311.185,-289.33C320.992,-293.12 330.723,-297.788 339.235,-303.5 359.651,-317.198 354.639,-332.075 375.235,-345.5 377.815,-347.181 380.522,-348.744 383.316,-350.196"/>
<polygon fill="midnightblue" stroke="midnightblue" points="381.94,-353.416 392.482,-354.468 384.897,-347.071 381.94,-353.416"/>
</g>
<!-- Node5 -->
<g id="node5" class="node"><title>Node5</title>
<g id="a_node5"><a xlink:href="classleon3__funclt__trap_1_1Instruction.html#a91f3cb16378baf674ffc4c8e9adca731" target="_top" xlink:title="leon3_funclt_trap::\lInstruction::getMnemonic">
<polygon fill="white" stroke="black" points="388.575,-307.5 388.575,-335.5 516.294,-335.5 516.294,-307.5 388.575,-307.5"/>
<text text-anchor="start" x="396.575" y="-323.5" font-family="Helvetica,sans-Serif" font-size="10.00">leon3_funclt_trap::</text>
<text text-anchor="middle" x="452.435" y="-313.5" font-family="Helvetica,sans-Serif" font-size="10.00">Instruction::getMnemonic</text>
</a>
</g>
</g>
<!-- Node3&#45;&gt;Node5 -->
<g id="edge4" class="edge"><title>Node3&#45;&gt;Node5</title>
<path fill="none" stroke="midnightblue" d="M311.051,-288.474C333.394,-293.731 358.99,-299.752 382.155,-305.202"/>
<polygon fill="midnightblue" stroke="midnightblue" points="381.381,-308.615 391.917,-307.498 382.985,-301.801 381.381,-308.615"/>
</g>
<!-- Node6 -->
<g id="node6" class="node"><title>Node6</title>
<g id="a_node6"><a xlink:href="classleon3__funclt__trap_1_1Instruction.html#ae0b978f3e6424cf60c8baf54a35c9269" target="_top" xlink:title="leon3_funclt_trap::\lInstruction::behavior">
<polygon fill="white" stroke="black" points="399.41,-260.5 399.41,-288.5 505.459,-288.5 505.459,-260.5 399.41,-260.5"/>
<text text-anchor="start" x="407.41" y="-276.5" font-family="Helvetica,sans-Serif" font-size="10.00">leon3_funclt_trap::</text>
<text text-anchor="middle" x="452.435" y="-266.5" font-family="Helvetica,sans-Serif" font-size="10.00">Instruction::behavior</text>
</a>
</g>
</g>
<!-- Node3&#45;&gt;Node6 -->
<g id="edge5" class="edge"><title>Node3&#45;&gt;Node6</title>
<path fill="none" stroke="midnightblue" d="M311.051,-274.5C335.717,-274.5 364.349,-274.5 389.297,-274.5"/>
<polygon fill="midnightblue" stroke="midnightblue" points="389.379,-278 399.379,-274.5 389.379,-271 389.379,-278"/>
</g>
<!-- Node7 -->
<g id="node7" class="node"><title>Node7</title>
<g id="a_node7"><a xlink:href="classleon3__funclt__trap_1_1Instruction.html#abdeaab006561d74c7fb624bb70d09a98" target="_top" xlink:title="leon3_funclt_trap::\lInstruction::setParams">
<polygon fill="white" stroke="black" points="394.693,-213.5 394.693,-241.5 510.176,-241.5 510.176,-213.5 394.693,-213.5"/>
<text text-anchor="start" x="402.693" y="-229.5" font-family="Helvetica,sans-Serif" font-size="10.00">leon3_funclt_trap::</text>
<text text-anchor="middle" x="452.435" y="-219.5" font-family="Helvetica,sans-Serif" font-size="10.00">Instruction::setParams</text>
</a>
</g>
</g>
<!-- Node3&#45;&gt;Node7 -->
<g id="edge6" class="edge"><title>Node3&#45;&gt;Node7</title>
<path fill="none" stroke="midnightblue" d="M311.051,-260.526C334.199,-255.08 360.839,-248.813 384.649,-243.211"/>
<polygon fill="midnightblue" stroke="midnightblue" points="385.73,-246.553 394.662,-240.856 384.126,-239.739 385.73,-246.553"/>
</g>
<!-- Node8 -->
<g id="node8" class="node"><title>Node8</title>
<g id="a_node8"><a xlink:href="classleon3__funclt__trap_1_1Instruction.html#a622033db3d9beec65e8ad46999325abb" target="_top" xlink:title="leon3_funclt_trap::\lInstruction::replicate">
<polygon fill="white" stroke="black" points="399.691,-166.5 399.691,-194.5 505.178,-194.5 505.178,-166.5 399.691,-166.5"/>
<text text-anchor="start" x="407.691" y="-182.5" font-family="Helvetica,sans-Serif" font-size="10.00">leon3_funclt_trap::</text>
<text text-anchor="middle" x="452.435" y="-172.5" font-family="Helvetica,sans-Serif" font-size="10.00">Instruction::replicate</text>
</a>
</g>
</g>
<!-- Node3&#45;&gt;Node8 -->
<g id="edge7" class="edge"><title>Node3&#45;&gt;Node8</title>
<path fill="none" stroke="midnightblue" d="M311.183,-260.407C320.991,-256.723 330.722,-252.149 339.235,-246.5 359.722,-232.908 354.72,-218.048 375.235,-204.5 379.865,-201.443 384.908,-198.755 390.122,-196.396"/>
<polygon fill="midnightblue" stroke="midnightblue" points="391.715,-199.526 399.641,-192.495 389.061,-193.048 391.715,-199.526"/>
</g>
</g>
</svg>
        <g id="navigator" transform="translate(0 0)" fill="#404254">
                <rect fill="#f2f5e9" fill-opacity="0.5" stroke="#606060" stroke-width=".5" x="0" y="0" width="60" height="60"/>
                <use id="zoomplus" xlink:href="#zoomPlus" x="17" y="9" onmousedown="handleZoom(evt,'in')"/>
                <use id="zoomminus" xlink:href="#zoomMin" x="42" y="9" onmousedown="handleZoom(evt,'out')"/>
                <use id="reset" xlink:href="#resetDef" x="30" y="36" onmousedown="handleReset()"/>
                <g id="arrowUp" xlink:href="#dirArrow" transform="translate(30 24)" onmousedown="handlePan(0,-1)">
                  <use xlink:href="#rim" fill="#404040">
                        <set attributeName="fill" to="#808080" begin="arrowUp.mouseover" end="arrowUp.mouseout"/>
                  </use>
                  <path fill="none" stroke="white" stroke-width="1.5" d="M0,-3.0v7 M-2.5,-0.5L0,-3.0L2.5,-0.5"/>
                </g>
                <g id="arrowRight" xlink:href="#dirArrow" transform="rotate(90) translate(36 -43)" onmousedown="handlePan(1,0)">
                  <use xlink:href="#rim" fill="#404040">
                        <set attributeName="fill" to="#808080" begin="arrowRight.mouseover" end="arrowRight.mouseout"/>
                  </use>
                  <path fill="none" stroke="white" stroke-width="1.5" d="M0,-3.0v7 M-2.5,-0.5L0,-3.0L2.5,-0.5"/>
                </g>
                <g id="arrowDown" xlink:href="#dirArrow" transform="rotate(180) translate(-30 -48)" onmousedown="handlePan(0,1)">
                  <use xlink:href="#rim" fill="#404040">
                        <set attributeName="fill" to="#808080" begin="arrowDown.mouseover" end="arrowDown.mouseout"/>
                  </use>
                  <path fill="none" stroke="white" stroke-width="1.5" d="M0,-3.0v7 M-2.5,-0.5L0,-3.0L2.5,-0.5"/>
                </g>
                <g id="arrowLeft" xlink:href="#dirArrow" transform="rotate(270) translate(-36 17)" onmousedown="handlePan(-1,0)">
                  <use xlink:href="#rim" fill="#404040">
                        <set attributeName="fill" to="#808080" begin="arrowLeft.mouseover" end="arrowLeft.mouseout"/>
                  </use>
                  <path fill="none" stroke="white" stroke-width="1.5" d="M0,-3.0v7 M-2.5,-0.5L0,-3.0L2.5,-0.5"/>
                </g>
        </g>
        <svg viewBox="0 0 15 15" width="100%" height="30px" preserveAspectRatio="xMaxYMin meet">
         <g id="arrow_out" transform="scale(0.3 0.3)">
          <a xlink:href="classleon3__funclt__trap_1_1Processor__leon3__funclt_a63f2aee4d33f0b7b874c05af834552df_cgraph_org.svg" target="_base">
           <rect id="button" ry="5" rx="5" y="6" x="6" height="38" width="38"
                fill="#f2f5e9" fill-opacity="0.5" stroke="#606060" stroke-width="1.0"/>
           <path id="arrow"
             d="M 11.500037,31.436501 C 11.940474,20.09759 22.043105,11.32322 32.158766,21.979434 L 37.068811,17.246167 C 37.068811,17.246167 37.088388,32 37.088388,32 L 22.160133,31.978069 C 22.160133,31.978069 26.997745,27.140456 26.997745,27.140456 C 18.528582,18.264221 13.291696,25.230495 11.500037,31.436501 z"
             style="fill:#404040;"/>
          </a>
         </g>
        </svg>
</svg>
