<?xml version="1.0" encoding="UTF-8" standalone="no"?>
<!DOCTYPE svg PUBLIC "-//W3C//DTD SVG 1.1//EN"
 "http://www.w3.org/Graphics/SVG/1.1/DTD/svg11.dtd">
<!-- Generated by graphviz version 2.38.0 (20140413.2041)
 -->
<!-- Title: core.waf.wizard.Generate Pages: 1 -->
<svg width="138pt" height="164pt"
 viewBox="0.00 0.00 137.94 164.00" xmlns="http://www.w3.org/2000/svg" xmlns:xlink="http://www.w3.org/1999/xlink">
<g id="graph0" class="graph" transform="scale(1 1) rotate(0) translate(4 160)">
<title>core.waf.wizard.Generate</title>
<polygon fill="white" stroke="none" points="-4,4 -4,-160 133.94,-160 133.94,4 -4,4"/>
<!-- Node1 -->
<g id="node1" class="node"><title>Node1</title>
<polygon fill="#bfbfbf" stroke="black" points="0,-0.5 0,-64.5 129.94,-64.5 129.94,-0.5 0,-0.5"/>
<text text-anchor="middle" x="64.9702" y="-52.5" font-family="Helvetica,sans-Serif" font-size="10.00">core.waf.wizard.Generate</text>
<polyline fill="none" stroke="black" points="0,-46.5 129.94,-46.5 "/>
<text text-anchor="start" x="8" y="-34.5" font-family="Helvetica,sans-Serif" font-size="10.00">+ cmd</text>
<text text-anchor="start" x="8" y="-24.5" font-family="Helvetica,sans-Serif" font-size="10.00">+ fun</text>
<polyline fill="none" stroke="black" points="0,-18.5 129.94,-18.5 "/>
<text text-anchor="middle" x="64.9702" y="-6.5" font-family="Helvetica,sans-Serif" font-size="10.00"> </text>
</g>
<!-- Node2 -->
<g id="node2" class="node"><title>Node2</title>
<polygon fill="white" stroke="#bfbfbf" points="28.6206,-101.5 28.6206,-155.5 101.32,-155.5 101.32,-101.5 28.6206,-101.5"/>
<text text-anchor="middle" x="64.9702" y="-143.5" font-family="Helvetica,sans-Serif" font-size="10.00">BuildContext</text>
<polyline fill="none" stroke="#bfbfbf" points="28.6206,-137.5 101.32,-137.5 "/>
<text text-anchor="middle" x="64.9702" y="-125.5" font-family="Helvetica,sans-Serif" font-size="10.00"> </text>
<polyline fill="none" stroke="#bfbfbf" points="28.6206,-119.5 101.32,-119.5 "/>
<text text-anchor="middle" x="64.9702" y="-107.5" font-family="Helvetica,sans-Serif" font-size="10.00"> </text>
</g>
<!-- Node2&#45;&gt;Node1 -->
<g id="edge1" class="edge"><title>Node2&#45;&gt;Node1</title>
<path fill="none" stroke="midnightblue" d="M64.9702,-91.2838C64.9702,-82.4601 64.9702,-73.1003 64.9702,-64.5417"/>
<polygon fill="none" stroke="midnightblue" points="61.4703,-91.3157 64.9702,-101.316 68.4703,-91.3158 61.4703,-91.3157"/>
</g>
</g>
</svg>
