<?xml version="1.0" encoding="UTF-8" standalone="no"?>
<!DOCTYPE svg PUBLIC "-//W3C//DTD SVG 1.1//EN"
 "http://www.w3.org/Graphics/SVG/1.1/DTD/svg11.dtd">
<!-- Generated by graphviz version 2.38.0 (20140413.2041)
 -->
<!-- Title: leon3_funclt_trap::XORcc_reg Pages: 1 -->
<svg width="246pt" height="716pt"
 viewBox="0.00 0.00 245.94 716.00" xmlns="http://www.w3.org/2000/svg" xmlns:xlink="http://www.w3.org/1999/xlink">
<g id="graph0" class="graph" transform="scale(1 1) rotate(0) translate(4 712)">
<title>leon3_funclt_trap::XORcc_reg</title>
<polygon fill="white" stroke="none" points="-4,4 -4,-712 241.943,-712 241.943,4 -4,4"/>
<!-- Node1 -->
<g id="node1" class="node"><title>Node1</title>
<polygon fill="#bfbfbf" stroke="black" points="65.8091,-0.5 65.8091,-154.5 183.796,-154.5 183.796,-0.5 65.8091,-0.5"/>
<text text-anchor="start" x="73.8091" y="-142.5" font-family="Helvetica,sans-Serif" font-size="10.00">leon3_funclt_trap::</text>
<text text-anchor="middle" x="124.803" y="-132.5" font-family="Helvetica,sans-Serif" font-size="10.00">XORcc_reg</text>
<polyline fill="none" stroke="black" points="65.8091,-126.5 183.796,-126.5 "/>
<text text-anchor="start" x="73.8091" y="-114.5" font-family="Helvetica,sans-Serif" font-size="10.00"># result</text>
<text text-anchor="start" x="73.8091" y="-104.5" font-family="Helvetica,sans-Serif" font-size="10.00"># rs1_op</text>
<text text-anchor="start" x="73.8091" y="-94.5" font-family="Helvetica,sans-Serif" font-size="10.00"># rs2_op</text>
<polyline fill="none" stroke="black" points="65.8091,-88.5 183.796,-88.5 "/>
<text text-anchor="start" x="73.8091" y="-76.5" font-family="Helvetica,sans-Serif" font-size="10.00">+ XORcc_reg()</text>
<text text-anchor="start" x="73.8091" y="-66.5" font-family="Helvetica,sans-Serif" font-size="10.00">+ behavior()</text>
<text text-anchor="start" x="73.8091" y="-56.5" font-family="Helvetica,sans-Serif" font-size="10.00">+ replicate()</text>
<text text-anchor="start" x="73.8091" y="-46.5" font-family="Helvetica,sans-Serif" font-size="10.00">+ getInstructionName()</text>
<text text-anchor="start" x="73.8091" y="-36.5" font-family="Helvetica,sans-Serif" font-size="10.00">+ getId()</text>
<text text-anchor="start" x="73.8091" y="-26.5" font-family="Helvetica,sans-Serif" font-size="10.00">+ setParams()</text>
<text text-anchor="start" x="73.8091" y="-16.5" font-family="Helvetica,sans-Serif" font-size="10.00">+ getMnemonic()</text>
<text text-anchor="start" x="73.8091" y="-6.5" font-family="Helvetica,sans-Serif" font-size="10.00">+ ~XORcc_reg()</text>
</g>
<!-- Node2 -->
<g id="node2" class="node"><title>Node2</title>
<g id="a_node2"><a xlink:href="classleon3__funclt__trap_1_1ICC__writeLogic__op.html" target="_top" xlink:title="{leon3_funclt_trap::\lICC_writeLogic_op\n||+ ICC_writeLogic_op()\l+ ~ICC_writeLogic_op()\l# ICC_writeLogic()\l}">
<polygon fill="white" stroke="black" points="0,-191.5 0,-275.5 121.605,-275.5 121.605,-191.5 0,-191.5"/>
<text text-anchor="start" x="8" y="-263.5" font-family="Helvetica,sans-Serif" font-size="10.00">leon3_funclt_trap::</text>
<text text-anchor="middle" x="60.8027" y="-253.5" font-family="Helvetica,sans-Serif" font-size="10.00">ICC_writeLogic_op</text>
<polyline fill="none" stroke="black" points="0,-247.5 121.605,-247.5 "/>
<text text-anchor="middle" x="60.8027" y="-235.5" font-family="Helvetica,sans-Serif" font-size="10.00"> </text>
<polyline fill="none" stroke="black" points="0,-229.5 121.605,-229.5 "/>
<text text-anchor="start" x="8" y="-217.5" font-family="Helvetica,sans-Serif" font-size="10.00">+ ICC_writeLogic_op()</text>
<text text-anchor="start" x="8" y="-207.5" font-family="Helvetica,sans-Serif" font-size="10.00">+ ~ICC_writeLogic_op()</text>
<text text-anchor="start" x="8" y="-197.5" font-family="Helvetica,sans-Serif" font-size="10.00"># ICC_writeLogic()</text>
</a>
</g>
</g>
<!-- Node2&#45;&gt;Node1 -->
<g id="edge1" class="edge"><title>Node2&#45;&gt;Node1</title>
<path fill="none" stroke="midnightblue" d="M81.8066,-181.96C85.4452,-173.204 89.2998,-163.929 93.1477,-154.67"/>
<polygon fill="none" stroke="midnightblue" points="78.5592,-180.653 77.9536,-191.231 85.0233,-183.34 78.5592,-180.653"/>
</g>
<!-- Node3 -->
<g id="node3" class="node"><title>Node3</title>
<g id="a_node3"><a xlink:href="classleon3__funclt__trap_1_1Instruction.html" target="_top" xlink:title="{leon3_funclt_trap::\lInstruction\n|+ totalInstrCycles\l# PSR\l# WIM\l# TBR\l# Y\l# PC\l# NPC\l# GLOBAL\l# WINREGS\l# ASR\l# FP\land 9 more...\l|+ Instruction()\l+ behavior()\l+ replicate()\l+ setParams()\l+ getInstructionName()\l+ getMnemonic()\l+ getId()\l+ annull()\l+ flush()\l+ stall()\land 7 more...\l# IncrementPC()\l}">
<polygon fill="white" stroke="black" points="65.8091,-312.5 65.8091,-596.5 183.796,-596.5 183.796,-312.5 65.8091,-312.5"/>
<text text-anchor="start" x="73.8091" y="-584.5" font-family="Helvetica,sans-Serif" font-size="10.00">leon3_funclt_trap::</text>
<text text-anchor="middle" x="124.803" y="-574.5" font-family="Helvetica,sans-Serif" font-size="10.00">Instruction</text>
<polyline fill="none" stroke="black" points="65.8091,-568.5 183.796,-568.5 "/>
<text text-anchor="start" x="73.8091" y="-556.5" font-family="Helvetica,sans-Serif" font-size="10.00">+ totalInstrCycles</text>
<text text-anchor="start" x="73.8091" y="-546.5" font-family="Helvetica,sans-Serif" font-size="10.00"># PSR</text>
<text text-anchor="start" x="73.8091" y="-536.5" font-family="Helvetica,sans-Serif" font-size="10.00"># WIM</text>
<text text-anchor="start" x="73.8091" y="-526.5" font-family="Helvetica,sans-Serif" font-size="10.00"># TBR</text>
<text text-anchor="start" x="73.8091" y="-516.5" font-family="Helvetica,sans-Serif" font-size="10.00"># Y</text>
<text text-anchor="start" x="73.8091" y="-506.5" font-family="Helvetica,sans-Serif" font-size="10.00"># PC</text>
<text text-anchor="start" x="73.8091" y="-496.5" font-family="Helvetica,sans-Serif" font-size="10.00"># NPC</text>
<text text-anchor="start" x="73.8091" y="-486.5" font-family="Helvetica,sans-Serif" font-size="10.00"># GLOBAL</text>
<text text-anchor="start" x="73.8091" y="-476.5" font-family="Helvetica,sans-Serif" font-size="10.00"># WINREGS</text>
<text text-anchor="start" x="73.8091" y="-466.5" font-family="Helvetica,sans-Serif" font-size="10.00"># ASR</text>
<text text-anchor="start" x="73.8091" y="-456.5" font-family="Helvetica,sans-Serif" font-size="10.00"># FP</text>
<text text-anchor="start" x="73.8091" y="-446.5" font-family="Helvetica,sans-Serif" font-size="10.00">and 9 more...</text>
<polyline fill="none" stroke="black" points="65.8091,-440.5 183.796,-440.5 "/>
<text text-anchor="start" x="73.8091" y="-428.5" font-family="Helvetica,sans-Serif" font-size="10.00">+ Instruction()</text>
<text text-anchor="start" x="73.8091" y="-418.5" font-family="Helvetica,sans-Serif" font-size="10.00">+ behavior()</text>
<text text-anchor="start" x="73.8091" y="-408.5" font-family="Helvetica,sans-Serif" font-size="10.00">+ replicate()</text>
<text text-anchor="start" x="73.8091" y="-398.5" font-family="Helvetica,sans-Serif" font-size="10.00">+ setParams()</text>
<text text-anchor="start" x="73.8091" y="-388.5" font-family="Helvetica,sans-Serif" font-size="10.00">+ getInstructionName()</text>
<text text-anchor="start" x="73.8091" y="-378.5" font-family="Helvetica,sans-Serif" font-size="10.00">+ getMnemonic()</text>
<text text-anchor="start" x="73.8091" y="-368.5" font-family="Helvetica,sans-Serif" font-size="10.00">+ getId()</text>
<text text-anchor="start" x="73.8091" y="-358.5" font-family="Helvetica,sans-Serif" font-size="10.00">+ annull()</text>
<text text-anchor="start" x="73.8091" y="-348.5" font-family="Helvetica,sans-Serif" font-size="10.00">+ flush()</text>
<text text-anchor="start" x="73.8091" y="-338.5" font-family="Helvetica,sans-Serif" font-size="10.00">+ stall()</text>
<text text-anchor="start" x="73.8091" y="-328.5" font-family="Helvetica,sans-Serif" font-size="10.00">and 7 more...</text>
<text text-anchor="start" x="73.8091" y="-318.5" font-family="Helvetica,sans-Serif" font-size="10.00"># IncrementPC()</text>
</a>
</g>
</g>
<!-- Node3&#45;&gt;Node2 -->
<g id="edge2" class="edge"><title>Node3&#45;&gt;Node2</title>
<path fill="none" stroke="midnightblue" d="M80.7207,-302.657C77.9383,-293.136 75.2987,-284.103 72.9053,-275.913"/>
<polygon fill="none" stroke="midnightblue" points="77.3823,-303.711 83.5469,-312.328 84.1013,-301.748 77.3823,-303.711"/>
</g>
<!-- Node5 -->
<g id="node5" class="node"><title>Node5</title>
<g id="a_node5"><a xlink:href="classleon3__funclt__trap_1_1WB__plain__op.html" target="_top" xlink:title="{leon3_funclt_trap::\lWB_plain_op\n||+ WB_plain_op()\l+ ~WB_plain_op()\l# WB_plain()\l}">
<polygon fill="white" stroke="black" points="139.663,-191.5 139.663,-275.5 237.943,-275.5 237.943,-191.5 139.663,-191.5"/>
<text text-anchor="start" x="147.663" y="-263.5" font-family="Helvetica,sans-Serif" font-size="10.00">leon3_funclt_trap::</text>
<text text-anchor="middle" x="188.803" y="-253.5" font-family="Helvetica,sans-Serif" font-size="10.00">WB_plain_op</text>
<polyline fill="none" stroke="black" points="139.663,-247.5 237.943,-247.5 "/>
<text text-anchor="middle" x="188.803" y="-235.5" font-family="Helvetica,sans-Serif" font-size="10.00"> </text>
<polyline fill="none" stroke="black" points="139.663,-229.5 237.943,-229.5 "/>
<text text-anchor="start" x="147.663" y="-217.5" font-family="Helvetica,sans-Serif" font-size="10.00">+ WB_plain_op()</text>
<text text-anchor="start" x="147.663" y="-207.5" font-family="Helvetica,sans-Serif" font-size="10.00">+ ~WB_plain_op()</text>
<text text-anchor="start" x="147.663" y="-197.5" font-family="Helvetica,sans-Serif" font-size="10.00"># WB_plain()</text>
</a>
</g>
</g>
<!-- Node3&#45;&gt;Node5 -->
<g id="edge5" class="edge"><title>Node3&#45;&gt;Node5</title>
<path fill="none" stroke="midnightblue" d="M168.885,-302.657C171.667,-293.136 174.307,-284.103 176.7,-275.913"/>
<polygon fill="none" stroke="midnightblue" points="165.504,-301.748 166.059,-312.328 172.223,-303.711 165.504,-301.748"/>
</g>
<!-- Node4 -->
<g id="node4" class="node"><title>Node4</title>
<g id="a_node4"><a xlink:href="classtrap_1_1InstructionBase.html" target="_top" xlink:title="{trap::InstructionBase\n||+ getInstructionName()\l+ getMnemonic()\l+ getId()\l}">
<polygon fill="white" stroke="black" points="65.8091,-633.5 65.8091,-707.5 183.796,-707.5 183.796,-633.5 65.8091,-633.5"/>
<text text-anchor="middle" x="124.803" y="-695.5" font-family="Helvetica,sans-Serif" font-size="10.00">trap::InstructionBase</text>
<polyline fill="none" stroke="black" points="65.8091,-689.5 183.796,-689.5 "/>
<text text-anchor="middle" x="124.803" y="-677.5" font-family="Helvetica,sans-Serif" font-size="10.00"> </text>
<polyline fill="none" stroke="black" points="65.8091,-671.5 183.796,-671.5 "/>
<text text-anchor="start" x="73.8091" y="-659.5" font-family="Helvetica,sans-Serif" font-size="10.00">+ getInstructionName()</text>
<text text-anchor="start" x="73.8091" y="-649.5" font-family="Helvetica,sans-Serif" font-size="10.00">+ getMnemonic()</text>
<text text-anchor="start" x="73.8091" y="-639.5" font-family="Helvetica,sans-Serif" font-size="10.00">+ getId()</text>
</a>
</g>
</g>
<!-- Node4&#45;&gt;Node3 -->
<g id="edge3" class="edge"><title>Node4&#45;&gt;Node3</title>
<path fill="none" stroke="midnightblue" d="M124.803,-622.936C124.803,-614.806 124.803,-605.984 124.803,-596.783"/>
<polygon fill="none" stroke="midnightblue" points="121.303,-623.198 124.803,-633.198 128.303,-623.198 121.303,-623.198"/>
</g>
<!-- Node5&#45;&gt;Node1 -->
<g id="edge4" class="edge"><title>Node5&#45;&gt;Node1</title>
<path fill="none" stroke="midnightblue" d="M167.799,-181.96C164.16,-173.204 160.306,-163.929 156.458,-154.67"/>
<polygon fill="none" stroke="midnightblue" points="164.582,-183.34 171.652,-191.231 171.046,-180.653 164.582,-183.34"/>
</g>
</g>
</svg>
