<?xml version="1.0" encoding="UTF-8" standalone="no"?>
<!DOCTYPE svg PUBLIC "-//W3C//DTD SVG 1.1//EN"
 "http://www.w3.org/Graphics/SVG/1.1/DTD/svg11.dtd">
<!-- Generated by graphviz version 2.36.0 (20140111.2315)
 -->
<!-- Title: trap::getpidSysCall::operator() Pages: 1 -->
<svg width="276pt" height="191pt"
 viewBox="0.00 0.00 276.00 191.00" xmlns="http://www.w3.org/2000/svg" xmlns:xlink="http://www.w3.org/1999/xlink">
<g id="graph0" class="graph" transform="scale(1 1) rotate(0) translate(4 187)">
<title>trap::getpidSysCall::operator()</title>
<polygon fill="white" stroke="none" points="-4,4 -4,-187 272,-187 272,4 -4,4"/>
<!-- Node1 -->
<g id="node1" class="node"><title>Node1</title>
<polygon fill="#bfbfbf" stroke="black" points="0,-82 0,-112 100,-112 100,-82 0,-82"/>
<text text-anchor="start" x="8" y="-100" font-family="Helvetica,sans-Serif" font-size="10.00">trap::getpidSysCall</text>
<text text-anchor="middle" x="50" y="-89" font-family="Helvetica,sans-Serif" font-size="10.00">::operator()</text>
</g>
<!-- Node2 -->
<g id="node2" class="node"><title>Node2</title>
<g id="a_node2"><a xlink:href="classtrap_1_1ABIIf.html#a09009b16205964fa8feecd9cb5efdc2b" target="_top" xlink:title="trap::ABIIf::postCall">
<polygon fill="white" stroke="black" points="150,-163.5 150,-182.5 254,-182.5 254,-163.5 150,-163.5"/>
<text text-anchor="middle" x="202" y="-170.5" font-family="Helvetica,sans-Serif" font-size="10.00">trap::ABIIf::postCall</text>
</a>
</g>
</g>
<!-- Node1&#45;&gt;Node2 -->
<g id="edge1" class="edge"><title>Node1&#45;&gt;Node2</title>
<path fill="none" stroke="midnightblue" d="M69.9034,-112.164C86.492,-124.843 111.698,-142.632 136,-154 140.925,-156.304 146.193,-158.396 151.517,-160.277"/>
<polygon fill="midnightblue" stroke="midnightblue" points="150.51,-163.63 161.103,-163.435 152.7,-156.981 150.51,-163.63"/>
</g>
<!-- Node3 -->
<g id="node3" class="node"><title>Node3</title>
<g id="a_node3"><a xlink:href="classtrap_1_1ABIIf.html#ab078dd4f7d791c2bd95148c3cd568600" target="_top" xlink:title="trap::ABIIf::preCall">
<polygon fill="white" stroke="black" points="153,-125.5 153,-144.5 251,-144.5 251,-125.5 153,-125.5"/>
<text text-anchor="middle" x="202" y="-132.5" font-family="Helvetica,sans-Serif" font-size="10.00">trap::ABIIf::preCall</text>
</a>
</g>
</g>
<!-- Node1&#45;&gt;Node3 -->
<g id="edge2" class="edge"><title>Node1&#45;&gt;Node3</title>
<path fill="none" stroke="midnightblue" d="M100.116,-109.443C117.257,-113.785 136.455,-118.649 153.466,-122.958"/>
<polygon fill="midnightblue" stroke="midnightblue" points="152.644,-126.36 163.197,-125.423 154.363,-119.575 152.644,-126.36"/>
</g>
<!-- Node4 -->
<g id="node4" class="node"><title>Node4</title>
<g id="a_node4"><a xlink:href="classtrap_1_1ABIIf.html#a5c0112912c658eb7be33283f1141a726" target="_top" xlink:title="trap::ABIIf::returnFromCall">
<polygon fill="white" stroke="black" points="136,-87.5 136,-106.5 268,-106.5 268,-87.5 136,-87.5"/>
<text text-anchor="middle" x="202" y="-94.5" font-family="Helvetica,sans-Serif" font-size="10.00">trap::ABIIf::returnFromCall</text>
</a>
</g>
</g>
<!-- Node1&#45;&gt;Node4 -->
<g id="edge3" class="edge"><title>Node1&#45;&gt;Node4</title>
<path fill="none" stroke="midnightblue" d="M100.116,-97C108.345,-97 117.048,-97 125.755,-97"/>
<polygon fill="midnightblue" stroke="midnightblue" points="125.951,-100.5 135.951,-97 125.951,-93.5001 125.951,-100.5"/>
</g>
<!-- Node5 -->
<g id="node5" class="node"><title>Node5</title>
<g id="a_node5"><a xlink:href="classtrap_1_1ABIIf.html#a0c2cec804e41cd95ffe4fc073268a10f" target="_top" xlink:title="trap::ABIIf::setRetVal">
<polygon fill="white" stroke="black" points="146.5,-49.5 146.5,-68.5 257.5,-68.5 257.5,-49.5 146.5,-49.5"/>
<text text-anchor="middle" x="202" y="-56.5" font-family="Helvetica,sans-Serif" font-size="10.00">trap::ABIIf::setRetVal</text>
</a>
</g>
</g>
<!-- Node1&#45;&gt;Node5 -->
<g id="edge4" class="edge"><title>Node1&#45;&gt;Node5</title>
<path fill="none" stroke="midnightblue" d="M100.116,-84.5574C117.257,-80.2148 136.455,-75.3513 153.466,-71.0419"/>
<polygon fill="midnightblue" stroke="midnightblue" points="154.363,-74.4254 163.197,-68.5767 152.644,-67.6397 154.363,-74.4254"/>
</g>
<!-- Node6 -->
<g id="node6" class="node"><title>Node6</title>
<g id="a_node6"><a xlink:href="namespacepysc_1_1api_1_1systemc.html#a0f19169551bf6f5170fb3be515ce4365" target="_top" xlink:title="pysc::api::systemc\l::wait">
<polygon fill="white" stroke="black" points="152,-0 152,-30 252,-30 252,-0 152,-0"/>
<text text-anchor="start" x="160" y="-18" font-family="Helvetica,sans-Serif" font-size="10.00">pysc::api::systemc</text>
<text text-anchor="middle" x="202" y="-7" font-family="Helvetica,sans-Serif" font-size="10.00">::wait</text>
</a>
</g>
</g>
<!-- Node1&#45;&gt;Node6 -->
<g id="edge5" class="edge"><title>Node1&#45;&gt;Node6</title>
<path fill="none" stroke="midnightblue" d="M70.8212,-81.8449C87.5648,-69.5081 112.505,-52.2003 136,-40 139.97,-37.9384 144.151,-35.9505 148.397,-34.0581"/>
<polygon fill="midnightblue" stroke="midnightblue" points="149.917,-37.2153 157.745,-30.0761 147.173,-30.7753 149.917,-37.2153"/>
</g>
</g>
</svg>
