<?xml version="1.0" encoding="UTF-8" standalone="no"?>
<!DOCTYPE svg PUBLIC "-//W3C//DTD SVG 1.1//EN"
 "http://www.w3.org/Graphics/SVG/1.1/DTD/svg11.dtd">
<!-- Generated by graphviz version 2.36.0 (20140111.2315)
 -->
<!-- Title: leon3_funclt_trap::TLMMemory::write_byte Pages: 1 -->
<svg width="266pt" height="77pt"
 viewBox="0.00 0.00 266.00 77.00" xmlns="http://www.w3.org/2000/svg" xmlns:xlink="http://www.w3.org/1999/xlink">
<g id="graph0" class="graph" transform="scale(1 1) rotate(0) translate(4 73)">
<title>leon3_funclt_trap::TLMMemory::write_byte</title>
<polygon fill="white" stroke="none" points="-4,4 -4,-73 262,-73 262,4 -4,4"/>
<!-- Node1 -->
<g id="node1" class="node"><title>Node1</title>
<polygon fill="#bfbfbf" stroke="black" points="0,-22 0,-52 122,-52 122,-22 0,-22"/>
<text text-anchor="start" x="8" y="-40" font-family="Helvetica,sans-Serif" font-size="10.00">leon3_funclt_trap::</text>
<text text-anchor="middle" x="61" y="-29" font-family="Helvetica,sans-Serif" font-size="10.00">TLMMemory::write_byte</text>
</g>
<!-- Node2 -->
<g id="node2" class="node"><title>Node2</title>
<g id="a_node2"><a xlink:href="cache_8c.html#a0a9e9396972b76c5947592479860020d" target="_top" xlink:title="flush">
<polygon fill="white" stroke="black" points="189,-49.5 189,-68.5 227,-68.5 227,-49.5 189,-49.5"/>
<text text-anchor="middle" x="208" y="-56.5" font-family="Helvetica,sans-Serif" font-size="10.00">flush</text>
</a>
</g>
</g>
<!-- Node1&#45;&gt;Node2 -->
<g id="edge1" class="edge"><title>Node1&#45;&gt;Node2</title>
<path fill="none" stroke="midnightblue" d="M122.233,-46.1389C141.705,-49.0932 162.393,-52.232 178.456,-54.6692"/>
<polygon fill="midnightblue" stroke="midnightblue" points="178.355,-58.1938 188.766,-56.2335 179.405,-51.273 178.355,-58.1938"/>
</g>
<!-- Node3 -->
<g id="node3" class="node"><title>Node3</title>
<g id="a_node3"><a xlink:href="namespacepysc_1_1api_1_1systemc.html#a0f19169551bf6f5170fb3be515ce4365" target="_top" xlink:title="pysc::api::systemc\l::wait">
<polygon fill="white" stroke="black" points="158,-0 158,-30 258,-30 258,-0 158,-0"/>
<text text-anchor="start" x="166" y="-18" font-family="Helvetica,sans-Serif" font-size="10.00">pysc::api::systemc</text>
<text text-anchor="middle" x="208" y="-7" font-family="Helvetica,sans-Serif" font-size="10.00">::wait</text>
</a>
</g>
</g>
<!-- Node1&#45;&gt;Node3 -->
<g id="edge2" class="edge"><title>Node1&#45;&gt;Node3</title>
<path fill="none" stroke="midnightblue" d="M122.233,-27.8611C130.642,-26.5854 139.277,-25.2753 147.668,-24.0021"/>
<polygon fill="midnightblue" stroke="midnightblue" points="148.39,-27.4327 157.752,-22.4722 147.34,-20.5119 148.39,-27.4327"/>
</g>
</g>
</svg>
