<?xml version="1.0" encoding="UTF-8" standalone="no"?>
<!DOCTYPE svg PUBLIC "-//W3C//DTD SVG 1.1//EN"
 "http://www.w3.org/Graphics/SVG/1.1/DTD/svg11.dtd">
<!-- Generated by graphviz version 2.38.0 (20140413.2041)
 -->
<!-- Title: trap::timeSysCall::operator() Pages: 1 -->
<svg width="274pt" height="212pt"
 viewBox="0.00 0.00 273.83 212.00" xmlns="http://www.w3.org/2000/svg" xmlns:xlink="http://www.w3.org/1999/xlink">
<g id="graph0" class="graph" transform="scale(1 1) rotate(0) translate(4 208)">
<title>trap::timeSysCall::operator()</title>
<polygon fill="white" stroke="none" points="-4,4 -4,-208 269.832,-208 269.832,4 -4,4"/>
<!-- Node1 -->
<g id="node1" class="node"><title>Node1</title>
<polygon fill="#bfbfbf" stroke="black" points="0,-87.5 0,-115.5 97.1328,-115.5 97.1328,-87.5 0,-87.5"/>
<text text-anchor="start" x="8" y="-103.5" font-family="Helvetica,sans-Serif" font-size="10.00">trap::timeSysCall::</text>
<text text-anchor="middle" x="48.5664" y="-93.5" font-family="Helvetica,sans-Serif" font-size="10.00">operator()</text>
</g>
<!-- Node2 -->
<g id="node2" class="node"><title>Node2</title>
<g id="a_node2"><a xlink:href="classtrap_1_1ABIIf.html#a09009b16205964fa8feecd9cb5efdc2b" target="_top" xlink:title="trap::ABIIf::postCall">
<polygon fill="white" stroke="black" points="148.409,-185.5 148.409,-203.5 250.556,-203.5 250.556,-185.5 148.409,-185.5"/>
<text text-anchor="middle" x="199.482" y="-191.5" font-family="Helvetica,sans-Serif" font-size="10.00">trap::ABIIf::postCall</text>
</a>
</g>
</g>
<!-- Node1&#45;&gt;Node2 -->
<g id="edge1" class="edge"><title>Node1&#45;&gt;Node2</title>
<path fill="none" stroke="midnightblue" d="M61.4119,-115.528C76.4213,-132.421 103.88,-160.515 133.133,-176.5 136.85,-178.531 140.815,-180.347 144.883,-181.969"/>
<polygon fill="midnightblue" stroke="midnightblue" points="143.902,-185.335 154.497,-185.407 146.259,-178.744 143.902,-185.335"/>
</g>
<!-- Node3 -->
<g id="node3" class="node"><title>Node3</title>
<g id="a_node3"><a xlink:href="classtrap_1_1ABIIf.html#ab078dd4f7d791c2bd95148c3cd568600" target="_top" xlink:title="trap::ABIIf::preCall">
<polygon fill="white" stroke="black" points="150.633,-148.5 150.633,-166.5 248.332,-166.5 248.332,-148.5 150.633,-148.5"/>
<text text-anchor="middle" x="199.482" y="-154.5" font-family="Helvetica,sans-Serif" font-size="10.00">trap::ABIIf::preCall</text>
</a>
</g>
</g>
<!-- Node1&#45;&gt;Node3 -->
<g id="edge2" class="edge"><title>Node1&#45;&gt;Node3</title>
<path fill="none" stroke="midnightblue" d="M77.7235,-115.651C93.7148,-123.344 114.254,-132.656 133.133,-139.5 139.086,-141.658 145.424,-143.704 151.722,-145.59"/>
<polygon fill="midnightblue" stroke="midnightblue" points="150.947,-149.009 161.525,-148.415 152.885,-142.283 150.947,-149.009"/>
</g>
<!-- Node4 -->
<g id="node4" class="node"><title>Node4</title>
<g id="a_node4"><a xlink:href="classtrap_1_1ABIIf.html#a15542f4ec43296551f50c35ceb6da94a" target="_top" xlink:title="trap::ABIIf::readArgs">
<polygon fill="white" stroke="black" points="146.185,-111.5 146.185,-129.5 252.78,-129.5 252.78,-111.5 146.185,-111.5"/>
<text text-anchor="middle" x="199.482" y="-117.5" font-family="Helvetica,sans-Serif" font-size="10.00">trap::ABIIf::readArgs</text>
</a>
</g>
</g>
<!-- Node1&#45;&gt;Node4 -->
<g id="edge3" class="edge"><title>Node1&#45;&gt;Node4</title>
<path fill="none" stroke="midnightblue" d="M97.5041,-107.616C109.714,-109.174 123.019,-110.872 135.844,-112.508"/>
<polygon fill="midnightblue" stroke="midnightblue" points="135.634,-116.01 145.997,-113.803 136.52,-109.066 135.634,-116.01"/>
</g>
<!-- Node5 -->
<g id="node5" class="node"><title>Node5</title>
<g id="a_node5"><a xlink:href="classtrap_1_1ABIIf.html#a5c0112912c658eb7be33283f1141a726" target="_top" xlink:title="trap::ABIIf::returnFromCall">
<polygon fill="white" stroke="black" points="133.133,-74.5 133.133,-92.5 265.832,-92.5 265.832,-74.5 133.133,-74.5"/>
<text text-anchor="middle" x="199.482" y="-80.5" font-family="Helvetica,sans-Serif" font-size="10.00">trap::ABIIf::returnFromCall</text>
</a>
</g>
</g>
<!-- Node1&#45;&gt;Node5 -->
<g id="edge4" class="edge"><title>Node1&#45;&gt;Node5</title>
<path fill="none" stroke="midnightblue" d="M97.5041,-95.7056C105.632,-94.7232 114.245,-93.6821 122.878,-92.6385"/>
<polygon fill="midnightblue" stroke="midnightblue" points="123.487,-96.0905 132.995,-91.4157 122.647,-89.1411 123.487,-96.0905"/>
</g>
<!-- Node6 -->
<g id="node6" class="node"><title>Node6</title>
<g id="a_node6"><a xlink:href="classtrap_1_1ABIIf.html#a0c2cec804e41cd95ffe4fc073268a10f" target="_top" xlink:title="trap::ABIIf::setRetVal">
<polygon fill="white" stroke="black" points="145.164,-37.5 145.164,-55.5 253.801,-55.5 253.801,-37.5 145.164,-37.5"/>
<text text-anchor="middle" x="199.482" y="-43.5" font-family="Helvetica,sans-Serif" font-size="10.00">trap::ABIIf::setRetVal</text>
</a>
</g>
</g>
<!-- Node1&#45;&gt;Node6 -->
<g id="edge5" class="edge"><title>Node1&#45;&gt;Node6</title>
<path fill="none" stroke="midnightblue" d="M79.7659,-87.4159C95.4909,-80.3578 115.144,-71.9618 133.133,-65.5 140.013,-63.0285 147.385,-60.6418 154.609,-58.4433"/>
<polygon fill="midnightblue" stroke="midnightblue" points="155.713,-61.7666 164.308,-55.5716 153.726,-55.0546 155.713,-61.7666"/>
</g>
<!-- Node7 -->
<g id="node7" class="node"><title>Node7</title>
<g id="a_node7"><a xlink:href="classtrap_1_1ABIIf.html#a70c68f65b9728763bd98cb007c79f8fc" target="_top" xlink:title="trap::ABIIf::writeMem">
<polygon fill="white" stroke="black" points="144.805,-0.5 144.805,-18.5 254.16,-18.5 254.16,-0.5 144.805,-0.5"/>
<text text-anchor="middle" x="199.482" y="-6.5" font-family="Helvetica,sans-Serif" font-size="10.00">trap::ABIIf::writeMem</text>
</a>
</g>
</g>
<!-- Node1&#45;&gt;Node7 -->
<g id="edge6" class="edge"><title>Node1&#45;&gt;Node7</title>
<path fill="none" stroke="midnightblue" d="M62.064,-87.3501C77.2999,-70.9319 104.569,-44.122 133.133,-28.5 137.681,-26.0125 142.59,-23.8196 147.602,-21.8933"/>
<polygon fill="midnightblue" stroke="midnightblue" points="149.011,-25.1087 157.3,-18.5103 146.705,-18.4993 149.011,-25.1087"/>
</g>
</g>
</svg>
