<?xml version="1.0" encoding="UTF-8" standalone="no"?>
<!DOCTYPE svg PUBLIC "-//W3C//DTD SVG 1.1//EN"
 "http://www.w3.org/Graphics/SVG/1.1/DTD/svg11.dtd">
<!-- Generated by graphviz version 2.36.0 (20140111.2315)
 -->
<!-- Title: sr_signal::signal_in::update Pages: 1 -->
<svg width="258pt" height="87pt"
 viewBox="0.00 0.00 258.00 87.00" xmlns="http://www.w3.org/2000/svg" xmlns:xlink="http://www.w3.org/1999/xlink">
<g id="graph0" class="graph" transform="scale(1 1) rotate(0) translate(4 83)">
<title>sr_signal::signal_in::update</title>
<polygon fill="white" stroke="none" points="-4,4 -4,-83 254,-83 254,4 -4,4"/>
<!-- Node1 -->
<g id="node1" class="node"><title>Node1</title>
<polygon fill="#bfbfbf" stroke="black" points="0,-24 0,-54 100,-54 100,-24 0,-24"/>
<text text-anchor="start" x="8" y="-42" font-family="Helvetica,sans-Serif" font-size="10.00">sr_signal::signal_in</text>
<text text-anchor="middle" x="50" y="-31" font-family="Helvetica,sans-Serif" font-size="10.00">::update</text>
</g>
<!-- Node2 -->
<g id="node2" class="node"><title>Node2</title>
<g id="a_node2"><a xlink:href="classsr__signal_1_1signal__base.html#a4e4fe53a9212d0f264432519e12cbeee" target="_top" xlink:title="sr_signal::signal_base\l::get_module">
<polygon fill="white" stroke="black" points="136.5,-49 136.5,-79 249.5,-79 249.5,-49 136.5,-49"/>
<text text-anchor="start" x="144.5" y="-67" font-family="Helvetica,sans-Serif" font-size="10.00">sr_signal::signal_base</text>
<text text-anchor="middle" x="193" y="-56" font-family="Helvetica,sans-Serif" font-size="10.00">::get_module</text>
</a>
</g>
</g>
<!-- Node1&#45;&gt;Node2 -->
<g id="edge1" class="edge"><title>Node1&#45;&gt;Node2</title>
<path fill="none" stroke="midnightblue" d="M100.315,-47.7438C108.649,-49.2214 117.417,-50.7762 126.093,-52.3144"/>
<polygon fill="midnightblue" stroke="midnightblue" points="125.746,-55.8073 136.203,-54.107 126.968,-48.9148 125.746,-55.8073"/>
</g>
<!-- Node3 -->
<g id="node3" class="node"><title>Node3</title>
<g id="a_node3"><a xlink:href="classsr__signal_1_1signal__if.html#a75389d7d970c42c1347bf4fcfa7717ad" target="_top" xlink:title="Read the current signal value. ">
<polygon fill="white" stroke="black" points="144,-0 144,-30 242,-30 242,-0 144,-0"/>
<text text-anchor="start" x="152" y="-18" font-family="Helvetica,sans-Serif" font-size="10.00">sr_signal::signal_if</text>
<text text-anchor="middle" x="193" y="-7" font-family="Helvetica,sans-Serif" font-size="10.00">::read</text>
</a>
</g>
</g>
<!-- Node1&#45;&gt;Node3 -->
<g id="edge2" class="edge"><title>Node1&#45;&gt;Node3</title>
<path fill="none" stroke="midnightblue" d="M100.315,-30.606C111.138,-28.7638 122.695,-26.7966 133.828,-24.9016"/>
<polygon fill="midnightblue" stroke="midnightblue" points="134.63,-28.3155 143.901,-23.1871 133.455,-21.4148 134.63,-28.3155"/>
</g>
</g>
</svg>
