<?xml version="1.0" encoding="UTF-8" standalone="no"?>
<!DOCTYPE svg PUBLIC "-//W3C//DTD SVG 1.1//EN"
 "http://www.w3.org/Graphics/SVG/1.1/DTD/svg11.dtd">
<!-- Generated by graphviz version 2.38.0 (20140413.2041)
 -->
<!-- Title: scireg_ns::scireg_region_if::scireg_get_byte_width Pages: 1 -->
<svg width="297pt" height="39pt"
 viewBox="0.00 0.00 297.00 39.00" xmlns="http://www.w3.org/2000/svg" xmlns:xlink="http://www.w3.org/1999/xlink">
<g id="graph0" class="graph" transform="scale(1 1) rotate(0) translate(4 35)">
<title>scireg_ns::scireg_region_if::scireg_get_byte_width</title>
<polygon fill="white" stroke="none" points="-4,4 -4,-35 293,-35 293,4 -4,4"/>
<!-- Node1 -->
<g id="node1" class="node"><title>Node1</title>
<polygon fill="#bfbfbf" stroke="black" points="0,-0.5 0,-30.5 131,-30.5 131,-0.5 0,-0.5"/>
<text text-anchor="start" x="8" y="-18.5" font-family="Helvetica,sans-Serif" font-size="10.00">scireg_ns::scireg_region</text>
<text text-anchor="middle" x="65.5" y="-7.5" font-family="Helvetica,sans-Serif" font-size="10.00">_if::scireg_get_byte_width</text>
</g>
<!-- Node2 -->
<g id="node2" class="node"><title>Node2</title>
<g id="a_node2"><a xlink:href="classscireg__ns_1_1scireg__region__if.html#a3fb4005db262abdc798f8ed63b571372" target="_top" xlink:title="Get bit width and byte width of this region. ">
<polygon fill="white" stroke="black" points="167,-0.5 167,-30.5 289,-30.5 289,-0.5 167,-0.5"/>
<text text-anchor="start" x="175" y="-18.5" font-family="Helvetica,sans-Serif" font-size="10.00">scireg_ns::scireg_region</text>
<text text-anchor="middle" x="228" y="-7.5" font-family="Helvetica,sans-Serif" font-size="10.00">_if::scireg_get_bit_width</text>
</a>
</g>
</g>
<!-- Node1&#45;&gt;Node2 -->
<g id="edge1" class="edge"><title>Node1&#45;&gt;Node2</title>
<path fill="none" stroke="midnightblue" d="M131.319,-15.5C139.669,-15.5 148.251,-15.5 156.684,-15.5"/>
<polygon fill="midnightblue" stroke="midnightblue" points="156.871,-19.0001 166.871,-15.5 156.871,-12.0001 156.871,-19.0001"/>
</g>
</g>
</svg>
