<?xml version="1.0" encoding="UTF-8" standalone="no"?>
<!DOCTYPE svg PUBLIC "-//W3C//DTD SVG 1.1//EN"
 "http://www.w3.org/Graphics/SVG/1.1/DTD/svg11.dtd">
<!-- Generated by graphviz version 2.38.0 (20140413.2041)
 -->
<!-- Title: sr_signal::signal_out&lt; TYPE, MODULE &gt; Pages: 1 -->
<svg width="360pt" height="603pt"
 viewBox="0.00 0.00 359.50 603.00" xmlns="http://www.w3.org/2000/svg" xmlns:xlink="http://www.w3.org/1999/xlink">
<g id="graph0" class="graph" transform="scale(1 1) rotate(0) translate(4 599)">
<title>sr_signal::signal_out&lt; TYPE, MODULE &gt;</title>
<polygon fill="white" stroke="none" points="-4,4 -4,-599 355.5,-599 355.5,4 -4,4"/>
<!-- Node1 -->
<g id="node1" class="node"><title>Node1</title>
<polygon fill="#bfbfbf" stroke="black" points="77.5,-182.5 77.5,-316.5 187.5,-316.5 187.5,-182.5 77.5,-182.5"/>
<text text-anchor="start" x="85.5" y="-304.5" font-family="Helvetica,sans-Serif" font-size="10.00">sr_signal::signal_out</text>
<text text-anchor="middle" x="132.5" y="-293.5" font-family="Helvetica,sans-Serif" font-size="10.00">&lt; TYPE, MODULE &gt;</text>
<polyline fill="none" stroke="black" points="77.5,-286.5 187.5,-286.5 "/>
<text text-anchor="start" x="85.5" y="-274.5" font-family="Helvetica,sans-Serif" font-size="10.00"># m_receiver</text>
<polyline fill="none" stroke="black" points="77.5,-267.5 187.5,-267.5 "/>
<text text-anchor="start" x="85.5" y="-255.5" font-family="Helvetica,sans-Serif" font-size="10.00">+ signal_out()</text>
<text text-anchor="start" x="85.5" y="-244.5" font-family="Helvetica,sans-Serif" font-size="10.00">+ ~signal_out()</text>
<text text-anchor="start" x="85.5" y="-233.5" font-family="Helvetica,sans-Serif" font-size="10.00">+ bind()</text>
<text text-anchor="start" x="85.5" y="-222.5" font-family="Helvetica,sans-Serif" font-size="10.00">+ write()</text>
<text text-anchor="start" x="85.5" y="-211.5" font-family="Helvetica,sans-Serif" font-size="10.00">+ operator()()</text>
<text text-anchor="start" x="85.5" y="-200.5" font-family="Helvetica,sans-Serif" font-size="10.00">+ operator=()</text>
<text text-anchor="start" x="85.5" y="-189.5" font-family="Helvetica,sans-Serif" font-size="10.00">+ operator=()</text>
</g>
<!-- Node7 -->
<g id="node7" class="node"><title>Node7</title>
<g id="a_node7"><a xlink:href="classsr__signal_1_1signal__inout.html" target="_top" xlink:title="{sr_signal::signal_inout\l\&lt; TYPE, MODULE \&gt;\n||+ signal_inout()\l+ signal_inout()\l+ ~signal_inout()\l}">
<polygon fill="white" stroke="black" points="12,-22.5 12,-112.5 125,-112.5 125,-22.5 12,-22.5"/>
<text text-anchor="start" x="20" y="-100.5" font-family="Helvetica,sans-Serif" font-size="10.00">sr_signal::signal_inout</text>
<text text-anchor="middle" x="68.5" y="-89.5" font-family="Helvetica,sans-Serif" font-size="10.00">&lt; TYPE, MODULE &gt;</text>
<polyline fill="none" stroke="black" points="12,-82.5 125,-82.5 "/>
<text text-anchor="middle" x="68.5" y="-70.5" font-family="Helvetica,sans-Serif" font-size="10.00"> </text>
<polyline fill="none" stroke="black" points="12,-63.5 125,-63.5 "/>
<text text-anchor="start" x="20" y="-51.5" font-family="Helvetica,sans-Serif" font-size="10.00">+ signal_inout()</text>
<text text-anchor="start" x="20" y="-40.5" font-family="Helvetica,sans-Serif" font-size="10.00">+ signal_inout()</text>
<text text-anchor="start" x="20" y="-29.5" font-family="Helvetica,sans-Serif" font-size="10.00">+ ~signal_inout()</text>
</a>
</g>
</g>
<!-- Node1&#45;&gt;Node7 -->
<g id="edge6" class="edge"><title>Node1&#45;&gt;Node7</title>
<path fill="none" stroke="midnightblue" d="M105.598,-172.837C98.2982,-152.307 90.6354,-130.756 84.1818,-112.605"/>
<polygon fill="none" stroke="midnightblue" points="102.384,-174.247 109.032,-182.497 108.98,-171.902 102.384,-174.247"/>
</g>
<!-- Node8 -->
<g id="node8" class="node"><title>Node8</title>
<g id="a_node8"><a xlink:href="classsr__signal_1_1signal__out.html" target="_top" xlink:title="{sr_signal::signal_out\l\&lt; bool, Irqmp \&gt;\n|# m_receiver\l|+ signal_out()\l+ ~signal_out()\l+ bind()\l+ write()\l+ operator()()\l+ operator=()\l+ operator=()\l}">
<polygon fill="white" stroke="black" points="143.5,-0.5 143.5,-134.5 249.5,-134.5 249.5,-0.5 143.5,-0.5"/>
<text text-anchor="start" x="151.5" y="-122.5" font-family="Helvetica,sans-Serif" font-size="10.00">sr_signal::signal_out</text>
<text text-anchor="middle" x="196.5" y="-111.5" font-family="Helvetica,sans-Serif" font-size="10.00">&lt; bool, Irqmp &gt;</text>
<polyline fill="none" stroke="black" points="143.5,-104.5 249.5,-104.5 "/>
<text text-anchor="start" x="151.5" y="-92.5" font-family="Helvetica,sans-Serif" font-size="10.00"># m_receiver</text>
<polyline fill="none" stroke="black" points="143.5,-85.5 249.5,-85.5 "/>
<text text-anchor="start" x="151.5" y="-73.5" font-family="Helvetica,sans-Serif" font-size="10.00">+ signal_out()</text>
<text text-anchor="start" x="151.5" y="-62.5" font-family="Helvetica,sans-Serif" font-size="10.00">+ ~signal_out()</text>
<text text-anchor="start" x="151.5" y="-51.5" font-family="Helvetica,sans-Serif" font-size="10.00">+ bind()</text>
<text text-anchor="start" x="151.5" y="-40.5" font-family="Helvetica,sans-Serif" font-size="10.00">+ write()</text>
<text text-anchor="start" x="151.5" y="-29.5" font-family="Helvetica,sans-Serif" font-size="10.00">+ operator()()</text>
<text text-anchor="start" x="151.5" y="-18.5" font-family="Helvetica,sans-Serif" font-size="10.00">+ operator=()</text>
<text text-anchor="start" x="151.5" y="-7.5" font-family="Helvetica,sans-Serif" font-size="10.00">+ operator=()</text>
</a>
</g>
</g>
<!-- Node1&#45;&gt;Node8 -->
<g id="edge7" class="edge"><title>Node1&#45;&gt;Node8</title>
<path fill="none" stroke="orange" d="M159.377,-172.909C163.878,-160.25 168.518,-147.2 172.928,-134.796"/>
<polygon fill="orange" stroke="orange" points="156.02,-171.902 155.968,-182.497 162.616,-174.247 156.02,-171.902"/>
<text text-anchor="middle" x="201.5" y="-156" font-family="Helvetica,sans-Serif" font-size="10.00"> &lt; bool, Irqmp &gt;</text>
</g>
<!-- Node2 -->
<g id="node2" class="node"><title>Node2</title>
<g id="a_node2"><a xlink:href="classsr__signal_1_1signal__base.html" target="_top" xlink:title="{sr_signal::signal_base\l\&lt; TYPE, MODULE \&gt;\n||+ signal_base()\l+ ~signal_base()\l# get_module()\l}">
<polygon fill="white" stroke="black" points="0,-360 0,-450 113,-450 113,-360 0,-360"/>
<text text-anchor="start" x="8" y="-438" font-family="Helvetica,sans-Serif" font-size="10.00">sr_signal::signal_base</text>
<text text-anchor="middle" x="56.5" y="-427" font-family="Helvetica,sans-Serif" font-size="10.00">&lt; TYPE, MODULE &gt;</text>
<polyline fill="none" stroke="black" points="0,-420 113,-420 "/>
<text text-anchor="middle" x="56.5" y="-408" font-family="Helvetica,sans-Serif" font-size="10.00"> </text>
<polyline fill="none" stroke="black" points="0,-401 113,-401 "/>
<text text-anchor="start" x="8" y="-389" font-family="Helvetica,sans-Serif" font-size="10.00">+ signal_base()</text>
<text text-anchor="start" x="8" y="-378" font-family="Helvetica,sans-Serif" font-size="10.00">+ ~signal_base()</text>
<text text-anchor="start" x="8" y="-367" font-family="Helvetica,sans-Serif" font-size="10.00"># get_module()</text>
</a>
</g>
</g>
<!-- Node2&#45;&gt;Node1 -->
<g id="edge1" class="edge"><title>Node2&#45;&gt;Node1</title>
<path fill="none" stroke="midnightblue" d="M82.9596,-350.559C88.4007,-339.569 94.1904,-327.875 99.8212,-316.503"/>
<polygon fill="none" stroke="midnightblue" points="79.7829,-349.087 78.4823,-359.601 86.0561,-352.193 79.7829,-349.087"/>
</g>
<!-- Node3 -->
<g id="node3" class="node"><title>Node3</title>
<polygon fill="white" stroke="#bfbfbf" points="27,-515.5 27,-572.5 86,-572.5 86,-515.5 27,-515.5"/>
<text text-anchor="middle" x="56.5" y="-560.5" font-family="Helvetica,sans-Serif" font-size="10.00">sc_object</text>
<polyline fill="none" stroke="#bfbfbf" points="27,-553.5 86,-553.5 "/>
<text text-anchor="middle" x="56.5" y="-541.5" font-family="Helvetica,sans-Serif" font-size="10.00"> </text>
<polyline fill="none" stroke="#bfbfbf" points="27,-534.5 86,-534.5 "/>
<text text-anchor="middle" x="56.5" y="-522.5" font-family="Helvetica,sans-Serif" font-size="10.00"> </text>
</g>
<!-- Node3&#45;&gt;Node2 -->
<g id="edge2" class="edge"><title>Node3&#45;&gt;Node2</title>
<path fill="none" stroke="midnightblue" d="M56.5,-505.127C56.5,-488.085 56.5,-467.859 56.5,-450.134"/>
<polygon fill="none" stroke="midnightblue" points="53.0001,-505.276 56.5,-515.276 60.0001,-505.276 53.0001,-505.276"/>
</g>
<!-- Node4 -->
<g id="node4" class="node"><title>Node4</title>
<g id="a_node4"><a xlink:href="classsr__signal_1_1signal__out__if.html" target="_top" xlink:title="{sr_signal::signal_out\l_if\&lt; TYPE \&gt;\n||+ ~signal_out_if()\l+ write()\l+ operator=()\l+ operator=()\l}">
<polygon fill="white" stroke="black" points="131.5,-354.5 131.5,-455.5 237.5,-455.5 237.5,-354.5 131.5,-354.5"/>
<text text-anchor="start" x="139.5" y="-443.5" font-family="Helvetica,sans-Serif" font-size="10.00">sr_signal::signal_out</text>
<text text-anchor="middle" x="184.5" y="-432.5" font-family="Helvetica,sans-Serif" font-size="10.00">_if&lt; TYPE &gt;</text>
<polyline fill="none" stroke="black" points="131.5,-425.5 237.5,-425.5 "/>
<text text-anchor="middle" x="184.5" y="-413.5" font-family="Helvetica,sans-Serif" font-size="10.00"> </text>
<polyline fill="none" stroke="black" points="131.5,-406.5 237.5,-406.5 "/>
<text text-anchor="start" x="139.5" y="-394.5" font-family="Helvetica,sans-Serif" font-size="10.00">+ ~signal_out_if()</text>
<text text-anchor="start" x="139.5" y="-383.5" font-family="Helvetica,sans-Serif" font-size="10.00">+ write()</text>
<text text-anchor="start" x="139.5" y="-372.5" font-family="Helvetica,sans-Serif" font-size="10.00">+ operator=()</text>
<text text-anchor="start" x="139.5" y="-361.5" font-family="Helvetica,sans-Serif" font-size="10.00">+ operator=()</text>
</a>
</g>
</g>
<!-- Node4&#45;&gt;Node1 -->
<g id="edge3" class="edge"><title>Node4&#45;&gt;Node1</title>
<path fill="none" stroke="midnightblue" d="M164.316,-344.42C161.225,-335.293 158.017,-325.825 154.881,-316.568"/>
<polygon fill="none" stroke="midnightblue" points="161.094,-345.815 167.617,-354.163 167.723,-343.569 161.094,-345.815"/>
</g>
<!-- Node5 -->
<g id="node5" class="node"><title>Node5</title>
<g id="a_node5"><a xlink:href="classsr__signal_1_1signal__if.html" target="_top" xlink:title="{sr_signal::signal_if\l\&lt; TYPE \&gt;\n|# m_value\l|+ ~signal_if()\l+ read()\l+ operator TYPE()\l+ operator==()\l}">
<polygon fill="white" stroke="black" points="119.5,-493.5 119.5,-594.5 217.5,-594.5 217.5,-493.5 119.5,-493.5"/>
<text text-anchor="start" x="127.5" y="-582.5" font-family="Helvetica,sans-Serif" font-size="10.00">sr_signal::signal_if</text>
<text text-anchor="middle" x="168.5" y="-571.5" font-family="Helvetica,sans-Serif" font-size="10.00">&lt; TYPE &gt;</text>
<polyline fill="none" stroke="black" points="119.5,-564.5 217.5,-564.5 "/>
<text text-anchor="start" x="127.5" y="-552.5" font-family="Helvetica,sans-Serif" font-size="10.00"># m_value</text>
<polyline fill="none" stroke="black" points="119.5,-545.5 217.5,-545.5 "/>
<text text-anchor="start" x="127.5" y="-533.5" font-family="Helvetica,sans-Serif" font-size="10.00">+ ~signal_if()</text>
<text text-anchor="start" x="127.5" y="-522.5" font-family="Helvetica,sans-Serif" font-size="10.00">+ read()</text>
<text text-anchor="start" x="127.5" y="-511.5" font-family="Helvetica,sans-Serif" font-size="10.00">+ operator TYPE()</text>
<text text-anchor="start" x="127.5" y="-500.5" font-family="Helvetica,sans-Serif" font-size="10.00">+ operator==()</text>
</a>
</g>
</g>
<!-- Node5&#45;&gt;Node4 -->
<g id="edge4" class="edge"><title>Node5&#45;&gt;Node4</title>
<path fill="none" stroke="midnightblue" d="M175.513,-482.953C176.58,-473.812 177.672,-464.466 178.709,-455.581"/>
<polygon fill="none" stroke="midnightblue" points="172.005,-482.814 174.322,-493.152 178.958,-483.626 172.005,-482.814"/>
</g>
<!-- Node6 -->
<g id="node6" class="node"><title>Node6</title>
<g id="a_node6"><a xlink:href="classsr__signal_1_1signal__out__bind__if.html" target="_top" xlink:title="{sr_signal::signal_out\l_bind_if\&lt; TYPE \&gt;\n||+ ~signal_out_bind_if()\l+ bind()\l}">
<polygon fill="white" stroke="black" points="235.5,-504.5 235.5,-583.5 351.5,-583.5 351.5,-504.5 235.5,-504.5"/>
<text text-anchor="start" x="243.5" y="-571.5" font-family="Helvetica,sans-Serif" font-size="10.00">sr_signal::signal_out</text>
<text text-anchor="middle" x="293.5" y="-560.5" font-family="Helvetica,sans-Serif" font-size="10.00">_bind_if&lt; TYPE &gt;</text>
<polyline fill="none" stroke="black" points="235.5,-553.5 351.5,-553.5 "/>
<text text-anchor="middle" x="293.5" y="-541.5" font-family="Helvetica,sans-Serif" font-size="10.00"> </text>
<polyline fill="none" stroke="black" points="235.5,-534.5 351.5,-534.5 "/>
<text text-anchor="start" x="243.5" y="-522.5" font-family="Helvetica,sans-Serif" font-size="10.00">+ ~signal_out_bind_if()</text>
<text text-anchor="start" x="243.5" y="-511.5" font-family="Helvetica,sans-Serif" font-size="10.00">+ bind()</text>
</a>
</g>
</g>
<!-- Node6&#45;&gt;Node4 -->
<g id="edge5" class="edge"><title>Node6&#45;&gt;Node4</title>
<path fill="none" stroke="midnightblue" d="M256.457,-496.441C245.967,-483.257 234.513,-468.86 223.89,-455.509"/>
<polygon fill="none" stroke="midnightblue" points="253.882,-498.827 262.847,-504.473 259.36,-494.469 253.882,-498.827"/>
</g>
</g>
</svg>
