<?xml version="1.0" encoding="UTF-8" standalone="no"?>
<!DOCTYPE svg PUBLIC "-//W3C//DTD SVG 1.1//EN"
 "http://www.w3.org/Graphics/SVG/1.1/DTD/svg11.dtd">
<!-- Generated by graphviz version 2.38.0 (20140413.2041)
 -->
<!-- Title: MemoryPower Pages: 1 -->
<svg width="1117pt" height="585pt"
 viewBox="0.00 0.00 1117.01 585.00" xmlns="http://www.w3.org/2000/svg" xmlns:xlink="http://www.w3.org/1999/xlink">
<g id="graph0" class="graph" transform="scale(1 1) rotate(0) translate(4 581)">
<title>MemoryPower</title>
<polygon fill="white" stroke="none" points="-4,4 -4,-581 1113.01,-581 1113.01,4 -4,4"/>
<!-- Node1 -->
<g id="node1" class="node"><title>Node1</title>
<polygon fill="#bfbfbf" stroke="black" points="474.799,-0.5 474.799,-134.5 611.678,-134.5 611.678,-0.5 474.799,-0.5"/>
<text text-anchor="middle" x="543.239" y="-122.5" font-family="Helvetica,sans-Serif" font-size="10.00">MemoryPower</text>
<polyline fill="none" stroke="black" points="474.799,-116.5 611.678,-116.5 "/>
<text text-anchor="middle" x="543.239" y="-104.5" font-family="Helvetica,sans-Serif" font-size="10.00"> </text>
<polyline fill="none" stroke="black" points="474.799,-98.5 611.678,-98.5 "/>
<text text-anchor="start" x="482.799" y="-86.5" font-family="Helvetica,sans-Serif" font-size="10.00">+ GC_HAS_CALLBACKS()</text>
<text text-anchor="start" x="482.799" y="-76.5" font-family="Helvetica,sans-Serif" font-size="10.00">+ MemoryPower()</text>
<text text-anchor="start" x="482.799" y="-66.5" font-family="Helvetica,sans-Serif" font-size="10.00">+ ~MemoryPower()</text>
<text text-anchor="start" x="482.799" y="-56.5" font-family="Helvetica,sans-Serif" font-size="10.00">+ power_model()</text>
<text text-anchor="start" x="482.799" y="-46.5" font-family="Helvetica,sans-Serif" font-size="10.00">+ swi_power_cb()</text>
<text text-anchor="start" x="482.799" y="-36.5" font-family="Helvetica,sans-Serif" font-size="10.00">+ dyn_reads_cb()</text>
<text text-anchor="start" x="482.799" y="-26.5" font-family="Helvetica,sans-Serif" font-size="10.00">+ dyn_writes_cb()</text>
<text text-anchor="start" x="482.799" y="-16.5" font-family="Helvetica,sans-Serif" font-size="10.00">+ dyn_reads_write_cb()</text>
<text text-anchor="start" x="482.799" y="-6.5" font-family="Helvetica,sans-Serif" font-size="10.00">+ dyn_writes_write_cb()</text>
</g>
<!-- Node2 -->
<g id="node2" class="node"><title>Node2</title>
<polygon fill="white" stroke="#bfbfbf" points="0,-336.5 0,-390.5 70.4775,-390.5 70.4775,-336.5 0,-336.5"/>
<text text-anchor="middle" x="35.2388" y="-378.5" font-family="Helvetica,sans-Serif" font-size="10.00">DefaultBase</text>
<polyline fill="none" stroke="#bfbfbf" points="0,-372.5 70.4775,-372.5 "/>
<text text-anchor="middle" x="35.2388" y="-360.5" font-family="Helvetica,sans-Serif" font-size="10.00"> </text>
<polyline fill="none" stroke="#bfbfbf" points="0,-354.5 70.4775,-354.5 "/>
<text text-anchor="middle" x="35.2388" y="-342.5" font-family="Helvetica,sans-Serif" font-size="10.00"> </text>
</g>
<!-- Node2&#45;&gt;Node1 -->
<g id="edge1" class="edge"><title>Node2&#45;&gt;Node1</title>
<path fill="none" stroke="midnightblue" d="M51.397,-326.902C58.8923,-312.064 68.5186,-295.053 79.2388,-281 129.191,-215.518 141.223,-192.961 213.239,-153 296.366,-106.873 405.215,-85.3574 474.706,-75.732"/>
<polygon fill="none" stroke="midnightblue" points="48.0552,-325.766 46.7891,-336.285 54.3386,-328.852 48.0552,-325.766"/>
</g>
<!-- Node3 -->
<g id="node3" class="node"><title>Node3</title>
<g id="a_node3"><a xlink:href="classCLKDevice.html" target="_top" xlink:title="{CLKDevice\n||+ SK_HAS_SIGNALS()\l+ CLKDevice()\l+ ~CLKDevice()\l+ onrst()\l+ onclk()\l+ set_clk()\l+ set_clk()\l+ set_clk()\l+ dorst()\l+ clkcng()\l}">
<polygon fill="white" stroke="black" points="88.4126,-291.5 88.4126,-435.5 208.065,-435.5 208.065,-291.5 88.4126,-291.5"/>
<text text-anchor="middle" x="148.239" y="-423.5" font-family="Helvetica,sans-Serif" font-size="10.00">CLKDevice</text>
<polyline fill="none" stroke="black" points="88.4126,-417.5 208.065,-417.5 "/>
<text text-anchor="middle" x="148.239" y="-405.5" font-family="Helvetica,sans-Serif" font-size="10.00"> </text>
<polyline fill="none" stroke="black" points="88.4126,-399.5 208.065,-399.5 "/>
<text text-anchor="start" x="96.4126" y="-387.5" font-family="Helvetica,sans-Serif" font-size="10.00">+ SK_HAS_SIGNALS()</text>
<text text-anchor="start" x="96.4126" y="-377.5" font-family="Helvetica,sans-Serif" font-size="10.00">+ CLKDevice()</text>
<text text-anchor="start" x="96.4126" y="-367.5" font-family="Helvetica,sans-Serif" font-size="10.00">+ ~CLKDevice()</text>
<text text-anchor="start" x="96.4126" y="-357.5" font-family="Helvetica,sans-Serif" font-size="10.00">+ onrst()</text>
<text text-anchor="start" x="96.4126" y="-347.5" font-family="Helvetica,sans-Serif" font-size="10.00">+ onclk()</text>
<text text-anchor="start" x="96.4126" y="-337.5" font-family="Helvetica,sans-Serif" font-size="10.00">+ set_clk()</text>
<text text-anchor="start" x="96.4126" y="-327.5" font-family="Helvetica,sans-Serif" font-size="10.00">+ set_clk()</text>
<text text-anchor="start" x="96.4126" y="-317.5" font-family="Helvetica,sans-Serif" font-size="10.00">+ set_clk()</text>
<text text-anchor="start" x="96.4126" y="-307.5" font-family="Helvetica,sans-Serif" font-size="10.00">+ dorst()</text>
<text text-anchor="start" x="96.4126" y="-297.5" font-family="Helvetica,sans-Serif" font-size="10.00">+ clkcng()</text>
</a>
</g>
</g>
<!-- Node3&#45;&gt;Node1 -->
<g id="edge2" class="edge"><title>Node3&#45;&gt;Node1</title>
<path fill="none" stroke="midnightblue" d="M201.109,-283.034C233.283,-239.728 277.67,-187.989 327.239,-153 371.815,-121.535 429.716,-99.7057 474.349,-86.1267"/>
<polygon fill="none" stroke="midnightblue" points="198.14,-281.164 195.042,-291.295 203.782,-285.307 198.14,-281.164"/>
</g>
<!-- Node4 -->
<g id="node4" class="node"><title>Node4</title>
<polygon fill="white" stroke="#bfbfbf" points="105.739,-522.5 105.739,-576.5 134.739,-576.5 134.739,-522.5 105.739,-522.5"/>
<text text-anchor="middle" x="120.13" y="-564.5" font-family="Helvetica,sans-Serif" font-size="10.00">in</text>
<polyline fill="none" stroke="#bfbfbf" points="105.739,-558.5 134.522,-558.5 "/>
<text text-anchor="middle" x="120.13" y="-546.5" font-family="Helvetica,sans-Serif" font-size="10.00"> </text>
<polyline fill="none" stroke="#bfbfbf" points="105.739,-540.5 134.522,-540.5 "/>
<text text-anchor="middle" x="120.13" y="-528.5" font-family="Helvetica,sans-Serif" font-size="10.00"> </text>
</g>
<!-- Node4&#45;&gt;Node3 -->
<g id="edge3" class="edge"><title>Node4&#45;&gt;Node3</title>
<path fill="none" stroke="#404040" d="M110.782,-522.449C109.01,-516.466 107.428,-510.076 106.512,-504 103.863,-486.421 103.006,-481.429 106.512,-464 107.631,-458.439 109.069,-452.802 110.735,-447.184"/>
<polygon fill="none" stroke="#404040" points="110.753,-447.127 108.793,-440.188 114.445,-435.71 116.405,-442.649 110.753,-447.127"/>
<text text-anchor="middle" x="117.102" y="-481" font-family="Helvetica,sans-Serif" font-size="10.00"> +rst</text>
</g>
<!-- Node4&#45;&gt;Node3 -->
<g id="edge5" class="edge"><title>Node4&#45;&gt;Node3</title>
<path fill="none" stroke="#404040" d="M124.25,-522.137C127.241,-502.488 131.499,-474.503 135.6,-447.553"/>
<polygon fill="none" stroke="#404040" points="135.601,-447.55 132.549,-441.016 137.406,-435.687 140.458,-442.22 135.601,-447.55"/>
<text text-anchor="middle" x="143.659" y="-481" font-family="Helvetica,sans-Serif" font-size="10.00"> +clk</text>
</g>
<!-- Node5 -->
<g id="node5" class="node"><title>Node5</title>
<polygon fill="white" stroke="#bfbfbf" points="167.012,-522.5 167.012,-576.5 217.465,-576.5 217.465,-522.5 167.012,-522.5"/>
<text text-anchor="middle" x="192.239" y="-564.5" font-family="Helvetica,sans-Serif" font-size="10.00">sc_time</text>
<polyline fill="none" stroke="#bfbfbf" points="167.012,-558.5 217.465,-558.5 "/>
<text text-anchor="middle" x="192.239" y="-546.5" font-family="Helvetica,sans-Serif" font-size="10.00"> </text>
<polyline fill="none" stroke="#bfbfbf" points="167.012,-540.5 217.465,-540.5 "/>
<text text-anchor="middle" x="192.239" y="-528.5" font-family="Helvetica,sans-Serif" font-size="10.00"> </text>
</g>
<!-- Node5&#45;&gt;Node3 -->
<g id="edge4" class="edge"><title>Node5&#45;&gt;Node3</title>
<path fill="none" stroke="#404040" d="M185.935,-522.137C181.236,-502.488 174.544,-474.503 168.099,-447.553"/>
<polygon fill="none" stroke="#404040" points="168.053,-447.357 162.767,-442.452 165.262,-435.687 170.547,-440.592 168.053,-447.357"/>
<text text-anchor="middle" x="210.973" y="-481" font-family="Helvetica,sans-Serif" font-size="10.00"> #clock_cycle</text>
</g>
<!-- Node6 -->
<g id="node6" class="node"><title>Node6</title>
<g id="a_node6"><a xlink:href="classMEMDevice.html" target="_top" xlink:title="{MEMDevice\n||+ MEMDevice()\l+ MEMDevice()\l+ ~MEMDevice()\l+ get_device_info()\l+ get_type()\l+ get_type_name()\l+ get_banks()\l+ get_bsize()\l+ get_bits()\l+ get_cols()\l}">
<polygon fill="white" stroke="black" points="225.573,-291.5 225.573,-435.5 326.905,-435.5 326.905,-291.5 225.573,-291.5"/>
<text text-anchor="middle" x="276.239" y="-423.5" font-family="Helvetica,sans-Serif" font-size="10.00">MEMDevice</text>
<polyline fill="none" stroke="black" points="225.573,-417.5 326.905,-417.5 "/>
<text text-anchor="middle" x="276.239" y="-405.5" font-family="Helvetica,sans-Serif" font-size="10.00"> </text>
<polyline fill="none" stroke="black" points="225.573,-399.5 326.905,-399.5 "/>
<text text-anchor="start" x="233.573" y="-387.5" font-family="Helvetica,sans-Serif" font-size="10.00">+ MEMDevice()</text>
<text text-anchor="start" x="233.573" y="-377.5" font-family="Helvetica,sans-Serif" font-size="10.00">+ MEMDevice()</text>
<text text-anchor="start" x="233.573" y="-367.5" font-family="Helvetica,sans-Serif" font-size="10.00">+ ~MEMDevice()</text>
<text text-anchor="start" x="233.573" y="-357.5" font-family="Helvetica,sans-Serif" font-size="10.00">+ get_device_info()</text>
<text text-anchor="start" x="233.573" y="-347.5" font-family="Helvetica,sans-Serif" font-size="10.00">+ get_type()</text>
<text text-anchor="start" x="233.573" y="-337.5" font-family="Helvetica,sans-Serif" font-size="10.00">+ get_type_name()</text>
<text text-anchor="start" x="233.573" y="-327.5" font-family="Helvetica,sans-Serif" font-size="10.00">+ get_banks()</text>
<text text-anchor="start" x="233.573" y="-317.5" font-family="Helvetica,sans-Serif" font-size="10.00">+ get_bsize()</text>
<text text-anchor="start" x="233.573" y="-307.5" font-family="Helvetica,sans-Serif" font-size="10.00">+ get_bits()</text>
<text text-anchor="start" x="233.573" y="-297.5" font-family="Helvetica,sans-Serif" font-size="10.00">+ get_cols()</text>
</a>
</g>
</g>
<!-- Node6&#45;&gt;Node1 -->
<g id="edge6" class="edge"><title>Node6&#45;&gt;Node1</title>
<path fill="none" stroke="midnightblue" d="M317.501,-282.348C341.473,-240.684 374.397,-190.732 412.239,-153 430.445,-134.846 453.179,-118.529 474.573,-105.186"/>
<polygon fill="none" stroke="midnightblue" points="314.422,-280.682 312.523,-291.105 320.507,-284.141 314.422,-280.682"/>
</g>
<!-- Node7 -->
<g id="node7" class="node"><title>Node7</title>
<g id="a_node7"><a xlink:href="classBaseMemory.html" target="_top" xlink:title="{BaseMemory\n||+ BaseMemory()\l+ ~BaseMemory()\l+ read()\l+ read_dbg()\l+ write()\l+ write_dbg()\l+ write_block()\l+ write_block_dbg()\l+ read_block()\l+ read_block_dbg()\l+ erase()\l+ erase_dbg()\l}">
<polygon fill="white" stroke="black" points="344.467,-281.5 344.467,-445.5 448.011,-445.5 448.011,-281.5 344.467,-281.5"/>
<text text-anchor="middle" x="396.239" y="-433.5" font-family="Helvetica,sans-Serif" font-size="10.00">BaseMemory</text>
<polyline fill="none" stroke="black" points="344.467,-427.5 448.011,-427.5 "/>
<text text-anchor="middle" x="396.239" y="-415.5" font-family="Helvetica,sans-Serif" font-size="10.00"> </text>
<polyline fill="none" stroke="black" points="344.467,-409.5 448.011,-409.5 "/>
<text text-anchor="start" x="352.467" y="-397.5" font-family="Helvetica,sans-Serif" font-size="10.00">+ BaseMemory()</text>
<text text-anchor="start" x="352.467" y="-387.5" font-family="Helvetica,sans-Serif" font-size="10.00">+ ~BaseMemory()</text>
<text text-anchor="start" x="352.467" y="-377.5" font-family="Helvetica,sans-Serif" font-size="10.00">+ read()</text>
<text text-anchor="start" x="352.467" y="-367.5" font-family="Helvetica,sans-Serif" font-size="10.00">+ read_dbg()</text>
<text text-anchor="start" x="352.467" y="-357.5" font-family="Helvetica,sans-Serif" font-size="10.00">+ write()</text>
<text text-anchor="start" x="352.467" y="-347.5" font-family="Helvetica,sans-Serif" font-size="10.00">+ write_dbg()</text>
<text text-anchor="start" x="352.467" y="-337.5" font-family="Helvetica,sans-Serif" font-size="10.00">+ write_block()</text>
<text text-anchor="start" x="352.467" y="-327.5" font-family="Helvetica,sans-Serif" font-size="10.00">+ write_block_dbg()</text>
<text text-anchor="start" x="352.467" y="-317.5" font-family="Helvetica,sans-Serif" font-size="10.00">+ read_block()</text>
<text text-anchor="start" x="352.467" y="-307.5" font-family="Helvetica,sans-Serif" font-size="10.00">+ read_block_dbg()</text>
<text text-anchor="start" x="352.467" y="-297.5" font-family="Helvetica,sans-Serif" font-size="10.00">+ erase()</text>
<text text-anchor="start" x="352.467" y="-287.5" font-family="Helvetica,sans-Serif" font-size="10.00">+ erase_dbg()</text>
</a>
</g>
</g>
<!-- Node7&#45;&gt;Node1 -->
<g id="edge7" class="edge"><title>Node7&#45;&gt;Node1</title>
<path fill="none" stroke="midnightblue" d="M413.373,-271.224C423.116,-232.927 437.782,-189.018 459.239,-153 463.685,-145.536 468.934,-138.247 474.601,-131.276"/>
<polygon fill="none" stroke="midnightblue" points="409.873,-270.8 410.878,-281.347 416.67,-272.475 409.873,-270.8"/>
</g>
<!-- Node8 -->
<g id="node8" class="node"><title>Node8</title>
<polygon fill="white" stroke="#bfbfbf" points="346.259,-522.5 346.259,-576.5 446.219,-576.5 446.219,-522.5 346.259,-522.5"/>
<text text-anchor="middle" x="396.239" y="-564.5" font-family="Helvetica,sans-Serif" font-size="10.00">unsigned long long</text>
<polyline fill="none" stroke="#bfbfbf" points="346.259,-558.5 446.219,-558.5 "/>
<text text-anchor="middle" x="396.239" y="-546.5" font-family="Helvetica,sans-Serif" font-size="10.00"> </text>
<polyline fill="none" stroke="#bfbfbf" points="346.259,-540.5 446.219,-540.5 "/>
<text text-anchor="middle" x="396.239" y="-528.5" font-family="Helvetica,sans-Serif" font-size="10.00"> </text>
</g>
<!-- Node8&#45;&gt;Node7 -->
<g id="edge8" class="edge"><title>Node8&#45;&gt;Node7</title>
<path fill="none" stroke="#404040" d="M396.239,-522.137C396.239,-505.044 396.239,-481.643 396.239,-458.102"/>
<polygon fill="none" stroke="#404040" points="396.239,-457.812 392.239,-451.812 396.239,-445.812 400.239,-451.812 396.239,-457.812"/>
<text text-anchor="middle" x="419.166" y="-496" font-family="Helvetica,sans-Serif" font-size="10.00"> +writes32</text>
<text text-anchor="middle" x="419.166" y="-486" font-family="Helvetica,sans-Serif" font-size="10.00">+writes</text>
<text text-anchor="middle" x="419.166" y="-476" font-family="Helvetica,sans-Serif" font-size="10.00">+reads32</text>
<text text-anchor="middle" x="419.166" y="-466" font-family="Helvetica,sans-Serif" font-size="10.00">+reads</text>
</g>
<!-- Node9 -->
<g id="node9" class="node"><title>Node9</title>
<polygon fill="white" stroke="#bfbfbf" points="465.833,-336.5 465.833,-390.5 554.645,-390.5 554.645,-336.5 465.833,-336.5"/>
<text text-anchor="middle" x="510.239" y="-378.5" font-family="Helvetica,sans-Serif" font-size="10.00">gs_param_array</text>
<polyline fill="none" stroke="#bfbfbf" points="465.833,-372.5 554.645,-372.5 "/>
<text text-anchor="middle" x="510.239" y="-360.5" font-family="Helvetica,sans-Serif" font-size="10.00"> </text>
<polyline fill="none" stroke="#bfbfbf" points="465.833,-354.5 554.645,-354.5 "/>
<text text-anchor="middle" x="510.239" y="-342.5" font-family="Helvetica,sans-Serif" font-size="10.00"> </text>
</g>
<!-- Node9&#45;&gt;Node1 -->
<g id="edge9" class="edge"><title>Node9&#45;&gt;Node1</title>
<path fill="none" stroke="#404040" d="M496.783,-336.279C477.935,-295.859 448.447,-216.37 471.675,-153 472.616,-150.434 473.673,-147.891 474.831,-145.379"/>
<polygon fill="none" stroke="#404040" points="474.926,-145.196 474.171,-138.025 480.5,-134.569 481.256,-141.741 474.926,-145.196"/>
<text text-anchor="middle" x="533.521" y="-210" font-family="Helvetica,sans-Serif" font-size="10.00"> +m_performance_counters</text>
<text text-anchor="middle" x="533.521" y="-200" font-family="Helvetica,sans-Serif" font-size="10.00">+power</text>
</g>
<!-- Node10 -->
<g id="node10" class="node"><title>Node10</title>
<polygon fill="white" stroke="#bfbfbf" points="572.781,-336.5 572.781,-390.5 627.697,-390.5 627.697,-336.5 572.781,-336.5"/>
<text text-anchor="middle" x="600.239" y="-378.5" font-family="Helvetica,sans-Serif" font-size="10.00">cnf_api *</text>
<polyline fill="none" stroke="#bfbfbf" points="572.781,-372.5 627.697,-372.5 "/>
<text text-anchor="middle" x="600.239" y="-360.5" font-family="Helvetica,sans-Serif" font-size="10.00"> </text>
<polyline fill="none" stroke="#bfbfbf" points="572.781,-354.5 627.697,-354.5 "/>
<text text-anchor="middle" x="600.239" y="-342.5" font-family="Helvetica,sans-Serif" font-size="10.00"> </text>
</g>
<!-- Node10&#45;&gt;Node1 -->
<g id="edge10" class="edge"><title>Node10&#45;&gt;Node1</title>
<path fill="none" stroke="#404040" d="M603.669,-336.364C608.039,-296.055 612.962,-216.711 594.239,-153 593.568,-150.719 592.821,-148.437 592.007,-146.161"/>
<polygon fill="none" stroke="#404040" points="591.934,-145.981 585.973,-141.923 587.426,-134.86 593.387,-138.918 591.934,-145.981"/>
<text text-anchor="middle" x="626.166" y="-205" font-family="Helvetica,sans-Serif" font-size="10.00"> +m_api</text>
</g>
<!-- Node11 -->
<g id="node11" class="node"><title>Node11</title>
<polygon fill="white" stroke="#bfbfbf" points="645.424,-336.5 645.424,-390.5 757.054,-390.5 757.054,-336.5 645.424,-336.5"/>
<text text-anchor="middle" x="701.239" y="-378.5" font-family="Helvetica,sans-Serif" font-size="10.00">gs_config&lt; uint64_t &gt;</text>
<polyline fill="none" stroke="#bfbfbf" points="645.424,-372.5 757.054,-372.5 "/>
<text text-anchor="middle" x="701.239" y="-360.5" font-family="Helvetica,sans-Serif" font-size="10.00"> </text>
<polyline fill="none" stroke="#bfbfbf" points="645.424,-354.5 757.054,-354.5 "/>
<text text-anchor="middle" x="701.239" y="-342.5" font-family="Helvetica,sans-Serif" font-size="10.00"> </text>
</g>
<!-- Node11&#45;&gt;Node1 -->
<g id="edge11" class="edge"><title>Node11&#45;&gt;Node1</title>
<path fill="none" stroke="#404040" d="M699.893,-336.235C696.648,-294.36 685.619,-211.258 648.239,-153 640.811,-141.424 631.259,-130.709 620.948,-121.069"/>
<polygon fill="none" stroke="#404040" points="620.7,-120.849 613.558,-119.856 611.728,-112.881 618.87,-113.874 620.7,-120.849"/>
<text text-anchor="middle" x="717.897" y="-210" font-family="Helvetica,sans-Serif" font-size="10.00"> +dyn_reads</text>
<text text-anchor="middle" x="717.897" y="-200" font-family="Helvetica,sans-Serif" font-size="10.00">+dyn_writes</text>
</g>
<!-- Node12 -->
<g id="node12" class="node"><title>Node12</title>
<polygon fill="white" stroke="#bfbfbf" points="775.019,-331.5 775.019,-395.5 877.459,-395.5 877.459,-331.5 775.019,-331.5"/>
<text text-anchor="start" x="783.019" y="-383.5" font-family="Helvetica,sans-Serif" font-size="10.00">gs_config&lt; sc_core</text>
<text text-anchor="middle" x="826.239" y="-373.5" font-family="Helvetica,sans-Serif" font-size="10.00">::sc_time &gt;</text>
<polyline fill="none" stroke="#bfbfbf" points="775.019,-367.5 877.459,-367.5 "/>
<text text-anchor="middle" x="826.239" y="-355.5" font-family="Helvetica,sans-Serif" font-size="10.00"> </text>
<polyline fill="none" stroke="#bfbfbf" points="775.019,-349.5 877.459,-349.5 "/>
<text text-anchor="middle" x="826.239" y="-337.5" font-family="Helvetica,sans-Serif" font-size="10.00"> </text>
</g>
<!-- Node12&#45;&gt;Node1 -->
<g id="edge12" class="edge"><title>Node12&#45;&gt;Node1</title>
<path fill="none" stroke="#404040" d="M805.582,-331.43C793.755,-312.381 779.511,-287.1 770.454,-263 752.876,-216.228 779.161,-191.439 747.239,-153 716.345,-115.8 666.367,-94.7436 623.613,-82.9539"/>
<polygon fill="none" stroke="#404040" points="623.38,-82.8933 616.565,-85.2518 611.767,-79.8686 618.582,-77.5101 623.38,-82.8933"/>
<text text-anchor="middle" x="836.131" y="-205" font-family="Helvetica,sans-Serif" font-size="10.00"> +power_frame_starting_time</text>
</g>
<!-- Node13 -->
<g id="node13" class="node"><title>Node13</title>
<g id="a_node13"><a xlink:href="classbool.html" target="_top" xlink:title="{bool\n||}">
<polygon fill="white" stroke="black" points="904.786,-336.5 904.786,-390.5 939.692,-390.5 939.692,-336.5 904.786,-336.5"/>
<text text-anchor="middle" x="922.239" y="-378.5" font-family="Helvetica,sans-Serif" font-size="10.00">bool</text>
<polyline fill="none" stroke="black" points="904.786,-372.5 939.692,-372.5 "/>
<text text-anchor="middle" x="922.239" y="-360.5" font-family="Helvetica,sans-Serif" font-size="10.00"> </text>
<polyline fill="none" stroke="black" points="904.786,-354.5 939.692,-354.5 "/>
<text text-anchor="middle" x="922.239" y="-342.5" font-family="Helvetica,sans-Serif" font-size="10.00"> </text>
</a>
</g>
</g>
<!-- Node13&#45;&gt;Node1 -->
<g id="edge13" class="edge"><title>Node13&#45;&gt;Node1</title>
<path fill="none" stroke="#404040" d="M923.116,-336.274C924.222,-286.213 923.67,-179.635 900.239,-153 864.369,-112.227 717.882,-88.2795 624.061,-76.8335"/>
<polygon fill="none" stroke="#404040" points="623.957,-76.8212 617.525,-80.0825 612.041,-75.4001 618.472,-72.1388 623.957,-76.8212"/>
<text text-anchor="middle" x="956.173" y="-205" font-family="Helvetica,sans-Serif" font-size="10.00"> +m_pow_mon</text>
</g>
<!-- Node14 -->
<g id="node14" class="node"><title>Node14</title>
<polygon fill="white" stroke="#bfbfbf" points="958.202,-336.5 958.202,-390.5 1064.28,-390.5 1064.28,-336.5 958.202,-336.5"/>
<text text-anchor="middle" x="1011.24" y="-378.5" font-family="Helvetica,sans-Serif" font-size="10.00">gs_config&lt; double &gt;</text>
<polyline fill="none" stroke="#bfbfbf" points="958.202,-372.5 1064.28,-372.5 "/>
<text text-anchor="middle" x="1011.24" y="-360.5" font-family="Helvetica,sans-Serif" font-size="10.00"> </text>
<polyline fill="none" stroke="#bfbfbf" points="958.202,-354.5 1064.28,-354.5 "/>
<text text-anchor="middle" x="1011.24" y="-342.5" font-family="Helvetica,sans-Serif" font-size="10.00"> </text>
</g>
<!-- Node14&#45;&gt;Node1 -->
<g id="edge14" class="edge"><title>Node14&#45;&gt;Node1</title>
<path fill="none" stroke="#404040" d="M1017.33,-336.364C1025.9,-292.382 1035.68,-203.448 989.239,-153 941.086,-100.695 739.268,-80.1446 624.307,-72.5694"/>
<polygon fill="none" stroke="#404040" points="624.073,-72.5547 617.831,-76.1653 612.098,-71.7922 618.34,-68.1815 624.073,-72.5547"/>
<text text-anchor="middle" x="1066.63" y="-255" font-family="Helvetica,sans-Serif" font-size="10.00"> +swi_power</text>
<text text-anchor="middle" x="1066.63" y="-245" font-family="Helvetica,sans-Serif" font-size="10.00">+dyn_write_energy</text>
<text text-anchor="middle" x="1066.63" y="-235" font-family="Helvetica,sans-Serif" font-size="10.00">+dyn_read_energy</text>
<text text-anchor="start" x="1024.24" y="-225" font-family="Helvetica,sans-Serif" font-size="10.00">+dyn_write_energy</text>
<text text-anchor="middle" x="1066.63" y="-215" font-family="Helvetica,sans-Serif" font-size="10.00">_norm</text>
<text text-anchor="middle" x="1066.63" y="-205" font-family="Helvetica,sans-Serif" font-size="10.00">+sta_power</text>
<text text-anchor="middle" x="1066.63" y="-195" font-family="Helvetica,sans-Serif" font-size="10.00">+int_power_norm</text>
<text text-anchor="middle" x="1066.63" y="-185" font-family="Helvetica,sans-Serif" font-size="10.00">+sta_power_norm</text>
<text text-anchor="start" x="1024.24" y="-175" font-family="Helvetica,sans-Serif" font-size="10.00">+dyn_read_energy</text>
<text text-anchor="middle" x="1066.63" y="-165" font-family="Helvetica,sans-Serif" font-size="10.00">_norm</text>
<text text-anchor="middle" x="1066.63" y="-155" font-family="Helvetica,sans-Serif" font-size="10.00">+int_power</text>
</g>
</g>
</svg>
