<?xml version="1.0" encoding="UTF-8" standalone="no"?>
<!DOCTYPE svg PUBLIC "-//W3C//DTD SVG 1.1//EN"
 "http://www.w3.org/Graphics/SVG/1.1/DTD/svg11.dtd">
<!-- Generated by graphviz version 2.36.0 (20140111.2315)
 -->
<!-- Title: sc_rf_valuecode Pages: 1 -->
<svg width="126pt" height="334pt"
 viewBox="0.00 0.00 126.00 334.00" xmlns="http://www.w3.org/2000/svg" xmlns:xlink="http://www.w3.org/1999/xlink">
<g id="graph0" class="graph" transform="scale(1 1) rotate(0) translate(4 330)">
<title>sc_rf_valuecode</title>
<polygon fill="white" stroke="none" points="-4,4 -4,-330 122,-330 122,4 -4,4"/>
<!-- Node1 -->
<g id="node1" class="node"><title>Node1</title>
<polygon fill="#bfbfbf" stroke="black" points="-0.5,-0.5 -0.5,-101.5 108.5,-101.5 108.5,-0.5 -0.5,-0.5"/>
<text text-anchor="middle" x="54" y="-89.5" font-family="Helvetica,sans-Serif" font-size="10.00">sc_rf_valuecode</text>
<polyline fill="none" stroke="black" points="-0.5,-82.5 108.5,-82.5 "/>
<text text-anchor="middle" x="54" y="-70.5" font-family="Helvetica,sans-Serif" font-size="10.00"> </text>
<polyline fill="none" stroke="black" points="-0.5,-63.5 108.5,-63.5 "/>
<text text-anchor="start" x="7.5" y="-51.5" font-family="Helvetica,sans-Serif" font-size="10.00">+ sc_rf_valuecode()</text>
<text text-anchor="start" x="7.5" y="-40.5" font-family="Helvetica,sans-Serif" font-size="10.00">+ sc_rf_valuecode()</text>
<text text-anchor="start" x="7.5" y="-29.5" font-family="Helvetica,sans-Serif" font-size="10.00">+ ~sc_rf_valuecode()</text>
<text text-anchor="start" x="7.5" y="-18.5" font-family="Helvetica,sans-Serif" font-size="10.00">+ mnemonic()</text>
<text text-anchor="start" x="7.5" y="-7.5" font-family="Helvetica,sans-Serif" font-size="10.00">+ desc()</text>
</g>
<!-- Node2 -->
<g id="node2" class="node"><title>Node2</title>
<g id="a_node2"><a xlink:title="STL class. ">
<polygon fill="white" stroke="#bfbfbf" points="24,-160.5 24,-217.5 84,-217.5 84,-160.5 24,-160.5"/>
<text text-anchor="middle" x="54" y="-205.5" font-family="Helvetica,sans-Serif" font-size="10.00">std::string</text>
<polyline fill="none" stroke="#bfbfbf" points="24,-198.5 84,-198.5 "/>
<text text-anchor="middle" x="54" y="-186.5" font-family="Helvetica,sans-Serif" font-size="10.00"> </text>
<polyline fill="none" stroke="#bfbfbf" points="24,-179.5 84,-179.5 "/>
<text text-anchor="middle" x="54" y="-167.5" font-family="Helvetica,sans-Serif" font-size="10.00"> </text>
</a>
</g>
</g>
<!-- Node2&#45;&gt;Node1 -->
<g id="edge1" class="edge"><title>Node2&#45;&gt;Node1</title>
<path fill="none" stroke="#404040" d="M54,-160.478C54,-147.057 54,-130.327 54,-114.055"/>
<polygon fill="none" stroke="#404040" points="54.0001,-113.764 50,-107.764 54,-101.764 58,-107.764 54.0001,-113.764"/>
<text text-anchor="middle" x="86" y="-134" font-family="Helvetica,sans-Serif" font-size="10.00"> #m_desc</text>
<text text-anchor="middle" x="86" y="-123" font-family="Helvetica,sans-Serif" font-size="10.00">#m_mnemonic</text>
</g>
<!-- Node3 -->
<g id="node3" class="node"><title>Node3</title>
<g id="a_node3"><a xlink:title="STL class. ">
<polygon fill="white" stroke="#bfbfbf" points="6.5,-257 6.5,-325 101.5,-325 101.5,-257 6.5,-257"/>
<text text-anchor="start" x="14.5" y="-313" font-family="Helvetica,sans-Serif" font-size="10.00">std::basic_string&lt;</text>
<text text-anchor="middle" x="54" y="-302" font-family="Helvetica,sans-Serif" font-size="10.00"> char &gt;</text>
<polyline fill="none" stroke="#bfbfbf" points="6.5,-295 101.5,-295 "/>
<text text-anchor="middle" x="54" y="-283" font-family="Helvetica,sans-Serif" font-size="10.00"> </text>
<polyline fill="none" stroke="#bfbfbf" points="6.5,-276 101.5,-276 "/>
<text text-anchor="middle" x="54" y="-264" font-family="Helvetica,sans-Serif" font-size="10.00"> </text>
</a>
</g>
</g>
<!-- Node3&#45;&gt;Node2 -->
<g id="edge2" class="edge"><title>Node3&#45;&gt;Node2</title>
<path fill="none" stroke="midnightblue" d="M54,-246.857C54,-236.952 54,-226.682 54,-217.64"/>
<polygon fill="none" stroke="midnightblue" points="50.5001,-246.979 54,-256.979 57.5001,-246.979 50.5001,-246.979"/>
</g>
</g>
</svg>
