<?xml version="1.0" encoding="UTF-8" standalone="no"?>
<!DOCTYPE svg PUBLIC "-//W3C//DTD SVG 1.1//EN"
 "http://www.w3.org/Graphics/SVG/1.1/DTD/svg11.dtd">
<!-- Generated by graphviz version 2.26.0 (20091210.2329)
 -->
<!-- Title: gs::amba::amba_slave&lt; BUSWIDTH &gt; Pages: 1 -->
<!--zoomable 808 -->
<svg id="main" version="1.1" xmlns="http://www.w3.org/2000/svg" xmlns:xlink="http://www.w3.org/1999/xlink" xml:space="preserve" onload="init(evt)">
<style type="text/css"><![CDATA[
.edge:hover path { stroke: red; }
.edge:hover polygon { stroke: red; fill: red; }
]]></style>
<script type="text/javascript"><![CDATA[
var edges = document.getElementsByTagName('g');
if (edges && edges.length) {
  for (var i=0;i<edges.length;i++) {
    if (edges[i].id.substr(0,4)=='edge') {
      edges[i].setAttribute('class','edge');
    }
  }
}
]]></script>
        <defs>
                <circle id="rim" cx="0" cy="0" r="7"/>
                <circle id="rim2" cx="0" cy="0" r="3.5"/>
                <g id="zoomPlus">
                        <use xlink:href="#rim" fill="#404040">
                                <set attributeName="fill" to="#808080" begin="zoomplus.mouseover" end="zoomplus.mouseout"/>
                        </use>
                        <path d="M-4,0h8M0,-4v8" fill="none" stroke="white" stroke-width="1.5" pointer-events="none"/>
                </g>
                <g id="zoomMin">
                        <use xlink:href="#rim" fill="#404040">
                                <set attributeName="fill" to="#808080" begin="zoomminus.mouseover" end="zoomminus.mouseout"/>
                        </use>
                        <path d="M-4,0h8" fill="none" stroke="white" stroke-width="1.5" pointer-events="none"/>
                </g>
                <g id="dirArrow">
                        <path fill="none" stroke="white" stroke-width="1.5" d="M0,-3.0v7 M-2.5,-0.5L0,-3.0L2.5,-0.5"/>
                </g>
               <g id="resetDef">
                       <use xlink:href="#rim2" fill="#404040">
                               <set attributeName="fill" to="#808080" begin="reset.mouseover" end="reset.mouseout"/>
                       </use>
               </g>
        </defs>

<script type="text/javascript">
var viewWidth = 574;
var viewHeight = 808;
var sectionId = 'dynsection-0';
</script>
<script xlink:href="svgpan.js"/>
<svg id="graph" class="graph">
<g id="viewport">
<title>gs::amba::amba_slave&lt; BUSWIDTH &gt;</title>
<polygon fill="white" stroke="white" points="-4,5 -4,-804 571,-804 571,5 -4,5"/>
<!-- Node1 -->
<g id="node1" class="node"><title>Node1</title>
<polygon fill="#bfbfbf" stroke="black" points="221,-387 221,-567 337,-567 337,-387 221,-387"/>
<text text-anchor="start" x="229" y="-554" font-family="Helvetica,sans-Serif" font-size="10.00">gs::amba::amba_slave</text>
<text text-anchor="middle" x="279" y="-541" font-family="Helvetica,sans-Serif" font-size="10.00">&lt; BUSWIDTH &gt;</text>
<polyline fill="none" stroke="black" points="221,-533 337,-533 "/>
<text text-anchor="start" x="229" y="-520" font-family="Helvetica,sans-Serif" font-size="10.00"># m_base</text>
<text text-anchor="start" x="229" y="-507" font-family="Helvetica,sans-Serif" font-size="10.00"># m_high</text>
<polyline fill="none" stroke="black" points="221,-499 337,-499 "/>
<text text-anchor="start" x="229" y="-486" font-family="Helvetica,sans-Serif" font-size="10.00">+ amba_slave()</text>
<text text-anchor="start" x="229" y="-473" font-family="Helvetica,sans-Serif" font-size="10.00">+ ~amba_slave()</text>
<text text-anchor="start" x="229" y="-460" font-family="Helvetica,sans-Serif" font-size="10.00">+ transport_dbg()</text>
<text text-anchor="start" x="229" y="-447" font-family="Helvetica,sans-Serif" font-size="10.00">+ b_transport()</text>
<text text-anchor="start" x="229" y="-434" font-family="Helvetica,sans-Serif" font-size="10.00">+ setAddress()</text>
<text text-anchor="start" x="229" y="-421" font-family="Helvetica,sans-Serif" font-size="10.00">+ get_base_addr()</text>
<text text-anchor="start" x="229" y="-408" font-family="Helvetica,sans-Serif" font-size="10.00">+ get_size()</text>
<text text-anchor="start" x="229" y="-395" font-family="Helvetica,sans-Serif" font-size="10.00">+ set_delay()</text>
</g>
<!-- Node6 -->
<g id="node11" class="node"><title>Node6</title>
<a xlink:href="classgs_1_1amba_1_1amba__slave.html" target="_top" xlink:title="{gs::amba::amba_slave\l\&lt; 32 \&gt;\n|# m_base\l# m_high\l|+ amba_slave()\l+ ~amba_slave()\l+ transport_dbg()\l+ b_transport()\l+ setAddress()\l+ get_base_addr()\l+ get_size()\l+ set_delay()\l}">
<polygon fill="white" stroke="black" points="221,-155 221,-335 337,-335 337,-155 221,-155"/>
<text text-anchor="start" x="229" y="-322" font-family="Helvetica,sans-Serif" font-size="10.00">gs::amba::amba_slave</text>
<text text-anchor="middle" x="279" y="-309" font-family="Helvetica,sans-Serif" font-size="10.00">&lt; 32 &gt;</text>
<polyline fill="none" stroke="black" points="221,-301 337,-301 "/>
<text text-anchor="start" x="229" y="-288" font-family="Helvetica,sans-Serif" font-size="10.00"># m_base</text>
<text text-anchor="start" x="229" y="-275" font-family="Helvetica,sans-Serif" font-size="10.00"># m_high</text>
<polyline fill="none" stroke="black" points="221,-267 337,-267 "/>
<text text-anchor="start" x="229" y="-254" font-family="Helvetica,sans-Serif" font-size="10.00">+ amba_slave()</text>
<text text-anchor="start" x="229" y="-241" font-family="Helvetica,sans-Serif" font-size="10.00">+ ~amba_slave()</text>
<text text-anchor="start" x="229" y="-228" font-family="Helvetica,sans-Serif" font-size="10.00">+ transport_dbg()</text>
<text text-anchor="start" x="229" y="-215" font-family="Helvetica,sans-Serif" font-size="10.00">+ b_transport()</text>
<text text-anchor="start" x="229" y="-202" font-family="Helvetica,sans-Serif" font-size="10.00">+ setAddress()</text>
<text text-anchor="start" x="229" y="-189" font-family="Helvetica,sans-Serif" font-size="10.00">+ get_base_addr()</text>
<text text-anchor="start" x="229" y="-176" font-family="Helvetica,sans-Serif" font-size="10.00">+ get_size()</text>
<text text-anchor="start" x="229" y="-163" font-family="Helvetica,sans-Serif" font-size="10.00">+ set_delay()</text>
</a>
</g>
<!-- Node1&#45;&gt;Node6 -->
<g id="edge10" class="edge"><title>Node1&#45;&gt;Node6</title>
<path fill="none" stroke="orange" d="M279,-376.967C279,-363.138 279,-349.001 279,-335.361"/>
<polygon fill="orange" stroke="orange" points="275.5,-376.971 279,-386.971 282.5,-376.971 275.5,-376.971"/>
<text text-anchor="middle" x="295" y="-358.5" font-family="Helvetica,sans-Serif" font-size="10.00"> &lt; 32 &gt;</text>
</g>
<!-- Node2 -->
<g id="node2" class="node"><title>Node2</title>
<a xlink:href="classgs_1_1amba_1_1generic__slave__base.html" target="_top" xlink:title="{gs::amba::generic_slave_base\n|# m_registers\l# m_decode_size\l# m_base_addr\l# m_delay_enabled\l|+ generic_slave_base()\l+ ~generic_slave_base()\l+ get_decode_size()\l+ disable_delay()\l+ enable_delay()\l+ delay_enabled()\l# write_to_module()\l# read_from_module()\l}">
<polygon fill="white" stroke="black" points="-0.5,-606.5 -0.5,-799.5 148.5,-799.5 148.5,-606.5 -0.5,-606.5"/>
<text text-anchor="middle" x="74" y="-786.5" font-family="Helvetica,sans-Serif" font-size="10.00">gs::amba::generic_slave_base</text>
<polyline fill="none" stroke="black" points="-0.5,-778.5 148.5,-778.5 "/>
<text text-anchor="start" x="7.5" y="-765.5" font-family="Helvetica,sans-Serif" font-size="10.00"># m_registers</text>
<text text-anchor="start" x="7.5" y="-752.5" font-family="Helvetica,sans-Serif" font-size="10.00"># m_decode_size</text>
<text text-anchor="start" x="7.5" y="-739.5" font-family="Helvetica,sans-Serif" font-size="10.00"># m_base_addr</text>
<text text-anchor="start" x="7.5" y="-726.5" font-family="Helvetica,sans-Serif" font-size="10.00"># m_delay_enabled</text>
<polyline fill="none" stroke="black" points="-0.5,-718.5 148.5,-718.5 "/>
<text text-anchor="start" x="7.5" y="-705.5" font-family="Helvetica,sans-Serif" font-size="10.00">+ generic_slave_base()</text>
<text text-anchor="start" x="7.5" y="-692.5" font-family="Helvetica,sans-Serif" font-size="10.00">+ ~generic_slave_base()</text>
<text text-anchor="start" x="7.5" y="-679.5" font-family="Helvetica,sans-Serif" font-size="10.00">+ get_decode_size()</text>
<text text-anchor="start" x="7.5" y="-666.5" font-family="Helvetica,sans-Serif" font-size="10.00">+ disable_delay()</text>
<text text-anchor="start" x="7.5" y="-653.5" font-family="Helvetica,sans-Serif" font-size="10.00">+ enable_delay()</text>
<text text-anchor="start" x="7.5" y="-640.5" font-family="Helvetica,sans-Serif" font-size="10.00">+ delay_enabled()</text>
<text text-anchor="start" x="7.5" y="-627.5" font-family="Helvetica,sans-Serif" font-size="10.00"># write_to_module()</text>
<text text-anchor="start" x="7.5" y="-614.5" font-family="Helvetica,sans-Serif" font-size="10.00"># read_from_module()</text>
</a>
</g>
<!-- Node2&#45;&gt;Node1 -->
<g id="edge2" class="edge"><title>Node2&#45;&gt;Node1</title>
<path fill="none" stroke="midnightblue" d="M155.454,-607.721C155.97,-607.145 156.486,-606.572 157,-606 177.514,-583.199 200.512,-558.635 220.963,-537.122"/>
<polygon fill="none" stroke="midnightblue" points="152.724,-605.524 148.681,-615.317 157.949,-610.182 152.724,-605.524"/>
</g>
<!-- Node3 -->
<g id="node4" class="node"><title>Node3</title>
<polygon fill="white" stroke="#bfbfbf" points="165.5,-671.5 165.5,-734.5 260.5,-734.5 260.5,-671.5 165.5,-671.5"/>
<text text-anchor="middle" x="213" y="-721.5" font-family="Helvetica,sans-Serif" font-size="10.00">amba_slave_base</text>
<polyline fill="none" stroke="#bfbfbf" points="165.5,-713.5 260.5,-713.5 "/>
<text text-anchor="middle" x="213" y="-700.5" font-family="Helvetica,sans-Serif" font-size="10.00"> </text>
<polyline fill="none" stroke="#bfbfbf" points="165.5,-692.5 260.5,-692.5 "/>
<text text-anchor="middle" x="213" y="-679.5" font-family="Helvetica,sans-Serif" font-size="10.00"> </text>
</g>
<!-- Node3&#45;&gt;Node1 -->
<g id="edge4" class="edge"><title>Node3&#45;&gt;Node1</title>
<path fill="none" stroke="midnightblue" d="M225.137,-661.44C232.844,-635.05 243.124,-599.847 252.637,-567.273"/>
<polygon fill="none" stroke="midnightblue" points="221.76,-660.519 222.316,-671.099 228.479,-662.481 221.76,-660.519"/>
</g>
<!-- Node4 -->
<g id="node6" class="node"><title>Node4</title>
<polygon fill="white" stroke="#bfbfbf" points="278,-665 278,-741 412,-741 412,-665 278,-665"/>
<text text-anchor="start" x="286" y="-728" font-family="Helvetica,sans-Serif" font-size="10.00">amba::amba_slave_socket</text>
<text text-anchor="middle" x="345" y="-715" font-family="Helvetica,sans-Serif" font-size="10.00">&lt; BUSWIDTH &gt;</text>
<polyline fill="none" stroke="#bfbfbf" points="278,-707 412,-707 "/>
<text text-anchor="middle" x="345" y="-694" font-family="Helvetica,sans-Serif" font-size="10.00"> </text>
<polyline fill="none" stroke="#bfbfbf" points="278,-686 412,-686 "/>
<text text-anchor="middle" x="345" y="-673" font-family="Helvetica,sans-Serif" font-size="10.00"> </text>
</g>
<!-- Node4&#45;&gt;Node1 -->
<g id="edge6" class="edge"><title>Node4&#45;&gt;Node1</title>
<path fill="none" stroke="midnightblue" d="M331.025,-655.145C323.583,-629.662 314.18,-597.466 305.422,-567.476"/>
<polygon fill="none" stroke="midnightblue" points="327.716,-656.3 333.879,-664.918 334.435,-654.338 327.716,-656.3"/>
</g>
<!-- Node5 -->
<g id="node8" class="node"><title>Node5</title>
<polygon fill="white" stroke="#bfbfbf" points="430,-671.5 430,-734.5 566,-734.5 566,-671.5 430,-671.5"/>
<text text-anchor="middle" x="498" y="-721.5" font-family="Helvetica,sans-Serif" font-size="10.00">GreenSocketAddress_base</text>
<polyline fill="none" stroke="#bfbfbf" points="430,-713.5 566,-713.5 "/>
<text text-anchor="middle" x="498" y="-700.5" font-family="Helvetica,sans-Serif" font-size="10.00"> </text>
<polyline fill="none" stroke="#bfbfbf" points="430,-692.5 566,-692.5 "/>
<text text-anchor="middle" x="498" y="-679.5" font-family="Helvetica,sans-Serif" font-size="10.00"> </text>
</g>
<!-- Node5&#45;&gt;Node1 -->
<g id="edge8" class="edge"><title>Node5&#45;&gt;Node1</title>
<path fill="none" stroke="midnightblue" d="M468.836,-663.318C454.988,-645.266 437.815,-623.972 421,-606 394.945,-578.152 363.791,-549.409 337.31,-526.142"/>
<polygon fill="none" stroke="midnightblue" points="466.113,-665.519 474.952,-671.36 471.685,-661.282 466.113,-665.519"/>
</g>
<!-- Node7 -->
<g id="node13" class="node"><title>Node7</title>
<a xlink:href="classgs_1_1reg_1_1greenreg__socket_3_01gs_1_1amba_1_1amba__slave_3_0132_01_4_01_4.html" target="_top" xlink:title="greenreg_socket: A greenreg port class ">
<polygon fill="white" stroke="black" points="216.5,-0.5 216.5,-115.5 341.5,-115.5 341.5,-0.5 216.5,-0.5"/>
<text text-anchor="start" x="224.5" y="-102.5" font-family="Helvetica,sans-Serif" font-size="10.00">gs::reg::greenreg_socket</text>
<text text-anchor="start" x="224.5" y="-89.5" font-family="Helvetica,sans-Serif" font-size="10.00">&lt; gs::amba::amba_slave</text>
<text text-anchor="middle" x="279" y="-76.5" font-family="Helvetica,sans-Serif" font-size="10.00">&lt; 32 &gt; &gt;</text>
<polyline fill="none" stroke="black" points="216.5,-68.5 341.5,-68.5 "/>
<text text-anchor="middle" x="279" y="-55.5" font-family="Helvetica,sans-Serif" font-size="10.00"> </text>
<polyline fill="none" stroke="black" points="216.5,-47.5 341.5,-47.5 "/>
<text text-anchor="start" x="224.5" y="-34.5" font-family="Helvetica,sans-Serif" font-size="10.00">+ greenreg_socket()</text>
<text text-anchor="start" x="224.5" y="-21.5" font-family="Helvetica,sans-Serif" font-size="10.00">+ operator()()</text>
<text text-anchor="start" x="224.5" y="-8.5" font-family="Helvetica,sans-Serif" font-size="10.00">+ get_bus_port()</text>
</a>
</g>
<!-- Node6&#45;&gt;Node7 -->
<g id="edge12" class="edge"><title>Node6&#45;&gt;Node7</title>
<path fill="none" stroke="midnightblue" d="M279,-144.77C279,-134.771 279,-124.875 279,-115.542"/>
<polygon fill="none" stroke="midnightblue" points="275.5,-144.786 279,-154.787 282.5,-144.787 275.5,-144.786"/>
</g>
</g>
</svg>
        <g id="navigator" transform="translate(0 0)" fill="#404254">
                <rect fill="#f2f5e9" fill-opacity="0.5" stroke="#606060" stroke-width=".5" x="0" y="0" width="60" height="60"/>
                <use id="zoomplus" xlink:href="#zoomPlus" x="17" y="9" onmousedown="handleZoom(evt,'in')"/>
                <use id="zoomminus" xlink:href="#zoomMin" x="42" y="9" onmousedown="handleZoom(evt,'out')"/>
                <use id="reset" xlink:href="#resetDef" x="30" y="36" onmousedown="handleReset()"/>
                <g id="arrowUp" xlink:href="#dirArrow" transform="translate(30 24)" onmousedown="handlePan(0,-1)">
                  <use xlink:href="#rim" fill="#404040">
                        <set attributeName="fill" to="#808080" begin="arrowUp.mouseover" end="arrowUp.mouseout"/>
                  </use>
                  <path fill="none" stroke="white" stroke-width="1.5" d="M0,-3.0v7 M-2.5,-0.5L0,-3.0L2.5,-0.5"/>
                </g>
                <g id="arrowRight" xlink:href="#dirArrow" transform="rotate(90) translate(36 -43)" onmousedown="handlePan(1,0)">
                  <use xlink:href="#rim" fill="#404040">
                        <set attributeName="fill" to="#808080" begin="arrowRight.mouseover" end="arrowRight.mouseout"/>
                  </use>
                  <path fill="none" stroke="white" stroke-width="1.5" d="M0,-3.0v7 M-2.5,-0.5L0,-3.0L2.5,-0.5"/>
                </g>
                <g id="arrowDown" xlink:href="#dirArrow" transform="rotate(180) translate(-30 -48)" onmousedown="handlePan(0,1)">
                  <use xlink:href="#rim" fill="#404040">
                        <set attributeName="fill" to="#808080" begin="arrowDown.mouseover" end="arrowDown.mouseout"/>
                  </use>
                  <path fill="none" stroke="white" stroke-width="1.5" d="M0,-3.0v7 M-2.5,-0.5L0,-3.0L2.5,-0.5"/>
                </g>
                <g id="arrowLeft" xlink:href="#dirArrow" transform="rotate(270) translate(-36 17)" onmousedown="handlePan(-1,0)">
                  <use xlink:href="#rim" fill="#404040">
                        <set attributeName="fill" to="#808080" begin="arrowLeft.mouseover" end="arrowLeft.mouseout"/>
                  </use>
                  <path fill="none" stroke="white" stroke-width="1.5" d="M0,-3.0v7 M-2.5,-0.5L0,-3.0L2.5,-0.5"/>
                </g>
        </g>
        <svg viewBox="0 0 15 15" width="100%" height="30px" preserveAspectRatio="xMaxYMin meet">
         <g id="arrow_out" transform="scale(0.3 0.3)">
          <a xlink:href="classgs_1_1amba_1_1amba__slave__inherit__graph_org.svg" target="_base">
           <rect id="button" ry="5" rx="5" y="6" x="6" height="38" width="38"
                fill="#f2f5e9" fill-opacity="0.5" stroke="#606060" stroke-width="1.0"/>
           <path id="arrow"
             d="M 11.500037,31.436501 C 11.940474,20.09759 22.043105,11.32322 32.158766,21.979434 L 37.068811,17.246167 C 37.068811,17.246167 37.088388,32 37.088388,32 L 22.160133,31.978069 C 22.160133,31.978069 26.997745,27.140456 26.997745,27.140456 C 18.528582,18.264221 13.291696,25.230495 11.500037,31.436501 z"
             style="fill:#404040;"/>
          </a>
         </g>
        </svg>
</svg>
