<?xml version="1.0" encoding="UTF-8" standalone="no"?>
<!DOCTYPE svg PUBLIC "-//W3C//DTD SVG 1.1//EN"
 "http://www.w3.org/Graphics/SVG/1.1/DTD/svg11.dtd">
<!-- Generated by graphviz version 2.38.0 (20140413.2041)
 -->
<!-- Title: IrqGenerator Pages: 1 -->
<svg width="342pt" height="331pt"
 viewBox="0.00 0.00 341.50 331.00" xmlns="http://www.w3.org/2000/svg" xmlns:xlink="http://www.w3.org/1999/xlink">
<g id="graph0" class="graph" transform="scale(1 1) rotate(0) translate(4 327)">
<title>IrqGenerator</title>
<polygon fill="white" stroke="none" points="-4,4 -4,-327 337.5,-327 337.5,4 -4,4"/>
<!-- Node1 -->
<g id="node1" class="node"><title>Node1</title>
<polygon fill="#bfbfbf" stroke="black" points="130,-0.5 130,-90.5 257,-90.5 257,-0.5 130,-0.5"/>
<text text-anchor="middle" x="193.5" y="-78.5" font-family="Helvetica,sans-Serif" font-size="10.00">IrqGenerator</text>
<polyline fill="none" stroke="black" points="130,-71.5 257,-71.5 "/>
<text text-anchor="middle" x="193.5" y="-59.5" font-family="Helvetica,sans-Serif" font-size="10.00"> </text>
<polyline fill="none" stroke="black" points="130,-52.5 257,-52.5 "/>
<text text-anchor="start" x="138" y="-40.5" font-family="Helvetica,sans-Serif" font-size="10.00">+ SC_HAS_PROCESS()</text>
<text text-anchor="start" x="138" y="-29.5" font-family="Helvetica,sans-Serif" font-size="10.00">+ IrqGenerator()</text>
<text text-anchor="start" x="138" y="-18.5" font-family="Helvetica,sans-Serif" font-size="10.00">+ callbackMethod()</text>
<text text-anchor="start" x="138" y="-7.5" font-family="Helvetica,sans-Serif" font-size="10.00">+ generateIrq()</text>
</g>
<!-- Node2 -->
<g id="node2" class="node"><title>Node2</title>
<g id="a_node2"><a xlink:href="classsr__signal_1_1sr__signal__module.html" target="_top" xlink:title="{sr_signal::sr_signal\l_module\&lt; IrqGenerator \&gt;\n||}">
<polygon fill="white" stroke="black" points="0,-138.5 0,-206.5 125,-206.5 125,-138.5 0,-138.5"/>
<text text-anchor="start" x="8" y="-194.5" font-family="Helvetica,sans-Serif" font-size="10.00">sr_signal::sr_signal</text>
<text text-anchor="middle" x="62.5" y="-183.5" font-family="Helvetica,sans-Serif" font-size="10.00">_module&lt; IrqGenerator &gt;</text>
<polyline fill="none" stroke="black" points="0,-176.5 125,-176.5 "/>
<text text-anchor="middle" x="62.5" y="-164.5" font-family="Helvetica,sans-Serif" font-size="10.00"> </text>
<polyline fill="none" stroke="black" points="0,-157.5 125,-157.5 "/>
<text text-anchor="middle" x="62.5" y="-145.5" font-family="Helvetica,sans-Serif" font-size="10.00"> </text>
</a>
</g>
</g>
<!-- Node2&#45;&gt;Node1 -->
<g id="edge1" class="edge"><title>Node2&#45;&gt;Node1</title>
<path fill="none" stroke="midnightblue" d="M104.633,-131.296C118.22,-118.332 133.351,-103.894 147.221,-90.6596"/>
<polygon fill="none" stroke="midnightblue" points="102.08,-128.895 97.2617,-138.33 106.913,-133.959 102.08,-128.895"/>
</g>
<!-- Node3 -->
<g id="node3" class="node"><title>Node3</title>
<g id="a_node3"><a xlink:href="classsr__signal_1_1sr__signal__module.html" target="_top" xlink:title="{sr_signal::sr_signal\l_module\&lt; MODULE \&gt;\n||}">
<polygon fill="white" stroke="black" points="5.5,-254.5 5.5,-322.5 119.5,-322.5 119.5,-254.5 5.5,-254.5"/>
<text text-anchor="start" x="13.5" y="-310.5" font-family="Helvetica,sans-Serif" font-size="10.00">sr_signal::sr_signal</text>
<text text-anchor="middle" x="62.5" y="-299.5" font-family="Helvetica,sans-Serif" font-size="10.00">_module&lt; MODULE &gt;</text>
<polyline fill="none" stroke="black" points="5.5,-292.5 119.5,-292.5 "/>
<text text-anchor="middle" x="62.5" y="-280.5" font-family="Helvetica,sans-Serif" font-size="10.00"> </text>
<polyline fill="none" stroke="black" points="5.5,-273.5 119.5,-273.5 "/>
<text text-anchor="middle" x="62.5" y="-261.5" font-family="Helvetica,sans-Serif" font-size="10.00"> </text>
</a>
</g>
</g>
<!-- Node3&#45;&gt;Node2 -->
<g id="edge2" class="edge"><title>Node3&#45;&gt;Node2</title>
<path fill="none" stroke="orange" d="M62.5,-244.06C62.5,-231.644 62.5,-218.316 62.5,-206.624"/>
<polygon fill="orange" stroke="orange" points="59.0001,-244.22 62.5,-254.22 66.0001,-244.22 59.0001,-244.22"/>
<text text-anchor="middle" x="100.5" y="-228" font-family="Helvetica,sans-Serif" font-size="10.00"> &lt; IrqGenerator &gt;</text>
</g>
<!-- Node4 -->
<g id="node4" class="node"><title>Node4</title>
<polygon fill="white" stroke="#bfbfbf" points="143.5,-144 143.5,-201 207.5,-201 207.5,-144 143.5,-144"/>
<text text-anchor="middle" x="175.5" y="-189" font-family="Helvetica,sans-Serif" font-size="10.00">sc_module</text>
<polyline fill="none" stroke="#bfbfbf" points="143.5,-182 207.5,-182 "/>
<text text-anchor="middle" x="175.5" y="-170" font-family="Helvetica,sans-Serif" font-size="10.00"> </text>
<polyline fill="none" stroke="#bfbfbf" points="143.5,-163 207.5,-163 "/>
<text text-anchor="middle" x="175.5" y="-151" font-family="Helvetica,sans-Serif" font-size="10.00"> </text>
</g>
<!-- Node4&#45;&gt;Node1 -->
<g id="edge3" class="edge"><title>Node4&#45;&gt;Node1</title>
<path fill="none" stroke="midnightblue" d="M180.925,-133.824C182.874,-120.291 185.09,-104.904 187.113,-90.8562"/>
<polygon fill="none" stroke="midnightblue" points="177.456,-133.362 179.495,-143.758 184.384,-134.359 177.456,-133.362"/>
</g>
<!-- Node5 -->
<g id="node5" class="node"><title>Node5</title>
<polygon fill="white" stroke="#bfbfbf" points="226,-144 226,-201 255,-201 255,-144 226,-144"/>
<text text-anchor="middle" x="240.5" y="-189" font-family="Helvetica,sans-Serif" font-size="10.00">in</text>
<polyline fill="none" stroke="#bfbfbf" points="226,-182 255,-182 "/>
<text text-anchor="middle" x="240.5" y="-170" font-family="Helvetica,sans-Serif" font-size="10.00"> </text>
<polyline fill="none" stroke="#bfbfbf" points="226,-163 255,-163 "/>
<text text-anchor="middle" x="240.5" y="-151" font-family="Helvetica,sans-Serif" font-size="10.00"> </text>
</g>
<!-- Node5&#45;&gt;Node1 -->
<g id="edge4" class="edge"><title>Node5&#45;&gt;Node1</title>
<path fill="none" stroke="#404040" d="M230.069,-143.758C225.46,-131.5 219.867,-116.625 214.456,-102.234"/>
<polygon fill="none" stroke="#404040" points="214.401,-102.089 208.546,-97.8802 210.178,-90.8562 216.034,-95.0646 214.401,-102.089"/>
<text text-anchor="middle" x="247" y="-112" font-family="Helvetica,sans-Serif" font-size="10.00"> +targSignal</text>
</g>
<!-- Node6 -->
<g id="node6" class="node"><title>Node6</title>
<polygon fill="white" stroke="#bfbfbf" points="287.5,-144 287.5,-201 317.5,-201 317.5,-144 287.5,-144"/>
<text text-anchor="middle" x="302.5" y="-189" font-family="Helvetica,sans-Serif" font-size="10.00">out</text>
<polyline fill="none" stroke="#bfbfbf" points="287.5,-182 317.5,-182 "/>
<text text-anchor="middle" x="302.5" y="-170" font-family="Helvetica,sans-Serif" font-size="10.00"> </text>
<polyline fill="none" stroke="#bfbfbf" points="287.5,-163 317.5,-163 "/>
<text text-anchor="middle" x="302.5" y="-151" font-family="Helvetica,sans-Serif" font-size="10.00"> </text>
</g>
<!-- Node6&#45;&gt;Node1 -->
<g id="edge5" class="edge"><title>Node6&#45;&gt;Node1</title>
<path fill="none" stroke="#404040" d="M295.138,-143.956C291.161,-132.397 285.41,-119.281 277.5,-109 274.012,-104.466 270.112,-100.103 265.954,-95.9366"/>
<polygon fill="none" stroke="#404040" points="265.875,-95.8625 258.76,-94.6884 257.107,-87.6692 264.222,-88.8433 265.875,-95.8625"/>
<text text-anchor="middle" x="309" y="-112" font-family="Helvetica,sans-Serif" font-size="10.00"> +initSignal</text>
</g>
</g>
</svg>
