<?xml version="1.0" encoding="UTF-8" standalone="no"?>
<!DOCTYPE svg PUBLIC "-//W3C//DTD SVG 1.1//EN"
 "http://www.w3.org/Graphics/SVG/1.1/DTD/svg11.dtd">
<!-- Generated by graphviz version 2.26.0 (20091210.2329)
 -->
<!-- Title: sc_register_example::sc_register&lt; unsigned short, M &gt;::before_end_of_elaboration Pages: 1 -->
<svg width="422pt" height="162pt"
 viewBox="0.00 0.00 422.00 162.00" xmlns="http://www.w3.org/2000/svg" xmlns:xlink="http://www.w3.org/1999/xlink">
<g id="graph1" class="graph" transform="scale(1 1) rotate(0) translate(4 158)">
<title>sc_register_example::sc_register&lt; unsigned short, M &gt;::before_end_of_elaboration</title>
<polygon fill="white" stroke="white" points="-4,5 -4,-158 419,-158 419,5 -4,5"/>
<!-- Node1 -->
<g id="node1" class="node"><title>Node1</title>
<polygon fill="#bfbfbf" stroke="black" points="0.5,-60 0.5,-120 119.5,-120 119.5,-60 0.5,-60"/>
<text text-anchor="start" x="8.5" y="-107" font-family="Helvetica,sans-Serif" font-size="10.00">sc_register_example</text>
<text text-anchor="start" x="8.5" y="-94" font-family="Helvetica,sans-Serif" font-size="10.00">::sc_register&lt; unsigned</text>
<text text-anchor="start" x="8.5" y="-81" font-family="Helvetica,sans-Serif" font-size="10.00"> short, M &gt;::before_end</text>
<text text-anchor="middle" x="60" y="-68" font-family="Helvetica,sans-Serif" font-size="10.00">_of_elaboration</text>
</g>
<!-- Node2 -->
<g id="node3" class="node"><title>Node2</title>
<a xlink:href="classsc__register__example_1_1sc__register__b.html#a83d8889cc2b08fa23d66a1e4be55ac1e" target="_top" xlink:title="sc_register_example\l::sc_register_b::check\l_and_init">
<polygon fill="white" stroke="black" points="156.5,-66.5 156.5,-113.5 269.5,-113.5 269.5,-66.5 156.5,-66.5"/>
<text text-anchor="start" x="164.5" y="-100.5" font-family="Helvetica,sans-Serif" font-size="10.00">sc_register_example</text>
<text text-anchor="start" x="164.5" y="-87.5" font-family="Helvetica,sans-Serif" font-size="10.00">::sc_register_b::check</text>
<text text-anchor="middle" x="213" y="-74.5" font-family="Helvetica,sans-Serif" font-size="10.00">_and_init</text>
</a>
</g>
<!-- Node1&#45;&gt;Node2 -->
<g id="edge2" class="edge"><title>Node1&#45;&gt;Node2</title>
<path fill="none" stroke="midnightblue" d="M119.592,-90C128.276,-90 137.266,-90 146.084,-90"/>
<polygon fill="midnightblue" stroke="midnightblue" points="146.327,-93.5001 156.327,-90 146.327,-86.5001 146.327,-93.5001"/>
</g>
<!-- Node3 -->
<g id="node5" class="node"><title>Node3</title>
<a xlink:href="namespacecore_1_1waf_1_1cmake.html#a2cc9c2d5713380ebb07751a69eeb9bc6" target="_top" xlink:title="core.waf.cmake.f">
<polygon fill="white" stroke="black" points="314,-132.5 314,-153.5 406,-153.5 406,-132.5 314,-132.5"/>
<text text-anchor="middle" x="360" y="-140.5" font-family="Helvetica,sans-Serif" font-size="10.00">core.waf.cmake.f</text>
</a>
</g>
<!-- Node2&#45;&gt;Node3 -->
<g id="edge4" class="edge"><title>Node2&#45;&gt;Node3</title>
<path fill="none" stroke="midnightblue" d="M269.834,-110.491C287.096,-116.715 305.652,-123.405 321.417,-129.089"/>
<polygon fill="midnightblue" stroke="midnightblue" points="320.241,-132.386 330.835,-132.485 322.615,-125.801 320.241,-132.386"/>
</g>
<!-- Node4 -->
<g id="node7" class="node"><title>Node4</title>
<a xlink:href="classsc__register__example_1_1sc__register__field__base.html#abbc7018afc3684d95891a57e50527de4" target="_top" xlink:title="sc_register_example\l::sc_register_field\l_base::high_pos">
<polygon fill="white" stroke="black" points="306.5,-66.5 306.5,-113.5 413.5,-113.5 413.5,-66.5 306.5,-66.5"/>
<text text-anchor="start" x="314.5" y="-100.5" font-family="Helvetica,sans-Serif" font-size="10.00">sc_register_example</text>
<text text-anchor="start" x="314.5" y="-87.5" font-family="Helvetica,sans-Serif" font-size="10.00">::sc_register_field</text>
<text text-anchor="middle" x="360" y="-74.5" font-family="Helvetica,sans-Serif" font-size="10.00">_base::high_pos</text>
</a>
</g>
<!-- Node2&#45;&gt;Node4 -->
<g id="edge6" class="edge"><title>Node2&#45;&gt;Node4</title>
<path fill="none" stroke="midnightblue" d="M269.834,-90C278.428,-90 287.344,-90 296.075,-90"/>
<polygon fill="midnightblue" stroke="midnightblue" points="296.211,-93.5001 306.211,-90 296.211,-86.5001 296.211,-93.5001"/>
</g>
<!-- Node5 -->
<g id="node9" class="node"><title>Node5</title>
<a xlink:href="classsc__register__example_1_1sc__register__field__base.html#a8460c13541fb27c2358759d92c5fee33" target="_top" xlink:title="sc_register_example\l::sc_register_field\l_base::low_pos">
<polygon fill="white" stroke="black" points="306.5,-0.5 306.5,-47.5 413.5,-47.5 413.5,-0.5 306.5,-0.5"/>
<text text-anchor="start" x="314.5" y="-34.5" font-family="Helvetica,sans-Serif" font-size="10.00">sc_register_example</text>
<text text-anchor="start" x="314.5" y="-21.5" font-family="Helvetica,sans-Serif" font-size="10.00">::sc_register_field</text>
<text text-anchor="middle" x="360" y="-8.5" font-family="Helvetica,sans-Serif" font-size="10.00">_base::low_pos</text>
</a>
</g>
<!-- Node2&#45;&gt;Node5 -->
<g id="edge8" class="edge"><title>Node2&#45;&gt;Node5</title>
<path fill="none" stroke="midnightblue" d="M265.655,-66.3589C276.105,-61.6672 287.168,-56.7003 297.898,-51.8826"/>
<polygon fill="midnightblue" stroke="midnightblue" points="299.529,-54.9868 307.218,-47.6979 296.662,-48.6009 299.529,-54.9868"/>
</g>
</g>
</svg>
