<?xml version="1.0" encoding="UTF-8" standalone="no"?>
<!DOCTYPE svg PUBLIC "-//W3C//DTD SVG 1.1//EN"
 "http://www.w3.org/Graphics/SVG/1.1/DTD/svg11.dtd">
<!-- Generated by graphviz version 2.38.0 (20140413.2041)
 -->
<!-- Title: trap::MemoryLT::MemoryLT Pages: 1 -->
<svg width="333pt" height="116pt"
 viewBox="0.00 0.00 333.00 116.00" xmlns="http://www.w3.org/2000/svg" xmlns:xlink="http://www.w3.org/1999/xlink">
<g id="graph0" class="graph" transform="scale(1 1) rotate(0) translate(4 112)">
<title>trap::MemoryLT::MemoryLT</title>
<polygon fill="white" stroke="none" points="-4,4 -4,-112 329,-112 329,4 -4,4"/>
<!-- Node1 -->
<g id="node1" class="node"><title>Node1</title>
<polygon fill="#bfbfbf" stroke="black" points="0,-44.5 0,-63.5 138,-63.5 138,-44.5 0,-44.5"/>
<text text-anchor="middle" x="69" y="-51.5" font-family="Helvetica,sans-Serif" font-size="10.00">trap::MemoryLT::MemoryLT</text>
</g>
<!-- Node2 -->
<g id="node2" class="node"><title>Node2</title>
<g id="a_node2"><a xlink:href="classtrap_1_1MemoryLT.html#a27e52c71db98f6e6cd892cab93847b32" target="_top" xlink:title="trap::MemoryLT::b_transport">
<polygon fill="white" stroke="black" points="179.5,-88.5 179.5,-107.5 319.5,-107.5 319.5,-88.5 179.5,-88.5"/>
<text text-anchor="middle" x="249.5" y="-95.5" font-family="Helvetica,sans-Serif" font-size="10.00">trap::MemoryLT::b_transport</text>
</a>
</g>
</g>
<!-- Node1&#45;&gt;Node2 -->
<g id="edge1" class="edge"><title>Node1&#45;&gt;Node2</title>
<path fill="none" stroke="midnightblue" d="M108.732,-63.5473C135.514,-70.1492 171.347,-78.9819 200.025,-86.051"/>
<polygon fill="midnightblue" stroke="midnightblue" points="199.297,-89.4761 209.844,-88.4713 200.972,-82.6796 199.297,-89.4761"/>
</g>
<!-- Node3 -->
<g id="node3" class="node"><title>Node3</title>
<g id="a_node3"><a xlink:href="classtrap_1_1MemoryLT.html#a20af9cc66b9bae16a931a249dc462ec2" target="_top" xlink:title="trap::MemoryLT::get\l_direct_mem_ptr">
<polygon fill="white" stroke="black" points="197,-39 197,-69 302,-69 302,-39 197,-39"/>
<text text-anchor="start" x="205" y="-57" font-family="Helvetica,sans-Serif" font-size="10.00">trap::MemoryLT::get</text>
<text text-anchor="middle" x="249.5" y="-46" font-family="Helvetica,sans-Serif" font-size="10.00">_direct_mem_ptr</text>
</a>
</g>
</g>
<!-- Node1&#45;&gt;Node3 -->
<g id="edge2" class="edge"><title>Node1&#45;&gt;Node3</title>
<path fill="none" stroke="midnightblue" d="M138.247,-54C154.233,-54 171.172,-54 186.85,-54"/>
<polygon fill="midnightblue" stroke="midnightblue" points="186.948,-57.5001 196.948,-54 186.948,-50.5001 186.948,-57.5001"/>
</g>
<!-- Node4 -->
<g id="node4" class="node"><title>Node4</title>
<g id="a_node4"><a xlink:href="classtrap_1_1MemoryLT.html#a0fbc865e5b0dd68805df8c80b5d300e0" target="_top" xlink:title="trap::MemoryLT::transport_dbg">
<polygon fill="white" stroke="black" points="174,-0.5 174,-19.5 325,-19.5 325,-0.5 174,-0.5"/>
<text text-anchor="middle" x="249.5" y="-7.5" font-family="Helvetica,sans-Serif" font-size="10.00">trap::MemoryLT::transport_dbg</text>
</a>
</g>
</g>
<!-- Node1&#45;&gt;Node4 -->
<g id="edge3" class="edge"><title>Node1&#45;&gt;Node4</title>
<path fill="none" stroke="midnightblue" d="M108.732,-44.4527C135.514,-37.8508 171.347,-29.0181 200.025,-21.949"/>
<polygon fill="midnightblue" stroke="midnightblue" points="200.972,-25.3204 209.844,-19.5287 199.297,-18.5239 200.972,-25.3204"/>
</g>
</g>
</svg>
