<?xml version="1.0" encoding="UTF-8" standalone="no"?>
<!DOCTYPE svg PUBLIC "-//W3C//DTD SVG 1.1//EN"
 "http://www.w3.org/Graphics/SVG/1.1/DTD/svg11.dtd">
<!-- Generated by graphviz version 2.26.0 (20091210.2329)
 -->
<!-- Title: gs_config&lt; std::vector&lt; std::string &gt; &gt; Pages: 1 -->
<svg width="603pt" height="1076pt"
 viewBox="0.00 0.00 603.00 1076.00" xmlns="http://www.w3.org/2000/svg" xmlns:xlink="http://www.w3.org/1999/xlink">
<g id="graph1" class="graph" transform="scale(1 1) rotate(0) translate(4 1072)">
<title>gs_config&lt; std::vector&lt; std::string &gt; &gt;</title>
<polygon fill="white" stroke="white" points="-4,5 -4,-1072 600,-1072 600,5 -4,5"/>
<!-- Node1 -->
<g id="node1" class="node"><title>Node1</title>
<polygon fill="#bfbfbf" stroke="black" points="139.5,-0.5 139.5,-167.5 294.5,-167.5 294.5,-0.5 139.5,-0.5"/>
<text text-anchor="start" x="147.5" y="-154.5" font-family="Helvetica,sans-Serif" font-size="10.00">gs_config&lt; std::vector</text>
<text text-anchor="middle" x="217" y="-141.5" font-family="Helvetica,sans-Serif" font-size="10.00">&lt; std::string &gt; &gt;</text>
<polyline fill="none" stroke="black" points="139.5,-133.5 294.5,-133.5 "/>
<text text-anchor="start" x="147.5" y="-120.5" font-family="Helvetica,sans-Serif" font-size="10.00">+ GS_CONFIG_HEAD</text>
<polyline fill="none" stroke="black" points="139.5,-112.5 294.5,-112.5 "/>
<text text-anchor="start" x="147.5" y="-99.5" font-family="Helvetica,sans-Serif" font-size="10.00">+ empty()</text>
<text text-anchor="start" x="147.5" y="-86.5" font-family="Helvetica,sans-Serif" font-size="10.00">+ getTypeString()</text>
<text text-anchor="start" x="147.5" y="-73.5" font-family="Helvetica,sans-Serif" font-size="10.00">+ getType()</text>
<text text-anchor="start" x="147.5" y="-60.5" font-family="Helvetica,sans-Serif" font-size="10.00">+ operator[]()</text>
<text text-anchor="start" x="147.5" y="-47.5" font-family="Helvetica,sans-Serif" font-size="10.00">+ size()</text>
<text text-anchor="start" x="147.5" y="-34.5" font-family="Helvetica,sans-Serif" font-size="10.00">+ convertValueToString()</text>
<text text-anchor="start" x="147.5" y="-21.5" font-family="Helvetica,sans-Serif" font-size="10.00">+ static_convertValueToString()</text>
<text text-anchor="start" x="147.5" y="-8.5" font-family="Helvetica,sans-Serif" font-size="10.00">+ static_deserialize()</text>
</g>
<!-- Node2 -->
<g id="node2" class="node"><title>Node2</title>
<a xlink:href="classgs_1_1cnf_1_1gs__config__t.html" target="_top" xlink:title="{gs::cnf::gs_config\l_t\&lt; std::vector\&lt; std\l::string \&gt; \&gt;\n||+ operator+=()\l+ operator&#45;=()\l+ operator/=()\l+ operator*=()\l+ operator+()\l+ operator&#45;()\l+ operator/()\l+ operator*()\l+ operator%=()\l+ operator^=()\land 27 more...\l# mirror_callback()\l# convertStringToValue()\l}">
<polygon fill="white" stroke="black" points="154.5,-206.5 154.5,-451.5 279.5,-451.5 279.5,-206.5 154.5,-206.5"/>
<text text-anchor="start" x="162.5" y="-438.5" font-family="Helvetica,sans-Serif" font-size="10.00">gs::cnf::gs_config</text>
<text text-anchor="start" x="162.5" y="-425.5" font-family="Helvetica,sans-Serif" font-size="10.00">_t&lt; std::vector&lt; std</text>
<text text-anchor="middle" x="217" y="-412.5" font-family="Helvetica,sans-Serif" font-size="10.00">::string &gt; &gt;</text>
<polyline fill="none" stroke="black" points="154.5,-404.5 279.5,-404.5 "/>
<text text-anchor="middle" x="217" y="-391.5" font-family="Helvetica,sans-Serif" font-size="10.00"> </text>
<polyline fill="none" stroke="black" points="154.5,-383.5 279.5,-383.5 "/>
<text text-anchor="start" x="162.5" y="-370.5" font-family="Helvetica,sans-Serif" font-size="10.00">+ operator+=()</text>
<text text-anchor="start" x="162.5" y="-357.5" font-family="Helvetica,sans-Serif" font-size="10.00">+ operator&#45;=()</text>
<text text-anchor="start" x="162.5" y="-344.5" font-family="Helvetica,sans-Serif" font-size="10.00">+ operator/=()</text>
<text text-anchor="start" x="162.5" y="-331.5" font-family="Helvetica,sans-Serif" font-size="10.00">+ operator*=()</text>
<text text-anchor="start" x="162.5" y="-318.5" font-family="Helvetica,sans-Serif" font-size="10.00">+ operator+()</text>
<text text-anchor="start" x="162.5" y="-305.5" font-family="Helvetica,sans-Serif" font-size="10.00">+ operator&#45;()</text>
<text text-anchor="start" x="162.5" y="-292.5" font-family="Helvetica,sans-Serif" font-size="10.00">+ operator/()</text>
<text text-anchor="start" x="162.5" y="-279.5" font-family="Helvetica,sans-Serif" font-size="10.00">+ operator*()</text>
<text text-anchor="start" x="162.5" y="-266.5" font-family="Helvetica,sans-Serif" font-size="10.00">+ operator%=()</text>
<text text-anchor="start" x="162.5" y="-253.5" font-family="Helvetica,sans-Serif" font-size="10.00">+ operator^=()</text>
<text text-anchor="start" x="162.5" y="-240.5" font-family="Helvetica,sans-Serif" font-size="10.00">and 27 more...</text>
<text text-anchor="start" x="162.5" y="-227.5" font-family="Helvetica,sans-Serif" font-size="10.00"># mirror_callback()</text>
<text text-anchor="start" x="162.5" y="-214.5" font-family="Helvetica,sans-Serif" font-size="10.00"># convertStringToValue()</text>
</a>
</g>
<!-- Node2&#45;&gt;Node1 -->
<g id="edge2" class="edge"><title>Node2&#45;&gt;Node1</title>
<path fill="none" stroke="midnightblue" d="M217,-196.087C217,-186.459 217,-176.918 217,-167.703"/>
<polygon fill="none" stroke="midnightblue" points="213.5,-196.141 217,-206.141 220.5,-196.141 213.5,-196.141"/>
</g>
<!-- Node2&#45;&gt;Node2 -->
<g id="edge12" class="edge"><title>Node2&#45;&gt;Node2</title>
<path fill="none" stroke="#404040" d="M279.72,-353.634C289.961,-350.108 297,-341.896 297,-329 297,-321.141 294.386,-315.022 290.027,-310.643"/>
<polygon fill="none" stroke="#404040" points="289.969,-310.607 282.764,-310.903 279.72,-304.366 286.925,-304.07 289.969,-310.607"/>
<text text-anchor="middle" x="336.5" y="-326.5" font-family="Helvetica,sans-Serif" font-size="10.00"> #m_mirror_param</text>
</g>
<!-- Node3 -->
<g id="node4" class="node"><title>Node3</title>
<a xlink:href="classgs_1_1cnf_1_1gs__config__base.html" target="_top" xlink:title="{gs::cnf::gs_config_base\n||+ gs_config_base()\l+ setProperty()\l+ getProperty()\l+ getProperties()\l+ deleteProperty()\l+ exists()\l+ add_properties()\l}">
<polygon fill="white" stroke="black" points="474.5,-798.5 474.5,-939.5 595.5,-939.5 595.5,-798.5 474.5,-798.5"/>
<text text-anchor="middle" x="535" y="-926.5" font-family="Helvetica,sans-Serif" font-size="10.00">gs::cnf::gs_config_base</text>
<polyline fill="none" stroke="black" points="474.5,-918.5 595.5,-918.5 "/>
<text text-anchor="middle" x="535" y="-905.5" font-family="Helvetica,sans-Serif" font-size="10.00"> </text>
<polyline fill="none" stroke="black" points="474.5,-897.5 595.5,-897.5 "/>
<text text-anchor="start" x="482.5" y="-884.5" font-family="Helvetica,sans-Serif" font-size="10.00">+ gs_config_base()</text>
<text text-anchor="start" x="482.5" y="-871.5" font-family="Helvetica,sans-Serif" font-size="10.00">+ setProperty()</text>
<text text-anchor="start" x="482.5" y="-858.5" font-family="Helvetica,sans-Serif" font-size="10.00">+ getProperty()</text>
<text text-anchor="start" x="482.5" y="-845.5" font-family="Helvetica,sans-Serif" font-size="10.00">+ getProperties()</text>
<text text-anchor="start" x="482.5" y="-832.5" font-family="Helvetica,sans-Serif" font-size="10.00">+ deleteProperty()</text>
<text text-anchor="start" x="482.5" y="-819.5" font-family="Helvetica,sans-Serif" font-size="10.00">+ exists()</text>
<text text-anchor="start" x="482.5" y="-806.5" font-family="Helvetica,sans-Serif" font-size="10.00">+ add_properties()</text>
</a>
</g>
<!-- Node3&#45;&gt;Node2 -->
<g id="edge4" class="edge"><title>Node3&#45;&gt;Node2</title>
<path fill="none" stroke="midnightblue" d="M513.277,-788.738C486.949,-702.716 435.917,-565.652 356,-470 332.528,-441.907 304.529,-412.785 279.832,-388.353"/>
<polygon fill="none" stroke="midnightblue" points="509.969,-789.891 516.211,-798.451 516.67,-787.866 509.969,-789.891"/>
</g>
<!-- Node10 -->
<g id="node20" class="node"><title>Node10</title>
<a xlink:href="classgs_1_1cnf_1_1gs__config__t.html" target="_top" xlink:title="Template specialized base class for configuration parameters. ">
<polygon fill="white" stroke="black" points="253.5,-515 253.5,-747 378.5,-747 378.5,-515 253.5,-515"/>
<text text-anchor="start" x="261.5" y="-734" font-family="Helvetica,sans-Serif" font-size="10.00">gs::cnf::gs_config</text>
<text text-anchor="middle" x="316" y="-721" font-family="Helvetica,sans-Serif" font-size="10.00">_t&lt; T &gt;</text>
<polyline fill="none" stroke="black" points="253.5,-713 378.5,-713 "/>
<text text-anchor="middle" x="316" y="-700" font-family="Helvetica,sans-Serif" font-size="10.00"> </text>
<polyline fill="none" stroke="black" points="253.5,-692 378.5,-692 "/>
<text text-anchor="start" x="261.5" y="-679" font-family="Helvetica,sans-Serif" font-size="10.00">+ operator+=()</text>
<text text-anchor="start" x="261.5" y="-666" font-family="Helvetica,sans-Serif" font-size="10.00">+ operator&#45;=()</text>
<text text-anchor="start" x="261.5" y="-653" font-family="Helvetica,sans-Serif" font-size="10.00">+ operator/=()</text>
<text text-anchor="start" x="261.5" y="-640" font-family="Helvetica,sans-Serif" font-size="10.00">+ operator*=()</text>
<text text-anchor="start" x="261.5" y="-627" font-family="Helvetica,sans-Serif" font-size="10.00">+ operator+()</text>
<text text-anchor="start" x="261.5" y="-614" font-family="Helvetica,sans-Serif" font-size="10.00">+ operator&#45;()</text>
<text text-anchor="start" x="261.5" y="-601" font-family="Helvetica,sans-Serif" font-size="10.00">+ operator/()</text>
<text text-anchor="start" x="261.5" y="-588" font-family="Helvetica,sans-Serif" font-size="10.00">+ operator*()</text>
<text text-anchor="start" x="261.5" y="-575" font-family="Helvetica,sans-Serif" font-size="10.00">+ operator%=()</text>
<text text-anchor="start" x="261.5" y="-562" font-family="Helvetica,sans-Serif" font-size="10.00">+ operator^=()</text>
<text text-anchor="start" x="261.5" y="-549" font-family="Helvetica,sans-Serif" font-size="10.00">and 27 more...</text>
<text text-anchor="start" x="261.5" y="-536" font-family="Helvetica,sans-Serif" font-size="10.00"># mirror_callback()</text>
<text text-anchor="start" x="261.5" y="-523" font-family="Helvetica,sans-Serif" font-size="10.00"># convertStringToValue()</text>
</a>
</g>
<!-- Node3&#45;&gt;Node10 -->
<g id="edge24" class="edge"><title>Node3&#45;&gt;Node10</title>
<path fill="none" stroke="midnightblue" d="M476.607,-790.308C469.833,-781.957 462.882,-773.707 456,-766 431.936,-739.052 403.53,-711.047 378.616,-687.576"/>
<polygon fill="none" stroke="midnightblue" points="474.054,-792.719 483.04,-798.332 479.515,-788.34 474.054,-792.719"/>
</g>
<!-- Node4 -->
<g id="node6" class="node"><title>Node4</title>
<a xlink:href="classgs__param__base.html" target="_top" xlink:title="{gs_param_base\n||}">
<polygon fill="white" stroke="black" points="492,-997.5 492,-1060.5 578,-1060.5 578,-997.5 492,-997.5"/>
<text text-anchor="middle" x="535" y="-1047.5" font-family="Helvetica,sans-Serif" font-size="10.00">gs_param_base</text>
<polyline fill="none" stroke="black" points="492,-1039.5 578,-1039.5 "/>
<text text-anchor="middle" x="535" y="-1026.5" font-family="Helvetica,sans-Serif" font-size="10.00"> </text>
<polyline fill="none" stroke="black" points="492,-1018.5 578,-1018.5 "/>
<text text-anchor="middle" x="535" y="-1005.5" font-family="Helvetica,sans-Serif" font-size="10.00"> </text>
</a>
</g>
<!-- Node4&#45;&gt;Node3 -->
<g id="edge6" class="edge"><title>Node4&#45;&gt;Node3</title>
<path fill="none" stroke="midnightblue" d="M535,-987.208C535,-972.636 535,-955.854 535,-939.597"/>
<polygon fill="none" stroke="midnightblue" points="531.5,-987.389 535,-997.389 538.5,-987.389 531.5,-987.389"/>
</g>
<!-- Node5 -->
<g id="node8" class="node"><title>Node5</title>
<a xlink:title="STL class. ">
<polygon fill="white" stroke="#bfbfbf" points="143,-837.5 143,-900.5 203,-900.5 203,-837.5 143,-837.5"/>
<text text-anchor="middle" x="173" y="-887.5" font-family="Helvetica,sans-Serif" font-size="10.00">std::string</text>
<polyline fill="none" stroke="#bfbfbf" points="143,-879.5 203,-879.5 "/>
<text text-anchor="middle" x="173" y="-866.5" font-family="Helvetica,sans-Serif" font-size="10.00"> </text>
<polyline fill="none" stroke="#bfbfbf" points="143,-858.5 203,-858.5 "/>
<text text-anchor="middle" x="173" y="-845.5" font-family="Helvetica,sans-Serif" font-size="10.00"> </text>
</a>
</g>
<!-- Node5&#45;&gt;Node2 -->
<g id="edge8" class="edge"><title>Node5&#45;&gt;Node2</title>
<path fill="none" stroke="#404040" d="M172.087,-837.065C170.686,-774.742 169.359,-632.624 182,-514 183.728,-497.784 186.112,-480.862 188.83,-464.125"/>
<polygon fill="none" stroke="#404040" points="188.882,-463.818 185.928,-457.24 190.864,-451.983 193.818,-458.562 188.882,-463.818"/>
<text text-anchor="middle" x="213.5" y="-628.5" font-family="Helvetica,sans-Serif" font-size="10.00"> #return_string</text>
</g>
<!-- Node7 -->
<g id="node13" class="node"><title>Node7</title>
<polygon fill="white" stroke="#bfbfbf" points="12.5,-599.5 12.5,-662.5 137.5,-662.5 137.5,-599.5 12.5,-599.5"/>
<text text-anchor="middle" x="75" y="-649.5" font-family="Helvetica,sans-Serif" font-size="10.00">std::vector&lt; std::string &gt;</text>
<polyline fill="none" stroke="#bfbfbf" points="12.5,-641.5 137.5,-641.5 "/>
<text text-anchor="middle" x="75" y="-628.5" font-family="Helvetica,sans-Serif" font-size="10.00"> </text>
<polyline fill="none" stroke="#bfbfbf" points="12.5,-620.5 137.5,-620.5 "/>
<text text-anchor="middle" x="75" y="-607.5" font-family="Helvetica,sans-Serif" font-size="10.00"> </text>
</g>
<!-- Node5&#45;&gt;Node7 -->
<g id="edge16" class="edge"><title>Node5&#45;&gt;Node7</title>
<path fill="none" stroke="#404040" d="M146.135,-837.461C133.518,-821.214 119.255,-800.539 110,-780 94.7929,-746.251 85.772,-705.111 80.7079,-674.617"/>
<polygon fill="none" stroke="#404040" points="80.693,-674.522 75.8119,-669.214 78.8342,-662.666 83.7153,-667.974 80.693,-674.522"/>
<text text-anchor="middle" x="134.5" y="-770.5" font-family="Helvetica,sans-Serif" font-size="10.00"> +elements</text>
</g>
<!-- Node5&#45;&gt;Node10 -->
<g id="edge26" class="edge"><title>Node5&#45;&gt;Node10</title>
<path fill="none" stroke="#404040" d="M177.215,-837.192C181.529,-815.152 190.114,-786.246 207,-766 217.701,-753.17 227.742,-759.352 240,-748 241.733,-746.395 243.444,-744.743 245.132,-743.05"/>
<polygon fill="none" stroke="#404040" points="245.168,-743.011 246.359,-735.899 253.382,-734.263 252.191,-741.375 245.168,-743.011"/>
<text text-anchor="middle" x="238.5" y="-770.5" font-family="Helvetica,sans-Serif" font-size="10.00"> #return_string</text>
</g>
<!-- Node6 -->
<g id="node10" class="node"><title>Node6</title>
<a xlink:title="STL class. ">
<polygon fill="white" stroke="#bfbfbf" points="125.5,-991 125.5,-1067 220.5,-1067 220.5,-991 125.5,-991"/>
<text text-anchor="start" x="133.5" y="-1054" font-family="Helvetica,sans-Serif" font-size="10.00">std::basic_string&lt;</text>
<text text-anchor="middle" x="173" y="-1041" font-family="Helvetica,sans-Serif" font-size="10.00"> char &gt;</text>
<polyline fill="none" stroke="#bfbfbf" points="125.5,-1033 220.5,-1033 "/>
<text text-anchor="middle" x="173" y="-1020" font-family="Helvetica,sans-Serif" font-size="10.00"> </text>
<polyline fill="none" stroke="#bfbfbf" points="125.5,-1012 220.5,-1012 "/>
<text text-anchor="middle" x="173" y="-999" font-family="Helvetica,sans-Serif" font-size="10.00"> </text>
</a>
</g>
<!-- Node6&#45;&gt;Node5 -->
<g id="edge10" class="edge"><title>Node6&#45;&gt;Node5</title>
<path fill="none" stroke="midnightblue" d="M173,-980.646C173,-954.673 173,-923.396 173,-900.562"/>
<polygon fill="none" stroke="midnightblue" points="169.5,-980.676 173,-990.676 176.5,-980.676 169.5,-980.676"/>
</g>
<!-- Node7&#45;&gt;Node2 -->
<g id="edge14" class="edge"><title>Node7&#45;&gt;Node2</title>
<path fill="none" stroke="#404040" d="M73.3375,-599.299C72.7849,-565.742 75.4024,-511.938 94,-470 106.326,-442.204 126.083,-415.884 146.188,-393.677"/>
<polygon fill="none" stroke="#404040" points="146.327,-393.527 147.484,-386.409 154.499,-384.739 153.343,-391.857 146.327,-393.527"/>
<text text-anchor="middle" x="126.5" y="-487" font-family="Helvetica,sans-Serif" font-size="10.00"> #m_mirror_val</text>
<text text-anchor="middle" x="126.5" y="-474" font-family="Helvetica,sans-Serif" font-size="10.00">#my_value</text>
</g>
<!-- Node8 -->
<g id="node16" class="node"><title>Node8</title>
<a xlink:title="STL class. ">
<polygon fill="white" stroke="#bfbfbf" points="-0.5,-837.5 -0.5,-900.5 86.5,-900.5 86.5,-837.5 -0.5,-837.5"/>
<text text-anchor="middle" x="43" y="-887.5" font-family="Helvetica,sans-Serif" font-size="10.00">std::vector&lt; T &gt;</text>
<polyline fill="none" stroke="#bfbfbf" points="-0.5,-879.5 86.5,-879.5 "/>
<text text-anchor="middle" x="43" y="-866.5" font-family="Helvetica,sans-Serif" font-size="10.00"> </text>
<polyline fill="none" stroke="#bfbfbf" points="-0.5,-858.5 86.5,-858.5 "/>
<text text-anchor="middle" x="43" y="-845.5" font-family="Helvetica,sans-Serif" font-size="10.00"> </text>
</a>
</g>
<!-- Node8&#45;&gt;Node7 -->
<g id="edge18" class="edge"><title>Node8&#45;&gt;Node7</title>
<path fill="none" stroke="orange" d="M27.1549,-827.748C21.8452,-808.938 18.1451,-786.368 22,-766 28.9767,-729.138 45.7864,-689.453 58.6194,-662.718"/>
<polygon fill="orange" stroke="orange" points="23.8637,-828.953 30.1392,-837.49 30.5567,-826.903 23.8637,-828.953"/>
<text text-anchor="middle" x="54.5" y="-770.5" font-family="Helvetica,sans-Serif" font-size="10.00"> &lt; std::string &gt;</text>
</g>
<!-- Node9 -->
<g id="node18" class="node"><title>Node9</title>
<polygon fill="white" stroke="#bfbfbf" points="245.5,-997.5 245.5,-1060.5 274.5,-1060.5 274.5,-997.5 245.5,-997.5"/>
<text text-anchor="middle" x="260" y="-1047.5" font-family="Helvetica,sans-Serif" font-size="10.00">T</text>
<polyline fill="none" stroke="#bfbfbf" points="245.5,-1039.5 274.5,-1039.5 "/>
<text text-anchor="middle" x="260" y="-1026.5" font-family="Helvetica,sans-Serif" font-size="10.00"> </text>
<polyline fill="none" stroke="#bfbfbf" points="245.5,-1018.5 274.5,-1018.5 "/>
<text text-anchor="middle" x="260" y="-1005.5" font-family="Helvetica,sans-Serif" font-size="10.00"> </text>
</g>
<!-- Node9&#45;&gt;Node8 -->
<g id="edge20" class="edge"><title>Node9&#45;&gt;Node8</title>
<path fill="none" stroke="#404040" d="M245.362,-1007.34C240.606,-1001.26 234.995,-994.966 229,-990 192.257,-959.561 174.079,-965.889 134,-940 119.236,-930.463 103.907,-919.127 90.1326,-908.344"/>
<polygon fill="none" stroke="#404040" points="89.8062,-908.085 82.6199,-907.487 80.4079,-900.623 87.5942,-901.221 89.8062,-908.085"/>
<text text-anchor="middle" x="226.5" y="-962.5" font-family="Helvetica,sans-Serif" font-size="10.00"> +elements</text>
</g>
<!-- Node9&#45;&gt;Node10 -->
<g id="edge30" class="edge"><title>Node9&#45;&gt;Node10</title>
<path fill="none" stroke="#404040" d="M262.679,-997.143C266.607,-952.499 274.607,-868.842 285,-798 286.852,-785.379 288.963,-772.255 291.193,-759.158"/>
<polygon fill="none" stroke="#404040" points="291.224,-758.978 288.305,-752.384 293.27,-747.154 296.188,-753.748 291.224,-758.978"/>
<text text-anchor="middle" x="317.5" y="-873" font-family="Helvetica,sans-Serif" font-size="10.00"> #m_mirror_val</text>
<text text-anchor="middle" x="317.5" y="-860" font-family="Helvetica,sans-Serif" font-size="10.00">#my_value</text>
</g>
<!-- Node10&#45;&gt;Node2 -->
<g id="edge22" class="edge"><title>Node10&#45;&gt;Node2</title>
<path fill="none" stroke="orange" d="M274.667,-504.913C268.877,-487.251 262.934,-469.121 257.166,-451.526"/>
<polygon fill="orange" stroke="orange" points="271.425,-506.259 277.866,-514.671 278.076,-504.078 271.425,-506.259"/>
<text text-anchor="start" x="270" y="-487" font-family="Helvetica,sans-Serif" font-size="10.00"> &lt; std::vector&lt; std</text>
<text text-anchor="middle" x="311" y="-474" font-family="Helvetica,sans-Serif" font-size="10.00">::string &gt; &gt;</text>
</g>
<!-- Node11 -->
<g id="node24" class="node"><title>Node11</title>
<polygon fill="white" stroke="#bfbfbf" points="359,-837.5 359,-900.5 457,-900.5 457,-837.5 359,-837.5"/>
<text text-anchor="middle" x="408" y="-887.5" font-family="Helvetica,sans-Serif" font-size="10.00">gs_config_t&lt; T &gt; *</text>
<polyline fill="none" stroke="#bfbfbf" points="359,-879.5 457,-879.5 "/>
<text text-anchor="middle" x="408" y="-866.5" font-family="Helvetica,sans-Serif" font-size="10.00"> </text>
<polyline fill="none" stroke="#bfbfbf" points="359,-858.5 457,-858.5 "/>
<text text-anchor="middle" x="408" y="-845.5" font-family="Helvetica,sans-Serif" font-size="10.00"> </text>
</g>
<!-- Node11&#45;&gt;Node10 -->
<g id="edge28" class="edge"><title>Node11&#45;&gt;Node10</title>
<path fill="none" stroke="#404040" d="M395.783,-837.395C387.743,-816.597 376.635,-787.86 365.259,-758.432"/>
<polygon fill="none" stroke="#404040" points="365.219,-758.327 359.325,-754.173 360.892,-747.134 366.787,-751.288 365.219,-758.327"/>
<text text-anchor="middle" x="412.5" y="-770.5" font-family="Helvetica,sans-Serif" font-size="10.00"> #m_mirror_param</text>
</g>
</g>
</svg>
