<?xml version="1.0" encoding="UTF-8" standalone="no"?>
<!DOCTYPE svg PUBLIC "-//W3C//DTD SVG 1.1//EN"
 "http://www.w3.org/Graphics/SVG/1.1/DTD/svg11.dtd">
<!-- Generated by graphviz version 2.38.0 (20140413.2041)
 -->
<!-- Title: sc_register&lt; unsigned short, M &gt; Pages: 1 -->
<!--zoomable 1479 -->
<svg id="main" version="1.1" xmlns="http://www.w3.org/2000/svg" xmlns:xlink="http://www.w3.org/1999/xlink" xml:space="preserve" onload="init(evt)">
<style type="text/css"><![CDATA[
.edge:hover path { stroke: red; }
.edge:hover polygon { stroke: red; fill: red; }
]]></style>
<script type="text/javascript"><![CDATA[
var edges = document.getElementsByTagName('g');
if (edges && edges.length) {
  for (var i=0;i<edges.length;i++) {
    if (edges[i].id.substr(0,4)=='edge') {
      edges[i].setAttribute('class','edge');
    }
  }
}
]]></script>
        <defs>
                <circle id="rim" cx="0" cy="0" r="7"/>
                <circle id="rim2" cx="0" cy="0" r="3.5"/>
                <g id="zoomPlus">
                        <use xlink:href="#rim" fill="#404040">
                                <set attributeName="fill" to="#808080" begin="zoomplus.mouseover" end="zoomplus.mouseout"/>
                        </use>
                        <path d="M-4,0h8M0,-4v8" fill="none" stroke="white" stroke-width="1.5" pointer-events="none"/>
                </g>
                <g id="zoomMin">
                        <use xlink:href="#rim" fill="#404040">
                                <set attributeName="fill" to="#808080" begin="zoomminus.mouseover" end="zoomminus.mouseout"/>
                        </use>
                        <path d="M-4,0h8" fill="none" stroke="white" stroke-width="1.5" pointer-events="none"/>
                </g>
                <g id="dirArrow">
                        <path fill="none" stroke="white" stroke-width="1.5" d="M0,-3.0v7 M-2.5,-0.5L0,-3.0L2.5,-0.5"/>
                </g>
               <g id="resetDef">
                       <use xlink:href="#rim2" fill="#404040">
                               <set attributeName="fill" to="#808080" begin="reset.mouseover" end="reset.mouseout"/>
                       </use>
               </g>
        </defs>

<script type="text/javascript">
var viewWidth = 876;
var viewHeight = 1479;
var sectionId = 'dynsection-1';
</script>
<script xlink:href="svgpan.js"/>
<svg id="graph" class="graph">
<g id="viewport">
<title>sc_register&lt; unsigned short, M &gt;</title>
<polygon fill="white" stroke="none" points="-4,4 -4,-1475 871.5,-1475 871.5,4 -4,4"/>
<!-- Node1 -->
<g id="node1" class="node"><title>Node1</title>
<polygon fill="#bfbfbf" stroke="black" points="326.5,-0.5 326.5,-101.5 472.5,-101.5 472.5,-0.5 326.5,-0.5"/>
<text text-anchor="start" x="334.5" y="-89.5" font-family="Helvetica,sans-Serif" font-size="10.00">sc_register&lt; unsigned</text>
<text text-anchor="middle" x="399.5" y="-78.5" font-family="Helvetica,sans-Serif" font-size="10.00"> short, M &gt;</text>
<polyline fill="none" stroke="black" points="326.5,-71.5 472.5,-71.5 "/>
<text text-anchor="middle" x="399.5" y="-59.5" font-family="Helvetica,sans-Serif" font-size="10.00"> </text>
<polyline fill="none" stroke="black" points="326.5,-52.5 472.5,-52.5 "/>
<text text-anchor="start" x="334.5" y="-40.5" font-family="Helvetica,sans-Serif" font-size="10.00">+ sc_register()</text>
<text text-anchor="start" x="334.5" y="-29.5" font-family="Helvetica,sans-Serif" font-size="10.00">+ sc_register()</text>
<text text-anchor="start" x="334.5" y="-18.5" font-family="Helvetica,sans-Serif" font-size="10.00">+ access_mode()</text>
<text text-anchor="start" x="334.5" y="-7.5" font-family="Helvetica,sans-Serif" font-size="10.00">+ before_end_of_elaboration()</text>
</g>
<!-- Node2 -->
<g id="node2" class="node"><title>Node2</title>
<g id="a_node2"><a xlink:href="singletonsc__register__b.html" target="_top" xlink:title="{sc_register_b\&lt; unsigned\l short \&gt;\n||+ sc_register_b()\l+ sc_register_b()\l+ ~sc_register_b()\l+ reset()\l+ read()\l+ write()\l+ update()\l+ number_of_fields()\l+ get_all_fields()\l+ get_mask()\l+ scireg_read()\l+ scireg_write()\l+ scireg_get_bit_width()\l+ scireg_add_callback()\l+ scireg_remove_callback()\l# add_field()\l# mask_read()\l# mask_write()\l# check_and_init()\l}">
<polygon fill="white" stroke="black" points="331,-139.5 331,-405.5 468,-405.5 468,-139.5 331,-139.5"/>
<text text-anchor="start" x="339" y="-393.5" font-family="Helvetica,sans-Serif" font-size="10.00">sc_register_b&lt; unsigned</text>
<text text-anchor="middle" x="399.5" y="-382.5" font-family="Helvetica,sans-Serif" font-size="10.00"> short &gt;</text>
<polyline fill="none" stroke="black" points="331,-375.5 468,-375.5 "/>
<text text-anchor="middle" x="399.5" y="-363.5" font-family="Helvetica,sans-Serif" font-size="10.00"> </text>
<polyline fill="none" stroke="black" points="331,-356.5 468,-356.5 "/>
<text text-anchor="start" x="339" y="-344.5" font-family="Helvetica,sans-Serif" font-size="10.00">+ sc_register_b()</text>
<text text-anchor="start" x="339" y="-333.5" font-family="Helvetica,sans-Serif" font-size="10.00">+ sc_register_b()</text>
<text text-anchor="start" x="339" y="-322.5" font-family="Helvetica,sans-Serif" font-size="10.00">+ ~sc_register_b()</text>
<text text-anchor="start" x="339" y="-311.5" font-family="Helvetica,sans-Serif" font-size="10.00">+ reset()</text>
<text text-anchor="start" x="339" y="-300.5" font-family="Helvetica,sans-Serif" font-size="10.00">+ read()</text>
<text text-anchor="start" x="339" y="-289.5" font-family="Helvetica,sans-Serif" font-size="10.00">+ write()</text>
<text text-anchor="start" x="339" y="-278.5" font-family="Helvetica,sans-Serif" font-size="10.00">+ update()</text>
<text text-anchor="start" x="339" y="-267.5" font-family="Helvetica,sans-Serif" font-size="10.00">+ number_of_fields()</text>
<text text-anchor="start" x="339" y="-256.5" font-family="Helvetica,sans-Serif" font-size="10.00">+ get_all_fields()</text>
<text text-anchor="start" x="339" y="-245.5" font-family="Helvetica,sans-Serif" font-size="10.00">+ get_mask()</text>
<text text-anchor="start" x="339" y="-234.5" font-family="Helvetica,sans-Serif" font-size="10.00">+ scireg_read()</text>
<text text-anchor="start" x="339" y="-223.5" font-family="Helvetica,sans-Serif" font-size="10.00">+ scireg_write()</text>
<text text-anchor="start" x="339" y="-212.5" font-family="Helvetica,sans-Serif" font-size="10.00">+ scireg_get_bit_width()</text>
<text text-anchor="start" x="339" y="-201.5" font-family="Helvetica,sans-Serif" font-size="10.00">+ scireg_add_callback()</text>
<text text-anchor="start" x="339" y="-190.5" font-family="Helvetica,sans-Serif" font-size="10.00">+ scireg_remove_callback()</text>
<text text-anchor="start" x="339" y="-179.5" font-family="Helvetica,sans-Serif" font-size="10.00"># add_field()</text>
<text text-anchor="start" x="339" y="-168.5" font-family="Helvetica,sans-Serif" font-size="10.00"># mask_read()</text>
<text text-anchor="start" x="339" y="-157.5" font-family="Helvetica,sans-Serif" font-size="10.00"># mask_write()</text>
<text text-anchor="start" x="339" y="-146.5" font-family="Helvetica,sans-Serif" font-size="10.00"># check_and_init()</text>
</a>
</g>
</g>
<!-- Node2&#45;&gt;Node1 -->
<g id="edge1" class="edge"><title>Node2&#45;&gt;Node1</title>
<path fill="none" stroke="midnightblue" d="M399.5,-129.235C399.5,-119.611 399.5,-110.353 399.5,-101.797"/>
<polygon fill="none" stroke="midnightblue" points="396,-129.383 399.5,-139.383 403,-129.383 396,-129.383"/>
</g>
<!-- Node3 -->
<g id="node3" class="node"><title>Node3</title>
<g id="a_node3"><a xlink:href="classsc__register__base.html" target="_top" xlink:title="Register. ">
<polygon fill="white" stroke="black" points="92.5,-927.5 92.5,-1127.5 242.5,-1127.5 242.5,-927.5 92.5,-927.5"/>
<text text-anchor="middle" x="167.5" y="-1115.5" font-family="Helvetica,sans-Serif" font-size="10.00">sc_register_base</text>
<polyline fill="none" stroke="black" points="92.5,-1108.5 242.5,-1108.5 "/>
<text text-anchor="middle" x="167.5" y="-1096.5" font-family="Helvetica,sans-Serif" font-size="10.00"> </text>
<polyline fill="none" stroke="black" points="92.5,-1089.5 242.5,-1089.5 "/>
<text text-anchor="start" x="100.5" y="-1077.5" font-family="Helvetica,sans-Serif" font-size="10.00">+ sc_register_base()</text>
<text text-anchor="start" x="100.5" y="-1066.5" font-family="Helvetica,sans-Serif" font-size="10.00">+ sc_register_base()</text>
<text text-anchor="start" x="100.5" y="-1055.5" font-family="Helvetica,sans-Serif" font-size="10.00">+ sc_register_base()</text>
<text text-anchor="start" x="100.5" y="-1044.5" font-family="Helvetica,sans-Serif" font-size="10.00">+ ~sc_register_base()</text>
<text text-anchor="start" x="100.5" y="-1033.5" font-family="Helvetica,sans-Serif" font-size="10.00">+ kind()</text>
<text text-anchor="start" x="100.5" y="-1022.5" font-family="Helvetica,sans-Serif" font-size="10.00">+ desc()</text>
<text text-anchor="start" x="100.5" y="-1011.5" font-family="Helvetica,sans-Serif" font-size="10.00">+ access_mode()</text>
<text text-anchor="start" x="100.5" y="-1000.5" font-family="Helvetica,sans-Serif" font-size="10.00">+ get_all_fields()</text>
<text text-anchor="start" x="100.5" y="-989.5" font-family="Helvetica,sans-Serif" font-size="10.00">+ access_type_to_str()</text>
<text text-anchor="start" x="100.5" y="-978.5" font-family="Helvetica,sans-Serif" font-size="10.00">+ access_mode_to_str()</text>
<text text-anchor="start" x="100.5" y="-967.5" font-family="Helvetica,sans-Serif" font-size="10.00"># scireg_get_string_attribute()</text>
<text text-anchor="start" x="100.5" y="-956.5" font-family="Helvetica,sans-Serif" font-size="10.00"># scireg_get_region_type()</text>
<text text-anchor="start" x="100.5" y="-945.5" font-family="Helvetica,sans-Serif" font-size="10.00"># scireg_get_child_regions()</text>
<text text-anchor="start" x="100.5" y="-934.5" font-family="Helvetica,sans-Serif" font-size="10.00"># scireg_get_parent_modules()</text>
</a>
</g>
</g>
<!-- Node3&#45;&gt;Node2 -->
<g id="edge2" class="edge"><title>Node3&#45;&gt;Node2</title>
<path fill="none" stroke="midnightblue" d="M165.558,-917.147C164.319,-780.277 166.55,-554.193 192.5,-475 215.379,-405.179 279.862,-349.282 330.84,-314.237"/>
<polygon fill="none" stroke="midnightblue" points="162.059,-917.286 165.657,-927.251 169.058,-917.217 162.059,-917.286"/>
</g>
<!-- Node18 -->
<g id="node18" class="node"><title>Node18</title>
<g id="a_node18"><a xlink:href="singletonsc__register__b.html" target="_top" xlink:title="{sc_register_b\&lt; T \&gt;\n||+ sc_register_b()\l+ sc_register_b()\l+ ~sc_register_b()\l+ reset()\l+ read()\l+ write()\l+ update()\l+ number_of_fields()\l+ get_all_fields()\l+ get_mask()\l+ scireg_read()\l+ scireg_write()\l+ scireg_get_bit_width()\l+ scireg_add_callback()\l+ scireg_remove_callback()\l# add_field()\l# mask_read()\l# mask_write()\l# check_and_init()\l}">
<polygon fill="white" stroke="black" points="406,-475.5 406,-730.5 543,-730.5 543,-475.5 406,-475.5"/>
<text text-anchor="middle" x="474.5" y="-718.5" font-family="Helvetica,sans-Serif" font-size="10.00">sc_register_b&lt; T &gt;</text>
<polyline fill="none" stroke="black" points="406,-711.5 543,-711.5 "/>
<text text-anchor="middle" x="474.5" y="-699.5" font-family="Helvetica,sans-Serif" font-size="10.00"> </text>
<polyline fill="none" stroke="black" points="406,-692.5 543,-692.5 "/>
<text text-anchor="start" x="414" y="-680.5" font-family="Helvetica,sans-Serif" font-size="10.00">+ sc_register_b()</text>
<text text-anchor="start" x="414" y="-669.5" font-family="Helvetica,sans-Serif" font-size="10.00">+ sc_register_b()</text>
<text text-anchor="start" x="414" y="-658.5" font-family="Helvetica,sans-Serif" font-size="10.00">+ ~sc_register_b()</text>
<text text-anchor="start" x="414" y="-647.5" font-family="Helvetica,sans-Serif" font-size="10.00">+ reset()</text>
<text text-anchor="start" x="414" y="-636.5" font-family="Helvetica,sans-Serif" font-size="10.00">+ read()</text>
<text text-anchor="start" x="414" y="-625.5" font-family="Helvetica,sans-Serif" font-size="10.00">+ write()</text>
<text text-anchor="start" x="414" y="-614.5" font-family="Helvetica,sans-Serif" font-size="10.00">+ update()</text>
<text text-anchor="start" x="414" y="-603.5" font-family="Helvetica,sans-Serif" font-size="10.00">+ number_of_fields()</text>
<text text-anchor="start" x="414" y="-592.5" font-family="Helvetica,sans-Serif" font-size="10.00">+ get_all_fields()</text>
<text text-anchor="start" x="414" y="-581.5" font-family="Helvetica,sans-Serif" font-size="10.00">+ get_mask()</text>
<text text-anchor="start" x="414" y="-570.5" font-family="Helvetica,sans-Serif" font-size="10.00">+ scireg_read()</text>
<text text-anchor="start" x="414" y="-559.5" font-family="Helvetica,sans-Serif" font-size="10.00">+ scireg_write()</text>
<text text-anchor="start" x="414" y="-548.5" font-family="Helvetica,sans-Serif" font-size="10.00">+ scireg_get_bit_width()</text>
<text text-anchor="start" x="414" y="-537.5" font-family="Helvetica,sans-Serif" font-size="10.00">+ scireg_add_callback()</text>
<text text-anchor="start" x="414" y="-526.5" font-family="Helvetica,sans-Serif" font-size="10.00">+ scireg_remove_callback()</text>
<text text-anchor="start" x="414" y="-515.5" font-family="Helvetica,sans-Serif" font-size="10.00"># add_field()</text>
<text text-anchor="start" x="414" y="-504.5" font-family="Helvetica,sans-Serif" font-size="10.00"># mask_read()</text>
<text text-anchor="start" x="414" y="-493.5" font-family="Helvetica,sans-Serif" font-size="10.00"># mask_write()</text>
<text text-anchor="start" x="414" y="-482.5" font-family="Helvetica,sans-Serif" font-size="10.00"># check_and_init()</text>
</a>
</g>
</g>
<!-- Node3&#45;&gt;Node18 -->
<g id="edge21" class="edge"><title>Node3&#45;&gt;Node18</title>
<path fill="none" stroke="midnightblue" d="M145.004,-916.854C145.04,-899.151 147.383,-881.299 153.5,-865 171.539,-816.931 186.097,-805.427 229.5,-778 262.091,-757.405 365.743,-754.245 396.5,-731 399.7,-728.582 402.798,-725.991 405.795,-723.257"/>
<polygon fill="none" stroke="midnightblue" points="141.514,-917.329 145.238,-927.247 148.512,-917.171 141.514,-917.329"/>
</g>
<!-- Node4 -->
<g id="node4" class="node"><title>Node4</title>
<polygon fill="white" stroke="#bfbfbf" points="0,-1252.5 0,-1309.5 131,-1309.5 131,-1252.5 0,-1252.5"/>
<text text-anchor="middle" x="65.5" y="-1297.5" font-family="Helvetica,sans-Serif" font-size="10.00">sc_core::sc_prim_channel</text>
<polyline fill="none" stroke="#bfbfbf" points="0,-1290.5 131,-1290.5 "/>
<text text-anchor="middle" x="65.5" y="-1278.5" font-family="Helvetica,sans-Serif" font-size="10.00"> </text>
<polyline fill="none" stroke="#bfbfbf" points="0,-1271.5 131,-1271.5 "/>
<text text-anchor="middle" x="65.5" y="-1259.5" font-family="Helvetica,sans-Serif" font-size="10.00"> </text>
</g>
<!-- Node4&#45;&gt;Node3 -->
<g id="edge3" class="edge"><title>Node4&#45;&gt;Node3</title>
<path fill="none" stroke="midnightblue" d="M80.5939,-1242.78C92.9034,-1212.43 110.877,-1168.11 127.289,-1127.65"/>
<polygon fill="none" stroke="midnightblue" points="77.3205,-1241.54 76.8055,-1252.12 83.8073,-1244.17 77.3205,-1241.54"/>
</g>
<!-- Node5 -->
<g id="node5" class="node"><title>Node5</title>
<g id="a_node5"><a xlink:href="classscireg__ns_1_1scireg__region__if.html" target="_top" xlink:title="{scireg_ns::scireg_region_if\n||+ scireg_region_if()\l+ ~scireg_region_if()\l+ scireg_get_region_type()\l+ scireg_read()\l+ scireg_write()\l+ scireg_get_bit_attributes()\l+ scireg_get_string_attribute()\l+ scireg_get_bit_width()\l+ scireg_get_byte_width()\l+ scireg_get_low_pos()\land 9 more...\l}">
<polygon fill="white" stroke="black" points="149.5,-1197.5 149.5,-1364.5 295.5,-1364.5 295.5,-1197.5 149.5,-1197.5"/>
<text text-anchor="middle" x="222.5" y="-1352.5" font-family="Helvetica,sans-Serif" font-size="10.00">scireg_ns::scireg_region_if</text>
<polyline fill="none" stroke="black" points="149.5,-1345.5 295.5,-1345.5 "/>
<text text-anchor="middle" x="222.5" y="-1333.5" font-family="Helvetica,sans-Serif" font-size="10.00"> </text>
<polyline fill="none" stroke="black" points="149.5,-1326.5 295.5,-1326.5 "/>
<text text-anchor="start" x="157.5" y="-1314.5" font-family="Helvetica,sans-Serif" font-size="10.00">+ scireg_region_if()</text>
<text text-anchor="start" x="157.5" y="-1303.5" font-family="Helvetica,sans-Serif" font-size="10.00">+ ~scireg_region_if()</text>
<text text-anchor="start" x="157.5" y="-1292.5" font-family="Helvetica,sans-Serif" font-size="10.00">+ scireg_get_region_type()</text>
<text text-anchor="start" x="157.5" y="-1281.5" font-family="Helvetica,sans-Serif" font-size="10.00">+ scireg_read()</text>
<text text-anchor="start" x="157.5" y="-1270.5" font-family="Helvetica,sans-Serif" font-size="10.00">+ scireg_write()</text>
<text text-anchor="start" x="157.5" y="-1259.5" font-family="Helvetica,sans-Serif" font-size="10.00">+ scireg_get_bit_attributes()</text>
<text text-anchor="start" x="157.5" y="-1248.5" font-family="Helvetica,sans-Serif" font-size="10.00">+ scireg_get_string_attribute()</text>
<text text-anchor="start" x="157.5" y="-1237.5" font-family="Helvetica,sans-Serif" font-size="10.00">+ scireg_get_bit_width()</text>
<text text-anchor="start" x="157.5" y="-1226.5" font-family="Helvetica,sans-Serif" font-size="10.00">+ scireg_get_byte_width()</text>
<text text-anchor="start" x="157.5" y="-1215.5" font-family="Helvetica,sans-Serif" font-size="10.00">+ scireg_get_low_pos()</text>
<text text-anchor="start" x="157.5" y="-1204.5" font-family="Helvetica,sans-Serif" font-size="10.00">and 9 more...</text>
</a>
</g>
</g>
<!-- Node5&#45;&gt;Node3 -->
<g id="edge4" class="edge"><title>Node5&#45;&gt;Node3</title>
<path fill="none" stroke="midnightblue" d="M202.227,-1187.3C197.995,-1167.95 193.518,-1147.47 189.235,-1127.89"/>
<polygon fill="none" stroke="midnightblue" points="198.859,-1188.28 204.415,-1197.3 205.697,-1186.78 198.859,-1188.28"/>
</g>
<!-- Node9 -->
<g id="node9" class="node"><title>Node9</title>
<g id="a_node9"><a xlink:href="classsc__register__field__base.html" target="_top" xlink:title="{sc_register_field_base\n||+ sc_register_field_base()\l+ sc_register_field_base()\l+ ~sc_register_field_base()\l+ name()\l+ desc()\l+ low_pos()\l+ high_pos()\l+ bit_width()\l+ get_value_mnemonic()\l+ get_value_desc()\l+ print()\l# scireg_get_low_pos()\l# scireg_get_high_pos()\l# scireg_get_bit_width()\l# scireg_get_region_type()\l# scireg_get_string_attribute()\l}">
<polygon fill="white" stroke="black" points="270.5,-916.5 270.5,-1138.5 416.5,-1138.5 416.5,-916.5 270.5,-916.5"/>
<text text-anchor="middle" x="343.5" y="-1126.5" font-family="Helvetica,sans-Serif" font-size="10.00">sc_register_field_base</text>
<polyline fill="none" stroke="black" points="270.5,-1119.5 416.5,-1119.5 "/>
<text text-anchor="middle" x="343.5" y="-1107.5" font-family="Helvetica,sans-Serif" font-size="10.00"> </text>
<polyline fill="none" stroke="black" points="270.5,-1100.5 416.5,-1100.5 "/>
<text text-anchor="start" x="278.5" y="-1088.5" font-family="Helvetica,sans-Serif" font-size="10.00">+ sc_register_field_base()</text>
<text text-anchor="start" x="278.5" y="-1077.5" font-family="Helvetica,sans-Serif" font-size="10.00">+ sc_register_field_base()</text>
<text text-anchor="start" x="278.5" y="-1066.5" font-family="Helvetica,sans-Serif" font-size="10.00">+ ~sc_register_field_base()</text>
<text text-anchor="start" x="278.5" y="-1055.5" font-family="Helvetica,sans-Serif" font-size="10.00">+ name()</text>
<text text-anchor="start" x="278.5" y="-1044.5" font-family="Helvetica,sans-Serif" font-size="10.00">+ desc()</text>
<text text-anchor="start" x="278.5" y="-1033.5" font-family="Helvetica,sans-Serif" font-size="10.00">+ low_pos()</text>
<text text-anchor="start" x="278.5" y="-1022.5" font-family="Helvetica,sans-Serif" font-size="10.00">+ high_pos()</text>
<text text-anchor="start" x="278.5" y="-1011.5" font-family="Helvetica,sans-Serif" font-size="10.00">+ bit_width()</text>
<text text-anchor="start" x="278.5" y="-1000.5" font-family="Helvetica,sans-Serif" font-size="10.00">+ get_value_mnemonic()</text>
<text text-anchor="start" x="278.5" y="-989.5" font-family="Helvetica,sans-Serif" font-size="10.00">+ get_value_desc()</text>
<text text-anchor="start" x="278.5" y="-978.5" font-family="Helvetica,sans-Serif" font-size="10.00">+ print()</text>
<text text-anchor="start" x="278.5" y="-967.5" font-family="Helvetica,sans-Serif" font-size="10.00"># scireg_get_low_pos()</text>
<text text-anchor="start" x="278.5" y="-956.5" font-family="Helvetica,sans-Serif" font-size="10.00"># scireg_get_high_pos()</text>
<text text-anchor="start" x="278.5" y="-945.5" font-family="Helvetica,sans-Serif" font-size="10.00"># scireg_get_bit_width()</text>
<text text-anchor="start" x="278.5" y="-934.5" font-family="Helvetica,sans-Serif" font-size="10.00"># scireg_get_region_type()</text>
<text text-anchor="start" x="278.5" y="-923.5" font-family="Helvetica,sans-Serif" font-size="10.00"># scireg_get_string_attribute()</text>
</a>
</g>
</g>
<!-- Node5&#45;&gt;Node9 -->
<g id="edge9" class="edge"><title>Node5&#45;&gt;Node9</title>
<path fill="none" stroke="midnightblue" d="M234.102,-1187.29C236.861,-1176.85 240.275,-1166.55 244.5,-1157 251.339,-1141.55 260.411,-1126.28 270.293,-1111.96"/>
<polygon fill="none" stroke="midnightblue" points="230.625,-1186.77 231.653,-1197.32 237.425,-1188.43 230.625,-1186.77"/>
</g>
<!-- Node6 -->
<g id="node6" class="node"><title>Node6</title>
<g id="a_node6"><a xlink:title="STL class. ">
<polygon fill="white" stroke="#bfbfbf" points="313.5,-1252.5 313.5,-1309.5 373.5,-1309.5 373.5,-1252.5 313.5,-1252.5"/>
<text text-anchor="middle" x="343.5" y="-1297.5" font-family="Helvetica,sans-Serif" font-size="10.00">std::string</text>
<polyline fill="none" stroke="#bfbfbf" points="313.5,-1290.5 373.5,-1290.5 "/>
<text text-anchor="middle" x="343.5" y="-1278.5" font-family="Helvetica,sans-Serif" font-size="10.00"> </text>
<polyline fill="none" stroke="#bfbfbf" points="313.5,-1271.5 373.5,-1271.5 "/>
<text text-anchor="middle" x="343.5" y="-1259.5" font-family="Helvetica,sans-Serif" font-size="10.00"> </text>
</a>
</g>
</g>
<!-- Node6&#45;&gt;Node3 -->
<g id="edge5" class="edge"><title>Node6&#45;&gt;Node3</title>
<path fill="none" stroke="#404040" d="M332.459,-1252.21C325.396,-1235.66 315.511,-1214.53 304.5,-1197 294.949,-1181.8 273.545,-1154.59 250.428,-1126.41"/>
<polygon fill="none" stroke="#404040" points="250.167,-1126.09 243.265,-1124 242.537,-1116.83 249.44,-1118.92 250.167,-1126.09"/>
<text text-anchor="middle" x="314" y="-1165.5" font-family="Helvetica,sans-Serif" font-size="10.00"> #m_desc</text>
</g>
<!-- Node6&#45;&gt;Node9 -->
<g id="edge10" class="edge"><title>Node6&#45;&gt;Node9</title>
<path fill="none" stroke="#404040" d="M343.5,-1252.12C343.5,-1227.2 343.5,-1188.84 343.5,-1150.89"/>
<polygon fill="none" stroke="#404040" points="343.5,-1150.61 339.5,-1144.61 343.5,-1138.61 347.5,-1144.61 343.5,-1150.61"/>
<text text-anchor="middle" x="366.5" y="-1171" font-family="Helvetica,sans-Serif" font-size="10.00"> #m_name</text>
<text text-anchor="middle" x="366.5" y="-1160" font-family="Helvetica,sans-Serif" font-size="10.00">#m_desc</text>
</g>
<!-- Node7 -->
<g id="node7" class="node"><title>Node7</title>
<g id="a_node7"><a xlink:title="STL class. ">
<polygon fill="white" stroke="#bfbfbf" points="296,-1402.5 296,-1470.5 391,-1470.5 391,-1402.5 296,-1402.5"/>
<text text-anchor="start" x="304" y="-1458.5" font-family="Helvetica,sans-Serif" font-size="10.00">std::basic_string&lt;</text>
<text text-anchor="middle" x="343.5" y="-1447.5" font-family="Helvetica,sans-Serif" font-size="10.00"> char &gt;</text>
<polyline fill="none" stroke="#bfbfbf" points="296,-1440.5 391,-1440.5 "/>
<text text-anchor="middle" x="343.5" y="-1428.5" font-family="Helvetica,sans-Serif" font-size="10.00"> </text>
<polyline fill="none" stroke="#bfbfbf" points="296,-1421.5 391,-1421.5 "/>
<text text-anchor="middle" x="343.5" y="-1409.5" font-family="Helvetica,sans-Serif" font-size="10.00"> </text>
</a>
</g>
</g>
<!-- Node7&#45;&gt;Node6 -->
<g id="edge6" class="edge"><title>Node7&#45;&gt;Node6</title>
<path fill="none" stroke="midnightblue" d="M343.5,-1392.03C343.5,-1365.56 343.5,-1332.53 343.5,-1309.6"/>
<polygon fill="none" stroke="midnightblue" points="340,-1392.19 343.5,-1402.19 347,-1392.19 340,-1392.19"/>
</g>
<!-- Node8 -->
<g id="node8" class="node"><title>Node8</title>
<polygon fill="white" stroke="#bfbfbf" points="492.5,-778.5 492.5,-846.5 612.5,-846.5 612.5,-778.5 492.5,-778.5"/>
<text text-anchor="start" x="500.5" y="-834.5" font-family="Helvetica,sans-Serif" font-size="10.00">std::vector&lt; sc_register</text>
<text text-anchor="middle" x="552.5" y="-823.5" font-family="Helvetica,sans-Serif" font-size="10.00">_field_base * &gt;</text>
<polyline fill="none" stroke="#bfbfbf" points="492.5,-816.5 612.5,-816.5 "/>
<text text-anchor="middle" x="552.5" y="-804.5" font-family="Helvetica,sans-Serif" font-size="10.00"> </text>
<polyline fill="none" stroke="#bfbfbf" points="492.5,-797.5 612.5,-797.5 "/>
<text text-anchor="middle" x="552.5" y="-785.5" font-family="Helvetica,sans-Serif" font-size="10.00"> </text>
</g>
<!-- Node8&#45;&gt;Node2 -->
<g id="edge7" class="edge"><title>Node8&#45;&gt;Node2</title>
<path fill="none" stroke="#404040" d="M562.113,-778.485C563.522,-772.388 564.749,-766.04 565.5,-760 566.103,-755.148 565.625,-753.887 565.5,-749 562.388,-627.103 580.172,-593.518 551.5,-475 539.677,-426.128 507.915,-380.585 476.463,-345.205"/>
<polygon fill="none" stroke="#404040" points="476.133,-344.842 469.135,-343.098 468.054,-335.969 475.051,-337.712 476.133,-344.842"/>
<text text-anchor="middle" x="591.5" y="-600.5" font-family="Helvetica,sans-Serif" font-size="10.00"> #m_fields</text>
</g>
<!-- Node8&#45;&gt;Node18 -->
<g id="edge22" class="edge"><title>Node8&#45;&gt;Node18</title>
<path fill="none" stroke="#404040" d="M529.389,-778.494C525.769,-772.505 522.304,-766.191 519.5,-760 516.913,-754.289 514.436,-748.393 512.069,-742.387"/>
<polygon fill="none" stroke="#404040" points="511.901,-741.944 506.036,-737.749 507.653,-730.721 513.518,-734.917 511.901,-741.944"/>
<text text-anchor="middle" x="542.5" y="-752" font-family="Helvetica,sans-Serif" font-size="10.00"> #m_fields</text>
</g>
<!-- Node9&#45;&gt;Node8 -->
<g id="edge8" class="edge"><title>Node9&#45;&gt;Node8</title>
<path fill="none" stroke="#404040" d="M362.106,-916.113C369.379,-897.258 379.479,-879.204 393.5,-865 416.444,-841.756 449.949,-828.996 480.294,-821.994"/>
<polygon fill="none" stroke="#404040" points="480.435,-821.965 485.485,-816.817 492.179,-819.499 487.128,-824.647 480.435,-821.965"/>
<text text-anchor="middle" x="418" y="-879" font-family="Helvetica,sans-Serif" font-size="10.00"> +elements</text>
</g>
<!-- Node10 -->
<g id="node10" class="node"><title>Node10</title>
<g id="a_node10"><a xlink:title="STL class. ">
<polygon fill="white" stroke="#bfbfbf" points="506,-999 506,-1056 593,-1056 593,-999 506,-999"/>
<text text-anchor="middle" x="549.5" y="-1044" font-family="Helvetica,sans-Serif" font-size="10.00">std::vector&lt; T &gt;</text>
<polyline fill="none" stroke="#bfbfbf" points="506,-1037 593,-1037 "/>
<text text-anchor="middle" x="549.5" y="-1025" font-family="Helvetica,sans-Serif" font-size="10.00"> </text>
<polyline fill="none" stroke="#bfbfbf" points="506,-1018 593,-1018 "/>
<text text-anchor="middle" x="549.5" y="-1006" font-family="Helvetica,sans-Serif" font-size="10.00"> </text>
</a>
</g>
</g>
<!-- Node10&#45;&gt;Node8 -->
<g id="edge11" class="edge"><title>Node10&#45;&gt;Node8</title>
<path fill="none" stroke="orange" d="M549.386,-988.735C549.37,-956.002 549.546,-907.368 550.5,-865 550.633,-859.096 550.83,-852.813 551.05,-846.739"/>
<polygon fill="orange" stroke="orange" points="545.886,-988.78 549.397,-998.776 552.886,-988.772 545.886,-988.78"/>
<text text-anchor="start" x="550.5" y="-884.5" font-family="Helvetica,sans-Serif" font-size="10.00"> &lt; sc_register_field</text>
<text text-anchor="middle" x="592.5" y="-873.5" font-family="Helvetica,sans-Serif" font-size="10.00">_base * &gt;</text>
</g>
<!-- Node14 -->
<g id="node14" class="node"><title>Node14</title>
<polygon fill="white" stroke="#bfbfbf" points="641.5,-778.5 641.5,-846.5 763.5,-846.5 763.5,-778.5 641.5,-778.5"/>
<text text-anchor="start" x="649.5" y="-834.5" font-family="Helvetica,sans-Serif" font-size="10.00">std::vector&lt; scireg</text>
<text text-anchor="middle" x="702.5" y="-823.5" font-family="Helvetica,sans-Serif" font-size="10.00">_ns::scireg_callback * &gt;</text>
<polyline fill="none" stroke="#bfbfbf" points="641.5,-816.5 763.5,-816.5 "/>
<text text-anchor="middle" x="702.5" y="-804.5" font-family="Helvetica,sans-Serif" font-size="10.00"> </text>
<polyline fill="none" stroke="#bfbfbf" points="641.5,-797.5 763.5,-797.5 "/>
<text text-anchor="middle" x="702.5" y="-785.5" font-family="Helvetica,sans-Serif" font-size="10.00"> </text>
</g>
<!-- Node10&#45;&gt;Node14 -->
<g id="edge19" class="edge"><title>Node10&#45;&gt;Node14</title>
<path fill="none" stroke="orange" d="M574.026,-990.721C591.341,-965.154 614.859,-929.791 634.5,-898 643.395,-883.602 643.373,-878.56 653.5,-865 658.152,-858.77 663.482,-852.488 668.875,-846.556"/>
<polygon fill="orange" stroke="orange" points="571.129,-988.758 568.407,-998.997 576.92,-992.69 571.129,-988.758"/>
<text text-anchor="start" x="653.5" y="-884.5" font-family="Helvetica,sans-Serif" font-size="10.00"> &lt; scireg_ns::scireg</text>
<text text-anchor="middle" x="697" y="-873.5" font-family="Helvetica,sans-Serif" font-size="10.00">_callback * &gt;</text>
</g>
<!-- Node11 -->
<g id="node11" class="node"><title>Node11</title>
<polygon fill="white" stroke="#bfbfbf" points="480,-1252.5 480,-1309.5 509,-1309.5 509,-1252.5 480,-1252.5"/>
<text text-anchor="middle" x="494.5" y="-1297.5" font-family="Helvetica,sans-Serif" font-size="10.00">T</text>
<polyline fill="none" stroke="#bfbfbf" points="480,-1290.5 509,-1290.5 "/>
<text text-anchor="middle" x="494.5" y="-1278.5" font-family="Helvetica,sans-Serif" font-size="10.00"> </text>
<polyline fill="none" stroke="#bfbfbf" points="480,-1271.5 509,-1271.5 "/>
<text text-anchor="middle" x="494.5" y="-1259.5" font-family="Helvetica,sans-Serif" font-size="10.00"> </text>
</g>
<!-- Node11&#45;&gt;Node10 -->
<g id="edge12" class="edge"><title>Node11&#45;&gt;Node10</title>
<path fill="none" stroke="#404040" d="M500.596,-1252.12C510.389,-1207.34 529.658,-1119.23 540.863,-1067.99"/>
<polygon fill="none" stroke="#404040" points="540.897,-1067.84 538.271,-1061.12 543.46,-1056.12 546.086,-1062.83 540.897,-1067.84"/>
<text text-anchor="middle" x="545" y="-1165.5" font-family="Helvetica,sans-Serif" font-size="10.00"> +elements</text>
</g>
<!-- Node11&#45;&gt;Node18 -->
<g id="edge25" class="edge"><title>Node11&#45;&gt;Node18</title>
<path fill="none" stroke="#404040" d="M493.679,-1252.24C491.165,-1167.28 483.455,-906.669 478.61,-742.918"/>
<polygon fill="none" stroke="#404040" points="478.607,-742.805 474.431,-736.926 478.252,-730.81 482.428,-736.689 478.607,-742.805"/>
<text text-anchor="middle" x="513" y="-890" font-family="Helvetica,sans-Serif" font-size="10.00"> #m_cur_val</text>
<text text-anchor="middle" x="513" y="-879" font-family="Helvetica,sans-Serif" font-size="10.00">#m_mask</text>
<text text-anchor="middle" x="513" y="-868" font-family="Helvetica,sans-Serif" font-size="10.00">#m_reset_val</text>
</g>
<!-- Node12 -->
<g id="node12" class="node"><title>Node12</title>
<polygon fill="white" stroke="#bfbfbf" points="307.5,-574.5 307.5,-631.5 387.5,-631.5 387.5,-574.5 307.5,-574.5"/>
<text text-anchor="middle" x="347.5" y="-619.5" font-family="Helvetica,sans-Serif" font-size="10.00">unsigned short</text>
<polyline fill="none" stroke="#bfbfbf" points="307.5,-612.5 387.5,-612.5 "/>
<text text-anchor="middle" x="347.5" y="-600.5" font-family="Helvetica,sans-Serif" font-size="10.00"> </text>
<polyline fill="none" stroke="#bfbfbf" points="307.5,-593.5 387.5,-593.5 "/>
<text text-anchor="middle" x="347.5" y="-581.5" font-family="Helvetica,sans-Serif" font-size="10.00"> </text>
</g>
<!-- Node12&#45;&gt;Node2 -->
<g id="edge13" class="edge"><title>Node12&#45;&gt;Node2</title>
<path fill="none" stroke="#404040" d="M350.776,-574.493C355.048,-539.467 362.984,-477.111 371.5,-424 371.848,-421.831 372.202,-419.645 372.563,-417.446"/>
<polygon fill="none" stroke="#404040" points="372.568,-417.411 369.61,-410.835 374.542,-405.574 377.501,-412.151 372.568,-417.411"/>
<text text-anchor="middle" x="401" y="-449" font-family="Helvetica,sans-Serif" font-size="10.00"> #m_cur_val</text>
<text text-anchor="middle" x="401" y="-438" font-family="Helvetica,sans-Serif" font-size="10.00">#m_mask</text>
<text text-anchor="middle" x="401" y="-427" font-family="Helvetica,sans-Serif" font-size="10.00">#m_reset_val</text>
</g>
<!-- Node13 -->
<g id="node13" class="node"><title>Node13</title>
<polygon fill="white" stroke="#bfbfbf" points="239,-784 239,-841 302,-841 302,-784 239,-784"/>
<text text-anchor="middle" x="270.5" y="-829" font-family="Helvetica,sans-Serif" font-size="10.00">sc_event *</text>
<polyline fill="none" stroke="#bfbfbf" points="239,-822 302,-822 "/>
<text text-anchor="middle" x="270.5" y="-810" font-family="Helvetica,sans-Serif" font-size="10.00"> </text>
<polyline fill="none" stroke="#bfbfbf" points="239,-803 302,-803 "/>
<text text-anchor="middle" x="270.5" y="-791" font-family="Helvetica,sans-Serif" font-size="10.00"> </text>
</g>
<!-- Node13&#45;&gt;Node2 -->
<g id="edge14" class="edge"><title>Node13&#45;&gt;Node2</title>
<path fill="none" stroke="#404040" d="M248.896,-783.787C238.739,-769.003 227.73,-749.981 222.5,-731 192.279,-621.309 182.379,-581.469 222.5,-475 242.641,-421.553 284.119,-373.061 321.862,-337.048"/>
<polygon fill="none" stroke="#404040" points="322.094,-336.831 323.741,-329.811 330.855,-328.631 329.208,-335.652 322.094,-336.831"/>
<text text-anchor="middle" x="260.5" y="-600.5" font-family="Helvetica,sans-Serif" font-size="10.00"> #m_probe_event</text>
</g>
<!-- Node13&#45;&gt;Node18 -->
<g id="edge23" class="edge"><title>Node13&#45;&gt;Node18</title>
<path fill="none" stroke="#404040" d="M302.138,-793.494C334.357,-774.776 381.628,-746.138 396.5,-731 396.897,-730.596 397.292,-730.19 397.687,-729.782"/>
<polygon fill="none" stroke="#404040" points="397.715,-729.751 398.807,-722.623 405.807,-720.89 404.714,-728.018 397.715,-729.751"/>
<text text-anchor="middle" x="410.5" y="-752" font-family="Helvetica,sans-Serif" font-size="10.00"> #m_probe_event</text>
</g>
<!-- Node14&#45;&gt;Node2 -->
<g id="edge15" class="edge"><title>Node14&#45;&gt;Node2</title>
<path fill="none" stroke="#404040" d="M700.756,-778.406C696.08,-715.057 679.121,-574.147 618.5,-475 582.633,-416.338 524.873,-364.213 477.676,-327.681"/>
<polygon fill="none" stroke="#404040" points="477.62,-327.638 470.423,-327.176 468.082,-320.356 475.278,-320.818 477.62,-327.638"/>
<text text-anchor="middle" x="745" y="-600.5" font-family="Helvetica,sans-Serif" font-size="10.00"> #scireg_callback_vec</text>
</g>
<!-- Node14&#45;&gt;Node18 -->
<g id="edge24" class="edge"><title>Node14&#45;&gt;Node18</title>
<path fill="none" stroke="#404040" d="M641.415,-785.843C613.74,-772.252 581.847,-753.653 557.5,-731 555.502,-729.141 553.53,-727.225 551.585,-725.259"/>
<polygon fill="none" stroke="#404040" points="551.438,-725.101 544.416,-723.457 543.234,-716.343 550.255,-717.988 551.438,-725.101"/>
<text text-anchor="middle" x="642" y="-752" font-family="Helvetica,sans-Serif" font-size="10.00"> #scireg_callback_vec</text>
</g>
<!-- Node15 -->
<g id="node15" class="node"><title>Node15</title>
<g id="a_node15"><a xlink:href="classscireg__ns_1_1scireg__callback.html" target="_top" xlink:title="The scireg_callback is an abstract base class that is used to implement callbacks to tools...">
<polygon fill="white" stroke="black" points="700.5,-993.5 700.5,-1061.5 832.5,-1061.5 832.5,-993.5 700.5,-993.5"/>
<text text-anchor="middle" x="766.5" y="-1049.5" font-family="Helvetica,sans-Serif" font-size="10.00">scireg_ns::scireg_callback</text>
<polyline fill="none" stroke="black" points="700.5,-1042.5 832.5,-1042.5 "/>
<text text-anchor="middle" x="766.5" y="-1030.5" font-family="Helvetica,sans-Serif" font-size="10.00"> </text>
<polyline fill="none" stroke="black" points="700.5,-1023.5 832.5,-1023.5 "/>
<text text-anchor="start" x="708.5" y="-1011.5" font-family="Helvetica,sans-Serif" font-size="10.00">+ ~scireg_callback()</text>
<text text-anchor="start" x="708.5" y="-1000.5" font-family="Helvetica,sans-Serif" font-size="10.00">+ do_callback()</text>
</a>
</g>
</g>
<!-- Node15&#45;&gt;Node14 -->
<g id="edge16" class="edge"><title>Node15&#45;&gt;Node14</title>
<path fill="none" stroke="#404040" d="M767.153,-993.235C766.647,-959.561 762.594,-906.657 744.5,-865 743.293,-862.222 741.893,-859.473 740.35,-856.775"/>
<polygon fill="none" stroke="#404040" points="740.332,-856.747 733.714,-853.884 733.81,-846.674 740.429,-849.536 740.332,-856.747"/>
<text text-anchor="middle" x="779" y="-879" font-family="Helvetica,sans-Serif" font-size="10.00"> +elements</text>
</g>
<!-- Node16 -->
<g id="node16" class="node"><title>Node16</title>
<polygon fill="white" stroke="#bfbfbf" points="698,-1252.5 698,-1309.5 741,-1309.5 741,-1252.5 698,-1252.5"/>
<text text-anchor="middle" x="719.5" y="-1297.5" font-family="Helvetica,sans-Serif" font-size="10.00">uint64</text>
<polyline fill="none" stroke="#bfbfbf" points="698,-1290.5 741,-1290.5 "/>
<text text-anchor="middle" x="719.5" y="-1278.5" font-family="Helvetica,sans-Serif" font-size="10.00"> </text>
<polyline fill="none" stroke="#bfbfbf" points="698,-1271.5 741,-1271.5 "/>
<text text-anchor="middle" x="719.5" y="-1259.5" font-family="Helvetica,sans-Serif" font-size="10.00"> </text>
</g>
<!-- Node16&#45;&gt;Node15 -->
<g id="edge17" class="edge"><title>Node16&#45;&gt;Node15</title>
<path fill="none" stroke="#404040" d="M724.709,-1252.12C732.786,-1208.91 748.404,-1125.33 758.092,-1073.49"/>
<polygon fill="none" stroke="#404040" points="758.096,-1073.47 755.267,-1066.84 760.301,-1061.67 763.131,-1068.3 758.096,-1073.47"/>
<text text-anchor="middle" x="758.5" y="-1171" font-family="Helvetica,sans-Serif" font-size="10.00"> +offset</text>
<text text-anchor="middle" x="758.5" y="-1160" font-family="Helvetica,sans-Serif" font-size="10.00">+size</text>
</g>
<!-- Node17 -->
<g id="node17" class="node"><title>Node17</title>
<polygon fill="white" stroke="#bfbfbf" points="759.5,-1252.5 759.5,-1309.5 867.5,-1309.5 867.5,-1252.5 759.5,-1252.5"/>
<text text-anchor="middle" x="813.5" y="-1297.5" font-family="Helvetica,sans-Serif" font-size="10.00">scireg_callback_type</text>
<polyline fill="none" stroke="#bfbfbf" points="759.5,-1290.5 867.5,-1290.5 "/>
<text text-anchor="middle" x="813.5" y="-1278.5" font-family="Helvetica,sans-Serif" font-size="10.00"> </text>
<polyline fill="none" stroke="#bfbfbf" points="759.5,-1271.5 867.5,-1271.5 "/>
<text text-anchor="middle" x="813.5" y="-1259.5" font-family="Helvetica,sans-Serif" font-size="10.00"> </text>
</g>
<!-- Node17&#45;&gt;Node15 -->
<g id="edge18" class="edge"><title>Node17&#45;&gt;Node15</title>
<path fill="none" stroke="#404040" d="M808.291,-1252.12C800.214,-1208.91 784.596,-1125.33 774.908,-1073.49"/>
<polygon fill="none" stroke="#404040" points="774.904,-1073.47 769.869,-1068.3 772.699,-1061.67 777.733,-1066.84 774.904,-1073.47"/>
<text text-anchor="middle" x="807.5" y="-1165.5" font-family="Helvetica,sans-Serif" font-size="10.00"> +type</text>
</g>
<!-- Node18&#45;&gt;Node2 -->
<g id="edge20" class="edge"><title>Node18&#45;&gt;Node2</title>
<path fill="none" stroke="orange" d="M443.334,-465.491C438.818,-445.711 434.175,-425.378 429.679,-405.685"/>
<polygon fill="orange" stroke="orange" points="439.972,-466.493 445.61,-475.463 446.797,-464.935 439.972,-466.493"/>
<text text-anchor="middle" x="482" y="-438" font-family="Helvetica,sans-Serif" font-size="10.00"> &lt; unsigned short &gt;</text>
</g>
</g>
</svg>
        <g id="navigator" transform="translate(0 0)" fill="#404254">
                <rect fill="#f2f5e9" fill-opacity="0.5" stroke="#606060" stroke-width=".5" x="0" y="0" width="60" height="60"/>
                <use id="zoomplus" xlink:href="#zoomPlus" x="17" y="9" onmousedown="handleZoom(evt,'in')"/>
                <use id="zoomminus" xlink:href="#zoomMin" x="42" y="9" onmousedown="handleZoom(evt,'out')"/>
                <use id="reset" xlink:href="#resetDef" x="30" y="36" onmousedown="handleReset()"/>
                <g id="arrowUp" xlink:href="#dirArrow" transform="translate(30 24)" onmousedown="handlePan(0,-1)">
                  <use xlink:href="#rim" fill="#404040">
                        <set attributeName="fill" to="#808080" begin="arrowUp.mouseover" end="arrowUp.mouseout"/>
                  </use>
                  <path fill="none" stroke="white" stroke-width="1.5" d="M0,-3.0v7 M-2.5,-0.5L0,-3.0L2.5,-0.5"/>
                </g>
                <g id="arrowRight" xlink:href="#dirArrow" transform="rotate(90) translate(36 -43)" onmousedown="handlePan(1,0)">
                  <use xlink:href="#rim" fill="#404040">
                        <set attributeName="fill" to="#808080" begin="arrowRight.mouseover" end="arrowRight.mouseout"/>
                  </use>
                  <path fill="none" stroke="white" stroke-width="1.5" d="M0,-3.0v7 M-2.5,-0.5L0,-3.0L2.5,-0.5"/>
                </g>
                <g id="arrowDown" xlink:href="#dirArrow" transform="rotate(180) translate(-30 -48)" onmousedown="handlePan(0,1)">
                  <use xlink:href="#rim" fill="#404040">
                        <set attributeName="fill" to="#808080" begin="arrowDown.mouseover" end="arrowDown.mouseout"/>
                  </use>
                  <path fill="none" stroke="white" stroke-width="1.5" d="M0,-3.0v7 M-2.5,-0.5L0,-3.0L2.5,-0.5"/>
                </g>
                <g id="arrowLeft" xlink:href="#dirArrow" transform="rotate(270) translate(-36 17)" onmousedown="handlePan(-1,0)">
                  <use xlink:href="#rim" fill="#404040">
                        <set attributeName="fill" to="#808080" begin="arrowLeft.mouseover" end="arrowLeft.mouseout"/>
                  </use>
                  <path fill="none" stroke="white" stroke-width="1.5" d="M0,-3.0v7 M-2.5,-0.5L0,-3.0L2.5,-0.5"/>
                </g>
        </g>
        <svg viewBox="0 0 15 15" width="100%" height="30px" preserveAspectRatio="xMaxYMin meet">
         <g id="arrow_out" transform="scale(0.3 0.3)">
          <a xlink:href="classsc__register_3_01unsigned_01short_00_01M_01_4__coll__graph_org.svg" target="_base">
           <rect id="button" ry="5" rx="5" y="6" x="6" height="38" width="38"
                fill="#f2f5e9" fill-opacity="0.5" stroke="#606060" stroke-width="1.0"/>
           <path id="arrow"
             d="M 11.500037,31.436501 C 11.940474,20.09759 22.043105,11.32322 32.158766,21.979434 L 37.068811,17.246167 C 37.068811,17.246167 37.088388,32 37.088388,32 L 22.160133,31.978069 C 22.160133,31.978069 26.997745,27.140456 26.997745,27.140456 C 18.528582,18.264221 13.291696,25.230495 11.500037,31.436501 z"
             style="fill:#404040;"/>
          </a>
         </g>
        </svg>
</svg>
