<?xml version="1.0" encoding="UTF-8" standalone="no"?>
<!DOCTYPE svg PUBLIC "-//W3C//DTD SVG 1.1//EN"
 "http://www.w3.org/Graphics/SVG/1.1/DTD/svg11.dtd">
<!-- Generated by graphviz version 2.26.0 (20091210.2329)
 -->
<!-- Title: powermonitor Pages: 1 -->
<svg width="134pt" height="264pt"
 viewBox="0.00 0.00 134.00 264.00" xmlns="http://www.w3.org/2000/svg" xmlns:xlink="http://www.w3.org/1999/xlink">
<g id="graph1" class="graph" transform="scale(1 1) rotate(0) translate(4 260)">
<title>powermonitor</title>
<polygon fill="white" stroke="white" points="-4,5 -4,-260 131,-260 131,5 -4,5"/>
<!-- Node1 -->
<g id="node1" class="node"><title>Node1</title>
<polygon fill="#bfbfbf" stroke="black" points="-0.5,-1 -0.5,-155 126.5,-155 126.5,-1 -0.5,-1"/>
<text text-anchor="middle" x="63" y="-142" font-family="Helvetica,sans-Serif" font-size="10.00">powermonitor</text>
<polyline fill="none" stroke="black" points="-0.5,-134 126.5,-134 "/>
<text text-anchor="start" x="7.5" y="-121" font-family="Helvetica,sans-Serif" font-size="10.00">+ m_report_time</text>
<text text-anchor="start" x="7.5" y="-108" font-family="Helvetica,sans-Serif" font-size="10.00">+ m_exram</text>
<polyline fill="none" stroke="black" points="-0.5,-100 126.5,-100 "/>
<text text-anchor="start" x="7.5" y="-87" font-family="Helvetica,sans-Serif" font-size="10.00">+ gen_report()</text>
<text text-anchor="start" x="7.5" y="-74" font-family="Helvetica,sans-Serif" font-size="10.00">+ report_trigger()</text>
<text text-anchor="start" x="7.5" y="-61" font-family="Helvetica,sans-Serif" font-size="10.00">+ get_model_name()</text>
<text text-anchor="start" x="7.5" y="-48" font-family="Helvetica,sans-Serif" font-size="10.00">+ get_IP_params()</text>
<text text-anchor="start" x="7.5" y="-35" font-family="Helvetica,sans-Serif" font-size="10.00">+ end_of_simulation()</text>
<text text-anchor="start" x="7.5" y="-22" font-family="Helvetica,sans-Serif" font-size="10.00">+ SC_HAS_PROCESS()</text>
<text text-anchor="start" x="7.5" y="-9" font-family="Helvetica,sans-Serif" font-size="10.00">+ powermonitor()</text>
</g>
<!-- Node2 -->
<g id="node2" class="node"><title>Node2</title>
<polygon fill="white" stroke="#bfbfbf" points="11,-192.5 11,-255.5 115,-255.5 115,-192.5 11,-192.5"/>
<text text-anchor="middle" x="63" y="-242.5" font-family="Helvetica,sans-Serif" font-size="10.00">sc_core::sc_module</text>
<polyline fill="none" stroke="#bfbfbf" points="11,-234.5 115,-234.5 "/>
<text text-anchor="middle" x="63" y="-221.5" font-family="Helvetica,sans-Serif" font-size="10.00"> </text>
<polyline fill="none" stroke="#bfbfbf" points="11,-213.5 115,-213.5 "/>
<text text-anchor="middle" x="63" y="-200.5" font-family="Helvetica,sans-Serif" font-size="10.00"> </text>
</g>
<!-- Node2&#45;&gt;Node1 -->
<g id="edge2" class="edge"><title>Node2&#45;&gt;Node1</title>
<path fill="none" stroke="midnightblue" d="M63,-182.288C63,-173.742 63,-164.491 63,-155.148"/>
<polygon fill="none" stroke="midnightblue" points="59.5001,-182.32 63,-192.32 66.5001,-182.32 59.5001,-182.32"/>
</g>
</g>
</svg>
