<?xml version="1.0" encoding="UTF-8" standalone="no"?>
<!DOCTYPE svg PUBLIC "-//W3C//DTD SVG 1.1//EN"
 "http://www.w3.org/Graphics/SVG/1.1/DTD/svg11.dtd">
<!-- Generated by graphviz version 2.36.0 (20140111.2315)
 -->
<!-- Title: leon3_funclt_trap::PinTLM_out_32::PinTLM_out_32 Pages: 1 -->
<svg width="290pt" height="48pt"
 viewBox="0.00 0.00 290.00 48.00" xmlns="http://www.w3.org/2000/svg" xmlns:xlink="http://www.w3.org/1999/xlink">
<g id="graph0" class="graph" transform="scale(1 1) rotate(0) translate(4 44)">
<title>leon3_funclt_trap::PinTLM_out_32::PinTLM_out_32</title>
<polygon fill="white" stroke="none" points="-4,4 -4,-44 286,-44 286,4 -4,4"/>
<!-- Node1 -->
<g id="node1" class="node"><title>Node1</title>
<polygon fill="#bfbfbf" stroke="black" points="0.5,0.5 0.5,-40.5 125.5,-40.5 125.5,0.5 0.5,0.5"/>
<text text-anchor="start" x="8.5" y="-28.5" font-family="Helvetica,sans-Serif" font-size="10.00">leon3_funclt_trap::</text>
<text text-anchor="start" x="8.5" y="-17.5" font-family="Helvetica,sans-Serif" font-size="10.00">PinTLM_out_32::PinTLM</text>
<text text-anchor="middle" x="63" y="-6.5" font-family="Helvetica,sans-Serif" font-size="10.00">_out_32</text>
</g>
<!-- Node2 -->
<g id="node2" class="node"><title>Node2</title>
<g id="a_node2"><a xlink:href="classleon3__funclt__trap_1_1PinTLM__out__32.html#a525104e4979f7a25677d505f4ecc51e0" target="_top" xlink:title="leon3_funclt_trap::\lPinTLM_out_32::on_run">
<polygon fill="white" stroke="black" points="162,-5 162,-35 282,-35 282,-5 162,-5"/>
<text text-anchor="start" x="170" y="-23" font-family="Helvetica,sans-Serif" font-size="10.00">leon3_funclt_trap::</text>
<text text-anchor="middle" x="222" y="-12" font-family="Helvetica,sans-Serif" font-size="10.00">PinTLM_out_32::on_run</text>
</a>
</g>
</g>
<!-- Node1&#45;&gt;Node2 -->
<g id="edge1" class="edge"><title>Node1&#45;&gt;Node2</title>
<path fill="none" stroke="midnightblue" d="M125.6,-20C134.183,-20 143.048,-20 151.76,-20"/>
<polygon fill="midnightblue" stroke="midnightblue" points="151.889,-23.5001 161.889,-20 151.889,-16.5001 151.889,-23.5001"/>
</g>
</g>
</svg>
