<?xml version="1.0" encoding="UTF-8" standalone="no"?>
<!DOCTYPE svg PUBLIC "-//W3C//DTD SVG 1.1//EN"
 "http://www.w3.org/Graphics/SVG/1.1/DTD/svg11.dtd">
<!-- Generated by graphviz version 2.38.0 (20140413.2041)
 -->
<!-- Title: core.waf.cpplint.cpplint_wrapper Pages: 1 -->
<svg width="188pt" height="270pt"
 viewBox="0.00 0.00 187.50 270.00" xmlns="http://www.w3.org/2000/svg" xmlns:xlink="http://www.w3.org/1999/xlink">
<g id="graph0" class="graph" transform="scale(1 1) rotate(0) translate(4 266)">
<title>core.waf.cpplint.cpplint_wrapper</title>
<polygon fill="white" stroke="none" points="-4,4 -4,-266 183.5,-266 183.5,4 -4,4"/>
<!-- Node1 -->
<g id="node1" class="node"><title>Node1</title>
<polygon fill="#bfbfbf" stroke="black" points="22,-0.5 22,-156.5 139,-156.5 139,-0.5 22,-0.5"/>
<text text-anchor="start" x="30" y="-144.5" font-family="Helvetica,sans-Serif" font-size="10.00">core.waf.cpplint.cpplint</text>
<text text-anchor="middle" x="80.5" y="-133.5" font-family="Helvetica,sans-Serif" font-size="10.00">_wrapper</text>
<polyline fill="none" stroke="black" points="22,-126.5 139,-126.5 "/>
<text text-anchor="start" x="30" y="-114.5" font-family="Helvetica,sans-Serif" font-size="10.00">+ logger</text>
<text text-anchor="start" x="30" y="-103.5" font-family="Helvetica,sans-Serif" font-size="10.00">+ threshold</text>
<text text-anchor="start" x="30" y="-92.5" font-family="Helvetica,sans-Serif" font-size="10.00">+ error_count</text>
<text text-anchor="start" x="30" y="-81.5" font-family="Helvetica,sans-Serif" font-size="10.00">+ fmt</text>
<text text-anchor="start" x="30" y="-70.5" font-family="Helvetica,sans-Serif" font-size="10.00">+ stream</text>
<polyline fill="none" stroke="black" points="22,-63.5 139,-63.5 "/>
<text text-anchor="start" x="30" y="-51.5" font-family="Helvetica,sans-Serif" font-size="10.00">+ __init__()</text>
<text text-anchor="start" x="30" y="-40.5" font-family="Helvetica,sans-Serif" font-size="10.00">+ __enter__()</text>
<text text-anchor="start" x="30" y="-29.5" font-family="Helvetica,sans-Serif" font-size="10.00">+ __exit__()</text>
<text text-anchor="start" x="30" y="-18.5" font-family="Helvetica,sans-Serif" font-size="10.00">+ isatty()</text>
<text text-anchor="start" x="30" y="-7.5" font-family="Helvetica,sans-Serif" font-size="10.00">+ write()</text>
</g>
<!-- Node2 -->
<g id="node2" class="node"><title>Node2</title>
<polygon fill="white" stroke="#bfbfbf" points="0,-204.5 0,-261.5 43,-261.5 43,-204.5 0,-204.5"/>
<text text-anchor="middle" x="21.5" y="-249.5" font-family="Helvetica,sans-Serif" font-size="10.00">object</text>
<polyline fill="none" stroke="#bfbfbf" points="0,-242.5 43,-242.5 "/>
<text text-anchor="middle" x="21.5" y="-230.5" font-family="Helvetica,sans-Serif" font-size="10.00"> </text>
<polyline fill="none" stroke="#bfbfbf" points="0,-223.5 43,-223.5 "/>
<text text-anchor="middle" x="21.5" y="-211.5" font-family="Helvetica,sans-Serif" font-size="10.00"> </text>
</g>
<!-- Node2&#45;&gt;Node1 -->
<g id="edge1" class="edge"><title>Node2&#45;&gt;Node1</title>
<path fill="none" stroke="midnightblue" d="M35.8093,-195.014C40.324,-183.345 45.4915,-169.988 50.6725,-156.596"/>
<polygon fill="none" stroke="midnightblue" points="32.5285,-193.794 32.1845,-204.383 39.057,-196.32 32.5285,-193.794"/>
</g>
<!-- Node3 -->
<g id="node3" class="node"><title>Node3</title>
<polygon fill="white" stroke="#bfbfbf" points="61.5,-204.5 61.5,-261.5 99.5,-261.5 99.5,-204.5 61.5,-204.5"/>
<text text-anchor="middle" x="80.5" y="-249.5" font-family="Helvetica,sans-Serif" font-size="10.00">tuple</text>
<polyline fill="none" stroke="#bfbfbf" points="61.5,-242.5 99.5,-242.5 "/>
<text text-anchor="middle" x="80.5" y="-230.5" font-family="Helvetica,sans-Serif" font-size="10.00"> </text>
<polyline fill="none" stroke="#bfbfbf" points="61.5,-223.5 99.5,-223.5 "/>
<text text-anchor="middle" x="80.5" y="-211.5" font-family="Helvetica,sans-Serif" font-size="10.00"> </text>
</g>
<!-- Node3&#45;&gt;Node1 -->
<g id="edge2" class="edge"><title>Node3&#45;&gt;Node1</title>
<path fill="none" stroke="#404040" d="M80.5,-204.383C80.5,-194.106 80.5,-181.806 80.5,-168.991"/>
<polygon fill="none" stroke="#404040" points="80.5001,-168.596 76.5,-162.596 80.5,-156.596 84.5,-162.596 80.5001,-168.596"/>
<text text-anchor="middle" x="94.5" y="-178" font-family="Helvetica,sans-Serif" font-size="10.00"> +lock</text>
</g>
<!-- Node4 -->
<g id="node4" class="node"><title>Node4</title>
<g id="a_node4"><a xlink:href="classint.html" target="_top" xlink:title="{int\n||}">
<polygon fill="white" stroke="black" points="118,-204.5 118,-261.5 147,-261.5 147,-204.5 118,-204.5"/>
<text text-anchor="middle" x="132.5" y="-249.5" font-family="Helvetica,sans-Serif" font-size="10.00">int</text>
<polyline fill="none" stroke="black" points="118,-242.5 147,-242.5 "/>
<text text-anchor="middle" x="132.5" y="-230.5" font-family="Helvetica,sans-Serif" font-size="10.00"> </text>
<polyline fill="none" stroke="black" points="118,-223.5 147,-223.5 "/>
<text text-anchor="middle" x="132.5" y="-211.5" font-family="Helvetica,sans-Serif" font-size="10.00"> </text>
</a>
</g>
</g>
<!-- Node4&#45;&gt;Node1 -->
<g id="edge3" class="edge"><title>Node4&#45;&gt;Node1</title>
<path fill="none" stroke="#404040" d="M123.083,-204.383C119.507,-193.894 115.211,-181.298 110.745,-168.198"/>
<polygon fill="none" stroke="#404040" points="110.662,-167.954 104.939,-163.566 106.789,-156.596 112.511,-160.984 110.662,-167.954"/>
<text text-anchor="middle" x="148" y="-178" font-family="Helvetica,sans-Serif" font-size="10.00"> +tasks_count</text>
</g>
</g>
</svg>
