<?xml version="1.0" encoding="UTF-8" standalone="no"?>
<!DOCTYPE svg PUBLIC "-//W3C//DTD SVG 1.1//EN"
 "http://www.w3.org/Graphics/SVG/1.1/DTD/svg11.dtd">
<!-- Generated by graphviz version 2.36.0 (20140111.2315)
 -->
<!-- Title: sr_signal::signal_out&lt; TYPE, MODULE &gt; Pages: 1 -->
<!--zoomable 608 -->
<svg id="main" version="1.1" xmlns="http://www.w3.org/2000/svg" xmlns:xlink="http://www.w3.org/1999/xlink" xml:space="preserve" onload="init(evt)">
<style type="text/css"><![CDATA[
.edge:hover path { stroke: red; }
.edge:hover polygon { stroke: red; fill: red; }
]]></style>
<script type="text/javascript"><![CDATA[
var edges = document.getElementsByTagName('g');
if (edges && edges.length) {
  for (var i=0;i<edges.length;i++) {
    if (edges[i].id.substr(0,4)=='edge') {
      edges[i].setAttribute('class','edge');
    }
  }
}
]]></script>
        <defs>
                <circle id="rim" cx="0" cy="0" r="7"/>
                <circle id="rim2" cx="0" cy="0" r="3.5"/>
                <g id="zoomPlus">
                        <use xlink:href="#rim" fill="#404040">
                                <set attributeName="fill" to="#808080" begin="zoomplus.mouseover" end="zoomplus.mouseout"/>
                        </use>
                        <path d="M-4,0h8M0,-4v8" fill="none" stroke="white" stroke-width="1.5" pointer-events="none"/>
                </g>
                <g id="zoomMin">
                        <use xlink:href="#rim" fill="#404040">
                                <set attributeName="fill" to="#808080" begin="zoomminus.mouseover" end="zoomminus.mouseout"/>
                        </use>
                        <path d="M-4,0h8" fill="none" stroke="white" stroke-width="1.5" pointer-events="none"/>
                </g>
                <g id="dirArrow">
                        <path fill="none" stroke="white" stroke-width="1.5" d="M0,-3.0v7 M-2.5,-0.5L0,-3.0L2.5,-0.5"/>
                </g>
               <g id="resetDef">
                       <use xlink:href="#rim2" fill="#404040">
                               <set attributeName="fill" to="#808080" begin="reset.mouseover" end="reset.mouseout"/>
                       </use>
               </g>
        </defs>

<script type="text/javascript">
var viewWidth = 358;
var viewHeight = 608;
var sectionId = 'dynsection-0';
</script>
<script xlink:href="svgpan.js"/>
<svg id="graph" class="graph">
<g id="viewport">
<title>sr_signal::signal_out&lt; TYPE, MODULE &gt;</title>
<polygon fill="white" stroke="none" points="-4,4 -4,-604 354,-604 354,4 -4,4"/>
<!-- Node1 -->
<g id="node1" class="node"><title>Node1</title>
<polygon fill="#bfbfbf" stroke="black" points="77,-185 77,-319 187,-319 187,-185 77,-185"/>
<text text-anchor="start" x="85" y="-307" font-family="Helvetica,sans-Serif" font-size="10.00">sr_signal::signal_out</text>
<text text-anchor="middle" x="132" y="-296" font-family="Helvetica,sans-Serif" font-size="10.00">&lt; TYPE, MODULE &gt;</text>
<polyline fill="none" stroke="black" points="77,-289 187,-289 "/>
<text text-anchor="start" x="85" y="-277" font-family="Helvetica,sans-Serif" font-size="10.00"># m_receiver</text>
<polyline fill="none" stroke="black" points="77,-270 187,-270 "/>
<text text-anchor="start" x="85" y="-258" font-family="Helvetica,sans-Serif" font-size="10.00">+ signal_out()</text>
<text text-anchor="start" x="85" y="-247" font-family="Helvetica,sans-Serif" font-size="10.00">+ ~signal_out()</text>
<text text-anchor="start" x="85" y="-236" font-family="Helvetica,sans-Serif" font-size="10.00">+ bind()</text>
<text text-anchor="start" x="85" y="-225" font-family="Helvetica,sans-Serif" font-size="10.00">+ write()</text>
<text text-anchor="start" x="85" y="-214" font-family="Helvetica,sans-Serif" font-size="10.00">+ operator()()</text>
<text text-anchor="start" x="85" y="-203" font-family="Helvetica,sans-Serif" font-size="10.00">+ operator=()</text>
<text text-anchor="start" x="85" y="-192" font-family="Helvetica,sans-Serif" font-size="10.00">+ operator=()</text>
</g>
<!-- Node7 -->
<g id="node7" class="node"><title>Node7</title>
<g id="a_node7"><a xlink:href="classsr__signal_1_1signal__inout.html" target="_top" xlink:title="{sr_signal::signal_inout\l\&lt; TYPE, MODULE \&gt;\n||+ signal_inout()\l+ signal_inout()\l+ ~signal_inout()\l}">
<polygon fill="white" stroke="black" points="11.5,-23 11.5,-113 124.5,-113 124.5,-23 11.5,-23"/>
<text text-anchor="start" x="19.5" y="-101" font-family="Helvetica,sans-Serif" font-size="10.00">sr_signal::signal_inout</text>
<text text-anchor="middle" x="68" y="-90" font-family="Helvetica,sans-Serif" font-size="10.00">&lt; TYPE, MODULE &gt;</text>
<polyline fill="none" stroke="black" points="11.5,-83 124.5,-83 "/>
<text text-anchor="middle" x="68" y="-71" font-family="Helvetica,sans-Serif" font-size="10.00"> </text>
<polyline fill="none" stroke="black" points="11.5,-64 124.5,-64 "/>
<text text-anchor="start" x="19.5" y="-52" font-family="Helvetica,sans-Serif" font-size="10.00">+ signal_inout()</text>
<text text-anchor="start" x="19.5" y="-41" font-family="Helvetica,sans-Serif" font-size="10.00">+ signal_inout()</text>
<text text-anchor="start" x="19.5" y="-30" font-family="Helvetica,sans-Serif" font-size="10.00">+ ~signal_inout()</text>
</a>
</g>
</g>
<!-- Node1&#45;&gt;Node7 -->
<g id="edge6" class="edge"><title>Node1&#45;&gt;Node7</title>
<path fill="none" stroke="midnightblue" d="M105.327,-175.149C97.8831,-153.98 90.0434,-131.686 83.4808,-113.024"/>
<polygon fill="none" stroke="midnightblue" points="102.094,-176.506 108.713,-184.779 108.698,-174.184 102.094,-176.506"/>
</g>
<!-- Node8 -->
<g id="node8" class="node"><title>Node8</title>
<g id="a_node8"><a xlink:href="classsr__signal_1_1signal__out.html" target="_top" xlink:title="{sr_signal::signal_out\l\&lt; bool, Irqmp \&gt;\n|# m_receiver\l|+ signal_out()\l+ ~signal_out()\l+ bind()\l+ write()\l+ operator()()\l+ operator=()\l+ operator=()\l}">
<polygon fill="white" stroke="black" points="143,-1 143,-135 249,-135 249,-1 143,-1"/>
<text text-anchor="start" x="151" y="-123" font-family="Helvetica,sans-Serif" font-size="10.00">sr_signal::signal_out</text>
<text text-anchor="middle" x="196" y="-112" font-family="Helvetica,sans-Serif" font-size="10.00">&lt; bool, Irqmp &gt;</text>
<polyline fill="none" stroke="black" points="143,-105 249,-105 "/>
<text text-anchor="start" x="151" y="-93" font-family="Helvetica,sans-Serif" font-size="10.00"># m_receiver</text>
<polyline fill="none" stroke="black" points="143,-86 249,-86 "/>
<text text-anchor="start" x="151" y="-74" font-family="Helvetica,sans-Serif" font-size="10.00">+ signal_out()</text>
<text text-anchor="start" x="151" y="-63" font-family="Helvetica,sans-Serif" font-size="10.00">+ ~signal_out()</text>
<text text-anchor="start" x="151" y="-52" font-family="Helvetica,sans-Serif" font-size="10.00">+ bind()</text>
<text text-anchor="start" x="151" y="-41" font-family="Helvetica,sans-Serif" font-size="10.00">+ write()</text>
<text text-anchor="start" x="151" y="-30" font-family="Helvetica,sans-Serif" font-size="10.00">+ operator()()</text>
<text text-anchor="start" x="151" y="-19" font-family="Helvetica,sans-Serif" font-size="10.00">+ operator=()</text>
<text text-anchor="start" x="151" y="-8" font-family="Helvetica,sans-Serif" font-size="10.00">+ operator=()</text>
</a>
</g>
</g>
<!-- Node1&#45;&gt;Node8 -->
<g id="edge7" class="edge"><title>Node1&#45;&gt;Node8</title>
<path fill="none" stroke="orange" d="M158.656,-175.198C163.329,-161.908 168.159,-148.174 172.731,-135.172"/>
<polygon fill="orange" stroke="orange" points="155.302,-174.184 155.287,-184.779 161.906,-176.506 155.302,-174.184"/>
<text text-anchor="middle" x="201" y="-157.5" font-family="Helvetica,sans-Serif" font-size="10.00"> &lt; bool, Irqmp &gt;</text>
</g>
<!-- Node2 -->
<g id="node2" class="node"><title>Node2</title>
<g id="a_node2"><a xlink:href="classsr__signal_1_1signal__base.html" target="_top" xlink:title="{sr_signal::signal_base\l\&lt; TYPE, MODULE \&gt;\n||+ signal_base()\l+ ~signal_base()\l# get_module()\l}">
<polygon fill="white" stroke="black" points="-0.5,-364 -0.5,-454 112.5,-454 112.5,-364 -0.5,-364"/>
<text text-anchor="start" x="7.5" y="-442" font-family="Helvetica,sans-Serif" font-size="10.00">sr_signal::signal_base</text>
<text text-anchor="middle" x="56" y="-431" font-family="Helvetica,sans-Serif" font-size="10.00">&lt; TYPE, MODULE &gt;</text>
<polyline fill="none" stroke="black" points="-0.5,-424 112.5,-424 "/>
<text text-anchor="middle" x="56" y="-412" font-family="Helvetica,sans-Serif" font-size="10.00"> </text>
<polyline fill="none" stroke="black" points="-0.5,-405 112.5,-405 "/>
<text text-anchor="start" x="7.5" y="-393" font-family="Helvetica,sans-Serif" font-size="10.00">+ signal_base()</text>
<text text-anchor="start" x="7.5" y="-382" font-family="Helvetica,sans-Serif" font-size="10.00">+ ~signal_base()</text>
<text text-anchor="start" x="7.5" y="-371" font-family="Helvetica,sans-Serif" font-size="10.00"># get_module()</text>
</a>
</g>
</g>
<!-- Node2&#45;&gt;Node1 -->
<g id="edge1" class="edge"><title>Node2&#45;&gt;Node1</title>
<path fill="none" stroke="midnightblue" d="M82.0141,-354.945C87.668,-343.414 93.7163,-331.079 99.5832,-319.113"/>
<polygon fill="none" stroke="midnightblue" points="78.8352,-353.478 77.5753,-363.998 85.1204,-356.56 78.8352,-353.478"/>
</g>
<!-- Node3 -->
<g id="node3" class="node"><title>Node3</title>
<polygon fill="white" stroke="#bfbfbf" points="26.5,-520.5 26.5,-577.5 85.5,-577.5 85.5,-520.5 26.5,-520.5"/>
<text text-anchor="middle" x="56" y="-565.5" font-family="Helvetica,sans-Serif" font-size="10.00">sc_object</text>
<polyline fill="none" stroke="#bfbfbf" points="26.5,-558.5 85.5,-558.5 "/>
<text text-anchor="middle" x="56" y="-546.5" font-family="Helvetica,sans-Serif" font-size="10.00"> </text>
<polyline fill="none" stroke="#bfbfbf" points="26.5,-539.5 85.5,-539.5 "/>
<text text-anchor="middle" x="56" y="-527.5" font-family="Helvetica,sans-Serif" font-size="10.00"> </text>
</g>
<!-- Node3&#45;&gt;Node2 -->
<g id="edge2" class="edge"><title>Node3&#45;&gt;Node2</title>
<path fill="none" stroke="midnightblue" d="M56,-510.098C56,-492.771 56,-472.137 56,-454.117"/>
<polygon fill="none" stroke="midnightblue" points="52.5001,-510.405 56,-520.405 59.5001,-510.405 52.5001,-510.405"/>
</g>
<!-- Node4 -->
<g id="node4" class="node"><title>Node4</title>
<g id="a_node4"><a xlink:href="classsr__signal_1_1signal__out__if.html" target="_top" xlink:title="{sr_signal::signal_out\l_if\&lt; TYPE \&gt;\n||+ ~signal_out_if()\l+ write()\l+ operator=()\l+ operator=()\l}">
<polygon fill="white" stroke="black" points="131,-358.5 131,-459.5 237,-459.5 237,-358.5 131,-358.5"/>
<text text-anchor="start" x="139" y="-447.5" font-family="Helvetica,sans-Serif" font-size="10.00">sr_signal::signal_out</text>
<text text-anchor="middle" x="184" y="-436.5" font-family="Helvetica,sans-Serif" font-size="10.00">_if&lt; TYPE &gt;</text>
<polyline fill="none" stroke="black" points="131,-429.5 237,-429.5 "/>
<text text-anchor="middle" x="184" y="-417.5" font-family="Helvetica,sans-Serif" font-size="10.00"> </text>
<polyline fill="none" stroke="black" points="131,-410.5 237,-410.5 "/>
<text text-anchor="start" x="139" y="-398.5" font-family="Helvetica,sans-Serif" font-size="10.00">+ ~signal_out_if()</text>
<text text-anchor="start" x="139" y="-387.5" font-family="Helvetica,sans-Serif" font-size="10.00">+ write()</text>
<text text-anchor="start" x="139" y="-376.5" font-family="Helvetica,sans-Serif" font-size="10.00">+ operator=()</text>
<text text-anchor="start" x="139" y="-365.5" font-family="Helvetica,sans-Serif" font-size="10.00">+ operator=()</text>
</a>
</g>
</g>
<!-- Node4&#45;&gt;Node1 -->
<g id="edge3" class="edge"><title>Node4&#45;&gt;Node1</title>
<path fill="none" stroke="midnightblue" d="M163.982,-348.331C160.783,-338.796 157.457,-328.88 154.211,-319.205"/>
<polygon fill="none" stroke="midnightblue" points="160.762,-349.736 167.261,-358.104 167.398,-347.51 160.762,-349.736"/>
</g>
<!-- Node5 -->
<g id="node5" class="node"><title>Node5</title>
<g id="a_node5"><a xlink:href="classsr__signal_1_1signal__if.html" target="_top" xlink:title="{sr_signal::signal_if\l\&lt; TYPE \&gt;\n|# m_value\l|+ ~signal_if()\l+ read()\l+ operator TYPE()\l+ operator==()\l}">
<polygon fill="white" stroke="black" points="119,-498.5 119,-599.5 217,-599.5 217,-498.5 119,-498.5"/>
<text text-anchor="start" x="127" y="-587.5" font-family="Helvetica,sans-Serif" font-size="10.00">sr_signal::signal_if</text>
<text text-anchor="middle" x="168" y="-576.5" font-family="Helvetica,sans-Serif" font-size="10.00">&lt; TYPE &gt;</text>
<polyline fill="none" stroke="black" points="119,-569.5 217,-569.5 "/>
<text text-anchor="start" x="127" y="-557.5" font-family="Helvetica,sans-Serif" font-size="10.00"># m_value</text>
<polyline fill="none" stroke="black" points="119,-550.5 217,-550.5 "/>
<text text-anchor="start" x="127" y="-538.5" font-family="Helvetica,sans-Serif" font-size="10.00">+ ~signal_if()</text>
<text text-anchor="start" x="127" y="-527.5" font-family="Helvetica,sans-Serif" font-size="10.00">+ read()</text>
<text text-anchor="start" x="127" y="-516.5" font-family="Helvetica,sans-Serif" font-size="10.00">+ operator TYPE()</text>
<text text-anchor="start" x="127" y="-505.5" font-family="Helvetica,sans-Serif" font-size="10.00">+ operator==()</text>
</a>
</g>
</g>
<!-- Node5&#45;&gt;Node4 -->
<g id="edge4" class="edge"><title>Node5&#45;&gt;Node4</title>
<path fill="none" stroke="midnightblue" d="M174.95,-488.053C176.046,-478.607 177.168,-468.93 178.232,-459.748"/>
<polygon fill="none" stroke="midnightblue" points="171.451,-487.842 173.776,-498.179 178.405,-488.649 171.451,-487.842"/>
</g>
<!-- Node6 -->
<g id="node6" class="node"><title>Node6</title>
<g id="a_node6"><a xlink:href="classsr__signal_1_1signal__out__bind__if.html" target="_top" xlink:title="{sr_signal::signal_out\l_bind_if\&lt; TYPE \&gt;\n||+ ~signal_out_bind_if()\l+ bind()\l}">
<polygon fill="white" stroke="black" points="235,-509.5 235,-588.5 351,-588.5 351,-509.5 235,-509.5"/>
<text text-anchor="start" x="243" y="-576.5" font-family="Helvetica,sans-Serif" font-size="10.00">sr_signal::signal_out</text>
<text text-anchor="middle" x="293" y="-565.5" font-family="Helvetica,sans-Serif" font-size="10.00">_bind_if&lt; TYPE &gt;</text>
<polyline fill="none" stroke="black" points="235,-558.5 351,-558.5 "/>
<text text-anchor="middle" x="293" y="-546.5" font-family="Helvetica,sans-Serif" font-size="10.00"> </text>
<polyline fill="none" stroke="black" points="235,-539.5 351,-539.5 "/>
<text text-anchor="start" x="243" y="-527.5" font-family="Helvetica,sans-Serif" font-size="10.00">+ ~signal_out_bind_if()</text>
<text text-anchor="start" x="243" y="-516.5" font-family="Helvetica,sans-Serif" font-size="10.00">+ bind()</text>
</a>
</g>
</g>
<!-- Node6&#45;&gt;Node4 -->
<g id="edge5" class="edge"><title>Node6&#45;&gt;Node4</title>
<path fill="none" stroke="midnightblue" d="M255.923,-501.058C245.376,-487.706 233.857,-473.122 223.19,-459.616"/>
<polygon fill="none" stroke="midnightblue" points="253.402,-503.514 262.347,-509.192 258.896,-499.175 253.402,-503.514"/>
</g>
</g>
</svg>
        <g id="navigator" transform="translate(0 0)" fill="#404254">
                <rect fill="#f2f5e9" fill-opacity="0.5" stroke="#606060" stroke-width=".5" x="0" y="0" width="60" height="60"/>
                <use id="zoomplus" xlink:href="#zoomPlus" x="17" y="9" onmousedown="handleZoom(evt,'in')"/>
                <use id="zoomminus" xlink:href="#zoomMin" x="42" y="9" onmousedown="handleZoom(evt,'out')"/>
                <use id="reset" xlink:href="#resetDef" x="30" y="36" onmousedown="handleReset()"/>
                <g id="arrowUp" xlink:href="#dirArrow" transform="translate(30 24)" onmousedown="handlePan(0,-1)">
                  <use xlink:href="#rim" fill="#404040">
                        <set attributeName="fill" to="#808080" begin="arrowUp.mouseover" end="arrowUp.mouseout"/>
                  </use>
                  <path fill="none" stroke="white" stroke-width="1.5" d="M0,-3.0v7 M-2.5,-0.5L0,-3.0L2.5,-0.5"/>
                </g>
                <g id="arrowRight" xlink:href="#dirArrow" transform="rotate(90) translate(36 -43)" onmousedown="handlePan(1,0)">
                  <use xlink:href="#rim" fill="#404040">
                        <set attributeName="fill" to="#808080" begin="arrowRight.mouseover" end="arrowRight.mouseout"/>
                  </use>
                  <path fill="none" stroke="white" stroke-width="1.5" d="M0,-3.0v7 M-2.5,-0.5L0,-3.0L2.5,-0.5"/>
                </g>
                <g id="arrowDown" xlink:href="#dirArrow" transform="rotate(180) translate(-30 -48)" onmousedown="handlePan(0,1)">
                  <use xlink:href="#rim" fill="#404040">
                        <set attributeName="fill" to="#808080" begin="arrowDown.mouseover" end="arrowDown.mouseout"/>
                  </use>
                  <path fill="none" stroke="white" stroke-width="1.5" d="M0,-3.0v7 M-2.5,-0.5L0,-3.0L2.5,-0.5"/>
                </g>
                <g id="arrowLeft" xlink:href="#dirArrow" transform="rotate(270) translate(-36 17)" onmousedown="handlePan(-1,0)">
                  <use xlink:href="#rim" fill="#404040">
                        <set attributeName="fill" to="#808080" begin="arrowLeft.mouseover" end="arrowLeft.mouseout"/>
                  </use>
                  <path fill="none" stroke="white" stroke-width="1.5" d="M0,-3.0v7 M-2.5,-0.5L0,-3.0L2.5,-0.5"/>
                </g>
        </g>
        <svg viewBox="0 0 15 15" width="100%" height="30px" preserveAspectRatio="xMaxYMin meet">
         <g id="arrow_out" transform="scale(0.3 0.3)">
          <a xlink:href="classsr__signal_1_1signal__out__inherit__graph_org.svg" target="_base">
           <rect id="button" ry="5" rx="5" y="6" x="6" height="38" width="38"
                fill="#f2f5e9" fill-opacity="0.5" stroke="#606060" stroke-width="1.0"/>
           <path id="arrow"
             d="M 11.500037,31.436501 C 11.940474,20.09759 22.043105,11.32322 32.158766,21.979434 L 37.068811,17.246167 C 37.068811,17.246167 37.088388,32 37.088388,32 L 22.160133,31.978069 C 22.160133,31.978069 26.997745,27.140456 26.997745,27.140456 C 18.528582,18.264221 13.291696,25.230495 11.500037,31.436501 z"
             style="fill:#404040;"/>
          </a>
         </g>
        </svg>
</svg>
