<?xml version="1.0" encoding="UTF-8" standalone="no"?>
<!DOCTYPE svg PUBLIC "-//W3C//DTD SVG 1.1//EN"
 "http://www.w3.org/Graphics/SVG/1.1/DTD/svg11.dtd">
<!-- Generated by graphviz version 2.38.0 (20140413.2041)
 -->
<!-- Title: leon3_funclt_trap::Processor_leon3_funclt::mainLoop Pages: 1 -->
<svg width="263pt" height="50pt"
 viewBox="0.00 0.00 263.00 50.00" xmlns="http://www.w3.org/2000/svg" xmlns:xlink="http://www.w3.org/1999/xlink">
<g id="graph0" class="graph" transform="scale(1 1) rotate(0) translate(4 46)">
<title>leon3_funclt_trap::Processor_leon3_funclt::mainLoop</title>
<polygon fill="white" stroke="none" points="-4,4 -4,-46 259,-46 259,4 -4,4"/>
<!-- Node1 -->
<g id="node1" class="node"><title>Node1</title>
<polygon fill="#bfbfbf" stroke="black" points="0,-0.5 0,-41.5 119,-41.5 119,-0.5 0,-0.5"/>
<text text-anchor="start" x="8" y="-29.5" font-family="Helvetica,sans-Serif" font-size="10.00">leon3_funclt_trap::</text>
<text text-anchor="start" x="8" y="-18.5" font-family="Helvetica,sans-Serif" font-size="10.00">Processor_leon3_funclt</text>
<text text-anchor="middle" x="59.5" y="-7.5" font-family="Helvetica,sans-Serif" font-size="10.00">::mainLoop</text>
</g>
<!-- Node2 -->
<g id="node2" class="node"><title>Node2</title>
<g id="a_node2"><a xlink:href="namespacepysc_1_1api_1_1systemc.html#a0f19169551bf6f5170fb3be515ce4365" target="_top" xlink:title="pysc::api::systemc\l::wait">
<polygon fill="white" stroke="black" points="155,-6 155,-36 255,-36 255,-6 155,-6"/>
<text text-anchor="start" x="163" y="-24" font-family="Helvetica,sans-Serif" font-size="10.00">pysc::api::systemc</text>
<text text-anchor="middle" x="205" y="-13" font-family="Helvetica,sans-Serif" font-size="10.00">::wait</text>
</a>
</g>
</g>
<!-- Node1&#45;&gt;Node2 -->
<g id="edge1" class="edge"><title>Node1&#45;&gt;Node2</title>
<path fill="none" stroke="midnightblue" d="M119.281,-21C127.645,-21 136.253,-21 144.628,-21"/>
<polygon fill="midnightblue" stroke="midnightblue" points="144.697,-24.5001 154.697,-21 144.697,-17.5001 144.697,-24.5001"/>
</g>
</g>
</svg>
