<?xml version="1.0" encoding="UTF-8" standalone="no"?>
<!DOCTYPE svg PUBLIC "-//W3C//DTD SVG 1.1//EN"
 "http://www.w3.org/Graphics/SVG/1.1/DTD/svg11.dtd">
<!-- Generated by graphviz version 2.38.0 (20140413.2041)
 -->
<!-- Title: leon3_funcat_trap::Reg32_3_const_0::InnerField_Empty Pages: 1 -->
<svg width="161pt" height="244pt"
 viewBox="0.00 0.00 160.76 244.00" xmlns="http://www.w3.org/2000/svg" xmlns:xlink="http://www.w3.org/1999/xlink">
<g id="graph0" class="graph" transform="scale(1 1) rotate(0) translate(4 240)">
<title>leon3_funcat_trap::Reg32_3_const_0::InnerField_Empty</title>
<polygon fill="white" stroke="none" points="-4,4 -4,-240 156.763,-240 156.763,4 -4,4"/>
<!-- Node1 -->
<g id="node1" class="node"><title>Node1</title>
<polygon fill="#bfbfbf" stroke="black" points="0,-0.5 0,-104.5 152.763,-104.5 152.763,-0.5 0,-0.5"/>
<text text-anchor="start" x="8" y="-92.5" font-family="Helvetica,sans-Serif" font-size="10.00">leon3_funcat_trap::</text>
<text text-anchor="start" x="8" y="-82.5" font-family="Helvetica,sans-Serif" font-size="10.00">Reg32_3_const_0::InnerField_</text>
<text text-anchor="middle" x="76.3813" y="-72.5" font-family="Helvetica,sans-Serif" font-size="10.00">Empty</text>
<polyline fill="none" stroke="black" points="0,-66.5 152.763,-66.5 "/>
<text text-anchor="middle" x="76.3813" y="-54.5" font-family="Helvetica,sans-Serif" font-size="10.00"> </text>
<polyline fill="none" stroke="black" points="0,-48.5 152.763,-48.5 "/>
<text text-anchor="start" x="8" y="-36.5" font-family="Helvetica,sans-Serif" font-size="10.00">+ InnerField_Empty()</text>
<text text-anchor="start" x="8" y="-26.5" font-family="Helvetica,sans-Serif" font-size="10.00">+ operator=()</text>
<text text-anchor="start" x="8" y="-16.5" font-family="Helvetica,sans-Serif" font-size="10.00">+ operator unsigned int()</text>
<text text-anchor="start" x="8" y="-6.5" font-family="Helvetica,sans-Serif" font-size="10.00">+ ~InnerField_Empty()</text>
</g>
<!-- Node2 -->
<g id="node2" class="node"><title>Node2</title>
<g id="a_node2"><a xlink:href="classleon3__funcat__trap_1_1InnerField.html" target="_top" xlink:title="{leon3_funcat_trap::\lInnerField\n||+ operator=()\l+ operator=()\l+ operator unsigned int()\l+ ~InnerField()\l}">
<polygon fill="white" stroke="black" points="13.7646,-141.5 13.7646,-235.5 138.998,-235.5 138.998,-141.5 13.7646,-141.5"/>
<text text-anchor="start" x="21.7646" y="-223.5" font-family="Helvetica,sans-Serif" font-size="10.00">leon3_funcat_trap::</text>
<text text-anchor="middle" x="76.3813" y="-213.5" font-family="Helvetica,sans-Serif" font-size="10.00">InnerField</text>
<polyline fill="none" stroke="black" points="13.7646,-207.5 138.998,-207.5 "/>
<text text-anchor="middle" x="76.3813" y="-195.5" font-family="Helvetica,sans-Serif" font-size="10.00"> </text>
<polyline fill="none" stroke="black" points="13.7646,-189.5 138.998,-189.5 "/>
<text text-anchor="start" x="21.7646" y="-177.5" font-family="Helvetica,sans-Serif" font-size="10.00">+ operator=()</text>
<text text-anchor="start" x="21.7646" y="-167.5" font-family="Helvetica,sans-Serif" font-size="10.00">+ operator=()</text>
<text text-anchor="start" x="21.7646" y="-157.5" font-family="Helvetica,sans-Serif" font-size="10.00">+ operator unsigned int()</text>
<text text-anchor="start" x="21.7646" y="-147.5" font-family="Helvetica,sans-Serif" font-size="10.00">+ ~InnerField()</text>
</a>
</g>
</g>
<!-- Node2&#45;&gt;Node1 -->
<g id="edge1" class="edge"><title>Node2&#45;&gt;Node1</title>
<path fill="none" stroke="midnightblue" d="M76.3813,-131.229C76.3813,-122.447 76.3813,-113.413 76.3813,-104.751"/>
<polygon fill="none" stroke="midnightblue" points="72.8814,-131.385 76.3813,-141.385 79.8814,-131.385 72.8814,-131.385"/>
</g>
</g>
</svg>
