<?xml version="1.0" encoding="UTF-8" standalone="no"?>
<!DOCTYPE svg PUBLIC "-//W3C//DTD SVG 1.1//EN"
 "http://www.w3.org/Graphics/SVG/1.1/DTD/svg11.dtd">
<!-- Generated by graphviz version 2.26.0 (20091210.2329)
 -->
<!-- Title: core.waf.cpplint.CPPLint Pages: 1 -->
<svg width="166pt" height="198pt"
 viewBox="0.00 0.00 166.00 198.00" xmlns="http://www.w3.org/2000/svg" xmlns:xlink="http://www.w3.org/1999/xlink">
<g id="graph1" class="graph" transform="scale(1 1) rotate(0) translate(4 194)">
<title>core.waf.cpplint.CPPLint</title>
<polygon fill="white" stroke="white" points="-4,5 -4,-194 163,-194 163,5 -4,5"/>
<!-- Node1 -->
<g id="node1" class="node"><title>Node1</title>
<polygon fill="#bfbfbf" stroke="black" points="31.5,-0.5 31.5,-63.5 156.5,-63.5 156.5,-0.5 31.5,-0.5"/>
<text text-anchor="middle" x="94" y="-50.5" font-family="Helvetica,sans-Serif" font-size="10.00">core.waf.cpplint.CPPLint</text>
<polyline fill="none" stroke="black" points="31.5,-42.5 156.5,-42.5 "/>
<text text-anchor="middle" x="94" y="-29.5" font-family="Helvetica,sans-Serif" font-size="10.00"> </text>
<polyline fill="none" stroke="black" points="31.5,-21.5 156.5,-21.5 "/>
<text text-anchor="middle" x="94" y="-8.5" font-family="Helvetica,sans-Serif" font-size="10.00"> </text>
</g>
<!-- Node2 -->
<g id="node2" class="node"><title>Node2</title>
<polygon fill="white" stroke="#bfbfbf" points="-0.5,-126.5 -0.5,-189.5 100.5,-189.5 100.5,-126.5 -0.5,-126.5"/>
<text text-anchor="middle" x="50" y="-176.5" font-family="Helvetica,sans-Serif" font-size="10.00">Build::BuildContext</text>
<polyline fill="none" stroke="#bfbfbf" points="-0.5,-168.5 100.5,-168.5 "/>
<text text-anchor="middle" x="50" y="-155.5" font-family="Helvetica,sans-Serif" font-size="10.00"> </text>
<polyline fill="none" stroke="#bfbfbf" points="-0.5,-147.5 100.5,-147.5 "/>
<text text-anchor="middle" x="50" y="-134.5" font-family="Helvetica,sans-Serif" font-size="10.00"> </text>
</g>
<!-- Node2&#45;&gt;Node1 -->
<g id="edge2" class="edge"><title>Node2&#45;&gt;Node1</title>
<path fill="none" stroke="midnightblue" d="M64.5146,-116.436C70.5002,-99.2948 77.3253,-79.7504 82.9005,-63.7849"/>
<polygon fill="none" stroke="midnightblue" points="61.0956,-115.61 61.1031,-126.205 67.7043,-117.918 61.0956,-115.61"/>
</g>
<!-- Node3 -->
<g id="node4" class="node"><title>Node3</title>
<polygon fill="white" stroke="#bfbfbf" points="117.5,-126.5 117.5,-189.5 158.5,-189.5 158.5,-126.5 117.5,-126.5"/>
<text text-anchor="middle" x="138" y="-176.5" font-family="Helvetica,sans-Serif" font-size="10.00">string</text>
<polyline fill="none" stroke="#bfbfbf" points="117.5,-168.5 158.5,-168.5 "/>
<text text-anchor="middle" x="138" y="-155.5" font-family="Helvetica,sans-Serif" font-size="10.00"> </text>
<polyline fill="none" stroke="#bfbfbf" points="117.5,-147.5 158.5,-147.5 "/>
<text text-anchor="middle" x="138" y="-134.5" font-family="Helvetica,sans-Serif" font-size="10.00"> </text>
</g>
<!-- Node3&#45;&gt;Node1 -->
<g id="edge4" class="edge"><title>Node3&#45;&gt;Node1</title>
<path fill="none" stroke="#404040" d="M126.897,-126.205C121.53,-110.835 115.005,-92.1496 109.185,-75.4855"/>
<polygon fill="none" stroke="#404040" points="109.056,-75.1141 103.301,-70.7683 105.1,-63.7849 110.854,-68.1307 109.056,-75.1141"/>
<text text-anchor="middle" x="131.5" y="-99" font-family="Helvetica,sans-Serif" font-size="10.00"> +fun</text>
<text text-anchor="middle" x="131.5" y="-86" font-family="Helvetica,sans-Serif" font-size="10.00">+cmd</text>
</g>
</g>
</svg>
