<?xml version="1.0" encoding="UTF-8" standalone="no"?>
<!DOCTYPE svg PUBLIC "-//W3C//DTD SVG 1.1//EN"
 "http://www.w3.org/Graphics/SVG/1.1/DTD/svg11.dtd">
<!-- Generated by graphviz version 2.38.0 (20140413.2041)
 -->
<!-- Title: PlatformIntrinsic&lt; wordSize &gt; Pages: 1 -->
<!--zoomable 794 -->
<svg id="main" version="1.1" xmlns="http://www.w3.org/2000/svg" xmlns:xlink="http://www.w3.org/1999/xlink" xml:space="preserve" onload="init(evt)">
<style type="text/css"><![CDATA[
.edge:hover path { stroke: red; }
.edge:hover polygon { stroke: red; fill: red; }
]]></style>
<script type="text/javascript"><![CDATA[
var edges = document.getElementsByTagName('g');
if (edges && edges.length) {
  for (var i=0;i<edges.length;i++) {
    if (edges[i].id.substr(0,4)=='edge') {
      edges[i].setAttribute('class','edge');
    }
  }
}
]]></script>
        <defs>
                <circle id="rim" cx="0" cy="0" r="7"/>
                <circle id="rim2" cx="0" cy="0" r="3.5"/>
                <g id="zoomPlus">
                        <use xlink:href="#rim" fill="#404040">
                                <set attributeName="fill" to="#808080" begin="zoomplus.mouseover" end="zoomplus.mouseout"/>
                        </use>
                        <path d="M-4,0h8M0,-4v8" fill="none" stroke="white" stroke-width="1.5" pointer-events="none"/>
                </g>
                <g id="zoomMin">
                        <use xlink:href="#rim" fill="#404040">
                                <set attributeName="fill" to="#808080" begin="zoomminus.mouseover" end="zoomminus.mouseout"/>
                        </use>
                        <path d="M-4,0h8" fill="none" stroke="white" stroke-width="1.5" pointer-events="none"/>
                </g>
                <g id="dirArrow">
                        <path fill="none" stroke="white" stroke-width="1.5" d="M0,-3.0v7 M-2.5,-0.5L0,-3.0L2.5,-0.5"/>
                </g>
               <g id="resetDef">
                       <use xlink:href="#rim2" fill="#404040">
                               <set attributeName="fill" to="#808080" begin="reset.mouseover" end="reset.mouseout"/>
                       </use>
               </g>
        </defs>

<script type="text/javascript">
var viewWidth = 904;
var viewHeight = 794;
var sectionId = 'dynsection-1';
</script>
<script xlink:href="svgpan.js"/>
<svg id="graph" class="graph">
<g id="viewport">
<title>PlatformIntrinsic&lt; wordSize &gt;</title>
<polygon fill="white" stroke="none" points="-4,4 -4,-790 899.5,-790 899.5,4 -4,4"/>
<!-- Node1 -->
<g id="node1" class="node"><title>Node1</title>
<polygon fill="#bfbfbf" stroke="black" points="138,-0.5 138,-123.5 247,-123.5 247,-0.5 138,-0.5"/>
<text text-anchor="start" x="146" y="-111.5" font-family="Helvetica,sans-Serif" font-size="10.00">PlatformIntrinsic&lt;</text>
<text text-anchor="middle" x="192.5" y="-100.5" font-family="Helvetica,sans-Serif" font-size="10.00"> wordSize &gt;</text>
<polyline fill="none" stroke="black" points="138,-93.5 247,-93.5 "/>
<text text-anchor="middle" x="192.5" y="-81.5" font-family="Helvetica,sans-Serif" font-size="10.00"> </text>
<polyline fill="none" stroke="black" points="138,-74.5 247,-74.5 "/>
<text text-anchor="start" x="146" y="-62.5" font-family="Helvetica,sans-Serif" font-size="10.00">+ PlatformIntrinsic()</text>
<text text-anchor="start" x="146" y="-51.5" font-family="Helvetica,sans-Serif" font-size="10.00">+ ~PlatformIntrinsic()</text>
<text text-anchor="start" x="146" y="-40.5" font-family="Helvetica,sans-Serif" font-size="10.00">+ setProcessor()</text>
<text text-anchor="start" x="146" y="-29.5" font-family="Helvetica,sans-Serif" font-size="10.00">+ setManager()</text>
<text text-anchor="start" x="146" y="-18.5" font-family="Helvetica,sans-Serif" font-size="10.00">+ operator()()</text>
<text text-anchor="start" x="146" y="-7.5" font-family="Helvetica,sans-Serif" font-size="10.00">+ setLatency()</text>
</g>
<!-- Node2 -->
<g id="node2" class="node"><title>Node2</title>
<polygon fill="white" stroke="#bfbfbf" points="0,-226.5 0,-283.5 59,-283.5 59,-226.5 0,-226.5"/>
<text text-anchor="middle" x="29.5" y="-271.5" font-family="Helvetica,sans-Serif" font-size="10.00">sc_object</text>
<polyline fill="none" stroke="#bfbfbf" points="0,-264.5 59,-264.5 "/>
<text text-anchor="middle" x="29.5" y="-252.5" font-family="Helvetica,sans-Serif" font-size="10.00"> </text>
<polyline fill="none" stroke="#bfbfbf" points="0,-245.5 59,-245.5 "/>
<text text-anchor="middle" x="29.5" y="-233.5" font-family="Helvetica,sans-Serif" font-size="10.00"> </text>
</g>
<!-- Node2&#45;&gt;Node1 -->
<g id="edge1" class="edge"><title>Node2&#45;&gt;Node1</title>
<path fill="none" stroke="midnightblue" d="M43.0934,-216.729C49.5336,-201.727 58.1113,-184.758 68.5,-171 87.9397,-145.255 114.378,-121.196 137.849,-102.35"/>
<polygon fill="none" stroke="midnightblue" points="39.7442,-215.67 39.1724,-226.25 46.2168,-218.336 39.7442,-215.67"/>
</g>
<!-- Node3 -->
<g id="node3" class="node"><title>Node3</title>
<g id="a_node3"><a xlink:href="classtrap_1_1ABIIf.html" target="_top" xlink:title="{trap::ABIIf\&lt; wordSize \&gt;\n||+ matchEndian()\l+ preCall()\l+ postCall()\l+ returnFromCall()\l+ getProcessorID()\l+ isInstrExecuting()\l+ waitInstrEnd()\l+ isLittleEndian()\l+ readLR()\l+ setLR()\land 25 more...\l}">
<polygon fill="white" stroke="black" points="77.5,-171.5 77.5,-338.5 197.5,-338.5 197.5,-171.5 77.5,-171.5"/>
<text text-anchor="middle" x="137.5" y="-326.5" font-family="Helvetica,sans-Serif" font-size="10.00">trap::ABIIf&lt; wordSize &gt;</text>
<polyline fill="none" stroke="black" points="77.5,-319.5 197.5,-319.5 "/>
<text text-anchor="middle" x="137.5" y="-307.5" font-family="Helvetica,sans-Serif" font-size="10.00"> </text>
<polyline fill="none" stroke="black" points="77.5,-300.5 197.5,-300.5 "/>
<text text-anchor="start" x="85.5" y="-288.5" font-family="Helvetica,sans-Serif" font-size="10.00">+ matchEndian()</text>
<text text-anchor="start" x="85.5" y="-277.5" font-family="Helvetica,sans-Serif" font-size="10.00">+ preCall()</text>
<text text-anchor="start" x="85.5" y="-266.5" font-family="Helvetica,sans-Serif" font-size="10.00">+ postCall()</text>
<text text-anchor="start" x="85.5" y="-255.5" font-family="Helvetica,sans-Serif" font-size="10.00">+ returnFromCall()</text>
<text text-anchor="start" x="85.5" y="-244.5" font-family="Helvetica,sans-Serif" font-size="10.00">+ getProcessorID()</text>
<text text-anchor="start" x="85.5" y="-233.5" font-family="Helvetica,sans-Serif" font-size="10.00">+ isInstrExecuting()</text>
<text text-anchor="start" x="85.5" y="-222.5" font-family="Helvetica,sans-Serif" font-size="10.00">+ waitInstrEnd()</text>
<text text-anchor="start" x="85.5" y="-211.5" font-family="Helvetica,sans-Serif" font-size="10.00">+ isLittleEndian()</text>
<text text-anchor="start" x="85.5" y="-200.5" font-family="Helvetica,sans-Serif" font-size="10.00">+ readLR()</text>
<text text-anchor="start" x="85.5" y="-189.5" font-family="Helvetica,sans-Serif" font-size="10.00">+ setLR()</text>
<text text-anchor="start" x="85.5" y="-178.5" font-family="Helvetica,sans-Serif" font-size="10.00">and 25 more...</text>
</a>
</g>
</g>
<!-- Node3&#45;&gt;Node1 -->
<g id="edge2" class="edge"><title>Node3&#45;&gt;Node1</title>
<path fill="none" stroke="#404040" d="M138.135,-171.203C139.537,-161.23 141.582,-151.294 144.5,-142 145.251,-139.608 146.089,-137.213 147.001,-134.825"/>
<polygon fill="none" stroke="#404040" points="147.027,-134.765 145.715,-127.674 151.756,-123.736 153.068,-130.827 147.027,-134.765"/>
<text text-anchor="middle" x="177.5" y="-145" font-family="Helvetica,sans-Serif" font-size="10.00"> +m_processor</text>
</g>
<!-- Node4 -->
<g id="node4" class="node"><title>Node4</title>
<g id="a_node4"><a xlink:href="classtrap_1_1ABIIf.html" target="_top" xlink:title="{trap::ABIIf\&lt; regWidth \&gt;\n||+ matchEndian()\l+ preCall()\l+ postCall()\l+ returnFromCall()\l+ getProcessorID()\l+ isInstrExecuting()\l+ waitInstrEnd()\l+ isLittleEndian()\l+ readLR()\l+ setLR()\land 25 more...\l}">
<polygon fill="white" stroke="black" points="23,-386.5 23,-553.5 142,-553.5 142,-386.5 23,-386.5"/>
<text text-anchor="middle" x="82.5" y="-541.5" font-family="Helvetica,sans-Serif" font-size="10.00">trap::ABIIf&lt; regWidth &gt;</text>
<polyline fill="none" stroke="black" points="23,-534.5 142,-534.5 "/>
<text text-anchor="middle" x="82.5" y="-522.5" font-family="Helvetica,sans-Serif" font-size="10.00"> </text>
<polyline fill="none" stroke="black" points="23,-515.5 142,-515.5 "/>
<text text-anchor="start" x="31" y="-503.5" font-family="Helvetica,sans-Serif" font-size="10.00">+ matchEndian()</text>
<text text-anchor="start" x="31" y="-492.5" font-family="Helvetica,sans-Serif" font-size="10.00">+ preCall()</text>
<text text-anchor="start" x="31" y="-481.5" font-family="Helvetica,sans-Serif" font-size="10.00">+ postCall()</text>
<text text-anchor="start" x="31" y="-470.5" font-family="Helvetica,sans-Serif" font-size="10.00">+ returnFromCall()</text>
<text text-anchor="start" x="31" y="-459.5" font-family="Helvetica,sans-Serif" font-size="10.00">+ getProcessorID()</text>
<text text-anchor="start" x="31" y="-448.5" font-family="Helvetica,sans-Serif" font-size="10.00">+ isInstrExecuting()</text>
<text text-anchor="start" x="31" y="-437.5" font-family="Helvetica,sans-Serif" font-size="10.00">+ waitInstrEnd()</text>
<text text-anchor="start" x="31" y="-426.5" font-family="Helvetica,sans-Serif" font-size="10.00">+ isLittleEndian()</text>
<text text-anchor="start" x="31" y="-415.5" font-family="Helvetica,sans-Serif" font-size="10.00">+ readLR()</text>
<text text-anchor="start" x="31" y="-404.5" font-family="Helvetica,sans-Serif" font-size="10.00">+ setLR()</text>
<text text-anchor="start" x="31" y="-393.5" font-family="Helvetica,sans-Serif" font-size="10.00">and 25 more...</text>
</a>
</g>
</g>
<!-- Node4&#45;&gt;Node3 -->
<g id="edge3" class="edge"><title>Node4&#45;&gt;Node3</title>
<path fill="none" stroke="orange" d="M97.8096,-376.616C99.2773,-369.952 100.842,-363.356 102.5,-357 104.069,-350.984 105.827,-344.814 107.697,-338.631"/>
<polygon fill="orange" stroke="orange" points="94.3834,-375.901 95.729,-386.41 101.231,-377.356 94.3834,-375.901"/>
<text text-anchor="middle" x="133.5" y="-360" font-family="Helvetica,sans-Serif" font-size="10.00"> &lt; wordSize &gt;</text>
</g>
<!-- Node5 -->
<g id="node5" class="node"><title>Node5</title>
<polygon fill="white" stroke="#bfbfbf" points="215,-226.5 215,-283.5 266,-283.5 266,-226.5 215,-226.5"/>
<text text-anchor="middle" x="240.5" y="-271.5" font-family="Helvetica,sans-Serif" font-size="10.00">sc_time</text>
<polyline fill="none" stroke="#bfbfbf" points="215,-264.5 266,-264.5 "/>
<text text-anchor="middle" x="240.5" y="-252.5" font-family="Helvetica,sans-Serif" font-size="10.00"> </text>
<polyline fill="none" stroke="#bfbfbf" points="215,-245.5 266,-245.5 "/>
<text text-anchor="middle" x="240.5" y="-233.5" font-family="Helvetica,sans-Serif" font-size="10.00"> </text>
</g>
<!-- Node5&#45;&gt;Node1 -->
<g id="edge4" class="edge"><title>Node5&#45;&gt;Node1</title>
<path fill="none" stroke="#404040" d="M234.422,-226.302C229.353,-203.587 221.805,-170.626 214.5,-142 213.956,-139.868 213.398,-137.706 212.828,-135.525"/>
<polygon fill="none" stroke="#404040" points="212.78,-135.341 207.375,-130.568 209.703,-123.743 215.107,-128.516 212.78,-135.341"/>
<text text-anchor="middle" x="238" y="-145" font-family="Helvetica,sans-Serif" font-size="10.00"> +latency</text>
</g>
<!-- Node6 -->
<g id="node6" class="node"><title>Node6</title>
<g id="a_node6"><a xlink:href="classIntrinsicBase.html" target="_top" xlink:title="{IntrinsicBase\n||+ set_program_args()\l+ correct_flags()\l+ set_environ()\l+ set_sysconf()\l+ reset()\l}">
<polygon fill="white" stroke="black" points="358.5,-204.5 358.5,-305.5 468.5,-305.5 468.5,-204.5 358.5,-204.5"/>
<text text-anchor="middle" x="413.5" y="-293.5" font-family="Helvetica,sans-Serif" font-size="10.00">IntrinsicBase</text>
<polyline fill="none" stroke="black" points="358.5,-286.5 468.5,-286.5 "/>
<text text-anchor="middle" x="413.5" y="-274.5" font-family="Helvetica,sans-Serif" font-size="10.00"> </text>
<polyline fill="none" stroke="black" points="358.5,-267.5 468.5,-267.5 "/>
<text text-anchor="start" x="366.5" y="-255.5" font-family="Helvetica,sans-Serif" font-size="10.00">+ set_program_args()</text>
<text text-anchor="start" x="366.5" y="-244.5" font-family="Helvetica,sans-Serif" font-size="10.00">+ correct_flags()</text>
<text text-anchor="start" x="366.5" y="-233.5" font-family="Helvetica,sans-Serif" font-size="10.00">+ set_environ()</text>
<text text-anchor="start" x="366.5" y="-222.5" font-family="Helvetica,sans-Serif" font-size="10.00">+ set_sysconf()</text>
<text text-anchor="start" x="366.5" y="-211.5" font-family="Helvetica,sans-Serif" font-size="10.00">+ reset()</text>
</a>
</g>
</g>
<!-- Node6&#45;&gt;Node1 -->
<g id="edge5" class="edge"><title>Node6&#45;&gt;Node1</title>
<path fill="none" stroke="#404040" d="M358.302,-206.295C327.466,-179.645 288.889,-146.304 256.706,-118.491"/>
<polygon fill="none" stroke="#404040" points="256.456,-118.274 249.301,-117.377 247.377,-110.427 254.532,-111.324 256.456,-118.274"/>
<text text-anchor="middle" x="327" y="-145" font-family="Helvetica,sans-Serif" font-size="10.00"> +m_manager</text>
</g>
<!-- Node7 -->
<g id="node7" class="node"><title>Node7</title>
<polygon fill="white" stroke="#bfbfbf" points="716.5,-436 716.5,-504 826.5,-504 826.5,-436 716.5,-436"/>
<text text-anchor="start" x="724.5" y="-492" font-family="Helvetica,sans-Serif" font-size="10.00">std::map&lt; std::string,</text>
<text text-anchor="middle" x="771.5" y="-481" font-family="Helvetica,sans-Serif" font-size="10.00"> int &gt;</text>
<polyline fill="none" stroke="#bfbfbf" points="716.5,-474 826.5,-474 "/>
<text text-anchor="middle" x="771.5" y="-462" font-family="Helvetica,sans-Serif" font-size="10.00"> </text>
<polyline fill="none" stroke="#bfbfbf" points="716.5,-455 826.5,-455 "/>
<text text-anchor="middle" x="771.5" y="-443" font-family="Helvetica,sans-Serif" font-size="10.00"> </text>
</g>
<!-- Node7&#45;&gt;Node6 -->
<g id="edge6" class="edge"><title>Node7&#45;&gt;Node6</title>
<path fill="none" stroke="#404040" d="M734.283,-435.897C715.305,-419.839 691.436,-400.859 668.5,-386 607.305,-346.354 532.486,-309.447 479.765,-285.165"/>
<polygon fill="none" stroke="#404040" points="479.444,-285.018 472.323,-286.16 468.53,-280.027 475.651,-278.885 479.444,-285.018"/>
<text text-anchor="middle" x="667" y="-360" font-family="Helvetica,sans-Serif" font-size="10.00"> +sysconfmap</text>
</g>
<!-- Node8 -->
<g id="node8" class="node"><title>Node8</title>
<g id="a_node8"><a xlink:href="classint.html" target="_top" xlink:title="{int\n||}">
<polygon fill="white" stroke="black" points="856,-612.5 856,-669.5 885,-669.5 885,-612.5 856,-612.5"/>
<text text-anchor="middle" x="870.5" y="-657.5" font-family="Helvetica,sans-Serif" font-size="10.00">int</text>
<polyline fill="none" stroke="black" points="856,-650.5 885,-650.5 "/>
<text text-anchor="middle" x="870.5" y="-638.5" font-family="Helvetica,sans-Serif" font-size="10.00"> </text>
<polyline fill="none" stroke="black" points="856,-631.5 885,-631.5 "/>
<text text-anchor="middle" x="870.5" y="-619.5" font-family="Helvetica,sans-Serif" font-size="10.00"> </text>
</a>
</g>
</g>
<!-- Node8&#45;&gt;Node7 -->
<g id="edge7" class="edge"><title>Node8&#45;&gt;Node7</title>
<path fill="none" stroke="#404040" d="M856.917,-612.238C850.649,-599.795 842.956,-585.02 835.5,-572 824.565,-552.905 811.713,-532.307 800.406,-514.724"/>
<polygon fill="none" stroke="#404040" points="800.118,-514.28 793.5,-511.417 793.597,-504.207 800.215,-507.069 800.118,-514.28"/>
<text text-anchor="middle" x="871" y="-580.5" font-family="Helvetica,sans-Serif" font-size="10.00"> +elements</text>
</g>
<!-- Node9 -->
<g id="node9" class="node"><title>Node9</title>
<g id="a_node9"><a xlink:title="STL class. ">
<polygon fill="white" stroke="#bfbfbf" points="714.5,-612.5 714.5,-669.5 774.5,-669.5 774.5,-612.5 714.5,-612.5"/>
<text text-anchor="middle" x="744.5" y="-657.5" font-family="Helvetica,sans-Serif" font-size="10.00">std::string</text>
<polyline fill="none" stroke="#bfbfbf" points="714.5,-650.5 774.5,-650.5 "/>
<text text-anchor="middle" x="744.5" y="-638.5" font-family="Helvetica,sans-Serif" font-size="10.00"> </text>
<polyline fill="none" stroke="#bfbfbf" points="714.5,-631.5 774.5,-631.5 "/>
<text text-anchor="middle" x="744.5" y="-619.5" font-family="Helvetica,sans-Serif" font-size="10.00"> </text>
</a>
</g>
</g>
<!-- Node9&#45;&gt;Node7 -->
<g id="edge8" class="edge"><title>Node9&#45;&gt;Node7</title>
<path fill="none" stroke="#404040" d="M774.663,-619.555C782.622,-612.483 790.187,-603.829 794.5,-594 805.378,-569.211 800.217,-539.412 792.053,-515.353"/>
<polygon fill="none" stroke="#404040" points="792.034,-515.302 786.198,-511.068 787.862,-504.051 793.698,-508.286 792.034,-515.302"/>
<text text-anchor="middle" x="816" y="-580.5" font-family="Helvetica,sans-Serif" font-size="10.00"> +keys</text>
</g>
<!-- Node14 -->
<g id="node14" class="node"><title>Node14</title>
<polygon fill="white" stroke="#bfbfbf" points="406.5,-436 406.5,-504 516.5,-504 516.5,-436 406.5,-436"/>
<text text-anchor="start" x="414.5" y="-492" font-family="Helvetica,sans-Serif" font-size="10.00">std::map&lt; std::string,</text>
<text text-anchor="middle" x="461.5" y="-481" font-family="Helvetica,sans-Serif" font-size="10.00"> std::string &gt;</text>
<polyline fill="none" stroke="#bfbfbf" points="406.5,-474 516.5,-474 "/>
<text text-anchor="middle" x="461.5" y="-462" font-family="Helvetica,sans-Serif" font-size="10.00"> </text>
<polyline fill="none" stroke="#bfbfbf" points="406.5,-455 516.5,-455 "/>
<text text-anchor="middle" x="461.5" y="-443" font-family="Helvetica,sans-Serif" font-size="10.00"> </text>
</g>
<!-- Node9&#45;&gt;Node14 -->
<g id="edge14" class="edge"><title>Node9&#45;&gt;Node14</title>
<path fill="none" stroke="#404040" d="M714.223,-624.277C699.955,-616.175 683.119,-605.572 669.5,-594 659.655,-585.635 661.833,-578.202 650.5,-572 601.262,-545.055 573.971,-582.301 525.5,-554 509.285,-544.533 495.744,-529.213 485.356,-514.296"/>
<polygon fill="none" stroke="#404040" points="485.256,-514.144 478.62,-511.321 478.673,-504.11 485.309,-506.933 485.256,-514.144"/>
<text text-anchor="middle" x="694" y="-586" font-family="Helvetica,sans-Serif" font-size="10.00"> +elements</text>
<text text-anchor="middle" x="694" y="-575" font-family="Helvetica,sans-Serif" font-size="10.00">+keys</text>
</g>
<!-- Node18 -->
<g id="node18" class="node"><title>Node18</title>
<polygon fill="white" stroke="#bfbfbf" points="535,-441.5 535,-498.5 660,-498.5 660,-441.5 535,-441.5"/>
<text text-anchor="middle" x="597.5" y="-486.5" font-family="Helvetica,sans-Serif" font-size="10.00">std::vector&lt; std::string &gt;</text>
<polyline fill="none" stroke="#bfbfbf" points="535,-479.5 660,-479.5 "/>
<text text-anchor="middle" x="597.5" y="-467.5" font-family="Helvetica,sans-Serif" font-size="10.00"> </text>
<polyline fill="none" stroke="#bfbfbf" points="535,-460.5 660,-460.5 "/>
<text text-anchor="middle" x="597.5" y="-448.5" font-family="Helvetica,sans-Serif" font-size="10.00"> </text>
</g>
<!-- Node9&#45;&gt;Node18 -->
<g id="edge22" class="edge"><title>Node9&#45;&gt;Node18</title>
<path fill="none" stroke="#404040" d="M739.357,-612.21C736.024,-599.197 730.722,-583.965 722.5,-572 711.676,-556.247 676.633,-528.426 646.395,-505.966"/>
<polygon fill="none" stroke="#404040" points="646.029,-505.697 638.826,-505.359 636.367,-498.58 643.57,-498.918 646.029,-505.697"/>
<text text-anchor="middle" x="758" y="-580.5" font-family="Helvetica,sans-Serif" font-size="10.00"> +elements</text>
</g>
<!-- Node10 -->
<g id="node10" class="node"><title>Node10</title>
<g id="a_node10"><a xlink:title="STL class. ">
<polygon fill="white" stroke="#bfbfbf" points="697,-717.5 697,-785.5 792,-785.5 792,-717.5 697,-717.5"/>
<text text-anchor="start" x="705" y="-773.5" font-family="Helvetica,sans-Serif" font-size="10.00">std::basic_string&lt;</text>
<text text-anchor="middle" x="744.5" y="-762.5" font-family="Helvetica,sans-Serif" font-size="10.00"> char &gt;</text>
<polyline fill="none" stroke="#bfbfbf" points="697,-755.5 792,-755.5 "/>
<text text-anchor="middle" x="744.5" y="-743.5" font-family="Helvetica,sans-Serif" font-size="10.00"> </text>
<polyline fill="none" stroke="#bfbfbf" points="697,-736.5 792,-736.5 "/>
<text text-anchor="middle" x="744.5" y="-724.5" font-family="Helvetica,sans-Serif" font-size="10.00"> </text>
</a>
</g>
</g>
<!-- Node10&#45;&gt;Node9 -->
<g id="edge9" class="edge"><title>Node10&#45;&gt;Node9</title>
<path fill="none" stroke="midnightblue" d="M744.5,-707.064C744.5,-694.511 744.5,-681.152 744.5,-669.827"/>
<polygon fill="none" stroke="midnightblue" points="741,-707.357 744.5,-717.357 748,-707.357 741,-707.357"/>
</g>
<!-- Node11 -->
<g id="node11" class="node"><title>Node11</title>
<g id="a_node11"><a xlink:title="STL class. ">
<polygon fill="white" stroke="#bfbfbf" points="441.5,-612.5 441.5,-669.5 533.5,-669.5 533.5,-612.5 441.5,-612.5"/>
<text text-anchor="middle" x="487.5" y="-657.5" font-family="Helvetica,sans-Serif" font-size="10.00">std::map&lt; K, T &gt;</text>
<polyline fill="none" stroke="#bfbfbf" points="441.5,-650.5 533.5,-650.5 "/>
<text text-anchor="middle" x="487.5" y="-638.5" font-family="Helvetica,sans-Serif" font-size="10.00"> </text>
<polyline fill="none" stroke="#bfbfbf" points="441.5,-631.5 533.5,-631.5 "/>
<text text-anchor="middle" x="487.5" y="-619.5" font-family="Helvetica,sans-Serif" font-size="10.00"> </text>
</a>
</g>
</g>
<!-- Node11&#45;&gt;Node7 -->
<g id="edge10" class="edge"><title>Node11&#45;&gt;Node7</title>
<path fill="none" stroke="orange" d="M532.294,-605.882C536.858,-601.992 541.34,-597.989 545.5,-594 554.825,-585.058 553.256,-578.362 564.5,-572 605.327,-548.899 625.76,-573.335 668.5,-554 694.864,-542.073 720.228,-521.78 739.189,-504.246"/>
<polygon fill="orange" stroke="orange" points="530.03,-603.213 524.579,-612.299 534.506,-608.595 530.03,-603.213"/>
<text text-anchor="middle" x="605.5" y="-580.5" font-family="Helvetica,sans-Serif" font-size="10.00"> &lt; std::string, int &gt;</text>
</g>
<!-- Node11&#45;&gt;Node14 -->
<g id="edge15" class="edge"><title>Node11&#45;&gt;Node14</title>
<path fill="none" stroke="orange" d="M471.778,-602.576C470.905,-599.705 470.129,-596.825 469.5,-594 462.83,-564.025 461.124,-529.007 460.912,-504.018"/>
<polygon fill="orange" stroke="orange" points="468.52,-603.867 475.049,-612.21 475.148,-601.616 468.52,-603.867"/>
<text text-anchor="start" x="469.5" y="-586" font-family="Helvetica,sans-Serif" font-size="10.00"> &lt; std::string, std</text>
<text text-anchor="middle" x="507.5" y="-575" font-family="Helvetica,sans-Serif" font-size="10.00">::string &gt;</text>
</g>
<!-- Node12 -->
<g id="node12" class="node"><title>Node12</title>
<polygon fill="white" stroke="#bfbfbf" points="491,-723 491,-780 520,-780 520,-723 491,-723"/>
<text text-anchor="middle" x="505.5" y="-768" font-family="Helvetica,sans-Serif" font-size="10.00">K</text>
<polyline fill="none" stroke="#bfbfbf" points="491,-761 520,-761 "/>
<text text-anchor="middle" x="505.5" y="-749" font-family="Helvetica,sans-Serif" font-size="10.00"> </text>
<polyline fill="none" stroke="#bfbfbf" points="491,-742 520,-742 "/>
<text text-anchor="middle" x="505.5" y="-730" font-family="Helvetica,sans-Serif" font-size="10.00"> </text>
</g>
<!-- Node12&#45;&gt;Node11 -->
<g id="edge11" class="edge"><title>Node12&#45;&gt;Node11</title>
<path fill="none" stroke="#404040" d="M500.911,-722.84C498.838,-710.342 496.349,-695.342 494.082,-681.676"/>
<polygon fill="none" stroke="#404040" points="494.044,-681.448 489.116,-676.183 492.08,-669.609 497.008,-674.874 494.044,-681.448"/>
<text text-anchor="middle" x="512" y="-691" font-family="Helvetica,sans-Serif" font-size="10.00"> +keys</text>
</g>
<!-- Node13 -->
<g id="node13" class="node"><title>Node13</title>
<polygon fill="white" stroke="#bfbfbf" points="383,-723 383,-780 412,-780 412,-723 383,-723"/>
<text text-anchor="middle" x="397.5" y="-768" font-family="Helvetica,sans-Serif" font-size="10.00">T</text>
<polyline fill="none" stroke="#bfbfbf" points="383,-761 412,-761 "/>
<text text-anchor="middle" x="397.5" y="-749" font-family="Helvetica,sans-Serif" font-size="10.00"> </text>
<polyline fill="none" stroke="#bfbfbf" points="383,-742 412,-742 "/>
<text text-anchor="middle" x="397.5" y="-730" font-family="Helvetica,sans-Serif" font-size="10.00"> </text>
</g>
<!-- Node13&#45;&gt;Node11 -->
<g id="edge12" class="edge"><title>Node13&#45;&gt;Node11</title>
<path fill="none" stroke="#404040" d="M412.139,-728.493C420.586,-716.236 431.657,-700.894 442.5,-688 445.169,-684.826 448.011,-681.605 450.919,-678.417"/>
<polygon fill="none" stroke="#404040" points="450.99,-678.341 452.178,-671.229 459.2,-669.59 458.012,-676.702 450.99,-678.341"/>
<text text-anchor="middle" x="467" y="-691" font-family="Helvetica,sans-Serif" font-size="10.00"> +elements</text>
</g>
<!-- Node17 -->
<g id="node17" class="node"><title>Node17</title>
<g id="a_node17"><a xlink:title="STL class. ">
<polygon fill="white" stroke="#bfbfbf" points="318,-612.5 318,-669.5 405,-669.5 405,-612.5 318,-612.5"/>
<text text-anchor="middle" x="361.5" y="-657.5" font-family="Helvetica,sans-Serif" font-size="10.00">std::vector&lt; T &gt;</text>
<polyline fill="none" stroke="#bfbfbf" points="318,-650.5 405,-650.5 "/>
<text text-anchor="middle" x="361.5" y="-638.5" font-family="Helvetica,sans-Serif" font-size="10.00"> </text>
<polyline fill="none" stroke="#bfbfbf" points="318,-631.5 405,-631.5 "/>
<text text-anchor="middle" x="361.5" y="-619.5" font-family="Helvetica,sans-Serif" font-size="10.00"> </text>
</a>
</g>
</g>
<!-- Node13&#45;&gt;Node17 -->
<g id="edge19" class="edge"><title>Node13&#45;&gt;Node17</title>
<path fill="none" stroke="#404040" d="M382.777,-734.191C375.162,-724.662 366.619,-711.983 362.5,-699 360.804,-693.655 359.81,-687.884 359.29,-682.138"/>
<polygon fill="none" stroke="#404040" points="359.276,-681.762 355.051,-675.918 358.821,-669.771 363.045,-675.615 359.276,-681.762"/>
<text text-anchor="middle" x="387" y="-691" font-family="Helvetica,sans-Serif" font-size="10.00"> +elements</text>
</g>
<!-- Node14&#45;&gt;Node6 -->
<g id="edge13" class="edge"><title>Node14&#45;&gt;Node6</title>
<path fill="none" stroke="#404040" d="M454,-435.719C446.895,-404.188 436.049,-356.063 427.369,-317.545"/>
<polygon fill="none" stroke="#404040" points="427.331,-317.377 422.11,-312.403 424.693,-305.67 429.915,-310.644 427.331,-317.377"/>
<text text-anchor="middle" x="450" y="-360" font-family="Helvetica,sans-Serif" font-size="10.00"> +env</text>
</g>
<!-- Node15 -->
<g id="node15" class="node"><title>Node15</title>
<polygon fill="white" stroke="#bfbfbf" points="270,-436 270,-504 381,-504 381,-436 270,-436"/>
<text text-anchor="start" x="278" y="-492" font-family="Helvetica,sans-Serif" font-size="10.00">std::vector&lt; unsigned</text>
<text text-anchor="middle" x="325.5" y="-481" font-family="Helvetica,sans-Serif" font-size="10.00"> int &gt;</text>
<polyline fill="none" stroke="#bfbfbf" points="270,-474 381,-474 "/>
<text text-anchor="middle" x="325.5" y="-462" font-family="Helvetica,sans-Serif" font-size="10.00"> </text>
<polyline fill="none" stroke="#bfbfbf" points="270,-455 381,-455 "/>
<text text-anchor="middle" x="325.5" y="-443" font-family="Helvetica,sans-Serif" font-size="10.00"> </text>
</g>
<!-- Node15&#45;&gt;Node6 -->
<g id="edge16" class="edge"><title>Node15&#45;&gt;Node6</title>
<path fill="none" stroke="#404040" d="M339.25,-435.719C352.361,-403.984 372.418,-355.438 388.382,-316.798"/>
<polygon fill="none" stroke="#404040" points="388.397,-316.761 386.991,-309.688 392.979,-305.67 394.385,-312.743 388.397,-316.761"/>
<text text-anchor="middle" x="394" y="-360" font-family="Helvetica,sans-Serif" font-size="10.00"> +groupIDs</text>
</g>
<!-- Node16 -->
<g id="node16" class="node"><title>Node16</title>
<polygon fill="white" stroke="#bfbfbf" points="166.5,-612.5 166.5,-669.5 222.5,-669.5 222.5,-612.5 166.5,-612.5"/>
<text text-anchor="middle" x="194.5" y="-657.5" font-family="Helvetica,sans-Serif" font-size="10.00">unsigned</text>
<polyline fill="none" stroke="#bfbfbf" points="166.5,-650.5 222.5,-650.5 "/>
<text text-anchor="middle" x="194.5" y="-638.5" font-family="Helvetica,sans-Serif" font-size="10.00"> </text>
<polyline fill="none" stroke="#bfbfbf" points="166.5,-631.5 222.5,-631.5 "/>
<text text-anchor="middle" x="194.5" y="-619.5" font-family="Helvetica,sans-Serif" font-size="10.00"> </text>
</g>
<!-- Node16&#45;&gt;Node6 -->
<g id="edge20" class="edge"><title>Node16&#45;&gt;Node6</title>
<path fill="none" stroke="#404040" d="M184.784,-612.411C169.22,-563.032 144.569,-457.987 187.5,-386 210.01,-348.254 236.291,-360.715 274.5,-339 298.657,-325.271 324.886,-309.768 347.983,-295.908"/>
<polygon fill="none" stroke="#404040" points="348.073,-295.854 351.153,-289.333 358.356,-289.668 355.277,-296.188 348.073,-295.854"/>
<text text-anchor="middle" x="224" y="-478.5" font-family="Helvetica,sans-Serif" font-size="10.00"> +heapPointer</text>
<text text-anchor="middle" x="224" y="-467.5" font-family="Helvetica,sans-Serif" font-size="10.00">+programsCount</text>
<text text-anchor="middle" x="224" y="-456.5" font-family="Helvetica,sans-Serif" font-size="10.00">+exitValue</text>
</g>
<!-- Node16&#45;&gt;Node15 -->
<g id="edge17" class="edge"><title>Node16&#45;&gt;Node15</title>
<path fill="none" stroke="#404040" d="M202.795,-612.313C207.793,-599.018 215.215,-583.515 225.5,-572 235.858,-560.403 243.66,-564.08 255.5,-554 269.244,-542.299 282.5,-527.738 293.711,-514.095"/>
<polygon fill="none" stroke="#404040" points="293.991,-513.745 294.617,-506.561 301.489,-504.376 300.863,-511.56 293.991,-513.745"/>
<text text-anchor="middle" x="250" y="-580.5" font-family="Helvetica,sans-Serif" font-size="10.00"> +elements</text>
</g>
<!-- Node17&#45;&gt;Node15 -->
<g id="edge18" class="edge"><title>Node17&#45;&gt;Node15</title>
<path fill="none" stroke="orange" d="M309.108,-618.77C299.265,-612.317 290.266,-604.161 284.5,-594 268.336,-565.516 283.791,-529.677 300.143,-504.045"/>
<polygon fill="orange" stroke="orange" points="307.531,-621.905 317.914,-624.011 311.111,-615.889 307.531,-621.905"/>
<text text-anchor="middle" x="321.5" y="-580.5" font-family="Helvetica,sans-Serif" font-size="10.00"> &lt; unsigned int &gt;</text>
</g>
<!-- Node17&#45;&gt;Node18 -->
<g id="edge23" class="edge"><title>Node17&#45;&gt;Node18</title>
<path fill="none" stroke="orange" d="M373.359,-603.083C378.896,-591.397 386.715,-579.567 397.5,-572 444.528,-539.005 475.028,-581.44 525.5,-554 548.963,-541.244 568.296,-517.617 581,-498.824"/>
<polygon fill="orange" stroke="orange" points="370.115,-601.768 369.395,-612.339 376.549,-604.524 370.115,-601.768"/>
<text text-anchor="middle" x="430" y="-580.5" font-family="Helvetica,sans-Serif" font-size="10.00"> &lt; std::string &gt;</text>
</g>
<!-- Node18&#45;&gt;Node6 -->
<g id="edge21" class="edge"><title>Node18&#45;&gt;Node6</title>
<path fill="none" stroke="#404040" d="M573.445,-441.154C545.914,-409.283 500.041,-356.181 464.465,-314.997"/>
<polygon fill="none" stroke="#404040" points="464.426,-314.953 457.477,-313.027 456.582,-305.872 463.531,-307.797 464.426,-314.953"/>
<text text-anchor="middle" x="538" y="-360" font-family="Helvetica,sans-Serif" font-size="10.00"> +programArgs</text>
</g>
</g>
</svg>
        <g id="navigator" transform="translate(0 0)" fill="#404254">
                <rect fill="#f2f5e9" fill-opacity="0.5" stroke="#606060" stroke-width=".5" x="0" y="0" width="60" height="60"/>
                <use id="zoomplus" xlink:href="#zoomPlus" x="17" y="9" onmousedown="handleZoom(evt,'in')"/>
                <use id="zoomminus" xlink:href="#zoomMin" x="42" y="9" onmousedown="handleZoom(evt,'out')"/>
                <use id="reset" xlink:href="#resetDef" x="30" y="36" onmousedown="handleReset()"/>
                <g id="arrowUp" xlink:href="#dirArrow" transform="translate(30 24)" onmousedown="handlePan(0,-1)">
                  <use xlink:href="#rim" fill="#404040">
                        <set attributeName="fill" to="#808080" begin="arrowUp.mouseover" end="arrowUp.mouseout"/>
                  </use>
                  <path fill="none" stroke="white" stroke-width="1.5" d="M0,-3.0v7 M-2.5,-0.5L0,-3.0L2.5,-0.5"/>
                </g>
                <g id="arrowRight" xlink:href="#dirArrow" transform="rotate(90) translate(36 -43)" onmousedown="handlePan(1,0)">
                  <use xlink:href="#rim" fill="#404040">
                        <set attributeName="fill" to="#808080" begin="arrowRight.mouseover" end="arrowRight.mouseout"/>
                  </use>
                  <path fill="none" stroke="white" stroke-width="1.5" d="M0,-3.0v7 M-2.5,-0.5L0,-3.0L2.5,-0.5"/>
                </g>
                <g id="arrowDown" xlink:href="#dirArrow" transform="rotate(180) translate(-30 -48)" onmousedown="handlePan(0,1)">
                  <use xlink:href="#rim" fill="#404040">
                        <set attributeName="fill" to="#808080" begin="arrowDown.mouseover" end="arrowDown.mouseout"/>
                  </use>
                  <path fill="none" stroke="white" stroke-width="1.5" d="M0,-3.0v7 M-2.5,-0.5L0,-3.0L2.5,-0.5"/>
                </g>
                <g id="arrowLeft" xlink:href="#dirArrow" transform="rotate(270) translate(-36 17)" onmousedown="handlePan(-1,0)">
                  <use xlink:href="#rim" fill="#404040">
                        <set attributeName="fill" to="#808080" begin="arrowLeft.mouseover" end="arrowLeft.mouseout"/>
                  </use>
                  <path fill="none" stroke="white" stroke-width="1.5" d="M0,-3.0v7 M-2.5,-0.5L0,-3.0L2.5,-0.5"/>
                </g>
        </g>
        <svg viewBox="0 0 15 15" width="100%" height="30px" preserveAspectRatio="xMaxYMin meet">
         <g id="arrow_out" transform="scale(0.3 0.3)">
          <a xlink:href="classPlatformIntrinsic__coll__graph_org.svg" target="_base">
           <rect id="button" ry="5" rx="5" y="6" x="6" height="38" width="38"
                fill="#f2f5e9" fill-opacity="0.5" stroke="#606060" stroke-width="1.0"/>
           <path id="arrow"
             d="M 11.500037,31.436501 C 11.940474,20.09759 22.043105,11.32322 32.158766,21.979434 L 37.068811,17.246167 C 37.068811,17.246167 37.088388,32 37.088388,32 L 22.160133,31.978069 C 22.160133,31.978069 26.997745,27.140456 26.997745,27.140456 C 18.528582,18.264221 13.291696,25.230495 11.500037,31.436501 z"
             style="fill:#404040;"/>
          </a>
         </g>
        </svg>
</svg>
