<?xml version="1.0" encoding="UTF-8" standalone="no"?>
<!DOCTYPE svg PUBLIC "-//W3C//DTD SVG 1.1//EN"
 "http://www.w3.org/Graphics/SVG/1.1/DTD/svg11.dtd">
<!-- Generated by graphviz version 2.38.0 (20140413.2041)
 -->
<!-- Title: trap::lstatSysCall&lt; wordSize &gt; Pages: 1 -->
<svg width="206pt" height="597pt"
 viewBox="0.00 0.00 205.64 597.00" xmlns="http://www.w3.org/2000/svg" xmlns:xlink="http://www.w3.org/1999/xlink">
<g id="graph0" class="graph" transform="scale(1 1) rotate(0) translate(4 593)">
<title>trap::lstatSysCall&lt; wordSize &gt;</title>
<polygon fill="white" stroke="none" points="-4,4 -4,-593 201.64,-593 201.64,4 -4,4"/>
<!-- Node1 -->
<g id="node1" class="node"><title>Node1</title>
<polygon fill="#bfbfbf" stroke="black" points="69.9014,-0.5 69.9014,-74.5 160.926,-74.5 160.926,-0.5 69.9014,-0.5"/>
<text text-anchor="start" x="77.9014" y="-62.5" font-family="Helvetica,sans-Serif" font-size="10.00">trap::lstatSysCall</text>
<text text-anchor="middle" x="115.414" y="-52.5" font-family="Helvetica,sans-Serif" font-size="10.00">&lt; wordSize &gt;</text>
<polyline fill="none" stroke="black" points="69.9014,-46.5 160.926,-46.5 "/>
<text text-anchor="middle" x="115.414" y="-34.5" font-family="Helvetica,sans-Serif" font-size="10.00"> </text>
<polyline fill="none" stroke="black" points="69.9014,-28.5 160.926,-28.5 "/>
<text text-anchor="start" x="77.9014" y="-16.5" font-family="Helvetica,sans-Serif" font-size="10.00">+ lstatSysCall()</text>
<text text-anchor="start" x="77.9014" y="-6.5" font-family="Helvetica,sans-Serif" font-size="10.00">+ operator()()</text>
</g>
<!-- Node2 -->
<g id="node2" class="node"><title>Node2</title>
<g id="a_node2"><a xlink:href="classtrap_1_1SyscallCB.html" target="_top" xlink:title="{trap::SyscallCB\&lt; wordSize \&gt;\n||+ SyscallCB()\l+ ~SyscallCB()\l+ operator()()\l}">
<polygon fill="white" stroke="black" points="44.0542,-112.5 44.0542,-186.5 186.773,-186.5 186.773,-112.5 44.0542,-112.5"/>
<text text-anchor="middle" x="115.414" y="-174.5" font-family="Helvetica,sans-Serif" font-size="10.00">trap::SyscallCB&lt; wordSize &gt;</text>
<polyline fill="none" stroke="black" points="44.0542,-168.5 186.773,-168.5 "/>
<text text-anchor="middle" x="115.414" y="-156.5" font-family="Helvetica,sans-Serif" font-size="10.00"> </text>
<polyline fill="none" stroke="black" points="44.0542,-150.5 186.773,-150.5 "/>
<text text-anchor="start" x="52.0542" y="-138.5" font-family="Helvetica,sans-Serif" font-size="10.00">+ SyscallCB()</text>
<text text-anchor="start" x="52.0542" y="-128.5" font-family="Helvetica,sans-Serif" font-size="10.00">+ ~SyscallCB()</text>
<text text-anchor="start" x="52.0542" y="-118.5" font-family="Helvetica,sans-Serif" font-size="10.00">+ operator()()</text>
</a>
</g>
</g>
<!-- Node2&#45;&gt;Node1 -->
<g id="edge1" class="edge"><title>Node2&#45;&gt;Node1</title>
<path fill="none" stroke="midnightblue" d="M115.414,-102.252C115.414,-93.0127 115.414,-83.4353 115.414,-74.599"/>
<polygon fill="none" stroke="midnightblue" points="111.914,-102.482 115.414,-112.482 118.914,-102.482 111.914,-102.482"/>
</g>
<!-- Node3 -->
<g id="node3" class="node"><title>Node3</title>
<g id="a_node3"><a xlink:href="classtrap_1_1ABIIf.html" target="_top" xlink:title="{trap::ABIIf\&lt; wordSize \&gt;\n||+ matchEndian()\l+ preCall()\l+ postCall()\l+ returnFromCall()\l+ getProcessorID()\l+ isInstrExecuting()\l+ waitInstrEnd()\l+ isLittleEndian()\l+ readLR()\l+ setLR()\land 24 more...\l}">
<polygon fill="white" stroke="black" points="0,-233.5 0,-387.5 118.827,-387.5 118.827,-233.5 0,-233.5"/>
<text text-anchor="middle" x="59.4136" y="-375.5" font-family="Helvetica,sans-Serif" font-size="10.00">trap::ABIIf&lt; wordSize &gt;</text>
<polyline fill="none" stroke="black" points="0,-369.5 118.827,-369.5 "/>
<text text-anchor="middle" x="59.4136" y="-357.5" font-family="Helvetica,sans-Serif" font-size="10.00"> </text>
<polyline fill="none" stroke="black" points="0,-351.5 118.827,-351.5 "/>
<text text-anchor="start" x="8" y="-339.5" font-family="Helvetica,sans-Serif" font-size="10.00">+ matchEndian()</text>
<text text-anchor="start" x="8" y="-329.5" font-family="Helvetica,sans-Serif" font-size="10.00">+ preCall()</text>
<text text-anchor="start" x="8" y="-319.5" font-family="Helvetica,sans-Serif" font-size="10.00">+ postCall()</text>
<text text-anchor="start" x="8" y="-309.5" font-family="Helvetica,sans-Serif" font-size="10.00">+ returnFromCall()</text>
<text text-anchor="start" x="8" y="-299.5" font-family="Helvetica,sans-Serif" font-size="10.00">+ getProcessorID()</text>
<text text-anchor="start" x="8" y="-289.5" font-family="Helvetica,sans-Serif" font-size="10.00">+ isInstrExecuting()</text>
<text text-anchor="start" x="8" y="-279.5" font-family="Helvetica,sans-Serif" font-size="10.00">+ waitInstrEnd()</text>
<text text-anchor="start" x="8" y="-269.5" font-family="Helvetica,sans-Serif" font-size="10.00">+ isLittleEndian()</text>
<text text-anchor="start" x="8" y="-259.5" font-family="Helvetica,sans-Serif" font-size="10.00">+ readLR()</text>
<text text-anchor="start" x="8" y="-249.5" font-family="Helvetica,sans-Serif" font-size="10.00">+ setLR()</text>
<text text-anchor="start" x="8" y="-239.5" font-family="Helvetica,sans-Serif" font-size="10.00">and 24 more...</text>
</a>
</g>
</g>
<!-- Node3&#45;&gt;Node2 -->
<g id="edge2" class="edge"><title>Node3&#45;&gt;Node2</title>
<path fill="none" stroke="#404040" d="M53.1996,-233.292C54.3887,-223.527 56.6223,-213.858 60.3647,-205 61.5784,-202.127 63.0238,-199.328 64.6491,-196.612"/>
<polygon fill="none" stroke="#404040" points="64.8025,-196.394 64.9775,-189.185 71.6993,-186.574 71.5243,-193.783 64.8025,-196.394"/>
<text text-anchor="middle" x="105.438" y="-207" font-family="Helvetica,sans-Serif" font-size="10.00"> #processorInstance</text>
</g>
<!-- Node4 -->
<g id="node4" class="node"><title>Node4</title>
<g id="a_node4"><a xlink:href="classtrap_1_1ABIIf.html" target="_top" xlink:title="{trap::ABIIf\&lt; regWidth \&gt;\n||+ matchEndian()\l+ preCall()\l+ postCall()\l+ returnFromCall()\l+ getProcessorID()\l+ isInstrExecuting()\l+ waitInstrEnd()\l+ isLittleEndian()\l+ readLR()\l+ setLR()\land 24 more...\l}">
<polygon fill="white" stroke="black" points="0.556641,-434.5 0.556641,-588.5 118.271,-588.5 118.271,-434.5 0.556641,-434.5"/>
<text text-anchor="middle" x="59.4136" y="-576.5" font-family="Helvetica,sans-Serif" font-size="10.00">trap::ABIIf&lt; regWidth &gt;</text>
<polyline fill="none" stroke="black" points="0.556641,-570.5 118.271,-570.5 "/>
<text text-anchor="middle" x="59.4136" y="-558.5" font-family="Helvetica,sans-Serif" font-size="10.00"> </text>
<polyline fill="none" stroke="black" points="0.556641,-552.5 118.271,-552.5 "/>
<text text-anchor="start" x="8.55664" y="-540.5" font-family="Helvetica,sans-Serif" font-size="10.00">+ matchEndian()</text>
<text text-anchor="start" x="8.55664" y="-530.5" font-family="Helvetica,sans-Serif" font-size="10.00">+ preCall()</text>
<text text-anchor="start" x="8.55664" y="-520.5" font-family="Helvetica,sans-Serif" font-size="10.00">+ postCall()</text>
<text text-anchor="start" x="8.55664" y="-510.5" font-family="Helvetica,sans-Serif" font-size="10.00">+ returnFromCall()</text>
<text text-anchor="start" x="8.55664" y="-500.5" font-family="Helvetica,sans-Serif" font-size="10.00">+ getProcessorID()</text>
<text text-anchor="start" x="8.55664" y="-490.5" font-family="Helvetica,sans-Serif" font-size="10.00">+ isInstrExecuting()</text>
<text text-anchor="start" x="8.55664" y="-480.5" font-family="Helvetica,sans-Serif" font-size="10.00">+ waitInstrEnd()</text>
<text text-anchor="start" x="8.55664" y="-470.5" font-family="Helvetica,sans-Serif" font-size="10.00">+ isLittleEndian()</text>
<text text-anchor="start" x="8.55664" y="-460.5" font-family="Helvetica,sans-Serif" font-size="10.00">+ readLR()</text>
<text text-anchor="start" x="8.55664" y="-450.5" font-family="Helvetica,sans-Serif" font-size="10.00">+ setLR()</text>
<text text-anchor="start" x="8.55664" y="-440.5" font-family="Helvetica,sans-Serif" font-size="10.00">and 24 more...</text>
</a>
</g>
</g>
<!-- Node4&#45;&gt;Node3 -->
<g id="edge3" class="edge"><title>Node4&#45;&gt;Node3</title>
<path fill="none" stroke="orange" d="M59.4136,-424.237C59.4136,-412.025 59.4136,-399.543 59.4136,-387.543"/>
<polygon fill="orange" stroke="orange" points="55.9137,-424.415 59.4136,-434.415 62.9137,-424.415 55.9137,-424.415"/>
<text text-anchor="middle" x="89.9849" y="-408" font-family="Helvetica,sans-Serif" font-size="10.00"> &lt; wordSize &gt;</text>
</g>
<!-- Node5 -->
<g id="node5" class="node"><title>Node5</title>
<polygon fill="white" stroke="#bfbfbf" points="147.187,-283.5 147.187,-337.5 197.64,-337.5 197.64,-283.5 147.187,-283.5"/>
<text text-anchor="middle" x="172.414" y="-325.5" font-family="Helvetica,sans-Serif" font-size="10.00">sc_time</text>
<polyline fill="none" stroke="#bfbfbf" points="147.187,-319.5 197.64,-319.5 "/>
<text text-anchor="middle" x="172.414" y="-307.5" font-family="Helvetica,sans-Serif" font-size="10.00"> </text>
<polyline fill="none" stroke="#bfbfbf" points="147.187,-301.5 197.64,-301.5 "/>
<text text-anchor="middle" x="172.414" y="-289.5" font-family="Helvetica,sans-Serif" font-size="10.00"> </text>
</g>
<!-- Node5&#45;&gt;Node2 -->
<g id="edge4" class="edge"><title>Node5&#45;&gt;Node2</title>
<path fill="none" stroke="#404040" d="M169.59,-283.388C166.628,-261.766 160.895,-230.559 150.414,-205 149.391,-202.506 148.253,-200.002 147.03,-197.51"/>
<polygon fill="none" stroke="#404040" points="146.92,-197.306 140.55,-193.925 141.221,-186.745 147.591,-190.126 146.92,-197.306"/>
<text text-anchor="middle" x="174.426" y="-207" font-family="Helvetica,sans-Serif" font-size="10.00"> #latency</text>
</g>
</g>
</svg>
