<?xml version="1.0" encoding="UTF-8" standalone="no"?>
<!DOCTYPE svg PUBLIC "-//W3C//DTD SVG 1.1//EN"
 "http://www.w3.org/Graphics/SVG/1.1/DTD/svg11.dtd">
<!-- Generated by graphviz version 2.38.0 (20140413.2041)
 -->
<!-- Title: signalkit::signal_inout&lt; TYPE, MODULE &gt; Pages: 1 -->
<!--zoomable 516 -->
<svg id="main" version="1.1" xmlns="http://www.w3.org/2000/svg" xmlns:xlink="http://www.w3.org/1999/xlink" xml:space="preserve" onload="init(evt)">
<style type="text/css"><![CDATA[
.edge:hover path { stroke: red; }
.edge:hover polygon { stroke: red; fill: red; }
]]></style>
<script type="text/javascript"><![CDATA[
var edges = document.getElementsByTagName('g');
if (edges && edges.length) {
  for (var i=0;i<edges.length;i++) {
    if (edges[i].id.substr(0,4)=='edge') {
      edges[i].setAttribute('class','edge');
    }
  }
}
]]></script>
        <defs>
                <circle id="rim" cx="0" cy="0" r="7"/>
                <circle id="rim2" cx="0" cy="0" r="3.5"/>
                <g id="zoomPlus">
                        <use xlink:href="#rim" fill="#404040">
                                <set attributeName="fill" to="#808080" begin="zoomplus.mouseover" end="zoomplus.mouseout"/>
                        </use>
                        <path d="M-4,0h8M0,-4v8" fill="none" stroke="white" stroke-width="1.5" pointer-events="none"/>
                </g>
                <g id="zoomMin">
                        <use xlink:href="#rim" fill="#404040">
                                <set attributeName="fill" to="#808080" begin="zoomminus.mouseover" end="zoomminus.mouseout"/>
                        </use>
                        <path d="M-4,0h8" fill="none" stroke="white" stroke-width="1.5" pointer-events="none"/>
                </g>
                <g id="dirArrow">
                        <path fill="none" stroke="white" stroke-width="1.5" d="M0,-3.0v7 M-2.5,-0.5L0,-3.0L2.5,-0.5"/>
                </g>
               <g id="resetDef">
                       <use xlink:href="#rim2" fill="#404040">
                               <set attributeName="fill" to="#808080" begin="reset.mouseover" end="reset.mouseout"/>
                       </use>
               </g>
        </defs>

<script type="text/javascript">
var viewWidth = 362;
var viewHeight = 516;
var sectionId = 'dynsection-0';
</script>
<script xlink:href="svgpan.js"/>
<svg id="graph" class="graph">
<g id="viewport">
<title>signalkit::signal_inout&lt; TYPE, MODULE &gt;</title>
<polygon fill="white" stroke="none" points="-4,4 -4,-512 358.448,-512 358.448,4 -4,4"/>
<!-- Node1 -->
<g id="node1" class="node"><title>Node1</title>
<polygon fill="#bfbfbf" stroke="black" points="126.34,-0.5 126.34,-84.5 237.398,-84.5 237.398,-0.5 126.34,-0.5"/>
<text text-anchor="start" x="134.34" y="-72.5" font-family="Helvetica,sans-Serif" font-size="10.00">signalkit::signal_inout</text>
<text text-anchor="middle" x="181.869" y="-62.5" font-family="Helvetica,sans-Serif" font-size="10.00">&lt; TYPE, MODULE &gt;</text>
<polyline fill="none" stroke="black" points="126.34,-56.5 237.398,-56.5 "/>
<text text-anchor="middle" x="181.869" y="-44.5" font-family="Helvetica,sans-Serif" font-size="10.00"> </text>
<polyline fill="none" stroke="black" points="126.34,-38.5 237.398,-38.5 "/>
<text text-anchor="start" x="134.34" y="-26.5" font-family="Helvetica,sans-Serif" font-size="10.00">+ signal_inout()</text>
<text text-anchor="start" x="134.34" y="-16.5" font-family="Helvetica,sans-Serif" font-size="10.00">+ signal_inout()</text>
<text text-anchor="start" x="134.34" y="-6.5" font-family="Helvetica,sans-Serif" font-size="10.00">+ ~signal_inout()</text>
</g>
<!-- Node2 -->
<g id="node2" class="node"><title>Node2</title>
<g id="a_node2"><a xlink:href="classsignalkit_1_1signal__out.html" target="_top" xlink:title="{signalkit::signal_out\l\&lt; TYPE, MODULE \&gt;\n|# m_receiver\l|+ signal_out()\l+ ~signal_out()\l+ bind()\l+ write()\l+ operator()()\l+ operator=()\l+ operator=()\l}">
<polygon fill="white" stroke="black" points="65.1099,-121.5 65.1099,-245.5 172.628,-245.5 172.628,-121.5 65.1099,-121.5"/>
<text text-anchor="start" x="73.1099" y="-233.5" font-family="Helvetica,sans-Serif" font-size="10.00">signalkit::signal_out</text>
<text text-anchor="middle" x="118.869" y="-223.5" font-family="Helvetica,sans-Serif" font-size="10.00">&lt; TYPE, MODULE &gt;</text>
<polyline fill="none" stroke="black" points="65.1099,-217.5 172.628,-217.5 "/>
<text text-anchor="start" x="73.1099" y="-205.5" font-family="Helvetica,sans-Serif" font-size="10.00"># m_receiver</text>
<polyline fill="none" stroke="black" points="65.1099,-199.5 172.628,-199.5 "/>
<text text-anchor="start" x="73.1099" y="-187.5" font-family="Helvetica,sans-Serif" font-size="10.00">+ signal_out()</text>
<text text-anchor="start" x="73.1099" y="-177.5" font-family="Helvetica,sans-Serif" font-size="10.00">+ ~signal_out()</text>
<text text-anchor="start" x="73.1099" y="-167.5" font-family="Helvetica,sans-Serif" font-size="10.00">+ bind()</text>
<text text-anchor="start" x="73.1099" y="-157.5" font-family="Helvetica,sans-Serif" font-size="10.00">+ write()</text>
<text text-anchor="start" x="73.1099" y="-147.5" font-family="Helvetica,sans-Serif" font-size="10.00">+ operator()()</text>
<text text-anchor="start" x="73.1099" y="-137.5" font-family="Helvetica,sans-Serif" font-size="10.00">+ operator=()</text>
<text text-anchor="start" x="73.1099" y="-127.5" font-family="Helvetica,sans-Serif" font-size="10.00">+ operator=()</text>
</a>
</g>
</g>
<!-- Node2&#45;&gt;Node1 -->
<g id="edge1" class="edge"><title>Node2&#45;&gt;Node1</title>
<path fill="none" stroke="midnightblue" d="M150.906,-111.815C155.134,-102.487 159.349,-93.1866 163.247,-84.5876"/>
<polygon fill="none" stroke="midnightblue" points="147.626,-110.575 146.685,-121.128 154.001,-113.465 147.626,-110.575"/>
</g>
<!-- Node3 -->
<g id="node3" class="node"><title>Node3</title>
<g id="a_node3"><a xlink:href="classsignalkit_1_1signal__base.html" target="_top" xlink:title="{signalkit::signal_base\l\&lt; TYPE, MODULE \&gt;\n||+ signal_base()\l+ ~signal_base()\l# get_module()\l}">
<polygon fill="white" stroke="black" points="128.34,-287.5 128.34,-371.5 239.398,-371.5 239.398,-287.5 128.34,-287.5"/>
<text text-anchor="start" x="136.34" y="-359.5" font-family="Helvetica,sans-Serif" font-size="10.00">signalkit::signal_base</text>
<text text-anchor="middle" x="183.869" y="-349.5" font-family="Helvetica,sans-Serif" font-size="10.00">&lt; TYPE, MODULE &gt;</text>
<polyline fill="none" stroke="black" points="128.34,-343.5 239.398,-343.5 "/>
<text text-anchor="middle" x="183.869" y="-331.5" font-family="Helvetica,sans-Serif" font-size="10.00"> </text>
<polyline fill="none" stroke="black" points="128.34,-325.5 239.398,-325.5 "/>
<text text-anchor="start" x="136.34" y="-313.5" font-family="Helvetica,sans-Serif" font-size="10.00">+ signal_base()</text>
<text text-anchor="start" x="136.34" y="-303.5" font-family="Helvetica,sans-Serif" font-size="10.00">+ ~signal_base()</text>
<text text-anchor="start" x="136.34" y="-293.5" font-family="Helvetica,sans-Serif" font-size="10.00"># get_module()</text>
</a>
</g>
</g>
<!-- Node3&#45;&gt;Node2 -->
<g id="edge2" class="edge"><title>Node3&#45;&gt;Node2</title>
<path fill="none" stroke="midnightblue" d="M161.019,-277.878C156.315,-267.457 151.314,-256.379 146.463,-245.631"/>
<polygon fill="none" stroke="midnightblue" points="157.938,-279.561 165.243,-287.235 164.319,-276.681 157.938,-279.561"/>
</g>
<!-- Node8 -->
<g id="node8" class="node"><title>Node8</title>
<g id="a_node8"><a xlink:href="classsignalkit_1_1signal__in.html" target="_top" xlink:title="{signalkit::signal_in\l\&lt; TYPE, MODULE \&gt;\n||+ signal_in()\l+ signal_in()\l+ ~signal_in()\l+ bind()\l+ update()\l+ operator TYPE()\l+ operator()()\l}">
<polygon fill="white" stroke="black" points="191.11,-121.5 191.11,-245.5 298.628,-245.5 298.628,-121.5 191.11,-121.5"/>
<text text-anchor="start" x="199.11" y="-233.5" font-family="Helvetica,sans-Serif" font-size="10.00">signalkit::signal_in</text>
<text text-anchor="middle" x="244.869" y="-223.5" font-family="Helvetica,sans-Serif" font-size="10.00">&lt; TYPE, MODULE &gt;</text>
<polyline fill="none" stroke="black" points="191.11,-217.5 298.628,-217.5 "/>
<text text-anchor="middle" x="244.869" y="-205.5" font-family="Helvetica,sans-Serif" font-size="10.00"> </text>
<polyline fill="none" stroke="black" points="191.11,-199.5 298.628,-199.5 "/>
<text text-anchor="start" x="199.11" y="-187.5" font-family="Helvetica,sans-Serif" font-size="10.00">+ signal_in()</text>
<text text-anchor="start" x="199.11" y="-177.5" font-family="Helvetica,sans-Serif" font-size="10.00">+ signal_in()</text>
<text text-anchor="start" x="199.11" y="-167.5" font-family="Helvetica,sans-Serif" font-size="10.00">+ ~signal_in()</text>
<text text-anchor="start" x="199.11" y="-157.5" font-family="Helvetica,sans-Serif" font-size="10.00">+ bind()</text>
<text text-anchor="start" x="199.11" y="-147.5" font-family="Helvetica,sans-Serif" font-size="10.00">+ update()</text>
<text text-anchor="start" x="199.11" y="-137.5" font-family="Helvetica,sans-Serif" font-size="10.00">+ operator TYPE()</text>
<text text-anchor="start" x="199.11" y="-127.5" font-family="Helvetica,sans-Serif" font-size="10.00">+ operator()()</text>
</a>
</g>
</g>
<!-- Node3&#45;&gt;Node8 -->
<g id="edge8" class="edge"><title>Node3&#45;&gt;Node8</title>
<path fill="none" stroke="midnightblue" d="M205.313,-277.878C209.728,-267.457 214.421,-256.379 218.973,-245.631"/>
<polygon fill="none" stroke="midnightblue" points="202.027,-276.662 201.349,-287.235 208.473,-279.393 202.027,-276.662"/>
</g>
<!-- Node4 -->
<g id="node4" class="node"><title>Node4</title>
<polygon fill="white" stroke="#bfbfbf" points="135.46,-433.5 135.46,-487.5 234.278,-487.5 234.278,-433.5 135.46,-433.5"/>
<text text-anchor="middle" x="184.869" y="-475.5" font-family="Helvetica,sans-Serif" font-size="10.00">sc_core::sc_object</text>
<polyline fill="none" stroke="#bfbfbf" points="135.46,-469.5 234.278,-469.5 "/>
<text text-anchor="middle" x="184.869" y="-457.5" font-family="Helvetica,sans-Serif" font-size="10.00"> </text>
<polyline fill="none" stroke="#bfbfbf" points="135.46,-451.5 234.278,-451.5 "/>
<text text-anchor="middle" x="184.869" y="-439.5" font-family="Helvetica,sans-Serif" font-size="10.00"> </text>
</g>
<!-- Node4&#45;&gt;Node3 -->
<g id="edge3" class="edge"><title>Node4&#45;&gt;Node3</title>
<path fill="none" stroke="midnightblue" d="M184.588,-423.296C184.464,-407.201 184.316,-388.174 184.187,-371.552"/>
<polygon fill="none" stroke="midnightblue" points="181.089,-423.422 184.667,-433.395 188.089,-423.368 181.089,-423.422"/>
</g>
<!-- Node5 -->
<g id="node5" class="node"><title>Node5</title>
<g id="a_node5"><a xlink:href="classsignalkit_1_1signal__out__if.html" target="_top" xlink:title="{signalkit::signal_out\l_if\&lt; TYPE \&gt;\n||+ ~signal_out_if()\l+ write()\l+ operator=()\l+ operator=()\l}">
<polygon fill="white" stroke="black" points="7.23145,-282.5 7.23145,-376.5 110.507,-376.5 110.507,-282.5 7.23145,-282.5"/>
<text text-anchor="start" x="15.2314" y="-364.5" font-family="Helvetica,sans-Serif" font-size="10.00">signalkit::signal_out</text>
<text text-anchor="middle" x="58.8691" y="-354.5" font-family="Helvetica,sans-Serif" font-size="10.00">_if&lt; TYPE &gt;</text>
<polyline fill="none" stroke="black" points="7.23145,-348.5 110.507,-348.5 "/>
<text text-anchor="middle" x="58.8691" y="-336.5" font-family="Helvetica,sans-Serif" font-size="10.00"> </text>
<polyline fill="none" stroke="black" points="7.23145,-330.5 110.507,-330.5 "/>
<text text-anchor="start" x="15.2314" y="-318.5" font-family="Helvetica,sans-Serif" font-size="10.00">+ ~signal_out_if()</text>
<text text-anchor="start" x="15.2314" y="-308.5" font-family="Helvetica,sans-Serif" font-size="10.00">+ write()</text>
<text text-anchor="start" x="15.2314" y="-298.5" font-family="Helvetica,sans-Serif" font-size="10.00">+ operator=()</text>
<text text-anchor="start" x="15.2314" y="-288.5" font-family="Helvetica,sans-Serif" font-size="10.00">+ operator=()</text>
</a>
</g>
</g>
<!-- Node5&#45;&gt;Node2 -->
<g id="edge4" class="edge"><title>Node5&#45;&gt;Node2</title>
<path fill="none" stroke="midnightblue" d="M82.1117,-272.718C85.7937,-263.881 89.619,-254.7 93.3497,-245.747"/>
<polygon fill="none" stroke="midnightblue" points="78.7992,-271.568 78.1838,-282.145 85.2608,-274.26 78.7992,-271.568"/>
</g>
<!-- Node6 -->
<g id="node6" class="node"><title>Node6</title>
<g id="a_node6"><a xlink:href="classsignalkit_1_1signal__if.html" target="_top" xlink:title="{signalkit::signal_if\l\&lt; TYPE \&gt;\n|# m_value\l|+ ~signal_if()\l+ read()\l+ operator TYPE()\l+ operator==()\l}">
<polygon fill="white" stroke="black" points="254.247,-413.5 254.247,-507.5 351.492,-507.5 351.492,-413.5 254.247,-413.5"/>
<text text-anchor="start" x="262.247" y="-495.5" font-family="Helvetica,sans-Serif" font-size="10.00">signalkit::signal_if</text>
<text text-anchor="middle" x="302.869" y="-485.5" font-family="Helvetica,sans-Serif" font-size="10.00">&lt; TYPE &gt;</text>
<polyline fill="none" stroke="black" points="254.247,-479.5 351.492,-479.5 "/>
<text text-anchor="start" x="262.247" y="-467.5" font-family="Helvetica,sans-Serif" font-size="10.00"># m_value</text>
<polyline fill="none" stroke="black" points="254.247,-461.5 351.492,-461.5 "/>
<text text-anchor="start" x="262.247" y="-449.5" font-family="Helvetica,sans-Serif" font-size="10.00">+ ~signal_if()</text>
<text text-anchor="start" x="262.247" y="-439.5" font-family="Helvetica,sans-Serif" font-size="10.00">+ read()</text>
<text text-anchor="start" x="262.247" y="-429.5" font-family="Helvetica,sans-Serif" font-size="10.00">+ operator TYPE()</text>
<text text-anchor="start" x="262.247" y="-419.5" font-family="Helvetica,sans-Serif" font-size="10.00">+ operator==()</text>
</a>
</g>
</g>
<!-- Node6&#45;&gt;Node5 -->
<g id="edge5" class="edge"><title>Node6&#45;&gt;Node5</title>
<path fill="none" stroke="midnightblue" d="M245.335,-414.29C244.513,-413.849 243.691,-413.419 242.869,-413 191.729,-386.963 170.009,-403.037 118.869,-377 116.168,-375.625 113.468,-374.121 110.79,-372.524"/>
<polygon fill="none" stroke="midnightblue" points="243.678,-417.376 254.079,-419.393 247.206,-411.33 243.678,-417.376"/>
</g>
<!-- Node9 -->
<g id="node9" class="node"><title>Node9</title>
<g id="a_node9"><a xlink:href="singletonsignalkit_1_1signal__in__if.html" target="_top" xlink:title="{signalkit::signal_in\l_if\&lt; TYPE \&gt;\n||+ ~signal_in_if()\l+ bind()\l+ update()\l}">
<polygon fill="white" stroke="black" points="257.291,-287.5 257.291,-371.5 354.448,-371.5 354.448,-287.5 257.291,-287.5"/>
<text text-anchor="start" x="265.291" y="-359.5" font-family="Helvetica,sans-Serif" font-size="10.00">signalkit::signal_in</text>
<text text-anchor="middle" x="305.869" y="-349.5" font-family="Helvetica,sans-Serif" font-size="10.00">_if&lt; TYPE &gt;</text>
<polyline fill="none" stroke="black" points="257.291,-343.5 354.448,-343.5 "/>
<text text-anchor="middle" x="305.869" y="-331.5" font-family="Helvetica,sans-Serif" font-size="10.00"> </text>
<polyline fill="none" stroke="black" points="257.291,-325.5 354.448,-325.5 "/>
<text text-anchor="start" x="265.291" y="-313.5" font-family="Helvetica,sans-Serif" font-size="10.00">+ ~signal_in_if()</text>
<text text-anchor="start" x="265.291" y="-303.5" font-family="Helvetica,sans-Serif" font-size="10.00">+ bind()</text>
<text text-anchor="start" x="265.291" y="-293.5" font-family="Helvetica,sans-Serif" font-size="10.00">+ update()</text>
</a>
</g>
</g>
<!-- Node6&#45;&gt;Node9 -->
<g id="edge10" class="edge"><title>Node6&#45;&gt;Node9</title>
<path fill="none" stroke="midnightblue" d="M304.177,-403.248C304.424,-392.634 304.678,-381.718 304.912,-371.674"/>
<polygon fill="none" stroke="midnightblue" points="300.677,-403.214 303.944,-413.292 307.675,-403.377 300.677,-403.214"/>
</g>
<!-- Node7 -->
<g id="node7" class="node"><title>Node7</title>
<g id="a_node7"><a xlink:href="classsignalkit_1_1signal__out__bind__if.html" target="_top" xlink:title="{signalkit::signal_out\l_bind_if\&lt; TYPE \&gt;\n||+ ~signal_out_bind_if()\l+ bind()\l}">
<polygon fill="white" stroke="black" points="0,-423.5 0,-497.5 117.738,-497.5 117.738,-423.5 0,-423.5"/>
<text text-anchor="start" x="8" y="-485.5" font-family="Helvetica,sans-Serif" font-size="10.00">signalkit::signal_out</text>
<text text-anchor="middle" x="58.8691" y="-475.5" font-family="Helvetica,sans-Serif" font-size="10.00">_bind_if&lt; TYPE &gt;</text>
<polyline fill="none" stroke="black" points="0,-469.5 117.738,-469.5 "/>
<text text-anchor="middle" x="58.8691" y="-457.5" font-family="Helvetica,sans-Serif" font-size="10.00"> </text>
<polyline fill="none" stroke="black" points="0,-451.5 117.738,-451.5 "/>
<text text-anchor="start" x="8" y="-439.5" font-family="Helvetica,sans-Serif" font-size="10.00">+ ~signal_out_bind_if()</text>
<text text-anchor="start" x="8" y="-429.5" font-family="Helvetica,sans-Serif" font-size="10.00">+ bind()</text>
</a>
</g>
</g>
<!-- Node7&#45;&gt;Node5 -->
<g id="edge6" class="edge"><title>Node7&#45;&gt;Node5</title>
<path fill="none" stroke="midnightblue" d="M58.8691,-413.079C58.8691,-401.224 58.8691,-388.484 58.8691,-376.644"/>
<polygon fill="none" stroke="midnightblue" points="55.3692,-413.223 58.8691,-423.223 62.3692,-413.223 55.3692,-413.223"/>
</g>
<!-- Node8&#45;&gt;Node1 -->
<g id="edge7" class="edge"><title>Node8&#45;&gt;Node1</title>
<path fill="none" stroke="midnightblue" d="M212.832,-111.815C208.604,-102.487 204.389,-93.1866 200.492,-84.5876"/>
<polygon fill="none" stroke="midnightblue" points="209.737,-113.465 217.053,-121.128 216.113,-110.575 209.737,-113.465"/>
</g>
<!-- Node9&#45;&gt;Node8 -->
<g id="edge9" class="edge"><title>Node9&#45;&gt;Node8</title>
<path fill="none" stroke="midnightblue" d="M284.425,-277.878C280.011,-267.457 275.318,-256.379 270.765,-245.631"/>
<polygon fill="none" stroke="midnightblue" points="281.266,-279.393 288.389,-287.235 287.711,-276.662 281.266,-279.393"/>
</g>
</g>
</svg>
        <g id="navigator" transform="translate(0 0)" fill="#404254">
                <rect fill="#f2f5e9" fill-opacity="0.5" stroke="#606060" stroke-width=".5" x="0" y="0" width="60" height="60"/>
                <use id="zoomplus" xlink:href="#zoomPlus" x="17" y="9" onmousedown="handleZoom(evt,'in')"/>
                <use id="zoomminus" xlink:href="#zoomMin" x="42" y="9" onmousedown="handleZoom(evt,'out')"/>
                <use id="reset" xlink:href="#resetDef" x="30" y="36" onmousedown="handleReset()"/>
                <g id="arrowUp" xlink:href="#dirArrow" transform="translate(30 24)" onmousedown="handlePan(0,-1)">
                  <use xlink:href="#rim" fill="#404040">
                        <set attributeName="fill" to="#808080" begin="arrowUp.mouseover" end="arrowUp.mouseout"/>
                  </use>
                  <path fill="none" stroke="white" stroke-width="1.5" d="M0,-3.0v7 M-2.5,-0.5L0,-3.0L2.5,-0.5"/>
                </g>
                <g id="arrowRight" xlink:href="#dirArrow" transform="rotate(90) translate(36 -43)" onmousedown="handlePan(1,0)">
                  <use xlink:href="#rim" fill="#404040">
                        <set attributeName="fill" to="#808080" begin="arrowRight.mouseover" end="arrowRight.mouseout"/>
                  </use>
                  <path fill="none" stroke="white" stroke-width="1.5" d="M0,-3.0v7 M-2.5,-0.5L0,-3.0L2.5,-0.5"/>
                </g>
                <g id="arrowDown" xlink:href="#dirArrow" transform="rotate(180) translate(-30 -48)" onmousedown="handlePan(0,1)">
                  <use xlink:href="#rim" fill="#404040">
                        <set attributeName="fill" to="#808080" begin="arrowDown.mouseover" end="arrowDown.mouseout"/>
                  </use>
                  <path fill="none" stroke="white" stroke-width="1.5" d="M0,-3.0v7 M-2.5,-0.5L0,-3.0L2.5,-0.5"/>
                </g>
                <g id="arrowLeft" xlink:href="#dirArrow" transform="rotate(270) translate(-36 17)" onmousedown="handlePan(-1,0)">
                  <use xlink:href="#rim" fill="#404040">
                        <set attributeName="fill" to="#808080" begin="arrowLeft.mouseover" end="arrowLeft.mouseout"/>
                  </use>
                  <path fill="none" stroke="white" stroke-width="1.5" d="M0,-3.0v7 M-2.5,-0.5L0,-3.0L2.5,-0.5"/>
                </g>
        </g>
        <svg viewBox="0 0 15 15" width="100%" height="30px" preserveAspectRatio="xMaxYMin meet">
         <g id="arrow_out" transform="scale(0.3 0.3)">
          <a xlink:href="classsignalkit_1_1signal__inout__inherit__graph_org.svg" target="_base">
           <rect id="button" ry="5" rx="5" y="6" x="6" height="38" width="38"
                fill="#f2f5e9" fill-opacity="0.5" stroke="#606060" stroke-width="1.0"/>
           <path id="arrow"
             d="M 11.500037,31.436501 C 11.940474,20.09759 22.043105,11.32322 32.158766,21.979434 L 37.068811,17.246167 C 37.068811,17.246167 37.088388,32 37.088388,32 L 22.160133,31.978069 C 22.160133,31.978069 26.997745,27.140456 26.997745,27.140456 C 18.528582,18.264221 13.291696,25.230495 11.500037,31.436501 z"
             style="fill:#404040;"/>
          </a>
         </g>
        </svg>
</svg>
