<?xml version="1.0" encoding="UTF-8" standalone="no"?>
<!DOCTYPE svg PUBLIC "-//W3C//DTD SVG 1.1//EN"
 "http://www.w3.org/Graphics/SVG/1.1/DTD/svg11.dtd">
<!-- Generated by graphviz version 2.38.0 (20140413.2041)
 -->
<!-- Title: trap::dup2SysCall::operator() Pages: 1 -->
<svg width="277pt" height="230pt"
 viewBox="0.00 0.00 277.00 229.50" xmlns="http://www.w3.org/2000/svg" xmlns:xlink="http://www.w3.org/1999/xlink">
<g id="graph0" class="graph" transform="scale(1 1) rotate(0) translate(4 225.5)">
<title>trap::dup2SysCall::operator()</title>
<polygon fill="white" stroke="none" points="-4,4 -4,-225.5 273,-225.5 273,4 -4,4"/>
<!-- Node1 -->
<g id="node1" class="node"><title>Node1</title>
<polygon fill="#bfbfbf" stroke="black" points="0,-101.5 0,-131.5 101,-131.5 101,-101.5 0,-101.5"/>
<text text-anchor="start" x="8" y="-119.5" font-family="Helvetica,sans-Serif" font-size="10.00">trap::dup2SysCall::</text>
<text text-anchor="middle" x="50.5" y="-108.5" font-family="Helvetica,sans-Serif" font-size="10.00">operator()</text>
</g>
<!-- Node2 -->
<g id="node2" class="node"><title>Node2</title>
<g id="a_node2"><a xlink:href="classtrap_1_1ABIIf.html#a09009b16205964fa8feecd9cb5efdc2b" target="_top" xlink:title="trap::ABIIf::postCall">
<polygon fill="white" stroke="black" points="151,-202 151,-221 255,-221 255,-202 151,-202"/>
<text text-anchor="middle" x="203" y="-209" font-family="Helvetica,sans-Serif" font-size="10.00">trap::ABIIf::postCall</text>
</a>
</g>
</g>
<!-- Node1&#45;&gt;Node2 -->
<g id="edge1" class="edge"><title>Node1&#45;&gt;Node2</title>
<path fill="none" stroke="midnightblue" d="M64.5149,-131.54C80.1086,-148.661 107.808,-176.343 137,-192.5 140.984,-194.705 145.251,-196.678 149.624,-198.439"/>
<polygon fill="midnightblue" stroke="midnightblue" points="148.702,-201.828 159.296,-201.961 151.097,-195.25 148.702,-201.828"/>
</g>
<!-- Node3 -->
<g id="node3" class="node"><title>Node3</title>
<g id="a_node3"><a xlink:href="classtrap_1_1ABIIf.html#ab078dd4f7d791c2bd95148c3cd568600" target="_top" xlink:title="trap::ABIIf::preCall">
<polygon fill="white" stroke="black" points="154,-164 154,-183 252,-183 252,-164 154,-164"/>
<text text-anchor="middle" x="203" y="-171" font-family="Helvetica,sans-Serif" font-size="10.00">trap::ABIIf::preCall</text>
</a>
</g>
</g>
<!-- Node1&#45;&gt;Node3 -->
<g id="edge2" class="edge"><title>Node1&#45;&gt;Node3</title>
<path fill="none" stroke="midnightblue" d="M82.7566,-131.6C98.7675,-139.023 118.698,-147.792 137,-154.5 143.304,-156.811 150.031,-159.036 156.677,-161.099"/>
<polygon fill="midnightblue" stroke="midnightblue" points="155.714,-164.464 166.299,-163.996 157.733,-157.761 155.714,-164.464"/>
</g>
<!-- Node4 -->
<g id="node4" class="node"><title>Node4</title>
<g id="a_node4"><a xlink:href="classtrap_1_1ABIIf.html#a15542f4ec43296551f50c35ceb6da94a" target="_top" xlink:title="trap::ABIIf::readArgs">
<polygon fill="white" stroke="black" points="149.5,-126 149.5,-145 256.5,-145 256.5,-126 149.5,-126"/>
<text text-anchor="middle" x="203" y="-133" font-family="Helvetica,sans-Serif" font-size="10.00">trap::ABIIf::readArgs</text>
</a>
</g>
</g>
<!-- Node1&#45;&gt;Node4 -->
<g id="edge3" class="edge"><title>Node1&#45;&gt;Node4</title>
<path fill="none" stroke="midnightblue" d="M101.196,-122.774C113.357,-124.309 126.528,-125.972 139.213,-127.573"/>
<polygon fill="midnightblue" stroke="midnightblue" points="138.894,-131.061 149.253,-128.841 139.771,-124.116 138.894,-131.061"/>
</g>
<!-- Node5 -->
<g id="node5" class="node"><title>Node5</title>
<g id="a_node5"><a xlink:href="classtrap_1_1ABIIf.html#a5c0112912c658eb7be33283f1141a726" target="_top" xlink:title="trap::ABIIf::returnFromCall">
<polygon fill="white" stroke="black" points="137,-88 137,-107 269,-107 269,-88 137,-88"/>
<text text-anchor="middle" x="203" y="-95" font-family="Helvetica,sans-Serif" font-size="10.00">trap::ABIIf::returnFromCall</text>
</a>
</g>
</g>
<!-- Node1&#45;&gt;Node5 -->
<g id="edge4" class="edge"><title>Node1&#45;&gt;Node5</title>
<path fill="none" stroke="midnightblue" d="M101.196,-110.226C109.381,-109.193 118.024,-108.102 126.667,-107.01"/>
<polygon fill="midnightblue" stroke="midnightblue" points="127.305,-110.458 136.788,-105.733 126.428,-103.513 127.305,-110.458"/>
</g>
<!-- Node6 -->
<g id="node6" class="node"><title>Node6</title>
<g id="a_node6"><a xlink:href="classtrap_1_1ABIIf.html#a0c2cec804e41cd95ffe4fc073268a10f" target="_top" xlink:title="trap::ABIIf::setRetVal">
<polygon fill="white" stroke="black" points="147.5,-50 147.5,-69 258.5,-69 258.5,-50 147.5,-50"/>
<text text-anchor="middle" x="203" y="-57" font-family="Helvetica,sans-Serif" font-size="10.00">trap::ABIIf::setRetVal</text>
</a>
</g>
</g>
<!-- Node1&#45;&gt;Node6 -->
<g id="edge5" class="edge"><title>Node1&#45;&gt;Node6</title>
<path fill="none" stroke="midnightblue" d="M82.7566,-101.4C98.7675,-93.9767 118.698,-85.2078 137,-78.5 143.304,-76.1894 150.031,-73.9642 156.677,-71.9013"/>
<polygon fill="midnightblue" stroke="midnightblue" points="157.733,-75.2386 166.299,-69.0038 155.714,-68.5359 157.733,-75.2386"/>
</g>
<!-- Node7 -->
<g id="node7" class="node"><title>Node7</title>
<g id="a_node7"><a xlink:href="namespacepysc_1_1api_1_1systemc.html#a0f19169551bf6f5170fb3be515ce4365" target="_top" xlink:title="pysc::api::systemc\l::wait">
<polygon fill="white" stroke="black" points="153,-0.5 153,-30.5 253,-30.5 253,-0.5 153,-0.5"/>
<text text-anchor="start" x="161" y="-18.5" font-family="Helvetica,sans-Serif" font-size="10.00">pysc::api::systemc</text>
<text text-anchor="middle" x="203" y="-7.5" font-family="Helvetica,sans-Serif" font-size="10.00">::wait</text>
</a>
</g>
</g>
<!-- Node1&#45;&gt;Node7 -->
<g id="edge6" class="edge"><title>Node1&#45;&gt;Node7</title>
<path fill="none" stroke="midnightblue" d="M65.3311,-101.282C81.2503,-84.5109 108.841,-57.645 137,-40.5 140.332,-38.4712 143.857,-36.5567 147.473,-34.7599"/>
<polygon fill="midnightblue" stroke="midnightblue" points="148.987,-37.9159 156.591,-30.5379 146.045,-31.5638 148.987,-37.9159"/>
</g>
</g>
</svg>
