<?xml version="1.0" encoding="UTF-8" standalone="no"?>
<!DOCTYPE svg PUBLIC "-//W3C//DTD SVG 1.1//EN"
 "http://www.w3.org/Graphics/SVG/1.1/DTD/svg11.dtd">
<!-- Generated by graphviz version 2.38.0 (20140413.2041)
 -->
<!-- Title: trap::getpidSysCall::operator() Pages: 1 -->
<svg width="276pt" height="192pt"
 viewBox="0.00 0.00 276.00 191.50" xmlns="http://www.w3.org/2000/svg" xmlns:xlink="http://www.w3.org/1999/xlink">
<g id="graph0" class="graph" transform="scale(1 1) rotate(0) translate(4 187.5)">
<title>trap::getpidSysCall::operator()</title>
<polygon fill="white" stroke="none" points="-4,4 -4,-187.5 272,-187.5 272,4 -4,4"/>
<!-- Node1 -->
<g id="node1" class="node"><title>Node1</title>
<polygon fill="#bfbfbf" stroke="black" points="0,-82.5 0,-112.5 100,-112.5 100,-82.5 0,-82.5"/>
<text text-anchor="start" x="8" y="-100.5" font-family="Helvetica,sans-Serif" font-size="10.00">trap::getpidSysCall</text>
<text text-anchor="middle" x="50" y="-89.5" font-family="Helvetica,sans-Serif" font-size="10.00">::operator()</text>
</g>
<!-- Node2 -->
<g id="node2" class="node"><title>Node2</title>
<g id="a_node2"><a xlink:href="classtrap_1_1ABIIf.html#a09009b16205964fa8feecd9cb5efdc2b" target="_top" xlink:title="trap::ABIIf::postCall">
<polygon fill="white" stroke="black" points="150,-164 150,-183 254,-183 254,-164 150,-164"/>
<text text-anchor="middle" x="202" y="-171" font-family="Helvetica,sans-Serif" font-size="10.00">trap::ABIIf::postCall</text>
</a>
</g>
</g>
<!-- Node1&#45;&gt;Node2 -->
<g id="edge1" class="edge"><title>Node1&#45;&gt;Node2</title>
<path fill="none" stroke="midnightblue" d="M69.9034,-112.664C86.492,-125.343 111.698,-143.132 136,-154.5 140.925,-156.804 146.193,-158.896 151.517,-160.777"/>
<polygon fill="midnightblue" stroke="midnightblue" points="150.51,-164.13 161.103,-163.935 152.7,-157.481 150.51,-164.13"/>
</g>
<!-- Node3 -->
<g id="node3" class="node"><title>Node3</title>
<g id="a_node3"><a xlink:href="classtrap_1_1ABIIf.html#ab078dd4f7d791c2bd95148c3cd568600" target="_top" xlink:title="trap::ABIIf::preCall">
<polygon fill="white" stroke="black" points="153,-126 153,-145 251,-145 251,-126 153,-126"/>
<text text-anchor="middle" x="202" y="-133" font-family="Helvetica,sans-Serif" font-size="10.00">trap::ABIIf::preCall</text>
</a>
</g>
</g>
<!-- Node1&#45;&gt;Node3 -->
<g id="edge2" class="edge"><title>Node1&#45;&gt;Node3</title>
<path fill="none" stroke="midnightblue" d="M100.116,-109.943C117.257,-114.285 136.455,-119.149 153.466,-123.458"/>
<polygon fill="midnightblue" stroke="midnightblue" points="152.644,-126.86 163.197,-125.923 154.363,-120.075 152.644,-126.86"/>
</g>
<!-- Node4 -->
<g id="node4" class="node"><title>Node4</title>
<g id="a_node4"><a xlink:href="classtrap_1_1ABIIf.html#a5c0112912c658eb7be33283f1141a726" target="_top" xlink:title="trap::ABIIf::returnFromCall">
<polygon fill="white" stroke="black" points="136,-88 136,-107 268,-107 268,-88 136,-88"/>
<text text-anchor="middle" x="202" y="-95" font-family="Helvetica,sans-Serif" font-size="10.00">trap::ABIIf::returnFromCall</text>
</a>
</g>
</g>
<!-- Node1&#45;&gt;Node4 -->
<g id="edge3" class="edge"><title>Node1&#45;&gt;Node4</title>
<path fill="none" stroke="midnightblue" d="M100.116,-97.5C108.345,-97.5 117.048,-97.5 125.755,-97.5"/>
<polygon fill="midnightblue" stroke="midnightblue" points="125.951,-101 135.951,-97.5 125.951,-94.0001 125.951,-101"/>
</g>
<!-- Node5 -->
<g id="node5" class="node"><title>Node5</title>
<g id="a_node5"><a xlink:href="classtrap_1_1ABIIf.html#a0c2cec804e41cd95ffe4fc073268a10f" target="_top" xlink:title="trap::ABIIf::setRetVal">
<polygon fill="white" stroke="black" points="146.5,-50 146.5,-69 257.5,-69 257.5,-50 146.5,-50"/>
<text text-anchor="middle" x="202" y="-57" font-family="Helvetica,sans-Serif" font-size="10.00">trap::ABIIf::setRetVal</text>
</a>
</g>
</g>
<!-- Node1&#45;&gt;Node5 -->
<g id="edge4" class="edge"><title>Node1&#45;&gt;Node5</title>
<path fill="none" stroke="midnightblue" d="M100.116,-85.0574C117.257,-80.7148 136.455,-75.8513 153.466,-71.5419"/>
<polygon fill="midnightblue" stroke="midnightblue" points="154.363,-74.9254 163.197,-69.0767 152.644,-68.1397 154.363,-74.9254"/>
</g>
<!-- Node6 -->
<g id="node6" class="node"><title>Node6</title>
<g id="a_node6"><a xlink:href="namespacepysc_1_1api_1_1systemc.html#a0f19169551bf6f5170fb3be515ce4365" target="_top" xlink:title="pysc::api::systemc\l::wait">
<polygon fill="white" stroke="black" points="152,-0.5 152,-30.5 252,-30.5 252,-0.5 152,-0.5"/>
<text text-anchor="start" x="160" y="-18.5" font-family="Helvetica,sans-Serif" font-size="10.00">pysc::api::systemc</text>
<text text-anchor="middle" x="202" y="-7.5" font-family="Helvetica,sans-Serif" font-size="10.00">::wait</text>
</a>
</g>
</g>
<!-- Node1&#45;&gt;Node6 -->
<g id="edge5" class="edge"><title>Node1&#45;&gt;Node6</title>
<path fill="none" stroke="midnightblue" d="M70.8212,-82.3449C87.5648,-70.0081 112.505,-52.7003 136,-40.5 139.97,-38.4384 144.151,-36.4505 148.397,-34.5581"/>
<polygon fill="midnightblue" stroke="midnightblue" points="149.917,-37.7153 157.745,-30.5761 147.173,-31.2753 149.917,-37.7153"/>
</g>
</g>
</svg>
