<?xml version="1.0" encoding="UTF-8" standalone="no"?>
<!DOCTYPE svg PUBLIC "-//W3C//DTD SVG 1.1//EN"
 "http://www.w3.org/Graphics/SVG/1.1/DTD/svg11.dtd">
<!-- Generated by graphviz version 2.26.0 (20091210.2329)
 -->
<!-- Title: signalkit::signal_infield&lt; TYPE, MODULE &gt; Pages: 1 -->
<svg width="232pt" height="600pt"
 viewBox="0.00 0.00 232.00 600.00" xmlns="http://www.w3.org/2000/svg" xmlns:xlink="http://www.w3.org/1999/xlink">
<g id="graph1" class="graph" transform="scale(1 1) rotate(0) translate(4 596)">
<title>signalkit::signal_infield&lt; TYPE, MODULE &gt;</title>
<polygon fill="white" stroke="white" points="-4,5 -4,-596 229,-596 229,5 -4,5"/>
<!-- Node1 -->
<g id="node1" class="node"><title>Node1</title>
<polygon fill="#bfbfbf" stroke="black" points="69.5,-1 69.5,-181 184.5,-181 184.5,-1 69.5,-1"/>
<text text-anchor="start" x="77.5" y="-168" font-family="Helvetica,sans-Serif" font-size="10.00">signalkit::signal_infield</text>
<text text-anchor="middle" x="127" y="-155" font-family="Helvetica,sans-Serif" font-size="10.00">&lt; TYPE, MODULE &gt;</text>
<polyline fill="none" stroke="black" points="69.5,-147 184.5,-147 "/>
<text text-anchor="middle" x="127" y="-134" font-family="Helvetica,sans-Serif" font-size="10.00"> </text>
<polyline fill="none" stroke="black" points="69.5,-126 184.5,-126 "/>
<text text-anchor="start" x="77.5" y="-113" font-family="Helvetica,sans-Serif" font-size="10.00">+ signal_infield()</text>
<text text-anchor="start" x="77.5" y="-100" font-family="Helvetica,sans-Serif" font-size="10.00">+ signal_infield()</text>
<text text-anchor="start" x="77.5" y="-87" font-family="Helvetica,sans-Serif" font-size="10.00">+ ~signal_infield()</text>
<text text-anchor="start" x="77.5" y="-74" font-family="Helvetica,sans-Serif" font-size="10.00">+ bind()</text>
<text text-anchor="start" x="77.5" y="-61" font-family="Helvetica,sans-Serif" font-size="10.00">+ update()</text>
<text text-anchor="start" x="77.5" y="-48" font-family="Helvetica,sans-Serif" font-size="10.00">+ read()</text>
<text text-anchor="start" x="77.5" y="-35" font-family="Helvetica,sans-Serif" font-size="10.00">+ read()</text>
<text text-anchor="start" x="77.5" y="-22" font-family="Helvetica,sans-Serif" font-size="10.00">+ operator[]()</text>
<text text-anchor="start" x="77.5" y="-9" font-family="Helvetica,sans-Serif" font-size="10.00">+ operator()()</text>
</g>
<!-- Node2 -->
<g id="node2" class="node"><title>Node2</title>
<a xlink:href="classsignalkit_1_1signal__base.html" target="_top" xlink:title="{signalkit::signal_base\l\&lt; TYPE, MODULE \&gt;\n||+ signal_base()\l+ ~signal_base()\l# get_module()\l}">
<polygon fill="white" stroke="black" points="0,-221 0,-323 110,-323 110,-221 0,-221"/>
<text text-anchor="start" x="8" y="-310" font-family="Helvetica,sans-Serif" font-size="10.00">signalkit::signal_base</text>
<text text-anchor="middle" x="55" y="-297" font-family="Helvetica,sans-Serif" font-size="10.00">&lt; TYPE, MODULE &gt;</text>
<polyline fill="none" stroke="black" points="0,-289 110,-289 "/>
<text text-anchor="middle" x="55" y="-276" font-family="Helvetica,sans-Serif" font-size="10.00"> </text>
<polyline fill="none" stroke="black" points="0,-268 110,-268 "/>
<text text-anchor="start" x="8" y="-255" font-family="Helvetica,sans-Serif" font-size="10.00">+ signal_base()</text>
<text text-anchor="start" x="8" y="-242" font-family="Helvetica,sans-Serif" font-size="10.00">+ ~signal_base()</text>
<text text-anchor="start" x="8" y="-229" font-family="Helvetica,sans-Serif" font-size="10.00"># get_module()</text>
</a>
</g>
<!-- Node2&#45;&gt;Node1 -->
<g id="edge2" class="edge"><title>Node2&#45;&gt;Node1</title>
<path fill="none" stroke="midnightblue" d="M79.2011,-211.161C83.037,-201.518 87.0738,-191.37 91.1088,-181.227"/>
<polygon fill="none" stroke="midnightblue" points="75.8838,-210.031 75.4397,-220.617 82.3881,-212.619 75.8838,-210.031"/>
</g>
<!-- Node3 -->
<g id="node4" class="node"><title>Node3</title>
<polygon fill="white" stroke="#bfbfbf" points="5.5,-388.5 5.5,-451.5 104.5,-451.5 104.5,-388.5 5.5,-388.5"/>
<text text-anchor="middle" x="55" y="-438.5" font-family="Helvetica,sans-Serif" font-size="10.00">sc_core::sc_object</text>
<polyline fill="none" stroke="#bfbfbf" points="5.5,-430.5 104.5,-430.5 "/>
<text text-anchor="middle" x="55" y="-417.5" font-family="Helvetica,sans-Serif" font-size="10.00"> </text>
<polyline fill="none" stroke="#bfbfbf" points="5.5,-409.5 104.5,-409.5 "/>
<text text-anchor="middle" x="55" y="-396.5" font-family="Helvetica,sans-Serif" font-size="10.00"> </text>
</g>
<!-- Node3&#45;&gt;Node2 -->
<g id="edge4" class="edge"><title>Node3&#45;&gt;Node2</title>
<path fill="none" stroke="midnightblue" d="M55,-378.035C55,-360.975 55,-341.1 55,-323.198"/>
<polygon fill="none" stroke="midnightblue" points="51.5001,-378.25 55,-388.25 58.5001,-378.25 51.5001,-378.25"/>
</g>
<!-- Node4 -->
<g id="node6" class="node"><title>Node4</title>
<a xlink:href="classsignalkit_1_1signal__in__if.html" target="_top" xlink:title="{signalkit::signal_in\l_if\&lt; TYPE \&gt;\n||+ ~signal_in_if()\l+ bind()\l+ update()\l}">
<polygon fill="white" stroke="black" points="127.5,-221 127.5,-323 224.5,-323 224.5,-221 127.5,-221"/>
<text text-anchor="start" x="135.5" y="-310" font-family="Helvetica,sans-Serif" font-size="10.00">signalkit::signal_in</text>
<text text-anchor="middle" x="176" y="-297" font-family="Helvetica,sans-Serif" font-size="10.00">_if&lt; TYPE &gt;</text>
<polyline fill="none" stroke="black" points="127.5,-289 224.5,-289 "/>
<text text-anchor="middle" x="176" y="-276" font-family="Helvetica,sans-Serif" font-size="10.00"> </text>
<polyline fill="none" stroke="black" points="127.5,-268 224.5,-268 "/>
<text text-anchor="start" x="135.5" y="-255" font-family="Helvetica,sans-Serif" font-size="10.00">+ ~signal_in_if()</text>
<text text-anchor="start" x="135.5" y="-242" font-family="Helvetica,sans-Serif" font-size="10.00">+ bind()</text>
<text text-anchor="start" x="135.5" y="-229" font-family="Helvetica,sans-Serif" font-size="10.00">+ update()</text>
</a>
</g>
<!-- Node4&#45;&gt;Node1 -->
<g id="edge6" class="edge"><title>Node4&#45;&gt;Node1</title>
<path fill="none" stroke="midnightblue" d="M159.448,-210.86C156.862,-201.307 154.143,-191.264 151.426,-181.227"/>
<polygon fill="none" stroke="midnightblue" points="156.098,-211.879 162.09,-220.617 162.855,-210.05 156.098,-211.879"/>
</g>
<!-- Node5 -->
<g id="node8" class="node"><title>Node5</title>
<a xlink:href="classsignalkit_1_1signal__if.html" target="_top" xlink:title="{signalkit::signal_if\l\&lt; TYPE \&gt;\n||+ ~signal_if()\l+ read()\l+ operator TYPE()\l+ operator==()\l}">
<polygon fill="white" stroke="black" points="128,-362.5 128,-477.5 224,-477.5 224,-362.5 128,-362.5"/>
<text text-anchor="start" x="136" y="-464.5" font-family="Helvetica,sans-Serif" font-size="10.00">signalkit::signal_if</text>
<text text-anchor="middle" x="176" y="-451.5" font-family="Helvetica,sans-Serif" font-size="10.00">&lt; TYPE &gt;</text>
<polyline fill="none" stroke="black" points="128,-443.5 224,-443.5 "/>
<text text-anchor="middle" x="176" y="-430.5" font-family="Helvetica,sans-Serif" font-size="10.00"> </text>
<polyline fill="none" stroke="black" points="128,-422.5 224,-422.5 "/>
<text text-anchor="start" x="136" y="-409.5" font-family="Helvetica,sans-Serif" font-size="10.00">+ ~signal_if()</text>
<text text-anchor="start" x="136" y="-396.5" font-family="Helvetica,sans-Serif" font-size="10.00">+ read()</text>
<text text-anchor="start" x="136" y="-383.5" font-family="Helvetica,sans-Serif" font-size="10.00">+ operator TYPE()</text>
<text text-anchor="start" x="136" y="-370.5" font-family="Helvetica,sans-Serif" font-size="10.00">+ operator==()</text>
</a>
</g>
<!-- Node5&#45;&gt;Node4 -->
<g id="edge8" class="edge"><title>Node5&#45;&gt;Node4</title>
<path fill="none" stroke="midnightblue" d="M176,-352.328C176,-342.627 176,-332.781 176,-323.461"/>
<polygon fill="none" stroke="midnightblue" points="172.5,-352.356 176,-362.356 179.5,-352.356 172.5,-352.356"/>
</g>
<!-- Node6 -->
<g id="node10" class="node"><title>Node6</title>
<polygon fill="white" stroke="#bfbfbf" points="154.5,-528.5 154.5,-591.5 197.5,-591.5 197.5,-528.5 154.5,-528.5"/>
<text text-anchor="middle" x="176" y="-578.5" font-family="Helvetica,sans-Serif" font-size="10.00">TYPE</text>
<polyline fill="none" stroke="#bfbfbf" points="154.5,-570.5 197.5,-570.5 "/>
<text text-anchor="middle" x="176" y="-557.5" font-family="Helvetica,sans-Serif" font-size="10.00"> </text>
<polyline fill="none" stroke="#bfbfbf" points="154.5,-549.5 197.5,-549.5 "/>
<text text-anchor="middle" x="176" y="-536.5" font-family="Helvetica,sans-Serif" font-size="10.00"> </text>
</g>
<!-- Node6&#45;&gt;Node5 -->
<g id="edge10" class="edge"><title>Node6&#45;&gt;Node5</title>
<path fill="none" stroke="#404040" d="M176,-528.232C176,-516.743 176,-503.272 176,-489.811"/>
<polygon fill="none" stroke="#404040" points="176,-489.508 172,-483.508 176,-477.508 180,-483.508 176,-489.508"/>
<text text-anchor="middle" x="199" y="-500.5" font-family="Helvetica,sans-Serif" font-size="10.00"> #m_value</text>
</g>
</g>
</svg>
