<?xml version="1.0" encoding="UTF-8" standalone="no"?>
<!DOCTYPE svg PUBLIC "-//W3C//DTD SVG 1.1//EN"
 "http://www.w3.org/Graphics/SVG/1.1/DTD/svg11.dtd">
<!-- Generated by graphviz version 2.38.0 (20140413.2041)
 -->
<!-- Title: leon3_funclt_trap::SUBXcc_imm Pages: 1 -->
<svg width="240pt" height="716pt"
 viewBox="0.00 0.00 239.89 716.00" xmlns="http://www.w3.org/2000/svg" xmlns:xlink="http://www.w3.org/1999/xlink">
<g id="graph0" class="graph" transform="scale(1 1) rotate(0) translate(4 712)">
<title>leon3_funclt_trap::SUBXcc_imm</title>
<polygon fill="white" stroke="none" points="-4,4 -4,-712 235.886,-712 235.886,4 -4,4"/>
<!-- Node1 -->
<g id="node1" class="node"><title>Node1</title>
<polygon fill="#bfbfbf" stroke="black" points="60.7524,-0.5 60.7524,-154.5 178.74,-154.5 178.74,-0.5 60.7524,-0.5"/>
<text text-anchor="start" x="68.7524" y="-142.5" font-family="Helvetica,sans-Serif" font-size="10.00">leon3_funclt_trap::</text>
<text text-anchor="middle" x="119.746" y="-132.5" font-family="Helvetica,sans-Serif" font-size="10.00">SUBXcc_imm</text>
<polyline fill="none" stroke="black" points="60.7524,-126.5 178.74,-126.5 "/>
<text text-anchor="start" x="68.7524" y="-114.5" font-family="Helvetica,sans-Serif" font-size="10.00"># result</text>
<text text-anchor="start" x="68.7524" y="-104.5" font-family="Helvetica,sans-Serif" font-size="10.00"># rs1_op</text>
<text text-anchor="start" x="68.7524" y="-94.5" font-family="Helvetica,sans-Serif" font-size="10.00"># rs2_op</text>
<polyline fill="none" stroke="black" points="60.7524,-88.5 178.74,-88.5 "/>
<text text-anchor="start" x="68.7524" y="-76.5" font-family="Helvetica,sans-Serif" font-size="10.00">+ SUBXcc_imm()</text>
<text text-anchor="start" x="68.7524" y="-66.5" font-family="Helvetica,sans-Serif" font-size="10.00">+ behavior()</text>
<text text-anchor="start" x="68.7524" y="-56.5" font-family="Helvetica,sans-Serif" font-size="10.00">+ replicate()</text>
<text text-anchor="start" x="68.7524" y="-46.5" font-family="Helvetica,sans-Serif" font-size="10.00">+ getInstructionName()</text>
<text text-anchor="start" x="68.7524" y="-36.5" font-family="Helvetica,sans-Serif" font-size="10.00">+ getId()</text>
<text text-anchor="start" x="68.7524" y="-26.5" font-family="Helvetica,sans-Serif" font-size="10.00">+ setParams()</text>
<text text-anchor="start" x="68.7524" y="-16.5" font-family="Helvetica,sans-Serif" font-size="10.00">+ getMnemonic()</text>
<text text-anchor="start" x="68.7524" y="-6.5" font-family="Helvetica,sans-Serif" font-size="10.00">+ ~SUBXcc_imm()</text>
</g>
<!-- Node2 -->
<g id="node2" class="node"><title>Node2</title>
<g id="a_node2"><a xlink:href="classleon3__funclt__trap_1_1ICC__writeSub__op.html" target="_top" xlink:title="{leon3_funclt_trap::\lICC_writeSub_op\n||+ ICC_writeSub_op()\l+ ~ICC_writeSub_op()\l# ICC_writeSub()\l}">
<polygon fill="white" stroke="black" points="0,-191.5 0,-275.5 115.492,-275.5 115.492,-191.5 0,-191.5"/>
<text text-anchor="start" x="8" y="-263.5" font-family="Helvetica,sans-Serif" font-size="10.00">leon3_funclt_trap::</text>
<text text-anchor="middle" x="57.7461" y="-253.5" font-family="Helvetica,sans-Serif" font-size="10.00">ICC_writeSub_op</text>
<polyline fill="none" stroke="black" points="0,-247.5 115.492,-247.5 "/>
<text text-anchor="middle" x="57.7461" y="-235.5" font-family="Helvetica,sans-Serif" font-size="10.00"> </text>
<polyline fill="none" stroke="black" points="0,-229.5 115.492,-229.5 "/>
<text text-anchor="start" x="8" y="-217.5" font-family="Helvetica,sans-Serif" font-size="10.00">+ ICC_writeSub_op()</text>
<text text-anchor="start" x="8" y="-207.5" font-family="Helvetica,sans-Serif" font-size="10.00">+ ~ICC_writeSub_op()</text>
<text text-anchor="start" x="8" y="-197.5" font-family="Helvetica,sans-Serif" font-size="10.00"># ICC_writeSub()</text>
</a>
</g>
</g>
<!-- Node2&#45;&gt;Node1 -->
<g id="edge1" class="edge"><title>Node2&#45;&gt;Node1</title>
<path fill="none" stroke="midnightblue" d="M78.2061,-181.68C81.6979,-173.007 85.3923,-163.83 89.0803,-154.67"/>
<polygon fill="none" stroke="midnightblue" points="74.8489,-180.647 74.361,-191.231 81.3424,-183.262 74.8489,-180.647"/>
</g>
<!-- Node3 -->
<g id="node3" class="node"><title>Node3</title>
<g id="a_node3"><a xlink:href="classleon3__funclt__trap_1_1Instruction.html" target="_top" xlink:title="{leon3_funclt_trap::\lInstruction\n|+ totalInstrCycles\l# PSR\l# WIM\l# TBR\l# Y\l# PC\l# NPC\l# GLOBAL\l# WINREGS\l# ASR\l# FP\land 9 more...\l|+ Instruction()\l+ behavior()\l+ replicate()\l+ setParams()\l+ getInstructionName()\l+ getMnemonic()\l+ getId()\l+ annull()\l+ flush()\l+ stall()\land 7 more...\l# IncrementPC()\l}">
<polygon fill="white" stroke="black" points="60.7524,-312.5 60.7524,-596.5 178.74,-596.5 178.74,-312.5 60.7524,-312.5"/>
<text text-anchor="start" x="68.7524" y="-584.5" font-family="Helvetica,sans-Serif" font-size="10.00">leon3_funclt_trap::</text>
<text text-anchor="middle" x="119.746" y="-574.5" font-family="Helvetica,sans-Serif" font-size="10.00">Instruction</text>
<polyline fill="none" stroke="black" points="60.7524,-568.5 178.74,-568.5 "/>
<text text-anchor="start" x="68.7524" y="-556.5" font-family="Helvetica,sans-Serif" font-size="10.00">+ totalInstrCycles</text>
<text text-anchor="start" x="68.7524" y="-546.5" font-family="Helvetica,sans-Serif" font-size="10.00"># PSR</text>
<text text-anchor="start" x="68.7524" y="-536.5" font-family="Helvetica,sans-Serif" font-size="10.00"># WIM</text>
<text text-anchor="start" x="68.7524" y="-526.5" font-family="Helvetica,sans-Serif" font-size="10.00"># TBR</text>
<text text-anchor="start" x="68.7524" y="-516.5" font-family="Helvetica,sans-Serif" font-size="10.00"># Y</text>
<text text-anchor="start" x="68.7524" y="-506.5" font-family="Helvetica,sans-Serif" font-size="10.00"># PC</text>
<text text-anchor="start" x="68.7524" y="-496.5" font-family="Helvetica,sans-Serif" font-size="10.00"># NPC</text>
<text text-anchor="start" x="68.7524" y="-486.5" font-family="Helvetica,sans-Serif" font-size="10.00"># GLOBAL</text>
<text text-anchor="start" x="68.7524" y="-476.5" font-family="Helvetica,sans-Serif" font-size="10.00"># WINREGS</text>
<text text-anchor="start" x="68.7524" y="-466.5" font-family="Helvetica,sans-Serif" font-size="10.00"># ASR</text>
<text text-anchor="start" x="68.7524" y="-456.5" font-family="Helvetica,sans-Serif" font-size="10.00"># FP</text>
<text text-anchor="start" x="68.7524" y="-446.5" font-family="Helvetica,sans-Serif" font-size="10.00">and 9 more...</text>
<polyline fill="none" stroke="black" points="60.7524,-440.5 178.74,-440.5 "/>
<text text-anchor="start" x="68.7524" y="-428.5" font-family="Helvetica,sans-Serif" font-size="10.00">+ Instruction()</text>
<text text-anchor="start" x="68.7524" y="-418.5" font-family="Helvetica,sans-Serif" font-size="10.00">+ behavior()</text>
<text text-anchor="start" x="68.7524" y="-408.5" font-family="Helvetica,sans-Serif" font-size="10.00">+ replicate()</text>
<text text-anchor="start" x="68.7524" y="-398.5" font-family="Helvetica,sans-Serif" font-size="10.00">+ setParams()</text>
<text text-anchor="start" x="68.7524" y="-388.5" font-family="Helvetica,sans-Serif" font-size="10.00">+ getInstructionName()</text>
<text text-anchor="start" x="68.7524" y="-378.5" font-family="Helvetica,sans-Serif" font-size="10.00">+ getMnemonic()</text>
<text text-anchor="start" x="68.7524" y="-368.5" font-family="Helvetica,sans-Serif" font-size="10.00">+ getId()</text>
<text text-anchor="start" x="68.7524" y="-358.5" font-family="Helvetica,sans-Serif" font-size="10.00">+ annull()</text>
<text text-anchor="start" x="68.7524" y="-348.5" font-family="Helvetica,sans-Serif" font-size="10.00">+ flush()</text>
<text text-anchor="start" x="68.7524" y="-338.5" font-family="Helvetica,sans-Serif" font-size="10.00">+ stall()</text>
<text text-anchor="start" x="68.7524" y="-328.5" font-family="Helvetica,sans-Serif" font-size="10.00">and 7 more...</text>
<text text-anchor="start" x="68.7524" y="-318.5" font-family="Helvetica,sans-Serif" font-size="10.00"># IncrementPC()</text>
</a>
</g>
</g>
<!-- Node3&#45;&gt;Node2 -->
<g id="edge2" class="edge"><title>Node3&#45;&gt;Node2</title>
<path fill="none" stroke="midnightblue" d="M77.0416,-302.657C74.3462,-293.136 71.789,-284.103 69.4704,-275.913"/>
<polygon fill="none" stroke="midnightblue" points="73.6878,-303.659 79.7795,-312.328 80.4231,-301.753 73.6878,-303.659"/>
</g>
<!-- Node5 -->
<g id="node5" class="node"><title>Node5</title>
<g id="a_node5"><a xlink:href="classleon3__funclt__trap_1_1WB__plain__op.html" target="_top" xlink:title="{leon3_funclt_trap::\lWB_plain_op\n||+ WB_plain_op()\l+ ~WB_plain_op()\l# WB_plain()\l}">
<polygon fill="white" stroke="black" points="133.606,-191.5 133.606,-275.5 231.886,-275.5 231.886,-191.5 133.606,-191.5"/>
<text text-anchor="start" x="141.606" y="-263.5" font-family="Helvetica,sans-Serif" font-size="10.00">leon3_funclt_trap::</text>
<text text-anchor="middle" x="182.746" y="-253.5" font-family="Helvetica,sans-Serif" font-size="10.00">WB_plain_op</text>
<polyline fill="none" stroke="black" points="133.606,-247.5 231.886,-247.5 "/>
<text text-anchor="middle" x="182.746" y="-235.5" font-family="Helvetica,sans-Serif" font-size="10.00"> </text>
<polyline fill="none" stroke="black" points="133.606,-229.5 231.886,-229.5 "/>
<text text-anchor="start" x="141.606" y="-217.5" font-family="Helvetica,sans-Serif" font-size="10.00">+ WB_plain_op()</text>
<text text-anchor="start" x="141.606" y="-207.5" font-family="Helvetica,sans-Serif" font-size="10.00">+ ~WB_plain_op()</text>
<text text-anchor="start" x="141.606" y="-197.5" font-family="Helvetica,sans-Serif" font-size="10.00"># WB_plain()</text>
</a>
</g>
</g>
<!-- Node3&#45;&gt;Node5 -->
<g id="edge5" class="edge"><title>Node3&#45;&gt;Node5</title>
<path fill="none" stroke="midnightblue" d="M163.139,-302.657C165.878,-293.136 168.477,-284.103 170.833,-275.913"/>
<polygon fill="none" stroke="midnightblue" points="159.758,-301.75 160.357,-312.328 166.486,-303.685 159.758,-301.75"/>
</g>
<!-- Node4 -->
<g id="node4" class="node"><title>Node4</title>
<g id="a_node4"><a xlink:href="classtrap_1_1InstructionBase.html" target="_top" xlink:title="{trap::InstructionBase\n||+ getInstructionName()\l+ getMnemonic()\l+ getId()\l}">
<polygon fill="white" stroke="black" points="60.7524,-633.5 60.7524,-707.5 178.74,-707.5 178.74,-633.5 60.7524,-633.5"/>
<text text-anchor="middle" x="119.746" y="-695.5" font-family="Helvetica,sans-Serif" font-size="10.00">trap::InstructionBase</text>
<polyline fill="none" stroke="black" points="60.7524,-689.5 178.74,-689.5 "/>
<text text-anchor="middle" x="119.746" y="-677.5" font-family="Helvetica,sans-Serif" font-size="10.00"> </text>
<polyline fill="none" stroke="black" points="60.7524,-671.5 178.74,-671.5 "/>
<text text-anchor="start" x="68.7524" y="-659.5" font-family="Helvetica,sans-Serif" font-size="10.00">+ getInstructionName()</text>
<text text-anchor="start" x="68.7524" y="-649.5" font-family="Helvetica,sans-Serif" font-size="10.00">+ getMnemonic()</text>
<text text-anchor="start" x="68.7524" y="-639.5" font-family="Helvetica,sans-Serif" font-size="10.00">+ getId()</text>
</a>
</g>
</g>
<!-- Node4&#45;&gt;Node3 -->
<g id="edge3" class="edge"><title>Node4&#45;&gt;Node3</title>
<path fill="none" stroke="midnightblue" d="M119.746,-622.936C119.746,-614.806 119.746,-605.984 119.746,-596.783"/>
<polygon fill="none" stroke="midnightblue" points="116.246,-623.198 119.746,-633.198 123.246,-623.198 116.246,-623.198"/>
</g>
<!-- Node5&#45;&gt;Node1 -->
<g id="edge4" class="edge"><title>Node5&#45;&gt;Node1</title>
<path fill="none" stroke="midnightblue" d="M162.07,-181.96C158.489,-173.204 154.694,-163.929 150.907,-154.67"/>
<polygon fill="none" stroke="midnightblue" points="158.837,-183.301 165.863,-191.231 165.316,-180.65 158.837,-183.301"/>
</g>
</g>
</svg>
