<?xml version="1.0" encoding="UTF-8" standalone="no"?>
<!DOCTYPE svg PUBLIC "-//W3C//DTD SVG 1.1//EN"
 "http://www.w3.org/Graphics/SVG/1.1/DTD/svg11.dtd">
<!-- Generated by graphviz version 2.38.0 (20140413.2041)
 -->
<!-- Title: trap::ToolsIf&lt; issueWidth &gt; Pages: 1 -->
<!--zoomable 435 -->
<svg id="main" version="1.1" xmlns="http://www.w3.org/2000/svg" xmlns:xlink="http://www.w3.org/1999/xlink" xml:space="preserve" onload="init(evt)">
<style type="text/css"><![CDATA[
.edge:hover path { stroke: red; }
.edge:hover polygon { stroke: red; fill: red; }
]]></style>
<script type="text/javascript"><![CDATA[
var edges = document.getElementsByTagName('g');
if (edges && edges.length) {
  for (var i=0;i<edges.length;i++) {
    if (edges[i].id.substr(0,4)=='edge') {
      edges[i].setAttribute('class','edge');
    }
  }
}
]]></script>
        <defs>
                <circle id="rim" cx="0" cy="0" r="7"/>
                <circle id="rim2" cx="0" cy="0" r="3.5"/>
                <g id="zoomPlus">
                        <use xlink:href="#rim" fill="#404040">
                                <set attributeName="fill" to="#808080" begin="zoomplus.mouseover" end="zoomplus.mouseout"/>
                        </use>
                        <path d="M-4,0h8M0,-4v8" fill="none" stroke="white" stroke-width="1.5" pointer-events="none"/>
                </g>
                <g id="zoomMin">
                        <use xlink:href="#rim" fill="#404040">
                                <set attributeName="fill" to="#808080" begin="zoomminus.mouseover" end="zoomminus.mouseout"/>
                        </use>
                        <path d="M-4,0h8" fill="none" stroke="white" stroke-width="1.5" pointer-events="none"/>
                </g>
                <g id="dirArrow">
                        <path fill="none" stroke="white" stroke-width="1.5" d="M0,-3.0v7 M-2.5,-0.5L0,-3.0L2.5,-0.5"/>
                </g>
               <g id="resetDef">
                       <use xlink:href="#rim2" fill="#404040">
                               <set attributeName="fill" to="#808080" begin="reset.mouseover" end="reset.mouseout"/>
                       </use>
               </g>
        </defs>

<script type="text/javascript">
var viewWidth = 622;
var viewHeight = 435;
var sectionId = 'dynsection-0';
</script>
<script xlink:href="svgpan.js"/>
<svg id="graph" class="graph">
<g id="viewport">
<title>trap::ToolsIf&lt; issueWidth &gt;</title>
<polygon fill="white" stroke="none" points="-4,4 -4,-431 618.283,-431 618.283,4 -4,4"/>
<!-- Node1 -->
<g id="node1" class="node"><title>Node1</title>
<polygon fill="#bfbfbf" stroke="black" points="256.67,-352.5 256.67,-426.5 390.502,-426.5 390.502,-352.5 256.67,-352.5"/>
<text text-anchor="middle" x="323.586" y="-414.5" font-family="Helvetica,sans-Serif" font-size="10.00">trap::ToolsIf&lt; issueWidth &gt;</text>
<polyline fill="none" stroke="black" points="256.67,-408.5 390.502,-408.5 "/>
<text text-anchor="middle" x="323.586" y="-396.5" font-family="Helvetica,sans-Serif" font-size="10.00"> </text>
<polyline fill="none" stroke="black" points="256.67,-390.5 390.502,-390.5 "/>
<text text-anchor="start" x="264.67" y="-378.5" font-family="Helvetica,sans-Serif" font-size="10.00">+ newIssue()</text>
<text text-anchor="start" x="264.67" y="-368.5" font-family="Helvetica,sans-Serif" font-size="10.00">+ emptyPipeline()</text>
<text text-anchor="start" x="264.67" y="-358.5" font-family="Helvetica,sans-Serif" font-size="10.00">+ ~ToolsIf()</text>
</g>
<!-- Node2 -->
<g id="node2" class="node"><title>Node2</title>
<g id="a_node2"><a xlink:href="classtrap_1_1GDBStub.html" target="_top" xlink:title="{trap::GDBStub\&lt; issueWidth \&gt;\n|+ simulationPaused\l|+ SC_HAS_PROCESS()\l+ GDBStub()\l+ pauseMethod()\l+ end_of_simulation()\l+ initialize()\l+ newIssue()\l+ emptyPipeline()\l+ notifyAddress()\l}">
<polygon fill="white" stroke="black" points="0,-181.5 0,-305.5 147.172,-305.5 147.172,-181.5 0,-181.5"/>
<text text-anchor="middle" x="73.5859" y="-293.5" font-family="Helvetica,sans-Serif" font-size="10.00">trap::GDBStub&lt; issueWidth &gt;</text>
<polyline fill="none" stroke="black" points="0,-287.5 147.172,-287.5 "/>
<text text-anchor="start" x="8" y="-275.5" font-family="Helvetica,sans-Serif" font-size="10.00">+ simulationPaused</text>
<polyline fill="none" stroke="black" points="0,-269.5 147.172,-269.5 "/>
<text text-anchor="start" x="8" y="-257.5" font-family="Helvetica,sans-Serif" font-size="10.00">+ SC_HAS_PROCESS()</text>
<text text-anchor="start" x="8" y="-247.5" font-family="Helvetica,sans-Serif" font-size="10.00">+ GDBStub()</text>
<text text-anchor="start" x="8" y="-237.5" font-family="Helvetica,sans-Serif" font-size="10.00">+ pauseMethod()</text>
<text text-anchor="start" x="8" y="-227.5" font-family="Helvetica,sans-Serif" font-size="10.00">+ end_of_simulation()</text>
<text text-anchor="start" x="8" y="-217.5" font-family="Helvetica,sans-Serif" font-size="10.00">+ initialize()</text>
<text text-anchor="start" x="8" y="-207.5" font-family="Helvetica,sans-Serif" font-size="10.00">+ newIssue()</text>
<text text-anchor="start" x="8" y="-197.5" font-family="Helvetica,sans-Serif" font-size="10.00">+ emptyPipeline()</text>
<text text-anchor="start" x="8" y="-187.5" font-family="Helvetica,sans-Serif" font-size="10.00">+ notifyAddress()</text>
</a>
</g>
</g>
<!-- Node1&#45;&gt;Node2 -->
<g id="edge1" class="edge"><title>Node1&#45;&gt;Node2</title>
<path fill="none" stroke="midnightblue" d="M247.04,-354.231C218.085,-340.357 185.224,-323.49 156.586,-306 153.525,-304.13 150.435,-302.178 147.341,-300.166"/>
<polygon fill="none" stroke="midnightblue" points="245.759,-357.497 256.293,-358.628 248.763,-351.175 245.759,-357.497"/>
</g>
<!-- Node4 -->
<g id="node4" class="node"><title>Node4</title>
<g id="a_node4"><a xlink:href="classtrap_1_1OSEmulator.html" target="_top" xlink:title="{trap::OSEmulator\&lt; issueWidth \&gt;\n||+ OSEmulator()\l+ getRegisteredFunctions()\l+ initSysCalls()\l+ initSysCalls()\l+ newIssue()\l+ emptyPipeline()\l+ reset()\l+ ~OSEmulator()\l}">
<polygon fill="white" stroke="black" points="454.889,-181.5 454.889,-305.5 614.283,-305.5 614.283,-181.5 454.889,-181.5"/>
<text text-anchor="middle" x="534.586" y="-293.5" font-family="Helvetica,sans-Serif" font-size="10.00">trap::OSEmulator&lt; issueWidth &gt;</text>
<polyline fill="none" stroke="black" points="454.889,-287.5 614.283,-287.5 "/>
<text text-anchor="middle" x="534.586" y="-275.5" font-family="Helvetica,sans-Serif" font-size="10.00"> </text>
<polyline fill="none" stroke="black" points="454.889,-269.5 614.283,-269.5 "/>
<text text-anchor="start" x="462.889" y="-257.5" font-family="Helvetica,sans-Serif" font-size="10.00">+ OSEmulator()</text>
<text text-anchor="start" x="462.889" y="-247.5" font-family="Helvetica,sans-Serif" font-size="10.00">+ getRegisteredFunctions()</text>
<text text-anchor="start" x="462.889" y="-237.5" font-family="Helvetica,sans-Serif" font-size="10.00">+ initSysCalls()</text>
<text text-anchor="start" x="462.889" y="-227.5" font-family="Helvetica,sans-Serif" font-size="10.00">+ initSysCalls()</text>
<text text-anchor="start" x="462.889" y="-217.5" font-family="Helvetica,sans-Serif" font-size="10.00">+ newIssue()</text>
<text text-anchor="start" x="462.889" y="-207.5" font-family="Helvetica,sans-Serif" font-size="10.00">+ emptyPipeline()</text>
<text text-anchor="start" x="462.889" y="-197.5" font-family="Helvetica,sans-Serif" font-size="10.00">+ reset()</text>
<text text-anchor="start" x="462.889" y="-187.5" font-family="Helvetica,sans-Serif" font-size="10.00">+ ~OSEmulator()</text>
</a>
</g>
</g>
<!-- Node1&#45;&gt;Node4 -->
<g id="edge3" class="edge"><title>Node1&#45;&gt;Node4</title>
<path fill="none" stroke="midnightblue" d="M385.522,-346.793C404.793,-333.769 426.096,-319.324 445.586,-306 448.532,-303.986 451.531,-301.932 454.559,-299.856"/>
<polygon fill="none" stroke="midnightblue" points="383.44,-343.976 377.112,-352.474 387.358,-349.776 383.44,-343.976"/>
</g>
<!-- Node6 -->
<g id="node6" class="node"><title>Node6</title>
<g id="a_node6"><a xlink:href="classtrap_1_1Profiler.html" target="_top" xlink:title="{trap::Profiler\&lt; issueWidth \&gt;\n||+ Profiler()\l+ ~Profiler()\l+ printCsvStats()\l+ newIssue()\l+ emptyPipeline()\l+ addIgnoredFunction()\l+ addIgnoredFunctions()\l+ setProfilingRange()\l}">
<polygon fill="white" stroke="black" points="300.283,-181.5 300.283,-305.5 436.889,-305.5 436.889,-181.5 300.283,-181.5"/>
<text text-anchor="middle" x="368.586" y="-293.5" font-family="Helvetica,sans-Serif" font-size="10.00">trap::Profiler&lt; issueWidth &gt;</text>
<polyline fill="none" stroke="black" points="300.283,-287.5 436.889,-287.5 "/>
<text text-anchor="middle" x="368.586" y="-275.5" font-family="Helvetica,sans-Serif" font-size="10.00"> </text>
<polyline fill="none" stroke="black" points="300.283,-269.5 436.889,-269.5 "/>
<text text-anchor="start" x="308.283" y="-257.5" font-family="Helvetica,sans-Serif" font-size="10.00">+ Profiler()</text>
<text text-anchor="start" x="308.283" y="-247.5" font-family="Helvetica,sans-Serif" font-size="10.00">+ ~Profiler()</text>
<text text-anchor="start" x="308.283" y="-237.5" font-family="Helvetica,sans-Serif" font-size="10.00">+ printCsvStats()</text>
<text text-anchor="start" x="308.283" y="-227.5" font-family="Helvetica,sans-Serif" font-size="10.00">+ newIssue()</text>
<text text-anchor="start" x="308.283" y="-217.5" font-family="Helvetica,sans-Serif" font-size="10.00">+ emptyPipeline()</text>
<text text-anchor="start" x="308.283" y="-207.5" font-family="Helvetica,sans-Serif" font-size="10.00">+ addIgnoredFunction()</text>
<text text-anchor="start" x="308.283" y="-197.5" font-family="Helvetica,sans-Serif" font-size="10.00">+ addIgnoredFunctions()</text>
<text text-anchor="start" x="308.283" y="-187.5" font-family="Helvetica,sans-Serif" font-size="10.00">+ setProfilingRange()</text>
</a>
</g>
</g>
<!-- Node1&#45;&gt;Node6 -->
<g id="edge5" class="edge"><title>Node1&#45;&gt;Node6</title>
<path fill="none" stroke="midnightblue" d="M337.928,-342.606C341.589,-330.89 345.583,-318.109 349.443,-305.758"/>
<polygon fill="none" stroke="midnightblue" points="334.583,-341.574 334.941,-352.163 341.265,-343.662 334.583,-341.574"/>
</g>
<!-- Node7 -->
<g id="node7" class="node"><title>Node7</title>
<g id="a_node7"><a xlink:href="classtrap_1_1ToolsIf.html" target="_top" xlink:title="{trap::ToolsIf\&lt; unsigned\l int \&gt;\n||+ newIssue()\l+ emptyPipeline()\l+ ~ToolsIf()\l}">
<polygon fill="white" stroke="black" points="165.137,-201.5 165.137,-285.5 282.035,-285.5 282.035,-201.5 165.137,-201.5"/>
<text text-anchor="start" x="173.137" y="-273.5" font-family="Helvetica,sans-Serif" font-size="10.00">trap::ToolsIf&lt; unsigned</text>
<text text-anchor="middle" x="223.586" y="-263.5" font-family="Helvetica,sans-Serif" font-size="10.00"> int &gt;</text>
<polyline fill="none" stroke="black" points="165.137,-257.5 282.035,-257.5 "/>
<text text-anchor="middle" x="223.586" y="-245.5" font-family="Helvetica,sans-Serif" font-size="10.00"> </text>
<polyline fill="none" stroke="black" points="165.137,-239.5 282.035,-239.5 "/>
<text text-anchor="start" x="173.137" y="-227.5" font-family="Helvetica,sans-Serif" font-size="10.00">+ newIssue()</text>
<text text-anchor="start" x="173.137" y="-217.5" font-family="Helvetica,sans-Serif" font-size="10.00">+ emptyPipeline()</text>
<text text-anchor="start" x="173.137" y="-207.5" font-family="Helvetica,sans-Serif" font-size="10.00">+ ~ToolsIf()</text>
</a>
</g>
</g>
<!-- Node1&#45;&gt;Node7 -->
<g id="edge6" class="edge"><title>Node1&#45;&gt;Node7</title>
<path fill="none" stroke="orange" d="M272.389,-344.837C269.266,-341.315 266.312,-337.688 263.641,-334 253.055,-319.386 244.369,-301.53 237.823,-285.622"/>
<polygon fill="orange" stroke="orange" points="270.057,-347.466 279.452,-352.363 275.161,-342.676 270.057,-347.466"/>
<text text-anchor="middle" x="301.559" y="-326" font-family="Helvetica,sans-Serif" font-size="10.00"> &lt; unsigned int &gt;</text>
</g>
<!-- Node3 -->
<g id="node3" class="node"><title>Node3</title>
<g id="a_node3"><a xlink:href="classtrap_1_1GDBStub.html" target="_top" xlink:title="{trap::GDBStub\&lt; unsigned\l int \&gt;\n|+ simulationPaused\l|+ SC_HAS_PROCESS()\l+ GDBStub()\l+ pauseMethod()\l+ end_of_simulation()\l+ initialize()\l+ newIssue()\l+ emptyPipeline()\l+ notifyAddress()\l}">
<polygon fill="white" stroke="black" points="31.4668,-0.5 31.4668,-134.5 161.705,-134.5 161.705,-0.5 31.4668,-0.5"/>
<text text-anchor="start" x="39.4668" y="-122.5" font-family="Helvetica,sans-Serif" font-size="10.00">trap::GDBStub&lt; unsigned</text>
<text text-anchor="middle" x="96.5859" y="-112.5" font-family="Helvetica,sans-Serif" font-size="10.00"> int &gt;</text>
<polyline fill="none" stroke="black" points="31.4668,-106.5 161.705,-106.5 "/>
<text text-anchor="start" x="39.4668" y="-94.5" font-family="Helvetica,sans-Serif" font-size="10.00">+ simulationPaused</text>
<polyline fill="none" stroke="black" points="31.4668,-88.5 161.705,-88.5 "/>
<text text-anchor="start" x="39.4668" y="-76.5" font-family="Helvetica,sans-Serif" font-size="10.00">+ SC_HAS_PROCESS()</text>
<text text-anchor="start" x="39.4668" y="-66.5" font-family="Helvetica,sans-Serif" font-size="10.00">+ GDBStub()</text>
<text text-anchor="start" x="39.4668" y="-56.5" font-family="Helvetica,sans-Serif" font-size="10.00">+ pauseMethod()</text>
<text text-anchor="start" x="39.4668" y="-46.5" font-family="Helvetica,sans-Serif" font-size="10.00">+ end_of_simulation()</text>
<text text-anchor="start" x="39.4668" y="-36.5" font-family="Helvetica,sans-Serif" font-size="10.00">+ initialize()</text>
<text text-anchor="start" x="39.4668" y="-26.5" font-family="Helvetica,sans-Serif" font-size="10.00">+ newIssue()</text>
<text text-anchor="start" x="39.4668" y="-16.5" font-family="Helvetica,sans-Serif" font-size="10.00">+ emptyPipeline()</text>
<text text-anchor="start" x="39.4668" y="-6.5" font-family="Helvetica,sans-Serif" font-size="10.00">+ notifyAddress()</text>
</a>
</g>
</g>
<!-- Node2&#45;&gt;Node3 -->
<g id="edge2" class="edge"><title>Node2&#45;&gt;Node3</title>
<path fill="none" stroke="orange" d="M83.0205,-171.125C84.6174,-159.045 86.2692,-146.548 87.8473,-134.61"/>
<polygon fill="orange" stroke="orange" points="79.5356,-170.782 81.6949,-181.154 86.4752,-171.699 79.5356,-170.782"/>
<text text-anchor="middle" x="122.559" y="-155" font-family="Helvetica,sans-Serif" font-size="10.00"> &lt; unsigned int &gt;</text>
</g>
<!-- Node5 -->
<g id="node5" class="node"><title>Node5</title>
<g id="a_node5"><a xlink:href="classtrap_1_1OSEmulator.html" target="_top" xlink:title="{trap::OSEmulator\&lt; unsigned\l int \&gt;\n||+ OSEmulator()\l+ getRegisteredFunctions()\l+ initSysCalls()\l+ initSysCalls()\l+ newIssue()\l+ emptyPipeline()\l+ reset()\l+ ~OSEmulator()\l}">
<polygon fill="white" stroke="black" points="186.356,-0.5 186.356,-134.5 328.816,-134.5 328.816,-0.5 186.356,-0.5"/>
<text text-anchor="start" x="194.356" y="-122.5" font-family="Helvetica,sans-Serif" font-size="10.00">trap::OSEmulator&lt; unsigned</text>
<text text-anchor="middle" x="257.586" y="-112.5" font-family="Helvetica,sans-Serif" font-size="10.00"> int &gt;</text>
<polyline fill="none" stroke="black" points="186.356,-106.5 328.816,-106.5 "/>
<text text-anchor="middle" x="257.586" y="-94.5" font-family="Helvetica,sans-Serif" font-size="10.00"> </text>
<polyline fill="none" stroke="black" points="186.356,-88.5 328.816,-88.5 "/>
<text text-anchor="start" x="194.356" y="-76.5" font-family="Helvetica,sans-Serif" font-size="10.00">+ OSEmulator()</text>
<text text-anchor="start" x="194.356" y="-66.5" font-family="Helvetica,sans-Serif" font-size="10.00">+ getRegisteredFunctions()</text>
<text text-anchor="start" x="194.356" y="-56.5" font-family="Helvetica,sans-Serif" font-size="10.00">+ initSysCalls()</text>
<text text-anchor="start" x="194.356" y="-46.5" font-family="Helvetica,sans-Serif" font-size="10.00">+ initSysCalls()</text>
<text text-anchor="start" x="194.356" y="-36.5" font-family="Helvetica,sans-Serif" font-size="10.00">+ newIssue()</text>
<text text-anchor="start" x="194.356" y="-26.5" font-family="Helvetica,sans-Serif" font-size="10.00">+ emptyPipeline()</text>
<text text-anchor="start" x="194.356" y="-16.5" font-family="Helvetica,sans-Serif" font-size="10.00">+ reset()</text>
<text text-anchor="start" x="194.356" y="-6.5" font-family="Helvetica,sans-Serif" font-size="10.00">+ ~OSEmulator()</text>
</a>
</g>
</g>
<!-- Node4&#45;&gt;Node5 -->
<g id="edge4" class="edge"><title>Node4&#45;&gt;Node5</title>
<path fill="none" stroke="orange" d="M446.149,-181.363C445.961,-181.242 445.773,-181.121 445.586,-181 407.686,-156.603 364.591,-130.687 329.231,-109.886"/>
<polygon fill="orange" stroke="orange" points="444.41,-184.407 454.699,-186.932 448.23,-178.541 444.41,-184.407"/>
<text text-anchor="middle" x="451.559" y="-155" font-family="Helvetica,sans-Serif" font-size="10.00"> &lt; unsigned int &gt;</text>
</g>
<!-- Node7&#45;&gt;Node3 -->
<g id="edge7" class="edge"><title>Node7&#45;&gt;Node3</title>
<path fill="none" stroke="midnightblue" d="M191.426,-193.003C182.607,-179.856 172.904,-165.767 163.586,-153 159.171,-146.951 154.5,-140.729 149.761,-134.537"/>
<polygon fill="none" stroke="midnightblue" points="188.621,-195.106 197.081,-201.484 194.445,-191.222 188.621,-195.106"/>
</g>
<!-- Node7&#45;&gt;Node5 -->
<g id="edge8" class="edge"><title>Node7&#45;&gt;Node5</title>
<path fill="none" stroke="midnightblue" d="M233.622,-191.139C237.083,-173.425 241.01,-153.328 244.669,-134.604"/>
<polygon fill="none" stroke="midnightblue" points="230.126,-190.779 231.643,-201.264 236.996,-192.121 230.126,-190.779"/>
</g>
</g>
</svg>
        <g id="navigator" transform="translate(0 0)" fill="#404254">
                <rect fill="#f2f5e9" fill-opacity="0.5" stroke="#606060" stroke-width=".5" x="0" y="0" width="60" height="60"/>
                <use id="zoomplus" xlink:href="#zoomPlus" x="17" y="9" onmousedown="handleZoom(evt,'in')"/>
                <use id="zoomminus" xlink:href="#zoomMin" x="42" y="9" onmousedown="handleZoom(evt,'out')"/>
                <use id="reset" xlink:href="#resetDef" x="30" y="36" onmousedown="handleReset()"/>
                <g id="arrowUp" xlink:href="#dirArrow" transform="translate(30 24)" onmousedown="handlePan(0,-1)">
                  <use xlink:href="#rim" fill="#404040">
                        <set attributeName="fill" to="#808080" begin="arrowUp.mouseover" end="arrowUp.mouseout"/>
                  </use>
                  <path fill="none" stroke="white" stroke-width="1.5" d="M0,-3.0v7 M-2.5,-0.5L0,-3.0L2.5,-0.5"/>
                </g>
                <g id="arrowRight" xlink:href="#dirArrow" transform="rotate(90) translate(36 -43)" onmousedown="handlePan(1,0)">
                  <use xlink:href="#rim" fill="#404040">
                        <set attributeName="fill" to="#808080" begin="arrowRight.mouseover" end="arrowRight.mouseout"/>
                  </use>
                  <path fill="none" stroke="white" stroke-width="1.5" d="M0,-3.0v7 M-2.5,-0.5L0,-3.0L2.5,-0.5"/>
                </g>
                <g id="arrowDown" xlink:href="#dirArrow" transform="rotate(180) translate(-30 -48)" onmousedown="handlePan(0,1)">
                  <use xlink:href="#rim" fill="#404040">
                        <set attributeName="fill" to="#808080" begin="arrowDown.mouseover" end="arrowDown.mouseout"/>
                  </use>
                  <path fill="none" stroke="white" stroke-width="1.5" d="M0,-3.0v7 M-2.5,-0.5L0,-3.0L2.5,-0.5"/>
                </g>
                <g id="arrowLeft" xlink:href="#dirArrow" transform="rotate(270) translate(-36 17)" onmousedown="handlePan(-1,0)">
                  <use xlink:href="#rim" fill="#404040">
                        <set attributeName="fill" to="#808080" begin="arrowLeft.mouseover" end="arrowLeft.mouseout"/>
                  </use>
                  <path fill="none" stroke="white" stroke-width="1.5" d="M0,-3.0v7 M-2.5,-0.5L0,-3.0L2.5,-0.5"/>
                </g>
        </g>
        <svg viewBox="0 0 15 15" width="100%" height="30px" preserveAspectRatio="xMaxYMin meet">
         <g id="arrow_out" transform="scale(0.3 0.3)">
          <a xlink:href="classtrap_1_1ToolsIf__inherit__graph_org.svg" target="_base">
           <rect id="button" ry="5" rx="5" y="6" x="6" height="38" width="38"
                fill="#f2f5e9" fill-opacity="0.5" stroke="#606060" stroke-width="1.0"/>
           <path id="arrow"
             d="M 11.500037,31.436501 C 11.940474,20.09759 22.043105,11.32322 32.158766,21.979434 L 37.068811,17.246167 C 37.068811,17.246167 37.088388,32 37.088388,32 L 22.160133,31.978069 C 22.160133,31.978069 26.997745,27.140456 26.997745,27.140456 C 18.528582,18.264221 13.291696,25.230495 11.500037,31.436501 z"
             style="fill:#404040;"/>
          </a>
         </g>
        </svg>
</svg>
