<?xml version="1.0" encoding="UTF-8" standalone="no"?>
<!DOCTYPE svg PUBLIC "-//W3C//DTD SVG 1.1//EN"
 "http://www.w3.org/Graphics/SVG/1.1/DTD/svg11.dtd">
<!-- Generated by graphviz version 2.26.0 (20091210.2329)
 -->
<!-- Title: core.waf.cpplint.cpplint_formatter Pages: 1 -->
<svg width="124pt" height="198pt"
 viewBox="0.00 0.00 124.00 198.00" xmlns="http://www.w3.org/2000/svg" xmlns:xlink="http://www.w3.org/1999/xlink">
<g id="graph1" class="graph" transform="scale(1 1) rotate(0) translate(4 194)">
<title>core.waf.cpplint.cpplint_formatter</title>
<polygon fill="white" stroke="white" points="-4,5 -4,-194 121,-194 121,5 -4,5"/>
<!-- Node1 -->
<g id="node1" class="node"><title>Node1</title>
<polygon fill="#bfbfbf" stroke="black" points="-0.5,-0.5 -0.5,-89.5 116.5,-89.5 116.5,-0.5 -0.5,-0.5"/>
<text text-anchor="start" x="7.5" y="-76.5" font-family="Helvetica,sans-Serif" font-size="10.00">core.waf.cpplint.cpplint</text>
<text text-anchor="middle" x="58" y="-63.5" font-family="Helvetica,sans-Serif" font-size="10.00">_formatter</text>
<polyline fill="none" stroke="black" points="-0.5,-55.5 116.5,-55.5 "/>
<text text-anchor="start" x="7.5" y="-42.5" font-family="Helvetica,sans-Serif" font-size="10.00">+ fmt</text>
<polyline fill="none" stroke="black" points="-0.5,-34.5 116.5,-34.5 "/>
<text text-anchor="start" x="7.5" y="-21.5" font-family="Helvetica,sans-Serif" font-size="10.00">+ __init__()</text>
<text text-anchor="start" x="7.5" y="-8.5" font-family="Helvetica,sans-Serif" font-size="10.00">+ format()</text>
</g>
<!-- Node2 -->
<g id="node2" class="node"><title>Node2</title>
<polygon fill="white" stroke="#bfbfbf" points="16.5,-126.5 16.5,-189.5 99.5,-189.5 99.5,-126.5 16.5,-126.5"/>
<text text-anchor="middle" x="58" y="-176.5" font-family="Helvetica,sans-Serif" font-size="10.00">Logs::formatter</text>
<polyline fill="none" stroke="#bfbfbf" points="16.5,-168.5 99.5,-168.5 "/>
<text text-anchor="middle" x="58" y="-155.5" font-family="Helvetica,sans-Serif" font-size="10.00"> </text>
<polyline fill="none" stroke="#bfbfbf" points="16.5,-147.5 99.5,-147.5 "/>
<text text-anchor="middle" x="58" y="-134.5" font-family="Helvetica,sans-Serif" font-size="10.00"> </text>
</g>
<!-- Node2&#45;&gt;Node1 -->
<g id="edge2" class="edge"><title>Node2&#45;&gt;Node1</title>
<path fill="none" stroke="midnightblue" d="M58,-116.015C58,-107.403 58,-98.3072 58,-89.6061"/>
<polygon fill="none" stroke="midnightblue" points="54.5001,-116.222 58,-126.222 61.5001,-116.223 54.5001,-116.222"/>
</g>
</g>
</svg>
