<?xml version="1.0" encoding="UTF-8" standalone="no"?>
<!DOCTYPE svg PUBLIC "-//W3C//DTD SVG 1.1//EN"
 "http://www.w3.org/Graphics/SVG/1.1/DTD/svg11.dtd">
<!-- Generated by graphviz version 2.36.0 (20140111.2315)
 -->
<!-- Title: trap::OSEmulatorBase::reset Pages: 1 -->
<svg width="262pt" height="38pt"
 viewBox="0.00 0.00 262.00 38.00" xmlns="http://www.w3.org/2000/svg" xmlns:xlink="http://www.w3.org/1999/xlink">
<g id="graph0" class="graph" transform="scale(1 1) rotate(0) translate(4 34)">
<title>trap::OSEmulatorBase::reset</title>
<polygon fill="white" stroke="none" points="-4,4 -4,-34 258,-34 258,4 -4,4"/>
<!-- Node1 -->
<g id="node1" class="node"><title>Node1</title>
<polygon fill="#bfbfbf" stroke="black" points="0.5,-0 0.5,-30 115.5,-30 115.5,-0 0.5,-0"/>
<text text-anchor="start" x="8.5" y="-18" font-family="Helvetica,sans-Serif" font-size="10.00">trap::OSEmulatorBase</text>
<text text-anchor="middle" x="58" y="-7" font-family="Helvetica,sans-Serif" font-size="10.00">::reset</text>
</g>
<!-- Node2 -->
<g id="node2" class="node"><title>Node2</title>
<g id="a_node2"><a xlink:href="classtrap_1_1ELFFrontend.html#a4df6746a92dfb7135facf96a4d6d20d4" target="_top" xlink:title="trap::ELFFrontend::\lreset">
<polygon fill="white" stroke="black" points="152.5,-0 152.5,-30 253.5,-30 253.5,-0 152.5,-0"/>
<text text-anchor="start" x="160.5" y="-18" font-family="Helvetica,sans-Serif" font-size="10.00">trap::ELFFrontend::</text>
<text text-anchor="middle" x="203" y="-7" font-family="Helvetica,sans-Serif" font-size="10.00">reset</text>
</a>
</g>
</g>
<!-- Node1&#45;&gt;Node2 -->
<g id="edge1" class="edge"><title>Node1&#45;&gt;Node2</title>
<path fill="none" stroke="midnightblue" d="M115.517,-15C124.271,-15 133.338,-15 142.161,-15"/>
<polygon fill="midnightblue" stroke="midnightblue" points="142.374,-18.5001 152.374,-15 142.374,-11.5001 142.374,-18.5001"/>
</g>
</g>
</svg>
