<?xml version="1.0" encoding="UTF-8" standalone="no"?>
<!DOCTYPE svg PUBLIC "-//W3C//DTD SVG 1.1//EN"
 "http://www.w3.org/Graphics/SVG/1.1/DTD/svg11.dtd">
<!-- Generated by graphviz version 2.38.0 (20140413.2041)
 -->
<!-- Title: trap::MemoryLT&lt; N_INITIATORS, sockSize &gt; Pages: 1 -->
<svg width="173pt" height="214pt"
 viewBox="0.00 0.00 173.21 214.00" xmlns="http://www.w3.org/2000/svg" xmlns:xlink="http://www.w3.org/1999/xlink">
<g id="graph0" class="graph" transform="scale(1 1) rotate(0) translate(4 210)">
<title>trap::MemoryLT&lt; N_INITIATORS, sockSize &gt;</title>
<polygon fill="white" stroke="none" points="-4,4 -4,-210 169.214,-210 169.214,4 -4,4"/>
<!-- Node1 -->
<g id="node1" class="node"><title>Node1</title>
<polygon fill="#bfbfbf" stroke="black" points="0,-0.5 0,-114.5 165.214,-114.5 165.214,-0.5 0,-0.5"/>
<text text-anchor="start" x="8" y="-102.5" font-family="Helvetica,sans-Serif" font-size="10.00">trap::MemoryLT&lt; N_INITIATORS,</text>
<text text-anchor="middle" x="82.6069" y="-92.5" font-family="Helvetica,sans-Serif" font-size="10.00"> sockSize &gt;</text>
<polyline fill="none" stroke="black" points="0,-86.5 165.214,-86.5 "/>
<text text-anchor="start" x="8" y="-74.5" font-family="Helvetica,sans-Serif" font-size="10.00">+ socket</text>
<polyline fill="none" stroke="black" points="0,-68.5 165.214,-68.5 "/>
<text text-anchor="start" x="8" y="-56.5" font-family="Helvetica,sans-Serif" font-size="10.00">+ MemoryLT()</text>
<text text-anchor="start" x="8" y="-46.5" font-family="Helvetica,sans-Serif" font-size="10.00">+ ~MemoryLT()</text>
<text text-anchor="start" x="8" y="-36.5" font-family="Helvetica,sans-Serif" font-size="10.00">+ b_transport()</text>
<text text-anchor="start" x="8" y="-26.5" font-family="Helvetica,sans-Serif" font-size="10.00">+ get_direct_mem_ptr()</text>
<text text-anchor="start" x="8" y="-16.5" font-family="Helvetica,sans-Serif" font-size="10.00">+ transport_dbg()</text>
<text text-anchor="start" x="8" y="-6.5" font-family="Helvetica,sans-Serif" font-size="10.00">+ write_byte_dbg()</text>
</g>
<!-- Node2 -->
<g id="node2" class="node"><title>Node2</title>
<polygon fill="white" stroke="#bfbfbf" points="50.4272,-151.5 50.4272,-205.5 114.787,-205.5 114.787,-151.5 50.4272,-151.5"/>
<text text-anchor="middle" x="82.6069" y="-193.5" font-family="Helvetica,sans-Serif" font-size="10.00">sc_module</text>
<polyline fill="none" stroke="#bfbfbf" points="50.4272,-187.5 114.787,-187.5 "/>
<text text-anchor="middle" x="82.6069" y="-175.5" font-family="Helvetica,sans-Serif" font-size="10.00"> </text>
<polyline fill="none" stroke="#bfbfbf" points="50.4272,-169.5 114.787,-169.5 "/>
<text text-anchor="middle" x="82.6069" y="-157.5" font-family="Helvetica,sans-Serif" font-size="10.00"> </text>
</g>
<!-- Node2&#45;&gt;Node1 -->
<g id="edge1" class="edge"><title>Node2&#45;&gt;Node1</title>
<path fill="none" stroke="midnightblue" d="M82.6069,-141.245C82.6069,-132.883 82.6069,-123.795 82.6069,-114.805"/>
<polygon fill="none" stroke="midnightblue" points="79.107,-141.385 82.6069,-151.385 86.107,-141.385 79.107,-141.385"/>
</g>
</g>
</svg>
