<?xml version="1.0" encoding="UTF-8" standalone="no"?>
<!DOCTYPE svg PUBLIC "-//W3C//DTD SVG 1.1//EN"
 "http://www.w3.org/Graphics/SVG/1.1/DTD/svg11.dtd">
<!-- Generated by graphviz version 2.26.0 (20091210.2329)
 -->
<!-- Title: gs_config&lt; unsigned int &gt; Pages: 1 -->
<!--zoomable 1248 -->
<svg id="main" version="1.1" xmlns="http://www.w3.org/2000/svg" xmlns:xlink="http://www.w3.org/1999/xlink" xml:space="preserve" onload="init(evt)">
<style type="text/css"><![CDATA[
.edge:hover path { stroke: red; }
.edge:hover polygon { stroke: red; fill: red; }
]]></style>
<script type="text/javascript"><![CDATA[
var edges = document.getElementsByTagName('g');
if (edges && edges.length) {
  for (var i=0;i<edges.length;i++) {
    if (edges[i].id.substr(0,4)=='edge') {
      edges[i].setAttribute('class','edge');
    }
  }
}
]]></script>
        <defs>
                <circle id="rim" cx="0" cy="0" r="7"/>
                <circle id="rim2" cx="0" cy="0" r="3.5"/>
                <g id="zoomPlus">
                        <use xlink:href="#rim" fill="#404040">
                                <set attributeName="fill" to="#808080" begin="zoomplus.mouseover" end="zoomplus.mouseout"/>
                        </use>
                        <path d="M-4,0h8M0,-4v8" fill="none" stroke="white" stroke-width="1.5" pointer-events="none"/>
                </g>
                <g id="zoomMin">
                        <use xlink:href="#rim" fill="#404040">
                                <set attributeName="fill" to="#808080" begin="zoomminus.mouseover" end="zoomminus.mouseout"/>
                        </use>
                        <path d="M-4,0h8" fill="none" stroke="white" stroke-width="1.5" pointer-events="none"/>
                </g>
                <g id="dirArrow">
                        <path fill="none" stroke="white" stroke-width="1.5" d="M0,-3.0v7 M-2.5,-0.5L0,-3.0L2.5,-0.5"/>
                </g>
               <g id="resetDef">
                       <use xlink:href="#rim2" fill="#404040">
                               <set attributeName="fill" to="#808080" begin="reset.mouseover" end="reset.mouseout"/>
                       </use>
               </g>
        </defs>

<script type="text/javascript">
var viewWidth = 560;
var viewHeight = 1248;
var sectionId = 'dynsection-1';
</script>
<script xlink:href="svgpan.js"/>
<svg id="graph" class="graph">
<g id="viewport">
<title>gs_config&lt; unsigned int &gt;</title>
<polygon fill="white" stroke="white" points="-4,5 -4,-1244 557,-1244 557,5 -4,5"/>
<!-- Node1 -->
<g id="node1" class="node"><title>Node1</title>
<polygon fill="#bfbfbf" stroke="black" points="284.5,-1 284.5,-363 439.5,-363 439.5,-1 284.5,-1"/>
<text text-anchor="start" x="292.5" y="-350" font-family="Helvetica,sans-Serif" font-size="10.00">gs_config&lt; unsigned</text>
<text text-anchor="middle" x="362" y="-337" font-family="Helvetica,sans-Serif" font-size="10.00"> int &gt;</text>
<polyline fill="none" stroke="black" points="284.5,-329 439.5,-329 "/>
<text text-anchor="start" x="292.5" y="-316" font-family="Helvetica,sans-Serif" font-size="10.00">+ GS_CONFIG_HEAD</text>
<text text-anchor="start" x="292.5" y="-303" font-family="Helvetica,sans-Serif" font-size="10.00">+ GC_SPECIALISATIONS</text>
<text text-anchor="start" x="292.5" y="-290" font-family="Helvetica,sans-Serif" font-size="10.00">_ARITHMETIC_OPERATORS</text>
<text text-anchor="start" x="292.5" y="-277" font-family="Helvetica,sans-Serif" font-size="10.00">+ GC_SPECIALISATIONS</text>
<text text-anchor="start" x="292.5" y="-264" font-family="Helvetica,sans-Serif" font-size="10.00">_BINARY_OPERATORS</text>
<text text-anchor="start" x="292.5" y="-251" font-family="Helvetica,sans-Serif" font-size="10.00">+ GC_SPECIALISATIONS</text>
<text text-anchor="start" x="292.5" y="-238" font-family="Helvetica,sans-Serif" font-size="10.00">_INCREMENT_OPERATORS</text>
<text text-anchor="start" x="292.5" y="-225" font-family="Helvetica,sans-Serif" font-size="10.00">+ GC_SPECIALISATIONS</text>
<text text-anchor="start" x="292.5" y="-212" font-family="Helvetica,sans-Serif" font-size="10.00">_DECREMENT_OPERATORS</text>
<text text-anchor="start" x="292.5" y="-199" font-family="Helvetica,sans-Serif" font-size="10.00">+ GS_CONFIG_DELEGATE</text>
<polyline fill="none" stroke="black" points="284.5,-191 439.5,-191 "/>
<text text-anchor="start" x="292.5" y="-178" font-family="Helvetica,sans-Serif" font-size="10.00">+ gs_config()</text>
<text text-anchor="start" x="292.5" y="-165" font-family="Helvetica,sans-Serif" font-size="10.00">+ gs_config()</text>
<text text-anchor="start" x="292.5" y="-152" font-family="Helvetica,sans-Serif" font-size="10.00">+ getTypeString()</text>
<text text-anchor="start" x="292.5" y="-139" font-family="Helvetica,sans-Serif" font-size="10.00">+ getType()</text>
<text text-anchor="start" x="292.5" y="-126" font-family="Helvetica,sans-Serif" font-size="10.00">+ convertValueToString()</text>
<text text-anchor="start" x="292.5" y="-113" font-family="Helvetica,sans-Serif" font-size="10.00">+ gs_param()</text>
<text text-anchor="start" x="292.5" y="-100" font-family="Helvetica,sans-Serif" font-size="10.00">+ gs_param()</text>
<text text-anchor="start" x="292.5" y="-87" font-family="Helvetica,sans-Serif" font-size="10.00">+ getTypeString()</text>
<text text-anchor="start" x="292.5" y="-74" font-family="Helvetica,sans-Serif" font-size="10.00">+ getType()</text>
<text text-anchor="start" x="292.5" y="-61" font-family="Helvetica,sans-Serif" font-size="10.00">+ convertValueToString()</text>
<text text-anchor="start" x="292.5" y="-48" font-family="Helvetica,sans-Serif" font-size="10.00">+ static_convertValueToString()</text>
<text text-anchor="start" x="292.5" y="-35" font-family="Helvetica,sans-Serif" font-size="10.00">+ static_deserialize()</text>
<text text-anchor="start" x="292.5" y="-22" font-family="Helvetica,sans-Serif" font-size="10.00">+ static_convertValueToString()</text>
<text text-anchor="start" x="292.5" y="-9" font-family="Helvetica,sans-Serif" font-size="10.00">+ static_deserialize()</text>
</g>
<!-- Node2 -->
<g id="node2" class="node"><title>Node2</title>
<a xlink:href="classgs_1_1cnf_1_1gs__config__t.html" target="_top" xlink:title="{gs::cnf::gs_config\l_t\&lt; unsigned int \&gt;\n||+ operator+=()\l+ operator&#45;=()\l+ operator/=()\l+ operator*=()\l+ operator+()\l+ operator&#45;()\l+ operator/()\l+ operator*()\l+ operator%=()\l+ operator^=()\land 27 more...\l# mirror_callback()\l# convertStringToValue()\l}">
<polygon fill="white" stroke="black" points="299.5,-403 299.5,-635 424.5,-635 424.5,-403 299.5,-403"/>
<text text-anchor="start" x="307.5" y="-622" font-family="Helvetica,sans-Serif" font-size="10.00">gs::cnf::gs_config</text>
<text text-anchor="middle" x="362" y="-609" font-family="Helvetica,sans-Serif" font-size="10.00">_t&lt; unsigned int &gt;</text>
<polyline fill="none" stroke="black" points="299.5,-601 424.5,-601 "/>
<text text-anchor="middle" x="362" y="-588" font-family="Helvetica,sans-Serif" font-size="10.00"> </text>
<polyline fill="none" stroke="black" points="299.5,-580 424.5,-580 "/>
<text text-anchor="start" x="307.5" y="-567" font-family="Helvetica,sans-Serif" font-size="10.00">+ operator+=()</text>
<text text-anchor="start" x="307.5" y="-554" font-family="Helvetica,sans-Serif" font-size="10.00">+ operator&#45;=()</text>
<text text-anchor="start" x="307.5" y="-541" font-family="Helvetica,sans-Serif" font-size="10.00">+ operator/=()</text>
<text text-anchor="start" x="307.5" y="-528" font-family="Helvetica,sans-Serif" font-size="10.00">+ operator*=()</text>
<text text-anchor="start" x="307.5" y="-515" font-family="Helvetica,sans-Serif" font-size="10.00">+ operator+()</text>
<text text-anchor="start" x="307.5" y="-502" font-family="Helvetica,sans-Serif" font-size="10.00">+ operator&#45;()</text>
<text text-anchor="start" x="307.5" y="-489" font-family="Helvetica,sans-Serif" font-size="10.00">+ operator/()</text>
<text text-anchor="start" x="307.5" y="-476" font-family="Helvetica,sans-Serif" font-size="10.00">+ operator*()</text>
<text text-anchor="start" x="307.5" y="-463" font-family="Helvetica,sans-Serif" font-size="10.00">+ operator%=()</text>
<text text-anchor="start" x="307.5" y="-450" font-family="Helvetica,sans-Serif" font-size="10.00">+ operator^=()</text>
<text text-anchor="start" x="307.5" y="-437" font-family="Helvetica,sans-Serif" font-size="10.00">and 27 more...</text>
<text text-anchor="start" x="307.5" y="-424" font-family="Helvetica,sans-Serif" font-size="10.00"># mirror_callback()</text>
<text text-anchor="start" x="307.5" y="-411" font-family="Helvetica,sans-Serif" font-size="10.00"># convertStringToValue()</text>
</a>
</g>
<!-- Node2&#45;&gt;Node1 -->
<g id="edge2" class="edge"><title>Node2&#45;&gt;Node1</title>
<path fill="none" stroke="midnightblue" d="M355.44,-392.536C355.351,-382.851 355.293,-372.967 355.267,-363.025"/>
<polygon fill="none" stroke="midnightblue" points="351.941,-392.589 355.545,-402.552 358.94,-392.516 351.941,-392.589"/>
</g>
<!-- Node2&#45;&gt;Node1 -->
<g id="edge28" class="edge"><title>Node2&#45;&gt;Node1</title>
<path fill="none" stroke="midnightblue" d="M368.56,-392.536C368.649,-382.851 368.707,-372.967 368.733,-363.025"/>
<polygon fill="none" stroke="midnightblue" points="365.06,-392.516 368.455,-402.552 372.059,-392.589 365.06,-392.516"/>
</g>
<!-- Node2&#45;&gt;Node2 -->
<g id="edge16" class="edge"><title>Node2&#45;&gt;Node2</title>
<path fill="none" stroke="#404040" d="M424.72,-542.593C434.961,-539.216 442,-531.352 442,-519 442,-511.666 439.519,-505.914 435.359,-501.744"/>
<polygon fill="none" stroke="#404040" points="435.029,-501.548 427.827,-501.914 424.72,-495.407 431.922,-495.041 435.029,-501.548"/>
<text text-anchor="middle" x="481.5" y="-516.5" font-family="Helvetica,sans-Serif" font-size="10.00"> #m_mirror_param</text>
</g>
<!-- Node3 -->
<g id="node4" class="node"><title>Node3</title>
<a xlink:href="classgs_1_1cnf_1_1gs__config__base.html" target="_top" xlink:title="{gs::cnf::gs_config_base\n||+ gs_config_base()\l+ setProperty()\l+ getProperty()\l+ getProperties()\l+ deleteProperty()\l+ exists()\l+ add_properties()\l}">
<polygon fill="white" stroke="black" points="294.5,-982.5 294.5,-1123.5 415.5,-1123.5 415.5,-982.5 294.5,-982.5"/>
<text text-anchor="middle" x="355" y="-1110.5" font-family="Helvetica,sans-Serif" font-size="10.00">gs::cnf::gs_config_base</text>
<polyline fill="none" stroke="black" points="294.5,-1102.5 415.5,-1102.5 "/>
<text text-anchor="middle" x="355" y="-1089.5" font-family="Helvetica,sans-Serif" font-size="10.00"> </text>
<polyline fill="none" stroke="black" points="294.5,-1081.5 415.5,-1081.5 "/>
<text text-anchor="start" x="302.5" y="-1068.5" font-family="Helvetica,sans-Serif" font-size="10.00">+ gs_config_base()</text>
<text text-anchor="start" x="302.5" y="-1055.5" font-family="Helvetica,sans-Serif" font-size="10.00">+ setProperty()</text>
<text text-anchor="start" x="302.5" y="-1042.5" font-family="Helvetica,sans-Serif" font-size="10.00">+ getProperty()</text>
<text text-anchor="start" x="302.5" y="-1029.5" font-family="Helvetica,sans-Serif" font-size="10.00">+ getProperties()</text>
<text text-anchor="start" x="302.5" y="-1016.5" font-family="Helvetica,sans-Serif" font-size="10.00">+ deleteProperty()</text>
<text text-anchor="start" x="302.5" y="-1003.5" font-family="Helvetica,sans-Serif" font-size="10.00">+ exists()</text>
<text text-anchor="start" x="302.5" y="-990.5" font-family="Helvetica,sans-Serif" font-size="10.00">+ add_properties()</text>
</a>
</g>
<!-- Node3&#45;&gt;Node2 -->
<g id="edge4" class="edge"><title>Node3&#45;&gt;Node2</title>
<path fill="none" stroke="midnightblue" d="M356.059,-972.251C357.234,-882.571 359.142,-737.034 360.478,-635.135"/>
<polygon fill="none" stroke="midnightblue" points="352.557,-972.319 355.926,-982.365 359.557,-972.411 352.557,-972.319"/>
</g>
<!-- Node9 -->
<g id="node17" class="node"><title>Node9</title>
<a xlink:href="classgs_1_1cnf_1_1gs__config__t.html" target="_top" xlink:title="Template specialized base class for configuration parameters. ">
<polygon fill="white" stroke="black" points="194.5,-687 194.5,-919 319.5,-919 319.5,-687 194.5,-687"/>
<text text-anchor="start" x="202.5" y="-906" font-family="Helvetica,sans-Serif" font-size="10.00">gs::cnf::gs_config</text>
<text text-anchor="middle" x="257" y="-893" font-family="Helvetica,sans-Serif" font-size="10.00">_t&lt; T &gt;</text>
<polyline fill="none" stroke="black" points="194.5,-885 319.5,-885 "/>
<text text-anchor="middle" x="257" y="-872" font-family="Helvetica,sans-Serif" font-size="10.00"> </text>
<polyline fill="none" stroke="black" points="194.5,-864 319.5,-864 "/>
<text text-anchor="start" x="202.5" y="-851" font-family="Helvetica,sans-Serif" font-size="10.00">+ operator+=()</text>
<text text-anchor="start" x="202.5" y="-838" font-family="Helvetica,sans-Serif" font-size="10.00">+ operator&#45;=()</text>
<text text-anchor="start" x="202.5" y="-825" font-family="Helvetica,sans-Serif" font-size="10.00">+ operator/=()</text>
<text text-anchor="start" x="202.5" y="-812" font-family="Helvetica,sans-Serif" font-size="10.00">+ operator*=()</text>
<text text-anchor="start" x="202.5" y="-799" font-family="Helvetica,sans-Serif" font-size="10.00">+ operator+()</text>
<text text-anchor="start" x="202.5" y="-786" font-family="Helvetica,sans-Serif" font-size="10.00">+ operator&#45;()</text>
<text text-anchor="start" x="202.5" y="-773" font-family="Helvetica,sans-Serif" font-size="10.00">+ operator/()</text>
<text text-anchor="start" x="202.5" y="-760" font-family="Helvetica,sans-Serif" font-size="10.00">+ operator*()</text>
<text text-anchor="start" x="202.5" y="-747" font-family="Helvetica,sans-Serif" font-size="10.00">+ operator%=()</text>
<text text-anchor="start" x="202.5" y="-734" font-family="Helvetica,sans-Serif" font-size="10.00">+ operator^=()</text>
<text text-anchor="start" x="202.5" y="-721" font-family="Helvetica,sans-Serif" font-size="10.00">and 27 more...</text>
<text text-anchor="start" x="202.5" y="-708" font-family="Helvetica,sans-Serif" font-size="10.00"># mirror_callback()</text>
<text text-anchor="start" x="202.5" y="-695" font-family="Helvetica,sans-Serif" font-size="10.00"># convertStringToValue()</text>
</a>
</g>
<!-- Node3&#45;&gt;Node9 -->
<g id="edge20" class="edge"><title>Node3&#45;&gt;Node9</title>
<path fill="none" stroke="midnightblue" d="M334.663,-972.602C331.113,-960.882 327.197,-949.049 323,-938 320.637,-931.781 318.091,-925.462 315.42,-919.123"/>
<polygon fill="none" stroke="midnightblue" points="331.368,-973.802 337.558,-982.4 338.081,-971.819 331.368,-973.802"/>
</g>
<!-- Node4 -->
<g id="node6" class="node"><title>Node4</title>
<a xlink:href="classgs__param__base.html" target="_top" xlink:title="{gs_param_base\n||}">
<polygon fill="white" stroke="black" points="312,-1169.5 312,-1232.5 398,-1232.5 398,-1169.5 312,-1169.5"/>
<text text-anchor="middle" x="355" y="-1219.5" font-family="Helvetica,sans-Serif" font-size="10.00">gs_param_base</text>
<polyline fill="none" stroke="black" points="312,-1211.5 398,-1211.5 "/>
<text text-anchor="middle" x="355" y="-1198.5" font-family="Helvetica,sans-Serif" font-size="10.00"> </text>
<polyline fill="none" stroke="black" points="312,-1190.5 398,-1190.5 "/>
<text text-anchor="middle" x="355" y="-1177.5" font-family="Helvetica,sans-Serif" font-size="10.00"> </text>
</a>
</g>
<!-- Node4&#45;&gt;Node3 -->
<g id="edge6" class="edge"><title>Node4&#45;&gt;Node3</title>
<path fill="none" stroke="midnightblue" d="M355,-1159.05C355,-1147.99 355,-1135.75 355,-1123.63"/>
<polygon fill="none" stroke="midnightblue" points="351.5,-1159.25 355,-1169.25 358.5,-1159.25 351.5,-1159.25"/>
</g>
<!-- Node5 -->
<g id="node8" class="node"><title>Node5</title>
<a xlink:href="classunsigned_01int_01_5.html" target="_top" xlink:title="{unsigned int *\n||}">
<polygon fill="white" stroke="black" points="390,-771.5 390,-834.5 466,-834.5 466,-771.5 390,-771.5"/>
<text text-anchor="middle" x="428" y="-821.5" font-family="Helvetica,sans-Serif" font-size="10.00">unsigned int *</text>
<polyline fill="none" stroke="black" points="390,-813.5 466,-813.5 "/>
<text text-anchor="middle" x="428" y="-800.5" font-family="Helvetica,sans-Serif" font-size="10.00"> </text>
<polyline fill="none" stroke="black" points="390,-792.5 466,-792.5 "/>
<text text-anchor="middle" x="428" y="-779.5" font-family="Helvetica,sans-Serif" font-size="10.00"> </text>
</a>
</g>
<!-- Node5&#45;&gt;Node2 -->
<g id="edge8" class="edge"><title>Node5&#45;&gt;Node2</title>
<path fill="none" stroke="#404040" d="M420.621,-771.248C413.566,-740.889 402.453,-693.073 391.792,-647.196"/>
<polygon fill="none" stroke="#404040" points="391.737,-646.961 386.483,-642.022 389.021,-635.272 394.275,-640.211 391.737,-646.961"/>
<text text-anchor="middle" x="427.5" y="-658.5" font-family="Helvetica,sans-Serif" font-size="10.00"> #m_mirror_val</text>
</g>
<!-- Node6 -->
<g id="node10" class="node"><title>Node6</title>
<a xlink:title="STL class. ">
<polygon fill="white" stroke="#bfbfbf" points="17,-1021.5 17,-1084.5 77,-1084.5 77,-1021.5 17,-1021.5"/>
<text text-anchor="middle" x="47" y="-1071.5" font-family="Helvetica,sans-Serif" font-size="10.00">std::string</text>
<polyline fill="none" stroke="#bfbfbf" points="17,-1063.5 77,-1063.5 "/>
<text text-anchor="middle" x="47" y="-1050.5" font-family="Helvetica,sans-Serif" font-size="10.00"> </text>
<polyline fill="none" stroke="#bfbfbf" points="17,-1042.5 77,-1042.5 "/>
<text text-anchor="middle" x="47" y="-1029.5" font-family="Helvetica,sans-Serif" font-size="10.00"> </text>
</a>
</g>
<!-- Node6&#45;&gt;Node2 -->
<g id="edge10" class="edge"><title>Node6&#45;&gt;Node2</title>
<path fill="none" stroke="#404040" d="M46.0187,-1021.33C45.4365,-953.884 52.2108,-793.447 123,-686 163.253,-624.902 234.242,-579.56 288.427,-551.659"/>
<polygon fill="none" stroke="#404040" points="288.656,-551.544 292.213,-545.271 299.371,-546.141 295.814,-552.414 288.656,-551.544"/>
<text text-anchor="middle" x="154.5" y="-800.5" font-family="Helvetica,sans-Serif" font-size="10.00"> #return_string</text>
</g>
<!-- Node6&#45;&gt;Node9 -->
<g id="edge22" class="edge"><title>Node6&#45;&gt;Node9</title>
<path fill="none" stroke="#404040" d="M57.3333,-1021.49C66.2513,-997.194 80.7386,-963.536 100,-938 123.63,-906.672 155.654,-877.514 184.617,-854.373"/>
<polygon fill="none" stroke="#404040" points="184.87,-854.175 187.117,-847.323 194.306,-846.761 192.059,-853.613 184.87,-854.175"/>
<text text-anchor="middle" x="131.5" y="-948.5" font-family="Helvetica,sans-Serif" font-size="10.00"> #return_string</text>
</g>
<!-- Node7 -->
<g id="node12" class="node"><title>Node7</title>
<a xlink:title="STL class. ">
<polygon fill="white" stroke="#bfbfbf" points="-0.5,-1163 -0.5,-1239 94.5,-1239 94.5,-1163 -0.5,-1163"/>
<text text-anchor="start" x="7.5" y="-1226" font-family="Helvetica,sans-Serif" font-size="10.00">std::basic_string&lt;</text>
<text text-anchor="middle" x="47" y="-1213" font-family="Helvetica,sans-Serif" font-size="10.00"> char &gt;</text>
<polyline fill="none" stroke="#bfbfbf" points="-0.5,-1205 94.5,-1205 "/>
<text text-anchor="middle" x="47" y="-1192" font-family="Helvetica,sans-Serif" font-size="10.00"> </text>
<polyline fill="none" stroke="#bfbfbf" points="-0.5,-1184 94.5,-1184 "/>
<text text-anchor="middle" x="47" y="-1171" font-family="Helvetica,sans-Serif" font-size="10.00"> </text>
</a>
</g>
<!-- Node7&#45;&gt;Node6 -->
<g id="edge12" class="edge"><title>Node7&#45;&gt;Node6</title>
<path fill="none" stroke="midnightblue" d="M47,-1152.64C47,-1130.44 47,-1104.72 47,-1084.98"/>
<polygon fill="none" stroke="midnightblue" points="43.5001,-1152.89 47,-1162.89 50.5001,-1152.89 43.5001,-1152.89"/>
</g>
<!-- Node8 -->
<g id="node14" class="node"><title>Node8</title>
<a xlink:href="classunsigned_01int.html" target="_top" xlink:title="{unsigned int\n||}">
<polygon fill="white" stroke="black" points="483.5,-771.5 483.5,-834.5 552.5,-834.5 552.5,-771.5 483.5,-771.5"/>
<text text-anchor="middle" x="518" y="-821.5" font-family="Helvetica,sans-Serif" font-size="10.00">unsigned int</text>
<polyline fill="none" stroke="black" points="483.5,-813.5 552.5,-813.5 "/>
<text text-anchor="middle" x="518" y="-800.5" font-family="Helvetica,sans-Serif" font-size="10.00"> </text>
<polyline fill="none" stroke="black" points="483.5,-792.5 552.5,-792.5 "/>
<text text-anchor="middle" x="518" y="-779.5" font-family="Helvetica,sans-Serif" font-size="10.00"> </text>
</a>
</g>
<!-- Node8&#45;&gt;Node2 -->
<g id="edge14" class="edge"><title>Node8&#45;&gt;Node2</title>
<path fill="none" stroke="#404040" d="M509.522,-771.302C500.549,-740.311 484.807,-692.327 464,-654 454.773,-637.004 443.546,-619.821 431.957,-603.671"/>
<polygon fill="none" stroke="#404040" points="431.793,-603.447 425.023,-600.965 424.71,-593.761 431.48,-596.243 431.793,-603.447"/>
<text text-anchor="middle" x="494.5" y="-658.5" font-family="Helvetica,sans-Serif" font-size="10.00"> #my_value</text>
</g>
<!-- Node9&#45;&gt;Node2 -->
<g id="edge18" class="edge"><title>Node9&#45;&gt;Node2</title>
<path fill="none" stroke="orange" d="M267.19,-676.75C269.112,-668.962 271.364,-661.32 274,-654 280.351,-636.364 289.405,-618.712 299.313,-602.261"/>
<polygon fill="orange" stroke="orange" points="263.736,-676.152 264.928,-686.679 270.561,-677.707 263.736,-676.152"/>
<text text-anchor="middle" x="311" y="-658.5" font-family="Helvetica,sans-Serif" font-size="10.00"> &lt; unsigned int &gt;</text>
</g>
<!-- Node10 -->
<g id="node21" class="node"><title>Node10</title>
<polygon fill="white" stroke="#bfbfbf" points="106,-1021.5 106,-1084.5 204,-1084.5 204,-1021.5 106,-1021.5"/>
<text text-anchor="middle" x="155" y="-1071.5" font-family="Helvetica,sans-Serif" font-size="10.00">gs_config_t&lt; T &gt; *</text>
<polyline fill="none" stroke="#bfbfbf" points="106,-1063.5 204,-1063.5 "/>
<text text-anchor="middle" x="155" y="-1050.5" font-family="Helvetica,sans-Serif" font-size="10.00"> </text>
<polyline fill="none" stroke="#bfbfbf" points="106,-1042.5 204,-1042.5 "/>
<text text-anchor="middle" x="155" y="-1029.5" font-family="Helvetica,sans-Serif" font-size="10.00"> </text>
</g>
<!-- Node10&#45;&gt;Node9 -->
<g id="edge24" class="edge"><title>Node10&#45;&gt;Node9</title>
<path fill="none" stroke="#404040" d="M156.919,-1021.41C159.132,-997.814 163.874,-965.108 174,-938 178.116,-926.982 183.171,-915.879 188.738,-905.027"/>
<polygon fill="none" stroke="#404040" points="188.824,-904.865 188.111,-897.689 194.46,-894.271 195.174,-901.446 188.824,-904.865"/>
<text text-anchor="middle" x="213.5" y="-948.5" font-family="Helvetica,sans-Serif" font-size="10.00"> #m_mirror_param</text>
</g>
<!-- Node11 -->
<g id="node23" class="node"><title>Node11</title>
<polygon fill="white" stroke="#bfbfbf" points="242.5,-1021.5 242.5,-1084.5 271.5,-1084.5 271.5,-1021.5 242.5,-1021.5"/>
<text text-anchor="middle" x="257" y="-1071.5" font-family="Helvetica,sans-Serif" font-size="10.00">T</text>
<polyline fill="none" stroke="#bfbfbf" points="242.5,-1063.5 271.5,-1063.5 "/>
<text text-anchor="middle" x="257" y="-1050.5" font-family="Helvetica,sans-Serif" font-size="10.00"> </text>
<polyline fill="none" stroke="#bfbfbf" points="242.5,-1042.5 271.5,-1042.5 "/>
<text text-anchor="middle" x="257" y="-1029.5" font-family="Helvetica,sans-Serif" font-size="10.00"> </text>
</g>
<!-- Node11&#45;&gt;Node9 -->
<g id="edge26" class="edge"><title>Node11&#45;&gt;Node9</title>
<path fill="none" stroke="#404040" d="M257,-1021.34C257,-998.168 257,-965.058 257,-931.603"/>
<polygon fill="none" stroke="#404040" points="257,-931.28 253,-925.28 257,-919.28 261,-925.28 257,-931.28"/>
<text text-anchor="middle" x="289.5" y="-955" font-family="Helvetica,sans-Serif" font-size="10.00"> #m_mirror_val</text>
<text text-anchor="middle" x="289.5" y="-942" font-family="Helvetica,sans-Serif" font-size="10.00">#my_value</text>
</g>
</g>
</svg>
        <g id="navigator" transform="translate(0 0)" fill="#404254">
                <rect fill="#f2f5e9" fill-opacity="0.5" stroke="#606060" stroke-width=".5" x="0" y="0" width="60" height="60"/>
                <use id="zoomplus" xlink:href="#zoomPlus" x="17" y="9" onmousedown="handleZoom(evt,'in')"/>
                <use id="zoomminus" xlink:href="#zoomMin" x="42" y="9" onmousedown="handleZoom(evt,'out')"/>
                <use id="reset" xlink:href="#resetDef" x="30" y="36" onmousedown="handleReset()"/>
                <g id="arrowUp" xlink:href="#dirArrow" transform="translate(30 24)" onmousedown="handlePan(0,-1)">
                  <use xlink:href="#rim" fill="#404040">
                        <set attributeName="fill" to="#808080" begin="arrowUp.mouseover" end="arrowUp.mouseout"/>
                  </use>
                  <path fill="none" stroke="white" stroke-width="1.5" d="M0,-3.0v7 M-2.5,-0.5L0,-3.0L2.5,-0.5"/>
                </g>
                <g id="arrowRight" xlink:href="#dirArrow" transform="rotate(90) translate(36 -43)" onmousedown="handlePan(1,0)">
                  <use xlink:href="#rim" fill="#404040">
                        <set attributeName="fill" to="#808080" begin="arrowRight.mouseover" end="arrowRight.mouseout"/>
                  </use>
                  <path fill="none" stroke="white" stroke-width="1.5" d="M0,-3.0v7 M-2.5,-0.5L0,-3.0L2.5,-0.5"/>
                </g>
                <g id="arrowDown" xlink:href="#dirArrow" transform="rotate(180) translate(-30 -48)" onmousedown="handlePan(0,1)">
                  <use xlink:href="#rim" fill="#404040">
                        <set attributeName="fill" to="#808080" begin="arrowDown.mouseover" end="arrowDown.mouseout"/>
                  </use>
                  <path fill="none" stroke="white" stroke-width="1.5" d="M0,-3.0v7 M-2.5,-0.5L0,-3.0L2.5,-0.5"/>
                </g>
                <g id="arrowLeft" xlink:href="#dirArrow" transform="rotate(270) translate(-36 17)" onmousedown="handlePan(-1,0)">
                  <use xlink:href="#rim" fill="#404040">
                        <set attributeName="fill" to="#808080" begin="arrowLeft.mouseover" end="arrowLeft.mouseout"/>
                  </use>
                  <path fill="none" stroke="white" stroke-width="1.5" d="M0,-3.0v7 M-2.5,-0.5L0,-3.0L2.5,-0.5"/>
                </g>
        </g>
        <svg viewBox="0 0 15 15" width="100%" height="30px" preserveAspectRatio="xMaxYMin meet">
         <g id="arrow_out" transform="scale(0.3 0.3)">
          <a xlink:href="classgs__config_3_01unsigned_01int_01_4__coll__graph_org.svg" target="_base">
           <rect id="button" ry="5" rx="5" y="6" x="6" height="38" width="38"
                fill="#f2f5e9" fill-opacity="0.5" stroke="#606060" stroke-width="1.0"/>
           <path id="arrow"
             d="M 11.500037,31.436501 C 11.940474,20.09759 22.043105,11.32322 32.158766,21.979434 L 37.068811,17.246167 C 37.068811,17.246167 37.088388,32 37.088388,32 L 22.160133,31.978069 C 22.160133,31.978069 26.997745,27.140456 26.997745,27.140456 C 18.528582,18.264221 13.291696,25.230495 11.500037,31.436501 z"
             style="fill:#404040;"/>
          </a>
         </g>
        </svg>
</svg>
