<?xml version="1.0" encoding="UTF-8" standalone="no"?>
<!DOCTYPE svg PUBLIC "-//W3C//DTD SVG 1.1//EN"
 "http://www.w3.org/Graphics/SVG/1.1/DTD/svg11.dtd">
<!-- Generated by graphviz version 2.26.0 (20091210.2329)
 -->
<!-- Title: core.waf.repo.repo.work Pages: 1 -->
<svg width="490pt" height="213pt"
 viewBox="0.00 0.00 490.00 212.57" xmlns="http://www.w3.org/2000/svg" xmlns:xlink="http://www.w3.org/1999/xlink">
<g id="graph1" class="graph" transform="scale(1 1) rotate(0) translate(4 208.565)">
<title>core.waf.repo.repo.work</title>
<polygon fill="white" stroke="white" points="-4,5 -4,-208.565 487,-208.565 487,5 -4,5"/>
<!-- Node1 -->
<g id="node1" class="node"><title>Node1</title>
<polygon fill="#bfbfbf" stroke="black" points="0,-83.0651 0,-104.065 122,-104.065 122,-83.0651 0,-83.0651"/>
<text text-anchor="middle" x="61" y="-91.0651" font-family="Helvetica,sans-Serif" font-size="10.00">core.waf.repo.repo.work</text>
</g>
<!-- Node2 -->
<g id="node3" class="node"><title>Node2</title>
<a xlink:href="classcore_1_1waf_1_1repo_1_1repo.html#aa06459a48fab0b7973a46f1c8877dd19" target="_top" xlink:title="core.waf.repo.repo.add_repo">
<polygon fill="white" stroke="black" points="162,-183.065 162,-204.065 302,-204.065 302,-183.065 162,-183.065"/>
<text text-anchor="middle" x="232" y="-191.065" font-family="Helvetica,sans-Serif" font-size="10.00">core.waf.repo.repo.add_repo</text>
</a>
</g>
<!-- Node1&#45;&gt;Node2 -->
<g id="edge2" class="edge"><title>Node1&#45;&gt;Node2</title>
<path fill="none" stroke="midnightblue" d="M70.9655,-104.336C87.4418,-121.506 122.121,-155.032 158,-173.565 162.353,-175.814 166.984,-177.829 171.723,-179.632"/>
<polygon fill="midnightblue" stroke="midnightblue" points="170.954,-183.069 181.549,-183.04 173.248,-176.456 170.954,-183.069"/>
</g>
<!-- Node4 -->
<g id="node7" class="node"><title>Node4</title>
<a xlink:href="classcore_1_1waf_1_1repo_1_1repo.html#a05d13b84c5387f6478d3736d269e03fb" target="_top" xlink:title="core.waf.repo.repo.del_repo">
<polygon fill="white" stroke="black" points="163.5,-143.065 163.5,-164.065 300.5,-164.065 300.5,-143.065 163.5,-143.065"/>
<text text-anchor="middle" x="232" y="-151.065" font-family="Helvetica,sans-Serif" font-size="10.00">core.waf.repo.repo.del_repo</text>
</a>
</g>
<!-- Node1&#45;&gt;Node4 -->
<g id="edge6" class="edge"><title>Node1&#45;&gt;Node4</title>
<path fill="none" stroke="midnightblue" d="M84.203,-104.111C103.658,-112.715 132.301,-124.833 158,-133.565 164.93,-135.92 172.299,-138.186 179.596,-140.293"/>
<polygon fill="midnightblue" stroke="midnightblue" points="178.883,-143.728 189.457,-143.061 180.775,-136.988 178.883,-143.728"/>
</g>
<!-- Node5 -->
<g id="node9" class="node"><title>Node5</title>
<a xlink:href="classcore_1_1waf_1_1repo_1_1repo.html#a437bcae5519d30dd5c8697e431b00187" target="_top" xlink:title="core.waf.repo.repo.git_cmd">
<polygon fill="white" stroke="black" points="344.5,-23.0651 344.5,-44.0651 479.5,-44.0651 479.5,-23.0651 344.5,-23.0651"/>
<text text-anchor="middle" x="412" y="-31.0651" font-family="Helvetica,sans-Serif" font-size="10.00">core.waf.repo.repo.git_cmd</text>
</a>
</g>
<!-- Node1&#45;&gt;Node5 -->
<g id="edge8" class="edge"><title>Node1&#45;&gt;Node5</title>
<path fill="none" stroke="midnightblue" d="M69.476,-82.86C84.8053,-64.4697 119.172,-27.5111 158,-13.5651 229.616,12.1575 319.682,-5.72251 371.061,-20.2193"/>
<polygon fill="midnightblue" stroke="midnightblue" points="370.224,-23.621 380.804,-23.0597 372.183,-16.9007 370.224,-23.621"/>
</g>
<!-- Node6 -->
<g id="node11" class="node"><title>Node6</title>
<a xlink:href="classcore_1_1waf_1_1repo_1_1repo.html#a9e6826cc3c7c3769ce685451f6272e9d" target="_top" xlink:title="core.waf.repo.repo.mv_cmd">
<polygon fill="white" stroke="black" points="163,-63.0651 163,-84.0651 301,-84.0651 301,-63.0651 163,-63.0651"/>
<text text-anchor="middle" x="232" y="-71.0651" font-family="Helvetica,sans-Serif" font-size="10.00">core.waf.repo.repo.mv_cmd</text>
</a>
</g>
<!-- Node1&#45;&gt;Node6 -->
<g id="edge10" class="edge"><title>Node1&#45;&gt;Node6</title>
<path fill="none" stroke="midnightblue" d="M122.252,-86.4012C132.099,-85.2495 142.413,-84.0431 152.612,-82.8503"/>
<polygon fill="midnightblue" stroke="midnightblue" points="153.223,-86.3027 162.749,-81.6647 152.41,-79.3501 153.223,-86.3027"/>
</g>
<!-- Node7 -->
<g id="node14" class="node"><title>Node7</title>
<a xlink:href="classcore_1_1waf_1_1repo_1_1repo.html#abfc599d97b2fe5676c8a50ee2f567056" target="_top" xlink:title="core.waf.repo.repo.show_help">
<polygon fill="white" stroke="black" points="158.5,-23.0651 158.5,-44.0651 305.5,-44.0651 305.5,-23.0651 158.5,-23.0651"/>
<text text-anchor="middle" x="232" y="-31.0651" font-family="Helvetica,sans-Serif" font-size="10.00">core.waf.repo.repo.show_help</text>
</a>
</g>
<!-- Node1&#45;&gt;Node7 -->
<g id="edge14" class="edge"><title>Node1&#45;&gt;Node7</title>
<path fill="none" stroke="midnightblue" d="M84.203,-83.0193C103.658,-74.415 132.301,-62.2972 158,-53.5651 164.93,-51.2103 172.299,-48.9442 179.596,-46.8373"/>
<polygon fill="midnightblue" stroke="midnightblue" points="180.775,-50.1419 189.457,-44.0697 178.883,-43.4023 180.775,-50.1419"/>
</g>
<!-- Node8 -->
<g id="node16" class="node"><title>Node8</title>
<a xlink:href="classcore_1_1waf_1_1repo_1_1repo.html#a864b3114a727f410a95365c813f2f5b0" target="_top" xlink:title="core.waf.repo.repo.show_repo">
<polygon fill="white" stroke="black" points="158,-103.065 158,-124.065 306,-124.065 306,-103.065 158,-103.065"/>
<text text-anchor="middle" x="232" y="-111.065" font-family="Helvetica,sans-Serif" font-size="10.00">core.waf.repo.repo.show_repo</text>
</a>
</g>
<!-- Node1&#45;&gt;Node8 -->
<g id="edge16" class="edge"><title>Node1&#45;&gt;Node8</title>
<path fill="none" stroke="midnightblue" d="M122.252,-100.729C130.518,-101.696 139.113,-102.701 147.692,-103.705"/>
<polygon fill="midnightblue" stroke="midnightblue" points="147.396,-107.194 157.735,-104.879 148.209,-100.241 147.396,-107.194"/>
</g>
<!-- Node3 -->
<g id="node5" class="node"><title>Node3</title>
<a xlink:href="namespacecore_1_1waf_1_1repo.html#aba8dac6e9a55ff63b780cf4316afdfd5" target="_top" xlink:title="core.waf.repo.get_repo_vals">
<polygon fill="white" stroke="black" points="342,-143.065 342,-164.065 482,-164.065 482,-143.065 342,-143.065"/>
<text text-anchor="middle" x="412" y="-151.065" font-family="Helvetica,sans-Serif" font-size="10.00">core.waf.repo.get_repo_vals</text>
</a>
</g>
<!-- Node2&#45;&gt;Node3 -->
<g id="edge4" class="edge"><title>Node2&#45;&gt;Node3</title>
<path fill="none" stroke="midnightblue" d="M279.293,-183.056C302.455,-177.909 330.529,-171.67 354.88,-166.258"/>
<polygon fill="midnightblue" stroke="midnightblue" points="355.708,-169.66 364.711,-164.074 354.19,-162.827 355.708,-169.66"/>
</g>
<!-- Node6&#45;&gt;Node5 -->
<g id="edge12" class="edge"><title>Node6&#45;&gt;Node5</title>
<path fill="none" stroke="midnightblue" d="M279.293,-63.0556C302.455,-57.9086 330.529,-51.6698 354.88,-46.2584"/>
<polygon fill="midnightblue" stroke="midnightblue" points="355.708,-49.6599 364.711,-44.0739 354.19,-42.8266 355.708,-49.6599"/>
</g>
<!-- Node8&#45;&gt;Node3 -->
<g id="edge18" class="edge"><title>Node8&#45;&gt;Node3</title>
<path fill="none" stroke="midnightblue" d="M279.293,-124.075C302.455,-129.222 330.529,-135.461 354.88,-140.872"/>
<polygon fill="midnightblue" stroke="midnightblue" points="354.19,-144.304 364.711,-143.056 355.708,-137.47 354.19,-144.304"/>
</g>
</g>
</svg>
