<?xml version="1.0" encoding="UTF-8" standalone="no"?>
<!DOCTYPE svg PUBLIC "-//W3C//DTD SVG 1.1//EN"
 "http://www.w3.org/Graphics/SVG/1.1/DTD/svg11.dtd">
<!-- Generated by graphviz version 2.38.0 (20140413.2041)
 -->
<!-- Title: sr_signal::signal_infield&lt; TYPE, MODULE &gt; Pages: 1 -->
<svg width="240pt" height="430pt"
 viewBox="0.00 0.00 239.50 430.00" xmlns="http://www.w3.org/2000/svg" xmlns:xlink="http://www.w3.org/1999/xlink">
<g id="graph0" class="graph" transform="scale(1 1) rotate(0) translate(4 426)">
<title>sr_signal::signal_infield&lt; TYPE, MODULE &gt;</title>
<polygon fill="white" stroke="none" points="-4,4 -4,-426 235.5,-426 235.5,4 -4,4"/>
<!-- Node1 -->
<g id="node1" class="node"><title>Node1</title>
<polygon fill="#bfbfbf" stroke="black" points="59.5,-0.5 59.5,-156.5 177.5,-156.5 177.5,-0.5 59.5,-0.5"/>
<text text-anchor="start" x="67.5" y="-144.5" font-family="Helvetica,sans-Serif" font-size="10.00">sr_signal::signal_infield</text>
<text text-anchor="middle" x="118.5" y="-133.5" font-family="Helvetica,sans-Serif" font-size="10.00">&lt; TYPE, MODULE &gt;</text>
<polyline fill="none" stroke="black" points="59.5,-126.5 177.5,-126.5 "/>
<text text-anchor="middle" x="118.5" y="-114.5" font-family="Helvetica,sans-Serif" font-size="10.00"> </text>
<polyline fill="none" stroke="black" points="59.5,-107.5 177.5,-107.5 "/>
<text text-anchor="start" x="67.5" y="-95.5" font-family="Helvetica,sans-Serif" font-size="10.00">+ signal_infield()</text>
<text text-anchor="start" x="67.5" y="-84.5" font-family="Helvetica,sans-Serif" font-size="10.00">+ signal_infield()</text>
<text text-anchor="start" x="67.5" y="-73.5" font-family="Helvetica,sans-Serif" font-size="10.00">+ ~signal_infield()</text>
<text text-anchor="start" x="67.5" y="-62.5" font-family="Helvetica,sans-Serif" font-size="10.00">+ bind()</text>
<text text-anchor="start" x="67.5" y="-51.5" font-family="Helvetica,sans-Serif" font-size="10.00">+ update()</text>
<text text-anchor="start" x="67.5" y="-40.5" font-family="Helvetica,sans-Serif" font-size="10.00">+ read()</text>
<text text-anchor="start" x="67.5" y="-29.5" font-family="Helvetica,sans-Serif" font-size="10.00">+ read()</text>
<text text-anchor="start" x="67.5" y="-18.5" font-family="Helvetica,sans-Serif" font-size="10.00">+ operator[]()</text>
<text text-anchor="start" x="67.5" y="-7.5" font-family="Helvetica,sans-Serif" font-size="10.00">+ operator()()</text>
</g>
<!-- Node2 -->
<g id="node2" class="node"><title>Node2</title>
<g id="a_node2"><a xlink:href="classsr__signal_1_1signal__base.html" target="_top" xlink:title="{sr_signal::signal_base\l\&lt; TYPE, MODULE \&gt;\n||+ signal_base()\l+ ~signal_base()\l# get_module()\l}">
<polygon fill="white" stroke="black" points="0,-193.5 0,-283.5 113,-283.5 113,-193.5 0,-193.5"/>
<text text-anchor="start" x="8" y="-271.5" font-family="Helvetica,sans-Serif" font-size="10.00">sr_signal::signal_base</text>
<text text-anchor="middle" x="56.5" y="-260.5" font-family="Helvetica,sans-Serif" font-size="10.00">&lt; TYPE, MODULE &gt;</text>
<polyline fill="none" stroke="black" points="0,-253.5 113,-253.5 "/>
<text text-anchor="middle" x="56.5" y="-241.5" font-family="Helvetica,sans-Serif" font-size="10.00"> </text>
<polyline fill="none" stroke="black" points="0,-234.5 113,-234.5 "/>
<text text-anchor="start" x="8" y="-222.5" font-family="Helvetica,sans-Serif" font-size="10.00">+ signal_base()</text>
<text text-anchor="start" x="8" y="-211.5" font-family="Helvetica,sans-Serif" font-size="10.00">+ ~signal_base()</text>
<text text-anchor="start" x="8" y="-200.5" font-family="Helvetica,sans-Serif" font-size="10.00"># get_module()</text>
</a>
</g>
</g>
<!-- Node2&#45;&gt;Node1 -->
<g id="edge1" class="edge"><title>Node2&#45;&gt;Node1</title>
<path fill="none" stroke="midnightblue" d="M77.4615,-184.082C80.9403,-175.217 84.6082,-165.869 88.262,-156.558"/>
<polygon fill="none" stroke="midnightblue" points="74.1653,-182.901 73.7705,-193.488 80.6815,-185.458 74.1653,-182.901"/>
</g>
<!-- Node3 -->
<g id="node3" class="node"><title>Node3</title>
<polygon fill="white" stroke="#bfbfbf" points="27,-342.5 27,-399.5 86,-399.5 86,-342.5 27,-342.5"/>
<text text-anchor="middle" x="56.5" y="-387.5" font-family="Helvetica,sans-Serif" font-size="10.00">sc_object</text>
<polyline fill="none" stroke="#bfbfbf" points="27,-380.5 86,-380.5 "/>
<text text-anchor="middle" x="56.5" y="-368.5" font-family="Helvetica,sans-Serif" font-size="10.00"> </text>
<polyline fill="none" stroke="#bfbfbf" points="27,-361.5 86,-361.5 "/>
<text text-anchor="middle" x="56.5" y="-349.5" font-family="Helvetica,sans-Serif" font-size="10.00"> </text>
</g>
<!-- Node3&#45;&gt;Node2 -->
<g id="edge2" class="edge"><title>Node3&#45;&gt;Node2</title>
<path fill="none" stroke="midnightblue" d="M56.5,-332.233C56.5,-317.019 56.5,-299.364 56.5,-283.568"/>
<polygon fill="none" stroke="midnightblue" points="53.0001,-332.324 56.5,-342.324 60.0001,-332.324 53.0001,-332.324"/>
</g>
<!-- Node4 -->
<g id="node4" class="node"><title>Node4</title>
<g id="a_node4"><a xlink:href="singletonsr__signal_1_1signal__in__if.html" target="_top" xlink:title="{sr_signal::signal_in\l_if\&lt; TYPE \&gt;\n||+ ~signal_in_if()\l+ bind()\l+ update()\l}">
<polygon fill="white" stroke="black" points="131.5,-193.5 131.5,-283.5 231.5,-283.5 231.5,-193.5 131.5,-193.5"/>
<text text-anchor="start" x="139.5" y="-271.5" font-family="Helvetica,sans-Serif" font-size="10.00">sr_signal::signal_in</text>
<text text-anchor="middle" x="181.5" y="-260.5" font-family="Helvetica,sans-Serif" font-size="10.00">_if&lt; TYPE &gt;</text>
<polyline fill="none" stroke="black" points="131.5,-253.5 231.5,-253.5 "/>
<text text-anchor="middle" x="181.5" y="-241.5" font-family="Helvetica,sans-Serif" font-size="10.00"> </text>
<polyline fill="none" stroke="black" points="131.5,-234.5 231.5,-234.5 "/>
<text text-anchor="start" x="139.5" y="-222.5" font-family="Helvetica,sans-Serif" font-size="10.00">+ ~signal_in_if()</text>
<text text-anchor="start" x="139.5" y="-211.5" font-family="Helvetica,sans-Serif" font-size="10.00">+ bind()</text>
<text text-anchor="start" x="139.5" y="-200.5" font-family="Helvetica,sans-Serif" font-size="10.00">+ update()</text>
</a>
</g>
</g>
<!-- Node4&#45;&gt;Node1 -->
<g id="edge3" class="edge"><title>Node4&#45;&gt;Node1</title>
<path fill="none" stroke="midnightblue" d="M160.2,-184.082C156.665,-175.217 152.938,-165.869 149.226,-156.558"/>
<polygon fill="none" stroke="midnightblue" points="156.996,-185.496 163.951,-193.488 163.498,-182.903 156.996,-185.496"/>
</g>
<!-- Node5 -->
<g id="node5" class="node"><title>Node5</title>
<g id="a_node5"><a xlink:href="classsr__signal_1_1signal__if.html" target="_top" xlink:title="{sr_signal::signal_if\l\&lt; TYPE \&gt;\n|# m_value\l|+ ~signal_if()\l+ read()\l+ operator TYPE()\l+ operator==()\l}">
<polygon fill="white" stroke="black" points="132.5,-320.5 132.5,-421.5 230.5,-421.5 230.5,-320.5 132.5,-320.5"/>
<text text-anchor="start" x="140.5" y="-409.5" font-family="Helvetica,sans-Serif" font-size="10.00">sr_signal::signal_if</text>
<text text-anchor="middle" x="181.5" y="-398.5" font-family="Helvetica,sans-Serif" font-size="10.00">&lt; TYPE &gt;</text>
<polyline fill="none" stroke="black" points="132.5,-391.5 230.5,-391.5 "/>
<text text-anchor="start" x="140.5" y="-379.5" font-family="Helvetica,sans-Serif" font-size="10.00"># m_value</text>
<polyline fill="none" stroke="black" points="132.5,-372.5 230.5,-372.5 "/>
<text text-anchor="start" x="140.5" y="-360.5" font-family="Helvetica,sans-Serif" font-size="10.00">+ ~signal_if()</text>
<text text-anchor="start" x="140.5" y="-349.5" font-family="Helvetica,sans-Serif" font-size="10.00">+ read()</text>
<text text-anchor="start" x="140.5" y="-338.5" font-family="Helvetica,sans-Serif" font-size="10.00">+ operator TYPE()</text>
<text text-anchor="start" x="140.5" y="-327.5" font-family="Helvetica,sans-Serif" font-size="10.00">+ operator==()</text>
</a>
</g>
</g>
<!-- Node5&#45;&gt;Node4 -->
<g id="edge4" class="edge"><title>Node5&#45;&gt;Node4</title>
<path fill="none" stroke="midnightblue" d="M181.5,-310.232C181.5,-301.236 181.5,-292.101 181.5,-283.516"/>
<polygon fill="none" stroke="midnightblue" points="178,-310.291 181.5,-320.291 185,-310.291 178,-310.291"/>
</g>
</g>
</svg>
