<?xml version="1.0" encoding="UTF-8" standalone="no"?>
<!DOCTYPE svg PUBLIC "-//W3C//DTD SVG 1.1//EN"
 "http://www.w3.org/Graphics/SVG/1.1/DTD/svg11.dtd">
<!-- Generated by graphviz version 2.26.0 (20091210.2329)
 -->
<!-- Title: sc_register_example::sc_register_bank_base::scireg_get_byte_width Pages: 1 -->
<svg width="316pt" height="56pt"
 viewBox="0.00 0.00 316.00 56.00" xmlns="http://www.w3.org/2000/svg" xmlns:xlink="http://www.w3.org/1999/xlink">
<g id="graph1" class="graph" transform="scale(1 1) rotate(0) translate(4 52)">
<title>sc_register_example::sc_register_bank_base::scireg_get_byte_width</title>
<polygon fill="white" stroke="white" points="-4,5 -4,-52 313,-52 313,5 -4,5"/>
<!-- Node1 -->
<g id="node1" class="node"><title>Node1</title>
<polygon fill="#bfbfbf" stroke="black" points="0.5,-0.5 0.5,-47.5 123.5,-47.5 123.5,-0.5 0.5,-0.5"/>
<text text-anchor="start" x="8.5" y="-34.5" font-family="Helvetica,sans-Serif" font-size="10.00">sc_register_example</text>
<text text-anchor="start" x="8.5" y="-21.5" font-family="Helvetica,sans-Serif" font-size="10.00">::sc_register_bank_base</text>
<text text-anchor="middle" x="62" y="-8.5" font-family="Helvetica,sans-Serif" font-size="10.00">::scireg_get_byte_width</text>
</g>
<!-- Node2 -->
<g id="node3" class="node"><title>Node2</title>
<a xlink:href="classsc__register__example_1_1sc__register__bank__base.html#a0b9e837a6421cee9d277e26270df0815" target="_top" xlink:title="sc_register_example\l::sc_register_bank_base::size">
<polygon fill="white" stroke="black" points="160.5,-7 160.5,-41 307.5,-41 307.5,-7 160.5,-7"/>
<text text-anchor="start" x="168.5" y="-28" font-family="Helvetica,sans-Serif" font-size="10.00">sc_register_example</text>
<text text-anchor="middle" x="234" y="-15" font-family="Helvetica,sans-Serif" font-size="10.00">::sc_register_bank_base::size</text>
</a>
</g>
<!-- Node1&#45;&gt;Node2 -->
<g id="edge2" class="edge"><title>Node1&#45;&gt;Node2</title>
<path fill="none" stroke="midnightblue" d="M123.61,-24C132.295,-24 141.341,-24 150.353,-24"/>
<polygon fill="midnightblue" stroke="midnightblue" points="150.491,-27.5001 160.491,-24 150.491,-20.5001 150.491,-27.5001"/>
</g>
</g>
</svg>
