<?xml version="1.0" encoding="UTF-8" standalone="no"?>
<!DOCTYPE svg PUBLIC "-//W3C//DTD SVG 1.1//EN"
 "http://www.w3.org/Graphics/SVG/1.1/DTD/svg11.dtd">
<!-- Generated by graphviz version 2.26.0 (20091210.2329)
 -->
<!-- Title: APBCtrl Pages: 1 -->
<svg width="498pt" height="1734pt"
 viewBox="0.00 0.00 498.00 1734.00" xmlns="http://www.w3.org/2000/svg" xmlns:xlink="http://www.w3.org/1999/xlink">
<g id="graph1" class="graph" transform="scale(1 1) rotate(0) translate(4 1730)">
<title>APBCtrl</title>
<polygon fill="white" stroke="white" points="-4,5 -4,-1730 495,-1730 495,5 -4,5"/>
<!-- Node1 -->
<g id="node1" class="node"><title>Node1</title>
<polygon fill="#bfbfbf" stroke="black" points="171.5,-0.5 171.5,-193.5 308.5,-193.5 308.5,-0.5 171.5,-0.5"/>
<text text-anchor="middle" x="240" y="-180.5" font-family="Helvetica,sans-Serif" font-size="10.00">APBCtrl</text>
<polyline fill="none" stroke="black" points="171.5,-172.5 308.5,-172.5 "/>
<text text-anchor="start" x="179.5" y="-159.5" font-family="Helvetica,sans-Serif" font-size="10.00">+ apb</text>
<polyline fill="none" stroke="black" points="171.5,-151.5 308.5,-151.5 "/>
<text text-anchor="start" x="179.5" y="-138.5" font-family="Helvetica,sans-Serif" font-size="10.00">+ GC_HAS_CALLBACKS()</text>
<text text-anchor="start" x="179.5" y="-125.5" font-family="Helvetica,sans-Serif" font-size="10.00">+ SC_HAS_PROCESS()</text>
<text text-anchor="start" x="179.5" y="-112.5" font-family="Helvetica,sans-Serif" font-size="10.00">+ exec_func()</text>
<text text-anchor="start" x="179.5" y="-99.5" font-family="Helvetica,sans-Serif" font-size="10.00">+ setAddressMap()</text>
<text text-anchor="start" x="179.5" y="-86.5" font-family="Helvetica,sans-Serif" font-size="10.00">+ get_index()</text>
<text text-anchor="start" x="179.5" y="-73.5" font-family="Helvetica,sans-Serif" font-size="10.00">+ getPNPReg()</text>
<text text-anchor="start" x="179.5" y="-60.5" font-family="Helvetica,sans-Serif" font-size="10.00">+ dorst()</text>
<text text-anchor="start" x="179.5" y="-47.5" font-family="Helvetica,sans-Serif" font-size="10.00">+ get_clock()</text>
<text text-anchor="start" x="179.5" y="-34.5" font-family="Helvetica,sans-Serif" font-size="10.00">+ checkMemMap()</text>
<text text-anchor="start" x="179.5" y="-21.5" font-family="Helvetica,sans-Serif" font-size="10.00">+ APBCtrl()</text>
<text text-anchor="start" x="179.5" y="-8.5" font-family="Helvetica,sans-Serif" font-size="10.00">and 9 more...</text>
</g>
<!-- Node2 -->
<g id="node2" class="node"><title>Node2</title>
<a xlink:href="classAHBSlave.html" target="_top" xlink:title="{AHBSlave\&lt; DefaultBase \&gt;\n|+ ahb\l+ m_RequestPEQ\l+ m_ResponsePEQ\l# m_reads\l# m_writes\l|+ SC_HAS_PROCESS()\l+ AHBSlave()\l+ ~AHBSlave()\l+ exec_func()\l+ get_clock()\l+ b_transport()\l+ transport_dbg()\l+ nb_transport_fw()\l+ requestThread()\l+ responseThread()\l+ transport_statistics()\l+ print_transport_statistics()\l}">
<polygon fill="white" stroke="black" points="60.5,-233 60.5,-491 199.5,-491 199.5,-233 60.5,-233"/>
<text text-anchor="middle" x="130" y="-478" font-family="Helvetica,sans-Serif" font-size="10.00">AHBSlave&lt; DefaultBase &gt;</text>
<polyline fill="none" stroke="black" points="60.5,-470 199.5,-470 "/>
<text text-anchor="start" x="68.5" y="-457" font-family="Helvetica,sans-Serif" font-size="10.00">+ ahb</text>
<text text-anchor="start" x="68.5" y="-444" font-family="Helvetica,sans-Serif" font-size="10.00">+ m_RequestPEQ</text>
<text text-anchor="start" x="68.5" y="-431" font-family="Helvetica,sans-Serif" font-size="10.00">+ m_ResponsePEQ</text>
<text text-anchor="start" x="68.5" y="-418" font-family="Helvetica,sans-Serif" font-size="10.00"># m_reads</text>
<text text-anchor="start" x="68.5" y="-405" font-family="Helvetica,sans-Serif" font-size="10.00"># m_writes</text>
<polyline fill="none" stroke="black" points="60.5,-397 199.5,-397 "/>
<text text-anchor="start" x="68.5" y="-384" font-family="Helvetica,sans-Serif" font-size="10.00">+ SC_HAS_PROCESS()</text>
<text text-anchor="start" x="68.5" y="-371" font-family="Helvetica,sans-Serif" font-size="10.00">+ AHBSlave()</text>
<text text-anchor="start" x="68.5" y="-358" font-family="Helvetica,sans-Serif" font-size="10.00">+ ~AHBSlave()</text>
<text text-anchor="start" x="68.5" y="-345" font-family="Helvetica,sans-Serif" font-size="10.00">+ exec_func()</text>
<text text-anchor="start" x="68.5" y="-332" font-family="Helvetica,sans-Serif" font-size="10.00">+ get_clock()</text>
<text text-anchor="start" x="68.5" y="-319" font-family="Helvetica,sans-Serif" font-size="10.00">+ b_transport()</text>
<text text-anchor="start" x="68.5" y="-306" font-family="Helvetica,sans-Serif" font-size="10.00">+ transport_dbg()</text>
<text text-anchor="start" x="68.5" y="-293" font-family="Helvetica,sans-Serif" font-size="10.00">+ nb_transport_fw()</text>
<text text-anchor="start" x="68.5" y="-280" font-family="Helvetica,sans-Serif" font-size="10.00">+ requestThread()</text>
<text text-anchor="start" x="68.5" y="-267" font-family="Helvetica,sans-Serif" font-size="10.00">+ responseThread()</text>
<text text-anchor="start" x="68.5" y="-254" font-family="Helvetica,sans-Serif" font-size="10.00">+ transport_statistics()</text>
<text text-anchor="start" x="68.5" y="-241" font-family="Helvetica,sans-Serif" font-size="10.00">+ print_transport_statistics()</text>
</a>
</g>
<!-- Node2&#45;&gt;Node1 -->
<g id="edge2" class="edge"><title>Node2&#45;&gt;Node1</title>
<path fill="none" stroke="midnightblue" d="M187.43,-223.645C191.653,-213.472 195.857,-203.345 199.941,-193.505"/>
<polygon fill="none" stroke="midnightblue" points="184.151,-222.416 183.55,-232.993 190.616,-225.099 184.151,-222.416"/>
</g>
<!-- Node3 -->
<g id="node4" class="node"><title>Node3</title>
<a xlink:href="classAHBDevice.html" target="_top" xlink:title="{AHBDevice\&lt; DefaultBase \&gt;\n|# m_register\l# g_bars\l# g_bar0\l# g_bar1\l# g_bar2\l# g_bar3\l# g_hindex\l# g_hvendorid\l# g_hdeviceid\l# g_hversion\land 21 more...\l|+ AHBDevice()\l+ AHBDevice()\l+ init()\l+ init_ahb_generics()\l+ ~AHBDevice()\l+ get_ahb_device_id()\l+ get_ahb_vendor_id()\l+ get_ahb_device_info()\l+ get_ahb_base_addr_()\l+ get_ahb_base_addr()\land 13 more...\l}">
<polygon fill="white" stroke="black" points="156,-542.5 156,-865.5 296,-865.5 296,-542.5 156,-542.5"/>
<text text-anchor="middle" x="226" y="-852.5" font-family="Helvetica,sans-Serif" font-size="10.00">AHBDevice&lt; DefaultBase &gt;</text>
<polyline fill="none" stroke="black" points="156,-844.5 296,-844.5 "/>
<text text-anchor="start" x="164" y="-831.5" font-family="Helvetica,sans-Serif" font-size="10.00"># m_register</text>
<text text-anchor="start" x="164" y="-818.5" font-family="Helvetica,sans-Serif" font-size="10.00"># g_bars</text>
<text text-anchor="start" x="164" y="-805.5" font-family="Helvetica,sans-Serif" font-size="10.00"># g_bar0</text>
<text text-anchor="start" x="164" y="-792.5" font-family="Helvetica,sans-Serif" font-size="10.00"># g_bar1</text>
<text text-anchor="start" x="164" y="-779.5" font-family="Helvetica,sans-Serif" font-size="10.00"># g_bar2</text>
<text text-anchor="start" x="164" y="-766.5" font-family="Helvetica,sans-Serif" font-size="10.00"># g_bar3</text>
<text text-anchor="start" x="164" y="-753.5" font-family="Helvetica,sans-Serif" font-size="10.00"># g_hindex</text>
<text text-anchor="start" x="164" y="-740.5" font-family="Helvetica,sans-Serif" font-size="10.00"># g_hvendorid</text>
<text text-anchor="start" x="164" y="-727.5" font-family="Helvetica,sans-Serif" font-size="10.00"># g_hdeviceid</text>
<text text-anchor="start" x="164" y="-714.5" font-family="Helvetica,sans-Serif" font-size="10.00"># g_hversion</text>
<text text-anchor="start" x="164" y="-701.5" font-family="Helvetica,sans-Serif" font-size="10.00">and 21 more...</text>
<polyline fill="none" stroke="black" points="156,-693.5 296,-693.5 "/>
<text text-anchor="start" x="164" y="-680.5" font-family="Helvetica,sans-Serif" font-size="10.00">+ AHBDevice()</text>
<text text-anchor="start" x="164" y="-667.5" font-family="Helvetica,sans-Serif" font-size="10.00">+ AHBDevice()</text>
<text text-anchor="start" x="164" y="-654.5" font-family="Helvetica,sans-Serif" font-size="10.00">+ init()</text>
<text text-anchor="start" x="164" y="-641.5" font-family="Helvetica,sans-Serif" font-size="10.00">+ init_ahb_generics()</text>
<text text-anchor="start" x="164" y="-628.5" font-family="Helvetica,sans-Serif" font-size="10.00">+ ~AHBDevice()</text>
<text text-anchor="start" x="164" y="-615.5" font-family="Helvetica,sans-Serif" font-size="10.00">+ get_ahb_device_id()</text>
<text text-anchor="start" x="164" y="-602.5" font-family="Helvetica,sans-Serif" font-size="10.00">+ get_ahb_vendor_id()</text>
<text text-anchor="start" x="164" y="-589.5" font-family="Helvetica,sans-Serif" font-size="10.00">+ get_ahb_device_info()</text>
<text text-anchor="start" x="164" y="-576.5" font-family="Helvetica,sans-Serif" font-size="10.00">+ get_ahb_base_addr_()</text>
<text text-anchor="start" x="164" y="-563.5" font-family="Helvetica,sans-Serif" font-size="10.00">+ get_ahb_base_addr()</text>
<text text-anchor="start" x="164" y="-550.5" font-family="Helvetica,sans-Serif" font-size="10.00">and 13 more...</text>
</a>
</g>
<!-- Node3&#45;&gt;Node2 -->
<g id="edge4" class="edge"><title>Node3&#45;&gt;Node2</title>
<path fill="none" stroke="midnightblue" d="M190.245,-532.641C188.221,-524.967 186.137,-517.39 184,-510 182.214,-503.825 180.301,-497.537 178.3,-491.209"/>
<polygon fill="none" stroke="midnightblue" points="186.879,-533.605 192.775,-542.407 193.655,-531.849 186.879,-533.605"/>
</g>
<!-- Node4 -->
<g id="node6" class="node"><title>Node4</title>
<a xlink:href="classBaseModule.html" target="_top" xlink:title="{BaseModule\&lt; DefaultBase \&gt;\n|# m_api\l# m_generics\l# m_counters\l# m_power\l|+ BaseModule()\l+ ~BaseModule()\l+ init_generics()\l+ init_registers()\l+ init_counters()\l+ init_power()\l}">
<polygon fill="white" stroke="black" points="239.5,-994.5 239.5,-1161.5 382.5,-1161.5 382.5,-994.5 239.5,-994.5"/>
<text text-anchor="middle" x="311" y="-1148.5" font-family="Helvetica,sans-Serif" font-size="10.00">BaseModule&lt; DefaultBase &gt;</text>
<polyline fill="none" stroke="black" points="239.5,-1140.5 382.5,-1140.5 "/>
<text text-anchor="start" x="247.5" y="-1127.5" font-family="Helvetica,sans-Serif" font-size="10.00"># m_api</text>
<text text-anchor="start" x="247.5" y="-1114.5" font-family="Helvetica,sans-Serif" font-size="10.00"># m_generics</text>
<text text-anchor="start" x="247.5" y="-1101.5" font-family="Helvetica,sans-Serif" font-size="10.00"># m_counters</text>
<text text-anchor="start" x="247.5" y="-1088.5" font-family="Helvetica,sans-Serif" font-size="10.00"># m_power</text>
<polyline fill="none" stroke="black" points="239.5,-1080.5 382.5,-1080.5 "/>
<text text-anchor="start" x="247.5" y="-1067.5" font-family="Helvetica,sans-Serif" font-size="10.00">+ BaseModule()</text>
<text text-anchor="start" x="247.5" y="-1054.5" font-family="Helvetica,sans-Serif" font-size="10.00">+ ~BaseModule()</text>
<text text-anchor="start" x="247.5" y="-1041.5" font-family="Helvetica,sans-Serif" font-size="10.00">+ init_generics()</text>
<text text-anchor="start" x="247.5" y="-1028.5" font-family="Helvetica,sans-Serif" font-size="10.00">+ init_registers()</text>
<text text-anchor="start" x="247.5" y="-1015.5" font-family="Helvetica,sans-Serif" font-size="10.00">+ init_counters()</text>
<text text-anchor="start" x="247.5" y="-1002.5" font-family="Helvetica,sans-Serif" font-size="10.00">+ init_power()</text>
</a>
</g>
<!-- Node4&#45;&gt;Node3 -->
<g id="edge6" class="edge"><title>Node4&#45;&gt;Node3</title>
<path fill="none" stroke="midnightblue" d="M289.663,-984.119C281.511,-948.25 271.964,-906.243 262.78,-865.833"/>
<polygon fill="none" stroke="midnightblue" points="286.295,-985.091 291.924,-994.067 293.121,-983.54 286.295,-985.091"/>
</g>
<!-- Node5 -->
<g id="node8" class="node"><title>Node5</title>
<a xlink:href="classSCBaseModule.html" target="_top" xlink:title="{SCBaseModule\&lt; DefaultBase \&gt;\n||+ SCBaseModule()\l+ ~SCBaseModule()\l}">
<polygon fill="white" stroke="black" points="333.5,-1349 333.5,-1425 490.5,-1425 490.5,-1349 333.5,-1349"/>
<text text-anchor="middle" x="412" y="-1412" font-family="Helvetica,sans-Serif" font-size="10.00">SCBaseModule&lt; DefaultBase &gt;</text>
<polyline fill="none" stroke="black" points="333.5,-1404 490.5,-1404 "/>
<text text-anchor="middle" x="412" y="-1391" font-family="Helvetica,sans-Serif" font-size="10.00"> </text>
<polyline fill="none" stroke="black" points="333.5,-1383 490.5,-1383 "/>
<text text-anchor="start" x="341.5" y="-1370" font-family="Helvetica,sans-Serif" font-size="10.00">+ SCBaseModule()</text>
<text text-anchor="start" x="341.5" y="-1357" font-family="Helvetica,sans-Serif" font-size="10.00">+ ~SCBaseModule()</text>
</a>
</g>
<!-- Node5&#45;&gt;Node4 -->
<g id="edge8" class="edge"><title>Node5&#45;&gt;Node4</title>
<path fill="none" stroke="midnightblue" d="M396.352,-1339.13C380.909,-1291.88 356.975,-1218.66 338.378,-1161.76"/>
<polygon fill="none" stroke="midnightblue" points="393.08,-1340.38 399.514,-1348.8 399.734,-1338.21 393.08,-1340.38"/>
</g>
<!-- Node6 -->
<g id="node10" class="node"><title>Node6</title>
<polygon fill="white" stroke="#bfbfbf" points="376.5,-1547.5 376.5,-1610.5 447.5,-1610.5 447.5,-1547.5 376.5,-1547.5"/>
<text text-anchor="middle" x="412" y="-1597.5" font-family="Helvetica,sans-Serif" font-size="10.00">DefaultBase</text>
<polyline fill="none" stroke="#bfbfbf" points="376.5,-1589.5 447.5,-1589.5 "/>
<text text-anchor="middle" x="412" y="-1576.5" font-family="Helvetica,sans-Serif" font-size="10.00"> </text>
<polyline fill="none" stroke="#bfbfbf" points="376.5,-1568.5 447.5,-1568.5 "/>
<text text-anchor="middle" x="412" y="-1555.5" font-family="Helvetica,sans-Serif" font-size="10.00"> </text>
</g>
<!-- Node6&#45;&gt;Node5 -->
<g id="edge10" class="edge"><title>Node6&#45;&gt;Node5</title>
<path fill="none" stroke="midnightblue" d="M412,-1536.95C412,-1503.57 412,-1457.31 412,-1425.03"/>
<polygon fill="none" stroke="midnightblue" points="408.5,-1537.3 412,-1547.3 415.5,-1537.3 408.5,-1537.3"/>
</g>
<!-- Node7 -->
<g id="node12" class="node"><title>Node7</title>
<a xlink:href="classSCBaseModule.html" target="_top" xlink:title="{SCBaseModule\&lt; BASE \&gt;\n||+ SCBaseModule()\l+ ~SCBaseModule()\l+ SCBaseModule()\l}">
<polygon fill="white" stroke="black" points="215,-1534.5 215,-1623.5 345,-1623.5 345,-1534.5 215,-1534.5"/>
<text text-anchor="middle" x="280" y="-1610.5" font-family="Helvetica,sans-Serif" font-size="10.00">SCBaseModule&lt; BASE &gt;</text>
<polyline fill="none" stroke="black" points="215,-1602.5 345,-1602.5 "/>
<text text-anchor="middle" x="280" y="-1589.5" font-family="Helvetica,sans-Serif" font-size="10.00"> </text>
<polyline fill="none" stroke="black" points="215,-1581.5 345,-1581.5 "/>
<text text-anchor="start" x="223" y="-1568.5" font-family="Helvetica,sans-Serif" font-size="10.00">+ SCBaseModule()</text>
<text text-anchor="start" x="223" y="-1555.5" font-family="Helvetica,sans-Serif" font-size="10.00">+ ~SCBaseModule()</text>
<text text-anchor="start" x="223" y="-1542.5" font-family="Helvetica,sans-Serif" font-size="10.00">+ SCBaseModule()</text>
</a>
</g>
<!-- Node7&#45;&gt;Node5 -->
<g id="edge12" class="edge"><title>Node7&#45;&gt;Node5</title>
<path fill="none" stroke="orange" d="M315.911,-1525.62C321.286,-1517.69 326.776,-1509.62 332,-1502 349.601,-1476.32 369.601,-1447.57 385.2,-1425.24"/>
<polygon fill="orange" stroke="orange" points="312.849,-1523.9 310.142,-1534.14 318.646,-1527.82 312.849,-1523.9"/>
<text text-anchor="middle" x="370" y="-1506.5" font-family="Helvetica,sans-Serif" font-size="10.00"> &lt; DefaultBase &gt;</text>
</g>
<!-- Node9 -->
<g id="node16" class="node"><title>Node9</title>
<a xlink:href="classBaseModule.html" target="_top" xlink:title="{BaseModule\&lt; BASE \&gt;\n|# m_api\l# m_generics\l# m_counters\l# m_power\l|+ BaseModule()\l+ ~BaseModule()\l+ init_generics()\l+ init_registers()\l+ init_counters()\l+ init_power()\l}">
<polygon fill="white" stroke="black" points="200,-1303.5 200,-1470.5 316,-1470.5 316,-1303.5 200,-1303.5"/>
<text text-anchor="middle" x="258" y="-1457.5" font-family="Helvetica,sans-Serif" font-size="10.00">BaseModule&lt; BASE &gt;</text>
<polyline fill="none" stroke="black" points="200,-1449.5 316,-1449.5 "/>
<text text-anchor="start" x="208" y="-1436.5" font-family="Helvetica,sans-Serif" font-size="10.00"># m_api</text>
<text text-anchor="start" x="208" y="-1423.5" font-family="Helvetica,sans-Serif" font-size="10.00"># m_generics</text>
<text text-anchor="start" x="208" y="-1410.5" font-family="Helvetica,sans-Serif" font-size="10.00"># m_counters</text>
<text text-anchor="start" x="208" y="-1397.5" font-family="Helvetica,sans-Serif" font-size="10.00"># m_power</text>
<polyline fill="none" stroke="black" points="200,-1389.5 316,-1389.5 "/>
<text text-anchor="start" x="208" y="-1376.5" font-family="Helvetica,sans-Serif" font-size="10.00">+ BaseModule()</text>
<text text-anchor="start" x="208" y="-1363.5" font-family="Helvetica,sans-Serif" font-size="10.00">+ ~BaseModule()</text>
<text text-anchor="start" x="208" y="-1350.5" font-family="Helvetica,sans-Serif" font-size="10.00">+ init_generics()</text>
<text text-anchor="start" x="208" y="-1337.5" font-family="Helvetica,sans-Serif" font-size="10.00">+ init_registers()</text>
<text text-anchor="start" x="208" y="-1324.5" font-family="Helvetica,sans-Serif" font-size="10.00">+ init_counters()</text>
<text text-anchor="start" x="208" y="-1311.5" font-family="Helvetica,sans-Serif" font-size="10.00">+ init_power()</text>
</a>
</g>
<!-- Node7&#45;&gt;Node9 -->
<g id="edge18" class="edge"><title>Node7&#45;&gt;Node9</title>
<path fill="none" stroke="midnightblue" d="M273.735,-1524.33C271.815,-1507.57 269.658,-1488.74 267.57,-1470.52"/>
<polygon fill="none" stroke="midnightblue" points="270.282,-1524.93 274.897,-1534.47 277.236,-1524.14 270.282,-1524.93"/>
</g>
<!-- Node8 -->
<g id="node14" class="node"><title>Node8</title>
<a xlink:href="classBASE.html" target="_top" xlink:title="{BASE\n||}">
<polygon fill="white" stroke="black" points="258,-1662.5 258,-1725.5 302,-1725.5 302,-1662.5 258,-1662.5"/>
<text text-anchor="middle" x="280" y="-1712.5" font-family="Helvetica,sans-Serif" font-size="10.00">BASE</text>
<polyline fill="none" stroke="black" points="258,-1704.5 302,-1704.5 "/>
<text text-anchor="middle" x="280" y="-1691.5" font-family="Helvetica,sans-Serif" font-size="10.00"> </text>
<polyline fill="none" stroke="black" points="258,-1683.5 302,-1683.5 "/>
<text text-anchor="middle" x="280" y="-1670.5" font-family="Helvetica,sans-Serif" font-size="10.00"> </text>
</a>
</g>
<!-- Node8&#45;&gt;Node7 -->
<g id="edge14" class="edge"><title>Node8&#45;&gt;Node7</title>
<path fill="none" stroke="midnightblue" d="M280,-1652.09C280,-1642.8 280,-1632.93 280,-1623.54"/>
<polygon fill="none" stroke="midnightblue" points="276.5,-1652.27 280,-1662.27 283.5,-1652.27 276.5,-1652.27"/>
</g>
<!-- Node9&#45;&gt;Node4 -->
<g id="edge16" class="edge"><title>Node9&#45;&gt;Node4</title>
<path fill="none" stroke="orange" d="M274.048,-1293.44C281.243,-1251.49 289.663,-1202.4 296.646,-1161.69"/>
<polygon fill="orange" stroke="orange" points="270.584,-1292.93 272.343,-1303.38 277.483,-1294.12 270.584,-1292.93"/>
<text text-anchor="middle" x="318" y="-1262.5" font-family="Helvetica,sans-Serif" font-size="10.00"> &lt; DefaultBase &gt;</text>
</g>
<!-- Node11 -->
<g id="node21" class="node"><title>Node11</title>
<a xlink:href="classAHBDevice.html" target="_top" xlink:title="This class is a base class for grlib models. It implements the device plug and play informations...">
<polygon fill="white" stroke="black" points="60,-916.5 60,-1239.5 182,-1239.5 182,-916.5 60,-916.5"/>
<text text-anchor="middle" x="121" y="-1226.5" font-family="Helvetica,sans-Serif" font-size="10.00">AHBDevice&lt; BASE &gt;</text>
<polyline fill="none" stroke="black" points="60,-1218.5 182,-1218.5 "/>
<text text-anchor="start" x="68" y="-1205.5" font-family="Helvetica,sans-Serif" font-size="10.00"># m_register</text>
<text text-anchor="start" x="68" y="-1192.5" font-family="Helvetica,sans-Serif" font-size="10.00"># g_bars</text>
<text text-anchor="start" x="68" y="-1179.5" font-family="Helvetica,sans-Serif" font-size="10.00"># g_bar0</text>
<text text-anchor="start" x="68" y="-1166.5" font-family="Helvetica,sans-Serif" font-size="10.00"># g_bar1</text>
<text text-anchor="start" x="68" y="-1153.5" font-family="Helvetica,sans-Serif" font-size="10.00"># g_bar2</text>
<text text-anchor="start" x="68" y="-1140.5" font-family="Helvetica,sans-Serif" font-size="10.00"># g_bar3</text>
<text text-anchor="start" x="68" y="-1127.5" font-family="Helvetica,sans-Serif" font-size="10.00"># g_hindex</text>
<text text-anchor="start" x="68" y="-1114.5" font-family="Helvetica,sans-Serif" font-size="10.00"># g_hvendorid</text>
<text text-anchor="start" x="68" y="-1101.5" font-family="Helvetica,sans-Serif" font-size="10.00"># g_hdeviceid</text>
<text text-anchor="start" x="68" y="-1088.5" font-family="Helvetica,sans-Serif" font-size="10.00"># g_hversion</text>
<text text-anchor="start" x="68" y="-1075.5" font-family="Helvetica,sans-Serif" font-size="10.00">and 21 more...</text>
<polyline fill="none" stroke="black" points="60,-1067.5 182,-1067.5 "/>
<text text-anchor="start" x="68" y="-1054.5" font-family="Helvetica,sans-Serif" font-size="10.00">+ AHBDevice()</text>
<text text-anchor="start" x="68" y="-1041.5" font-family="Helvetica,sans-Serif" font-size="10.00">+ AHBDevice()</text>
<text text-anchor="start" x="68" y="-1028.5" font-family="Helvetica,sans-Serif" font-size="10.00">+ init()</text>
<text text-anchor="start" x="68" y="-1015.5" font-family="Helvetica,sans-Serif" font-size="10.00">+ init_ahb_generics()</text>
<text text-anchor="start" x="68" y="-1002.5" font-family="Helvetica,sans-Serif" font-size="10.00">+ ~AHBDevice()</text>
<text text-anchor="start" x="68" y="-989.5" font-family="Helvetica,sans-Serif" font-size="10.00">+ get_ahb_device_id()</text>
<text text-anchor="start" x="68" y="-976.5" font-family="Helvetica,sans-Serif" font-size="10.00">+ get_ahb_vendor_id()</text>
<text text-anchor="start" x="68" y="-963.5" font-family="Helvetica,sans-Serif" font-size="10.00">+ get_ahb_device_info()</text>
<text text-anchor="start" x="68" y="-950.5" font-family="Helvetica,sans-Serif" font-size="10.00">+ get_ahb_base_addr_()</text>
<text text-anchor="start" x="68" y="-937.5" font-family="Helvetica,sans-Serif" font-size="10.00">+ get_ahb_base_addr()</text>
<text text-anchor="start" x="68" y="-924.5" font-family="Helvetica,sans-Serif" font-size="10.00">and 13 more...</text>
</a>
</g>
<!-- Node9&#45;&gt;Node11 -->
<g id="edge24" class="edge"><title>Node9&#45;&gt;Node11</title>
<path fill="none" stroke="midnightblue" d="M216.785,-1294.04C205.833,-1269.34 193.767,-1242.12 182.001,-1215.59"/>
<polygon fill="none" stroke="midnightblue" points="213.673,-1295.66 220.926,-1303.38 220.072,-1292.82 213.673,-1295.66"/>
</g>
<!-- Node10 -->
<g id="node19" class="node"><title>Node10</title>
<a xlink:href="classAHBDeviceBase.html" target="_top" xlink:title="{AHBDeviceBase\n||+ ~AHBDeviceBase()\l+ get_ahb_device_id()\l+ get_ahb_vendor_id()\l+ get_ahb_device_info()\l+ get_ahb_base_addr_()\l+ get_ahb_base_addr()\l+ get_ahb_size_()\l+ get_ahb_size()\l+ get_ahb_bar_type()\l+ get_ahb_bar_base()\land 7 more...\l}">
<polygon fill="white" stroke="black" points="60,-1290.5 60,-1483.5 182,-1483.5 182,-1290.5 60,-1290.5"/>
<text text-anchor="middle" x="121" y="-1470.5" font-family="Helvetica,sans-Serif" font-size="10.00">AHBDeviceBase</text>
<polyline fill="none" stroke="black" points="60,-1462.5 182,-1462.5 "/>
<text text-anchor="middle" x="121" y="-1449.5" font-family="Helvetica,sans-Serif" font-size="10.00"> </text>
<polyline fill="none" stroke="black" points="60,-1441.5 182,-1441.5 "/>
<text text-anchor="start" x="68" y="-1428.5" font-family="Helvetica,sans-Serif" font-size="10.00">+ ~AHBDeviceBase()</text>
<text text-anchor="start" x="68" y="-1415.5" font-family="Helvetica,sans-Serif" font-size="10.00">+ get_ahb_device_id()</text>
<text text-anchor="start" x="68" y="-1402.5" font-family="Helvetica,sans-Serif" font-size="10.00">+ get_ahb_vendor_id()</text>
<text text-anchor="start" x="68" y="-1389.5" font-family="Helvetica,sans-Serif" font-size="10.00">+ get_ahb_device_info()</text>
<text text-anchor="start" x="68" y="-1376.5" font-family="Helvetica,sans-Serif" font-size="10.00">+ get_ahb_base_addr_()</text>
<text text-anchor="start" x="68" y="-1363.5" font-family="Helvetica,sans-Serif" font-size="10.00">+ get_ahb_base_addr()</text>
<text text-anchor="start" x="68" y="-1350.5" font-family="Helvetica,sans-Serif" font-size="10.00">+ get_ahb_size_()</text>
<text text-anchor="start" x="68" y="-1337.5" font-family="Helvetica,sans-Serif" font-size="10.00">+ get_ahb_size()</text>
<text text-anchor="start" x="68" y="-1324.5" font-family="Helvetica,sans-Serif" font-size="10.00">+ get_ahb_bar_type()</text>
<text text-anchor="start" x="68" y="-1311.5" font-family="Helvetica,sans-Serif" font-size="10.00">+ get_ahb_bar_base()</text>
<text text-anchor="start" x="68" y="-1298.5" font-family="Helvetica,sans-Serif" font-size="10.00">and 7 more...</text>
</a>
</g>
<!-- Node10&#45;&gt;Node3 -->
<g id="edge20" class="edge"><title>Node10&#45;&gt;Node3</title>
<path fill="none" stroke="midnightblue" d="M177.256,-1280.84C182.681,-1267.38 187.469,-1253.56 191,-1240 222.997,-1117.16 230.862,-973.403 231.212,-865.71"/>
<polygon fill="none" stroke="midnightblue" points="174.012,-1279.53 173.405,-1290.11 180.476,-1282.22 174.012,-1279.53"/>
</g>
<!-- Node10&#45;&gt;Node11 -->
<g id="edge26" class="edge"><title>Node10&#45;&gt;Node11</title>
<path fill="none" stroke="midnightblue" d="M121,-1279.76C121,-1266.76 121,-1253.26 121,-1239.69"/>
<polygon fill="none" stroke="midnightblue" points="117.5,-1280.08 121,-1290.08 124.5,-1280.08 117.5,-1280.08"/>
</g>
<!-- Node11&#45;&gt;Node3 -->
<g id="edge22" class="edge"><title>Node11&#45;&gt;Node3</title>
<path fill="none" stroke="orange" d="M112.798,-906.665C115.235,-898.836 118.27,-891.236 122,-884 128.273,-871.83 138.177,-876.47 147,-866 150.025,-862.411 152.966,-858.686 155.824,-854.854"/>
<polygon fill="orange" stroke="orange" points="109.42,-905.749 110.114,-916.321 116.164,-907.623 109.42,-905.749"/>
<text text-anchor="middle" x="160" y="-888.5" font-family="Helvetica,sans-Serif" font-size="10.00"> &lt; DefaultBase &gt;</text>
</g>
<!-- Node12 -->
<g id="node25" class="node"><title>Node12</title>
<a xlink:href="classAHBSlave.html" target="_top" xlink:title="{AHBSlave\&lt; BASE \&gt;\n|+ ahb\l+ m_RequestPEQ\l+ m_ResponsePEQ\l# m_reads\l# m_writes\l|+ SC_HAS_PROCESS()\l+ AHBSlave()\l+ ~AHBSlave()\l+ exec_func()\l+ get_clock()\l+ b_transport()\l+ transport_dbg()\l+ nb_transport_fw()\l+ requestThread()\l+ responseThread()\l+ transport_statistics()\l+ print_transport_statistics()\l}">
<polygon fill="white" stroke="black" points="-0.5,-575 -0.5,-833 138.5,-833 138.5,-575 -0.5,-575"/>
<text text-anchor="middle" x="69" y="-820" font-family="Helvetica,sans-Serif" font-size="10.00">AHBSlave&lt; BASE &gt;</text>
<polyline fill="none" stroke="black" points="-0.5,-812 138.5,-812 "/>
<text text-anchor="start" x="7.5" y="-799" font-family="Helvetica,sans-Serif" font-size="10.00">+ ahb</text>
<text text-anchor="start" x="7.5" y="-786" font-family="Helvetica,sans-Serif" font-size="10.00">+ m_RequestPEQ</text>
<text text-anchor="start" x="7.5" y="-773" font-family="Helvetica,sans-Serif" font-size="10.00">+ m_ResponsePEQ</text>
<text text-anchor="start" x="7.5" y="-760" font-family="Helvetica,sans-Serif" font-size="10.00"># m_reads</text>
<text text-anchor="start" x="7.5" y="-747" font-family="Helvetica,sans-Serif" font-size="10.00"># m_writes</text>
<polyline fill="none" stroke="black" points="-0.5,-739 138.5,-739 "/>
<text text-anchor="start" x="7.5" y="-726" font-family="Helvetica,sans-Serif" font-size="10.00">+ SC_HAS_PROCESS()</text>
<text text-anchor="start" x="7.5" y="-713" font-family="Helvetica,sans-Serif" font-size="10.00">+ AHBSlave()</text>
<text text-anchor="start" x="7.5" y="-700" font-family="Helvetica,sans-Serif" font-size="10.00">+ ~AHBSlave()</text>
<text text-anchor="start" x="7.5" y="-687" font-family="Helvetica,sans-Serif" font-size="10.00">+ exec_func()</text>
<text text-anchor="start" x="7.5" y="-674" font-family="Helvetica,sans-Serif" font-size="10.00">+ get_clock()</text>
<text text-anchor="start" x="7.5" y="-661" font-family="Helvetica,sans-Serif" font-size="10.00">+ b_transport()</text>
<text text-anchor="start" x="7.5" y="-648" font-family="Helvetica,sans-Serif" font-size="10.00">+ transport_dbg()</text>
<text text-anchor="start" x="7.5" y="-635" font-family="Helvetica,sans-Serif" font-size="10.00">+ nb_transport_fw()</text>
<text text-anchor="start" x="7.5" y="-622" font-family="Helvetica,sans-Serif" font-size="10.00">+ requestThread()</text>
<text text-anchor="start" x="7.5" y="-609" font-family="Helvetica,sans-Serif" font-size="10.00">+ responseThread()</text>
<text text-anchor="start" x="7.5" y="-596" font-family="Helvetica,sans-Serif" font-size="10.00">+ transport_statistics()</text>
<text text-anchor="start" x="7.5" y="-583" font-family="Helvetica,sans-Serif" font-size="10.00">+ print_transport_statistics()</text>
</a>
</g>
<!-- Node11&#45;&gt;Node12 -->
<g id="edge30" class="edge"><title>Node11&#45;&gt;Node12</title>
<path fill="none" stroke="midnightblue" d="M97.1212,-906.256C93.6991,-881.643 90.2276,-856.675 86.946,-833.073"/>
<polygon fill="none" stroke="midnightblue" points="93.6884,-906.982 98.5323,-916.405 100.622,-906.018 93.6884,-906.982"/>
</g>
<!-- Node12&#45;&gt;Node2 -->
<g id="edge28" class="edge"><title>Node12&#45;&gt;Node2</title>
<path fill="none" stroke="orange" d="M93.8435,-564.714C98.1789,-540.407 102.672,-515.215 106.957,-491.195"/>
<polygon fill="orange" stroke="orange" points="90.3719,-564.245 92.0615,-574.704 97.2631,-565.474 90.3719,-564.245"/>
<text text-anchor="middle" x="142" y="-514.5" font-family="Helvetica,sans-Serif" font-size="10.00"> &lt; DefaultBase &gt;</text>
</g>
<!-- Node13 -->
<g id="node28" class="node"><title>Node13</title>
<a xlink:href="classCLKDevice.html" target="_top" xlink:title="{CLKDevice\n|+ rst\l+ clk\l# clock_cycle\l|+ SK_HAS_SIGNALS()\l+ CLKDevice()\l+ ~CLKDevice()\l+ onrst()\l+ onclk()\l+ set_clk()\l+ set_clk()\l+ set_clk()\l+ dorst()\l+ clkcng()\l}">
<polygon fill="white" stroke="black" points="217,-259 217,-465 337,-465 337,-259 217,-259"/>
<text text-anchor="middle" x="277" y="-452" font-family="Helvetica,sans-Serif" font-size="10.00">CLKDevice</text>
<polyline fill="none" stroke="black" points="217,-444 337,-444 "/>
<text text-anchor="start" x="225" y="-431" font-family="Helvetica,sans-Serif" font-size="10.00">+ rst</text>
<text text-anchor="start" x="225" y="-418" font-family="Helvetica,sans-Serif" font-size="10.00">+ clk</text>
<text text-anchor="start" x="225" y="-405" font-family="Helvetica,sans-Serif" font-size="10.00"># clock_cycle</text>
<polyline fill="none" stroke="black" points="217,-397 337,-397 "/>
<text text-anchor="start" x="225" y="-384" font-family="Helvetica,sans-Serif" font-size="10.00">+ SK_HAS_SIGNALS()</text>
<text text-anchor="start" x="225" y="-371" font-family="Helvetica,sans-Serif" font-size="10.00">+ CLKDevice()</text>
<text text-anchor="start" x="225" y="-358" font-family="Helvetica,sans-Serif" font-size="10.00">+ ~CLKDevice()</text>
<text text-anchor="start" x="225" y="-345" font-family="Helvetica,sans-Serif" font-size="10.00">+ onrst()</text>
<text text-anchor="start" x="225" y="-332" font-family="Helvetica,sans-Serif" font-size="10.00">+ onclk()</text>
<text text-anchor="start" x="225" y="-319" font-family="Helvetica,sans-Serif" font-size="10.00">+ set_clk()</text>
<text text-anchor="start" x="225" y="-306" font-family="Helvetica,sans-Serif" font-size="10.00">+ set_clk()</text>
<text text-anchor="start" x="225" y="-293" font-family="Helvetica,sans-Serif" font-size="10.00">+ set_clk()</text>
<text text-anchor="start" x="225" y="-280" font-family="Helvetica,sans-Serif" font-size="10.00">+ dorst()</text>
<text text-anchor="start" x="225" y="-267" font-family="Helvetica,sans-Serif" font-size="10.00">+ clkcng()</text>
</a>
</g>
<!-- Node13&#45;&gt;Node1 -->
<g id="edge32" class="edge"><title>Node13&#45;&gt;Node1</title>
<path fill="none" stroke="midnightblue" d="M261.181,-248.702C258.632,-230.444 256.013,-211.689 253.524,-193.863"/>
<polygon fill="none" stroke="midnightblue" points="257.74,-249.365 262.589,-258.785 264.672,-248.397 257.74,-249.365"/>
</g>
</g>
</svg>
