<?xml version="1.0" encoding="UTF-8" standalone="no"?>
<!DOCTYPE svg PUBLIC "-//W3C//DTD SVG 1.1//EN"
 "http://www.w3.org/Graphics/SVG/1.1/DTD/svg11.dtd">
<!-- Generated by graphviz version 2.26.0 (20091210.2329)
 -->
<!-- Title: core.waf.repo.repo Pages: 1 -->
<svg width="174pt" height="302pt"
 viewBox="0.00 0.00 174.00 302.00" xmlns="http://www.w3.org/2000/svg" xmlns:xlink="http://www.w3.org/1999/xlink">
<g id="graph1" class="graph" transform="scale(1 1) rotate(0) translate(4 298)">
<title>core.waf.repo.repo</title>
<polygon fill="white" stroke="white" points="-4,5 -4,-298 171,-298 171,5 -4,5"/>
<!-- Node1 -->
<g id="node1" class="node"><title>Node1</title>
<polygon fill="#bfbfbf" stroke="black" points="51,-0.5 51,-167.5 149,-167.5 149,-0.5 51,-0.5"/>
<text text-anchor="middle" x="100" y="-154.5" font-family="Helvetica,sans-Serif" font-size="10.00">core.waf.repo.repo</text>
<polyline fill="none" stroke="black" points="51,-146.5 149,-146.5 "/>
<text text-anchor="start" x="59" y="-133.5" font-family="Helvetica,sans-Serif" font-size="10.00">+ cachedir</text>
<text text-anchor="start" x="59" y="-120.5" font-family="Helvetica,sans-Serif" font-size="10.00">+ logger</text>
<polyline fill="none" stroke="black" points="51,-112.5 149,-112.5 "/>
<text text-anchor="start" x="59" y="-99.5" font-family="Helvetica,sans-Serif" font-size="10.00">+ execute()</text>
<text text-anchor="start" x="59" y="-86.5" font-family="Helvetica,sans-Serif" font-size="10.00">+ git_cmd()</text>
<text text-anchor="start" x="59" y="-73.5" font-family="Helvetica,sans-Serif" font-size="10.00">+ add_repo()</text>
<text text-anchor="start" x="59" y="-60.5" font-family="Helvetica,sans-Serif" font-size="10.00">+ mv_cmd()</text>
<text text-anchor="start" x="59" y="-47.5" font-family="Helvetica,sans-Serif" font-size="10.00">+ del_repo()</text>
<text text-anchor="start" x="59" y="-34.5" font-family="Helvetica,sans-Serif" font-size="10.00">+ show_repo()</text>
<text text-anchor="start" x="59" y="-21.5" font-family="Helvetica,sans-Serif" font-size="10.00">+ show_help()</text>
<text text-anchor="start" x="59" y="-8.5" font-family="Helvetica,sans-Serif" font-size="10.00">+ work()</text>
</g>
<!-- Node2 -->
<g id="node2" class="node"><title>Node2</title>
<polygon fill="white" stroke="#bfbfbf" points="-0.5,-230.5 -0.5,-293.5 108.5,-293.5 108.5,-230.5 -0.5,-230.5"/>
<text text-anchor="middle" x="54" y="-280.5" font-family="Helvetica,sans-Serif" font-size="10.00">ConfigurationContext</text>
<polyline fill="none" stroke="#bfbfbf" points="-0.5,-272.5 108.5,-272.5 "/>
<text text-anchor="middle" x="54" y="-259.5" font-family="Helvetica,sans-Serif" font-size="10.00"> </text>
<polyline fill="none" stroke="#bfbfbf" points="-0.5,-251.5 108.5,-251.5 "/>
<text text-anchor="middle" x="54" y="-238.5" font-family="Helvetica,sans-Serif" font-size="10.00"> </text>
</g>
<!-- Node2&#45;&gt;Node1 -->
<g id="edge2" class="edge"><title>Node2&#45;&gt;Node1</title>
<path fill="none" stroke="midnightblue" d="M64.7814,-220.28C68.8429,-204.564 73.6207,-186.076 78.3244,-167.875"/>
<polygon fill="none" stroke="midnightblue" points="61.3373,-219.619 62.2239,-230.177 68.1147,-221.371 61.3373,-219.619"/>
</g>
<!-- Node3 -->
<g id="node4" class="node"><title>Node3</title>
<polygon fill="white" stroke="#bfbfbf" points="125.5,-230.5 125.5,-293.5 166.5,-293.5 166.5,-230.5 125.5,-230.5"/>
<text text-anchor="middle" x="146" y="-280.5" font-family="Helvetica,sans-Serif" font-size="10.00">string</text>
<polyline fill="none" stroke="#bfbfbf" points="125.5,-272.5 166.5,-272.5 "/>
<text text-anchor="middle" x="146" y="-259.5" font-family="Helvetica,sans-Serif" font-size="10.00"> </text>
<polyline fill="none" stroke="#bfbfbf" points="125.5,-251.5 166.5,-251.5 "/>
<text text-anchor="middle" x="146" y="-238.5" font-family="Helvetica,sans-Serif" font-size="10.00"> </text>
</g>
<!-- Node3&#45;&gt;Node1 -->
<g id="edge4" class="edge"><title>Node3&#45;&gt;Node1</title>
<path fill="none" stroke="#404040" d="M137.776,-230.177C134.049,-215.754 129.423,-197.856 124.702,-179.585"/>
<polygon fill="none" stroke="#404040" points="124.678,-179.494 119.304,-174.685 121.676,-167.875 127.05,-172.684 124.678,-179.494"/>
<text text-anchor="middle" x="144.5" y="-203" font-family="Helvetica,sans-Serif" font-size="10.00"> +fun</text>
<text text-anchor="middle" x="144.5" y="-190" font-family="Helvetica,sans-Serif" font-size="10.00">+cmd</text>
</g>
</g>
</svg>
