<?xml version="1.0" encoding="UTF-8" standalone="no"?>
<!DOCTYPE svg PUBLIC "-//W3C//DTD SVG 1.1//EN"
 "http://www.w3.org/Graphics/SVG/1.1/DTD/svg11.dtd">
<!-- Generated by graphviz version 2.38.0 (20140413.2041)
 -->
<!-- Title: sr_param&lt; std::vector&lt; std::string &gt; &gt; Pages: 1 -->
<!--zoomable 927 -->
<svg id="main" version="1.1" xmlns="http://www.w3.org/2000/svg" xmlns:xlink="http://www.w3.org/1999/xlink" xml:space="preserve" onload="init(evt)">
<style type="text/css"><![CDATA[
.edge:hover path { stroke: red; }
.edge:hover polygon { stroke: red; fill: red; }
]]></style>
<script type="text/javascript"><![CDATA[
var edges = document.getElementsByTagName('g');
if (edges && edges.length) {
  for (var i=0;i<edges.length;i++) {
    if (edges[i].id.substr(0,4)=='edge') {
      edges[i].setAttribute('class','edge');
    }
  }
}
]]></script>
        <defs>
                <circle id="rim" cx="0" cy="0" r="7"/>
                <circle id="rim2" cx="0" cy="0" r="3.5"/>
                <g id="zoomPlus">
                        <use xlink:href="#rim" fill="#404040">
                                <set attributeName="fill" to="#808080" begin="zoomplus.mouseover" end="zoomplus.mouseout"/>
                        </use>
                        <path d="M-4,0h8M0,-4v8" fill="none" stroke="white" stroke-width="1.5" pointer-events="none"/>
                </g>
                <g id="zoomMin">
                        <use xlink:href="#rim" fill="#404040">
                                <set attributeName="fill" to="#808080" begin="zoomminus.mouseover" end="zoomminus.mouseout"/>
                        </use>
                        <path d="M-4,0h8" fill="none" stroke="white" stroke-width="1.5" pointer-events="none"/>
                </g>
                <g id="dirArrow">
                        <path fill="none" stroke="white" stroke-width="1.5" d="M0,-3.0v7 M-2.5,-0.5L0,-3.0L2.5,-0.5"/>
                </g>
               <g id="resetDef">
                       <use xlink:href="#rim2" fill="#404040">
                               <set attributeName="fill" to="#808080" begin="reset.mouseover" end="reset.mouseout"/>
                       </use>
               </g>
        </defs>

<script type="text/javascript">
var viewWidth = 584;
var viewHeight = 927;
var sectionId = 'dynsection-1';
</script>
<script xlink:href="svgpan.js"/>
<svg id="graph" class="graph">
<g id="viewport">
<title>sr_param&lt; std::vector&lt; std::string &gt; &gt;</title>
<polygon fill="white" stroke="none" points="-4,4 -4,-923 579.5,-923 579.5,4 -4,4"/>
<!-- Node1 -->
<g id="node1" class="node"><title>Node1</title>
<polygon fill="#bfbfbf" stroke="black" points="132,-0.5 132,-145.5 287,-145.5 287,-0.5 132,-0.5"/>
<text text-anchor="start" x="140" y="-133.5" font-family="Helvetica,sans-Serif" font-size="10.00">sr_param&lt; std::vector</text>
<text text-anchor="middle" x="209.5" y="-122.5" font-family="Helvetica,sans-Serif" font-size="10.00">&lt; std::string &gt; &gt;</text>
<polyline fill="none" stroke="black" points="132,-115.5 287,-115.5 "/>
<text text-anchor="start" x="140" y="-103.5" font-family="Helvetica,sans-Serif" font-size="10.00">+ SR_PARAM_HEAD</text>
<polyline fill="none" stroke="black" points="132,-96.5 287,-96.5 "/>
<text text-anchor="start" x="140" y="-84.5" font-family="Helvetica,sans-Serif" font-size="10.00">+ empty()</text>
<text text-anchor="start" x="140" y="-73.5" font-family="Helvetica,sans-Serif" font-size="10.00">+ getTypeString()</text>
<text text-anchor="start" x="140" y="-62.5" font-family="Helvetica,sans-Serif" font-size="10.00">+ getType()</text>
<text text-anchor="start" x="140" y="-51.5" font-family="Helvetica,sans-Serif" font-size="10.00">+ operator[]()</text>
<text text-anchor="start" x="140" y="-40.5" font-family="Helvetica,sans-Serif" font-size="10.00">+ size()</text>
<text text-anchor="start" x="140" y="-29.5" font-family="Helvetica,sans-Serif" font-size="10.00">+ convertValueToString()</text>
<text text-anchor="start" x="140" y="-18.5" font-family="Helvetica,sans-Serif" font-size="10.00">+ static_convertValueToString()</text>
<text text-anchor="start" x="140" y="-7.5" font-family="Helvetica,sans-Serif" font-size="10.00">+ static_deserialize()</text>
</g>
<!-- Node2 -->
<g id="node2" class="node"><title>Node2</title>
<g id="a_node2"><a xlink:href="classsr__param__t.html" target="_top" xlink:title="{sr_param_t\&lt; std::vector\l\&lt; std::string \&gt; \&gt;\n||+ operator+=()\l+ operator&#45;=()\l+ operator/=()\l+ operator*=()\l+ operator+()\l+ operator&#45;()\l+ operator/()\l+ operator*()\l+ operator%=()\l+ operator^=()\land 27 more...\l# mirror_callback()\l# convertStringToValue()\l}">
<polygon fill="white" stroke="black" points="147,-183.5 147,-383.5 272,-383.5 272,-183.5 147,-183.5"/>
<text text-anchor="start" x="155" y="-371.5" font-family="Helvetica,sans-Serif" font-size="10.00">sr_param_t&lt; std::vector</text>
<text text-anchor="middle" x="209.5" y="-360.5" font-family="Helvetica,sans-Serif" font-size="10.00">&lt; std::string &gt; &gt;</text>
<polyline fill="none" stroke="black" points="147,-353.5 272,-353.5 "/>
<text text-anchor="middle" x="209.5" y="-341.5" font-family="Helvetica,sans-Serif" font-size="10.00"> </text>
<polyline fill="none" stroke="black" points="147,-334.5 272,-334.5 "/>
<text text-anchor="start" x="155" y="-322.5" font-family="Helvetica,sans-Serif" font-size="10.00">+ operator+=()</text>
<text text-anchor="start" x="155" y="-311.5" font-family="Helvetica,sans-Serif" font-size="10.00">+ operator&#45;=()</text>
<text text-anchor="start" x="155" y="-300.5" font-family="Helvetica,sans-Serif" font-size="10.00">+ operator/=()</text>
<text text-anchor="start" x="155" y="-289.5" font-family="Helvetica,sans-Serif" font-size="10.00">+ operator*=()</text>
<text text-anchor="start" x="155" y="-278.5" font-family="Helvetica,sans-Serif" font-size="10.00">+ operator+()</text>
<text text-anchor="start" x="155" y="-267.5" font-family="Helvetica,sans-Serif" font-size="10.00">+ operator&#45;()</text>
<text text-anchor="start" x="155" y="-256.5" font-family="Helvetica,sans-Serif" font-size="10.00">+ operator/()</text>
<text text-anchor="start" x="155" y="-245.5" font-family="Helvetica,sans-Serif" font-size="10.00">+ operator*()</text>
<text text-anchor="start" x="155" y="-234.5" font-family="Helvetica,sans-Serif" font-size="10.00">+ operator%=()</text>
<text text-anchor="start" x="155" y="-223.5" font-family="Helvetica,sans-Serif" font-size="10.00">+ operator^=()</text>
<text text-anchor="start" x="155" y="-212.5" font-family="Helvetica,sans-Serif" font-size="10.00">and 27 more...</text>
<text text-anchor="start" x="155" y="-201.5" font-family="Helvetica,sans-Serif" font-size="10.00"># mirror_callback()</text>
<text text-anchor="start" x="155" y="-190.5" font-family="Helvetica,sans-Serif" font-size="10.00"># convertStringToValue()</text>
</a>
</g>
</g>
<!-- Node2&#45;&gt;Node1 -->
<g id="edge1" class="edge"><title>Node2&#45;&gt;Node1</title>
<path fill="none" stroke="midnightblue" d="M209.5,-173.301C209.5,-163.964 209.5,-154.68 209.5,-145.749"/>
<polygon fill="none" stroke="midnightblue" points="206,-173.44 209.5,-183.44 213,-173.44 206,-173.44"/>
</g>
<!-- Node2&#45;&gt;Node2 -->
<g id="edge4" class="edge"><title>Node2&#45;&gt;Node2</title>
<path fill="none" stroke="#404040" d="M272.278,-304.064C282.764,-301.187 290,-294.332 290,-283.5 290,-277.068 287.449,-272.039 283.182,-268.412"/>
<polygon fill="none" stroke="#404040" points="283.002,-268.322 275.845,-269.203 272.278,-262.936 279.435,-262.054 283.002,-268.322"/>
<text text-anchor="middle" x="329.5" y="-281" font-family="Helvetica,sans-Serif" font-size="10.00"> #m_mirror_param</text>
</g>
<!-- Node3 -->
<g id="node3" class="node"><title>Node3</title>
<g id="a_node3"><a xlink:href="classsr__param__base.html" target="_top" xlink:title="{sr_param_base\n||+ sr_param_base()\l+ setProperty()\l+ getProperty()\l+ getProperties()\l+ deleteProperty()\l+ exists()\l+ add_properties()\l}">
<polygon fill="white" stroke="black" points="465.5,-679.5 465.5,-802.5 563.5,-802.5 563.5,-679.5 465.5,-679.5"/>
<text text-anchor="middle" x="514.5" y="-790.5" font-family="Helvetica,sans-Serif" font-size="10.00">sr_param_base</text>
<polyline fill="none" stroke="black" points="465.5,-783.5 563.5,-783.5 "/>
<text text-anchor="middle" x="514.5" y="-771.5" font-family="Helvetica,sans-Serif" font-size="10.00"> </text>
<polyline fill="none" stroke="black" points="465.5,-764.5 563.5,-764.5 "/>
<text text-anchor="start" x="473.5" y="-752.5" font-family="Helvetica,sans-Serif" font-size="10.00">+ sr_param_base()</text>
<text text-anchor="start" x="473.5" y="-741.5" font-family="Helvetica,sans-Serif" font-size="10.00">+ setProperty()</text>
<text text-anchor="start" x="473.5" y="-730.5" font-family="Helvetica,sans-Serif" font-size="10.00">+ getProperty()</text>
<text text-anchor="start" x="473.5" y="-719.5" font-family="Helvetica,sans-Serif" font-size="10.00">+ getProperties()</text>
<text text-anchor="start" x="473.5" y="-708.5" font-family="Helvetica,sans-Serif" font-size="10.00">+ deleteProperty()</text>
<text text-anchor="start" x="473.5" y="-697.5" font-family="Helvetica,sans-Serif" font-size="10.00">+ exists()</text>
<text text-anchor="start" x="473.5" y="-686.5" font-family="Helvetica,sans-Serif" font-size="10.00">+ add_properties()</text>
</a>
</g>
</g>
<!-- Node3&#45;&gt;Node2 -->
<g id="edge2" class="edge"><title>Node3&#45;&gt;Node2</title>
<path fill="none" stroke="midnightblue" d="M494.412,-669.712C470.176,-595.441 423.123,-478.668 348.5,-402 325.028,-377.885 297.029,-353.498 272.331,-333.24"/>
<polygon fill="none" stroke="midnightblue" points="491.15,-671 497.539,-679.452 497.815,-668.861 491.15,-671"/>
</g>
<!-- Node10 -->
<g id="node10" class="node"><title>Node10</title>
<g id="a_node10"><a xlink:href="classsr__param__t.html" target="_top" xlink:title="Template specialized base class for configuration parameters. ">
<polygon fill="white" stroke="black" points="247,-442.5 247,-631.5 372,-631.5 372,-442.5 247,-442.5"/>
<text text-anchor="middle" x="309.5" y="-619.5" font-family="Helvetica,sans-Serif" font-size="10.00">sr_param_t&lt; T &gt;</text>
<polyline fill="none" stroke="black" points="247,-612.5 372,-612.5 "/>
<text text-anchor="middle" x="309.5" y="-600.5" font-family="Helvetica,sans-Serif" font-size="10.00"> </text>
<polyline fill="none" stroke="black" points="247,-593.5 372,-593.5 "/>
<text text-anchor="start" x="255" y="-581.5" font-family="Helvetica,sans-Serif" font-size="10.00">+ operator+=()</text>
<text text-anchor="start" x="255" y="-570.5" font-family="Helvetica,sans-Serif" font-size="10.00">+ operator&#45;=()</text>
<text text-anchor="start" x="255" y="-559.5" font-family="Helvetica,sans-Serif" font-size="10.00">+ operator/=()</text>
<text text-anchor="start" x="255" y="-548.5" font-family="Helvetica,sans-Serif" font-size="10.00">+ operator*=()</text>
<text text-anchor="start" x="255" y="-537.5" font-family="Helvetica,sans-Serif" font-size="10.00">+ operator+()</text>
<text text-anchor="start" x="255" y="-526.5" font-family="Helvetica,sans-Serif" font-size="10.00">+ operator&#45;()</text>
<text text-anchor="start" x="255" y="-515.5" font-family="Helvetica,sans-Serif" font-size="10.00">+ operator/()</text>
<text text-anchor="start" x="255" y="-504.5" font-family="Helvetica,sans-Serif" font-size="10.00">+ operator*()</text>
<text text-anchor="start" x="255" y="-493.5" font-family="Helvetica,sans-Serif" font-size="10.00">+ operator%=()</text>
<text text-anchor="start" x="255" y="-482.5" font-family="Helvetica,sans-Serif" font-size="10.00">+ operator^=()</text>
<text text-anchor="start" x="255" y="-471.5" font-family="Helvetica,sans-Serif" font-size="10.00">and 27 more...</text>
<text text-anchor="start" x="255" y="-460.5" font-family="Helvetica,sans-Serif" font-size="10.00"># mirror_callback()</text>
<text text-anchor="start" x="255" y="-449.5" font-family="Helvetica,sans-Serif" font-size="10.00"># convertStringToValue()</text>
</a>
</g>
</g>
<!-- Node3&#45;&gt;Node10 -->
<g id="edge12" class="edge"><title>Node3&#45;&gt;Node10</title>
<path fill="none" stroke="midnightblue" d="M465.297,-671.247C459.214,-663.862 452.883,-656.632 446.5,-650 423.918,-626.537 396.549,-603.302 372.228,-584.129"/>
<polygon fill="none" stroke="midnightblue" points="462.79,-673.714 471.791,-679.301 468.239,-669.32 462.79,-673.714"/>
</g>
<!-- Node4 -->
<g id="node4" class="node"><title>Node4</title>
<polygon fill="white" stroke="#bfbfbf" points="453.5,-856 453.5,-913 575.5,-913 575.5,-856 453.5,-856"/>
<text text-anchor="middle" x="514.5" y="-901" font-family="Helvetica,sans-Serif" font-size="10.00">gs::cnf::gs_param_base</text>
<polyline fill="none" stroke="#bfbfbf" points="453.5,-894 575.5,-894 "/>
<text text-anchor="middle" x="514.5" y="-882" font-family="Helvetica,sans-Serif" font-size="10.00"> </text>
<polyline fill="none" stroke="#bfbfbf" points="453.5,-875 575.5,-875 "/>
<text text-anchor="middle" x="514.5" y="-863" font-family="Helvetica,sans-Serif" font-size="10.00"> </text>
</g>
<!-- Node4&#45;&gt;Node3 -->
<g id="edge3" class="edge"><title>Node4&#45;&gt;Node3</title>
<path fill="none" stroke="midnightblue" d="M514.5,-845.738C514.5,-832.498 514.5,-817.271 514.5,-802.635"/>
<polygon fill="none" stroke="midnightblue" points="511,-845.881 514.5,-855.881 518,-845.882 511,-845.881"/>
</g>
<!-- Node5 -->
<g id="node5" class="node"><title>Node5</title>
<g id="a_node5"><a xlink:title="STL class. ">
<polygon fill="white" stroke="#bfbfbf" points="135.5,-712.5 135.5,-769.5 195.5,-769.5 195.5,-712.5 135.5,-712.5"/>
<text text-anchor="middle" x="165.5" y="-757.5" font-family="Helvetica,sans-Serif" font-size="10.00">std::string</text>
<polyline fill="none" stroke="#bfbfbf" points="135.5,-750.5 195.5,-750.5 "/>
<text text-anchor="middle" x="165.5" y="-738.5" font-family="Helvetica,sans-Serif" font-size="10.00"> </text>
<polyline fill="none" stroke="#bfbfbf" points="135.5,-731.5 195.5,-731.5 "/>
<text text-anchor="middle" x="165.5" y="-719.5" font-family="Helvetica,sans-Serif" font-size="10.00"> </text>
</a>
</g>
</g>
<!-- Node5&#45;&gt;Node2 -->
<g id="edge5" class="edge"><title>Node5&#45;&gt;Node2</title>
<path fill="none" stroke="#404040" d="M164.604,-712.34C163.276,-659.547 162.134,-540.867 174.5,-442 176.398,-426.828 179.077,-410.966 182.119,-395.397"/>
<polygon fill="none" stroke="#404040" points="182.133,-395.327 179.4,-388.654 184.509,-383.565 187.242,-390.238 182.133,-395.327"/>
<text text-anchor="middle" x="206" y="-534.5" font-family="Helvetica,sans-Serif" font-size="10.00"> #return_string</text>
</g>
<!-- Node7 -->
<g id="node7" class="node"><title>Node7</title>
<polygon fill="white" stroke="#bfbfbf" points="4,-508.5 4,-565.5 129,-565.5 129,-508.5 4,-508.5"/>
<text text-anchor="middle" x="66.5" y="-553.5" font-family="Helvetica,sans-Serif" font-size="10.00">std::vector&lt; std::string &gt;</text>
<polyline fill="none" stroke="#bfbfbf" points="4,-546.5 129,-546.5 "/>
<text text-anchor="middle" x="66.5" y="-534.5" font-family="Helvetica,sans-Serif" font-size="10.00"> </text>
<polyline fill="none" stroke="#bfbfbf" points="4,-527.5 129,-527.5 "/>
<text text-anchor="middle" x="66.5" y="-515.5" font-family="Helvetica,sans-Serif" font-size="10.00"> </text>
</g>
<!-- Node5&#45;&gt;Node7 -->
<g id="edge8" class="edge"><title>Node5&#45;&gt;Node7</title>
<path fill="none" stroke="#404040" d="M138.949,-712.258C126.41,-697.899 112.121,-679.526 102.5,-661 88.8156,-634.648 79.6154,-602.345 73.943,-577.456"/>
<polygon fill="none" stroke="#404040" points="73.9027,-577.27 68.7245,-572.251 71.3654,-565.541 76.5436,-570.56 73.9027,-577.27"/>
<text text-anchor="middle" x="127" y="-653" font-family="Helvetica,sans-Serif" font-size="10.00"> +elements</text>
</g>
<!-- Node5&#45;&gt;Node10 -->
<g id="edge14" class="edge"><title>Node5&#45;&gt;Node10</title>
<path fill="none" stroke="#404040" d="M170.659,-712.173C175.417,-692.9 184.146,-667.637 199.5,-650 210.47,-637.399 219.635,-642.659 232.5,-632 234.327,-630.486 236.143,-628.923 237.944,-627.319"/>
<polygon fill="none" stroke="#404040" points="238.069,-627.202 239.706,-620.179 246.819,-618.989 245.181,-626.012 238.069,-627.202"/>
<text text-anchor="middle" x="231" y="-653" font-family="Helvetica,sans-Serif" font-size="10.00"> #return_string</text>
</g>
<!-- Node6 -->
<g id="node6" class="node"><title>Node6</title>
<g id="a_node6"><a xlink:title="STL class. ">
<polygon fill="white" stroke="#bfbfbf" points="118,-850.5 118,-918.5 213,-918.5 213,-850.5 118,-850.5"/>
<text text-anchor="start" x="126" y="-906.5" font-family="Helvetica,sans-Serif" font-size="10.00">std::basic_string&lt;</text>
<text text-anchor="middle" x="165.5" y="-895.5" font-family="Helvetica,sans-Serif" font-size="10.00"> char &gt;</text>
<polyline fill="none" stroke="#bfbfbf" points="118,-888.5 213,-888.5 "/>
<text text-anchor="middle" x="165.5" y="-876.5" font-family="Helvetica,sans-Serif" font-size="10.00"> </text>
<polyline fill="none" stroke="#bfbfbf" points="118,-869.5 213,-869.5 "/>
<text text-anchor="middle" x="165.5" y="-857.5" font-family="Helvetica,sans-Serif" font-size="10.00"> </text>
</a>
</g>
</g>
<!-- Node6&#45;&gt;Node5 -->
<g id="edge6" class="edge"><title>Node6&#45;&gt;Node5</title>
<path fill="none" stroke="midnightblue" d="M165.5,-840.155C165.5,-817.233 165.5,-789.771 165.5,-769.732"/>
<polygon fill="none" stroke="midnightblue" points="162,-840.325 165.5,-850.325 169,-840.325 162,-840.325"/>
</g>
<!-- Node7&#45;&gt;Node2 -->
<g id="edge7" class="edge"><title>Node7&#45;&gt;Node2</title>
<path fill="none" stroke="#404040" d="M65.5175,-508.489C65.6341,-480.229 69.0185,-435.726 86.5,-402 98.9336,-378.013 118.189,-356.164 137.803,-337.988"/>
<polygon fill="none" stroke="#404040" points="137.885,-337.915 139.68,-330.93 146.817,-329.901 145.022,-336.885 137.885,-337.915"/>
<text text-anchor="middle" x="119" y="-416" font-family="Helvetica,sans-Serif" font-size="10.00"> #m_mirror_val</text>
<text text-anchor="middle" x="119" y="-405" font-family="Helvetica,sans-Serif" font-size="10.00">#my_value</text>
</g>
<!-- Node8 -->
<g id="node8" class="node"><title>Node8</title>
<g id="a_node8"><a xlink:title="STL class. ">
<polygon fill="white" stroke="#bfbfbf" points="0,-712.5 0,-769.5 87,-769.5 87,-712.5 0,-712.5"/>
<text text-anchor="middle" x="43.5" y="-757.5" font-family="Helvetica,sans-Serif" font-size="10.00">std::vector&lt; T &gt;</text>
<polyline fill="none" stroke="#bfbfbf" points="0,-750.5 87,-750.5 "/>
<text text-anchor="middle" x="43.5" y="-738.5" font-family="Helvetica,sans-Serif" font-size="10.00"> </text>
<polyline fill="none" stroke="#bfbfbf" points="0,-731.5 87,-731.5 "/>
<text text-anchor="middle" x="43.5" y="-719.5" font-family="Helvetica,sans-Serif" font-size="10.00"> </text>
</a>
</g>
</g>
<!-- Node8&#45;&gt;Node7 -->
<g id="edge9" class="edge"><title>Node8&#45;&gt;Node7</title>
<path fill="none" stroke="orange" d="M22.38,-703.291C15.5171,-687.139 10.5645,-667.822 14.5,-650 21.2028,-619.646 36.995,-587.746 49.4297,-565.789"/>
<polygon fill="orange" stroke="orange" points="19.2171,-704.791 26.5887,-712.4 25.5716,-701.855 19.2171,-704.791"/>
<text text-anchor="middle" x="47" y="-653" font-family="Helvetica,sans-Serif" font-size="10.00"> &lt; std::string &gt;</text>
</g>
<!-- Node9 -->
<g id="node9" class="node"><title>Node9</title>
<polygon fill="white" stroke="#bfbfbf" points="239,-856 239,-913 268,-913 268,-856 239,-856"/>
<text text-anchor="middle" x="253.5" y="-901" font-family="Helvetica,sans-Serif" font-size="10.00">T</text>
<polyline fill="none" stroke="#bfbfbf" points="239,-894 268,-894 "/>
<text text-anchor="middle" x="253.5" y="-882" font-family="Helvetica,sans-Serif" font-size="10.00"> </text>
<polyline fill="none" stroke="#bfbfbf" points="239,-875 268,-875 "/>
<text text-anchor="middle" x="253.5" y="-863" font-family="Helvetica,sans-Serif" font-size="10.00"> </text>
</g>
<!-- Node9&#45;&gt;Node8 -->
<g id="edge10" class="edge"><title>Node9&#45;&gt;Node8</title>
<path fill="none" stroke="#404040" d="M238.916,-865.959C233.777,-860.427 227.721,-854.573 221.5,-850 183.544,-822.1 166.743,-827.486 126.5,-803 113.61,-795.157 100.2,-785.858 88.0143,-776.914"/>
<polygon fill="none" stroke="#404040" points="87.724,-776.697 80.5229,-776.318 78.1038,-769.524 85.3049,-769.904 87.724,-776.697"/>
<text text-anchor="middle" x="215" y="-824" font-family="Helvetica,sans-Serif" font-size="10.00"> +elements</text>
</g>
<!-- Node9&#45;&gt;Node10 -->
<g id="edge15" class="edge"><title>Node9&#45;&gt;Node10</title>
<path fill="none" stroke="#404040" d="M255.799,-855.913C259.296,-816.501 266.705,-741.889 277.5,-679 279.475,-667.496 281.788,-655.519 284.251,-643.621"/>
<polygon fill="none" stroke="#404040" points="284.275,-643.509 281.603,-636.811 286.758,-631.769 289.43,-638.467 284.275,-643.509"/>
<text text-anchor="middle" x="310" y="-744" font-family="Helvetica,sans-Serif" font-size="10.00"> #m_mirror_val</text>
<text text-anchor="middle" x="310" y="-733" font-family="Helvetica,sans-Serif" font-size="10.00">#my_value</text>
</g>
<!-- Node10&#45;&gt;Node2 -->
<g id="edge11" class="edge"><title>Node10&#45;&gt;Node2</title>
<path fill="none" stroke="orange" d="M268.489,-432.856C262.031,-416.614 255.366,-399.852 248.944,-383.702"/>
<polygon fill="orange" stroke="orange" points="265.317,-434.351 272.264,-442.351 271.821,-431.765 265.317,-434.351"/>
<text text-anchor="start" x="262.5" y="-416" font-family="Helvetica,sans-Serif" font-size="10.00"> &lt; std::vector&lt; std</text>
<text text-anchor="middle" x="303.5" y="-405" font-family="Helvetica,sans-Serif" font-size="10.00">::string &gt; &gt;</text>
</g>
<!-- Node11 -->
<g id="node11" class="node"><title>Node11</title>
<polygon fill="white" stroke="#bfbfbf" points="351.5,-712.5 351.5,-769.5 447.5,-769.5 447.5,-712.5 351.5,-712.5"/>
<text text-anchor="middle" x="399.5" y="-757.5" font-family="Helvetica,sans-Serif" font-size="10.00">sr_param_t&lt; T &gt; *</text>
<polyline fill="none" stroke="#bfbfbf" points="351.5,-750.5 447.5,-750.5 "/>
<text text-anchor="middle" x="399.5" y="-738.5" font-family="Helvetica,sans-Serif" font-size="10.00"> </text>
<polyline fill="none" stroke="#bfbfbf" points="351.5,-731.5 447.5,-731.5 "/>
<text text-anchor="middle" x="399.5" y="-719.5" font-family="Helvetica,sans-Serif" font-size="10.00"> </text>
</g>
<!-- Node11&#45;&gt;Node10 -->
<g id="edge13" class="edge"><title>Node11&#45;&gt;Node10</title>
<path fill="none" stroke="#404040" d="M387.175,-712.336C378.96,-693.9 367.595,-668.39 356.09,-642.569"/>
<polygon fill="none" stroke="#404040" points="356.044,-642.465 349.948,-638.612 351.16,-631.503 357.256,-635.356 356.044,-642.465"/>
<text text-anchor="middle" x="403" y="-653" font-family="Helvetica,sans-Serif" font-size="10.00"> #m_mirror_param</text>
</g>
</g>
</svg>
        <g id="navigator" transform="translate(0 0)" fill="#404254">
                <rect fill="#f2f5e9" fill-opacity="0.5" stroke="#606060" stroke-width=".5" x="0" y="0" width="60" height="60"/>
                <use id="zoomplus" xlink:href="#zoomPlus" x="17" y="9" onmousedown="handleZoom(evt,'in')"/>
                <use id="zoomminus" xlink:href="#zoomMin" x="42" y="9" onmousedown="handleZoom(evt,'out')"/>
                <use id="reset" xlink:href="#resetDef" x="30" y="36" onmousedown="handleReset()"/>
                <g id="arrowUp" xlink:href="#dirArrow" transform="translate(30 24)" onmousedown="handlePan(0,-1)">
                  <use xlink:href="#rim" fill="#404040">
                        <set attributeName="fill" to="#808080" begin="arrowUp.mouseover" end="arrowUp.mouseout"/>
                  </use>
                  <path fill="none" stroke="white" stroke-width="1.5" d="M0,-3.0v7 M-2.5,-0.5L0,-3.0L2.5,-0.5"/>
                </g>
                <g id="arrowRight" xlink:href="#dirArrow" transform="rotate(90) translate(36 -43)" onmousedown="handlePan(1,0)">
                  <use xlink:href="#rim" fill="#404040">
                        <set attributeName="fill" to="#808080" begin="arrowRight.mouseover" end="arrowRight.mouseout"/>
                  </use>
                  <path fill="none" stroke="white" stroke-width="1.5" d="M0,-3.0v7 M-2.5,-0.5L0,-3.0L2.5,-0.5"/>
                </g>
                <g id="arrowDown" xlink:href="#dirArrow" transform="rotate(180) translate(-30 -48)" onmousedown="handlePan(0,1)">
                  <use xlink:href="#rim" fill="#404040">
                        <set attributeName="fill" to="#808080" begin="arrowDown.mouseover" end="arrowDown.mouseout"/>
                  </use>
                  <path fill="none" stroke="white" stroke-width="1.5" d="M0,-3.0v7 M-2.5,-0.5L0,-3.0L2.5,-0.5"/>
                </g>
                <g id="arrowLeft" xlink:href="#dirArrow" transform="rotate(270) translate(-36 17)" onmousedown="handlePan(-1,0)">
                  <use xlink:href="#rim" fill="#404040">
                        <set attributeName="fill" to="#808080" begin="arrowLeft.mouseover" end="arrowLeft.mouseout"/>
                  </use>
                  <path fill="none" stroke="white" stroke-width="1.5" d="M0,-3.0v7 M-2.5,-0.5L0,-3.0L2.5,-0.5"/>
                </g>
        </g>
        <svg viewBox="0 0 15 15" width="100%" height="30px" preserveAspectRatio="xMaxYMin meet">
         <g id="arrow_out" transform="scale(0.3 0.3)">
          <a xlink:href="classsr__param_3_01std_1_1vector_3_01std_1_1string_01_4_01_4__coll__graph_org.svg" target="_base">
           <rect id="button" ry="5" rx="5" y="6" x="6" height="38" width="38"
                fill="#f2f5e9" fill-opacity="0.5" stroke="#606060" stroke-width="1.0"/>
           <path id="arrow"
             d="M 11.500037,31.436501 C 11.940474,20.09759 22.043105,11.32322 32.158766,21.979434 L 37.068811,17.246167 C 37.068811,17.246167 37.088388,32 37.088388,32 L 22.160133,31.978069 C 22.160133,31.978069 26.997745,27.140456 26.997745,27.140456 C 18.528582,18.264221 13.291696,25.230495 11.500037,31.436501 z"
             style="fill:#404040;"/>
          </a>
         </g>
        </svg>
</svg>
