<?xml version="1.0" encoding="UTF-8" standalone="no"?>
<!DOCTYPE svg PUBLIC "-//W3C//DTD SVG 1.1//EN"
 "http://www.w3.org/Graphics/SVG/1.1/DTD/svg11.dtd">
<!-- Generated by graphviz version 2.36.0 (20140111.2315)
 -->
<!-- Title: core.tools.generator.template.Template.storeConfiguration Pages: 1 -->
<svg width="338pt" height="38pt"
 viewBox="0.00 0.00 338.00 38.00" xmlns="http://www.w3.org/2000/svg" xmlns:xlink="http://www.w3.org/1999/xlink">
<g id="graph0" class="graph" transform="scale(1 1) rotate(0) translate(4 34)">
<title>core.tools.generator.template.Template.storeConfiguration</title>
<polygon fill="white" stroke="none" points="-4,4 -4,-34 334,-34 334,4 -4,4"/>
<!-- Node1 -->
<g id="node1" class="node"><title>Node1</title>
<polygon fill="#bfbfbf" stroke="black" points="0,-0 0,-30 146,-30 146,-0 0,-0"/>
<text text-anchor="start" x="8" y="-18" font-family="Helvetica,sans-Serif" font-size="10.00">core.tools.generator.template.</text>
<text text-anchor="middle" x="73" y="-7" font-family="Helvetica,sans-Serif" font-size="10.00">Template.storeConfiguration</text>
</g>
<!-- Node2 -->
<g id="node2" class="node"><title>Node2</title>
<g id="a_node2"><a xlink:href="classcore_1_1tools_1_1generator_1_1template_1_1Template.html#aa1c677ddd50e9cfeb284fecb523cba5f" target="_top" xlink:title="core.tools.generator.template.\lTemplate.getConfigurationFile">
<polygon fill="white" stroke="black" points="182.5,-0 182.5,-30 329.5,-30 329.5,-0 182.5,-0"/>
<text text-anchor="start" x="190.5" y="-18" font-family="Helvetica,sans-Serif" font-size="10.00">core.tools.generator.template.</text>
<text text-anchor="middle" x="256" y="-7" font-family="Helvetica,sans-Serif" font-size="10.00">Template.getConfigurationFile</text>
</a>
</g>
</g>
<!-- Node1&#45;&gt;Node2 -->
<g id="edge1" class="edge"><title>Node1&#45;&gt;Node2</title>
<path fill="none" stroke="midnightblue" d="M146.056,-15C154.63,-15 163.434,-15 172.143,-15"/>
<polygon fill="midnightblue" stroke="midnightblue" points="172.304,-18.5001 182.304,-15 172.304,-11.5001 172.304,-18.5001"/>
</g>
</g>
</svg>
