<?xml version="1.0" encoding="UTF-8" standalone="no"?>
<!DOCTYPE svg PUBLIC "-//W3C//DTD SVG 1.1//EN"
 "http://www.w3.org/Graphics/SVG/1.1/DTD/svg11.dtd">
<!-- Generated by graphviz version 2.26.0 (20091210.2329)
 -->
<!-- Title: trap::dupSysCall&lt; wordSize &gt; Pages: 1 -->
<svg width="156pt" height="226pt"
 viewBox="0.00 0.00 156.00 226.00" xmlns="http://www.w3.org/2000/svg" xmlns:xlink="http://www.w3.org/1999/xlink">
<g id="graph1" class="graph" transform="scale(1 1) rotate(0) translate(4 222)">
<title>trap::dupSysCall&lt; wordSize &gt;</title>
<polygon fill="white" stroke="white" points="-4,5 -4,-222 153,-222 153,5 -4,5"/>
<!-- Node1 -->
<g id="node1" class="node"><title>Node1</title>
<polygon fill="#bfbfbf" stroke="black" points="0,-1 0,-77 148,-77 148,-1 0,-1"/>
<text text-anchor="middle" x="74" y="-64" font-family="Helvetica,sans-Serif" font-size="10.00">trap::dupSysCall&lt; wordSize &gt;</text>
<polyline fill="none" stroke="black" points="0,-56 148,-56 "/>
<text text-anchor="middle" x="74" y="-43" font-family="Helvetica,sans-Serif" font-size="10.00"> </text>
<polyline fill="none" stroke="black" points="0,-35 148,-35 "/>
<text text-anchor="start" x="8" y="-22" font-family="Helvetica,sans-Serif" font-size="10.00">+ dupSysCall()</text>
<text text-anchor="start" x="8" y="-9" font-family="Helvetica,sans-Serif" font-size="10.00">+ operator()()</text>
</g>
<!-- Node2 -->
<g id="node2" class="node"><title>Node2</title>
<a xlink:href="classtrap_1_1SyscallCB.html" target="_top" xlink:title="{trap::SyscallCB\&lt; wordSize \&gt;\n|# processorInstance\l# latency\l|+ SyscallCB()\l+ ~SyscallCB()\l+ operator()()\l}">
<polygon fill="white" stroke="black" points="2,-115 2,-217 146,-217 146,-115 2,-115"/>
<text text-anchor="middle" x="74" y="-204" font-family="Helvetica,sans-Serif" font-size="10.00">trap::SyscallCB&lt; wordSize &gt;</text>
<polyline fill="none" stroke="black" points="2,-196 146,-196 "/>
<text text-anchor="start" x="10" y="-183" font-family="Helvetica,sans-Serif" font-size="10.00"># processorInstance</text>
<text text-anchor="start" x="10" y="-170" font-family="Helvetica,sans-Serif" font-size="10.00"># latency</text>
<polyline fill="none" stroke="black" points="2,-162 146,-162 "/>
<text text-anchor="start" x="10" y="-149" font-family="Helvetica,sans-Serif" font-size="10.00">+ SyscallCB()</text>
<text text-anchor="start" x="10" y="-136" font-family="Helvetica,sans-Serif" font-size="10.00">+ ~SyscallCB()</text>
<text text-anchor="start" x="10" y="-123" font-family="Helvetica,sans-Serif" font-size="10.00">+ operator()()</text>
</a>
</g>
<!-- Node2&#45;&gt;Node1 -->
<g id="edge2" class="edge"><title>Node2&#45;&gt;Node1</title>
<path fill="none" stroke="midnightblue" d="M74,-104.625C74,-95.273 74,-85.8595 74,-77.197"/>
<polygon fill="none" stroke="midnightblue" points="70.5001,-104.71 74,-114.71 77.5001,-104.71 70.5001,-104.71"/>
</g>
</g>
</svg>
