<?xml version="1.0" encoding="UTF-8" standalone="no"?>
<!DOCTYPE svg PUBLIC "-//W3C//DTD SVG 1.1//EN"
 "http://www.w3.org/Graphics/SVG/1.1/DTD/svg11.dtd">
<!-- Generated by graphviz version 2.36.0 (20140111.2315)
 -->
<!-- Title: v::pair Pages: 1 -->
<svg width="171pt" height="424pt"
 viewBox="0.00 0.00 171.00 424.00" xmlns="http://www.w3.org/2000/svg" xmlns:xlink="http://www.w3.org/1999/xlink">
<g id="graph0" class="graph" transform="scale(1 1) rotate(0) translate(4 420)">
<title>v::pair</title>
<polygon fill="white" stroke="none" points="-4,4 -4,-420 167,-420 167,4 -4,4"/>
<!-- Node1 -->
<g id="node1" class="node"><title>Node1</title>
<polygon fill="#bfbfbf" stroke="black" points="56.5,-1 56.5,-201 109.5,-201 109.5,-1 56.5,-1"/>
<text text-anchor="middle" x="83" y="-189" font-family="Helvetica,sans-Serif" font-size="10.00">v::pair</text>
<polyline fill="none" stroke="black" points="56.5,-182 109.5,-182 "/>
<text text-anchor="middle" x="83" y="-170" font-family="Helvetica,sans-Serif" font-size="10.00"> </text>
<polyline fill="none" stroke="black" points="56.5,-163 109.5,-163 "/>
<text text-anchor="start" x="64.5" y="-151" font-family="Helvetica,sans-Serif" font-size="10.00">+ pair()</text>
<text text-anchor="start" x="64.5" y="-140" font-family="Helvetica,sans-Serif" font-size="10.00">+ pair()</text>
<text text-anchor="start" x="64.5" y="-129" font-family="Helvetica,sans-Serif" font-size="10.00">+ pair()</text>
<text text-anchor="start" x="64.5" y="-118" font-family="Helvetica,sans-Serif" font-size="10.00">+ pair()</text>
<text text-anchor="start" x="64.5" y="-107" font-family="Helvetica,sans-Serif" font-size="10.00">+ pair()</text>
<text text-anchor="start" x="64.5" y="-96" font-family="Helvetica,sans-Serif" font-size="10.00">+ pair()</text>
<text text-anchor="start" x="64.5" y="-85" font-family="Helvetica,sans-Serif" font-size="10.00">+ pair()</text>
<text text-anchor="start" x="64.5" y="-74" font-family="Helvetica,sans-Serif" font-size="10.00">+ pair()</text>
<text text-anchor="start" x="64.5" y="-63" font-family="Helvetica,sans-Serif" font-size="10.00">+ pair()</text>
<text text-anchor="start" x="64.5" y="-52" font-family="Helvetica,sans-Serif" font-size="10.00">+ pair()</text>
<text text-anchor="start" x="64.5" y="-41" font-family="Helvetica,sans-Serif" font-size="10.00">+ pair()</text>
<text text-anchor="start" x="64.5" y="-30" font-family="Helvetica,sans-Serif" font-size="10.00">+ pair()</text>
<text text-anchor="start" x="64.5" y="-19" font-family="Helvetica,sans-Serif" font-size="10.00">+ pair()</text>
<text text-anchor="start" x="64.5" y="-8" font-family="Helvetica,sans-Serif" font-size="10.00">+ ~pair()</text>
</g>
<!-- Node2 -->
<g id="node2" class="node"><title>Node2</title>
<polygon fill="white" stroke="#bfbfbf" points="-0.5,-250.5 -0.5,-307.5 34.5,-307.5 34.5,-250.5 -0.5,-250.5"/>
<text text-anchor="middle" x="17" y="-295.5" font-family="Helvetica,sans-Serif" font-size="10.00">type</text>
<polyline fill="none" stroke="#bfbfbf" points="-0.5,-288.5 34.5,-288.5 "/>
<text text-anchor="middle" x="17" y="-276.5" font-family="Helvetica,sans-Serif" font-size="10.00"> </text>
<polyline fill="none" stroke="#bfbfbf" points="-0.5,-269.5 34.5,-269.5 "/>
<text text-anchor="middle" x="17" y="-257.5" font-family="Helvetica,sans-Serif" font-size="10.00"> </text>
</g>
<!-- Node2&#45;&gt;Node1 -->
<g id="edge1" class="edge"><title>Node2&#45;&gt;Node1</title>
<path fill="none" stroke="#404040" d="M27.4579,-250.112C34.1425,-232.287 43.191,-208.157 52.0427,-184.553"/>
<polygon fill="none" stroke="#404040" points="52.1476,-184.273 50.509,-177.25 56.3611,-173.037 57.9997,-180.06 52.1476,-184.273"/>
<text text-anchor="middle" x="53" y="-223.5" font-family="Helvetica,sans-Serif" font-size="10.00"> +type</text>
</g>
<!-- Node3 -->
<g id="node3" class="node"><title>Node3</title>
<g id="a_node3"><a xlink:title="STL class. ">
<polygon fill="white" stroke="#bfbfbf" points="53,-250.5 53,-307.5 113,-307.5 113,-250.5 53,-250.5"/>
<text text-anchor="middle" x="83" y="-295.5" font-family="Helvetica,sans-Serif" font-size="10.00">std::string</text>
<polyline fill="none" stroke="#bfbfbf" points="53,-288.5 113,-288.5 "/>
<text text-anchor="middle" x="83" y="-276.5" font-family="Helvetica,sans-Serif" font-size="10.00"> </text>
<polyline fill="none" stroke="#bfbfbf" points="53,-269.5 113,-269.5 "/>
<text text-anchor="middle" x="83" y="-257.5" font-family="Helvetica,sans-Serif" font-size="10.00"> </text>
</a>
</g>
</g>
<!-- Node3&#45;&gt;Node1 -->
<g id="edge2" class="edge"><title>Node3&#45;&gt;Node1</title>
<path fill="none" stroke="#404040" d="M83,-250.112C83,-239.542 83,-226.755 83,-213.175"/>
<polygon fill="none" stroke="#404040" points="83.0001,-213.073 79,-207.073 83,-201.073 87,-207.073 83.0001,-213.073"/>
<text text-anchor="middle" x="100" y="-223.5" font-family="Helvetica,sans-Serif" font-size="10.00"> +name</text>
</g>
<!-- Node4 -->
<g id="node4" class="node"><title>Node4</title>
<g id="a_node4"><a xlink:title="STL class. ">
<polygon fill="white" stroke="#bfbfbf" points="35.5,-347 35.5,-415 130.5,-415 130.5,-347 35.5,-347"/>
<text text-anchor="start" x="43.5" y="-403" font-family="Helvetica,sans-Serif" font-size="10.00">std::basic_string&lt;</text>
<text text-anchor="middle" x="83" y="-392" font-family="Helvetica,sans-Serif" font-size="10.00"> char &gt;</text>
<polyline fill="none" stroke="#bfbfbf" points="35.5,-385 130.5,-385 "/>
<text text-anchor="middle" x="83" y="-373" font-family="Helvetica,sans-Serif" font-size="10.00"> </text>
<polyline fill="none" stroke="#bfbfbf" points="35.5,-366 130.5,-366 "/>
<text text-anchor="middle" x="83" y="-354" font-family="Helvetica,sans-Serif" font-size="10.00"> </text>
</a>
</g>
</g>
<!-- Node4&#45;&gt;Node3 -->
<g id="edge3" class="edge"><title>Node4&#45;&gt;Node3</title>
<path fill="none" stroke="midnightblue" d="M83,-336.857C83,-326.952 83,-316.682 83,-307.64"/>
<polygon fill="none" stroke="midnightblue" points="79.5001,-336.979 83,-346.979 86.5001,-336.979 79.5001,-336.979"/>
</g>
<!-- Node5 -->
<g id="node5" class="node"><title>Node5</title>
<polygon fill="white" stroke="#bfbfbf" points="131,-250.5 131,-307.5 163,-307.5 163,-250.5 131,-250.5"/>
<text text-anchor="middle" x="147" y="-295.5" font-family="Helvetica,sans-Serif" font-size="10.00">any</text>
<polyline fill="none" stroke="#bfbfbf" points="131,-288.5 163,-288.5 "/>
<text text-anchor="middle" x="147" y="-276.5" font-family="Helvetica,sans-Serif" font-size="10.00"> </text>
<polyline fill="none" stroke="#bfbfbf" points="131,-269.5 163,-269.5 "/>
<text text-anchor="middle" x="147" y="-257.5" font-family="Helvetica,sans-Serif" font-size="10.00"> </text>
</g>
<!-- Node5&#45;&gt;Node1 -->
<g id="edge4" class="edge"><title>Node5&#45;&gt;Node1</title>
<path fill="none" stroke="#404040" d="M136.859,-250.112C130.557,-232.782 122.089,-209.494 113.736,-186.523"/>
<polygon fill="none" stroke="#404040" points="113.623,-186.214 107.814,-181.943 109.523,-174.937 115.332,-179.209 113.623,-186.214"/>
<text text-anchor="middle" x="144" y="-223.5" font-family="Helvetica,sans-Serif" font-size="10.00"> +data</text>
</g>
</g>
</svg>
