<?xml version="1.0" encoding="UTF-8" standalone="no"?>
<!DOCTYPE svg PUBLIC "-//W3C//DTD SVG 1.1//EN"
 "http://www.w3.org/Graphics/SVG/1.1/DTD/svg11.dtd">
<!-- Generated by graphviz version 2.36.0 (20140111.2315)
 -->
<!-- Title: Exception Pages: 1 -->
<svg width="498pt" height="172pt"
 viewBox="0.00 0.00 498.00 172.00" xmlns="http://www.w3.org/2000/svg" xmlns:xlink="http://www.w3.org/1999/xlink">
<g id="graph0" class="graph" transform="scale(1 1) rotate(0) translate(4 168)">
<title>Exception</title>
<polygon fill="white" stroke="none" points="-4,4 -4,-168 494,-168 494,4 -4,4"/>
<!-- Node1 -->
<g id="node1" class="node"><title>Node1</title>
<polygon fill="#bfbfbf" stroke="black" points="253,-106.5 253,-163.5 313,-163.5 313,-106.5 253,-106.5"/>
<text text-anchor="middle" x="283" y="-151.5" font-family="Helvetica,sans-Serif" font-size="10.00">Exception</text>
<polyline fill="none" stroke="black" points="253,-144.5 313,-144.5 "/>
<text text-anchor="middle" x="283" y="-132.5" font-family="Helvetica,sans-Serif" font-size="10.00"> </text>
<polyline fill="none" stroke="black" points="253,-125.5 313,-125.5 "/>
<text text-anchor="middle" x="283" y="-113.5" font-family="Helvetica,sans-Serif" font-size="10.00"> </text>
</g>
<!-- Node2 -->
<g id="node2" class="node"><title>Node2</title>
<g id="a_node2"><a xlink:href="classusi_1_1cci_1_1parameter_1_1GSParamNonExistent.html" target="_top" xlink:title="{usi.cci.parameter.GSParam\lNonExistent\n||}">
<polygon fill="white" stroke="black" points="-0.5,-1 -0.5,-69 136.5,-69 136.5,-1 -0.5,-1"/>
<text text-anchor="start" x="7.5" y="-57" font-family="Helvetica,sans-Serif" font-size="10.00">usi.cci.parameter.GSParam</text>
<text text-anchor="middle" x="68" y="-46" font-family="Helvetica,sans-Serif" font-size="10.00">NonExistent</text>
<polyline fill="none" stroke="black" points="-0.5,-39 136.5,-39 "/>
<text text-anchor="middle" x="68" y="-27" font-family="Helvetica,sans-Serif" font-size="10.00"> </text>
<polyline fill="none" stroke="black" points="-0.5,-20 136.5,-20 "/>
<text text-anchor="middle" x="68" y="-8" font-family="Helvetica,sans-Serif" font-size="10.00"> </text>
</a>
</g>
</g>
<!-- Node1&#45;&gt;Node2 -->
<g id="edge1" class="edge"><title>Node1&#45;&gt;Node2</title>
<path fill="none" stroke="midnightblue" d="M243.408,-115.953C213.587,-102.361 171.961,-83.3867 136.742,-67.3336"/>
<polygon fill="none" stroke="midnightblue" points="242.101,-119.204 252.652,-120.167 245.004,-112.834 242.101,-119.204"/>
</g>
<!-- Node3 -->
<g id="node3" class="node"><title>Node3</title>
<g id="a_node3"><a xlink:href="classusi_1_1DuplicateThreadHandle.html" target="_top" xlink:title="{usi.DuplicateThreadHandle\n||}">
<polygon fill="white" stroke="black" points="155,-6.5 155,-63.5 289,-63.5 289,-6.5 155,-6.5"/>
<text text-anchor="middle" x="222" y="-51.5" font-family="Helvetica,sans-Serif" font-size="10.00">usi.DuplicateThreadHandle</text>
<polyline fill="none" stroke="black" points="155,-44.5 289,-44.5 "/>
<text text-anchor="middle" x="222" y="-32.5" font-family="Helvetica,sans-Serif" font-size="10.00"> </text>
<polyline fill="none" stroke="black" points="155,-25.5 289,-25.5 "/>
<text text-anchor="middle" x="222" y="-13.5" font-family="Helvetica,sans-Serif" font-size="10.00"> </text>
</a>
</g>
</g>
<!-- Node1&#45;&gt;Node3 -->
<g id="edge2" class="edge"><title>Node1&#45;&gt;Node3</title>
<path fill="none" stroke="midnightblue" d="M260.394,-97.6819C253.398,-86.443 245.808,-74.2482 239.237,-63.692"/>
<polygon fill="none" stroke="midnightblue" points="257.59,-99.8006 265.846,-106.441 263.533,-96.1015 257.59,-99.8006"/>
</g>
<!-- Node4 -->
<g id="node4" class="node"><title>Node4</title>
<g id="a_node4"><a xlink:href="classusi_1_1ThreadKill.html" target="_top" xlink:title="{usi.ThreadKill\n||}">
<polygon fill="white" stroke="black" points="307,-6.5 307,-63.5 383,-63.5 383,-6.5 307,-6.5"/>
<text text-anchor="middle" x="345" y="-51.5" font-family="Helvetica,sans-Serif" font-size="10.00">usi.ThreadKill</text>
<polyline fill="none" stroke="black" points="307,-44.5 383,-44.5 "/>
<text text-anchor="middle" x="345" y="-32.5" font-family="Helvetica,sans-Serif" font-size="10.00"> </text>
<polyline fill="none" stroke="black" points="307,-25.5 383,-25.5 "/>
<text text-anchor="middle" x="345" y="-13.5" font-family="Helvetica,sans-Serif" font-size="10.00"> </text>
</a>
</g>
</g>
<!-- Node1&#45;&gt;Node4 -->
<g id="edge3" class="edge"><title>Node1&#45;&gt;Node4</title>
<path fill="none" stroke="midnightblue" d="M305.977,-97.6819C313.087,-86.443 320.802,-74.2482 327.481,-63.692"/>
<polygon fill="none" stroke="midnightblue" points="302.824,-96.1187 300.435,-106.441 308.74,-99.8612 302.824,-96.1187"/>
</g>
<!-- Node5 -->
<g id="node5" class="node"><title>Node5</title>
<g id="a_node5"><a xlink:href="classusi_1_1ThreadReset.html" target="_top" xlink:title="{usi.ThreadReset\n||}">
<polygon fill="white" stroke="black" points="401.5,-6.5 401.5,-63.5 490.5,-63.5 490.5,-6.5 401.5,-6.5"/>
<text text-anchor="middle" x="446" y="-51.5" font-family="Helvetica,sans-Serif" font-size="10.00">usi.ThreadReset</text>
<polyline fill="none" stroke="black" points="401.5,-44.5 490.5,-44.5 "/>
<text text-anchor="middle" x="446" y="-32.5" font-family="Helvetica,sans-Serif" font-size="10.00"> </text>
<polyline fill="none" stroke="black" points="401.5,-25.5 490.5,-25.5 "/>
<text text-anchor="middle" x="446" y="-13.5" font-family="Helvetica,sans-Serif" font-size="10.00"> </text>
</a>
</g>
</g>
<!-- Node1&#45;&gt;Node5 -->
<g id="edge4" class="edge"><title>Node1&#45;&gt;Node5</title>
<path fill="none" stroke="midnightblue" d="M322.107,-111.431C342.95,-99.3043 368.972,-84.0057 392,-70 395.408,-67.9276 398.925,-65.7656 402.453,-63.5804"/>
<polygon fill="none" stroke="midnightblue" points="320.111,-108.543 313.221,-116.592 323.627,-114.596 320.111,-108.543"/>
</g>
</g>
</svg>
