<?xml version="1.0" encoding="UTF-8" standalone="no"?>
<!DOCTYPE svg PUBLIC "-//W3C//DTD SVG 1.1//EN"
 "http://www.w3.org/Graphics/SVG/1.1/DTD/svg11.dtd">
<!-- Generated by graphviz version 2.36.0 (20140111.2315)
 -->
<!-- Title: nocache Pages: 1 -->
<!--zoomable 552 -->
<svg id="main" version="1.1" xmlns="http://www.w3.org/2000/svg" xmlns:xlink="http://www.w3.org/1999/xlink" xml:space="preserve" onload="init(evt)">
<style type="text/css"><![CDATA[
.edge:hover path { stroke: red; }
.edge:hover polygon { stroke: red; fill: red; }
]]></style>
<script type="text/javascript"><![CDATA[
var edges = document.getElementsByTagName('g');
if (edges && edges.length) {
  for (var i=0;i<edges.length;i++) {
    if (edges[i].id.substr(0,4)=='edge') {
      edges[i].setAttribute('class','edge');
    }
  }
}
]]></script>
        <defs>
                <circle id="rim" cx="0" cy="0" r="7"/>
                <circle id="rim2" cx="0" cy="0" r="3.5"/>
                <g id="zoomPlus">
                        <use xlink:href="#rim" fill="#404040">
                                <set attributeName="fill" to="#808080" begin="zoomplus.mouseover" end="zoomplus.mouseout"/>
                        </use>
                        <path d="M-4,0h8M0,-4v8" fill="none" stroke="white" stroke-width="1.5" pointer-events="none"/>
                </g>
                <g id="zoomMin">
                        <use xlink:href="#rim" fill="#404040">
                                <set attributeName="fill" to="#808080" begin="zoomminus.mouseover" end="zoomminus.mouseout"/>
                        </use>
                        <path d="M-4,0h8" fill="none" stroke="white" stroke-width="1.5" pointer-events="none"/>
                </g>
                <g id="dirArrow">
                        <path fill="none" stroke="white" stroke-width="1.5" d="M0,-3.0v7 M-2.5,-0.5L0,-3.0L2.5,-0.5"/>
                </g>
               <g id="resetDef">
                       <use xlink:href="#rim2" fill="#404040">
                               <set attributeName="fill" to="#808080" begin="reset.mouseover" end="reset.mouseout"/>
                       </use>
               </g>
        </defs>

<script type="text/javascript">
var viewWidth = 207;
var viewHeight = 552;
var sectionId = 'dynsection-0';
</script>
<script xlink:href="svgpan.js"/>
<svg id="graph" class="graph">
<g id="viewport">
<title>nocache</title>
<polygon fill="white" stroke="none" points="-4,4 -4,-548 203,-548 203,4 -4,4"/>
<!-- Node1 -->
<g id="node1" class="node"><title>Node1</title>
<polygon fill="#bfbfbf" stroke="black" points="33.5,-0.5 33.5,-211.5 144.5,-211.5 144.5,-0.5 33.5,-0.5"/>
<text text-anchor="middle" x="89" y="-199.5" font-family="Helvetica,sans-Serif" font-size="10.00">nocache</text>
<polyline fill="none" stroke="black" points="33.5,-192.5 144.5,-192.5 "/>
<text text-anchor="middle" x="89" y="-180.5" font-family="Helvetica,sans-Serif" font-size="10.00"> </text>
<polyline fill="none" stroke="black" points="33.5,-173.5 144.5,-173.5 "/>
<text text-anchor="start" x="41.5" y="-161.5" font-family="Helvetica,sans-Serif" font-size="10.00">+ mem_read()</text>
<text text-anchor="start" x="41.5" y="-150.5" font-family="Helvetica,sans-Serif" font-size="10.00">+ mem_write()</text>
<text text-anchor="start" x="41.5" y="-139.5" font-family="Helvetica,sans-Serif" font-size="10.00">+ flush()</text>
<text text-anchor="start" x="41.5" y="-128.5" font-family="Helvetica,sans-Serif" font-size="10.00">+ read_cache_tag()</text>
<text text-anchor="start" x="41.5" y="-117.5" font-family="Helvetica,sans-Serif" font-size="10.00">+ write_cache_tag()</text>
<text text-anchor="start" x="41.5" y="-106.5" font-family="Helvetica,sans-Serif" font-size="10.00">+ read_cache_entry()</text>
<text text-anchor="start" x="41.5" y="-95.5" font-family="Helvetica,sans-Serif" font-size="10.00">+ write_cache_entry()</text>
<text text-anchor="start" x="41.5" y="-84.5" font-family="Helvetica,sans-Serif" font-size="10.00">+ read_config_reg()</text>
<text text-anchor="start" x="41.5" y="-73.5" font-family="Helvetica,sans-Serif" font-size="10.00">+ check_mode()</text>
<text text-anchor="start" x="41.5" y="-62.5" font-family="Helvetica,sans-Serif" font-size="10.00">+ get_cache_type()</text>
<text text-anchor="start" x="41.5" y="-51.5" font-family="Helvetica,sans-Serif" font-size="10.00">+ snoop_invalidate()</text>
<text text-anchor="start" x="41.5" y="-40.5" font-family="Helvetica,sans-Serif" font-size="10.00">+ clkcng()</text>
<text text-anchor="start" x="41.5" y="-29.5" font-family="Helvetica,sans-Serif" font-size="10.00">+ dbg_out()</text>
<text text-anchor="start" x="41.5" y="-18.5" font-family="Helvetica,sans-Serif" font-size="10.00">+ nocache()</text>
<text text-anchor="start" x="41.5" y="-7.5" font-family="Helvetica,sans-Serif" font-size="10.00">+ ~nocache()</text>
</g>
<!-- Node2 -->
<g id="node2" class="node"><title>Node2</title>
<polygon fill="white" stroke="#bfbfbf" points="-0.5,-309.5 -0.5,-366.5 70.5,-366.5 70.5,-309.5 -0.5,-309.5"/>
<text text-anchor="middle" x="35" y="-354.5" font-family="Helvetica,sans-Serif" font-size="10.00">DefaultBase</text>
<polyline fill="none" stroke="#bfbfbf" points="-0.5,-347.5 70.5,-347.5 "/>
<text text-anchor="middle" x="35" y="-335.5" font-family="Helvetica,sans-Serif" font-size="10.00"> </text>
<polyline fill="none" stroke="#bfbfbf" points="-0.5,-328.5 70.5,-328.5 "/>
<text text-anchor="middle" x="35" y="-316.5" font-family="Helvetica,sans-Serif" font-size="10.00"> </text>
</g>
<!-- Node2&#45;&gt;Node1 -->
<g id="edge1" class="edge"><title>Node2&#45;&gt;Node1</title>
<path fill="none" stroke="midnightblue" d="M43.8046,-299.499C49.4487,-275.459 57.0769,-242.969 64.4581,-211.53"/>
<polygon fill="none" stroke="midnightblue" points="40.3921,-298.721 41.5137,-309.257 47.2068,-300.321 40.3921,-298.721"/>
</g>
<!-- Node3 -->
<g id="node3" class="node"><title>Node3</title>
<g id="a_node3"><a xlink:href="classcache__if.html" target="_top" xlink:title="{cache_if\n||+ flush()\l+ read_cache_tag()\l+ write_cache_tag()\l+ read_cache_entry()\l+ write_cache_entry()\l+ read_config_reg()\l+ check_mode()\l+ get_cache_type()\l+ snoop_invalidate()\l+ clkcng()\l+ dbg_out()\l+ ~cache_if()\l}">
<polygon fill="white" stroke="black" points="88.5,-249 88.5,-427 199.5,-427 199.5,-249 88.5,-249"/>
<text text-anchor="middle" x="144" y="-415" font-family="Helvetica,sans-Serif" font-size="10.00">cache_if</text>
<polyline fill="none" stroke="black" points="88.5,-408 199.5,-408 "/>
<text text-anchor="middle" x="144" y="-396" font-family="Helvetica,sans-Serif" font-size="10.00"> </text>
<polyline fill="none" stroke="black" points="88.5,-389 199.5,-389 "/>
<text text-anchor="start" x="96.5" y="-377" font-family="Helvetica,sans-Serif" font-size="10.00">+ flush()</text>
<text text-anchor="start" x="96.5" y="-366" font-family="Helvetica,sans-Serif" font-size="10.00">+ read_cache_tag()</text>
<text text-anchor="start" x="96.5" y="-355" font-family="Helvetica,sans-Serif" font-size="10.00">+ write_cache_tag()</text>
<text text-anchor="start" x="96.5" y="-344" font-family="Helvetica,sans-Serif" font-size="10.00">+ read_cache_entry()</text>
<text text-anchor="start" x="96.5" y="-333" font-family="Helvetica,sans-Serif" font-size="10.00">+ write_cache_entry()</text>
<text text-anchor="start" x="96.5" y="-322" font-family="Helvetica,sans-Serif" font-size="10.00">+ read_config_reg()</text>
<text text-anchor="start" x="96.5" y="-311" font-family="Helvetica,sans-Serif" font-size="10.00">+ check_mode()</text>
<text text-anchor="start" x="96.5" y="-300" font-family="Helvetica,sans-Serif" font-size="10.00">+ get_cache_type()</text>
<text text-anchor="start" x="96.5" y="-289" font-family="Helvetica,sans-Serif" font-size="10.00">+ snoop_invalidate()</text>
<text text-anchor="start" x="96.5" y="-278" font-family="Helvetica,sans-Serif" font-size="10.00">+ clkcng()</text>
<text text-anchor="start" x="96.5" y="-267" font-family="Helvetica,sans-Serif" font-size="10.00">+ dbg_out()</text>
<text text-anchor="start" x="96.5" y="-256" font-family="Helvetica,sans-Serif" font-size="10.00">+ ~cache_if()</text>
</a>
</g>
</g>
<!-- Node3&#45;&gt;Node1 -->
<g id="edge2" class="edge"><title>Node3&#45;&gt;Node1</title>
<path fill="none" stroke="midnightblue" d="M120.557,-238.964C118.389,-229.899 116.187,-220.689 114.005,-211.568"/>
<polygon fill="none" stroke="midnightblue" points="117.163,-239.822 122.893,-248.734 123.971,-238.194 117.163,-239.822"/>
</g>
<!-- Node4 -->
<g id="node4" class="node"><title>Node4</title>
<g id="a_node4"><a xlink:href="classmem__if.html" target="_top" xlink:title="{mem_if\n||+ mem_write()\l+ mem_read()\l+ ~mem_if()\l}">
<polygon fill="white" stroke="black" points="104,-464.5 104,-543.5 184,-543.5 184,-464.5 104,-464.5"/>
<text text-anchor="middle" x="144" y="-531.5" font-family="Helvetica,sans-Serif" font-size="10.00">mem_if</text>
<polyline fill="none" stroke="black" points="104,-524.5 184,-524.5 "/>
<text text-anchor="middle" x="144" y="-512.5" font-family="Helvetica,sans-Serif" font-size="10.00"> </text>
<polyline fill="none" stroke="black" points="104,-505.5 184,-505.5 "/>
<text text-anchor="start" x="112" y="-493.5" font-family="Helvetica,sans-Serif" font-size="10.00">+ mem_write()</text>
<text text-anchor="start" x="112" y="-482.5" font-family="Helvetica,sans-Serif" font-size="10.00">+ mem_read()</text>
<text text-anchor="start" x="112" y="-471.5" font-family="Helvetica,sans-Serif" font-size="10.00">+ ~mem_if()</text>
</a>
</g>
</g>
<!-- Node4&#45;&gt;Node3 -->
<g id="edge3" class="edge"><title>Node4&#45;&gt;Node3</title>
<path fill="none" stroke="midnightblue" d="M144,-454.01C144,-445.45 144,-436.314 144,-427.074"/>
<polygon fill="none" stroke="midnightblue" points="140.5,-454.134 144,-464.134 147.5,-454.134 140.5,-454.134"/>
</g>
</g>
</svg>
        <g id="navigator" transform="translate(0 0)" fill="#404254">
                <rect fill="#f2f5e9" fill-opacity="0.5" stroke="#606060" stroke-width=".5" x="0" y="0" width="60" height="60"/>
                <use id="zoomplus" xlink:href="#zoomPlus" x="17" y="9" onmousedown="handleZoom(evt,'in')"/>
                <use id="zoomminus" xlink:href="#zoomMin" x="42" y="9" onmousedown="handleZoom(evt,'out')"/>
                <use id="reset" xlink:href="#resetDef" x="30" y="36" onmousedown="handleReset()"/>
                <g id="arrowUp" xlink:href="#dirArrow" transform="translate(30 24)" onmousedown="handlePan(0,-1)">
                  <use xlink:href="#rim" fill="#404040">
                        <set attributeName="fill" to="#808080" begin="arrowUp.mouseover" end="arrowUp.mouseout"/>
                  </use>
                  <path fill="none" stroke="white" stroke-width="1.5" d="M0,-3.0v7 M-2.5,-0.5L0,-3.0L2.5,-0.5"/>
                </g>
                <g id="arrowRight" xlink:href="#dirArrow" transform="rotate(90) translate(36 -43)" onmousedown="handlePan(1,0)">
                  <use xlink:href="#rim" fill="#404040">
                        <set attributeName="fill" to="#808080" begin="arrowRight.mouseover" end="arrowRight.mouseout"/>
                  </use>
                  <path fill="none" stroke="white" stroke-width="1.5" d="M0,-3.0v7 M-2.5,-0.5L0,-3.0L2.5,-0.5"/>
                </g>
                <g id="arrowDown" xlink:href="#dirArrow" transform="rotate(180) translate(-30 -48)" onmousedown="handlePan(0,1)">
                  <use xlink:href="#rim" fill="#404040">
                        <set attributeName="fill" to="#808080" begin="arrowDown.mouseover" end="arrowDown.mouseout"/>
                  </use>
                  <path fill="none" stroke="white" stroke-width="1.5" d="M0,-3.0v7 M-2.5,-0.5L0,-3.0L2.5,-0.5"/>
                </g>
                <g id="arrowLeft" xlink:href="#dirArrow" transform="rotate(270) translate(-36 17)" onmousedown="handlePan(-1,0)">
                  <use xlink:href="#rim" fill="#404040">
                        <set attributeName="fill" to="#808080" begin="arrowLeft.mouseover" end="arrowLeft.mouseout"/>
                  </use>
                  <path fill="none" stroke="white" stroke-width="1.5" d="M0,-3.0v7 M-2.5,-0.5L0,-3.0L2.5,-0.5"/>
                </g>
        </g>
        <svg viewBox="0 0 15 15" width="100%" height="30px" preserveAspectRatio="xMaxYMin meet">
         <g id="arrow_out" transform="scale(0.3 0.3)">
          <a xlink:href="classnocache__inherit__graph_org.svg" target="_base">
           <rect id="button" ry="5" rx="5" y="6" x="6" height="38" width="38"
                fill="#f2f5e9" fill-opacity="0.5" stroke="#606060" stroke-width="1.0"/>
           <path id="arrow"
             d="M 11.500037,31.436501 C 11.940474,20.09759 22.043105,11.32322 32.158766,21.979434 L 37.068811,17.246167 C 37.068811,17.246167 37.088388,32 37.088388,32 L 22.160133,31.978069 C 22.160133,31.978069 26.997745,27.140456 26.997745,27.140456 C 18.528582,18.264221 13.291696,25.230495 11.500037,31.436501 z"
             style="fill:#404040;"/>
          </a>
         </g>
        </svg>
</svg>
