<?xml version="1.0" encoding="UTF-8" standalone="no"?>
<!DOCTYPE svg PUBLIC "-//W3C//DTD SVG 1.1//EN"
 "http://www.w3.org/Graphics/SVG/1.1/DTD/svg11.dtd">
<!-- Generated by graphviz version 2.38.0 (20140413.2041)
 -->
<!-- Title: tlb_adaptor::mem_read Pages: 1 -->
<svg width="261pt" height="142pt"
 viewBox="0.00 0.00 261.00 142.00" xmlns="http://www.w3.org/2000/svg" xmlns:xlink="http://www.w3.org/1999/xlink">
<g id="graph0" class="graph" transform="scale(1 1) rotate(0) translate(4 138)">
<title>tlb_adaptor::mem_read</title>
<polygon fill="white" stroke="none" points="-4,4 -4,-138 257,-138 257,4 -4,4"/>
<!-- Node1 -->
<g id="node1" class="node"><title>Node1</title>
<polygon fill="#bfbfbf" stroke="black" points="0,-57.5 0,-76.5 116,-76.5 116,-57.5 0,-57.5"/>
<text text-anchor="middle" x="58" y="-64.5" font-family="Helvetica,sans-Serif" font-size="10.00">tlb_adaptor::mem_read</text>
</g>
<!-- Node2 -->
<g id="node2" class="node"><title>Node2</title>
<g id="a_node2"><a xlink:href="classmem__if.html#aa4c431846b1d11708be4128f84295c6c" target="_top" xlink:title="mem_if::mem_read">
<polygon fill="white" stroke="black" points="152,-114.5 152,-133.5 253,-133.5 253,-114.5 152,-114.5"/>
<text text-anchor="middle" x="202.5" y="-121.5" font-family="Helvetica,sans-Serif" font-size="10.00">mem_if::mem_read</text>
</a>
</g>
</g>
<!-- Node1&#45;&gt;Node2 -->
<g id="edge1" class="edge"><title>Node1&#45;&gt;Node2</title>
<path fill="none" stroke="midnightblue" d="M81.8764,-76.5067C100.668,-84.2773 128.001,-95.4924 152,-105 156.798,-106.901 161.868,-108.88 166.862,-110.813"/>
<polygon fill="midnightblue" stroke="midnightblue" points="165.688,-114.111 176.278,-114.438 168.203,-107.579 165.688,-114.111"/>
</g>
<!-- Node3 -->
<g id="node3" class="node"><title>Node3</title>
<g id="a_node3"><a xlink:href="classmmu__if.html#a9ae0788b7b5d51ca1f5d6e0b9e33e782" target="_top" xlink:title="mmu_if::read_mcr">
<polygon fill="white" stroke="black" points="155,-76.5 155,-95.5 250,-95.5 250,-76.5 155,-76.5"/>
<text text-anchor="middle" x="202.5" y="-83.5" font-family="Helvetica,sans-Serif" font-size="10.00">mmu_if::read_mcr</text>
</a>
</g>
</g>
<!-- Node1&#45;&gt;Node3 -->
<g id="edge2" class="edge"><title>Node1&#45;&gt;Node3</title>
<path fill="none" stroke="midnightblue" d="M116.139,-74.6185C125.578,-75.8771 135.362,-77.1816 144.791,-78.4388"/>
<polygon fill="midnightblue" stroke="midnightblue" points="144.475,-81.9275 154.849,-79.7799 145.4,-74.9889 144.475,-81.9275"/>
</g>
<!-- Node4 -->
<g id="node4" class="node"><title>Node4</title>
<g id="a_node4"><a xlink:href="group__common.html#ga2e70f90e04ee467d36debee5245ead91" target="_top" xlink:title="swap_Endianess">
<polygon fill="white" stroke="black" points="157,-38.5 157,-57.5 248,-57.5 248,-38.5 157,-38.5"/>
<text text-anchor="middle" x="202.5" y="-45.5" font-family="Helvetica,sans-Serif" font-size="10.00">swap_Endianess</text>
</a>
</g>
</g>
<!-- Node1&#45;&gt;Node4 -->
<g id="edge3" class="edge"><title>Node1&#45;&gt;Node4</title>
<path fill="none" stroke="midnightblue" d="M116.139,-59.3815C126.139,-58.0482 136.524,-56.6634 146.465,-55.338"/>
<polygon fill="midnightblue" stroke="midnightblue" points="147.179,-58.7738 156.629,-53.9828 146.254,-51.8352 147.179,-58.7738"/>
</g>
<!-- Node5 -->
<g id="node5" class="node"><title>Node5</title>
<g id="a_node5"><a xlink:href="classmmu__if.html#a1b551adb304ea583fa9f4fc3f4bd07bf" target="_top" xlink:title="mmu_if::tlb_lookup">
<polygon fill="white" stroke="black" points="153,-0.5 153,-19.5 252,-19.5 252,-0.5 153,-0.5"/>
<text text-anchor="middle" x="202.5" y="-7.5" font-family="Helvetica,sans-Serif" font-size="10.00">mmu_if::tlb_lookup</text>
</a>
</g>
</g>
<!-- Node1&#45;&gt;Node5 -->
<g id="edge4" class="edge"><title>Node1&#45;&gt;Node5</title>
<path fill="none" stroke="midnightblue" d="M81.8764,-57.4933C100.668,-49.7227 128.001,-38.5076 152,-29 156.798,-27.0993 161.868,-25.1198 166.862,-23.1873"/>
<polygon fill="midnightblue" stroke="midnightblue" points="168.203,-26.4213 176.278,-19.5618 165.688,-19.8888 168.203,-26.4213"/>
</g>
</g>
</svg>
