<?xml version="1.0" encoding="UTF-8" standalone="no"?>
<!DOCTYPE svg PUBLIC "-//W3C//DTD SVG 1.1//EN"
 "http://www.w3.org/Graphics/SVG/1.1/DTD/svg11.dtd">
<!-- Generated by graphviz version 2.38.0 (20140413.2041)
 -->
<!-- Title: trap::sysconfSysCall&lt; wordSize &gt; Pages: 1 -->
<!--zoomable 635 -->
<svg id="main" version="1.1" xmlns="http://www.w3.org/2000/svg" xmlns:xlink="http://www.w3.org/1999/xlink" xml:space="preserve" onload="init(evt)">
<style type="text/css"><![CDATA[
.edge:hover path { stroke: red; }
.edge:hover polygon { stroke: red; fill: red; }
]]></style>
<script type="text/javascript"><![CDATA[
var edges = document.getElementsByTagName('g');
if (edges && edges.length) {
  for (var i=0;i<edges.length;i++) {
    if (edges[i].id.substr(0,4)=='edge') {
      edges[i].setAttribute('class','edge');
    }
  }
}
]]></script>
        <defs>
                <circle id="rim" cx="0" cy="0" r="7"/>
                <circle id="rim2" cx="0" cy="0" r="3.5"/>
                <g id="zoomPlus">
                        <use xlink:href="#rim" fill="#404040">
                                <set attributeName="fill" to="#808080" begin="zoomplus.mouseover" end="zoomplus.mouseout"/>
                        </use>
                        <path d="M-4,0h8M0,-4v8" fill="none" stroke="white" stroke-width="1.5" pointer-events="none"/>
                </g>
                <g id="zoomMin">
                        <use xlink:href="#rim" fill="#404040">
                                <set attributeName="fill" to="#808080" begin="zoomminus.mouseover" end="zoomminus.mouseout"/>
                        </use>
                        <path d="M-4,0h8" fill="none" stroke="white" stroke-width="1.5" pointer-events="none"/>
                </g>
                <g id="dirArrow">
                        <path fill="none" stroke="white" stroke-width="1.5" d="M0,-3.0v7 M-2.5,-0.5L0,-3.0L2.5,-0.5"/>
                </g>
               <g id="resetDef">
                       <use xlink:href="#rim2" fill="#404040">
                               <set attributeName="fill" to="#808080" begin="reset.mouseover" end="reset.mouseout"/>
                       </use>
               </g>
        </defs>

<script type="text/javascript">
var viewWidth = 206;
var viewHeight = 635;
var sectionId = 'dynsection-1';
</script>
<script xlink:href="svgpan.js"/>
<svg id="graph" class="graph">
<g id="viewport">
<title>trap::sysconfSysCall&lt; wordSize &gt;</title>
<polygon fill="white" stroke="none" points="-4,4 -4,-631 201.5,-631 201.5,4 -4,4"/>
<!-- Node1 -->
<g id="node1" class="node"><title>Node1</title>
<polygon fill="#bfbfbf" stroke="black" points="62,-0.5 62,-79.5 170,-79.5 170,-0.5 62,-0.5"/>
<text text-anchor="start" x="70" y="-67.5" font-family="Helvetica,sans-Serif" font-size="10.00">trap::sysconfSysCall</text>
<text text-anchor="middle" x="116" y="-56.5" font-family="Helvetica,sans-Serif" font-size="10.00">&lt; wordSize &gt;</text>
<polyline fill="none" stroke="black" points="62,-49.5 170,-49.5 "/>
<text text-anchor="middle" x="116" y="-37.5" font-family="Helvetica,sans-Serif" font-size="10.00"> </text>
<polyline fill="none" stroke="black" points="62,-30.5 170,-30.5 "/>
<text text-anchor="start" x="70" y="-18.5" font-family="Helvetica,sans-Serif" font-size="10.00">+ sysconfSysCall()</text>
<text text-anchor="start" x="70" y="-7.5" font-family="Helvetica,sans-Serif" font-size="10.00">+ operator()()</text>
</g>
<!-- Node2 -->
<g id="node2" class="node"><title>Node2</title>
<g id="a_node2"><a xlink:href="classtrap_1_1SyscallCB.html" target="_top" xlink:title="{trap::SyscallCB\&lt; wordSize \&gt;\n||+ SyscallCB()\l+ ~SyscallCB()\l+ operator()()\l}">
<polygon fill="white" stroke="black" points="44,-117.5 44,-196.5 188,-196.5 188,-117.5 44,-117.5"/>
<text text-anchor="middle" x="116" y="-184.5" font-family="Helvetica,sans-Serif" font-size="10.00">trap::SyscallCB&lt; wordSize &gt;</text>
<polyline fill="none" stroke="black" points="44,-177.5 188,-177.5 "/>
<text text-anchor="middle" x="116" y="-165.5" font-family="Helvetica,sans-Serif" font-size="10.00"> </text>
<polyline fill="none" stroke="black" points="44,-158.5 188,-158.5 "/>
<text text-anchor="start" x="52" y="-146.5" font-family="Helvetica,sans-Serif" font-size="10.00">+ SyscallCB()</text>
<text text-anchor="start" x="52" y="-135.5" font-family="Helvetica,sans-Serif" font-size="10.00">+ ~SyscallCB()</text>
<text text-anchor="start" x="52" y="-124.5" font-family="Helvetica,sans-Serif" font-size="10.00">+ operator()()</text>
</a>
</g>
</g>
<!-- Node2&#45;&gt;Node1 -->
<g id="edge1" class="edge"><title>Node2&#45;&gt;Node1</title>
<path fill="none" stroke="midnightblue" d="M116,-107.199C116,-98.016 116,-88.5299 116,-79.7071"/>
<polygon fill="none" stroke="midnightblue" points="112.5,-107.387 116,-117.387 119.5,-107.387 112.5,-107.387"/>
</g>
<!-- Node3 -->
<g id="node3" class="node"><title>Node3</title>
<g id="a_node3"><a xlink:href="classtrap_1_1ABIIf.html" target="_top" xlink:title="{trap::ABIIf\&lt; wordSize \&gt;\n||+ matchEndian()\l+ preCall()\l+ postCall()\l+ returnFromCall()\l+ getProcessorID()\l+ isInstrExecuting()\l+ waitInstrEnd()\l+ isLittleEndian()\l+ readLR()\l+ setLR()\land 25 more...\l}">
<polygon fill="white" stroke="black" points="0,-244.5 0,-411.5 120,-411.5 120,-244.5 0,-244.5"/>
<text text-anchor="middle" x="60" y="-399.5" font-family="Helvetica,sans-Serif" font-size="10.00">trap::ABIIf&lt; wordSize &gt;</text>
<polyline fill="none" stroke="black" points="0,-392.5 120,-392.5 "/>
<text text-anchor="middle" x="60" y="-380.5" font-family="Helvetica,sans-Serif" font-size="10.00"> </text>
<polyline fill="none" stroke="black" points="0,-373.5 120,-373.5 "/>
<text text-anchor="start" x="8" y="-361.5" font-family="Helvetica,sans-Serif" font-size="10.00">+ matchEndian()</text>
<text text-anchor="start" x="8" y="-350.5" font-family="Helvetica,sans-Serif" font-size="10.00">+ preCall()</text>
<text text-anchor="start" x="8" y="-339.5" font-family="Helvetica,sans-Serif" font-size="10.00">+ postCall()</text>
<text text-anchor="start" x="8" y="-328.5" font-family="Helvetica,sans-Serif" font-size="10.00">+ returnFromCall()</text>
<text text-anchor="start" x="8" y="-317.5" font-family="Helvetica,sans-Serif" font-size="10.00">+ getProcessorID()</text>
<text text-anchor="start" x="8" y="-306.5" font-family="Helvetica,sans-Serif" font-size="10.00">+ isInstrExecuting()</text>
<text text-anchor="start" x="8" y="-295.5" font-family="Helvetica,sans-Serif" font-size="10.00">+ waitInstrEnd()</text>
<text text-anchor="start" x="8" y="-284.5" font-family="Helvetica,sans-Serif" font-size="10.00">+ isLittleEndian()</text>
<text text-anchor="start" x="8" y="-273.5" font-family="Helvetica,sans-Serif" font-size="10.00">+ readLR()</text>
<text text-anchor="start" x="8" y="-262.5" font-family="Helvetica,sans-Serif" font-size="10.00">+ setLR()</text>
<text text-anchor="start" x="8" y="-251.5" font-family="Helvetica,sans-Serif" font-size="10.00">and 25 more...</text>
</a>
</g>
</g>
<!-- Node3&#45;&gt;Node2 -->
<g id="edge2" class="edge"><title>Node3&#45;&gt;Node2</title>
<path fill="none" stroke="#404040" d="M53.6747,-244.222C54.9478,-234.146 57.2458,-224.179 61,-215 62.1615,-212.16 63.5384,-209.382 65.0842,-206.677"/>
<polygon fill="none" stroke="#404040" points="65.1284,-206.611 65.1294,-199.4 71.7862,-196.627 71.7852,-203.838 65.1284,-206.611"/>
<text text-anchor="middle" x="105.5" y="-218" font-family="Helvetica,sans-Serif" font-size="10.00"> #processorInstance</text>
</g>
<!-- Node4 -->
<g id="node4" class="node"><title>Node4</title>
<g id="a_node4"><a xlink:href="classtrap_1_1ABIIf.html" target="_top" xlink:title="{trap::ABIIf\&lt; regWidth \&gt;\n||+ matchEndian()\l+ preCall()\l+ postCall()\l+ returnFromCall()\l+ getProcessorID()\l+ isInstrExecuting()\l+ waitInstrEnd()\l+ isLittleEndian()\l+ readLR()\l+ setLR()\land 25 more...\l}">
<polygon fill="white" stroke="black" points="0.5,-459.5 0.5,-626.5 119.5,-626.5 119.5,-459.5 0.5,-459.5"/>
<text text-anchor="middle" x="60" y="-614.5" font-family="Helvetica,sans-Serif" font-size="10.00">trap::ABIIf&lt; regWidth &gt;</text>
<polyline fill="none" stroke="black" points="0.5,-607.5 119.5,-607.5 "/>
<text text-anchor="middle" x="60" y="-595.5" font-family="Helvetica,sans-Serif" font-size="10.00"> </text>
<polyline fill="none" stroke="black" points="0.5,-588.5 119.5,-588.5 "/>
<text text-anchor="start" x="8.5" y="-576.5" font-family="Helvetica,sans-Serif" font-size="10.00">+ matchEndian()</text>
<text text-anchor="start" x="8.5" y="-565.5" font-family="Helvetica,sans-Serif" font-size="10.00">+ preCall()</text>
<text text-anchor="start" x="8.5" y="-554.5" font-family="Helvetica,sans-Serif" font-size="10.00">+ postCall()</text>
<text text-anchor="start" x="8.5" y="-543.5" font-family="Helvetica,sans-Serif" font-size="10.00">+ returnFromCall()</text>
<text text-anchor="start" x="8.5" y="-532.5" font-family="Helvetica,sans-Serif" font-size="10.00">+ getProcessorID()</text>
<text text-anchor="start" x="8.5" y="-521.5" font-family="Helvetica,sans-Serif" font-size="10.00">+ isInstrExecuting()</text>
<text text-anchor="start" x="8.5" y="-510.5" font-family="Helvetica,sans-Serif" font-size="10.00">+ waitInstrEnd()</text>
<text text-anchor="start" x="8.5" y="-499.5" font-family="Helvetica,sans-Serif" font-size="10.00">+ isLittleEndian()</text>
<text text-anchor="start" x="8.5" y="-488.5" font-family="Helvetica,sans-Serif" font-size="10.00">+ readLR()</text>
<text text-anchor="start" x="8.5" y="-477.5" font-family="Helvetica,sans-Serif" font-size="10.00">+ setLR()</text>
<text text-anchor="start" x="8.5" y="-466.5" font-family="Helvetica,sans-Serif" font-size="10.00">and 25 more...</text>
</a>
</g>
</g>
<!-- Node4&#45;&gt;Node3 -->
<g id="edge3" class="edge"><title>Node4&#45;&gt;Node3</title>
<path fill="none" stroke="orange" d="M60,-448.971C60,-436.536 60,-423.851 60,-411.61"/>
<polygon fill="orange" stroke="orange" points="56.5001,-449.344 60,-459.344 63.5001,-449.344 56.5001,-449.344"/>
<text text-anchor="middle" x="91" y="-433" font-family="Helvetica,sans-Serif" font-size="10.00"> &lt; wordSize &gt;</text>
</g>
<!-- Node5 -->
<g id="node5" class="node"><title>Node5</title>
<polygon fill="white" stroke="#bfbfbf" points="146.5,-299.5 146.5,-356.5 197.5,-356.5 197.5,-299.5 146.5,-299.5"/>
<text text-anchor="middle" x="172" y="-344.5" font-family="Helvetica,sans-Serif" font-size="10.00">sc_time</text>
<polyline fill="none" stroke="#bfbfbf" points="146.5,-337.5 197.5,-337.5 "/>
<text text-anchor="middle" x="172" y="-325.5" font-family="Helvetica,sans-Serif" font-size="10.00"> </text>
<polyline fill="none" stroke="#bfbfbf" points="146.5,-318.5 197.5,-318.5 "/>
<text text-anchor="middle" x="172" y="-306.5" font-family="Helvetica,sans-Serif" font-size="10.00"> </text>
</g>
<!-- Node5&#45;&gt;Node2 -->
<g id="edge4" class="edge"><title>Node5&#45;&gt;Node2</title>
<path fill="none" stroke="#404040" d="M169.219,-299.108C166.284,-275.989 160.564,-242.571 150,-215 149.045,-212.508 147.985,-210.001 146.846,-207.502"/>
<polygon fill="none" stroke="#404040" points="146.795,-207.399 140.536,-203.818 141.434,-196.663 147.693,-200.244 146.795,-207.399"/>
<text text-anchor="middle" x="173" y="-218" font-family="Helvetica,sans-Serif" font-size="10.00"> #latency</text>
</g>
</g>
</svg>
        <g id="navigator" transform="translate(0 0)" fill="#404254">
                <rect fill="#f2f5e9" fill-opacity="0.5" stroke="#606060" stroke-width=".5" x="0" y="0" width="60" height="60"/>
                <use id="zoomplus" xlink:href="#zoomPlus" x="17" y="9" onmousedown="handleZoom(evt,'in')"/>
                <use id="zoomminus" xlink:href="#zoomMin" x="42" y="9" onmousedown="handleZoom(evt,'out')"/>
                <use id="reset" xlink:href="#resetDef" x="30" y="36" onmousedown="handleReset()"/>
                <g id="arrowUp" xlink:href="#dirArrow" transform="translate(30 24)" onmousedown="handlePan(0,-1)">
                  <use xlink:href="#rim" fill="#404040">
                        <set attributeName="fill" to="#808080" begin="arrowUp.mouseover" end="arrowUp.mouseout"/>
                  </use>
                  <path fill="none" stroke="white" stroke-width="1.5" d="M0,-3.0v7 M-2.5,-0.5L0,-3.0L2.5,-0.5"/>
                </g>
                <g id="arrowRight" xlink:href="#dirArrow" transform="rotate(90) translate(36 -43)" onmousedown="handlePan(1,0)">
                  <use xlink:href="#rim" fill="#404040">
                        <set attributeName="fill" to="#808080" begin="arrowRight.mouseover" end="arrowRight.mouseout"/>
                  </use>
                  <path fill="none" stroke="white" stroke-width="1.5" d="M0,-3.0v7 M-2.5,-0.5L0,-3.0L2.5,-0.5"/>
                </g>
                <g id="arrowDown" xlink:href="#dirArrow" transform="rotate(180) translate(-30 -48)" onmousedown="handlePan(0,1)">
                  <use xlink:href="#rim" fill="#404040">
                        <set attributeName="fill" to="#808080" begin="arrowDown.mouseover" end="arrowDown.mouseout"/>
                  </use>
                  <path fill="none" stroke="white" stroke-width="1.5" d="M0,-3.0v7 M-2.5,-0.5L0,-3.0L2.5,-0.5"/>
                </g>
                <g id="arrowLeft" xlink:href="#dirArrow" transform="rotate(270) translate(-36 17)" onmousedown="handlePan(-1,0)">
                  <use xlink:href="#rim" fill="#404040">
                        <set attributeName="fill" to="#808080" begin="arrowLeft.mouseover" end="arrowLeft.mouseout"/>
                  </use>
                  <path fill="none" stroke="white" stroke-width="1.5" d="M0,-3.0v7 M-2.5,-0.5L0,-3.0L2.5,-0.5"/>
                </g>
        </g>
        <svg viewBox="0 0 15 15" width="100%" height="30px" preserveAspectRatio="xMaxYMin meet">
         <g id="arrow_out" transform="scale(0.3 0.3)">
          <a xlink:href="classtrap_1_1sysconfSysCall__coll__graph_org.svg" target="_base">
           <rect id="button" ry="5" rx="5" y="6" x="6" height="38" width="38"
                fill="#f2f5e9" fill-opacity="0.5" stroke="#606060" stroke-width="1.0"/>
           <path id="arrow"
             d="M 11.500037,31.436501 C 11.940474,20.09759 22.043105,11.32322 32.158766,21.979434 L 37.068811,17.246167 C 37.068811,17.246167 37.088388,32 37.088388,32 L 22.160133,31.978069 C 22.160133,31.978069 26.997745,27.140456 26.997745,27.140456 C 18.528582,18.264221 13.291696,25.230495 11.500037,31.436501 z"
             style="fill:#404040;"/>
          </a>
         </g>
        </svg>
</svg>
