<?xml version="1.0" encoding="UTF-8" standalone="no"?>
<!DOCTYPE svg PUBLIC "-//W3C//DTD SVG 1.1//EN"
 "http://www.w3.org/Graphics/SVG/1.1/DTD/svg11.dtd">
<!-- Generated by graphviz version 2.26.0 (20091210.2329)
 -->
<!-- Title: TimingMonitor Pages: 1 -->
<svg width="129pt" height="366pt"
 viewBox="0.00 0.00 129.00 366.00" xmlns="http://www.w3.org/2000/svg" xmlns:xlink="http://www.w3.org/1999/xlink">
<g id="graph1" class="graph" transform="scale(1 1) rotate(0) translate(4 362)">
<title>TimingMonitor</title>
<polygon fill="white" stroke="white" points="-4,5 -4,-362 126,-362 126,5 -4,5"/>
<!-- Node1 -->
<g id="node1" class="node"><title>Node1</title>
<polygon fill="#bfbfbf" stroke="black" points="0,-1 0,-129 114,-129 114,-1 0,-1"/>
<text text-anchor="middle" x="57" y="-116" font-family="Helvetica,sans-Serif" font-size="10.00">TimingMonitor</text>
<polyline fill="none" stroke="black" points="0,-108 114,-108 "/>
<text text-anchor="middle" x="57" y="-95" font-family="Helvetica,sans-Serif" font-size="10.00"> </text>
<polyline fill="none" stroke="black" points="0,-87 114,-87 "/>
<text text-anchor="start" x="8" y="-74" font-family="Helvetica,sans-Serif" font-size="10.00">+ phase_start_timing()</text>
<text text-anchor="start" x="8" y="-61" font-family="Helvetica,sans-Serif" font-size="10.00">+ phase_end_timing()</text>
<text text-anchor="start" x="8" y="-48" font-family="Helvetica,sans-Serif" font-size="10.00">+ phase_systime()</text>
<text text-anchor="start" x="8" y="-35" font-family="Helvetica,sans-Serif" font-size="10.00">+ phase_realtime()</text>
<text text-anchor="start" x="8" y="-22" font-family="Helvetica,sans-Serif" font-size="10.00">+ phase_get_name()</text>
<text text-anchor="start" x="8" y="-9" font-family="Helvetica,sans-Serif" font-size="10.00">+ report_timing()</text>
</g>
<!-- Node2 -->
<g id="node2" class="node"><title>Node2</title>
<a xlink:title="STL class. ">
<polygon fill="white" stroke="#bfbfbf" points="11,-180.5 11,-243.5 103,-243.5 103,-180.5 11,-180.5"/>
<text text-anchor="middle" x="57" y="-230.5" font-family="Helvetica,sans-Serif" font-size="10.00">std::map&lt; K, T &gt;</text>
<polyline fill="none" stroke="#bfbfbf" points="11,-222.5 103,-222.5 "/>
<text text-anchor="middle" x="57" y="-209.5" font-family="Helvetica,sans-Serif" font-size="10.00"> </text>
<polyline fill="none" stroke="#bfbfbf" points="11,-201.5 103,-201.5 "/>
<text text-anchor="middle" x="57" y="-188.5" font-family="Helvetica,sans-Serif" font-size="10.00"> </text>
</a>
</g>
<!-- Node2&#45;&gt;Node1 -->
<g id="edge2" class="edge"><title>Node2&#45;&gt;Node1</title>
<path fill="none" stroke="#404040" d="M57,-180.465C57,-168.851 57,-155.134 57,-141.285"/>
<polygon fill="none" stroke="#404040" points="57.0001,-141.131 53,-135.131 57,-129.131 61,-135.131 57.0001,-141.131"/>
<text text-anchor="middle" x="87" y="-152.5" font-family="Helvetica,sans-Serif" font-size="10.00"> +timing_map</text>
</g>
<!-- Node3 -->
<g id="node4" class="node"><title>Node3</title>
<polygon fill="white" stroke="#bfbfbf" points="15.5,-294.5 15.5,-357.5 44.5,-357.5 44.5,-294.5 15.5,-294.5"/>
<text text-anchor="middle" x="30" y="-344.5" font-family="Helvetica,sans-Serif" font-size="10.00">K</text>
<polyline fill="none" stroke="#bfbfbf" points="15.5,-336.5 44.5,-336.5 "/>
<text text-anchor="middle" x="30" y="-323.5" font-family="Helvetica,sans-Serif" font-size="10.00"> </text>
<polyline fill="none" stroke="#bfbfbf" points="15.5,-315.5 44.5,-315.5 "/>
<text text-anchor="middle" x="30" y="-302.5" font-family="Helvetica,sans-Serif" font-size="10.00"> </text>
</g>
<!-- Node3&#45;&gt;Node2 -->
<g id="edge4" class="edge"><title>Node3&#45;&gt;Node2</title>
<path fill="none" stroke="#404040" d="M27.6201,-294.37C27.5916,-283.928 28.3858,-272.343 31,-262 31.5844,-259.688 32.2932,-257.363 33.0975,-255.048"/>
<polygon fill="none" stroke="#404040" points="33.213,-254.767 31.7974,-247.696 37.7799,-243.67 39.1955,-250.741 33.213,-254.767"/>
<text text-anchor="middle" x="46.5" y="-266.5" font-family="Helvetica,sans-Serif" font-size="10.00"> +keys</text>
</g>
<!-- Node4 -->
<g id="node6" class="node"><title>Node4</title>
<polygon fill="white" stroke="#bfbfbf" points="69.5,-294.5 69.5,-357.5 98.5,-357.5 98.5,-294.5 69.5,-294.5"/>
<text text-anchor="middle" x="84" y="-344.5" font-family="Helvetica,sans-Serif" font-size="10.00">T</text>
<polyline fill="none" stroke="#bfbfbf" points="69.5,-336.5 98.5,-336.5 "/>
<text text-anchor="middle" x="84" y="-323.5" font-family="Helvetica,sans-Serif" font-size="10.00"> </text>
<polyline fill="none" stroke="#bfbfbf" points="69.5,-315.5 98.5,-315.5 "/>
<text text-anchor="middle" x="84" y="-302.5" font-family="Helvetica,sans-Serif" font-size="10.00"> </text>
</g>
<!-- Node4&#45;&gt;Node2 -->
<g id="edge6" class="edge"><title>Node4&#45;&gt;Node2</title>
<path fill="none" stroke="#404040" d="M76.479,-294.245C73.6411,-282.262 70.3614,-268.415 67.3119,-255.539"/>
<polygon fill="none" stroke="#404040" points="67.2463,-255.262 61.9712,-250.345 64.4807,-243.585 69.7558,-248.502 67.2463,-255.262"/>
<text text-anchor="middle" x="96.5" y="-266.5" font-family="Helvetica,sans-Serif" font-size="10.00"> +elements</text>
</g>
</g>
</svg>
