<?xml version="1.0" encoding="UTF-8" standalone="no"?>
<!DOCTYPE svg PUBLIC "-//W3C//DTD SVG 1.1//EN"
 "http://www.w3.org/Graphics/SVG/1.1/DTD/svg11.dtd">
<!-- Generated by graphviz version 2.38.0 (20140413.2041)
 -->
<!-- Title: gs::cnf::gs_config&lt; double &gt; Pages: 1 -->
<svg width="505pt" height="919pt"
 viewBox="0.00 0.00 504.95 919.00" xmlns="http://www.w3.org/2000/svg" xmlns:xlink="http://www.w3.org/1999/xlink">
<g id="graph0" class="graph" transform="scale(1 1) rotate(0) translate(4 915)">
<title>gs::cnf::gs_config&lt; double &gt;</title>
<polygon fill="white" stroke="none" points="-4,4 -4,-915 500.947,-915 500.947,4 -4,4"/>
<!-- Node1 -->
<g id="node1" class="node"><title>Node1</title>
<polygon fill="#bfbfbf" stroke="black" points="256.8,-0.5 256.8,-174.5 411.296,-174.5 411.296,-0.5 256.8,-0.5"/>
<text text-anchor="start" x="264.8" y="-162.5" font-family="Helvetica,sans-Serif" font-size="10.00">gs::cnf::gs_config</text>
<text text-anchor="middle" x="334.048" y="-152.5" font-family="Helvetica,sans-Serif" font-size="10.00">&lt; double &gt;</text>
<polyline fill="none" stroke="black" points="256.8,-146.5 411.296,-146.5 "/>
<text text-anchor="start" x="264.8" y="-134.5" font-family="Helvetica,sans-Serif" font-size="10.00">+ GS_CONFIG_HEAD</text>
<text text-anchor="start" x="264.8" y="-124.5" font-family="Helvetica,sans-Serif" font-size="10.00">+ GC_SPECIALISATIONS</text>
<text text-anchor="start" x="264.8" y="-114.5" font-family="Helvetica,sans-Serif" font-size="10.00">_ARITHMETIC_OPERATORS</text>
<text text-anchor="start" x="264.8" y="-104.5" font-family="Helvetica,sans-Serif" font-size="10.00">+ GC_SPECIALISATIONS</text>
<text text-anchor="start" x="264.8" y="-94.5" font-family="Helvetica,sans-Serif" font-size="10.00">_INCREMENT_OPERATORS</text>
<text text-anchor="start" x="264.8" y="-84.5" font-family="Helvetica,sans-Serif" font-size="10.00">+ GC_SPECIALISATIONS</text>
<text text-anchor="start" x="264.8" y="-74.5" font-family="Helvetica,sans-Serif" font-size="10.00">_DECREMENT_OPERATORS</text>
<text text-anchor="start" x="264.8" y="-64.5" font-family="Helvetica,sans-Serif" font-size="10.00">+ GS_CONFIG_DELEGATE</text>
<polyline fill="none" stroke="black" points="256.8,-58.5 411.296,-58.5 "/>
<text text-anchor="start" x="264.8" y="-46.5" font-family="Helvetica,sans-Serif" font-size="10.00">+ getTypeString()</text>
<text text-anchor="start" x="264.8" y="-36.5" font-family="Helvetica,sans-Serif" font-size="10.00">+ getType()</text>
<text text-anchor="start" x="264.8" y="-26.5" font-family="Helvetica,sans-Serif" font-size="10.00">+ convertValueToString()</text>
<text text-anchor="start" x="264.8" y="-16.5" font-family="Helvetica,sans-Serif" font-size="10.00">+ static_convertValueToString()</text>
<text text-anchor="start" x="264.8" y="-6.5" font-family="Helvetica,sans-Serif" font-size="10.00">+ static_deserialize()</text>
</g>
<!-- Node2 -->
<g id="node2" class="node"><title>Node2</title>
<g id="a_node2"><a xlink:href="classgs_1_1cnf_1_1gs__config__t.html" target="_top" xlink:title="{gs::cnf::gs_config\l_t\&lt; double \&gt;\n||+ operator+=()\l+ operator&#45;=()\l+ operator/=()\l+ operator*=()\l+ operator+()\l+ operator&#45;()\l+ operator/()\l+ operator*()\l+ operator%=()\l+ operator^=()\land 27 more...\l# mirror_callback()\l# convertStringToValue()\l}">
<polygon fill="white" stroke="black" points="271.39,-212.5 271.39,-396.5 396.706,-396.5 396.706,-212.5 271.39,-212.5"/>
<text text-anchor="start" x="279.39" y="-384.5" font-family="Helvetica,sans-Serif" font-size="10.00">gs::cnf::gs_config</text>
<text text-anchor="middle" x="334.048" y="-374.5" font-family="Helvetica,sans-Serif" font-size="10.00">_t&lt; double &gt;</text>
<polyline fill="none" stroke="black" points="271.39,-368.5 396.706,-368.5 "/>
<text text-anchor="middle" x="334.048" y="-356.5" font-family="Helvetica,sans-Serif" font-size="10.00"> </text>
<polyline fill="none" stroke="black" points="271.39,-350.5 396.706,-350.5 "/>
<text text-anchor="start" x="279.39" y="-338.5" font-family="Helvetica,sans-Serif" font-size="10.00">+ operator+=()</text>
<text text-anchor="start" x="279.39" y="-328.5" font-family="Helvetica,sans-Serif" font-size="10.00">+ operator&#45;=()</text>
<text text-anchor="start" x="279.39" y="-318.5" font-family="Helvetica,sans-Serif" font-size="10.00">+ operator/=()</text>
<text text-anchor="start" x="279.39" y="-308.5" font-family="Helvetica,sans-Serif" font-size="10.00">+ operator*=()</text>
<text text-anchor="start" x="279.39" y="-298.5" font-family="Helvetica,sans-Serif" font-size="10.00">+ operator+()</text>
<text text-anchor="start" x="279.39" y="-288.5" font-family="Helvetica,sans-Serif" font-size="10.00">+ operator&#45;()</text>
<text text-anchor="start" x="279.39" y="-278.5" font-family="Helvetica,sans-Serif" font-size="10.00">+ operator/()</text>
<text text-anchor="start" x="279.39" y="-268.5" font-family="Helvetica,sans-Serif" font-size="10.00">+ operator*()</text>
<text text-anchor="start" x="279.39" y="-258.5" font-family="Helvetica,sans-Serif" font-size="10.00">+ operator%=()</text>
<text text-anchor="start" x="279.39" y="-248.5" font-family="Helvetica,sans-Serif" font-size="10.00">+ operator^=()</text>
<text text-anchor="start" x="279.39" y="-238.5" font-family="Helvetica,sans-Serif" font-size="10.00">and 27 more...</text>
<text text-anchor="start" x="279.39" y="-228.5" font-family="Helvetica,sans-Serif" font-size="10.00"># mirror_callback()</text>
<text text-anchor="start" x="279.39" y="-218.5" font-family="Helvetica,sans-Serif" font-size="10.00"># convertStringToValue()</text>
</a>
</g>
</g>
<!-- Node2&#45;&gt;Node1 -->
<g id="edge1" class="edge"><title>Node2&#45;&gt;Node1</title>
<path fill="none" stroke="midnightblue" d="M334.048,-202.034C334.048,-192.889 334.048,-183.685 334.048,-174.688"/>
<polygon fill="none" stroke="midnightblue" points="330.548,-202.321 334.048,-212.321 337.548,-202.321 330.548,-202.321"/>
</g>
<!-- Node2&#45;&gt;Node2 -->
<g id="edge5" class="edge"><title>Node2&#45;&gt;Node2</title>
<path fill="none" stroke="#404040" d="M396.949,-323.67C407.456,-320.988 414.706,-314.598 414.706,-304.5 414.706,-298.505 412.15,-293.816 407.874,-290.435"/>
<polygon fill="none" stroke="#404040" points="407.821,-290.41 400.692,-291.494 396.949,-285.33 404.079,-284.246 407.821,-290.41"/>
<text text-anchor="middle" x="455.827" y="-301.5" font-family="Helvetica,sans-Serif" font-size="10.00"> #m_mirror_param</text>
</g>
<!-- Node3 -->
<g id="node3" class="node"><title>Node3</title>
<g id="a_node3"><a xlink:href="classgs_1_1cnf_1_1gs__config__base.html" target="_top" xlink:title="{gs::cnf::gs_config_base\n||+ gs_config_base()\l+ setProperty()\l+ getProperty()\l+ getProperties()\l+ deleteProperty()\l+ exists()\l+ add_properties()\l}">
<polygon fill="white" stroke="black" points="299.514,-694.5 299.514,-808.5 420.582,-808.5 420.582,-694.5 299.514,-694.5"/>
<text text-anchor="middle" x="360.048" y="-796.5" font-family="Helvetica,sans-Serif" font-size="10.00">gs::cnf::gs_config_base</text>
<polyline fill="none" stroke="black" points="299.514,-790.5 420.582,-790.5 "/>
<text text-anchor="middle" x="360.048" y="-778.5" font-family="Helvetica,sans-Serif" font-size="10.00"> </text>
<polyline fill="none" stroke="black" points="299.514,-772.5 420.582,-772.5 "/>
<text text-anchor="start" x="307.514" y="-760.5" font-family="Helvetica,sans-Serif" font-size="10.00">+ gs_config_base()</text>
<text text-anchor="start" x="307.514" y="-750.5" font-family="Helvetica,sans-Serif" font-size="10.00">+ setProperty()</text>
<text text-anchor="start" x="307.514" y="-740.5" font-family="Helvetica,sans-Serif" font-size="10.00">+ getProperty()</text>
<text text-anchor="start" x="307.514" y="-730.5" font-family="Helvetica,sans-Serif" font-size="10.00">+ getProperties()</text>
<text text-anchor="start" x="307.514" y="-720.5" font-family="Helvetica,sans-Serif" font-size="10.00">+ deleteProperty()</text>
<text text-anchor="start" x="307.514" y="-710.5" font-family="Helvetica,sans-Serif" font-size="10.00">+ exists()</text>
<text text-anchor="start" x="307.514" y="-700.5" font-family="Helvetica,sans-Serif" font-size="10.00">+ add_properties()</text>
</a>
</g>
</g>
<!-- Node3&#45;&gt;Node2 -->
<g id="edge2" class="edge"><title>Node3&#45;&gt;Node2</title>
<path fill="none" stroke="midnightblue" d="M361.607,-684.136C362.51,-616.33 362.042,-508.078 353.048,-415 352.473,-409.046 351.758,-402.929 350.946,-396.775"/>
<polygon fill="none" stroke="midnightblue" points="358.106,-684.201 361.458,-694.251 365.105,-684.304 358.106,-684.201"/>
</g>
<!-- Node8 -->
<g id="node8" class="node"><title>Node8</title>
<g id="a_node8"><a xlink:href="classgs_1_1cnf_1_1gs__config__t.html" target="_top" xlink:title="Template specialized base class for configuration parameters. ">
<polygon fill="white" stroke="black" points="197.39,-453.5 197.39,-637.5 322.706,-637.5 322.706,-453.5 197.39,-453.5"/>
<text text-anchor="start" x="205.39" y="-625.5" font-family="Helvetica,sans-Serif" font-size="10.00">gs::cnf::gs_config</text>
<text text-anchor="middle" x="260.048" y="-615.5" font-family="Helvetica,sans-Serif" font-size="10.00">_t&lt; T &gt;</text>
<polyline fill="none" stroke="black" points="197.39,-609.5 322.706,-609.5 "/>
<text text-anchor="middle" x="260.048" y="-597.5" font-family="Helvetica,sans-Serif" font-size="10.00"> </text>
<polyline fill="none" stroke="black" points="197.39,-591.5 322.706,-591.5 "/>
<text text-anchor="start" x="205.39" y="-579.5" font-family="Helvetica,sans-Serif" font-size="10.00">+ operator+=()</text>
<text text-anchor="start" x="205.39" y="-569.5" font-family="Helvetica,sans-Serif" font-size="10.00">+ operator&#45;=()</text>
<text text-anchor="start" x="205.39" y="-559.5" font-family="Helvetica,sans-Serif" font-size="10.00">+ operator/=()</text>
<text text-anchor="start" x="205.39" y="-549.5" font-family="Helvetica,sans-Serif" font-size="10.00">+ operator*=()</text>
<text text-anchor="start" x="205.39" y="-539.5" font-family="Helvetica,sans-Serif" font-size="10.00">+ operator+()</text>
<text text-anchor="start" x="205.39" y="-529.5" font-family="Helvetica,sans-Serif" font-size="10.00">+ operator&#45;()</text>
<text text-anchor="start" x="205.39" y="-519.5" font-family="Helvetica,sans-Serif" font-size="10.00">+ operator/()</text>
<text text-anchor="start" x="205.39" y="-509.5" font-family="Helvetica,sans-Serif" font-size="10.00">+ operator*()</text>
<text text-anchor="start" x="205.39" y="-499.5" font-family="Helvetica,sans-Serif" font-size="10.00">+ operator%=()</text>
<text text-anchor="start" x="205.39" y="-489.5" font-family="Helvetica,sans-Serif" font-size="10.00">+ operator^=()</text>
<text text-anchor="start" x="205.39" y="-479.5" font-family="Helvetica,sans-Serif" font-size="10.00">and 27 more...</text>
<text text-anchor="start" x="205.39" y="-469.5" font-family="Helvetica,sans-Serif" font-size="10.00"># mirror_callback()</text>
<text text-anchor="start" x="205.39" y="-459.5" font-family="Helvetica,sans-Serif" font-size="10.00"># convertStringToValue()</text>
</a>
</g>
</g>
<!-- Node3&#45;&gt;Node8 -->
<g id="edge9" class="edge"><title>Node3&#45;&gt;Node8</title>
<path fill="none" stroke="midnightblue" d="M339.882,-684.532C336.291,-674.819 332.319,-665.046 328.048,-656 325.182,-649.929 322.053,-643.778 318.764,-637.647"/>
<polygon fill="none" stroke="midnightblue" points="336.676,-685.961 343.343,-694.195 343.266,-683.6 336.676,-685.961"/>
</g>
<!-- Node4 -->
<g id="node4" class="node"><title>Node4</title>
<g id="a_node4"><a xlink:href="classgs__param__base.html" target="_top" xlink:title="{gs_param_base\n||}">
<polygon fill="white" stroke="black" points="316.191,-851.5 316.191,-905.5 403.905,-905.5 403.905,-851.5 316.191,-851.5"/>
<text text-anchor="middle" x="360.048" y="-893.5" font-family="Helvetica,sans-Serif" font-size="10.00">gs_param_base</text>
<polyline fill="none" stroke="black" points="316.191,-887.5 403.905,-887.5 "/>
<text text-anchor="middle" x="360.048" y="-875.5" font-family="Helvetica,sans-Serif" font-size="10.00"> </text>
<polyline fill="none" stroke="black" points="316.191,-869.5 403.905,-869.5 "/>
<text text-anchor="middle" x="360.048" y="-857.5" font-family="Helvetica,sans-Serif" font-size="10.00"> </text>
</a>
</g>
</g>
<!-- Node4&#45;&gt;Node3 -->
<g id="edge3" class="edge"><title>Node4&#45;&gt;Node3</title>
<path fill="none" stroke="midnightblue" d="M360.048,-841.133C360.048,-830.931 360.048,-819.596 360.048,-808.534"/>
<polygon fill="none" stroke="midnightblue" points="356.548,-841.296 360.048,-851.296 363.548,-841.296 356.548,-841.296"/>
</g>
<!-- Node5 -->
<g id="node5" class="node"><title>Node5</title>
<g id="a_node5"><a xlink:href="classdouble.html" target="_top" xlink:title="{double\n||}">
<polygon fill="white" stroke="black" points="395.033,-518.5 395.033,-572.5 441.062,-572.5 441.062,-518.5 395.033,-518.5"/>
<text text-anchor="middle" x="418.048" y="-560.5" font-family="Helvetica,sans-Serif" font-size="10.00">double</text>
<polyline fill="none" stroke="black" points="395.033,-554.5 441.062,-554.5 "/>
<text text-anchor="middle" x="418.048" y="-542.5" font-family="Helvetica,sans-Serif" font-size="10.00"> </text>
<polyline fill="none" stroke="black" points="395.033,-536.5 441.062,-536.5 "/>
<text text-anchor="middle" x="418.048" y="-524.5" font-family="Helvetica,sans-Serif" font-size="10.00"> </text>
</a>
</g>
</g>
<!-- Node5&#45;&gt;Node2 -->
<g id="edge4" class="edge"><title>Node5&#45;&gt;Node2</title>
<path fill="none" stroke="#404040" d="M411.632,-518.395C404.908,-492.021 393.59,-450.247 381.048,-415 380.208,-412.64 379.342,-410.258 378.455,-407.862"/>
<polygon fill="none" stroke="#404040" points="378.427,-407.787 372.557,-403.599 374.165,-396.57 380.035,-400.758 378.427,-407.787"/>
<text text-anchor="middle" x="420.388" y="-427" font-family="Helvetica,sans-Serif" font-size="10.00"> #m_mirror_val</text>
<text text-anchor="middle" x="420.388" y="-417" font-family="Helvetica,sans-Serif" font-size="10.00">#my_value</text>
</g>
<!-- Node6 -->
<g id="node6" class="node"><title>Node6</title>
<g id="a_node6"><a xlink:title="STL class. ">
<polygon fill="white" stroke="#bfbfbf" points="17.373,-724.5 17.373,-778.5 76.7227,-778.5 76.7227,-724.5 17.373,-724.5"/>
<text text-anchor="middle" x="47.0479" y="-766.5" font-family="Helvetica,sans-Serif" font-size="10.00">std::string</text>
<polyline fill="none" stroke="#bfbfbf" points="17.373,-760.5 76.7227,-760.5 "/>
<text text-anchor="middle" x="47.0479" y="-748.5" font-family="Helvetica,sans-Serif" font-size="10.00"> </text>
<polyline fill="none" stroke="#bfbfbf" points="17.373,-742.5 76.7227,-742.5 "/>
<text text-anchor="middle" x="47.0479" y="-730.5" font-family="Helvetica,sans-Serif" font-size="10.00"> </text>
</a>
</g>
</g>
<!-- Node6&#45;&gt;Node2 -->
<g id="edge6" class="edge"><title>Node6&#45;&gt;Node2</title>
<path fill="none" stroke="#404040" d="M47.8373,-724.141C50.6862,-668.986 63.7592,-539.374 123.57,-453 157.788,-403.586 214.27,-365.336 260.112,-340.182"/>
<polygon fill="none" stroke="#404040" points="260.341,-340.059 263.737,-333.698 270.916,-334.386 267.52,-340.747 260.341,-340.059"/>
<text text-anchor="middle" x="156.287" y="-542.5" font-family="Helvetica,sans-Serif" font-size="10.00"> #return_string</text>
</g>
<!-- Node6&#45;&gt;Node8 -->
<g id="edge10" class="edge"><title>Node6&#45;&gt;Node8</title>
<path fill="none" stroke="#404040" d="M57.2547,-724.34C66.0548,-704.097 80.2343,-676.201 98.5703,-656 123.618,-628.404 156.964,-604.302 186.848,-585.788"/>
<polygon fill="none" stroke="#404040" points="186.994,-585.699 190.05,-579.168 197.254,-579.476 194.199,-586.008 186.994,-585.699"/>
<text text-anchor="middle" x="131.287" y="-663" font-family="Helvetica,sans-Serif" font-size="10.00"> #return_string</text>
</g>
<!-- Node7 -->
<g id="node7" class="node"><title>Node7</title>
<g id="a_node7"><a xlink:title="STL class. ">
<polygon fill="white" stroke="#bfbfbf" points="0,-846.5 0,-910.5 94.0957,-910.5 94.0957,-846.5 0,-846.5"/>
<text text-anchor="start" x="8" y="-898.5" font-family="Helvetica,sans-Serif" font-size="10.00">std::basic_string&lt;</text>
<text text-anchor="middle" x="47.0479" y="-888.5" font-family="Helvetica,sans-Serif" font-size="10.00"> char &gt;</text>
<polyline fill="none" stroke="#bfbfbf" points="0,-882.5 94.0957,-882.5 "/>
<text text-anchor="middle" x="47.0479" y="-870.5" font-family="Helvetica,sans-Serif" font-size="10.00"> </text>
<polyline fill="none" stroke="#bfbfbf" points="0,-864.5 94.0957,-864.5 "/>
<text text-anchor="middle" x="47.0479" y="-852.5" font-family="Helvetica,sans-Serif" font-size="10.00"> </text>
</a>
</g>
</g>
<!-- Node7&#45;&gt;Node6 -->
<g id="edge7" class="edge"><title>Node7&#45;&gt;Node6</title>
<path fill="none" stroke="midnightblue" d="M47.0479,-836.112C47.0479,-817.174 47.0479,-795.306 47.0479,-778.685"/>
<polygon fill="none" stroke="midnightblue" points="43.5479,-836.28 47.0479,-846.28 50.5479,-836.28 43.5479,-836.28"/>
</g>
<!-- Node8&#45;&gt;Node2 -->
<g id="edge8" class="edge"><title>Node8&#45;&gt;Node2</title>
<path fill="none" stroke="orange" d="M291.228,-443.795C296.069,-428.161 301.046,-412.087 305.816,-396.68"/>
<polygon fill="orange" stroke="orange" points="287.85,-442.875 288.235,-453.463 294.536,-444.945 287.85,-442.875"/>
<text text-anchor="middle" x="325.07" y="-422" font-family="Helvetica,sans-Serif" font-size="10.00"> &lt; double &gt;</text>
</g>
<!-- Node9 -->
<g id="node9" class="node"><title>Node9</title>
<polygon fill="white" stroke="#bfbfbf" points="106.643,-724.5 106.643,-778.5 203.453,-778.5 203.453,-724.5 106.643,-724.5"/>
<text text-anchor="middle" x="155.048" y="-766.5" font-family="Helvetica,sans-Serif" font-size="10.00">gs_config_t&lt; T &gt; *</text>
<polyline fill="none" stroke="#bfbfbf" points="106.643,-760.5 203.453,-760.5 "/>
<text text-anchor="middle" x="155.048" y="-748.5" font-family="Helvetica,sans-Serif" font-size="10.00"> </text>
<polyline fill="none" stroke="#bfbfbf" points="106.643,-742.5 203.453,-742.5 "/>
<text text-anchor="middle" x="155.048" y="-730.5" font-family="Helvetica,sans-Serif" font-size="10.00"> </text>
</g>
<!-- Node9&#45;&gt;Node8 -->
<g id="edge11" class="edge"><title>Node9&#45;&gt;Node8</title>
<path fill="none" stroke="#404040" d="M156.938,-724.217C159.121,-704.666 163.802,-677.726 173.807,-656 178.415,-645.992 184.112,-636.081 190.365,-626.547"/>
<polygon fill="none" stroke="#404040" points="190.56,-626.263 190.652,-619.053 197.343,-616.365 197.251,-623.575 190.56,-626.263"/>
<text text-anchor="middle" x="215.168" y="-663" font-family="Helvetica,sans-Serif" font-size="10.00"> #m_mirror_param</text>
</g>
<!-- Node10 -->
<g id="node10" class="node"><title>Node10</title>
<polygon fill="white" stroke="#bfbfbf" points="245.548,-724.5 245.548,-778.5 274.548,-778.5 274.548,-724.5 245.548,-724.5"/>
<text text-anchor="middle" x="259.602" y="-766.5" font-family="Helvetica,sans-Serif" font-size="10.00">T</text>
<polyline fill="none" stroke="#bfbfbf" points="245.548,-760.5 273.656,-760.5 "/>
<text text-anchor="middle" x="259.602" y="-748.5" font-family="Helvetica,sans-Serif" font-size="10.00"> </text>
<polyline fill="none" stroke="#bfbfbf" points="245.548,-742.5 273.656,-742.5 "/>
<text text-anchor="middle" x="259.602" y="-730.5" font-family="Helvetica,sans-Serif" font-size="10.00"> </text>
</g>
<!-- Node10&#45;&gt;Node8 -->
<g id="edge12" class="edge"><title>Node10&#45;&gt;Node8</title>
<path fill="none" stroke="#404040" d="M260.048,-724.248C260.048,-705.032 260.048,-677.597 260.048,-650.015"/>
<polygon fill="none" stroke="#404040" points="260.048,-649.787 256.048,-643.787 260.048,-637.787 264.048,-643.787 260.048,-649.787"/>
<text text-anchor="middle" x="293.388" y="-668" font-family="Helvetica,sans-Serif" font-size="10.00"> #m_mirror_val</text>
<text text-anchor="middle" x="293.388" y="-658" font-family="Helvetica,sans-Serif" font-size="10.00">#my_value</text>
</g>
</g>
</svg>
