<?xml version="1.0" encoding="UTF-8" standalone="no"?>
<!DOCTYPE svg PUBLIC "-//W3C//DTD SVG 1.1//EN"
 "http://www.w3.org/Graphics/SVG/1.1/DTD/svg11.dtd">
<!-- Generated by graphviz version 2.38.0 (20140413.2041)
 -->
<!-- Title: trap::fstatSysCall::operator() Pages: 1 -->
<svg width="268pt" height="212pt"
 viewBox="0.00 0.00 268.28 212.00" xmlns="http://www.w3.org/2000/svg" xmlns:xlink="http://www.w3.org/1999/xlink">
<g id="graph0" class="graph" transform="scale(1 1) rotate(0) translate(4 208)">
<title>trap::fstatSysCall::operator()</title>
<polygon fill="white" stroke="none" points="-4,4 -4,-208 264.28,-208 264.28,4 -4,4"/>
<!-- Node1 -->
<g id="node1" class="node"><title>Node1</title>
<polygon fill="#bfbfbf" stroke="black" points="0,-87.5 0,-115.5 91.5811,-115.5 91.5811,-87.5 0,-87.5"/>
<text text-anchor="start" x="8" y="-103.5" font-family="Helvetica,sans-Serif" font-size="10.00">trap::fstatSysCall</text>
<text text-anchor="middle" x="45.7905" y="-93.5" font-family="Helvetica,sans-Serif" font-size="10.00">::operator()</text>
</g>
<!-- Node2 -->
<g id="node2" class="node"><title>Node2</title>
<g id="a_node2"><a xlink:href="classtrap_1_1ABIIf.html#a09009b16205964fa8feecd9cb5efdc2b" target="_top" xlink:title="trap::ABIIf::postCall">
<polygon fill="white" stroke="black" points="142.857,-185.5 142.857,-203.5 245.004,-203.5 245.004,-185.5 142.857,-185.5"/>
<text text-anchor="middle" x="193.931" y="-191.5" font-family="Helvetica,sans-Serif" font-size="10.00">trap::ABIIf::postCall</text>
</a>
</g>
</g>
<!-- Node1&#45;&gt;Node2 -->
<g id="edge1" class="edge"><title>Node1&#45;&gt;Node2</title>
<path fill="none" stroke="midnightblue" d="M58.1419,-115.545C72.5511,-132.455 98.9954,-160.566 127.581,-176.5 131.224,-178.53 135.11,-180.344 139.103,-181.961"/>
<polygon fill="midnightblue" stroke="midnightblue" points="137.954,-185.267 148.548,-185.389 140.342,-178.687 137.954,-185.267"/>
</g>
<!-- Node3 -->
<g id="node3" class="node"><title>Node3</title>
<g id="a_node3"><a xlink:href="classtrap_1_1ABIIf.html#ab078dd4f7d791c2bd95148c3cd568600" target="_top" xlink:title="trap::ABIIf::preCall">
<polygon fill="white" stroke="black" points="145.081,-148.5 145.081,-166.5 242.78,-166.5 242.78,-148.5 145.081,-148.5"/>
<text text-anchor="middle" x="193.931" y="-154.5" font-family="Helvetica,sans-Serif" font-size="10.00">trap::ABIIf::preCall</text>
</a>
</g>
</g>
<!-- Node1&#45;&gt;Node3 -->
<g id="edge2" class="edge"><title>Node1&#45;&gt;Node3</title>
<path fill="none" stroke="midnightblue" d="M73.5946,-115.521C89.0904,-123.267 109.118,-132.672 127.581,-139.5 133.521,-141.696 139.851,-143.765 146.144,-145.662"/>
<polygon fill="midnightblue" stroke="midnightblue" points="145.365,-149.08 155.944,-148.496 147.31,-142.356 145.365,-149.08"/>
</g>
<!-- Node4 -->
<g id="node4" class="node"><title>Node4</title>
<g id="a_node4"><a xlink:href="classtrap_1_1ABIIf.html#a15542f4ec43296551f50c35ceb6da94a" target="_top" xlink:title="trap::ABIIf::readArgs">
<polygon fill="white" stroke="black" points="140.633,-111.5 140.633,-129.5 247.229,-129.5 247.229,-111.5 140.633,-111.5"/>
<text text-anchor="middle" x="193.931" y="-117.5" font-family="Helvetica,sans-Serif" font-size="10.00">trap::ABIIf::readArgs</text>
</a>
</g>
</g>
<!-- Node1&#45;&gt;Node4 -->
<g id="edge3" class="edge"><title>Node1&#45;&gt;Node4</title>
<path fill="none" stroke="midnightblue" d="M91.8298,-107.356C104.006,-108.939 117.406,-110.681 130.358,-112.365"/>
<polygon fill="midnightblue" stroke="midnightblue" points="130.248,-115.88 140.616,-113.698 131.15,-108.938 130.248,-115.88"/>
</g>
<!-- Node5 -->
<g id="node5" class="node"><title>Node5</title>
<g id="a_node5"><a xlink:href="classtrap_1_1ABIIf.html#a5c0112912c658eb7be33283f1141a726" target="_top" xlink:title="trap::ABIIf::returnFromCall">
<polygon fill="white" stroke="black" points="127.581,-74.5 127.581,-92.5 260.28,-92.5 260.28,-74.5 127.581,-74.5"/>
<text text-anchor="middle" x="193.931" y="-80.5" font-family="Helvetica,sans-Serif" font-size="10.00">trap::ABIIf::returnFromCall</text>
</a>
</g>
</g>
<!-- Node1&#45;&gt;Node5 -->
<g id="edge4" class="edge"><title>Node1&#45;&gt;Node5</title>
<path fill="none" stroke="midnightblue" d="M91.8298,-95.9525C99.9072,-94.9576 108.523,-93.8964 117.189,-92.829"/>
<polygon fill="midnightblue" stroke="midnightblue" points="117.859,-96.273 127.356,-91.5767 117.004,-89.3255 117.859,-96.273"/>
</g>
<!-- Node6 -->
<g id="node6" class="node"><title>Node6</title>
<g id="a_node6"><a xlink:href="classtrap_1_1ABIIf.html#a0c2cec804e41cd95ffe4fc073268a10f" target="_top" xlink:title="trap::ABIIf::setRetVal">
<polygon fill="white" stroke="black" points="139.612,-37.5 139.612,-55.5 248.249,-55.5 248.249,-37.5 139.612,-37.5"/>
<text text-anchor="middle" x="193.931" y="-43.5" font-family="Helvetica,sans-Serif" font-size="10.00">trap::ABIIf::setRetVal</text>
</a>
</g>
</g>
<!-- Node1&#45;&gt;Node6 -->
<g id="edge5" class="edge"><title>Node1&#45;&gt;Node6</title>
<path fill="none" stroke="midnightblue" d="M75.9406,-87.3557C91.131,-80.2817 110.134,-71.8897 127.581,-65.5 134.37,-63.0138 141.646,-60.6307 148.79,-58.4433"/>
<polygon fill="midnightblue" stroke="midnightblue" points="149.802,-61.794 158.39,-55.5907 147.808,-55.084 149.802,-61.794"/>
</g>
<!-- Node7 -->
<g id="node7" class="node"><title>Node7</title>
<g id="a_node7"><a xlink:href="classtrap_1_1ABIIf.html#a70c68f65b9728763bd98cb007c79f8fc" target="_top" xlink:title="trap::ABIIf::writeMem">
<polygon fill="white" stroke="black" points="139.253,-0.5 139.253,-18.5 248.608,-18.5 248.608,-0.5 139.253,-0.5"/>
<text text-anchor="middle" x="193.931" y="-6.5" font-family="Helvetica,sans-Serif" font-size="10.00">trap::ABIIf::writeMem</text>
</a>
</g>
</g>
<!-- Node1&#45;&gt;Node7 -->
<g id="edge6" class="edge"><title>Node1&#45;&gt;Node7</title>
<path fill="none" stroke="midnightblue" d="M58.7742,-87.3301C73.409,-70.8927 99.6815,-44.0643 127.581,-28.5 132.045,-26.0095 136.867,-23.8182 141.798,-21.896"/>
<polygon fill="midnightblue" stroke="midnightblue" points="143.086,-25.1531 151.35,-18.5233 140.756,-18.5524 143.086,-25.1531"/>
</g>
</g>
</svg>
