<?xml version="1.0" encoding="UTF-8" standalone="no"?>
<!DOCTYPE svg PUBLIC "-//W3C//DTD SVG 1.1//EN"
 "http://www.w3.org/Graphics/SVG/1.1/DTD/svg11.dtd">
<!-- Generated by graphviz version 2.38.0 (20140413.2041)
 -->
<!-- Title: GPCounter Pages: 1 -->
<svg width="145pt" height="324pt"
 viewBox="0.00 0.00 144.88 324.00" xmlns="http://www.w3.org/2000/svg" xmlns:xlink="http://www.w3.org/1999/xlink">
<g id="graph0" class="graph" transform="scale(1 1) rotate(0) translate(4 320)">
<title>GPCounter</title>
<polygon fill="white" stroke="none" points="-4,4 -4,-320 140.879,-320 140.879,4 -4,4"/>
<!-- Node1 -->
<g id="node1" class="node"><title>Node1</title>
<polygon fill="#bfbfbf" stroke="black" points="0,-0.5 0,-224.5 136.879,-224.5 136.879,-0.5 0,-0.5"/>
<text text-anchor="middle" x="68.4395" y="-212.5" font-family="Helvetica,sans-Serif" font-size="10.00">GPCounter</text>
<polyline fill="none" stroke="black" points="0,-206.5 136.879,-206.5 "/>
<text text-anchor="start" x="8" y="-194.5" font-family="Helvetica,sans-Serif" font-size="10.00">+ p</text>
<text text-anchor="start" x="8" y="-184.5" font-family="Helvetica,sans-Serif" font-size="10.00">+ m_pirq</text>
<text text-anchor="start" x="8" y="-174.5" font-family="Helvetica,sans-Serif" font-size="10.00">+ lasttime</text>
<text text-anchor="start" x="8" y="-164.5" font-family="Helvetica,sans-Serif" font-size="10.00">+ lastvalue</text>
<text text-anchor="start" x="8" y="-154.5" font-family="Helvetica,sans-Serif" font-size="10.00">+ e_wait</text>
<text text-anchor="start" x="8" y="-144.5" font-family="Helvetica,sans-Serif" font-size="10.00">+ nr</text>
<text text-anchor="start" x="8" y="-134.5" font-family="Helvetica,sans-Serif" font-size="10.00">+ stopped</text>
<text text-anchor="start" x="8" y="-124.5" font-family="Helvetica,sans-Serif" font-size="10.00">+ chain_run</text>
<polyline fill="none" stroke="black" points="0,-118.5 136.879,-118.5 "/>
<text text-anchor="start" x="8" y="-106.5" font-family="Helvetica,sans-Serif" font-size="10.00">+ GC_HAS_CALLBACKS()</text>
<text text-anchor="start" x="8" y="-96.5" font-family="Helvetica,sans-Serif" font-size="10.00">+ SC_HAS_PROCESS()</text>
<text text-anchor="start" x="8" y="-86.5" font-family="Helvetica,sans-Serif" font-size="10.00">+ GPCounter()</text>
<text text-anchor="start" x="8" y="-76.5" font-family="Helvetica,sans-Serif" font-size="10.00">+ ~GPCounter()</text>
<text text-anchor="start" x="8" y="-66.5" font-family="Helvetica,sans-Serif" font-size="10.00">+ end_of_elaboration()</text>
<text text-anchor="start" x="8" y="-56.5" font-family="Helvetica,sans-Serif" font-size="10.00">+ end_of_simulation()</text>
<text text-anchor="start" x="8" y="-46.5" font-family="Helvetica,sans-Serif" font-size="10.00">+ ctrl_read()</text>
<text text-anchor="start" x="8" y="-36.5" font-family="Helvetica,sans-Serif" font-size="10.00">+ ctrl_write()</text>
<text text-anchor="start" x="8" y="-26.5" font-family="Helvetica,sans-Serif" font-size="10.00">+ value_read()</text>
<text text-anchor="start" x="8" y="-16.5" font-family="Helvetica,sans-Serif" font-size="10.00">+ value_write()</text>
<text text-anchor="start" x="8" y="-6.5" font-family="Helvetica,sans-Serif" font-size="10.00">and 8 more...</text>
</g>
<!-- Node2 -->
<g id="node2" class="node"><title>Node2</title>
<g id="a_node2"><a xlink:href="classgs_1_1reg_1_1gr__subdevice.html" target="_top" xlink:title="{gs::reg::gr_subdevice\n||}">
<polygon fill="white" stroke="black" points="12.6343,-261.5 12.6343,-315.5 124.245,-315.5 124.245,-261.5 12.6343,-261.5"/>
<text text-anchor="middle" x="68.4395" y="-303.5" font-family="Helvetica,sans-Serif" font-size="10.00">gs::reg::gr_subdevice</text>
<polyline fill="none" stroke="black" points="12.6343,-297.5 124.245,-297.5 "/>
<text text-anchor="middle" x="68.4395" y="-285.5" font-family="Helvetica,sans-Serif" font-size="10.00"> </text>
<polyline fill="none" stroke="black" points="12.6343,-279.5 124.245,-279.5 "/>
<text text-anchor="middle" x="68.4395" y="-267.5" font-family="Helvetica,sans-Serif" font-size="10.00"> </text>
</a>
</g>
</g>
<!-- Node2&#45;&gt;Node1 -->
<g id="edge1" class="edge"><title>Node2&#45;&gt;Node1</title>
<path fill="none" stroke="midnightblue" d="M68.4395,-251.306C68.4395,-243.157 68.4395,-234.091 68.4395,-224.611"/>
<polygon fill="none" stroke="midnightblue" points="64.9396,-251.45 68.4395,-261.45 71.9396,-251.45 64.9396,-251.45"/>
</g>
</g>
</svg>
