<?xml version="1.0" encoding="UTF-8" standalone="no"?>
<!DOCTYPE svg PUBLIC "-//W3C//DTD SVG 1.1//EN"
 "http://www.w3.org/Graphics/SVG/1.1/DTD/svg11.dtd">
<!-- Generated by graphviz version 2.38.0 (20140413.2041)
 -->
<!-- Title: sr_signal::signal_selector&lt; TYPE, MODULE &gt; Pages: 1 -->
<svg width="256pt" height="353pt"
 viewBox="0.00 0.00 255.50 353.00" xmlns="http://www.w3.org/2000/svg" xmlns:xlink="http://www.w3.org/1999/xlink">
<g id="graph0" class="graph" transform="scale(1 1) rotate(0) translate(4 349)">
<title>sr_signal::signal_selector&lt; TYPE, MODULE &gt;</title>
<polygon fill="white" stroke="none" points="-4,4 -4,-349 251.5,-349 251.5,4 -4,4"/>
<!-- Node1 -->
<g id="node1" class="node"><title>Node1</title>
<polygon fill="#bfbfbf" stroke="black" points="59,-0.5 59,-123.5 186,-123.5 186,-0.5 59,-0.5"/>
<text text-anchor="start" x="67" y="-111.5" font-family="Helvetica,sans-Serif" font-size="10.00">sr_signal::signal_selector</text>
<text text-anchor="middle" x="122.5" y="-100.5" font-family="Helvetica,sans-Serif" font-size="10.00">&lt; TYPE, MODULE &gt;</text>
<polyline fill="none" stroke="black" points="59,-93.5 186,-93.5 "/>
<text text-anchor="middle" x="122.5" y="-81.5" font-family="Helvetica,sans-Serif" font-size="10.00"> </text>
<polyline fill="none" stroke="black" points="59,-74.5 186,-74.5 "/>
<text text-anchor="start" x="67" y="-62.5" font-family="Helvetica,sans-Serif" font-size="10.00">+ signal_selector()</text>
<text text-anchor="start" x="67" y="-51.5" font-family="Helvetica,sans-Serif" font-size="10.00">+ ~signal_selector()</text>
<text text-anchor="start" x="67" y="-40.5" font-family="Helvetica,sans-Serif" font-size="10.00">+ bind()</text>
<text text-anchor="start" x="67" y="-29.5" font-family="Helvetica,sans-Serif" font-size="10.00">+ write()</text>
<text text-anchor="start" x="67" y="-18.5" font-family="Helvetica,sans-Serif" font-size="10.00">+ read()</text>
<text text-anchor="start" x="67" y="-7.5" font-family="Helvetica,sans-Serif" font-size="10.00">+ operator()()</text>
</g>
<!-- Node2 -->
<g id="node2" class="node"><title>Node2</title>
<g id="a_node2"><a xlink:href="classsr__signal_1_1signal__base.html" target="_top" xlink:title="{sr_signal::signal_base\l\&lt; TYPE, MODULE \&gt;\n||+ signal_base()\l+ ~signal_base()\l# get_module()\l}">
<polygon fill="white" stroke="black" points="0,-160.5 0,-250.5 113,-250.5 113,-160.5 0,-160.5"/>
<text text-anchor="start" x="8" y="-238.5" font-family="Helvetica,sans-Serif" font-size="10.00">sr_signal::signal_base</text>
<text text-anchor="middle" x="56.5" y="-227.5" font-family="Helvetica,sans-Serif" font-size="10.00">&lt; TYPE, MODULE &gt;</text>
<polyline fill="none" stroke="black" points="0,-220.5 113,-220.5 "/>
<text text-anchor="middle" x="56.5" y="-208.5" font-family="Helvetica,sans-Serif" font-size="10.00"> </text>
<polyline fill="none" stroke="black" points="0,-201.5 113,-201.5 "/>
<text text-anchor="start" x="8" y="-189.5" font-family="Helvetica,sans-Serif" font-size="10.00">+ signal_base()</text>
<text text-anchor="start" x="8" y="-178.5" font-family="Helvetica,sans-Serif" font-size="10.00">+ ~signal_base()</text>
<text text-anchor="start" x="8" y="-167.5" font-family="Helvetica,sans-Serif" font-size="10.00"># get_module()</text>
</a>
</g>
</g>
<!-- Node2&#45;&gt;Node1 -->
<g id="edge1" class="edge"><title>Node2&#45;&gt;Node1</title>
<path fill="none" stroke="midnightblue" d="M81.4732,-150.959C85.6471,-142.01 90.0034,-132.671 94.2524,-123.561"/>
<polygon fill="none" stroke="midnightblue" points="78.257,-149.575 77.2017,-160.117 84.6008,-152.534 78.257,-149.575"/>
</g>
<!-- Node3 -->
<g id="node3" class="node"><title>Node3</title>
<polygon fill="white" stroke="#bfbfbf" points="27,-287.5 27,-344.5 86,-344.5 86,-287.5 27,-287.5"/>
<text text-anchor="middle" x="56.5" y="-332.5" font-family="Helvetica,sans-Serif" font-size="10.00">sc_object</text>
<polyline fill="none" stroke="#bfbfbf" points="27,-325.5 86,-325.5 "/>
<text text-anchor="middle" x="56.5" y="-313.5" font-family="Helvetica,sans-Serif" font-size="10.00"> </text>
<polyline fill="none" stroke="#bfbfbf" points="27,-306.5 86,-306.5 "/>
<text text-anchor="middle" x="56.5" y="-294.5" font-family="Helvetica,sans-Serif" font-size="10.00"> </text>
</g>
<!-- Node3&#45;&gt;Node2 -->
<g id="edge2" class="edge"><title>Node3&#45;&gt;Node2</title>
<path fill="none" stroke="midnightblue" d="M56.5,-277.214C56.5,-268.609 56.5,-259.394 56.5,-250.554"/>
<polygon fill="none" stroke="midnightblue" points="53.0001,-277.34 56.5,-287.34 60.0001,-277.34 53.0001,-277.34"/>
</g>
<!-- Node4 -->
<g id="node4" class="node"><title>Node4</title>
<g id="a_node4"><a xlink:href="classsr__signal_1_1signal__out__bind__if.html" target="_top" xlink:title="{sr_signal::signal_out\l_bind_if\&lt; TYPE \&gt;\n||+ ~signal_out_bind_if()\l+ bind()\l}">
<polygon fill="white" stroke="black" points="131.5,-166 131.5,-245 247.5,-245 247.5,-166 131.5,-166"/>
<text text-anchor="start" x="139.5" y="-233" font-family="Helvetica,sans-Serif" font-size="10.00">sr_signal::signal_out</text>
<text text-anchor="middle" x="189.5" y="-222" font-family="Helvetica,sans-Serif" font-size="10.00">_bind_if&lt; TYPE &gt;</text>
<polyline fill="none" stroke="black" points="131.5,-215 247.5,-215 "/>
<text text-anchor="middle" x="189.5" y="-203" font-family="Helvetica,sans-Serif" font-size="10.00"> </text>
<polyline fill="none" stroke="black" points="131.5,-196 247.5,-196 "/>
<text text-anchor="start" x="139.5" y="-184" font-family="Helvetica,sans-Serif" font-size="10.00">+ ~signal_out_bind_if()</text>
<text text-anchor="start" x="139.5" y="-173" font-family="Helvetica,sans-Serif" font-size="10.00">+ bind()</text>
</a>
</g>
</g>
<!-- Node4&#45;&gt;Node1 -->
<g id="edge3" class="edge"><title>Node4&#45;&gt;Node1</title>
<path fill="none" stroke="midnightblue" d="M166.884,-156.736C161.86,-146.125 156.469,-134.74 151.236,-123.689"/>
<polygon fill="none" stroke="midnightblue" points="163.749,-158.294 171.192,-165.835 170.076,-155.299 163.749,-158.294"/>
</g>
</g>
</svg>
