<?xml version="1.0" encoding="UTF-8" standalone="no"?>
<!DOCTYPE svg PUBLIC "-//W3C//DTD SVG 1.1//EN"
 "http://www.w3.org/Graphics/SVG/1.1/DTD/svg11.dtd">
<!-- Generated by graphviz version 2.38.0 (20140413.2041)
 -->
<!-- Title: core/common/clkdevice.cpp Pages: 1 -->
<svg width="1129pt" height="666pt"
 viewBox="0.00 0.00 1128.50 666.00" xmlns="http://www.w3.org/2000/svg" xmlns:xlink="http://www.w3.org/1999/xlink">
<g id="graph0" class="graph" transform="scale(1 1) rotate(0) translate(4 662)">
<title>core/common/clkdevice.cpp</title>
<polygon fill="white" stroke="none" points="-4,4 -4,-662 1124.5,-662 1124.5,4 -4,4"/>
<!-- Node1 -->
<g id="node1" class="node"><title>Node1</title>
<polygon fill="#bfbfbf" stroke="black" points="636.5,-638.5 636.5,-657.5 775.5,-657.5 775.5,-638.5 636.5,-638.5"/>
<text text-anchor="middle" x="706" y="-645.5" font-family="Helvetica,sans-Serif" font-size="10.00">core/common/clkdevice.cpp</text>
</g>
<!-- Node2 -->
<g id="node2" class="node"><title>Node2</title>
<g id="a_node2"><a xlink:href="clkdevice_8h.html" target="_top" xlink:title="core/common/clkdevice.h">
<polygon fill="white" stroke="black" points="512,-582.5 512,-601.5 640,-601.5 640,-582.5 512,-582.5"/>
<text text-anchor="middle" x="576" y="-589.5" font-family="Helvetica,sans-Serif" font-size="10.00">core/common/clkdevice.h</text>
</a>
</g>
</g>
<!-- Node1&#45;&gt;Node2 -->
<g id="edge1" class="edge"><title>Node1&#45;&gt;Node2</title>
<path fill="none" stroke="midnightblue" d="M685.401,-638.444C664.007,-629.557 630.319,-615.563 605.976,-605.451"/>
<polygon fill="midnightblue" stroke="midnightblue" points="607.08,-602.12 596.503,-601.516 604.395,-608.585 607.08,-602.12"/>
</g>
<!-- Node26 -->
<g id="node26" class="node"><title>Node26</title>
<g id="a_node26"><a xlink:href="verbose_8h.html" target="_top" xlink:title="Implements a unified output system for messages and debunging. ">
<polygon fill="white" stroke="black" points="776,-582.5 776,-601.5 898,-601.5 898,-582.5 776,-582.5"/>
<text text-anchor="middle" x="837" y="-589.5" font-family="Helvetica,sans-Serif" font-size="10.00">core/common/verbose.h</text>
</a>
</g>
</g>
<!-- Node1&#45;&gt;Node26 -->
<g id="edge50" class="edge"><title>Node1&#45;&gt;Node26</title>
<path fill="none" stroke="midnightblue" d="M726.757,-638.444C748.316,-629.557 782.263,-615.563 806.794,-605.451"/>
<polygon fill="midnightblue" stroke="midnightblue" points="808.428,-608.563 816.34,-601.516 805.761,-602.092 808.428,-608.563"/>
</g>
<!-- Node3 -->
<g id="node3" class="node"><title>Node3</title>
<g id="a_node3"><a xlink:href="core_2common_2systemc_8h.html" target="_top" xlink:title="core/common/systemc.h">
<polygon fill="white" stroke="black" points="746.5,-465 746.5,-484 871.5,-484 871.5,-465 746.5,-465"/>
<text text-anchor="middle" x="809" y="-472" font-family="Helvetica,sans-Serif" font-size="10.00">core/common/systemc.h</text>
</a>
</g>
</g>
<!-- Node2&#45;&gt;Node3 -->
<g id="edge2" class="edge"><title>Node2&#45;&gt;Node3</title>
<path fill="none" stroke="midnightblue" d="M575.926,-582.454C576.294,-568.544 579.135,-541.051 595,-526 615.293,-506.748 682.486,-492.988 736.23,-484.742"/>
<polygon fill="midnightblue" stroke="midnightblue" points="737.065,-488.156 746.438,-483.216 736.03,-481.233 737.065,-488.156"/>
</g>
<!-- Node8 -->
<g id="node8" class="node"><title>Node8</title>
<g id="a_node8"><a xlink:href="sr__signal_8h.html" target="_top" xlink:title="core/common/sr_signal.h">
<polygon fill="white" stroke="black" points="420,-526.5 420,-545.5 546,-545.5 546,-526.5 420,-526.5"/>
<text text-anchor="middle" x="483" y="-533.5" font-family="Helvetica,sans-Serif" font-size="10.00">core/common/sr_signal.h</text>
</a>
</g>
</g>
<!-- Node2&#45;&gt;Node8 -->
<g id="edge8" class="edge"><title>Node2&#45;&gt;Node8</title>
<path fill="none" stroke="midnightblue" d="M561.058,-582.324C546.415,-573.822 523.866,-560.729 506.762,-550.797"/>
<polygon fill="midnightblue" stroke="midnightblue" points="508.31,-547.649 497.905,-545.655 504.795,-553.703 508.31,-547.649"/>
</g>
<!-- Node3&#45;&gt;Node3 -->
<g id="edge3" class="edge"><title>Node3&#45;&gt;Node3</title>
<path fill="none" stroke="midnightblue" d="M838.724,-484.033C863.554,-488.107 889.5,-484.93 889.5,-474.5 889.5,-465.496 870.164,-461.897 848.901,-463.702"/>
<polygon fill="midnightblue" stroke="midnightblue" points="848.216,-460.26 838.724,-464.967 849.079,-467.207 848.216,-460.26"/>
</g>
<!-- Node4 -->
<g id="node4" class="node"><title>Node4</title>
<polygon fill="white" stroke="#bfbfbf" points="695,-398 695,-417 733,-417 733,-398 695,-398"/>
<text text-anchor="middle" x="714" y="-405" font-family="Helvetica,sans-Serif" font-size="10.00">tlm.h</text>
</g>
<!-- Node3&#45;&gt;Node4 -->
<g id="edge4" class="edge"><title>Node3&#45;&gt;Node4</title>
<path fill="none" stroke="midnightblue" d="M796.188,-464.734C780.519,-454.013 753.778,-435.716 735.066,-422.914"/>
<polygon fill="midnightblue" stroke="midnightblue" points="736.839,-419.886 726.609,-417.127 732.886,-425.663 736.839,-419.886"/>
</g>
<!-- Node5 -->
<g id="node5" class="node"><title>Node5</title>
<polygon fill="white" stroke="#bfbfbf" points="751.5,-392.5 751.5,-422.5 866.5,-422.5 866.5,-392.5 751.5,-392.5"/>
<text text-anchor="start" x="759.5" y="-410.5" font-family="Helvetica,sans-Serif" font-size="10.00">tlm_utils/simple_target</text>
<text text-anchor="middle" x="809" y="-399.5" font-family="Helvetica,sans-Serif" font-size="10.00">_socket.h</text>
</g>
<!-- Node3&#45;&gt;Node5 -->
<g id="edge5" class="edge"><title>Node3&#45;&gt;Node5</title>
<path fill="none" stroke="midnightblue" d="M809,-464.734C809,-456.541 809,-443.923 809,-432.714"/>
<polygon fill="midnightblue" stroke="midnightblue" points="812.5,-432.589 809,-422.589 805.5,-432.589 812.5,-432.589"/>
</g>
<!-- Node6 -->
<g id="node6" class="node"><title>Node6</title>
<polygon fill="white" stroke="#bfbfbf" points="885,-392.5 885,-422.5 1007,-422.5 1007,-392.5 885,-392.5"/>
<text text-anchor="start" x="893" y="-410.5" font-family="Helvetica,sans-Serif" font-size="10.00">tlm_utils/simple_initiator</text>
<text text-anchor="middle" x="946" y="-399.5" font-family="Helvetica,sans-Serif" font-size="10.00">_socket.h</text>
</g>
<!-- Node3&#45;&gt;Node6 -->
<g id="edge6" class="edge"><title>Node3&#45;&gt;Node6</title>
<path fill="none" stroke="midnightblue" d="M827.193,-464.869C847.483,-455.242 880.898,-439.388 907.131,-426.942"/>
<polygon fill="midnightblue" stroke="midnightblue" points="908.899,-429.977 916.433,-422.528 905.898,-423.653 908.899,-429.977"/>
</g>
<!-- Node7 -->
<g id="node7" class="node"><title>Node7</title>
<polygon fill="white" stroke="#bfbfbf" points="1025.5,-392.5 1025.5,-422.5 1120.5,-422.5 1120.5,-392.5 1025.5,-392.5"/>
<text text-anchor="start" x="1033.5" y="-410.5" font-family="Helvetica,sans-Serif" font-size="10.00">tlm_utils/peq_with</text>
<text text-anchor="middle" x="1073" y="-399.5" font-family="Helvetica,sans-Serif" font-size="10.00">_get.h</text>
</g>
<!-- Node3&#45;&gt;Node7 -->
<g id="edge7" class="edge"><title>Node3&#45;&gt;Node7</title>
<path fill="none" stroke="midnightblue" d="M844.556,-464.938C883.879,-455.444 949.372,-439.559 1015.64,-423.076"/>
<polygon fill="midnightblue" stroke="midnightblue" points="1016.57,-426.453 1025.42,-420.64 1014.87,-419.66 1016.57,-426.453"/>
</g>
<!-- Node9 -->
<g id="node9" class="node"><title>Node9</title>
<g id="a_node9"><a xlink:href="sr__signal_2sr__signal_8h.html" target="_top" xlink:title="core/common/sr_signal\l/sr_signal.h">
<polygon fill="white" stroke="black" points="421,-459.5 421,-489.5 539,-489.5 539,-459.5 421,-459.5"/>
<text text-anchor="start" x="429" y="-477.5" font-family="Helvetica,sans-Serif" font-size="10.00">core/common/sr_signal</text>
<text text-anchor="middle" x="480" y="-466.5" font-family="Helvetica,sans-Serif" font-size="10.00">/sr_signal.h</text>
</a>
</g>
</g>
<!-- Node8&#45;&gt;Node9 -->
<g id="edge9" class="edge"><title>Node8&#45;&gt;Node9</title>
<path fill="none" stroke="midnightblue" d="M482.57,-526.475C482.217,-519.471 481.699,-509.192 481.22,-499.696"/>
<polygon fill="midnightblue" stroke="midnightblue" points="484.706,-499.334 480.707,-489.523 477.715,-499.687 484.706,-499.334"/>
</g>
<!-- Node10 -->
<g id="node10" class="node"><title>Node10</title>
<g id="a_node10"><a xlink:href="sr__signal__module_8h.html" target="_top" xlink:title="sr_signal_module.h">
<polygon fill="white" stroke="black" points="333.5,-224.5 333.5,-243.5 434.5,-243.5 434.5,-224.5 333.5,-224.5"/>
<text text-anchor="middle" x="384" y="-231.5" font-family="Helvetica,sans-Serif" font-size="10.00">sr_signal_module.h</text>
</a>
</g>
</g>
<!-- Node9&#45;&gt;Node10 -->
<g id="edge10" class="edge"><title>Node9&#45;&gt;Node10</title>
<path fill="none" stroke="midnightblue" d="M481.664,-459.286C484.901,-425.339 488.799,-338.055 452,-280 443.194,-266.108 428.374,-255.556 414.814,-248.175"/>
<polygon fill="midnightblue" stroke="midnightblue" points="416.218,-244.963 405.716,-243.569 413.057,-251.208 416.218,-244.963"/>
</g>
<!-- Node21 -->
<g id="node21" class="node"><title>Node21</title>
<g id="a_node21"><a xlink:href="sr__signal__adapter_8h.html" target="_top" xlink:title="sr_signal_adapter.h">
<polygon fill="white" stroke="black" points="336.5,-336.5 336.5,-355.5 437.5,-355.5 437.5,-336.5 336.5,-336.5"/>
<text text-anchor="middle" x="387" y="-343.5" font-family="Helvetica,sans-Serif" font-size="10.00">sr_signal_adapter.h</text>
</a>
</g>
</g>
<!-- Node9&#45;&gt;Node21 -->
<g id="edge36" class="edge"><title>Node9&#45;&gt;Node21</title>
<path fill="none" stroke="midnightblue" d="M469.692,-459.479C452.507,-436.104 418.063,-389.253 399.514,-364.022"/>
<polygon fill="midnightblue" stroke="midnightblue" points="402.204,-361.772 393.461,-355.789 396.565,-365.919 402.204,-361.772"/>
</g>
<!-- Node25 -->
<g id="node25" class="node"><title>Node25</title>
<g id="a_node25"><a xlink:href="sr__signal__connect_8h.html" target="_top" xlink:title="sr_signal_connect.h">
<polygon fill="white" stroke="black" points="524,-398 524,-417 628,-417 628,-398 524,-398"/>
<text text-anchor="middle" x="576" y="-405" font-family="Helvetica,sans-Serif" font-size="10.00">sr_signal_connect.h</text>
</a>
</g>
</g>
<!-- Node9&#45;&gt;Node25 -->
<g id="edge46" class="edge"><title>Node9&#45;&gt;Node25</title>
<path fill="none" stroke="midnightblue" d="M500.831,-459.396C516.78,-448.597 538.698,-433.756 554.751,-422.887"/>
<polygon fill="midnightblue" stroke="midnightblue" points="557.118,-425.512 563.436,-417.007 553.193,-419.715 557.118,-425.512"/>
</g>
<!-- Node11 -->
<g id="node11" class="node"><title>Node11</title>
<g id="a_node11"><a xlink:href="sr__signal__in_8h.html" target="_top" xlink:title="sr_signal_in.h">
<polygon fill="white" stroke="black" points="472.5,-112.5 472.5,-131.5 549.5,-131.5 549.5,-112.5 472.5,-112.5"/>
<text text-anchor="middle" x="511" y="-119.5" font-family="Helvetica,sans-Serif" font-size="10.00">sr_signal_in.h</text>
</a>
</g>
</g>
<!-- Node10&#45;&gt;Node11 -->
<g id="edge11" class="edge"><title>Node10&#45;&gt;Node11</title>
<path fill="none" stroke="midnightblue" d="M434.541,-228.84C461.972,-223.703 493.722,-212.453 511,-188 520.455,-174.619 519.185,-155.509 516.315,-141.472"/>
<polygon fill="midnightblue" stroke="midnightblue" points="519.648,-140.372 513.843,-131.508 512.854,-142.057 519.648,-140.372"/>
</g>
<!-- Node16 -->
<g id="node16" class="node"><title>Node16</title>
<g id="a_node16"><a xlink:href="sr__signal__out_8h.html" target="_top" xlink:title="sr_signal_out.h">
<polygon fill="white" stroke="black" points="332.5,-112.5 332.5,-131.5 415.5,-131.5 415.5,-112.5 332.5,-112.5"/>
<text text-anchor="middle" x="374" y="-119.5" font-family="Helvetica,sans-Serif" font-size="10.00">sr_signal_out.h</text>
</a>
</g>
</g>
<!-- Node10&#45;&gt;Node16 -->
<g id="edge17" class="edge"><title>Node10&#45;&gt;Node16</title>
<path fill="none" stroke="midnightblue" d="M383.215,-224.368C381.602,-206.617 377.879,-165.666 375.691,-141.597"/>
<polygon fill="midnightblue" stroke="midnightblue" points="379.172,-141.233 374.781,-131.591 372.201,-141.867 379.172,-141.233"/>
</g>
<!-- Node17 -->
<g id="node17" class="node"><title>Node17</title>
<g id="a_node17"><a xlink:href="sr__signal__inout_8h.html" target="_top" xlink:title="sr_signal_inout.h">
<polygon fill="white" stroke="black" points="412,-168.5 412,-187.5 502,-187.5 502,-168.5 412,-168.5"/>
<text text-anchor="middle" x="457" y="-175.5" font-family="Helvetica,sans-Serif" font-size="10.00">sr_signal_inout.h</text>
</a>
</g>
</g>
<!-- Node10&#45;&gt;Node17 -->
<g id="edge21" class="edge"><title>Node10&#45;&gt;Node17</title>
<path fill="none" stroke="midnightblue" d="M395.729,-224.324C406.837,-216.107 423.742,-203.602 436.983,-193.807"/>
<polygon fill="midnightblue" stroke="midnightblue" points="439.1,-196.595 445.058,-187.834 434.937,-190.967 439.1,-196.595"/>
</g>
<!-- Node18 -->
<g id="node18" class="node"><title>Node18</title>
<g id="a_node18"><a xlink:href="sr__signal__selector_8h.html" target="_top" xlink:title="sr_signal_selector.h">
<polygon fill="white" stroke="black" points="252,-168.5 252,-187.5 356,-187.5 356,-168.5 252,-168.5"/>
<text text-anchor="middle" x="304" y="-175.5" font-family="Helvetica,sans-Serif" font-size="10.00">sr_signal_selector.h</text>
</a>
</g>
</g>
<!-- Node10&#45;&gt;Node18 -->
<g id="edge25" class="edge"><title>Node10&#45;&gt;Node18</title>
<path fill="none" stroke="midnightblue" d="M371.147,-224.324C358.784,-215.979 339.87,-203.212 325.263,-193.352"/>
<polygon fill="midnightblue" stroke="midnightblue" points="327.068,-190.348 316.821,-187.655 323.152,-196.15 327.068,-190.348"/>
</g>
<!-- Node20 -->
<g id="node20" class="node"><title>Node20</title>
<g id="a_node20"><a xlink:href="sr__signal__infield_8h.html" target="_top" xlink:title="sr_signal_infield.h">
<polygon fill="white" stroke="black" points="180.5,-112.5 180.5,-131.5 275.5,-131.5 275.5,-112.5 180.5,-112.5"/>
<text text-anchor="middle" x="228" y="-119.5" font-family="Helvetica,sans-Serif" font-size="10.00">sr_signal_infield.h</text>
</a>
</g>
</g>
<!-- Node10&#45;&gt;Node20 -->
<g id="edge31" class="edge"><title>Node10&#45;&gt;Node20</title>
<path fill="none" stroke="midnightblue" d="M333.321,-229.171C303.027,-224.217 266.066,-213.043 243,-188 231.608,-175.632 228.313,-156.386 227.595,-142.041"/>
<polygon fill="midnightblue" stroke="midnightblue" points="231.092,-141.768 227.466,-131.813 224.093,-141.856 231.092,-141.768"/>
</g>
<!-- Node12 -->
<g id="node12" class="node"><title>Node12</title>
<polygon fill="white" stroke="#bfbfbf" points="453.5,-0.5 453.5,-19.5 502.5,-19.5 502.5,-0.5 453.5,-0.5"/>
<text text-anchor="middle" x="478" y="-7.5" font-family="Helvetica,sans-Serif" font-size="10.00">stdint.h</text>
</g>
<!-- Node11&#45;&gt;Node12 -->
<g id="edge12" class="edge"><title>Node11&#45;&gt;Node12</title>
<path fill="none" stroke="midnightblue" d="M508.698,-112.127C505.407,-99.5738 499.079,-75.9366 493,-56 490.295,-47.1272 487.066,-37.3504 484.298,-29.183"/>
<polygon fill="midnightblue" stroke="midnightblue" points="487.562,-27.9093 481.008,-19.5845 480.94,-30.1791 487.562,-27.9093"/>
</g>
<!-- Node13 -->
<g id="node13" class="node"><title>Node13</title>
<g id="a_node13"><a xlink:href="sr__signal__base_8h.html" target="_top" xlink:title="sr_signal_base.h">
<polygon fill="white" stroke="black" points="258,-56.5 258,-75.5 348,-75.5 348,-56.5 258,-56.5"/>
<text text-anchor="middle" x="303" y="-63.5" font-family="Helvetica,sans-Serif" font-size="10.00">sr_signal_base.h</text>
</a>
</g>
</g>
<!-- Node11&#45;&gt;Node13 -->
<g id="edge13" class="edge"><title>Node11&#45;&gt;Node13</title>
<path fill="none" stroke="midnightblue" d="M478.042,-112.444C442.213,-103.142 384.837,-88.246 345.609,-78.062"/>
<polygon fill="midnightblue" stroke="midnightblue" points="346.363,-74.6417 335.804,-75.5164 344.604,-81.4171 346.363,-74.6417"/>
</g>
<!-- Node15 -->
<g id="node15" class="node"><title>Node15</title>
<g id="a_node15"><a xlink:href="sr__signal__ifs_8h.html" target="_top" xlink:title="sr_signal_ifs.h">
<polygon fill="white" stroke="black" points="404,-56.5 404,-75.5 484,-75.5 484,-56.5 404,-56.5"/>
<text text-anchor="middle" x="444" y="-63.5" font-family="Helvetica,sans-Serif" font-size="10.00">sr_signal_ifs.h</text>
</a>
</g>
</g>
<!-- Node11&#45;&gt;Node15 -->
<g id="edge15" class="edge"><title>Node11&#45;&gt;Node15</title>
<path fill="none" stroke="midnightblue" d="M500.235,-112.324C490.234,-104.263 475.113,-92.0765 463.07,-82.3695"/>
<polygon fill="midnightblue" stroke="midnightblue" points="464.943,-79.3841 454.961,-75.8339 460.55,-84.8343 464.943,-79.3841"/>
</g>
<!-- Node14 -->
<g id="node14" class="node"><title>Node14</title>
<polygon fill="white" stroke="#bfbfbf" points="30,-0.5 30,-19.5 84,-19.5 84,-0.5 30,-0.5"/>
<text text-anchor="middle" x="57" y="-7.5" font-family="Helvetica,sans-Serif" font-size="10.00">systemc</text>
</g>
<!-- Node13&#45;&gt;Node14 -->
<g id="edge14" class="edge"><title>Node13&#45;&gt;Node14</title>
<path fill="none" stroke="midnightblue" d="M264.021,-56.4435C217.292,-46.186 139.572,-29.1256 93.8224,-19.083"/>
<polygon fill="midnightblue" stroke="midnightblue" points="94.5359,-15.6563 84.018,-16.9308 93.035,-22.4935 94.5359,-15.6563"/>
</g>
<!-- Node15&#45;&gt;Node12 -->
<g id="edge16" class="edge"><title>Node15&#45;&gt;Node12</title>
<path fill="none" stroke="midnightblue" d="M449.614,-56.083C454.367,-48.5341 461.318,-37.4948 467.152,-28.2298"/>
<polygon fill="midnightblue" stroke="midnightblue" points="470.124,-30.0783 472.49,-19.7511 464.2,-26.3486 470.124,-30.0783"/>
</g>
<!-- Node16&#45;&gt;Node12 -->
<g id="edge20" class="edge"><title>Node16&#45;&gt;Node12</title>
<path fill="none" stroke="midnightblue" d="M374.74,-112.45C376.308,-99.0201 381.056,-72.784 395,-56 407.696,-40.7179 426.977,-29.8191 443.761,-22.5787"/>
<polygon fill="midnightblue" stroke="midnightblue" points="445.323,-25.7225 453.285,-18.733 442.702,-19.2316 445.323,-25.7225"/>
</g>
<!-- Node16&#45;&gt;Node13 -->
<g id="edge18" class="edge"><title>Node16&#45;&gt;Node13</title>
<path fill="none" stroke="midnightblue" d="M362.593,-112.324C351.891,-104.185 335.659,-91.8395 322.837,-82.0874"/>
<polygon fill="midnightblue" stroke="midnightblue" points="324.693,-79.1018 314.615,-75.8339 320.456,-84.6734 324.693,-79.1018"/>
</g>
<!-- Node16&#45;&gt;Node15 -->
<g id="edge19" class="edge"><title>Node16&#45;&gt;Node15</title>
<path fill="none" stroke="midnightblue" d="M385.247,-112.324C395.797,-104.185 411.801,-91.8395 424.442,-82.0874"/>
<polygon fill="midnightblue" stroke="midnightblue" points="426.769,-84.7132 432.549,-75.8339 422.493,-79.1707 426.769,-84.7132"/>
</g>
<!-- Node17&#45;&gt;Node11 -->
<g id="edge24" class="edge"><title>Node17&#45;&gt;Node11</title>
<path fill="none" stroke="midnightblue" d="M465.917,-168.083C473.78,-160.22 485.431,-148.569 494.919,-139.081"/>
<polygon fill="midnightblue" stroke="midnightblue" points="497.653,-141.297 502.249,-131.751 492.703,-136.347 497.653,-141.297"/>
</g>
<!-- Node17&#45;&gt;Node12 -->
<g id="edge22" class="edge"><title>Node17&#45;&gt;Node12</title>
<path fill="none" stroke="midnightblue" d="M502.13,-168.593C522.862,-162.231 545.561,-151.16 558,-132 583.069,-93.386 531.537,-48.2168 500.024,-25.5461"/>
<polygon fill="midnightblue" stroke="midnightblue" points="501.951,-22.6229 491.747,-19.7726 497.946,-28.3642 501.951,-22.6229"/>
</g>
<!-- Node17&#45;&gt;Node16 -->
<g id="edge23" class="edge"><title>Node17&#45;&gt;Node16</title>
<path fill="none" stroke="midnightblue" d="M443.665,-168.324C430.838,-159.979 411.215,-147.212 396.06,-137.352"/>
<polygon fill="midnightblue" stroke="midnightblue" points="397.593,-134.174 387.302,-131.655 393.776,-140.042 397.593,-134.174"/>
</g>
<!-- Node18&#45;&gt;Node12 -->
<g id="edge26" class="edge"><title>Node18&#45;&gt;Node12</title>
<path fill="none" stroke="midnightblue" d="M251.679,-172.703C221.393,-167.552 184.695,-156.334 161,-132 136.918,-107.27 122.285,-81.9911 145,-56 183.453,-12.0015 365.638,-9.30739 443.059,-10.2165"/>
<polygon fill="midnightblue" stroke="midnightblue" points="443.213,-13.719 453.263,-10.3647 443.315,-6.71969 443.213,-13.719"/>
</g>
<!-- Node18&#45;&gt;Node13 -->
<g id="edge27" class="edge"><title>Node18&#45;&gt;Node13</title>
<path fill="none" stroke="midnightblue" d="M303.922,-168.368C303.76,-150.617 303.388,-109.666 303.169,-85.5974"/>
<polygon fill="midnightblue" stroke="midnightblue" points="306.669,-85.5592 303.078,-75.5914 299.669,-85.6229 306.669,-85.5592"/>
</g>
<!-- Node18&#45;&gt;Node15 -->
<g id="edge28" class="edge"><title>Node18&#45;&gt;Node15</title>
<path fill="none" stroke="midnightblue" d="M355.63,-168.452C379.329,-162.077 406.079,-151.035 424,-132 435.751,-119.519 440.606,-100.288 442.607,-85.9777"/>
<polygon fill="midnightblue" stroke="midnightblue" points="446.114,-86.0899 443.678,-75.7791 439.153,-85.359 446.114,-86.0899"/>
</g>
<!-- Node18&#45;&gt;Node16 -->
<g id="edge29" class="edge"><title>Node18&#45;&gt;Node16</title>
<path fill="none" stroke="midnightblue" d="M315.247,-168.324C325.797,-160.185 341.801,-147.839 354.442,-138.087"/>
<polygon fill="midnightblue" stroke="midnightblue" points="356.769,-140.713 362.549,-131.834 352.493,-135.171 356.769,-140.713"/>
</g>
<!-- Node19 -->
<g id="node19" class="node"><title>Node19</title>
<polygon fill="white" stroke="#bfbfbf" points="154.5,-56.5 154.5,-75.5 189.5,-75.5 189.5,-56.5 154.5,-56.5"/>
<text text-anchor="middle" x="172" y="-63.5" font-family="Helvetica,sans-Serif" font-size="10.00">map</text>
</g>
<!-- Node18&#45;&gt;Node19 -->
<g id="edge30" class="edge"><title>Node18&#45;&gt;Node19</title>
<path fill="none" stroke="midnightblue" d="M251.812,-173.629C222.957,-168.778 189.329,-157.551 171,-132 161.449,-118.685 163.053,-99.5663 166.231,-85.5091"/>
<polygon fill="midnightblue" stroke="midnightblue" points="169.699,-86.0957 168.935,-75.5284 162.942,-84.2655 169.699,-86.0957"/>
</g>
<!-- Node20&#45;&gt;Node12 -->
<g id="edge32" class="edge"><title>Node20&#45;&gt;Node12</title>
<path fill="none" stroke="midnightblue" d="M228.152,-112.363C228.895,-98.3229 232.507,-70.6466 249,-56 277.319,-30.8514 386.404,-18.435 443.188,-13.5666"/>
<polygon fill="midnightblue" stroke="midnightblue" points="443.802,-17.028 453.48,-12.7179 443.226,-10.0516 443.802,-17.028"/>
</g>
<!-- Node20&#45;&gt;Node13 -->
<g id="edge33" class="edge"><title>Node20&#45;&gt;Node13</title>
<path fill="none" stroke="midnightblue" d="M240.05,-112.324C251.463,-104.107 268.831,-91.6017 282.435,-81.8069"/>
<polygon fill="midnightblue" stroke="midnightblue" points="284.66,-84.5174 290.731,-75.8339 280.57,-78.8366 284.66,-84.5174"/>
</g>
<!-- Node20&#45;&gt;Node15 -->
<g id="edge34" class="edge"><title>Node20&#45;&gt;Node15</title>
<path fill="none" stroke="midnightblue" d="M262.226,-112.444C299.512,-103.122 359.269,-88.1828 400.011,-77.9972"/>
<polygon fill="midnightblue" stroke="midnightblue" points="401.082,-81.3374 409.934,-75.5164 399.384,-74.5464 401.082,-81.3374"/>
</g>
<!-- Node20&#45;&gt;Node19 -->
<g id="edge35" class="edge"><title>Node20&#45;&gt;Node19</title>
<path fill="none" stroke="midnightblue" d="M219.003,-112.324C210.806,-104.42 198.494,-92.5482 188.528,-82.9377"/>
<polygon fill="midnightblue" stroke="midnightblue" points="190.789,-80.2558 181.161,-75.8339 185.93,-85.2947 190.789,-80.2558"/>
</g>
<!-- Node22 -->
<g id="node22" class="node"><title>Node22</title>
<g id="a_node22"><a xlink:href="tlmin__scout__adapter_8h.html" target="_top" xlink:title="tlmin_scout_adapter.h">
<polygon fill="white" stroke="black" points="330.5,-280.5 330.5,-299.5 443.5,-299.5 443.5,-280.5 330.5,-280.5"/>
<text text-anchor="middle" x="387" y="-287.5" font-family="Helvetica,sans-Serif" font-size="10.00">tlmin_scout_adapter.h</text>
</a>
</g>
</g>
<!-- Node21&#45;&gt;Node22 -->
<g id="edge37" class="edge"><title>Node21&#45;&gt;Node22</title>
<path fill="none" stroke="midnightblue" d="M387,-336.083C387,-329.006 387,-318.861 387,-309.986"/>
<polygon fill="midnightblue" stroke="midnightblue" points="390.5,-309.751 387,-299.751 383.5,-309.751 390.5,-309.751"/>
</g>
<!-- Node23 -->
<g id="node23" class="node"><title>Node23</title>
<g id="a_node23"><a xlink:href="scin__tlmout__adapter_8h.html" target="_top" xlink:title="scin_tlmout_adapter.h">
<polygon fill="white" stroke="black" points="199.5,-280.5 199.5,-299.5 312.5,-299.5 312.5,-280.5 199.5,-280.5"/>
<text text-anchor="middle" x="256" y="-287.5" font-family="Helvetica,sans-Serif" font-size="10.00">scin_tlmout_adapter.h</text>
</a>
</g>
</g>
<!-- Node21&#45;&gt;Node23 -->
<g id="edge40" class="edge"><title>Node21&#45;&gt;Node23</title>
<path fill="none" stroke="midnightblue" d="M366.243,-336.444C344.684,-327.557 310.737,-313.563 286.206,-303.451"/>
<polygon fill="midnightblue" stroke="midnightblue" points="287.239,-300.092 276.66,-299.516 284.572,-306.563 287.239,-300.092"/>
</g>
<!-- Node24 -->
<g id="node24" class="node"><title>Node24</title>
<g id="a_node24"><a xlink:href="tlmsc__inout__adapter_8h.html" target="_top" xlink:title="tlmsc_inout_adapter.h">
<polygon fill="white" stroke="black" points="68.5,-280.5 68.5,-299.5 181.5,-299.5 181.5,-280.5 68.5,-280.5"/>
<text text-anchor="middle" x="125" y="-287.5" font-family="Helvetica,sans-Serif" font-size="10.00">tlmsc_inout_adapter.h</text>
</a>
</g>
</g>
<!-- Node21&#45;&gt;Node24 -->
<g id="edge43" class="edge"><title>Node21&#45;&gt;Node24</title>
<path fill="none" stroke="midnightblue" d="M345.485,-336.444C299.588,-326.984 225.62,-311.738 176.174,-301.547"/>
<polygon fill="midnightblue" stroke="midnightblue" points="176.821,-298.107 166.32,-299.516 175.408,-304.963 176.821,-298.107"/>
</g>
<!-- Node22&#45;&gt;Node10 -->
<g id="edge39" class="edge"><title>Node22&#45;&gt;Node10</title>
<path fill="none" stroke="midnightblue" d="M386.505,-280.083C386.111,-273.006 385.548,-262.861 385.055,-253.986"/>
<polygon fill="midnightblue" stroke="midnightblue" points="388.536,-253.542 384.486,-243.751 381.546,-253.93 388.536,-253.542"/>
</g>
<!-- Node22&#45;&gt;Node14 -->
<g id="edge38" class="edge"><title>Node22&#45;&gt;Node14</title>
<path fill="none" stroke="midnightblue" d="M330.319,-280.83C240.616,-266.287 76,-232.334 76,-179 76,-179 76,-179 76,-121 76,-88.4885 67.841,-51.3503 62.2162,-29.6103"/>
<polygon fill="midnightblue" stroke="midnightblue" points="65.5414,-28.498 59.5624,-19.7514 58.782,-30.3175 65.5414,-28.498"/>
</g>
<!-- Node23&#45;&gt;Node10 -->
<g id="edge42" class="edge"><title>Node23&#45;&gt;Node10</title>
<path fill="none" stroke="midnightblue" d="M276.282,-280.444C297.347,-271.557 330.517,-257.563 354.486,-247.451"/>
<polygon fill="midnightblue" stroke="midnightblue" points="355.96,-250.628 363.813,-243.516 353.239,-244.179 355.96,-250.628"/>
</g>
<!-- Node23&#45;&gt;Node14 -->
<g id="edge41" class="edge"><title>Node23&#45;&gt;Node14</title>
<path fill="none" stroke="midnightblue" d="M208.761,-280.467C154.956,-270.373 73.0229,-253.717 62,-244 38.899,-223.636 38,-209.795 38,-179 38,-179 38,-179 38,-121 38,-88.4885 46.159,-51.3503 51.7838,-29.6103"/>
<polygon fill="midnightblue" stroke="midnightblue" points="55.218,-30.3175 54.4376,-19.7514 48.4586,-28.498 55.218,-30.3175"/>
</g>
<!-- Node24&#45;&gt;Node10 -->
<g id="edge45" class="edge"><title>Node24&#45;&gt;Node10</title>
<path fill="none" stroke="midnightblue" d="M166.039,-280.444C211.316,-271.004 284.227,-255.802 333.106,-245.611"/>
<polygon fill="midnightblue" stroke="midnightblue" points="334.078,-248.984 343.153,-243.516 332.649,-242.131 334.078,-248.984"/>
</g>
<!-- Node24&#45;&gt;Node14 -->
<g id="edge44" class="edge"><title>Node24&#45;&gt;Node14</title>
<path fill="none" stroke="midnightblue" d="M88.5707,-280.419C67.2351,-273.707 41.1906,-262.354 24,-244 2.94851,-221.524 0,-209.795 0,-179 0,-179 0,-179 0,-121 0,-84.3005 25.321,-47.6567 42.2099,-27.2973"/>
<polygon fill="midnightblue" stroke="midnightblue" points="44.9535,-29.475 48.8333,-19.6161 39.6522,-24.9037 44.9535,-29.475"/>
</g>
<!-- Node25&#45;&gt;Node12 -->
<g id="edge47" class="edge"><title>Node25&#45;&gt;Node12</title>
<path fill="none" stroke="midnightblue" d="M587.175,-397.989C608.743,-380.5 654,-338.183 654,-291 654,-291 654,-291 654,-121 654,-55.0966 564.163,-27.2143 512.857,-16.6644"/>
<polygon fill="midnightblue" stroke="midnightblue" points="513.326,-13.1904 502.843,-14.724 511.995,-20.0626 513.326,-13.1904"/>
</g>
<!-- Node25&#45;&gt;Node15 -->
<g id="edge48" class="edge"><title>Node25&#45;&gt;Node15</title>
<path fill="none" stroke="midnightblue" d="M576.253,-397.808C576.791,-378.565 578,-330.91 578,-291 578,-291 578,-291 578,-177 578,-146.775 578.529,-134.184 558,-112 541.194,-93.8388 516.132,-82.8916 493.783,-76.3519"/>
<polygon fill="midnightblue" stroke="midnightblue" points="494.642,-72.9585 484.075,-73.7291 492.816,-79.7162 494.642,-72.9585"/>
</g>
<!-- Node25&#45;&gt;Node21 -->
<g id="edge49" class="edge"><title>Node25&#45;&gt;Node21</title>
<path fill="none" stroke="midnightblue" d="M548.921,-397.975C516.08,-387.636 460.57,-370.161 423.852,-358.602"/>
<polygon fill="midnightblue" stroke="midnightblue" points="424.618,-355.174 414.029,-355.509 422.516,-361.85 424.618,-355.174"/>
</g>
<!-- Node26&#45;&gt;Node3 -->
<g id="edge61" class="edge"><title>Node26&#45;&gt;Node3</title>
<path fill="none" stroke="midnightblue" d="M898.016,-589.187C964.388,-584.95 1056.59,-571.065 1021,-526 1003.7,-504.092 935.902,-490.662 881.573,-483.214"/>
<polygon fill="midnightblue" stroke="midnightblue" points="881.973,-479.737 871.6,-481.892 881.054,-486.676 881.973,-479.737"/>
</g>
<!-- Node27 -->
<g id="node27" class="node"><title>Node27</title>
<polygon fill="white" stroke="#bfbfbf" points="1068.5,-526.5 1068.5,-545.5 1111.5,-545.5 1111.5,-526.5 1068.5,-526.5"/>
<text text-anchor="middle" x="1090" y="-533.5" font-family="Helvetica,sans-Serif" font-size="10.00">cstdio</text>
</g>
<!-- Node26&#45;&gt;Node27 -->
<g id="edge51" class="edge"><title>Node26&#45;&gt;Node27</title>
<path fill="none" stroke="midnightblue" d="M880.755,-582.467C924.661,-573.778 994.175,-559.675 1054,-546 1055.45,-545.668 1056.94,-545.323 1058.43,-544.969"/>
<polygon fill="midnightblue" stroke="midnightblue" points="1059.44,-548.327 1068.33,-542.568 1057.79,-541.524 1059.44,-548.327"/>
</g>
<!-- Node28 -->
<g id="node28" class="node"><title>Node28</title>
<polygon fill="white" stroke="#bfbfbf" points="748,-526.5 748,-545.5 794,-545.5 794,-526.5 748,-526.5"/>
<text text-anchor="middle" x="771" y="-533.5" font-family="Helvetica,sans-Serif" font-size="10.00">cstring</text>
</g>
<!-- Node26&#45;&gt;Node28 -->
<g id="edge52" class="edge"><title>Node26&#45;&gt;Node28</title>
<path fill="none" stroke="midnightblue" d="M826.396,-582.324C816.544,-574.263 801.649,-562.077 789.785,-552.369"/>
<polygon fill="midnightblue" stroke="midnightblue" points="791.753,-549.457 781.797,-545.834 787.32,-554.875 791.753,-549.457"/>
</g>
<!-- Node29 -->
<g id="node29" class="node"><title>Node29</title>
<polygon fill="white" stroke="#bfbfbf" points="812,-526.5 812,-545.5 862,-545.5 862,-526.5 812,-526.5"/>
<text text-anchor="middle" x="837" y="-533.5" font-family="Helvetica,sans-Serif" font-size="10.00">iomanip</text>
</g>
<!-- Node26&#45;&gt;Node29 -->
<g id="edge53" class="edge"><title>Node26&#45;&gt;Node29</title>
<path fill="none" stroke="midnightblue" d="M837,-582.083C837,-575.006 837,-564.861 837,-555.986"/>
<polygon fill="midnightblue" stroke="midnightblue" points="840.5,-555.751 837,-545.751 833.5,-555.751 840.5,-555.751"/>
</g>
<!-- Node30 -->
<g id="node30" class="node"><title>Node30</title>
<polygon fill="white" stroke="#bfbfbf" points="880,-526.5 880,-545.5 934,-545.5 934,-526.5 880,-526.5"/>
<text text-anchor="middle" x="907" y="-533.5" font-family="Helvetica,sans-Serif" font-size="10.00">iostream</text>
</g>
<!-- Node26&#45;&gt;Node30 -->
<g id="edge54" class="edge"><title>Node26&#45;&gt;Node30</title>
<path fill="none" stroke="midnightblue" d="M848.247,-582.324C858.797,-574.185 874.801,-561.839 887.442,-552.087"/>
<polygon fill="midnightblue" stroke="midnightblue" points="889.769,-554.713 895.549,-545.834 885.493,-549.171 889.769,-554.713"/>
</g>
<!-- Node31 -->
<g id="node31" class="node"><title>Node31</title>
<polygon fill="white" stroke="#bfbfbf" points="952,-526.5 952,-545.5 1012,-545.5 1012,-526.5 952,-526.5"/>
<text text-anchor="middle" x="982" y="-533.5" font-family="Helvetica,sans-Serif" font-size="10.00">streambuf</text>
</g>
<!-- Node26&#45;&gt;Node31 -->
<g id="edge55" class="edge"><title>Node26&#45;&gt;Node31</title>
<path fill="none" stroke="midnightblue" d="M859.976,-582.444C884.157,-573.438 922.418,-559.189 949.646,-549.049"/>
<polygon fill="midnightblue" stroke="midnightblue" points="950.982,-552.286 959.132,-545.516 948.539,-545.727 950.982,-552.286"/>
</g>
<!-- Node32 -->
<g id="node32" class="node"><title>Node32</title>
<g id="a_node32"><a xlink:href="common_8h.html" target="_top" xlink:title="core/common/common.h">
<polygon fill="white" stroke="black" points="604.5,-526.5 604.5,-545.5 729.5,-545.5 729.5,-526.5 604.5,-526.5"/>
<text text-anchor="middle" x="667" y="-533.5" font-family="Helvetica,sans-Serif" font-size="10.00">core/common/common.h</text>
</a>
</g>
</g>
<!-- Node26&#45;&gt;Node32 -->
<g id="edge56" class="edge"><title>Node26&#45;&gt;Node32</title>
<path fill="none" stroke="midnightblue" d="M804.974,-582.444C774.382,-573.359 728.785,-558.939 698.406,-548.783"/>
<polygon fill="midnightblue" stroke="midnightblue" points="699.325,-545.399 688.731,-545.516 697.086,-552.032 699.325,-545.399"/>
</g>
<!-- Node32&#45;&gt;Node3 -->
<g id="edge57" class="edge"><title>Node32&#45;&gt;Node3</title>
<path fill="none" stroke="midnightblue" d="M687.345,-526.475C711.387,-516.401 751.597,-499.553 779.163,-488.002"/>
<polygon fill="midnightblue" stroke="midnightblue" points="780.822,-491.102 788.693,-484.009 778.117,-484.646 780.822,-491.102"/>
</g>
<!-- Node32&#45;&gt;Node26 -->
<g id="edge60" class="edge"><title>Node32&#45;&gt;Node26</title>
<path fill="none" stroke="midnightblue" d="M698.891,-545.516C729.439,-554.585 775.036,-569.004 805.46,-579.172"/>
<polygon fill="midnightblue" stroke="midnightblue" points="804.558,-582.562 815.152,-582.444 806.796,-575.929 804.558,-582.562"/>
</g>
<!-- Node33 -->
<g id="node33" class="node"><title>Node33</title>
<g id="a_node33"><a xlink:href="vendian_8h.html" target="_top" xlink:title="core/common/vendian.h">
<polygon fill="white" stroke="black" points="682.5,-336.5 682.5,-355.5 803.5,-355.5 803.5,-336.5 682.5,-336.5"/>
<text text-anchor="middle" x="743" y="-343.5" font-family="Helvetica,sans-Serif" font-size="10.00">core/common/vendian.h</text>
</a>
</g>
</g>
<!-- Node32&#45;&gt;Node33 -->
<g id="edge58" class="edge"><title>Node32&#45;&gt;Node33</title>
<path fill="none" stroke="midnightblue" d="M666.004,-526.241C663.763,-502.746 660.362,-437.059 686,-392 693.281,-379.203 705.781,-368.717 717.223,-361.096"/>
<polygon fill="midnightblue" stroke="midnightblue" points="719.406,-363.861 726.052,-355.61 715.711,-357.915 719.406,-363.861"/>
</g>
<!-- Node33&#45;&gt;Node12 -->
<g id="edge59" class="edge"><title>Node33&#45;&gt;Node12</title>
<path fill="none" stroke="midnightblue" d="M739.494,-336.325C732.397,-317.959 717,-273.658 717,-235 717,-235 717,-235 717,-121 717,-32.3003 579.479,-14.8732 513.071,-11.6286"/>
<polygon fill="midnightblue" stroke="midnightblue" points="512.81,-8.1153 502.677,-11.2087 512.528,-15.1096 512.81,-8.1153"/>
</g>
</g>
</svg>
