<?xml version="1.0" encoding="UTF-8" standalone="no"?>
<!DOCTYPE svg PUBLIC "-//W3C//DTD SVG 1.1//EN"
 "http://www.w3.org/Graphics/SVG/1.1/DTD/svg11.dtd">
<!-- Generated by graphviz version 2.38.0 (20140413.2041)
 -->
<!-- Title: core/common/trapgen/utils/customExceptions.hpp Pages: 1 -->
<svg width="339pt" height="95pt"
 viewBox="0.00 0.00 339.00 95.00" xmlns="http://www.w3.org/2000/svg" xmlns:xlink="http://www.w3.org/1999/xlink">
<g id="graph0" class="graph" transform="scale(1 1) rotate(0) translate(4 91)">
<title>core/common/trapgen/utils/customExceptions.hpp</title>
<polygon fill="white" stroke="none" points="-4,4 -4,-91 335,-91 335,4 -4,4"/>
<!-- Node1 -->
<g id="node1" class="node"><title>Node1</title>
<polygon fill="#bfbfbf" stroke="black" points="97.5,-56.5 97.5,-86.5 237.5,-86.5 237.5,-56.5 97.5,-56.5"/>
<text text-anchor="start" x="105.5" y="-74.5" font-family="Helvetica,sans-Serif" font-size="10.00">core/common/trapgen</text>
<text text-anchor="middle" x="167.5" y="-63.5" font-family="Helvetica,sans-Serif" font-size="10.00">/utils/customExceptions.hpp</text>
</g>
<!-- Node2 -->
<g id="node2" class="node"><title>Node2</title>
<polygon fill="white" stroke="#bfbfbf" points="0,-0.5 0,-19.5 45,-19.5 45,-0.5 0,-0.5"/>
<text text-anchor="middle" x="22.5" y="-7.5" font-family="Helvetica,sans-Serif" font-size="10.00">cstdlib</text>
</g>
<!-- Node1&#45;&gt;Node2 -->
<g id="edge1" class="edge"><title>Node1&#45;&gt;Node2</title>
<path fill="none" stroke="midnightblue" d="M133.137,-56.3993C108.809,-46.4163 76.4705,-33.1465 53.0439,-23.5335"/>
<polygon fill="midnightblue" stroke="midnightblue" points="54.1789,-20.2161 43.5988,-19.6578 51.5215,-26.6921 54.1789,-20.2161"/>
</g>
<!-- Node3 -->
<g id="node3" class="node"><title>Node3</title>
<polygon fill="white" stroke="#bfbfbf" points="63,-0.5 63,-19.5 122,-19.5 122,-0.5 63,-0.5"/>
<text text-anchor="middle" x="92.5" y="-7.5" font-family="Helvetica,sans-Serif" font-size="10.00">exception</text>
</g>
<!-- Node1&#45;&gt;Node3 -->
<g id="edge2" class="edge"><title>Node1&#45;&gt;Node3</title>
<path fill="none" stroke="midnightblue" d="M149.726,-56.3993C138.154,-47.2185 123.077,-35.2579 111.304,-25.9182"/>
<polygon fill="midnightblue" stroke="midnightblue" points="113.423,-23.1309 103.413,-19.6578 109.072,-28.6148 113.423,-23.1309"/>
</g>
<!-- Node4 -->
<g id="node4" class="node"><title>Node4</title>
<polygon fill="white" stroke="#bfbfbf" points="140.5,-0.5 140.5,-19.5 194.5,-19.5 194.5,-0.5 140.5,-0.5"/>
<text text-anchor="middle" x="167.5" y="-7.5" font-family="Helvetica,sans-Serif" font-size="10.00">iostream</text>
</g>
<!-- Node1&#45;&gt;Node4 -->
<g id="edge3" class="edge"><title>Node1&#45;&gt;Node4</title>
<path fill="none" stroke="midnightblue" d="M167.5,-56.3993C167.5,-48.4664 167.5,-38.458 167.5,-29.8583"/>
<polygon fill="midnightblue" stroke="midnightblue" points="171,-29.6577 167.5,-19.6578 164,-29.6578 171,-29.6577"/>
</g>
<!-- Node5 -->
<g id="node5" class="node"><title>Node5</title>
<polygon fill="white" stroke="#bfbfbf" points="213,-0.5 213,-19.5 272,-19.5 272,-0.5 213,-0.5"/>
<text text-anchor="middle" x="242.5" y="-7.5" font-family="Helvetica,sans-Serif" font-size="10.00">stdexcept</text>
</g>
<!-- Node1&#45;&gt;Node5 -->
<g id="edge4" class="edge"><title>Node1&#45;&gt;Node5</title>
<path fill="none" stroke="midnightblue" d="M185.274,-56.3993C196.846,-47.2185 211.923,-35.2579 223.696,-25.9182"/>
<polygon fill="midnightblue" stroke="midnightblue" points="225.928,-28.6148 231.587,-19.6578 221.577,-23.1309 225.928,-28.6148"/>
</g>
<!-- Node6 -->
<g id="node6" class="node"><title>Node6</title>
<polygon fill="white" stroke="#bfbfbf" points="290,-0.5 290,-19.5 331,-19.5 331,-0.5 290,-0.5"/>
<text text-anchor="middle" x="310.5" y="-7.5" font-family="Helvetica,sans-Serif" font-size="10.00">string</text>
</g>
<!-- Node1&#45;&gt;Node6 -->
<g id="edge5" class="edge"><title>Node1&#45;&gt;Node6</title>
<path fill="none" stroke="midnightblue" d="M201.389,-56.3993C225.382,-46.4163 257.274,-33.1465 280.377,-23.5335"/>
<polygon fill="midnightblue" stroke="midnightblue" points="281.804,-26.7308 289.692,-19.6578 279.115,-20.268 281.804,-26.7308"/>
</g>
</g>
</svg>
