<?xml version="1.0" encoding="UTF-8" standalone="no"?>
<!DOCTYPE svg PUBLIC "-//W3C//DTD SVG 1.1//EN"
 "http://www.w3.org/Graphics/SVG/1.1/DTD/svg11.dtd">
<!-- Generated by graphviz version 2.38.0 (20140413.2041)
 -->
<!-- Title: gaisler Pages: 1 -->
<svg width="940pt" height="148pt"
 viewBox="0.00 0.00 940.00 148.00" xmlns="http://www.w3.org/2000/svg" xmlns:xlink="http://www.w3.org/1999/xlink">
<g id="graph0" class="graph" transform="scale(1 1) rotate(0) translate(4 144)">
<title>gaisler</title>
<polygon fill="white" stroke="none" points="-4,4 -4,-144 936,-144 936,4 -4,4"/>
<g id="clust1" class="cluster"><title>clusterdir_437d82a0f19c2d6e07777f8e55be3913</title>
<g id="a_clust1"><a xlink:href="dir_437d82a0f19c2d6e07777f8e55be3913.html" target="_top">
<polygon fill="#eeeeff" stroke="black" points="8,-8 8,-132 870,-132 870,-8 8,-8"/>
</a>
</g>
</g>
<!-- dir_437d82a0f19c2d6e07777f8e55be3913 -->
<g id="node1" class="node"><title>dir_437d82a0f19c2d6e07777f8e55be3913</title>
<text text-anchor="middle" x="835" y="-103.5" font-family="Helvetica,sans-Serif" font-size="10.00">gaisler</text>
</g>
<!-- dir_d8b5ecae6fcc6eb70ddc86d25fc62628 -->
<g id="node2" class="node"><title>dir_d8b5ecae6fcc6eb70ddc86d25fc62628</title>
<g id="a_node2"><a xlink:href="dir_d8b5ecae6fcc6eb70ddc86d25fc62628.html" target="_top" xlink:title="ahbctrl">
<polygon fill="white" stroke="black" points="574,-124 520,-124 520,-88 574,-88 574,-124"/>
<text text-anchor="middle" x="547" y="-103.5" font-family="Helvetica,sans-Serif" font-size="10.00">ahbctrl</text>
</a>
</g>
</g>
<!-- dir_4270bfced15e0e73154b13468c7c9ad9 -->
<g id="node14" class="node"><title>dir_4270bfced15e0e73154b13468c7c9ad9</title>
<g id="a_node14"><a xlink:href="dir_4270bfced15e0e73154b13468c7c9ad9.html" target="_top" xlink:title="core">
<polygon fill="white" stroke="red" points="932,-52 878,-52 878,-16 932,-16 932,-52"/>
<text text-anchor="middle" x="905" y="-31.5" font-family="Helvetica,sans-Serif" font-size="10.00">core</text>
</a>
</g>
</g>
<!-- dir_d8b5ecae6fcc6eb70ddc86d25fc62628&#45;&gt;dir_4270bfced15e0e73154b13468c7c9ad9 -->
<g id="edge4" class="edge"><title>dir_d8b5ecae6fcc6eb70ddc86d25fc62628&#45;&gt;dir_4270bfced15e0e73154b13468c7c9ad9</title>
<path fill="none" stroke="black" d="M574.366,-87.8939C699.249,-51.7972 741.107,-92.0068 865,-52 866.183,-51.618 867.372,-51.1902 868.565,-50.726"/>
<polygon fill="black" stroke="black" points="870.012,-53.9129 877.695,-46.6175 867.14,-47.5294 870.012,-53.9129"/>
<g id="a_edge4&#45;headlabel"><a xlink:href="dir_000049_000000.html" target="_top" xlink:title="11">
<text text-anchor="middle" x="867.899" y="-55.4771" font-family="Helvetica,sans-Serif" font-size="10.00">11</text>
</a>
</g>
</g>
<!-- dir_9e03c52ea3f786626ee9d20d9fea7a89 -->
<g id="node3" class="node"><title>dir_9e03c52ea3f786626ee9d20d9fea7a89</title>
<g id="a_node3"><a xlink:href="dir_9e03c52ea3f786626ee9d20d9fea7a89.html" target="_top" xlink:title="ahbin">
<polygon fill="white" stroke="black" points="502,-124 448,-124 448,-88 502,-88 502,-124"/>
<text text-anchor="middle" x="475" y="-103.5" font-family="Helvetica,sans-Serif" font-size="10.00">ahbin</text>
</a>
</g>
</g>
<!-- dir_9e03c52ea3f786626ee9d20d9fea7a89&#45;&gt;dir_4270bfced15e0e73154b13468c7c9ad9 -->
<g id="edge8" class="edge"><title>dir_9e03c52ea3f786626ee9d20d9fea7a89&#45;&gt;dir_4270bfced15e0e73154b13468c7c9ad9</title>
<path fill="none" stroke="black" d="M502.457,-87.8736C658.352,-44.8616 710.278,-99.8995 865,-52 866.187,-51.6324 867.381,-51.2166 868.577,-50.7625"/>
<polygon fill="black" stroke="black" points="870.005,-53.9578 877.72,-46.6967 867.161,-47.5617 870.005,-53.9578"/>
<g id="a_edge8&#45;headlabel"><a xlink:href="dir_000050_000000.html" target="_top" xlink:title="4">
<text text-anchor="middle" x="867.874" y="-55.5126" font-family="Helvetica,sans-Serif" font-size="10.00">4</text>
</a>
</g>
</g>
<!-- dir_c3efcde354b1f97c055e13859b9a0f23 -->
<g id="node4" class="node"><title>dir_c3efcde354b1f97c055e13859b9a0f23</title>
<g id="a_node4"><a xlink:href="dir_c3efcde354b1f97c055e13859b9a0f23.html" target="_top" xlink:title="ahbmem">
<polygon fill="white" stroke="black" points="142,-124 88,-124 88,-88 142,-88 142,-124"/>
<text text-anchor="middle" x="115" y="-103.5" font-family="Helvetica,sans-Serif" font-size="10.00">ahbmem</text>
</a>
</g>
</g>
<!-- dir_e6fe11483b840dcc46c9501adc4e3eb6 -->
<g id="node13" class="node"><title>dir_e6fe11483b840dcc46c9501adc4e3eb6</title>
<g id="a_node13"><a xlink:href="dir_e6fe11483b840dcc46c9501adc4e3eb6.html" target="_top" xlink:title="memory">
<polygon fill="white" stroke="black" points="142,-52 88,-52 88,-16 142,-16 142,-52"/>
<text text-anchor="middle" x="115" y="-31.5" font-family="Helvetica,sans-Serif" font-size="10.00">memory</text>
</a>
</g>
</g>
<!-- dir_c3efcde354b1f97c055e13859b9a0f23&#45;&gt;dir_e6fe11483b840dcc46c9501adc4e3eb6 -->
<g id="edge20" class="edge"><title>dir_c3efcde354b1f97c055e13859b9a0f23&#45;&gt;dir_e6fe11483b840dcc46c9501adc4e3eb6</title>
<path fill="none" stroke="black" d="M115,-87.6966C115,-79.9827 115,-70.7125 115,-62.1124"/>
<polygon fill="black" stroke="black" points="118.5,-62.1043 115,-52.1043 111.5,-62.1044 118.5,-62.1043"/>
<g id="a_edge20&#45;headlabel"><a xlink:href="dir_000051_000057.html" target="_top" xlink:title="1">
<text text-anchor="middle" x="121.339" y="-63.199" font-family="Helvetica,sans-Serif" font-size="10.00">1</text>
</a>
</g>
</g>
<!-- dir_c3efcde354b1f97c055e13859b9a0f23&#45;&gt;dir_4270bfced15e0e73154b13468c7c9ad9 -->
<g id="edge21" class="edge"><title>dir_c3efcde354b1f97c055e13859b9a0f23&#45;&gt;dir_4270bfced15e0e73154b13468c7c9ad9</title>
<path fill="none" stroke="black" d="M142.457,-87.8856C454.186,-9.9434 555.568,-139.532 865,-52 866.063,-51.6993 867.13,-51.3568 868.198,-50.9799"/>
<polygon fill="black" stroke="black" points="869.968,-54.0283 877.768,-46.8579 867.199,-47.5993 869.968,-54.0283"/>
<g id="a_edge21&#45;headlabel"><a xlink:href="dir_000051_000000.html" target="_top" xlink:title="8">
<text text-anchor="middle" x="867.79" y="-55.5579" font-family="Helvetica,sans-Serif" font-size="10.00">8</text>
</a>
</g>
</g>
<!-- dir_9ebdc3a621f4f926c9dfdbd50c96a146 -->
<g id="node5" class="node"><title>dir_9ebdc3a621f4f926c9dfdbd50c96a146</title>
<g id="a_node5"><a xlink:href="dir_9ebdc3a621f4f926c9dfdbd50c96a146.html" target="_top" xlink:title="ahbout">
<polygon fill="white" stroke="black" points="430,-124 376,-124 376,-88 430,-88 430,-124"/>
<text text-anchor="middle" x="403" y="-103.5" font-family="Helvetica,sans-Serif" font-size="10.00">ahbout</text>
</a>
</g>
</g>
<!-- dir_9ebdc3a621f4f926c9dfdbd50c96a146&#45;&gt;dir_4270bfced15e0e73154b13468c7c9ad9 -->
<g id="edge23" class="edge"><title>dir_9ebdc3a621f4f926c9dfdbd50c96a146&#45;&gt;dir_4270bfced15e0e73154b13468c7c9ad9</title>
<path fill="none" stroke="black" d="M430.132,-90.9538C433.071,-89.8062 436.062,-88.7873 439,-88 623.178,-38.6347 686.072,-105.501 868.276,-53.4921"/>
<polygon fill="black" stroke="black" points="869.28,-56.8452 877.889,-50.6703 867.308,-50.1286 869.28,-56.8452"/>
<g id="a_edge23&#45;headlabel"><a xlink:href="dir_000052_000000.html" target="_top" xlink:title="5">
<text text-anchor="middle" x="866.63" y="-58.0819" font-family="Helvetica,sans-Serif" font-size="10.00">5</text>
</a>
</g>
</g>
<!-- dir_0e31803918f3e7d3f6834aa2cf69f880 -->
<g id="node6" class="node"><title>dir_0e31803918f3e7d3f6834aa2cf69f880</title>
<g id="a_node6"><a xlink:href="dir_0e31803918f3e7d3f6834aa2cf69f880.html" target="_top" xlink:title="ahbprof">
<polygon fill="white" stroke="black" points="358,-124 304,-124 304,-88 358,-88 358,-124"/>
<text text-anchor="middle" x="331" y="-103.5" font-family="Helvetica,sans-Serif" font-size="10.00">ahbprof</text>
</a>
</g>
</g>
<!-- dir_0e31803918f3e7d3f6834aa2cf69f880&#45;&gt;dir_4270bfced15e0e73154b13468c7c9ad9 -->
<g id="edge2" class="edge"><title>dir_0e31803918f3e7d3f6834aa2cf69f880&#45;&gt;dir_4270bfced15e0e73154b13468c7c9ad9</title>
<path fill="none" stroke="black" d="M358.32,-87.9163C576.607,-30.8747 648.397,-115.752 865,-52 866.192,-51.649 867.39,-51.2472 868.589,-50.8048"/>
<polygon fill="black" stroke="black" points="869.996,-54.01 877.748,-46.7883 867.184,-47.5993 869.996,-54.01"/>
<g id="a_edge2&#45;headlabel"><a xlink:href="dir_000053_000000.html" target="_top" xlink:title="6">
<text text-anchor="middle" x="867.844" y="-55.5538" font-family="Helvetica,sans-Serif" font-size="10.00">6</text>
</a>
</g>
</g>
<!-- dir_638d579de2502019b753f88658f71d54 -->
<g id="node7" class="node"><title>dir_638d579de2502019b753f88658f71d54</title>
<g id="a_node7"><a xlink:href="dir_638d579de2502019b753f88658f71d54.html" target="_top" xlink:title="apbctrl">
<polygon fill="white" stroke="black" points="286,-124 232,-124 232,-88 286,-88 286,-124"/>
<text text-anchor="middle" x="259" y="-103.5" font-family="Helvetica,sans-Serif" font-size="10.00">apbctrl</text>
</a>
</g>
</g>
<!-- dir_638d579de2502019b753f88658f71d54&#45;&gt;dir_4270bfced15e0e73154b13468c7c9ad9 -->
<g id="edge3" class="edge"><title>dir_638d579de2502019b753f88658f71d54&#45;&gt;dir_4270bfced15e0e73154b13468c7c9ad9</title>
<path fill="none" stroke="black" d="M286.366,-87.9061C535.79,-23.9002 617.464,-123.676 865,-52 866.061,-51.6927 867.127,-51.3446 868.193,-50.9629"/>
<polygon fill="black" stroke="black" points="869.973,-54.0059 877.756,-46.8172 867.189,-47.5834 869.973,-54.0059"/>
<g id="a_edge3&#45;headlabel"><a xlink:href="dir_000054_000000.html" target="_top" xlink:title="12">
<text text-anchor="middle" x="867.805" y="-55.5406" font-family="Helvetica,sans-Serif" font-size="10.00">12</text>
</a>
</g>
</g>
<!-- dir_cf2c2299aa9f58130398b1e46505215a -->
<g id="node8" class="node"><title>dir_cf2c2299aa9f58130398b1e46505215a</title>
<g id="a_node8"><a xlink:href="dir_cf2c2299aa9f58130398b1e46505215a.html" target="_top" xlink:title="apbuart">
<polygon fill="white" stroke="black" points="214,-124 160,-124 160,-88 214,-88 214,-124"/>
<text text-anchor="middle" x="187" y="-103.5" font-family="Helvetica,sans-Serif" font-size="10.00">apbuart</text>
</a>
</g>
</g>
<!-- dir_cf2c2299aa9f58130398b1e46505215a&#45;&gt;dir_4270bfced15e0e73154b13468c7c9ad9 -->
<g id="edge22" class="edge"><title>dir_cf2c2299aa9f58130398b1e46505215a&#45;&gt;dir_4270bfced15e0e73154b13468c7c9ad9</title>
<path fill="none" stroke="black" d="M214.411,-87.8959C494.984,-16.9228 586.52,-131.603 865,-52 866.062,-51.6963 867.128,-51.3513 868.196,-50.9723"/>
<polygon fill="black" stroke="black" points="869.971,-54.0183 877.763,-46.8398 867.195,-47.5922 869.971,-54.0183"/>
<g id="a_edge22&#45;headlabel"><a xlink:href="dir_000055_000000.html" target="_top" xlink:title="14">
<text text-anchor="middle" x="867.797" y="-55.5502" font-family="Helvetica,sans-Serif" font-size="10.00">14</text>
</a>
</g>
</g>
<!-- dir_29ccb5da305fddc85b1bc41cb88a627a -->
<g id="node9" class="node"><title>dir_29ccb5da305fddc85b1bc41cb88a627a</title>
<g id="a_node9"><a xlink:href="dir_29ccb5da305fddc85b1bc41cb88a627a.html" target="_top" xlink:title="gptimer">
<polygon fill="white" stroke="black" points="790,-124 736,-124 736,-88 790,-88 790,-124"/>
<text text-anchor="middle" x="763" y="-103.5" font-family="Helvetica,sans-Serif" font-size="10.00">gptimer</text>
</a>
</g>
</g>
<!-- dir_29ccb5da305fddc85b1bc41cb88a627a&#45;&gt;dir_4270bfced15e0e73154b13468c7c9ad9 -->
<g id="edge1" class="edge"><title>dir_29ccb5da305fddc85b1bc41cb88a627a&#45;&gt;dir_4270bfced15e0e73154b13468c7c9ad9</title>
<path fill="none" stroke="black" d="M790.223,-88.7952C817.991,-74.6481 857.588,-55.7981 865,-52 866.297,-51.3352 867.621,-50.6474 868.962,-49.9467"/>
<polygon fill="black" stroke="black" points="870.726,-52.9737 877.967,-45.2395 867.484,-46.77 870.726,-52.9737"/>
<g id="a_edge1&#45;headlabel"><a xlink:href="dir_000041_000000.html" target="_top" xlink:title="14">
<text text-anchor="middle" x="868.856" y="-54.655" font-family="Helvetica,sans-Serif" font-size="10.00">14</text>
</a>
</g>
</g>
<!-- dir_3452fd37e6a32fc348d2d33ef828a1c3 -->
<g id="node10" class="node"><title>dir_3452fd37e6a32fc348d2d33ef828a1c3</title>
<g id="a_node10"><a xlink:href="dir_3452fd37e6a32fc348d2d33ef828a1c3.html" target="_top" xlink:title="irqmp">
<polygon fill="white" stroke="black" points="718,-124 664,-124 664,-88 718,-88 718,-124"/>
<text text-anchor="middle" x="691" y="-103.5" font-family="Helvetica,sans-Serif" font-size="10.00">irqmp</text>
</a>
</g>
</g>
<!-- dir_3452fd37e6a32fc348d2d33ef828a1c3&#45;&gt;dir_4270bfced15e0e73154b13468c7c9ad9 -->
<g id="edge6" class="edge"><title>dir_3452fd37e6a32fc348d2d33ef828a1c3&#45;&gt;dir_4270bfced15e0e73154b13468c7c9ad9</title>
<path fill="none" stroke="black" d="M718.371,-87.8687C781.48,-65.5678 802.432,-76.3317 865,-52 866.191,-51.537 867.393,-51.0369 868.601,-50.5088"/>
<polygon fill="black" stroke="black" points="870.394,-53.5312 877.91,-46.0635 867.378,-47.2145 870.394,-53.5312"/>
<g id="a_edge6&#45;headlabel"><a xlink:href="dir_000042_000000.html" target="_top" xlink:title="6">
<text text-anchor="middle" x="868.374" y="-55.1423" font-family="Helvetica,sans-Serif" font-size="10.00">6</text>
</a>
</g>
</g>
<!-- dir_372f1d7b809a9c7bd16a6a27f4f0568a -->
<g id="node11" class="node"><title>dir_372f1d7b809a9c7bd16a6a27f4f0568a</title>
<g id="a_node11"><a xlink:href="dir_372f1d7b809a9c7bd16a6a27f4f0568a.html" target="_top" xlink:title="leon3">
<polygon fill="white" stroke="red" points="646,-124 592,-124 592,-88 646,-88 646,-124"/>
<text text-anchor="middle" x="619" y="-103.5" font-family="Helvetica,sans-Serif" font-size="10.00">leon3</text>
</a>
</g>
</g>
<!-- dir_372f1d7b809a9c7bd16a6a27f4f0568a&#45;&gt;dir_4270bfced15e0e73154b13468c7c9ad9 -->
<g id="edge5" class="edge"><title>dir_372f1d7b809a9c7bd16a6a27f4f0568a&#45;&gt;dir_4270bfced15e0e73154b13468c7c9ad9</title>
<path fill="none" stroke="black" d="M646.276,-87.9142C740.236,-58.7064 771.846,-84.1434 865,-52 866.175,-51.5946 867.358,-51.1469 868.545,-50.6662"/>
<polygon fill="black" stroke="black" points="870.022,-53.8393 877.652,-46.4881 867.103,-47.4769 870.022,-53.8393"/>
<g id="a_edge5&#45;headlabel"><a xlink:href="dir_000038_000000.html" target="_top" xlink:title="118">
<text text-anchor="middle" x="867.939" y="-55.4188" font-family="Helvetica,sans-Serif" font-size="10.00">118</text>
</a>
</g>
</g>
<!-- dir_eb001f4a4563eca7964ead1ea55b086c -->
<g id="node12" class="node"><title>dir_eb001f4a4563eca7964ead1ea55b086c</title>
<g id="a_node12"><a xlink:href="dir_eb001f4a4563eca7964ead1ea55b086c.html" target="_top" xlink:title="mctrl">
<polygon fill="white" stroke="black" points="70,-124 16,-124 16,-88 70,-88 70,-124"/>
<text text-anchor="middle" x="43" y="-103.5" font-family="Helvetica,sans-Serif" font-size="10.00">mctrl</text>
</a>
</g>
</g>
<!-- dir_eb001f4a4563eca7964ead1ea55b086c&#45;&gt;dir_e6fe11483b840dcc46c9501adc4e3eb6 -->
<g id="edge24" class="edge"><title>dir_eb001f4a4563eca7964ead1ea55b086c&#45;&gt;dir_e6fe11483b840dcc46c9501adc4e3eb6</title>
<path fill="none" stroke="black" d="M60.7978,-87.6966C69.604,-79.135 80.3821,-68.6562 90.0011,-59.3045"/>
<polygon fill="black" stroke="black" points="92.6768,-61.5846 97.407,-52.1043 87.7972,-56.5657 92.6768,-61.5846"/>
<g id="a_edge24&#45;headlabel"><a xlink:href="dir_000058_000057.html" target="_top" xlink:title="1">
<text text-anchor="middle" x="92.0787" y="-63.6261" font-family="Helvetica,sans-Serif" font-size="10.00">1</text>
</a>
</g>
</g>
<!-- dir_eb001f4a4563eca7964ead1ea55b086c&#45;&gt;dir_4270bfced15e0e73154b13468c7c9ad9 -->
<g id="edge25" class="edge"><title>dir_eb001f4a4563eca7964ead1ea55b086c&#45;&gt;dir_4270bfced15e0e73154b13468c7c9ad9</title>
<path fill="none" stroke="black" d="M70.2514,-87.9377C413.34,-2.89193 524.527,-147.486 865,-52 866.064,-51.7017 867.131,-51.3612 868.2,-50.9861"/>
<polygon fill="black" stroke="black" points="869.966,-54.0365 877.772,-46.8727 867.203,-47.6051 869.966,-54.0365"/>
<g id="a_edge25&#45;headlabel"><a xlink:href="dir_000058_000000.html" target="_top" xlink:title="12">
<text text-anchor="middle" x="867.785" y="-55.5642" font-family="Helvetica,sans-Serif" font-size="10.00">12</text>
</a>
</g>
</g>
<!-- dir_e6fe11483b840dcc46c9501adc4e3eb6&#45;&gt;dir_4270bfced15e0e73154b13468c7c9ad9 -->
<g id="edge7" class="edge"><title>dir_e6fe11483b840dcc46c9501adc4e3eb6&#45;&gt;dir_4270bfced15e0e73154b13468c7c9ad9</title>
<path fill="none" stroke="black" d="M142.002,-34C383.916,-34 625.83,-34 867.744,-34"/>
<polygon fill="black" stroke="black" points="867.803,-37.5001 877.803,-34 867.803,-30.5001 867.803,-37.5001"/>
<g id="a_edge7&#45;headlabel"><a xlink:href="dir_000057_000000.html" target="_top" xlink:title="19">
<text text-anchor="middle" x="864.209" y="-37.8393" font-family="Helvetica,sans-Serif" font-size="10.00">19</text>
</a>
</g>
</g>
<!-- dir_4270bfced15e0e73154b13468c7c9ad9&#45;&gt;dir_d8b5ecae6fcc6eb70ddc86d25fc62628 -->
<g id="edge12" class="edge"><title>dir_4270bfced15e0e73154b13468c7c9ad9&#45;&gt;dir_d8b5ecae6fcc6eb70ddc86d25fc62628</title>
<path fill="none" stroke="black" d="M882.637,-52.1171C758.904,-91.9672 717.045,-51.7539 592,-88 589.262,-88.7938 586.471,-89.7731 583.678,-90.8576"/>
<polygon fill="black" stroke="black" points="582.104,-87.7229 574.25,-94.8331 584.824,-94.173 582.104,-87.7229"/>
<g id="a_edge12&#45;headlabel"><a xlink:href="dir_000000_000049.html" target="_top" xlink:title="2">
<text text-anchor="middle" x="584.313" y="-81.2102" font-family="Helvetica,sans-Serif" font-size="10.00">2</text>
</a>
</g>
</g>
<!-- dir_4270bfced15e0e73154b13468c7c9ad9&#45;&gt;dir_9e03c52ea3f786626ee9d20d9fea7a89 -->
<g id="edge16" class="edge"><title>dir_4270bfced15e0e73154b13468c7c9ad9&#45;&gt;dir_9e03c52ea3f786626ee9d20d9fea7a89</title>
<path fill="none" stroke="black" d="M882.547,-52.1402C728.026,-99.8386 676.098,-44.7961 520,-88 517.252,-88.7605 514.455,-89.7173 511.659,-90.7875"/>
<polygon fill="black" stroke="black" points="510.094,-87.6483 502.224,-94.7415 512.799,-94.1043 510.094,-87.6483"/>
<g id="a_edge16&#45;headlabel"><a xlink:href="dir_000000_000050.html" target="_top" xlink:title="1">
<text text-anchor="middle" x="512.311" y="-81.1404" font-family="Helvetica,sans-Serif" font-size="10.00">1</text>
</a>
</g>
</g>
<!-- dir_4270bfced15e0e73154b13468c7c9ad9&#45;&gt;dir_c3efcde354b1f97c055e13859b9a0f23 -->
<g id="edge17" class="edge"><title>dir_4270bfced15e0e73154b13468c7c9ad9&#45;&gt;dir_c3efcde354b1f97c055e13859b9a0f23</title>
<path fill="none" stroke="black" d="M882.547,-52.1281C573.318,-139.448 471.935,-9.85491 160,-88 157.234,-88.6928 154.425,-89.6038 151.621,-90.6446"/>
<polygon fill="black" stroke="black" points="150.075,-87.4963 142.174,-94.555 152.753,-93.964 150.075,-87.4963"/>
<g id="a_edge17&#45;headlabel"><a xlink:href="dir_000000_000051.html" target="_top" xlink:title="1">
<text text-anchor="middle" x="152.311" y="-80.9981" font-family="Helvetica,sans-Serif" font-size="10.00">1</text>
</a>
</g>
</g>
<!-- dir_4270bfced15e0e73154b13468c7c9ad9&#45;&gt;dir_0e31803918f3e7d3f6834aa2cf69f880 -->
<g id="edge10" class="edge"><title>dir_4270bfced15e0e73154b13468c7c9ad9&#45;&gt;dir_0e31803918f3e7d3f6834aa2cf69f880</title>
<path fill="none" stroke="black" d="M882.683,-52.0933C666.221,-115.701 594.43,-30.8197 376,-88 373.242,-88.722 370.438,-89.6528 367.637,-90.7062"/>
<polygon fill="black" stroke="black" points="366.083,-87.5619 358.195,-94.6354 368.772,-94.0246 366.083,-87.5619"/>
<g id="a_edge10&#45;headlabel"><a xlink:href="dir_000000_000053.html" target="_top" xlink:title="1">
<text text-anchor="middle" x="368.311" y="-81.0595" font-family="Helvetica,sans-Serif" font-size="10.00">1</text>
</a>
</g>
</g>
<!-- dir_4270bfced15e0e73154b13468c7c9ad9&#45;&gt;dir_638d579de2502019b753f88658f71d54 -->
<g id="edge11" class="edge"><title>dir_4270bfced15e0e73154b13468c7c9ad9&#45;&gt;dir_638d579de2502019b753f88658f71d54</title>
<path fill="none" stroke="black" d="M882.637,-52.1049C635.263,-123.614 553.588,-23.834 304,-88 301.239,-88.7099 298.433,-89.6324 295.63,-90.6806"/>
<polygon fill="black" stroke="black" points="294.08,-87.5346 286.186,-94.602 296.764,-93.9994 294.08,-87.5346"/>
<g id="a_edge11&#45;headlabel"><a xlink:href="dir_000000_000054.html" target="_top" xlink:title="2">
<text text-anchor="middle" x="296.311" y="-81.034" font-family="Helvetica,sans-Serif" font-size="10.00">2</text>
</a>
</g>
</g>
<!-- dir_4270bfced15e0e73154b13468c7c9ad9&#45;&gt;dir_cf2c2299aa9f58130398b1e46505215a -->
<g id="edge18" class="edge"><title>dir_4270bfced15e0e73154b13468c7c9ad9&#45;&gt;dir_cf2c2299aa9f58130398b1e46505215a</title>
<path fill="none" stroke="black" d="M882.592,-52.1165C604.295,-131.53 512.758,-16.8455 232,-88 229.236,-88.7004 226.428,-89.6165 223.625,-90.6606"/>
<polygon fill="black" stroke="black" points="222.077,-87.5133 214.18,-94.5759 224.758,-93.9798 222.077,-87.5133"/>
<g id="a_edge18&#45;headlabel"><a xlink:href="dir_000000_000055.html" target="_top" xlink:title="3">
<text text-anchor="middle" x="224.311" y="-81.014" font-family="Helvetica,sans-Serif" font-size="10.00">3</text>
</a>
</g>
</g>
<!-- dir_4270bfced15e0e73154b13468c7c9ad9&#45;&gt;dir_29ccb5da305fddc85b1bc41cb88a627a -->
<g id="edge9" class="edge"><title>dir_4270bfced15e0e73154b13468c7c9ad9&#45;&gt;dir_29ccb5da305fddc85b1bc41cb88a627a</title>
<path fill="none" stroke="black" d="M882.568,-52.22C873.757,-56.6815 831.609,-76.7137 799.682,-90.7716"/>
<polygon fill="black" stroke="black" points="797.924,-87.7197 790.15,-94.9188 800.717,-94.1385 797.924,-87.7197"/>
<g id="a_edge9&#45;headlabel"><a xlink:href="dir_000000_000041.html" target="_top" xlink:title="1">
<text text-anchor="middle" x="800.087" y="-81.1822" font-family="Helvetica,sans-Serif" font-size="10.00">1</text>
</a>
</g>
</g>
<!-- dir_4270bfced15e0e73154b13468c7c9ad9&#45;&gt;dir_3452fd37e6a32fc348d2d33ef828a1c3 -->
<g id="edge14" class="edge"><title>dir_4270bfced15e0e73154b13468c7c9ad9&#45;&gt;dir_3452fd37e6a32fc348d2d33ef828a1c3</title>
<path fill="none" stroke="black" d="M882.633,-52.1424C820.228,-76.3371 799.274,-65.5694 736,-88 733.313,-88.9526 730.557,-90.0396 727.786,-91.193"/>
<polygon fill="black" stroke="black" points="726.17,-88.0789 718.39,-95.271 728.957,-94.5002 726.17,-88.0789"/>
<g id="a_edge14&#45;headlabel"><a xlink:href="dir_000000_000042.html" target="_top" xlink:title="2">
<text text-anchor="middle" x="728.337" y="-81.5433" font-family="Helvetica,sans-Serif" font-size="10.00">2</text>
</a>
</g>
</g>
<!-- dir_4270bfced15e0e73154b13468c7c9ad9&#45;&gt;dir_372f1d7b809a9c7bd16a6a27f4f0568a -->
<g id="edge13" class="edge"><title>dir_4270bfced15e0e73154b13468c7c9ad9&#45;&gt;dir_372f1d7b809a9c7bd16a6a27f4f0568a</title>
<path fill="none" stroke="black" d="M882.727,-52.0941C789.694,-84.125 758.082,-58.6853 664,-88 661.278,-88.8482 658.498,-89.8644 655.713,-90.9724"/>
<polygon fill="black" stroke="black" points="654.124,-87.8449 646.295,-94.9831 656.866,-94.2853 654.124,-87.8449"/>
<g id="a_edge13&#45;headlabel"><a xlink:href="dir_000000_000038.html" target="_top" xlink:title="3">
<text text-anchor="middle" x="656.319" y="-81.3244" font-family="Helvetica,sans-Serif" font-size="10.00">3</text>
</a>
</g>
</g>
<!-- dir_4270bfced15e0e73154b13468c7c9ad9&#45;&gt;dir_eb001f4a4563eca7964ead1ea55b086c -->
<g id="edge19" class="edge"><title>dir_4270bfced15e0e73154b13468c7c9ad9&#45;&gt;dir_eb001f4a4563eca7964ead1ea55b086c</title>
<path fill="none" stroke="black" d="M882.501,-52.1397C542.335,-147.368 431.118,-2.86289 88,-88 85.2328,-88.6866 82.4227,-89.5934 79.6176,-90.6314"/>
<polygon fill="black" stroke="black" points="78.0739,-87.4823 70.1701,-94.5378 80.7487,-93.9511 78.0739,-87.4823"/>
<g id="a_edge19&#45;headlabel"><a xlink:href="dir_000000_000058.html" target="_top" xlink:title="1">
<text text-anchor="middle" x="80.3109" y="-80.985" font-family="Helvetica,sans-Serif" font-size="10.00">1</text>
</a>
</g>
</g>
<!-- dir_4270bfced15e0e73154b13468c7c9ad9&#45;&gt;dir_e6fe11483b840dcc46c9501adc4e3eb6 -->
<g id="edge15" class="edge"><title>dir_4270bfced15e0e73154b13468c7c9ad9&#45;&gt;dir_e6fe11483b840dcc46c9501adc4e3eb6</title>
<path fill="none" stroke="black" d="M877.803,-34C635.889,-34 393.976,-34 152.062,-34"/>
<polygon fill="black" stroke="black" points="152.002,-30.5001 142.002,-34 152.002,-37.5001 152.002,-30.5001"/>
<g id="a_edge15&#45;headlabel"><a xlink:href="dir_000000_000057.html" target="_top" xlink:title="1">
<text text-anchor="middle" x="155.597" y="-25.1607" font-family="Helvetica,sans-Serif" font-size="10.00">1</text>
</a>
</g>
</g>
</g>
</svg>
