<?xml version="1.0" encoding="UTF-8" standalone="no"?>
<!DOCTYPE svg PUBLIC "-//W3C//DTD SVG 1.1//EN"
 "http://www.w3.org/Graphics/SVG/1.1/DTD/svg11.dtd">
<!-- Generated by graphviz version 2.26.0 (20091210.2329)
 -->
<!-- Title: core Pages: 1 -->
<svg width="384pt" height="220pt"
 viewBox="0.00 0.00 384.00 220.00" xmlns="http://www.w3.org/2000/svg" xmlns:xlink="http://www.w3.org/1999/xlink">
<g id="graph1" class="graph" transform="scale(1 1) rotate(0) translate(4 216)">
<title>core</title>
<polygon fill="white" stroke="white" points="-4,5 -4,-216 381,-216 381,5 -4,5"/>
<g id="graph2" class="cluster"><title>clusterdir_3fe24ed5859d594765fdd7e1c548840c</title>
<a xlink:href="dir_3fe24ed5859d594765fdd7e1c548840c.html" target="_top">
<polygon fill="#eeeeff" stroke="black" points="8,-8 8,-204 368,-204 368,-8 8,-8"/>
</a>
</g>
<!-- dir_3fe24ed5859d594765fdd7e1c548840c -->
<g id="node2" class="node"><title>dir_3fe24ed5859d594765fdd7e1c548840c</title>
<text text-anchor="middle" x="333" y="-175.5" font-family="Helvetica,sans-Serif" font-size="10.00">core</text>
</g>
<!-- dir_4e3786dd8d5e48275f8c1d4f5b364f01 -->
<g id="node3" class="node"><title>dir_4e3786dd8d5e48275f8c1d4f5b364f01</title>
<a xlink:href="dir_4e3786dd8d5e48275f8c1d4f5b364f01.html" target="_top" xlink:title="common">
<polygon fill="white" stroke="red" points="264,-124 210,-124 210,-88 264,-88 264,-124"/>
<text text-anchor="middle" x="237" y="-103.5" font-family="Helvetica,sans-Serif" font-size="10.00">common</text>
</a>
</g>
<!-- dir_c2e3af42ef6b68cd055bba484bf76a7e -->
<g id="node4" class="node"><title>dir_c2e3af42ef6b68cd055bba484bf76a7e</title>
<a xlink:href="dir_c2e3af42ef6b68cd055bba484bf76a7e.html" target="_top" xlink:title="models">
<polygon fill="white" stroke="red" points="264,-52 210,-52 210,-16 264,-16 264,-52"/>
<text text-anchor="middle" x="237" y="-31.5" font-family="Helvetica,sans-Serif" font-size="10.00">models</text>
</a>
</g>
<!-- dir_4e3786dd8d5e48275f8c1d4f5b364f01&#45;&gt;dir_c2e3af42ef6b68cd055bba484bf76a7e -->
<g id="edge3" class="edge"><title>dir_4e3786dd8d5e48275f8c1d4f5b364f01&#45;&gt;dir_c2e3af42ef6b68cd055bba484bf76a7e</title>
<path fill="none" stroke="black" d="M231.048,-87.8314C230.297,-80.131 230.076,-70.9743 230.385,-62.4166"/>
<polygon fill="black" stroke="black" points="233.879,-62.6161 231.024,-52.4133 226.893,-62.1697 233.879,-62.6161"/>
<a xlink:href="dir_000006_000020.html" target="_top" xlink:title="3">
<text text-anchor="middle" x="236.484" y="-63.8844" font-family="Helvetica,sans-Serif" font-size="10.00">3</text>
</a>
</g>
<!-- dir_c2e3af42ef6b68cd055bba484bf76a7e&#45;&gt;dir_4e3786dd8d5e48275f8c1d4f5b364f01 -->
<g id="edge9" class="edge"><title>dir_c2e3af42ef6b68cd055bba484bf76a7e&#45;&gt;dir_4e3786dd8d5e48275f8c1d4f5b364f01</title>
<path fill="none" stroke="black" d="M242.976,-52.4133C243.707,-60.0593 243.92,-69.1084 243.615,-77.5726"/>
<polygon fill="black" stroke="black" points="240.105,-77.6264 242.952,-87.8314 247.09,-78.078 240.105,-77.6264"/>
<a xlink:href="dir_000020_000006.html" target="_top" xlink:title="203">
<text text-anchor="middle" x="237.503" y="-71.3562" font-family="Helvetica,sans-Serif" font-size="10.00">203</text>
</a>
</g>
<!-- dir_a81521d02914dc167f432de0be1dce9f -->
<g id="node5" class="node"><title>dir_a81521d02914dc167f432de0be1dce9f</title>
<a xlink:href="dir_a81521d02914dc167f432de0be1dce9f.html" target="_top" xlink:title="platforms">
<polygon fill="white" stroke="red" points="288,-196 232,-196 232,-160 288,-160 288,-196"/>
<text text-anchor="middle" x="260" y="-175.5" font-family="Helvetica,sans-Serif" font-size="10.00">platforms</text>
</a>
</g>
<!-- dir_a81521d02914dc167f432de0be1dce9f&#45;&gt;dir_4e3786dd8d5e48275f8c1d4f5b364f01 -->
<g id="edge5" class="edge"><title>dir_a81521d02914dc167f432de0be1dce9f&#45;&gt;dir_4e3786dd8d5e48275f8c1d4f5b364f01</title>
<path fill="none" stroke="black" d="M254.196,-159.831C251.709,-152.046 248.747,-142.773 245.987,-134.135"/>
<polygon fill="black" stroke="black" points="249.259,-132.874 242.882,-124.413 242.591,-135.004 249.259,-132.874"/>
<a xlink:href="dir_000042_000006.html" target="_top" xlink:title="15">
<text text-anchor="middle" x="253.057" y="-132.934" font-family="Helvetica,sans-Serif" font-size="10.00">15</text>
</a>
</g>
<!-- dir_a81521d02914dc167f432de0be1dce9f&#45;&gt;dir_c2e3af42ef6b68cd055bba484bf76a7e -->
<g id="edge7" class="edge"><title>dir_a81521d02914dc167f432de0be1dce9f&#45;&gt;dir_c2e3af42ef6b68cd055bba484bf76a7e</title>
<path fill="none" stroke="black" d="M267.201,-159.723C273.412,-141.288 280.32,-112.176 273,-88 270.044,-78.2355 264.675,-68.6229 258.97,-60.2762"/>
<polygon fill="black" stroke="black" points="261.713,-58.0973 252.99,-52.0831 256.059,-62.2239 261.713,-58.0973"/>
<a xlink:href="dir_000042_000020.html" target="_top" xlink:title="38">
<text text-anchor="middle" x="266.125" y="-56.827" font-family="Helvetica,sans-Serif" font-size="10.00">38</text>
</a>
</g>
<!-- dir_37b063e5053086ce86cb60ba95c43de7 -->
<g id="node6" class="node"><title>dir_37b063e5053086ce86cb60ba95c43de7</title>
<a xlink:href="dir_37b063e5053086ce86cb60ba95c43de7.html" target="_top" xlink:title="software">
<polygon fill="white" stroke="red" points="214,-196 160,-196 160,-160 214,-160 214,-196"/>
<text text-anchor="middle" x="187" y="-175.5" font-family="Helvetica,sans-Serif" font-size="10.00">software</text>
</a>
</g>
<!-- dir_4f2e913c9a0b89f8bd27602b0b261ecc -->
<g id="node7" class="node"><title>dir_4f2e913c9a0b89f8bd27602b0b261ecc</title>
<a xlink:href="dir_4f2e913c9a0b89f8bd27602b0b261ecc.html" target="_top" xlink:title="tools">
<polygon fill="white" stroke="red" points="142,-196 88,-196 88,-160 142,-160 142,-196"/>
<text text-anchor="middle" x="115" y="-175.5" font-family="Helvetica,sans-Serif" font-size="10.00">tools</text>
</a>
</g>
<!-- dir_f62e5b4fa6671c5b36bf1b205abe0a41 -->
<g id="node8" class="node"><title>dir_f62e5b4fa6671c5b36bf1b205abe0a41</title>
<a xlink:href="dir_f62e5b4fa6671c5b36bf1b205abe0a41.html" target="_top" xlink:title="waf">
<polygon fill="white" stroke="red" points="70,-196 16,-196 16,-160 70,-160 70,-196"/>
<text text-anchor="middle" x="43" y="-175.5" font-family="Helvetica,sans-Serif" font-size="10.00">waf</text>
</a>
</g>
</g>
</svg>
