<?xml version="1.0" encoding="UTF-8" standalone="no"?>
<!DOCTYPE svg PUBLIC "-//W3C//DTD SVG 1.1//EN"
 "http://www.w3.org/Graphics/SVG/1.1/DTD/svg11.dtd">
<!-- Generated by graphviz version 2.38.0 (20140413.2041)
 -->
<!-- Title: core/common Pages: 1 -->
<svg width="638pt" height="111pt"
 viewBox="0.00 0.00 638.00 111.00" xmlns="http://www.w3.org/2000/svg" xmlns:xlink="http://www.w3.org/1999/xlink">
<g id="graph0" class="graph" transform="scale(1 1) rotate(0) translate(4 107)">
<title>core/common</title>
<polygon fill="white" stroke="none" points="-4,4 -4,-107 634,-107 634,4 -4,4"/>
<g id="clust1" class="cluster"><title>clusterdir_4270bfced15e0e73154b13468c7c9ad9</title>
<g id="a_clust1"><a xlink:href="dir_4270bfced15e0e73154b13468c7c9ad9.html" target="_top" xlink:title="core">
<polygon fill="#ddddee" stroke="black" points="8,-8 8,-95 622,-95 622,-8 8,-8"/>
<text text-anchor="middle" x="315" y="-83" font-family="Helvetica,sans-Serif" font-size="10.00">core</text>
</a>
</g>
</g>
<g id="clust2" class="cluster"><title>clusterdir_96905e4e8221386a66b3608ee8aaef34</title>
<g id="a_clust2"><a xlink:href="dir_96905e4e8221386a66b3608ee8aaef34.html" target="_top">
<polygon fill="#eeeeff" stroke="black" points="16,-16 16,-68 614,-68 614,-16 16,-16"/>
</a>
</g>
</g>
<!-- dir_96905e4e8221386a66b3608ee8aaef34 -->
<g id="node1" class="node"><title>dir_96905e4e8221386a66b3608ee8aaef34</title>
<text text-anchor="middle" x="579" y="-39.5" font-family="Helvetica,sans-Serif" font-size="10.00">common</text>
</g>
<!-- dir_b6c7c63c9d100b7a015524a32c8868e9 -->
<g id="node2" class="node"><title>dir_b6c7c63c9d100b7a015524a32c8868e9</title>
<g id="a_node2"><a xlink:href="dir_b6c7c63c9d100b7a015524a32c8868e9.html" target="_top" xlink:title="sr_iss">
<polygon fill="white" stroke="red" points="534,-60 480,-60 480,-24 534,-24 534,-60"/>
<text text-anchor="middle" x="507" y="-39.5" font-family="Helvetica,sans-Serif" font-size="10.00">sr_iss</text>
</a>
</g>
</g>
<!-- dir_d18ff4dbe7a1831c5d581a2a3aeb0947 -->
<g id="node3" class="node"><title>dir_d18ff4dbe7a1831c5d581a2a3aeb0947</title>
<g id="a_node3"><a xlink:href="dir_d18ff4dbe7a1831c5d581a2a3aeb0947.html" target="_top" xlink:title="sr_param">
<polygon fill="white" stroke="black" points="461.5,-60 404.5,-60 404.5,-24 461.5,-24 461.5,-60"/>
<text text-anchor="middle" x="433" y="-39.5" font-family="Helvetica,sans-Serif" font-size="10.00">sr_param</text>
</a>
</g>
</g>
<!-- dir_19aa35cb1d3dda09dfc6098da9f127b5 -->
<g id="node4" class="node"><title>dir_19aa35cb1d3dda09dfc6098da9f127b5</title>
<g id="a_node4"><a xlink:href="dir_19aa35cb1d3dda09dfc6098da9f127b5.html" target="_top" xlink:title="sr_register">
<polygon fill="white" stroke="black" points="386,-60 324,-60 324,-24 386,-24 386,-60"/>
<text text-anchor="middle" x="355" y="-39.5" font-family="Helvetica,sans-Serif" font-size="10.00">sr_register</text>
</a>
</g>
</g>
<!-- dir_c09b483288de85acafbe2668833b5f54 -->
<g id="node5" class="node"><title>dir_c09b483288de85acafbe2668833b5f54</title>
<g id="a_node5"><a xlink:href="dir_c09b483288de85acafbe2668833b5f54.html" target="_top" xlink:title="sr_registry">
<polygon fill="white" stroke="black" points="306,-60 244,-60 244,-24 306,-24 306,-60"/>
<text text-anchor="middle" x="275" y="-39.5" font-family="Helvetica,sans-Serif" font-size="10.00">sr_registry</text>
</a>
</g>
</g>
<!-- dir_4c391fd04a942b92592f9cb593e93d8c -->
<g id="node6" class="node"><title>dir_4c391fd04a942b92592f9cb593e93d8c</title>
<g id="a_node6"><a xlink:href="dir_4c391fd04a942b92592f9cb593e93d8c.html" target="_top" xlink:title="sr_report">
<polygon fill="white" stroke="black" points="225.5,-60 170.5,-60 170.5,-24 225.5,-24 225.5,-60"/>
<text text-anchor="middle" x="198" y="-39.5" font-family="Helvetica,sans-Serif" font-size="10.00">sr_report</text>
</a>
</g>
</g>
<!-- dir_88948dd5c57378c1cca762154999b0b3 -->
<g id="node7" class="node"><title>dir_88948dd5c57378c1cca762154999b0b3</title>
<g id="a_node7"><a xlink:href="dir_88948dd5c57378c1cca762154999b0b3.html" target="_top" xlink:title="sr_signal">
<polygon fill="white" stroke="black" points="152,-60 96,-60 96,-24 152,-24 152,-60"/>
<text text-anchor="middle" x="124" y="-39.5" font-family="Helvetica,sans-Serif" font-size="10.00">sr_signal</text>
</a>
</g>
</g>
<!-- dir_9f2c92428e40234f021aa961a21d6eb0 -->
<g id="node8" class="node"><title>dir_9f2c92428e40234f021aa961a21d6eb0</title>
<g id="a_node8"><a xlink:href="dir_9f2c92428e40234f021aa961a21d6eb0.html" target="_top" xlink:title="trapgen">
<polygon fill="white" stroke="red" points="78,-60 24,-60 24,-24 78,-24 78,-60"/>
<text text-anchor="middle" x="51" y="-39.5" font-family="Helvetica,sans-Serif" font-size="10.00">trapgen</text>
</a>
</g>
</g>
</g>
</svg>
