<?xml version="1.0" encoding="UTF-8" standalone="no"?>
<!DOCTYPE svg PUBLIC "-//W3C//DTD SVG 1.1//EN"
 "http://www.w3.org/Graphics/SVG/1.1/DTD/svg11.dtd">
<!-- Generated by graphviz version 2.26.0 (20091210.2329)
 -->
<!-- Title: core/models Pages: 1 -->
<svg width="876pt" height="257pt"
 viewBox="0.00 0.00 875.78 257.00" xmlns="http://www.w3.org/2000/svg" xmlns:xlink="http://www.w3.org/1999/xlink">
<g id="graph1" class="graph" transform="scale(1 1) rotate(0) translate(4 253)">
<title>core/models</title>
<polygon fill="white" stroke="white" points="-4,5 -4,-253 872.78,-253 872.78,5 -4,5"/>
<g id="graph2" class="cluster"><title>clusterdir_3fe24ed5859d594765fdd7e1c548840c</title>
<a xlink:href="dir_3fe24ed5859d594765fdd7e1c548840c.html" target="_top" xlink:title="core">
<polygon fill="#ddddee" stroke="black" points="8,-8 8,-241 798,-241 798,-8 8,-8"/>
<text text-anchor="middle" x="403" y="-228" font-family="Helvetica,sans-Serif" font-size="10.00">core</text>
</a>
</g>
<g id="graph3" class="cluster"><title>clusterdir_c2e3af42ef6b68cd055bba484bf76a7e</title>
<a xlink:href="dir_c2e3af42ef6b68cd055bba484bf76a7e.html" target="_top">
<polygon fill="#eeeeff" stroke="black" points="16,-16 16,-212 790,-212 790,-16 16,-16"/>
</a>
</g>
<!-- dir_c2e3af42ef6b68cd055bba484bf76a7e -->
<g id="node3" class="node"><title>dir_c2e3af42ef6b68cd055bba484bf76a7e</title>
<text text-anchor="middle" x="755" y="-183.5" font-family="Helvetica,sans-Serif" font-size="10.00">models</text>
</g>
<!-- dir_69f26abf3a5238e99c0f3236f74654cd -->
<g id="node4" class="node"><title>dir_69f26abf3a5238e99c0f3236f74654cd</title>
<a xlink:href="dir_69f26abf3a5238e99c0f3236f74654cd.html" target="_top" xlink:title="ahbctrl">
<polygon fill="white" stroke="black" points="350,-132 296,-132 296,-96 350,-96 350,-132"/>
<text text-anchor="middle" x="323" y="-111.5" font-family="Helvetica,sans-Serif" font-size="10.00">ahbctrl</text>
</a>
</g>
<!-- dir_9f5fc7457524e67c366fc507d6b3318b -->
<g id="node17" class="node"><title>dir_9f5fc7457524e67c366fc507d6b3318b</title>
<a xlink:href="dir_9f5fc7457524e67c366fc507d6b3318b.html" target="_top" xlink:title="utils">
<polygon fill="white" stroke="black" points="386,-60 332,-60 332,-24 386,-24 386,-60"/>
<text text-anchor="middle" x="359" y="-39.5" font-family="Helvetica,sans-Serif" font-size="10.00">utils</text>
</a>
</g>
<!-- dir_69f26abf3a5238e99c0f3236f74654cd&#45;&gt;dir_9f5fc7457524e67c366fc507d6b3318b -->
<g id="edge26" class="edge"><title>dir_69f26abf3a5238e99c0f3236f74654cd&#45;&gt;dir_9f5fc7457524e67c366fc507d6b3318b</title>
<path fill="none" stroke="black" d="M332.084,-95.8314C336.061,-87.8771 340.815,-78.369 345.214,-69.5723"/>
<polygon fill="black" stroke="black" points="348.452,-70.9228 349.793,-60.4133 342.191,-67.7923 348.452,-70.9228"/>
<a xlink:href="dir_000021_000041.html" target="_top" xlink:title="2">
<text text-anchor="middle" x="349.384" y="-72.9077" font-family="Helvetica,sans-Serif" font-size="10.00">2</text>
</a>
</g>
<!-- dir_4e3786dd8d5e48275f8c1d4f5b364f01 -->
<g id="node18" class="node"><title>dir_4e3786dd8d5e48275f8c1d4f5b364f01</title>
<a xlink:href="dir_4e3786dd8d5e48275f8c1d4f5b364f01.html" target="_top" xlink:title="common">
<polygon fill="white" stroke="red" points="860,-60 806,-60 806,-24 860,-24 860,-60"/>
<text text-anchor="middle" x="833" y="-39.5" font-family="Helvetica,sans-Serif" font-size="10.00">common</text>
</a>
</g>
<!-- dir_69f26abf3a5238e99c0f3236f74654cd&#45;&gt;dir_4e3786dd8d5e48275f8c1d4f5b364f01 -->
<g id="edge28" class="edge"><title>dir_69f26abf3a5238e99c0f3236f74654cd&#45;&gt;dir_4e3786dd8d5e48275f8c1d4f5b364f01</title>
<path fill="none" stroke="black" d="M350.084,-99.1186C353.033,-97.9053 356.039,-96.8293 359,-96 545.804,-43.6746 606.401,-109.401 794,-60 794.73,-59.8077 795.464,-59.6025 796.199,-59.3857"/>
<polygon fill="black" stroke="black" points="797.48,-62.6452 805.747,-56.0198 795.153,-56.0434 797.48,-62.6452"/>
<a xlink:href="dir_000021_000006.html" target="_top" xlink:title="8">
<text text-anchor="middle" x="795.034" y="-64.018" font-family="Helvetica,sans-Serif" font-size="10.00">8</text>
</a>
</g>
<!-- dir_289c7a86f712b2dd1217ede74a933d26 -->
<g id="node5" class="node"><title>dir_289c7a86f712b2dd1217ede74a933d26</title>
<a xlink:href="dir_289c7a86f712b2dd1217ede74a933d26.html" target="_top" xlink:title="ahbin">
<polygon fill="white" stroke="black" points="278,-132 224,-132 224,-96 278,-96 278,-132"/>
<text text-anchor="middle" x="251" y="-111.5" font-family="Helvetica,sans-Serif" font-size="10.00">ahbin</text>
</a>
</g>
<!-- dir_289c7a86f712b2dd1217ede74a933d26&#45;&gt;dir_9f5fc7457524e67c366fc507d6b3318b -->
<g id="edge50" class="edge"><title>dir_289c7a86f712b2dd1217ede74a933d26&#45;&gt;dir_9f5fc7457524e67c366fc507d6b3318b</title>
<path fill="none" stroke="black" d="M278.253,-95.8314C291.939,-86.7074 308.691,-75.539 323.383,-65.7449"/>
<polygon fill="black" stroke="black" points="325.377,-68.6221 331.756,-60.1628 321.494,-62.7977 325.377,-68.6221"/>
<a xlink:href="dir_000022_000041.html" target="_top" xlink:title="2">
<text text-anchor="middle" x="323.961" y="-70.4784" font-family="Helvetica,sans-Serif" font-size="10.00">2</text>
</a>
</g>
<!-- dir_289c7a86f712b2dd1217ede74a933d26&#45;&gt;dir_4e3786dd8d5e48275f8c1d4f5b364f01 -->
<g id="edge52" class="edge"><title>dir_289c7a86f712b2dd1217ede74a933d26&#45;&gt;dir_4e3786dd8d5e48275f8c1d4f5b364f01</title>
<path fill="none" stroke="black" d="M278.074,-99.083C281.025,-97.8766 284.035,-96.812 287,-96 504.88,-36.3404 575.214,-116.249 794,-60 794.731,-59.812 795.466,-59.6107 796.202,-59.3975"/>
<polygon fill="black" stroke="black" points="797.47,-62.6619 805.759,-56.0623 795.164,-56.0528 797.47,-62.6619"/>
<a xlink:href="dir_000022_000006.html" target="_top" xlink:title="2">
<text text-anchor="middle" x="795.012" y="-64.027" font-family="Helvetica,sans-Serif" font-size="10.00">2</text>
</a>
</g>
<!-- dir_029a1a1939efe935581fb31af8b7f4b2 -->
<g id="node6" class="node"><title>dir_029a1a1939efe935581fb31af8b7f4b2</title>
<a xlink:href="dir_029a1a1939efe935581fb31af8b7f4b2.html" target="_top" xlink:title="ahbmem">
<polygon fill="white" stroke="black" points="638,-204 584,-204 584,-168 638,-168 638,-204"/>
<text text-anchor="middle" x="611" y="-183.5" font-family="Helvetica,sans-Serif" font-size="10.00">ahbmem</text>
</a>
</g>
<!-- dir_1b9f86a74df7ad66fc9707ed1c039e3b -->
<g id="node15" class="node"><title>dir_1b9f86a74df7ad66fc9707ed1c039e3b</title>
<a xlink:href="dir_1b9f86a74df7ad66fc9707ed1c039e3b.html" target="_top" xlink:title="memory">
<polygon fill="white" stroke="black" points="782,-132 728,-132 728,-96 782,-96 782,-132"/>
<text text-anchor="middle" x="755" y="-111.5" font-family="Helvetica,sans-Serif" font-size="10.00">memory</text>
</a>
</g>
<!-- dir_029a1a1939efe935581fb31af8b7f4b2&#45;&gt;dir_1b9f86a74df7ad66fc9707ed1c039e3b -->
<g id="edge34" class="edge"><title>dir_029a1a1939efe935581fb31af8b7f4b2&#45;&gt;dir_1b9f86a74df7ad66fc9707ed1c039e3b</title>
<path fill="none" stroke="black" d="M638.085,-172.457C660.769,-161.115 693.357,-144.822 718.368,-132.316"/>
<polygon fill="black" stroke="black" points="720.168,-135.329 727.547,-127.727 717.037,-129.068 720.168,-135.329"/>
<a xlink:href="dir_000023_000034.html" target="_top" xlink:title="1">
<text text-anchor="middle" x="718.222" y="-136.976" font-family="Helvetica,sans-Serif" font-size="10.00">1</text>
</a>
</g>
<!-- dir_029a1a1939efe935581fb31af8b7f4b2&#45;&gt;dir_9f5fc7457524e67c366fc507d6b3318b -->
<g id="edge30" class="edge"><title>dir_029a1a1939efe935581fb31af8b7f4b2&#45;&gt;dir_9f5fc7457524e67c366fc507d6b3318b</title>
<path fill="none" stroke="black" d="M583.925,-185.037C486.599,-181.3 158.622,-166.236 128,-132 70.7443,-67.9863 243.09,-49.0847 321.894,-43.861"/>
<polygon fill="black" stroke="black" points="322.151,-47.3519 331.914,-43.2373 321.716,-40.3654 322.151,-47.3519"/>
<a xlink:href="dir_000023_000041.html" target="_top" xlink:title="2">
<text text-anchor="middle" x="318.739" y="-47.9089" font-family="Helvetica,sans-Serif" font-size="10.00">2</text>
</a>
</g>
<!-- dir_029a1a1939efe935581fb31af8b7f4b2&#45;&gt;dir_4e3786dd8d5e48275f8c1d4f5b364f01 -->
<g id="edge32" class="edge"><title>dir_029a1a1939efe935581fb31af8b7f4b2&#45;&gt;dir_4e3786dd8d5e48275f8c1d4f5b364f01</title>
<path fill="none" stroke="black" d="M638.242,-171.607C641.161,-170.298 644.116,-169.067 647,-168 708.872,-145.112 740.103,-173.97 791,-132 810.032,-116.306 820.909,-90.046 826.802,-69.9304"/>
<polygon fill="black" stroke="black" points="830.239,-70.6249 829.446,-60.0598 823.477,-68.8135 830.239,-70.6249"/>
<a xlink:href="dir_000023_000006.html" target="_top" xlink:title="5">
<text text-anchor="middle" x="832.051" y="-72.3318" font-family="Helvetica,sans-Serif" font-size="10.00">5</text>
</a>
</g>
<!-- dir_fdf0dab79e47f73d1126a8a328b5f5f8 -->
<g id="node7" class="node"><title>dir_fdf0dab79e47f73d1126a8a328b5f5f8</title>
<a xlink:href="dir_fdf0dab79e47f73d1126a8a328b5f5f8.html" target="_top" xlink:title="ahbout">
<polygon fill="white" stroke="black" points="206,-132 152,-132 152,-96 206,-96 206,-132"/>
<text text-anchor="middle" x="179" y="-111.5" font-family="Helvetica,sans-Serif" font-size="10.00">ahbout</text>
</a>
</g>
<!-- dir_fdf0dab79e47f73d1126a8a328b5f5f8&#45;&gt;dir_9f5fc7457524e67c366fc507d6b3318b -->
<g id="edge6" class="edge"><title>dir_fdf0dab79e47f73d1126a8a328b5f5f8&#45;&gt;dir_9f5fc7457524e67c366fc507d6b3318b</title>
<path fill="none" stroke="black" d="M206.377,-99.9409C209.269,-98.5672 212.182,-97.229 215,-96 250.951,-80.3227 293.057,-64.8572 322.417,-54.5222"/>
<polygon fill="black" stroke="black" points="323.574,-57.8256 331.858,-51.2211 321.263,-51.2179 323.574,-57.8256"/>
<a xlink:href="dir_000024_000041.html" target="_top" xlink:title="2">
<text text-anchor="middle" x="321.118" y="-59.1922" font-family="Helvetica,sans-Serif" font-size="10.00">2</text>
</a>
</g>
<!-- dir_fdf0dab79e47f73d1126a8a328b5f5f8&#45;&gt;dir_4e3786dd8d5e48275f8c1d4f5b364f01 -->
<g id="edge8" class="edge"><title>dir_fdf0dab79e47f73d1126a8a328b5f5f8&#45;&gt;dir_4e3786dd8d5e48275f8c1d4f5b364f01</title>
<path fill="none" stroke="black" d="M206.067,-99.0562C209.019,-97.855 212.031,-96.7989 215,-96 463.973,-29.0015 544.011,-123.101 794,-60 794.732,-59.8152 795.467,-59.6169 796.204,-59.4064"/>
<polygon fill="black" stroke="black" points="797.463,-62.6744 805.767,-56.0943 795.172,-56.06 797.463,-62.6744"/>
<a xlink:href="dir_000024_000006.html" target="_top" xlink:title="3">
<text text-anchor="middle" x="794.996" y="-64.0337" font-family="Helvetica,sans-Serif" font-size="10.00">3</text>
</a>
</g>
<!-- dir_20ec0a9ab57fc73bb2fab3d03b9c3033 -->
<g id="node8" class="node"><title>dir_20ec0a9ab57fc73bb2fab3d03b9c3033</title>
<a xlink:href="dir_20ec0a9ab57fc73bb2fab3d03b9c3033.html" target="_top" xlink:title="ahbprof">
<polygon fill="white" stroke="black" points="710,-132 656,-132 656,-96 710,-96 710,-132"/>
<text text-anchor="middle" x="683" y="-111.5" font-family="Helvetica,sans-Serif" font-size="10.00">ahbprof</text>
</a>
</g>
<!-- dir_20ec0a9ab57fc73bb2fab3d03b9c3033&#45;&gt;dir_9f5fc7457524e67c366fc507d6b3318b -->
<g id="edge58" class="edge"><title>dir_20ec0a9ab57fc73bb2fab3d03b9c3033&#45;&gt;dir_9f5fc7457524e67c366fc507d6b3318b</title>
<path fill="none" stroke="black" d="M655.865,-99.2903C652.926,-98.0435 649.936,-96.9127 647,-96 540.089,-62.7633 501.295,-95.6167 395.843,-61.7554"/>
<polygon fill="black" stroke="black" points="396.703,-58.3525 386.109,-58.5035 394.484,-64.9918 396.703,-58.3525"/>
<a xlink:href="dir_000025_000041.html" target="_top" xlink:title="2">
<text text-anchor="middle" x="401.012" y="-54.2985" font-family="Helvetica,sans-Serif" font-size="10.00">2</text>
</a>
</g>
<!-- dir_20ec0a9ab57fc73bb2fab3d03b9c3033&#45;&gt;dir_4e3786dd8d5e48275f8c1d4f5b364f01 -->
<g id="edge60" class="edge"><title>dir_20ec0a9ab57fc73bb2fab3d03b9c3033&#45;&gt;dir_4e3786dd8d5e48275f8c1d4f5b364f01</title>
<path fill="none" stroke="black" d="M710.096,-100.375C713.096,-98.8893 716.11,-97.4068 719,-96 744.844,-83.4197 774.154,-69.5449 796.582,-59.0097"/>
<polygon fill="black" stroke="black" points="798.175,-62.1282 805.742,-54.7126 795.203,-55.7908 798.175,-62.1282"/>
<a xlink:href="dir_000025_000006.html" target="_top" xlink:title="4">
<text text-anchor="middle" x="796.127" y="-63.7252" font-family="Helvetica,sans-Serif" font-size="10.00">4</text>
</a>
</g>
<!-- dir_f1f0c65b92fe8d6ca2d024842a2b0af6 -->
<g id="node9" class="node"><title>dir_f1f0c65b92fe8d6ca2d024842a2b0af6</title>
<a xlink:href="dir_f1f0c65b92fe8d6ca2d024842a2b0af6.html" target="_top" xlink:title="apbctrl">
<polygon fill="white" stroke="black" points="638,-132 584,-132 584,-96 638,-96 638,-132"/>
<text text-anchor="middle" x="611" y="-111.5" font-family="Helvetica,sans-Serif" font-size="10.00">apbctrl</text>
</a>
</g>
<!-- dir_f1f0c65b92fe8d6ca2d024842a2b0af6&#45;&gt;dir_9f5fc7457524e67c366fc507d6b3318b -->
<g id="edge54" class="edge"><title>dir_f1f0c65b92fe8d6ca2d024842a2b0af6&#45;&gt;dir_9f5fc7457524e67c366fc507d6b3318b</title>
<path fill="none" stroke="black" d="M583.813,-99.4497C580.884,-98.1718 577.911,-96.9902 575,-96 498.952,-70.1281 470.746,-87.8446 395.994,-61.9823"/>
<polygon fill="black" stroke="black" points="396.734,-58.5281 386.14,-58.4179 394.353,-65.1107 396.734,-58.5281"/>
<a xlink:href="dir_000026_000041.html" target="_top" xlink:title="4">
<text text-anchor="middle" x="401.08" y="-54.5807" font-family="Helvetica,sans-Serif" font-size="10.00">4</text>
</a>
</g>
<!-- dir_f1f0c65b92fe8d6ca2d024842a2b0af6&#45;&gt;dir_4e3786dd8d5e48275f8c1d4f5b364f01 -->
<g id="edge56" class="edge"><title>dir_f1f0c65b92fe8d6ca2d024842a2b0af6&#45;&gt;dir_4e3786dd8d5e48275f8c1d4f5b364f01</title>
<path fill="none" stroke="black" d="M638.237,-99.5928C641.156,-98.287 644.114,-97.0598 647,-96 710.142,-72.8147 730.504,-82.1962 794,-60 794.713,-59.7508 795.43,-59.4932 796.151,-59.2283"/>
<polygon fill="black" stroke="black" points="797.593,-62.4209 805.574,-55.4531 794.99,-55.923 797.593,-62.4209"/>
<a xlink:href="dir_000026_000006.html" target="_top" xlink:title="8">
<text text-anchor="middle" x="795.312" y="-63.8933" font-family="Helvetica,sans-Serif" font-size="10.00">8</text>
</a>
</g>
<!-- dir_155bfad9bcb2699878807bfb2d1c4e43 -->
<g id="node10" class="node"><title>dir_155bfad9bcb2699878807bfb2d1c4e43</title>
<a xlink:href="dir_155bfad9bcb2699878807bfb2d1c4e43.html" target="_top" xlink:title="apbuart">
<polygon fill="white" stroke="black" points="566,-132 512,-132 512,-96 566,-96 566,-132"/>
<text text-anchor="middle" x="539" y="-111.5" font-family="Helvetica,sans-Serif" font-size="10.00">apbuart</text>
</a>
</g>
<!-- dir_155bfad9bcb2699878807bfb2d1c4e43&#45;&gt;dir_9f5fc7457524e67c366fc507d6b3318b -->
<g id="edge62" class="edge"><title>dir_155bfad9bcb2699878807bfb2d1c4e43&#45;&gt;dir_9f5fc7457524e67c366fc507d6b3318b</title>
<path fill="none" stroke="black" d="M511.685,-99.7941C508.781,-98.4491 505.848,-97.1576 503,-96 457.221,-77.3945 440.313,-80.8071 395.555,-62.2506"/>
<polygon fill="black" stroke="black" points="396.784,-58.9694 386.215,-58.2333 394.018,-65.3998 396.784,-58.9694"/>
<a xlink:href="dir_000027_000041.html" target="_top" xlink:title="2">
<text text-anchor="middle" x="401.208" y="-55.2814" font-family="Helvetica,sans-Serif" font-size="10.00">2</text>
</a>
</g>
<!-- dir_155bfad9bcb2699878807bfb2d1c4e43&#45;&gt;dir_4e3786dd8d5e48275f8c1d4f5b364f01 -->
<g id="edge64" class="edge"><title>dir_155bfad9bcb2699878807bfb2d1c4e43&#45;&gt;dir_4e3786dd8d5e48275f8c1d4f5b364f01</title>
<path fill="none" stroke="black" d="M566.157,-99.3619C569.092,-98.1011 572.075,-96.9476 575,-96 668.838,-65.6005 699.698,-88.9301 794,-60 794.722,-59.7786 795.448,-59.5465 796.176,-59.3049"/>
<polygon fill="black" stroke="black" points="797.541,-62.5307 805.665,-55.7291 795.073,-55.9804 797.541,-62.5307"/>
<a xlink:href="dir_000027_000006.html" target="_top" xlink:title="6">
<text text-anchor="middle" x="795.179" y="-63.9551" font-family="Helvetica,sans-Serif" font-size="10.00">6</text>
</a>
</g>
<!-- dir_7a8cd385d81f115df1ef2d4e6e74c7ad -->
<g id="node11" class="node"><title>dir_7a8cd385d81f115df1ef2d4e6e74c7ad</title>
<a xlink:href="dir_7a8cd385d81f115df1ef2d4e6e74c7ad.html" target="_top" xlink:title="extern">
<polygon fill="white" stroke="red" points="86,-60 32,-60 32,-24 86,-24 86,-60"/>
<text text-anchor="middle" x="59" y="-39.5" font-family="Helvetica,sans-Serif" font-size="10.00">extern</text>
</a>
</g>
<!-- dir_59eb369517ed1b1a384c663ec930a03a -->
<g id="node16" class="node"><title>dir_59eb369517ed1b1a384c663ec930a03a</title>
<a xlink:href="dir_59eb369517ed1b1a384c663ec930a03a.html" target="_top" xlink:title="mmu_cache">
<polygon fill="white" stroke="red" points="94,-132 24,-132 24,-96 94,-96 94,-132"/>
<text text-anchor="middle" x="59" y="-111.5" font-family="Helvetica,sans-Serif" font-size="10.00">mmu_cache</text>
</a>
</g>
<!-- dir_7a8cd385d81f115df1ef2d4e6e74c7ad&#45;&gt;dir_59eb369517ed1b1a384c663ec930a03a -->
<g id="edge66" class="edge"><title>dir_7a8cd385d81f115df1ef2d4e6e74c7ad&#45;&gt;dir_59eb369517ed1b1a384c663ec930a03a</title>
<path fill="none" stroke="black" d="M64.976,-60.4133C65.7071,-68.0593 65.9203,-77.1084 65.6155,-85.5726"/>
<polygon fill="black" stroke="black" points="62.1048,-85.6264 64.9524,-95.8314 69.0902,-86.078 62.1048,-85.6264"/>
<a xlink:href="dir_000028_000038.html" target="_top" xlink:title="2">
<text text-anchor="middle" x="59.5032" y="-79.3562" font-family="Helvetica,sans-Serif" font-size="10.00">2</text>
</a>
</g>
<!-- dir_7a8cd385d81f115df1ef2d4e6e74c7ad&#45;&gt;dir_4e3786dd8d5e48275f8c1d4f5b364f01 -->
<g id="edge68" class="edge"><title>dir_7a8cd385d81f115df1ef2d4e6e74c7ad&#45;&gt;dir_4e3786dd8d5e48275f8c1d4f5b364f01</title>
<path fill="none" stroke="black" d="M86.0073,-46.7582C134.886,-55.1016 241.363,-72.0497 332,-78 432.45,-84.5946 689.499,-109.834 785,-78 792.643,-75.4523 800.049,-71.158 806.664,-66.405"/>
<polygon fill="black" stroke="black" points="808.843,-69.1446 814.578,-60.2362 804.539,-63.6237 808.843,-69.1446"/>
<a xlink:href="dir_000028_000006.html" target="_top" xlink:title="61">
<text text-anchor="middle" x="807.753" y="-71.0938" font-family="Helvetica,sans-Serif" font-size="10.00">61</text>
</a>
</g>
<!-- dir_896c4a0807fe2fd9f8c8a8fafdd8fbbb -->
<g id="node12" class="node"><title>dir_896c4a0807fe2fd9f8c8a8fafdd8fbbb</title>
<a xlink:href="dir_896c4a0807fe2fd9f8c8a8fafdd8fbbb.html" target="_top" xlink:title="gptimer">
<polygon fill="white" stroke="black" points="494,-132 440,-132 440,-96 494,-96 494,-132"/>
<text text-anchor="middle" x="467" y="-111.5" font-family="Helvetica,sans-Serif" font-size="10.00">gptimer</text>
</a>
</g>
<!-- dir_896c4a0807fe2fd9f8c8a8fafdd8fbbb&#45;&gt;dir_9f5fc7457524e67c366fc507d6b3318b -->
<g id="edge42" class="edge"><title>dir_896c4a0807fe2fd9f8c8a8fafdd8fbbb&#45;&gt;dir_9f5fc7457524e67c366fc507d6b3318b</title>
<path fill="none" stroke="black" d="M439.747,-95.8314C426.061,-86.7074 409.309,-75.539 394.617,-65.7449"/>
<polygon fill="black" stroke="black" points="396.506,-62.7977 386.244,-60.1628 392.623,-68.6221 396.506,-62.7977"/>
<a xlink:href="dir_000035_000041.html" target="_top" xlink:title="2">
<text text-anchor="middle" x="401.072" y="-59.9292" font-family="Helvetica,sans-Serif" font-size="10.00">2</text>
</a>
</g>
<!-- dir_896c4a0807fe2fd9f8c8a8fafdd8fbbb&#45;&gt;dir_4e3786dd8d5e48275f8c1d4f5b364f01 -->
<g id="edge44" class="edge"><title>dir_896c4a0807fe2fd9f8c8a8fafdd8fbbb&#45;&gt;dir_4e3786dd8d5e48275f8c1d4f5b364f01</title>
<path fill="none" stroke="black" d="M494.12,-99.2416C497.062,-98.0043 500.057,-96.8891 503,-96 627.751,-58.3147 668.675,-95.7322 794,-60 794.726,-59.793 795.456,-59.5742 796.188,-59.3448"/>
<polygon fill="black" stroke="black" points="797.512,-62.5875 805.707,-55.8728 795.113,-56.0112 797.512,-62.5875"/>
<a xlink:href="dir_000035_000006.html" target="_top" xlink:title="12">
<text text-anchor="middle" x="795.108" y="-63.9865" font-family="Helvetica,sans-Serif" font-size="10.00">12</text>
</a>
</g>
<!-- dir_a637a92c0c28dd976ed4c5e2bbf4e657 -->
<g id="node13" class="node"><title>dir_a637a92c0c28dd976ed4c5e2bbf4e657</title>
<a xlink:href="dir_a637a92c0c28dd976ed4c5e2bbf4e657.html" target="_top" xlink:title="irqmp">
<polygon fill="white" stroke="black" points="422,-132 368,-132 368,-96 422,-96 422,-132"/>
<text text-anchor="middle" x="395" y="-111.5" font-family="Helvetica,sans-Serif" font-size="10.00">irqmp</text>
</a>
</g>
<!-- dir_a637a92c0c28dd976ed4c5e2bbf4e657&#45;&gt;dir_9f5fc7457524e67c366fc507d6b3318b -->
<g id="edge16" class="edge"><title>dir_a637a92c0c28dd976ed4c5e2bbf4e657&#45;&gt;dir_9f5fc7457524e67c366fc507d6b3318b</title>
<path fill="none" stroke="black" d="M385.916,-95.8314C381.939,-87.8771 377.185,-78.369 372.786,-69.5723"/>
<polygon fill="black" stroke="black" points="375.809,-67.7923 368.207,-60.4133 369.548,-70.9228 375.809,-67.7923"/>
<a xlink:href="dir_000036_000041.html" target="_top" xlink:title="2">
<text text-anchor="middle" x="379.956" y="-67.2377" font-family="Helvetica,sans-Serif" font-size="10.00">2</text>
</a>
</g>
<!-- dir_a637a92c0c28dd976ed4c5e2bbf4e657&#45;&gt;dir_4e3786dd8d5e48275f8c1d4f5b364f01 -->
<g id="edge18" class="edge"><title>dir_a637a92c0c28dd976ed4c5e2bbf4e657&#45;&gt;dir_4e3786dd8d5e48275f8c1d4f5b364f01</title>
<path fill="none" stroke="black" d="M422.098,-99.1681C425.044,-97.9451 428.046,-96.8534 431,-96 586.755,-51.0013 637.561,-102.56 794,-60 794.729,-59.8018 795.46,-59.5911 796.194,-59.3692"/>
<polygon fill="black" stroke="black" points="797.493,-62.622 805.732,-55.9606 795.137,-56.0304 797.493,-62.622"/>
<a xlink:href="dir_000036_000006.html" target="_top" xlink:title="5">
<text text-anchor="middle" x="795.064" y="-64.0054" font-family="Helvetica,sans-Serif" font-size="10.00">5</text>
</a>
</g>
<!-- dir_15eca7ca9c2ecf91b847d2ca28e35fca -->
<g id="node14" class="node"><title>dir_15eca7ca9c2ecf91b847d2ca28e35fca</title>
<a xlink:href="dir_15eca7ca9c2ecf91b847d2ca28e35fca.html" target="_top" xlink:title="mctrl">
<polygon fill="white" stroke="black" points="710,-204 656,-204 656,-168 710,-168 710,-204"/>
<text text-anchor="middle" x="683" y="-183.5" font-family="Helvetica,sans-Serif" font-size="10.00">mctrl</text>
</a>
</g>
<!-- dir_15eca7ca9c2ecf91b847d2ca28e35fca&#45;&gt;dir_1b9f86a74df7ad66fc9707ed1c039e3b -->
<g id="edge40" class="edge"><title>dir_15eca7ca9c2ecf91b847d2ca28e35fca&#45;&gt;dir_1b9f86a74df7ad66fc9707ed1c039e3b</title>
<path fill="none" stroke="black" d="M701.169,-167.831C709.715,-159.285 720.056,-148.944 729.38,-139.62"/>
<polygon fill="black" stroke="black" points="731.991,-141.959 736.587,-132.413 727.041,-137.009 731.991,-141.959"/>
<a xlink:href="dir_000037_000034.html" target="_top" xlink:title="1">
<text text-anchor="middle" x="731.456" y="-144.009" font-family="Helvetica,sans-Serif" font-size="10.00">1</text>
</a>
</g>
<!-- dir_15eca7ca9c2ecf91b847d2ca28e35fca&#45;&gt;dir_9f5fc7457524e67c366fc507d6b3318b -->
<g id="edge36" class="edge"><title>dir_15eca7ca9c2ecf91b847d2ca28e35fca&#45;&gt;dir_9f5fc7457524e67c366fc507d6b3318b</title>
<path fill="none" stroke="black" d="M655.926,-171.084C652.975,-169.878 649.965,-168.813 647,-168 592.854,-153.162 181.259,-173.089 143,-132 88.2685,-73.2196 246.895,-51.5518 321.981,-44.7314"/>
<polygon fill="black" stroke="black" points="322.33,-48.2144 331.991,-43.8652 321.726,-41.2404 322.33,-48.2144"/>
<a xlink:href="dir_000037_000041.html" target="_top" xlink:title="4">
<text text-anchor="middle" x="318.993" y="-48.8529" font-family="Helvetica,sans-Serif" font-size="10.00">4</text>
</a>
</g>
<!-- dir_15eca7ca9c2ecf91b847d2ca28e35fca&#45;&gt;dir_4e3786dd8d5e48275f8c1d4f5b364f01 -->
<g id="edge38" class="edge"><title>dir_15eca7ca9c2ecf91b847d2ca28e35fca&#45;&gt;dir_4e3786dd8d5e48275f8c1d4f5b364f01</title>
<path fill="none" stroke="black" d="M710.341,-171.858C713.24,-170.501 716.165,-169.189 719,-168 764.497,-148.926 793.361,-170.666 824,-132 837.577,-114.866 839.049,-89.7505 837.566,-70.4022"/>
<polygon fill="black" stroke="black" points="841.033,-69.9081 836.497,-60.3337 834.073,-70.6475 841.033,-69.9081"/>
<a xlink:href="dir_000037_000006.html" target="_top" xlink:title="8">
<text text-anchor="middle" x="844.236" y="-70.6827" font-family="Helvetica,sans-Serif" font-size="10.00">8</text>
</a>
</g>
<!-- dir_1b9f86a74df7ad66fc9707ed1c039e3b&#45;&gt;dir_9f5fc7457524e67c366fc507d6b3318b -->
<g id="edge46" class="edge"><title>dir_1b9f86a74df7ad66fc9707ed1c039e3b&#45;&gt;dir_9f5fc7457524e67c366fc507d6b3318b</title>
<path fill="none" stroke="black" d="M727.893,-99.1989C724.948,-97.9699 721.949,-96.8683 719,-96 581.063,-55.3902 531.952,-103.661 395.629,-61.5973"/>
<polygon fill="black" stroke="black" points="396.683,-58.2597 386.092,-58.5526 394.554,-64.9281 396.683,-58.2597"/>
<a xlink:href="dir_000034_000041.html" target="_top" xlink:title="3">
<text text-anchor="middle" x="400.971" y="-54.1481" font-family="Helvetica,sans-Serif" font-size="10.00">3</text>
</a>
</g>
<!-- dir_1b9f86a74df7ad66fc9707ed1c039e3b&#45;&gt;dir_4e3786dd8d5e48275f8c1d4f5b364f01 -->
<g id="edge48" class="edge"><title>dir_1b9f86a74df7ad66fc9707ed1c039e3b&#45;&gt;dir_4e3786dd8d5e48275f8c1d4f5b364f01</title>
<path fill="none" stroke="black" d="M768.73,-95.8314C777.389,-87.0485 788.789,-76.3712 799.627,-66.8489"/>
<polygon fill="black" stroke="black" points="802.089,-69.3469 807.372,-60.1628 797.515,-64.0482 802.089,-69.3469"/>
<a xlink:href="dir_000034_000006.html" target="_top" xlink:title="13">
<text text-anchor="middle" x="801.224" y="-71.345" font-family="Helvetica,sans-Serif" font-size="10.00">13</text>
</a>
</g>
<!-- dir_59eb369517ed1b1a384c663ec930a03a&#45;&gt;dir_7a8cd385d81f115df1ef2d4e6e74c7ad -->
<g id="edge14" class="edge"><title>dir_59eb369517ed1b1a384c663ec930a03a&#45;&gt;dir_7a8cd385d81f115df1ef2d4e6e74c7ad</title>
<path fill="none" stroke="black" d="M53.0476,-95.8314C52.2972,-88.131 52.0763,-78.9743 52.3849,-70.4166"/>
<polygon fill="black" stroke="black" points="55.8792,-70.6161 53.024,-60.4133 48.8935,-70.1697 55.8792,-70.6161"/>
<a xlink:href="dir_000038_000028.html" target="_top" xlink:title="1">
<text text-anchor="middle" x="58.4836" y="-71.8844" font-family="Helvetica,sans-Serif" font-size="10.00">1</text>
</a>
</g>
<!-- dir_59eb369517ed1b1a384c663ec930a03a&#45;&gt;dir_9f5fc7457524e67c366fc507d6b3318b -->
<g id="edge10" class="edge"><title>dir_59eb369517ed1b1a384c663ec930a03a&#45;&gt;dir_9f5fc7457524e67c366fc507d6b3318b</title>
<path fill="none" stroke="black" d="M94.133,-100.424C98.7641,-98.8326 103.473,-97.3113 108,-96 182.944,-74.2891 272.755,-57.021 322.06,-48.2711"/>
<polygon fill="black" stroke="black" points="322.703,-51.7119 331.947,-46.5347 321.492,-44.8174 322.703,-51.7119"/>
<a xlink:href="dir_000038_000041.html" target="_top" xlink:title="6">
<text text-anchor="middle" x="319.653" y="-52.6301" font-family="Helvetica,sans-Serif" font-size="10.00">6</text>
</a>
</g>
<!-- dir_59eb369517ed1b1a384c663ec930a03a&#45;&gt;dir_4e3786dd8d5e48275f8c1d4f5b364f01 -->
<g id="edge12" class="edge"><title>dir_59eb369517ed1b1a384c663ec930a03a&#45;&gt;dir_4e3786dd8d5e48275f8c1d4f5b364f01</title>
<path fill="none" stroke="black" d="M94.3444,-105.146C109.267,-101.742 126.887,-98.1585 143,-96 430.21,-57.5251 512.796,-129.957 794,-60 794.733,-59.8177 795.468,-59.6217 796.206,-59.4133"/>
<polygon fill="black" stroke="black" points="797.457,-62.6842 805.773,-56.1193 795.178,-56.0655 797.457,-62.6842"/>
<a xlink:href="dir_000038_000006.html" target="_top" xlink:title="49">
<text text-anchor="middle" x="794.983" y="-64.039" font-family="Helvetica,sans-Serif" font-size="10.00">49</text>
</a>
</g>
<!-- dir_9f5fc7457524e67c366fc507d6b3318b&#45;&gt;dir_4e3786dd8d5e48275f8c1d4f5b364f01 -->
<g id="edge4" class="edge"><title>dir_9f5fc7457524e67c366fc507d6b3318b&#45;&gt;dir_4e3786dd8d5e48275f8c1d4f5b364f01</title>
<path fill="none" stroke="black" d="M386.311,-42C522.777,-42 659.243,-42 795.709,-42"/>
<polygon fill="black" stroke="black" points="795.954,-45.5001 805.954,-42 795.954,-38.5001 795.954,-45.5001"/>
<a xlink:href="dir_000041_000006.html" target="_top" xlink:title="19">
<text text-anchor="middle" x="792.36" y="-45.8393" font-family="Helvetica,sans-Serif" font-size="10.00">19</text>
</a>
</g>
<!-- dir_4e3786dd8d5e48275f8c1d4f5b364f01&#45;&gt;dir_c2e3af42ef6b68cd055bba484bf76a7e -->
<g id="edge22" class="edge"><title>dir_4e3786dd8d5e48275f8c1d4f5b364f01&#45;&gt;dir_c2e3af42ef6b68cd055bba484bf76a7e</title>
<path fill="none" stroke="black" d="M847.497,-60.3312C860.623,-79.327 875.939,-109.352 862,-132 846.855,-156.608 816.656,-170.409 792.191,-177.886"/>
<polygon fill="black" stroke="black" points="791.136,-174.547 782.46,-180.628 793.034,-181.284 791.136,-174.547"/>
<a xlink:href="dir_000006_000020.html" target="_top" xlink:title="3">
<text text-anchor="middle" x="793.826" y="-168.339" font-family="Helvetica,sans-Serif" font-size="10.00">3</text>
</a>
</g>
<!-- dir_4e3786dd8d5e48275f8c1d4f5b364f01&#45;&gt;dir_1b9f86a74df7ad66fc9707ed1c039e3b -->
<g id="edge24" class="edge"><title>dir_4e3786dd8d5e48275f8c1d4f5b364f01&#45;&gt;dir_1b9f86a74df7ad66fc9707ed1c039e3b</title>
<path fill="none" stroke="black" d="M819.028,-60.4133C810.385,-69.1637 799.073,-79.7519 788.32,-89.1978"/>
<polygon fill="black" stroke="black" points="785.918,-86.6476 780.635,-95.8314 790.492,-91.9465 785.918,-86.6476"/>
<a xlink:href="dir_000006_000034.html" target="_top" xlink:title="2">
<text text-anchor="middle" x="786.784" y="-79.6495" font-family="Helvetica,sans-Serif" font-size="10.00">2</text>
</a>
</g>
<!-- dir_4e3786dd8d5e48275f8c1d4f5b364f01&#45;&gt;dir_9f5fc7457524e67c366fc507d6b3318b -->
<g id="edge20" class="edge"><title>dir_4e3786dd8d5e48275f8c1d4f5b364f01&#45;&gt;dir_9f5fc7457524e67c366fc507d6b3318b</title>
<path fill="none" stroke="black" d="M805.954,-42C669.488,-42 533.022,-42 396.556,-42"/>
<polygon fill="black" stroke="black" points="396.311,-38.5001 386.311,-42 396.311,-45.5001 396.311,-38.5001"/>
<a xlink:href="dir_000006_000041.html" target="_top" xlink:title="1">
<text text-anchor="middle" x="399.905" y="-33.1607" font-family="Helvetica,sans-Serif" font-size="10.00">1</text>
</a>
</g>
</g>
</svg>
