<?xml version="1.0" encoding="UTF-8" standalone="no"?>
<!DOCTYPE svg PUBLIC "-//W3C//DTD SVG 1.1//EN"
 "http://www.w3.org/Graphics/SVG/1.1/DTD/svg11.dtd">
<!-- Generated by graphviz version 2.38.0 (20140413.2041)
 -->
<!-- Title: core/models/extern/LEON3/simulatorSources/leon3.funclt Pages: 1 -->
<svg width="129pt" height="222pt"
 viewBox="0.00 0.00 129.23 222.00" xmlns="http://www.w3.org/2000/svg" xmlns:xlink="http://www.w3.org/1999/xlink">
<g id="graph0" class="graph" transform="scale(1 1) rotate(0) translate(4 218)">
<title>core/models/extern/LEON3/simulatorSources/leon3.funclt</title>
<polygon fill="white" stroke="none" points="-4,4 -4,-218 125.234,-218 125.234,4 -4,4"/>
<g id="clust1" class="cluster"><title>clusterdir_79ddb11dd4a55f2c7a6f86406f7ae79b</title>
<g id="a_clust1"><a xlink:href="dir_79ddb11dd4a55f2c7a6f86406f7ae79b.html" target="_top" xlink:title="simulatorSources">
<polygon fill="#ddddee" stroke="black" points="8,-136 8,-206 101,-206 101,-136 8,-136"/>
<text text-anchor="middle" x="54.5" y="-194" font-family="Helvetica,sans-Serif" font-size="10.00">simulatorSources</text>
</a>
</g>
</g>
<!-- dir_3a6429522c2dc128990816a0e3d532ac -->
<g id="node1" class="node"><title>dir_3a6429522c2dc128990816a0e3d532ac</title>
<g id="a_node1"><a xlink:href="dir_3a6429522c2dc128990816a0e3d532ac.html" target="_top" xlink:title="leon3.funclt">
<polygon fill="#eeeeff" stroke="black" points="87.6476,-180 20.3524,-180 20.3524,-144 87.6476,-144 87.6476,-180"/>
<text text-anchor="middle" x="54" y="-159" font-family="Helvetica,sans-Serif" font-size="10.00">leon3.funclt</text>
</a>
</g>
</g>
<!-- dir_dba1fd775dd340d1b0ec731a4b16cfe9 -->
<g id="node2" class="node"><title>dir_dba1fd775dd340d1b0ec731a4b16cfe9</title>
<g id="a_node2"><a xlink:href="dir_dba1fd775dd340d1b0ec731a4b16cfe9.html" target="_top" xlink:title="common">
<polygon fill="white" stroke="red" points="81.3458,-36 26.6542,-36 26.6542,-0 81.3458,-0 81.3458,-36"/>
<text text-anchor="middle" x="54" y="-15" font-family="Helvetica,sans-Serif" font-size="10.00">common</text>
</a>
</g>
</g>
<!-- dir_3a6429522c2dc128990816a0e3d532ac&#45;&gt;dir_dba1fd775dd340d1b0ec731a4b16cfe9 -->
<g id="edge2" class="edge"><title>dir_3a6429522c2dc128990816a0e3d532ac&#45;&gt;dir_dba1fd775dd340d1b0ec731a4b16cfe9</title>
<path fill="none" stroke="black" d="M49.1309,-143.979C46.4358,-133.665 43.3626,-120.189 42,-108 40.2224,-92.0991 40.2224,-87.9009 42,-72 42.9581,-63.4299 44.7618,-54.2228 46.6852,-45.9264"/>
<polygon fill="black" stroke="black" points="50.1318,-46.5684 49.1309,-36.0209 43.3358,-44.8904 50.1318,-46.5684"/>
<g id="a_edge2&#45;headlabel"><a xlink:href="dir_000032_000006.html" target="_top" xlink:title="61">
<text text-anchor="middle" x="52.0267" y="-47.7387" font-family="Helvetica,sans-Serif" font-size="10.00">61</text>
</a>
</g>
</g>
<!-- dir_4acb9f0675bb779793c4c88ede0e4ef1 -->
<g id="node3" class="node"><title>dir_4acb9f0675bb779793c4c88ede0e4ef1</title>
<g id="a_node3"><a xlink:href="dir_4acb9f0675bb779793c4c88ede0e4ef1.html" target="_top" xlink:title="mmu_cache">
<polygon fill="white" stroke="red" points="121.469,-108 50.5307,-108 50.5307,-72 121.469,-72 121.469,-108"/>
<text text-anchor="middle" x="86" y="-87" font-family="Helvetica,sans-Serif" font-size="10.00">mmu_cache</text>
</a>
</g>
</g>
<!-- dir_3a6429522c2dc128990816a0e3d532ac&#45;&gt;dir_4acb9f0675bb779793c4c88ede0e4ef1 -->
<g id="edge3" class="edge"><title>dir_3a6429522c2dc128990816a0e3d532ac&#45;&gt;dir_4acb9f0675bb779793c4c88ede0e4ef1</title>
<path fill="none" stroke="black" d="M61.9101,-143.697C65.5527,-135.728 69.9545,-126.1 73.9935,-117.264"/>
<polygon fill="black" stroke="black" points="77.2064,-118.654 78.1809,-108.104 70.8401,-115.744 77.2064,-118.654"/>
<g id="a_edge3&#45;headlabel"><a xlink:href="dir_000032_000039.html" target="_top" xlink:title="2">
<text text-anchor="middle" x="78.2942" y="-120.104" font-family="Helvetica,sans-Serif" font-size="10.00">2</text>
</a>
</g>
</g>
<!-- dir_4acb9f0675bb779793c4c88ede0e4ef1&#45;&gt;dir_dba1fd775dd340d1b0ec731a4b16cfe9 -->
<g id="edge1" class="edge"><title>dir_4acb9f0675bb779793c4c88ede0e4ef1&#45;&gt;dir_dba1fd775dd340d1b0ec731a4b16cfe9</title>
<path fill="none" stroke="black" d="M78.0899,-71.6966C74.4473,-63.7284 70.0455,-54.0995 66.0065,-45.2641"/>
<polygon fill="black" stroke="black" points="69.1599,-43.7439 61.8191,-36.1043 62.7936,-46.6543 69.1599,-43.7439"/>
<g id="a_edge1&#45;headlabel"><a xlink:href="dir_000039_000006.html" target="_top" xlink:title="49">
<text text-anchor="middle" x="73.2366" y="-42.8327" font-family="Helvetica,sans-Serif" font-size="10.00">49</text>
</a>
</g>
</g>
</g>
</svg>
