<?xml version="1.0" encoding="UTF-8" standalone="no"?>
<!DOCTYPE svg PUBLIC "-//W3C//DTD SVG 1.1//EN"
 "http://www.w3.org/Graphics/SVG/1.1/DTD/svg11.dtd">
<!-- Generated by graphviz version 2.26.0 (20091210.2329)
 -->
<!-- Title: core/models/extern/LEON3/simulatorSources Pages: 1 -->
<svg width="148pt" height="305pt"
 viewBox="0.00 0.00 148.00 305.00" xmlns="http://www.w3.org/2000/svg" xmlns:xlink="http://www.w3.org/1999/xlink">
<g id="graph1" class="graph" transform="scale(1 1) rotate(0) translate(4 301)">
<title>core/models/extern/LEON3/simulatorSources</title>
<polygon fill="white" stroke="white" points="-4,5 -4,-301 145,-301 145,5 -4,5"/>
<g id="graph2" class="cluster"><title>clusterdir_f2f8db6a2fb6137933f2d40bf9128a7f</title>
<a xlink:href="dir_f2f8db6a2fb6137933f2d40bf9128a7f.html" target="_top" xlink:title="LEON3">
<polygon fill="#ddddee" stroke="black" points="8,-128 8,-289 132,-289 132,-128 8,-128"/>
<text text-anchor="middle" x="70" y="-276" font-family="Helvetica,sans-Serif" font-size="10.00">LEON3</text>
</a>
</g>
<g id="graph3" class="cluster"><title>clusterdir_7db04bec3830f57c8256fce9552c5d31</title>
<a xlink:href="dir_7db04bec3830f57c8256fce9552c5d31.html" target="_top">
<polygon fill="#eeeeff" stroke="black" points="16,-136 16,-260 124,-260 124,-136 16,-136"/>
</a>
</g>
<!-- dir_7db04bec3830f57c8256fce9552c5d31 -->
<g id="node3" class="node"><title>dir_7db04bec3830f57c8256fce9552c5d31</title>
<text text-anchor="middle" x="70" y="-231.5" font-family="Helvetica,sans-Serif" font-size="10.00">simulatorSources</text>
</g>
<!-- dir_ba6e71e09f297e63a18ff2903b0686d7 -->
<g id="node4" class="node"><title>dir_ba6e71e09f297e63a18ff2903b0686d7</title>
<a xlink:href="dir_ba6e71e09f297e63a18ff2903b0686d7.html" target="_top" xlink:title="leon3.funclt">
<polygon fill="white" stroke="black" points="103,-180 37,-180 37,-144 103,-144 103,-180"/>
<text text-anchor="middle" x="70" y="-159.5" font-family="Helvetica,sans-Serif" font-size="10.00">leon3.funclt</text>
</a>
</g>
<!-- dir_7db04bec3830f57c8256fce9552c5d31&#45;&gt;dir_ba6e71e09f297e63a18ff2903b0686d7 -->
<g id="edge10" class="edge"><title>dir_7db04bec3830f57c8256fce9552c5d31&#45;&gt;dir_ba6e71e09f297e63a18ff2903b0686d7</title>
<path fill="none" stroke="black" d="M70,-215.831C70,-208.131 70,-198.974 70,-190.417"/>
<polygon fill="black" stroke="black" points="73.5001,-190.413 70,-180.413 66.5001,-190.413 73.5001,-190.413"/>
<a xlink:href="dir_000030_000031.html" target="_top" xlink:title="1">
<text text-anchor="middle" x="76.3393" y="-191.508" font-family="Helvetica,sans-Serif" font-size="10.00">1</text>
</a>
</g>
<!-- dir_59eb369517ed1b1a384c663ec930a03a -->
<g id="node5" class="node"><title>dir_59eb369517ed1b1a384c663ec930a03a</title>
<a xlink:href="dir_59eb369517ed1b1a384c663ec930a03a.html" target="_top" xlink:title="mmu_cache">
<polygon fill="white" stroke="red" points="74,-108 4,-108 4,-72 74,-72 74,-108"/>
<text text-anchor="middle" x="39" y="-87.5" font-family="Helvetica,sans-Serif" font-size="10.00">mmu_cache</text>
</a>
</g>
<!-- dir_ba6e71e09f297e63a18ff2903b0686d7&#45;&gt;dir_59eb369517ed1b1a384c663ec930a03a -->
<g id="edge6" class="edge"><title>dir_ba6e71e09f297e63a18ff2903b0686d7&#45;&gt;dir_59eb369517ed1b1a384c663ec930a03a</title>
<path fill="none" stroke="black" d="M62.1774,-143.831C58.7891,-135.962 54.7459,-126.571 50.9924,-117.853"/>
<polygon fill="black" stroke="black" points="54.0973,-116.214 46.9279,-108.413 47.6679,-118.982 54.0973,-116.214"/>
<a xlink:href="dir_000031_000038.html" target="_top" xlink:title="2">
<text text-anchor="middle" x="58.1266" y="-115.893" font-family="Helvetica,sans-Serif" font-size="10.00">2</text>
</a>
</g>
<!-- dir_4e3786dd8d5e48275f8c1d4f5b364f01 -->
<g id="node6" class="node"><title>dir_4e3786dd8d5e48275f8c1d4f5b364f01</title>
<a xlink:href="dir_4e3786dd8d5e48275f8c1d4f5b364f01.html" target="_top" xlink:title="common">
<polygon fill="white" stroke="red" points="97,-36 43,-36 43,-1.77636e-14 97,-3.55271e-15 97,-36"/>
<text text-anchor="middle" x="70" y="-15.5" font-family="Helvetica,sans-Serif" font-size="10.00">common</text>
</a>
</g>
<!-- dir_ba6e71e09f297e63a18ff2903b0686d7&#45;&gt;dir_4e3786dd8d5e48275f8c1d4f5b364f01 -->
<g id="edge8" class="edge"><title>dir_ba6e71e09f297e63a18ff2903b0686d7&#45;&gt;dir_4e3786dd8d5e48275f8c1d4f5b364f01</title>
<path fill="none" stroke="black" d="M75.5446,-143.701C78.3965,-133.335 81.5681,-120.065 83,-108 84.8856,-92.1115 84.8856,-87.8885 83,-72 81.9932,-63.5166 80.1264,-54.4376 78.1153,-46.1913"/>
<polygon fill="black" stroke="black" points="81.4472,-45.0971 75.5446,-36.2988 74.6722,-46.8576 81.4472,-45.0971"/>
<a xlink:href="dir_000031_000006.html" target="_top" xlink:title="61">
<text text-anchor="middle" x="85.0992" y="-45.3621" font-family="Helvetica,sans-Serif" font-size="10.00">61</text>
</a>
</g>
<!-- dir_59eb369517ed1b1a384c663ec930a03a&#45;&gt;dir_4e3786dd8d5e48275f8c1d4f5b364f01 -->
<g id="edge4" class="edge"><title>dir_59eb369517ed1b1a384c663ec930a03a&#45;&gt;dir_4e3786dd8d5e48275f8c1d4f5b364f01</title>
<path fill="none" stroke="black" d="M46.8226,-71.8314C50.2109,-63.9617 54.2541,-54.5712 58.0076,-45.8533"/>
<polygon fill="black" stroke="black" points="61.3321,-46.9822 62.0721,-36.4133 54.9027,-44.214 61.3321,-46.9822"/>
<a xlink:href="dir_000038_000006.html" target="_top" xlink:title="49">
<text text-anchor="middle" x="62.5185" y="-48.9066" font-family="Helvetica,sans-Serif" font-size="10.00">49</text>
</a>
</g>
</g>
</svg>
