<?xml version="1.0" encoding="UTF-8" standalone="no"?>
<!DOCTYPE svg PUBLIC "-//W3C//DTD SVG 1.1//EN"
 "http://www.w3.org/Graphics/SVG/1.1/DTD/svg11.dtd">
<!-- Generated by graphviz version 2.26.0 (20091210.2329)
 -->
<!-- Title: core/software/prom Pages: 1 -->
<svg width="254pt" height="113pt"
 viewBox="0.00 0.00 254.00 113.00" xmlns="http://www.w3.org/2000/svg" xmlns:xlink="http://www.w3.org/1999/xlink">
<g id="graph1" class="graph" transform="scale(1 1) rotate(0) translate(4 109)">
<title>core/software/prom</title>
<polygon fill="white" stroke="white" points="-4,5 -4,-109 251,-109 251,5 -4,5"/>
<g id="graph2" class="cluster"><title>clusterdir_37b063e5053086ce86cb60ba95c43de7</title>
<a xlink:href="dir_37b063e5053086ce86cb60ba95c43de7.html" target="_top" xlink:title="software">
<polygon fill="#ddddee" stroke="black" points="8,-8 8,-97 238,-97 238,-8 8,-8"/>
<text text-anchor="middle" x="123" y="-84" font-family="Helvetica,sans-Serif" font-size="10.00">software</text>
</a>
</g>
<g id="graph3" class="cluster"><title>clusterdir_b2935dfda1b9b7f362a7071adfd8a183</title>
<a xlink:href="dir_b2935dfda1b9b7f362a7071adfd8a183.html" target="_top">
<polygon fill="#eeeeff" stroke="black" points="16,-16 16,-68 230,-68 230,-16 16,-16"/>
</a>
</g>
<!-- dir_b2935dfda1b9b7f362a7071adfd8a183 -->
<g id="node3" class="node"><title>dir_b2935dfda1b9b7f362a7071adfd8a183</title>
<text text-anchor="middle" x="195" y="-39.5" font-family="Helvetica,sans-Serif" font-size="10.00">prom</text>
</g>
<!-- dir_5d8da95eb7a47381c526a8572ae2985c -->
<g id="node4" class="node"><title>dir_5d8da95eb7a47381c526a8572ae2985c</title>
<a xlink:href="dir_5d8da95eb7a47381c526a8572ae2985c.html" target="_top" xlink:title="sdram">
<polygon fill="white" stroke="black" points="150,-60 96,-60 96,-24 150,-24 150,-60"/>
<text text-anchor="middle" x="123" y="-39.5" font-family="Helvetica,sans-Serif" font-size="10.00">sdram</text>
</a>
</g>
<!-- dir_cc88300856ee74f66cd5027f261e54ed -->
<g id="node5" class="node"><title>dir_cc88300856ee74f66cd5027f261e54ed</title>
<a xlink:href="dir_cc88300856ee74f66cd5027f261e54ed.html" target="_top" xlink:title="sram">
<polygon fill="white" stroke="black" points="78,-60 24,-60 24,-24 78,-24 78,-60"/>
<text text-anchor="middle" x="51" y="-39.5" font-family="Helvetica,sans-Serif" font-size="10.00">sram</text>
</a>
</g>
</g>
</svg>
