<?xml version="1.0" encoding="UTF-8" standalone="no"?>
<!DOCTYPE svg PUBLIC "-//W3C//DTD SVG 1.1//EN"
 "http://www.w3.org/Graphics/SVG/1.1/DTD/svg11.dtd">
<!-- Generated by graphviz version 2.36.0 (20140111.2315)
 -->
<!-- Title: pysc Pages: 1 -->
<svg width="310pt" height="204pt"
 viewBox="0.00 0.00 310.00 204.00" xmlns="http://www.w3.org/2000/svg" xmlns:xlink="http://www.w3.org/1999/xlink">
<g id="graph0" class="graph" transform="scale(1 1) rotate(0) translate(4 200)">
<title>pysc</title>
<polygon fill="white" stroke="none" points="-4,4 -4,-200 306,-200 306,4 -4,4"/>
<g id="clust1" class="cluster"><title>clusterdir_80a346f3be42f0136d52af701107c7ac</title>
<g id="a_clust1"><a xlink:href="dir_80a346f3be42f0136d52af701107c7ac.html" target="_top">
<polygon fill="#eeeeff" stroke="black" points="8,-64 8,-188 294,-188 294,-64 8,-64"/>
</a>
</g>
</g>
<!-- dir_80a346f3be42f0136d52af701107c7ac -->
<g id="node1" class="node"><title>dir_80a346f3be42f0136d52af701107c7ac</title>
<text text-anchor="middle" x="259" y="-159.5" font-family="Helvetica,sans-Serif" font-size="10.00">pysc</text>
</g>
<!-- dir_3fc6f6d09e1a9d7daef6a560178b2341 -->
<g id="node4" class="node"><title>dir_3fc6f6d09e1a9d7daef6a560178b2341</title>
<g id="a_node4"><a xlink:href="dir_3fc6f6d09e1a9d7daef6a560178b2341.html" target="_top" xlink:title="usi">
<polygon fill="white" stroke="red" points="286,-108 232,-108 232,-72 286,-72 286,-108"/>
<text text-anchor="middle" x="259" y="-87.5" font-family="Helvetica,sans-Serif" font-size="10.00">usi</text>
</a>
</g>
</g>
<!-- dir_80a346f3be42f0136d52af701107c7ac&#45;&gt;dir_3fc6f6d09e1a9d7daef6a560178b2341 -->
<g id="edge2" class="edge"><title>dir_80a346f3be42f0136d52af701107c7ac&#45;&gt;dir_3fc6f6d09e1a9d7daef6a560178b2341</title>
<path fill="none" stroke="black" d="M259,-143.697C259,-135.983 259,-126.712 259,-118.112"/>
<polygon fill="black" stroke="black" points="262.5,-118.104 259,-108.104 255.5,-118.104 262.5,-118.104"/>
<g id="a_edge2&#45;headlabel"><a xlink:href="dir_000006_000009.html" target="_top" xlink:title="3">
<text text-anchor="middle" x="265.339" y="-119.199" font-family="Helvetica,sans-Serif" font-size="10.00">3</text>
</a>
</g>
</g>
<!-- dir_77357cd35f285134375eb0ec16eb19b9 -->
<g id="node2" class="node"><title>dir_77357cd35f285134375eb0ec16eb19b9</title>
<g id="a_node2"><a xlink:href="dir_77357cd35f285134375eb0ec16eb19b9.html" target="_top" xlink:title="tests">
<polygon fill="white" stroke="red" points="214,-180 160,-180 160,-144 214,-144 214,-180"/>
<text text-anchor="middle" x="187" y="-159.5" font-family="Helvetica,sans-Serif" font-size="10.00">tests</text>
</a>
</g>
</g>
<!-- dir_a1a3768349e74f03c2bf189726f28a00 -->
<g id="node3" class="node"><title>dir_a1a3768349e74f03c2bf189726f28a00</title>
<g id="a_node3"><a xlink:href="dir_a1a3768349e74f03c2bf189726f28a00.html" target="_top" xlink:title="tools">
<polygon fill="white" stroke="red" points="142,-180 88,-180 88,-144 142,-144 142,-180"/>
<text text-anchor="middle" x="115" y="-159.5" font-family="Helvetica,sans-Serif" font-size="10.00">tools</text>
</a>
</g>
</g>
<!-- dir_4270bfced15e0e73154b13468c7c9ad9 -->
<g id="node6" class="node"><title>dir_4270bfced15e0e73154b13468c7c9ad9</title>
<g id="a_node6"><a xlink:href="dir_4270bfced15e0e73154b13468c7c9ad9.html" target="_top" xlink:title="core">
<polygon fill="white" stroke="red" points="286,-36 232,-36 232,-0 286,-0 286,-36"/>
<text text-anchor="middle" x="259" y="-15.5" font-family="Helvetica,sans-Serif" font-size="10.00">core</text>
</a>
</g>
</g>
<!-- dir_3fc6f6d09e1a9d7daef6a560178b2341&#45;&gt;dir_4270bfced15e0e73154b13468c7c9ad9 -->
<g id="edge1" class="edge"><title>dir_3fc6f6d09e1a9d7daef6a560178b2341&#45;&gt;dir_4270bfced15e0e73154b13468c7c9ad9</title>
<path fill="none" stroke="black" d="M259,-71.6966C259,-63.9827 259,-54.7125 259,-46.1124"/>
<polygon fill="black" stroke="black" points="262.5,-46.1043 259,-36.1043 255.5,-46.1044 262.5,-46.1043"/>
<g id="a_edge1&#45;headlabel"><a xlink:href="dir_000009_000000.html" target="_top" xlink:title="8">
<text text-anchor="middle" x="265.339" y="-47.199" font-family="Helvetica,sans-Serif" font-size="10.00">8</text>
</a>
</g>
</g>
<!-- dir_8f3b1a4c085590d61fcb06b5c8f582b7 -->
<g id="node5" class="node"><title>dir_8f3b1a4c085590d61fcb06b5c8f582b7</title>
<g id="a_node5"><a xlink:href="dir_8f3b1a4c085590d61fcb06b5c8f582b7.html" target="_top" xlink:title="waf">
<polygon fill="white" stroke="black" points="70,-180 16,-180 16,-144 70,-144 70,-180"/>
<text text-anchor="middle" x="43" y="-159.5" font-family="Helvetica,sans-Serif" font-size="10.00">waf</text>
</a>
</g>
</g>
</g>
</svg>
