<?xml version="1.0" encoding="UTF-8" standalone="no"?>
<!DOCTYPE svg PUBLIC "-//W3C//DTD SVG 1.1//EN"
 "http://www.w3.org/Graphics/SVG/1.1/DTD/svg11.dtd">
<!-- Generated by graphviz version 2.38.0 (20140413.2041)
 -->
<!-- Title: core/common/trapgen/elfloader/elfFrontend.cpp Pages: 1 -->
<svg width="1476pt" height="229pt"
 viewBox="0.00 0.00 1476.31 229.00" xmlns="http://www.w3.org/2000/svg" xmlns:xlink="http://www.w3.org/1999/xlink">
<g id="graph0" class="graph" transform="scale(1 1) rotate(0) translate(4 225)">
<title>core/common/trapgen/elfloader/elfFrontend.cpp</title>
<polygon fill="white" stroke="none" points="-4,4 -4,-225 1472.31,-225 1472.31,4 -4,4"/>
<!-- Node1 -->
<g id="node1" class="node"><title>Node1</title>
<polygon fill="#bfbfbf" stroke="black" points="577.314,-190.5 577.314,-220.5 704.314,-220.5 704.314,-190.5 577.314,-190.5"/>
<text text-anchor="start" x="585.314" y="-208.5" font-family="Helvetica,sans-Serif" font-size="10.00">core/common/trapgen</text>
<text text-anchor="middle" x="640.814" y="-197.5" font-family="Helvetica,sans-Serif" font-size="10.00">/elfloader/elfFrontend.cpp</text>
</g>
<!-- Node2 -->
<g id="node2" class="node"><title>Node2</title>
<polygon fill="white" stroke="#bfbfbf" points="143.314,-62 143.314,-81 184.314,-81 184.314,-62 143.314,-62"/>
<text text-anchor="middle" x="163.814" y="-69" font-family="Helvetica,sans-Serif" font-size="10.00">gelf.h</text>
</g>
<!-- Node1&#45;&gt;Node2 -->
<g id="edge1" class="edge"><title>Node1&#45;&gt;Node2</title>
<path fill="none" stroke="midnightblue" d="M577.126,-202.511C452.145,-197.95 184.455,-184.675 156.814,-154 141.484,-136.988 148.244,-109.072 155.347,-90.7377"/>
<polygon fill="midnightblue" stroke="midnightblue" points="158.61,-92.0088 159.298,-81.4363 152.167,-89.2723 158.61,-92.0088"/>
</g>
<!-- Node3 -->
<g id="node3" class="node"><title>Node3</title>
<polygon fill="white" stroke="#bfbfbf" points="824.314,-0.5 824.314,-19.5 869.314,-19.5 869.314,-0.5 824.314,-0.5"/>
<text text-anchor="middle" x="846.814" y="-7.5" font-family="Helvetica,sans-Serif" font-size="10.00">cstdlib</text>
</g>
<!-- Node1&#45;&gt;Node3 -->
<g id="edge2" class="edge"><title>Node1&#45;&gt;Node3</title>
<path fill="none" stroke="midnightblue" d="M634.681,-190.34C628.028,-172.528 620.286,-141.982 635.814,-123 686.917,-60.5261 751.071,-137.774 813.814,-87 831.425,-72.748 839.857,-47.2656 843.739,-29.7661"/>
<polygon fill="midnightblue" stroke="midnightblue" points="847.239,-30.0974 845.683,-19.6174 840.364,-28.7802 847.239,-30.0974"/>
</g>
<!-- Node4 -->
<g id="node4" class="node"><title>Node4</title>
<polygon fill="white" stroke="#bfbfbf" points="644.314,-129 644.314,-148 687.314,-148 687.314,-129 644.314,-129"/>
<text text-anchor="middle" x="665.814" y="-136" font-family="Helvetica,sans-Serif" font-size="10.00">cstdio</text>
</g>
<!-- Node1&#45;&gt;Node4 -->
<g id="edge3" class="edge"><title>Node1&#45;&gt;Node4</title>
<path fill="none" stroke="midnightblue" d="M646.238,-190.396C649.943,-180.763 654.885,-167.914 658.876,-157.537"/>
<polygon fill="midnightblue" stroke="midnightblue" points="662.146,-158.784 662.47,-148.195 655.613,-156.272 662.146,-158.784"/>
</g>
<!-- Node5 -->
<g id="node5" class="node"><title>Node5</title>
<polygon fill="white" stroke="#bfbfbf" points="705.814,-129 705.814,-148 751.814,-148 751.814,-129 705.814,-129"/>
<text text-anchor="middle" x="728.814" y="-136" font-family="Helvetica,sans-Serif" font-size="10.00">cstring</text>
</g>
<!-- Node1&#45;&gt;Node5 -->
<g id="edge4" class="edge"><title>Node1&#45;&gt;Node5</title>
<path fill="none" stroke="midnightblue" d="M659.908,-190.396C674.392,-179.697 694.245,-165.033 708.922,-154.193"/>
<polygon fill="midnightblue" stroke="midnightblue" points="711.332,-156.764 717.296,-148.007 707.173,-151.133 711.332,-156.764"/>
</g>
<!-- Node6 -->
<g id="node6" class="node"><title>Node6</title>
<polygon fill="white" stroke="#bfbfbf" points="770.314,-129 770.314,-148 819.314,-148 819.314,-129 770.314,-129"/>
<text text-anchor="middle" x="794.814" y="-136" font-family="Helvetica,sans-Serif" font-size="10.00">cstdarg</text>
</g>
<!-- Node1&#45;&gt;Node6 -->
<g id="edge5" class="edge"><title>Node1&#45;&gt;Node6</title>
<path fill="none" stroke="midnightblue" d="M674.453,-190.394C698.519,-180.29 731.676,-166.344 760.814,-154 762.217,-153.405 763.653,-152.796 765.102,-152.181"/>
<polygon fill="midnightblue" stroke="midnightblue" points="766.853,-155.239 774.685,-148.103 764.112,-148.798 766.853,-155.239"/>
</g>
<!-- Node7 -->
<g id="node7" class="node"><title>Node7</title>
<polygon fill="white" stroke="#bfbfbf" points="837.814,-129 837.814,-148 905.814,-148 905.814,-129 837.814,-129"/>
<text text-anchor="middle" x="871.814" y="-136" font-family="Helvetica,sans-Serif" font-size="10.00">sys/types.h</text>
</g>
<!-- Node1&#45;&gt;Node7 -->
<g id="edge6" class="edge"><title>Node1&#45;&gt;Node7</title>
<path fill="none" stroke="midnightblue" d="M696.601,-190.495C734.142,-180.831 784.659,-167.361 828.814,-154 831.736,-153.116 834.758,-152.167 837.784,-151.194"/>
<polygon fill="midnightblue" stroke="midnightblue" points="838.936,-154.499 847.341,-148.049 836.748,-147.85 838.936,-154.499"/>
</g>
<!-- Node8 -->
<g id="node8" class="node"><title>Node8</title>
<polygon fill="white" stroke="#bfbfbf" points="923.814,-129 923.814,-148 983.814,-148 983.814,-129 923.814,-129"/>
<text text-anchor="middle" x="953.814" y="-136" font-family="Helvetica,sans-Serif" font-size="10.00">sys/stat.h</text>
</g>
<!-- Node1&#45;&gt;Node8 -->
<g id="edge7" class="edge"><title>Node1&#45;&gt;Node8</title>
<path fill="none" stroke="midnightblue" d="M704.365,-195.988C760.356,-187.732 843.82,-173.58 914.814,-154 917.621,-153.226 920.511,-152.336 923.388,-151.386"/>
<polygon fill="midnightblue" stroke="midnightblue" points="924.715,-154.63 932.983,-148.005 922.388,-148.027 924.715,-154.63"/>
</g>
<!-- Node9 -->
<g id="node9" class="node"><title>Node9</title>
<polygon fill="white" stroke="#bfbfbf" points="1001.81,-129 1001.81,-148 1045.81,-148 1045.81,-129 1001.81,-129"/>
<text text-anchor="middle" x="1023.81" y="-136" font-family="Helvetica,sans-Serif" font-size="10.00">fcntl.h</text>
</g>
<!-- Node1&#45;&gt;Node9 -->
<g id="edge8" class="edge"><title>Node1&#45;&gt;Node9</title>
<path fill="none" stroke="midnightblue" d="M704.328,-201.03C775.758,-195.839 894.61,-183.305 992.814,-154 994.692,-153.439 996.602,-152.782 998.503,-152.063"/>
<polygon fill="midnightblue" stroke="midnightblue" points="999.939,-155.256 1007.76,-148.106 997.187,-148.819 999.939,-155.256"/>
</g>
<!-- Node10 -->
<g id="node10" class="node"><title>Node10</title>
<polygon fill="white" stroke="#bfbfbf" points="1064.31,-129 1064.31,-148 1115.31,-148 1115.31,-129 1064.31,-129"/>
<text text-anchor="middle" x="1089.81" y="-136" font-family="Helvetica,sans-Serif" font-size="10.00">unistd.h</text>
</g>
<!-- Node1&#45;&gt;Node10 -->
<g id="edge9" class="edge"><title>Node1&#45;&gt;Node10</title>
<path fill="none" stroke="midnightblue" d="M704.59,-202.079C786.767,-197.748 933.49,-185.895 1054.81,-154 1057.26,-153.356 1059.77,-152.578 1062.25,-151.721"/>
<polygon fill="midnightblue" stroke="midnightblue" points="1063.52,-154.982 1071.61,-148.137 1061.02,-148.445 1063.52,-154.982"/>
</g>
<!-- Node11 -->
<g id="node11" class="node"><title>Node11</title>
<polygon fill="white" stroke="#bfbfbf" points="1133.81,-129 1133.81,-148 1181.81,-148 1181.81,-129 1133.81,-129"/>
<text text-anchor="middle" x="1157.81" y="-136" font-family="Helvetica,sans-Serif" font-size="10.00">limits.h</text>
</g>
<!-- Node1&#45;&gt;Node11 -->
<g id="edge10" class="edge"><title>Node1&#45;&gt;Node11</title>
<path fill="none" stroke="midnightblue" d="M704.59,-204.087C798.25,-202.09 977.814,-192.945 1124.81,-154 1127.11,-153.392 1129.45,-152.645 1131.77,-151.814"/>
<polygon fill="midnightblue" stroke="midnightblue" points="1133.09,-155.057 1141.05,-148.064 1130.47,-148.567 1133.09,-155.057"/>
</g>
<!-- Node12 -->
<g id="node12" class="node"><title>Node12</title>
<g id="a_node12"><a xlink:href="vmap_8h.html" target="_top" xlink:title="core/common/vmap.h">
<polygon fill="white" stroke="black" points="14.3136,-62 14.3136,-81 125.314,-81 125.314,-62 14.3136,-62"/>
<text text-anchor="middle" x="69.8136" y="-69" font-family="Helvetica,sans-Serif" font-size="10.00">core/common/vmap.h</text>
</a>
</g>
</g>
<!-- Node1&#45;&gt;Node12 -->
<g id="edge11" class="edge"><title>Node1&#45;&gt;Node12</title>
<path fill="none" stroke="midnightblue" d="M577.094,-203.644C460.54,-201.164 218.142,-191.516 143.814,-154 115.206,-139.561 92.328,-109.074 79.9461,-89.755"/>
<polygon fill="midnightblue" stroke="midnightblue" points="82.8126,-87.7347 74.5922,-81.0507 76.8502,-91.4022 82.8126,-87.7347"/>
</g>
<!-- Node13 -->
<g id="node13" class="node"><title>Node13</title>
<polygon fill="white" stroke="#bfbfbf" points="52.3136,-0.5 52.3136,-19.5 87.3136,-19.5 87.3136,-0.5 52.3136,-0.5"/>
<text text-anchor="middle" x="69.8136" y="-7.5" font-family="Helvetica,sans-Serif" font-size="10.00">map</text>
</g>
<!-- Node1&#45;&gt;Node13 -->
<g id="edge13" class="edge"><title>Node1&#45;&gt;Node13</title>
<path fill="none" stroke="midnightblue" d="M576.966,-202.506C453.915,-198.01 188.51,-184.956 102.814,-154 53.1901,-136.075 29.4376,-133.663 4.81364,-87 -1.61646,-74.8147 -1.58072,-68.2041 4.81364,-56 12.8358,-40.6892 28.6956,-29.5521 42.7402,-22.1876"/>
<polygon fill="midnightblue" stroke="midnightblue" points="44.5736,-25.189 52.0549,-17.6869 41.5281,-18.8862 44.5736,-25.189"/>
</g>
<!-- Node14 -->
<g id="node14" class="node"><title>Node14</title>
<polygon fill="white" stroke="#bfbfbf" points="436.314,-0.5 436.314,-19.5 477.314,-19.5 477.314,-0.5 436.314,-0.5"/>
<text text-anchor="middle" x="456.814" y="-7.5" font-family="Helvetica,sans-Serif" font-size="10.00">string</text>
</g>
<!-- Node1&#45;&gt;Node14 -->
<g id="edge14" class="edge"><title>Node1&#45;&gt;Node14</title>
<path fill="none" stroke="midnightblue" d="M577.225,-196.315C526.16,-188.347 460.203,-174.429 442.814,-154 414.529,-120.771 427.755,-98.6865 436.814,-56 438.81,-46.5915 442.914,-36.7618 446.888,-28.6981"/>
<polygon fill="midnightblue" stroke="midnightblue" points="450.12,-30.0721 451.683,-19.5932 443.927,-26.8101 450.12,-30.0721"/>
</g>
<!-- Node15 -->
<g id="node15" class="node"><title>Node15</title>
<polygon fill="white" stroke="#bfbfbf" points="278.814,-62 278.814,-81 322.814,-81 322.814,-62 278.814,-62"/>
<text text-anchor="middle" x="300.814" y="-69" font-family="Helvetica,sans-Serif" font-size="10.00">vector</text>
</g>
<!-- Node1&#45;&gt;Node15 -->
<g id="edge15" class="edge"><title>Node1&#45;&gt;Node15</title>
<path fill="none" stroke="midnightblue" d="M577.103,-198.514C505.935,-190.88 396.08,-175.978 360.814,-154 336.166,-138.639 318.333,-109.138 308.791,-90.1597"/>
<polygon fill="midnightblue" stroke="midnightblue" points="311.927,-88.6044 304.457,-81.0903 305.61,-91.6222 311.927,-88.6044"/>
</g>
<!-- Node16 -->
<g id="node16" class="node"><title>Node16</title>
<polygon fill="white" stroke="#bfbfbf" points="340.314,-62 340.314,-81 369.314,-81 369.314,-62 340.314,-62"/>
<text text-anchor="middle" x="354.814" y="-69" font-family="Helvetica,sans-Serif" font-size="10.00">list</text>
</g>
<!-- Node1&#45;&gt;Node16 -->
<g id="edge16" class="edge"><title>Node1&#45;&gt;Node16</title>
<path fill="none" stroke="midnightblue" d="M577.249,-199.179C510.776,-192.393 412.226,-178.495 383.814,-154 365.453,-138.171 358.717,-109.902 356.245,-91.1734"/>
<polygon fill="midnightblue" stroke="midnightblue" points="359.722,-90.7639 355.21,-81.178 352.759,-91.4855 359.722,-90.7639"/>
</g>
<!-- Node17 -->
<g id="node17" class="node"><title>Node17</title>
<polygon fill="white" stroke="#bfbfbf" points="554.814,-0.5 554.814,-19.5 608.814,-19.5 608.814,-0.5 554.814,-0.5"/>
<text text-anchor="middle" x="581.814" y="-7.5" font-family="Helvetica,sans-Serif" font-size="10.00">iostream</text>
</g>
<!-- Node1&#45;&gt;Node17 -->
<g id="edge17" class="edge"><title>Node1&#45;&gt;Node17</title>
<path fill="none" stroke="midnightblue" d="M577.014,-202.101C539.638,-197.23 494.483,-184.746 466.814,-154 437.46,-121.382 429.491,-91.8373 454.814,-56 474.979,-27.4612 514.856,-16.9061 544.572,-13.0643"/>
<polygon fill="midnightblue" stroke="midnightblue" points="545.051,-16.533 554.611,-11.9669 544.29,-9.57444 545.051,-16.533"/>
</g>
<!-- Node18 -->
<g id="node18" class="node"><title>Node18</title>
<g id="a_node18"><a xlink:href="trap__utils_8hpp.html" target="_top" xlink:title="core/common/trapgen\l/utils/trap_utils.hpp">
<polygon fill="white" stroke="black" points="476.314,-123.5 476.314,-153.5 587.314,-153.5 587.314,-123.5 476.314,-123.5"/>
<text text-anchor="start" x="484.314" y="-141.5" font-family="Helvetica,sans-Serif" font-size="10.00">core/common/trapgen</text>
<text text-anchor="middle" x="531.814" y="-130.5" font-family="Helvetica,sans-Serif" font-size="10.00">/utils/trap_utils.hpp</text>
</a>
</g>
</g>
<!-- Node1&#45;&gt;Node18 -->
<g id="edge18" class="edge"><title>Node1&#45;&gt;Node18</title>
<path fill="none" stroke="midnightblue" d="M617.162,-190.396C601.736,-181.197 581.393,-169.066 564.437,-158.955"/>
<polygon fill="midnightblue" stroke="midnightblue" points="565.8,-155.692 555.419,-153.577 562.215,-161.704 565.8,-155.692"/>
</g>
<!-- Node23 -->
<g id="node23" class="node"><title>Node23</title>
<g id="a_node23"><a xlink:href="elfFrontend_8hpp.html" target="_top" xlink:title="core/common/trapgen\l/elfloader/elfFrontend.hpp">
<polygon fill="white" stroke="black" points="166.314,-123.5 166.314,-153.5 293.314,-153.5 293.314,-123.5 166.314,-123.5"/>
<text text-anchor="start" x="174.314" y="-141.5" font-family="Helvetica,sans-Serif" font-size="10.00">core/common/trapgen</text>
<text text-anchor="middle" x="229.814" y="-130.5" font-family="Helvetica,sans-Serif" font-size="10.00">/elfloader/elfFrontend.hpp</text>
</a>
</g>
</g>
<!-- Node1&#45;&gt;Node23 -->
<g id="edge30" class="edge"><title>Node1&#45;&gt;Node23</title>
<path fill="none" stroke="midnightblue" d="M577.185,-195.493C510.095,-185.846 401.365,-169.785 307.814,-154 306.515,-153.781 305.204,-153.558 303.885,-153.332"/>
<polygon fill="midnightblue" stroke="midnightblue" points="304.086,-149.814 293.634,-151.543 302.883,-156.71 304.086,-149.814"/>
</g>
<!-- Node24 -->
<g id="node24" class="node"><title>Node24</title>
<polygon fill="white" stroke="#bfbfbf" points="1200.31,-129 1200.31,-148 1307.31,-148 1307.31,-129 1200.31,-129"/>
<text text-anchor="middle" x="1253.81" y="-136" font-family="Helvetica,sans-Serif" font-size="10.00">boost/filesystem.hpp</text>
</g>
<!-- Node1&#45;&gt;Node24 -->
<g id="edge37" class="edge"><title>Node1&#45;&gt;Node24</title>
<path fill="none" stroke="midnightblue" d="M704.679,-201.433C807.559,-195.866 1016.13,-181.992 1190.81,-154 1197.21,-152.974 1203.93,-151.674 1210.5,-150.274"/>
<polygon fill="midnightblue" stroke="midnightblue" points="1211.63,-153.609 1220.63,-148.019 1210.11,-146.776 1211.63,-153.609"/>
</g>
<!-- Node25 -->
<g id="node25" class="node"><title>Node25</title>
<polygon fill="white" stroke="#bfbfbf" points="1325.31,-129 1325.31,-148 1468.31,-148 1468.31,-129 1325.31,-129"/>
<text text-anchor="middle" x="1396.81" y="-136" font-family="Helvetica,sans-Serif" font-size="10.00">boost/filesystem/fstream.hpp</text>
</g>
<!-- Node1&#45;&gt;Node25 -->
<g id="edge38" class="edge"><title>Node1&#45;&gt;Node25</title>
<path fill="none" stroke="midnightblue" d="M704.412,-201.973C824.492,-196.709 1092.67,-182.605 1316.81,-154 1325.86,-152.845 1335.44,-151.349 1344.7,-149.758"/>
<polygon fill="midnightblue" stroke="midnightblue" points="1345.36,-153.197 1354.59,-148.006 1344.14,-146.305 1345.36,-153.197"/>
</g>
<!-- Node12&#45;&gt;Node13 -->
<g id="edge12" class="edge"><title>Node12&#45;&gt;Node13</title>
<path fill="none" stroke="midnightblue" d="M69.8136,-61.9751C69.8136,-53.5803 69.8136,-40.4806 69.8136,-29.6631"/>
<polygon fill="midnightblue" stroke="midnightblue" points="73.3137,-29.5091 69.8136,-19.5091 66.3137,-29.5091 73.3137,-29.5091"/>
</g>
<!-- Node18&#45;&gt;Node14 -->
<g id="edge23" class="edge"><title>Node18&#45;&gt;Node14</title>
<path fill="none" stroke="midnightblue" d="M534.112,-123.417C536.172,-106.229 537.214,-76.8795 524.814,-56 516.18,-41.4625 500.8,-30.6948 486.849,-23.3437"/>
<polygon fill="midnightblue" stroke="midnightblue" points="488.042,-20.0315 477.519,-18.796 484.975,-26.3238 488.042,-20.0315"/>
</g>
<!-- Node18&#45;&gt;Node17 -->
<g id="edge20" class="edge"><title>Node18&#45;&gt;Node17</title>
<path fill="none" stroke="midnightblue" d="M539.99,-123.223C545.481,-113.275 552.631,-99.583 557.814,-87 565.7,-67.8507 572.568,-45.1144 576.914,-29.5311"/>
<polygon fill="midnightblue" stroke="midnightblue" points="580.367,-30.1695 579.61,-19.6018 573.612,-28.335 580.367,-30.1695"/>
</g>
<!-- Node19 -->
<g id="node19" class="node"><title>Node19</title>
<polygon fill="white" stroke="#bfbfbf" points="741.314,-0.5 741.314,-19.5 800.314,-19.5 800.314,-0.5 741.314,-0.5"/>
<text text-anchor="middle" x="770.814" y="-7.5" font-family="Helvetica,sans-Serif" font-size="10.00">exception</text>
</g>
<!-- Node18&#45;&gt;Node19 -->
<g id="edge19" class="edge"><title>Node18&#45;&gt;Node19</title>
<path fill="none" stroke="midnightblue" d="M587.576,-125.836C592.389,-124.863 597.185,-123.906 601.814,-123 645.058,-114.53 768.625,-120.87 796.814,-87 810.964,-69.9977 797.596,-44.8862 785.379,-28.2428"/>
<polygon fill="midnightblue" stroke="midnightblue" points="787.818,-25.681 778.892,-19.9729 782.31,-30.0013 787.818,-25.681"/>
</g>
<!-- Node20 -->
<g id="node20" class="node"><title>Node20</title>
<polygon fill="white" stroke="#bfbfbf" points="463.814,-62 463.814,-81 515.814,-81 515.814,-62 463.814,-62"/>
<text text-anchor="middle" x="489.814" y="-69" font-family="Helvetica,sans-Serif" font-size="10.00">sstream</text>
</g>
<!-- Node18&#45;&gt;Node20 -->
<g id="edge21" class="edge"><title>Node18&#45;&gt;Node20</title>
<path fill="none" stroke="midnightblue" d="M522.7,-123.396C516.346,-113.562 507.827,-100.378 501.052,-89.892"/>
<polygon fill="midnightblue" stroke="midnightblue" points="503.799,-87.6942 495.432,-81.1945 497.919,-91.4932 503.799,-87.6942"/>
</g>
<!-- Node21 -->
<g id="node21" class="node"><title>Node21</title>
<polygon fill="white" stroke="#bfbfbf" points="652.314,-0.5 652.314,-19.5 711.314,-19.5 711.314,-0.5 652.314,-0.5"/>
<text text-anchor="middle" x="681.814" y="-7.5" font-family="Helvetica,sans-Serif" font-size="10.00">stdexcept</text>
</g>
<!-- Node18&#45;&gt;Node21 -->
<g id="edge22" class="edge"><title>Node18&#45;&gt;Node21</title>
<path fill="none" stroke="midnightblue" d="M548.439,-123.479C576.765,-99.5912 634.162,-51.1866 663.56,-26.394"/>
<polygon fill="midnightblue" stroke="midnightblue" points="666.004,-28.911 671.392,-19.7885 661.492,-23.5598 666.004,-28.911"/>
</g>
<!-- Node22 -->
<g id="node22" class="node"><title>Node22</title>
<g id="a_node22"><a xlink:href="customExceptions_8hpp.html" target="_top" xlink:title="core/common/trapgen\l/utils/customExceptions.hpp">
<polygon fill="white" stroke="black" points="647.814,-56.5 647.814,-86.5 787.814,-86.5 787.814,-56.5 647.814,-56.5"/>
<text text-anchor="start" x="655.814" y="-74.5" font-family="Helvetica,sans-Serif" font-size="10.00">core/common/trapgen</text>
<text text-anchor="middle" x="717.814" y="-63.5" font-family="Helvetica,sans-Serif" font-size="10.00">/utils/customExceptions.hpp</text>
</a>
</g>
</g>
<!-- Node18&#45;&gt;Node22 -->
<g id="edge24" class="edge"><title>Node18&#45;&gt;Node22</title>
<path fill="none" stroke="midnightblue" d="M572.173,-123.396C600.325,-113.558 638.072,-100.367 668.083,-89.879"/>
<polygon fill="midnightblue" stroke="midnightblue" points="669.248,-93.1796 677.533,-86.5765 666.938,-86.5715 669.248,-93.1796"/>
</g>
<!-- Node22&#45;&gt;Node3 -->
<g id="edge25" class="edge"><title>Node22&#45;&gt;Node3</title>
<path fill="none" stroke="midnightblue" d="M748.385,-56.3993C769.739,-46.55 798.029,-33.5014 818.799,-23.9217"/>
<polygon fill="midnightblue" stroke="midnightblue" points="820.428,-27.0244 828.043,-19.6578 817.496,-20.668 820.428,-27.0244"/>
</g>
<!-- Node22&#45;&gt;Node14 -->
<g id="edge29" class="edge"><title>Node22&#45;&gt;Node14</title>
<path fill="none" stroke="midnightblue" d="M656.291,-56.4747C603.191,-44.3697 528.711,-27.3904 487.421,-17.9776"/>
<polygon fill="midnightblue" stroke="midnightblue" points="487.957,-14.5099 477.429,-15.6996 486.401,-21.3348 487.957,-14.5099"/>
</g>
<!-- Node22&#45;&gt;Node17 -->
<g id="edge27" class="edge"><title>Node22&#45;&gt;Node17</title>
<path fill="none" stroke="midnightblue" d="M685.584,-56.3993C662.969,-46.5054 632.975,-33.3832 611.052,-23.7919"/>
<polygon fill="midnightblue" stroke="midnightblue" points="612.167,-20.4595 601.603,-19.6578 609.362,-26.8726 612.167,-20.4595"/>
</g>
<!-- Node22&#45;&gt;Node19 -->
<g id="edge26" class="edge"><title>Node22&#45;&gt;Node19</title>
<path fill="none" stroke="midnightblue" d="M730.374,-56.3993C738.155,-47.6641 748.177,-36.4126 756.298,-27.2962"/>
<polygon fill="midnightblue" stroke="midnightblue" points="759.064,-29.453 763.102,-19.6578 753.837,-24.797 759.064,-29.453"/>
</g>
<!-- Node22&#45;&gt;Node21 -->
<g id="edge28" class="edge"><title>Node22&#45;&gt;Node21</title>
<path fill="none" stroke="midnightblue" d="M709.282,-56.3993C704.213,-48.0207 697.743,-37.3269 692.355,-28.4229"/>
<polygon fill="midnightblue" stroke="midnightblue" points="695.223,-26.4018 687.052,-19.6578 689.234,-30.0255 695.223,-26.4018"/>
</g>
<!-- Node23&#45;&gt;Node2 -->
<g id="edge31" class="edge"><title>Node23&#45;&gt;Node2</title>
<path fill="none" stroke="midnightblue" d="M215.493,-123.396C204.998,-113.06 190.745,-99.0237 179.866,-88.309"/>
<polygon fill="midnightblue" stroke="midnightblue" points="182.223,-85.7177 172.642,-81.1945 177.311,-90.7052 182.223,-85.7177"/>
</g>
<!-- Node23&#45;&gt;Node12 -->
<g id="edge32" class="edge"><title>Node23&#45;&gt;Node12</title>
<path fill="none" stroke="midnightblue" d="M195.096,-123.396C166.774,-111.89 127.161,-95.7974 100.108,-84.8072"/>
<polygon fill="midnightblue" stroke="midnightblue" points="101.336,-81.5282 90.7539,-81.007 98.7013,-88.0135 101.336,-81.5282"/>
</g>
<!-- Node23&#45;&gt;Node13 -->
<g id="edge34" class="edge"><title>Node23&#45;&gt;Node13</title>
<path fill="none" stroke="midnightblue" d="M226.959,-123.43C222.608,-105.428 212.64,-74.3843 192.814,-56 166.171,-31.2954 124.868,-19.8991 97.5851,-14.8224"/>
<polygon fill="midnightblue" stroke="midnightblue" points="97.9727,-11.3382 87.5285,-13.1184 96.8033,-18.2399 97.9727,-11.3382"/>
</g>
<!-- Node23&#45;&gt;Node14 -->
<g id="edge35" class="edge"><title>Node23&#45;&gt;Node14</title>
<path fill="none" stroke="midnightblue" d="M232.827,-123.365C237.498,-104.997 248.285,-73.2438 269.814,-56 315.292,-19.5719 385.658,-11.8971 425.851,-10.7024"/>
<polygon fill="midnightblue" stroke="midnightblue" points="426.167,-14.1974 436.103,-10.5201 426.043,-7.19854 426.167,-14.1974"/>
</g>
<!-- Node23&#45;&gt;Node15 -->
<g id="edge36" class="edge"><title>Node23&#45;&gt;Node15</title>
<path fill="none" stroke="midnightblue" d="M245.22,-123.396C256.619,-112.96 272.14,-98.7507 283.885,-87.9978"/>
<polygon fill="midnightblue" stroke="midnightblue" points="286.304,-90.5287 291.317,-81.1945 281.577,-85.3655 286.304,-90.5287"/>
</g>
<!-- Node23&#45;&gt;Node16 -->
<g id="edge33" class="edge"><title>Node23&#45;&gt;Node16</title>
<path fill="none" stroke="midnightblue" d="M260.138,-123.492C280.65,-113.773 308.202,-100.242 331.814,-87 332.225,-86.7691 332.64,-86.5341 333.057,-86.2957"/>
<polygon fill="midnightblue" stroke="midnightblue" points="335.059,-89.1759 341.818,-81.0178 331.447,-83.1797 335.059,-89.1759"/>
</g>
</g>
</svg>
