<?xml version="1.0" encoding="UTF-8" standalone="no"?>
<!DOCTYPE svg PUBLIC "-//W3C//DTD SVG 1.1//EN"
 "http://www.w3.org/Graphics/SVG/1.1/DTD/svg11.dtd">
<!-- Generated by graphviz version 2.36.0 (20140111.2315)
 -->
<!-- Title: core/common/trapgen/elfloader/elfFrontend.hpp Pages: 1 -->
<svg width="792pt" height="244pt"
 viewBox="0.00 0.00 792.00 244.00" xmlns="http://www.w3.org/2000/svg" xmlns:xlink="http://www.w3.org/1999/xlink">
<g id="graph0" class="graph" transform="scale(1 1) rotate(0) translate(4 240)">
<title>core/common/trapgen/elfloader/elfFrontend.hpp</title>
<polygon fill="white" stroke="none" points="-4,4 -4,-240 788,-240 788,4 -4,4"/>
<!-- Node1 -->
<g id="node1" class="node"><title>Node1</title>
<polygon fill="#bfbfbf" stroke="black" points="294.5,-205 294.5,-235 421.5,-235 421.5,-205 294.5,-205"/>
<text text-anchor="start" x="302.5" y="-223" font-family="Helvetica,sans-Serif" font-size="10.00">core/common/trapgen</text>
<text text-anchor="middle" x="358" y="-212" font-family="Helvetica,sans-Serif" font-size="10.00">/elfloader/elfFrontend.hpp</text>
</g>
<!-- Node2 -->
<g id="node2" class="node"><title>Node2</title>
<g id="a_node2"><a xlink:href="elfFrontend_8cpp.html" target="_top" xlink:title="core/common/trapgen\l/elfloader/elfFrontend.cpp">
<polygon fill="white" stroke="black" points="-0.5,-137 -0.5,-167 126.5,-167 126.5,-137 -0.5,-137"/>
<text text-anchor="start" x="7.5" y="-155" font-family="Helvetica,sans-Serif" font-size="10.00">core/common/trapgen</text>
<text text-anchor="middle" x="63" y="-144" font-family="Helvetica,sans-Serif" font-size="10.00">/elfloader/elfFrontend.cpp</text>
</a>
</g>
</g>
<!-- Node1&#45;&gt;Node2 -->
<g id="edge1" class="edge"><title>Node1&#45;&gt;Node2</title>
<path fill="none" stroke="midnightblue" d="M285.192,-202.711C236.289,-191.77 172.504,-177.499 125.826,-167.056"/>
<polygon fill="midnightblue" stroke="midnightblue" points="284.554,-206.154 295.077,-204.922 286.082,-199.323 284.554,-206.154"/>
</g>
<!-- Node3 -->
<g id="node3" class="node"><title>Node3</title>
<g id="a_node3"><a xlink:href="execLoader_8cpp.html" target="_top" xlink:title="core/common/trapgen\l/elfloader/execLoader.cpp">
<polygon fill="white" stroke="black" points="101,-69 101,-99 229,-99 229,-69 101,-69"/>
<text text-anchor="start" x="109" y="-87" font-family="Helvetica,sans-Serif" font-size="10.00">core/common/trapgen</text>
<text text-anchor="middle" x="165" y="-76" font-family="Helvetica,sans-Serif" font-size="10.00">/elfloader/execLoader.cpp</text>
</a>
</g>
</g>
<!-- Node1&#45;&gt;Node3 -->
<g id="edge2" class="edge"><title>Node1&#45;&gt;Node3</title>
<path fill="none" stroke="midnightblue" d="M284.43,-207.25C239.761,-198.538 188.615,-185.204 174,-168 157.672,-148.779 159.382,-117.343 162.153,-99.1759"/>
<polygon fill="midnightblue" stroke="midnightblue" points="283.958,-210.723 294.435,-209.147 285.262,-203.845 283.958,-210.723"/>
</g>
<!-- Node4 -->
<g id="node4" class="node"><title>Node4</title>
<g id="a_node4"><a xlink:href="execLoader_8hpp.html" target="_top" xlink:title="core/common/trapgen\l/elfloader/execLoader.hpp">
<polygon fill="white" stroke="black" points="183,-137 183,-167 311,-167 311,-137 183,-137"/>
<text text-anchor="start" x="191" y="-155" font-family="Helvetica,sans-Serif" font-size="10.00">core/common/trapgen</text>
<text text-anchor="middle" x="247" y="-144" font-family="Helvetica,sans-Serif" font-size="10.00">/elfloader/execLoader.hpp</text>
</a>
</g>
</g>
<!-- Node1&#45;&gt;Node4 -->
<g id="edge3" class="edge"><title>Node1&#45;&gt;Node4</title>
<path fill="none" stroke="midnightblue" d="M325.417,-199.626C307.91,-189.217 286.713,-176.613 270.773,-167.135"/>
<polygon fill="midnightblue" stroke="midnightblue" points="323.804,-202.739 334.188,-204.841 327.381,-196.722 323.804,-202.739"/>
</g>
<!-- Node5 -->
<g id="node5" class="node"><title>Node5</title>
<g id="a_node5"><a xlink:href="main_8cpp.html" target="_top" xlink:title="gaisler/leon3/intunit\l/main.cpp">
<polygon fill="white" stroke="black" points="331.5,-1 331.5,-31 432.5,-31 432.5,-1 331.5,-1"/>
<text text-anchor="start" x="339.5" y="-19" font-family="Helvetica,sans-Serif" font-size="10.00">gaisler/leon3/intunit</text>
<text text-anchor="middle" x="382" y="-8" font-family="Helvetica,sans-Serif" font-size="10.00">/main.cpp</text>
</a>
</g>
</g>
<!-- Node1&#45;&gt;Node5 -->
<g id="edge14" class="edge"><title>Node1&#45;&gt;Node5</title>
<path fill="none" stroke="midnightblue" d="M352.645,-194.902C346.919,-164.67 340.151,-111.513 352,-68 355.671,-54.5203 363.908,-40.9692 370.824,-31.227"/>
<polygon fill="midnightblue" stroke="midnightblue" points="349.263,-195.833 354.672,-204.943 356.124,-194.448 349.263,-195.833"/>
</g>
<!-- Node6 -->
<g id="node6" class="node"><title>Node6</title>
<g id="a_node6"><a xlink:href="osEmulator_8hpp.html" target="_top" xlink:title="core/common/trapgen\l/osEmulator/osEmulator.hpp">
<polygon fill="white" stroke="black" points="361,-69 361,-99 501,-99 501,-69 361,-69"/>
<text text-anchor="start" x="369" y="-87" font-family="Helvetica,sans-Serif" font-size="10.00">core/common/trapgen</text>
<text text-anchor="middle" x="431" y="-76" font-family="Helvetica,sans-Serif" font-size="10.00">/osEmulator/osEmulator.hpp</text>
</a>
</g>
</g>
<!-- Node1&#45;&gt;Node6 -->
<g id="edge6" class="edge"><title>Node1&#45;&gt;Node6</title>
<path fill="none" stroke="midnightblue" d="M367.607,-195.193C374.732,-178.303 385.068,-155.299 396,-136 403.304,-123.106 412.904,-109.293 420.202,-99.2991"/>
<polygon fill="midnightblue" stroke="midnightblue" points="364.208,-194.254 363.609,-204.832 370.673,-196.936 364.208,-194.254"/>
</g>
<!-- Node7 -->
<g id="node7" class="node"><title>Node7</title>
<g id="a_node7"><a xlink:href="syscCallB_8hpp.html" target="_top" xlink:title="core/common/trapgen\l/osEmulator/syscCallB.hpp">
<polygon fill="white" stroke="black" points="405,-137 405,-167 541,-167 541,-137 405,-137"/>
<text text-anchor="start" x="413" y="-155" font-family="Helvetica,sans-Serif" font-size="10.00">core/common/trapgen</text>
<text text-anchor="middle" x="473" y="-144" font-family="Helvetica,sans-Serif" font-size="10.00">/osEmulator/syscCallB.hpp</text>
</a>
</g>
</g>
<!-- Node1&#45;&gt;Node7 -->
<g id="edge8" class="edge"><title>Node1&#45;&gt;Node7</title>
<path fill="none" stroke="midnightblue" d="M391.758,-199.626C409.895,-189.217 431.856,-176.613 448.37,-167.135"/>
<polygon fill="midnightblue" stroke="midnightblue" points="389.601,-196.828 382.67,-204.841 393.086,-202.899 389.601,-196.828"/>
</g>
<!-- Node8 -->
<g id="node8" class="node"><title>Node8</title>
<g id="a_node8"><a xlink:href="syscCallB_8cpp.html" target="_top" xlink:title="core/common/trapgen\l/osEmulator/syscCallB.cpp">
<polygon fill="white" stroke="black" points="519,-69 519,-99 655,-99 655,-69 519,-69"/>
<text text-anchor="start" x="527" y="-87" font-family="Helvetica,sans-Serif" font-size="10.00">core/common/trapgen</text>
<text text-anchor="middle" x="587" y="-76" font-family="Helvetica,sans-Serif" font-size="10.00">/osEmulator/syscCallB.cpp</text>
</a>
</g>
</g>
<!-- Node1&#45;&gt;Node8 -->
<g id="edge11" class="edge"><title>Node1&#45;&gt;Node8</title>
<path fill="none" stroke="midnightblue" d="M432.17,-214.479C471.093,-208.644 517.342,-195.818 550,-168 571.018,-150.097 580.59,-117.885 584.544,-99.2929"/>
<polygon fill="midnightblue" stroke="midnightblue" points="431.358,-211.057 421.925,-215.881 432.308,-217.992 431.358,-211.057"/>
</g>
<!-- Node9 -->
<g id="node9" class="node"><title>Node9</title>
<g id="a_node9"><a xlink:href="profiler_8hpp.html" target="_top" xlink:title="core/common/trapgen\l/profiler/profiler.hpp">
<polygon fill="white" stroke="black" points="673.5,-69 673.5,-99 784.5,-99 784.5,-69 673.5,-69"/>
<text text-anchor="start" x="681.5" y="-87" font-family="Helvetica,sans-Serif" font-size="10.00">core/common/trapgen</text>
<text text-anchor="middle" x="729" y="-76" font-family="Helvetica,sans-Serif" font-size="10.00">/profiler/profiler.hpp</text>
</a>
</g>
</g>
<!-- Node1&#45;&gt;Node9 -->
<g id="edge12" class="edge"><title>Node1&#45;&gt;Node9</title>
<path fill="none" stroke="midnightblue" d="M431.543,-206.721C474.247,-198.364 528.605,-185.6 575,-168 624.695,-149.148 678.412,-117.284 707.43,-99.0078"/>
<polygon fill="midnightblue" stroke="midnightblue" points="430.668,-203.324 421.507,-208.646 431.987,-210.199 430.668,-203.324"/>
</g>
<!-- Node4&#45;&gt;Node3 -->
<g id="edge4" class="edge"><title>Node4&#45;&gt;Node3</title>
<path fill="none" stroke="midnightblue" d="M221.294,-130.309C208.662,-120.143 193.77,-108.156 182.476,-99.0663"/>
<polygon fill="midnightblue" stroke="midnightblue" points="219.223,-133.135 229.207,-136.679 223.612,-127.682 219.223,-133.135"/>
</g>
<!-- Node4&#45;&gt;Node5 -->
<g id="edge5" class="edge"><title>Node4&#45;&gt;Node5</title>
<path fill="none" stroke="midnightblue" d="M264.337,-128.95C278.345,-111.661 298.961,-87.368 319,-68 332.862,-54.6017 349.93,-40.9378 362.803,-31.1297"/>
<polygon fill="midnightblue" stroke="midnightblue" points="261.549,-126.832 258.023,-136.823 267.01,-131.212 261.549,-126.832"/>
</g>
<!-- Node6&#45;&gt;Node5 -->
<g id="edge7" class="edge"><title>Node6&#45;&gt;Node5</title>
<path fill="none" stroke="midnightblue" d="M414.376,-60.608C407.177,-50.9125 398.964,-39.8499 392.612,-31.2931"/>
<polygon fill="midnightblue" stroke="midnightblue" points="411.596,-62.7362 420.368,-68.679 417.217,-58.5635 411.596,-62.7362"/>
</g>
<!-- Node7&#45;&gt;Node6 -->
<g id="edge9" class="edge"><title>Node7&#45;&gt;Node6</title>
<path fill="none" stroke="midnightblue" d="M458.376,-128.019C452.297,-118.467 445.431,-107.677 440.096,-99.2931"/>
<polygon fill="midnightblue" stroke="midnightblue" points="455.565,-130.121 463.887,-136.679 461.471,-126.363 455.565,-130.121"/>
</g>
<!-- Node7&#45;&gt;Node8 -->
<g id="edge10" class="edge"><title>Node7&#45;&gt;Node8</title>
<path fill="none" stroke="midnightblue" d="M506.464,-131.626C524.444,-121.217 546.214,-108.613 562.585,-99.1352"/>
<polygon fill="midnightblue" stroke="midnightblue" points="504.356,-128.802 497.456,-136.841 507.864,-134.86 504.356,-128.802"/>
</g>
<!-- Node9&#45;&gt;Node5 -->
<g id="edge13" class="edge"><title>Node9&#45;&gt;Node5</title>
<path fill="none" stroke="midnightblue" d="M663.332,-67.9197C576.406,-50.1991 487.018,-34.6011 432.572,-25.395"/>
<polygon fill="midnightblue" stroke="midnightblue" points="662.87,-71.3976 673.369,-69.9777 664.276,-64.5403 662.87,-71.3976"/>
</g>
</g>
</svg>
