<?xml version="1.0" encoding="UTF-8" standalone="no"?>
<!DOCTYPE svg PUBLIC "-//W3C//DTD SVG 1.1//EN"
 "http://www.w3.org/Graphics/SVG/1.1/DTD/svg11.dtd">
<!-- Generated by graphviz version 2.38.0 (20140413.2041)
 -->
<!-- Title: core/common/trapgen/elfloader/elfFrontend.cpp Pages: 1 -->
<svg width="1370pt" height="222pt"
 viewBox="0.00 0.00 1369.87 222.00" xmlns="http://www.w3.org/2000/svg" xmlns:xlink="http://www.w3.org/1999/xlink">
<g id="graph0" class="graph" transform="scale(1 1) rotate(0) translate(4 218)">
<title>core/common/trapgen/elfloader/elfFrontend.cpp</title>
<polygon fill="white" stroke="none" points="-4,4 -4,-218 1365.87,-218 1365.87,4 -4,4"/>
<!-- Node1 -->
<g id="node1" class="node"><title>Node1</title>
<polygon fill="#bfbfbf" stroke="black" points="505.53,-185.5 505.53,-213.5 634.933,-213.5 634.933,-185.5 505.53,-185.5"/>
<text text-anchor="start" x="513.53" y="-201.5" font-family="Helvetica,sans-Serif" font-size="10.00">core/common/trapgen</text>
<text text-anchor="middle" x="570.231" y="-191.5" font-family="Helvetica,sans-Serif" font-size="10.00">/elfloader/elfFrontend.cpp</text>
</g>
<!-- Node2 -->
<g id="node2" class="node"><title>Node2</title>
<polygon fill="white" stroke="#bfbfbf" points="0,-60.5 0,-78.5 40.4629,-78.5 40.4629,-60.5 0,-60.5"/>
<text text-anchor="middle" x="20.2314" y="-66.5" font-family="Helvetica,sans-Serif" font-size="10.00">gelf.h</text>
</g>
<!-- Node1&#45;&gt;Node2 -->
<g id="edge1" class="edge"><title>Node1&#45;&gt;Node2</title>
<path fill="none" stroke="midnightblue" d="M505.106,-195.7C375.63,-189.628 95.1997,-173.773 59.2314,-149 38.7933,-134.923 28.5681,-106.926 23.8379,-88.4554"/>
<polygon fill="midnightblue" stroke="midnightblue" points="27.2337,-87.6037 21.6062,-78.627 20.4075,-89.1538 27.2337,-87.6037"/>
</g>
<!-- Node3 -->
<g id="node3" class="node"><title>Node3</title>
<polygon fill="white" stroke="#bfbfbf" points="730.059,-0.5 730.059,-18.5 774.404,-18.5 774.404,-0.5 730.059,-0.5"/>
<text text-anchor="middle" x="752.231" y="-6.5" font-family="Helvetica,sans-Serif" font-size="10.00">cstdlib</text>
</g>
<!-- Node1&#45;&gt;Node3 -->
<g id="edge2" class="edge"><title>Node1&#45;&gt;Node3</title>
<path fill="none" stroke="midnightblue" d="M557.744,-185.23C543.504,-168.464 524.149,-139.454 540.231,-120 594.436,-54.4305 664.396,-140.236 728.231,-84 743.944,-70.1576 749.419,-45.8923 751.299,-29.0472"/>
<polygon fill="midnightblue" stroke="midnightblue" points="754.811,-29.0341 752.108,-18.79 747.832,-28.484 754.811,-29.0341"/>
</g>
<!-- Node4 -->
<g id="node4" class="node"><title>Node4</title>
<polygon fill="white" stroke="#bfbfbf" points="549.17,-125.5 549.17,-143.5 591.293,-143.5 591.293,-125.5 549.17,-125.5"/>
<text text-anchor="middle" x="570.231" y="-131.5" font-family="Helvetica,sans-Serif" font-size="10.00">cstdio</text>
</g>
<!-- Node1&#45;&gt;Node4 -->
<g id="edge3" class="edge"><title>Node1&#45;&gt;Node4</title>
<path fill="none" stroke="midnightblue" d="M570.231,-185.446C570.231,-176.334 570.231,-164.041 570.231,-153.931"/>
<polygon fill="midnightblue" stroke="midnightblue" points="573.732,-153.73 570.231,-143.73 566.732,-153.73 573.732,-153.73"/>
</g>
<!-- Node5 -->
<g id="node5" class="node"><title>Node5</title>
<polygon fill="white" stroke="#bfbfbf" points="609.505,-125.5 609.505,-143.5 654.958,-143.5 654.958,-125.5 609.505,-125.5"/>
<text text-anchor="middle" x="632.231" y="-131.5" font-family="Helvetica,sans-Serif" font-size="10.00">cstring</text>
</g>
<!-- Node1&#45;&gt;Node5 -->
<g id="edge4" class="edge"><title>Node1&#45;&gt;Node5</title>
<path fill="none" stroke="midnightblue" d="M583.078,-185.446C592.914,-175.452 606.515,-161.632 616.917,-151.062"/>
<polygon fill="midnightblue" stroke="midnightblue" points="619.612,-153.313 624.132,-143.73 614.623,-148.403 619.612,-153.313"/>
</g>
<!-- Node6 -->
<g id="node6" class="node"><title>Node6</title>
<polygon fill="white" stroke="#bfbfbf" points="672.835,-125.5 672.835,-143.5 721.628,-143.5 721.628,-125.5 672.835,-125.5"/>
<text text-anchor="middle" x="697.231" y="-131.5" font-family="Helvetica,sans-Serif" font-size="10.00">cstdarg</text>
</g>
<!-- Node1&#45;&gt;Node6 -->
<g id="edge5" class="edge"><title>Node1&#45;&gt;Node6</title>
<path fill="none" stroke="midnightblue" d="M596.546,-185.446C618.697,-174.458 650.169,-158.846 672.007,-148.013"/>
<polygon fill="midnightblue" stroke="midnightblue" points="673.605,-151.127 681.008,-143.548 670.494,-144.857 673.605,-151.127"/>
</g>
<!-- Node7 -->
<g id="node7" class="node"><title>Node7</title>
<polygon fill="white" stroke="#bfbfbf" points="739.222,-125.5 739.222,-143.5 805.241,-143.5 805.241,-125.5 739.222,-125.5"/>
<text text-anchor="middle" x="772.231" y="-131.5" font-family="Helvetica,sans-Serif" font-size="10.00">sys/types.h</text>
</g>
<!-- Node1&#45;&gt;Node7 -->
<g id="edge6" class="edge"><title>Node1&#45;&gt;Node7</title>
<path fill="none" stroke="midnightblue" d="M612.717,-185.495C644.983,-175.584 690.439,-161.55 730.231,-149 732.66,-148.234 735.166,-147.439 737.689,-146.636"/>
<polygon fill="midnightblue" stroke="midnightblue" points="738.913,-149.919 747.372,-143.54 736.781,-143.252 738.913,-149.919"/>
</g>
<!-- Node8 -->
<g id="node8" class="node"><title>Node8</title>
<polygon fill="white" stroke="#bfbfbf" points="823.113,-125.5 823.113,-143.5 881.35,-143.5 881.35,-125.5 823.113,-125.5"/>
<text text-anchor="middle" x="852.231" y="-131.5" font-family="Helvetica,sans-Serif" font-size="10.00">sys/stat.h</text>
</g>
<!-- Node1&#45;&gt;Node8 -->
<g id="edge7" class="edge"><title>Node1&#45;&gt;Node8</title>
<path fill="none" stroke="midnightblue" d="M635.037,-187.926C684.55,-179.228 754.256,-165.647 814.231,-149 816.565,-148.352 818.962,-147.633 821.363,-146.873"/>
<polygon fill="midnightblue" stroke="midnightblue" points="822.732,-150.106 831.097,-143.604 820.503,-143.47 822.732,-150.106"/>
</g>
<!-- Node9 -->
<g id="node9" class="node"><title>Node9</title>
<polygon fill="white" stroke="#bfbfbf" points="898.892,-125.5 898.892,-143.5 941.571,-143.5 941.571,-125.5 898.892,-125.5"/>
<text text-anchor="middle" x="920.231" y="-131.5" font-family="Helvetica,sans-Serif" font-size="10.00">fcntl.h</text>
</g>
<!-- Node1&#45;&gt;Node9 -->
<g id="edge8" class="edge"><title>Node1&#45;&gt;Node9</title>
<path fill="none" stroke="midnightblue" d="M635.1,-193.622C700.553,-187.507 803.994,-174.562 890.231,-149 891.703,-148.564 893.196,-148.07 894.691,-147.537"/>
<polygon fill="midnightblue" stroke="midnightblue" points="896.402,-150.619 904.344,-143.606 893.762,-144.136 896.402,-150.619"/>
</g>
<!-- Node10 -->
<g id="node10" class="node"><title>Node10</title>
<polygon fill="white" stroke="#bfbfbf" points="959.719,-125.5 959.719,-143.5 1010.74,-143.5 1010.74,-125.5 959.719,-125.5"/>
<text text-anchor="middle" x="985.231" y="-131.5" font-family="Helvetica,sans-Serif" font-size="10.00">unistd.h</text>
</g>
<!-- Node1&#45;&gt;Node10 -->
<g id="edge9" class="edge"><title>Node1&#45;&gt;Node10</title>
<path fill="none" stroke="midnightblue" d="M634.986,-194.78C711.331,-189.317 841.582,-176.608 950.231,-149 952.437,-148.44 954.692,-147.781 956.943,-147.061"/>
<polygon fill="midnightblue" stroke="midnightblue" points="958.357,-150.273 966.609,-143.628 956.014,-143.676 958.357,-150.273"/>
</g>
<!-- Node11 -->
<g id="node11" class="node"><title>Node11</title>
<polygon fill="white" stroke="#bfbfbf" points="1028.67,-125.5 1028.67,-143.5 1075.79,-143.5 1075.79,-125.5 1028.67,-125.5"/>
<text text-anchor="middle" x="1052.23" y="-131.5" font-family="Helvetica,sans-Serif" font-size="10.00">limits.h</text>
</g>
<!-- Node1&#45;&gt;Node11 -->
<g id="edge10" class="edge"><title>Node1&#45;&gt;Node11</title>
<path fill="none" stroke="midnightblue" d="M635.003,-197.231C723.401,-194.183 886.164,-183.861 1020.23,-149 1022.16,-148.499 1024.12,-147.903 1026.07,-147.245"/>
<polygon fill="midnightblue" stroke="midnightblue" points="1027.53,-150.436 1035.61,-143.586 1025.02,-143.9 1027.53,-150.436"/>
</g>
<!-- Node12 -->
<g id="node12" class="node"><title>Node12</title>
<polygon fill="white" stroke="#bfbfbf" points="72.5049,-60.5 72.5049,-78.5 107.958,-78.5 107.958,-60.5 72.5049,-60.5"/>
<text text-anchor="middle" x="90.2314" y="-66.5" font-family="Helvetica,sans-Serif" font-size="10.00">map</text>
</g>
<!-- Node1&#45;&gt;Node12 -->
<g id="edge11" class="edge"><title>Node1&#45;&gt;Node12</title>
<path fill="none" stroke="midnightblue" d="M505.438,-196.838C376.774,-192.865 98.9277,-180.677 70.2314,-149 54.776,-131.939 67.2618,-104.602 78.2762,-87.1051"/>
<polygon fill="midnightblue" stroke="midnightblue" points="81.3722,-88.7738 84.0571,-78.5248 75.5669,-84.8625 81.3722,-88.7738"/>
</g>
<!-- Node13 -->
<g id="node13" class="node"><title>Node13</title>
<polygon fill="white" stroke="#bfbfbf" points="317.005,-0.5 317.005,-18.5 357.458,-18.5 357.458,-0.5 317.005,-0.5"/>
<text text-anchor="middle" x="337.231" y="-6.5" font-family="Helvetica,sans-Serif" font-size="10.00">string</text>
</g>
<!-- Node1&#45;&gt;Node13 -->
<g id="edge12" class="edge"><title>Node1&#45;&gt;Node13</title>
<path fill="none" stroke="midnightblue" d="M505.42,-191.477C450.307,-184.113 377.038,-170.564 357.231,-149 326.764,-115.829 329.936,-58.0667 334.003,-28.7265"/>
<polygon fill="midnightblue" stroke="midnightblue" points="337.489,-29.0928 335.594,-18.6689 330.575,-27.9994 337.489,-29.0928"/>
</g>
<!-- Node14 -->
<g id="node14" class="node"><title>Node14</title>
<polygon fill="white" stroke="#bfbfbf" points="180.616,-60.5 180.616,-78.5 223.847,-78.5 223.847,-60.5 180.616,-60.5"/>
<text text-anchor="middle" x="202.231" y="-66.5" font-family="Helvetica,sans-Serif" font-size="10.00">vector</text>
</g>
<!-- Node1&#45;&gt;Node14 -->
<g id="edge13" class="edge"><title>Node1&#45;&gt;Node14</title>
<path fill="none" stroke="midnightblue" d="M505.468,-192.447C431.262,-184.674 314.919,-169.678 276.231,-149 248.662,-134.265 225.586,-105.375 212.864,-87.0515"/>
<polygon fill="midnightblue" stroke="midnightblue" points="215.655,-84.929 207.186,-78.5635 209.837,-88.8213 215.655,-84.929"/>
</g>
<!-- Node15 -->
<g id="node15" class="node"><title>Node15</title>
<polygon fill="white" stroke="#bfbfbf" points="252.731,-60.5 252.731,-78.5 281.731,-78.5 281.731,-60.5 252.731,-60.5"/>
<text text-anchor="middle" x="266.842" y="-66.5" font-family="Helvetica,sans-Serif" font-size="10.00">list</text>
</g>
<!-- Node1&#45;&gt;Node15 -->
<g id="edge14" class="edge"><title>Node1&#45;&gt;Node15</title>
<path fill="none" stroke="midnightblue" d="M505.354,-193.785C435.476,-187.492 330.136,-174.104 299.231,-149 280.879,-134.092 272.958,-106.98 269.604,-88.8518"/>
<polygon fill="midnightblue" stroke="midnightblue" points="273.054,-88.256 268.054,-78.9153 266.137,-89.3354 273.054,-88.256"/>
</g>
<!-- Node16 -->
<g id="node16" class="node"><title>Node16</title>
<polygon fill="white" stroke="#bfbfbf" points="400.059,-0.5 400.059,-18.5 454.404,-18.5 454.404,-0.5 400.059,-0.5"/>
<text text-anchor="middle" x="427.231" y="-6.5" font-family="Helvetica,sans-Serif" font-size="10.00">iostream</text>
</g>
<!-- Node1&#45;&gt;Node16 -->
<g id="edge15" class="edge"><title>Node1&#45;&gt;Node16</title>
<path fill="none" stroke="midnightblue" d="M505.295,-191.082C453.469,-183.667 386.876,-170.267 370.231,-149 340.022,-110.403 385.205,-53.5542 411.132,-26.2588"/>
<polygon fill="midnightblue" stroke="midnightblue" points="413.954,-28.3804 418.455,-18.7896 408.955,-23.4797 413.954,-28.3804"/>
</g>
<!-- Node17 -->
<g id="node17" class="node"><title>Node17</title>
<g id="a_node17"><a xlink:href="trap__utils_8hpp.html" target="_top" xlink:title="core/common/trapgen\l/utils/trap_utils.hpp">
<polygon fill="white" stroke="black" points="379.596,-120.5 379.596,-148.5 492.867,-148.5 492.867,-120.5 379.596,-120.5"/>
<text text-anchor="start" x="387.596" y="-136.5" font-family="Helvetica,sans-Serif" font-size="10.00">core/common/trapgen</text>
<text text-anchor="middle" x="436.231" y="-126.5" font-family="Helvetica,sans-Serif" font-size="10.00">/utils/trap_utils.hpp</text>
</a>
</g>
</g>
<!-- Node1&#45;&gt;Node17 -->
<g id="edge16" class="edge"><title>Node1&#45;&gt;Node17</title>
<path fill="none" stroke="midnightblue" d="M542.467,-185.446C522.433,-176.028 495.175,-163.212 473.285,-152.921"/>
<polygon fill="midnightblue" stroke="midnightblue" points="474.5,-149.624 463.961,-148.537 471.521,-155.959 474.5,-149.624"/>
</g>
<!-- Node22 -->
<g id="node22" class="node"><title>Node22</title>
<g id="a_node22"><a xlink:href="elfFrontend_8hpp.html" target="_top" xlink:title="core/common/trapgen\l/elfloader/elfFrontend.hpp">
<polygon fill="white" stroke="black" points="79.249,-120.5 79.249,-148.5 209.214,-148.5 209.214,-120.5 79.249,-120.5"/>
<text text-anchor="start" x="87.249" y="-136.5" font-family="Helvetica,sans-Serif" font-size="10.00">core/common/trapgen</text>
<text text-anchor="middle" x="144.231" y="-126.5" font-family="Helvetica,sans-Serif" font-size="10.00">/elfloader/elfFrontend.hpp</text>
</a>
</g>
</g>
<!-- Node1&#45;&gt;Node22 -->
<g id="edge28" class="edge"><title>Node1&#45;&gt;Node22</title>
<path fill="none" stroke="midnightblue" d="M505.239,-189.773C435.457,-180.276 321.376,-164.383 223.231,-149 221.956,-148.8 220.668,-148.597 219.372,-148.391"/>
<polygon fill="midnightblue" stroke="midnightblue" points="219.735,-144.904 209.305,-146.766 218.62,-151.815 219.735,-144.904"/>
</g>
<!-- Node23 -->
<g id="node23" class="node"><title>Node23</title>
<polygon fill="white" stroke="#bfbfbf" points="1093.65,-125.5 1093.65,-143.5 1200.81,-143.5 1200.81,-125.5 1093.65,-125.5"/>
<text text-anchor="middle" x="1147.23" y="-131.5" font-family="Helvetica,sans-Serif" font-size="10.00">boost/filesystem.hpp</text>
</g>
<!-- Node1&#45;&gt;Node23 -->
<g id="edge34" class="edge"><title>Node1&#45;&gt;Node23</title>
<path fill="none" stroke="midnightblue" d="M635.174,-194.737C733.142,-188.501 924.384,-174.151 1085.23,-149 1091.23,-148.062 1097.51,-146.903 1103.69,-145.661"/>
<polygon fill="midnightblue" stroke="midnightblue" points="1104.84,-148.997 1113.9,-143.517 1103.4,-142.146 1104.84,-148.997"/>
</g>
<!-- Node24 -->
<g id="node24" class="node"><title>Node24</title>
<polygon fill="white" stroke="#bfbfbf" points="1218.59,-125.5 1218.59,-143.5 1361.87,-143.5 1361.87,-125.5 1218.59,-125.5"/>
<text text-anchor="middle" x="1290.23" y="-131.5" font-family="Helvetica,sans-Serif" font-size="10.00">boost/filesystem/fstream.hpp</text>
</g>
<!-- Node1&#45;&gt;Node24 -->
<g id="edge35" class="edge"><title>Node1&#45;&gt;Node24</title>
<path fill="none" stroke="midnightblue" d="M635.379,-195.402C751.306,-189.457 1000.9,-174.705 1210.23,-149 1218.87,-147.94 1227.99,-146.605 1236.86,-145.191"/>
<polygon fill="midnightblue" stroke="midnightblue" points="1237.44,-148.644 1246.74,-143.57 1236.3,-141.736 1237.44,-148.644"/>
</g>
<!-- Node17&#45;&gt;Node13 -->
<g id="edge21" class="edge"><title>Node17&#45;&gt;Node13</title>
<path fill="none" stroke="midnightblue" d="M425.637,-120.337C407.333,-97.5963 369.858,-51.0362 350.092,-26.4784"/>
<polygon fill="midnightblue" stroke="midnightblue" points="352.676,-24.1067 343.679,-18.5111 347.223,-28.4958 352.676,-24.1067"/>
</g>
<!-- Node17&#45;&gt;Node16 -->
<g id="edge18" class="edge"><title>Node17&#45;&gt;Node16</title>
<path fill="none" stroke="midnightblue" d="M435.268,-120.337C433.655,-98.2945 430.405,-53.8727 428.571,-28.8012"/>
<polygon fill="midnightblue" stroke="midnightblue" points="432.038,-28.229 427.818,-18.5111 425.057,-28.7399 432.038,-28.229"/>
</g>
<!-- Node18 -->
<g id="node18" class="node"><title>Node18</title>
<polygon fill="white" stroke="#bfbfbf" points="515.828,-0.5 515.828,-18.5 574.635,-18.5 574.635,-0.5 515.828,-0.5"/>
<text text-anchor="middle" x="545.231" y="-6.5" font-family="Helvetica,sans-Serif" font-size="10.00">exception</text>
</g>
<!-- Node17&#45;&gt;Node18 -->
<g id="edge17" class="edge"><title>Node17&#45;&gt;Node18</title>
<path fill="none" stroke="midnightblue" d="M442.329,-120.217C450.343,-103.695 465.61,-75.2033 484.231,-55 495.346,-42.9407 510.166,-32.0402 522.415,-24.046"/>
<polygon fill="midnightblue" stroke="midnightblue" points="524.58,-26.8188 531.177,-18.5283 520.85,-20.8955 524.58,-26.8188"/>
</g>
<!-- Node19 -->
<g id="node19" class="node"><title>Node19</title>
<polygon fill="white" stroke="#bfbfbf" points="493.451,-60.5 493.451,-78.5 545.012,-78.5 545.012,-60.5 493.451,-60.5"/>
<text text-anchor="middle" x="519.231" y="-66.5" font-family="Helvetica,sans-Serif" font-size="10.00">sstream</text>
</g>
<!-- Node17&#45;&gt;Node19 -->
<g id="edge19" class="edge"><title>Node17&#45;&gt;Node19</title>
<path fill="none" stroke="midnightblue" d="M453.429,-120.446C467.113,-110.06 486.24,-95.5418 500.347,-84.8339"/>
<polygon fill="midnightblue" stroke="midnightblue" points="502.539,-87.564 508.389,-78.7301 498.307,-81.9882 502.539,-87.564"/>
</g>
<!-- Node20 -->
<g id="node20" class="node"><title>Node20</title>
<polygon fill="white" stroke="#bfbfbf" points="619.83,-0.5 619.83,-18.5 678.633,-18.5 678.633,-0.5 619.83,-0.5"/>
<text text-anchor="middle" x="649.231" y="-6.5" font-family="Helvetica,sans-Serif" font-size="10.00">stdexcept</text>
</g>
<!-- Node17&#45;&gt;Node20 -->
<g id="edge20" class="edge"><title>Node17&#45;&gt;Node20</title>
<path fill="none" stroke="midnightblue" d="M493.185,-122.598C497.935,-121.711 502.665,-120.835 507.231,-120 552.73,-111.68 682.488,-119.421 712.231,-84 720.52,-74.1294 718.159,-66.4448 712.231,-55 705.045,-41.1262 691.323,-30.655 678.514,-23.3667"/>
<polygon fill="midnightblue" stroke="midnightblue" points="679.938,-20.1614 669.456,-18.6192 676.689,-26.3615 679.938,-20.1614"/>
</g>
<!-- Node21 -->
<g id="node21" class="node"><title>Node21</title>
<g id="a_node21"><a xlink:href="customExceptions_8hpp.html" target="_top" xlink:title="core/common/trapgen\l/utils/customExceptions.hpp">
<polygon fill="white" stroke="black" points="563.256,-55.5 563.256,-83.5 703.207,-83.5 703.207,-55.5 563.256,-55.5"/>
<text text-anchor="start" x="571.256" y="-71.5" font-family="Helvetica,sans-Serif" font-size="10.00">core/common/trapgen</text>
<text text-anchor="middle" x="633.231" y="-61.5" font-family="Helvetica,sans-Serif" font-size="10.00">/utils/customExceptions.hpp</text>
</a>
</g>
</g>
<!-- Node17&#45;&gt;Node21 -->
<g id="edge22" class="edge"><title>Node17&#45;&gt;Node21</title>
<path fill="none" stroke="midnightblue" d="M477.05,-120.446C507.69,-110.648 549.828,-97.1721 582.614,-86.6874"/>
<polygon fill="midnightblue" stroke="midnightblue" points="584.007,-89.9167 592.465,-83.5369 581.874,-83.2493 584.007,-89.9167"/>
</g>
<!-- Node21&#45;&gt;Node3 -->
<g id="edge23" class="edge"><title>Node21&#45;&gt;Node3</title>
<path fill="none" stroke="midnightblue" d="M659.937,-55.4837C679.842,-45.7823 706.867,-32.6103 726.527,-23.0281"/>
<polygon fill="midnightblue" stroke="midnightblue" points="728.068,-26.1709 735.523,-18.6434 725.001,-19.8785 728.068,-26.1709"/>
</g>
<!-- Node21&#45;&gt;Node13 -->
<g id="edge27" class="edge"><title>Node21&#45;&gt;Node13</title>
<path fill="none" stroke="midnightblue" d="M566.803,-55.4837C504.499,-43.2754 414.147,-25.5712 367.55,-16.4407"/>
<polygon fill="midnightblue" stroke="midnightblue" points="367.978,-12.9581 357.491,-14.4698 366.631,-19.8275 367.978,-12.9581"/>
</g>
<!-- Node21&#45;&gt;Node16 -->
<g id="edge25" class="edge"><title>Node21&#45;&gt;Node16</title>
<path fill="none" stroke="midnightblue" d="M587.001,-55.4837C549.968,-45.057 498.698,-30.6215 464.319,-20.9422"/>
<polygon fill="midnightblue" stroke="midnightblue" points="465.237,-17.5645 454.662,-18.2233 463.34,-24.3025 465.237,-17.5645"/>
</g>
<!-- Node21&#45;&gt;Node18 -->
<g id="edge24" class="edge"><title>Node21&#45;&gt;Node18</title>
<path fill="none" stroke="midnightblue" d="M613.263,-55.3389C599.203,-46.0719 580.42,-33.6923 566.152,-24.2888"/>
<polygon fill="midnightblue" stroke="midnightblue" points="567.8,-21.1827 557.524,-18.6018 563.947,-27.0274 567.8,-21.1827"/>
</g>
<!-- Node21&#45;&gt;Node20 -->
<g id="edge26" class="edge"><title>Node21&#45;&gt;Node20</title>
<path fill="none" stroke="midnightblue" d="M636.862,-55.3389C639.04,-47.4428 641.842,-37.2868 644.228,-28.6376"/>
<polygon fill="midnightblue" stroke="midnightblue" points="647.664,-29.3422 646.95,-18.7715 640.916,-27.4806 647.664,-29.3422"/>
</g>
<!-- Node22&#45;&gt;Node2 -->
<g id="edge29" class="edge"><title>Node22&#45;&gt;Node2</title>
<path fill="none" stroke="midnightblue" d="M118.539,-120.446C97.0077,-109.507 66.4573,-93.9857 45.1472,-83.1588"/>
<polygon fill="midnightblue" stroke="midnightblue" points="46.5726,-79.9572 36.0719,-78.548 43.4019,-86.198 46.5726,-79.9572"/>
</g>
<!-- Node22&#45;&gt;Node12 -->
<g id="edge30" class="edge"><title>Node22&#45;&gt;Node12</title>
<path fill="none" stroke="midnightblue" d="M133.043,-120.446C124.56,-110.55 112.862,-96.9022 103.838,-86.3737"/>
<polygon fill="midnightblue" stroke="midnightblue" points="106.451,-84.0449 97.2858,-78.7301 101.136,-88.6005 106.451,-84.0449"/>
</g>
<!-- Node22&#45;&gt;Node13 -->
<g id="edge32" class="edge"><title>Node22&#45;&gt;Node13</title>
<path fill="none" stroke="midnightblue" d="M145.06,-120.363C146.878,-102.918 152.684,-72.3033 171.231,-55 208.562,-20.1729 270.15,-12.0218 306.891,-10.4457"/>
<polygon fill="midnightblue" stroke="midnightblue" points="307.104,-13.941 316.998,-10.1518 306.901,-6.944 307.104,-13.941"/>
</g>
<!-- Node22&#45;&gt;Node14 -->
<g id="edge33" class="edge"><title>Node22&#45;&gt;Node14</title>
<path fill="none" stroke="midnightblue" d="M156.249,-120.446C165.36,-110.55 177.925,-96.9022 187.618,-86.3737"/>
<polygon fill="midnightblue" stroke="midnightblue" points="190.456,-88.4577 194.655,-78.7301 185.306,-83.7165 190.456,-88.4577"/>
</g>
<!-- Node22&#45;&gt;Node15 -->
<g id="edge31" class="edge"><title>Node22&#45;&gt;Node15</title>
<path fill="none" stroke="midnightblue" d="M169.717,-120.446C191.44,-109.32 222.42,-93.4522 243.596,-82.6062"/>
<polygon fill="midnightblue" stroke="midnightblue" points="245.262,-85.6853 252.566,-78.0113 242.07,-79.455 245.262,-85.6853"/>
</g>
</g>
</svg>
