<?xml version="1.0" encoding="UTF-8" standalone="no"?>
<!DOCTYPE svg PUBLIC "-//W3C//DTD SVG 1.1//EN"
 "http://www.w3.org/Graphics/SVG/1.1/DTD/svg11.dtd">
<!-- Generated by graphviz version 2.26.0 (20091210.2329)
 -->
<!-- Title: core/models/extern/LEON3/simulatorSources/leon3.funclt/externalPins.hpp Pages: 1 -->
<!--zoomable 608 -->
<svg id="main" version="1.1" xmlns="http://www.w3.org/2000/svg" xmlns:xlink="http://www.w3.org/1999/xlink" xml:space="preserve" onload="init(evt)">
<style type="text/css"><![CDATA[
.edge:hover path { stroke: red; }
.edge:hover polygon { stroke: red; fill: red; }
]]></style>
<script type="text/javascript"><![CDATA[
var edges = document.getElementsByTagName('g');
if (edges && edges.length) {
  for (var i=0;i<edges.length;i++) {
    if (edges[i].id.substr(0,4)=='edge') {
      edges[i].setAttribute('class','edge');
    }
  }
}
]]></script>
        <defs>
                <circle id="rim" cx="0" cy="0" r="7"/>
                <circle id="rim2" cx="0" cy="0" r="3.5"/>
                <g id="zoomPlus">
                        <use xlink:href="#rim" fill="#404040">
                                <set attributeName="fill" to="#808080" begin="zoomplus.mouseover" end="zoomplus.mouseout"/>
                        </use>
                        <path d="M-4,0h8M0,-4v8" fill="none" stroke="white" stroke-width="1.5" pointer-events="none"/>
                </g>
                <g id="zoomMin">
                        <use xlink:href="#rim" fill="#404040">
                                <set attributeName="fill" to="#808080" begin="zoomminus.mouseover" end="zoomminus.mouseout"/>
                        </use>
                        <path d="M-4,0h8" fill="none" stroke="white" stroke-width="1.5" pointer-events="none"/>
                </g>
                <g id="dirArrow">
                        <path fill="none" stroke="white" stroke-width="1.5" d="M0,-3.0v7 M-2.5,-0.5L0,-3.0L2.5,-0.5"/>
                </g>
               <g id="resetDef">
                       <use xlink:href="#rim2" fill="#404040">
                               <set attributeName="fill" to="#808080" begin="reset.mouseover" end="reset.mouseout"/>
                       </use>
               </g>
        </defs>

<script type="text/javascript">
var viewWidth = 893;
var viewHeight = 608;
var sectionId = 'dynsection-1';
</script>
<script xlink:href="svgpan.js"/>
<svg id="graph" class="graph">
<g id="viewport">
<title>core/models/extern/LEON3/simulatorSources/leon3.funclt/externalPins.hpp</title>
<polygon fill="white" stroke="white" points="-4,5 -4,-604 890,-604 890,5 -4,5"/>
<!-- Node1 -->
<g id="node1" class="node"><title>Node1</title>
<polygon fill="#bfbfbf" stroke="black" points="539,-552.5 539,-599.5 685,-599.5 685,-552.5 539,-552.5"/>
<text text-anchor="start" x="547" y="-586.5" font-family="Helvetica,sans-Serif" font-size="10.00">core/models/extern</text>
<text text-anchor="start" x="547" y="-573.5" font-family="Helvetica,sans-Serif" font-size="10.00">/LEON3/simulatorSources</text>
<text text-anchor="middle" x="612" y="-560.5" font-family="Helvetica,sans-Serif" font-size="10.00">/leon3.funclt/externalPins.hpp</text>
</g>
<!-- Node2 -->
<g id="node3" class="node"><title>Node2</title>
<a xlink:href="instructions_8hpp.html" target="_top" xlink:title="core/models/extern\l/LEON3/simulatorSources\l/leon3.funclt/instructions.hpp">
<polygon fill="white" stroke="black" points="404,-468.5 404,-515.5 546,-515.5 546,-468.5 404,-468.5"/>
<text text-anchor="start" x="412" y="-502.5" font-family="Helvetica,sans-Serif" font-size="10.00">core/models/extern</text>
<text text-anchor="start" x="412" y="-489.5" font-family="Helvetica,sans-Serif" font-size="10.00">/LEON3/simulatorSources</text>
<text text-anchor="middle" x="475" y="-476.5" font-family="Helvetica,sans-Serif" font-size="10.00">/leon3.funclt/instructions.hpp</text>
</a>
</g>
<!-- Node1&#45;&gt;Node2 -->
<g id="edge2" class="edge"><title>Node1&#45;&gt;Node2</title>
<path fill="none" stroke="midnightblue" d="M564.935,-547.143C548.232,-536.901 529.638,-525.501 513.712,-515.736"/>
<polygon fill="midnightblue" stroke="midnightblue" points="563.119,-550.134 573.473,-552.378 566.778,-544.167 563.119,-550.134"/>
</g>
<!-- Node5 -->
<g id="node9" class="node"><title>Node5</title>
<a xlink:href="processor_8hpp.html" target="_top" xlink:title="core/models/extern\l/LEON3/simulatorSources\l/leon3.funclt/processor.hpp">
<polygon fill="white" stroke="black" points="220,-300.5 220,-347.5 354,-347.5 354,-300.5 220,-300.5"/>
<text text-anchor="start" x="228" y="-334.5" font-family="Helvetica,sans-Serif" font-size="10.00">core/models/extern</text>
<text text-anchor="start" x="228" y="-321.5" font-family="Helvetica,sans-Serif" font-size="10.00">/LEON3/simulatorSources</text>
<text text-anchor="middle" x="287" y="-308.5" font-family="Helvetica,sans-Serif" font-size="10.00">/leon3.funclt/processor.hpp</text>
</a>
</g>
<!-- Node1&#45;&gt;Node5 -->
<g id="edge46" class="edge"><title>Node1&#45;&gt;Node5</title>
<path fill="none" stroke="midnightblue" d="M529.034,-560.885C487.416,-551.38 437.051,-536.885 395,-516 339.907,-488.638 312.271,-487.138 285,-432 271.864,-405.441 275.705,-370.526 280.57,-347.687"/>
<polygon fill="midnightblue" stroke="midnightblue" points="528.345,-564.317 538.866,-563.075 529.867,-557.484 528.345,-564.317"/>
</g>
<!-- Node7 -->
<g id="node13" class="node"><title>Node7</title>
<a xlink:href="processor_8cpp.html" target="_top" xlink:title="core/models/extern\l/LEON3/simulatorSources\l/leon3.funclt/processor.cpp">
<polygon fill="white" stroke="black" points="462,-216.5 462,-263.5 596,-263.5 596,-216.5 462,-216.5"/>
<text text-anchor="start" x="470" y="-250.5" font-family="Helvetica,sans-Serif" font-size="10.00">core/models/extern</text>
<text text-anchor="start" x="470" y="-237.5" font-family="Helvetica,sans-Serif" font-size="10.00">/LEON3/simulatorSources</text>
<text text-anchor="middle" x="529" y="-224.5" font-family="Helvetica,sans-Serif" font-size="10.00">/leon3.funclt/processor.cpp</text>
</a>
</g>
<!-- Node1&#45;&gt;Node7 -->
<g id="edge48" class="edge"><title>Node1&#45;&gt;Node7</title>
<path fill="none" stroke="midnightblue" d="M641.347,-544.758C673.48,-506.565 717.29,-440.088 692,-384 667.632,-329.957 611.846,-288.041 572.344,-263.703"/>
<polygon fill="midnightblue" stroke="midnightblue" points="638.58,-542.607 634.696,-552.464 643.879,-547.18 638.58,-542.607"/>
</g>
<!-- Node15 -->
<g id="node32" class="node"><title>Node15</title>
<a xlink:href="instructions_8cpp.html" target="_top" xlink:title="core/models/extern\l/LEON3/simulatorSources\l/leon3.funclt/instructions.cpp">
<polygon fill="white" stroke="black" points="541,-384.5 541,-431.5 683,-431.5 683,-384.5 541,-384.5"/>
<text text-anchor="start" x="549" y="-418.5" font-family="Helvetica,sans-Serif" font-size="10.00">core/models/extern</text>
<text text-anchor="start" x="549" y="-405.5" font-family="Helvetica,sans-Serif" font-size="10.00">/LEON3/simulatorSources</text>
<text text-anchor="middle" x="612" y="-392.5" font-family="Helvetica,sans-Serif" font-size="10.00">/leon3.funclt/instructions.cpp</text>
</a>
</g>
<!-- Node1&#45;&gt;Node15 -->
<g id="edge44" class="edge"><title>Node1&#45;&gt;Node15</title>
<path fill="none" stroke="midnightblue" d="M612,-542.245C612,-509.426 612,-460.429 612,-431.593"/>
<polygon fill="midnightblue" stroke="midnightblue" points="608.5,-542.286 612,-552.286 615.5,-542.286 608.5,-542.286"/>
</g>
<!-- Node16 -->
<g id="node37" class="node"><title>Node16</title>
<a xlink:href="externalPins_8cpp.html" target="_top" xlink:title="core/models/extern\l/LEON3/simulatorSources\l/leon3.funclt/externalPins.cpp">
<polygon fill="white" stroke="black" points="739,-468.5 739,-515.5 885,-515.5 885,-468.5 739,-468.5"/>
<text text-anchor="start" x="747" y="-502.5" font-family="Helvetica,sans-Serif" font-size="10.00">core/models/extern</text>
<text text-anchor="start" x="747" y="-489.5" font-family="Helvetica,sans-Serif" font-size="10.00">/LEON3/simulatorSources</text>
<text text-anchor="middle" x="812" y="-476.5" font-family="Helvetica,sans-Serif" font-size="10.00">/leon3.funclt/externalPins.cpp</text>
</a>
</g>
<!-- Node1&#45;&gt;Node16 -->
<g id="edge42" class="edge"><title>Node1&#45;&gt;Node16</title>
<path fill="none" stroke="midnightblue" d="M677.522,-548.481C702.898,-537.823 731.65,-525.747 756.036,-515.505"/>
<polygon fill="midnightblue" stroke="midnightblue" points="675.842,-545.39 667.977,-552.49 678.552,-551.844 675.842,-545.39"/>
</g>
<!-- Node3 -->
<g id="node5" class="node"><title>Node3</title>
<a xlink:href="decoder_8hpp.html" target="_top" xlink:title="core/models/extern\l/LEON3/simulatorSources\l/leon3.funclt/decoder.hpp">
<polygon fill="white" stroke="black" points="316.5,-384.5 316.5,-431.5 447.5,-431.5 447.5,-384.5 316.5,-384.5"/>
<text text-anchor="start" x="324.5" y="-418.5" font-family="Helvetica,sans-Serif" font-size="10.00">core/models/extern</text>
<text text-anchor="start" x="324.5" y="-405.5" font-family="Helvetica,sans-Serif" font-size="10.00">/LEON3/simulatorSources</text>
<text text-anchor="middle" x="382" y="-392.5" font-family="Helvetica,sans-Serif" font-size="10.00">/leon3.funclt/decoder.hpp</text>
</a>
</g>
<!-- Node2&#45;&gt;Node3 -->
<g id="edge4" class="edge"><title>Node2&#45;&gt;Node3</title>
<path fill="none" stroke="midnightblue" d="M440.928,-461.225C430.107,-451.451 418.317,-440.802 408.145,-431.615"/>
<polygon fill="midnightblue" stroke="midnightblue" points="438.832,-464.048 448.599,-468.154 443.524,-458.853 438.832,-464.048"/>
</g>
<!-- Node4 -->
<g id="node7" class="node"><title>Node4</title>
<a xlink:href="decoder_8cpp.html" target="_top" xlink:title="core/models/extern\l/LEON3/simulatorSources\l/leon3.funclt/decoder.cpp">
<polygon fill="white" stroke="black" points="409.5,-300.5 409.5,-347.5 540.5,-347.5 540.5,-300.5 409.5,-300.5"/>
<text text-anchor="start" x="417.5" y="-334.5" font-family="Helvetica,sans-Serif" font-size="10.00">core/models/extern</text>
<text text-anchor="start" x="417.5" y="-321.5" font-family="Helvetica,sans-Serif" font-size="10.00">/LEON3/simulatorSources</text>
<text text-anchor="middle" x="475" y="-308.5" font-family="Helvetica,sans-Serif" font-size="10.00">/leon3.funclt/decoder.cpp</text>
</a>
</g>
<!-- Node2&#45;&gt;Node4 -->
<g id="edge32" class="edge"><title>Node2&#45;&gt;Node4</title>
<path fill="none" stroke="midnightblue" d="M475,-458.245C475,-425.426 475,-376.429 475,-347.593"/>
<polygon fill="midnightblue" stroke="midnightblue" points="471.5,-458.286 475,-468.286 478.5,-458.286 471.5,-458.286"/>
</g>
<!-- Node2&#45;&gt;Node5 -->
<g id="edge36" class="edge"><title>Node2&#45;&gt;Node5</title>
<path fill="none" stroke="midnightblue" d="M393.662,-480.309C362.665,-471.834 329.628,-457.215 308,-432 287.978,-408.657 284.834,-371.959 285.258,-347.936"/>
<polygon fill="midnightblue" stroke="midnightblue" points="393.083,-483.773 403.638,-482.85 394.811,-476.989 393.083,-483.773"/>
</g>
<!-- Node6 -->
<g id="node11" class="node"><title>Node6</title>
<a xlink:href="main_8cpp.html" target="_top" xlink:title="core/models/extern\l/LEON3/simulatorSources\l/leon3.funclt/main.cpp">
<polygon fill="white" stroke="black" points="126.5,-216.5 126.5,-263.5 257.5,-263.5 257.5,-216.5 126.5,-216.5"/>
<text text-anchor="start" x="134.5" y="-250.5" font-family="Helvetica,sans-Serif" font-size="10.00">core/models/extern</text>
<text text-anchor="start" x="134.5" y="-237.5" font-family="Helvetica,sans-Serif" font-size="10.00">/LEON3/simulatorSources</text>
<text text-anchor="middle" x="192" y="-224.5" font-family="Helvetica,sans-Serif" font-size="10.00">/leon3.funclt/main.cpp</text>
</a>
</g>
<!-- Node2&#45;&gt;Node6 -->
<g id="edge38" class="edge"><title>Node2&#45;&gt;Node6</title>
<path fill="none" stroke="midnightblue" d="M393.932,-476.691C358.531,-467.493 317.722,-453.31 285,-432 243.308,-404.849 232.559,-392.84 211,-348 198.048,-321.062 193.837,-286.545 192.516,-263.877"/>
<polygon fill="midnightblue" stroke="midnightblue" points="393.212,-480.118 403.762,-479.155 394.913,-473.328 393.212,-480.118"/>
</g>
<!-- Node2&#45;&gt;Node7 -->
<g id="edge40" class="edge"><title>Node2&#45;&gt;Node7</title>
<path fill="none" stroke="midnightblue" d="M492.318,-459.26C513.733,-418.638 547.559,-353.956 549,-348 555.95,-319.272 547.152,-285.74 539.128,-263.753"/>
<polygon fill="midnightblue" stroke="midnightblue" points="489.132,-457.798 487.561,-468.276 495.323,-461.065 489.132,-457.798"/>
</g>
<!-- Node2&#45;&gt;Node15 -->
<g id="edge34" class="edge"><title>Node2&#45;&gt;Node15</title>
<path fill="none" stroke="midnightblue" d="M522.065,-463.143C538.768,-452.901 557.362,-441.501 573.288,-431.736"/>
<polygon fill="midnightblue" stroke="midnightblue" points="520.222,-460.167 513.527,-468.378 523.881,-466.134 520.222,-460.167"/>
</g>
<!-- Node3&#45;&gt;Node4 -->
<g id="edge6" class="edge"><title>Node3&#45;&gt;Node4</title>
<path fill="none" stroke="midnightblue" d="M416.072,-377.225C426.893,-367.451 438.683,-356.802 448.855,-347.615"/>
<polygon fill="midnightblue" stroke="midnightblue" points="413.476,-374.853 408.401,-384.154 418.168,-380.048 413.476,-374.853"/>
</g>
<!-- Node3&#45;&gt;Node5 -->
<g id="edge8" class="edge"><title>Node3&#45;&gt;Node5</title>
<path fill="none" stroke="midnightblue" d="M347.762,-377.726C336.602,-367.859 324.381,-357.053 313.844,-347.736"/>
<polygon fill="midnightblue" stroke="midnightblue" points="345.474,-380.376 355.284,-384.378 350.111,-375.132 345.474,-380.376"/>
</g>
<!-- Node3&#45;&gt;Node7 -->
<g id="edge30" class="edge"><title>Node3&#45;&gt;Node7</title>
<path fill="none" stroke="midnightblue" d="M380.193,-374.418C380.659,-351.315 384.844,-321.107 401,-300 416.141,-280.219 439.397,-266.692 461.953,-257.569"/>
<polygon fill="midnightblue" stroke="midnightblue" points="376.693,-374.482 380.211,-384.476 383.693,-374.469 376.693,-374.482"/>
</g>
<!-- Node5&#45;&gt;Node6 -->
<g id="edge10" class="edge"><title>Node5&#45;&gt;Node6</title>
<path fill="none" stroke="midnightblue" d="M252.762,-293.726C241.602,-283.859 229.381,-273.053 218.844,-263.736"/>
<polygon fill="midnightblue" stroke="midnightblue" points="250.474,-296.376 260.284,-300.378 255.111,-291.132 250.474,-296.376"/>
</g>
<!-- Node5&#45;&gt;Node7 -->
<g id="edge12" class="edge"><title>Node5&#45;&gt;Node7</title>
<path fill="none" stroke="midnightblue" d="M363.703,-297.376C395.199,-286.443 431.34,-273.898 461.78,-263.332"/>
<polygon fill="midnightblue" stroke="midnightblue" points="362.388,-294.127 354.089,-300.713 364.684,-300.74 362.388,-294.127"/>
</g>
<!-- Node8 -->
<g id="node15" class="node"><title>Node8</title>
<a xlink:href="leon3_8funclt_8h.html" target="_top" xlink:title="core/models/extern\l/LEON3/simulatorSources\l/leon3.funclt.h">
<polygon fill="white" stroke="black" points="274.5,-216.5 274.5,-263.5 405.5,-263.5 405.5,-216.5 274.5,-216.5"/>
<text text-anchor="start" x="282.5" y="-250.5" font-family="Helvetica,sans-Serif" font-size="10.00">core/models/extern</text>
<text text-anchor="start" x="282.5" y="-237.5" font-family="Helvetica,sans-Serif" font-size="10.00">/LEON3/simulatorSources</text>
<text text-anchor="middle" x="340" y="-224.5" font-family="Helvetica,sans-Serif" font-size="10.00">/leon3.funclt.h</text>
</a>
</g>
<!-- Node5&#45;&gt;Node8 -->
<g id="edge14" class="edge"><title>Node5&#45;&gt;Node8</title>
<path fill="none" stroke="midnightblue" d="M307.501,-291.508C313.364,-282.215 319.641,-272.267 325.1,-263.615"/>
<polygon fill="midnightblue" stroke="midnightblue" points="304.422,-289.829 302.046,-300.154 310.342,-293.564 304.422,-289.829"/>
</g>
<!-- Node9 -->
<g id="node17" class="node"><title>Node9</title>
<a xlink:href="leon3__mmu__cache_8h.html" target="_top" xlink:title="core/models/mmu_cache\l/lib/leon3_mmu_cache.h">
<polygon fill="white" stroke="black" points="159,-145 159,-179 285,-179 285,-145 159,-145"/>
<text text-anchor="start" x="167" y="-166" font-family="Helvetica,sans-Serif" font-size="10.00">core/models/mmu_cache</text>
<text text-anchor="middle" x="222" y="-153" font-family="Helvetica,sans-Serif" font-size="10.00">/lib/leon3_mmu_cache.h</text>
</a>
</g>
<!-- Node8&#45;&gt;Node9 -->
<g id="edge16" class="edge"><title>Node8&#45;&gt;Node9</title>
<path fill="none" stroke="midnightblue" d="M295.53,-210.605C279.444,-199.971 261.821,-188.322 247.861,-179.095"/>
<polygon fill="midnightblue" stroke="midnightblue" points="294.004,-213.791 304.276,-216.386 297.864,-207.952 294.004,-213.791"/>
</g>
<!-- Node12 -->
<g id="node23" class="node"><title>Node12</title>
<a xlink:href="leon3mp_8h.html" target="_top" xlink:title="core/platforms/newleon3mp\l/leon3mp.h">
<polygon fill="white" stroke="black" points="285.5,-73 285.5,-107 422.5,-107 422.5,-73 285.5,-73"/>
<text text-anchor="start" x="293.5" y="-94" font-family="Helvetica,sans-Serif" font-size="10.00">core/platforms/newleon3mp</text>
<text text-anchor="middle" x="354" y="-81" font-family="Helvetica,sans-Serif" font-size="10.00">/leon3mp.h</text>
</a>
</g>
<!-- Node8&#45;&gt;Node12 -->
<g id="edge28" class="edge"><title>Node8&#45;&gt;Node12</title>
<path fill="none" stroke="midnightblue" d="M343.178,-205.95C346.052,-175.161 350.165,-131.094 352.402,-107.125"/>
<polygon fill="midnightblue" stroke="midnightblue" points="339.663,-205.95 342.218,-216.232 346.633,-206.601 339.663,-205.95"/>
</g>
<!-- Node14 -->
<g id="node27" class="node"><title>Node14</title>
<a xlink:href="leon3processor_8h.html" target="_top" xlink:title="core/platforms/base\l/leon3processor.h">
<polygon fill="white" stroke="black" points="367.5,-145 367.5,-179 470.5,-179 470.5,-145 367.5,-145"/>
<text text-anchor="start" x="375.5" y="-166" font-family="Helvetica,sans-Serif" font-size="10.00">core/platforms/base</text>
<text text-anchor="middle" x="419" y="-153" font-family="Helvetica,sans-Serif" font-size="10.00">/leon3processor.h</text>
</a>
</g>
<!-- Node8&#45;&gt;Node14 -->
<g id="edge26" class="edge"><title>Node8&#45;&gt;Node14</title>
<path fill="none" stroke="midnightblue" d="M371.478,-208.92C381.811,-198.718 392.909,-187.761 401.779,-179.003"/>
<polygon fill="midnightblue" stroke="midnightblue" points="368.789,-206.657 364.132,-216.174 373.707,-211.638 368.789,-206.657"/>
</g>
<!-- Node10 -->
<g id="node19" class="node"><title>Node10</title>
<a xlink:href="leon3__mmu__cache_8cpp.html" target="_top" xlink:title="core/models/mmu_cache\l/lib/leon3_mmu_cache.cpp">
<polygon fill="white" stroke="black" points="-0.5,-73 -0.5,-107 132.5,-107 132.5,-73 -0.5,-73"/>
<text text-anchor="start" x="7.5" y="-94" font-family="Helvetica,sans-Serif" font-size="10.00">core/models/mmu_cache</text>
<text text-anchor="middle" x="66" y="-81" font-family="Helvetica,sans-Serif" font-size="10.00">/lib/leon3_mmu_cache.cpp</text>
</a>
</g>
<!-- Node9&#45;&gt;Node10 -->
<g id="edge18" class="edge"><title>Node9&#45;&gt;Node10</title>
<path fill="none" stroke="midnightblue" d="M175.717,-140.638C152.495,-129.921 124.752,-117.117 102.974,-107.065"/>
<polygon fill="midnightblue" stroke="midnightblue" points="174.484,-143.924 185.03,-144.937 177.417,-137.569 174.484,-143.924"/>
</g>
<!-- Node11 -->
<g id="node21" class="node"><title>Node11</title>
<a xlink:href="leon3mp_2sc__main_8cpp.html" target="_top" xlink:title="core/platforms/leon3mp\l/sc_main.cpp">
<polygon fill="white" stroke="black" points="149.5,-73 149.5,-107 268.5,-107 268.5,-73 149.5,-73"/>
<text text-anchor="start" x="157.5" y="-94" font-family="Helvetica,sans-Serif" font-size="10.00">core/platforms/leon3mp</text>
<text text-anchor="middle" x="209" y="-81" font-family="Helvetica,sans-Serif" font-size="10.00">/sc_main.cpp</text>
</a>
</g>
<!-- Node9&#45;&gt;Node11 -->
<g id="edge20" class="edge"><title>Node9&#45;&gt;Node11</title>
<path fill="none" stroke="midnightblue" d="M217.128,-135.017C215.462,-125.788 213.643,-115.714 212.149,-107.441"/>
<polygon fill="midnightblue" stroke="midnightblue" points="213.698,-135.718 218.919,-144.937 220.587,-134.474 213.698,-135.718"/>
</g>
<!-- Node9&#45;&gt;Node12 -->
<g id="edge22" class="edge"><title>Node9&#45;&gt;Node12</title>
<path fill="none" stroke="midnightblue" d="M262.181,-140.083C281.537,-129.525 304.41,-117.049 322.485,-107.19"/>
<polygon fill="midnightblue" stroke="midnightblue" points="260.385,-137.076 253.282,-144.937 263.737,-143.221 260.385,-137.076"/>
</g>
<!-- Node13 -->
<g id="node25" class="node"><title>Node13</title>
<a xlink:href="newleon3mp_2sc__main_8cpp.html" target="_top" xlink:title="core/platforms/newleon3mp\l/sc_main.cpp">
<polygon fill="white" stroke="black" points="285.5,-1 285.5,-35 422.5,-35 422.5,-1 285.5,-1"/>
<text text-anchor="start" x="293.5" y="-22" font-family="Helvetica,sans-Serif" font-size="10.00">core/platforms/newleon3mp</text>
<text text-anchor="middle" x="354" y="-9" font-family="Helvetica,sans-Serif" font-size="10.00">/sc_main.cpp</text>
</a>
</g>
<!-- Node12&#45;&gt;Node13 -->
<g id="edge24" class="edge"><title>Node12&#45;&gt;Node13</title>
<path fill="none" stroke="midnightblue" d="M354,-62.7193C354,-53.572 354,-43.6255 354,-35.4407"/>
<polygon fill="midnightblue" stroke="midnightblue" points="350.5,-62.937 354,-72.937 357.5,-62.937 350.5,-62.937"/>
</g>
</g>
</svg>
        <g id="navigator" transform="translate(0 0)" fill="#404254">
                <rect fill="#f2f5e9" fill-opacity="0.5" stroke="#606060" stroke-width=".5" x="0" y="0" width="60" height="60"/>
                <use id="zoomplus" xlink:href="#zoomPlus" x="17" y="9" onmousedown="handleZoom(evt,'in')"/>
                <use id="zoomminus" xlink:href="#zoomMin" x="42" y="9" onmousedown="handleZoom(evt,'out')"/>
                <use id="reset" xlink:href="#resetDef" x="30" y="36" onmousedown="handleReset()"/>
                <g id="arrowUp" xlink:href="#dirArrow" transform="translate(30 24)" onmousedown="handlePan(0,-1)">
                  <use xlink:href="#rim" fill="#404040">
                        <set attributeName="fill" to="#808080" begin="arrowUp.mouseover" end="arrowUp.mouseout"/>
                  </use>
                  <path fill="none" stroke="white" stroke-width="1.5" d="M0,-3.0v7 M-2.5,-0.5L0,-3.0L2.5,-0.5"/>
                </g>
                <g id="arrowRight" xlink:href="#dirArrow" transform="rotate(90) translate(36 -43)" onmousedown="handlePan(1,0)">
                  <use xlink:href="#rim" fill="#404040">
                        <set attributeName="fill" to="#808080" begin="arrowRight.mouseover" end="arrowRight.mouseout"/>
                  </use>
                  <path fill="none" stroke="white" stroke-width="1.5" d="M0,-3.0v7 M-2.5,-0.5L0,-3.0L2.5,-0.5"/>
                </g>
                <g id="arrowDown" xlink:href="#dirArrow" transform="rotate(180) translate(-30 -48)" onmousedown="handlePan(0,1)">
                  <use xlink:href="#rim" fill="#404040">
                        <set attributeName="fill" to="#808080" begin="arrowDown.mouseover" end="arrowDown.mouseout"/>
                  </use>
                  <path fill="none" stroke="white" stroke-width="1.5" d="M0,-3.0v7 M-2.5,-0.5L0,-3.0L2.5,-0.5"/>
                </g>
                <g id="arrowLeft" xlink:href="#dirArrow" transform="rotate(270) translate(-36 17)" onmousedown="handlePan(-1,0)">
                  <use xlink:href="#rim" fill="#404040">
                        <set attributeName="fill" to="#808080" begin="arrowLeft.mouseover" end="arrowLeft.mouseout"/>
                  </use>
                  <path fill="none" stroke="white" stroke-width="1.5" d="M0,-3.0v7 M-2.5,-0.5L0,-3.0L2.5,-0.5"/>
                </g>
        </g>
        <svg viewBox="0 0 15 15" width="100%" height="30px" preserveAspectRatio="xMaxYMin meet">
         <g id="arrow_out" transform="scale(0.3 0.3)">
          <a xlink:href="externalPins_8hpp__dep__incl_org.svg" target="_base">
           <rect id="button" ry="5" rx="5" y="6" x="6" height="38" width="38"
                fill="#f2f5e9" fill-opacity="0.5" stroke="#606060" stroke-width="1.0"/>
           <path id="arrow"
             d="M 11.500037,31.436501 C 11.940474,20.09759 22.043105,11.32322 32.158766,21.979434 L 37.068811,17.246167 C 37.068811,17.246167 37.088388,32 37.088388,32 L 22.160133,31.978069 C 22.160133,31.978069 26.997745,27.140456 26.997745,27.140456 C 18.528582,18.264221 13.291696,25.230495 11.500037,31.436501 z"
             style="fill:#404040;"/>
          </a>
         </g>
        </svg>
</svg>
