<?xml version="1.0" encoding="UTF-8" standalone="no"?>
<!DOCTYPE svg PUBLIC "-//W3C//DTD SVG 1.1//EN"
 "http://www.w3.org/Graphics/SVG/1.1/DTD/svg11.dtd">
<!-- Generated by graphviz version 2.26.0 (20091210.2329)
 -->
<!-- Title: core/models/extern/LEON3/simulatorSources/leon3.funclt/externalPorts.cpp Pages: 1 -->
<svg width="1709pt" height="440pt"
 viewBox="0.00 0.00 1709.00 440.00" xmlns="http://www.w3.org/2000/svg" xmlns:xlink="http://www.w3.org/1999/xlink">
<g id="graph1" class="graph" transform="scale(1 1) rotate(0) translate(4 436)">
<title>core/models/extern/LEON3/simulatorSources/leon3.funclt/externalPorts.cpp</title>
<polygon fill="white" stroke="white" points="-4,5 -4,-436 1706,-436 1706,5 -4,5"/>
<!-- Node1 -->
<g id="node1" class="node"><title>Node1</title>
<polygon fill="#bfbfbf" stroke="black" points="721.5,-384.5 721.5,-431.5 870.5,-431.5 870.5,-384.5 721.5,-384.5"/>
<text text-anchor="start" x="729.5" y="-418.5" font-family="Helvetica,sans-Serif" font-size="10.00">core/models/extern</text>
<text text-anchor="start" x="729.5" y="-405.5" font-family="Helvetica,sans-Serif" font-size="10.00">/LEON3/simulatorSources</text>
<text text-anchor="middle" x="796" y="-392.5" font-family="Helvetica,sans-Serif" font-size="10.00">/leon3.funclt/externalPorts.cpp</text>
</g>
<!-- Node2 -->
<g id="node3" class="node"><title>Node2</title>
<a xlink:href="externalPorts_8hpp.html" target="_top" xlink:title="core/models/extern\l/LEON3/simulatorSources\l/leon3.funclt/externalPorts.hpp">
<polygon fill="white" stroke="black" points="877.5,-300.5 877.5,-347.5 1026.5,-347.5 1026.5,-300.5 877.5,-300.5"/>
<text text-anchor="start" x="885.5" y="-334.5" font-family="Helvetica,sans-Serif" font-size="10.00">core/models/extern</text>
<text text-anchor="start" x="885.5" y="-321.5" font-family="Helvetica,sans-Serif" font-size="10.00">/LEON3/simulatorSources</text>
<text text-anchor="middle" x="952" y="-308.5" font-family="Helvetica,sans-Serif" font-size="10.00">/leon3.funclt/externalPorts.hpp</text>
</a>
</g>
<!-- Node1&#45;&gt;Node2 -->
<g id="edge2" class="edge"><title>Node1&#45;&gt;Node2</title>
<path fill="none" stroke="midnightblue" d="M839.87,-384.378C858.308,-374.45 879.916,-362.815 899.215,-352.423"/>
<polygon fill="midnightblue" stroke="midnightblue" points="901.044,-355.413 908.189,-347.59 897.725,-349.25 901.044,-355.413"/>
</g>
<!-- Node3 -->
<g id="node5" class="node"><title>Node3</title>
<a xlink:href="memory_8hpp.html" target="_top" xlink:title="core/models/extern\l/LEON3/simulatorSources\l/leon3.funclt/memory.hpp">
<polygon fill="white" stroke="black" points="498.5,-216.5 498.5,-263.5 629.5,-263.5 629.5,-216.5 498.5,-216.5"/>
<text text-anchor="start" x="506.5" y="-250.5" font-family="Helvetica,sans-Serif" font-size="10.00">core/models/extern</text>
<text text-anchor="start" x="506.5" y="-237.5" font-family="Helvetica,sans-Serif" font-size="10.00">/LEON3/simulatorSources</text>
<text text-anchor="middle" x="564" y="-224.5" font-family="Helvetica,sans-Serif" font-size="10.00">/leon3.funclt/memory.hpp</text>
</a>
</g>
<!-- Node1&#45;&gt;Node3 -->
<g id="edge100" class="edge"><title>Node1&#45;&gt;Node3</title>
<path fill="none" stroke="midnightblue" d="M743.929,-384.49C723.594,-374.384 700.522,-361.736 681,-348 648.704,-325.276 616.02,-294.284 593.437,-271.326"/>
<polygon fill="midnightblue" stroke="midnightblue" points="595.664,-268.597 586.181,-263.873 590.649,-273.479 595.664,-268.597"/>
</g>
<!-- Node4 -->
<g id="node7" class="node"><title>Node4</title>
<a xlink:href="ToolsIf_8hpp.html" target="_top" xlink:title="core/common/trapgen\l/ToolsIf.hpp">
<polygon fill="white" stroke="black" points="324.5,-145 324.5,-179 435.5,-179 435.5,-145 324.5,-145"/>
<text text-anchor="start" x="332.5" y="-166" font-family="Helvetica,sans-Serif" font-size="10.00">core/common/trapgen</text>
<text text-anchor="middle" x="380" y="-153" font-family="Helvetica,sans-Serif" font-size="10.00">/ToolsIf.hpp</text>
</a>
</g>
<!-- Node1&#45;&gt;Node4 -->
<g id="edge102" class="edge"><title>Node1&#45;&gt;Node4</title>
<path fill="none" stroke="midnightblue" d="M721.34,-403.269C661.999,-396.967 578.394,-382.27 513,-348 464.823,-322.752 455.194,-308.558 424,-264 407.746,-240.783 395.654,-210.61 388.302,-189.117"/>
<polygon fill="midnightblue" stroke="midnightblue" points="391.531,-187.734 385.076,-179.332 384.883,-189.925 391.531,-187.734"/>
</g>
<!-- Node11 -->
<g id="node21" class="node"><title>Node11</title>
<a xlink:href="trap__utils_8hpp.html" target="_top" xlink:title="core/common/trapgen\l/utils/trap_utils.hpp">
<polygon fill="white" stroke="black" points="452.5,-145 452.5,-179 563.5,-179 563.5,-145 452.5,-145"/>
<text text-anchor="start" x="460.5" y="-166" font-family="Helvetica,sans-Serif" font-size="10.00">core/common/trapgen</text>
<text text-anchor="middle" x="508" y="-153" font-family="Helvetica,sans-Serif" font-size="10.00">/utils/trap_utils.hpp</text>
</a>
</g>
<!-- Node1&#45;&gt;Node11 -->
<g id="edge104" class="edge"><title>Node1&#45;&gt;Node11</title>
<path fill="none" stroke="midnightblue" d="M721.27,-397.87C646.279,-383.122 535.551,-347.666 490,-264 477.25,-240.581 485.31,-210.068 494.35,-188.538"/>
<polygon fill="midnightblue" stroke="midnightblue" points="497.58,-189.89 498.502,-179.336 491.199,-187.012 497.58,-189.89"/>
</g>
<!-- Node16 -->
<g id="node38" class="node"><title>Node16</title>
<a xlink:href="systemc_8h.html" target="_top" xlink:title="core/common/systemc.h">
<polygon fill="white" stroke="black" points="708.5,-79.5 708.5,-100.5 833.5,-100.5 833.5,-79.5 708.5,-79.5"/>
<text text-anchor="middle" x="771" y="-87.5" font-family="Helvetica,sans-Serif" font-size="10.00">core/common/systemc.h</text>
</a>
</g>
<!-- Node1&#45;&gt;Node16 -->
<g id="edge112" class="edge"><title>Node1&#45;&gt;Node16</title>
<path fill="none" stroke="midnightblue" d="M790.837,-384.192C782.173,-342.883 765.058,-255.146 759,-180 757.714,-164.052 757.254,-159.904 759,-144 760.231,-132.783 762.86,-120.487 765.345,-110.465"/>
<polygon fill="midnightblue" stroke="midnightblue" points="768.769,-111.202 767.91,-100.642 761.997,-109.433 768.769,-111.202"/>
</g>
<!-- Node17 -->
<g id="node41" class="node"><title>Node17</title>
<polygon fill="white" stroke="#bfbfbf" points="1400,-7.5 1400,-28.5 1438,-28.5 1438,-7.5 1400,-7.5"/>
<text text-anchor="middle" x="1419" y="-15.5" font-family="Helvetica,sans-Serif" font-size="10.00">tlm.h</text>
</g>
<!-- Node1&#45;&gt;Node17 -->
<g id="edge106" class="edge"><title>Node1&#45;&gt;Node17</title>
<path fill="none" stroke="midnightblue" d="M870.776,-403.941C1019.65,-395.414 1348.22,-374.242 1458,-348 1572.95,-320.524 1701,-358.186 1701,-240 1701,-240 1701,-240 1701,-162 1701,-49.5812 1521.04,-24.8788 1448.64,-19.4895"/>
<polygon fill="midnightblue" stroke="midnightblue" points="1448.59,-15.9785 1438.38,-18.803 1448.13,-22.9629 1448.59,-15.9785"/>
</g>
<!-- Node19 -->
<g id="node45" class="node"><title>Node19</title>
<polygon fill="white" stroke="#bfbfbf" points="1160,-1 1160,-35 1282,-35 1282,-1 1160,-1"/>
<text text-anchor="start" x="1168" y="-22" font-family="Helvetica,sans-Serif" font-size="10.00">tlm_utils/simple_initiator</text>
<text text-anchor="middle" x="1221" y="-9" font-family="Helvetica,sans-Serif" font-size="10.00">_socket.h</text>
</g>
<!-- Node1&#45;&gt;Node19 -->
<g id="edge108" class="edge"><title>Node1&#45;&gt;Node19</title>
<path fill="none" stroke="midnightblue" d="M870.67,-401.403C1080.97,-381.83 1663,-320.398 1663,-240 1663,-240 1663,-240 1663,-162 1663,-85.071 1417.88,-42.8614 1292.72,-26.3228"/>
<polygon fill="midnightblue" stroke="midnightblue" points="1292.83,-22.807 1282.46,-24.9887 1291.92,-29.7486 1292.83,-22.807"/>
</g>
<!-- Node21 -->
<g id="node54" class="node"><title>Node21</title>
<polygon fill="white" stroke="#bfbfbf" points="1485,-229.5 1485,-250.5 1635,-250.5 1635,-229.5 1485,-229.5"/>
<text text-anchor="middle" x="1560" y="-237.5" font-family="Helvetica,sans-Serif" font-size="10.00">tlm_utils/tlm_quantumkeeper.h</text>
</g>
<!-- Node1&#45;&gt;Node21 -->
<g id="edge110" class="edge"><title>Node1&#45;&gt;Node21</title>
<path fill="none" stroke="midnightblue" d="M870.706,-393.415C995.495,-368.749 1254.05,-316.353 1471,-264 1484.51,-260.739 1499.1,-256.928 1512.48,-253.316"/>
<polygon fill="midnightblue" stroke="midnightblue" points="1513.71,-256.609 1522.44,-250.605 1511.87,-249.855 1513.71,-256.609"/>
</g>
<!-- Node2&#45;&gt;Node3 -->
<g id="edge4" class="edge"><title>Node2&#45;&gt;Node3</title>
<path fill="none" stroke="midnightblue" d="M877.229,-311.709C814.353,-300.842 722.291,-283.687 643,-264 641.922,-263.732 640.837,-263.459 639.746,-263.18"/>
<polygon fill="midnightblue" stroke="midnightblue" points="640.374,-259.726 629.811,-260.548 638.581,-266.492 640.374,-259.726"/>
</g>
<!-- Node2&#45;&gt;Node4 -->
<g id="edge58" class="edge"><title>Node2&#45;&gt;Node4</title>
<path fill="none" stroke="midnightblue" d="M877.07,-319.81C764.298,-312.577 557.008,-295.416 490,-264 452.453,-246.396 419.058,-211.231 399.176,-187.161"/>
<polygon fill="midnightblue" stroke="midnightblue" points="401.724,-184.744 392.723,-179.156 396.275,-189.138 401.724,-184.744"/>
</g>
<!-- Node2&#45;&gt;Node11 -->
<g id="edge60" class="edge"><title>Node2&#45;&gt;Node11</title>
<path fill="none" stroke="midnightblue" d="M877.33,-310.398C830.737,-300.548 770.117,-285.221 719,-264 680.352,-247.955 675.416,-234.74 638,-216 613.897,-203.928 586.43,-192.234 562.973,-182.833"/>
<polygon fill="midnightblue" stroke="midnightblue" points="564.111,-179.519 553.525,-179.083 561.528,-186.026 564.111,-179.519"/>
</g>
<!-- Node2&#45;&gt;Node16 -->
<g id="edge56" class="edge"><title>Node2&#45;&gt;Node16</title>
<path fill="none" stroke="midnightblue" d="M901.644,-300.465C857.793,-276.882 797.117,-236.033 770,-180 759.416,-158.13 762.058,-129.626 765.764,-110.614"/>
<polygon fill="midnightblue" stroke="midnightblue" points="769.228,-111.16 767.977,-100.639 762.394,-109.644 769.228,-111.16"/>
</g>
<!-- Node2&#45;&gt;Node17 -->
<g id="edge62" class="edge"><title>Node2&#45;&gt;Node17</title>
<path fill="none" stroke="midnightblue" d="M1026.79,-311.056C1050.2,-307.225 1076.14,-303.203 1100,-300 1174.86,-289.951 1387.5,-320.169 1438,-264 1495.78,-199.739 1450.69,-83.9869 1428.99,-37.8073"/>
<polygon fill="midnightblue" stroke="midnightblue" points="1432.02,-36.0512 1424.52,-28.5758 1425.72,-39.1016 1432.02,-36.0512"/>
</g>
<!-- Node2&#45;&gt;Node19 -->
<g id="edge64" class="edge"><title>Node2&#45;&gt;Node19</title>
<path fill="none" stroke="midnightblue" d="M1026.76,-301.574C1084.56,-280.102 1161.36,-241.697 1202,-180 1228.85,-139.243 1228.16,-79.9385 1224.84,-45.533"/>
<polygon fill="midnightblue" stroke="midnightblue" points="1228.28,-44.8446 1223.7,-35.2924 1221.33,-45.6178 1228.28,-44.8446"/>
</g>
<!-- Node2&#45;&gt;Node21 -->
<g id="edge66" class="edge"><title>Node2&#45;&gt;Node21</title>
<path fill="none" stroke="midnightblue" d="M1026.87,-318.849C1128.23,-311.08 1314.43,-293.989 1471,-264 1485.67,-261.19 1501.48,-257.238 1515.64,-253.351"/>
<polygon fill="midnightblue" stroke="midnightblue" points="1516.94,-256.622 1525.62,-250.549 1515.05,-249.882 1516.94,-256.622"/>
</g>
<!-- Node22 -->
<g id="node56" class="node"><title>Node22</title>
<a xlink:href="icio__payload__extension_8h.html" target="_top" xlink:title="core/models/mmu_cache\l/lib/icio_payload_extension.h">
<polygon fill="white" stroke="black" points="1249,-73 1249,-107 1391,-107 1391,-73 1249,-73"/>
<text text-anchor="start" x="1257" y="-94" font-family="Helvetica,sans-Serif" font-size="10.00">core/models/mmu_cache</text>
<text text-anchor="middle" x="1320" y="-81" font-family="Helvetica,sans-Serif" font-size="10.00">/lib/icio_payload_extension.h</text>
</a>
</g>
<!-- Node2&#45;&gt;Node22 -->
<g id="edge68" class="edge"><title>Node2&#45;&gt;Node22</title>
<path fill="none" stroke="midnightblue" d="M1026.76,-311.482C1104.36,-297.945 1216.7,-276.615 1233,-264 1280.97,-226.866 1304.45,-156.186 1314.2,-117.312"/>
<polygon fill="midnightblue" stroke="midnightblue" points="1317.68,-117.784 1316.59,-107.245 1310.87,-116.165 1317.68,-117.784"/>
</g>
<!-- Node23 -->
<g id="node59" class="node"><title>Node23</title>
<a xlink:href="dcio__payload__extension_8h.html" target="_top" xlink:title="core/models/mmu_cache\l/lib/dcio_payload_extension.h">
<polygon fill="white" stroke="black" points="1284.5,-223 1284.5,-257 1429.5,-257 1429.5,-223 1284.5,-223"/>
<text text-anchor="start" x="1292.5" y="-244" font-family="Helvetica,sans-Serif" font-size="10.00">core/models/mmu_cache</text>
<text text-anchor="middle" x="1357" y="-231" font-family="Helvetica,sans-Serif" font-size="10.00">/lib/dcio_payload_extension.h</text>
</a>
</g>
<!-- Node2&#45;&gt;Node23 -->
<g id="edge72" class="edge"><title>Node2&#45;&gt;Node23</title>
<path fill="none" stroke="midnightblue" d="M1026.51,-311.858C1091.4,-300.838 1187.85,-283.383 1271,-264 1276.71,-262.67 1282.6,-261.209 1288.51,-259.686"/>
<polygon fill="midnightblue" stroke="midnightblue" points="1289.64,-263.006 1298.42,-257.075 1287.86,-256.237 1289.64,-263.006"/>
</g>
<!-- Node24 -->
<g id="node62" class="node"><title>Node24</title>
<a xlink:href="verbose_8h.html" target="_top" xlink:title="Implements a unified output system for messages and debunging. ">
<polygon fill="white" stroke="black" points="891,-229.5 891,-250.5 1013,-250.5 1013,-229.5 891,-229.5"/>
<text text-anchor="middle" x="952" y="-237.5" font-family="Helvetica,sans-Serif" font-size="10.00">core/common/verbose.h</text>
</a>
</g>
<!-- Node2&#45;&gt;Node24 -->
<g id="edge76" class="edge"><title>Node2&#45;&gt;Node24</title>
<path fill="none" stroke="midnightblue" d="M952,-300.154C952,-287.803 952,-272.86 952,-260.957"/>
<polygon fill="midnightblue" stroke="midnightblue" points="955.5,-260.66 952,-250.66 948.5,-260.66 955.5,-260.66"/>
</g>
<!-- Node3&#45;&gt;Node4 -->
<g id="edge6" class="edge"><title>Node3&#45;&gt;Node4</title>
<path fill="none" stroke="midnightblue" d="M508.295,-216.386C483.269,-205.777 453.977,-193.36 429.705,-183.071"/>
<polygon fill="midnightblue" stroke="midnightblue" points="430.899,-179.775 420.326,-179.095 428.167,-186.22 430.899,-179.775"/>
</g>
<!-- Node3&#45;&gt;Node11 -->
<g id="edge20" class="edge"><title>Node3&#45;&gt;Node11</title>
<path fill="none" stroke="midnightblue" d="M546.894,-216.174C540.294,-206.981 532.737,-196.456 526.051,-187.142"/>
<polygon fill="midnightblue" stroke="midnightblue" points="528.883,-185.085 520.207,-179.003 523.196,-189.167 528.883,-185.085"/>
</g>
<!-- Node3&#45;&gt;Node16 -->
<g id="edge44" class="edge"><title>Node3&#45;&gt;Node16</title>
<path fill="none" stroke="midnightblue" d="M590.533,-216.331C613.688,-196.145 648.566,-166.851 681,-144 700.915,-129.969 724.576,-115.865 742.638,-105.591"/>
<polygon fill="midnightblue" stroke="midnightblue" points="744.527,-108.545 751.524,-100.589 741.093,-102.445 744.527,-108.545"/>
</g>
<!-- Node5 -->
<g id="node9" class="node"><title>Node5</title>
<a xlink:href="instructionBase_8hpp.html" target="_top" xlink:title="core/common/trapgen\l/instructionBase.hpp">
<polygon fill="white" stroke="black" points="96.5,-73 96.5,-107 207.5,-107 207.5,-73 96.5,-73"/>
<text text-anchor="start" x="104.5" y="-94" font-family="Helvetica,sans-Serif" font-size="10.00">core/common/trapgen</text>
<text text-anchor="middle" x="152" y="-81" font-family="Helvetica,sans-Serif" font-size="10.00">/instructionBase.hpp</text>
</a>
</g>
<!-- Node4&#45;&gt;Node5 -->
<g id="edge8" class="edge"><title>Node4&#45;&gt;Node5</title>
<path fill="none" stroke="midnightblue" d="M325.967,-144.937C292.866,-134.484 250.335,-121.053 215.612,-110.088"/>
<polygon fill="midnightblue" stroke="midnightblue" points="216.629,-106.739 206.04,-107.065 214.521,-113.414 216.629,-106.739"/>
</g>
<!-- Node10 -->
<g id="node19" class="node"><title>Node10</title>
<polygon fill="white" stroke="#bfbfbf" points="345.5,-7.5 345.5,-28.5 390.5,-28.5 390.5,-7.5 345.5,-7.5"/>
<text text-anchor="middle" x="368" y="-15.5" font-family="Helvetica,sans-Serif" font-size="10.00">cstdlib</text>
</g>
<!-- Node4&#45;&gt;Node10 -->
<g id="edge18" class="edge"><title>Node4&#45;&gt;Node10</title>
<path fill="none" stroke="midnightblue" d="M357.657,-144.796C347.119,-135.245 335.641,-122.394 330,-108 324.162,-93.103 325.171,-87.2538 330,-72 334.121,-58.9826 342.634,-46.3886 350.559,-36.6421"/>
<polygon fill="midnightblue" stroke="midnightblue" points="353.377,-38.7334 357.247,-28.8709 348.071,-34.1671 353.377,-38.7334"/>
</g>
<!-- Node6 -->
<g id="node11" class="node"><title>Node6</title>
<polygon fill="white" stroke="#bfbfbf" points="132,-7.5 132,-28.5 184,-28.5 184,-7.5 132,-7.5"/>
<text text-anchor="middle" x="158" y="-15.5" font-family="Helvetica,sans-Serif" font-size="10.00">ostream</text>
</g>
<!-- Node5&#45;&gt;Node6 -->
<g id="edge10" class="edge"><title>Node5&#45;&gt;Node6</title>
<path fill="none" stroke="midnightblue" d="M153.422,-72.937C154.266,-62.8137 155.342,-49.8976 156.239,-39.1329"/>
<polygon fill="midnightblue" stroke="midnightblue" points="159.749,-39.1572 157.092,-28.901 152.773,-38.5758 159.749,-39.1572"/>
</g>
<!-- Node7 -->
<g id="node13" class="node"><title>Node7</title>
<polygon fill="white" stroke="#bfbfbf" points="213,-7.5 213,-28.5 265,-28.5 265,-7.5 213,-7.5"/>
<text text-anchor="middle" x="239" y="-15.5" font-family="Helvetica,sans-Serif" font-size="10.00">sstream</text>
</g>
<!-- Node5&#45;&gt;Node7 -->
<g id="edge12" class="edge"><title>Node5&#45;&gt;Node7</title>
<path fill="none" stroke="midnightblue" d="M172.618,-72.937C186.35,-61.5727 204.334,-46.6887 218.12,-35.28"/>
<polygon fill="midnightblue" stroke="midnightblue" points="220.613,-37.7601 226.085,-28.688 216.15,-32.3674 220.613,-37.7601"/>
</g>
<!-- Node8 -->
<g id="node15" class="node"><title>Node8</title>
<polygon fill="white" stroke="#bfbfbf" points="287.5,-7.5 287.5,-28.5 328.5,-28.5 328.5,-7.5 287.5,-7.5"/>
<text text-anchor="middle" x="308" y="-15.5" font-family="Helvetica,sans-Serif" font-size="10.00">string</text>
</g>
<!-- Node5&#45;&gt;Node8 -->
<g id="edge14" class="edge"><title>Node5&#45;&gt;Node8</title>
<path fill="none" stroke="midnightblue" d="M192.438,-72.9479C216.35,-62.6549 247.118,-49.0451 274,-36 275.803,-35.1252 277.65,-34.2083 279.506,-33.2711"/>
<polygon fill="midnightblue" stroke="midnightblue" points="281.426,-36.2187 288.702,-28.5174 278.211,-30.0003 281.426,-36.2187"/>
</g>
<!-- Node9 -->
<g id="node17" class="node"><title>Node9</title>
<polygon fill="white" stroke="#bfbfbf" points="0,-7.5 0,-28.5 114,-28.5 114,-7.5 0,-7.5"/>
<text text-anchor="middle" x="57" y="-15.5" font-family="Helvetica,sans-Serif" font-size="10.00">boost/lexical_cast.hpp</text>
</g>
<!-- Node5&#45;&gt;Node9 -->
<g id="edge16" class="edge"><title>Node5&#45;&gt;Node9</title>
<path fill="none" stroke="midnightblue" d="M129.486,-72.937C114.35,-61.4655 94.4822,-46.4076 79.3752,-34.958"/>
<polygon fill="midnightblue" stroke="midnightblue" points="81.1861,-31.9389 71.1023,-28.688 76.9579,-37.5177 81.1861,-31.9389"/>
</g>
<!-- Node11&#45;&gt;Node7 -->
<g id="edge26" class="edge"><title>Node11&#45;&gt;Node7</title>
<path fill="none" stroke="midnightblue" d="M452.165,-146.248C449.405,-145.485 446.672,-144.732 444,-144 384.11,-127.593 360.765,-142.299 309,-108 281.934,-90.0664 260.815,-58.1669 249.134,-37.56"/>
<polygon fill="midnightblue" stroke="midnightblue" points="252.171,-35.8196 244.307,-28.7193 246.027,-39.1737 252.171,-35.8196"/>
</g>
<!-- Node11&#45;&gt;Node8 -->
<g id="edge30" class="edge"><title>Node11&#45;&gt;Node8</title>
<path fill="none" stroke="midnightblue" d="M452.134,-145.762C400.766,-130.725 332.213,-110.338 330,-108 312.366,-89.3721 308.165,-59.0286 307.503,-38.7936"/>
<polygon fill="midnightblue" stroke="midnightblue" points="311.003,-38.7074 307.437,-28.7306 304.003,-38.7533 311.003,-38.7074"/>
</g>
<!-- Node12 -->
<g id="node23" class="node"><title>Node12</title>
<polygon fill="white" stroke="#bfbfbf" points="407.5,-7.5 407.5,-28.5 466.5,-28.5 466.5,-7.5 407.5,-7.5"/>
<text text-anchor="middle" x="437" y="-15.5" font-family="Helvetica,sans-Serif" font-size="10.00">exception</text>
</g>
<!-- Node11&#45;&gt;Node12 -->
<g id="edge22" class="edge"><title>Node11&#45;&gt;Node12</title>
<path fill="none" stroke="midnightblue" d="M506.907,-144.812C505.108,-125.974 500.377,-95.3304 488,-72 480.584,-58.0205 468.558,-45.0347 458.047,-35.3024"/>
<polygon fill="midnightblue" stroke="midnightblue" points="460.211,-32.5437 450.405,-28.5316 455.569,-37.783 460.211,-32.5437"/>
</g>
<!-- Node13 -->
<g id="node25" class="node"><title>Node13</title>
<polygon fill="white" stroke="#bfbfbf" points="560,-7.5 560,-28.5 614,-28.5 614,-7.5 560,-7.5"/>
<text text-anchor="middle" x="587" y="-15.5" font-family="Helvetica,sans-Serif" font-size="10.00">iostream</text>
</g>
<!-- Node11&#45;&gt;Node13 -->
<g id="edge24" class="edge"><title>Node11&#45;&gt;Node13</title>
<path fill="none" stroke="midnightblue" d="M517.373,-144.916C532.143,-117.992 560.752,-65.8452 576.304,-37.4959"/>
<polygon fill="midnightblue" stroke="midnightblue" points="579.476,-38.992 581.217,-28.5413 573.339,-35.6251 579.476,-38.992"/>
</g>
<!-- Node14 -->
<g id="node28" class="node"><title>Node14</title>
<polygon fill="white" stroke="#bfbfbf" points="483.5,-7.5 483.5,-28.5 542.5,-28.5 542.5,-7.5 483.5,-7.5"/>
<text text-anchor="middle" x="513" y="-15.5" font-family="Helvetica,sans-Serif" font-size="10.00">stdexcept</text>
</g>
<!-- Node11&#45;&gt;Node14 -->
<g id="edge28" class="edge"><title>Node11&#45;&gt;Node14</title>
<path fill="none" stroke="midnightblue" d="M513.274,-144.68C516.193,-134.179 519.523,-120.448 521,-108 523.817,-84.2641 520.446,-56.8989 517.256,-38.6339"/>
<polygon fill="midnightblue" stroke="midnightblue" points="520.646,-37.727 515.35,-28.5512 513.768,-39.0274 520.646,-37.727"/>
</g>
<!-- Node15 -->
<g id="node31" class="node"><title>Node15</title>
<a xlink:href="customExceptions_8hpp.html" target="_top" xlink:title="core/common/trapgen\l/utils/customExceptions.hpp">
<polygon fill="white" stroke="black" points="339,-73 339,-107 479,-107 479,-73 339,-73"/>
<text text-anchor="start" x="347" y="-94" font-family="Helvetica,sans-Serif" font-size="10.00">core/common/trapgen</text>
<text text-anchor="middle" x="409" y="-81" font-family="Helvetica,sans-Serif" font-size="10.00">/utils/customExceptions.hpp</text>
</a>
</g>
<!-- Node11&#45;&gt;Node15 -->
<g id="edge32" class="edge"><title>Node11&#45;&gt;Node15</title>
<path fill="none" stroke="midnightblue" d="M484.538,-144.937C471.564,-135.501 455.253,-123.639 441.112,-113.354"/>
<polygon fill="midnightblue" stroke="midnightblue" points="442.782,-110.241 432.636,-107.19 438.665,-115.902 442.782,-110.241"/>
</g>
<!-- Node15&#45;&gt;Node8 -->
<g id="edge42" class="edge"><title>Node15&#45;&gt;Node8</title>
<path fill="none" stroke="midnightblue" d="M385.064,-72.937C368.822,-61.3583 347.454,-46.1258 331.339,-34.638"/>
<polygon fill="midnightblue" stroke="midnightblue" points="333.167,-31.6429 322.993,-28.688 329.104,-37.3428 333.167,-31.6429"/>
</g>
<!-- Node15&#45;&gt;Node10 -->
<g id="edge34" class="edge"><title>Node15&#45;&gt;Node10</title>
<path fill="none" stroke="midnightblue" d="M399.284,-72.937C393.276,-62.3875 385.542,-48.8049 379.266,-37.785"/>
<polygon fill="midnightblue" stroke="midnightblue" points="382.197,-35.8589 374.208,-28.901 376.115,-39.3228 382.197,-35.8589"/>
</g>
<!-- Node15&#45;&gt;Node12 -->
<g id="edge36" class="edge"><title>Node15&#45;&gt;Node12</title>
<path fill="none" stroke="midnightblue" d="M415.636,-72.937C419.655,-62.6006 424.807,-49.3525 429.045,-38.4559"/>
<polygon fill="midnightblue" stroke="midnightblue" points="432.398,-39.4897 432.761,-28.901 425.874,-36.9525 432.398,-39.4897"/>
</g>
<!-- Node15&#45;&gt;Node13 -->
<g id="edge38" class="edge"><title>Node15&#45;&gt;Node13</title>
<path fill="none" stroke="midnightblue" d="M457.466,-72.937C485.14,-62.8551 520.327,-49.4601 551,-36 553.08,-35.0874 555.211,-34.1165 557.349,-33.1166"/>
<polygon fill="midnightblue" stroke="midnightblue" points="559.129,-36.1437 566.608,-28.64 556.082,-29.8416 559.129,-36.1437"/>
</g>
<!-- Node15&#45;&gt;Node14 -->
<g id="edge40" class="edge"><title>Node15&#45;&gt;Node14</title>
<path fill="none" stroke="midnightblue" d="M433.647,-72.937C450.371,-61.3583 472.374,-46.1258 488.967,-34.638"/>
<polygon fill="midnightblue" stroke="midnightblue" points="491.332,-37.2579 497.562,-28.688 487.348,-31.5025 491.332,-37.2579"/>
</g>
<!-- Node16&#45;&gt;Node16 -->
<g id="edge46" class="edge"><title>Node16&#45;&gt;Node16</title>
<path fill="none" stroke="midnightblue" d="M796.395,-100.534C822.237,-106.73 851,-103.219 851,-90 851,-78.4852 829.174,-74.3366 806.466,-77.554"/>
<polygon fill="midnightblue" stroke="midnightblue" points="805.567,-74.1622 796.395,-79.4663 806.873,-81.0394 805.567,-74.1622"/>
</g>
<!-- Node16&#45;&gt;Node17 -->
<g id="edge48" class="edge"><title>Node16&#45;&gt;Node17</title>
<path fill="none" stroke="midnightblue" d="M833.64,-83.1623C864.976,-79.7637 903.488,-75.6197 938,-72 1094.84,-55.5499 1134.44,-54.9839 1291,-36 1325.07,-31.8688 1364.11,-26.2498 1390.03,-22.3949"/>
<polygon fill="midnightblue" stroke="midnightblue" points="1390.57,-25.8523 1399.95,-20.9105 1389.54,-18.9295 1390.57,-25.8523"/>
</g>
<!-- Node18 -->
<g id="node43" class="node"><title>Node18</title>
<polygon fill="white" stroke="#bfbfbf" points="672.5,-1 672.5,-35 787.5,-35 787.5,-1 672.5,-1"/>
<text text-anchor="start" x="680.5" y="-22" font-family="Helvetica,sans-Serif" font-size="10.00">tlm_utils/simple_target</text>
<text text-anchor="middle" x="730" y="-9" font-family="Helvetica,sans-Serif" font-size="10.00">_socket.h</text>
</g>
<!-- Node16&#45;&gt;Node18 -->
<g id="edge50" class="edge"><title>Node16&#45;&gt;Node18</title>
<path fill="none" stroke="midnightblue" d="M764.95,-79.3762C759.661,-70.087 751.759,-56.2116 744.807,-44.0024"/>
<polygon fill="midnightblue" stroke="midnightblue" points="747.724,-42.0523 739.734,-35.0944 741.641,-45.5162 747.724,-42.0523"/>
</g>
<!-- Node16&#45;&gt;Node19 -->
<g id="edge52" class="edge"><title>Node16&#45;&gt;Node19</title>
<path fill="none" stroke="midnightblue" d="M833.571,-79.9887C916.502,-66.7196 1062.47,-43.3642 1149.61,-29.4216"/>
<polygon fill="midnightblue" stroke="midnightblue" points="1150.36,-32.847 1159.68,-27.811 1149.25,-25.9349 1150.36,-32.847"/>
</g>
<!-- Node20 -->
<g id="node47" class="node"><title>Node20</title>
<polygon fill="white" stroke="#bfbfbf" points="804.5,-1 804.5,-35 899.5,-35 899.5,-1 804.5,-1"/>
<text text-anchor="start" x="812.5" y="-22" font-family="Helvetica,sans-Serif" font-size="10.00">tlm_utils/peq_with</text>
<text text-anchor="middle" x="852" y="-9" font-family="Helvetica,sans-Serif" font-size="10.00">_get.h</text>
</g>
<!-- Node16&#45;&gt;Node20 -->
<g id="edge54" class="edge"><title>Node16&#45;&gt;Node20</title>
<path fill="none" stroke="midnightblue" d="M782.952,-79.3762C794.017,-69.5406 810.866,-54.5633 825.15,-41.8665"/>
<polygon fill="midnightblue" stroke="midnightblue" points="827.62,-44.354 832.769,-35.0944 822.969,-39.1221 827.62,-44.354"/>
</g>
<!-- Node22&#45;&gt;Node17 -->
<g id="edge70" class="edge"><title>Node22&#45;&gt;Node17</title>
<path fill="none" stroke="midnightblue" d="M1343.46,-72.937C1359.38,-61.3583 1380.33,-46.1258 1396.12,-34.638"/>
<polygon fill="midnightblue" stroke="midnightblue" points="1398.28,-37.4004 1404.3,-28.688 1394.16,-31.7392 1398.28,-37.4004"/>
</g>
<!-- Node23&#45;&gt;Node17 -->
<g id="edge74" class="edge"><title>Node23&#45;&gt;Node17</title>
<path fill="none" stroke="midnightblue" d="M1363.3,-222.669C1372.27,-197.606 1388.85,-149.676 1400,-108 1406.32,-84.3829 1411.88,-56.8262 1415.32,-38.4879"/>
<polygon fill="midnightblue" stroke="midnightblue" points="1418.77,-39.0856 1417.14,-28.6171 1411.89,-37.8179 1418.77,-39.0856"/>
</g>
<!-- Node24&#45;&gt;Node13 -->
<g id="edge84" class="edge"><title>Node24&#45;&gt;Node13</title>
<path fill="none" stroke="midnightblue" d="M902.614,-229.497C864.661,-220.091 811.828,-204.034 770,-180 699.794,-139.66 632.569,-69.4447 602.892,-36.3086"/>
<polygon fill="midnightblue" stroke="midnightblue" points="605.426,-33.891 596.177,-28.7238 600.185,-38.5312 605.426,-33.891"/>
</g>
<!-- Node24&#45;&gt;Node16 -->
<g id="edge98" class="edge"><title>Node24&#45;&gt;Node16</title>
<path fill="none" stroke="midnightblue" d="M890.614,-231.976C856.218,-224.295 815.28,-209.288 790,-180 773.437,-160.811 770.109,-130.817 769.971,-110.795"/>
<polygon fill="midnightblue" stroke="midnightblue" points="773.475,-110.639 770.171,-100.572 766.476,-110.502 773.475,-110.639"/>
</g>
<!-- Node25 -->
<g id="node64" class="node"><title>Node25</title>
<polygon fill="white" stroke="#bfbfbf" points="1086.5,-151.5 1086.5,-172.5 1129.5,-172.5 1129.5,-151.5 1086.5,-151.5"/>
<text text-anchor="middle" x="1108" y="-159.5" font-family="Helvetica,sans-Serif" font-size="10.00">cstdio</text>
</g>
<!-- Node24&#45;&gt;Node25 -->
<g id="edge78" class="edge"><title>Node24&#45;&gt;Node25</title>
<path fill="none" stroke="midnightblue" d="M976.026,-229.39C1001.63,-217.89 1043.2,-198.67 1078,-180 1079.34,-179.282 1080.7,-178.533 1082.07,-177.765"/>
<polygon fill="midnightblue" stroke="midnightblue" points="1084.14,-180.613 1091.03,-172.568 1080.62,-174.558 1084.14,-180.613"/>
</g>
<!-- Node26 -->
<g id="node66" class="node"><title>Node26</title>
<polygon fill="white" stroke="#bfbfbf" points="1147,-151.5 1147,-172.5 1193,-172.5 1193,-151.5 1147,-151.5"/>
<text text-anchor="middle" x="1170" y="-159.5" font-family="Helvetica,sans-Serif" font-size="10.00">cstring</text>
</g>
<!-- Node24&#45;&gt;Node26 -->
<g id="edge80" class="edge"><title>Node24&#45;&gt;Node26</title>
<path fill="none" stroke="midnightblue" d="M992.403,-229.495C1030.67,-218.961 1089.35,-201.274 1138,-180 1139.84,-179.196 1141.71,-178.317 1143.58,-177.394"/>
<polygon fill="midnightblue" stroke="midnightblue" points="1145.52,-180.326 1152.72,-172.553 1142.24,-174.14 1145.52,-180.326"/>
</g>
<!-- Node27 -->
<g id="node68" class="node"><title>Node27</title>
<polygon fill="white" stroke="#bfbfbf" points="799,-151.5 799,-172.5 849,-172.5 849,-151.5 799,-151.5"/>
<text text-anchor="middle" x="824" y="-159.5" font-family="Helvetica,sans-Serif" font-size="10.00">iomanip</text>
</g>
<!-- Node24&#45;&gt;Node27 -->
<g id="edge82" class="edge"><title>Node24&#45;&gt;Node27</title>
<path fill="none" stroke="midnightblue" d="M934.737,-229.481C912.98,-216.222 875.376,-193.307 850.1,-177.905"/>
<polygon fill="midnightblue" stroke="midnightblue" points="851.759,-174.817 841.398,-172.602 848.116,-180.794 851.759,-174.817"/>
</g>
<!-- Node28 -->
<g id="node71" class="node"><title>Node28</title>
<polygon fill="white" stroke="#bfbfbf" points="867,-151.5 867,-172.5 927,-172.5 927,-151.5 867,-151.5"/>
<text text-anchor="middle" x="897" y="-159.5" font-family="Helvetica,sans-Serif" font-size="10.00">streambuf</text>
</g>
<!-- Node24&#45;&gt;Node28 -->
<g id="edge86" class="edge"><title>Node24&#45;&gt;Node28</title>
<path fill="none" stroke="midnightblue" d="M944.582,-229.481C935.808,-217.036 921.034,-196.085 910.273,-180.823"/>
<polygon fill="midnightblue" stroke="midnightblue" points="913.099,-178.758 904.476,-172.602 907.378,-182.791 913.099,-178.758"/>
</g>
<!-- Node29 -->
<g id="node73" class="node"><title>Node29</title>
<a xlink:href="common_8h.html" target="_top" xlink:title="core/common/common.h">
<polygon fill="white" stroke="black" points="944.5,-151.5 944.5,-172.5 1069.5,-172.5 1069.5,-151.5 944.5,-151.5"/>
<text text-anchor="middle" x="1007" y="-159.5" font-family="Helvetica,sans-Serif" font-size="10.00">core/common/common.h</text>
</a>
</g>
<!-- Node24&#45;&gt;Node29 -->
<g id="edge88" class="edge"><title>Node24&#45;&gt;Node29</title>
<path fill="none" stroke="midnightblue" d="M954.629,-229.481C961.283,-216.92 975.904,-195.693 988.197,-180.397"/>
<polygon fill="midnightblue" stroke="midnightblue" points="990.987,-182.517 994.721,-172.602 985.619,-178.024 990.987,-182.517"/>
</g>
<!-- Node29&#45;&gt;Node16 -->
<g id="edge90" class="edge"><title>Node29&#45;&gt;Node16</title>
<path fill="none" stroke="midnightblue" d="M972.431,-151.453C930.803,-138.753 860.813,-117.401 815.271,-103.506"/>
<polygon fill="midnightblue" stroke="midnightblue" points="816.248,-100.145 805.662,-100.575 814.205,-106.841 816.248,-100.145"/>
</g>
<!-- Node29&#45;&gt;Node24 -->
<g id="edge96" class="edge"><title>Node29&#45;&gt;Node24</title>
<path fill="none" stroke="midnightblue" d="M1004.33,-172.602C997.638,-185.2 983.006,-206.434 970.723,-221.703"/>
<polygon fill="midnightblue" stroke="midnightblue" points="967.946,-219.568 964.206,-229.481 973.311,-224.064 967.946,-219.568"/>
</g>
<!-- Node30 -->
<g id="node76" class="node"><title>Node30</title>
<a xlink:href="vendian_8h.html" target="_top" xlink:title="core/common/vendian.h">
<polygon fill="white" stroke="black" points="946.5,-79.5 946.5,-100.5 1067.5,-100.5 1067.5,-79.5 946.5,-79.5"/>
<text text-anchor="middle" x="1007" y="-87.5" font-family="Helvetica,sans-Serif" font-size="10.00">core/common/vendian.h</text>
</a>
</g>
<!-- Node29&#45;&gt;Node30 -->
<g id="edge92" class="edge"><title>Node29&#45;&gt;Node30</title>
<path fill="none" stroke="midnightblue" d="M1007,-151.376C1007,-140.741 1007,-124.095 1007,-110.82"/>
<polygon fill="midnightblue" stroke="midnightblue" points="1010.5,-110.667 1007,-100.667 1003.5,-110.667 1010.5,-110.667"/>
</g>
<!-- Node31 -->
<g id="node78" class="node"><title>Node31</title>
<polygon fill="white" stroke="#bfbfbf" points="982.5,-7.5 982.5,-28.5 1031.5,-28.5 1031.5,-7.5 982.5,-7.5"/>
<text text-anchor="middle" x="1007" y="-15.5" font-family="Helvetica,sans-Serif" font-size="10.00">stdint.h</text>
</g>
<!-- Node30&#45;&gt;Node31 -->
<g id="edge94" class="edge"><title>Node30&#45;&gt;Node31</title>
<path fill="none" stroke="midnightblue" d="M1007,-79.3762C1007,-68.7412 1007,-52.0946 1007,-38.8195"/>
<polygon fill="midnightblue" stroke="midnightblue" points="1010.5,-38.6674 1007,-28.6674 1003.5,-38.6675 1010.5,-38.6674"/>
</g>
</g>
</svg>
