<?xml version="1.0" encoding="UTF-8" standalone="no"?>
<!DOCTYPE svg PUBLIC "-//W3C//DTD SVG 1.1//EN"
 "http://www.w3.org/Graphics/SVG/1.1/DTD/svg11.dtd">
<!-- Generated by graphviz version 2.38.0 (20140413.2041)
 -->
<!-- Title: main Pages: 1 -->
<svg width="299pt" height="175pt"
 viewBox="0.00 0.00 299.19 175.00" xmlns="http://www.w3.org/2000/svg" xmlns:xlink="http://www.w3.org/1999/xlink">
<g id="graph0" class="graph" transform="scale(1 1) rotate(0) translate(4 171)">
<title>main</title>
<polygon fill="white" stroke="none" points="-4,4 -4,-171 295.187,-171 295.187,4 -4,4"/>
<!-- Node1 -->
<g id="node1" class="node"><title>Node1</title>
<polygon fill="#bfbfbf" stroke="black" points="0,-74.5 0,-92.5 37.6748,-92.5 37.6748,-74.5 0,-74.5"/>
<text text-anchor="middle" x="18.8374" y="-80.5" font-family="Helvetica,sans-Serif" font-size="10.00">main</text>
</g>
<!-- Node2 -->
<g id="node2" class="node"><title>Node2</title>
<g id="a_node2"><a xlink:href="fft_8c.html#af11fd9104317db5fdc231c951414b341" target="_top" xlink:title="InitU">
<polygon fill="white" stroke="black" points="86.4604,-148.5 86.4604,-166.5 123.022,-166.5 123.022,-148.5 86.4604,-148.5"/>
<text text-anchor="middle" x="104.741" y="-154.5" font-family="Helvetica,sans-Serif" font-size="10.00">InitU</text>
</a>
</g>
</g>
<!-- Node1&#45;&gt;Node2 -->
<g id="edge1" class="edge"><title>Node1&#45;&gt;Node2</title>
<path fill="none" stroke="midnightblue" d="M27.2186,-92.5579C37.0411,-104.267 55.3144,-124.886 73.6748,-139.5 75.0493,-140.594 76.4962,-141.67 77.9817,-142.719"/>
<polygon fill="midnightblue" stroke="midnightblue" points="76.3811,-145.852 86.6767,-148.352 80.1873,-139.977 76.3811,-145.852"/>
</g>
<!-- Node4 -->
<g id="node4" class="node"><title>Node4</title>
<g id="a_node4"><a xlink:href="fft_8c.html#af99e11bb28b6abf6544c86409981075e" target="_top" xlink:title="InitU2">
<polygon fill="white" stroke="black" points="83.6797,-111.5 83.6797,-129.5 125.803,-129.5 125.803,-111.5 83.6797,-111.5"/>
<text text-anchor="middle" x="104.741" y="-117.5" font-family="Helvetica,sans-Serif" font-size="10.00">InitU2</text>
</a>
</g>
</g>
<!-- Node1&#45;&gt;Node4 -->
<g id="edge3" class="edge"><title>Node1&#45;&gt;Node4</title>
<path fill="none" stroke="midnightblue" d="M38.0433,-91.5284C48.6157,-96.1907 62.1883,-102.176 74.2496,-107.495"/>
<polygon fill="midnightblue" stroke="midnightblue" points="72.9503,-110.747 83.5123,-111.579 75.7747,-104.342 72.9503,-110.747"/>
</g>
<!-- Node5 -->
<g id="node5" class="node"><title>Node5</title>
<g id="a_node5"><a xlink:href="fft_8c.html#a4f5721142a642ae7b039e4f27f527f4f" target="_top" xlink:title="InitX">
<polygon fill="white" stroke="black" points="86.7363,-74.5 86.7363,-92.5 122.746,-92.5 122.746,-74.5 86.7363,-74.5"/>
<text text-anchor="middle" x="104.741" y="-80.5" font-family="Helvetica,sans-Serif" font-size="10.00">InitX</text>
</a>
</g>
</g>
<!-- Node1&#45;&gt;Node5 -->
<g id="edge4" class="edge"><title>Node1&#45;&gt;Node5</title>
<path fill="none" stroke="midnightblue" d="M38.0433,-83.5C49.3394,-83.5 64.0605,-83.5 76.7038,-83.5"/>
<polygon fill="midnightblue" stroke="midnightblue" points="76.7147,-87.0001 86.7146,-83.5 76.7146,-80.0001 76.7147,-87.0001"/>
</g>
<!-- Node6 -->
<g id="node6" class="node"><title>Node6</title>
<g id="a_node6"><a xlink:href="fft_8c.html#a2297374ee04f814e4f1dde15817d76e0" target="_top" xlink:title="printerr">
<polygon fill="white" stroke="black" points="80.9038,-37.5 80.9038,-55.5 128.579,-55.5 128.579,-37.5 80.9038,-37.5"/>
<text text-anchor="middle" x="104.741" y="-43.5" font-family="Helvetica,sans-Serif" font-size="10.00">printerr</text>
</a>
</g>
</g>
<!-- Node1&#45;&gt;Node6 -->
<g id="edge5" class="edge"><title>Node1&#45;&gt;Node6</title>
<path fill="none" stroke="midnightblue" d="M38.0433,-75.4716C48.5396,-70.8428 61.9931,-64.9101 73.989,-59.6201"/>
<polygon fill="midnightblue" stroke="midnightblue" points="75.4751,-62.7901 83.2127,-55.5527 72.6506,-56.3852 75.4751,-62.7901"/>
</g>
<!-- Node7 -->
<g id="node7" class="node"><title>Node7</title>
<g id="a_node7"><a xlink:href="fft_8c.html#ae6bcaa881a85c5bc360884a266ba7a48" target="_top" xlink:title="SlaveStart">
<polygon fill="white" stroke="black" points="73.6748,-0.5 73.6748,-18.5 135.808,-18.5 135.808,-0.5 73.6748,-0.5"/>
<text text-anchor="middle" x="104.741" y="-6.5" font-family="Helvetica,sans-Serif" font-size="10.00">SlaveStart</text>
</a>
</g>
</g>
<!-- Node1&#45;&gt;Node7 -->
<g id="edge6" class="edge"><title>Node1&#45;&gt;Node7</title>
<path fill="none" stroke="midnightblue" d="M27.6499,-74.2879C37.6426,-62.8094 55.8019,-42.948 73.6748,-28.5 75.4696,-27.0492 77.3811,-25.617 79.3371,-24.2289"/>
<polygon fill="midnightblue" stroke="midnightblue" points="81.5709,-26.9474 87.9724,-18.5052 77.7034,-21.1128 81.5709,-26.9474"/>
</g>
<!-- Node3 -->
<g id="node3" class="node"><title>Node3</title>
<g id="a_node3"><a xlink:href="namespacecore_1_1waf_1_1common.html#a7d407cdab7ffcfe5e0b2f72f6abc4269" target="_top" xlink:title="core.waf.common.base">
<polygon fill="white" stroke="black" points="171.808,-148.5 171.808,-166.5 291.187,-166.5 291.187,-148.5 171.808,-148.5"/>
<text text-anchor="middle" x="231.497" y="-154.5" font-family="Helvetica,sans-Serif" font-size="10.00">core.waf.common.base</text>
</a>
</g>
</g>
<!-- Node2&#45;&gt;Node3 -->
<g id="edge2" class="edge"><title>Node2&#45;&gt;Node3</title>
<path fill="none" stroke="midnightblue" d="M123.088,-157.5C133.324,-157.5 147.025,-157.5 161.208,-157.5"/>
<polygon fill="midnightblue" stroke="midnightblue" points="161.578,-161 171.578,-157.5 161.578,-154 161.578,-161"/>
</g>
</g>
</svg>
