<?xml version="1.0" encoding="UTF-8" standalone="no"?>
<!DOCTYPE svg PUBLIC "-//W3C//DTD SVG 1.1//EN"
 "http://www.w3.org/Graphics/SVG/1.1/DTD/svg11.dtd">
<!-- Generated by graphviz version 2.36.0 (20140111.2315)
 -->
<!-- Title: gaisler/leon3/leon3.h Pages: 1 -->
<svg width="261pt" height="96pt"
 viewBox="0.00 0.00 261.00 96.00" xmlns="http://www.w3.org/2000/svg" xmlns:xlink="http://www.w3.org/1999/xlink">
<g id="graph0" class="graph" transform="scale(1 1) rotate(0) translate(4 92)">
<title>gaisler/leon3/leon3.h</title>
<polygon fill="white" stroke="none" points="-4,4 -4,-92 257,-92 257,4 -4,4"/>
<!-- Node1 -->
<g id="node1" class="node"><title>Node1</title>
<polygon fill="#bfbfbf" stroke="black" points="74,-68.5 74,-87.5 180,-87.5 180,-68.5 74,-68.5"/>
<text text-anchor="middle" x="127" y="-75.5" font-family="Helvetica,sans-Serif" font-size="10.00">gaisler/leon3/leon3.h</text>
</g>
<!-- Node2 -->
<g id="node2" class="node"><title>Node2</title>
<g id="a_node2"><a xlink:href="sc__main_8cpp.html" target="_top" xlink:title="core/platforms/leon3mp\l/sc_main.cpp">
<polygon fill="white" stroke="black" points="-0.5,-1 -0.5,-31 118.5,-31 118.5,-1 -0.5,-1"/>
<text text-anchor="start" x="7.5" y="-19" font-family="Helvetica,sans-Serif" font-size="10.00">core/platforms/leon3mp</text>
<text text-anchor="middle" x="59" y="-8" font-family="Helvetica,sans-Serif" font-size="10.00">/sc_main.cpp</text>
</a>
</g>
</g>
<!-- Node1&#45;&gt;Node2 -->
<g id="edge1" class="edge"><title>Node1&#45;&gt;Node2</title>
<path fill="none" stroke="midnightblue" d="M109.453,-61.5169C98.8235,-52.1384 85.368,-40.2659 75.0263,-31.1408"/>
<polygon fill="midnightblue" stroke="midnightblue" points="107.443,-64.4117 117.257,-68.4035 112.075,-59.1628 107.443,-64.4117"/>
</g>
<!-- Node3 -->
<g id="node3" class="node"><title>Node3</title>
<g id="a_node3"><a xlink:href="leon3_8cpp.html" target="_top" xlink:title="gaisler/leon3/leon3.cpp">
<polygon fill="white" stroke="black" points="137,-6.5 137,-25.5 253,-25.5 253,-6.5 137,-6.5"/>
<text text-anchor="middle" x="195" y="-13.5" font-family="Helvetica,sans-Serif" font-size="10.00">gaisler/leon3/leon3.cpp</text>
</a>
</g>
</g>
<!-- Node1&#45;&gt;Node3 -->
<g id="edge2" class="edge"><title>Node1&#45;&gt;Node3</title>
<path fill="none" stroke="midnightblue" d="M144.543,-61.5206C157.508,-50.0815 174.679,-34.9305 185.275,-25.5806"/>
<polygon fill="midnightblue" stroke="midnightblue" points="141.925,-59.1628 136.743,-68.4035 146.557,-64.4117 141.925,-59.1628"/>
</g>
</g>
</svg>
