<?xml version="1.0" encoding="UTF-8" standalone="no"?>
<!DOCTYPE svg PUBLIC "-//W3C//DTD SVG 1.1//EN"
 "http://www.w3.org/Graphics/SVG/1.1/DTD/svg11.dtd">
<!-- Generated by graphviz version 2.38.0 (20140413.2041)
 -->
<!-- Title: core/common/trapgen/debugger/GDBConnectionManager.hpp Pages: 1 -->
<svg width="524pt" height="242pt"
 viewBox="0.00 0.00 524.05 242.00" xmlns="http://www.w3.org/2000/svg" xmlns:xlink="http://www.w3.org/1999/xlink">
<g id="graph0" class="graph" transform="scale(1 1) rotate(0) translate(4 238)">
<title>core/common/trapgen/debugger/GDBConnectionManager.hpp</title>
<polygon fill="white" stroke="none" points="-4,4 -4,-238 520.046,-238 520.046,4 -4,4"/>
<!-- Node1 -->
<g id="node1" class="node"><title>Node1</title>
<polygon fill="#bfbfbf" stroke="black" points="103.569,-205.5 103.569,-233.5 298.031,-233.5 298.031,-205.5 103.569,-205.5"/>
<text text-anchor="start" x="111.569" y="-221.5" font-family="Helvetica,sans-Serif" font-size="10.00">core/common/trapgen</text>
<text text-anchor="middle" x="200.8" y="-211.5" font-family="Helvetica,sans-Serif" font-size="10.00">/debugger/GDBConnectionManager.hpp</text>
</g>
<!-- Node2 -->
<g id="node2" class="node"><title>Node2</title>
<g id="a_node2"><a xlink:href="GDBConnectionManager_8cpp.html" target="_top" xlink:title="core/common/trapgen\l/debugger/GDBConnectionManager.cpp">
<polygon fill="white" stroke="black" points="14.8501,-140.5 14.8501,-168.5 208.75,-168.5 208.75,-140.5 14.8501,-140.5"/>
<text text-anchor="start" x="22.8501" y="-156.5" font-family="Helvetica,sans-Serif" font-size="10.00">core/common/trapgen</text>
<text text-anchor="middle" x="111.8" y="-146.5" font-family="Helvetica,sans-Serif" font-size="10.00">/debugger/GDBConnectionManager.cpp</text>
</a>
</g>
</g>
<!-- Node1&#45;&gt;Node2 -->
<g id="edge1" class="edge"><title>Node1&#45;&gt;Node2</title>
<path fill="none" stroke="midnightblue" d="M173.987,-199.52C159.847,-189.511 142.861,-177.487 130.218,-168.537"/>
<polygon fill="midnightblue" stroke="midnightblue" points="172.175,-202.525 182.359,-205.446 176.22,-196.812 172.175,-202.525"/>
</g>
<!-- Node3 -->
<g id="node3" class="node"><title>Node3</title>
<g id="a_node3"><a xlink:href="GDBStub_8hpp.html" target="_top" xlink:title="core/common/trapgen\l/debugger/GDBStub.hpp">
<polygon fill="white" stroke="black" points="227.04,-140.5 227.04,-168.5 352.561,-168.5 352.561,-140.5 227.04,-140.5"/>
<text text-anchor="start" x="235.04" y="-156.5" font-family="Helvetica,sans-Serif" font-size="10.00">core/common/trapgen</text>
<text text-anchor="middle" x="289.8" y="-146.5" font-family="Helvetica,sans-Serif" font-size="10.00">/debugger/GDBStub.hpp</text>
</a>
</g>
</g>
<!-- Node1&#45;&gt;Node3 -->
<g id="edge2" class="edge"><title>Node1&#45;&gt;Node3</title>
<path fill="none" stroke="midnightblue" d="M227.613,-199.52C241.753,-189.511 258.739,-177.487 271.383,-168.537"/>
<polygon fill="midnightblue" stroke="midnightblue" points="225.381,-196.812 219.241,-205.446 229.425,-202.525 225.381,-196.812"/>
</g>
<!-- Node4 -->
<g id="node4" class="node"><title>Node4</title>
<g id="a_node4"><a xlink:href="leon3_8funcat_2main_8cpp.html" target="_top" xlink:title="core/models/extern\l/LEON3/simulatorSources\l/leon3.funcat/main.cpp">
<polygon fill="white" stroke="black" points="0,-65.5 0,-103.5 131.601,-103.5 131.601,-65.5 0,-65.5"/>
<text text-anchor="start" x="8" y="-91.5" font-family="Helvetica,sans-Serif" font-size="10.00">core/models/extern</text>
<text text-anchor="start" x="8" y="-81.5" font-family="Helvetica,sans-Serif" font-size="10.00">/LEON3/simulatorSources</text>
<text text-anchor="middle" x="65.8003" y="-71.5" font-family="Helvetica,sans-Serif" font-size="10.00">/leon3.funcat/main.cpp</text>
</a>
</g>
</g>
<!-- Node3&#45;&gt;Node4 -->
<g id="edge3" class="edge"><title>Node3&#45;&gt;Node4</title>
<path fill="none" stroke="midnightblue" d="M237.269,-137.553C203.781,-127.387 160.302,-114.188 125.507,-103.625"/>
<polygon fill="midnightblue" stroke="midnightblue" points="236.29,-140.914 246.876,-140.469 238.324,-134.215 236.29,-140.914"/>
</g>
<!-- Node5 -->
<g id="node5" class="node"><title>Node5</title>
<g id="a_node5"><a xlink:href="leon3_8funclt_2main_8cpp.html" target="_top" xlink:title="core/models/extern\l/LEON3/simulatorSources\l/leon3.funclt/main.cpp">
<polygon fill="white" stroke="black" points="150,-65.5 150,-103.5 281.601,-103.5 281.601,-65.5 150,-65.5"/>
<text text-anchor="start" x="158" y="-91.5" font-family="Helvetica,sans-Serif" font-size="10.00">core/models/extern</text>
<text text-anchor="start" x="158" y="-81.5" font-family="Helvetica,sans-Serif" font-size="10.00">/LEON3/simulatorSources</text>
<text text-anchor="middle" x="215.8" y="-71.5" font-family="Helvetica,sans-Serif" font-size="10.00">/leon3.funclt/main.cpp</text>
</a>
</g>
</g>
<!-- Node3&#45;&gt;Node5 -->
<g id="edge4" class="edge"><title>Node3&#45;&gt;Node5</title>
<path fill="none" stroke="midnightblue" d="M268.114,-133.572C257.837,-124.128 245.646,-112.926 235.619,-103.712"/>
<polygon fill="midnightblue" stroke="midnightblue" points="265.801,-136.2 275.532,-140.389 270.537,-131.045 265.801,-136.2"/>
</g>
<!-- Node6 -->
<g id="node6" class="node"><title>Node6</title>
<g id="a_node6"><a xlink:href="leon3__mmu__cache_8h.html" target="_top" xlink:title="core/models/mmu_cache\l/lib/leon3_mmu_cache.h">
<polygon fill="white" stroke="black" points="299.943,-70.5 299.943,-98.5 427.657,-98.5 427.657,-70.5 299.943,-70.5"/>
<text text-anchor="start" x="307.943" y="-86.5" font-family="Helvetica,sans-Serif" font-size="10.00">core/models/mmu_cache</text>
<text text-anchor="middle" x="363.8" y="-76.5" font-family="Helvetica,sans-Serif" font-size="10.00">/lib/leon3_mmu_cache.h</text>
</a>
</g>
</g>
<!-- Node3&#45;&gt;Node6 -->
<g id="edge5" class="edge"><title>Node3&#45;&gt;Node6</title>
<path fill="none" stroke="midnightblue" d="M311.661,-133.411C323.912,-122.154 338.838,-108.438 349.576,-98.5708"/>
<polygon fill="midnightblue" stroke="midnightblue" points="309.063,-131.045 304.068,-140.389 313.8,-136.2 309.063,-131.045"/>
</g>
<!-- Node8 -->
<g id="node8" class="node"><title>Node8</title>
<g id="a_node8"><a xlink:href="leon3mp_2sc__main_8cpp.html" target="_top" xlink:title="core/platforms/leon3mp\l/sc_main.cpp">
<polygon fill="white" stroke="black" points="395.554,-0.5 395.554,-28.5 516.046,-28.5 516.046,-0.5 395.554,-0.5"/>
<text text-anchor="start" x="403.554" y="-16.5" font-family="Helvetica,sans-Serif" font-size="10.00">core/platforms/leon3mp</text>
<text text-anchor="middle" x="455.8" y="-6.5" font-family="Helvetica,sans-Serif" font-size="10.00">/sc_main.cpp</text>
</a>
</g>
</g>
<!-- Node3&#45;&gt;Node8 -->
<g id="edge8" class="edge"><title>Node3&#45;&gt;Node8</title>
<path fill="none" stroke="midnightblue" d="M362.497,-144.362C389.33,-137.438 417.795,-125.292 436.8,-104 455.637,-82.8978 457.378,-47.7175 456.751,-28.6891"/>
<polygon fill="midnightblue" stroke="midnightblue" points="361.627,-140.971 352.705,-146.684 363.243,-147.782 361.627,-140.971"/>
</g>
<!-- Node7 -->
<g id="node7" class="node"><title>Node7</title>
<g id="a_node7"><a xlink:href="leon3__mmu__cache_8cpp.html" target="_top" xlink:title="core/models/mmu_cache\l/lib/leon3_mmu_cache.cpp">
<polygon fill="white" stroke="black" points="242.32,-0.5 242.32,-28.5 377.28,-28.5 377.28,-0.5 242.32,-0.5"/>
<text text-anchor="start" x="250.32" y="-16.5" font-family="Helvetica,sans-Serif" font-size="10.00">core/models/mmu_cache</text>
<text text-anchor="middle" x="309.8" y="-6.5" font-family="Helvetica,sans-Serif" font-size="10.00">/lib/leon3_mmu_cache.cpp</text>
</a>
</g>
</g>
<!-- Node6&#45;&gt;Node7 -->
<g id="edge6" class="edge"><title>Node6&#45;&gt;Node7</title>
<path fill="none" stroke="midnightblue" d="M347.077,-62.4406C338.288,-51.3734 327.792,-38.1561 320.18,-28.5708"/>
<polygon fill="midnightblue" stroke="midnightblue" points="344.429,-64.7344 353.389,-70.3889 349.911,-60.3812 344.429,-64.7344"/>
</g>
<!-- Node6&#45;&gt;Node8 -->
<g id="edge7" class="edge"><title>Node6&#45;&gt;Node8</title>
<path fill="none" stroke="midnightblue" d="M389.682,-64.3702C405.145,-52.941 424.385,-38.7199 438.116,-28.5708"/>
<polygon fill="midnightblue" stroke="midnightblue" points="387.5,-61.6303 381.539,-70.3889 391.661,-67.2596 387.5,-61.6303"/>
</g>
</g>
</svg>
