<?xml version="1.0" encoding="UTF-8" standalone="no"?>
<!DOCTYPE svg PUBLIC "-//W3C//DTD SVG 1.1//EN"
 "http://www.w3.org/Graphics/SVG/1.1/DTD/svg11.dtd">
<!-- Generated by graphviz version 2.38.0 (20140413.2041)
 -->
<!-- Title: core/common/trapgen/debugger/GDBConnectionManager.hpp Pages: 1 -->
<svg width="451pt" height="240pt"
 viewBox="0.00 0.00 450.50 240.00" xmlns="http://www.w3.org/2000/svg" xmlns:xlink="http://www.w3.org/1999/xlink">
<g id="graph0" class="graph" transform="scale(1 1) rotate(0) translate(4 236)">
<title>core/common/trapgen/debugger/GDBConnectionManager.hpp</title>
<polygon fill="white" stroke="none" points="-4,4 -4,-236 446.5,-236 446.5,4 -4,4"/>
<!-- Node1 -->
<g id="node1" class="node"><title>Node1</title>
<polygon fill="#bfbfbf" stroke="black" points="87,-201.5 87,-231.5 277,-231.5 277,-201.5 87,-201.5"/>
<text text-anchor="start" x="95" y="-219.5" font-family="Helvetica,sans-Serif" font-size="10.00">core/common/trapgen</text>
<text text-anchor="middle" x="182" y="-208.5" font-family="Helvetica,sans-Serif" font-size="10.00">/debugger/GDBConnectionManager.hpp</text>
</g>
<!-- Node2 -->
<g id="node2" class="node"><title>Node2</title>
<g id="a_node2"><a xlink:href="GDBConnectionManager_8cpp.html" target="_top" xlink:title="core/common/trapgen\l/debugger/GDBConnectionManager.cpp">
<polygon fill="white" stroke="black" points="0,-134.5 0,-164.5 190,-164.5 190,-134.5 0,-134.5"/>
<text text-anchor="start" x="8" y="-152.5" font-family="Helvetica,sans-Serif" font-size="10.00">core/common/trapgen</text>
<text text-anchor="middle" x="95" y="-141.5" font-family="Helvetica,sans-Serif" font-size="10.00">/debugger/GDBConnectionManager.cpp</text>
</a>
</g>
</g>
<!-- Node1&#45;&gt;Node2 -->
<g id="edge1" class="edge"><title>Node1&#45;&gt;Node2</title>
<path fill="none" stroke="midnightblue" d="M154.786,-195.168C141.482,-185.228 125.804,-173.514 113.841,-164.577"/>
<polygon fill="midnightblue" stroke="midnightblue" points="153.016,-198.215 163.122,-201.396 157.206,-192.607 153.016,-198.215"/>
</g>
<!-- Node3 -->
<g id="node3" class="node"><title>Node3</title>
<g id="a_node3"><a xlink:href="GDBStub_8hpp.html" target="_top" xlink:title="core/common/trapgen\l/debugger/GDBStub.hpp">
<polygon fill="white" stroke="black" points="208.5,-134.5 208.5,-164.5 331.5,-164.5 331.5,-134.5 208.5,-134.5"/>
<text text-anchor="start" x="216.5" y="-152.5" font-family="Helvetica,sans-Serif" font-size="10.00">core/common/trapgen</text>
<text text-anchor="middle" x="270" y="-141.5" font-family="Helvetica,sans-Serif" font-size="10.00">/debugger/GDBStub.hpp</text>
</a>
</g>
</g>
<!-- Node1&#45;&gt;Node3 -->
<g id="edge2" class="edge"><title>Node1&#45;&gt;Node3</title>
<path fill="none" stroke="midnightblue" d="M209.143,-195.451C222.681,-185.452 238.727,-173.6 250.943,-164.577"/>
<polygon fill="midnightblue" stroke="midnightblue" points="207.059,-192.639 201.095,-201.396 211.218,-198.27 207.059,-192.639"/>
</g>
<!-- Node4 -->
<g id="node4" class="node"><title>Node4</title>
<g id="a_node4"><a xlink:href="sc__main_8cpp.html" target="_top" xlink:title="core/platforms/leon3mp\l/sc_main.cpp">
<polygon fill="white" stroke="black" points="129.5,-0.5 129.5,-30.5 248.5,-30.5 248.5,-0.5 129.5,-0.5"/>
<text text-anchor="start" x="137.5" y="-18.5" font-family="Helvetica,sans-Serif" font-size="10.00">core/platforms/leon3mp</text>
<text text-anchor="middle" x="189" y="-7.5" font-family="Helvetica,sans-Serif" font-size="10.00">/sc_main.cpp</text>
</a>
</g>
</g>
<!-- Node3&#45;&gt;Node4 -->
<g id="edge3" class="edge"><title>Node3&#45;&gt;Node4</title>
<path fill="none" stroke="midnightblue" d="M237.569,-128.509C226.688,-120.305 215.441,-109.917 208,-98 194.842,-76.9264 190.785,-47.6419 189.541,-30.5185"/>
<polygon fill="midnightblue" stroke="midnightblue" points="235.577,-131.387 245.75,-134.346 239.643,-125.689 235.577,-131.387"/>
</g>
<!-- Node5 -->
<g id="node5" class="node"><title>Node5</title>
<g id="a_node5"><a xlink:href="gaisler_2leon3_2leon3_8h.html" target="_top" xlink:title="gaisler/leon3/leon3.h">
<polygon fill="white" stroke="black" points="217,-73 217,-92 323,-92 323,-73 217,-73"/>
<text text-anchor="middle" x="270" y="-80" font-family="Helvetica,sans-Serif" font-size="10.00">gaisler/leon3/leon3.h</text>
</a>
</g>
</g>
<!-- Node3&#45;&gt;Node5 -->
<g id="edge4" class="edge"><title>Node3&#45;&gt;Node5</title>
<path fill="none" stroke="midnightblue" d="M270,-124.25C270,-113.017 270,-100.377 270,-92.1945"/>
<polygon fill="midnightblue" stroke="midnightblue" points="266.5,-124.396 270,-134.396 273.5,-124.396 266.5,-124.396"/>
</g>
<!-- Node7 -->
<g id="node7" class="node"><title>Node7</title>
<g id="a_node7"><a xlink:href="main_8cpp.html" target="_top" xlink:title="gaisler/leon3/intunit\l/main.cpp">
<polygon fill="white" stroke="black" points="341.5,-67.5 341.5,-97.5 442.5,-97.5 442.5,-67.5 341.5,-67.5"/>
<text text-anchor="start" x="349.5" y="-85.5" font-family="Helvetica,sans-Serif" font-size="10.00">gaisler/leon3/intunit</text>
<text text-anchor="middle" x="392" y="-74.5" font-family="Helvetica,sans-Serif" font-size="10.00">/main.cpp</text>
</a>
</g>
</g>
<!-- Node3&#45;&gt;Node7 -->
<g id="edge7" class="edge"><title>Node3&#45;&gt;Node7</title>
<path fill="none" stroke="midnightblue" d="M305.521,-129.575C324.712,-119.35 348.005,-106.94 365.579,-97.5765"/>
<polygon fill="midnightblue" stroke="midnightblue" points="303.652,-126.605 296.472,-134.396 306.943,-132.783 303.652,-126.605"/>
</g>
<!-- Node5&#45;&gt;Node4 -->
<g id="edge5" class="edge"><title>Node5&#45;&gt;Node4</title>
<path fill="none" stroke="midnightblue" d="M250.98,-66.2371C237.54,-55.4518 219.658,-41.1025 206.557,-30.589"/>
<polygon fill="midnightblue" stroke="midnightblue" points="249.086,-69.2048 259.076,-72.7338 253.467,-63.7453 249.086,-69.2048"/>
</g>
<!-- Node6 -->
<g id="node6" class="node"><title>Node6</title>
<g id="a_node6"><a xlink:href="leon3_8cpp.html" target="_top" xlink:title="gaisler/leon3/leon3.cpp">
<polygon fill="white" stroke="black" points="267,-6 267,-25 383,-25 383,-6 267,-6"/>
<text text-anchor="middle" x="325" y="-13" font-family="Helvetica,sans-Serif" font-size="10.00">gaisler/leon3/leon3.cpp</text>
</a>
</g>
</g>
<!-- Node5&#45;&gt;Node6 -->
<g id="edge6" class="edge"><title>Node5&#45;&gt;Node6</title>
<path fill="none" stroke="midnightblue" d="M284.156,-64.7705C294.879,-52.0972 309.176,-35.201 317.7,-25.1273"/>
<polygon fill="midnightblue" stroke="midnightblue" points="281.205,-62.8391 277.418,-72.7338 286.549,-67.3607 281.205,-62.8391"/>
</g>
</g>
</svg>
