<?xml version="1.0" encoding="UTF-8" standalone="no"?>
<!DOCTYPE svg PUBLIC "-//W3C//DTD SVG 1.1//EN"
 "http://www.w3.org/Graphics/SVG/1.1/DTD/svg11.dtd">
<!-- Generated by graphviz version 2.36.0 (20140111.2315)
 -->
<!-- Title: core/common/trapgen/debugger/GDBConnectionManager.hpp Pages: 1 -->
<svg width="525pt" height="244pt"
 viewBox="0.00 0.00 525.00 244.00" xmlns="http://www.w3.org/2000/svg" xmlns:xlink="http://www.w3.org/1999/xlink">
<g id="graph0" class="graph" transform="scale(1 1) rotate(0) translate(4 240)">
<title>core/common/trapgen/debugger/GDBConnectionManager.hpp</title>
<polygon fill="white" stroke="none" points="-4,4 -4,-240 521,-240 521,4 -4,4"/>
<!-- Node1 -->
<g id="node1" class="node"><title>Node1</title>
<polygon fill="#bfbfbf" stroke="black" points="87,-205 87,-235 277,-235 277,-205 87,-205"/>
<text text-anchor="start" x="95" y="-223" font-family="Helvetica,sans-Serif" font-size="10.00">core/common/trapgen</text>
<text text-anchor="middle" x="182" y="-212" font-family="Helvetica,sans-Serif" font-size="10.00">/debugger/GDBConnectionManager.hpp</text>
</g>
<!-- Node2 -->
<g id="node2" class="node"><title>Node2</title>
<g id="a_node2"><a xlink:href="GDBConnectionManager_8cpp.html" target="_top" xlink:title="core/common/trapgen\l/debugger/GDBConnectionManager.cpp">
<polygon fill="white" stroke="black" points="0,-137 0,-167 190,-167 190,-137 0,-137"/>
<text text-anchor="start" x="8" y="-155" font-family="Helvetica,sans-Serif" font-size="10.00">core/common/trapgen</text>
<text text-anchor="middle" x="95" y="-144" font-family="Helvetica,sans-Serif" font-size="10.00">/debugger/GDBConnectionManager.cpp</text>
</a>
</g>
</g>
<!-- Node1&#45;&gt;Node2 -->
<g id="edge1" class="edge"><title>Node1&#45;&gt;Node2</title>
<path fill="none" stroke="midnightblue" d="M155.108,-198.599C141.626,-188.371 125.638,-176.243 113.542,-167.066"/>
<polygon fill="midnightblue" stroke="midnightblue" points="153.04,-201.424 163.122,-204.679 157.271,-195.847 153.04,-201.424"/>
</g>
<!-- Node3 -->
<g id="node3" class="node"><title>Node3</title>
<g id="a_node3"><a xlink:href="GDBStub_8hpp.html" target="_top" xlink:title="core/common/trapgen\l/debugger/GDBStub.hpp">
<polygon fill="white" stroke="black" points="208.5,-137 208.5,-167 331.5,-167 331.5,-137 208.5,-137"/>
<text text-anchor="start" x="216.5" y="-155" font-family="Helvetica,sans-Serif" font-size="10.00">core/common/trapgen</text>
<text text-anchor="middle" x="270" y="-144" font-family="Helvetica,sans-Serif" font-size="10.00">/debugger/GDBStub.hpp</text>
</a>
</g>
</g>
<!-- Node1&#45;&gt;Node3 -->
<g id="edge2" class="edge"><title>Node1&#45;&gt;Node3</title>
<path fill="none" stroke="midnightblue" d="M209.201,-198.599C222.838,-188.371 239.01,-176.243 251.245,-167.066"/>
<polygon fill="midnightblue" stroke="midnightblue" points="206.995,-195.879 201.095,-204.679 211.195,-201.479 206.995,-195.879"/>
</g>
<!-- Node4 -->
<g id="node4" class="node"><title>Node4</title>
<g id="a_node4"><a xlink:href="core_2platforms_2leon3mp_2sc__main_8cpp.html" target="_top" xlink:title="core/platforms/leon3mp\l/sc_main.cpp">
<polygon fill="white" stroke="black" points="63.5,-1 63.5,-31 182.5,-31 182.5,-1 63.5,-1"/>
<text text-anchor="start" x="71.5" y="-19" font-family="Helvetica,sans-Serif" font-size="10.00">core/platforms/leon3mp</text>
<text text-anchor="middle" x="123" y="-8" font-family="Helvetica,sans-Serif" font-size="10.00">/sc_main.cpp</text>
</a>
</g>
</g>
<!-- Node3&#45;&gt;Node4 -->
<g id="edge3" class="edge"><title>Node3&#45;&gt;Node4</title>
<path fill="none" stroke="midnightblue" d="M244.205,-130.599C232.907,-121.456 219.607,-110.407 208,-100 182.047,-76.7309 153.317,-48.0124 136.786,-31.1802"/>
<polygon fill="midnightblue" stroke="midnightblue" points="242.038,-133.347 252.025,-136.883 246.423,-127.891 242.038,-133.347"/>
</g>
<!-- Node5 -->
<g id="node5" class="node"><title>Node5</title>
<g id="a_node5"><a xlink:href="gaisler_2leon3_2leon3_8h.html" target="_top" xlink:title="gaisler/leon3/leon3.h">
<polygon fill="white" stroke="black" points="217,-74.5 217,-93.5 323,-93.5 323,-74.5 217,-74.5"/>
<text text-anchor="middle" x="270" y="-81.5" font-family="Helvetica,sans-Serif" font-size="10.00">gaisler/leon3/leon3.h</text>
</a>
</g>
</g>
<!-- Node3&#45;&gt;Node5 -->
<g id="edge4" class="edge"><title>Node3&#45;&gt;Node5</title>
<path fill="none" stroke="midnightblue" d="M270,-126.376C270,-114.971 270,-102.136 270,-93.8283"/>
<polygon fill="midnightblue" stroke="midnightblue" points="266.5,-126.679 270,-136.679 273.5,-126.679 266.5,-126.679"/>
</g>
<!-- Node8 -->
<g id="node8" class="node"><title>Node8</title>
<g id="a_node8"><a xlink:href="main_8cpp.html" target="_top" xlink:title="gaisler/leon3/intunit\l/main.cpp">
<polygon fill="white" stroke="black" points="341.5,-69 341.5,-99 442.5,-99 442.5,-69 341.5,-69"/>
<text text-anchor="start" x="349.5" y="-87" font-family="Helvetica,sans-Serif" font-size="10.00">gaisler/leon3/intunit</text>
<text text-anchor="middle" x="392" y="-76" font-family="Helvetica,sans-Serif" font-size="10.00">/main.cpp</text>
</a>
</g>
</g>
<!-- Node3&#45;&gt;Node8 -->
<g id="edge8" class="edge"><title>Node3&#45;&gt;Node8</title>
<path fill="none" stroke="midnightblue" d="M305.02,-132.055C324.412,-121.564 348.111,-108.743 365.871,-99.1352"/>
<polygon fill="midnightblue" stroke="midnightblue" points="303.302,-129.005 296.172,-136.841 306.633,-135.162 303.302,-129.005"/>
</g>
<!-- Node5&#45;&gt;Node4 -->
<g id="edge5" class="edge"><title>Node5&#45;&gt;Node4</title>
<path fill="none" stroke="midnightblue" d="M241.465,-70.1883C216.441,-58.953 180.123,-42.6472 154.307,-31.0562"/>
<polygon fill="midnightblue" stroke="midnightblue" points="240.226,-73.4686 250.782,-74.3717 243.093,-67.0827 240.226,-73.4686"/>
</g>
<!-- Node6 -->
<g id="node6" class="node"><title>Node6</title>
<g id="a_node6"><a xlink:href="cuselab_2platforms_2leon3softwaredemo_2sc__main_8cpp.html" target="_top" xlink:title="cuselab/platforms/leon3softwaredemo\l/sc_main.cpp">
<polygon fill="white" stroke="black" points="201,-1 201,-31 383,-31 383,-1 201,-1"/>
<text text-anchor="start" x="209" y="-19" font-family="Helvetica,sans-Serif" font-size="10.00">cuselab/platforms/leon3softwaredemo</text>
<text text-anchor="middle" x="292" y="-8" font-family="Helvetica,sans-Serif" font-size="10.00">/sc_main.cpp</text>
</a>
</g>
</g>
<!-- Node5&#45;&gt;Node6 -->
<g id="edge6" class="edge"><title>Node5&#45;&gt;Node6</title>
<path fill="none" stroke="midnightblue" d="M276.053,-64.8404C279.591,-54.2266 283.991,-41.026 287.273,-31.1815"/>
<polygon fill="midnightblue" stroke="midnightblue" points="272.718,-63.778 272.876,-74.3717 279.359,-65.9916 272.718,-63.778"/>
</g>
<!-- Node7 -->
<g id="node7" class="node"><title>Node7</title>
<g id="a_node7"><a xlink:href="leon3_8cpp.html" target="_top" xlink:title="gaisler/leon3/leon3.cpp">
<polygon fill="white" stroke="black" points="401,-6.5 401,-25.5 517,-25.5 517,-6.5 401,-6.5"/>
<text text-anchor="middle" x="459" y="-13.5" font-family="Helvetica,sans-Serif" font-size="10.00">gaisler/leon3/leon3.cpp</text>
</a>
</g>
</g>
<!-- Node5&#45;&gt;Node7 -->
<g id="edge7" class="edge"><title>Node5&#45;&gt;Node7</title>
<path fill="none" stroke="midnightblue" d="M304.24,-71.0432C341.878,-57.8998 401.397,-37.1153 434.585,-25.5259"/>
<polygon fill="midnightblue" stroke="midnightblue" points="302.995,-67.7704 294.708,-74.3717 305.303,-74.3791 302.995,-67.7704"/>
</g>
</g>
</svg>
