<?xml version="1.0" encoding="UTF-8" standalone="no"?>
<!DOCTYPE svg PUBLIC "-//W3C//DTD SVG 1.1//EN"
 "http://www.w3.org/Graphics/SVG/1.1/DTD/svg11.dtd">
<!-- Generated by graphviz version 2.38.0 (20140413.2041)
 -->
<!-- Title: powermonitor::powermonitor Pages: 1 -->
<svg width="804pt" height="59pt"
 viewBox="0.00 0.00 803.95 59.00" xmlns="http://www.w3.org/2000/svg" xmlns:xlink="http://www.w3.org/1999/xlink">
<g id="graph0" class="graph" transform="scale(1 1) rotate(0) translate(4 55)">
<title>powermonitor::powermonitor</title>
<polygon fill="white" stroke="none" points="-4,4 -4,-55 799.948,-55 799.948,4 -4,4"/>
<!-- Node1 -->
<g id="node1" class="node"><title>Node1</title>
<polygon fill="#bfbfbf" stroke="black" points="0,-5.5 0,-23.5 142.719,-23.5 142.719,-5.5 0,-5.5"/>
<text text-anchor="middle" x="71.3594" y="-11.5" font-family="Helvetica,sans-Serif" font-size="10.00">powermonitor::powermonitor</text>
</g>
<!-- Node2 -->
<g id="node2" class="node"><title>Node2</title>
<g id="a_node2"><a xlink:href="group__common.html#ga0ead413baab12ee952ef08bcd7cdbdcb" target="_top" xlink:title="powermonitor::report\l_trigger">
<polygon fill="white" stroke="black" points="178.719,-0.5 178.719,-28.5 286.979,-28.5 286.979,-0.5 178.719,-0.5"/>
<text text-anchor="start" x="186.719" y="-16.5" font-family="Helvetica,sans-Serif" font-size="10.00">powermonitor::report</text>
<text text-anchor="middle" x="232.849" y="-6.5" font-family="Helvetica,sans-Serif" font-size="10.00">_trigger</text>
</a>
</g>
</g>
<!-- Node1&#45;&gt;Node2 -->
<g id="edge1" class="edge"><title>Node1&#45;&gt;Node2</title>
<path fill="none" stroke="midnightblue" d="M142.778,-14.5C151.321,-14.5 160.009,-14.5 168.442,-14.5"/>
<polygon fill="midnightblue" stroke="midnightblue" points="168.575,-18.0001 178.575,-14.5 168.575,-11.0001 168.575,-18.0001"/>
</g>
<!-- Node3 -->
<g id="node3" class="node"><title>Node3</title>
<g id="a_node3"><a xlink:href="group__common.html#ga87a86bac1d4abffcdd50384f6f4dcc48" target="_top" xlink:title="powermonitor::gen_report">
<polygon fill="white" stroke="black" points="322.979,-5.5 322.979,-23.5 453.486,-23.5 453.486,-5.5 322.979,-5.5"/>
<text text-anchor="middle" x="388.233" y="-11.5" font-family="Helvetica,sans-Serif" font-size="10.00">powermonitor::gen_report</text>
</a>
</g>
</g>
<!-- Node2&#45;&gt;Node3 -->
<g id="edge2" class="edge"><title>Node2&#45;&gt;Node3</title>
<path fill="none" stroke="midnightblue" d="M287.065,-14.5C295.336,-14.5 304.011,-14.5 312.649,-14.5"/>
<polygon fill="midnightblue" stroke="midnightblue" points="312.748,-18.0001 322.748,-14.5 312.748,-11.0001 312.748,-18.0001"/>
</g>
<!-- Node4 -->
<g id="node4" class="node"><title>Node4</title>
<g id="a_node4"><a xlink:href="group__common.html#gafc1025d722f6f9f5c1d902cef3876355" target="_top" xlink:title="powermonitor::get_IP\l_params">
<polygon fill="white" stroke="black" points="489.486,-22.5 489.486,-50.5 600.535,-50.5 600.535,-22.5 489.486,-22.5"/>
<text text-anchor="start" x="497.486" y="-38.5" font-family="Helvetica,sans-Serif" font-size="10.00">powermonitor::get_IP</text>
<text text-anchor="middle" x="545.011" y="-28.5" font-family="Helvetica,sans-Serif" font-size="10.00">_params</text>
</a>
</g>
</g>
<!-- Node3&#45;&gt;Node4 -->
<g id="edge3" class="edge"><title>Node3&#45;&gt;Node4</title>
<path fill="none" stroke="midnightblue" d="M452.634,-23.5117C461.394,-24.757 470.402,-26.0373 479.188,-27.2862"/>
<polygon fill="midnightblue" stroke="midnightblue" points="478.979,-30.7915 489.372,-28.7337 479.964,-23.8612 478.979,-30.7915"/>
</g>
<!-- Node5 -->
<g id="node5" class="node"><title>Node5</title>
<g id="a_node5"><a xlink:href="group__common.html#ga1168f792f1d4f38b51e49067e56b467d" target="_top" xlink:title="powermonitor::get_model_name">
<polygon fill="white" stroke="black" points="636.535,-5.5 636.535,-23.5 795.948,-23.5 795.948,-5.5 636.535,-5.5"/>
<text text-anchor="middle" x="716.242" y="-11.5" font-family="Helvetica,sans-Serif" font-size="10.00">powermonitor::get_model_name</text>
</a>
</g>
</g>
<!-- Node3&#45;&gt;Node5 -->
<g id="edge5" class="edge"><title>Node3&#45;&gt;Node5</title>
<path fill="none" stroke="midnightblue" d="M453.679,-13.7623C465.585,-13.6529 477.911,-13.5577 489.486,-13.5 538.841,-13.2539 551.181,-13.2849 600.535,-13.5 608.837,-13.5362 617.477,-13.5871 626.125,-13.647"/>
<polygon fill="midnightblue" stroke="midnightblue" points="626.235,-17.1478 636.26,-13.7211 626.286,-10.148 626.235,-17.1478"/>
</g>
<!-- Node4&#45;&gt;Node5 -->
<g id="edge4" class="edge"><title>Node4&#45;&gt;Node5</title>
<path fill="none" stroke="midnightblue" d="M600.955,-29.3572C612.003,-27.921 623.823,-26.3844 635.518,-24.864"/>
<polygon fill="midnightblue" stroke="midnightblue" points="636.276,-28.2951 645.741,-23.535 635.374,-21.3535 636.276,-28.2951"/>
</g>
</g>
</svg>
