<?xml version="1.0" encoding="UTF-8" standalone="no"?>
<!DOCTYPE svg PUBLIC "-//W3C//DTD SVG 1.1//EN"
 "http://www.w3.org/Graphics/SVG/1.1/DTD/svg11.dtd">
<!-- Generated by graphviz version 2.38.0 (20140413.2041)
 -->
<!-- Title: Leon3::Leon3 Pages: 1 -->
<svg width="387pt" height="149pt"
 viewBox="0.00 0.00 387.00 149.00" xmlns="http://www.w3.org/2000/svg" xmlns:xlink="http://www.w3.org/1999/xlink">
<g id="graph0" class="graph" transform="scale(1 1) rotate(0) translate(4 145)">
<title>Leon3::Leon3</title>
<polygon fill="white" stroke="none" points="-4,4 -4,-145 383,-145 383,4 -4,4"/>
<!-- Node1 -->
<g id="node1" class="node"><title>Node1</title>
<polygon fill="#bfbfbf" stroke="black" points="0,-71 0,-90 75,-90 75,-71 0,-71"/>
<text text-anchor="middle" x="37.5" y="-78" font-family="Helvetica,sans-Serif" font-size="10.00">Leon3::Leon3</text>
</g>
<!-- Node2 -->
<g id="node2" class="node"><title>Node2</title>
<g id="a_node2"><a xlink:href="classtrap_1_1ToolsManager.html#ae5454c48f202c7641c8996df8055ccac" target="_top" xlink:title="trap::ToolsManager\l::addTool">
<polygon fill="white" stroke="black" points="272,-110.5 272,-140.5 373,-140.5 373,-110.5 272,-110.5"/>
<text text-anchor="start" x="280" y="-128.5" font-family="Helvetica,sans-Serif" font-size="10.00">trap::ToolsManager</text>
<text text-anchor="middle" x="322.5" y="-117.5" font-family="Helvetica,sans-Serif" font-size="10.00">::addTool</text>
</a>
</g>
</g>
<!-- Node1&#45;&gt;Node2 -->
<g id="edge1" class="edge"><title>Node1&#45;&gt;Node2</title>
<path fill="none" stroke="midnightblue" d="M52.1646,-90.0759C66.191,-99.3051 89.0151,-112.698 111,-118.5 160.483,-131.558 218.778,-132.43 261.459,-130.538"/>
<polygon fill="midnightblue" stroke="midnightblue" points="261.875,-134.021 271.685,-130.019 261.52,-127.03 261.875,-134.021"/>
</g>
<!-- Node3 -->
<g id="node3" class="node"><title>Node3</title>
<g id="a_node3"><a xlink:href="group__mmu__cache.html#gabbbfabb1b0d41c5a92b35f5d8e09b6ca" target="_top" xlink:title="Leon3::g_args_callback">
<polygon fill="white" stroke="black" points="111,-52 111,-71 230,-71 230,-52 111,-52"/>
<text text-anchor="middle" x="170.5" y="-59" font-family="Helvetica,sans-Serif" font-size="10.00">Leon3::g_args_callback</text>
</a>
</g>
</g>
<!-- Node1&#45;&gt;Node3 -->
<g id="edge2" class="edge"><title>Node1&#45;&gt;Node3</title>
<path fill="none" stroke="midnightblue" d="M75.3394,-75.1569C83.3671,-73.9926 92.1102,-72.7245 100.928,-71.4456"/>
<polygon fill="midnightblue" stroke="midnightblue" points="101.486,-74.9013 110.88,-70.0021 100.482,-67.9738 101.486,-74.9013"/>
</g>
<!-- Node5 -->
<g id="node5" class="node"><title>Node5</title>
<g id="a_node5"><a xlink:href="group__mmu__cache.html#gaad58ee043802b8748c940240085088b1" target="_top" xlink:title="Leon3::g_gdb_callback">
<polygon fill="white" stroke="black" points="112.5,-90 112.5,-109 228.5,-109 228.5,-90 112.5,-90"/>
<text text-anchor="middle" x="170.5" y="-97" font-family="Helvetica,sans-Serif" font-size="10.00">Leon3::g_gdb_callback</text>
</a>
</g>
</g>
<!-- Node1&#45;&gt;Node5 -->
<g id="edge4" class="edge"><title>Node1&#45;&gt;Node5</title>
<path fill="none" stroke="midnightblue" d="M75.3394,-85.8431C83.7868,-87.0683 93.0265,-88.4084 102.311,-89.7551"/>
<polygon fill="midnightblue" stroke="midnightblue" points="101.97,-93.2421 112.369,-91.2138 102.975,-86.3146 101.97,-93.2421"/>
</g>
<!-- Node6 -->
<g id="node6" class="node"><title>Node6</title>
<g id="a_node6"><a xlink:href="group__mmu__cache.html#ga6b0ca66f4bb52e3e62c2b93708185f20" target="_top" xlink:title="Leon3::init_generics">
<polygon fill="white" stroke="black" points="118.5,-11 118.5,-30 222.5,-30 222.5,-11 118.5,-11"/>
<text text-anchor="middle" x="170.5" y="-18" font-family="Helvetica,sans-Serif" font-size="10.00">Leon3::init_generics</text>
</a>
</g>
</g>
<!-- Node1&#45;&gt;Node6 -->
<g id="edge6" class="edge"><title>Node1&#45;&gt;Node6</title>
<path fill="none" stroke="midnightblue" d="M55.2016,-70.9942C69.7122,-62.9184 91.4173,-51.2742 111,-42.5 117.876,-39.4192 125.326,-36.3911 132.532,-33.6138"/>
<polygon fill="midnightblue" stroke="midnightblue" points="134.005,-36.799 142.131,-30.0006 131.539,-30.2477 134.005,-36.799"/>
</g>
<!-- Node4 -->
<g id="node4" class="node"><title>Node4</title>
<g id="a_node4"><a xlink:href="classsr__param_3_01std_1_1vector_3_01std_1_1string_01_4_01_4.html#ac0da7666ae9165d7717e2299f7984c3c" target="_top" xlink:title="sr_param\&lt; std::vector\l\&lt; std::string \&gt; \&gt;::size">
<polygon fill="white" stroke="black" points="266,-49.5 266,-79.5 379,-79.5 379,-49.5 266,-49.5"/>
<text text-anchor="start" x="274" y="-67.5" font-family="Helvetica,sans-Serif" font-size="10.00">sr_param&lt; std::vector</text>
<text text-anchor="middle" x="322.5" y="-56.5" font-family="Helvetica,sans-Serif" font-size="10.00">&lt; std::string &gt; &gt;::size</text>
</a>
</g>
</g>
<!-- Node3&#45;&gt;Node4 -->
<g id="edge3" class="edge"><title>Node3&#45;&gt;Node4</title>
<path fill="none" stroke="midnightblue" d="M230.353,-62.6771C238.639,-62.8428 247.201,-63.014 255.608,-63.1822"/>
<polygon fill="midnightblue" stroke="midnightblue" points="255.689,-66.6844 265.757,-63.3851 255.829,-59.6858 255.689,-66.6844"/>
</g>
<!-- Node5&#45;&gt;Node2 -->
<g id="edge5" class="edge"><title>Node5&#45;&gt;Node2</title>
<path fill="none" stroke="midnightblue" d="M226.503,-109.034C238.014,-111.029 250.203,-113.142 261.873,-115.165"/>
<polygon fill="midnightblue" stroke="midnightblue" points="261.515,-118.655 271.965,-116.914 262.71,-111.757 261.515,-118.655"/>
</g>
<!-- Node7 -->
<g id="node7" class="node"><title>Node7</title>
<g id="a_node7"><a xlink:href="classsr__param__base.html#ad7c5b28a15c30bb579ff36c8ae356829" target="_top" xlink:title="sr_param_base::add\l_properties">
<polygon fill="white" stroke="black" points="270,-0.5 270,-30.5 375,-30.5 375,-0.5 270,-0.5"/>
<text text-anchor="start" x="278" y="-18.5" font-family="Helvetica,sans-Serif" font-size="10.00">sr_param_base::add</text>
<text text-anchor="middle" x="322.5" y="-7.5" font-family="Helvetica,sans-Serif" font-size="10.00">_properties</text>
</a>
</g>
</g>
<!-- Node6&#45;&gt;Node7 -->
<g id="edge7" class="edge"><title>Node6&#45;&gt;Node7</title>
<path fill="none" stroke="midnightblue" d="M222.702,-18.7933C234.571,-18.3976 247.326,-17.9725 259.599,-17.5634"/>
<polygon fill="midnightblue" stroke="midnightblue" points="259.887,-21.0558 269.764,-17.2245 259.653,-14.0597 259.887,-21.0558"/>
</g>
</g>
</svg>
