<?xml version="1.0" encoding="UTF-8" standalone="no"?>
<!DOCTYPE svg PUBLIC "-//W3C//DTD SVG 1.1//EN"
 "http://www.w3.org/Graphics/SVG/1.1/DTD/svg11.dtd">
<!-- Generated by graphviz version 2.38.0 (20140413.2041)
 -->
<!-- Title: mmu_cache::icio_service_thread Pages: 1 -->
<svg width="597pt" height="124pt"
 viewBox="0.00 0.00 597.40 124.00" xmlns="http://www.w3.org/2000/svg" xmlns:xlink="http://www.w3.org/1999/xlink">
<g id="graph0" class="graph" transform="scale(1 1) rotate(0) translate(4 120)">
<title>mmu_cache::icio_service_thread</title>
<polygon fill="white" stroke="none" points="-4,4 -4,-120 593.402,-120 593.402,4 -4,4"/>
<!-- Node1 -->
<g id="node1" class="node"><title>Node1</title>
<polygon fill="#bfbfbf" stroke="black" points="0,-32.5 0,-60.5 128.266,-60.5 128.266,-32.5 0,-32.5"/>
<text text-anchor="start" x="8" y="-48.5" font-family="Helvetica,sans-Serif" font-size="10.00">mmu_cache::icio_service</text>
<text text-anchor="middle" x="64.1328" y="-38.5" font-family="Helvetica,sans-Serif" font-size="10.00">_thread</text>
</g>
<!-- Node2 -->
<g id="node2" class="node"><title>Node2</title>
<g id="a_node2"><a xlink:href="group__mmu__cache.html#ga95e1fb7554801153de0221044bdb5113" target="_top" xlink:title="Instruction interface to functional part of the model. ">
<polygon fill="white" stroke="black" points="164.266,-37.5 164.266,-55.5 285.866,-55.5 285.866,-37.5 164.266,-37.5"/>
<text text-anchor="middle" x="225.066" y="-43.5" font-family="Helvetica,sans-Serif" font-size="10.00">mmu_cache::exec_instr</text>
</a>
</g>
</g>
<!-- Node1&#45;&gt;Node2 -->
<g id="edge1" class="edge"><title>Node1&#45;&gt;Node2</title>
<path fill="none" stroke="midnightblue" d="M128.404,-46.5C136.774,-46.5 145.394,-46.5 153.871,-46.5"/>
<polygon fill="midnightblue" stroke="midnightblue" points="154.115,-50.0001 164.115,-46.5 154.115,-43.0001 154.115,-50.0001"/>
</g>
<!-- Node3 -->
<g id="node3" class="node"><title>Node3</title>
<g id="a_node3"><a xlink:href="group__mmu__cache__base.html#ga6c6114ab645a8f2c869cccc8ade643a1" target="_top" xlink:title="Instruction interface to functional part of the model. ">
<polygon fill="white" stroke="black" points="321.866,-74.5 321.866,-102.5 446.26,-102.5 446.26,-74.5 321.866,-74.5"/>
<text text-anchor="start" x="329.866" y="-90.5" font-family="Helvetica,sans-Serif" font-size="10.00">mmu_cache_base::exec</text>
<text text-anchor="middle" x="384.063" y="-80.5" font-family="Helvetica,sans-Serif" font-size="10.00">_instr</text>
</a>
</g>
</g>
<!-- Node2&#45;&gt;Node3 -->
<g id="edge2" class="edge"><title>Node2&#45;&gt;Node3</title>
<path fill="none" stroke="midnightblue" d="M259.746,-55.5101C277.558,-60.2751 299.999,-66.2788 320.84,-71.8541"/>
<polygon fill="midnightblue" stroke="midnightblue" points="320.032,-75.2609 330.597,-74.4642 321.841,-68.4987 320.032,-75.2609"/>
</g>
<!-- Node6 -->
<g id="node6" class="node"><title>Node6</title>
<g id="a_node6"><a xlink:href="cache_8c.html#a0a9e9396972b76c5947592479860020d" target="_top" xlink:title="flush">
<polygon fill="white" stroke="black" points="365.501,-37.5 365.501,-55.5 402.625,-55.5 402.625,-37.5 365.501,-37.5"/>
<text text-anchor="middle" x="384.063" y="-43.5" font-family="Helvetica,sans-Serif" font-size="10.00">flush</text>
</a>
</g>
</g>
<!-- Node2&#45;&gt;Node6 -->
<g id="edge5" class="edge"><title>Node2&#45;&gt;Node6</title>
<path fill="none" stroke="midnightblue" d="M285.868,-46.5C309.738,-46.5 336.058,-46.5 355.282,-46.5"/>
<polygon fill="midnightblue" stroke="midnightblue" points="355.439,-50.0001 365.439,-46.5 355.439,-43.0001 355.439,-50.0001"/>
</g>
<!-- Node7 -->
<g id="node7" class="node"><title>Node7</title>
<g id="a_node7"><a xlink:href="classcache__if.html#aed3a97268b017872594d189cd621c5c9" target="_top" xlink:title="flush cache ">
<polygon fill="white" stroke="black" points="344.1,-0.5 344.1,-18.5 424.026,-18.5 424.026,-0.5 344.1,-0.5"/>
<text text-anchor="middle" x="384.063" y="-6.5" font-family="Helvetica,sans-Serif" font-size="10.00">cache_if::flush</text>
</a>
</g>
</g>
<!-- Node2&#45;&gt;Node7 -->
<g id="edge6" class="edge"><title>Node2&#45;&gt;Node7</title>
<path fill="none" stroke="midnightblue" d="M264.472,-37.4488C285.743,-32.4356 312.384,-26.1571 335.024,-20.8215"/>
<polygon fill="midnightblue" stroke="midnightblue" points="335.851,-24.2225 344.782,-18.5218 334.246,-17.4091 335.851,-24.2225"/>
</g>
<!-- Node4 -->
<g id="node4" class="node"><title>Node4</title>
<g id="a_node4"><a xlink:href="group__mmu__cache.html#gab3016821c0179ce6b85559aa2cc074d3" target="_top" xlink:title="Read from scratchpad. ">
<polygon fill="white" stroke="black" points="482.26,-97.5 482.26,-115.5 589.402,-115.5 589.402,-97.5 482.26,-97.5"/>
<text text-anchor="middle" x="535.831" y="-103.5" font-family="Helvetica,sans-Serif" font-size="10.00">localram::mem_read</text>
</a>
</g>
</g>
<!-- Node3&#45;&gt;Node4 -->
<g id="edge3" class="edge"><title>Node3&#45;&gt;Node4</title>
<path fill="none" stroke="midnightblue" d="M446.412,-95.8732C454.796,-96.881 463.416,-97.9169 471.829,-98.9281"/>
<polygon fill="midnightblue" stroke="midnightblue" points="471.615,-102.427 481.961,-100.146 472.45,-95.4774 471.615,-102.427"/>
</g>
<!-- Node5 -->
<g id="node5" class="node"><title>Node5</title>
<g id="a_node5"><a xlink:href="classmem__if.html#aa4c431846b1d11708be4128f84295c6c" target="_top" xlink:title="mem_if::mem_read">
<polygon fill="white" stroke="black" points="484.762,-60.5 484.762,-78.5 586.9,-78.5 586.9,-60.5 484.762,-60.5"/>
<text text-anchor="middle" x="535.831" y="-66.5" font-family="Helvetica,sans-Serif" font-size="10.00">mem_if::mem_read</text>
</a>
</g>
</g>
<!-- Node3&#45;&gt;Node5 -->
<g id="edge4" class="edge"><title>Node3&#45;&gt;Node5</title>
<path fill="none" stroke="midnightblue" d="M446.412,-80.7172C455.568,-79.5556 465.003,-78.3586 474.145,-77.1987"/>
<polygon fill="midnightblue" stroke="midnightblue" points="474.832,-80.6397 484.312,-75.9089 473.951,-73.6954 474.832,-80.6397"/>
</g>
</g>
</svg>
