<?xml version="1.0" encoding="UTF-8" standalone="no"?>
<!DOCTYPE svg PUBLIC "-//W3C//DTD SVG 1.1//EN"
 "http://www.w3.org/Graphics/SVG/1.1/DTD/svg11.dtd">
<!-- Generated by graphviz version 2.38.0 (20140413.2041)
 -->
<!-- Title: sc_register_b::check_and_init Pages: 1 -->
<svg width="265pt" height="165pt"
 viewBox="0.00 0.00 265.00 165.00" xmlns="http://www.w3.org/2000/svg" xmlns:xlink="http://www.w3.org/1999/xlink">
<g id="graph0" class="graph" transform="scale(1 1) rotate(0) translate(4 161)">
<title>sc_register_b::check_and_init</title>
<polygon fill="white" stroke="none" points="-4,4 -4,-161 261,-161 261,4 -4,4"/>
<!-- Node1 -->
<g id="node1" class="node"><title>Node1</title>
<polygon fill="#bfbfbf" stroke="black" points="0,-63 0,-93 107,-93 107,-63 0,-63"/>
<text text-anchor="start" x="8" y="-81" font-family="Helvetica,sans-Serif" font-size="10.00">sc_register_b::check</text>
<text text-anchor="middle" x="53.5" y="-70" font-family="Helvetica,sans-Serif" font-size="10.00">_and_init</text>
</g>
<!-- Node2 -->
<g id="node2" class="node"><title>Node2</title>
<g id="a_node2"><a xlink:href="namespacecore_1_1waf_1_1cmake.html#a2cc9c2d5713380ebb07751a69eeb9bc6" target="_top" xlink:title="core.waf.cmake.f">
<polygon fill="white" stroke="black" points="154,-137.5 154,-156.5 246,-156.5 246,-137.5 154,-137.5"/>
<text text-anchor="middle" x="200" y="-144.5" font-family="Helvetica,sans-Serif" font-size="10.00">core.waf.cmake.f</text>
</a>
</g>
</g>
<!-- Node1&#45;&gt;Node2 -->
<g id="edge1" class="edge"><title>Node1&#45;&gt;Node2</title>
<path fill="none" stroke="midnightblue" d="M78.2817,-93.0528C95.7464,-103.702 120.287,-117.838 143,-128 147.74,-130.121 152.793,-132.145 157.85,-134.028"/>
<polygon fill="midnightblue" stroke="midnightblue" points="156.905,-137.407 167.499,-137.464 159.253,-130.812 156.905,-137.407"/>
</g>
<!-- Node3 -->
<g id="node3" class="node"><title>Node3</title>
<g id="a_node3"><a xlink:href="group__sr__register.html#ga94ca62925c27ba39cbd807593656ea4e" target="_top" xlink:title="sc_register_field_base\l::high_pos">
<polygon fill="white" stroke="black" points="143,-88 143,-118 257,-118 257,-88 143,-88"/>
<text text-anchor="start" x="151" y="-106" font-family="Helvetica,sans-Serif" font-size="10.00">sc_register_field_base</text>
<text text-anchor="middle" x="200" y="-95" font-family="Helvetica,sans-Serif" font-size="10.00">::high_pos</text>
</a>
</g>
</g>
<!-- Node1&#45;&gt;Node3 -->
<g id="edge2" class="edge"><title>Node1&#45;&gt;Node3</title>
<path fill="none" stroke="midnightblue" d="M107.077,-87.0963C115.429,-88.5413 124.16,-90.0519 132.777,-91.5427"/>
<polygon fill="midnightblue" stroke="midnightblue" points="132.359,-95.0223 142.809,-93.2784 133.552,-88.1248 132.359,-95.0223"/>
</g>
<!-- Node4 -->
<g id="node4" class="node"><title>Node4</title>
<g id="a_node4"><a xlink:href="group__sr__register.html#ga854b20074d217466c5bf4f10653cff5e" target="_top" xlink:title="sc_register_field_base\l::low_pos">
<polygon fill="white" stroke="black" points="143,-39 143,-69 257,-69 257,-39 143,-39"/>
<text text-anchor="start" x="151" y="-57" font-family="Helvetica,sans-Serif" font-size="10.00">sc_register_field_base</text>
<text text-anchor="middle" x="200" y="-46" font-family="Helvetica,sans-Serif" font-size="10.00">::low_pos</text>
</a>
</g>
</g>
<!-- Node1&#45;&gt;Node4 -->
<g id="edge3" class="edge"><title>Node1&#45;&gt;Node4</title>
<path fill="none" stroke="midnightblue" d="M107.077,-69.2676C115.429,-67.8804 124.16,-66.4301 132.777,-64.999"/>
<polygon fill="midnightblue" stroke="midnightblue" points="133.518,-68.4239 142.809,-63.3327 132.371,-61.5185 133.518,-68.4239"/>
</g>
<!-- Node5 -->
<g id="node5" class="node"><title>Node5</title>
<g id="a_node5"><a xlink:href="namespacepysc_1_1api_1_1cci.html#a0705f2a070a90f015980217dc011261a" target="_top" xlink:title="pysc::api::cci::write">
<polygon fill="white" stroke="black" points="149,-0.5 149,-19.5 251,-19.5 251,-0.5 149,-0.5"/>
<text text-anchor="middle" x="200" y="-7.5" font-family="Helvetica,sans-Serif" font-size="10.00">pysc::api::cci::write</text>
</a>
</g>
</g>
<!-- Node1&#45;&gt;Node5 -->
<g id="edge4" class="edge"><title>Node1&#45;&gt;Node5</title>
<path fill="none" stroke="midnightblue" d="M79.9169,-62.8566C97.3266,-52.8245 121.135,-39.7642 143,-30 148.435,-27.5729 154.262,-25.2246 160.03,-23.0427"/>
<polygon fill="midnightblue" stroke="midnightblue" points="161.409,-26.2649 169.599,-19.5433 159.005,-19.6907 161.409,-26.2649"/>
</g>
</g>
</svg>
