<?xml version="1.0" encoding="UTF-8" standalone="no"?>
<!DOCTYPE svg PUBLIC "-//W3C//DTD SVG 1.1//EN"
 "http://www.w3.org/Graphics/SVG/1.1/DTD/svg11.dtd">
<!-- Generated by graphviz version 2.26.0 (20091210.2329)
 -->
<!-- Title: leon3_mmu_cache::leon3_mmu_cache Pages: 1 -->
<svg width="438pt" height="212pt"
 viewBox="0.00 0.00 438.00 212.00" xmlns="http://www.w3.org/2000/svg" xmlns:xlink="http://www.w3.org/1999/xlink">
<g id="graph1" class="graph" transform="scale(1 1) rotate(0) translate(4 208)">
<title>leon3_mmu_cache::leon3_mmu_cache</title>
<polygon fill="white" stroke="white" points="-4,5 -4,-208 435,-208 435,5 -4,5"/>
<!-- Node1 -->
<g id="node1" class="node"><title>Node1</title>
<polygon fill="#bfbfbf" stroke="black" points="0,-85 0,-119 128,-119 128,-85 0,-85"/>
<text text-anchor="start" x="8" y="-106" font-family="Helvetica,sans-Serif" font-size="10.00">leon3_mmu_cache::leon3</text>
<text text-anchor="middle" x="64" y="-93" font-family="Helvetica,sans-Serif" font-size="10.00">_mmu_cache</text>
</g>
<!-- Node2 -->
<g id="node3" class="node"><title>Node2</title>
<a xlink:href="group__mmu__cache.html#ga5e8cc1397095f44f07e0866e6d2a5b6b" target="_top" xlink:title="leon3_mmu_cache::g\l_args_callback">
<polygon fill="white" stroke="black" points="164,-163 164,-197 274,-197 274,-163 164,-163"/>
<text text-anchor="start" x="172" y="-184" font-family="Helvetica,sans-Serif" font-size="10.00">leon3_mmu_cache::g</text>
<text text-anchor="middle" x="219" y="-171" font-family="Helvetica,sans-Serif" font-size="10.00">_args_callback</text>
</a>
</g>
<!-- Node1&#45;&gt;Node2 -->
<g id="edge2" class="edge"><title>Node1&#45;&gt;Node2</title>
<path fill="none" stroke="midnightblue" d="M96.2672,-119.174C115.781,-129.461 141.212,-142.694 164,-154 167.073,-155.525 170.252,-157.081 173.461,-158.637"/>
<polygon fill="midnightblue" stroke="midnightblue" points="171.988,-161.812 182.517,-162.991 175.021,-155.504 171.988,-161.812"/>
</g>
<!-- Node4 -->
<g id="node7" class="node"><title>Node4</title>
<a xlink:href="group__mmu__cache.html#ga2592c042d87816870b96feb07571ae5b" target="_top" xlink:title="leon3_mmu_cache::g\l_gdb_callback">
<polygon fill="white" stroke="black" points="164,-111 164,-145 274,-145 274,-111 164,-111"/>
<text text-anchor="start" x="172" y="-132" font-family="Helvetica,sans-Serif" font-size="10.00">leon3_mmu_cache::g</text>
<text text-anchor="middle" x="219" y="-119" font-family="Helvetica,sans-Serif" font-size="10.00">_gdb_callback</text>
</a>
</g>
<!-- Node1&#45;&gt;Node4 -->
<g id="edge6" class="edge"><title>Node1&#45;&gt;Node4</title>
<path fill="none" stroke="midnightblue" d="M128.387,-112.8C136.784,-114.209 145.393,-115.653 153.803,-117.064"/>
<polygon fill="midnightblue" stroke="midnightblue" points="153.494,-120.561 163.935,-118.763 154.652,-113.657 153.494,-120.561"/>
</g>
<!-- Node6 -->
<g id="node11" class="node"><title>Node6</title>
<a xlink:href="group__mmu__cache.html#ga1cf8048fa9802b64a9dd84bfbb998c32" target="_top" xlink:title="leon3_mmu_cache::g\l_history_callback">
<polygon fill="white" stroke="black" points="164,-7 164,-41 274,-41 274,-7 164,-7"/>
<text text-anchor="start" x="172" y="-28" font-family="Helvetica,sans-Serif" font-size="10.00">leon3_mmu_cache::g</text>
<text text-anchor="middle" x="219" y="-15" font-family="Helvetica,sans-Serif" font-size="10.00">_history_callback</text>
</a>
</g>
<!-- Node1&#45;&gt;Node6 -->
<g id="edge10" class="edge"><title>Node1&#45;&gt;Node6</title>
<path fill="none" stroke="midnightblue" d="M96.2672,-84.8259C115.781,-74.5388 141.212,-61.306 164,-50 167.073,-48.4751 170.252,-46.9186 173.461,-45.363"/>
<polygon fill="midnightblue" stroke="midnightblue" points="175.021,-48.4964 182.517,-41.0086 171.988,-42.1877 175.021,-48.4964"/>
</g>
<!-- Node8 -->
<g id="node15" class="node"><title>Node8</title>
<a xlink:href="group__mmu__cache.html#ga3231a3ecc4851bebc666d29e1eeebf9a" target="_top" xlink:title="leon3_mmu_cache::g\l_osemu_callback">
<polygon fill="white" stroke="black" points="164,-59 164,-93 274,-93 274,-59 164,-59"/>
<text text-anchor="start" x="172" y="-80" font-family="Helvetica,sans-Serif" font-size="10.00">leon3_mmu_cache::g</text>
<text text-anchor="middle" x="219" y="-67" font-family="Helvetica,sans-Serif" font-size="10.00">_osemu_callback</text>
</a>
</g>
<!-- Node1&#45;&gt;Node8 -->
<g id="edge14" class="edge"><title>Node1&#45;&gt;Node8</title>
<path fill="none" stroke="midnightblue" d="M128.387,-91.1995C136.784,-89.791 145.393,-88.347 153.803,-86.9363"/>
<polygon fill="midnightblue" stroke="midnightblue" points="154.652,-90.3429 163.935,-85.2367 153.494,-83.4393 154.652,-90.3429"/>
</g>
<!-- Node3 -->
<g id="node5" class="node"><title>Node3</title>
<a xlink:href="classgs_1_1cnf_1_1gs__config_3_01std_1_1vector_3_01std_1_1string_01_4_01_4.html#a8abd33e8eeacdd68d64c8d0f6fd6ef9c" target="_top" xlink:title="gs::cnf::gs_config\l\&lt; std::vector\&lt; std::\lstring \&gt; \&gt;::size">
<polygon fill="white" stroke="black" points="319.5,-156.5 319.5,-203.5 420.5,-203.5 420.5,-156.5 319.5,-156.5"/>
<text text-anchor="start" x="327.5" y="-190.5" font-family="Helvetica,sans-Serif" font-size="10.00">gs::cnf::gs_config</text>
<text text-anchor="start" x="327.5" y="-177.5" font-family="Helvetica,sans-Serif" font-size="10.00">&lt; std::vector&lt; std::</text>
<text text-anchor="middle" x="370" y="-164.5" font-family="Helvetica,sans-Serif" font-size="10.00">string &gt; &gt;::size</text>
</a>
</g>
<!-- Node2&#45;&gt;Node3 -->
<g id="edge4" class="edge"><title>Node2&#45;&gt;Node3</title>
<path fill="none" stroke="midnightblue" d="M274.369,-180C285.583,-180 297.435,-180 308.834,-180"/>
<polygon fill="midnightblue" stroke="midnightblue" points="309.145,-183.5 319.145,-180 309.145,-176.5 309.145,-183.5"/>
</g>
<!-- Node5 -->
<g id="node9" class="node"><title>Node5</title>
<a xlink:href="classtrap_1_1ToolsManager.html#ae5454c48f202c7641c8996df8055ccac" target="_top" xlink:title="trap::ToolsManager\l::addTool">
<polygon fill="white" stroke="black" points="319.5,-85 319.5,-119 420.5,-119 420.5,-85 319.5,-85"/>
<text text-anchor="start" x="327.5" y="-106" font-family="Helvetica,sans-Serif" font-size="10.00">trap::ToolsManager</text>
<text text-anchor="middle" x="370" y="-93" font-family="Helvetica,sans-Serif" font-size="10.00">::addTool</text>
</a>
</g>
<!-- Node4&#45;&gt;Node5 -->
<g id="edge8" class="edge"><title>Node4&#45;&gt;Node5</title>
<path fill="none" stroke="midnightblue" d="M274.369,-118.466C285.697,-116.516 297.677,-114.453 309.183,-112.472"/>
<polygon fill="midnightblue" stroke="midnightblue" points="309.884,-115.903 319.145,-110.757 308.696,-109.004 309.884,-115.903"/>
</g>
<!-- Node7 -->
<g id="node13" class="node"><title>Node7</title>
<a xlink:href="classleon3__funclt__trap_1_1Processor__leon3__funclt.html#af711664ec75d2e36065a4a9edd4b5b8e" target="_top" xlink:title="leon3_funclt_trap::\lProcessor_leon3_funclt\l::enableHistory">
<polygon fill="white" stroke="black" points="310.5,-0.5 310.5,-47.5 429.5,-47.5 429.5,-0.5 310.5,-0.5"/>
<text text-anchor="start" x="318.5" y="-34.5" font-family="Helvetica,sans-Serif" font-size="10.00">leon3_funclt_trap::</text>
<text text-anchor="start" x="318.5" y="-21.5" font-family="Helvetica,sans-Serif" font-size="10.00">Processor_leon3_funclt</text>
<text text-anchor="middle" x="370" y="-8.5" font-family="Helvetica,sans-Serif" font-size="10.00">::enableHistory</text>
</a>
</g>
<!-- Node6&#45;&gt;Node7 -->
<g id="edge12" class="edge"><title>Node6&#45;&gt;Node7</title>
<path fill="none" stroke="midnightblue" d="M274.369,-24C282.779,-24 291.547,-24 300.215,-24"/>
<polygon fill="midnightblue" stroke="midnightblue" points="300.316,-27.5001 310.316,-24 300.316,-20.5001 300.316,-27.5001"/>
</g>
<!-- Node8&#45;&gt;Node5 -->
<g id="edge16" class="edge"><title>Node8&#45;&gt;Node5</title>
<path fill="none" stroke="midnightblue" d="M274.369,-85.5338C285.697,-87.4842 297.677,-89.547 309.183,-91.5282"/>
<polygon fill="midnightblue" stroke="midnightblue" points="308.696,-94.9957 319.145,-93.2435 309.884,-88.0972 308.696,-94.9957"/>
</g>
</g>
</svg>
