<?xml version="1.0" encoding="UTF-8" standalone="no"?>
<!DOCTYPE svg PUBLIC "-//W3C//DTD SVG 1.1//EN"
 "http://www.w3.org/Graphics/SVG/1.1/DTD/svg11.dtd">
<!-- Generated by graphviz version 2.38.0 (20140413.2041)
 -->
<!-- Title: mmu_cache_base::mmu_cache_base Pages: 1 -->
<svg width="463pt" height="252pt"
 viewBox="0.00 0.00 463.15 252.00" xmlns="http://www.w3.org/2000/svg" xmlns:xlink="http://www.w3.org/1999/xlink">
<g id="graph0" class="graph" transform="scale(1 1) rotate(0) translate(4 248)">
<title>mmu_cache_base::mmu_cache_base</title>
<polygon fill="white" stroke="none" points="-4,4 -4,-248 459.151,-248 459.151,4 -4,4"/>
<!-- Node1 -->
<g id="node1" class="node"><title>Node1</title>
<polygon fill="#bfbfbf" stroke="black" points="0,-117.5 0,-145.5 125.492,-145.5 125.492,-117.5 0,-117.5"/>
<text text-anchor="start" x="8" y="-133.5" font-family="Helvetica,sans-Serif" font-size="10.00">mmu_cache_base::mmu</text>
<text text-anchor="middle" x="62.7461" y="-123.5" font-family="Helvetica,sans-Serif" font-size="10.00">_cache_base</text>
</g>
<!-- Node2 -->
<g id="node2" class="node"><title>Node2</title>
<g id="a_node2"><a xlink:href="group__mmu__cache.html#ga717317f634e308b22000e89a53a2933e" target="_top" xlink:title="Return pointer to tlb data interface. ">
<polygon fill="white" stroke="black" points="179.275,-225.5 179.275,-243.5 269.201,-243.5 269.201,-225.5 179.275,-225.5"/>
<text text-anchor="middle" x="224.238" y="-231.5" font-family="Helvetica,sans-Serif" font-size="10.00">mmu::get_dtlb_if</text>
</a>
</g>
</g>
<!-- Node1&#45;&gt;Node2 -->
<g id="edge1" class="edge"><title>Node1&#45;&gt;Node2</title>
<path fill="none" stroke="midnightblue" d="M76.2389,-145.658C93.5792,-164.471 126.752,-197.534 161.492,-216.5 165.186,-218.516 169.13,-220.329 173.171,-221.955"/>
<polygon fill="midnightblue" stroke="midnightblue" points="172.11,-225.293 182.704,-225.415 174.498,-218.713 172.11,-225.293"/>
</g>
<!-- Node3 -->
<g id="node3" class="node"><title>Node3</title>
<g id="a_node3"><a xlink:href="group__mmu__cache.html#gaceec7aa8e9da0891caf0936b7540a667" target="_top" xlink:title="Return pointer to tlb instruction interface. ">
<polygon fill="white" stroke="black" points="180.945,-188.5 180.945,-206.5 267.531,-206.5 267.531,-188.5 180.945,-188.5"/>
<text text-anchor="middle" x="224.238" y="-194.5" font-family="Helvetica,sans-Serif" font-size="10.00">mmu::get_itlb_if</text>
</a>
</g>
</g>
<!-- Node1&#45;&gt;Node3 -->
<g id="edge2" class="edge"><title>Node1&#45;&gt;Node3</title>
<path fill="none" stroke="midnightblue" d="M89.3349,-145.585C108.742,-155.891 136.287,-169.722 161.492,-179.5 166.961,-181.621 172.785,-183.63 178.589,-185.483"/>
<polygon fill="midnightblue" stroke="midnightblue" points="177.683,-188.866 188.27,-188.447 179.732,-182.173 177.683,-188.866"/>
</g>
<!-- Node4 -->
<g id="node4" class="node"><title>Node4</title>
<g id="a_node4"><a xlink:href="group__mmu__cache__base.html#ga90ece1f7e46db3660fe534f6dc7b692e" target="_top" xlink:title="Dynamic/Internal power callback. ">
<polygon fill="white" stroke="black" points="167.322,-141.5 167.322,-169.5 281.154,-169.5 281.154,-141.5 167.322,-141.5"/>
<text text-anchor="start" x="175.322" y="-157.5" font-family="Helvetica,sans-Serif" font-size="10.00">mmu_cache_base::int</text>
<text text-anchor="middle" x="224.238" y="-147.5" font-family="Helvetica,sans-Serif" font-size="10.00">_power_cb</text>
</a>
</g>
</g>
<!-- Node1&#45;&gt;Node4 -->
<g id="edge3" class="edge"><title>Node1&#45;&gt;Node4</title>
<path fill="none" stroke="midnightblue" d="M125.867,-140.848C136.1,-142.388 146.741,-143.989 157.07,-145.543"/>
<polygon fill="midnightblue" stroke="midnightblue" points="156.857,-149.05 167.267,-147.078 157.899,-142.128 156.857,-149.05"/>
</g>
<!-- Node5 -->
<g id="node5" class="node"><title>Node5</title>
<g id="a_node5"><a xlink:href="group__mmu__cache__base.html#gafdd483a589f5812e4feb6f53774dbdab" target="_top" xlink:title="mmu_cache_base::mem\l_access">
<polygon fill="white" stroke="black" points="161.492,-94.5 161.492,-122.5 286.984,-122.5 286.984,-94.5 161.492,-94.5"/>
<text text-anchor="start" x="169.492" y="-110.5" font-family="Helvetica,sans-Serif" font-size="10.00">mmu_cache_base::mem</text>
<text text-anchor="middle" x="224.238" y="-100.5" font-family="Helvetica,sans-Serif" font-size="10.00">_access</text>
</a>
</g>
</g>
<!-- Node1&#45;&gt;Node5 -->
<g id="edge4" class="edge"><title>Node1&#45;&gt;Node5</title>
<path fill="none" stroke="midnightblue" d="M125.867,-122.542C134.228,-121.336 142.861,-120.091 151.374,-118.863"/>
<polygon fill="midnightblue" stroke="midnightblue" points="151.889,-122.325 161.287,-117.434 150.89,-115.397 151.889,-122.325"/>
</g>
<!-- Node7 -->
<g id="node7" class="node"><title>Node7</title>
<g id="a_node7"><a xlink:href="group__mmu__cache__base.html#ga0758ff64a57207edb0aea3963537609e" target="_top" xlink:title="Static power callback. ">
<polygon fill="white" stroke="black" points="165.933,-47.5 165.933,-75.5 282.543,-75.5 282.543,-47.5 165.933,-47.5"/>
<text text-anchor="start" x="173.933" y="-63.5" font-family="Helvetica,sans-Serif" font-size="10.00">mmu_cache_base::sta</text>
<text text-anchor="middle" x="224.238" y="-53.5" font-family="Helvetica,sans-Serif" font-size="10.00">_power_cb</text>
</a>
</g>
</g>
<!-- Node1&#45;&gt;Node7 -->
<g id="edge6" class="edge"><title>Node1&#45;&gt;Node7</title>
<path fill="none" stroke="midnightblue" d="M92.1662,-117.489C111.546,-108.093 137.879,-95.6309 161.492,-85.5 166.258,-83.4551 171.261,-81.386 176.27,-79.3646"/>
<polygon fill="midnightblue" stroke="midnightblue" points="177.849,-82.5033 185.847,-75.555 175.261,-75.999 177.849,-82.5033"/>
</g>
<!-- Node8 -->
<g id="node8" class="node"><title>Node8</title>
<g id="a_node8"><a xlink:href="group__mmu__cache__base.html#ga749d383dc04c8c2ef762e1f9ab85e06e" target="_top" xlink:title="Dynamic/Switching power callback. ">
<polygon fill="white" stroke="black" points="165.381,-0.5 165.381,-28.5 283.095,-28.5 283.095,-0.5 165.381,-0.5"/>
<text text-anchor="start" x="173.381" y="-16.5" font-family="Helvetica,sans-Serif" font-size="10.00">mmu_cache_base::swi</text>
<text text-anchor="middle" x="224.238" y="-6.5" font-family="Helvetica,sans-Serif" font-size="10.00">_power_cb</text>
</a>
</g>
</g>
<!-- Node1&#45;&gt;Node8 -->
<g id="edge7" class="edge"><title>Node1&#45;&gt;Node8</title>
<path fill="none" stroke="midnightblue" d="M75.3482,-117.419C92.4093,-97.486 126.094,-60.9709 161.492,-38.5 164.639,-36.5025 167.978,-34.6262 171.411,-32.8723"/>
<polygon fill="midnightblue" stroke="midnightblue" points="173.097,-35.9472 180.649,-28.5166 170.111,-29.6157 173.097,-35.9472"/>
</g>
<!-- Node6 -->
<g id="node6" class="node"><title>Node6</title>
<g id="a_node6"><a xlink:href="classAHBMaster.html#aeeab73b80ddc8351609ce6d698351e96" target="_top" xlink:title="Generic AHB access function (blocking and non&#45;blocking) ">
<polygon fill="white" stroke="black" points="322.984,-99.5 322.984,-117.5 455.151,-117.5 455.151,-99.5 322.984,-99.5"/>
<text text-anchor="middle" x="389.068" y="-105.5" font-family="Helvetica,sans-Serif" font-size="10.00">AHBMaster&lt;&gt;::ahbaccess</text>
</a>
</g>
</g>
<!-- Node5&#45;&gt;Node6 -->
<g id="edge5" class="edge"><title>Node5&#45;&gt;Node6</title>
<path fill="none" stroke="midnightblue" d="M287.262,-108.5C295.659,-108.5 304.349,-108.5 312.945,-108.5"/>
<polygon fill="midnightblue" stroke="midnightblue" points="312.969,-112 322.969,-108.5 312.969,-105 312.969,-112"/>
</g>
</g>
</svg>
