<?xml version="1.0" encoding="UTF-8" standalone="no"?>
<!DOCTYPE svg PUBLIC "-//W3C//DTD SVG 1.1//EN"
 "http://www.w3.org/Graphics/SVG/1.1/DTD/svg11.dtd">
<!-- Generated by graphviz version 2.26.0 (20091210.2329)
 -->
<!-- Title: mmu_cache_base::write_ccr Pages: 1 -->
<svg width="278pt" height="70pt"
 viewBox="0.00 0.00 278.00 70.00" xmlns="http://www.w3.org/2000/svg" xmlns:xlink="http://www.w3.org/1999/xlink">
<g id="graph1" class="graph" transform="scale(1 1) rotate(0) translate(4 66)">
<title>mmu_cache_base::write_ccr</title>
<polygon fill="white" stroke="white" points="-4,5 -4,-66 275,-66 275,5 -4,5"/>
<!-- Node1 -->
<g id="node1" class="node"><title>Node1</title>
<polygon fill="#bfbfbf" stroke="black" points="0,-20.5 0,-41.5 142,-41.5 142,-20.5 0,-20.5"/>
<text text-anchor="middle" x="71" y="-28.5" font-family="Helvetica,sans-Serif" font-size="10.00">mmu_cache_base::write_ccr</text>
</g>
<!-- Node2 -->
<g id="node3" class="node"><title>Node2</title>
<a xlink:href="classcache__if.html#aed3a97268b017872594d189cd621c5c9" target="_top" xlink:title="flush cache ">
<polygon fill="white" stroke="black" points="184,-40.5 184,-61.5 264,-61.5 264,-40.5 184,-40.5"/>
<text text-anchor="middle" x="224" y="-48.5" font-family="Helvetica,sans-Serif" font-size="10.00">cache_if::flush</text>
</a>
</g>
<!-- Node1&#45;&gt;Node2 -->
<g id="edge2" class="edge"><title>Node1&#45;&gt;Node2</title>
<path fill="none" stroke="midnightblue" d="M142.125,-40.2974C152.894,-41.7051 163.806,-43.1315 174.001,-44.4642"/>
<polygon fill="midnightblue" stroke="midnightblue" points="173.557,-47.9358 183.926,-45.7616 174.464,-40.9948 173.557,-47.9358"/>
</g>
<!-- Node3 -->
<g id="node5" class="node"><title>Node3</title>
<a xlink:href="group__common.html#ga2e70f90e04ee467d36debee5245ead91" target="_top" xlink:title="swap_Endianess">
<polygon fill="white" stroke="black" points="178.5,-0.5 178.5,-21.5 269.5,-21.5 269.5,-0.5 178.5,-0.5"/>
<text text-anchor="middle" x="224" y="-8.5" font-family="Helvetica,sans-Serif" font-size="10.00">swap_Endianess</text>
</a>
</g>
<!-- Node1&#45;&gt;Node3 -->
<g id="edge4" class="edge"><title>Node1&#45;&gt;Node3</title>
<path fill="none" stroke="midnightblue" d="M142.125,-21.7026C150.891,-20.5568 159.751,-19.3985 168.243,-18.2885"/>
<polygon fill="midnightblue" stroke="midnightblue" points="168.924,-21.7293 178.386,-16.9626 168.017,-14.7883 168.924,-21.7293"/>
</g>
</g>
</svg>
