<?xml version="1.0" encoding="UTF-8" standalone="no"?>
<!DOCTYPE svg PUBLIC "-//W3C//DTD SVG 1.1//EN"
 "http://www.w3.org/Graphics/SVG/1.1/DTD/svg11.dtd">
<!-- Generated by graphviz version 2.38.0 (20140413.2041)
 -->
<!-- Title: PythonModule::add_to_pythonpath Pages: 1 -->
<svg width="277pt" height="88pt"
 viewBox="0.00 0.00 277.00 88.00" xmlns="http://www.w3.org/2000/svg" xmlns:xlink="http://www.w3.org/1999/xlink">
<g id="graph0" class="graph" transform="scale(1 1) rotate(0) translate(4 84)">
<title>PythonModule::add_to_pythonpath</title>
<polygon fill="white" stroke="none" points="-4,4 -4,-84 273,-84 273,4 -4,4"/>
<!-- Node1 -->
<g id="node1" class="node"><title>Node1</title>
<polygon fill="#bfbfbf" stroke="black" points="0,-24.5 0,-54.5 114,-54.5 114,-24.5 0,-24.5"/>
<text text-anchor="start" x="8" y="-42.5" font-family="Helvetica,sans-Serif" font-size="10.00">PythonModule::add_to</text>
<text text-anchor="middle" x="57" y="-31.5" font-family="Helvetica,sans-Serif" font-size="10.00">_pythonpath</text>
</g>
<!-- Node2 -->
<g id="node2" class="node"><title>Node2</title>
<g id="a_node2"><a xlink:href="group__pysc.html#ga658e9d4b7a220eefb2c9cfa744b3451a" target="_top" xlink:title="PythonModule::block\l_threads">
<polygon fill="white" stroke="black" points="155.5,-49.5 155.5,-79.5 263.5,-79.5 263.5,-49.5 155.5,-49.5"/>
<text text-anchor="start" x="163.5" y="-67.5" font-family="Helvetica,sans-Serif" font-size="10.00">PythonModule::block</text>
<text text-anchor="middle" x="209.5" y="-56.5" font-family="Helvetica,sans-Serif" font-size="10.00">_threads</text>
</a>
</g>
</g>
<!-- Node1&#45;&gt;Node2 -->
<g id="edge1" class="edge"><title>Node1&#45;&gt;Node2</title>
<path fill="none" stroke="midnightblue" d="M114.041,-48.8091C124.301,-50.5134 135.071,-52.3025 145.517,-54.0378"/>
<polygon fill="midnightblue" stroke="midnightblue" points="144.968,-57.4944 155.406,-55.6804 146.115,-50.589 144.968,-57.4944"/>
</g>
<!-- Node3 -->
<g id="node3" class="node"><title>Node3</title>
<g id="a_node3"><a xlink:href="group__pysc.html#gaa90e2ceae31dc619f83e9d0f91986219" target="_top" xlink:title="Unblock our singleton thread. ">
<polygon fill="white" stroke="black" points="150,-0.5 150,-30.5 269,-30.5 269,-0.5 150,-0.5"/>
<text text-anchor="start" x="158" y="-18.5" font-family="Helvetica,sans-Serif" font-size="10.00">PythonModule::unblock</text>
<text text-anchor="middle" x="209.5" y="-7.5" font-family="Helvetica,sans-Serif" font-size="10.00">_threads</text>
</a>
</g>
</g>
<!-- Node1&#45;&gt;Node3 -->
<g id="edge2" class="edge"><title>Node1&#45;&gt;Node3</title>
<path fill="none" stroke="midnightblue" d="M114.041,-30.5633C122.45,-29.2222 131.203,-27.8265 139.839,-26.4493"/>
<polygon fill="midnightblue" stroke="midnightblue" points="140.571,-29.8768 149.895,-24.8456 139.469,-22.9641 140.571,-29.8768"/>
</g>
</g>
</svg>
