<?xml version="1.0" encoding="UTF-8" standalone="no"?>
<!DOCTYPE svg PUBLIC "-//W3C//DTD SVG 1.1//EN"
 "http://www.w3.org/Graphics/SVG/1.1/DTD/svg11.dtd">
<!-- Generated by graphviz version 2.38.0 (20140413.2041)
 -->
<!-- Title: Irqmp::end_of_elaboration Pages: 1 -->
<svg width="470pt" height="251pt"
 viewBox="0.00 0.00 470.35 251.00" xmlns="http://www.w3.org/2000/svg" xmlns:xlink="http://www.w3.org/1999/xlink">
<g id="graph0" class="graph" transform="scale(1 1) rotate(0) translate(4 247)">
<title>Irqmp::end_of_elaboration</title>
<polygon fill="white" stroke="none" points="-4,4 -4,-247 466.354,-247 466.354,4 -4,4"/>
<!-- Node1 -->
<g id="node1" class="node"><title>Node1</title>
<polygon fill="#bfbfbf" stroke="black" points="0,-111.5 0,-129.5 132.748,-129.5 132.748,-111.5 0,-111.5"/>
<text text-anchor="middle" x="66.374" y="-117.5" font-family="Helvetica,sans-Serif" font-size="10.00">Irqmp::end_of_elaboration</text>
</g>
<!-- Node2 -->
<g id="node2" class="node"><title>Node2</title>
<g id="a_node2"><a xlink:href="group__irqmp.html#gae65688b220e70ab25c8dbe65061bdab9" target="_top" xlink:title="Irqmp::clear_write">
<polygon fill="white" stroke="black" points="183.75,-224.5 183.75,-242.5 279.218,-242.5 279.218,-224.5 183.75,-224.5"/>
<text text-anchor="middle" x="231.484" y="-230.5" font-family="Helvetica,sans-Serif" font-size="10.00">Irqmp::clear_write</text>
</a>
</g>
</g>
<!-- Node1&#45;&gt;Node2 -->
<g id="edge1" class="edge"><title>Node1&#45;&gt;Node2</title>
<path fill="none" stroke="midnightblue" d="M74.4687,-129.561C89.6914,-148.392 127.473,-191.959 168.748,-215.5 172.195,-217.466 175.876,-219.233 179.658,-220.819"/>
<polygon fill="midnightblue" stroke="midnightblue" points="178.602,-224.161 189.194,-224.396 181.06,-217.607 178.602,-224.161"/>
</g>
<!-- Node4 -->
<g id="node4" class="node"><title>Node4</title>
<g id="a_node4"><a xlink:href="group__irqmp.html#gaf176d36908bcfd7e37ef6755eed1b8bc" target="_top" xlink:title="Irqmp::force_write">
<polygon fill="white" stroke="black" points="183.472,-187.5 183.472,-205.5 279.497,-205.5 279.497,-187.5 183.472,-187.5"/>
<text text-anchor="middle" x="231.484" y="-193.5" font-family="Helvetica,sans-Serif" font-size="10.00">Irqmp::force_write</text>
</a>
</g>
</g>
<!-- Node1&#45;&gt;Node4 -->
<g id="edge3" class="edge"><title>Node1&#45;&gt;Node4</title>
<path fill="none" stroke="midnightblue" d="M83.976,-129.687C103.845,-140.524 138.257,-158.797 168.748,-172.5 177.529,-176.446 187.17,-180.378 196.168,-183.883"/>
<polygon fill="midnightblue" stroke="midnightblue" points="195.019,-187.191 205.609,-187.499 197.523,-180.654 195.019,-187.191"/>
</g>
<!-- Node5 -->
<g id="node5" class="node"><title>Node5</title>
<g id="a_node5"><a xlink:href="classIrqmp.html#ad006143a3ddef1eb7f1ff51f04b357e2" target="_top" xlink:title="Irqmp::PROC_IR_FORCE">
<polygon fill="white" stroke="black" points="330.221,-168.5 330.221,-186.5 462.354,-186.5 462.354,-168.5 330.221,-168.5"/>
<text text-anchor="middle" x="396.287" y="-174.5" font-family="Helvetica,sans-Serif" font-size="10.00">Irqmp::PROC_IR_FORCE</text>
</a>
</g>
</g>
<!-- Node1&#45;&gt;Node5 -->
<g id="edge9" class="edge"><title>Node1&#45;&gt;Node5</title>
<path fill="none" stroke="midnightblue" d="M114.532,-129.532C131.599,-132.75 151.03,-136.354 168.748,-139.5 222.774,-149.093 284.167,-159.352 329.402,-166.789"/>
<polygon fill="midnightblue" stroke="midnightblue" points="328.942,-170.26 339.377,-168.426 330.076,-163.353 328.942,-170.26"/>
</g>
<!-- Node6 -->
<g id="node6" class="node"><title>Node6</title>
<g id="a_node6"><a xlink:href="group__irqmp.html#ga29c5c6cc6b5d6c692c57452807fc5d9a" target="_top" xlink:title="Prepare reading of the MP status register. ">
<polygon fill="white" stroke="black" points="180.132,-111.5 180.132,-129.5 282.836,-129.5 282.836,-111.5 180.132,-111.5"/>
<text text-anchor="middle" x="231.484" y="-117.5" font-family="Helvetica,sans-Serif" font-size="10.00">Irqmp::mpstat_read</text>
</a>
</g>
</g>
<!-- Node1&#45;&gt;Node6 -->
<g id="edge6" class="edge"><title>Node1&#45;&gt;Node6</title>
<path fill="none" stroke="midnightblue" d="M132.777,-120.5C144.911,-120.5 157.541,-120.5 169.535,-120.5"/>
<polygon fill="midnightblue" stroke="midnightblue" points="169.883,-124 179.883,-120.5 169.883,-117 169.883,-124"/>
</g>
<!-- Node7 -->
<g id="node7" class="node"><title>Node7</title>
<g id="a_node7"><a xlink:href="group__irqmp.html#gae2cd1bb458cfb3511efdac65c826ccc6" target="_top" xlink:title="Write to MP status register. ">
<polygon fill="white" stroke="black" points="179.583,-74.5 179.583,-92.5 283.386,-92.5 283.386,-74.5 179.583,-74.5"/>
<text text-anchor="middle" x="231.484" y="-80.5" font-family="Helvetica,sans-Serif" font-size="10.00">Irqmp::mpstat_write</text>
</a>
</g>
</g>
<!-- Node1&#45;&gt;Node7 -->
<g id="edge7" class="edge"><title>Node1&#45;&gt;Node7</title>
<path fill="none" stroke="midnightblue" d="M107.275,-111.449C129.474,-106.413 157.302,-100.101 180.891,-94.7497"/>
<polygon fill="midnightblue" stroke="midnightblue" points="181.735,-98.1474 190.713,-92.5218 180.186,-91.3208 181.735,-98.1474"/>
</g>
<!-- Node8 -->
<g id="node8" class="node"><title>Node8</title>
<g id="a_node8"><a xlink:href="group__irqmp.html#ga7ef4227d7e8c4f909e184f5e268949ad" target="_top" xlink:title="Irqmp::pending_write">
<polygon fill="white" stroke="black" points="176.792,-37.5 176.792,-55.5 286.176,-55.5 286.176,-37.5 176.792,-37.5"/>
<text text-anchor="middle" x="231.484" y="-43.5" font-family="Helvetica,sans-Serif" font-size="10.00">Irqmp::pending_write</text>
</a>
</g>
</g>
<!-- Node1&#45;&gt;Node8 -->
<g id="edge8" class="edge"><title>Node1&#45;&gt;Node8</title>
<path fill="none" stroke="midnightblue" d="M82.0275,-111.341C101.339,-99.5556 136.629,-78.9978 168.748,-65.5 174.583,-63.048 180.845,-60.7537 187.064,-58.6667"/>
<polygon fill="midnightblue" stroke="midnightblue" points="188.278,-61.9528 196.731,-55.565 186.14,-55.2875 188.278,-61.9528"/>
</g>
<!-- Node9 -->
<g id="node9" class="node"><title>Node9</title>
<g id="a_node9"><a xlink:href="classIrqmp.html#a59a8bb294d893b691abe9db0c0a37cfd" target="_top" xlink:title="Irqmp::PROC_IR_MASK">
<polygon fill="white" stroke="black" points="168.748,-0.5 168.748,-18.5 294.221,-18.5 294.221,-0.5 168.748,-0.5"/>
<text text-anchor="middle" x="231.484" y="-6.5" font-family="Helvetica,sans-Serif" font-size="10.00">Irqmp::PROC_IR_MASK</text>
</a>
</g>
</g>
<!-- Node1&#45;&gt;Node9 -->
<g id="edge10" class="edge"><title>Node1&#45;&gt;Node9</title>
<path fill="none" stroke="midnightblue" d="M75.039,-111.226C90.7377,-92.8112 128.477,-51.4379 168.748,-28.5 172.972,-26.0943 177.535,-23.9585 182.201,-22.0703"/>
<polygon fill="midnightblue" stroke="midnightblue" points="183.665,-25.2618 191.85,-18.5349 181.256,-18.6891 183.665,-25.2618"/>
</g>
<!-- Node3 -->
<g id="node3" class="node"><title>Node3</title>
<g id="a_node3"><a xlink:href="classIrqmp.html#a3c8cff7597f05713d6264409e35b3bb9" target="_top" xlink:title="Irqmp::PROC_EXTIR_ID">
<polygon fill="white" stroke="black" points="332.997,-205.5 332.997,-223.5 459.578,-223.5 459.578,-205.5 332.997,-205.5"/>
<text text-anchor="middle" x="396.287" y="-211.5" font-family="Helvetica,sans-Serif" font-size="10.00">Irqmp::PROC_EXTIR_ID</text>
</a>
</g>
</g>
<!-- Node2&#45;&gt;Node3 -->
<g id="edge2" class="edge"><title>Node2&#45;&gt;Node3</title>
<path fill="none" stroke="midnightblue" d="M279.574,-228.004C293.079,-226.428 308.127,-224.672 322.785,-222.961"/>
<polygon fill="midnightblue" stroke="midnightblue" points="323.32,-226.423 332.847,-221.787 322.509,-219.47 323.32,-226.423"/>
</g>
<!-- Node4&#45;&gt;Node3 -->
<g id="edge5" class="edge"><title>Node4&#45;&gt;Node3</title>
<path fill="none" stroke="midnightblue" d="M279.574,-201.706C293.079,-203.2 308.127,-204.863 322.785,-206.484"/>
<polygon fill="midnightblue" stroke="midnightblue" points="322.523,-209.976 332.847,-207.596 323.292,-203.019 322.523,-209.976"/>
</g>
<!-- Node4&#45;&gt;Node5 -->
<g id="edge4" class="edge"><title>Node4&#45;&gt;Node5</title>
<path fill="none" stroke="midnightblue" d="M279.574,-191.004C292.269,-189.523 306.327,-187.882 320.144,-186.27"/>
<polygon fill="midnightblue" stroke="midnightblue" points="320.612,-189.739 330.139,-185.103 319.8,-182.786 320.612,-189.739"/>
</g>
</g>
</svg>
