<?xml version="1.0" encoding="UTF-8" standalone="no"?>
<!DOCTYPE svg PUBLIC "-//W3C//DTD SVG 1.1//EN"
 "http://www.w3.org/Graphics/SVG/1.1/DTD/svg11.dtd">
<!-- Generated by graphviz version 2.38.0 (20140413.2041)
 -->
<!-- Title: localram::localram Pages: 1 -->
<svg width="262pt" height="104pt"
 viewBox="0.00 0.00 262.00 104.00" xmlns="http://www.w3.org/2000/svg" xmlns:xlink="http://www.w3.org/1999/xlink">
<g id="graph0" class="graph" transform="scale(1 1) rotate(0) translate(4 100)">
<title>localram::localram</title>
<polygon fill="white" stroke="none" points="-4,4 -4,-100 258,-100 258,4 -4,4"/>
<!-- Node1 -->
<g id="node1" class="node"><title>Node1</title>
<polygon fill="#bfbfbf" stroke="black" points="0,-38.5 0,-57.5 96,-57.5 96,-38.5 0,-38.5"/>
<text text-anchor="middle" x="48" y="-45.5" font-family="Helvetica,sans-Serif" font-size="10.00">localram::localram</text>
</g>
<!-- Node2 -->
<g id="node2" class="node"><title>Node2</title>
<g id="a_node2"><a xlink:href="group__mmu__cache.html#ga9dd22726eeafd825fa422646313a2a8c" target="_top" xlink:title="Dynamic/Internal power callback. ">
<polygon fill="white" stroke="black" points="134.5,-76.5 134.5,-95.5 251.5,-95.5 251.5,-76.5 134.5,-76.5"/>
<text text-anchor="middle" x="193" y="-83.5" font-family="Helvetica,sans-Serif" font-size="10.00">localram::int_power_cb</text>
</a>
</g>
</g>
<!-- Node1&#45;&gt;Node2 -->
<g id="edge1" class="edge"><title>Node1&#45;&gt;Node2</title>
<path fill="none" stroke="midnightblue" d="M85.0849,-57.589C103.63,-62.5169 126.426,-68.5749 146.199,-73.8291"/>
<polygon fill="midnightblue" stroke="midnightblue" points="145.363,-77.2284 155.927,-76.4141 147.161,-70.4632 145.363,-77.2284"/>
</g>
<!-- Node3 -->
<g id="node3" class="node"><title>Node3</title>
<g id="a_node3"><a xlink:href="group__mmu__cache.html#ga639fcd7d215694a687b1f4a14f77dcd3" target="_top" xlink:title="Static power callback. ">
<polygon fill="white" stroke="black" points="133,-38.5 133,-57.5 253,-57.5 253,-38.5 133,-38.5"/>
<text text-anchor="middle" x="193" y="-45.5" font-family="Helvetica,sans-Serif" font-size="10.00">localram::sta_power_cb</text>
</a>
</g>
</g>
<!-- Node1&#45;&gt;Node3 -->
<g id="edge2" class="edge"><title>Node1&#45;&gt;Node3</title>
<path fill="none" stroke="midnightblue" d="M96.2199,-48C104.731,-48 113.764,-48 122.749,-48"/>
<polygon fill="midnightblue" stroke="midnightblue" points="122.843,-51.5001 132.843,-48 122.843,-44.5001 122.843,-51.5001"/>
</g>
<!-- Node4 -->
<g id="node4" class="node"><title>Node4</title>
<g id="a_node4"><a xlink:href="group__mmu__cache.html#ga4e3bb8a36f9590f99a6534ba23429817" target="_top" xlink:title="Dynamic/Switching power callback. ">
<polygon fill="white" stroke="black" points="132,-0.5 132,-19.5 254,-19.5 254,-0.5 132,-0.5"/>
<text text-anchor="middle" x="193" y="-7.5" font-family="Helvetica,sans-Serif" font-size="10.00">localram::swi_power_cb</text>
</a>
</g>
</g>
<!-- Node1&#45;&gt;Node4 -->
<g id="edge3" class="edge"><title>Node1&#45;&gt;Node4</title>
<path fill="none" stroke="midnightblue" d="M85.0849,-38.411C103.63,-33.4831 126.426,-27.4251 146.199,-22.1709"/>
<polygon fill="midnightblue" stroke="midnightblue" points="147.161,-25.5368 155.927,-19.5859 145.363,-18.7716 147.161,-25.5368"/>
</g>
</g>
</svg>
