<?xml version="1.0" encoding="UTF-8" standalone="no"?>
<!DOCTYPE svg PUBLIC "-//W3C//DTD SVG 1.1//EN"
 "http://www.w3.org/Graphics/SVG/1.1/DTD/svg11.dtd">
<!-- Generated by graphviz version 2.38.0 (20140413.2041)
 -->
<!-- Title: TimingMonitor::report_timing Pages: 1 -->
<svg width="266pt" height="84pt"
 viewBox="0.00 0.00 266.45 84.00" xmlns="http://www.w3.org/2000/svg" xmlns:xlink="http://www.w3.org/1999/xlink">
<g id="graph0" class="graph" transform="scale(1 1) rotate(0) translate(4 80)">
<title>TimingMonitor::report_timing</title>
<polygon fill="white" stroke="none" points="-4,4 -4,-80 262.449,-80 262.449,4 -4,4"/>
<!-- Node1 -->
<g id="node1" class="node"><title>Node1</title>
<polygon fill="#bfbfbf" stroke="black" points="0,-23.5 0,-51.5 110.663,-51.5 110.663,-23.5 0,-23.5"/>
<text text-anchor="start" x="8" y="-39.5" font-family="Helvetica,sans-Serif" font-size="10.00">TimingMonitor::report</text>
<text text-anchor="middle" x="55.3315" y="-29.5" font-family="Helvetica,sans-Serif" font-size="10.00">_timing</text>
</g>
<!-- Node2 -->
<g id="node2" class="node"><title>Node2</title>
<g id="a_node2"><a xlink:href="group__common.html#ga9be2bc7692007066415fa39620b63eae" target="_top" xlink:title="Return real time for processing phase id. ">
<polygon fill="white" stroke="black" points="146.663,-47.5 146.663,-75.5 258.449,-75.5 258.449,-47.5 146.663,-47.5"/>
<text text-anchor="start" x="154.663" y="-63.5" font-family="Helvetica,sans-Serif" font-size="10.00">TimingMonitor::phase</text>
<text text-anchor="middle" x="202.556" y="-53.5" font-family="Helvetica,sans-Serif" font-size="10.00">_realtime</text>
</a>
</g>
</g>
<!-- Node1&#45;&gt;Node2 -->
<g id="edge1" class="edge"><title>Node1&#45;&gt;Node2</title>
<path fill="none" stroke="midnightblue" d="M110.821,-46.505C119.151,-47.8816 127.821,-49.3145 136.353,-50.7245"/>
<polygon fill="midnightblue" stroke="midnightblue" points="135.841,-54.1872 146.278,-52.3646 136.982,-47.2808 135.841,-54.1872"/>
</g>
<!-- Node3 -->
<g id="node3" class="node"><title>Node3</title>
<g id="a_node3"><a xlink:href="group__common.html#ga21880a22cc5e6d46ff1e276289827605" target="_top" xlink:title="Return simulation time of phase id. ">
<polygon fill="white" stroke="black" points="146.663,-0.5 146.663,-28.5 258.449,-28.5 258.449,-0.5 146.663,-0.5"/>
<text text-anchor="start" x="154.663" y="-16.5" font-family="Helvetica,sans-Serif" font-size="10.00">TimingMonitor::phase</text>
<text text-anchor="middle" x="202.556" y="-6.5" font-family="Helvetica,sans-Serif" font-size="10.00">_systime</text>
</a>
</g>
</g>
<!-- Node1&#45;&gt;Node3 -->
<g id="edge2" class="edge"><title>Node1&#45;&gt;Node3</title>
<path fill="none" stroke="midnightblue" d="M110.821,-28.8702C119.151,-27.5509 127.821,-26.1778 136.353,-24.8265"/>
<polygon fill="midnightblue" stroke="midnightblue" points="136.948,-28.276 146.278,-23.2548 135.853,-21.3622 136.948,-28.276"/>
</g>
</g>
</svg>
