<?xml version="1.0" encoding="UTF-8" standalone="no"?>
<!DOCTYPE svg PUBLIC "-//W3C//DTD SVG 1.1//EN"
 "http://www.w3.org/Graphics/SVG/1.1/DTD/svg11.dtd">
<!-- Generated by graphviz version 2.26.0 (20091210.2329)
 -->
<!-- Title: APBCtrl::end_of_elaboration Pages: 1 -->
<svg width="306pt" height="110pt"
 viewBox="0.00 0.00 306.00 110.00" xmlns="http://www.w3.org/2000/svg" xmlns:xlink="http://www.w3.org/1999/xlink">
<g id="graph1" class="graph" transform="scale(1 1) rotate(0) translate(4 106)">
<title>APBCtrl::end_of_elaboration</title>
<polygon fill="white" stroke="white" points="-4,5 -4,-106 303,-106 303,5 -4,5"/>
<!-- Node1 -->
<g id="node1" class="node"><title>Node1</title>
<polygon fill="#bfbfbf" stroke="black" points="0,-40.5 0,-61.5 140,-61.5 140,-40.5 0,-40.5"/>
<text text-anchor="middle" x="70" y="-48.5" font-family="Helvetica,sans-Serif" font-size="10.00">APBCtrl::end_of_elaboration</text>
</g>
<!-- Node2 -->
<g id="node3" class="node"><title>Node2</title>
<a xlink:href="group__apbctrl.html#ga196388a40db201813f3a6c23ffa30f51" target="_top" xlink:title="Dynamic/Internal power callback. ">
<polygon fill="white" stroke="black" points="179,-80.5 179,-101.5 295,-101.5 295,-80.5 179,-80.5"/>
<text text-anchor="middle" x="237" y="-88.5" font-family="Helvetica,sans-Serif" font-size="10.00">APBCtrl::int_power_cb</text>
</a>
</g>
<!-- Node1&#45;&gt;Node2 -->
<g id="edge2" class="edge"><title>Node1&#45;&gt;Node2</title>
<path fill="none" stroke="midnightblue" d="M113.877,-61.5095C135.08,-66.588 160.719,-72.7292 183.1,-78.0898"/>
<polygon fill="midnightblue" stroke="midnightblue" points="182.586,-81.5656 193.126,-80.4913 184.216,-74.7582 182.586,-81.5656"/>
</g>
<!-- Node3 -->
<g id="node5" class="node"><title>Node3</title>
<a xlink:href="group__apbctrl.html#ga0163eee0bc7a3b1df22f47d7acf5dac4" target="_top" xlink:title="Static power callback. ">
<polygon fill="white" stroke="black" points="177.5,-40.5 177.5,-61.5 296.5,-61.5 296.5,-40.5 177.5,-40.5"/>
<text text-anchor="middle" x="237" y="-48.5" font-family="Helvetica,sans-Serif" font-size="10.00">APBCtrl::sta_power_cb</text>
</a>
</g>
<!-- Node1&#45;&gt;Node3 -->
<g id="edge4" class="edge"><title>Node1&#45;&gt;Node3</title>
<path fill="none" stroke="midnightblue" d="M140.339,-51C149.181,-51 158.224,-51 167.06,-51"/>
<polygon fill="midnightblue" stroke="midnightblue" points="167.312,-54.5001 177.312,-51 167.312,-47.5001 167.312,-54.5001"/>
</g>
<!-- Node4 -->
<g id="node7" class="node"><title>Node4</title>
<a xlink:href="group__apbctrl.html#ga9092ec534ce6572e8241f18fcdbdb7fe" target="_top" xlink:title="Dynamic/Switching power callback. ">
<polygon fill="white" stroke="black" points="176.5,-0.5 176.5,-21.5 297.5,-21.5 297.5,-0.5 176.5,-0.5"/>
<text text-anchor="middle" x="237" y="-8.5" font-family="Helvetica,sans-Serif" font-size="10.00">APBCtrl::swi_power_cb</text>
</a>
</g>
<!-- Node1&#45;&gt;Node4 -->
<g id="edge6" class="edge"><title>Node1&#45;&gt;Node4</title>
<path fill="none" stroke="midnightblue" d="M113.877,-40.4905C135.08,-35.412 160.719,-29.2708 183.1,-23.9102"/>
<polygon fill="midnightblue" stroke="midnightblue" points="184.216,-27.2418 193.126,-21.5087 182.586,-20.4344 184.216,-27.2418"/>
</g>
</g>
</svg>
