<?xml version="1.0" encoding="UTF-8" standalone="no"?>
<!DOCTYPE svg PUBLIC "-//W3C//DTD SVG 1.1//EN"
 "http://www.w3.org/Graphics/SVG/1.1/DTD/svg11.dtd">
<!-- Generated by graphviz version 2.38.0 (20140413.2041)
 -->
<!-- Title: vectorcache::read_cache_tag Pages: 1 -->
<svg width="296pt" height="64pt"
 viewBox="0.00 0.00 296.14 64.00" xmlns="http://www.w3.org/2000/svg" xmlns:xlink="http://www.w3.org/1999/xlink">
<g id="graph0" class="graph" transform="scale(1 1) rotate(0) translate(4 60)">
<title>vectorcache::read_cache_tag</title>
<polygon fill="white" stroke="none" points="-4,4 -4,-60 292.137,-60 292.137,4 -4,4"/>
<!-- Node1 -->
<g id="node1" class="node"><title>Node1</title>
<polygon fill="#bfbfbf" stroke="black" points="0,-18.5 0,-36.5 147.196,-36.5 147.196,-18.5 0,-18.5"/>
<text text-anchor="middle" x="73.5981" y="-24.5" font-family="Helvetica,sans-Serif" font-size="10.00">vectorcache::read_cache_tag</text>
</g>
<!-- Node2 -->
<g id="node2" class="node"><title>Node2</title>
<g id="a_node2"><a xlink:href="group__mmu__cache.html#ga30cfa4945963b178a797f31288515ff8" target="_top" xlink:title="reads a cache line from a cache set ">
<polygon fill="white" stroke="black" points="183.196,-37.5 183.196,-55.5 288.137,-55.5 288.137,-37.5 183.196,-37.5"/>
<text text-anchor="middle" x="235.667" y="-43.5" font-family="Helvetica,sans-Serif" font-size="10.00">vectorcache::lookup</text>
</a>
</g>
</g>
<!-- Node1&#45;&gt;Node2 -->
<g id="edge1" class="edge"><title>Node1&#45;&gt;Node2</title>
<path fill="none" stroke="midnightblue" d="M147.606,-36.166C155.955,-37.157 164.406,-38.1601 172.593,-39.1319"/>
<polygon fill="midnightblue" stroke="midnightblue" points="172.451,-42.6395 182.794,-40.3427 173.276,-35.6883 172.451,-42.6395"/>
</g>
<!-- Node3 -->
<g id="node3" class="node"><title>Node3</title>
<g id="a_node3"><a xlink:href="group__common.html#ga2e70f90e04ee467d36debee5245ead91" target="_top" xlink:title="swap_Endianess">
<polygon fill="white" stroke="black" points="189.864,-0.5 189.864,-18.5 281.469,-18.5 281.469,-0.5 189.864,-0.5"/>
<text text-anchor="middle" x="235.667" y="-6.5" font-family="Helvetica,sans-Serif" font-size="10.00">swap_Endianess</text>
</a>
</g>
</g>
<!-- Node1&#45;&gt;Node3 -->
<g id="edge2" class="edge"><title>Node1&#45;&gt;Node3</title>
<path fill="none" stroke="midnightblue" d="M147.606,-19.2901C158.366,-18.0801 169.297,-16.8509 179.613,-15.6909"/>
<polygon fill="midnightblue" stroke="midnightblue" points="180.148,-19.1529 189.694,-14.5572 179.366,-12.1967 180.148,-19.1529"/>
</g>
</g>
</svg>
