<?xml version="1.0" encoding="UTF-8" standalone="no"?>
<!DOCTYPE svg PUBLIC "-//W3C//DTD SVG 1.1//EN"
 "http://www.w3.org/Graphics/SVG/1.1/DTD/svg11.dtd">
<!-- Generated by graphviz version 2.26.0 (20091210.2329)
 -->
<!-- Title: Irqmp::end_of_elaboration Pages: 1 -->
<svg width="470pt" height="268pt"
 viewBox="0.00 0.00 470.00 268.00" xmlns="http://www.w3.org/2000/svg" xmlns:xlink="http://www.w3.org/1999/xlink">
<g id="graph1" class="graph" transform="scale(1 1) rotate(0) translate(4 264)">
<title>Irqmp::end_of_elaboration</title>
<polygon fill="white" stroke="white" points="-4,5 -4,-264 467,-264 467,5 -4,5"/>
<!-- Node1 -->
<g id="node1" class="node"><title>Node1</title>
<polygon fill="#bfbfbf" stroke="black" points="0.5,-120.5 0.5,-141.5 129.5,-141.5 129.5,-120.5 0.5,-120.5"/>
<text text-anchor="middle" x="65" y="-128.5" font-family="Helvetica,sans-Serif" font-size="10.00">Irqmp::end_of_elaboration</text>
</g>
<!-- Node2 -->
<g id="node3" class="node"><title>Node2</title>
<a xlink:href="group__irqmp.html#gae65688b220e70ab25c8dbe65061bdab9" target="_top" xlink:title="Irqmp::clear_write">
<polygon fill="white" stroke="black" points="181.5,-238.5 181.5,-259.5 276.5,-259.5 276.5,-238.5 181.5,-238.5"/>
<text text-anchor="middle" x="229" y="-246.5" font-family="Helvetica,sans-Serif" font-size="10.00">Irqmp::clear_write</text>
</a>
</g>
<!-- Node1&#45;&gt;Node2 -->
<g id="edge2" class="edge"><title>Node1&#45;&gt;Node2</title>
<path fill="none" stroke="midnightblue" d="M73.232,-141.799C89.0562,-161.839 125.737,-204.928 166,-229 169.447,-231.061 173.129,-232.932 176.918,-234.627"/>
<polygon fill="midnightblue" stroke="midnightblue" points="175.898,-237.99 186.481,-238.485 178.516,-231.498 175.898,-237.99"/>
</g>
<!-- Node4 -->
<g id="node7" class="node"><title>Node4</title>
<a xlink:href="group__irqmp.html#gaf176d36908bcfd7e37ef6755eed1b8bc" target="_top" xlink:title="Irqmp::force_write">
<polygon fill="white" stroke="black" points="181.5,-198.5 181.5,-219.5 276.5,-219.5 276.5,-198.5 181.5,-198.5"/>
<text text-anchor="middle" x="229" y="-206.5" font-family="Helvetica,sans-Serif" font-size="10.00">Irqmp::force_write</text>
</a>
</g>
<!-- Node1&#45;&gt;Node4 -->
<g id="edge6" class="edge"><title>Node1&#45;&gt;Node4</title>
<path fill="none" stroke="midnightblue" d="M83.69,-141.568C103.742,-152.726 136.667,-170.529 166,-184 173.993,-187.671 182.69,-191.329 190.998,-194.67"/>
<polygon fill="midnightblue" stroke="midnightblue" points="189.92,-198.007 200.506,-198.427 192.492,-191.497 189.92,-198.007"/>
</g>
<!-- Node5 -->
<g id="node9" class="node"><title>Node5</title>
<a xlink:href="classIrqmp.html#ad006143a3ddef1eb7f1ff51f04b357e2" target="_top" xlink:title="Irqmp::PROC_IR_FORCE">
<polygon fill="white" stroke="black" points="328.5,-178.5 328.5,-199.5 461.5,-199.5 461.5,-178.5 328.5,-178.5"/>
<text text-anchor="middle" x="395" y="-186.5" font-family="Helvetica,sans-Serif" font-size="10.00">Irqmp::PROC_IR_FORCE</text>
</a>
</g>
<!-- Node1&#45;&gt;Node5 -->
<g id="edge18" class="edge"><title>Node1&#45;&gt;Node5</title>
<path fill="none" stroke="midnightblue" d="M116.582,-141.535C132.417,-144.683 149.908,-148.072 166,-151 216.685,-160.221 273.851,-169.709 318.388,-176.897"/>
<polygon fill="midnightblue" stroke="midnightblue" points="317.839,-180.353 328.268,-178.487 318.952,-173.442 317.839,-180.353"/>
</g>
<!-- Node6 -->
<g id="node12" class="node"><title>Node6</title>
<a xlink:href="group__irqmp.html#ga29c5c6cc6b5d6c692c57452807fc5d9a" target="_top" xlink:title="Prepare reading of the MP status register. ">
<polygon fill="white" stroke="black" points="178.5,-120.5 178.5,-141.5 279.5,-141.5 279.5,-120.5 178.5,-120.5"/>
<text text-anchor="middle" x="229" y="-128.5" font-family="Helvetica,sans-Serif" font-size="10.00">Irqmp::mpstat_read</text>
</a>
</g>
<!-- Node1&#45;&gt;Node6 -->
<g id="edge12" class="edge"><title>Node1&#45;&gt;Node6</title>
<path fill="none" stroke="midnightblue" d="M129.817,-131C142.408,-131 155.564,-131 168.026,-131"/>
<polygon fill="midnightblue" stroke="midnightblue" points="168.303,-134.5 178.302,-131 168.302,-127.5 168.303,-134.5"/>
</g>
<!-- Node7 -->
<g id="node14" class="node"><title>Node7</title>
<a xlink:href="group__irqmp.html#gae2cd1bb458cfb3511efdac65c826ccc6" target="_top" xlink:title="Write to MP status register. ">
<polygon fill="white" stroke="black" points="177,-80.5 177,-101.5 281,-101.5 281,-80.5 177,-80.5"/>
<text text-anchor="middle" x="229" y="-88.5" font-family="Helvetica,sans-Serif" font-size="10.00">Irqmp::mpstat_write</text>
</a>
</g>
<!-- Node1&#45;&gt;Node7 -->
<g id="edge14" class="edge"><title>Node1&#45;&gt;Node7</title>
<path fill="none" stroke="midnightblue" d="M108.089,-120.49C128.911,-115.412 154.09,-109.271 176.068,-103.91"/>
<polygon fill="midnightblue" stroke="midnightblue" points="177.028,-107.279 185.914,-101.509 175.37,-100.478 177.028,-107.279"/>
</g>
<!-- Node8 -->
<g id="node16" class="node"><title>Node8</title>
<a xlink:href="group__irqmp.html#ga7ef4227d7e8c4f909e184f5e268949ad" target="_top" xlink:title="Irqmp::pending_write">
<polygon fill="white" stroke="black" points="175.5,-40.5 175.5,-61.5 282.5,-61.5 282.5,-40.5 175.5,-40.5"/>
<text text-anchor="middle" x="229" y="-48.5" font-family="Helvetica,sans-Serif" font-size="10.00">Irqmp::pending_write</text>
</a>
</g>
<!-- Node1&#45;&gt;Node8 -->
<g id="edge16" class="edge"><title>Node1&#45;&gt;Node8</title>
<path fill="none" stroke="midnightblue" d="M80.1485,-120.497C99.4026,-107.508 133.993,-85.3593 166,-71 170.785,-68.8532 175.87,-66.8355 180.994,-64.9692"/>
<polygon fill="midnightblue" stroke="midnightblue" points="182.52,-68.1452 190.83,-61.5727 180.235,-61.5286 182.52,-68.1452"/>
</g>
<!-- Node9 -->
<g id="node19" class="node"><title>Node9</title>
<a xlink:href="classIrqmp.html#a59a8bb294d893b691abe9db0c0a37cfd" target="_top" xlink:title="Irqmp::PROC_IR_MASK">
<polygon fill="white" stroke="black" points="166,-0.5 166,-21.5 292,-21.5 292,-0.5 166,-0.5"/>
<text text-anchor="middle" x="229" y="-8.5" font-family="Helvetica,sans-Serif" font-size="10.00">Irqmp::PROC_IR_MASK</text>
</a>
</g>
<!-- Node1&#45;&gt;Node9 -->
<g id="edge20" class="edge"><title>Node1&#45;&gt;Node9</title>
<path fill="none" stroke="midnightblue" d="M72.9358,-120.29C88.537,-99.9672 125.249,-55.6445 166,-31 169.383,-28.954 172.997,-27.0965 176.717,-25.4138"/>
<polygon fill="midnightblue" stroke="midnightblue" points="178.177,-28.5985 186.117,-21.5833 175.535,-22.1162 178.177,-28.5985"/>
</g>
<!-- Node3 -->
<g id="node5" class="node"><title>Node3</title>
<a xlink:href="classIrqmp.html#a3c8cff7597f05713d6264409e35b3bb9" target="_top" xlink:title="Irqmp::PROC_EXTIR_ID">
<polygon fill="white" stroke="black" points="331,-228.5 331,-249.5 459,-249.5 459,-228.5 331,-228.5"/>
<text text-anchor="middle" x="395" y="-236.5" font-family="Helvetica,sans-Serif" font-size="10.00">Irqmp::PROC_EXTIR_ID</text>
</a>
</g>
<!-- Node2&#45;&gt;Node3 -->
<g id="edge4" class="edge"><title>Node2&#45;&gt;Node3</title>
<path fill="none" stroke="midnightblue" d="M276.569,-246.134C290.269,-245.309 305.555,-244.388 320.472,-243.49"/>
<polygon fill="midnightblue" stroke="midnightblue" points="320.945,-246.968 330.716,-242.873 320.524,-239.98 320.945,-246.968"/>
</g>
<!-- Node4&#45;&gt;Node3 -->
<g id="edge10" class="edge"><title>Node4&#45;&gt;Node3</title>
<path fill="none" stroke="midnightblue" d="M276.569,-217.597C292.266,-220.434 310.045,-223.647 326.965,-226.705"/>
<polygon fill="midnightblue" stroke="midnightblue" points="326.343,-230.149 336.806,-228.483 327.588,-223.26 326.343,-230.149"/>
</g>
<!-- Node4&#45;&gt;Node5 -->
<g id="edge8" class="edge"><title>Node4&#45;&gt;Node5</title>
<path fill="none" stroke="midnightblue" d="M276.569,-203.269C289.521,-201.708 303.89,-199.977 318.024,-198.274"/>
<polygon fill="midnightblue" stroke="midnightblue" points="318.742,-201.713 328.251,-197.042 317.904,-194.763 318.742,-201.713"/>
</g>
</g>
</svg>
