<?xml version="1.0" encoding="UTF-8" standalone="no"?>
<!DOCTYPE svg PUBLIC "-//W3C//DTD SVG 1.1//EN"
 "http://www.w3.org/Graphics/SVG/1.1/DTD/svg11.dtd">
<!-- Generated by graphviz version 2.36.0 (20140111.2315)
 -->
<!-- Title: vectorcache::locate_line Pages: 1 -->
<svg width="292pt" height="66pt"
 viewBox="0.00 0.00 292.00 66.00" xmlns="http://www.w3.org/2000/svg" xmlns:xlink="http://www.w3.org/1999/xlink">
<g id="graph0" class="graph" transform="scale(1 1) rotate(0) translate(4 62)">
<title>vectorcache::locate_line</title>
<polygon fill="white" stroke="none" points="-4,4 -4,-62 288,-62 288,4 -4,4"/>
<!-- Node1 -->
<g id="node1" class="node"><title>Node1</title>
<polygon fill="#bfbfbf" stroke="black" points="0,-19.5 0,-38.5 122,-38.5 122,-19.5 0,-19.5"/>
<text text-anchor="middle" x="61" y="-26.5" font-family="Helvetica,sans-Serif" font-size="10.00">vectorcache::locate_line</text>
</g>
<!-- Node2 -->
<g id="node2" class="node"><title>Node2</title>
<g id="a_node2"><a xlink:href="classvectorcache.html#a827b3080bda9e542b473d95b693e3129" target="_top" xlink:title="vectorcache::lookup_line">
<polygon fill="white" stroke="black" points="158.5,-38.5 158.5,-57.5 283.5,-57.5 283.5,-38.5 158.5,-38.5"/>
<text text-anchor="middle" x="221" y="-45.5" font-family="Helvetica,sans-Serif" font-size="10.00">vectorcache::lookup_line</text>
</a>
</g>
</g>
<!-- Node1&#45;&gt;Node2 -->
<g id="edge1" class="edge"><title>Node1&#45;&gt;Node2</title>
<path fill="none" stroke="midnightblue" d="M122.184,-36.2373C130.708,-37.2624 139.543,-38.3248 148.259,-39.373"/>
<polygon fill="midnightblue" stroke="midnightblue" points="148.065,-42.8747 158.411,-40.5937 148.901,-35.9248 148.065,-42.8747"/>
</g>
<!-- Node3 -->
<g id="node3" class="node"><title>Node3</title>
<g id="a_node3"><a xlink:href="group__mmu__cache.html#ga78e27913668aee0364241d782f754461" target="_top" xlink:title="Transforms a cache&#45;line offset into a valid mask. ">
<polygon fill="white" stroke="black" points="158,-0.5 158,-19.5 284,-19.5 284,-0.5 158,-0.5"/>
<text text-anchor="middle" x="221" y="-7.5" font-family="Helvetica,sans-Serif" font-size="10.00">vectorcache::offset2valid</text>
</a>
</g>
</g>
<!-- Node1&#45;&gt;Node3 -->
<g id="edge2" class="edge"><title>Node1&#45;&gt;Node3</title>
<path fill="none" stroke="midnightblue" d="M122.184,-21.7627C130.583,-20.7527 139.284,-19.7064 147.875,-18.6733"/>
<polygon fill="midnightblue" stroke="midnightblue" points="148.375,-22.1384 157.886,-17.4695 147.539,-15.1885 148.375,-22.1384"/>
</g>
</g>
</svg>
