<?xml version="1.0" encoding="UTF-8" standalone="no"?>
<!DOCTYPE svg PUBLIC "-//W3C//DTD SVG 1.1//EN"
 "http://www.w3.org/Graphics/SVG/1.1/DTD/svg11.dtd">
<!-- Generated by graphviz version 2.38.0 (20140413.2041)
 -->
<!-- Title: Irqmp::init_registers Pages: 1 -->
<svg width="438pt" height="268pt"
 viewBox="0.00 0.00 438.00 268.00" xmlns="http://www.w3.org/2000/svg" xmlns:xlink="http://www.w3.org/1999/xlink">
<g id="graph0" class="graph" transform="scale(1 1) rotate(0) translate(4 264)">
<title>Irqmp::init_registers</title>
<polygon fill="white" stroke="none" points="-4,4 -4,-264 434,-264 434,4 -4,4"/>
<!-- Node1 -->
<g id="node1" class="node"><title>Node1</title>
<polygon fill="#bfbfbf" stroke="black" points="0,-114.5 0,-133.5 103,-133.5 103,-114.5 0,-114.5"/>
<text text-anchor="middle" x="51.5" y="-121.5" font-family="Helvetica,sans-Serif" font-size="10.00">Irqmp::init_registers</text>
</g>
<!-- Node2 -->
<g id="node2" class="node"><title>Node2</title>
<g id="a_node2"><a xlink:href="classsr__register.html#aaeac716c8e8024b831fb2a3f08791ed7" target="_top" xlink:title="sr_register::callback">
<polygon fill="white" stroke="black" points="148,-240.5 148,-259.5 252,-259.5 252,-240.5 148,-240.5"/>
<text text-anchor="middle" x="200" y="-247.5" font-family="Helvetica,sans-Serif" font-size="10.00">sr_register::callback</text>
</a>
</g>
</g>
<!-- Node1&#45;&gt;Node2 -->
<g id="edge1" class="edge"><title>Node1&#45;&gt;Node2</title>
<path fill="none" stroke="midnightblue" d="M57.6155,-133.567C69.2461,-154.412 99.7352,-204.206 139,-231 141.885,-232.969 144.986,-234.742 148.202,-236.338"/>
<polygon fill="midnightblue" stroke="midnightblue" points="146.928,-239.601 157.494,-240.382 149.721,-233.182 146.928,-239.601"/>
</g>
<!-- Node3 -->
<g id="node3" class="node"><title>Node3</title>
<g id="a_node3"><a xlink:href="group__irqmp.html#gae65688b220e70ab25c8dbe65061bdab9" target="_top" xlink:title="Irqmp::clear_write">
<polygon fill="white" stroke="black" points="152.5,-202.5 152.5,-221.5 247.5,-221.5 247.5,-202.5 152.5,-202.5"/>
<text text-anchor="middle" x="200" y="-209.5" font-family="Helvetica,sans-Serif" font-size="10.00">Irqmp::clear_write</text>
</a>
</g>
</g>
<!-- Node1&#45;&gt;Node3 -->
<g id="edge2" class="edge"><title>Node1&#45;&gt;Node3</title>
<path fill="none" stroke="midnightblue" d="M62.0231,-133.596C77.1086,-148.305 107.982,-176.455 139,-193 143.013,-195.14 147.307,-197.087 151.685,-198.847"/>
<polygon fill="midnightblue" stroke="midnightblue" points="150.733,-202.226 161.326,-202.401 153.155,-195.658 150.733,-202.226"/>
</g>
<!-- Node5 -->
<g id="node5" class="node"><title>Node5</title>
<g id="a_node5"><a xlink:href="classsr__register__bank.html#a4653224684ca13165b003b66a283a972" target="_top" xlink:title="sr_register_bank::create\l_register">
<polygon fill="white" stroke="black" points="139,-153 139,-183 261,-183 261,-153 139,-153"/>
<text text-anchor="start" x="147" y="-171" font-family="Helvetica,sans-Serif" font-size="10.00">sr_register_bank::create</text>
<text text-anchor="middle" x="200" y="-160" font-family="Helvetica,sans-Serif" font-size="10.00">_register</text>
</a>
</g>
</g>
<!-- Node1&#45;&gt;Node5 -->
<g id="edge4" class="edge"><title>Node1&#45;&gt;Node5</title>
<path fill="none" stroke="midnightblue" d="M84.2883,-133.547C100.341,-138.369 120.354,-144.379 139.149,-150.024"/>
<polygon fill="midnightblue" stroke="midnightblue" points="138.255,-153.41 148.839,-152.935 140.269,-146.706 138.255,-153.41"/>
</g>
<!-- Node6 -->
<g id="node6" class="node"><title>Node6</title>
<g id="a_node6"><a xlink:href="group__irqmp.html#gaf176d36908bcfd7e37ef6755eed1b8bc" target="_top" xlink:title="Irqmp::force_write">
<polygon fill="white" stroke="black" points="152.5,-114.5 152.5,-133.5 247.5,-133.5 247.5,-114.5 152.5,-114.5"/>
<text text-anchor="middle" x="200" y="-121.5" font-family="Helvetica,sans-Serif" font-size="10.00">Irqmp::force_write</text>
</a>
</g>
</g>
<!-- Node1&#45;&gt;Node6 -->
<g id="edge5" class="edge"><title>Node1&#45;&gt;Node6</title>
<path fill="none" stroke="midnightblue" d="M103.327,-124C115.848,-124 129.335,-124 142.121,-124"/>
<polygon fill="midnightblue" stroke="midnightblue" points="142.193,-127.5 152.193,-124 142.193,-120.5 142.193,-127.5"/>
</g>
<!-- Node8 -->
<g id="node8" class="node"><title>Node8</title>
<g id="a_node8"><a xlink:href="group__irqmp.html#ga29c5c6cc6b5d6c692c57452807fc5d9a" target="_top" xlink:title="Prepare reading of the MP status register. ">
<polygon fill="white" stroke="black" points="149.5,-76.5 149.5,-95.5 250.5,-95.5 250.5,-76.5 149.5,-76.5"/>
<text text-anchor="middle" x="200" y="-83.5" font-family="Helvetica,sans-Serif" font-size="10.00">Irqmp::mpstat_read</text>
</a>
</g>
</g>
<!-- Node1&#45;&gt;Node8 -->
<g id="edge8" class="edge"><title>Node1&#45;&gt;Node8</title>
<path fill="none" stroke="midnightblue" d="M89.4681,-114.411C108.626,-109.442 132.214,-103.323 152.588,-98.0387"/>
<polygon fill="midnightblue" stroke="midnightblue" points="153.497,-101.419 162.298,-95.5201 151.739,-94.643 153.497,-101.419"/>
</g>
<!-- Node9 -->
<g id="node9" class="node"><title>Node9</title>
<g id="a_node9"><a xlink:href="group__irqmp.html#gae2cd1bb458cfb3511efdac65c826ccc6" target="_top" xlink:title="Write to MP status register. ">
<polygon fill="white" stroke="black" points="148,-38.5 148,-57.5 252,-57.5 252,-38.5 148,-38.5"/>
<text text-anchor="middle" x="200" y="-45.5" font-family="Helvetica,sans-Serif" font-size="10.00">Irqmp::mpstat_write</text>
</a>
</g>
</g>
<!-- Node1&#45;&gt;Node9 -->
<g id="edge9" class="edge"><title>Node1&#45;&gt;Node9</title>
<path fill="none" stroke="midnightblue" d="M64.7438,-114.345C80.9413,-101.956 110.75,-80.4609 139,-67 143.628,-64.7946 148.576,-62.7594 153.57,-60.9061"/>
<polygon fill="midnightblue" stroke="midnightblue" points="154.865,-64.1613 163.159,-57.5692 152.564,-57.5501 154.865,-64.1613"/>
</g>
<!-- Node10 -->
<g id="node10" class="node"><title>Node10</title>
<g id="a_node10"><a xlink:href="group__irqmp.html#ga7ef4227d7e8c4f909e184f5e268949ad" target="_top" xlink:title="Irqmp::pending_write">
<polygon fill="white" stroke="black" points="146.5,-0.5 146.5,-19.5 253.5,-19.5 253.5,-0.5 146.5,-0.5"/>
<text text-anchor="middle" x="200" y="-7.5" font-family="Helvetica,sans-Serif" font-size="10.00">Irqmp::pending_write</text>
</a>
</g>
</g>
<!-- Node1&#45;&gt;Node10 -->
<g id="edge10" class="edge"><title>Node1&#45;&gt;Node10</title>
<path fill="none" stroke="midnightblue" d="M58.6536,-114.383C71.3537,-95.2964 102.367,-52.4512 139,-29 142.178,-26.9657 145.59,-25.1346 149.115,-23.4887"/>
<polygon fill="midnightblue" stroke="midnightblue" points="150.727,-26.6098 158.629,-19.5527 148.051,-20.1415 150.727,-26.6098"/>
</g>
<!-- Node4 -->
<g id="node4" class="node"><title>Node4</title>
<g id="a_node4"><a xlink:href="classIrqmp.html#a3c8cff7597f05713d6264409e35b3bb9" target="_top" xlink:title="Irqmp::PROC_EXTIR_ID">
<polygon fill="white" stroke="black" points="299.5,-177.5 299.5,-196.5 427.5,-196.5 427.5,-177.5 299.5,-177.5"/>
<text text-anchor="middle" x="363.5" y="-184.5" font-family="Helvetica,sans-Serif" font-size="10.00">Irqmp::PROC_EXTIR_ID</text>
</a>
</g>
</g>
<!-- Node3&#45;&gt;Node4 -->
<g id="edge3" class="edge"><title>Node3&#45;&gt;Node4</title>
<path fill="none" stroke="midnightblue" d="M247.712,-204.769C261.186,-202.683 276.206,-200.358 290.825,-198.095"/>
<polygon fill="midnightblue" stroke="midnightblue" points="291.51,-201.531 300.857,-196.542 290.439,-194.613 291.51,-201.531"/>
</g>
<!-- Node6&#45;&gt;Node4 -->
<g id="edge6" class="edge"><title>Node6&#45;&gt;Node4</title>
<path fill="none" stroke="midnightblue" d="M231.073,-133.508C240.691,-136.687 251.345,-140.352 261,-144 285.154,-153.126 312.042,-164.576 332.072,-173.366"/>
<polygon fill="midnightblue" stroke="midnightblue" points="330.751,-176.609 341.312,-177.446 333.578,-170.205 330.751,-176.609"/>
</g>
<!-- Node7 -->
<g id="node7" class="node"><title>Node7</title>
<g id="a_node7"><a xlink:href="classIrqmp.html#ad006143a3ddef1eb7f1ff51f04b357e2" target="_top" xlink:title="Irqmp::PROC_IR_FORCE">
<polygon fill="white" stroke="black" points="297,-114.5 297,-133.5 430,-133.5 430,-114.5 297,-114.5"/>
<text text-anchor="middle" x="363.5" y="-121.5" font-family="Helvetica,sans-Serif" font-size="10.00">Irqmp::PROC_IR_FORCE</text>
</a>
</g>
</g>
<!-- Node6&#45;&gt;Node7 -->
<g id="edge7" class="edge"><title>Node6&#45;&gt;Node7</title>
<path fill="none" stroke="midnightblue" d="M247.712,-124C259.961,-124 273.489,-124 286.831,-124"/>
<polygon fill="midnightblue" stroke="midnightblue" points="286.974,-127.5 296.974,-124 286.974,-120.5 286.974,-127.5"/>
</g>
</g>
</svg>
