<?xml version="1.0" encoding="UTF-8" standalone="no"?>
<!DOCTYPE svg PUBLIC "-//W3C//DTD SVG 1.1//EN"
 "http://www.w3.org/Graphics/SVG/1.1/DTD/svg11.dtd">
<!-- Generated by graphviz version 2.26.0 (20091210.2329)
 -->
<!-- Title: Irqmp::dorst Pages: 1 -->
<svg width="248pt" height="110pt"
 viewBox="0.00 0.00 248.00 110.00" xmlns="http://www.w3.org/2000/svg" xmlns:xlink="http://www.w3.org/1999/xlink">
<g id="graph1" class="graph" transform="scale(1 1) rotate(0) translate(4 106)">
<title>Irqmp::dorst</title>
<polygon fill="white" stroke="white" points="-4,5 -4,-106 245,-106 245,5 -4,5"/>
<!-- Node1 -->
<g id="node1" class="node"><title>Node1</title>
<polygon fill="#bfbfbf" stroke="black" points="0.5,-40.5 0.5,-61.5 69.5,-61.5 69.5,-40.5 0.5,-40.5"/>
<text text-anchor="middle" x="35" y="-48.5" font-family="Helvetica,sans-Serif" font-size="10.00">Irqmp::dorst</text>
</g>
<!-- Node2 -->
<g id="node3" class="node"><title>Node2</title>
<a xlink:href="classIrqmp.html#a3c8cff7597f05713d6264409e35b3bb9" target="_top" xlink:title="Irqmp::PROC_EXTIR_ID">
<polygon fill="white" stroke="black" points="109,-80.5 109,-101.5 237,-101.5 237,-80.5 109,-80.5"/>
<text text-anchor="middle" x="173" y="-88.5" font-family="Helvetica,sans-Serif" font-size="10.00">Irqmp::PROC_EXTIR_ID</text>
</a>
</g>
<!-- Node1&#45;&gt;Node2 -->
<g id="edge2" class="edge"><title>Node1&#45;&gt;Node2</title>
<path fill="none" stroke="midnightblue" d="M69.8232,-61.0937C87.1499,-66.1159 108.323,-72.2531 126.97,-77.658"/>
<polygon fill="midnightblue" stroke="midnightblue" points="126.163,-81.0681 136.742,-80.4905 128.112,-74.3448 126.163,-81.0681"/>
</g>
<!-- Node3 -->
<g id="node5" class="node"><title>Node3</title>
<a xlink:href="classIrqmp.html#ad006143a3ddef1eb7f1ff51f04b357e2" target="_top" xlink:title="Irqmp::PROC_IR_FORCE">
<polygon fill="white" stroke="black" points="106.5,-40.5 106.5,-61.5 239.5,-61.5 239.5,-40.5 106.5,-40.5"/>
<text text-anchor="middle" x="173" y="-48.5" font-family="Helvetica,sans-Serif" font-size="10.00">Irqmp::PROC_IR_FORCE</text>
</a>
</g>
<!-- Node1&#45;&gt;Node3 -->
<g id="edge4" class="edge"><title>Node1&#45;&gt;Node3</title>
<path fill="none" stroke="midnightblue" d="M69.8232,-51C78.0324,-51 87.1051,-51 96.3635,-51"/>
<polygon fill="midnightblue" stroke="midnightblue" points="96.4506,-54.5001 106.451,-51 96.4506,-47.5001 96.4506,-54.5001"/>
</g>
<!-- Node4 -->
<g id="node7" class="node"><title>Node4</title>
<a xlink:href="classIrqmp.html#a59a8bb294d893b691abe9db0c0a37cfd" target="_top" xlink:title="Irqmp::PROC_IR_MASK">
<polygon fill="white" stroke="black" points="110,-0.5 110,-21.5 236,-21.5 236,-0.5 110,-0.5"/>
<text text-anchor="middle" x="173" y="-8.5" font-family="Helvetica,sans-Serif" font-size="10.00">Irqmp::PROC_IR_MASK</text>
</a>
</g>
<!-- Node1&#45;&gt;Node4 -->
<g id="edge6" class="edge"><title>Node1&#45;&gt;Node4</title>
<path fill="none" stroke="midnightblue" d="M69.8232,-40.9063C87.1499,-35.8841 108.323,-29.7469 126.97,-24.342"/>
<polygon fill="midnightblue" stroke="midnightblue" points="128.112,-27.6552 136.742,-21.5095 126.163,-20.9319 128.112,-27.6552"/>
</g>
</g>
</svg>
