<?xml version="1.0" encoding="UTF-8" standalone="no"?>
<!DOCTYPE svg PUBLIC "-//W3C//DTD SVG 1.1//EN"
 "http://www.w3.org/Graphics/SVG/1.1/DTD/svg11.dtd">
<!-- Generated by graphviz version 2.36.0 (20140111.2315)
 -->
<!-- Title: mmu_cache::exec_instr Pages: 1 -->
<svg width="432pt" height="114pt"
 viewBox="0.00 0.00 432.00 114.00" xmlns="http://www.w3.org/2000/svg" xmlns:xlink="http://www.w3.org/1999/xlink">
<g id="graph0" class="graph" transform="scale(1 1) rotate(0) translate(4 110)">
<title>mmu_cache::exec_instr</title>
<polygon fill="white" stroke="none" points="-4,4 -4,-110 428,-110 428,4 -4,4"/>
<!-- Node1 -->
<g id="node1" class="node"><title>Node1</title>
<polygon fill="#bfbfbf" stroke="black" points="0.5,-44.5 0.5,-63.5 121.5,-63.5 121.5,-44.5 0.5,-44.5"/>
<text text-anchor="middle" x="61" y="-51.5" font-family="Helvetica,sans-Serif" font-size="10.00">mmu_cache::exec_instr</text>
</g>
<!-- Node2 -->
<g id="node2" class="node"><title>Node2</title>
<g id="a_node2"><a xlink:href="group__mmu__cache__base.html#gabbbf06dab9607e4469eeda34e3ea8a9c" target="_top" xlink:title="Instruction interface to functional part of the model. ">
<polygon fill="white" stroke="black" points="158.5,-39 158.5,-69 281.5,-69 281.5,-39 158.5,-39"/>
<text text-anchor="start" x="166.5" y="-57" font-family="Helvetica,sans-Serif" font-size="10.00">mmu_cache_base::exec</text>
<text text-anchor="middle" x="220" y="-46" font-family="Helvetica,sans-Serif" font-size="10.00">_instr</text>
</a>
</g>
</g>
<!-- Node1&#45;&gt;Node2 -->
<g id="edge1" class="edge"><title>Node1&#45;&gt;Node2</title>
<path fill="none" stroke="midnightblue" d="M121.803,-54C130.398,-54 139.311,-54 148.096,-54"/>
<polygon fill="midnightblue" stroke="midnightblue" points="148.323,-57.5001 158.323,-54 148.322,-50.5001 148.323,-57.5001"/>
</g>
<!-- Node3 -->
<g id="node3" class="node"><title>Node3</title>
<g id="a_node3"><a xlink:href="cache_8c.html#a0a9e9396972b76c5947592479860020d" target="_top" xlink:title="flush">
<polygon fill="white" stroke="black" points="352,-86.5 352,-105.5 390,-105.5 390,-86.5 352,-86.5"/>
<text text-anchor="middle" x="371" y="-93.5" font-family="Helvetica,sans-Serif" font-size="10.00">flush</text>
</a>
</g>
</g>
<!-- Node1&#45;&gt;Node3 -->
<g id="edge5" class="edge"><title>Node1&#45;&gt;Node3</title>
<path fill="none" stroke="midnightblue" d="M94.6059,-63.5333C113.058,-68.5785 136.647,-74.4479 158,-78 223.224,-88.85 300.887,-93.3274 341.704,-95.0391"/>
<polygon fill="midnightblue" stroke="midnightblue" points="341.598,-98.5376 351.728,-95.4343 341.874,-91.543 341.598,-98.5376"/>
</g>
<!-- Node6 -->
<g id="node6" class="node"><title>Node6</title>
<g id="a_node6"><a xlink:href="classcache__if.html#aed3a97268b017872594d189cd621c5c9" target="_top" xlink:title="flush cache ">
<polygon fill="white" stroke="black" points="180,-0.5 180,-19.5 260,-19.5 260,-0.5 180,-0.5"/>
<text text-anchor="middle" x="220" y="-7.5" font-family="Helvetica,sans-Serif" font-size="10.00">cache_if::flush</text>
</a>
</g>
</g>
<!-- Node1&#45;&gt;Node6 -->
<g id="edge6" class="edge"><title>Node1&#45;&gt;Node6</title>
<path fill="none" stroke="midnightblue" d="M96.0667,-44.4527C119.315,-37.9373 150.316,-29.2492 175.369,-22.2278"/>
<polygon fill="midnightblue" stroke="midnightblue" points="176.315,-25.5975 185,-19.5287 174.426,-18.8572 176.315,-25.5975"/>
</g>
<!-- Node2&#45;&gt;Node3 -->
<g id="edge2" class="edge"><title>Node2&#45;&gt;Node3</title>
<path fill="none" stroke="midnightblue" d="M274.372,-69.0443C297.199,-75.479 322.913,-82.727 341.922,-88.0854"/>
<polygon fill="midnightblue" stroke="midnightblue" points="341.157,-91.5062 351.732,-90.8506 343.057,-84.7688 341.157,-91.5062"/>
</g>
<!-- Node4 -->
<g id="node4" class="node"><title>Node4</title>
<g id="a_node4"><a xlink:href="group__mmu__cache.html#gab3016821c0179ce6b85559aa2cc074d3" target="_top" xlink:title="Read from scratchpad. ">
<polygon fill="white" stroke="black" points="318.5,-45.5 318.5,-64.5 423.5,-64.5 423.5,-45.5 318.5,-45.5"/>
<text text-anchor="middle" x="371" y="-52.5" font-family="Helvetica,sans-Serif" font-size="10.00">localram::mem_read</text>
</a>
</g>
</g>
<!-- Node2&#45;&gt;Node4 -->
<g id="edge3" class="edge"><title>Node2&#45;&gt;Node4</title>
<path fill="none" stroke="midnightblue" d="M281.604,-54.4067C290.29,-54.465 299.238,-54.5251 307.952,-54.5836"/>
<polygon fill="midnightblue" stroke="midnightblue" points="308.021,-58.084 318.044,-54.6513 308.068,-51.0842 308.021,-58.084"/>
</g>
<!-- Node5 -->
<g id="node5" class="node"><title>Node5</title>
<g id="a_node5"><a xlink:href="classmem__if.html#aa4c431846b1d11708be4128f84295c6c" target="_top" xlink:title="mem_if::mem_read">
<polygon fill="white" stroke="black" points="320.5,-7.5 320.5,-26.5 421.5,-26.5 421.5,-7.5 320.5,-7.5"/>
<text text-anchor="middle" x="371" y="-14.5" font-family="Helvetica,sans-Serif" font-size="10.00">mem_if::mem_read</text>
</a>
</g>
</g>
<!-- Node2&#45;&gt;Node5 -->
<g id="edge4" class="edge"><title>Node2&#45;&gt;Node5</title>
<path fill="none" stroke="midnightblue" d="M281.604,-38.9507C294.955,-35.6354 308.922,-32.1669 321.71,-28.9916"/>
<polygon fill="midnightblue" stroke="midnightblue" points="322.815,-32.3233 331.677,-26.5164 321.128,-25.5297 322.815,-32.3233"/>
</g>
</g>
</svg>
