<?xml version="1.0" encoding="UTF-8" standalone="no"?>
<!DOCTYPE svg PUBLIC "-//W3C//DTD SVG 1.1//EN"
 "http://www.w3.org/Graphics/SVG/1.1/DTD/svg11.dtd">
<!-- Generated by graphviz version 2.36.0 (20140111.2315)
 -->
<!-- Title: scireg_ns::scireg_tool_registry::remove_tool Pages: 1 -->
<svg width="440pt" height="77pt"
 viewBox="0.00 0.00 440.00 77.00" xmlns="http://www.w3.org/2000/svg" xmlns:xlink="http://www.w3.org/1999/xlink">
<g id="graph0" class="graph" transform="scale(1 1) rotate(0) translate(4 73)">
<title>scireg_ns::scireg_tool_registry::remove_tool</title>
<polygon fill="white" stroke="none" points="-4,4 -4,-73 436,-73 436,4 -4,4"/>
<!-- Node1 -->
<g id="node1" class="node"><title>Node1</title>
<polygon fill="#bfbfbf" stroke="black" points="0.5,-17 0.5,-47 113.5,-47 113.5,-17 0.5,-17"/>
<text text-anchor="start" x="8.5" y="-35" font-family="Helvetica,sans-Serif" font-size="10.00">scireg_ns::scireg_tool</text>
<text text-anchor="middle" x="57" y="-24" font-family="Helvetica,sans-Serif" font-size="10.00">_registry::remove_tool</text>
</g>
<!-- Node2 -->
<g id="node2" class="node"><title>Node2</title>
<g id="a_node2"><a xlink:href="group__sr__register.html#gaab21758d99c1a0ee378b2406277f67a8" target="_top" xlink:title="scireg_ns::scireg_tool\l_registry::check_allocation">
<polygon fill="white" stroke="black" points="150.5,-39 150.5,-69 283.5,-69 283.5,-39 150.5,-39"/>
<text text-anchor="start" x="158.5" y="-57" font-family="Helvetica,sans-Serif" font-size="10.00">scireg_ns::scireg_tool</text>
<text text-anchor="middle" x="217" y="-46" font-family="Helvetica,sans-Serif" font-size="10.00">_registry::check_allocation</text>
</a>
</g>
</g>
<!-- Node1&#45;&gt;Node2 -->
<g id="edge1" class="edge"><title>Node1&#45;&gt;Node2</title>
<path fill="none" stroke="midnightblue" d="M113.705,-39.7564C122.29,-40.9518 131.279,-42.2034 140.213,-43.4473"/>
<polygon fill="midnightblue" stroke="midnightblue" points="139.864,-46.9325 150.251,-44.8451 140.83,-39.9994 139.864,-46.9325"/>
</g>
<!-- Node4 -->
<g id="node4" class="node"><title>Node4</title>
<g id="a_node4"><a xlink:href="io__less_2queens_8c.html#a7f56768641bb4ced349493752655eb74" target="_top" xlink:title="find">
<polygon fill="white" stroke="black" points="201,-0.5 201,-19.5 233,-19.5 233,-0.5 201,-0.5"/>
<text text-anchor="middle" x="217" y="-7.5" font-family="Helvetica,sans-Serif" font-size="10.00">find</text>
</a>
</g>
</g>
<!-- Node1&#45;&gt;Node4 -->
<g id="edge3" class="edge"><title>Node1&#45;&gt;Node4</title>
<path fill="none" stroke="midnightblue" d="M113.705,-24.2436C139.913,-20.5944 169.878,-16.4221 190.571,-13.5408"/>
<polygon fill="midnightblue" stroke="midnightblue" points="191.332,-16.9686 200.754,-12.1229 190.367,-10.0355 191.332,-16.9686"/>
</g>
<!-- Node3 -->
<g id="node3" class="node"><title>Node3</title>
<g id="a_node3"><a xlink:href="group__sr__register.html#ga2e5651fa4057ce8a4e82b7e49ba9dcae" target="_top" xlink:title="scireg_ns::scireg_tool\l_registry::destroy">
<polygon fill="white" stroke="black" points="320,-39 320,-69 432,-69 432,-39 320,-39"/>
<text text-anchor="start" x="328" y="-57" font-family="Helvetica,sans-Serif" font-size="10.00">scireg_ns::scireg_tool</text>
<text text-anchor="middle" x="376" y="-46" font-family="Helvetica,sans-Serif" font-size="10.00">_registry::destroy</text>
</a>
</g>
</g>
<!-- Node2&#45;&gt;Node3 -->
<g id="edge2" class="edge"><title>Node2&#45;&gt;Node3</title>
<path fill="none" stroke="midnightblue" d="M283.672,-54C292.155,-54 300.844,-54 309.326,-54"/>
<polygon fill="midnightblue" stroke="midnightblue" points="309.544,-57.5001 319.544,-54 309.544,-50.5001 309.544,-57.5001"/>
</g>
</g>
</svg>
