<?xml version="1.0" encoding="UTF-8" standalone="no"?>
<!DOCTYPE svg PUBLIC "-//W3C//DTD SVG 1.1//EN"
 "http://www.w3.org/Graphics/SVG/1.1/DTD/svg11.dtd">
<!-- Generated by graphviz version 2.26.0 (20091210.2329)
 -->
<!-- Title: AHBMem::exec_func Pages: 1 -->
<svg width="614pt" height="70pt"
 viewBox="0.00 0.00 614.00 70.00" xmlns="http://www.w3.org/2000/svg" xmlns:xlink="http://www.w3.org/1999/xlink">
<g id="graph1" class="graph" transform="scale(1 1) rotate(0) translate(4 66)">
<title>AHBMem::exec_func</title>
<polygon fill="white" stroke="white" points="-4,5 -4,-66 611,-66 611,5 -4,5"/>
<!-- Node1 -->
<g id="node1" class="node"><title>Node1</title>
<polygon fill="#bfbfbf" stroke="black" points="0,-20.5 0,-41.5 110,-41.5 110,-20.5 0,-20.5"/>
<text text-anchor="middle" x="55" y="-28.5" font-family="Helvetica,sans-Serif" font-size="10.00">AHBMem::exec_func</text>
</g>
<!-- Node2 -->
<g id="node3" class="node"><title>Node2</title>
<a xlink:href="group__memory.html#ga78eea895362a7910ef574cf2113930a9" target="_top" xlink:title="BaseMemory::read_block">
<polygon fill="white" stroke="black" points="147,-40.5 147,-61.5 275,-61.5 275,-40.5 147,-40.5"/>
<text text-anchor="middle" x="211" y="-48.5" font-family="Helvetica,sans-Serif" font-size="10.00">BaseMemory::read_block</text>
</a>
</g>
<!-- Node1&#45;&gt;Node2 -->
<g id="edge2" class="edge"><title>Node1&#45;&gt;Node2</title>
<path fill="none" stroke="midnightblue" d="M110.439,-38.1076C119.029,-39.2088 128.018,-40.3613 136.939,-41.505"/>
<polygon fill="midnightblue" stroke="midnightblue" points="136.592,-44.9891 146.956,-42.7893 137.482,-38.0459 136.592,-44.9891"/>
</g>
<!-- Node5 -->
<g id="node9" class="node"><title>Node5</title>
<a xlink:href="group__memory.html#gab74fd93ce3d05e891b684489ef76881c" target="_top" xlink:title="BaseMemory::write_block">
<polygon fill="white" stroke="black" points="146,-0.5 146,-21.5 276,-21.5 276,-0.5 146,-0.5"/>
<text text-anchor="middle" x="211" y="-8.5" font-family="Helvetica,sans-Serif" font-size="10.00">BaseMemory::write_block</text>
</a>
</g>
<!-- Node1&#45;&gt;Node5 -->
<g id="edge8" class="edge"><title>Node1&#45;&gt;Node5</title>
<path fill="none" stroke="midnightblue" d="M110.439,-23.8924C118.685,-22.8353 127.299,-21.7309 135.866,-20.6325"/>
<polygon fill="midnightblue" stroke="midnightblue" points="136.404,-24.0923 145.878,-19.349 135.514,-17.1491 136.404,-24.0923"/>
</g>
<!-- Node3 -->
<g id="node5" class="node"><title>Node3</title>
<a xlink:href="group__memory.html#gad63996f7ed8fca5197a47b7710b1d55c" target="_top" xlink:title="BaseMemory::read_block_dbg">
<polygon fill="white" stroke="black" points="313.5,-40.5 313.5,-61.5 462.5,-61.5 462.5,-40.5 313.5,-40.5"/>
<text text-anchor="middle" x="388" y="-48.5" font-family="Helvetica,sans-Serif" font-size="10.00">BaseMemory::read_block_dbg</text>
</a>
</g>
<!-- Node2&#45;&gt;Node3 -->
<g id="edge4" class="edge"><title>Node2&#45;&gt;Node3</title>
<path fill="none" stroke="midnightblue" d="M275.151,-51C284.233,-51 293.686,-51 303.085,-51"/>
<polygon fill="midnightblue" stroke="midnightblue" points="303.242,-54.5001 313.242,-51 303.242,-47.5001 303.242,-54.5001"/>
</g>
<!-- Node4 -->
<g id="node7" class="node"><title>Node4</title>
<a xlink:href="classStorage.html#a6c83e9cda63966dc65b1aefcb31e8f43" target="_top" xlink:title="Storage::read_block">
<polygon fill="white" stroke="black" points="501,-40.5 501,-61.5 605,-61.5 605,-40.5 501,-40.5"/>
<text text-anchor="middle" x="553" y="-48.5" font-family="Helvetica,sans-Serif" font-size="10.00">Storage::read_block</text>
</a>
</g>
<!-- Node3&#45;&gt;Node4 -->
<g id="edge6" class="edge"><title>Node3&#45;&gt;Node4</title>
<path fill="none" stroke="midnightblue" d="M462.776,-51C472.069,-51 481.493,-51 490.573,-51"/>
<polygon fill="midnightblue" stroke="midnightblue" points="490.651,-54.5001 500.651,-51 490.651,-47.5001 490.651,-54.5001"/>
</g>
<!-- Node6 -->
<g id="node11" class="node"><title>Node6</title>
<a xlink:href="group__memory.html#ga724b49aea970f1e4dee15c5ff572ce40" target="_top" xlink:title="BaseMemory::write_block_dbg">
<polygon fill="white" stroke="black" points="312.5,-0.5 312.5,-21.5 463.5,-21.5 463.5,-0.5 312.5,-0.5"/>
<text text-anchor="middle" x="388" y="-8.5" font-family="Helvetica,sans-Serif" font-size="10.00">BaseMemory::write_block_dbg</text>
</a>
</g>
<!-- Node5&#45;&gt;Node6 -->
<g id="edge10" class="edge"><title>Node5&#45;&gt;Node6</title>
<path fill="none" stroke="midnightblue" d="M276.154,-11C284.585,-11 293.32,-11 302.023,-11"/>
<polygon fill="midnightblue" stroke="midnightblue" points="302.204,-14.5001 312.204,-11 302.204,-7.5001 302.204,-14.5001"/>
</g>
<!-- Node7 -->
<g id="node13" class="node"><title>Node7</title>
<a xlink:href="classStorage.html#a391102341dd513ec89290eff8407c3d5" target="_top" xlink:title="Storage::write_block">
<polygon fill="white" stroke="black" points="500,-0.5 500,-21.5 606,-21.5 606,-0.5 500,-0.5"/>
<text text-anchor="middle" x="553" y="-8.5" font-family="Helvetica,sans-Serif" font-size="10.00">Storage::write_block</text>
</a>
</g>
<!-- Node6&#45;&gt;Node7 -->
<g id="edge12" class="edge"><title>Node6&#45;&gt;Node7</title>
<path fill="none" stroke="midnightblue" d="M463.739,-11C472.412,-11 481.186,-11 489.672,-11"/>
<polygon fill="midnightblue" stroke="midnightblue" points="489.856,-14.5001 499.856,-11 489.856,-7.5001 489.856,-14.5001"/>
</g>
</g>
</svg>
