<?xml version="1.0" encoding="UTF-8" standalone="no"?>
<!DOCTYPE svg PUBLIC "-//W3C//DTD SVG 1.1//EN"
 "http://www.w3.org/Graphics/SVG/1.1/DTD/svg11.dtd">
<!-- Generated by graphviz version 2.26.0 (20091210.2329)
 -->
<!-- Title: APBCtrl::exec_func Pages: 1 -->
<svg width="442pt" height="122pt"
 viewBox="0.00 0.00 442.00 122.00" xmlns="http://www.w3.org/2000/svg" xmlns:xlink="http://www.w3.org/1999/xlink">
<g id="graph1" class="graph" transform="scale(1 1) rotate(0) translate(4 118)">
<title>APBCtrl::exec_func</title>
<polygon fill="white" stroke="white" points="-4,5 -4,-118 439,-118 439,5 -4,5"/>
<!-- Node1 -->
<g id="node1" class="node"><title>Node1</title>
<polygon fill="#bfbfbf" stroke="black" points="0,-52.5 0,-73.5 104,-73.5 104,-52.5 0,-52.5"/>
<text text-anchor="middle" x="52" y="-60.5" font-family="Helvetica,sans-Serif" font-size="10.00">APBCtrl::exec_func</text>
</g>
<!-- Node2 -->
<g id="node3" class="node"><title>Node2</title>
<a xlink:href="group__apbctrl.html#ga4161d40d53d042a08ca9de52d250230b" target="_top" xlink:title="Get slave index for a given address. ">
<polygon fill="white" stroke="black" points="152.5,-92.5 152.5,-113.5 253.5,-113.5 253.5,-92.5 152.5,-92.5"/>
<text text-anchor="middle" x="203" y="-100.5" font-family="Helvetica,sans-Serif" font-size="10.00">APBCtrl::get_index</text>
</a>
</g>
<!-- Node1&#45;&gt;Node2 -->
<g id="edge2" class="edge"><title>Node1&#45;&gt;Node2</title>
<path fill="none" stroke="midnightblue" d="M91.6735,-73.5095C110.585,-78.5193 133.402,-84.5634 153.442,-89.8721"/>
<polygon fill="midnightblue" stroke="midnightblue" points="152.767,-93.3138 163.33,-92.4913 154.559,-86.5472 152.767,-93.3138"/>
</g>
<!-- Node3 -->
<g id="node5" class="node"><title>Node3</title>
<a xlink:href="group__apbctrl.html#ga0526b9a9d4259d84d11018c5a91a9855" target="_top" xlink:title="Returns a PNP register from the APB configuration area (upper 4kb of address space) ...">
<polygon fill="white" stroke="black" points="147.5,-52.5 147.5,-73.5 258.5,-73.5 258.5,-52.5 147.5,-52.5"/>
<text text-anchor="middle" x="203" y="-60.5" font-family="Helvetica,sans-Serif" font-size="10.00">APBCtrl::getPNPReg</text>
</a>
</g>
<!-- Node1&#45;&gt;Node3 -->
<g id="edge4" class="edge"><title>Node1&#45;&gt;Node3</title>
<path fill="none" stroke="midnightblue" d="M104.389,-63C115.019,-63 126.326,-63 137.348,-63"/>
<polygon fill="midnightblue" stroke="midnightblue" points="137.362,-66.5001 147.362,-63 137.362,-59.5001 137.362,-66.5001"/>
</g>
<!-- Node6 -->
<g id="node11" class="node"><title>Node6</title>
<a xlink:href="classAHBSlave.html#a19f0d3b6df6c0447959c131af3421a88" target="_top" xlink:title="Collect common transport statistics. ">
<polygon fill="white" stroke="black" points="140.5,-0 140.5,-34 265.5,-34 265.5,-0 140.5,-0"/>
<text text-anchor="start" x="148.5" y="-21" font-family="Helvetica,sans-Serif" font-size="10.00">AHBSlave&lt; DefaultBase</text>
<text text-anchor="middle" x="203" y="-8" font-family="Helvetica,sans-Serif" font-size="10.00"> &gt;::transport_statistics</text>
</a>
</g>
<!-- Node1&#45;&gt;Node6 -->
<g id="edge10" class="edge"><title>Node1&#45;&gt;Node6</title>
<path fill="none" stroke="midnightblue" d="M86.6425,-52.4467C101.703,-47.8587 119.868,-42.3251 137.32,-37.0085"/>
<polygon fill="midnightblue" stroke="midnightblue" points="138.372,-40.3468 146.918,-34.0845 136.332,-33.6506 138.372,-40.3468"/>
</g>
<!-- Node4 -->
<g id="node7" class="node"><title>Node4</title>
<a xlink:href="classAHBDevice.html#ad14d81f6bf16834857581de7c61c65d6" target="_top" xlink:title="AHBDevice\&lt; DefaultBase\l \&gt;::get_ahb_bar_addr">
<polygon fill="white" stroke="black" points="302.5,-69 302.5,-103 433.5,-103 433.5,-69 302.5,-69"/>
<text text-anchor="start" x="310.5" y="-90" font-family="Helvetica,sans-Serif" font-size="10.00">AHBDevice&lt; DefaultBase</text>
<text text-anchor="middle" x="368" y="-77" font-family="Helvetica,sans-Serif" font-size="10.00"> &gt;::get_ahb_bar_addr</text>
</a>
</g>
<!-- Node3&#45;&gt;Node4 -->
<g id="edge6" class="edge"><title>Node3&#45;&gt;Node4</title>
<path fill="none" stroke="midnightblue" d="M258.861,-70.7868C269.527,-72.2734 280.858,-73.8529 292.028,-75.4099"/>
<polygon fill="midnightblue" stroke="midnightblue" points="291.83,-78.9161 302.217,-76.8303 292.796,-71.9831 291.83,-78.9161"/>
</g>
<!-- Node5 -->
<g id="node9" class="node"><title>Node5</title>
<a xlink:href="group__common.html#ga2e70f90e04ee467d36debee5245ead91" target="_top" xlink:title="swap_Endianess">
<polygon fill="white" stroke="black" points="322.5,-29.5 322.5,-50.5 413.5,-50.5 413.5,-29.5 322.5,-29.5"/>
<text text-anchor="middle" x="368" y="-37.5" font-family="Helvetica,sans-Serif" font-size="10.00">swap_Endianess</text>
</a>
</g>
<!-- Node3&#45;&gt;Node5 -->
<g id="edge8" class="edge"><title>Node3&#45;&gt;Node5</title>
<path fill="none" stroke="midnightblue" d="M258.861,-55.2132C276.133,-52.8057 295.15,-50.1548 312.404,-47.7497"/>
<polygon fill="midnightblue" stroke="midnightblue" points="312.912,-51.2129 322.333,-46.3657 311.945,-44.2799 312.912,-51.2129"/>
</g>
</g>
</svg>
