<?xml version="1.0" encoding="UTF-8" standalone="no"?>
<!DOCTYPE svg PUBLIC "-//W3C//DTD SVG 1.1//EN"
 "http://www.w3.org/Graphics/SVG/1.1/DTD/svg11.dtd">
<!-- Generated by graphviz version 2.26.0 (20091210.2329)
 -->
<!-- Title: mmu_cache_base::exec_instr Pages: 1 -->
<svg width="274pt" height="70pt"
 viewBox="0.00 0.00 274.00 70.00" xmlns="http://www.w3.org/2000/svg" xmlns:xlink="http://www.w3.org/1999/xlink">
<g id="graph1" class="graph" transform="scale(1 1) rotate(0) translate(4 66)">
<title>mmu_cache_base::exec_instr</title>
<polygon fill="white" stroke="white" points="-4,5 -4,-66 271,-66 271,5 -4,5"/>
<!-- Node1 -->
<g id="node1" class="node"><title>Node1</title>
<polygon fill="#bfbfbf" stroke="black" points="0.5,-14 0.5,-48 123.5,-48 123.5,-14 0.5,-14"/>
<text text-anchor="start" x="8.5" y="-35" font-family="Helvetica,sans-Serif" font-size="10.00">mmu_cache_base::exec</text>
<text text-anchor="middle" x="62" y="-22" font-family="Helvetica,sans-Serif" font-size="10.00">_instr</text>
</g>
<!-- Node2 -->
<g id="node3" class="node"><title>Node2</title>
<a xlink:href="classmem__if.html#aa4c431846b1d11708be4128f84295c6c" target="_top" xlink:title="mem_if::mem_read">
<polygon fill="white" stroke="black" points="162.5,-40.5 162.5,-61.5 263.5,-61.5 263.5,-40.5 162.5,-40.5"/>
<text text-anchor="middle" x="213" y="-48.5" font-family="Helvetica,sans-Serif" font-size="10.00">mem_if::mem_read</text>
</a>
</g>
<!-- Node1&#45;&gt;Node2 -->
<g id="edge2" class="edge"><title>Node1&#45;&gt;Node2</title>
<path fill="none" stroke="midnightblue" d="M123.853,-39.1925C133.184,-40.4283 142.802,-41.7023 152.112,-42.9354"/>
<polygon fill="midnightblue" stroke="midnightblue" points="151.693,-46.4103 162.066,-44.2537 152.612,-39.4709 151.693,-46.4103"/>
</g>
<!-- Node3 -->
<g id="node5" class="node"><title>Node3</title>
<a xlink:href="group__mmu__cache.html#gab3016821c0179ce6b85559aa2cc074d3" target="_top" xlink:title="Read from scratchpad. ">
<polygon fill="white" stroke="black" points="160.5,-0.5 160.5,-21.5 265.5,-21.5 265.5,-0.5 160.5,-0.5"/>
<text text-anchor="middle" x="213" y="-8.5" font-family="Helvetica,sans-Serif" font-size="10.00">localram::mem_read</text>
</a>
</g>
<!-- Node1&#45;&gt;Node3 -->
<g id="edge4" class="edge"><title>Node1&#45;&gt;Node3</title>
<path fill="none" stroke="midnightblue" d="M123.853,-22.8075C132.517,-21.66 141.429,-20.4796 150.112,-19.3296"/>
<polygon fill="midnightblue" stroke="midnightblue" points="150.717,-22.78 160.171,-17.9972 149.798,-15.8406 150.717,-22.78"/>
</g>
</g>
</svg>
