<?xml version="1.0" encoding="UTF-8" standalone="no"?>
<!DOCTYPE svg PUBLIC "-//W3C//DTD SVG 1.1//EN"
 "http://www.w3.org/Graphics/SVG/1.1/DTD/svg11.dtd">
<!-- Generated by graphviz version 2.38.0 (20140413.2041)
 -->
<!-- Title: AHBIn::AHBIn Pages: 1 -->
<svg width="400pt" height="69pt"
 viewBox="0.00 0.00 399.50 69.00" xmlns="http://www.w3.org/2000/svg" xmlns:xlink="http://www.w3.org/1999/xlink">
<g id="graph0" class="graph" transform="scale(1 1) rotate(0) translate(4 65)">
<title>AHBIn::AHBIn</title>
<polygon fill="white" stroke="none" points="-4,4 -4,-65 395.504,-65 395.504,4 -4,4"/>
<!-- Node1 -->
<g id="node1" class="node"><title>Node1</title>
<polygon fill="#bfbfbf" stroke="black" points="0,-23.5 0,-41.5 79.3594,-41.5 79.3594,-23.5 0,-23.5"/>
<text text-anchor="middle" x="39.6797" y="-29.5" font-family="Helvetica,sans-Serif" font-size="10.00">AHBIn::AHBIn</text>
</g>
<!-- Node2 -->
<g id="node2" class="node"><title>Node2</title>
<g id="a_node2"><a xlink:href="group__ahbin.html#ga44dd8f1bce3c1e681ce258c0fd8e1ff3" target="_top" xlink:title="Thread for triggering gen_frame (generates new_frame event) ">
<polygon fill="white" stroke="black" points="115.359,-42.5 115.359,-60.5 225.285,-60.5 225.285,-42.5 115.359,-42.5"/>
<text text-anchor="middle" x="170.322" y="-48.5" font-family="Helvetica,sans-Serif" font-size="10.00">AHBIn::frame_trigger</text>
</a>
</g>
</g>
<!-- Node1&#45;&gt;Node2 -->
<g id="edge1" class="edge"><title>Node1&#45;&gt;Node2</title>
<path fill="none" stroke="midnightblue" d="M79.6258,-38.2522C87.7928,-39.4584 96.6097,-40.7606 105.416,-42.0613"/>
<polygon fill="midnightblue" stroke="midnightblue" points="104.915,-45.5253 115.32,-43.524 105.938,-38.6004 104.915,-45.5253"/>
</g>
<!-- Node3 -->
<g id="node3" class="node"><title>Node3</title>
<g id="a_node3"><a xlink:href="group__ahbin.html#ga1299df9f2abb2e5dca73171fabcbb22d" target="_top" xlink:title="Thread for generating the data frame. ">
<polygon fill="white" stroke="black" points="121.189,-5.5 121.189,-23.5 219.455,-23.5 219.455,-5.5 121.189,-5.5"/>
<text text-anchor="middle" x="170.322" y="-11.5" font-family="Helvetica,sans-Serif" font-size="10.00">AHBIn::gen_frame</text>
</a>
</g>
</g>
<!-- Node1&#45;&gt;Node3 -->
<g id="edge2" class="edge"><title>Node1&#45;&gt;Node3</title>
<path fill="none" stroke="midnightblue" d="M79.6258,-27.0506C89.489,-25.6705 100.3,-24.1577 110.896,-22.6751"/>
<polygon fill="midnightblue" stroke="midnightblue" points="111.533,-26.1202 120.951,-21.2682 110.563,-19.1877 111.533,-26.1202"/>
</g>
<!-- Node4 -->
<g id="node4" class="node"><title>Node4</title>
<g id="a_node4"><a xlink:href="classAHBMaster.html#a3ea461ba0161c12ee8282176275de23d" target="_top" xlink:title="Write data to AHB (SC_ZERO_TIME version) ">
<polygon fill="white" stroke="black" points="261.285,-0.5 261.285,-28.5 391.504,-28.5 391.504,-0.5 261.285,-0.5"/>
<text text-anchor="start" x="269.285" y="-16.5" font-family="Helvetica,sans-Serif" font-size="10.00">AHBMaster&lt; DefaultBase</text>
<text text-anchor="middle" x="326.395" y="-6.5" font-family="Helvetica,sans-Serif" font-size="10.00"> &gt;::ahbwrite</text>
</a>
</g>
</g>
<!-- Node3&#45;&gt;Node4 -->
<g id="edge3" class="edge"><title>Node3&#45;&gt;Node4</title>
<path fill="none" stroke="midnightblue" d="M219.649,-14.5C229.614,-14.5 240.326,-14.5 250.972,-14.5"/>
<polygon fill="midnightblue" stroke="midnightblue" points="251.132,-18.0001 261.132,-14.5 251.132,-11.0001 251.132,-18.0001"/>
</g>
</g>
</svg>
