<?xml version="1.0" encoding="UTF-8" standalone="no"?>
<!DOCTYPE svg PUBLIC "-//W3C//DTD SVG 1.1//EN"
 "http://www.w3.org/Graphics/SVG/1.1/DTD/svg11.dtd">
<!-- Generated by graphviz version 2.36.0 (20140111.2315)
 -->
<!-- Title: vectorcache::snoop_invalidate Pages: 1 -->
<svg width="278pt" height="218pt"
 viewBox="0.00 0.00 278.00 218.00" xmlns="http://www.w3.org/2000/svg" xmlns:xlink="http://www.w3.org/1999/xlink">
<g id="graph0" class="graph" transform="scale(1 1) rotate(0) translate(4 214)">
<title>vectorcache::snoop_invalidate</title>
<polygon fill="white" stroke="none" points="-4,4 -4,-214 274,-214 274,4 -4,4"/>
<!-- Node1 -->
<g id="node1" class="node"><title>Node1</title>
<polygon fill="#bfbfbf" stroke="black" points="0,-90 0,-120 102,-120 102,-90 0,-90"/>
<text text-anchor="start" x="8" y="-108" font-family="Helvetica,sans-Serif" font-size="10.00">vectorcache::snoop</text>
<text text-anchor="middle" x="51" y="-97" font-family="Helvetica,sans-Serif" font-size="10.00">_invalidate</text>
</g>
<!-- Node2 -->
<g id="node2" class="node"><title>Node2</title>
<g id="a_node2"><a xlink:href="classvectorcache.html#a355702396c8483272345a7cce77ff3aa" target="_top" xlink:title="Returns the mode bits of the cache. ">
<polygon fill="white" stroke="black" points="138.5,-190.5 138.5,-209.5 269.5,-209.5 269.5,-190.5 138.5,-190.5"/>
<text text-anchor="middle" x="204" y="-197.5" font-family="Helvetica,sans-Serif" font-size="10.00">vectorcache::check_mode</text>
</a>
</g>
</g>
<!-- Node1&#45;&gt;Node2 -->
<g id="edge1" class="edge"><title>Node1&#45;&gt;Node2</title>
<path fill="none" stroke="midnightblue" d="M65.1093,-120.036C80.8116,-137.154 108.689,-164.832 138,-181 141.988,-183.2 146.257,-185.168 150.63,-186.926"/>
<polygon fill="midnightblue" stroke="midnightblue" points="149.711,-190.316 160.305,-190.444 152.103,-183.737 149.711,-190.316"/>
</g>
<!-- Node3 -->
<g id="node3" class="node"><title>Node3</title>
<g id="a_node3"><a xlink:href="classvectorcache.html#a0f8408c83f6d5d40e668a563aa488491" target="_top" xlink:title="vectorcache::get_idx">
<polygon fill="white" stroke="black" points="150.5,-152.5 150.5,-171.5 257.5,-171.5 257.5,-152.5 150.5,-152.5"/>
<text text-anchor="middle" x="204" y="-159.5" font-family="Helvetica,sans-Serif" font-size="10.00">vectorcache::get_idx</text>
</a>
</g>
</g>
<!-- Node1&#45;&gt;Node3 -->
<g id="edge2" class="edge"><title>Node1&#45;&gt;Node3</title>
<path fill="none" stroke="midnightblue" d="M83.4482,-120.089C99.5549,-127.51 119.601,-136.279 138,-143 144.307,-145.304 151.034,-147.525 157.681,-149.586"/>
<polygon fill="midnightblue" stroke="midnightblue" points="156.719,-152.952 167.304,-152.483 158.737,-146.249 156.719,-152.952"/>
</g>
<!-- Node4 -->
<g id="node4" class="node"><title>Node4</title>
<g id="a_node4"><a xlink:href="classvectorcache.html#af89554cdbd5690a2e74f1ba6328ad519" target="_top" xlink:title="vectorcache::get_offset">
<polygon fill="white" stroke="black" points="144.5,-114.5 144.5,-133.5 263.5,-133.5 263.5,-114.5 144.5,-114.5"/>
<text text-anchor="middle" x="204" y="-121.5" font-family="Helvetica,sans-Serif" font-size="10.00">vectorcache::get_offset</text>
</a>
</g>
</g>
<!-- Node1&#45;&gt;Node4 -->
<g id="edge3" class="edge"><title>Node1&#45;&gt;Node4</title>
<path fill="none" stroke="midnightblue" d="M102.281,-111.327C112.488,-112.611 123.39,-113.983 134.113,-115.332"/>
<polygon fill="midnightblue" stroke="midnightblue" points="133.952,-118.839 144.31,-116.615 134.826,-111.894 133.952,-118.839"/>
</g>
<!-- Node5 -->
<g id="node5" class="node"><title>Node5</title>
<g id="a_node5"><a xlink:href="classvectorcache.html#a8e9512157d817a5e027abca1a6a02332" target="_top" xlink:title="Address parsing one&#45;liners. ">
<polygon fill="white" stroke="black" points="150,-76.5 150,-95.5 258,-95.5 258,-76.5 150,-76.5"/>
<text text-anchor="middle" x="204" y="-83.5" font-family="Helvetica,sans-Serif" font-size="10.00">vectorcache::get_tag</text>
</a>
</g>
</g>
<!-- Node1&#45;&gt;Node5 -->
<g id="edge4" class="edge"><title>Node1&#45;&gt;Node5</title>
<path fill="none" stroke="midnightblue" d="M102.281,-98.6733C114.331,-97.1571 127.349,-95.519 139.897,-93.9401"/>
<polygon fill="midnightblue" stroke="midnightblue" points="140.348,-97.4111 149.833,-92.6899 139.474,-90.4658 140.348,-97.4111"/>
</g>
<!-- Node6 -->
<g id="node6" class="node"><title>Node6</title>
<g id="a_node6"><a xlink:href="classvectorcache.html#a827b3080bda9e542b473d95b693e3129" target="_top" xlink:title="vectorcache::lookup_line">
<polygon fill="white" stroke="black" points="141.5,-38.5 141.5,-57.5 266.5,-57.5 266.5,-38.5 141.5,-38.5"/>
<text text-anchor="middle" x="204" y="-45.5" font-family="Helvetica,sans-Serif" font-size="10.00">vectorcache::lookup_line</text>
</a>
</g>
</g>
<!-- Node1&#45;&gt;Node6 -->
<g id="edge5" class="edge"><title>Node1&#45;&gt;Node6</title>
<path fill="none" stroke="midnightblue" d="M83.4482,-89.9114C99.5549,-82.4904 119.601,-73.7207 138,-67 144.307,-64.6963 151.034,-62.4748 157.681,-60.4136"/>
<polygon fill="midnightblue" stroke="midnightblue" points="158.737,-63.7511 167.304,-57.5174 156.719,-57.0481 158.737,-63.7511"/>
</g>
<!-- Node7 -->
<g id="node7" class="node"><title>Node7</title>
<g id="a_node7"><a xlink:href="group__mmu__cache.html#ga78e27913668aee0364241d782f754461" target="_top" xlink:title="Transforms a cache&#45;line offset into a valid mask. ">
<polygon fill="white" stroke="black" points="141,-0.5 141,-19.5 267,-19.5 267,-0.5 141,-0.5"/>
<text text-anchor="middle" x="204" y="-7.5" font-family="Helvetica,sans-Serif" font-size="10.00">vectorcache::offset2valid</text>
</a>
</g>
</g>
<!-- Node1&#45;&gt;Node7 -->
<g id="edge6" class="edge"><title>Node1&#45;&gt;Node7</title>
<path fill="none" stroke="midnightblue" d="M65.1093,-89.964C80.8116,-72.8458 108.689,-45.1678 138,-29 141.988,-26.8005 146.257,-24.8316 150.63,-23.0739"/>
<polygon fill="midnightblue" stroke="midnightblue" points="152.103,-26.2626 160.305,-19.5557 149.711,-19.6841 152.103,-26.2626"/>
</g>
</g>
</svg>
