<?xml version="1.0" encoding="UTF-8" standalone="no"?>
<!DOCTYPE svg PUBLIC "-//W3C//DTD SVG 1.1//EN"
 "http://www.w3.org/Graphics/SVG/1.1/DTD/svg11.dtd">
<!-- Generated by graphviz version 2.26.0 (20091210.2329)
 -->
<!-- Title: Memory::Memory Pages: 1 -->
<!--zoomable 258 -->
<svg id="main" version="1.1" xmlns="http://www.w3.org/2000/svg" xmlns:xlink="http://www.w3.org/1999/xlink" xml:space="preserve" onload="init(evt)">
<style type="text/css"><![CDATA[
.edge:hover path { stroke: red; }
.edge:hover polygon { stroke: red; fill: red; }
]]></style>
<script type="text/javascript"><![CDATA[
var edges = document.getElementsByTagName('g');
if (edges && edges.length) {
  for (var i=0;i<edges.length;i++) {
    if (edges[i].id.substr(0,4)=='edge') {
      edges[i].setAttribute('class','edge');
    }
  }
}
]]></script>
        <defs>
                <circle id="rim" cx="0" cy="0" r="7"/>
                <circle id="rim2" cx="0" cy="0" r="3.5"/>
                <g id="zoomPlus">
                        <use xlink:href="#rim" fill="#404040">
                                <set attributeName="fill" to="#808080" begin="zoomplus.mouseover" end="zoomplus.mouseout"/>
                        </use>
                        <path d="M-4,0h8M0,-4v8" fill="none" stroke="white" stroke-width="1.5" pointer-events="none"/>
                </g>
                <g id="zoomMin">
                        <use xlink:href="#rim" fill="#404040">
                                <set attributeName="fill" to="#808080" begin="zoomminus.mouseover" end="zoomminus.mouseout"/>
                        </use>
                        <path d="M-4,0h8" fill="none" stroke="white" stroke-width="1.5" pointer-events="none"/>
                </g>
                <g id="dirArrow">
                        <path fill="none" stroke="white" stroke-width="1.5" d="M0,-3.0v7 M-2.5,-0.5L0,-3.0L2.5,-0.5"/>
                </g>
               <g id="resetDef">
                       <use xlink:href="#rim2" fill="#404040">
                               <set attributeName="fill" to="#808080" begin="reset.mouseover" end="reset.mouseout"/>
                       </use>
               </g>
        </defs>

<script type="text/javascript">
var viewWidth = 778;
var viewHeight = 258;
var sectionId = 'dynsection-5';
</script>
<script xlink:href="svgpan.js"/>
<svg id="graph" class="graph">
<g id="viewport">
<title>Memory::Memory</title>
<polygon fill="white" stroke="white" points="-4,5 -4,-254 775,-254 775,5 -4,5"/>
<!-- Node1 -->
<g id="node1" class="node"><title>Node1</title>
<polygon fill="#bfbfbf" stroke="black" points="0.5,-80.5 0.5,-101.5 93.5,-101.5 93.5,-80.5 0.5,-80.5"/>
<text text-anchor="middle" x="47" y="-88.5" font-family="Helvetica,sans-Serif" font-size="10.00">Memory::Memory</text>
</g>
<!-- Node2 -->
<g id="node3" class="node"><title>Node2</title>
<a xlink:href="group__memory.html#ga19a51282cc8fb4953d0106f020d47693" target="_top" xlink:title="TLM 2.0 blocking transport function. ">
<polygon fill="white" stroke="black" points="148.5,-178.5 148.5,-199.5 255.5,-199.5 255.5,-178.5 148.5,-178.5"/>
<text text-anchor="middle" x="202" y="-186.5" font-family="Helvetica,sans-Serif" font-size="10.00">Memory::b_transport</text>
</a>
</g>
<!-- Node1&#45;&gt;Node2 -->
<g id="edge2" class="edge"><title>Node1&#45;&gt;Node2</title>
<path fill="none" stroke="midnightblue" d="M63.5052,-101.606C80.2332,-112.339 106.873,-129.39 130,-144 145.436,-153.752 162.791,-164.602 176.594,-173.205"/>
<polygon fill="midnightblue" stroke="midnightblue" points="174.757,-176.184 185.096,-178.499 178.457,-170.242 174.757,-176.184"/>
</g>
<!-- Node12 -->
<g id="node23" class="node"><title>Node12</title>
<a xlink:href="group__utils.html#gae4cd1ea083f4e18b17f8c5392a2e84b5" target="_top" xlink:title="Return the device type name. ">
<polygon fill="white" stroke="black" points="130.5,-80.5 130.5,-101.5 273.5,-101.5 273.5,-80.5 130.5,-80.5"/>
<text text-anchor="middle" x="202" y="-88.5" font-family="Helvetica,sans-Serif" font-size="10.00">MEMDevice::get_type_name</text>
</a>
</g>
<!-- Node1&#45;&gt;Node12 -->
<g id="edge22" class="edge"><title>Node1&#45;&gt;Node12</title>
<path fill="none" stroke="midnightblue" d="M93.5051,-91C101.928,-91 110.935,-91 120.025,-91"/>
<polygon fill="midnightblue" stroke="midnightblue" points="120.296,-94.5001 130.296,-91 120.296,-87.5001 120.296,-94.5001"/>
</g>
<!-- Node13 -->
<g id="node25" class="node"><title>Node13</title>
<a xlink:href="group__memory.html#ga25bbd982ce25f88591cee448a19df215" target="_top" xlink:title="read counter callback ">
<polygon fill="white" stroke="black" points="146.5,-40.5 146.5,-61.5 257.5,-61.5 257.5,-40.5 146.5,-40.5"/>
<text text-anchor="middle" x="202" y="-48.5" font-family="Helvetica,sans-Serif" font-size="10.00">Memory::m_reads_cb</text>
</a>
</g>
<!-- Node1&#45;&gt;Node13 -->
<g id="edge24" class="edge"><title>Node1&#45;&gt;Node13</title>
<path fill="none" stroke="midnightblue" d="M87.7244,-80.4905C107.226,-75.4578 130.772,-69.3814 151.411,-64.0552"/>
<polygon fill="midnightblue" stroke="midnightblue" points="152.471,-67.3965 161.279,-61.5087 150.721,-60.6186 152.471,-67.3965"/>
</g>
<!-- Node14 -->
<g id="node27" class="node"><title>Node14</title>
<a xlink:href="group__memory.html#gac774160f894d6a5537d9216894459c41" target="_top" xlink:title="write counter callback ">
<polygon fill="white" stroke="black" points="145.5,-0.5 145.5,-21.5 258.5,-21.5 258.5,-0.5 145.5,-0.5"/>
<text text-anchor="middle" x="202" y="-8.5" font-family="Helvetica,sans-Serif" font-size="10.00">Memory::m_writes_cb</text>
</a>
</g>
<!-- Node1&#45;&gt;Node14 -->
<g id="edge26" class="edge"><title>Node1&#45;&gt;Node14</title>
<path fill="none" stroke="midnightblue" d="M58.7756,-80.3742C74.1215,-67.0486 102.281,-44.3363 130,-31 134.702,-28.7378 139.703,-26.6928 144.794,-24.8526"/>
<polygon fill="midnightblue" stroke="midnightblue" points="146.265,-28.0516 154.64,-21.5628 144.046,-21.4124 146.265,-28.0516"/>
</g>
<!-- Node15 -->
<g id="node29" class="node"><title>Node15</title>
<a xlink:href="group__memory.html#ga3725e76629e72235b5df442d5cc810b6" target="_top" xlink:title="TLM 2.0 debug transport function. ">
<polygon fill="white" stroke="black" points="316.5,-108.5 316.5,-129.5 433.5,-129.5 433.5,-108.5 316.5,-108.5"/>
<text text-anchor="middle" x="375" y="-116.5" font-family="Helvetica,sans-Serif" font-size="10.00">Memory::transport_dbg</text>
</a>
</g>
<!-- Node1&#45;&gt;Node15 -->
<g id="edge28" class="edge"><title>Node1&#45;&gt;Node15</title>
<path fill="none" stroke="midnightblue" d="M83.8792,-101.593C98.1618,-105.244 114.724,-108.932 130,-111 189.058,-118.995 256.817,-120.637 306.085,-120.484"/>
<polygon fill="midnightblue" stroke="midnightblue" points="306.328,-123.982 316.308,-120.426 306.288,-116.983 306.328,-123.982"/>
</g>
<!-- Node3 -->
<g id="node5" class="node"><title>Node3</title>
<a xlink:href="group__memory.html#ga12a3f33c6f6a387750ac84bc67e22be6" target="_top" xlink:title="BaseMemory::erase">
<polygon fill="white" stroke="black" points="323,-228.5 323,-249.5 427,-249.5 427,-228.5 323,-228.5"/>
<text text-anchor="middle" x="375" y="-236.5" font-family="Helvetica,sans-Serif" font-size="10.00">BaseMemory::erase</text>
</a>
</g>
<!-- Node2&#45;&gt;Node3 -->
<g id="edge4" class="edge"><title>Node2&#45;&gt;Node3</title>
<path fill="none" stroke="midnightblue" d="M238.689,-199.604C265.04,-207.22 300.746,-217.539 329.004,-225.706"/>
<polygon fill="midnightblue" stroke="midnightblue" points="328.082,-229.083 338.661,-228.497 330.026,-222.358 328.082,-229.083"/>
</g>
<!-- Node6 -->
<g id="node11" class="node"><title>Node6</title>
<a xlink:href="group__memory.html#ga78eea895362a7910ef574cf2113930a9" target="_top" xlink:title="BaseMemory::read_block">
<polygon fill="white" stroke="black" points="311,-148.5 311,-169.5 439,-169.5 439,-148.5 311,-148.5"/>
<text text-anchor="middle" x="375" y="-156.5" font-family="Helvetica,sans-Serif" font-size="10.00">BaseMemory::read_block</text>
</a>
</g>
<!-- Node2&#45;&gt;Node6 -->
<g id="edge10" class="edge"><title>Node2&#45;&gt;Node6</title>
<path fill="none" stroke="midnightblue" d="M255.79,-179.672C271.15,-177.009 288.124,-174.065 304.331,-171.255"/>
<polygon fill="midnightblue" stroke="midnightblue" points="305.046,-174.683 314.301,-169.526 303.85,-167.786 305.046,-174.683"/>
</g>
<!-- Node9 -->
<g id="node17" class="node"><title>Node9</title>
<a xlink:href="group__memory.html#gab74fd93ce3d05e891b684489ef76881c" target="_top" xlink:title="BaseMemory::write_block">
<polygon fill="white" stroke="black" points="310,-188.5 310,-209.5 440,-209.5 440,-188.5 310,-188.5"/>
<text text-anchor="middle" x="375" y="-196.5" font-family="Helvetica,sans-Serif" font-size="10.00">BaseMemory::write_block</text>
</a>
</g>
<!-- Node2&#45;&gt;Node9 -->
<g id="edge16" class="edge"><title>Node2&#45;&gt;Node9</title>
<path fill="none" stroke="midnightblue" d="M255.79,-192.109C269.732,-192.915 285.004,-193.798 299.824,-194.655"/>
<polygon fill="midnightblue" stroke="midnightblue" points="299.806,-198.159 309.991,-195.242 300.21,-191.171 299.806,-198.159"/>
</g>
<!-- Node4 -->
<g id="node7" class="node"><title>Node4</title>
<a xlink:href="group__memory.html#ga3d4a38e8448bfa1e3b62ba2ef84d1c84" target="_top" xlink:title="BaseMemory::erase_dbg">
<polygon fill="white" stroke="black" points="489.5,-228.5 489.5,-249.5 614.5,-249.5 614.5,-228.5 489.5,-228.5"/>
<text text-anchor="middle" x="552" y="-236.5" font-family="Helvetica,sans-Serif" font-size="10.00">BaseMemory::erase_dbg</text>
</a>
</g>
<!-- Node3&#45;&gt;Node4 -->
<g id="edge6" class="edge"><title>Node3&#45;&gt;Node4</title>
<path fill="none" stroke="midnightblue" d="M427.149,-239C443.43,-239 461.698,-239 479.131,-239"/>
<polygon fill="midnightblue" stroke="midnightblue" points="479.277,-242.5 489.277,-239 479.277,-235.5 479.277,-242.5"/>
</g>
<!-- Node5 -->
<g id="node9" class="node"><title>Node5</title>
<a xlink:href="classStorage.html#ae55c16cb093438b9e40111c25f30a2e8" target="_top" xlink:title="Storage::erase">
<polygon fill="white" stroke="black" points="677,-228.5 677,-249.5 757,-249.5 757,-228.5 677,-228.5"/>
<text text-anchor="middle" x="717" y="-236.5" font-family="Helvetica,sans-Serif" font-size="10.00">Storage::erase</text>
</a>
</g>
<!-- Node4&#45;&gt;Node5 -->
<g id="edge8" class="edge"><title>Node4&#45;&gt;Node5</title>
<path fill="none" stroke="midnightblue" d="M614.85,-239C631.883,-239 650.103,-239 666.37,-239"/>
<polygon fill="midnightblue" stroke="midnightblue" points="666.745,-242.5 676.745,-239 666.745,-235.5 666.745,-242.5"/>
</g>
<!-- Node7 -->
<g id="node13" class="node"><title>Node7</title>
<a xlink:href="group__memory.html#gad63996f7ed8fca5197a47b7710b1d55c" target="_top" xlink:title="BaseMemory::read_block_dbg">
<polygon fill="white" stroke="black" points="477.5,-118.5 477.5,-139.5 626.5,-139.5 626.5,-118.5 477.5,-118.5"/>
<text text-anchor="middle" x="552" y="-126.5" font-family="Helvetica,sans-Serif" font-size="10.00">BaseMemory::read_block_dbg</text>
</a>
</g>
<!-- Node6&#45;&gt;Node7 -->
<g id="edge12" class="edge"><title>Node6&#45;&gt;Node7</title>
<path fill="none" stroke="midnightblue" d="M437.404,-148.423C451.099,-146.102 465.71,-143.625 479.756,-141.245"/>
<polygon fill="midnightblue" stroke="midnightblue" points="480.587,-144.654 489.862,-139.532 479.418,-137.752 480.587,-144.654"/>
</g>
<!-- Node8 -->
<g id="node15" class="node"><title>Node8</title>
<a xlink:href="classStorage.html#a6c83e9cda63966dc65b1aefcb31e8f43" target="_top" xlink:title="Storage::read_block">
<polygon fill="white" stroke="black" points="665,-118.5 665,-139.5 769,-139.5 769,-118.5 665,-118.5"/>
<text text-anchor="middle" x="717" y="-126.5" font-family="Helvetica,sans-Serif" font-size="10.00">Storage::read_block</text>
</a>
</g>
<!-- Node7&#45;&gt;Node8 -->
<g id="edge14" class="edge"><title>Node7&#45;&gt;Node8</title>
<path fill="none" stroke="midnightblue" d="M626.776,-129C636.069,-129 645.493,-129 654.573,-129"/>
<polygon fill="midnightblue" stroke="midnightblue" points="654.651,-132.5 664.651,-129 654.651,-125.5 654.651,-132.5"/>
</g>
<!-- Node10 -->
<g id="node19" class="node"><title>Node10</title>
<a xlink:href="group__memory.html#ga724b49aea970f1e4dee15c5ff572ce40" target="_top" xlink:title="BaseMemory::write_block_dbg">
<polygon fill="white" stroke="black" points="476.5,-168.5 476.5,-189.5 627.5,-189.5 627.5,-168.5 476.5,-168.5"/>
<text text-anchor="middle" x="552" y="-176.5" font-family="Helvetica,sans-Serif" font-size="10.00">BaseMemory::write_block_dbg</text>
</a>
</g>
<!-- Node9&#45;&gt;Node10 -->
<g id="edge18" class="edge"><title>Node9&#45;&gt;Node10</title>
<path fill="none" stroke="midnightblue" d="M440.154,-191.638C448.585,-190.685 457.32,-189.698 466.023,-188.715"/>
<polygon fill="midnightblue" stroke="midnightblue" points="466.661,-192.165 476.204,-187.564 465.875,-185.209 466.661,-192.165"/>
</g>
<!-- Node11 -->
<g id="node21" class="node"><title>Node11</title>
<a xlink:href="classStorage.html#a391102341dd513ec89290eff8407c3d5" target="_top" xlink:title="Storage::write_block">
<polygon fill="white" stroke="black" points="664,-168.5 664,-189.5 770,-189.5 770,-168.5 664,-168.5"/>
<text text-anchor="middle" x="717" y="-176.5" font-family="Helvetica,sans-Serif" font-size="10.00">Storage::write_block</text>
</a>
</g>
<!-- Node10&#45;&gt;Node11 -->
<g id="edge20" class="edge"><title>Node10&#45;&gt;Node11</title>
<path fill="none" stroke="midnightblue" d="M627.739,-179C636.412,-179 645.186,-179 653.672,-179"/>
<polygon fill="midnightblue" stroke="midnightblue" points="653.856,-182.5 663.856,-179 653.856,-175.5 653.856,-182.5"/>
</g>
<!-- Node15&#45;&gt;Node7 -->
<g id="edge30" class="edge"><title>Node15&#45;&gt;Node7</title>
<path fill="none" stroke="midnightblue" d="M433.938,-122.33C444.564,-122.93 455.831,-123.567 467.024,-124.199"/>
<polygon fill="midnightblue" stroke="midnightblue" points="467.079,-127.708 477.261,-124.777 467.474,-120.719 467.079,-127.708"/>
</g>
<!-- Node15&#45;&gt;Node10 -->
<g id="edge32" class="edge"><title>Node15&#45;&gt;Node10</title>
<path fill="none" stroke="midnightblue" d="M410.174,-129.51C419.867,-132.491 430.364,-135.799 440,-139 464.808,-147.242 492.473,-157.116 514.1,-164.991"/>
<polygon fill="midnightblue" stroke="midnightblue" points="512.986,-168.31 523.58,-168.455 515.389,-161.735 512.986,-168.31"/>
</g>
</g>
</svg>
        <g id="navigator" transform="translate(0 0)" fill="#404254">
                <rect fill="#f2f5e9" fill-opacity="0.5" stroke="#606060" stroke-width=".5" x="0" y="0" width="60" height="60"/>
                <use id="zoomplus" xlink:href="#zoomPlus" x="17" y="9" onmousedown="handleZoom(evt,'in')"/>
                <use id="zoomminus" xlink:href="#zoomMin" x="42" y="9" onmousedown="handleZoom(evt,'out')"/>
                <use id="reset" xlink:href="#resetDef" x="30" y="36" onmousedown="handleReset()"/>
                <g id="arrowUp" xlink:href="#dirArrow" transform="translate(30 24)" onmousedown="handlePan(0,-1)">
                  <use xlink:href="#rim" fill="#404040">
                        <set attributeName="fill" to="#808080" begin="arrowUp.mouseover" end="arrowUp.mouseout"/>
                  </use>
                  <path fill="none" stroke="white" stroke-width="1.5" d="M0,-3.0v7 M-2.5,-0.5L0,-3.0L2.5,-0.5"/>
                </g>
                <g id="arrowRight" xlink:href="#dirArrow" transform="rotate(90) translate(36 -43)" onmousedown="handlePan(1,0)">
                  <use xlink:href="#rim" fill="#404040">
                        <set attributeName="fill" to="#808080" begin="arrowRight.mouseover" end="arrowRight.mouseout"/>
                  </use>
                  <path fill="none" stroke="white" stroke-width="1.5" d="M0,-3.0v7 M-2.5,-0.5L0,-3.0L2.5,-0.5"/>
                </g>
                <g id="arrowDown" xlink:href="#dirArrow" transform="rotate(180) translate(-30 -48)" onmousedown="handlePan(0,1)">
                  <use xlink:href="#rim" fill="#404040">
                        <set attributeName="fill" to="#808080" begin="arrowDown.mouseover" end="arrowDown.mouseout"/>
                  </use>
                  <path fill="none" stroke="white" stroke-width="1.5" d="M0,-3.0v7 M-2.5,-0.5L0,-3.0L2.5,-0.5"/>
                </g>
                <g id="arrowLeft" xlink:href="#dirArrow" transform="rotate(270) translate(-36 17)" onmousedown="handlePan(-1,0)">
                  <use xlink:href="#rim" fill="#404040">
                        <set attributeName="fill" to="#808080" begin="arrowLeft.mouseover" end="arrowLeft.mouseout"/>
                  </use>
                  <path fill="none" stroke="white" stroke-width="1.5" d="M0,-3.0v7 M-2.5,-0.5L0,-3.0L2.5,-0.5"/>
                </g>
        </g>
        <svg viewBox="0 0 15 15" width="100%" height="30px" preserveAspectRatio="xMaxYMin meet">
         <g id="arrow_out" transform="scale(0.3 0.3)">
          <a xlink:href="group__memory_ga973cf787a4e8b682006e61897f37c2d9_cgraph_org.svg" target="_base">
           <rect id="button" ry="5" rx="5" y="6" x="6" height="38" width="38"
                fill="#f2f5e9" fill-opacity="0.5" stroke="#606060" stroke-width="1.0"/>
           <path id="arrow"
             d="M 11.500037,31.436501 C 11.940474,20.09759 22.043105,11.32322 32.158766,21.979434 L 37.068811,17.246167 C 37.068811,17.246167 37.088388,32 37.088388,32 L 22.160133,31.978069 C 22.160133,31.978069 26.997745,27.140456 26.997745,27.140456 C 18.528582,18.264221 13.291696,25.230495 11.500037,31.436501 z"
             style="fill:#404040;"/>
          </a>
         </g>
        </svg>
</svg>
