<?xml version="1.0" encoding="UTF-8" standalone="no"?>
<!DOCTYPE svg PUBLIC "-//W3C//DTD SVG 1.1//EN"
 "http://www.w3.org/Graphics/SVG/1.1/DTD/svg11.dtd">
<!-- Generated by graphviz version 2.26.0 (20091210.2329)
 -->
<!-- Title: Mctrl::Mctrl Pages: 1 -->
<svg width="246pt" height="146pt"
 viewBox="0.00 0.00 246.00 146.00" xmlns="http://www.w3.org/2000/svg" xmlns:xlink="http://www.w3.org/1999/xlink">
<g id="graph1" class="graph" transform="scale(1 1) rotate(0) translate(4 142)">
<title>Mctrl::Mctrl</title>
<polygon fill="white" stroke="white" points="-4,5 -4,-142 243,-142 243,5 -4,5"/>
<!-- Node1 -->
<g id="node1" class="node"><title>Node1</title>
<polygon fill="#bfbfbf" stroke="black" points="0,-58.5 0,-79.5 66,-79.5 66,-58.5 0,-58.5"/>
<text text-anchor="middle" x="33" y="-66.5" font-family="Helvetica,sans-Serif" font-size="10.00">Mctrl::Mctrl</text>
</g>
<!-- Node2 -->
<g id="node3" class="node"><title>Node2</title>
<a xlink:href="classgs_1_1amba_1_1amba__slave.html#a05ad48b3b108147e268445ab867c4ba7" target="_top" xlink:title="gs::amba::amba_slave\l::get_base_addr">
<polygon fill="white" stroke="black" points="112,-104 112,-138 228,-138 228,-104 112,-104"/>
<text text-anchor="start" x="120" y="-125" font-family="Helvetica,sans-Serif" font-size="10.00">gs::amba::amba_slave</text>
<text text-anchor="middle" x="170" y="-112" font-family="Helvetica,sans-Serif" font-size="10.00">::get_base_addr</text>
</a>
</g>
<!-- Node1&#45;&gt;Node2 -->
<g id="edge2" class="edge"><title>Node1&#45;&gt;Node2</title>
<path fill="none" stroke="midnightblue" d="M60.724,-79.523C76.5092,-85.5145 96.8366,-93.23 115.67,-100.378"/>
<polygon fill="midnightblue" stroke="midnightblue" points="114.467,-103.665 125.058,-103.942 116.951,-97.1209 114.467,-103.665"/>
</g>
<!-- Node3 -->
<g id="node5" class="node"><title>Node3</title>
<a xlink:href="classgs_1_1amba_1_1amba__slave.html#a6d4957b0d2fc7ad43360c34b0217917f" target="_top" xlink:title="gs::amba::amba_slave\l::get_size">
<polygon fill="white" stroke="black" points="112,-52 112,-86 228,-86 228,-52 112,-52"/>
<text text-anchor="start" x="120" y="-73" font-family="Helvetica,sans-Serif" font-size="10.00">gs::amba::amba_slave</text>
<text text-anchor="middle" x="170" y="-60" font-family="Helvetica,sans-Serif" font-size="10.00">::get_size</text>
</a>
</g>
<!-- Node1&#45;&gt;Node3 -->
<g id="edge4" class="edge"><title>Node1&#45;&gt;Node3</title>
<path fill="none" stroke="midnightblue" d="M66.1639,-69C76.867,-69 89.155,-69 101.445,-69"/>
<polygon fill="midnightblue" stroke="midnightblue" points="101.735,-72.5001 111.735,-69 101.735,-65.5001 101.735,-72.5001"/>
</g>
<!-- Node4 -->
<g id="node7" class="node"><title>Node4</title>
<a xlink:href="classAPBDevice.html#a72e0a96bc8a877662440910e5084f98f" target="_top" xlink:title="APBDevice\&lt; RegisterBase\l \&gt;::init_apb">
<polygon fill="white" stroke="black" points="102,-0 102,-34 238,-34 238,-0 102,-0"/>
<text text-anchor="start" x="110" y="-21" font-family="Helvetica,sans-Serif" font-size="10.00">APBDevice&lt; RegisterBase</text>
<text text-anchor="middle" x="170" y="-8" font-family="Helvetica,sans-Serif" font-size="10.00"> &gt;::init_apb</text>
</a>
</g>
<!-- Node1&#45;&gt;Node4 -->
<g id="edge6" class="edge"><title>Node1&#45;&gt;Node4</title>
<path fill="none" stroke="midnightblue" d="M60.724,-58.477C76.5092,-52.4855 96.8366,-44.77 115.67,-37.6217"/>
<polygon fill="midnightblue" stroke="midnightblue" points="116.951,-40.8791 125.058,-34.0582 114.467,-34.3347 116.951,-40.8791"/>
</g>
</g>
</svg>
