<?xml version="1.0" encoding="UTF-8" standalone="no"?>
<!DOCTYPE svg PUBLIC "-//W3C//DTD SVG 1.1//EN"
 "http://www.w3.org/Graphics/SVG/1.1/DTD/svg11.dtd">
<!-- Generated by graphviz version 2.38.0 (20140413.2041)
 -->
<!-- Title: sc_main Pages: 1 -->
<svg width="377pt" height="403pt"
 viewBox="0.00 0.00 377.00 403.00" xmlns="http://www.w3.org/2000/svg" xmlns:xlink="http://www.w3.org/1999/xlink">
<g id="graph0" class="graph" transform="scale(1 1) rotate(0) translate(4 399)">
<title>sc_main</title>
<polygon fill="white" stroke="none" points="-4,4 -4,-399 373,-399 373,4 -4,4"/>
<!-- Node1 -->
<g id="node1" class="node"><title>Node1</title>
<polygon fill="#bfbfbf" stroke="black" points="0,-162 0,-181 53,-181 53,-162 0,-162"/>
<text text-anchor="middle" x="26.5" y="-169" font-family="Helvetica,sans-Serif" font-size="10.00">sc_main</text>
</g>
<!-- Node2 -->
<g id="node2" class="node"><title>Node2</title>
<g id="a_node2"><a xlink:href="namespacesr__signal.html#a1abd745bc2565a6e3a662ad1083bc1b8" target="_top" xlink:title="Connects an input signal with an output signal. ">
<polygon fill="white" stroke="black" points="110,-321 110,-340 206,-340 206,-321 110,-321"/>
<text text-anchor="middle" x="158" y="-328" font-family="Helvetica,sans-Serif" font-size="10.00">sr_signal::connect</text>
</a>
</g>
</g>
<!-- Node1&#45;&gt;Node2 -->
<g id="edge1" class="edge"><title>Node1&#45;&gt;Node2</title>
<path fill="none" stroke="midnightblue" d="M28.8946,-181.334C33.0423,-206.847 47.6942,-275.659 89,-311.5 92.4791,-314.519 96.402,-317.061 100.564,-319.201"/>
<polygon fill="midnightblue" stroke="midnightblue" points="99.4075,-322.514 109.975,-323.273 102.187,-316.09 99.4075,-322.514"/>
</g>
<!-- Node5 -->
<g id="node5" class="node"><title>Node5</title>
<g id="a_node5"><a xlink:href="group__common.html#gad4248d00f950442171fdcc8779adc786" target="_top" xlink:title="sr_report_handler::\ldefault_handler">
<polygon fill="white" stroke="black" points="109,-271.5 109,-301.5 207,-301.5 207,-271.5 109,-271.5"/>
<text text-anchor="start" x="117" y="-289.5" font-family="Helvetica,sans-Serif" font-size="10.00">sr_report_handler::</text>
<text text-anchor="middle" x="158" y="-278.5" font-family="Helvetica,sans-Serif" font-size="10.00">default_handler</text>
</a>
</g>
</g>
<!-- Node1&#45;&gt;Node5 -->
<g id="edge4" class="edge"><title>Node1&#45;&gt;Node5</title>
<path fill="none" stroke="midnightblue" d="M31.6056,-181.091C39.8635,-199.298 60.1869,-239.054 89,-261.5 92.3488,-264.109 95.9966,-266.464 99.8062,-268.588"/>
<polygon fill="midnightblue" stroke="midnightblue" points="98.4133,-271.804 108.925,-273.132 101.536,-265.539 98.4133,-271.804"/>
</g>
<!-- Node7 -->
<g id="node7" class="node"><title>Node7</title>
<g id="a_node7"><a xlink:href="cache_8c.html#a0a9e9396972b76c5947592479860020d" target="_top" xlink:title="flush">
<polygon fill="white" stroke="black" points="139,-233 139,-252 177,-252 177,-233 139,-233"/>
<text text-anchor="middle" x="158" y="-240" font-family="Helvetica,sans-Serif" font-size="10.00">flush</text>
</a>
</g>
</g>
<!-- Node1&#45;&gt;Node7 -->
<g id="edge6" class="edge"><title>Node1&#45;&gt;Node7</title>
<path fill="none" stroke="midnightblue" d="M36.5472,-181.395C47.7676,-193.093 67.9957,-212.373 89,-223.5 101.355,-230.045 116.2,-234.53 128.863,-237.491"/>
<polygon fill="midnightblue" stroke="midnightblue" points="128.373,-240.965 138.884,-239.631 129.836,-234.119 128.373,-240.965"/>
</g>
<!-- Node8 -->
<g id="node8" class="node"><title>Node8</title>
<g id="a_node8"><a xlink:href="classleon3__funclt__trap_1_1LEON3__ABIIf.html#afc2b9e5f2c86f8efaa4ba058965fffca" target="_top" xlink:title="leon3_funclt_trap::\lLEON3_ABIIf::getExitValue">
<polygon fill="white" stroke="black" points="89,-183.5 89,-213.5 227,-213.5 227,-183.5 89,-183.5"/>
<text text-anchor="start" x="97" y="-201.5" font-family="Helvetica,sans-Serif" font-size="10.00">leon3_funclt_trap::</text>
<text text-anchor="middle" x="158" y="-190.5" font-family="Helvetica,sans-Serif" font-size="10.00">LEON3_ABIIf::getExitValue</text>
</a>
</g>
</g>
<!-- Node1&#45;&gt;Node8 -->
<g id="edge7" class="edge"><title>Node1&#45;&gt;Node8</title>
<path fill="none" stroke="midnightblue" d="M53.085,-176.834C60.7176,-178.426 69.5132,-180.26 78.6892,-182.173"/>
<polygon fill="midnightblue" stroke="midnightblue" points="78.2545,-185.657 88.7584,-184.272 79.6833,-178.805 78.2545,-185.657"/>
</g>
<!-- Node9 -->
<g id="node9" class="node"><title>Node9</title>
<g id="a_node9"><a xlink:href="classleon3__funclt__trap_1_1Processor__leon3__funclt.html#a3878d5a0a50ec902ad3147dbb9e279bc" target="_top" xlink:title="leon3_funclt_trap::\lProcessor_leon3_funclt\l::getInterface">
<polygon fill="white" stroke="black" points="98.5,-124 98.5,-165 217.5,-165 217.5,-124 98.5,-124"/>
<text text-anchor="start" x="106.5" y="-153" font-family="Helvetica,sans-Serif" font-size="10.00">leon3_funclt_trap::</text>
<text text-anchor="start" x="106.5" y="-142" font-family="Helvetica,sans-Serif" font-size="10.00">Processor_leon3_funclt</text>
<text text-anchor="middle" x="158" y="-131" font-family="Helvetica,sans-Serif" font-size="10.00">::getInterface</text>
</a>
</g>
</g>
<!-- Node1&#45;&gt;Node9 -->
<g id="edge8" class="edge"><title>Node1&#45;&gt;Node9</title>
<path fill="none" stroke="midnightblue" d="M53.085,-166.166C63.3217,-164.031 75.6503,-161.461 88.183,-158.848"/>
<polygon fill="midnightblue" stroke="midnightblue" points="89.1665,-162.218 98.2415,-156.751 87.7377,-155.366 89.1665,-162.218"/>
</g>
<!-- Node10 -->
<g id="node10" class="node"><title>Node10</title>
<g id="a_node10"><a xlink:href="group__platform.html#ga49ae68e893fd9f5b18dd39d808512460" target="_top" xlink:title="grethVPHYHook">
<polygon fill="white" stroke="black" points="113.5,-86 113.5,-105 202.5,-105 202.5,-86 113.5,-86"/>
<text text-anchor="middle" x="158" y="-93" font-family="Helvetica,sans-Serif" font-size="10.00">grethVPHYHook</text>
</a>
</g>
</g>
<!-- Node1&#45;&gt;Node10 -->
<g id="edge9" class="edge"><title>Node1&#45;&gt;Node10</title>
<path fill="none" stroke="midnightblue" d="M35.2126,-161.944C45.9556,-149.258 66.6383,-127.007 89,-114.5 93.5634,-111.948 98.4941,-109.718 103.543,-107.775"/>
<polygon fill="midnightblue" stroke="midnightblue" points="105.03,-110.964 113.332,-104.382 102.737,-104.35 105.03,-110.964"/>
</g>
<!-- Node11 -->
<g id="node11" class="node"><title>Node11</title>
<g id="a_node11"><a xlink:href="group__utils.html#ga1e502b9a84a32054d08a28935f19283b" target="_top" xlink:title="CLKDevice::set_clk">
<polygon fill="white" stroke="black" points="106,-48 106,-67 210,-67 210,-48 106,-48"/>
<text text-anchor="middle" x="158" y="-55" font-family="Helvetica,sans-Serif" font-size="10.00">CLKDevice::set_clk</text>
</a>
</g>
</g>
<!-- Node1&#45;&gt;Node11 -->
<g id="edge10" class="edge"><title>Node1&#45;&gt;Node11</title>
<path fill="none" stroke="midnightblue" d="M31.0552,-161.757C38.6107,-142.442 58.1414,-99.2066 89,-76.5 91.5346,-74.635 94.2446,-72.953 97.0695,-71.436"/>
<polygon fill="midnightblue" stroke="midnightblue" points="98.7918,-74.496 106.408,-67.1308 95.8611,-68.1391 98.7918,-74.496"/>
</g>
<!-- Node13 -->
<g id="node13" class="node"><title>Node13</title>
<g id="a_node13"><a xlink:href="group__platform.html#gafecf8898523472cb5a02914ba07a2be2" target="_top" xlink:title="stopSimFunction">
<polygon fill="white" stroke="black" points="113,-9 113,-28 203,-28 203,-9 113,-9"/>
<text text-anchor="middle" x="158" y="-16" font-family="Helvetica,sans-Serif" font-size="10.00">stopSimFunction</text>
</a>
</g>
</g>
<!-- Node1&#45;&gt;Node13 -->
<g id="edge12" class="edge"><title>Node1&#45;&gt;Node13</title>
<path fill="none" stroke="midnightblue" d="M29.1486,-161.824C33.8305,-137.36 49.5143,-72.5672 89,-38.5 93.2509,-34.8324 98.1466,-31.8368 103.322,-29.3903"/>
<polygon fill="midnightblue" stroke="midnightblue" points="104.89,-32.5321 112.861,-25.5527 102.278,-26.0379 104.89,-32.5321"/>
</g>
<!-- Node3 -->
<g id="node3" class="node"><title>Node3</title>
<g id="a_node3"><a xlink:href="singletonsr__signal_1_1signal__in__if.html#ab7024ab7dd1860565d3c098d894666a6" target="_top" xlink:title="sr_signal::signal_in\l_if::bind">
<polygon fill="white" stroke="black" points="266,-364.5 266,-394.5 366,-394.5 366,-364.5 266,-364.5"/>
<text text-anchor="start" x="274" y="-382.5" font-family="Helvetica,sans-Serif" font-size="10.00">sr_signal::signal_in</text>
<text text-anchor="middle" x="316" y="-371.5" font-family="Helvetica,sans-Serif" font-size="10.00">_if::bind</text>
</a>
</g>
</g>
<!-- Node2&#45;&gt;Node3 -->
<g id="edge2" class="edge"><title>Node2&#45;&gt;Node3</title>
<path fill="none" stroke="midnightblue" d="M189.449,-340.064C208.768,-346.132 234.38,-354.177 257.431,-361.417"/>
<polygon fill="midnightblue" stroke="midnightblue" points="256.538,-364.805 267.127,-364.463 258.636,-358.127 256.538,-364.805"/>
</g>
<!-- Node4 -->
<g id="node4" class="node"><title>Node4</title>
<g id="a_node4"><a xlink:href="classsr__signal_1_1signal__out__bind__if.html#ac7c60ef8cd575cdeef5e68461f178f45" target="_top" xlink:title="sr_signal::signal_out\l_bind_if::bind">
<polygon fill="white" stroke="black" points="263,-315.5 263,-345.5 369,-345.5 369,-315.5 263,-315.5"/>
<text text-anchor="start" x="271" y="-333.5" font-family="Helvetica,sans-Serif" font-size="10.00">sr_signal::signal_out</text>
<text text-anchor="middle" x="316" y="-322.5" font-family="Helvetica,sans-Serif" font-size="10.00">_bind_if::bind</text>
</a>
</g>
</g>
<!-- Node2&#45;&gt;Node4 -->
<g id="edge3" class="edge"><title>Node2&#45;&gt;Node4</title>
<path fill="none" stroke="midnightblue" d="M206.228,-330.5C220.868,-330.5 237.229,-330.5 252.726,-330.5"/>
<polygon fill="midnightblue" stroke="midnightblue" points="252.759,-334 262.759,-330.5 252.758,-327 252.759,-334"/>
</g>
<!-- Node6 -->
<g id="node6" class="node"><title>Node6</title>
<g id="a_node6"><a xlink:href="classsr__report.html#a5998c35779d5dc1cb507531ada5be38e" target="_top" xlink:title="sr_report::set_msg">
<polygon fill="white" stroke="black" points="267,-277 267,-296 365,-296 365,-277 267,-277"/>
<text text-anchor="middle" x="316" y="-284" font-family="Helvetica,sans-Serif" font-size="10.00">sr_report::set_msg</text>
</a>
</g>
</g>
<!-- Node5&#45;&gt;Node6 -->
<g id="edge5" class="edge"><title>Node5&#45;&gt;Node6</title>
<path fill="none" stroke="midnightblue" d="M207.078,-286.5C222.795,-286.5 240.423,-286.5 256.803,-286.5"/>
<polygon fill="midnightblue" stroke="midnightblue" points="256.812,-290 266.812,-286.5 256.812,-283 256.812,-290"/>
</g>
<!-- Node12 -->
<g id="node12" class="node"><title>Node12</title>
<g id="a_node12"><a xlink:href="classCLKDevice.html#a2ab7f95e762c85bc1e77b8145ffae92a" target="_top" xlink:title="CLKDevice::clkcng">
<polygon fill="white" stroke="black" points="265.5,-50 265.5,-69 366.5,-69 366.5,-50 265.5,-50"/>
<text text-anchor="middle" x="316" y="-57" font-family="Helvetica,sans-Serif" font-size="10.00">CLKDevice::clkcng</text>
</a>
</g>
</g>
<!-- Node11&#45;&gt;Node12 -->
<g id="edge11" class="edge"><title>Node11&#45;&gt;Node12</title>
<path fill="none" stroke="midnightblue" d="M210.08,-58.1549C224.52,-58.34 240.363,-58.5431 255.263,-58.7341"/>
<polygon fill="midnightblue" stroke="midnightblue" points="255.355,-62.2355 265.399,-58.8641 255.445,-55.2361 255.355,-62.2355"/>
</g>
<!-- Node14 -->
<g id="node14" class="node"><title>Node14</title>
<g id="a_node14"><a xlink:href="namespacepysc_1_1api_1_1systemc.html#a0f19169551bf6f5170fb3be515ce4365" target="_top" xlink:title="pysc::api::systemc\l::wait">
<polygon fill="white" stroke="black" points="266,-0.5 266,-30.5 366,-30.5 366,-0.5 266,-0.5"/>
<text text-anchor="start" x="274" y="-18.5" font-family="Helvetica,sans-Serif" font-size="10.00">pysc::api::systemc</text>
<text text-anchor="middle" x="316" y="-7.5" font-family="Helvetica,sans-Serif" font-size="10.00">::wait</text>
</a>
</g>
</g>
<!-- Node13&#45;&gt;Node14 -->
<g id="edge13" class="edge"><title>Node13&#45;&gt;Node14</title>
<path fill="none" stroke="midnightblue" d="M203.286,-17.6483C219.626,-17.3341 238.411,-16.9729 255.857,-16.6374"/>
<polygon fill="midnightblue" stroke="midnightblue" points="256.014,-20.1351 265.945,-16.4434 255.88,-13.1364 256.014,-20.1351"/>
</g>
</g>
</svg>
