<?xml version="1.0" encoding="UTF-8" standalone="no"?>
<!DOCTYPE svg PUBLIC "-//W3C//DTD SVG 1.1//EN"
 "http://www.w3.org/Graphics/SVG/1.1/DTD/svg11.dtd">
<!-- Generated by graphviz version 2.26.0 (20091210.2329)
 -->
<!-- Title: Memory::transport_dbg Pages: 1 -->
<svg width="456pt" height="70pt"
 viewBox="0.00 0.00 456.00 70.00" xmlns="http://www.w3.org/2000/svg" xmlns:xlink="http://www.w3.org/1999/xlink">
<g id="graph1" class="graph" transform="scale(1 1) rotate(0) translate(4 66)">
<title>Memory::transport_dbg</title>
<polygon fill="white" stroke="white" points="-4,5 -4,-66 453,-66 453,5 -4,5"/>
<!-- Node1 -->
<g id="node1" class="node"><title>Node1</title>
<polygon fill="#bfbfbf" stroke="black" points="0.5,-20.5 0.5,-41.5 117.5,-41.5 117.5,-20.5 0.5,-20.5"/>
<text text-anchor="middle" x="59" y="-28.5" font-family="Helvetica,sans-Serif" font-size="10.00">Memory::transport_dbg</text>
</g>
<!-- Node2 -->
<g id="node3" class="node"><title>Node2</title>
<a xlink:href="group__memory.html#gaec8a7bc833a9f12928070debebcd0fa2" target="_top" xlink:title="BaseMemory::read_block_dbg">
<polygon fill="white" stroke="black" points="155.5,-40.5 155.5,-61.5 304.5,-61.5 304.5,-40.5 155.5,-40.5"/>
<text text-anchor="middle" x="230" y="-48.5" font-family="Helvetica,sans-Serif" font-size="10.00">BaseMemory::read_block_dbg</text>
</a>
</g>
<!-- Node1&#45;&gt;Node2 -->
<g id="edge2" class="edge"><title>Node1&#45;&gt;Node2</title>
<path fill="none" stroke="midnightblue" d="M117.848,-37.8829C126.717,-38.9201 136.011,-40.0071 145.292,-41.0926"/>
<polygon fill="midnightblue" stroke="midnightblue" points="144.998,-44.582 155.337,-42.2675 145.811,-37.6294 144.998,-44.582"/>
</g>
<!-- Node4 -->
<g id="node7" class="node"><title>Node4</title>
<a xlink:href="group__memory.html#gaaad89f44b8b6ac930940d241ff31737d" target="_top" xlink:title="BaseMemory::write_block_dbg">
<polygon fill="white" stroke="black" points="154.5,-0.5 154.5,-21.5 305.5,-21.5 305.5,-0.5 154.5,-0.5"/>
<text text-anchor="middle" x="230" y="-8.5" font-family="Helvetica,sans-Serif" font-size="10.00">BaseMemory::write_block_dbg</text>
</a>
</g>
<!-- Node1&#45;&gt;Node4 -->
<g id="edge6" class="edge"><title>Node1&#45;&gt;Node4</title>
<path fill="none" stroke="midnightblue" d="M117.848,-24.1171C126.412,-23.1155 135.372,-22.0676 144.334,-21.0194"/>
<polygon fill="midnightblue" stroke="midnightblue" points="144.907,-24.4763 154.433,-19.8382 144.094,-17.5237 144.907,-24.4763"/>
</g>
<!-- Node3 -->
<g id="node5" class="node"><title>Node3</title>
<a xlink:href="classStorage.html#a01af1f194e1844bfcf5a4a4a26d3e5f8" target="_top" xlink:title="Storage::read_block">
<polygon fill="white" stroke="black" points="343,-40.5 343,-61.5 447,-61.5 447,-40.5 343,-40.5"/>
<text text-anchor="middle" x="395" y="-48.5" font-family="Helvetica,sans-Serif" font-size="10.00">Storage::read_block</text>
</a>
</g>
<!-- Node2&#45;&gt;Node3 -->
<g id="edge4" class="edge"><title>Node2&#45;&gt;Node3</title>
<path fill="none" stroke="midnightblue" d="M304.776,-51C314.069,-51 323.493,-51 332.573,-51"/>
<polygon fill="midnightblue" stroke="midnightblue" points="332.651,-54.5001 342.651,-51 332.651,-47.5001 332.651,-54.5001"/>
</g>
<!-- Node5 -->
<g id="node9" class="node"><title>Node5</title>
<a xlink:href="classStorage.html#a7d5d005b4c3d8fb1944c7e9cb1557a46" target="_top" xlink:title="Storage::write_block">
<polygon fill="white" stroke="black" points="342,-0.5 342,-21.5 448,-21.5 448,-0.5 342,-0.5"/>
<text text-anchor="middle" x="395" y="-8.5" font-family="Helvetica,sans-Serif" font-size="10.00">Storage::write_block</text>
</a>
</g>
<!-- Node4&#45;&gt;Node5 -->
<g id="edge8" class="edge"><title>Node4&#45;&gt;Node5</title>
<path fill="none" stroke="midnightblue" d="M305.739,-11C314.412,-11 323.186,-11 331.672,-11"/>
<polygon fill="midnightblue" stroke="midnightblue" points="331.856,-14.5001 341.856,-11 331.856,-7.5001 331.856,-14.5001"/>
</g>
</g>
</svg>
