<?xml version="1.0" encoding="UTF-8" standalone="no"?>
<!DOCTYPE svg PUBLIC "-//W3C//DTD SVG 1.1//EN"
 "http://www.w3.org/Graphics/SVG/1.1/DTD/svg11.dtd">
<!-- Generated by graphviz version 2.36.0 (20140111.2315)
 -->
<!-- Title: mmu_cache::icio_b_transport Pages: 1 -->
<svg width="614pt" height="114pt"
 viewBox="0.00 0.00 614.00 114.00" xmlns="http://www.w3.org/2000/svg" xmlns:xlink="http://www.w3.org/1999/xlink">
<g id="graph0" class="graph" transform="scale(1 1) rotate(0) translate(4 110)">
<title>mmu_cache::icio_b_transport</title>
<polygon fill="white" stroke="none" points="-4,4 -4,-110 610,-110 610,4 -4,4"/>
<!-- Node1 -->
<g id="node1" class="node"><title>Node1</title>
<polygon fill="#bfbfbf" stroke="black" points="0.5,-44.5 0.5,-63.5 145.5,-63.5 145.5,-44.5 0.5,-44.5"/>
<text text-anchor="middle" x="73" y="-51.5" font-family="Helvetica,sans-Serif" font-size="10.00">mmu_cache::icio_b_transport</text>
</g>
<!-- Node2 -->
<g id="node2" class="node"><title>Node2</title>
<g id="a_node2"><a xlink:href="group__mmu__cache.html#ga95e1fb7554801153de0221044bdb5113" target="_top" xlink:title="Instruction interface to functional part of the model. ">
<polygon fill="white" stroke="black" points="182.5,-44.5 182.5,-63.5 303.5,-63.5 303.5,-44.5 182.5,-44.5"/>
<text text-anchor="middle" x="243" y="-51.5" font-family="Helvetica,sans-Serif" font-size="10.00">mmu_cache::exec_instr</text>
</a>
</g>
</g>
<!-- Node1&#45;&gt;Node2 -->
<g id="edge1" class="edge"><title>Node1&#45;&gt;Node2</title>
<path fill="none" stroke="midnightblue" d="M145.734,-54C154.516,-54 163.481,-54 172.233,-54"/>
<polygon fill="midnightblue" stroke="midnightblue" points="172.386,-57.5001 182.386,-54 172.386,-50.5001 172.386,-57.5001"/>
</g>
<!-- Node3 -->
<g id="node3" class="node"><title>Node3</title>
<g id="a_node3"><a xlink:href="group__mmu__cache__base.html#gabbbf06dab9607e4469eeda34e3ea8a9c" target="_top" xlink:title="Instruction interface to functional part of the model. ">
<polygon fill="white" stroke="black" points="340.5,-39 340.5,-69 463.5,-69 463.5,-39 340.5,-39"/>
<text text-anchor="start" x="348.5" y="-57" font-family="Helvetica,sans-Serif" font-size="10.00">mmu_cache_base::exec</text>
<text text-anchor="middle" x="402" y="-46" font-family="Helvetica,sans-Serif" font-size="10.00">_instr</text>
</a>
</g>
</g>
<!-- Node2&#45;&gt;Node3 -->
<g id="edge2" class="edge"><title>Node2&#45;&gt;Node3</title>
<path fill="none" stroke="midnightblue" d="M303.803,-54C312.398,-54 321.311,-54 330.096,-54"/>
<polygon fill="midnightblue" stroke="midnightblue" points="330.323,-57.5001 340.323,-54 330.322,-50.5001 330.323,-57.5001"/>
</g>
<!-- Node4 -->
<g id="node4" class="node"><title>Node4</title>
<g id="a_node4"><a xlink:href="cache_8c.html#a0a9e9396972b76c5947592479860020d" target="_top" xlink:title="flush">
<polygon fill="white" stroke="black" points="534,-86.5 534,-105.5 572,-105.5 572,-86.5 534,-86.5"/>
<text text-anchor="middle" x="553" y="-93.5" font-family="Helvetica,sans-Serif" font-size="10.00">flush</text>
</a>
</g>
</g>
<!-- Node2&#45;&gt;Node4 -->
<g id="edge6" class="edge"><title>Node2&#45;&gt;Node4</title>
<path fill="none" stroke="midnightblue" d="M276.606,-63.5333C295.058,-68.5785 318.647,-74.4479 340,-78 405.224,-88.85 482.887,-93.3274 523.704,-95.0391"/>
<polygon fill="midnightblue" stroke="midnightblue" points="523.598,-98.5376 533.728,-95.4343 523.874,-91.543 523.598,-98.5376"/>
</g>
<!-- Node7 -->
<g id="node7" class="node"><title>Node7</title>
<g id="a_node7"><a xlink:href="classcache__if.html#aed3a97268b017872594d189cd621c5c9" target="_top" xlink:title="flush cache ">
<polygon fill="white" stroke="black" points="362,-0.5 362,-19.5 442,-19.5 442,-0.5 362,-0.5"/>
<text text-anchor="middle" x="402" y="-7.5" font-family="Helvetica,sans-Serif" font-size="10.00">cache_if::flush</text>
</a>
</g>
</g>
<!-- Node2&#45;&gt;Node7 -->
<g id="edge7" class="edge"><title>Node2&#45;&gt;Node7</title>
<path fill="none" stroke="midnightblue" d="M278.067,-44.4527C301.315,-37.9373 332.316,-29.2492 357.369,-22.2278"/>
<polygon fill="midnightblue" stroke="midnightblue" points="358.315,-25.5975 367,-19.5287 356.426,-18.8572 358.315,-25.5975"/>
</g>
<!-- Node3&#45;&gt;Node4 -->
<g id="edge3" class="edge"><title>Node3&#45;&gt;Node4</title>
<path fill="none" stroke="midnightblue" d="M456.372,-69.0443C479.199,-75.479 504.913,-82.727 523.922,-88.0854"/>
<polygon fill="midnightblue" stroke="midnightblue" points="523.157,-91.5062 533.732,-90.8506 525.057,-84.7688 523.157,-91.5062"/>
</g>
<!-- Node5 -->
<g id="node5" class="node"><title>Node5</title>
<g id="a_node5"><a xlink:href="group__mmu__cache.html#gab3016821c0179ce6b85559aa2cc074d3" target="_top" xlink:title="Read from scratchpad. ">
<polygon fill="white" stroke="black" points="500.5,-45.5 500.5,-64.5 605.5,-64.5 605.5,-45.5 500.5,-45.5"/>
<text text-anchor="middle" x="553" y="-52.5" font-family="Helvetica,sans-Serif" font-size="10.00">localram::mem_read</text>
</a>
</g>
</g>
<!-- Node3&#45;&gt;Node5 -->
<g id="edge4" class="edge"><title>Node3&#45;&gt;Node5</title>
<path fill="none" stroke="midnightblue" d="M463.604,-54.4067C472.29,-54.465 481.238,-54.5251 489.952,-54.5836"/>
<polygon fill="midnightblue" stroke="midnightblue" points="490.021,-58.084 500.044,-54.6513 490.068,-51.0842 490.021,-58.084"/>
</g>
<!-- Node6 -->
<g id="node6" class="node"><title>Node6</title>
<g id="a_node6"><a xlink:href="classmem__if.html#aa4c431846b1d11708be4128f84295c6c" target="_top" xlink:title="mem_if::mem_read">
<polygon fill="white" stroke="black" points="502.5,-7.5 502.5,-26.5 603.5,-26.5 603.5,-7.5 502.5,-7.5"/>
<text text-anchor="middle" x="553" y="-14.5" font-family="Helvetica,sans-Serif" font-size="10.00">mem_if::mem_read</text>
</a>
</g>
</g>
<!-- Node3&#45;&gt;Node6 -->
<g id="edge5" class="edge"><title>Node3&#45;&gt;Node6</title>
<path fill="none" stroke="midnightblue" d="M463.604,-38.9507C476.955,-35.6354 490.922,-32.1669 503.71,-28.9916"/>
<polygon fill="midnightblue" stroke="midnightblue" points="504.815,-32.3233 513.677,-26.5164 503.128,-25.5297 504.815,-32.3233"/>
</g>
</g>
</svg>
