<?xml version="1.0" encoding="UTF-8" standalone="no"?>
<!DOCTYPE svg PUBLIC "-//W3C//DTD SVG 1.1//EN"
 "http://www.w3.org/Graphics/SVG/1.1/DTD/svg11.dtd">
<!-- Generated by graphviz version 2.36.0 (20140111.2315)
 -->
<!-- Title: Irqmp::dorst Pages: 1 -->
<svg width="248pt" height="104pt"
 viewBox="0.00 0.00 248.00 104.00" xmlns="http://www.w3.org/2000/svg" xmlns:xlink="http://www.w3.org/1999/xlink">
<g id="graph0" class="graph" transform="scale(1 1) rotate(0) translate(4 100)">
<title>Irqmp::dorst</title>
<polygon fill="white" stroke="none" points="-4,4 -4,-100 244,-100 244,4 -4,4"/>
<!-- Node1 -->
<g id="node1" class="node"><title>Node1</title>
<polygon fill="#bfbfbf" stroke="black" points="0.5,-38.5 0.5,-57.5 69.5,-57.5 69.5,-38.5 0.5,-38.5"/>
<text text-anchor="middle" x="35" y="-45.5" font-family="Helvetica,sans-Serif" font-size="10.00">Irqmp::dorst</text>
</g>
<!-- Node2 -->
<g id="node2" class="node"><title>Node2</title>
<g id="a_node2"><a xlink:href="classIrqmp.html#a3c8cff7597f05713d6264409e35b3bb9" target="_top" xlink:title="Irqmp::PROC_EXTIR_ID">
<polygon fill="white" stroke="black" points="109,-76.5 109,-95.5 237,-95.5 237,-76.5 109,-76.5"/>
<text text-anchor="middle" x="173" y="-83.5" font-family="Helvetica,sans-Serif" font-size="10.00">Irqmp::PROC_EXTIR_ID</text>
</a>
</g>
</g>
<!-- Node1&#45;&gt;Node2 -->
<g id="edge1" class="edge"><title>Node1&#45;&gt;Node2</title>
<path fill="none" stroke="midnightblue" d="M69.618,-57.3933C87.3015,-62.3343 109.195,-68.4515 128.192,-73.7594"/>
<polygon fill="midnightblue" stroke="midnightblue" points="127.251,-77.1306 137.824,-76.4509 129.135,-70.3888 127.251,-77.1306"/>
</g>
<!-- Node3 -->
<g id="node3" class="node"><title>Node3</title>
<g id="a_node3"><a xlink:href="classIrqmp.html#ad006143a3ddef1eb7f1ff51f04b357e2" target="_top" xlink:title="Irqmp::PROC_IR_FORCE">
<polygon fill="white" stroke="black" points="106.5,-38.5 106.5,-57.5 239.5,-57.5 239.5,-38.5 106.5,-38.5"/>
<text text-anchor="middle" x="173" y="-45.5" font-family="Helvetica,sans-Serif" font-size="10.00">Irqmp::PROC_IR_FORCE</text>
</a>
</g>
</g>
<!-- Node1&#45;&gt;Node3 -->
<g id="edge2" class="edge"><title>Node1&#45;&gt;Node3</title>
<path fill="none" stroke="midnightblue" d="M69.618,-48C77.8207,-48 86.9291,-48 96.2341,-48"/>
<polygon fill="midnightblue" stroke="midnightblue" points="96.3747,-51.5001 106.375,-48 96.3746,-44.5001 96.3747,-51.5001"/>
</g>
<!-- Node4 -->
<g id="node4" class="node"><title>Node4</title>
<g id="a_node4"><a xlink:href="classIrqmp.html#a59a8bb294d893b691abe9db0c0a37cfd" target="_top" xlink:title="Irqmp::PROC_IR_MASK">
<polygon fill="white" stroke="black" points="110,-0.5 110,-19.5 236,-19.5 236,-0.5 110,-0.5"/>
<text text-anchor="middle" x="173" y="-7.5" font-family="Helvetica,sans-Serif" font-size="10.00">Irqmp::PROC_IR_MASK</text>
</a>
</g>
</g>
<!-- Node1&#45;&gt;Node4 -->
<g id="edge3" class="edge"><title>Node1&#45;&gt;Node4</title>
<path fill="none" stroke="midnightblue" d="M69.618,-38.6067C87.3015,-33.6657 109.195,-27.5485 128.192,-22.2406"/>
<polygon fill="midnightblue" stroke="midnightblue" points="129.135,-25.6112 137.824,-19.5491 127.251,-18.8694 129.135,-25.6112"/>
</g>
</g>
</svg>
