<?xml version="1.0" encoding="UTF-8" standalone="no"?>
<!DOCTYPE svg PUBLIC "-//W3C//DTD SVG 1.1//EN"
 "http://www.w3.org/Graphics/SVG/1.1/DTD/svg11.dtd">
<!-- Generated by graphviz version 2.26.0 (20091210.2329)
 -->
<!-- Title: mmu_cache::dcio_b_transport Pages: 1 -->
<!--zoomable 1150 -->
<svg id="main" version="1.1" xmlns="http://www.w3.org/2000/svg" xmlns:xlink="http://www.w3.org/1999/xlink" xml:space="preserve" onload="init(evt)">
<style type="text/css"><![CDATA[
.edge:hover path { stroke: red; }
.edge:hover polygon { stroke: red; fill: red; }
]]></style>
<script type="text/javascript"><![CDATA[
var edges = document.getElementsByTagName('g');
if (edges && edges.length) {
  for (var i=0;i<edges.length;i++) {
    if (edges[i].id.substr(0,4)=='edge') {
      edges[i].setAttribute('class','edge');
    }
  }
}
]]></script>
        <defs>
                <circle id="rim" cx="0" cy="0" r="7"/>
                <circle id="rim2" cx="0" cy="0" r="3.5"/>
                <g id="zoomPlus">
                        <use xlink:href="#rim" fill="#404040">
                                <set attributeName="fill" to="#808080" begin="zoomplus.mouseover" end="zoomplus.mouseout"/>
                        </use>
                        <path d="M-4,0h8M0,-4v8" fill="none" stroke="white" stroke-width="1.5" pointer-events="none"/>
                </g>
                <g id="zoomMin">
                        <use xlink:href="#rim" fill="#404040">
                                <set attributeName="fill" to="#808080" begin="zoomminus.mouseover" end="zoomminus.mouseout"/>
                        </use>
                        <path d="M-4,0h8" fill="none" stroke="white" stroke-width="1.5" pointer-events="none"/>
                </g>
                <g id="dirArrow">
                        <path fill="none" stroke="white" stroke-width="1.5" d="M0,-3.0v7 M-2.5,-0.5L0,-3.0L2.5,-0.5"/>
                </g>
               <g id="resetDef">
                       <use xlink:href="#rim2" fill="#404040">
                               <set attributeName="fill" to="#808080" begin="reset.mouseover" end="reset.mouseout"/>
                       </use>
               </g>
        </defs>

<script type="text/javascript">
var viewWidth = 872;
var viewHeight = 1150;
var sectionId = 'dynsection-7';
</script>
<script xlink:href="svgpan.js"/>
<svg id="graph" class="graph">
<g id="viewport">
<title>mmu_cache::dcio_b_transport</title>
<polygon fill="white" stroke="white" points="-4,5 -4,-1146.1 869,-1146.1 869,5 -4,5"/>
<!-- Node1 -->
<g id="node1" class="node"><title>Node1</title>
<polygon fill="#bfbfbf" stroke="black" points="0,-584.5 0,-605.5 148,-605.5 148,-584.5 0,-584.5"/>
<text text-anchor="middle" x="74" y="-592.5" font-family="Helvetica,sans-Serif" font-size="10.00">mmu_cache::dcio_b_transport</text>
</g>
<!-- Node2 -->
<g id="node3" class="node"><title>Node2</title>
<a xlink:href="group__mmu__cache.html#ga5b09db16bcd1fd6eaa235b4733fa9a92" target="_top" xlink:title="Data interface to functional part of the model. ">
<polygon fill="white" stroke="black" points="184.5,-584.5 184.5,-605.5 305.5,-605.5 305.5,-584.5 184.5,-584.5"/>
<text text-anchor="middle" x="245" y="-592.5" font-family="Helvetica,sans-Serif" font-size="10.00">mmu_cache::exec_data</text>
</a>
</g>
<!-- Node1&#45;&gt;Node2 -->
<g id="edge2" class="edge"><title>Node1&#45;&gt;Node2</title>
<path fill="none" stroke="midnightblue" d="M148.009,-595C156.702,-595 165.557,-595 174.205,-595"/>
<polygon fill="midnightblue" stroke="midnightblue" points="174.24,-598.5 184.24,-595 174.24,-591.5 174.24,-598.5"/>
</g>
<!-- Node3 -->
<g id="node5" class="node"><title>Node3</title>
<a xlink:href="cache_8c.html#a0a9e9396972b76c5947592479860020d" target="_top" xlink:title="flush">
<polygon fill="white" stroke="black" points="397,-604.5 397,-625.5 435,-625.5 435,-604.5 397,-604.5"/>
<text text-anchor="middle" x="416" y="-612.5" font-family="Helvetica,sans-Serif" font-size="10.00">flush</text>
</a>
</g>
<!-- Node2&#45;&gt;Node3 -->
<g id="edge4" class="edge"><title>Node2&#45;&gt;Node3</title>
<path fill="none" stroke="midnightblue" d="M305.77,-602.108C333.324,-605.33 364.627,-608.991 386.816,-611.587"/>
<polygon fill="midnightblue" stroke="midnightblue" points="386.582,-615.083 396.921,-612.768 387.395,-608.13 386.582,-615.083"/>
</g>
<!-- Node4 -->
<g id="node7" class="node"><title>Node4</title>
<a xlink:href="group__mmu__cache.html#gabad31e2ea98c32b528bbbad11ecc38e2" target="_top" xlink:title="Data interface to functional part of the model. ">
<polygon fill="white" stroke="black" points="342.5,-564.5 342.5,-585.5 489.5,-585.5 489.5,-564.5 342.5,-564.5"/>
<text text-anchor="middle" x="416" y="-572.5" font-family="Helvetica,sans-Serif" font-size="10.00">mmu_cache_base::exec_data</text>
</a>
</g>
<!-- Node2&#45;&gt;Node4 -->
<g id="edge6" class="edge"><title>Node2&#45;&gt;Node4</title>
<path fill="none" stroke="midnightblue" d="M305.77,-587.892C314.349,-586.889 323.291,-585.843 332.209,-584.8"/>
<polygon fill="midnightblue" stroke="midnightblue" points="332.72,-588.264 342.246,-583.626 331.907,-581.312 332.72,-588.264"/>
</g>
<!-- Node5 -->
<g id="node9" class="node"><title>Node5</title>
<a xlink:href="classcache__if.html#aed3a97268b017872594d189cd621c5c9" target="_top" xlink:title="flush cache ">
<polygon fill="white" stroke="black" points="747,-1095.5 747,-1116.5 827,-1116.5 827,-1095.5 747,-1095.5"/>
<text text-anchor="middle" x="787" y="-1103.5" font-family="Helvetica,sans-Serif" font-size="10.00">cache_if::flush</text>
</a>
</g>
<!-- Node4&#45;&gt;Node5 -->
<g id="edge8" class="edge"><title>Node4&#45;&gt;Node5</title>
<path fill="none" stroke="midnightblue" d="M478.94,-585.52C483.101,-588.077 486.871,-591.198 490,-595 562.472,-683.075 442.568,-1029.23 526,-1107 586.817,-1163.69 694.532,-1138.6 750.676,-1119.84"/>
<polygon fill="midnightblue" stroke="midnightblue" points="751.9,-1123.12 760.21,-1116.55 749.615,-1116.51 751.9,-1123.12"/>
</g>
<!-- Node6 -->
<g id="node11" class="node"><title>Node6</title>
<a xlink:href="group__mmu__cache.html#gae13fd6b248d3f36f8856ef641e05fa6f" target="_top" xlink:title="Read the cache control register. ">
<polygon fill="white" stroke="black" points="530,-704.5 530,-725.5 670,-725.5 670,-704.5 530,-704.5"/>
<text text-anchor="middle" x="600" y="-712.5" font-family="Helvetica,sans-Serif" font-size="10.00">mmu_cache_base::read_ccr</text>
</a>
</g>
<!-- Node4&#45;&gt;Node6 -->
<g id="edge10" class="edge"><title>Node4&#45;&gt;Node6</title>
<path fill="none" stroke="midnightblue" d="M476.062,-585.621C481.136,-588.129 485.89,-591.212 490,-595 524.736,-627.011 491.264,-662.989 526,-695 527.67,-696.539 529.446,-697.961 531.306,-699.276"/>
<polygon fill="midnightblue" stroke="midnightblue" points="529.549,-702.303 539.938,-704.379 533.111,-696.277 529.549,-702.303"/>
</g>
<!-- Node8 -->
<g id="node15" class="node"><title>Node8</title>
<a xlink:href="classcache__if.html#a267dea4fdc804f27b0b057530a76a6b1" target="_top" xlink:title="read cache configuration register (ASI 0x2) ">
<polygon fill="white" stroke="black" points="536,-1036.5 536,-1057.5 664,-1057.5 664,-1036.5 536,-1036.5"/>
<text text-anchor="middle" x="600" y="-1044.5" font-family="Helvetica,sans-Serif" font-size="10.00">cache_if::read_config_reg</text>
</a>
</g>
<!-- Node4&#45;&gt;Node8 -->
<g id="edge14" class="edge"><title>Node4&#45;&gt;Node8</title>
<path fill="none" stroke="midnightblue" d="M478.887,-585.564C483.059,-588.112 486.847,-591.218 490,-595 551.689,-668.99 464.311,-953.01 526,-1027 526.985,-1028.18 528.033,-1029.3 529.134,-1030.35"/>
<polygon fill="midnightblue" stroke="midnightblue" points="527.039,-1033.16 537.113,-1036.44 531.284,-1027.59 527.039,-1033.16"/>
</g>
<!-- Node9 -->
<g id="node17" class="node"><title>Node9</title>
<a xlink:href="group__mmu__cache.html#ga75c5ce5d2ba541b139c01ac7aea84b9e" target="_top" xlink:title="Diagnostic read of instruction PDC (ASI 0x5) ">
<polygon fill="white" stroke="black" points="548,-664.5 548,-685.5 652,-685.5 652,-664.5 548,-664.5"/>
<text text-anchor="middle" x="600" y="-672.5" font-family="Helvetica,sans-Serif" font-size="10.00">mmu::diag_read_itlb</text>
</a>
</g>
<!-- Node4&#45;&gt;Node9 -->
<g id="edge16" class="edge"><title>Node4&#45;&gt;Node9</title>
<path fill="none" stroke="midnightblue" d="M473.078,-585.527C479.117,-588.038 484.904,-591.149 490,-595 514.81,-613.75 501.19,-636.25 526,-655 529.845,-657.906 534.084,-660.39 538.527,-662.514"/>
<polygon fill="midnightblue" stroke="midnightblue" points="537.297,-665.793 547.876,-666.385 539.976,-659.325 537.297,-665.793"/>
</g>
<!-- Node10 -->
<g id="node20" class="node"><title>Node10</title>
<a xlink:href="group__mmu__cache.html#gab273d60128c964526c598cdac37881b3" target="_top" xlink:title="Diagnostic read of data PDC or shared instruction and data PDC (ASI 0x6) ">
<polygon fill="white" stroke="black" points="543.5,-544.5 543.5,-565.5 656.5,-565.5 656.5,-544.5 543.5,-544.5"/>
<text text-anchor="middle" x="600" y="-552.5" font-family="Helvetica,sans-Serif" font-size="10.00">mmu::diag_read_dctlb</text>
</a>
</g>
<!-- Node4&#45;&gt;Node10 -->
<g id="edge20" class="edge"><title>Node4&#45;&gt;Node10</title>
<path fill="none" stroke="midnightblue" d="M489.515,-567.009C503.933,-565.442 518.983,-563.806 533.169,-562.264"/>
<polygon fill="midnightblue" stroke="midnightblue" points="533.76,-565.721 543.323,-561.16 533.004,-558.762 533.76,-565.721"/>
</g>
<!-- Node11 -->
<g id="node23" class="node"><title>Node11</title>
<a xlink:href="classcache__if.html#ae6a15968ff1639737014417a1e716838" target="_top" xlink:title="read data cache tags (ASI 0xe) ">
<polygon fill="white" stroke="black" points="536,-916.5 536,-937.5 664,-937.5 664,-916.5 536,-916.5"/>
<text text-anchor="middle" x="600" y="-924.5" font-family="Helvetica,sans-Serif" font-size="10.00">cache_if::read_cache_tag</text>
</a>
</g>
<!-- Node4&#45;&gt;Node11 -->
<g id="edge24" class="edge"><title>Node4&#45;&gt;Node11</title>
<path fill="none" stroke="midnightblue" d="M478.756,-585.675C482.957,-588.198 486.787,-591.269 490,-595 581.078,-700.779 434.922,-801.221 526,-907 527.004,-908.166 528.068,-909.268 529.185,-910.308"/>
<polygon fill="midnightblue" stroke="midnightblue" points="527.137,-913.147 537.244,-916.325 531.325,-907.538 527.137,-913.147"/>
</g>
<!-- Node12 -->
<g id="node25" class="node"><title>Node12</title>
<a xlink:href="classcache__if.html#a716766377b7b9f0fde5fdc3959e6054a" target="_top" xlink:title="read data cache entries/data (ASI 0xf) ">
<polygon fill="white" stroke="black" points="545,-864 545,-898 655,-898 655,-864 545,-864"/>
<text text-anchor="start" x="553" y="-885" font-family="Helvetica,sans-Serif" font-size="10.00">cache_if::read_cache</text>
<text text-anchor="middle" x="600" y="-872" font-family="Helvetica,sans-Serif" font-size="10.00">_entry</text>
</a>
</g>
<!-- Node4&#45;&gt;Node12 -->
<g id="edge26" class="edge"><title>Node4&#45;&gt;Node12</title>
<path fill="none" stroke="midnightblue" d="M478.32,-585.554C482.676,-588.097 486.657,-591.205 490,-595 567.116,-682.534 452.171,-764.676 526,-855 528.89,-858.535 532.292,-861.59 536.023,-864.231"/>
<polygon fill="midnightblue" stroke="midnightblue" points="534.263,-867.256 544.644,-869.373 537.849,-861.245 534.263,-867.256"/>
</g>
<!-- Node13 -->
<g id="node27" class="node"><title>Node13</title>
<a xlink:href="group__mmu__cache.html#gad7e00bd8627bf65374b3411f77ef5d07" target="_top" xlink:title="Read mmu control register (ASI 0x19) ">
<polygon fill="white" stroke="black" points="557.5,-504.5 557.5,-525.5 642.5,-525.5 642.5,-504.5 557.5,-504.5"/>
<text text-anchor="middle" x="600" y="-512.5" font-family="Helvetica,sans-Serif" font-size="10.00">mmu::read_mcr</text>
</a>
</g>
<!-- Node4&#45;&gt;Node13 -->
<g id="edge28" class="edge"><title>Node4&#45;&gt;Node13</title>
<path fill="none" stroke="midnightblue" d="M442.904,-564.492C465.041,-556.022 497.326,-544.07 526,-535 533.234,-532.712 540.917,-530.45 548.489,-528.318"/>
<polygon fill="midnightblue" stroke="midnightblue" points="549.627,-531.635 558.333,-525.597 547.762,-524.888 549.627,-531.635"/>
</g>
<!-- Node14 -->
<g id="node30" class="node"><title>Node14</title>
<a xlink:href="group__mmu__cache.html#ga9e77f15d7259cc80e26347e1dc3b0c52" target="_top" xlink:title="Read mmu context pointer register (ASI 0x19) ">
<polygon fill="white" stroke="black" points="553.5,-212.5 553.5,-233.5 646.5,-233.5 646.5,-212.5 553.5,-212.5"/>
<text text-anchor="middle" x="600" y="-220.5" font-family="Helvetica,sans-Serif" font-size="10.00">mmu::read_mctpr</text>
</a>
</g>
<!-- Node4&#45;&gt;Node14 -->
<g id="edge32" class="edge"><title>Node4&#45;&gt;Node14</title>
<path fill="none" stroke="midnightblue" d="M418.124,-564.333C428.586,-512.795 476.144,-290.141 526,-243 531.068,-238.208 537.162,-234.54 543.649,-231.737"/>
<polygon fill="midnightblue" stroke="midnightblue" points="545.153,-234.915 553.363,-228.218 542.768,-228.333 545.153,-234.915"/>
</g>
<!-- Node15 -->
<g id="node33" class="node"><title>Node15</title>
<a xlink:href="group__mmu__cache.html#ga03e13ff343682aa047a7ae5b95cdcf98" target="_top" xlink:title="Read mmu context register (ASI 0x19) ">
<polygon fill="white" stroke="black" points="553.5,-172.5 553.5,-193.5 646.5,-193.5 646.5,-172.5 553.5,-172.5"/>
<text text-anchor="middle" x="600" y="-180.5" font-family="Helvetica,sans-Serif" font-size="10.00">mmu::read_mctxr</text>
</a>
</g>
<!-- Node4&#45;&gt;Node15 -->
<g id="edge36" class="edge"><title>Node4&#45;&gt;Node15</title>
<path fill="none" stroke="midnightblue" d="M417.749,-564.185C426.926,-508.701 471.196,-256.529 526,-203 530.989,-198.127 537.037,-194.411 543.501,-191.582"/>
<polygon fill="midnightblue" stroke="midnightblue" points="545.001,-194.76 553.193,-188.042 542.6,-188.185 545.001,-194.76"/>
</g>
<!-- Node16 -->
<g id="node36" class="node"><title>Node16</title>
<a xlink:href="group__mmu__cache.html#gafe4d3dcfc5d31fd829f30a2cca620a85" target="_top" xlink:title="Read mmu fault status register (ASI 0x19) ">
<polygon fill="white" stroke="black" points="556,-996.5 556,-1017.5 644,-1017.5 644,-996.5 556,-996.5"/>
<text text-anchor="middle" x="600" y="-1004.5" font-family="Helvetica,sans-Serif" font-size="10.00">mmu::read_mfsr</text>
</a>
</g>
<!-- Node4&#45;&gt;Node16 -->
<g id="edge40" class="edge"><title>Node4&#45;&gt;Node16</title>
<path fill="none" stroke="midnightblue" d="M478.852,-585.593C483.032,-588.134 486.831,-591.231 490,-595 546.302,-661.951 469.698,-920.049 526,-987 531.359,-993.372 538.518,-997.824 546.277,-1000.91"/>
<polygon fill="midnightblue" stroke="midnightblue" points="545.367,-1004.3 555.959,-1004.05 547.521,-997.638 545.367,-1004.3"/>
</g>
<!-- Node17 -->
<g id="node39" class="node"><title>Node17</title>
<a xlink:href="group__mmu__cache.html#ga6bba88aa3db5d553d62cdc621ca99240" target="_top" xlink:title="Read mmu fault address register (ASI 0x19) ">
<polygon fill="white" stroke="black" points="556,-956.5 556,-977.5 644,-977.5 644,-956.5 556,-956.5"/>
<text text-anchor="middle" x="600" y="-964.5" font-family="Helvetica,sans-Serif" font-size="10.00">mmu::read_mfar</text>
</a>
</g>
<!-- Node4&#45;&gt;Node17 -->
<g id="edge44" class="edge"><title>Node4&#45;&gt;Node17</title>
<path fill="none" stroke="midnightblue" d="M478.809,-585.63C482.999,-588.162 486.811,-591.248 490,-595 591.835,-714.835 424.165,-827.165 526,-947 531.33,-953.272 538.405,-957.681 546.069,-960.761"/>
<polygon fill="midnightblue" stroke="midnightblue" points="545.04,-964.107 555.633,-963.895 547.22,-957.455 545.04,-964.107"/>
</g>
<!-- Node18 -->
<g id="node42" class="node"><title>Node18</title>
<a xlink:href="group__mmu__cache.html#gab3016821c0179ce6b85559aa2cc074d3" target="_top" xlink:title="Read from scratchpad. ">
<polygon fill="white" stroke="black" points="547.5,-624.5 547.5,-645.5 652.5,-645.5 652.5,-624.5 547.5,-624.5"/>
<text text-anchor="middle" x="600" y="-632.5" font-family="Helvetica,sans-Serif" font-size="10.00">localram::mem_read</text>
</a>
</g>
<!-- Node4&#45;&gt;Node18 -->
<g id="edge48" class="edge"><title>Node4&#45;&gt;Node18</title>
<path fill="none" stroke="midnightblue" d="M461.972,-585.559C471.384,-588.238 481.121,-591.397 490,-595 506.96,-601.883 509.04,-608.117 526,-615 531.827,-617.365 538.023,-619.538 544.255,-621.509"/>
<polygon fill="midnightblue" stroke="midnightblue" points="543.444,-624.92 554.028,-624.441 545.455,-618.215 543.444,-624.92"/>
</g>
<!-- Node19 -->
<g id="node44" class="node"><title>Node19</title>
<a xlink:href="classmem__if.html#aa4c431846b1d11708be4128f84295c6c" target="_top" xlink:title="mem_if::mem_read">
<polygon fill="white" stroke="black" points="549.5,-584.5 549.5,-605.5 650.5,-605.5 650.5,-584.5 549.5,-584.5"/>
<text text-anchor="middle" x="600" y="-592.5" font-family="Helvetica,sans-Serif" font-size="10.00">mem_if::mem_read</text>
</a>
</g>
<!-- Node4&#45;&gt;Node19 -->
<g id="edge50" class="edge"><title>Node4&#45;&gt;Node19</title>
<path fill="none" stroke="midnightblue" d="M489.515,-582.991C506.02,-584.785 523.352,-586.669 539.268,-588.399"/>
<polygon fill="midnightblue" stroke="midnightblue" points="539.18,-591.91 549.499,-589.511 539.936,-584.951 539.18,-591.91"/>
</g>
<!-- Node20 -->
<g id="node46" class="node"><title>Node20</title>
<a xlink:href="group__mmu__cache.html#gaeb388f4679b45fd4d56ed45dad9dd21e" target="_top" xlink:title="MemIF implementation &#45; reads data from AHB master. ">
<polygon fill="white" stroke="black" points="526,-132.5 526,-153.5 674,-153.5 674,-132.5 526,-132.5"/>
<text text-anchor="middle" x="600" y="-140.5" font-family="Helvetica,sans-Serif" font-size="10.00">mmu_cache_base::mem_read</text>
</a>
</g>
<!-- Node4&#45;&gt;Node20 -->
<g id="edge52" class="edge"><title>Node4&#45;&gt;Node20</title>
<path fill="none" stroke="midnightblue" d="M417.416,-564.221C425.355,-505.34 466.152,-223.032 526,-163 527.292,-161.704 528.659,-160.49 530.088,-159.352"/>
<polygon fill="midnightblue" stroke="midnightblue" points="532.405,-162.02 538.882,-153.636 528.59,-156.151 532.405,-162.02"/>
</g>
<!-- Node22 -->
<g id="node51" class="node"><title>Node22</title>
<a xlink:href="group__mmu__cache.html#gae5572d125b9fe148dbd117ffc98ede8f" target="_top" xlink:title="Writes the cache control register. ">
<polygon fill="white" stroke="black" points="529,-1076.5 529,-1097.5 671,-1097.5 671,-1076.5 529,-1076.5"/>
<text text-anchor="middle" x="600" y="-1084.5" font-family="Helvetica,sans-Serif" font-size="10.00">mmu_cache_base::write_ccr</text>
</a>
</g>
<!-- Node4&#45;&gt;Node22 -->
<g id="edge58" class="edge"><title>Node4&#45;&gt;Node22</title>
<path fill="none" stroke="midnightblue" d="M478.916,-585.54C483.082,-588.093 486.86,-591.207 490,-595 557.079,-676.031 458.921,-985.969 526,-1067 526.981,-1068.19 528.025,-1069.3 529.123,-1070.36"/>
<polygon fill="midnightblue" stroke="midnightblue" points="527.018,-1073.16 537.084,-1076.46 531.275,-1067.6 527.018,-1073.16"/>
</g>
<!-- Node23 -->
<g id="node55" class="node"><title>Node23</title>
<a xlink:href="classcache__if.html#a6df0437d63d7c5a938841faadceda9ab" target="_top" xlink:title="display of cache lines for debug ">
<polygon fill="white" stroke="black" points="553,-464.5 553,-485.5 647,-485.5 647,-464.5 553,-464.5"/>
<text text-anchor="middle" x="600" y="-472.5" font-family="Helvetica,sans-Serif" font-size="10.00">cache_if::dbg_out</text>
</a>
</g>
<!-- Node4&#45;&gt;Node23 -->
<g id="edge64" class="edge"><title>Node4&#45;&gt;Node23</title>
<path fill="none" stroke="midnightblue" d="M427.597,-564.305C446.697,-547.239 486.595,-513.859 526,-495 531.383,-492.424 537.151,-490.136 543.004,-488.116"/>
<polygon fill="midnightblue" stroke="midnightblue" points="544.418,-491.338 552.88,-484.963 542.29,-484.67 544.418,-491.338"/>
</g>
<!-- Node24 -->
<g id="node57" class="node"><title>Node24</title>
<a xlink:href="group__mmu__cache.html#ga42e5093cd28dbe96abaeb81a8c54c89e" target="_top" xlink:title="Diagnostic write of instruction PDC (ASI 0x5) ">
<polygon fill="white" stroke="black" points="546.5,-424.5 546.5,-445.5 653.5,-445.5 653.5,-424.5 546.5,-424.5"/>
<text text-anchor="middle" x="600" y="-432.5" font-family="Helvetica,sans-Serif" font-size="10.00">mmu::diag_write_itlb</text>
</a>
</g>
<!-- Node4&#45;&gt;Node24 -->
<g id="edge66" class="edge"><title>Node4&#45;&gt;Node24</title>
<path fill="none" stroke="midnightblue" d="M422.785,-564.148C438.133,-540.525 477.948,-484.224 526,-455 529.42,-452.92 533.058,-451.053 536.815,-449.377"/>
<polygon fill="midnightblue" stroke="midnightblue" points="538.342,-452.536 546.345,-445.593 535.759,-446.03 538.342,-452.536"/>
</g>
<!-- Node25 -->
<g id="node59" class="node"><title>Node25</title>
<a xlink:href="group__mmu__cache.html#gacc044d80e3722c74d89ee7ae3ad07485" target="_top" xlink:title="Diagnostic write of data PDC or shared instruction and data PDC (ASI 0x6) ">
<polygon fill="white" stroke="black" points="542.5,-384.5 542.5,-405.5 657.5,-405.5 657.5,-384.5 542.5,-384.5"/>
<text text-anchor="middle" x="600" y="-392.5" font-family="Helvetica,sans-Serif" font-size="10.00">mmu::diag_write_dctlb</text>
</a>
</g>
<!-- Node4&#45;&gt;Node25 -->
<g id="edge68" class="edge"><title>Node4&#45;&gt;Node25</title>
<path fill="none" stroke="midnightblue" d="M420.289,-564.091C432.281,-535.05 469.057,-455.329 526,-415 528.715,-413.077 531.606,-411.339 534.611,-409.768"/>
<polygon fill="midnightblue" stroke="midnightblue" points="536.26,-412.863 543.914,-405.538 533.362,-406.491 536.26,-412.863"/>
</g>
<!-- Node26 -->
<g id="node61" class="node"><title>Node26</title>
<a xlink:href="classcache__if.html#a1e7ce247b9df117d6c13368bae870bb9" target="_top" xlink:title="write data cache tags (ASI 0xe) ">
<polygon fill="white" stroke="black" points="534.5,-344.5 534.5,-365.5 665.5,-365.5 665.5,-344.5 534.5,-344.5"/>
<text text-anchor="middle" x="600" y="-352.5" font-family="Helvetica,sans-Serif" font-size="10.00">cache_if::write_cache_tag</text>
</a>
</g>
<!-- Node4&#45;&gt;Node26 -->
<g id="edge70" class="edge"><title>Node4&#45;&gt;Node26</title>
<path fill="none" stroke="midnightblue" d="M418.65,-564.381C427.553,-530.973 459.629,-427.147 526,-375 528.106,-373.345 530.338,-371.827 532.664,-370.434"/>
<polygon fill="midnightblue" stroke="midnightblue" points="534.708,-373.321 542.027,-365.66 531.528,-367.085 534.708,-373.321"/>
</g>
<!-- Node27 -->
<g id="node63" class="node"><title>Node27</title>
<a xlink:href="classcache__if.html#a0b1de9ad69bad01deba0ee7c21bd8d50" target="_top" xlink:title="write data cache entries/data (ASI 0xf) ">
<polygon fill="white" stroke="black" points="544,-292 544,-326 656,-326 656,-292 544,-292"/>
<text text-anchor="start" x="552" y="-313" font-family="Helvetica,sans-Serif" font-size="10.00">cache_if::write_cache</text>
<text text-anchor="middle" x="600" y="-300" font-family="Helvetica,sans-Serif" font-size="10.00">_entry</text>
</a>
</g>
<!-- Node4&#45;&gt;Node27 -->
<g id="edge72" class="edge"><title>Node4&#45;&gt;Node27</title>
<path fill="none" stroke="midnightblue" d="M417.812,-564.398C424.702,-527.287 452.684,-401.871 526,-335 528.779,-332.465 531.82,-330.174 535.035,-328.105"/>
<polygon fill="midnightblue" stroke="midnightblue" points="536.885,-331.08 543.886,-323.127 533.454,-324.978 536.885,-331.08"/>
</g>
<!-- Node28 -->
<g id="node65" class="node"><title>Node28</title>
<a xlink:href="group__mmu__cache.html#ga0f1e78dd250c1b7791a8e5bca5051fcf" target="_top" xlink:title="TLB flush complete. ">
<polygon fill="white" stroke="black" points="559.5,-252.5 559.5,-273.5 640.5,-273.5 640.5,-252.5 559.5,-252.5"/>
<text text-anchor="middle" x="600" y="-260.5" font-family="Helvetica,sans-Serif" font-size="10.00">mmu::tlb_flush</text>
</a>
</g>
<!-- Node4&#45;&gt;Node28 -->
<g id="edge74" class="edge"><title>Node4&#45;&gt;Node28</title>
<path fill="none" stroke="midnightblue" d="M416.658,-564.344C419.867,-521.902 437.568,-363.3 526,-283 532.657,-276.955 540.956,-272.708 549.565,-269.73"/>
<polygon fill="midnightblue" stroke="midnightblue" points="550.725,-273.038 559.346,-266.88 548.767,-266.317 550.725,-273.038"/>
</g>
<!-- Node29 -->
<g id="node67" class="node"><title>Node29</title>
<a xlink:href="group__mmu__cache.html#ga6dfa5b1862b7cc9e557bc001882b4a1d" target="_top" xlink:title="Write mmu control register (ASI 0x19) ">
<polygon fill="white" stroke="black" points="556.5,-784.5 556.5,-805.5 643.5,-805.5 643.5,-784.5 556.5,-784.5"/>
<text text-anchor="middle" x="600" y="-792.5" font-family="Helvetica,sans-Serif" font-size="10.00">mmu::write_mcr</text>
</a>
</g>
<!-- Node4&#45;&gt;Node29 -->
<g id="edge76" class="edge"><title>Node4&#45;&gt;Node29</title>
<path fill="none" stroke="midnightblue" d="M477.728,-585.579C482.271,-588.11 486.454,-591.21 490,-595 545.737,-654.577 470.263,-715.423 526,-775 531.624,-781.011 538.849,-785.285 546.575,-788.31"/>
<polygon fill="midnightblue" stroke="midnightblue" points="545.58,-791.667 556.172,-791.414 547.734,-785.006 545.58,-791.667"/>
</g>
<!-- Node30 -->
<g id="node70" class="node"><title>Node30</title>
<a xlink:href="group__mmu__cache.html#ga5295604a4cae87e2f90332e25858e188" target="_top" xlink:title="Write mmu context pointer register (ASI 0x19) ">
<polygon fill="white" stroke="black" points="552.5,-744.5 552.5,-765.5 647.5,-765.5 647.5,-744.5 552.5,-744.5"/>
<text text-anchor="middle" x="600" y="-752.5" font-family="Helvetica,sans-Serif" font-size="10.00">mmu::write_mctpr</text>
</a>
</g>
<!-- Node4&#45;&gt;Node30 -->
<g id="edge80" class="edge"><title>Node4&#45;&gt;Node30</title>
<path fill="none" stroke="midnightblue" d="M477.155,-585.599C481.881,-588.121 486.259,-591.213 490,-595 535.149,-640.707 480.851,-689.293 526,-735 530.776,-739.835 536.59,-743.536 542.839,-746.364"/>
<polygon fill="midnightblue" stroke="midnightblue" points="541.644,-749.654 552.235,-749.914 544.117,-743.106 541.644,-749.654"/>
</g>
<!-- Node31 -->
<g id="node73" class="node"><title>Node31</title>
<a xlink:href="group__mmu__cache.html#gae396da592bf30563c3c391d8169e9d7c" target="_top" xlink:title="Write mmu context register (ASI 0x19) ">
<polygon fill="white" stroke="black" points="552.5,-824.5 552.5,-845.5 647.5,-845.5 647.5,-824.5 552.5,-824.5"/>
<text text-anchor="middle" x="600" y="-832.5" font-family="Helvetica,sans-Serif" font-size="10.00">mmu::write_mctxr</text>
</a>
</g>
<!-- Node4&#45;&gt;Node31 -->
<g id="edge84" class="edge"><title>Node4&#45;&gt;Node31</title>
<path fill="none" stroke="midnightblue" d="M478.219,-585.644C482.597,-588.167 486.611,-591.247 490,-595 556.405,-668.531 459.595,-741.469 526,-815 530.614,-820.11 536.386,-823.971 542.658,-826.88"/>
<polygon fill="midnightblue" stroke="midnightblue" points="541.54,-830.199 552.13,-830.494 544.035,-823.659 541.54,-830.199"/>
</g>
<!-- Node32 -->
<g id="node76" class="node"><title>Node32</title>
<a xlink:href="group__mmu__cache.html#gab78bf99c0844981f0f237097c265e93d" target="_top" xlink:title="Write to scratchpad. ">
<polygon fill="white" stroke="black" points="546.5,-92.5 546.5,-113.5 653.5,-113.5 653.5,-92.5 546.5,-92.5"/>
<text text-anchor="middle" x="600" y="-100.5" font-family="Helvetica,sans-Serif" font-size="10.00">localram::mem_write</text>
</a>
</g>
<!-- Node4&#45;&gt;Node32 -->
<g id="edge88" class="edge"><title>Node4&#45;&gt;Node32</title>
<path fill="none" stroke="midnightblue" d="M417.123,-564.423C423.877,-502.714 461.019,-189.642 526,-123 529.276,-119.64 533.054,-116.826 537.134,-114.471"/>
<polygon fill="midnightblue" stroke="midnightblue" points="538.95,-117.483 546.467,-110.017 535.935,-111.165 538.95,-117.483"/>
</g>
<!-- Node33 -->
<g id="node78" class="node"><title>Node33</title>
<a xlink:href="classmem__if.html#a18817b6b8bfff9aeb10b1f6aaecf80fd" target="_top" xlink:title="mem_if::mem_write">
<polygon fill="white" stroke="black" points="548.5,-52.5 548.5,-73.5 651.5,-73.5 651.5,-52.5 548.5,-52.5"/>
<text text-anchor="middle" x="600" y="-60.5" font-family="Helvetica,sans-Serif" font-size="10.00">mem_if::mem_write</text>
</a>
</g>
<!-- Node4&#45;&gt;Node33 -->
<g id="edge90" class="edge"><title>Node4&#45;&gt;Node33</title>
<path fill="none" stroke="midnightblue" d="M416.905,-564.355C422.64,-499.345 455.956,-156.196 526,-83 529.701,-79.1329 534.065,-75.9873 538.793,-73.4319"/>
<polygon fill="midnightblue" stroke="midnightblue" points="540.548,-76.4812 548.255,-69.2106 537.696,-70.0886 540.548,-76.4812"/>
</g>
<!-- Node34 -->
<g id="node80" class="node"><title>Node34</title>
<a xlink:href="group__mmu__cache.html#gad5a97e4279ca84676521be3b6828ccc6" target="_top" xlink:title="MemIF implementation &#45; writes data to AHB master. ">
<polygon fill="white" stroke="black" points="538,-0 538,-34 662,-34 662,-0 538,-0"/>
<text text-anchor="start" x="546" y="-21" font-family="Helvetica,sans-Serif" font-size="10.00">mmu_cache_base::mem</text>
<text text-anchor="middle" x="600" y="-8" font-family="Helvetica,sans-Serif" font-size="10.00">_write</text>
</a>
</g>
<!-- Node4&#45;&gt;Node34 -->
<g id="edge92" class="edge"><title>Node4&#45;&gt;Node34</title>
<path fill="none" stroke="midnightblue" d="M416.786,-564.461C422.02,-496.966 453.836,-125.544 526,-43 527.171,-41.6609 528.415,-40.3907 529.721,-39.1859"/>
<polygon fill="midnightblue" stroke="midnightblue" points="532.012,-41.8399 537.817,-32.9765 527.752,-36.2856 532.012,-41.8399"/>
</g>
<!-- Node7 -->
<g id="node13" class="node"><title>Node7</title>
<a xlink:href="group__common.html#ga2e70f90e04ee467d36debee5245ead91" target="_top" xlink:title="swap_Endianess">
<polygon fill="white" stroke="black" points="741.5,-704.5 741.5,-725.5 832.5,-725.5 832.5,-704.5 741.5,-704.5"/>
<text text-anchor="middle" x="787" y="-712.5" font-family="Helvetica,sans-Serif" font-size="10.00">swap_Endianess</text>
</a>
</g>
<!-- Node6&#45;&gt;Node7 -->
<g id="edge12" class="edge"><title>Node6&#45;&gt;Node7</title>
<path fill="none" stroke="midnightblue" d="M670.164,-715C690.369,-715 712.127,-715 731.326,-715"/>
<polygon fill="midnightblue" stroke="midnightblue" points="731.406,-718.5 741.406,-715 731.406,-711.5 731.406,-718.5"/>
</g>
<!-- Node9&#45;&gt;Node7 -->
<g id="edge18" class="edge"><title>Node9&#45;&gt;Node7</title>
<path fill="none" stroke="midnightblue" d="M649.132,-685.51C674.352,-690.904 705.179,-697.498 731.283,-703.082"/>
<polygon fill="midnightblue" stroke="midnightblue" points="730.893,-706.578 741.404,-705.247 732.357,-699.733 730.893,-706.578"/>
</g>
<!-- Node10&#45;&gt;Node7 -->
<g id="edge22" class="edge"><title>Node10&#45;&gt;Node7</title>
<path fill="none" stroke="midnightblue" d="M654.653,-565.516C661.458,-568.033 668.092,-571.147 674,-575 722.162,-606.406 759.487,-665.032 776.659,-695.495"/>
<polygon fill="midnightblue" stroke="midnightblue" points="773.629,-697.249 781.514,-704.326 779.763,-693.876 773.629,-697.249"/>
</g>
<!-- Node13&#45;&gt;Node7 -->
<g id="edge30" class="edge"><title>Node13&#45;&gt;Node7</title>
<path fill="none" stroke="midnightblue" d="M642.772,-520.842C653.694,-523.806 664.907,-528.271 674,-535 730.689,-576.951 765.718,-656.597 779.83,-694.266"/>
<polygon fill="midnightblue" stroke="midnightblue" points="776.702,-695.908 783.399,-704.118 783.284,-693.524 776.702,-695.908"/>
</g>
<!-- Node14&#45;&gt;Node7 -->
<g id="edge34" class="edge"><title>Node14&#45;&gt;Node7</title>
<path fill="none" stroke="midnightblue" d="M646.702,-227.647C656.823,-230.668 666.674,-235.459 674,-243 738.765,-309.67 775.827,-611.988 784.833,-694.27"/>
<polygon fill="midnightblue" stroke="midnightblue" points="781.37,-694.803 785.918,-704.372 788.33,-694.056 781.37,-694.803"/>
</g>
<!-- Node15&#45;&gt;Node7 -->
<g id="edge38" class="edge"><title>Node15&#45;&gt;Node7</title>
<path fill="none" stroke="midnightblue" d="M646.799,-187.554C656.916,-190.578 666.742,-195.394 674,-203 743.768,-276.107 777.516,-607.541 785.244,-694.21"/>
<polygon fill="midnightblue" stroke="midnightblue" points="781.774,-694.7 786.129,-704.358 788.747,-694.092 781.774,-694.7"/>
</g>
<!-- Node16&#45;&gt;Node7 -->
<g id="edge42" class="edge"><title>Node16&#45;&gt;Node7</title>
<path fill="none" stroke="midnightblue" d="M644.336,-1001.93C655.003,-998.952 665.699,-994.288 674,-987 752.237,-918.31 777.503,-786.832 784.569,-735.888"/>
<polygon fill="midnightblue" stroke="midnightblue" points="788.065,-736.139 785.875,-725.773 781.123,-735.243 788.065,-736.139"/>
</g>
<!-- Node17&#45;&gt;Node7 -->
<g id="edge46" class="edge"><title>Node17&#45;&gt;Node7</title>
<path fill="none" stroke="midnightblue" d="M644.044,-961.585C654.714,-958.614 665.486,-954.037 674,-947 742.906,-890.042 773.048,-780.918 782.991,-735.561"/>
<polygon fill="midnightblue" stroke="midnightblue" points="786.43,-736.211 785.049,-725.706 779.578,-734.78 786.43,-736.211"/>
</g>
<!-- Node20&#45;&gt;Node7 -->
<g id="edge56" class="edge"><title>Node20&#45;&gt;Node7</title>
<path fill="none" stroke="midnightblue" d="M661.709,-153.596C666.257,-156.124 670.446,-159.218 674,-163 748.843,-242.637 779.123,-603.783 785.613,-694.352"/>
<polygon fill="midnightblue" stroke="midnightblue" points="782.13,-694.712 786.317,-704.445 789.113,-694.225 782.13,-694.712"/>
</g>
<!-- Node21 -->
<g id="node48" class="node"><title>Node21</title>
<a xlink:href="classAHBMaster.html#ac1a28c85f3f099e6c356f621a574ac27" target="_top" xlink:title="Generic AHB debug access function. ">
<polygon fill="white" stroke="black" points="710,-69.5 710,-90.5 864,-90.5 864,-69.5 710,-69.5"/>
<text text-anchor="middle" x="787" y="-77.5" font-family="Helvetica,sans-Serif" font-size="10.00">AHBMaster&lt;&gt;::ahbaccess_dbg</text>
</a>
</g>
<!-- Node20&#45;&gt;Node21 -->
<g id="edge54" class="edge"><title>Node20&#45;&gt;Node21</title>
<path fill="none" stroke="midnightblue" d="M642.089,-132.404C652.574,-129.551 663.747,-126.327 674,-123 700.436,-114.421 729.754,-103.214 751.901,-94.3917"/>
<polygon fill="midnightblue" stroke="midnightblue" points="753.253,-97.6207 761.23,-90.6481 750.646,-91.1243 753.253,-97.6207"/>
</g>
<!-- Node22&#45;&gt;Node5 -->
<g id="edge62" class="edge"><title>Node22&#45;&gt;Node5</title>
<path fill="none" stroke="midnightblue" d="M671.23,-1094.24C693.028,-1096.45 716.54,-1098.84 736.644,-1100.88"/>
<polygon fill="midnightblue" stroke="midnightblue" points="736.517,-1104.39 746.819,-1101.92 737.224,-1097.42 736.517,-1104.39"/>
</g>
<!-- Node22&#45;&gt;Node7 -->
<g id="edge60" class="edge"><title>Node22&#45;&gt;Node7</title>
<path fill="none" stroke="midnightblue" d="M660.561,-1076.35C665.472,-1073.84 670.053,-1070.77 674,-1067 723.92,-1019.36 769.703,-803.404 783.079,-735.501"/>
<polygon fill="midnightblue" stroke="midnightblue" points="786.533,-736.076 785.007,-725.592 779.662,-734.739 786.533,-736.076"/>
</g>
<!-- Node29&#45;&gt;Node7 -->
<g id="edge78" class="edge"><title>Node29&#45;&gt;Node7</title>
<path fill="none" stroke="midnightblue" d="M643.574,-784.968C653.704,-782.158 664.345,-778.812 674,-775 705.093,-762.723 738.682,-744.145 761.086,-730.916"/>
<polygon fill="midnightblue" stroke="midnightblue" points="763.176,-733.745 769.963,-725.609 759.584,-727.737 763.176,-733.745"/>
</g>
<!-- Node30&#45;&gt;Node7 -->
<g id="edge82" class="edge"><title>Node30&#45;&gt;Node7</title>
<path fill="none" stroke="midnightblue" d="M647.672,-744.803C673.195,-739.343 704.771,-732.589 731.407,-726.892"/>
<polygon fill="midnightblue" stroke="midnightblue" points="732.303,-730.279 741.35,-724.765 730.839,-723.434 732.303,-730.279"/>
</g>
<!-- Node31&#45;&gt;Node7 -->
<g id="edge86" class="edge"><title>Node31&#45;&gt;Node7</title>
<path fill="none" stroke="midnightblue" d="M647.83,-825.548C656.814,-822.816 665.916,-819.356 674,-815 713.847,-793.53 751.381,-755.489 771.573,-733.025"/>
<polygon fill="midnightblue" stroke="midnightblue" points="774.209,-735.328 778.199,-725.513 768.959,-730.697 774.209,-735.328"/>
</g>
<!-- Node34&#45;&gt;Node21 -->
<g id="edge94" class="edge"><title>Node34&#45;&gt;Node21</title>
<path fill="none" stroke="midnightblue" d="M650.605,-34.0487C680.6,-44.1539 718.114,-56.7924 746.204,-66.2558"/>
<polygon fill="midnightblue" stroke="midnightblue" points="745.124,-69.5854 755.719,-69.4613 747.359,-62.9518 745.124,-69.5854"/>
</g>
</g>
</svg>
        <g id="navigator" transform="translate(0 0)" fill="#404254">
                <rect fill="#f2f5e9" fill-opacity="0.5" stroke="#606060" stroke-width=".5" x="0" y="0" width="60" height="60"/>
                <use id="zoomplus" xlink:href="#zoomPlus" x="17" y="9" onmousedown="handleZoom(evt,'in')"/>
                <use id="zoomminus" xlink:href="#zoomMin" x="42" y="9" onmousedown="handleZoom(evt,'out')"/>
                <use id="reset" xlink:href="#resetDef" x="30" y="36" onmousedown="handleReset()"/>
                <g id="arrowUp" xlink:href="#dirArrow" transform="translate(30 24)" onmousedown="handlePan(0,-1)">
                  <use xlink:href="#rim" fill="#404040">
                        <set attributeName="fill" to="#808080" begin="arrowUp.mouseover" end="arrowUp.mouseout"/>
                  </use>
                  <path fill="none" stroke="white" stroke-width="1.5" d="M0,-3.0v7 M-2.5,-0.5L0,-3.0L2.5,-0.5"/>
                </g>
                <g id="arrowRight" xlink:href="#dirArrow" transform="rotate(90) translate(36 -43)" onmousedown="handlePan(1,0)">
                  <use xlink:href="#rim" fill="#404040">
                        <set attributeName="fill" to="#808080" begin="arrowRight.mouseover" end="arrowRight.mouseout"/>
                  </use>
                  <path fill="none" stroke="white" stroke-width="1.5" d="M0,-3.0v7 M-2.5,-0.5L0,-3.0L2.5,-0.5"/>
                </g>
                <g id="arrowDown" xlink:href="#dirArrow" transform="rotate(180) translate(-30 -48)" onmousedown="handlePan(0,1)">
                  <use xlink:href="#rim" fill="#404040">
                        <set attributeName="fill" to="#808080" begin="arrowDown.mouseover" end="arrowDown.mouseout"/>
                  </use>
                  <path fill="none" stroke="white" stroke-width="1.5" d="M0,-3.0v7 M-2.5,-0.5L0,-3.0L2.5,-0.5"/>
                </g>
                <g id="arrowLeft" xlink:href="#dirArrow" transform="rotate(270) translate(-36 17)" onmousedown="handlePan(-1,0)">
                  <use xlink:href="#rim" fill="#404040">
                        <set attributeName="fill" to="#808080" begin="arrowLeft.mouseover" end="arrowLeft.mouseout"/>
                  </use>
                  <path fill="none" stroke="white" stroke-width="1.5" d="M0,-3.0v7 M-2.5,-0.5L0,-3.0L2.5,-0.5"/>
                </g>
        </g>
        <svg viewBox="0 0 15 15" width="100%" height="30px" preserveAspectRatio="xMaxYMin meet">
         <g id="arrow_out" transform="scale(0.3 0.3)">
          <a xlink:href="group__mmu__cache_gafbc150cc7b26c370a878245cd09043b5_cgraph_org.svg" target="_base">
           <rect id="button" ry="5" rx="5" y="6" x="6" height="38" width="38"
                fill="#f2f5e9" fill-opacity="0.5" stroke="#606060" stroke-width="1.0"/>
           <path id="arrow"
             d="M 11.500037,31.436501 C 11.940474,20.09759 22.043105,11.32322 32.158766,21.979434 L 37.068811,17.246167 C 37.068811,17.246167 37.088388,32 37.088388,32 L 22.160133,31.978069 C 22.160133,31.978069 26.997745,27.140456 26.997745,27.140456 C 18.528582,18.264221 13.291696,25.230495 11.500037,31.436501 z"
             style="fill:#404040;"/>
          </a>
         </g>
        </svg>
</svg>
