<?xml version="1.0" encoding="UTF-8" standalone="no"?>
<!DOCTYPE svg PUBLIC "-//W3C//DTD SVG 1.1//EN"
 "http://www.w3.org/Graphics/SVG/1.1/DTD/svg11.dtd">
<!-- Generated by graphviz version 2.38.0 (20140413.2041)
 -->
<!-- Title: mmu_cache::mmu_cache Pages: 1 -->
<svg width="1045pt" height="1238pt"
 viewBox="0.00 0.00 1045.00 1238.33" xmlns="http://www.w3.org/2000/svg" xmlns:xlink="http://www.w3.org/1999/xlink">
<g id="graph0" class="graph" transform="scale(1 1) rotate(0) translate(4 1234.33)">
<title>mmu_cache::mmu_cache</title>
<polygon fill="white" stroke="none" points="-4,4 -4,-1234.33 1041,-1234.33 1041,4 -4,4"/>
<!-- Node1 -->
<g id="node1" class="node"><title>Node1</title>
<polygon fill="#bfbfbf" stroke="black" points="0,-309.644 0,-328.644 129,-328.644 129,-309.644 0,-309.644"/>
<text text-anchor="middle" x="64.5" y="-316.644" font-family="Helvetica,sans-Serif" font-size="10.00">mmu_cache::mmu_cache</text>
</g>
<!-- Node2 -->
<g id="node2" class="node"><title>Node2</title>
<g id="a_node2"><a xlink:href="group__mmu__cache.html#gafbc150cc7b26c370a878245cd09043b5" target="_top" xlink:title="TLM blocking forward transport function for dcio socket. ">
<polygon fill="white" stroke="black" points="170,-328.644 170,-347.644 318,-347.644 318,-328.644 170,-328.644"/>
<text text-anchor="middle" x="244" y="-335.644" font-family="Helvetica,sans-Serif" font-size="10.00">mmu_cache::dcio_b_transport</text>
</a>
</g>
</g>
<!-- Node1&#45;&gt;Node2 -->
<g id="edge1" class="edge"><title>Node1&#45;&gt;Node2</title>
<path fill="none" stroke="midnightblue" d="M129.08,-325.95C139.003,-327.012 149.383,-328.124 159.666,-329.224"/>
<polygon fill="midnightblue" stroke="midnightblue" points="159.581,-332.735 169.896,-330.319 160.326,-325.775 159.581,-332.735"/>
</g>
<!-- Node37 -->
<g id="node37" class="node"><title>Node37</title>
<g id="a_node37"><a xlink:href="group__mmu__cache.html#gab300fbccb17bcbdbb63c20ba2f24dac9" target="_top" xlink:title="TLM non&#45;blocking forward transport function for dcio socket. ">
<polygon fill="white" stroke="black" points="189,-192.144 189,-222.144 299,-222.144 299,-192.144 189,-192.144"/>
<text text-anchor="start" x="197" y="-210.144" font-family="Helvetica,sans-Serif" font-size="10.00">mmu_cache::dcio_nb</text>
<text text-anchor="middle" x="244" y="-199.144" font-family="Helvetica,sans-Serif" font-size="10.00">_transport_fw</text>
</a>
</g>
</g>
<!-- Node1&#45;&gt;Node37 -->
<g id="edge50" class="edge"><title>Node1&#45;&gt;Node37</title>
<path fill="none" stroke="midnightblue" d="M73.8549,-309.615C89.8526,-291.919 126.643,-253.818 165,-232.144 169.527,-229.587 174.351,-227.25 179.297,-225.122"/>
<polygon fill="midnightblue" stroke="midnightblue" points="180.918,-228.244 188.909,-221.287 178.324,-221.742 180.918,-228.244"/>
</g>
<!-- Node38 -->
<g id="node38" class="node"><title>Node38</title>
<g id="a_node38"><a xlink:href="group__mmu__cache.html#gaec92189beb3daae68c486a92b51b395f" target="_top" xlink:title="Data service thread for AT. ">
<polygon fill="white" stroke="black" points="178.5,-241.144 178.5,-271.144 309.5,-271.144 309.5,-241.144 178.5,-241.144"/>
<text text-anchor="start" x="186.5" y="-259.144" font-family="Helvetica,sans-Serif" font-size="10.00">mmu_cache::dcio_service</text>
<text text-anchor="middle" x="244" y="-248.144" font-family="Helvetica,sans-Serif" font-size="10.00">_thread</text>
</a>
</g>
</g>
<!-- Node1&#45;&gt;Node38 -->
<g id="edge51" class="edge"><title>Node1&#45;&gt;Node38</title>
<path fill="none" stroke="midnightblue" d="M89.4915,-309.56C109.561,-301.644 139.002,-290.267 165,-281.144 171.401,-278.898 178.125,-276.621 184.829,-274.403"/>
<polygon fill="midnightblue" stroke="midnightblue" points="186.182,-277.642 194.597,-271.205 184.004,-270.99 186.182,-277.642"/>
</g>
<!-- Node39 -->
<g id="node39" class="node"><title>Node39</title>
<g id="a_node39"><a xlink:href="group__mmu__cache.html#ga87210b03099a503266e09719000ababa" target="_top" xlink:title="TLM data debug transport. ">
<polygon fill="white" stroke="black" points="165,-290.644 165,-309.644 323,-309.644 323,-290.644 165,-290.644"/>
<text text-anchor="middle" x="244" y="-297.644" font-family="Helvetica,sans-Serif" font-size="10.00">mmu_cache::dcio_transport_dbg</text>
</a>
</g>
</g>
<!-- Node1&#45;&gt;Node39 -->
<g id="edge54" class="edge"><title>Node1&#45;&gt;Node39</title>
<path fill="none" stroke="midnightblue" d="M129.08,-312.339C137.446,-311.443 146.136,-310.513 154.819,-309.584"/>
<polygon fill="midnightblue" stroke="midnightblue" points="155.419,-313.039 164.99,-308.495 154.674,-306.079 155.419,-313.039"/>
</g>
<!-- Node40 -->
<g id="node40" class="node"><title>Node40</title>
<g id="a_node40"><a xlink:href="group__mmu__cache.html#ga18f63ba06685a9977c4e1d38e8c77af5" target="_top" xlink:title="TLM blocking forward transport function for icio socket. ">
<polygon fill="white" stroke="black" points="171.5,-774.644 171.5,-793.644 316.5,-793.644 316.5,-774.644 171.5,-774.644"/>
<text text-anchor="middle" x="244" y="-781.644" font-family="Helvetica,sans-Serif" font-size="10.00">mmu_cache::icio_b_transport</text>
</a>
</g>
</g>
<!-- Node1&#45;&gt;Node40 -->
<g id="edge56" class="edge"><title>Node1&#45;&gt;Node40</title>
<path fill="none" stroke="midnightblue" d="M67.3616,-328.915C75.4294,-370.184 109.489,-533.806 165,-658.144 183.24,-699.001 212.696,-742.497 229.71,-766.19"/>
<polygon fill="midnightblue" stroke="midnightblue" points="227.061,-768.497 235.773,-774.526 232.722,-764.38 227.061,-768.497"/>
</g>
<!-- Node43 -->
<g id="node43" class="node"><title>Node43</title>
<g id="a_node43"><a xlink:href="group__mmu__cache.html#gad072ba30027f3a5ec2a76cefc147cfcd" target="_top" xlink:title="TLM non&#45;blocking forward transport function for icio socket. ">
<polygon fill="white" stroke="black" points="190.5,-143.144 190.5,-173.144 297.5,-173.144 297.5,-143.144 190.5,-143.144"/>
<text text-anchor="start" x="198.5" y="-161.144" font-family="Helvetica,sans-Serif" font-size="10.00">mmu_cache::icio_nb</text>
<text text-anchor="middle" x="244" y="-150.144" font-family="Helvetica,sans-Serif" font-size="10.00">_transport_fw</text>
</a>
</g>
</g>
<!-- Node1&#45;&gt;Node43 -->
<g id="edge64" class="edge"><title>Node1&#45;&gt;Node43</title>
<path fill="none" stroke="midnightblue" d="M69.8097,-309.641C81.4756,-284.975 116.114,-218.39 165,-183.144 169.877,-179.628 175.271,-176.591 180.878,-173.972"/>
<polygon fill="midnightblue" stroke="midnightblue" points="182.597,-177.046 190.461,-169.946 179.886,-170.592 182.597,-177.046"/>
</g>
<!-- Node44 -->
<g id="node44" class="node"><title>Node44</title>
<g id="a_node44"><a xlink:href="group__mmu__cache.html#ga081987e3d373aa83189d2ba1665e424f" target="_top" xlink:title="Instruction service thread for AT. ">
<polygon fill="white" stroke="black" points="180,-367.144 180,-397.144 308,-397.144 308,-367.144 180,-367.144"/>
<text text-anchor="start" x="188" y="-385.144" font-family="Helvetica,sans-Serif" font-size="10.00">mmu_cache::icio_service</text>
<text text-anchor="middle" x="244" y="-374.144" font-family="Helvetica,sans-Serif" font-size="10.00">_thread</text>
</a>
</g>
</g>
<!-- Node1&#45;&gt;Node44 -->
<g id="edge65" class="edge"><title>Node1&#45;&gt;Node44</title>
<path fill="none" stroke="midnightblue" d="M89.4915,-328.729C109.561,-336.645 139.002,-348.021 165,-357.144 171.401,-359.391 178.125,-361.668 184.829,-363.886"/>
<polygon fill="midnightblue" stroke="midnightblue" points="184.004,-367.299 194.597,-367.084 186.182,-360.647 184.004,-367.299"/>
</g>
<!-- Node45 -->
<g id="node45" class="node"><title>Node45</title>
<g id="a_node45"><a xlink:href="group__mmu__cache.html#ga0d903b6a6623ae513f540e785cea502a" target="_top" xlink:title="TLM instruction debug transport. ">
<polygon fill="white" stroke="black" points="166.5,-629.644 166.5,-648.644 321.5,-648.644 321.5,-629.644 166.5,-629.644"/>
<text text-anchor="middle" x="244" y="-636.644" font-family="Helvetica,sans-Serif" font-size="10.00">mmu_cache::icio_transport_dbg</text>
</a>
</g>
</g>
<!-- Node1&#45;&gt;Node45 -->
<g id="edge68" class="edge"><title>Node1&#45;&gt;Node45</title>
<path fill="none" stroke="midnightblue" d="M70.8122,-328.721C95.5137,-373.254 199.346,-560.445 232.663,-620.509"/>
<polygon fill="midnightblue" stroke="midnightblue" points="229.797,-622.558 237.708,-629.605 235.918,-619.162 229.797,-622.558"/>
</g>
<!-- Node3 -->
<g id="node3" class="node"><title>Node3</title>
<g id="a_node3"><a xlink:href="group__mmu__cache.html#ga5b09db16bcd1fd6eaa235b4733fa9a92" target="_top" xlink:title="Data interface to functional part of the model. ">
<polygon fill="white" stroke="black" points="359,-268.644 359,-287.644 480,-287.644 480,-268.644 359,-268.644"/>
<text text-anchor="middle" x="419.5" y="-275.644" font-family="Helvetica,sans-Serif" font-size="10.00">mmu_cache::exec_data</text>
</a>
</g>
</g>
<!-- Node2&#45;&gt;Node3 -->
<g id="edge2" class="edge"><title>Node2&#45;&gt;Node3</title>
<path fill="none" stroke="midnightblue" d="M290.825,-328.62C301.507,-325.951 312.751,-322.771 323,-319.144 339.681,-313.243 342.788,-309.235 359,-302.144 367.142,-298.584 375.988,-294.911 384.308,-291.543"/>
<polygon fill="midnightblue" stroke="midnightblue" points="385.781,-294.723 393.76,-287.753 383.176,-288.226 385.781,-294.723"/>
</g>
<!-- Node4 -->
<g id="node4" class="node"><title>Node4</title>
<g id="a_node4"><a xlink:href="group__mmu__cache__base.html#gabad31e2ea98c32b528bbbad11ecc38e2" target="_top" xlink:title="Data interface to functional part of the model. ">
<polygon fill="white" stroke="black" points="516,-559.644 516,-578.644 663,-578.644 663,-559.644 516,-559.644"/>
<text text-anchor="middle" x="589.5" y="-566.644" font-family="Helvetica,sans-Serif" font-size="10.00">mmu_cache_base::exec_data</text>
</a>
</g>
</g>
<!-- Node3&#45;&gt;Node4 -->
<g id="edge3" class="edge"><title>Node3&#45;&gt;Node4</title>
<path fill="none" stroke="midnightblue" d="M426.09,-287.827C450.205,-329.598 545.573,-494.789 577.797,-550.605"/>
<polygon fill="midnightblue" stroke="midnightblue" points="574.858,-552.516 582.889,-559.426 580.921,-549.016 574.858,-552.516"/>
</g>
<!-- Node36 -->
<g id="node36" class="node"><title>Node36</title>
<g id="a_node36"><a xlink:href="cache_8c.html#a0a9e9396972b76c5947592479860020d" target="_top" xlink:title="flush">
<polygon fill="white" stroke="black" points="754,-1153.64 754,-1172.64 792,-1172.64 792,-1153.64 754,-1153.64"/>
<text text-anchor="middle" x="773" y="-1160.64" font-family="Helvetica,sans-Serif" font-size="10.00">flush</text>
</a>
</g>
</g>
<!-- Node3&#45;&gt;Node36 -->
<g id="edge49" class="edge"><title>Node3&#45;&gt;Node36</title>
<path fill="none" stroke="midnightblue" d="M421.301,-287.902C428.798,-378.744 487.036,-1073.99 516,-1106.14 516.484,-1106.68 677.383,-1142.25 743.818,-1156.92"/>
<polygon fill="midnightblue" stroke="midnightblue" points="743.111,-1160.35 753.63,-1159.09 744.62,-1153.52 743.111,-1160.35"/>
</g>
<!-- Node5 -->
<g id="node5" class="node"><title>Node5</title>
<g id="a_node5"><a xlink:href="classcache__if.html#aed3a97268b017872594d189cd621c5c9" target="_top" xlink:title="flush cache ">
<polygon fill="white" stroke="black" points="920,-1039.64 920,-1058.64 1000,-1058.64 1000,-1039.64 920,-1039.64"/>
<text text-anchor="middle" x="960" y="-1046.64" font-family="Helvetica,sans-Serif" font-size="10.00">cache_if::flush</text>
</a>
</g>
</g>
<!-- Node4&#45;&gt;Node5 -->
<g id="edge4" class="edge"><title>Node4&#45;&gt;Node5</title>
<path fill="none" stroke="midnightblue" d="M591.269,-578.908C596.285,-639.924 626.44,-968.243 699,-1030.14 729.6,-1056.25 843.043,-1055.26 909.542,-1052.22"/>
<polygon fill="midnightblue" stroke="midnightblue" points="909.975,-1055.71 919.792,-1051.72 909.632,-1048.71 909.975,-1055.71"/>
</g>
<!-- Node6 -->
<g id="node6" class="node"><title>Node6</title>
<g id="a_node6"><a xlink:href="group__mmu__cache__base.html#gae13fd6b248d3f36f8856ef641e05fa6f" target="_top" xlink:title="Read the cache control register. ">
<polygon fill="white" stroke="black" points="703,-445.644 703,-464.644 843,-464.644 843,-445.644 703,-445.644"/>
<text text-anchor="middle" x="773" y="-452.644" font-family="Helvetica,sans-Serif" font-size="10.00">mmu_cache_base::read_ccr</text>
</a>
</g>
</g>
<!-- Node4&#45;&gt;Node6 -->
<g id="edge5" class="edge"><title>Node4&#45;&gt;Node6</title>
<path fill="none" stroke="midnightblue" d="M598.696,-559.424C615.484,-540.151 655.852,-496.987 699,-474.144 703.329,-471.852 707.952,-469.825 712.69,-468.033"/>
<polygon fill="midnightblue" stroke="midnightblue" points="714.187,-471.22 722.52,-464.677 711.926,-464.595 714.187,-471.22"/>
</g>
<!-- Node8 -->
<g id="node8" class="node"><title>Node8</title>
<g id="a_node8"><a xlink:href="classcache__if.html#a267dea4fdc804f27b0b057530a76a6b1" target="_top" xlink:title="read cache configuration register (ASI 0x2) ">
<polygon fill="white" stroke="black" points="709,-53.6445 709,-72.6445 837,-72.6445 837,-53.6445 709,-53.6445"/>
<text text-anchor="middle" x="773" y="-60.6445" font-family="Helvetica,sans-Serif" font-size="10.00">cache_if::read_config_reg</text>
</a>
</g>
</g>
<!-- Node4&#45;&gt;Node8 -->
<g id="edge7" class="edge"><title>Node4&#45;&gt;Node8</title>
<path fill="none" stroke="midnightblue" d="M593.448,-559.158C603.963,-523.3 640.209,-397.58 663,-292.144 683.007,-199.587 634.941,-151.883 699,-82.1445 700.218,-80.8183 701.516,-79.5799 702.882,-78.4234"/>
<polygon fill="midnightblue" stroke="midnightblue" points="705.057,-81.1763 711.358,-72.6585 701.121,-75.3881 705.057,-81.1763"/>
</g>
<!-- Node9 -->
<g id="node9" class="node"><title>Node9</title>
<g id="a_node9"><a xlink:href="group__mmu__cache.html#ga75c5ce5d2ba541b139c01ac7aea84b9e" target="_top" xlink:title="Diagnostic read of instruction PDC (ASI 0x5) ">
<polygon fill="white" stroke="black" points="721,-407.644 721,-426.644 825,-426.644 825,-407.644 721,-407.644"/>
<text text-anchor="middle" x="773" y="-414.644" font-family="Helvetica,sans-Serif" font-size="10.00">mmu::diag_read_itlb</text>
</a>
</g>
</g>
<!-- Node4&#45;&gt;Node9 -->
<g id="edge8" class="edge"><title>Node4&#45;&gt;Node9</title>
<path fill="none" stroke="midnightblue" d="M595.581,-559.34C608.94,-534.577 647.588,-469.139 699,-436.144 702.823,-433.691 706.95,-431.554 711.229,-429.692"/>
<polygon fill="midnightblue" stroke="midnightblue" points="712.689,-432.881 720.779,-426.04 710.189,-426.342 712.689,-432.881"/>
</g>
<!-- Node10 -->
<g id="node10" class="node"><title>Node10</title>
<g id="a_node10"><a xlink:href="group__mmu__cache.html#gab273d60128c964526c598cdac37881b3" target="_top" xlink:title="Diagnostic read of data PDC or shared instruction and data PDC (ASI 0x6) ">
<polygon fill="white" stroke="black" points="716.5,-369.644 716.5,-388.644 829.5,-388.644 829.5,-369.644 716.5,-369.644"/>
<text text-anchor="middle" x="773" y="-376.644" font-family="Helvetica,sans-Serif" font-size="10.00">mmu::diag_read_dctlb</text>
</a>
</g>
</g>
<!-- Node4&#45;&gt;Node10 -->
<g id="edge10" class="edge"><title>Node4&#45;&gt;Node10</title>
<path fill="none" stroke="midnightblue" d="M593.676,-559.618C603.888,-530.51 638.772,-442.058 699,-398.144 701.645,-396.216 704.47,-394.482 707.415,-392.925"/>
<polygon fill="midnightblue" stroke="midnightblue" points="708.899,-396.094 716.544,-388.759 705.994,-389.726 708.899,-396.094"/>
</g>
<!-- Node11 -->
<g id="node11" class="node"><title>Node11</title>
<g id="a_node11"><a xlink:href="classcache__if.html#ae6a15968ff1639737014417a1e716838" target="_top" xlink:title="read data cache tags (ASI 0xe) ">
<polygon fill="white" stroke="black" points="709,-1001.64 709,-1020.64 837,-1020.64 837,-1001.64 709,-1001.64"/>
<text text-anchor="middle" x="773" y="-1008.64" font-family="Helvetica,sans-Serif" font-size="10.00">cache_if::read_cache_tag</text>
</a>
</g>
</g>
<!-- Node4&#45;&gt;Node11 -->
<g id="edge12" class="edge"><title>Node4&#45;&gt;Node11</title>
<path fill="none" stroke="midnightblue" d="M591.634,-578.684C598.585,-635.613 637.191,-930.116 699,-992.144 700.421,-993.571 701.935,-994.894 703.525,-996.122"/>
<polygon fill="midnightblue" stroke="midnightblue" points="701.713,-999.117 712.037,-1001.5 705.451,-993.199 701.713,-999.117"/>
</g>
<!-- Node12 -->
<g id="node12" class="node"><title>Node12</title>
<g id="a_node12"><a xlink:href="classcache__if.html#a716766377b7b9f0fde5fdc3959e6054a" target="_top" xlink:title="read data cache entries/data (ASI 0xf) ">
<polygon fill="white" stroke="black" points="718,-952.144 718,-982.144 828,-982.144 828,-952.144 718,-952.144"/>
<text text-anchor="start" x="726" y="-970.144" font-family="Helvetica,sans-Serif" font-size="10.00">cache_if::read_cache</text>
<text text-anchor="middle" x="773" y="-959.144" font-family="Helvetica,sans-Serif" font-size="10.00">_entry</text>
</a>
</g>
</g>
<!-- Node4&#45;&gt;Node12 -->
<g id="edge13" class="edge"><title>Node4&#45;&gt;Node12</title>
<path fill="none" stroke="midnightblue" d="M590.286,-578.768C589.779,-625.599 593.78,-831.874 699,-942.144 701.965,-945.252 705.333,-947.973 708.955,-950.356"/>
<polygon fill="midnightblue" stroke="midnightblue" points="707.369,-953.479 717.801,-955.325 710.797,-947.376 707.369,-953.479"/>
</g>
<!-- Node13 -->
<g id="node13" class="node"><title>Node13</title>
<g id="a_node13"><a xlink:href="group__mmu__cache.html#gad7e00bd8627bf65374b3411f77ef5d07" target="_top" xlink:title="Read mmu control register (ASI 0x19) ">
<polygon fill="white" stroke="black" points="730.5,-331.644 730.5,-350.644 815.5,-350.644 815.5,-331.644 730.5,-331.644"/>
<text text-anchor="middle" x="773" y="-338.644" font-family="Helvetica,sans-Serif" font-size="10.00">mmu::read_mcr</text>
</a>
</g>
</g>
<!-- Node4&#45;&gt;Node13 -->
<g id="edge14" class="edge"><title>Node4&#45;&gt;Node13</title>
<path fill="none" stroke="midnightblue" d="M592.563,-559.464C600.184,-526.142 629.964,-415.209 699,-360.144 705.263,-355.149 712.701,-351.456 720.395,-348.729"/>
<polygon fill="midnightblue" stroke="midnightblue" points="721.647,-352.006 730.208,-345.764 719.623,-345.305 721.647,-352.006"/>
</g>
<!-- Node14 -->
<g id="node14" class="node"><title>Node14</title>
<g id="a_node14"><a xlink:href="group__mmu__cache.html#ga9e77f15d7259cc80e26347e1dc3b0c52" target="_top" xlink:title="Read mmu context pointer register (ASI 0x19) ">
<polygon fill="white" stroke="black" points="726.5,-293.644 726.5,-312.644 819.5,-312.644 819.5,-293.644 726.5,-293.644"/>
<text text-anchor="middle" x="773" y="-300.644" font-family="Helvetica,sans-Serif" font-size="10.00">mmu::read_mctpr</text>
</a>
</g>
</g>
<!-- Node4&#45;&gt;Node14 -->
<g id="edge16" class="edge"><title>Node4&#45;&gt;Node14</title>
<path fill="none" stroke="midnightblue" d="M591.716,-559.579C596.921,-522.747 620.752,-388.826 699,-322.144 704.224,-317.693 710.368,-314.268 716.837,-311.635"/>
<polygon fill="midnightblue" stroke="midnightblue" points="718.16,-314.881 726.477,-308.318 715.883,-308.262 718.16,-314.881"/>
</g>
<!-- Node15 -->
<g id="node15" class="node"><title>Node15</title>
<g id="a_node15"><a xlink:href="group__mmu__cache.html#ga03e13ff343682aa047a7ae5b95cdcf98" target="_top" xlink:title="Read mmu context register (ASI 0x19) ">
<polygon fill="white" stroke="black" points="726.5,-255.644 726.5,-274.644 819.5,-274.644 819.5,-255.644 726.5,-255.644"/>
<text text-anchor="middle" x="773" y="-262.644" font-family="Helvetica,sans-Serif" font-size="10.00">mmu::read_mctxr</text>
</a>
</g>
</g>
<!-- Node4&#45;&gt;Node15 -->
<g id="edge18" class="edge"><title>Node4&#45;&gt;Node15</title>
<path fill="none" stroke="midnightblue" d="M591.102,-559.55C594.159,-519.308 611.481,-362.597 699,-284.144 704.11,-279.563 710.188,-276.062 716.622,-273.39"/>
<polygon fill="midnightblue" stroke="midnightblue" points="717.942,-276.636 726.233,-270.039 715.638,-270.026 717.942,-276.636"/>
</g>
<!-- Node16 -->
<g id="node16" class="node"><title>Node16</title>
<g id="a_node16"><a xlink:href="group__mmu__cache.html#gafe4d3dcfc5d31fd829f30a2cca620a85" target="_top" xlink:title="Read mmu fault status register (ASI 0x19) ">
<polygon fill="white" stroke="black" points="729,-217.644 729,-236.644 817,-236.644 817,-217.644 729,-217.644"/>
<text text-anchor="middle" x="773" y="-224.644" font-family="Helvetica,sans-Serif" font-size="10.00">mmu::read_mfsr</text>
</a>
</g>
</g>
<!-- Node4&#45;&gt;Node16 -->
<g id="edge20" class="edge"><title>Node4&#45;&gt;Node16</title>
<path fill="none" stroke="midnightblue" d="M592.471,-559.412C602.566,-510.486 649.904,-291.944 699,-246.144 704.596,-240.924 711.441,-237.097 718.673,-234.299"/>
<polygon fill="midnightblue" stroke="midnightblue" points="720.24,-237.473 728.695,-231.088 718.104,-230.807 720.24,-237.473"/>
</g>
<!-- Node17 -->
<g id="node17" class="node"><title>Node17</title>
<g id="a_node17"><a xlink:href="group__mmu__cache.html#ga6bba88aa3db5d553d62cdc621ca99240" target="_top" xlink:title="Read mmu fault address register (ASI 0x19) ">
<polygon fill="white" stroke="black" points="729,-179.644 729,-198.644 817,-198.644 817,-179.644 729,-179.644"/>
<text text-anchor="middle" x="773" y="-186.644" font-family="Helvetica,sans-Serif" font-size="10.00">mmu::read_mfar</text>
</a>
</g>
</g>
<!-- Node4&#45;&gt;Node17 -->
<g id="edge22" class="edge"><title>Node4&#45;&gt;Node17</title>
<path fill="none" stroke="midnightblue" d="M592.792,-559.538C605.915,-504.843 671.9,-234.251 699,-208.144 704.703,-202.65 711.785,-198.692 719.276,-195.85"/>
<polygon fill="midnightblue" stroke="midnightblue" points="720.424,-199.158 728.91,-192.815 718.321,-192.481 720.424,-199.158"/>
</g>
<!-- Node18 -->
<g id="node18" class="node"><title>Node18</title>
<g id="a_node18"><a xlink:href="group__mmu__cache.html#gab3016821c0179ce6b85559aa2cc074d3" target="_top" xlink:title="Read from scratchpad. ">
<polygon fill="white" stroke="black" points="720.5,-1077.64 720.5,-1096.64 825.5,-1096.64 825.5,-1077.64 720.5,-1077.64"/>
<text text-anchor="middle" x="773" y="-1084.64" font-family="Helvetica,sans-Serif" font-size="10.00">localram::mem_read</text>
</a>
</g>
</g>
<!-- Node4&#45;&gt;Node18 -->
<g id="edge24" class="edge"><title>Node4&#45;&gt;Node18</title>
<path fill="none" stroke="midnightblue" d="M591.345,-578.954C596.943,-641.771 630.573,-987.399 699,-1063.14 702.542,-1067.07 706.736,-1070.35 711.295,-1073.1"/>
<polygon fill="midnightblue" stroke="midnightblue" points="709.936,-1076.33 720.436,-1077.75 713.111,-1070.09 709.936,-1076.33"/>
</g>
<!-- Node19 -->
<g id="node19" class="node"><title>Node19</title>
<g id="a_node19"><a xlink:href="classmem__if.html#aa4c431846b1d11708be4128f84295c6c" target="_top" xlink:title="mem_if::mem_read">
<polygon fill="white" stroke="black" points="722.5,-1115.64 722.5,-1134.64 823.5,-1134.64 823.5,-1115.64 722.5,-1115.64"/>
<text text-anchor="middle" x="773" y="-1122.64" font-family="Helvetica,sans-Serif" font-size="10.00">mem_if::mem_read</text>
</a>
</g>
</g>
<!-- Node4&#45;&gt;Node19 -->
<g id="edge25" class="edge"><title>Node4&#45;&gt;Node19</title>
<path fill="none" stroke="midnightblue" d="M591.098,-578.991C595.318,-645.212 622.679,-1025.48 699,-1106.14 702.938,-1110.31 707.662,-1113.6 712.788,-1116.2"/>
<polygon fill="midnightblue" stroke="midnightblue" points="711.789,-1119.58 722.367,-1120.17 714.471,-1113.11 711.789,-1119.58"/>
</g>
<!-- Node20 -->
<g id="node20" class="node"><title>Node20</title>
<g id="a_node20"><a xlink:href="group__mmu__cache__base.html#gaeb388f4679b45fd4d56ed45dad9dd21e" target="_top" xlink:title="MemIF implementation &#45; reads data from AHB master. ">
<polygon fill="white" stroke="black" points="699,-91.6445 699,-110.644 847,-110.644 847,-91.6445 699,-91.6445"/>
<text text-anchor="middle" x="773" y="-98.6445" font-family="Helvetica,sans-Serif" font-size="10.00">mmu_cache_base::mem_read</text>
</a>
</g>
</g>
<!-- Node4&#45;&gt;Node20 -->
<g id="edge26" class="edge"><title>Node4&#45;&gt;Node20</title>
<path fill="none" stroke="midnightblue" d="M593.177,-559.619C603.055,-524.33 638.172,-397.63 663,-292.144 680.893,-216.121 645.124,-176.688 699,-120.144 700.242,-118.841 701.561,-117.622 702.946,-116.484"/>
<polygon fill="midnightblue" stroke="midnightblue" points="705.113,-119.246 711.507,-110.798 701.241,-113.415 705.113,-119.246"/>
</g>
<!-- Node23 -->
<g id="node23" class="node"><title>Node23</title>
<g id="a_node23"><a xlink:href="group__mmu__cache__base.html#gae5572d125b9fe148dbd117ffc98ede8f" target="_top" xlink:title="Writes the cache control register. ">
<polygon fill="white" stroke="black" points="702,-837.644 702,-856.644 844,-856.644 844,-837.644 702,-837.644"/>
<text text-anchor="middle" x="773" y="-844.644" font-family="Helvetica,sans-Serif" font-size="10.00">mmu_cache_base::write_ccr</text>
</a>
</g>
</g>
<!-- Node4&#45;&gt;Node23 -->
<g id="edge29" class="edge"><title>Node4&#45;&gt;Node23</title>
<path fill="none" stroke="midnightblue" d="M591.526,-578.901C596.08,-617.104 617.969,-757.88 699,-828.144 700.948,-829.834 703.028,-831.375 705.208,-832.782"/>
<polygon fill="midnightblue" stroke="midnightblue" points="703.588,-835.885 714.048,-837.568 706.92,-829.729 703.588,-835.885"/>
</g>
<!-- Node24 -->
<g id="node24" class="node"><title>Node24</title>
<g id="a_node24"><a xlink:href="classcache__if.html#a6df0437d63d7c5a938841faadceda9ab" target="_top" xlink:title="display of cache lines for debug ">
<polygon fill="white" stroke="black" points="726,-913.644 726,-932.644 820,-932.644 820,-913.644 726,-913.644"/>
<text text-anchor="middle" x="773" y="-920.644" font-family="Helvetica,sans-Serif" font-size="10.00">cache_if::dbg_out</text>
</a>
</g>
</g>
<!-- Node4&#45;&gt;Node24 -->
<g id="edge32" class="edge"><title>Node4&#45;&gt;Node24</title>
<path fill="none" stroke="midnightblue" d="M590.489,-578.835C590.986,-623.341 599.151,-809.981 699,-904.144 703.993,-908.853 710.001,-912.43 716.399,-915.142"/>
<polygon fill="midnightblue" stroke="midnightblue" points="715.385,-918.495 725.979,-918.526 717.716,-911.895 715.385,-918.495"/>
</g>
<!-- Node25 -->
<g id="node25" class="node"><title>Node25</title>
<g id="a_node25"><a xlink:href="group__mmu__cache.html#ga42e5093cd28dbe96abaeb81a8c54c89e" target="_top" xlink:title="Diagnostic write of instruction PDC (ASI 0x5) ">
<polygon fill="white" stroke="black" points="719.5,-875.644 719.5,-894.644 826.5,-894.644 826.5,-875.644 719.5,-875.644"/>
<text text-anchor="middle" x="773" y="-882.644" font-family="Helvetica,sans-Serif" font-size="10.00">mmu::diag_write_itlb</text>
</a>
</g>
</g>
<!-- Node4&#45;&gt;Node25 -->
<g id="edge33" class="edge"><title>Node4&#45;&gt;Node25</title>
<path fill="none" stroke="midnightblue" d="M590.944,-578.851C593.38,-620.291 608.603,-784.004 699,-866.144 702.362,-869.199 706.153,-871.775 710.195,-873.946"/>
<polygon fill="midnightblue" stroke="midnightblue" points="708.821,-877.166 719.377,-878.079 711.695,-870.782 708.821,-877.166"/>
</g>
<!-- Node26 -->
<g id="node26" class="node"><title>Node26</title>
<g id="a_node26"><a xlink:href="group__mmu__cache.html#gacc044d80e3722c74d89ee7ae3ad07485" target="_top" xlink:title="Diagnostic write of data PDC or shared instruction and data PDC (ASI 0x6) ">
<polygon fill="white" stroke="black" points="715.5,-799.644 715.5,-818.644 830.5,-818.644 830.5,-799.644 715.5,-799.644"/>
<text text-anchor="middle" x="773" y="-806.644" font-family="Helvetica,sans-Serif" font-size="10.00">mmu::diag_write_dctlb</text>
</a>
</g>
</g>
<!-- Node4&#45;&gt;Node26 -->
<g id="edge34" class="edge"><title>Node4&#45;&gt;Node26</title>
<path fill="none" stroke="midnightblue" d="M592.284,-578.886C599.147,-613.482 627.143,-731.498 699,-790.144 701.283,-792.008 703.728,-793.69 706.29,-795.209"/>
<polygon fill="midnightblue" stroke="midnightblue" points="704.874,-798.414 715.382,-799.77 708.012,-792.157 704.874,-798.414"/>
</g>
<!-- Node27 -->
<g id="node27" class="node"><title>Node27</title>
<g id="a_node27"><a xlink:href="classcache__if.html#a1e7ce247b9df117d6c13368bae870bb9" target="_top" xlink:title="write data cache tags (ASI 0xe) ">
<polygon fill="white" stroke="black" points="707.5,-761.644 707.5,-780.644 838.5,-780.644 838.5,-761.644 707.5,-761.644"/>
<text text-anchor="middle" x="773" y="-768.644" font-family="Helvetica,sans-Serif" font-size="10.00">cache_if::write_cache_tag</text>
</a>
</g>
</g>
<!-- Node4&#45;&gt;Node27 -->
<g id="edge35" class="edge"><title>Node4&#45;&gt;Node27</title>
<path fill="none" stroke="midnightblue" d="M593.335,-578.895C602.771,-609.566 636.139,-704.839 699,-752.144 701.484,-754.013 704.134,-755.699 706.899,-757.22"/>
<polygon fill="midnightblue" stroke="midnightblue" points="705.519,-760.438 716.057,-761.535 708.503,-754.106 705.519,-760.438"/>
</g>
<!-- Node28 -->
<g id="node28" class="node"><title>Node28</title>
<g id="a_node28"><a xlink:href="classcache__if.html#a0b1de9ad69bad01deba0ee7c21bd8d50" target="_top" xlink:title="write data cache entries/data (ASI 0xf) ">
<polygon fill="white" stroke="black" points="717,-712.144 717,-742.144 829,-742.144 829,-712.144 717,-712.144"/>
<text text-anchor="start" x="725" y="-730.144" font-family="Helvetica,sans-Serif" font-size="10.00">cache_if::write_cache</text>
<text text-anchor="middle" x="773" y="-719.144" font-family="Helvetica,sans-Serif" font-size="10.00">_entry</text>
</a>
</g>
</g>
<!-- Node4&#45;&gt;Node28 -->
<g id="edge36" class="edge"><title>Node4&#45;&gt;Node28</title>
<path fill="none" stroke="midnightblue" d="M595.734,-578.721C609.45,-602.95 648.867,-667.238 699,-702.144 701.834,-704.118 704.838,-705.948 707.949,-707.642"/>
<polygon fill="midnightblue" stroke="midnightblue" points="706.427,-710.794 716.944,-712.068 709.517,-704.513 706.427,-710.794"/>
</g>
<!-- Node29 -->
<g id="node29" class="node"><title>Node29</title>
<g id="a_node29"><a xlink:href="group__mmu__cache.html#ga0f1e78dd250c1b7791a8e5bca5051fcf" target="_top" xlink:title="TLB flush complete. ">
<polygon fill="white" stroke="black" points="732.5,-673.644 732.5,-692.644 813.5,-692.644 813.5,-673.644 732.5,-673.644"/>
<text text-anchor="middle" x="773" y="-680.644" font-family="Helvetica,sans-Serif" font-size="10.00">mmu::tlb_flush</text>
</a>
</g>
</g>
<!-- Node4&#45;&gt;Node29 -->
<g id="edge37" class="edge"><title>Node4&#45;&gt;Node29</title>
<path fill="none" stroke="midnightblue" d="M598.696,-578.865C615.484,-598.138 655.852,-641.302 699,-664.144 706.323,-668.021 714.486,-671.143 722.626,-673.645"/>
<polygon fill="midnightblue" stroke="midnightblue" points="721.912,-677.079 732.485,-676.399 723.796,-670.337 721.912,-677.079"/>
</g>
<!-- Node30 -->
<g id="node30" class="node"><title>Node30</title>
<g id="a_node30"><a xlink:href="group__mmu__cache.html#ga6dfa5b1862b7cc9e557bc001882b4a1d" target="_top" xlink:title="Write mmu control register (ASI 0x19) ">
<polygon fill="white" stroke="black" points="729.5,-559.644 729.5,-578.644 816.5,-578.644 816.5,-559.644 729.5,-559.644"/>
<text text-anchor="middle" x="773" y="-566.644" font-family="Helvetica,sans-Serif" font-size="10.00">mmu::write_mcr</text>
</a>
</g>
</g>
<!-- Node4&#45;&gt;Node30 -->
<g id="edge38" class="edge"><title>Node4&#45;&gt;Node30</title>
<path fill="none" stroke="midnightblue" d="M663.016,-569.144C681.835,-569.144 701.746,-569.144 719.327,-569.144"/>
<polygon fill="midnightblue" stroke="midnightblue" points="719.384,-572.645 729.384,-569.144 719.384,-565.645 719.384,-572.645"/>
</g>
<!-- Node31 -->
<g id="node31" class="node"><title>Node31</title>
<g id="a_node31"><a xlink:href="group__mmu__cache.html#ga5295604a4cae87e2f90332e25858e188" target="_top" xlink:title="Write mmu context pointer register (ASI 0x19) ">
<polygon fill="white" stroke="black" points="725.5,-521.644 725.5,-540.644 820.5,-540.644 820.5,-521.644 725.5,-521.644"/>
<text text-anchor="middle" x="773" y="-528.644" font-family="Helvetica,sans-Serif" font-size="10.00">mmu::write_mctpr</text>
</a>
</g>
</g>
<!-- Node4&#45;&gt;Node31 -->
<g id="edge40" class="edge"><title>Node4&#45;&gt;Node31</title>
<path fill="none" stroke="midnightblue" d="M636.3,-559.555C660.683,-554.451 690.857,-548.133 716.556,-542.753"/>
<polygon fill="midnightblue" stroke="midnightblue" points="717.459,-546.14 726.529,-540.665 716.024,-539.288 717.459,-546.14"/>
</g>
<!-- Node32 -->
<g id="node32" class="node"><title>Node32</title>
<g id="a_node32"><a xlink:href="group__mmu__cache.html#gae396da592bf30563c3c391d8169e9d7c" target="_top" xlink:title="Write mmu context register (ASI 0x19) ">
<polygon fill="white" stroke="black" points="725.5,-483.644 725.5,-502.644 820.5,-502.644 820.5,-483.644 725.5,-483.644"/>
<text text-anchor="middle" x="773" y="-490.644" font-family="Helvetica,sans-Serif" font-size="10.00">mmu::write_mctxr</text>
</a>
</g>
</g>
<!-- Node4&#45;&gt;Node32 -->
<g id="edge42" class="edge"><title>Node4&#45;&gt;Node32</title>
<path fill="none" stroke="midnightblue" d="M606.137,-559.458C626.755,-547.036 664.471,-525.504 699,-512.144 705.319,-509.7 712.065,-507.467 718.807,-505.461"/>
<polygon fill="midnightblue" stroke="midnightblue" points="719.962,-508.772 728.634,-502.685 718.059,-502.035 719.962,-508.772"/>
</g>
<!-- Node33 -->
<g id="node33" class="node"><title>Node33</title>
<g id="a_node33"><a xlink:href="group__mmu__cache.html#gab78bf99c0844981f0f237097c265e93d" target="_top" xlink:title="Write to scratchpad. ">
<polygon fill="white" stroke="black" points="719.5,-635.644 719.5,-654.644 826.5,-654.644 826.5,-635.644 719.5,-635.644"/>
<text text-anchor="middle" x="773" y="-642.644" font-family="Helvetica,sans-Serif" font-size="10.00">localram::mem_write</text>
</a>
</g>
</g>
<!-- Node4&#45;&gt;Node33 -->
<g id="edge44" class="edge"><title>Node4&#45;&gt;Node33</title>
<path fill="none" stroke="midnightblue" d="M606.137,-578.83C626.755,-591.253 664.471,-612.785 699,-626.144 705.319,-628.589 712.065,-630.822 718.807,-632.828"/>
<polygon fill="midnightblue" stroke="midnightblue" points="718.059,-636.254 728.634,-635.604 719.962,-629.517 718.059,-636.254"/>
</g>
<!-- Node34 -->
<g id="node34" class="node"><title>Node34</title>
<g id="a_node34"><a xlink:href="classmem__if.html#a18817b6b8bfff9aeb10b1f6aaecf80fd" target="_top" xlink:title="mem_if::mem_write">
<polygon fill="white" stroke="black" points="721.5,-597.644 721.5,-616.644 824.5,-616.644 824.5,-597.644 721.5,-597.644"/>
<text text-anchor="middle" x="773" y="-604.644" font-family="Helvetica,sans-Serif" font-size="10.00">mem_if::mem_write</text>
</a>
</g>
</g>
<!-- Node4&#45;&gt;Node34 -->
<g id="edge45" class="edge"><title>Node4&#45;&gt;Node34</title>
<path fill="none" stroke="midnightblue" d="M636.3,-578.733C660.683,-583.838 690.857,-590.156 716.556,-595.536"/>
<polygon fill="midnightblue" stroke="midnightblue" points="716.024,-599.001 726.529,-597.624 717.459,-592.149 716.024,-599.001"/>
</g>
<!-- Node35 -->
<g id="node35" class="node"><title>Node35</title>
<g id="a_node35"><a xlink:href="group__mmu__cache__base.html#gad5a97e4279ca84676521be3b6828ccc6" target="_top" xlink:title="MemIF implementation &#45; writes data to AHB master. ">
<polygon fill="white" stroke="black" points="711,-130.144 711,-160.144 835,-160.144 835,-130.144 711,-130.144"/>
<text text-anchor="start" x="719" y="-148.144" font-family="Helvetica,sans-Serif" font-size="10.00">mmu_cache_base::mem</text>
<text text-anchor="middle" x="773" y="-137.144" font-family="Helvetica,sans-Serif" font-size="10.00">_write</text>
</a>
</g>
</g>
<!-- Node4&#45;&gt;Node35 -->
<g id="edge46" class="edge"><title>Node4&#45;&gt;Node35</title>
<path fill="none" stroke="midnightblue" d="M592.994,-559.482C608.555,-499.263 691.881,-177.738 699,-170.144 700.374,-168.679 701.838,-167.299 703.377,-166"/>
<polygon fill="midnightblue" stroke="midnightblue" points="705.485,-168.795 711.617,-160.155 701.436,-163.085 705.485,-168.795"/>
</g>
<!-- Node7 -->
<g id="node7" class="node"><title>Node7</title>
<g id="a_node7"><a xlink:href="group__common.html#ga2e70f90e04ee467d36debee5245ead91" target="_top" xlink:title="swap_Endianess">
<polygon fill="white" stroke="black" points="914.5,-388.644 914.5,-407.644 1005.5,-407.644 1005.5,-388.644 914.5,-388.644"/>
<text text-anchor="middle" x="960" y="-395.644" font-family="Helvetica,sans-Serif" font-size="10.00">swap_Endianess</text>
</a>
</g>
</g>
<!-- Node6&#45;&gt;Node7 -->
<g id="edge6" class="edge"><title>Node6&#45;&gt;Node7</title>
<path fill="none" stroke="midnightblue" d="M812.788,-445.606C823.884,-442.727 835.96,-439.449 847,-436.144 872.587,-428.485 901.088,-418.798 922.936,-411.122"/>
<polygon fill="midnightblue" stroke="midnightblue" points="924.21,-414.384 932.472,-407.751 921.877,-407.784 924.21,-414.384"/>
</g>
<!-- Node9&#45;&gt;Node7 -->
<g id="edge9" class="edge"><title>Node9&#45;&gt;Node7</title>
<path fill="none" stroke="midnightblue" d="M825.042,-411.902C849.67,-409.373 879.241,-406.336 904.328,-403.759"/>
<polygon fill="midnightblue" stroke="midnightblue" points="904.827,-407.227 914.417,-402.723 904.112,-400.263 904.827,-407.227"/>
</g>
<!-- Node10&#45;&gt;Node7 -->
<g id="edge11" class="edge"><title>Node10&#45;&gt;Node7</title>
<path fill="none" stroke="midnightblue" d="M829.506,-384.845C853.148,-387.273 880.649,-390.098 904.212,-392.518"/>
<polygon fill="midnightblue" stroke="midnightblue" points="904.083,-396.023 914.388,-393.563 904.798,-389.059 904.083,-396.023"/>
</g>
<!-- Node13&#45;&gt;Node7 -->
<g id="edge15" class="edge"><title>Node13&#45;&gt;Node7</title>
<path fill="none" stroke="midnightblue" d="M812.788,-350.683C823.884,-353.562 835.96,-356.84 847,-360.144 872.587,-367.804 901.088,-377.491 922.936,-385.167"/>
<polygon fill="midnightblue" stroke="midnightblue" points="921.877,-388.505 932.472,-388.538 924.21,-381.905 921.877,-388.505"/>
</g>
<!-- Node14&#45;&gt;Node7 -->
<g id="edge17" class="edge"><title>Node14&#45;&gt;Node7</title>
<path fill="none" stroke="midnightblue" d="M819.614,-312.45C828.879,-315.048 838.411,-318.253 847,-322.144 882.179,-338.083 918.351,-364.882 939.742,-382.027"/>
<polygon fill="midnightblue" stroke="midnightblue" points="937.736,-384.907 947.7,-388.51 942.157,-379.48 937.736,-384.907"/>
</g>
<!-- Node15&#45;&gt;Node7 -->
<g id="edge19" class="edge"><title>Node15&#45;&gt;Node7</title>
<path fill="none" stroke="midnightblue" d="M819.508,-272.942C828.973,-275.657 838.611,-279.292 847,-284.144 889.993,-309.015 927.625,-354.847 946.37,-380.164"/>
<polygon fill="midnightblue" stroke="midnightblue" points="943.697,-382.44 952.397,-388.486 949.366,-378.334 943.697,-382.44"/>
</g>
<!-- Node16&#45;&gt;Node7 -->
<g id="edge21" class="edge"><title>Node16&#45;&gt;Node7</title>
<path fill="none" stroke="midnightblue" d="M817.005,-233.201C827.423,-236.01 838.108,-240.124 847,-246.144 898.187,-280.804 934.739,-346.887 950.44,-379.286"/>
<polygon fill="midnightblue" stroke="midnightblue" points="947.37,-380.983 954.797,-388.54 953.703,-378.001 947.37,-380.983"/>
</g>
<!-- Node17&#45;&gt;Node7 -->
<g id="edge23" class="edge"><title>Node17&#45;&gt;Node7</title>
<path fill="none" stroke="midnightblue" d="M817.068,-194.478C827.599,-197.299 838.323,-201.598 847,-208.144 906.534,-253.065 940.31,-339.616 953.061,-378.447"/>
<polygon fill="midnightblue" stroke="midnightblue" points="949.877,-379.985 956.227,-388.465 956.551,-377.876 949.877,-379.985"/>
</g>
<!-- Node21 -->
<g id="node21" class="node"><title>Node21</title>
<g id="a_node21"><a xlink:href="namespacepysc_1_1api_1_1systemc.html#a0f19169551bf6f5170fb3be515ce4365" target="_top" xlink:title="pysc::api::systemc\l::wait">
<polygon fill="white" stroke="black" points="910,-37.1445 910,-67.1445 1010,-67.1445 1010,-37.1445 910,-37.1445"/>
<text text-anchor="start" x="918" y="-55.1445" font-family="Helvetica,sans-Serif" font-size="10.00">pysc::api::systemc</text>
<text text-anchor="middle" x="960" y="-44.1445" font-family="Helvetica,sans-Serif" font-size="10.00">::wait</text>
</a>
</g>
</g>
<!-- Node20&#45;&gt;Node21 -->
<g id="edge27" class="edge"><title>Node20&#45;&gt;Node21</title>
<path fill="none" stroke="midnightblue" d="M810.776,-91.6269C822.371,-88.6117 835.224,-85.2539 847,-82.1445 864.246,-77.5905 882.971,-72.5949 900.086,-68.0089"/>
<polygon fill="midnightblue" stroke="midnightblue" points="901.201,-71.3336 909.953,-65.3626 899.388,-64.5725 901.201,-71.3336"/>
</g>
<!-- Node22 -->
<g id="node22" class="node"><title>Node22</title>
<g id="a_node22"><a xlink:href="classAHBMaster.html#ac1a28c85f3f099e6c356f621a574ac27" target="_top" xlink:title="Generic AHB debug access function. ">
<polygon fill="white" stroke="black" points="883,-113.644 883,-132.644 1037,-132.644 1037,-113.644 883,-113.644"/>
<text text-anchor="middle" x="960" y="-120.644" font-family="Helvetica,sans-Serif" font-size="10.00">AHBMaster&lt;&gt;::ahbaccess_dbg</text>
</a>
</g>
</g>
<!-- Node20&#45;&gt;Node22 -->
<g id="edge28" class="edge"><title>Node20&#45;&gt;Node22</title>
<path fill="none" stroke="midnightblue" d="M847.117,-109.839C855.538,-110.841 864.183,-111.869 872.756,-112.888"/>
<polygon fill="midnightblue" stroke="midnightblue" points="872.425,-116.374 882.769,-114.079 873.252,-109.423 872.425,-116.374"/>
</g>
<!-- Node23&#45;&gt;Node5 -->
<g id="edge31" class="edge"><title>Node23&#45;&gt;Node5</title>
<path fill="none" stroke="midnightblue" d="M829.517,-856.676C835.751,-859.142 841.741,-862.244 847,-866.144 905.002,-909.159 939.386,-991.971 952.66,-1029.64"/>
<polygon fill="midnightblue" stroke="midnightblue" points="949.443,-1031.05 955.976,-1039.39 956.07,-1028.8 949.443,-1031.05"/>
</g>
<!-- Node23&#45;&gt;Node7 -->
<g id="edge30" class="edge"><title>Node23&#45;&gt;Node7</title>
<path fill="none" stroke="midnightblue" d="M833.948,-837.483C838.75,-835.008 843.203,-831.941 847,-828.144 906.933,-768.222 946.492,-494.401 956.5,-417.994"/>
<polygon fill="midnightblue" stroke="midnightblue" points="960.002,-418.209 957.807,-407.844 953.059,-417.315 960.002,-418.209"/>
</g>
<!-- Node30&#45;&gt;Node7 -->
<g id="edge39" class="edge"><title>Node30&#45;&gt;Node7</title>
<path fill="none" stroke="midnightblue" d="M816.624,-563.19C827.162,-560.378 838,-556.239 847,-550.144 898.187,-515.485 934.739,-449.402 950.44,-417.002"/>
<polygon fill="midnightblue" stroke="midnightblue" points="953.703,-418.288 954.797,-407.749 947.37,-415.306 953.703,-418.288"/>
</g>
<!-- Node31&#45;&gt;Node7 -->
<g id="edge41" class="edge"><title>Node31&#45;&gt;Node7</title>
<path fill="none" stroke="midnightblue" d="M820.66,-523.012C829.752,-520.335 838.952,-516.8 847,-512.144 889.993,-487.274 927.625,-441.441 946.37,-416.125"/>
<polygon fill="midnightblue" stroke="midnightblue" points="949.366,-417.955 952.397,-407.803 943.697,-413.849 949.366,-417.955"/>
</g>
<!-- Node32&#45;&gt;Node7 -->
<g id="edge43" class="edge"><title>Node32&#45;&gt;Node7</title>
<path fill="none" stroke="midnightblue" d="M820.387,-483.621C829.408,-481.063 838.65,-477.928 847,-474.144 882.179,-458.206 918.351,-431.407 939.742,-414.262"/>
<polygon fill="midnightblue" stroke="midnightblue" points="942.157,-416.809 947.7,-407.779 937.736,-411.382 942.157,-416.809"/>
</g>
<!-- Node35&#45;&gt;Node21 -->
<g id="edge47" class="edge"><title>Node35&#45;&gt;Node21</title>
<path fill="none" stroke="midnightblue" d="M822.88,-130.042C831.054,-127.053 839.356,-123.722 847,-120.144 875.972,-106.583 906.91,-87.4015 928.912,-72.8667"/>
<polygon fill="midnightblue" stroke="midnightblue" points="931.098,-75.6158 937.469,-67.1505 927.21,-69.7951 931.098,-75.6158"/>
</g>
<!-- Node35&#45;&gt;Node22 -->
<g id="edge48" class="edge"><title>Node35&#45;&gt;Node22</title>
<path fill="none" stroke="midnightblue" d="M835.089,-137.88C847.13,-136.448 859.978,-134.92 872.67,-133.411"/>
<polygon fill="midnightblue" stroke="midnightblue" points="873.28,-136.863 882.797,-132.206 872.454,-129.912 873.28,-136.863"/>
</g>
<!-- Node38&#45;&gt;Node3 -->
<g id="edge52" class="edge"><title>Node38&#45;&gt;Node3</title>
<path fill="none" stroke="midnightblue" d="M309.605,-264.336C322.301,-265.946 335.675,-267.642 348.536,-269.273"/>
<polygon fill="midnightblue" stroke="midnightblue" points="348.358,-272.778 358.719,-270.564 349.239,-265.834 348.358,-272.778"/>
</g>
<!-- Node38&#45;&gt;Node21 -->
<g id="edge53" class="edge"><title>Node38&#45;&gt;Node21</title>
<path fill="none" stroke="midnightblue" d="M299.724,-241.086C307.643,-238.396 315.609,-235.4 323,-232.144 500.391,-154.002 511.962,-62.0414 699,-11.1445 762.47,6.127 782.232,0.337777 847,-11.1445 871.113,-15.4193 896.851,-24.4952 917.566,-33.0235"/>
<polygon fill="midnightblue" stroke="midnightblue" points="916.43,-36.3431 927.003,-37.013 919.155,-29.8955 916.43,-36.3431"/>
</g>
<!-- Node39&#45;&gt;Node3 -->
<g id="edge55" class="edge"><title>Node39&#45;&gt;Node3</title>
<path fill="none" stroke="midnightblue" d="M320.091,-290.623C329.641,-289.412 339.383,-288.177 348.843,-286.977"/>
<polygon fill="midnightblue" stroke="midnightblue" points="349.495,-290.423 358.975,-285.692 348.614,-283.478 349.495,-290.423"/>
</g>
<!-- Node41 -->
<g id="node41" class="node"><title>Node41</title>
<g id="a_node41"><a xlink:href="group__mmu__cache.html#ga95e1fb7554801153de0221044bdb5113" target="_top" xlink:title="Instruction interface to functional part of the model. ">
<polygon fill="white" stroke="black" points="359,-964.644 359,-983.644 480,-983.644 480,-964.644 359,-964.644"/>
<text text-anchor="middle" x="419.5" y="-971.644" font-family="Helvetica,sans-Serif" font-size="10.00">mmu_cache::exec_instr</text>
</a>
</g>
</g>
<!-- Node40&#45;&gt;Node41 -->
<g id="edge57" class="edge"><title>Node40&#45;&gt;Node41</title>
<path fill="none" stroke="midnightblue" d="M253.842,-793.828C281.564,-824.186 367.041,-917.791 402.662,-956.8"/>
<polygon fill="midnightblue" stroke="midnightblue" points="400.14,-959.228 409.467,-964.253 405.309,-954.508 400.14,-959.228"/>
</g>
<!-- Node41&#45;&gt;Node5 -->
<g id="edge63" class="edge"><title>Node41&#45;&gt;Node5</title>
<path fill="none" stroke="midnightblue" d="M421.795,-983.666C426.802,-1016.36 448.128,-1124.56 516,-1170.14 638.203,-1252.22 713.53,-1244.24 847,-1182.14 897.901,-1158.46 933.955,-1099 949.87,-1068.24"/>
<polygon fill="midnightblue" stroke="midnightblue" points="953.147,-1069.51 954.488,-1059 946.886,-1066.38 953.147,-1069.51"/>
</g>
<!-- Node41&#45;&gt;Node36 -->
<g id="edge62" class="edge"><title>Node41&#45;&gt;Node36</title>
<path fill="none" stroke="midnightblue" d="M422.758,-983.737C430.198,-1012.98 456.918,-1101.29 516,-1139.14 587.26,-1184.8 693.378,-1176 743.641,-1168.35"/>
<polygon fill="midnightblue" stroke="midnightblue" points="744.456,-1171.77 753.767,-1166.71 743.336,-1164.86 744.456,-1171.77"/>
</g>
<!-- Node42 -->
<g id="node42" class="node"><title>Node42</title>
<g id="a_node42"><a xlink:href="group__mmu__cache__base.html#gabbbf06dab9607e4469eeda34e3ea8a9c" target="_top" xlink:title="Instruction interface to functional part of the model. ">
<polygon fill="white" stroke="black" points="528,-1066.14 528,-1096.14 651,-1096.14 651,-1066.14 528,-1066.14"/>
<text text-anchor="start" x="536" y="-1084.14" font-family="Helvetica,sans-Serif" font-size="10.00">mmu_cache_base::exec</text>
<text text-anchor="middle" x="589.5" y="-1073.14" font-family="Helvetica,sans-Serif" font-size="10.00">_instr</text>
</a>
</g>
</g>
<!-- Node41&#45;&gt;Node42 -->
<g id="edge58" class="edge"><title>Node41&#45;&gt;Node42</title>
<path fill="none" stroke="midnightblue" d="M435.705,-983.829C462.734,-1001.04 519.703,-1037.33 555.928,-1060.4"/>
<polygon fill="midnightblue" stroke="midnightblue" points="554.346,-1063.54 564.66,-1065.96 558.106,-1057.64 554.346,-1063.54"/>
</g>
<!-- Node42&#45;&gt;Node18 -->
<g id="edge60" class="edge"><title>Node42&#45;&gt;Node18</title>
<path fill="none" stroke="midnightblue" d="M651.189,-1083.15C670.232,-1083.78 691.266,-1084.48 710.374,-1085.11"/>
<polygon fill="midnightblue" stroke="midnightblue" points="710.356,-1088.61 720.466,-1085.44 710.587,-1081.61 710.356,-1088.61"/>
</g>
<!-- Node42&#45;&gt;Node19 -->
<g id="edge61" class="edge"><title>Node42&#45;&gt;Node19</title>
<path fill="none" stroke="midnightblue" d="M651.189,-1095.86C674.514,-1101.51 700.825,-1107.89 722.925,-1113.25"/>
<polygon fill="midnightblue" stroke="midnightblue" points="722.213,-1116.68 732.756,-1115.63 723.863,-1109.87 722.213,-1116.68"/>
</g>
<!-- Node42&#45;&gt;Node36 -->
<g id="edge59" class="edge"><title>Node42&#45;&gt;Node36</title>
<path fill="none" stroke="midnightblue" d="M633.912,-1096.21C643.807,-1100.42 654.038,-1105.44 663,-1111.14 681.307,-1122.8 679.934,-1133.77 699,-1144.14 712.842,-1151.68 729.799,-1156.32 743.886,-1159.14"/>
<polygon fill="midnightblue" stroke="midnightblue" points="743.538,-1162.63 753.998,-1160.95 744.772,-1155.74 743.538,-1162.63"/>
</g>
<!-- Node44&#45;&gt;Node21 -->
<g id="edge67" class="edge"><title>Node44&#45;&gt;Node21</title>
<path fill="none" stroke="midnightblue" d="M308.123,-368.942C358.036,-356.336 427.769,-333.741 480,-297.144 495.225,-286.477 682.092,-51.8713 699,-44.1445 762.995,-14.8992 845.399,-24.2147 900.1,-35.9869"/>
<polygon fill="midnightblue" stroke="midnightblue" points="899.457,-39.4296 909.981,-38.2049 900.99,-32.5996 899.457,-39.4296"/>
</g>
<!-- Node44&#45;&gt;Node41 -->
<g id="edge66" class="edge"><title>Node44&#45;&gt;Node41</title>
<path fill="none" stroke="midnightblue" d="M250.302,-397.37C263.33,-434.976 297.689,-535.356 323,-620.144 360.824,-746.847 400.143,-901.008 413.628,-954.644"/>
<polygon fill="midnightblue" stroke="midnightblue" points="410.276,-955.669 416.103,-964.517 417.066,-953.966 410.276,-955.669"/>
</g>
<!-- Node45&#45;&gt;Node41 -->
<g id="edge69" class="edge"><title>Node45&#45;&gt;Node41</title>
<path fill="none" stroke="midnightblue" d="M251.495,-648.701C265.447,-669.42 298.961,-720.233 323,-765.144 359.326,-833.009 395.146,-917.304 410.586,-954.708"/>
<polygon fill="midnightblue" stroke="midnightblue" points="407.509,-956.43 414.543,-964.353 413.985,-953.773 407.509,-956.43"/>
</g>
</g>
</svg>
