<?xml version="1.0" encoding="UTF-8" standalone="no"?>
<!DOCTYPE svg PUBLIC "-//W3C//DTD SVG 1.1//EN"
 "http://www.w3.org/Graphics/SVG/1.1/DTD/svg11.dtd">
<!-- Generated by graphviz version 2.36.0 (20140111.2315)
 -->
<!-- Title: vectorcache::mem_write Pages: 1 -->
<!--zoomable 313 -->
<svg id="main" version="1.1" xmlns="http://www.w3.org/2000/svg" xmlns:xlink="http://www.w3.org/1999/xlink" xml:space="preserve" onload="init(evt)">
<style type="text/css"><![CDATA[
.edge:hover path { stroke: red; }
.edge:hover polygon { stroke: red; fill: red; }
]]></style>
<script type="text/javascript"><![CDATA[
var edges = document.getElementsByTagName('g');
if (edges && edges.length) {
  for (var i=0;i<edges.length;i++) {
    if (edges[i].id.substr(0,4)=='edge') {
      edges[i].setAttribute('class','edge');
    }
  }
}
]]></script>
        <defs>
                <circle id="rim" cx="0" cy="0" r="7"/>
                <circle id="rim2" cx="0" cy="0" r="3.5"/>
                <g id="zoomPlus">
                        <use xlink:href="#rim" fill="#404040">
                                <set attributeName="fill" to="#808080" begin="zoomplus.mouseover" end="zoomplus.mouseout"/>
                        </use>
                        <path d="M-4,0h8M0,-4v8" fill="none" stroke="white" stroke-width="1.5" pointer-events="none"/>
                </g>
                <g id="zoomMin">
                        <use xlink:href="#rim" fill="#404040">
                                <set attributeName="fill" to="#808080" begin="zoomminus.mouseover" end="zoomminus.mouseout"/>
                        </use>
                        <path d="M-4,0h8" fill="none" stroke="white" stroke-width="1.5" pointer-events="none"/>
                </g>
                <g id="dirArrow">
                        <path fill="none" stroke="white" stroke-width="1.5" d="M0,-3.0v7 M-2.5,-0.5L0,-3.0L2.5,-0.5"/>
                </g>
               <g id="resetDef">
                       <use xlink:href="#rim2" fill="#404040">
                               <set attributeName="fill" to="#808080" begin="reset.mouseover" end="reset.mouseout"/>
                       </use>
               </g>
        </defs>

<script type="text/javascript">
var viewWidth = 624;
var viewHeight = 313;
var sectionId = 'dynsection-28';
</script>
<script xlink:href="svgpan.js"/>
<svg id="graph" class="graph">
<g id="viewport">
<title>vectorcache::mem_write</title>
<polygon fill="white" stroke="none" points="-4,4 -4,-309 620,-309 620,4 -4,4"/>
<!-- Node1 -->
<g id="node1" class="node"><title>Node1</title>
<polygon fill="#bfbfbf" stroke="black" points="0,-171.5 0,-190.5 124,-190.5 124,-171.5 0,-171.5"/>
<text text-anchor="middle" x="62" y="-178.5" font-family="Helvetica,sans-Serif" font-size="10.00">vectorcache::mem_write</text>
</g>
<!-- Node2 -->
<g id="node2" class="node"><title>Node2</title>
<g id="a_node2"><a xlink:href="classvectorcache.html#a355702396c8483272345a7cce77ff3aa" target="_top" xlink:title="Returns the mode bits of the cache. ">
<polygon fill="white" stroke="black" points="160.5,-285.5 160.5,-304.5 291.5,-304.5 291.5,-285.5 160.5,-285.5"/>
<text text-anchor="middle" x="226" y="-292.5" font-family="Helvetica,sans-Serif" font-size="10.00">vectorcache::check_mode</text>
</a>
</g>
</g>
<!-- Node1&#45;&gt;Node2 -->
<g id="edge1" class="edge"><title>Node1&#45;&gt;Node2</title>
<path fill="none" stroke="midnightblue" d="M70.1413,-190.655C84.8159,-209.812 120.334,-252.776 160,-276 163.653,-278.139 167.563,-280.051 171.587,-281.76"/>
<polygon fill="midnightblue" stroke="midnightblue" points="170.523,-285.099 181.114,-285.384 173.012,-278.557 170.523,-285.099"/>
</g>
<!-- Node3 -->
<g id="node3" class="node"><title>Node3</title>
<g id="a_node3"><a xlink:href="classvectorcache.html#a0f8408c83f6d5d40e668a563aa488491" target="_top" xlink:title="vectorcache::get_idx">
<polygon fill="white" stroke="black" points="172.5,-247.5 172.5,-266.5 279.5,-266.5 279.5,-247.5 172.5,-247.5"/>
<text text-anchor="middle" x="226" y="-254.5" font-family="Helvetica,sans-Serif" font-size="10.00">vectorcache::get_idx</text>
</a>
</g>
</g>
<!-- Node1&#45;&gt;Node3 -->
<g id="edge2" class="edge"><title>Node1&#45;&gt;Node3</title>
<path fill="none" stroke="midnightblue" d="M76.8778,-190.649C95.2014,-203.032 128.801,-224.52 160,-238 165.393,-240.33 171.157,-242.474 176.942,-244.417"/>
<polygon fill="midnightblue" stroke="midnightblue" points="176.045,-247.804 186.635,-247.492 178.162,-241.132 176.045,-247.804"/>
</g>
<!-- Node4 -->
<g id="node4" class="node"><title>Node4</title>
<g id="a_node4"><a xlink:href="classvectorcache.html#af89554cdbd5690a2e74f1ba6328ad519" target="_top" xlink:title="vectorcache::get_offset">
<polygon fill="white" stroke="black" points="166.5,-209.5 166.5,-228.5 285.5,-228.5 285.5,-209.5 166.5,-209.5"/>
<text text-anchor="middle" x="226" y="-216.5" font-family="Helvetica,sans-Serif" font-size="10.00">vectorcache::get_offset</text>
</a>
</g>
</g>
<!-- Node1&#45;&gt;Node4 -->
<g id="edge3" class="edge"><title>Node1&#45;&gt;Node4</title>
<path fill="none" stroke="midnightblue" d="M103.879,-190.589C125.353,-195.626 151.86,-201.844 174.597,-207.177"/>
<polygon fill="midnightblue" stroke="midnightblue" points="173.879,-210.604 184.415,-209.48 175.478,-203.789 173.879,-210.604"/>
</g>
<!-- Node5 -->
<g id="node5" class="node"><title>Node5</title>
<g id="a_node5"><a xlink:href="classvectorcache.html#a8e9512157d817a5e027abca1a6a02332" target="_top" xlink:title="Address parsing one&#45;liners. ">
<polygon fill="white" stroke="black" points="172,-171.5 172,-190.5 280,-190.5 280,-171.5 172,-171.5"/>
<text text-anchor="middle" x="226" y="-178.5" font-family="Helvetica,sans-Serif" font-size="10.00">vectorcache::get_tag</text>
</a>
</g>
</g>
<!-- Node1&#45;&gt;Node5 -->
<g id="edge4" class="edge"><title>Node1&#45;&gt;Node5</title>
<path fill="none" stroke="midnightblue" d="M124.245,-181C136.495,-181 149.387,-181 161.705,-181"/>
<polygon fill="midnightblue" stroke="midnightblue" points="161.89,-184.5 171.89,-181 161.89,-177.5 161.89,-184.5"/>
</g>
<!-- Node6 -->
<g id="node6" class="node"><title>Node6</title>
<g id="a_node6"><a xlink:href="group__mmu__cache.html#gaf430f1c647316bafa1a64b364fe6e985" target="_top" xlink:title=" ">
<polygon fill="white" stroke="black" points="165,-133.5 165,-152.5 287,-152.5 287,-133.5 165,-133.5"/>
<text text-anchor="middle" x="226" y="-140.5" font-family="Helvetica,sans-Serif" font-size="10.00">vectorcache::locate_line</text>
</a>
</g>
</g>
<!-- Node1&#45;&gt;Node6 -->
<g id="edge5" class="edge"><title>Node1&#45;&gt;Node6</title>
<path fill="none" stroke="midnightblue" d="M103.879,-171.411C125.353,-166.374 151.86,-160.156 174.597,-154.823"/>
<polygon fill="midnightblue" stroke="midnightblue" points="175.478,-158.211 184.415,-152.52 173.879,-151.396 175.478,-158.211"/>
</g>
<!-- Node9 -->
<g id="node9" class="node"><title>Node9</title>
<g id="a_node9"><a xlink:href="classmem__if.html#a18817b6b8bfff9aeb10b1f6aaecf80fd" target="_top" xlink:title="mem_if::mem_write">
<polygon fill="white" stroke="black" points="174.5,-95.5 174.5,-114.5 277.5,-114.5 277.5,-95.5 174.5,-95.5"/>
<text text-anchor="middle" x="226" y="-102.5" font-family="Helvetica,sans-Serif" font-size="10.00">mem_if::mem_write</text>
</a>
</g>
</g>
<!-- Node1&#45;&gt;Node9 -->
<g id="edge8" class="edge"><title>Node1&#45;&gt;Node9</title>
<path fill="none" stroke="midnightblue" d="M76.8778,-171.351C95.2014,-158.968 128.801,-137.48 160,-124 165.393,-121.67 171.157,-119.526 176.942,-117.583"/>
<polygon fill="midnightblue" stroke="midnightblue" points="178.162,-120.868 186.635,-114.508 176.045,-114.196 178.162,-120.868"/>
</g>
<!-- Node10 -->
<g id="node10" class="node"><title>Node10</title>
<g id="a_node10"><a xlink:href="group__mmu__cache.html#ga727ac9a431272da96395887a1aefa4c1" target="_top" xlink:title=" ">
<polygon fill="white" stroke="black" points="163.5,-57.5 163.5,-76.5 288.5,-76.5 288.5,-57.5 163.5,-57.5"/>
<text text-anchor="middle" x="226" y="-64.5" font-family="Helvetica,sans-Serif" font-size="10.00">vectorcache::update_line</text>
</a>
</g>
</g>
<!-- Node1&#45;&gt;Node10 -->
<g id="edge9" class="edge"><title>Node1&#45;&gt;Node10</title>
<path fill="none" stroke="midnightblue" d="M70.1413,-171.345C84.8159,-152.188 120.334,-109.224 160,-86 163.653,-83.8615 167.563,-81.9487 171.587,-80.2404"/>
<polygon fill="midnightblue" stroke="midnightblue" points="173.012,-83.4431 181.114,-76.6157 170.523,-76.9007 173.012,-83.4431"/>
</g>
<!-- Node7 -->
<g id="node7" class="node"><title>Node7</title>
<g id="a_node7"><a xlink:href="classvectorcache.html#a827b3080bda9e542b473d95b693e3129" target="_top" xlink:title="vectorcache::lookup_line">
<polygon fill="white" stroke="black" points="490.5,-57.5 490.5,-76.5 615.5,-76.5 615.5,-57.5 490.5,-57.5"/>
<text text-anchor="middle" x="553" y="-64.5" font-family="Helvetica,sans-Serif" font-size="10.00">vectorcache::lookup_line</text>
</a>
</g>
</g>
<!-- Node6&#45;&gt;Node7 -->
<g id="edge6" class="edge"><title>Node6&#45;&gt;Node7</title>
<path fill="none" stroke="midnightblue" d="M280.428,-152.545C327.469,-158.739 397.139,-162.464 454,-143 487.892,-131.398 519.124,-102.775 536.839,-84.1559"/>
<polygon fill="midnightblue" stroke="midnightblue" points="539.57,-86.3574 543.779,-76.6348 534.425,-81.61 539.57,-86.3574"/>
</g>
<!-- Node8 -->
<g id="node8" class="node"><title>Node8</title>
<g id="a_node8"><a xlink:href="group__mmu__cache.html#ga78e27913668aee0364241d782f754461" target="_top" xlink:title="Transforms a cache&#45;line offset into a valid mask. ">
<polygon fill="white" stroke="black" points="328,-114.5 328,-133.5 454,-133.5 454,-114.5 328,-114.5"/>
<text text-anchor="middle" x="391" y="-121.5" font-family="Helvetica,sans-Serif" font-size="10.00">vectorcache::offset2valid</text>
</a>
</g>
</g>
<!-- Node6&#45;&gt;Node8 -->
<g id="edge7" class="edge"><title>Node6&#45;&gt;Node8</title>
<path fill="none" stroke="midnightblue" d="M287.232,-135.979C297.162,-134.822 307.546,-133.611 317.734,-132.424"/>
<polygon fill="midnightblue" stroke="midnightblue" points="318.306,-135.881 327.834,-131.246 317.496,-128.928 318.306,-135.881"/>
</g>
<!-- Node10&#45;&gt;Node7 -->
<g id="edge10" class="edge"><title>Node10&#45;&gt;Node7</title>
<path fill="none" stroke="midnightblue" d="M288.512,-67C343.11,-67 422.907,-67 480.366,-67"/>
<polygon fill="midnightblue" stroke="midnightblue" points="480.464,-70.5001 490.464,-67 480.464,-63.5001 480.464,-70.5001"/>
</g>
<!-- Node10&#45;&gt;Node8 -->
<g id="edge13" class="edge"><title>Node10&#45;&gt;Node8</title>
<path fill="none" stroke="midnightblue" d="M261.582,-76.5065C271.462,-79.385 282.204,-82.6705 292,-86 308.254,-91.5246 311.995,-93.7902 328,-100 337.009,-103.495 346.756,-107.271 355.795,-110.77"/>
<polygon fill="midnightblue" stroke="midnightblue" points="354.668,-114.087 365.257,-114.432 357.195,-107.559 354.668,-114.087"/>
</g>
<!-- Node11 -->
<g id="node11" class="node"><title>Node11</title>
<g id="a_node11"><a xlink:href="group__mmu__cache.html#ga5e8f7c21bebbc24e9fe386e3d5adaaaa" target="_top" xlink:title="Updates the lrr bits for every line replacement. ">
<polygon fill="white" stroke="black" points="331.5,-38.5 331.5,-57.5 450.5,-57.5 450.5,-38.5 331.5,-38.5"/>
<text text-anchor="middle" x="391" y="-45.5" font-family="Helvetica,sans-Serif" font-size="10.00">vectorcache::lrr_update</text>
</a>
</g>
</g>
<!-- Node10&#45;&gt;Node11 -->
<g id="edge11" class="edge"><title>Node10&#45;&gt;Node11</title>
<path fill="none" stroke="midnightblue" d="M288.623,-59.8169C299.213,-58.5825 310.279,-57.2926 321.046,-56.0376"/>
<polygon fill="midnightblue" stroke="midnightblue" points="321.725,-59.4823 331.252,-54.8479 320.914,-52.5293 321.725,-59.4823"/>
</g>
<!-- Node12 -->
<g id="node12" class="node"><title>Node12</title>
<g id="a_node12"><a xlink:href="group__mmu__cache.html#gaea849da687b231662e87071d1243b43a" target="_top" xlink:title="Updates the lru counters for every cache hit. ">
<polygon fill="white" stroke="black" points="330.5,-0.5 330.5,-19.5 451.5,-19.5 451.5,-0.5 330.5,-0.5"/>
<text text-anchor="middle" x="391" y="-7.5" font-family="Helvetica,sans-Serif" font-size="10.00">vectorcache::lru_update</text>
</a>
</g>
</g>
<!-- Node10&#45;&gt;Node12 -->
<g id="edge14" class="edge"><title>Node10&#45;&gt;Node12</title>
<path fill="none" stroke="midnightblue" d="M251.337,-57.3553C271.699,-49.4037 301.579,-38.0089 328,-29 334.372,-26.8274 341.15,-24.6331 347.796,-22.5458"/>
<polygon fill="midnightblue" stroke="midnightblue" points="348.86,-25.8804 357.378,-19.5792 346.79,-19.1936 348.86,-25.8804"/>
</g>
<!-- Node11&#45;&gt;Node7 -->
<g id="edge12" class="edge"><title>Node11&#45;&gt;Node7</title>
<path fill="none" stroke="midnightblue" d="M450.67,-54.967C460.268,-56.1068 470.308,-57.299 480.18,-58.4713"/>
<polygon fill="midnightblue" stroke="midnightblue" points="480.038,-61.979 490.381,-59.6828 480.864,-55.0279 480.038,-61.979"/>
</g>
<!-- Node12&#45;&gt;Node7 -->
<g id="edge15" class="edge"><title>Node12&#45;&gt;Node7</title>
<path fill="none" stroke="midnightblue" d="M424.643,-19.5184C434.155,-22.4226 444.533,-25.7188 454,-29 476.024,-36.6333 500.468,-46.1098 519.434,-53.6896"/>
<polygon fill="midnightblue" stroke="midnightblue" points="518.227,-56.9766 528.811,-57.4607 520.839,-50.4821 518.227,-56.9766"/>
</g>
</g>
</svg>
        <g id="navigator" transform="translate(0 0)" fill="#404254">
                <rect fill="#f2f5e9" fill-opacity="0.5" stroke="#606060" stroke-width=".5" x="0" y="0" width="60" height="60"/>
                <use id="zoomplus" xlink:href="#zoomPlus" x="17" y="9" onmousedown="handleZoom(evt,'in')"/>
                <use id="zoomminus" xlink:href="#zoomMin" x="42" y="9" onmousedown="handleZoom(evt,'out')"/>
                <use id="reset" xlink:href="#resetDef" x="30" y="36" onmousedown="handleReset()"/>
                <g id="arrowUp" xlink:href="#dirArrow" transform="translate(30 24)" onmousedown="handlePan(0,-1)">
                  <use xlink:href="#rim" fill="#404040">
                        <set attributeName="fill" to="#808080" begin="arrowUp.mouseover" end="arrowUp.mouseout"/>
                  </use>
                  <path fill="none" stroke="white" stroke-width="1.5" d="M0,-3.0v7 M-2.5,-0.5L0,-3.0L2.5,-0.5"/>
                </g>
                <g id="arrowRight" xlink:href="#dirArrow" transform="rotate(90) translate(36 -43)" onmousedown="handlePan(1,0)">
                  <use xlink:href="#rim" fill="#404040">
                        <set attributeName="fill" to="#808080" begin="arrowRight.mouseover" end="arrowRight.mouseout"/>
                  </use>
                  <path fill="none" stroke="white" stroke-width="1.5" d="M0,-3.0v7 M-2.5,-0.5L0,-3.0L2.5,-0.5"/>
                </g>
                <g id="arrowDown" xlink:href="#dirArrow" transform="rotate(180) translate(-30 -48)" onmousedown="handlePan(0,1)">
                  <use xlink:href="#rim" fill="#404040">
                        <set attributeName="fill" to="#808080" begin="arrowDown.mouseover" end="arrowDown.mouseout"/>
                  </use>
                  <path fill="none" stroke="white" stroke-width="1.5" d="M0,-3.0v7 M-2.5,-0.5L0,-3.0L2.5,-0.5"/>
                </g>
                <g id="arrowLeft" xlink:href="#dirArrow" transform="rotate(270) translate(-36 17)" onmousedown="handlePan(-1,0)">
                  <use xlink:href="#rim" fill="#404040">
                        <set attributeName="fill" to="#808080" begin="arrowLeft.mouseover" end="arrowLeft.mouseout"/>
                  </use>
                  <path fill="none" stroke="white" stroke-width="1.5" d="M0,-3.0v7 M-2.5,-0.5L0,-3.0L2.5,-0.5"/>
                </g>
        </g>
        <svg viewBox="0 0 15 15" width="100%" height="30px" preserveAspectRatio="xMaxYMin meet">
         <g id="arrow_out" transform="scale(0.3 0.3)">
          <a xlink:href="group__mmu__cache_ga6d00286d3bba76c571eb7c60c6228438_cgraph_org.svg" target="_base">
           <rect id="button" ry="5" rx="5" y="6" x="6" height="38" width="38"
                fill="#f2f5e9" fill-opacity="0.5" stroke="#606060" stroke-width="1.0"/>
           <path id="arrow"
             d="M 11.500037,31.436501 C 11.940474,20.09759 22.043105,11.32322 32.158766,21.979434 L 37.068811,17.246167 C 37.068811,17.246167 37.088388,32 37.088388,32 L 22.160133,31.978069 C 22.160133,31.978069 26.997745,27.140456 26.997745,27.140456 C 18.528582,18.264221 13.291696,25.230495 11.500037,31.436501 z"
             style="fill:#404040;"/>
          </a>
         </g>
        </svg>
</svg>
