<?xml version="1.0" encoding="UTF-8" standalone="no"?>
<!DOCTYPE svg PUBLIC "-//W3C//DTD SVG 1.1//EN"
 "http://www.w3.org/Graphics/SVG/1.1/DTD/svg11.dtd">
<!-- Generated by graphviz version 2.38.0 (20140413.2041)
 -->
<!-- Title: AHBMem::AHBMem Pages: 1 -->
<svg width="436pt" height="280pt"
 viewBox="0.00 0.00 436.00 279.50" xmlns="http://www.w3.org/2000/svg" xmlns:xlink="http://www.w3.org/1999/xlink">
<g id="graph0" class="graph" transform="scale(1 1) rotate(0) translate(4 275.5)">
<title>AHBMem::AHBMem</title>
<polygon fill="white" stroke="none" points="-4,4 -4,-275.5 432,-275.5 432,4 -4,4"/>
<!-- Node1 -->
<g id="node1" class="node"><title>Node1</title>
<polygon fill="#bfbfbf" stroke="black" points="0,-114.5 0,-133.5 108,-133.5 108,-114.5 0,-114.5"/>
<text text-anchor="middle" x="54" y="-121.5" font-family="Helvetica,sans-Serif" font-size="10.00">AHBMem::AHBMem</text>
</g>
<!-- Node2 -->
<g id="node2" class="node"><title>Node2</title>
<g id="a_node2"><a xlink:href="classAHBDevice.html#a5b806175b7f9a4977acfeada16ab3e8a" target="_top" xlink:title="AHBDevice::get_ahb\l_base_addr">
<polygon fill="white" stroke="black" points="155.5,-241 155.5,-271 264.5,-271 264.5,-241 155.5,-241"/>
<text text-anchor="start" x="163.5" y="-259" font-family="Helvetica,sans-Serif" font-size="10.00">AHBDevice::get_ahb</text>
<text text-anchor="middle" x="210" y="-248" font-family="Helvetica,sans-Serif" font-size="10.00">_base_addr</text>
</a>
</g>
</g>
<!-- Node1&#45;&gt;Node2 -->
<g id="edge1" class="edge"><title>Node1&#45;&gt;Node2</title>
<path fill="none" stroke="midnightblue" d="M60.6481,-133.695C73.1424,-154.36 105.12,-203.121 144,-231 146.653,-232.902 149.469,-234.681 152.385,-236.342"/>
<polygon fill="midnightblue" stroke="midnightblue" points="150.875,-239.501 161.367,-240.974 154.083,-233.28 150.875,-239.501"/>
</g>
<!-- Node3 -->
<g id="node3" class="node"><title>Node3</title>
<g id="a_node3"><a xlink:href="classAHBDevice.html#a32c2b495a467fc30e15edfff517a0fca" target="_top" xlink:title="AHBDevice::get_ahb_size">
<polygon fill="white" stroke="black" points="144,-202.5 144,-221.5 276,-221.5 276,-202.5 144,-202.5"/>
<text text-anchor="middle" x="210" y="-209.5" font-family="Helvetica,sans-Serif" font-size="10.00">AHBDevice::get_ahb_size</text>
</a>
</g>
</g>
<!-- Node1&#45;&gt;Node3 -->
<g id="edge2" class="edge"><title>Node1&#45;&gt;Node3</title>
<path fill="none" stroke="midnightblue" d="M64.8097,-133.664C80.3464,-148.465 112.132,-176.735 144,-193 148.352,-195.221 153.005,-197.222 157.745,-199.016"/>
<polygon fill="midnightblue" stroke="midnightblue" points="156.936,-202.44 167.531,-202.41 159.23,-195.826 156.936,-202.44"/>
</g>
<!-- Node4 -->
<g id="node4" class="node"><title>Node4</title>
<g id="a_node4"><a xlink:href="group__ahbmem.html#ga95e070b12f60e8d116ad969ab13c1dd3" target="_top" xlink:title="AHBMem::get_direct\l_mem_ptr">
<polygon fill="white" stroke="black" points="156,-153 156,-183 264,-183 264,-153 156,-153"/>
<text text-anchor="start" x="164" y="-171" font-family="Helvetica,sans-Serif" font-size="10.00">AHBMem::get_direct</text>
<text text-anchor="middle" x="210" y="-160" font-family="Helvetica,sans-Serif" font-size="10.00">_mem_ptr</text>
</a>
</g>
</g>
<!-- Node1&#45;&gt;Node4 -->
<g id="edge3" class="edge"><title>Node1&#45;&gt;Node4</title>
<path fill="none" stroke="midnightblue" d="M88.4157,-133.547C105.445,-138.413 126.714,-144.49 146.629,-150.18"/>
<polygon fill="midnightblue" stroke="midnightblue" points="145.694,-153.553 156.271,-152.935 147.618,-146.822 145.694,-153.553"/>
</g>
<!-- Node8 -->
<g id="node8" class="node"><title>Node8</title>
<g id="a_node8"><a xlink:href="group__ahbmem.html#ga5f24eafcaea77f973097071446c9c994" target="_top" xlink:title="Initialize generics. ">
<polygon fill="white" stroke="black" points="150,-114.5 150,-133.5 270,-133.5 270,-114.5 150,-114.5"/>
<text text-anchor="middle" x="210" y="-121.5" font-family="Helvetica,sans-Serif" font-size="10.00">AHBMem::init_generics</text>
</a>
</g>
</g>
<!-- Node1&#45;&gt;Node8 -->
<g id="edge7" class="edge"><title>Node1&#45;&gt;Node8</title>
<path fill="none" stroke="midnightblue" d="M108.43,-124C118.568,-124 129.31,-124 139.853,-124"/>
<polygon fill="midnightblue" stroke="midnightblue" points="139.874,-127.5 149.874,-124 139.874,-120.5 139.874,-127.5"/>
</g>
<!-- Node10 -->
<g id="node10" class="node"><title>Node10</title>
<g id="a_node10"><a xlink:href="group__ahbmem.html#ga5ed39fa822bccb7c72bd44c8c10d6279" target="_top" xlink:title="Dynamic/Internal power callback. ">
<polygon fill="white" stroke="black" points="148.5,-76.5 148.5,-95.5 271.5,-95.5 271.5,-76.5 148.5,-76.5"/>
<text text-anchor="middle" x="210" y="-83.5" font-family="Helvetica,sans-Serif" font-size="10.00">AHBMem::int_power_cb</text>
</a>
</g>
</g>
<!-- Node1&#45;&gt;Node10 -->
<g id="edge9" class="edge"><title>Node1&#45;&gt;Node10</title>
<path fill="none" stroke="midnightblue" d="M93.8607,-114.411C114.091,-109.419 139.021,-103.268 160.504,-97.9666"/>
<polygon fill="midnightblue" stroke="midnightblue" points="161.548,-101.314 170.419,-95.5201 159.871,-94.5177 161.548,-101.314"/>
</g>
<!-- Node11 -->
<g id="node11" class="node"><title>Node11</title>
<g id="a_node11"><a xlink:href="group__ahbmem.html#ga1ff76c574b66e8a884757568e4468860" target="_top" xlink:title="Static power callback. ">
<polygon fill="white" stroke="black" points="147,-38.5 147,-57.5 273,-57.5 273,-38.5 147,-38.5"/>
<text text-anchor="middle" x="210" y="-45.5" font-family="Helvetica,sans-Serif" font-size="10.00">AHBMem::sta_power_cb</text>
</a>
</g>
</g>
<!-- Node1&#45;&gt;Node11 -->
<g id="edge10" class="edge"><title>Node1&#45;&gt;Node11</title>
<path fill="none" stroke="midnightblue" d="M67.3138,-114.486C83.9151,-102.052 114.773,-80.2984 144,-67 149.016,-64.7176 154.375,-62.634 159.782,-60.7529"/>
<polygon fill="midnightblue" stroke="midnightblue" points="161.08,-64.0113 169.504,-57.5866 158.912,-57.3554 161.08,-64.0113"/>
</g>
<!-- Node12 -->
<g id="node12" class="node"><title>Node12</title>
<g id="a_node12"><a xlink:href="group__ahbmem.html#ga56d9d9e6b11ac1e983998f97a4858ee7" target="_top" xlink:title="Dynamic/Switching power callback. ">
<polygon fill="white" stroke="black" points="146,-0.5 146,-19.5 274,-19.5 274,-0.5 146,-0.5"/>
<text text-anchor="middle" x="210" y="-7.5" font-family="Helvetica,sans-Serif" font-size="10.00">AHBMem::swi_power_cb</text>
</a>
</g>
</g>
<!-- Node1&#45;&gt;Node12 -->
<g id="edge11" class="edge"><title>Node1&#45;&gt;Node12</title>
<path fill="none" stroke="midnightblue" d="M61.3566,-114.32C74.469,-95.1194 106.456,-52.0797 144,-29 147.549,-26.8181 151.362,-24.8761 155.296,-23.1496"/>
<polygon fill="midnightblue" stroke="midnightblue" points="156.592,-26.4009 164.631,-19.5001 154.043,-19.8813 156.592,-26.4009"/>
</g>
<!-- Node5 -->
<g id="node5" class="node"><title>Node5</title>
<g id="a_node5"><a xlink:href="classStorage.html#a9884d7e287bba91bc6bfe1171626e626" target="_top" xlink:title="Storage::get_dmi_ptr">
<polygon fill="white" stroke="black" points="316.5,-224.5 316.5,-243.5 423.5,-243.5 423.5,-224.5 316.5,-224.5"/>
<text text-anchor="middle" x="370" y="-231.5" font-family="Helvetica,sans-Serif" font-size="10.00">Storage::get_dmi_ptr</text>
</a>
</g>
</g>
<!-- Node4&#45;&gt;Node5 -->
<g id="edge4" class="edge"><title>Node4&#45;&gt;Node5</title>
<path fill="none" stroke="midnightblue" d="M253.438,-183.043C261.055,-186.102 268.842,-189.473 276,-193 292.82,-201.289 294.996,-207.096 312,-215 316.669,-217.17 321.656,-219.21 326.666,-221.089"/>
<polygon fill="midnightblue" stroke="midnightblue" points="325.655,-224.444 336.249,-224.496 327.999,-217.848 325.655,-224.444"/>
</g>
<!-- Node6 -->
<g id="node6" class="node"><title>Node6</title>
<g id="a_node6"><a xlink:href="classAHBDevice.html#a8a0b10f997394f7d2cfd7fdf754a6b4b" target="_top" xlink:title="AHBDevice::get_ahb\l_bar_size">
<polygon fill="white" stroke="black" points="315.5,-175 315.5,-205 424.5,-205 424.5,-175 315.5,-175"/>
<text text-anchor="start" x="323.5" y="-193" font-family="Helvetica,sans-Serif" font-size="10.00">AHBDevice::get_ahb</text>
<text text-anchor="middle" x="370" y="-182" font-family="Helvetica,sans-Serif" font-size="10.00">_bar_size</text>
</a>
</g>
</g>
<!-- Node4&#45;&gt;Node6 -->
<g id="edge5" class="edge"><title>Node4&#45;&gt;Node6</title>
<path fill="none" stroke="midnightblue" d="M264.051,-175.387C277.196,-177.217 291.419,-179.198 305.025,-181.092"/>
<polygon fill="midnightblue" stroke="midnightblue" points="304.894,-184.608 315.281,-182.52 305.859,-177.674 304.894,-184.608"/>
</g>
<!-- Node7 -->
<g id="node7" class="node"><title>Node7</title>
<g id="a_node7"><a xlink:href="classStorage.html#a40c97ccf49c1404c7063917e1ababb1e" target="_top" xlink:title="Storage::allow_dmi_rw">
<polygon fill="white" stroke="black" points="312,-136.5 312,-155.5 428,-155.5 428,-136.5 312,-136.5"/>
<text text-anchor="middle" x="370" y="-143.5" font-family="Helvetica,sans-Serif" font-size="10.00">Storage::allow_dmi_rw</text>
</a>
</g>
</g>
<!-- Node4&#45;&gt;Node7 -->
<g id="edge6" class="edge"><title>Node4&#45;&gt;Node7</title>
<path fill="none" stroke="midnightblue" d="M264.051,-160.613C276.148,-158.929 289.157,-157.117 301.758,-155.363"/>
<polygon fill="midnightblue" stroke="midnightblue" points="302.33,-158.817 311.752,-153.971 301.364,-151.884 302.33,-158.817"/>
</g>
<!-- Node9 -->
<g id="node9" class="node"><title>Node9</title>
<g id="a_node9"><a xlink:href="classsr__param__base.html#ad7c5b28a15c30bb579ff36c8ae356829" target="_top" xlink:title="sr_param_base::add\l_properties">
<polygon fill="white" stroke="black" points="317.5,-87 317.5,-117 422.5,-117 422.5,-87 317.5,-87"/>
<text text-anchor="start" x="325.5" y="-105" font-family="Helvetica,sans-Serif" font-size="10.00">sr_param_base::add</text>
<text text-anchor="middle" x="370" y="-94" font-family="Helvetica,sans-Serif" font-size="10.00">_properties</text>
</a>
</g>
</g>
<!-- Node8&#45;&gt;Node9 -->
<g id="edge8" class="edge"><title>Node8&#45;&gt;Node9</title>
<path fill="none" stroke="midnightblue" d="M270.283,-115.745C282.391,-114.059 295.16,-112.281 307.349,-110.584"/>
<polygon fill="midnightblue" stroke="midnightblue" points="308.003,-114.027 317.425,-109.181 307.037,-107.094 308.003,-114.027"/>
</g>
</g>
</svg>
