<?xml version="1.0" encoding="UTF-8" standalone="no"?>
<!DOCTYPE svg PUBLIC "-//W3C//DTD SVG 1.1//EN"
 "http://www.w3.org/Graphics/SVG/1.1/DTD/svg11.dtd">
<!-- Generated by graphviz version 2.26.0 (20091210.2329)
 -->
<!-- Title: AHBOut::AHBOut Pages: 1 -->
<svg width="272pt" height="82pt"
 viewBox="0.00 0.00 272.00 82.00" xmlns="http://www.w3.org/2000/svg" xmlns:xlink="http://www.w3.org/1999/xlink">
<g id="graph1" class="graph" transform="scale(1 1) rotate(0) translate(4 78)">
<title>AHBOut::AHBOut</title>
<polygon fill="white" stroke="white" points="-4,5 -4,-78 269,-78 269,5 -4,5"/>
<!-- Node1 -->
<g id="node1" class="node"><title>Node1</title>
<polygon fill="#bfbfbf" stroke="black" points="0,-23.5 0,-44.5 96,-44.5 96,-23.5 0,-23.5"/>
<text text-anchor="middle" x="48" y="-31.5" font-family="Helvetica,sans-Serif" font-size="10.00">AHBOut::AHBOut</text>
</g>
<!-- Node2 -->
<g id="node3" class="node"><title>Node2</title>
<a xlink:href="classAHBDevice.html#a5b806175b7f9a4977acfeada16ab3e8a" target="_top" xlink:title="AHBDevice::get_ahb\l_base_addr">
<polygon fill="white" stroke="black" points="143.5,-40 143.5,-74 252.5,-74 252.5,-40 143.5,-40"/>
<text text-anchor="start" x="151.5" y="-61" font-family="Helvetica,sans-Serif" font-size="10.00">AHBDevice::get_ahb</text>
<text text-anchor="middle" x="198" y="-48" font-family="Helvetica,sans-Serif" font-size="10.00">_base_addr</text>
</a>
</g>
<!-- Node1&#45;&gt;Node2 -->
<g id="edge2" class="edge"><title>Node1&#45;&gt;Node2</title>
<path fill="none" stroke="midnightblue" d="M96.2866,-41.4039C107.996,-43.1994 120.704,-45.148 133.043,-47.04"/>
<polygon fill="midnightblue" stroke="midnightblue" points="132.876,-50.5552 143.291,-48.6113 133.937,-43.636 132.876,-50.5552"/>
</g>
<!-- Node3 -->
<g id="node5" class="node"><title>Node3</title>
<a xlink:href="classAHBDevice.html#a32c2b495a467fc30e15edfff517a0fca" target="_top" xlink:title="AHBDevice::get_ahb_size">
<polygon fill="white" stroke="black" points="132,-0.5 132,-21.5 264,-21.5 264,-0.5 132,-0.5"/>
<text text-anchor="middle" x="198" y="-8.5" font-family="Helvetica,sans-Serif" font-size="10.00">AHBDevice::get_ahb_size</text>
</a>
</g>
<!-- Node1&#45;&gt;Node3 -->
<g id="edge4" class="edge"><title>Node1&#45;&gt;Node3</title>
<path fill="none" stroke="midnightblue" d="M96.2866,-26.5961C104.412,-25.3501 113.019,-24.0305 121.649,-22.7071"/>
<polygon fill="midnightblue" stroke="midnightblue" points="122.41,-26.1314 131.764,-21.1561 121.349,-19.2123 122.41,-26.1314"/>
</g>
</g>
</svg>
