<?xml version="1.0" encoding="UTF-8" standalone="no"?>
<!DOCTYPE svg PUBLIC "-//W3C//DTD SVG 1.1//EN"
 "http://www.w3.org/Graphics/SVG/1.1/DTD/svg11.dtd">
<!-- Generated by graphviz version 2.38.0 (20140413.2041)
 -->
<!-- Title: grtc_test Pages: 1 -->
<svg width="178pt" height="64pt"
 viewBox="0.00 0.00 178.28 64.00" xmlns="http://www.w3.org/2000/svg" xmlns:xlink="http://www.w3.org/1999/xlink">
<g id="graph0" class="graph" transform="scale(1 1) rotate(0) translate(4 60)">
<title>grtc_test</title>
<polygon fill="white" stroke="none" points="-4,4 -4,-60 174.275,-60 174.275,4 -4,4"/>
<!-- Node1 -->
<g id="node1" class="node"><title>Node1</title>
<polygon fill="#bfbfbf" stroke="black" points="0,-18.5 0,-36.5 54.3496,-36.5 54.3496,-18.5 0,-18.5"/>
<text text-anchor="middle" x="27.1748" y="-24.5" font-family="Helvetica,sans-Serif" font-size="10.00">grtc_test</text>
</g>
<!-- Node2 -->
<g id="node2" class="node"><title>Node2</title>
<g id="a_node2"><a xlink:href="report__device_8c.html#a19b399e21d163c2a92510871f1a807de" target="_top" xlink:title="report_device">
<polygon fill="white" stroke="black" points="92.0171,-37.5 92.0171,-55.5 168.608,-55.5 168.608,-37.5 92.0171,-37.5"/>
<text text-anchor="middle" x="130.312" y="-43.5" font-family="Helvetica,sans-Serif" font-size="10.00">report_device</text>
</a>
</g>
</g>
<!-- Node1&#45;&gt;Node2 -->
<g id="edge1" class="edge"><title>Node1&#45;&gt;Node2</title>
<path fill="none" stroke="midnightblue" d="M54.4835,-32.4424C62.822,-34.0089 72.3139,-35.7921 81.6716,-37.55"/>
<polygon fill="midnightblue" stroke="midnightblue" points="81.2378,-41.0297 91.7121,-39.4363 82.5302,-34.15 81.2378,-41.0297"/>
</g>
<!-- Node3 -->
<g id="node3" class="node"><title>Node3</title>
<g id="a_node3"><a xlink:href="report__device_8c.html#aa1e4c0543aa65e7b4c320fbb86c81f3c" target="_top" xlink:title="report_subtest">
<polygon fill="white" stroke="black" points="90.3496,-0.5 90.3496,-18.5 170.275,-18.5 170.275,-0.5 90.3496,-0.5"/>
<text text-anchor="middle" x="130.312" y="-6.5" font-family="Helvetica,sans-Serif" font-size="10.00">report_subtest</text>
</a>
</g>
</g>
<!-- Node1&#45;&gt;Node3 -->
<g id="edge2" class="edge"><title>Node1&#45;&gt;Node3</title>
<path fill="none" stroke="midnightblue" d="M54.4835,-22.8177C62.3931,-21.41 71.3405,-19.8176 80.2267,-18.2361"/>
<polygon fill="midnightblue" stroke="midnightblue" points="80.943,-21.6637 90.175,-16.4655 79.7164,-14.772 80.943,-21.6637"/>
</g>
</g>
</svg>
