<?xml version="1.0" encoding="UTF-8" standalone="no"?>
<!DOCTYPE svg PUBLIC "-//W3C//DTD SVG 1.1//EN"
 "http://www.w3.org/Graphics/SVG/1.1/DTD/svg11.dtd">
<!-- Generated by graphviz version 2.36.0 (20140111.2315)
 -->
<!-- Title: grtm_test Pages: 1 -->
<svg width="182pt" height="104pt"
 viewBox="0.00 0.00 182.00 104.00" xmlns="http://www.w3.org/2000/svg" xmlns:xlink="http://www.w3.org/1999/xlink">
<g id="graph0" class="graph" transform="scale(1 1) rotate(0) translate(4 100)">
<title>grtm_test</title>
<polygon fill="white" stroke="none" points="-4,4 -4,-100 178,-100 178,4 -4,4"/>
<!-- Node1 -->
<g id="node1" class="node"><title>Node1</title>
<polygon fill="#bfbfbf" stroke="black" points="0,-38.5 0,-57.5 58,-57.5 58,-38.5 0,-38.5"/>
<text text-anchor="middle" x="29" y="-45.5" font-family="Helvetica,sans-Serif" font-size="10.00">grtm_test</text>
</g>
<!-- Node2 -->
<g id="node2" class="node"><title>Node2</title>
<g id="a_node2"><a xlink:href="report__device_8c.html#a19b399e21d163c2a92510871f1a807de" target="_top" xlink:title="report_device">
<polygon fill="white" stroke="black" points="96.5,-76.5 96.5,-95.5 171.5,-95.5 171.5,-76.5 96.5,-76.5"/>
<text text-anchor="middle" x="134" y="-83.5" font-family="Helvetica,sans-Serif" font-size="10.00">report_device</text>
</a>
</g>
</g>
<!-- Node1&#45;&gt;Node2 -->
<g id="edge1" class="edge"><title>Node1&#45;&gt;Node2</title>
<path fill="none" stroke="midnightblue" d="M55.9912,-57.589C68.5557,-62.2244 83.8301,-67.8596 97.4523,-72.8853"/>
<polygon fill="midnightblue" stroke="midnightblue" points="96.4237,-76.2364 107.017,-76.4141 98.8467,-69.6691 96.4237,-76.2364"/>
</g>
<!-- Node3 -->
<g id="node3" class="node"><title>Node3</title>
<g id="a_node3"><a xlink:href="report__device_8c.html#aa1e4c0543aa65e7b4c320fbb86c81f3c" target="_top" xlink:title="report_subtest">
<polygon fill="white" stroke="black" points="94.5,-38.5 94.5,-57.5 173.5,-57.5 173.5,-38.5 94.5,-38.5"/>
<text text-anchor="middle" x="134" y="-45.5" font-family="Helvetica,sans-Serif" font-size="10.00">report_subtest</text>
</a>
</g>
</g>
<!-- Node1&#45;&gt;Node3 -->
<g id="edge2" class="edge"><title>Node1&#45;&gt;Node3</title>
<path fill="none" stroke="midnightblue" d="M58.1452,-48C66.2812,-48 75.4038,-48 84.4075,-48"/>
<polygon fill="midnightblue" stroke="midnightblue" points="84.4635,-51.5001 94.4635,-48 84.4635,-44.5001 84.4635,-51.5001"/>
</g>
<!-- Node4 -->
<g id="node4" class="node"><title>Node4</title>
<g id="a_node4"><a xlink:href="grtm_8c.html#a5bbad0fd6aceb5a3765fb4e4465e5531" target="_top" xlink:title="TMTF">
<polygon fill="white" stroke="black" points="112.5,-0.5 112.5,-19.5 155.5,-19.5 155.5,-0.5 112.5,-0.5"/>
<text text-anchor="middle" x="134" y="-7.5" font-family="Helvetica,sans-Serif" font-size="10.00">TMTF</text>
</a>
</g>
</g>
<!-- Node1&#45;&gt;Node4 -->
<g id="edge3" class="edge"><title>Node1&#45;&gt;Node4</title>
<path fill="none" stroke="midnightblue" d="M55.9912,-38.411C70.1303,-33.1947 87.7012,-26.7122 102.487,-21.257"/>
<polygon fill="midnightblue" stroke="midnightblue" points="104.032,-24.4177 112.203,-17.6727 101.61,-17.8504 104.032,-24.4177"/>
</g>
</g>
</svg>
