<?xml version="1.0" encoding="UTF-8" standalone="no"?>
<!DOCTYPE svg PUBLIC "-//W3C//DTD SVG 1.1//EN"
 "http://www.w3.org/Graphics/SVG/1.1/DTD/svg11.dtd">
<!-- Generated by graphviz version 2.38.0 (20140413.2041)
 -->
<!-- Title: grusbhc_test Pages: 1 -->
<svg width="319pt" height="175pt"
 viewBox="0.00 0.00 319.23 175.00" xmlns="http://www.w3.org/2000/svg" xmlns:xlink="http://www.w3.org/1999/xlink">
<g id="graph0" class="graph" transform="scale(1 1) rotate(0) translate(4 171)">
<title>grusbhc_test</title>
<polygon fill="white" stroke="none" points="-4,4 -4,-171 315.226,-171 315.226,4 -4,4"/>
<!-- Node1 -->
<g id="node1" class="node"><title>Node1</title>
<polygon fill="#bfbfbf" stroke="black" points="0,-73.5 0,-91.5 73.2559,-91.5 73.2559,-73.5 0,-73.5"/>
<text text-anchor="middle" x="36.6279" y="-79.5" font-family="Helvetica,sans-Serif" font-size="10.00">grusbhc_test</text>
</g>
<!-- Node2 -->
<g id="node2" class="node"><title>Node2</title>
<g id="a_node2"><a xlink:href="grusbhc_8c.html#a1865b77ddd0148ca96d1d5a7d2ad4a82" target="_top" xlink:title="ehc_test">
<polygon fill="white" stroke="black" points="109.256,-55.5 109.256,-73.5 163.059,-73.5 163.059,-55.5 109.256,-55.5"/>
<text text-anchor="middle" x="136.157" y="-61.5" font-family="Helvetica,sans-Serif" font-size="10.00">ehc_test</text>
</a>
</g>
</g>
<!-- Node1&#45;&gt;Node2 -->
<g id="edge1" class="edge"><title>Node1&#45;&gt;Node2</title>
<path fill="none" stroke="midnightblue" d="M73.3904,-75.8997C81.8161,-74.3446 90.8005,-72.6865 99.2333,-71.1301"/>
<polygon fill="midnightblue" stroke="midnightblue" points="99.9726,-74.5529 109.171,-69.296 98.7021,-67.6691 99.9726,-74.5529"/>
</g>
<!-- Node7 -->
<g id="node7" class="node"><title>Node7</title>
<g id="a_node7"><a xlink:href="grusbhc_8c.html#aa9b406f70eab9ad198eaa88b4d6bf828" target="_top" xlink:title="uhc_test">
<polygon fill="white" stroke="black" points="109.256,-92.5 109.256,-110.5 163.059,-110.5 163.059,-92.5 109.256,-92.5"/>
<text text-anchor="middle" x="136.157" y="-98.5" font-family="Helvetica,sans-Serif" font-size="10.00">uhc_test</text>
</a>
</g>
</g>
<!-- Node1&#45;&gt;Node7 -->
<g id="edge6" class="edge"><title>Node1&#45;&gt;Node7</title>
<path fill="none" stroke="midnightblue" d="M73.3904,-89.467C81.8161,-91.1085 90.8005,-92.8587 99.2333,-94.5015"/>
<polygon fill="midnightblue" stroke="midnightblue" points="98.6865,-97.9607 109.171,-96.4376 100.025,-91.0899 98.6865,-97.9607"/>
</g>
<!-- Node3 -->
<g id="node3" class="node"><title>Node3</title>
<g id="a_node3"><a xlink:href="grusbhc_8c.html#a38564509873da12a5735fce0e5d73954" target="_top" xlink:title="build_frame_list">
<polygon fill="white" stroke="black" points="212.125,-111.5 212.125,-129.5 298.159,-129.5 298.159,-111.5 212.125,-111.5"/>
<text text-anchor="middle" x="255.142" y="-117.5" font-family="Helvetica,sans-Serif" font-size="10.00">build_frame_list</text>
</a>
</g>
</g>
<!-- Node2&#45;&gt;Node3 -->
<g id="edge2" class="edge"><title>Node2&#45;&gt;Node3</title>
<path fill="none" stroke="midnightblue" d="M149.941,-73.5849C162.123,-81.9377 181.204,-94.2422 199.059,-102.5 203.396,-104.506 208.02,-106.387 212.676,-108.121"/>
<polygon fill="midnightblue" stroke="midnightblue" points="211.598,-111.452 222.193,-111.466 213.919,-104.848 211.598,-111.452"/>
</g>
<!-- Node4 -->
<g id="node4" class="node"><title>Node4</title>
<g id="a_node4"><a xlink:href="grusbhc_8c.html#a0cfdffe52c5eaaa9b1325f2e8ee134de" target="_top" xlink:title="ehc_check_opresvals">
<polygon fill="white" stroke="black" points="199.059,-0.5 199.059,-18.5 311.226,-18.5 311.226,-0.5 199.059,-0.5"/>
<text text-anchor="middle" x="255.142" y="-6.5" font-family="Helvetica,sans-Serif" font-size="10.00">ehc_check_opresvals</text>
</a>
</g>
</g>
<!-- Node2&#45;&gt;Node4 -->
<g id="edge3" class="edge"><title>Node2&#45;&gt;Node4</title>
<path fill="none" stroke="midnightblue" d="M150.45,-55.3646C162.675,-47.2567 181.511,-35.4902 199.059,-27.5 203.408,-25.5196 208.039,-23.6544 212.699,-21.9299"/>
<polygon fill="midnightblue" stroke="midnightblue" points="213.939,-25.204 222.221,-18.5957 211.626,-18.5973 213.939,-25.204"/>
</g>
<!-- Node5 -->
<g id="node5" class="node"><title>Node5</title>
<g id="a_node5"><a xlink:href="report__device_8c.html#a19b399e21d163c2a92510871f1a807de" target="_top" xlink:title="report_device">
<polygon fill="white" stroke="black" points="216.847,-74.5 216.847,-92.5 293.438,-92.5 293.438,-74.5 216.847,-74.5"/>
<text text-anchor="middle" x="255.142" y="-80.5" font-family="Helvetica,sans-Serif" font-size="10.00">report_device</text>
</a>
</g>
</g>
<!-- Node2&#45;&gt;Node5 -->
<g id="edge4" class="edge"><title>Node2&#45;&gt;Node5</title>
<path fill="none" stroke="midnightblue" d="M163.12,-68.7167C175.918,-70.7953 191.762,-73.3687 206.626,-75.7827"/>
<polygon fill="midnightblue" stroke="midnightblue" points="206.278,-79.272 216.71,-77.4205 207.401,-72.3626 206.278,-79.272"/>
</g>
<!-- Node6 -->
<g id="node6" class="node"><title>Node6</title>
<g id="a_node6"><a xlink:href="report__device_8c.html#aa1e4c0543aa65e7b4c320fbb86c81f3c" target="_top" xlink:title="report_subtest">
<polygon fill="white" stroke="black" points="215.179,-37.5 215.179,-55.5 295.105,-55.5 295.105,-37.5 215.179,-37.5"/>
<text text-anchor="middle" x="255.142" y="-43.5" font-family="Helvetica,sans-Serif" font-size="10.00">report_subtest</text>
</a>
</g>
</g>
<!-- Node2&#45;&gt;Node6 -->
<g id="edge5" class="edge"><title>Node2&#45;&gt;Node6</title>
<path fill="none" stroke="midnightblue" d="M163.12,-60.5052C175.362,-58.6216 190.391,-56.3092 204.682,-54.1102"/>
<polygon fill="midnightblue" stroke="midnightblue" points="205.557,-57.5169 214.908,-52.5368 204.492,-50.5983 205.557,-57.5169"/>
</g>
<!-- Node7&#45;&gt;Node3 -->
<g id="edge10" class="edge"><title>Node7&#45;&gt;Node3</title>
<path fill="none" stroke="midnightblue" d="M163.12,-105.717C174.492,-107.564 188.269,-109.801 201.626,-111.971"/>
<polygon fill="midnightblue" stroke="midnightblue" points="201.28,-115.46 211.711,-113.609 202.402,-108.551 201.28,-115.46"/>
</g>
<!-- Node7&#45;&gt;Node5 -->
<g id="edge7" class="edge"><title>Node7&#45;&gt;Node5</title>
<path fill="none" stroke="midnightblue" d="M163.12,-97.5052C175.918,-95.536 191.762,-93.0981 206.626,-90.8111"/>
<polygon fill="midnightblue" stroke="midnightblue" points="207.359,-94.2397 216.71,-89.2595 206.294,-87.3211 207.359,-94.2397"/>
</g>
<!-- Node7&#45;&gt;Node6 -->
<g id="edge8" class="edge"><title>Node7&#45;&gt;Node6</title>
<path fill="none" stroke="midnightblue" d="M150.999,-92.3988C163.277,-84.5842 181.878,-73.3681 199.059,-65.5 204.117,-63.1834 209.545,-60.9852 214.949,-58.9614"/>
<polygon fill="midnightblue" stroke="midnightblue" points="216.332,-62.1841 224.567,-55.5193 213.973,-55.5935 216.332,-62.1841"/>
</g>
<!-- Node8 -->
<g id="node8" class="node"><title>Node8</title>
<g id="a_node8"><a xlink:href="grusbhc_8c.html#a73586c24036643e10b1ee120fc51b8a3" target="_top" xlink:title="uhc_check_resvals">
<polygon fill="white" stroke="black" points="204.62,-148.5 204.62,-166.5 305.664,-166.5 305.664,-148.5 204.62,-148.5"/>
<text text-anchor="middle" x="255.142" y="-154.5" font-family="Helvetica,sans-Serif" font-size="10.00">uhc_check_resvals</text>
</a>
</g>
</g>
<!-- Node7&#45;&gt;Node8 -->
<g id="edge9" class="edge"><title>Node7&#45;&gt;Node8</title>
<path fill="none" stroke="midnightblue" d="M149.941,-110.585C162.123,-118.938 181.204,-131.242 199.059,-139.5 203.396,-141.506 208.02,-143.387 212.676,-145.121"/>
<polygon fill="midnightblue" stroke="midnightblue" points="211.598,-148.452 222.193,-148.466 213.919,-141.848 211.598,-148.452"/>
</g>
</g>
</svg>
