<?xml version="1.0" encoding="UTF-8" standalone="no"?>
<!DOCTYPE svg PUBLIC "-//W3C//DTD SVG 1.1//EN"
 "http://www.w3.org/Graphics/SVG/1.1/DTD/svg11.dtd">
<!-- Generated by graphviz version 2.38.0 (20140413.2041)
 -->
<!-- Title: main Pages: 1 -->
<svg width="244pt" height="27pt"
 viewBox="0.00 0.00 244.15 27.00" xmlns="http://www.w3.org/2000/svg" xmlns:xlink="http://www.w3.org/1999/xlink">
<g id="graph0" class="graph" transform="scale(1 1) rotate(0) translate(4 23)">
<title>main</title>
<polygon fill="white" stroke="none" points="-4,4 -4,-23 240.147,-23 240.147,4 -4,4"/>
<!-- Node1 -->
<g id="node1" class="node"><title>Node1</title>
<polygon fill="#bfbfbf" stroke="black" points="0,-0.5 0,-18.5 37.6748,-18.5 37.6748,-0.5 0,-0.5"/>
<text text-anchor="middle" x="18.8374" y="-6.5" font-family="Helvetica,sans-Serif" font-size="10.00">main</text>
</g>
<!-- Node2 -->
<g id="node2" class="node"><title>Node2</title>
<g id="a_node2"><a xlink:href="hanoi_8c.html#a94a93b63330685f15ae8ba51667a4a47" target="_top" xlink:title="mov">
<polygon fill="white" stroke="black" points="73.6748,-0.5 73.6748,-18.5 108.566,-18.5 108.566,-0.5 73.6748,-0.5"/>
<text text-anchor="middle" x="91.1206" y="-6.5" font-family="Helvetica,sans-Serif" font-size="10.00">mov</text>
</a>
</g>
</g>
<!-- Node1&#45;&gt;Node2 -->
<g id="edge1" class="edge"><title>Node1&#45;&gt;Node2</title>
<path fill="none" stroke="midnightblue" d="M37.9371,-9.5C45.6013,-9.5 54.6926,-9.5 63.1222,-9.5"/>
<polygon fill="midnightblue" stroke="midnightblue" points="63.2889,-13.0001 73.2888,-9.5 63.2888,-6.0001 63.2889,-13.0001"/>
</g>
<!-- Node3 -->
<g id="node3" class="node"><title>Node3</title>
<g id="a_node3"><a xlink:href="namespacecore_1_1waf_1_1cmake.html#a2cc9c2d5713380ebb07751a69eeb9bc6" target="_top" xlink:title="core.waf.cmake.f">
<polygon fill="white" stroke="black" points="144.566,-0.5 144.566,-18.5 236.147,-18.5 236.147,-0.5 144.566,-0.5"/>
<text text-anchor="middle" x="190.357" y="-6.5" font-family="Helvetica,sans-Serif" font-size="10.00">core.waf.cmake.f</text>
</a>
</g>
</g>
<!-- Node2&#45;&gt;Node3 -->
<g id="edge2" class="edge"><title>Node2&#45;&gt;Node3</title>
<path fill="none" stroke="midnightblue" d="M108.615,-9.5C115.857,-9.5 124.821,-9.5 134.113,-9.5"/>
<polygon fill="midnightblue" stroke="midnightblue" points="134.259,-13.0001 144.259,-9.5 134.259,-6.0001 134.259,-13.0001"/>
</g>
</g>
</svg>
