<?xml version="1.0" encoding="UTF-8" standalone="no"?>
<!DOCTYPE svg PUBLIC "-//W3C//DTD SVG 1.1//EN"
 "http://www.w3.org/Graphics/SVG/1.1/DTD/svg11.dtd">
<!-- Generated by graphviz version 2.26.0 (20091210.2329)
 -->
<!-- Title: core/software/trapgen/heapsort.c Pages: 1 -->
<svg width="184pt" height="102pt"
 viewBox="0.00 0.00 184.00 102.00" xmlns="http://www.w3.org/2000/svg" xmlns:xlink="http://www.w3.org/1999/xlink">
<g id="graph1" class="graph" transform="scale(1 1) rotate(0) translate(4 98)">
<title>core/software/trapgen/heapsort.c</title>
<polygon fill="white" stroke="white" points="-4,5 -4,-98 181,-98 181,5 -4,5"/>
<!-- Node1 -->
<g id="node1" class="node"><title>Node1</title>
<polygon fill="#bfbfbf" stroke="black" points="33.5,-59 33.5,-93 144.5,-93 144.5,-59 33.5,-59"/>
<text text-anchor="start" x="41.5" y="-80" font-family="Helvetica,sans-Serif" font-size="10.00">core/software/trapgen</text>
<text text-anchor="middle" x="89" y="-67" font-family="Helvetica,sans-Serif" font-size="10.00">/heapsort.c</text>
</g>
<!-- Node2 -->
<g id="node3" class="node"><title>Node2</title>
<polygon fill="white" stroke="#bfbfbf" points="0,-0.5 0,-21.5 48,-21.5 48,-0.5 0,-0.5"/>
<text text-anchor="middle" x="24" y="-8.5" font-family="Helvetica,sans-Serif" font-size="10.00">stdlib.h</text>
</g>
<!-- Node1&#45;&gt;Node2 -->
<g id="edge2" class="edge"><title>Node1&#45;&gt;Node2</title>
<path fill="none" stroke="midnightblue" d="M71.922,-58.922C62.7536,-49.7536 51.4535,-38.4535 42.1294,-29.1294"/>
<polygon fill="midnightblue" stroke="midnightblue" points="44.3981,-26.4483 34.8521,-21.8521 39.4483,-31.3981 44.3981,-26.4483"/>
</g>
<!-- Node3 -->
<g id="node5" class="node"><title>Node3</title>
<polygon fill="white" stroke="#bfbfbf" points="66,-0.5 66,-21.5 112,-21.5 112,-0.5 66,-0.5"/>
<text text-anchor="middle" x="89" y="-8.5" font-family="Helvetica,sans-Serif" font-size="10.00">stdio.h</text>
</g>
<!-- Node1&#45;&gt;Node3 -->
<g id="edge4" class="edge"><title>Node1&#45;&gt;Node3</title>
<path fill="none" stroke="midnightblue" d="M89,-58.922C89,-50.6704 89,-40.6922 89,-31.9818"/>
<polygon fill="midnightblue" stroke="midnightblue" points="92.5001,-31.8521 89,-21.8521 85.5001,-31.8521 92.5001,-31.8521"/>
</g>
<!-- Node4 -->
<g id="node7" class="node"><title>Node4</title>
<polygon fill="white" stroke="#bfbfbf" points="129.5,-0.5 129.5,-21.5 176.5,-21.5 176.5,-0.5 129.5,-0.5"/>
<text text-anchor="middle" x="153" y="-8.5" font-family="Helvetica,sans-Serif" font-size="10.00">math.h</text>
</g>
<!-- Node1&#45;&gt;Node4 -->
<g id="edge6" class="edge"><title>Node1&#45;&gt;Node4</title>
<path fill="none" stroke="midnightblue" d="M105.815,-58.922C114.843,-49.7536 125.969,-38.4535 135.15,-29.1294"/>
<polygon fill="midnightblue" stroke="midnightblue" points="137.793,-31.4334 142.315,-21.8521 132.805,-26.5222 137.793,-31.4334"/>
</g>
</g>
</svg>
