<?xml version="1.0" encoding="UTF-8" standalone="no"?>
<!DOCTYPE svg PUBLIC "-//W3C//DTD SVG 1.1//EN"
 "http://www.w3.org/Graphics/SVG/1.1/DTD/svg11.dtd">
<!-- Generated by graphviz version 2.38.0 (20140413.2041)
 -->
<!-- Title: core/software/grlib_tests/hello.c Pages: 1 -->
<svg width="120pt" height="92pt"
 viewBox="0.00 0.00 119.57 92.00" xmlns="http://www.w3.org/2000/svg" xmlns:xlink="http://www.w3.org/1999/xlink">
<g id="graph0" class="graph" transform="scale(1 1) rotate(0) translate(4 88)">
<title>core/software/grlib_tests/hello.c</title>
<polygon fill="white" stroke="none" points="-4,4 -4,-88 115.574,-88 115.574,4 -4,4"/>
<!-- Node1 -->
<g id="node1" class="node"><title>Node1</title>
<polygon fill="#bfbfbf" stroke="black" points="6.99268,-55.5 6.99268,-83.5 104.692,-83.5 104.692,-55.5 6.99268,-55.5"/>
<text text-anchor="start" x="14.9927" y="-71.5" font-family="Helvetica,sans-Serif" font-size="10.00">core/software/grlib</text>
<text text-anchor="middle" x="55.8423" y="-61.5" font-family="Helvetica,sans-Serif" font-size="10.00">_tests/hello.c</text>
</g>
<!-- Node2 -->
<g id="node2" class="node"><title>Node2</title>
<polygon fill="white" stroke="#bfbfbf" points="0,-0.5 0,-18.5 47.6846,-18.5 47.6846,-0.5 0,-0.5"/>
<text text-anchor="middle" x="23.8423" y="-6.5" font-family="Helvetica,sans-Serif" font-size="10.00">stdlib.h</text>
</g>
<!-- Node1&#45;&gt;Node2 -->
<g id="edge1" class="edge"><title>Node1&#45;&gt;Node2</title>
<path fill="none" stroke="midnightblue" d="M48.581,-55.3389C44.0793,-47.1796 38.2463,-36.6072 33.3749,-27.7779"/>
<polygon fill="midnightblue" stroke="midnightblue" points="36.3012,-25.8365 28.4059,-18.7715 30.1722,-29.218 36.3012,-25.8365"/>
</g>
<!-- Node3 -->
<g id="node3" class="node"><title>Node3</title>
<polygon fill="white" stroke="#bfbfbf" points="66.1108,-0.5 66.1108,-18.5 111.574,-18.5 111.574,-0.5 66.1108,-0.5"/>
<text text-anchor="middle" x="88.8423" y="-6.5" font-family="Helvetica,sans-Serif" font-size="10.00">stdio.h</text>
</g>
<!-- Node1&#45;&gt;Node3 -->
<g id="edge2" class="edge"><title>Node1&#45;&gt;Node3</title>
<path fill="none" stroke="midnightblue" d="M63.3305,-55.3389C68.0228,-47.0918 74.1177,-36.3796 79.1735,-27.4937"/>
<polygon fill="midnightblue" stroke="midnightblue" points="82.2329,-29.194 84.1361,-18.7715 76.1487,-25.7323 82.2329,-29.194"/>
</g>
</g>
</svg>
