<?xml version="1.0" encoding="UTF-8" standalone="no"?>
<!DOCTYPE svg PUBLIC "-//W3C//DTD SVG 1.1//EN"
 "http://www.w3.org/Graphics/SVG/1.1/DTD/svg11.dtd">
<!-- Generated by graphviz version 2.38.0 (20140413.2041)
 -->
<!-- Title: main Pages: 1 -->
<svg width="276pt" height="101pt"
 viewBox="0.00 0.00 276.23 101.00" xmlns="http://www.w3.org/2000/svg" xmlns:xlink="http://www.w3.org/1999/xlink">
<g id="graph0" class="graph" transform="scale(1 1) rotate(0) translate(4 97)">
<title>main</title>
<polygon fill="white" stroke="none" points="-4,4 -4,-97 272.232,-97 272.232,4 -4,4"/>
<!-- Node1 -->
<g id="node1" class="node"><title>Node1</title>
<polygon fill="#bfbfbf" stroke="black" points="0,-37.5 0,-55.5 37.6748,-55.5 37.6748,-37.5 0,-37.5"/>
<text text-anchor="middle" x="18.8374" y="-43.5" font-family="Helvetica,sans-Serif" font-size="10.00">main</text>
</g>
<!-- Node2 -->
<g id="node2" class="node"><title>Node2</title>
<g id="a_node2"><a xlink:href="hpi__functions_8c.html#a97e683cb0a1bff1b3efc3e73a7c9271b" target="_top" xlink:title="lcd_hpi_read_word">
<polygon fill="white" stroke="black" points="74.2241,-74.5 74.2241,-92.5 174.726,-92.5 174.726,-74.5 74.2241,-74.5"/>
<text text-anchor="middle" x="124.475" y="-80.5" font-family="Helvetica,sans-Serif" font-size="10.00">lcd_hpi_read_word</text>
</a>
</g>
</g>
<!-- Node1&#45;&gt;Node2 -->
<g id="edge1" class="edge"><title>Node1&#45;&gt;Node2</title>
<path fill="none" stroke="midnightblue" d="M37.8897,-52.9449C51.8517,-57.9295 71.6066,-64.9823 88.6194,-71.0561"/>
<polygon fill="midnightblue" stroke="midnightblue" points="87.6604,-74.43 98.255,-74.4961 90.014,-67.8375 87.6604,-74.43"/>
</g>
<!-- Node5 -->
<g id="node5" class="node"><title>Node5</title>
<g id="a_node5"><a xlink:href="hpi__functions_8c.html#a3fff916dc334fc88ccde9ba4228bb146" target="_top" xlink:title="lcd_hpi_write_word">
<polygon fill="white" stroke="black" points="73.6748,-37.5 73.6748,-55.5 175.275,-55.5 175.275,-37.5 73.6748,-37.5"/>
<text text-anchor="middle" x="124.475" y="-43.5" font-family="Helvetica,sans-Serif" font-size="10.00">lcd_hpi_write_word</text>
</a>
</g>
</g>
<!-- Node1&#45;&gt;Node5 -->
<g id="edge4" class="edge"><title>Node1&#45;&gt;Node5</title>
<path fill="none" stroke="midnightblue" d="M37.8897,-46.5C45.2151,-46.5 54.135,-46.5 63.4169,-46.5"/>
<polygon fill="midnightblue" stroke="midnightblue" points="63.5725,-50.0001 73.5725,-46.5 63.5725,-43.0001 63.5725,-50.0001"/>
</g>
<!-- Node6 -->
<g id="node6" class="node"><title>Node6</title>
<g id="a_node6"><a xlink:href="radix4__nostdlib_8c.html#ac92d3b835636641550b12b0f93daf21d" target="_top" xlink:title="start">
<polygon fill="white" stroke="black" points="106.751,-0.5 106.751,-18.5 142.199,-18.5 142.199,-0.5 106.751,-0.5"/>
<text text-anchor="middle" x="124.475" y="-6.5" font-family="Helvetica,sans-Serif" font-size="10.00">start</text>
</a>
</g>
</g>
<!-- Node1&#45;&gt;Node6 -->
<g id="edge6" class="edge"><title>Node1&#45;&gt;Node6</title>
<path fill="none" stroke="midnightblue" d="M37.8897,-40.0551C54.2331,-34.2203 78.5139,-25.5517 97.043,-18.9366"/>
<polygon fill="midnightblue" stroke="midnightblue" points="98.4173,-22.1624 106.658,-15.5038 96.0636,-15.5699 98.4173,-22.1624"/>
</g>
<!-- Node3 -->
<g id="node3" class="node"><title>Node3</title>
<g id="a_node3"><a xlink:href="hpi__functions_8c.html#ad6a8869713ba7464a682a80cc29ab973" target="_top" xlink:title="inw">
<polygon fill="white" stroke="black" points="224.251,-74.5 224.251,-92.5 255.256,-92.5 255.256,-74.5 224.251,-74.5"/>
<text text-anchor="middle" x="239.754" y="-80.5" font-family="Helvetica,sans-Serif" font-size="10.00">inw</text>
</a>
</g>
</g>
<!-- Node2&#45;&gt;Node3 -->
<g id="edge2" class="edge"><title>Node2&#45;&gt;Node3</title>
<path fill="none" stroke="midnightblue" d="M174.831,-83.5C188.386,-83.5 202.506,-83.5 214.018,-83.5"/>
<polygon fill="midnightblue" stroke="midnightblue" points="214.151,-87.0001 224.151,-83.5 214.151,-80.0001 214.151,-87.0001"/>
</g>
<!-- Node4 -->
<g id="node4" class="node"><title>Node4</title>
<g id="a_node4"><a xlink:href="hpi__functions_8c.html#afffec2ee4bfb249f9cd3ec3a12685959" target="_top" xlink:title="outw">
<polygon fill="white" stroke="black" points="221.192,-37.5 221.192,-55.5 258.315,-55.5 258.315,-37.5 221.192,-37.5"/>
<text text-anchor="middle" x="239.754" y="-43.5" font-family="Helvetica,sans-Serif" font-size="10.00">outw</text>
</a>
</g>
</g>
<!-- Node2&#45;&gt;Node4 -->
<g id="edge3" class="edge"><title>Node2&#45;&gt;Node4</title>
<path fill="none" stroke="midnightblue" d="M153.186,-74.4488C170.817,-68.6901 193.56,-61.2617 211.167,-55.5108"/>
<polygon fill="midnightblue" stroke="midnightblue" points="212.443,-58.7759 220.862,-52.3439 210.27,-52.1218 212.443,-58.7759"/>
</g>
<!-- Node5&#45;&gt;Node4 -->
<g id="edge5" class="edge"><title>Node5&#45;&gt;Node4</title>
<path fill="none" stroke="midnightblue" d="M175.491,-46.5C187.67,-46.5 200.264,-46.5 210.978,-46.5"/>
<polygon fill="midnightblue" stroke="midnightblue" points="210.98,-50.0001 220.98,-46.5 210.98,-43.0001 210.98,-50.0001"/>
</g>
<!-- Node7 -->
<g id="node7" class="node"><title>Node7</title>
<g id="a_node7"><a xlink:href="radix4__nostdlib_8c.html#aaa5c3b1e8d12a898d655253a2bbb55fd" target="_top" xlink:title="fft_radix4">
<polygon fill="white" stroke="black" points="211.275,-0.5 211.275,-18.5 268.232,-18.5 268.232,-0.5 211.275,-0.5"/>
<text text-anchor="middle" x="239.754" y="-6.5" font-family="Helvetica,sans-Serif" font-size="10.00">fft_radix4</text>
</a>
</g>
</g>
<!-- Node6&#45;&gt;Node7 -->
<g id="edge7" class="edge"><title>Node6&#45;&gt;Node7</title>
<path fill="none" stroke="midnightblue" d="M142.68,-9.5C158.104,-9.5 181.275,-9.5 200.996,-9.5"/>
<polygon fill="midnightblue" stroke="midnightblue" points="201.231,-13.0001 211.231,-9.5 201.231,-6.0001 201.231,-13.0001"/>
</g>
</g>
</svg>
