<?xml version="1.0" encoding="UTF-8" standalone="no"?>
<!DOCTYPE svg PUBLIC "-//W3C//DTD SVG 1.1//EN"
 "http://www.w3.org/Graphics/SVG/1.1/DTD/svg11.dtd">
<!-- Generated by graphviz version 2.38.0 (20140413.2041)
 -->
<!-- Title: core/software/grlib_tests/hpi_functions.c Pages: 1 -->
<svg width="172pt" height="95pt"
 viewBox="0.00 0.00 171.50 95.00" xmlns="http://www.w3.org/2000/svg" xmlns:xlink="http://www.w3.org/1999/xlink">
<g id="graph0" class="graph" transform="scale(1 1) rotate(0) translate(4 91)">
<title>core/software/grlib_tests/hpi_functions.c</title>
<polygon fill="white" stroke="none" points="-4,4 -4,-91 167.5,-91 167.5,4 -4,4"/>
<!-- Node1 -->
<g id="node1" class="node"><title>Node1</title>
<polygon fill="#bfbfbf" stroke="black" points="19.5,-56.5 19.5,-86.5 132.5,-86.5 132.5,-56.5 19.5,-56.5"/>
<text text-anchor="start" x="27.5" y="-74.5" font-family="Helvetica,sans-Serif" font-size="10.00">core/software/grlib</text>
<text text-anchor="middle" x="76" y="-63.5" font-family="Helvetica,sans-Serif" font-size="10.00">_tests/hpi_functions.c</text>
</g>
<!-- Node2 -->
<g id="node2" class="node"><title>Node2</title>
<g id="a_node2"><a xlink:href="hpi__defs_8h.html" target="_top" xlink:title="hpi_defs.h">
<polygon fill="white" stroke="black" points="0,-0.5 0,-19.5 62,-19.5 62,-0.5 0,-0.5"/>
<text text-anchor="middle" x="31" y="-7.5" font-family="Helvetica,sans-Serif" font-size="10.00">hpi_defs.h</text>
</a>
</g>
</g>
<!-- Node1&#45;&gt;Node2 -->
<g id="edge1" class="edge"><title>Node1&#45;&gt;Node2</title>
<path fill="none" stroke="midnightblue" d="M65.3356,-56.3993C58.864,-47.8424 50.5662,-36.8708 43.749,-27.857"/>
<polygon fill="midnightblue" stroke="midnightblue" points="46.3716,-25.5223 37.5479,-19.6578 40.7885,-29.7449 46.3716,-25.5223"/>
</g>
<!-- Node3 -->
<g id="node3" class="node"><title>Node3</title>
<g id="a_node3"><a xlink:href="hpi__functions_8h.html" target="_top" xlink:title="hpi_functions.h">
<polygon fill="white" stroke="black" points="80.5,-0.5 80.5,-19.5 163.5,-19.5 163.5,-0.5 80.5,-0.5"/>
<text text-anchor="middle" x="122" y="-7.5" font-family="Helvetica,sans-Serif" font-size="10.00">hpi_functions.h</text>
</a>
</g>
</g>
<!-- Node1&#45;&gt;Node3 -->
<g id="edge2" class="edge"><title>Node1&#45;&gt;Node3</title>
<path fill="none" stroke="midnightblue" d="M86.9014,-56.3993C93.5857,-47.7533 102.176,-36.642 109.185,-27.576"/>
<polygon fill="midnightblue" stroke="midnightblue" points="111.959,-29.7099 115.307,-19.6578 106.421,-25.4284 111.959,-29.7099"/>
</g>
</g>
</svg>
