<?xml version="1.0" encoding="UTF-8" standalone="no"?>
<!DOCTYPE svg PUBLIC "-//W3C//DTD SVG 1.1//EN"
 "http://www.w3.org/Graphics/SVG/1.1/DTD/svg11.dtd">
<!-- Generated by graphviz version 2.38.0 (20140413.2041)
 -->
<!-- Title: lcd_hpi_read_words Pages: 1 -->
<svg width="185pt" height="66pt"
 viewBox="0.00 0.00 185.00 66.00" xmlns="http://www.w3.org/2000/svg" xmlns:xlink="http://www.w3.org/1999/xlink">
<g id="graph0" class="graph" transform="scale(1 1) rotate(0) translate(4 62)">
<title>lcd_hpi_read_words</title>
<polygon fill="white" stroke="none" points="-4,4 -4,-62 181,-62 181,4 -4,4"/>
<!-- Node1 -->
<g id="node1" class="node"><title>Node1</title>
<polygon fill="#bfbfbf" stroke="black" points="0,-19.5 0,-38.5 103,-38.5 103,-19.5 0,-19.5"/>
<text text-anchor="middle" x="51.5" y="-26.5" font-family="Helvetica,sans-Serif" font-size="10.00">lcd_hpi_read_words</text>
</g>
<!-- Node2 -->
<g id="node2" class="node"><title>Node2</title>
<g id="a_node2"><a xlink:href="hpi__functions_8c.html#ad6a8869713ba7464a682a80cc29ab973" target="_top" xlink:title="inw">
<polygon fill="white" stroke="black" points="142,-38.5 142,-57.5 174,-57.5 174,-38.5 142,-38.5"/>
<text text-anchor="middle" x="158" y="-45.5" font-family="Helvetica,sans-Serif" font-size="10.00">inw</text>
</a>
</g>
</g>
<!-- Node1&#45;&gt;Node2 -->
<g id="edge1" class="edge"><title>Node1&#45;&gt;Node2</title>
<path fill="none" stroke="midnightblue" d="M103.219,-38.2217C113.165,-40.03 123.184,-41.8517 131.835,-43.4245"/>
<polygon fill="midnightblue" stroke="midnightblue" points="131.486,-46.9185 141.951,-45.2639 132.739,-40.0314 131.486,-46.9185"/>
</g>
<!-- Node3 -->
<g id="node3" class="node"><title>Node3</title>
<g id="a_node3"><a xlink:href="hpi__functions_8c.html#afffec2ee4bfb249f9cd3ec3a12685959" target="_top" xlink:title="outw">
<polygon fill="white" stroke="black" points="139,-0.5 139,-19.5 177,-19.5 177,-0.5 139,-0.5"/>
<text text-anchor="middle" x="158" y="-7.5" font-family="Helvetica,sans-Serif" font-size="10.00">outw</text>
</a>
</g>
</g>
<!-- Node1&#45;&gt;Node3 -->
<g id="edge2" class="edge"><title>Node1&#45;&gt;Node3</title>
<path fill="none" stroke="midnightblue" d="M103.219,-19.7783C111.943,-18.1922 120.723,-16.5958 128.587,-15.1661"/>
<polygon fill="midnightblue" stroke="midnightblue" points="129.437,-18.5689 138.65,-13.3364 128.185,-11.6818 129.437,-18.5689"/>
</g>
</g>
</svg>
