<?xml version="1.0" encoding="UTF-8" standalone="no"?>
<!DOCTYPE svg PUBLIC "-//W3C//DTD SVG 1.1//EN"
 "http://www.w3.org/Graphics/SVG/1.1/DTD/svg11.dtd">
<!-- Generated by graphviz version 2.38.0 (20140413.2041)
 -->
<!-- Title: main Pages: 1 -->
<svg width="275pt" height="104pt"
 viewBox="0.00 0.00 275.00 104.00" xmlns="http://www.w3.org/2000/svg" xmlns:xlink="http://www.w3.org/1999/xlink">
<g id="graph0" class="graph" transform="scale(1 1) rotate(0) translate(4 100)">
<title>main</title>
<polygon fill="white" stroke="none" points="-4,4 -4,-100 271,-100 271,4 -4,4"/>
<!-- Node1 -->
<g id="node1" class="node"><title>Node1</title>
<polygon fill="#bfbfbf" stroke="black" points="0,-38.5 0,-57.5 38,-57.5 38,-38.5 0,-38.5"/>
<text text-anchor="middle" x="19" y="-45.5" font-family="Helvetica,sans-Serif" font-size="10.00">main</text>
</g>
<!-- Node2 -->
<g id="node2" class="node"><title>Node2</title>
<g id="a_node2"><a xlink:href="hpi__functions_8c.html#a97e683cb0a1bff1b3efc3e73a7c9271b" target="_top" xlink:title="lcd_hpi_read_word">
<polygon fill="white" stroke="black" points="75,-76.5 75,-95.5 173,-95.5 173,-76.5 75,-76.5"/>
<text text-anchor="middle" x="124" y="-83.5" font-family="Helvetica,sans-Serif" font-size="10.00">lcd_hpi_read_word</text>
</a>
</g>
</g>
<!-- Node1&#45;&gt;Node2 -->
<g id="edge1" class="edge"><title>Node1&#45;&gt;Node2</title>
<path fill="none" stroke="midnightblue" d="M38.4143,-54.7936C52.0549,-59.8261 71.0657,-66.8398 87.6099,-72.9435"/>
<polygon fill="midnightblue" stroke="midnightblue" points="86.4133,-76.2325 97.0067,-76.4102 88.8363,-69.6652 86.4133,-76.2325"/>
</g>
<!-- Node5 -->
<g id="node5" class="node"><title>Node5</title>
<g id="a_node5"><a xlink:href="hpi__functions_8c.html#a3fff916dc334fc88ccde9ba4228bb146" target="_top" xlink:title="lcd_hpi_write_word">
<polygon fill="white" stroke="black" points="74,-38.5 74,-57.5 174,-57.5 174,-38.5 74,-38.5"/>
<text text-anchor="middle" x="124" y="-45.5" font-family="Helvetica,sans-Serif" font-size="10.00">lcd_hpi_write_word</text>
</a>
</g>
</g>
<!-- Node1&#45;&gt;Node5 -->
<g id="edge4" class="edge"><title>Node1&#45;&gt;Node5</title>
<path fill="none" stroke="midnightblue" d="M38.4143,-48C45.7233,-48 54.5741,-48 63.7611,-48"/>
<polygon fill="midnightblue" stroke="midnightblue" points="63.805,-51.5001 73.8049,-48 63.8049,-44.5001 63.805,-51.5001"/>
</g>
<!-- Node6 -->
<g id="node6" class="node"><title>Node6</title>
<g id="a_node6"><a xlink:href="radix4__nostdlib_8c.html#ac92d3b835636641550b12b0f93daf21d" target="_top" xlink:title="start">
<polygon fill="white" stroke="black" points="106,-0.5 106,-19.5 142,-19.5 142,-0.5 106,-0.5"/>
<text text-anchor="middle" x="124" y="-7.5" font-family="Helvetica,sans-Serif" font-size="10.00">start</text>
</a>
</g>
</g>
<!-- Node1&#45;&gt;Node6 -->
<g id="edge6" class="edge"><title>Node1&#45;&gt;Node6</title>
<path fill="none" stroke="midnightblue" d="M38.4143,-41.2064C54.5259,-35.2623 78.1294,-26.5542 96.3115,-19.8463"/>
<polygon fill="midnightblue" stroke="midnightblue" points="97.6024,-23.1007 105.773,-16.3557 95.1795,-16.5333 97.6024,-23.1007"/>
</g>
<!-- Node3 -->
<g id="node3" class="node"><title>Node3</title>
<g id="a_node3"><a xlink:href="hpi__functions_8c.html#ad6a8869713ba7464a682a80cc29ab973" target="_top" xlink:title="inw">
<polygon fill="white" stroke="black" points="222.5,-76.5 222.5,-95.5 254.5,-95.5 254.5,-76.5 222.5,-76.5"/>
<text text-anchor="middle" x="238.5" y="-83.5" font-family="Helvetica,sans-Serif" font-size="10.00">inw</text>
</a>
</g>
</g>
<!-- Node2&#45;&gt;Node3 -->
<g id="edge2" class="edge"><title>Node2&#45;&gt;Node3</title>
<path fill="none" stroke="midnightblue" d="M173.036,-86C186.523,-86 200.654,-86 212.236,-86"/>
<polygon fill="midnightblue" stroke="midnightblue" points="212.456,-89.5001 222.456,-86 212.456,-82.5001 212.456,-89.5001"/>
</g>
<!-- Node4 -->
<g id="node4" class="node"><title>Node4</title>
<g id="a_node4"><a xlink:href="hpi__functions_8c.html#afffec2ee4bfb249f9cd3ec3a12685959" target="_top" xlink:title="outw">
<polygon fill="white" stroke="black" points="219.5,-38.5 219.5,-57.5 257.5,-57.5 257.5,-38.5 219.5,-38.5"/>
<text text-anchor="middle" x="238.5" y="-45.5" font-family="Helvetica,sans-Serif" font-size="10.00">outw</text>
</a>
</g>
</g>
<!-- Node2&#45;&gt;Node4 -->
<g id="edge3" class="edge"><title>Node2&#45;&gt;Node4</title>
<path fill="none" stroke="midnightblue" d="M153.389,-76.411C170.53,-70.6209 192.29,-63.2709 209.383,-57.4974"/>
<polygon fill="midnightblue" stroke="midnightblue" points="210.985,-60.6505 219.339,-54.1344 208.745,-54.0186 210.985,-60.6505"/>
</g>
<!-- Node5&#45;&gt;Node4 -->
<g id="edge5" class="edge"><title>Node5&#45;&gt;Node4</title>
<path fill="none" stroke="midnightblue" d="M174.017,-48C186.096,-48 198.628,-48 209.334,-48"/>
<polygon fill="midnightblue" stroke="midnightblue" points="209.347,-51.5001 219.347,-48 209.347,-44.5001 209.347,-51.5001"/>
</g>
<!-- Node7 -->
<g id="node7" class="node"><title>Node7</title>
<g id="a_node7"><a xlink:href="radix4__nostdlib_8c.html#aaa5c3b1e8d12a898d655253a2bbb55fd" target="_top" xlink:title="fft_radix4">
<polygon fill="white" stroke="black" points="210,-0.5 210,-19.5 267,-19.5 267,-0.5 210,-0.5"/>
<text text-anchor="middle" x="238.5" y="-7.5" font-family="Helvetica,sans-Serif" font-size="10.00">fft_radix4</text>
</a>
</g>
</g>
<!-- Node6&#45;&gt;Node7 -->
<g id="edge7" class="edge"><title>Node6&#45;&gt;Node7</title>
<path fill="none" stroke="midnightblue" d="M142.086,-10C157.301,-10 180.103,-10 199.602,-10"/>
<polygon fill="midnightblue" stroke="midnightblue" points="199.732,-13.5001 209.732,-10 199.732,-6.5001 199.732,-13.5001"/>
</g>
</g>
</svg>
