<?xml version="1.0" encoding="UTF-8" standalone="no"?>
<!DOCTYPE svg PUBLIC "-//W3C//DTD SVG 1.1//EN"
 "http://www.w3.org/Graphics/SVG/1.1/DTD/svg11.dtd">
<!-- Generated by graphviz version 2.26.0 (20091210.2329)
 -->
<!-- Title: core/common/signalkit_h/in.h Pages: 1 -->
<svg width="267pt" height="174pt"
 viewBox="0.00 0.00 267.20 174.00" xmlns="http://www.w3.org/2000/svg" xmlns:xlink="http://www.w3.org/1999/xlink">
<g id="graph1" class="graph" transform="scale(1 1) rotate(0) translate(4 170)">
<title>core/common/signalkit_h/in.h</title>
<polygon fill="white" stroke="white" points="-4,5 -4,-170 264.202,-170 264.202,5 -4,5"/>
<!-- Node1 -->
<g id="node1" class="node"><title>Node1</title>
<polygon fill="#bfbfbf" stroke="black" points="12.7022,-131 12.7022,-165 127.702,-165 127.702,-131 12.7022,-131"/>
<text text-anchor="start" x="20.7022" y="-152" font-family="Helvetica,sans-Serif" font-size="10.00">core/common/signalkit</text>
<text text-anchor="middle" x="70.2022" y="-139" font-family="Helvetica,sans-Serif" font-size="10.00">_h/in.h</text>
</g>
<!-- Node2 -->
<g id="node3" class="node"><title>Node2</title>
<polygon fill="white" stroke="#bfbfbf" points="2.70222,-0.5 2.70222,-21.5 51.7022,-21.5 51.7022,-0.5 2.70222,-0.5"/>
<text text-anchor="middle" x="27.2022" y="-8.5" font-family="Helvetica,sans-Serif" font-size="10.00">stdint.h</text>
</g>
<!-- Node1&#45;&gt;Node2 -->
<g id="edge2" class="edge"><title>Node1&#45;&gt;Node2</title>
<path fill="none" stroke="midnightblue" d="M38.8274,-130.903C25.5522,-121.845 11.4931,-109.386 4.20222,-94 -5.63072,-73.2501 4.60895,-47.5286 14.3781,-30.2663"/>
<polygon fill="midnightblue" stroke="midnightblue" points="17.4232,-31.9949 19.6265,-21.6317 11.4415,-28.359 17.4232,-31.9949"/>
</g>
<!-- Node3 -->
<g id="node5" class="node"><title>Node3</title>
<a xlink:href="signalkit__h_2base_8h.html" target="_top" xlink:title="core/common/signalkit\l_h/base.h">
<polygon fill="white" stroke="black" points="144.702,-59 144.702,-93 259.702,-93 259.702,-59 144.702,-59"/>
<text text-anchor="start" x="152.702" y="-80" font-family="Helvetica,sans-Serif" font-size="10.00">core/common/signalkit</text>
<text text-anchor="middle" x="202.202" y="-67" font-family="Helvetica,sans-Serif" font-size="10.00">_h/base.h</text>
</a>
</g>
<!-- Node1&#45;&gt;Node3 -->
<g id="edge4" class="edge"><title>Node1&#45;&gt;Node3</title>
<path fill="none" stroke="midnightblue" d="M101.484,-130.937C119.518,-121.101 142.385,-108.627 161.772,-98.0531"/>
<polygon fill="midnightblue" stroke="midnightblue" points="163.584,-101.051 170.687,-93.19 160.232,-94.906 163.584,-101.051"/>
</g>
<!-- Node5 -->
<g id="node9" class="node"><title>Node5</title>
<a xlink:href="ifs_8h.html" target="_top" xlink:title="core/common/signalkit\l_h/ifs.h">
<polygon fill="white" stroke="black" points="12.7022,-59 12.7022,-93 127.702,-93 127.702,-59 12.7022,-59"/>
<text text-anchor="start" x="20.7022" y="-80" font-family="Helvetica,sans-Serif" font-size="10.00">core/common/signalkit</text>
<text text-anchor="middle" x="70.2022" y="-67" font-family="Helvetica,sans-Serif" font-size="10.00">_h/ifs.h</text>
</a>
</g>
<!-- Node1&#45;&gt;Node5 -->
<g id="edge8" class="edge"><title>Node1&#45;&gt;Node5</title>
<path fill="none" stroke="midnightblue" d="M70.2022,-130.937C70.2022,-122.807 70.2022,-112.876 70.2022,-103.705"/>
<polygon fill="midnightblue" stroke="midnightblue" points="73.7023,-103.441 70.2022,-93.4407 66.7023,-103.441 73.7023,-103.441"/>
</g>
<!-- Node4 -->
<g id="node7" class="node"><title>Node4</title>
<polygon fill="white" stroke="#bfbfbf" points="175.202,-0.5 175.202,-21.5 229.202,-21.5 229.202,-0.5 175.202,-0.5"/>
<text text-anchor="middle" x="202.202" y="-8.5" font-family="Helvetica,sans-Serif" font-size="10.00">systemc</text>
</g>
<!-- Node3&#45;&gt;Node4 -->
<g id="edge6" class="edge"><title>Node3&#45;&gt;Node4</title>
<path fill="none" stroke="midnightblue" d="M202.202,-58.922C202.202,-50.6704 202.202,-40.6922 202.202,-31.9818"/>
<polygon fill="midnightblue" stroke="midnightblue" points="205.702,-31.8521 202.202,-21.8521 198.702,-31.8521 205.702,-31.8521"/>
</g>
<!-- Node5&#45;&gt;Node2 -->
<g id="edge10" class="edge"><title>Node5&#45;&gt;Node2</title>
<path fill="none" stroke="midnightblue" d="M58.9045,-58.922C53.0818,-50.1203 45.9596,-39.3541 39.9418,-30.2575"/>
<polygon fill="midnightblue" stroke="midnightblue" points="42.8178,-28.2612 34.3813,-21.8521 36.9796,-32.1234 42.8178,-28.2612"/>
</g>
</g>
</svg>
