<?xml version="1.0" encoding="UTF-8" standalone="no"?>
<!DOCTYPE svg PUBLIC "-//W3C//DTD SVG 1.1//EN"
 "http://www.w3.org/Graphics/SVG/1.1/DTD/svg11.dtd">
<!-- Generated by graphviz version 2.36.0 (20140111.2315)
 -->
<!-- Title: Graphical Class Hierarchy Pages: 1 -->
<svg width="622pt" height="670pt"
 viewBox="0.00 0.00 622.00 670.00" xmlns="http://www.w3.org/2000/svg" xmlns:xlink="http://www.w3.org/1999/xlink">
<g id="graph0" class="graph" transform="scale(1 1) rotate(0) translate(4 666)">
<title>Graphical Class Hierarchy</title>
<polygon fill="white" stroke="none" points="-4,4 -4,-666 618,-666 618,4 -4,4"/>
<!-- Node1 -->
<g id="node1" class="node"><title>Node1</title>
<polygon fill="white" stroke="#bfbfbf" points="0.5,-304.5 0.5,-323.5 43.5,-323.5 43.5,-304.5 0.5,-304.5"/>
<text text-anchor="middle" x="22" y="-311.5" font-family="Helvetica,sans-Serif" font-size="10.00">object</text>
</g>
<!-- Node2 -->
<g id="node2" class="node"><title>Node2</title>
<g id="a_node2"><a xlink:href="classcore_1_1tools_1_1cpplint_1_1CleansedLines.html" target="_top" xlink:title="core.tools.cpplint.Cleansed\lLines">
<polygon fill="white" stroke="black" points="97.5,-632 97.5,-662 232.5,-662 232.5,-632 97.5,-632"/>
<text text-anchor="start" x="105.5" y="-650" font-family="Helvetica,sans-Serif" font-size="10.00">core.tools.cpplint.Cleansed</text>
<text text-anchor="middle" x="165" y="-639" font-family="Helvetica,sans-Serif" font-size="10.00">Lines</text>
</a>
</g>
</g>
<!-- Node1&#45;&gt;Node2 -->
<g id="edge1" class="edge"><title>Node1&#45;&gt;Node2</title>
<path fill="none" stroke="midnightblue" d="M24.0177,-333.688C27.5607,-394.681 41.3197,-578.974 80,-622 84.8827,-627.431 90.8876,-631.705 97.422,-635.064"/>
<polygon fill="midnightblue" stroke="midnightblue" points="27.5014,-333.295 23.4561,-323.503 20.512,-333.68 27.5014,-333.295"/>
</g>
<!-- Node3 -->
<g id="node3" class="node"><title>Node3</title>
<g id="a_node3"><a xlink:href="classcore_1_1tools_1_1generator_1_1item_1_1item_1_1Item.html" target="_top" xlink:title="core.tools.generator.item.item.Item">
<polygon fill="white" stroke="black" points="80.5,-593.5 80.5,-612.5 249.5,-612.5 249.5,-593.5 80.5,-593.5"/>
<text text-anchor="middle" x="165" y="-600.5" font-family="Helvetica,sans-Serif" font-size="10.00">core.tools.generator.item.item.Item</text>
</a>
</g>
</g>
<!-- Node1&#45;&gt;Node3 -->
<g id="edge2" class="edge"><title>Node1&#45;&gt;Node3</title>
<path fill="none" stroke="midnightblue" d="M24.4373,-333.526C28.9488,-389.393 44.6818,-548.17 80,-584 83.6736,-587.727 87.9129,-590.79 92.4945,-593.301"/>
<polygon fill="midnightblue" stroke="midnightblue" points="27.924,-333.218 23.6619,-323.518 20.945,-333.759 27.924,-333.218"/>
</g>
<!-- Node4 -->
<g id="node4" class="node"><title>Node4</title>
<g id="a_node4"><a xlink:href="classcore_1_1tools_1_1generator_1_1template_1_1File.html" target="_top" xlink:title="core.tools.generator.template.File">
<polygon fill="white" stroke="black" points="84,-555.5 84,-574.5 246,-574.5 246,-555.5 84,-555.5"/>
<text text-anchor="middle" x="165" y="-562.5" font-family="Helvetica,sans-Serif" font-size="10.00">core.tools.generator.template.File</text>
</a>
</g>
</g>
<!-- Node1&#45;&gt;Node4 -->
<g id="edge3" class="edge"><title>Node1&#45;&gt;Node4</title>
<path fill="none" stroke="midnightblue" d="M25.2619,-333.937C31.3826,-384.364 49.8668,-515.112 80,-545 84.2574,-549.223 89.2351,-552.614 94.6042,-555.331"/>
<polygon fill="midnightblue" stroke="midnightblue" points="28.702,-333.222 24.0569,-323.7 21.75,-334.041 28.702,-333.222"/>
</g>
<!-- Node8 -->
<g id="node8" class="node"><title>Node8</title>
<g id="a_node8"><a xlink:href="classcore_1_1tools_1_1generator_1_1template_1_1Template.html" target="_top" xlink:title="core.tools.generator.template.\lTemplate">
<polygon fill="white" stroke="black" points="92,-506 92,-536 238,-536 238,-506 92,-506"/>
<text text-anchor="start" x="100" y="-524" font-family="Helvetica,sans-Serif" font-size="10.00">core.tools.generator.template.</text>
<text text-anchor="middle" x="165" y="-513" font-family="Helvetica,sans-Serif" font-size="10.00">Template</text>
</a>
</g>
</g>
<!-- Node1&#45;&gt;Node8 -->
<g id="edge7" class="edge"><title>Node1&#45;&gt;Node8</title>
<path fill="none" stroke="midnightblue" d="M23.4142,-333.996C25.2896,-371.205 34.6992,-451.34 80,-496 83.9007,-499.846 88.3655,-503.104 93.1585,-505.864"/>
<polygon fill="midnightblue" stroke="midnightblue" points="26.9086,-333.778 23.0427,-323.914 19.9134,-334.036 26.9086,-333.778"/>
</g>
<!-- Node9 -->
<g id="node9" class="node"><title>Node9</title>
<g id="a_node9"><a xlink:href="classcore_1_1waf_1_1cpplint_1_1cpplint__wrapper.html" target="_top" xlink:title="core.waf.cpplint.cpplint\l_wrapper">
<polygon fill="white" stroke="black" points="106.5,-457 106.5,-487 223.5,-487 223.5,-457 106.5,-457"/>
<text text-anchor="start" x="114.5" y="-475" font-family="Helvetica,sans-Serif" font-size="10.00">core.waf.cpplint.cpplint</text>
<text text-anchor="middle" x="165" y="-464" font-family="Helvetica,sans-Serif" font-size="10.00">_wrapper</text>
</a>
</g>
</g>
<!-- Node1&#45;&gt;Node9 -->
<g id="edge8" class="edge"><title>Node1&#45;&gt;Node9</title>
<path fill="none" stroke="midnightblue" d="M26.0692,-333.782C31.6137,-362.809 46.0484,-416.763 80,-447 87.4993,-453.679 96.7151,-458.576 106.264,-462.165"/>
<polygon fill="midnightblue" stroke="midnightblue" points="29.4694,-332.906 24.3063,-323.654 22.5731,-334.106 29.4694,-332.906"/>
</g>
<!-- Node10 -->
<g id="node10" class="node"><title>Node10</title>
<g id="a_node10"><a xlink:href="classcore_1_1waf_1_1logger_1_1Logger.html" target="_top" xlink:title="core.waf.logger.Logger">
<polygon fill="white" stroke="black" points="107,-418.5 107,-437.5 223,-437.5 223,-418.5 107,-418.5"/>
<text text-anchor="middle" x="165" y="-425.5" font-family="Helvetica,sans-Serif" font-size="10.00">core.waf.logger.Logger</text>
</a>
</g>
</g>
<!-- Node1&#45;&gt;Node10 -->
<g id="edge9" class="edge"><title>Node1&#45;&gt;Node10</title>
<path fill="none" stroke="midnightblue" d="M29.232,-333.074C37.3695,-354.881 53.7537,-390.007 80,-409 87.8734,-414.697 97.164,-418.727 106.644,-421.567"/>
<polygon fill="midnightblue" stroke="midnightblue" points="32.5091,-331.842 25.8926,-323.567 25.9047,-334.162 32.5091,-331.842"/>
</g>
<!-- Node11 -->
<g id="node11" class="node"><title>Node11</title>
<g id="a_node11"><a xlink:href="classklasses_1_1Module.html" target="_top" xlink:title="klasses.Module">
<polygon fill="white" stroke="black" points="122.5,-380.5 122.5,-399.5 207.5,-399.5 207.5,-380.5 122.5,-380.5"/>
<text text-anchor="middle" x="165" y="-387.5" font-family="Helvetica,sans-Serif" font-size="10.00">klasses.Module</text>
</a>
</g>
</g>
<!-- Node1&#45;&gt;Node11 -->
<g id="edge10" class="edge"><title>Node1&#45;&gt;Node11</title>
<path fill="none" stroke="midnightblue" d="M36.2695,-331.865C46.7432,-344.684 62.4751,-361.337 80,-371 92.8313,-378.075 108.148,-382.518 122.168,-385.307"/>
<polygon fill="midnightblue" stroke="midnightblue" points="38.8234,-329.449 29.9011,-323.736 33.313,-333.766 38.8234,-329.449"/>
</g>
<!-- Node12 -->
<g id="node12" class="node"><title>Node12</title>
<g id="a_node12"><a xlink:href="classklasses_1_1SubModule.html" target="_top" xlink:title="klasses.SubModule">
<polygon fill="white" stroke="black" points="114,-342.5 114,-361.5 216,-361.5 216,-342.5 114,-342.5"/>
<text text-anchor="middle" x="165" y="-349.5" font-family="Helvetica,sans-Serif" font-size="10.00">klasses.SubModule</text>
</a>
</g>
</g>
<!-- Node1&#45;&gt;Node12 -->
<g id="edge11" class="edge"><title>Node1&#45;&gt;Node12</title>
<path fill="none" stroke="midnightblue" d="M53.3059,-324.723C61.8825,-327.588 71.2619,-330.562 80,-333 92.2414,-336.416 105.614,-339.658 118.018,-342.465"/>
<polygon fill="midnightblue" stroke="midnightblue" points="54.2875,-321.36 43.693,-321.449 52.0306,-327.986 54.2875,-321.36"/>
</g>
<!-- Node13 -->
<g id="node13" class="node"><title>Node13</title>
<g id="a_node13"><a xlink:href="classstatemachine_1_1Enumerate.html" target="_top" xlink:title="statemachine.Enumerate">
<polygon fill="white" stroke="black" points="102.5,-304.5 102.5,-323.5 227.5,-323.5 227.5,-304.5 102.5,-304.5"/>
<text text-anchor="middle" x="165" y="-311.5" font-family="Helvetica,sans-Serif" font-size="10.00">statemachine.Enumerate</text>
</a>
</g>
</g>
<!-- Node1&#45;&gt;Node13 -->
<g id="edge12" class="edge"><title>Node1&#45;&gt;Node13</title>
<path fill="none" stroke="midnightblue" d="M53.7091,-314C67.9631,-314 85.4438,-314 102.251,-314"/>
<polygon fill="midnightblue" stroke="midnightblue" points="53.5026,-310.5 43.5026,-314 53.5026,-317.5 53.5026,-310.5"/>
</g>
<!-- Node14 -->
<g id="node14" class="node"><title>Node14</title>
<g id="a_node14"><a xlink:href="classusi_1_1DebugWrapper.html" target="_top" xlink:title="usi.DebugWrapper">
<polygon fill="white" stroke="black" points="116,-266.5 116,-285.5 214,-285.5 214,-266.5 116,-266.5"/>
<text text-anchor="middle" x="165" y="-273.5" font-family="Helvetica,sans-Serif" font-size="10.00">usi.DebugWrapper</text>
</a>
</g>
</g>
<!-- Node1&#45;&gt;Node14 -->
<g id="edge13" class="edge"><title>Node1&#45;&gt;Node14</title>
<path fill="none" stroke="midnightblue" d="M53.3059,-303.277C61.8825,-300.412 71.2619,-297.438 80,-295 92.2414,-291.584 105.614,-288.342 118.018,-285.535"/>
<polygon fill="midnightblue" stroke="midnightblue" points="52.0306,-300.014 43.693,-306.551 54.2875,-306.64 52.0306,-300.014"/>
</g>
<!-- Node15 -->
<g id="node15" class="node"><title>Node15</title>
<g id="a_node15"><a xlink:href="classusi_1_1log_1_1db__reporter_1_1Logger.html" target="_top" xlink:title="usi.log.db_reporter.Logger">
<polygon fill="white" stroke="black" points="100.5,-228.5 100.5,-247.5 229.5,-247.5 229.5,-228.5 100.5,-228.5"/>
<text text-anchor="middle" x="165" y="-235.5" font-family="Helvetica,sans-Serif" font-size="10.00">usi.log.db_reporter.Logger</text>
</a>
</g>
</g>
<!-- Node1&#45;&gt;Node15 -->
<g id="edge14" class="edge"><title>Node1&#45;&gt;Node15</title>
<path fill="none" stroke="midnightblue" d="M36.2695,-296.135C46.7432,-283.316 62.4751,-266.663 80,-257 87.0703,-253.101 94.8954,-250.002 102.842,-247.538"/>
<polygon fill="midnightblue" stroke="midnightblue" points="33.313,-294.234 29.9011,-304.264 38.8234,-298.551 33.313,-294.234"/>
</g>
<!-- Node16 -->
<g id="node16" class="node"><title>Node16</title>
<g id="a_node16"><a xlink:href="classusi_1_1log_1_1log__query_1_1LogQuery.html" target="_top" xlink:title="usi.log.log_query.LogQuery">
<polygon fill="white" stroke="black" points="97.5,-190.5 97.5,-209.5 232.5,-209.5 232.5,-190.5 97.5,-190.5"/>
<text text-anchor="middle" x="165" y="-197.5" font-family="Helvetica,sans-Serif" font-size="10.00">usi.log.log_query.LogQuery</text>
</a>
</g>
</g>
<!-- Node1&#45;&gt;Node16 -->
<g id="edge15" class="edge"><title>Node1&#45;&gt;Node16</title>
<path fill="none" stroke="midnightblue" d="M29.232,-294.926C37.3695,-273.119 53.7537,-237.993 80,-219 85.3297,-215.143 91.3088,-212.051 97.5565,-209.574"/>
<polygon fill="midnightblue" stroke="midnightblue" points="25.9047,-293.838 25.8926,-304.433 32.5091,-296.158 25.9047,-293.838"/>
</g>
<!-- Node17 -->
<g id="node17" class="node"><title>Node17</title>
<g id="a_node17"><a xlink:href="classusi_1_1PromptStr.html" target="_top" xlink:title="usi.PromptStr">
<polygon fill="white" stroke="black" points="126.5,-152.5 126.5,-171.5 203.5,-171.5 203.5,-152.5 126.5,-152.5"/>
<text text-anchor="middle" x="165" y="-159.5" font-family="Helvetica,sans-Serif" font-size="10.00">usi.PromptStr</text>
</a>
</g>
</g>
<!-- Node1&#45;&gt;Node17 -->
<g id="edge16" class="edge"><title>Node1&#45;&gt;Node17</title>
<path fill="none" stroke="midnightblue" d="M25.7451,-294.31C30.9091,-264.998 44.9026,-210.214 80,-181 92.8706,-170.287 110.558,-165.311 126.383,-163.103"/>
<polygon fill="midnightblue" stroke="midnightblue" points="22.2879,-293.765 24.1726,-304.19 29.2009,-294.865 22.2879,-293.765"/>
</g>
<!-- Node18 -->
<g id="node18" class="node"><title>Node18</title>
<g id="a_node18"><a xlink:href="classusi_1_1REPEAT__SPAWN.html" target="_top" xlink:title="usi.REPEAT_SPAWN">
<polygon fill="white" stroke="black" points="107,-114.5 107,-133.5 223,-133.5 223,-114.5 107,-114.5"/>
<text text-anchor="middle" x="165" y="-121.5" font-family="Helvetica,sans-Serif" font-size="10.00">usi.REPEAT_SPAWN</text>
</a>
</g>
</g>
<!-- Node1&#45;&gt;Node18 -->
<g id="edge17" class="edge"><title>Node1&#45;&gt;Node18</title>
<path fill="none" stroke="midnightblue" d="M23.6093,-293.943C25.8329,-258.081 35.8309,-182.987 80,-143 87.5372,-136.176 96.9971,-131.637 106.826,-128.65"/>
<polygon fill="midnightblue" stroke="midnightblue" points="20.1047,-293.96 23.1271,-304.114 27.0969,-294.291 20.1047,-293.96"/>
</g>
<!-- Node19 -->
<g id="node19" class="node"><title>Node19</title>
<g id="a_node19"><a xlink:href="classusi_1_1SCCallback.html" target="_top" xlink:title="usi.SCCallback">
<polygon fill="white" stroke="black" points="122.5,-76.5 122.5,-95.5 207.5,-95.5 207.5,-76.5 122.5,-76.5"/>
<text text-anchor="middle" x="165" y="-83.5" font-family="Helvetica,sans-Serif" font-size="10.00">usi.SCCallback</text>
</a>
</g>
</g>
<!-- Node1&#45;&gt;Node19 -->
<g id="edge18" class="edge"><title>Node1&#45;&gt;Node19</title>
<path fill="none" stroke="midnightblue" d="M22.1621,-294.253C21.5524,-252.807 26.3556,-156.344 80,-105 91.2335,-94.2481 107.203,-89.0963 122.207,-86.7691"/>
<polygon fill="midnightblue" stroke="midnightblue" points="18.6675,-294.501 22.4415,-304.401 25.6648,-294.308 18.6675,-294.501"/>
</g>
<!-- Node20 -->
<g id="node20" class="node"><title>Node20</title>
<g id="a_node20"><a xlink:href="classusi_1_1SCCommand.html" target="_top" xlink:title="usi.SCCommand">
<polygon fill="white" stroke="black" points="119,-38.5 119,-57.5 211,-57.5 211,-38.5 119,-38.5"/>
<text text-anchor="middle" x="165" y="-45.5" font-family="Helvetica,sans-Serif" font-size="10.00">usi.SCCommand</text>
</a>
</g>
</g>
<!-- Node1&#45;&gt;Node20 -->
<g id="edge19" class="edge"><title>Node1&#45;&gt;Node20</title>
<path fill="none" stroke="midnightblue" d="M24.8584,-294.426C30.2491,-241.833 47.6039,-99.2554 80,-67 90.2776,-56.767 104.827,-51.5609 118.934,-49.0414"/>
<polygon fill="midnightblue" stroke="midnightblue" points="21.3663,-294.175 23.8638,-304.471 28.3322,-294.865 21.3663,-294.175"/>
</g>
<!-- Node21 -->
<g id="node21" class="node"><title>Node21</title>
<g id="a_node21"><a xlink:href="classusi_1_1tools_1_1ipxact_1_1IP__XACT.html" target="_top" xlink:title="usi.tools.ipxact.IP_XACT">
<polygon fill="white" stroke="black" points="101,-0.5 101,-19.5 229,-19.5 229,-0.5 101,-0.5"/>
<text text-anchor="middle" x="165" y="-7.5" font-family="Helvetica,sans-Serif" font-size="10.00">usi.tools.ipxact.IP_XACT</text>
</a>
</g>
</g>
<!-- Node1&#45;&gt;Node21 -->
<g id="edge20" class="edge"><title>Node1&#45;&gt;Node21</title>
<path fill="none" stroke="midnightblue" d="M24.2227,-294.158C28.2196,-235.909 42.8431,-67.0996 80,-29 85.7416,-23.1128 92.8933,-18.8782 100.584,-15.8579"/>
<polygon fill="midnightblue" stroke="midnightblue" points="20.7221,-294.055 23.5615,-304.262 27.7071,-294.512 20.7221,-294.055"/>
</g>
<!-- Node5 -->
<g id="node5" class="node"><title>Node5</title>
<g id="a_node5"><a xlink:href="classcore_1_1tools_1_1generator_1_1template_1_1FileGen.html" target="_top" xlink:title="core.tools.generator.template.\lFileGen">
<polygon fill="white" stroke="black" points="286,-550 286,-580 432,-580 432,-550 286,-550"/>
<text text-anchor="start" x="294" y="-568" font-family="Helvetica,sans-Serif" font-size="10.00">core.tools.generator.template.</text>
<text text-anchor="middle" x="359" y="-557" font-family="Helvetica,sans-Serif" font-size="10.00">FileGen</text>
</a>
</g>
</g>
<!-- Node4&#45;&gt;Node5 -->
<g id="edge4" class="edge"><title>Node4&#45;&gt;Node5</title>
<path fill="none" stroke="midnightblue" d="M256.286,-565C266.168,-565 276.132,-565 285.755,-565"/>
<polygon fill="midnightblue" stroke="midnightblue" points="256.035,-561.5 246.035,-565 256.035,-568.5 256.035,-561.5"/>
</g>
<!-- Node6 -->
<g id="node6" class="node"><title>Node6</title>
<g id="a_node6"><a xlink:href="classcore_1_1tools_1_1generator_1_1template_1_1SystemCGen.html" target="_top" xlink:title="core.tools.generator.template.\lSystemCGen">
<polygon fill="white" stroke="black" points="468,-575 468,-605 614,-605 614,-575 468,-575"/>
<text text-anchor="start" x="476" y="-593" font-family="Helvetica,sans-Serif" font-size="10.00">core.tools.generator.template.</text>
<text text-anchor="middle" x="541" y="-582" font-family="Helvetica,sans-Serif" font-size="10.00">SystemCGen</text>
</a>
</g>
</g>
<!-- Node5&#45;&gt;Node6 -->
<g id="edge5" class="edge"><title>Node5&#45;&gt;Node6</title>
<path fill="none" stroke="midnightblue" d="M442.16,-576.411C450.718,-577.6 459.372,-578.802 467.808,-579.973"/>
<polygon fill="midnightblue" stroke="midnightblue" points="442.562,-572.933 432.176,-575.024 441.599,-579.867 442.562,-572.933"/>
</g>
<!-- Node7 -->
<g id="node7" class="node"><title>Node7</title>
<g id="a_node7"><a xlink:href="classcore_1_1tools_1_1generator_1_1template_1_1TemplateGen.html" target="_top" xlink:title="core.tools.generator.template.\lTemplateGen">
<polygon fill="white" stroke="black" points="468,-526 468,-556 614,-556 614,-526 468,-526"/>
<text text-anchor="start" x="476" y="-544" font-family="Helvetica,sans-Serif" font-size="10.00">core.tools.generator.template.</text>
<text text-anchor="middle" x="541" y="-533" font-family="Helvetica,sans-Serif" font-size="10.00">TemplateGen</text>
</a>
</g>
</g>
<!-- Node5&#45;&gt;Node7 -->
<g id="edge6" class="edge"><title>Node5&#45;&gt;Node7</title>
<path fill="none" stroke="midnightblue" d="M442.16,-554.045C450.718,-552.904 459.372,-551.75 467.808,-550.626"/>
<polygon fill="midnightblue" stroke="midnightblue" points="441.625,-550.586 432.176,-555.377 442.551,-557.524 441.625,-550.586"/>
</g>
</g>
</svg>
