<?xml version="1.0" encoding="UTF-8" standalone="no"?>
<!DOCTYPE svg PUBLIC "-//W3C//DTD SVG 1.1//EN"
 "http://www.w3.org/Graphics/SVG/1.1/DTD/svg11.dtd">
<!-- Generated by graphviz version 2.36.0 (20140111.2315)
 -->
<!-- Title: Graphical Class Hierarchy Pages: 1 -->
<svg width="258pt" height="104pt"
 viewBox="0.00 0.00 258.00 104.00" xmlns="http://www.w3.org/2000/svg" xmlns:xlink="http://www.w3.org/1999/xlink">
<g id="graph0" class="graph" transform="scale(1 1) rotate(0) translate(4 100)">
<title>Graphical Class Hierarchy</title>
<polygon fill="white" stroke="none" points="-4,4 -4,-100 254,-100 254,4 -4,4"/>
<!-- Node1 -->
<g id="node1" class="node"><title>Node1</title>
<polygon fill="white" stroke="#bfbfbf" points="0.5,-38.5 0.5,-57.5 73.5,-57.5 73.5,-38.5 0.5,-38.5"/>
<text text-anchor="middle" x="37" y="-45.5" font-family="Helvetica,sans-Serif" font-size="10.00">BuildContext</text>
</g>
<!-- Node2 -->
<g id="node2" class="node"><title>Node2</title>
<g id="a_node2"><a xlink:href="classcore_1_1waf_1_1common_1_1Macclean.html" target="_top" xlink:title="core.waf.common.Macclean">
<polygon fill="white" stroke="black" points="110,-76.5 110,-95.5 250,-95.5 250,-76.5 110,-76.5"/>
<text text-anchor="middle" x="180" y="-83.5" font-family="Helvetica,sans-Serif" font-size="10.00">core.waf.common.Macclean</text>
</a>
</g>
</g>
<!-- Node1&#45;&gt;Node2 -->
<g id="edge1" class="edge"><title>Node1&#45;&gt;Node2</title>
<path fill="none" stroke="midnightblue" d="M83.4398,-60.2462C102.875,-65.484 125.231,-71.5091 143.431,-76.4141"/>
<polygon fill="midnightblue" stroke="midnightblue" points="84.1465,-56.8118 73.5803,-57.589 82.325,-63.5707 84.1465,-56.8118"/>
</g>
<!-- Node3 -->
<g id="node3" class="node"><title>Node3</title>
<g id="a_node3"><a xlink:href="classcore_1_1waf_1_1cpplint_1_1CPPLint.html" target="_top" xlink:title="core.waf.cpplint.CPPLint">
<polygon fill="white" stroke="black" points="117.5,-38.5 117.5,-57.5 242.5,-57.5 242.5,-38.5 117.5,-38.5"/>
<text text-anchor="middle" x="180" y="-45.5" font-family="Helvetica,sans-Serif" font-size="10.00">core.waf.cpplint.CPPLint</text>
</a>
</g>
</g>
<!-- Node1&#45;&gt;Node3 -->
<g id="edge2" class="edge"><title>Node1&#45;&gt;Node3</title>
<path fill="none" stroke="midnightblue" d="M83.593,-48C94.3616,-48 106.02,-48 117.367,-48"/>
<polygon fill="midnightblue" stroke="midnightblue" points="83.5803,-44.5001 73.5803,-48 83.5802,-51.5001 83.5803,-44.5001"/>
</g>
<!-- Node4 -->
<g id="node4" class="node"><title>Node4</title>
<g id="a_node4"><a xlink:href="classcore_1_1waf_1_1oclint_1_1OCLint.html" target="_top" xlink:title="core.waf.oclint.OCLint">
<polygon fill="white" stroke="black" points="123,-0.5 123,-19.5 237,-19.5 237,-0.5 123,-0.5"/>
<text text-anchor="middle" x="180" y="-7.5" font-family="Helvetica,sans-Serif" font-size="10.00">core.waf.oclint.OCLint</text>
</a>
</g>
</g>
<!-- Node1&#45;&gt;Node4 -->
<g id="edge3" class="edge"><title>Node1&#45;&gt;Node4</title>
<path fill="none" stroke="midnightblue" d="M83.4398,-35.7538C102.875,-30.516 125.231,-24.4909 143.431,-19.5859"/>
<polygon fill="midnightblue" stroke="midnightblue" points="82.325,-32.4293 73.5803,-38.411 84.1465,-39.1882 82.325,-32.4293"/>
</g>
</g>
</svg>
