<?xml version="1.0" encoding="UTF-8" standalone="no"?>
<!DOCTYPE svg PUBLIC "-//W3C//DTD SVG 1.1//EN"
 "http://www.w3.org/Graphics/SVG/1.1/DTD/svg11.dtd">
<!-- Generated by graphviz version 2.26.0 (20091210.2329)
 -->
<!-- Title: Graphical Class Hierarchy Pages: 1 -->
<svg width="336pt" height="1486pt"
 viewBox="0.00 0.00 336.00 1486.00" xmlns="http://www.w3.org/2000/svg" xmlns:xlink="http://www.w3.org/1999/xlink">
<g id="graph1" class="graph" transform="scale(1 1) rotate(0) translate(4 1482)">
<title>Graphical Class Hierarchy</title>
<polygon fill="white" stroke="white" points="-4,5 -4,-1482 333,-1482 333,5 -4,5"/>
<!-- Node1 -->
<g id="node1" class="node"><title>Node1</title>
<a xlink:href="classtrap_1_1SyscallCB.html" target="_top" xlink:title="trap::SyscallCB\&lt; wordSize \&gt;">
<polygon fill="white" stroke="black" points="0,-734.5 0,-755.5 144,-755.5 144,-734.5 0,-734.5"/>
<text text-anchor="middle" x="72" y="-742.5" font-family="Helvetica,sans-Serif" font-size="10.00">trap::SyscallCB&lt; wordSize &gt;</text>
</a>
</g>
<!-- Node2 -->
<g id="node3" class="node"><title>Node2</title>
<a xlink:href="classtrap_1_1__exitSysCall.html" target="_top" xlink:title="trap::_exitSysCall\l\&lt; wordSize \&gt;">
<polygon fill="white" stroke="black" points="206.5,-1444 206.5,-1478 301.5,-1478 301.5,-1444 206.5,-1444"/>
<text text-anchor="start" x="214.5" y="-1465" font-family="Helvetica,sans-Serif" font-size="10.00">trap::_exitSysCall</text>
<text text-anchor="middle" x="254" y="-1452" font-family="Helvetica,sans-Serif" font-size="10.00">&lt; wordSize &gt;</text>
</a>
</g>
<!-- Node1&#45;&gt;Node2 -->
<g id="edge2" class="edge"><title>Node1&#45;&gt;Node2</title>
<path fill="none" stroke="midnightblue" d="M72.4636,-765.827C75.175,-869.523 92.0641,-1329.34 180,-1435 186.794,-1443.16 196.318,-1448.77 206.277,-1452.61"/>
<polygon fill="midnightblue" stroke="midnightblue" points="75.9596,-765.615 72.2155,-755.704 68.9617,-765.787 75.9596,-765.615"/>
</g>
<!-- Node3 -->
<g id="node5" class="node"><title>Node3</title>
<a xlink:href="classtrap_1_1chmodSysCall.html" target="_top" xlink:title="trap::chmodSysCall\l\&lt; wordSize \&gt;">
<polygon fill="white" stroke="black" points="202.5,-1392 202.5,-1426 305.5,-1426 305.5,-1392 202.5,-1392"/>
<text text-anchor="start" x="210.5" y="-1413" font-family="Helvetica,sans-Serif" font-size="10.00">trap::chmodSysCall</text>
<text text-anchor="middle" x="254" y="-1400" font-family="Helvetica,sans-Serif" font-size="10.00">&lt; wordSize &gt;</text>
</a>
</g>
<!-- Node1&#45;&gt;Node3 -->
<g id="edge4" class="edge"><title>Node1&#45;&gt;Node3</title>
<path fill="none" stroke="midnightblue" d="M72.7541,-765.795C76.7378,-864.632 98.3471,-1286.12 180,-1383 185.88,-1389.98 193.75,-1395.08 202.167,-1398.82"/>
<polygon fill="midnightblue" stroke="midnightblue" points="76.2442,-765.471 72.3611,-755.613 69.2494,-765.741 76.2442,-765.471"/>
</g>
<!-- Node4 -->
<g id="node7" class="node"><title>Node4</title>
<a xlink:href="classtrap_1_1chownSysCall.html" target="_top" xlink:title="trap::chownSysCall\l\&lt; wordSize \&gt;">
<polygon fill="white" stroke="black" points="203,-1340 203,-1374 305,-1374 305,-1340 203,-1340"/>
<text text-anchor="start" x="211" y="-1361" font-family="Helvetica,sans-Serif" font-size="10.00">trap::chownSysCall</text>
<text text-anchor="middle" x="254" y="-1348" font-family="Helvetica,sans-Serif" font-size="10.00">&lt; wordSize &gt;</text>
</a>
</g>
<!-- Node1&#45;&gt;Node4 -->
<g id="edge6" class="edge"><title>Node1&#45;&gt;Node4</title>
<path fill="none" stroke="midnightblue" d="M73.0996,-765.862C78.4494,-859.816 104.638,-1242.89 180,-1331 186.019,-1338.04 194.061,-1343.17 202.628,-1346.91"/>
<polygon fill="midnightblue" stroke="midnightblue" points="76.5822,-765.45 72.5369,-755.657 69.5928,-765.835 76.5822,-765.45"/>
</g>
<!-- Node5 -->
<g id="node9" class="node"><title>Node5</title>
<a xlink:href="classtrap_1_1closeSysCall.html" target="_top" xlink:title="trap::closeSysCall\l\&lt; wordSize \&gt;">
<polygon fill="white" stroke="black" points="205.5,-1288 205.5,-1322 302.5,-1322 302.5,-1288 205.5,-1288"/>
<text text-anchor="start" x="213.5" y="-1309" font-family="Helvetica,sans-Serif" font-size="10.00">trap::closeSysCall</text>
<text text-anchor="middle" x="254" y="-1296" font-family="Helvetica,sans-Serif" font-size="10.00">&lt; wordSize &gt;</text>
</a>
</g>
<!-- Node1&#45;&gt;Node5 -->
<g id="edge8" class="edge"><title>Node1&#45;&gt;Node5</title>
<path fill="none" stroke="midnightblue" d="M73.4934,-765.679C80.27,-854.107 110.84,-1199.55 180,-1279 186.705,-1286.7 195.833,-1292.12 205.389,-1295.94"/>
<polygon fill="midnightblue" stroke="midnightblue" points="76.974,-765.288 72.7382,-755.577 69.9934,-765.81 76.974,-765.288"/>
</g>
<!-- Node6 -->
<g id="node11" class="node"><title>Node6</title>
<a xlink:href="classtrap_1_1creatSysCall.html" target="_top" xlink:title="trap::creatSysCall\l\&lt; wordSize \&gt;">
<polygon fill="white" stroke="black" points="206.5,-1236 206.5,-1270 301.5,-1270 301.5,-1236 206.5,-1236"/>
<text text-anchor="start" x="214.5" y="-1257" font-family="Helvetica,sans-Serif" font-size="10.00">trap::creatSysCall</text>
<text text-anchor="middle" x="254" y="-1244" font-family="Helvetica,sans-Serif" font-size="10.00">&lt; wordSize &gt;</text>
</a>
</g>
<!-- Node1&#45;&gt;Node6 -->
<g id="edge10" class="edge"><title>Node1&#45;&gt;Node6</title>
<path fill="none" stroke="midnightblue" d="M73.991,-765.764C82.3453,-848.843 117.086,-1156.23 180,-1227 186.966,-1234.84 196.437,-1240.31 206.274,-1244.14"/>
<polygon fill="midnightblue" stroke="midnightblue" points="77.4704,-765.383 73.006,-755.774 70.5042,-766.07 77.4704,-765.383"/>
</g>
<!-- Node7 -->
<g id="node13" class="node"><title>Node7</title>
<a xlink:href="classtrap_1_1dup2SysCall.html" target="_top" xlink:title="trap::dup2SysCall\&lt;\l wordSize \&gt;">
<polygon fill="white" stroke="black" points="203.5,-1184 203.5,-1218 304.5,-1218 304.5,-1184 203.5,-1184"/>
<text text-anchor="start" x="211.5" y="-1205" font-family="Helvetica,sans-Serif" font-size="10.00">trap::dup2SysCall&lt;</text>
<text text-anchor="middle" x="254" y="-1192" font-family="Helvetica,sans-Serif" font-size="10.00"> wordSize &gt;</text>
</a>
</g>
<!-- Node1&#45;&gt;Node7 -->
<g id="edge12" class="edge"><title>Node1&#45;&gt;Node7</title>
<path fill="none" stroke="midnightblue" d="M74.5918,-765.721C84.635,-842.951 123.267,-1112.8 180,-1175 186.332,-1181.94 194.627,-1187.03 203.366,-1190.76"/>
<polygon fill="midnightblue" stroke="midnightblue" points="78.0598,-765.246 73.3188,-755.771 71.1164,-766.135 78.0598,-765.246"/>
</g>
<!-- Node8 -->
<g id="node15" class="node"><title>Node8</title>
<a xlink:href="classtrap_1_1dupSysCall.html" target="_top" xlink:title="trap::dupSysCall\&lt; wordSize \&gt;">
<polygon fill="white" stroke="black" points="180,-1144.5 180,-1165.5 328,-1165.5 328,-1144.5 180,-1144.5"/>
<text text-anchor="middle" x="254" y="-1152.5" font-family="Helvetica,sans-Serif" font-size="10.00">trap::dupSysCall&lt; wordSize &gt;</text>
</a>
</g>
<!-- Node1&#45;&gt;Node8 -->
<g id="edge14" class="edge"><title>Node1&#45;&gt;Node8</title>
<path fill="none" stroke="midnightblue" d="M75.007,-765.759C85.964,-838.636 125.958,-1081.29 180,-1135 183.776,-1138.75 188.178,-1141.82 192.919,-1144.33"/>
<polygon fill="midnightblue" stroke="midnightblue" points="78.4263,-764.955 73.5001,-755.576 71.5017,-765.98 78.4263,-764.955"/>
</g>
<!-- Node9 -->
<g id="node17" class="node"><title>Node9</title>
<a xlink:href="classtrap_1_1errorSysCall.html" target="_top" xlink:title="trap::errorSysCall\l\&lt; wordSize \&gt;">
<polygon fill="white" stroke="black" points="207.5,-1092 207.5,-1126 300.5,-1126 300.5,-1092 207.5,-1092"/>
<text text-anchor="start" x="215.5" y="-1113" font-family="Helvetica,sans-Serif" font-size="10.00">trap::errorSysCall</text>
<text text-anchor="middle" x="254" y="-1100" font-family="Helvetica,sans-Serif" font-size="10.00">&lt; wordSize &gt;</text>
</a>
</g>
<!-- Node1&#45;&gt;Node9 -->
<g id="edge16" class="edge"><title>Node1&#45;&gt;Node9</title>
<path fill="none" stroke="midnightblue" d="M76.1254,-765.824C89.6069,-831.984 134.139,-1035.81 180,-1083 187.402,-1090.62 197.164,-1096.01 207.159,-1099.82"/>
<polygon fill="midnightblue" stroke="midnightblue" points="79.5083,-764.893 74.1031,-755.781 72.646,-766.275 79.5083,-764.893"/>
</g>
<!-- Node10 -->
<g id="node19" class="node"><title>Node10</title>
<a xlink:href="classtrap_1_1fstatSysCall.html" target="_top" xlink:title="trap::fstatSysCall\l\&lt; wordSize \&gt;">
<polygon fill="white" stroke="black" points="207.5,-1040 207.5,-1074 300.5,-1074 300.5,-1040 207.5,-1040"/>
<text text-anchor="start" x="215.5" y="-1061" font-family="Helvetica,sans-Serif" font-size="10.00">trap::fstatSysCall</text>
<text text-anchor="middle" x="254" y="-1048" font-family="Helvetica,sans-Serif" font-size="10.00">&lt; wordSize &gt;</text>
</a>
</g>
<!-- Node1&#45;&gt;Node10 -->
<g id="edge18" class="edge"><title>Node1&#45;&gt;Node10</title>
<path fill="none" stroke="midnightblue" d="M73.8885,-765.506C79.746,-817.358 102.192,-954.976 180,-1031 187.597,-1038.42 197.434,-1043.74 207.442,-1047.54"/>
<polygon fill="midnightblue" stroke="midnightblue" points="77.3674,-765.12 72.8518,-755.535 70.4049,-765.844 77.3674,-765.12"/>
</g>
<!-- Node11 -->
<g id="node21" class="node"><title>Node11</title>
<a xlink:href="classtrap_1_1getenvSysCall.html" target="_top" xlink:title="trap::getenvSysCall\l\&lt; wordSize \&gt;">
<polygon fill="white" stroke="black" points="202.5,-988 202.5,-1022 305.5,-1022 305.5,-988 202.5,-988"/>
<text text-anchor="start" x="210.5" y="-1009" font-family="Helvetica,sans-Serif" font-size="10.00">trap::getenvSysCall</text>
<text text-anchor="middle" x="254" y="-996" font-family="Helvetica,sans-Serif" font-size="10.00">&lt; wordSize &gt;</text>
</a>
</g>
<!-- Node1&#45;&gt;Node11 -->
<g id="edge20" class="edge"><title>Node1&#45;&gt;Node11</title>
<path fill="none" stroke="midnightblue" d="M75.8645,-765.64C85.3732,-810.786 114.094,-919.047 180,-979 186.447,-984.864 194.295,-989.422 202.441,-992.959"/>
<polygon fill="midnightblue" stroke="midnightblue" points="79.2472,-764.707 73.85,-755.59 72.3837,-766.083 79.2472,-764.707"/>
</g>
<!-- Node12 -->
<g id="node23" class="node"><title>Node12</title>
<a xlink:href="classtrap_1_1getpidSysCall.html" target="_top" xlink:title="trap::getpidSysCall\l\&lt; wordSize \&gt;">
<polygon fill="white" stroke="black" points="204,-936 204,-970 304,-970 304,-936 204,-936"/>
<text text-anchor="start" x="212" y="-957" font-family="Helvetica,sans-Serif" font-size="10.00">trap::getpidSysCall</text>
<text text-anchor="middle" x="254" y="-944" font-family="Helvetica,sans-Serif" font-size="10.00">&lt; wordSize &gt;</text>
</a>
</g>
<!-- Node1&#45;&gt;Node12 -->
<g id="edge22" class="edge"><title>Node1&#45;&gt;Node12</title>
<path fill="none" stroke="midnightblue" d="M78.8266,-765.56C92.2723,-802.989 125.686,-882.486 180,-927 186.951,-932.697 195.237,-937.184 203.706,-940.708"/>
<polygon fill="midnightblue" stroke="midnightblue" points="82.0165,-764.077 75.4276,-755.78 75.4044,-766.375 82.0165,-764.077"/>
</g>
<!-- Node13 -->
<g id="node25" class="node"><title>Node13</title>
<a xlink:href="classtrap_1_1gettimeofdaySysCall.html" target="_top" xlink:title="trap::gettimeofdaySysCall\l\&lt; wordSize \&gt;">
<polygon fill="white" stroke="black" points="189,-884 189,-918 319,-918 319,-884 189,-884"/>
<text text-anchor="start" x="197" y="-905" font-family="Helvetica,sans-Serif" font-size="10.00">trap::gettimeofdaySysCall</text>
<text text-anchor="middle" x="254" y="-892" font-family="Helvetica,sans-Serif" font-size="10.00">&lt; wordSize &gt;</text>
</a>
</g>
<!-- Node1&#45;&gt;Node13 -->
<g id="edge24" class="edge"><title>Node1&#45;&gt;Node13</title>
<path fill="none" stroke="midnightblue" d="M83.4977,-764.69C100.941,-792.939 136.689,-844.876 180,-875 184.807,-878.343 190.087,-881.297 195.545,-883.898"/>
<polygon fill="midnightblue" stroke="midnightblue" points="86.2723,-762.513 78.1086,-755.76 80.2791,-766.13 86.2723,-762.513"/>
</g>
<!-- Node14 -->
<g id="node27" class="node"><title>Node14</title>
<a xlink:href="classtrap_1_1isattySysCall.html" target="_top" xlink:title="trap::isattySysCall\l\&lt; wordSize \&gt;">
<polygon fill="white" stroke="black" points="205,-832 205,-866 303,-866 303,-832 205,-832"/>
<text text-anchor="start" x="213" y="-853" font-family="Helvetica,sans-Serif" font-size="10.00">trap::isattySysCall</text>
<text text-anchor="middle" x="254" y="-840" font-family="Helvetica,sans-Serif" font-size="10.00">&lt; wordSize &gt;</text>
</a>
</g>
<!-- Node1&#45;&gt;Node14 -->
<g id="edge26" class="edge"><title>Node1&#45;&gt;Node14</title>
<path fill="none" stroke="midnightblue" d="M92.0086,-762.177C112.859,-779.398 147.033,-805.766 180,-823 187.844,-827.1 196.475,-830.795 204.989,-834.025"/>
<polygon fill="midnightblue" stroke="midnightblue" points="94.1011,-759.364 84.1871,-755.627 89.607,-764.731 94.1011,-759.364"/>
</g>
<!-- Node15 -->
<g id="node29" class="node"><title>Node15</title>
<a xlink:href="classtrap_1_1killSysCall.html" target="_top" xlink:title="trap::killSysCall\&lt;\l wordSize \&gt;">
<polygon fill="white" stroke="black" points="208,-780 208,-814 300,-814 300,-780 208,-780"/>
<text text-anchor="start" x="216" y="-801" font-family="Helvetica,sans-Serif" font-size="10.00">trap::killSysCall&lt;</text>
<text text-anchor="middle" x="254" y="-788" font-family="Helvetica,sans-Serif" font-size="10.00"> wordSize &gt;</text>
</a>
</g>
<!-- Node1&#45;&gt;Node15 -->
<g id="edge28" class="edge"><title>Node1&#45;&gt;Node15</title>
<path fill="none" stroke="midnightblue" d="M118.578,-758.308C145.983,-766.138 180.51,-776.003 207.842,-783.812"/>
<polygon fill="midnightblue" stroke="midnightblue" points="119.407,-754.905 108.83,-755.523 117.484,-761.636 119.407,-754.905"/>
</g>
<!-- Node16 -->
<g id="node31" class="node"><title>Node16</title>
<a xlink:href="classtrap_1_1lseekSysCall.html" target="_top" xlink:title="trap::lseekSysCall\l\&lt; wordSize \&gt;">
<polygon fill="white" stroke="black" points="205.5,-728 205.5,-762 302.5,-762 302.5,-728 205.5,-728"/>
<text text-anchor="start" x="213.5" y="-749" font-family="Helvetica,sans-Serif" font-size="10.00">trap::lseekSysCall</text>
<text text-anchor="middle" x="254" y="-736" font-family="Helvetica,sans-Serif" font-size="10.00">&lt; wordSize &gt;</text>
</a>
</g>
<!-- Node1&#45;&gt;Node16 -->
<g id="edge30" class="edge"><title>Node1&#45;&gt;Node16</title>
<path fill="none" stroke="midnightblue" d="M154.392,-745C171.832,-745 189.698,-745 205.396,-745"/>
<polygon fill="midnightblue" stroke="midnightblue" points="154.193,-741.5 144.193,-745 154.193,-748.5 154.193,-741.5"/>
</g>
<!-- Node17 -->
<g id="node33" class="node"><title>Node17</title>
<a xlink:href="classtrap_1_1lstatSysCall.html" target="_top" xlink:title="trap::lstatSysCall\l\&lt; wordSize \&gt;">
<polygon fill="white" stroke="black" points="208,-676 208,-710 300,-710 300,-676 208,-676"/>
<text text-anchor="start" x="216" y="-697" font-family="Helvetica,sans-Serif" font-size="10.00">trap::lstatSysCall</text>
<text text-anchor="middle" x="254" y="-684" font-family="Helvetica,sans-Serif" font-size="10.00">&lt; wordSize &gt;</text>
</a>
</g>
<!-- Node1&#45;&gt;Node17 -->
<g id="edge32" class="edge"><title>Node1&#45;&gt;Node17</title>
<path fill="none" stroke="midnightblue" d="M118.578,-731.692C145.983,-723.862 180.51,-713.997 207.842,-706.188"/>
<polygon fill="midnightblue" stroke="midnightblue" points="117.484,-728.364 108.83,-734.477 119.407,-735.095 117.484,-728.364"/>
</g>
<!-- Node18 -->
<g id="node35" class="node"><title>Node18</title>
<a xlink:href="classtrap_1_1mainSysCall.html" target="_top" xlink:title="trap::mainSysCall\&lt;\l wordSize \&gt;">
<polygon fill="white" stroke="black" points="203.5,-624 203.5,-658 304.5,-658 304.5,-624 203.5,-624"/>
<text text-anchor="start" x="211.5" y="-645" font-family="Helvetica,sans-Serif" font-size="10.00">trap::mainSysCall&lt;</text>
<text text-anchor="middle" x="254" y="-632" font-family="Helvetica,sans-Serif" font-size="10.00"> wordSize &gt;</text>
</a>
</g>
<!-- Node1&#45;&gt;Node18 -->
<g id="edge34" class="edge"><title>Node1&#45;&gt;Node18</title>
<path fill="none" stroke="midnightblue" d="M92.0086,-727.823C112.859,-710.602 147.033,-684.234 180,-667 187.361,-663.152 195.416,-659.661 203.416,-656.577"/>
<polygon fill="midnightblue" stroke="midnightblue" points="89.607,-725.269 84.1871,-734.373 94.1011,-730.636 89.607,-725.269"/>
</g>
<!-- Node19 -->
<g id="node37" class="node"><title>Node19</title>
<a xlink:href="classtrap_1_1openSysCall.html" target="_top" xlink:title="trap::openSysCall\&lt;\l wordSize \&gt;">
<polygon fill="white" stroke="black" points="203.5,-572 203.5,-606 304.5,-606 304.5,-572 203.5,-572"/>
<text text-anchor="start" x="211.5" y="-593" font-family="Helvetica,sans-Serif" font-size="10.00">trap::openSysCall&lt;</text>
<text text-anchor="middle" x="254" y="-580" font-family="Helvetica,sans-Serif" font-size="10.00"> wordSize &gt;</text>
</a>
</g>
<!-- Node1&#45;&gt;Node19 -->
<g id="edge36" class="edge"><title>Node1&#45;&gt;Node19</title>
<path fill="none" stroke="midnightblue" d="M83.4977,-725.31C100.941,-697.061 136.689,-645.124 180,-615 187.043,-610.101 195.101,-606.039 203.248,-602.699"/>
<polygon fill="midnightblue" stroke="midnightblue" points="80.2791,-723.87 78.1086,-734.24 86.2723,-727.487 80.2791,-723.87"/>
</g>
<!-- Node20 -->
<g id="node39" class="node"><title>Node20</title>
<a xlink:href="classtrap_1_1randomSysCall.html" target="_top" xlink:title="trap::randomSysCall\l\&lt; wordSize \&gt;">
<polygon fill="white" stroke="black" points="201,-520 201,-554 307,-554 307,-520 201,-520"/>
<text text-anchor="start" x="209" y="-541" font-family="Helvetica,sans-Serif" font-size="10.00">trap::randomSysCall</text>
<text text-anchor="middle" x="254" y="-528" font-family="Helvetica,sans-Serif" font-size="10.00">&lt; wordSize &gt;</text>
</a>
</g>
<!-- Node1&#45;&gt;Node20 -->
<g id="edge38" class="edge"><title>Node1&#45;&gt;Node20</title>
<path fill="none" stroke="midnightblue" d="M78.8266,-724.44C92.2723,-687.011 125.686,-607.514 180,-563 186.109,-557.994 193.248,-553.921 200.637,-550.616"/>
<polygon fill="midnightblue" stroke="midnightblue" points="75.4044,-723.625 75.4276,-734.22 82.0165,-725.923 75.4044,-723.625"/>
</g>
<!-- Node21 -->
<g id="node41" class="node"><title>Node21</title>
<a xlink:href="classtrap_1_1readSysCall.html" target="_top" xlink:title="trap::readSysCall\&lt;\l wordSize \&gt;">
<polygon fill="white" stroke="black" points="205,-468 205,-502 303,-502 303,-468 205,-468"/>
<text text-anchor="start" x="213" y="-489" font-family="Helvetica,sans-Serif" font-size="10.00">trap::readSysCall&lt;</text>
<text text-anchor="middle" x="254" y="-476" font-family="Helvetica,sans-Serif" font-size="10.00"> wordSize &gt;</text>
</a>
</g>
<!-- Node1&#45;&gt;Node21 -->
<g id="edge40" class="edge"><title>Node1&#45;&gt;Node21</title>
<path fill="none" stroke="midnightblue" d="M75.8645,-724.36C85.3732,-679.214 114.094,-570.953 180,-511 187.051,-504.586 195.779,-499.735 204.739,-496.073"/>
<polygon fill="midnightblue" stroke="midnightblue" points="72.3837,-723.917 73.85,-734.41 79.2472,-725.293 72.3837,-723.917"/>
</g>
<!-- Node22 -->
<g id="node43" class="node"><title>Node22</title>
<a xlink:href="classtrap_1_1sbrkSysCall.html" target="_top" xlink:title="trap::sbrkSysCall\&lt;\l wordSize \&gt;">
<polygon fill="white" stroke="black" points="205,-416 205,-450 303,-450 303,-416 205,-416"/>
<text text-anchor="start" x="213" y="-437" font-family="Helvetica,sans-Serif" font-size="10.00">trap::sbrkSysCall&lt;</text>
<text text-anchor="middle" x="254" y="-424" font-family="Helvetica,sans-Serif" font-size="10.00"> wordSize &gt;</text>
</a>
</g>
<!-- Node1&#45;&gt;Node22 -->
<g id="edge42" class="edge"><title>Node1&#45;&gt;Node22</title>
<path fill="none" stroke="midnightblue" d="M73.8885,-724.494C79.746,-672.642 102.192,-535.024 180,-459 186.915,-452.243 195.687,-447.235 204.753,-443.524"/>
<polygon fill="midnightblue" stroke="midnightblue" points="70.4049,-724.156 72.8518,-734.465 77.3674,-724.88 70.4049,-724.156"/>
</g>
<!-- Node23 -->
<g id="node45" class="node"><title>Node23</title>
<a xlink:href="classtrap_1_1statSysCall.html" target="_top" xlink:title="trap::statSysCall\&lt;\l wordSize \&gt;">
<polygon fill="white" stroke="black" points="206,-364 206,-398 302,-398 302,-364 206,-364"/>
<text text-anchor="start" x="214" y="-385" font-family="Helvetica,sans-Serif" font-size="10.00">trap::statSysCall&lt;</text>
<text text-anchor="middle" x="254" y="-372" font-family="Helvetica,sans-Serif" font-size="10.00"> wordSize &gt;</text>
</a>
</g>
<!-- Node1&#45;&gt;Node23 -->
<g id="edge44" class="edge"><title>Node1&#45;&gt;Node23</title>
<path fill="none" stroke="midnightblue" d="M76.1254,-724.176C89.6069,-658.016 134.139,-454.192 180,-407 187.023,-399.774 196.169,-394.552 205.623,-390.781"/>
<polygon fill="midnightblue" stroke="midnightblue" points="72.646,-723.725 74.1031,-734.219 79.5083,-725.107 72.646,-723.725"/>
</g>
<!-- Node24 -->
<g id="node47" class="node"><title>Node24</title>
<a xlink:href="classtrap_1_1sysconfSysCall.html" target="_top" xlink:title="trap::sysconfSysCall\l\&lt; wordSize \&gt;">
<polygon fill="white" stroke="black" points="200,-312 200,-346 308,-346 308,-312 200,-312"/>
<text text-anchor="start" x="208" y="-333" font-family="Helvetica,sans-Serif" font-size="10.00">trap::sysconfSysCall</text>
<text text-anchor="middle" x="254" y="-320" font-family="Helvetica,sans-Serif" font-size="10.00">&lt; wordSize &gt;</text>
</a>
</g>
<!-- Node1&#45;&gt;Node24 -->
<g id="edge46" class="edge"><title>Node1&#45;&gt;Node24</title>
<path fill="none" stroke="midnightblue" d="M75.1485,-724.378C86.5815,-651.963 127.979,-410.669 180,-355 185.485,-349.13 192.373,-344.585 199.725,-341.065"/>
<polygon fill="midnightblue" stroke="midnightblue" points="71.6533,-724.077 73.5738,-734.496 78.5701,-725.153 71.6533,-724.077"/>
</g>
<!-- Node25 -->
<g id="node49" class="node"><title>Node25</title>
<a xlink:href="classtrap_1_1timesSysCall.html" target="_top" xlink:title="trap::timesSysCall\l\&lt; wordSize \&gt;">
<polygon fill="white" stroke="black" points="205,-260 205,-294 303,-294 303,-260 205,-260"/>
<text text-anchor="start" x="213" y="-281" font-family="Helvetica,sans-Serif" font-size="10.00">trap::timesSysCall</text>
<text text-anchor="middle" x="254" y="-268" font-family="Helvetica,sans-Serif" font-size="10.00">&lt; wordSize &gt;</text>
</a>
</g>
<!-- Node1&#45;&gt;Node25 -->
<g id="edge48" class="edge"><title>Node1&#45;&gt;Node25</title>
<path fill="none" stroke="midnightblue" d="M74.4468,-724.222C84.0966,-645.55 121.855,-367.156 180,-303 186.675,-295.634 195.561,-290.355 204.853,-286.572"/>
<polygon fill="midnightblue" stroke="midnightblue" points="70.9503,-723.984 73.228,-734.331 77.9,-724.822 70.9503,-723.984"/>
</g>
<!-- Node26 -->
<g id="node51" class="node"><title>Node26</title>
<a xlink:href="classtrap_1_1timeSysCall.html" target="_top" xlink:title="trap::timeSysCall\&lt;\l wordSize \&gt;">
<polygon fill="white" stroke="black" points="205,-208 205,-242 303,-242 303,-208 205,-208"/>
<text text-anchor="start" x="213" y="-229" font-family="Helvetica,sans-Serif" font-size="10.00">trap::timeSysCall&lt;</text>
<text text-anchor="middle" x="254" y="-216" font-family="Helvetica,sans-Serif" font-size="10.00"> wordSize &gt;</text>
</a>
</g>
<!-- Node1&#45;&gt;Node26 -->
<g id="edge50" class="edge"><title>Node1&#45;&gt;Node26</title>
<path fill="none" stroke="midnightblue" d="M73.8652,-724.273C81.841,-639.959 115.643,-323.777 180,-251 186.585,-243.553 195.432,-238.24 204.715,-234.448"/>
<polygon fill="midnightblue" stroke="midnightblue" points="70.366,-724.104 72.9286,-734.384 77.3361,-724.749 70.366,-724.104"/>
</g>
<!-- Node27 -->
<g id="node53" class="node"><title>Node27</title>
<a xlink:href="classtrap_1_1unlinkSysCall.html" target="_top" xlink:title="trap::unlinkSysCall\l\&lt; wordSize \&gt;">
<polygon fill="white" stroke="black" points="204.5,-156 204.5,-190 303.5,-190 303.5,-156 204.5,-156"/>
<text text-anchor="start" x="212.5" y="-177" font-family="Helvetica,sans-Serif" font-size="10.00">trap::unlinkSysCall</text>
<text text-anchor="middle" x="254" y="-164" font-family="Helvetica,sans-Serif" font-size="10.00">&lt; wordSize &gt;</text>
</a>
</g>
<!-- Node1&#45;&gt;Node27 -->
<g id="edge52" class="edge"><title>Node1&#45;&gt;Node27</title>
<path fill="none" stroke="midnightblue" d="M73.4067,-724.136C79.8666,-634.183 109.448,-280.405 180,-199 186.421,-191.591 195.084,-186.293 204.22,-182.504"/>
<polygon fill="midnightblue" stroke="midnightblue" points="69.91,-723.968 72.7033,-734.188 76.8929,-724.456 69.91,-723.968"/>
</g>
<!-- Node28 -->
<g id="node55" class="node"><title>Node28</title>
<a xlink:href="classtrap_1_1usleepSysCall.html" target="_top" xlink:title="trap::usleepSysCall\l\&lt; wordSize \&gt;">
<polygon fill="white" stroke="black" points="203,-104 203,-138 305,-138 305,-104 203,-104"/>
<text text-anchor="start" x="211" y="-125" font-family="Helvetica,sans-Serif" font-size="10.00">trap::usleepSysCall</text>
<text text-anchor="middle" x="254" y="-112" font-family="Helvetica,sans-Serif" font-size="10.00">&lt; wordSize &gt;</text>
</a>
</g>
<!-- Node1&#45;&gt;Node28 -->
<g id="edge54" class="edge"><title>Node1&#45;&gt;Node28</title>
<path fill="none" stroke="midnightblue" d="M73.0223,-724.006C78.0667,-628.648 103.228,-237.082 180,-147 186.095,-139.849 194.28,-134.664 202.986,-130.905"/>
<polygon fill="midnightblue" stroke="midnightblue" points="69.5201,-723.96 72.5047,-734.126 76.511,-724.318 69.5201,-723.96"/>
</g>
<!-- Node29 -->
<g id="node57" class="node"><title>Node29</title>
<a xlink:href="classtrap_1_1utimesSysCall.html" target="_top" xlink:title="trap::utimesSysCall\l\&lt; wordSize \&gt;">
<polygon fill="white" stroke="black" points="202.5,-52 202.5,-86 305.5,-86 305.5,-52 202.5,-52"/>
<text text-anchor="start" x="210.5" y="-73" font-family="Helvetica,sans-Serif" font-size="10.00">trap::utimesSysCall</text>
<text text-anchor="middle" x="254" y="-60" font-family="Helvetica,sans-Serif" font-size="10.00">&lt; wordSize &gt;</text>
</a>
</g>
<!-- Node1&#45;&gt;Node29 -->
<g id="edge56" class="edge"><title>Node1&#45;&gt;Node29</title>
<path fill="none" stroke="midnightblue" d="M72.6858,-724.122C76.3767,-624.008 96.9195,-193.88 180,-95 185.869,-88.0148 193.735,-82.9051 202.15,-79.1675"/>
<polygon fill="midnightblue" stroke="midnightblue" points="69.1855,-724.072 72.3316,-734.189 76.1812,-724.318 69.1855,-724.072"/>
</g>
<!-- Node30 -->
<g id="node59" class="node"><title>Node30</title>
<a xlink:href="classtrap_1_1writeSysCall.html" target="_top" xlink:title="trap::writeSysCall\l\&lt; wordSize \&gt;">
<polygon fill="white" stroke="black" points="206.5,-0 206.5,-34 301.5,-34 301.5,-0 206.5,-0"/>
<text text-anchor="start" x="214.5" y="-21" font-family="Helvetica,sans-Serif" font-size="10.00">trap::writeSysCall</text>
<text text-anchor="middle" x="254" y="-8" font-family="Helvetica,sans-Serif" font-size="10.00">&lt; wordSize &gt;</text>
</a>
</g>
<!-- Node1&#45;&gt;Node30 -->
<g id="edge58" class="edge"><title>Node1&#45;&gt;Node30</title>
<path fill="none" stroke="midnightblue" d="M72.4029,-724.149C74.8324,-619.322 90.6166,-150.687 180,-43 186.784,-34.8272 196.303,-29.221 206.262,-25.3761"/>
<polygon fill="midnightblue" stroke="midnightblue" points="68.899,-724.292 72.1828,-734.366 75.8974,-724.443 68.899,-724.292"/>
</g>
</g>
</svg>
