<?xml version="1.0" encoding="UTF-8" standalone="no"?>
<!DOCTYPE svg PUBLIC "-//W3C//DTD SVG 1.1//EN"
 "http://www.w3.org/Graphics/SVG/1.1/DTD/svg11.dtd">
<!-- Generated by graphviz version 2.38.0 (20140413.2041)
 -->
<!-- Title: Graphical Class Hierarchy Pages: 1 -->
<svg width="247pt" height="225pt"
 viewBox="0.00 0.00 246.66 225.00" xmlns="http://www.w3.org/2000/svg" xmlns:xlink="http://www.w3.org/1999/xlink">
<g id="graph0" class="graph" transform="scale(1 1) rotate(0) translate(4 221)">
<title>Graphical Class Hierarchy</title>
<polygon fill="white" stroke="none" points="-4,4 -4,-221 242.659,-221 242.659,4 -4,4"/>
<!-- Node1 -->
<g id="node1" class="node"><title>Node1</title>
<polygon fill="white" stroke="#bfbfbf" points="0,-99.5 0,-117.5 35.4482,-117.5 35.4482,-99.5 0,-99.5"/>
<text text-anchor="middle" x="17.7241" y="-105.5" font-family="Helvetica,sans-Serif" font-size="10.00">Item</text>
</g>
<!-- Node2 -->
<g id="node2" class="node"><title>Node2</title>
<g id="a_node2"><a xlink:href="classcore_1_1tools_1_1generator_1_1item_1_1boolean_1_1BooleanItem.html" target="_top" xlink:title="core.tools.generator.item.boolean.\lBooleanItem">
<polygon fill="white" stroke="black" points="71.4482,-188.5 71.4482,-216.5 238.659,-216.5 238.659,-188.5 71.4482,-188.5"/>
<text text-anchor="start" x="79.4482" y="-204.5" font-family="Helvetica,sans-Serif" font-size="10.00">core.tools.generator.item.boolean.</text>
<text text-anchor="middle" x="155.054" y="-194.5" font-family="Helvetica,sans-Serif" font-size="10.00">BooleanItem</text>
</a>
</g>
</g>
<!-- Node1&#45;&gt;Node2 -->
<g id="edge1" class="edge"><title>Node1&#45;&gt;Node2</title>
<path fill="none" stroke="midnightblue" d="M27.8766,-126.947C36.8311,-143.131 51.954,-166.112 71.4482,-179.5 76.4795,-182.955 82.018,-185.894 87.7723,-188.393"/>
<polygon fill="midnightblue" stroke="midnightblue" points="30.8681,-125.116 23.1144,-117.896 24.6732,-128.376 30.8681,-125.116"/>
</g>
<!-- Node3 -->
<g id="node3" class="node"><title>Node3</title>
<g id="a_node3"><a xlink:href="classcore_1_1tools_1_1generator_1_1item_1_1enum_1_1IntegerItem.html" target="_top" xlink:title="core.tools.generator.item.enum.\lIntegerItem">
<polygon fill="white" stroke="black" points="76.7363,-141.5 76.7363,-169.5 233.371,-169.5 233.371,-141.5 76.7363,-141.5"/>
<text text-anchor="start" x="84.7363" y="-157.5" font-family="Helvetica,sans-Serif" font-size="10.00">core.tools.generator.item.enum.</text>
<text text-anchor="middle" x="155.054" y="-147.5" font-family="Helvetica,sans-Serif" font-size="10.00">IntegerItem</text>
</a>
</g>
</g>
<!-- Node1&#45;&gt;Node3 -->
<g id="edge2" class="edge"><title>Node1&#45;&gt;Node3</title>
<path fill="none" stroke="midnightblue" d="M44.8229,-121.351C53.2108,-125.218 62.6187,-129.283 71.4482,-132.5 80.2603,-135.71 89.738,-138.733 99.02,-141.467"/>
<polygon fill="midnightblue" stroke="midnightblue" points="46.0775,-118.073 35.5406,-116.966 43.0877,-124.402 46.0775,-118.073"/>
</g>
<!-- Node4 -->
<g id="node4" class="node"><title>Node4</title>
<g id="a_node4"><a xlink:href="classcore_1_1tools_1_1generator_1_1item_1_1integer_1_1IntegerItem.html" target="_top" xlink:title="core.tools.generator.item.integer.\lIntegerItem">
<polygon fill="white" stroke="black" points="74.229,-94.5 74.229,-122.5 235.878,-122.5 235.878,-94.5 74.229,-94.5"/>
<text text-anchor="start" x="82.229" y="-110.5" font-family="Helvetica,sans-Serif" font-size="10.00">core.tools.generator.item.integer.</text>
<text text-anchor="middle" x="155.054" y="-100.5" font-family="Helvetica,sans-Serif" font-size="10.00">IntegerItem</text>
</a>
</g>
</g>
<!-- Node1&#45;&gt;Node4 -->
<g id="edge3" class="edge"><title>Node1&#45;&gt;Node4</title>
<path fill="none" stroke="midnightblue" d="M45.77,-108.5C54.1522,-108.5 63.8548,-108.5 73.9394,-108.5"/>
<polygon fill="midnightblue" stroke="midnightblue" points="45.5901,-105 35.5901,-108.5 45.59,-112 45.5901,-105"/>
</g>
<!-- Node5 -->
<g id="node5" class="node"><title>Node5</title>
<g id="a_node5"><a xlink:href="classcore_1_1tools_1_1generator_1_1item_1_1null_1_1NullItem.html" target="_top" xlink:title="core.tools.generator.item.null.\lNullItem">
<polygon fill="white" stroke="black" points="81.4604,-47.5 81.4604,-75.5 228.647,-75.5 228.647,-47.5 81.4604,-47.5"/>
<text text-anchor="start" x="89.4604" y="-63.5" font-family="Helvetica,sans-Serif" font-size="10.00">core.tools.generator.item.null.</text>
<text text-anchor="middle" x="155.054" y="-53.5" font-family="Helvetica,sans-Serif" font-size="10.00">NullItem</text>
</a>
</g>
</g>
<!-- Node1&#45;&gt;Node5 -->
<g id="edge4" class="edge"><title>Node1&#45;&gt;Node5</title>
<path fill="none" stroke="midnightblue" d="M44.889,-96.2947C53.2802,-92.5948 62.6734,-88.6738 71.4482,-85.5 81.1385,-81.9951 91.6062,-78.6361 101.728,-75.5989"/>
<polygon fill="midnightblue" stroke="midnightblue" points="43.2776,-93.1818 35.5959,-100.479 46.1513,-99.5648 43.2776,-93.1818"/>
</g>
<!-- Node6 -->
<g id="node6" class="node"><title>Node6</title>
<g id="a_node6"><a xlink:href="classcore_1_1tools_1_1generator_1_1item_1_1string_1_1StringItem.html" target="_top" xlink:title="core.tools.generator.item.string.\lStringItem">
<polygon fill="white" stroke="black" points="77.0171,-0.5 77.0171,-28.5 233.09,-28.5 233.09,-0.5 77.0171,-0.5"/>
<text text-anchor="start" x="85.0171" y="-16.5" font-family="Helvetica,sans-Serif" font-size="10.00">core.tools.generator.item.string.</text>
<text text-anchor="middle" x="155.054" y="-6.5" font-family="Helvetica,sans-Serif" font-size="10.00">StringItem</text>
</a>
</g>
</g>
<!-- Node1&#45;&gt;Node6 -->
<g id="edge5" class="edge"><title>Node1&#45;&gt;Node6</title>
<path fill="none" stroke="midnightblue" d="M27.9745,-90.3646C36.995,-74.4445 52.1597,-51.8096 71.4482,-38.5 77.1025,-34.5984 83.3919,-31.324 89.9057,-28.5774"/>
<polygon fill="midnightblue" stroke="midnightblue" points="24.8399,-88.8035 23.1701,-99.2659 30.9999,-92.1284 24.8399,-88.8035"/>
</g>
</g>
</svg>
