<?xml version="1.0" encoding="UTF-8" standalone="no"?>
<!DOCTYPE svg PUBLIC "-//W3C//DTD SVG 1.1//EN"
 "http://www.w3.org/Graphics/SVG/1.1/DTD/svg11.dtd">
<!-- Generated by graphviz version 2.38.0 (20140413.2041)
 -->
<!-- Title: Graphical Class Hierarchy Pages: 1 -->
<svg width="448pt" height="89pt"
 viewBox="0.00 0.00 447.87 89.00" xmlns="http://www.w3.org/2000/svg" xmlns:xlink="http://www.w3.org/1999/xlink">
<g id="graph0" class="graph" transform="scale(1 1) rotate(0) translate(4 85)">
<title>Graphical Class Hierarchy</title>
<polygon fill="white" stroke="none" points="-4,4 -4,-85 443.873,-85 443.873,4 -4,4"/>
<!-- Node1 -->
<g id="node1" class="node"><title>Node1</title>
<polygon fill="white" stroke="#bfbfbf" points="0,-49.5 0,-67.5 111.601,-67.5 111.601,-49.5 0,-49.5"/>
<text text-anchor="middle" x="55.8003" y="-55.5" font-family="Helvetica,sans-Serif" font-size="10.00">amba_master_socket</text>
</g>
<!-- Node2 -->
<g id="node2" class="node"><title>Node2</title>
<g id="a_node2"><a xlink:href="classgs_1_1amba_1_1amba__master.html" target="_top" xlink:title="gs::amba::amba_master\l\&lt; 32 \&gt;">
<polygon fill="white" stroke="black" points="147.601,-47.5 147.601,-75.5 271.428,-75.5 271.428,-47.5 147.601,-47.5"/>
<text text-anchor="start" x="155.601" y="-63.5" font-family="Helvetica,sans-Serif" font-size="10.00">gs::amba::amba_master</text>
<text text-anchor="middle" x="209.514" y="-53.5" font-family="Helvetica,sans-Serif" font-size="10.00">&lt; 32 &gt;</text>
</a>
</g>
</g>
<!-- Node1&#45;&gt;Node2 -->
<g id="edge1" class="edge"><title>Node1&#45;&gt;Node2</title>
<path fill="none" stroke="midnightblue" d="M122.138,-59.792C130.543,-59.9582 139.123,-60.1279 147.455,-60.2926"/>
<polygon fill="midnightblue" stroke="midnightblue" points="122.069,-56.29 112.002,-59.5916 121.93,-63.2887 122.069,-56.29"/>
</g>
<!-- Node4 -->
<g id="node4" class="node"><title>Node4</title>
<g id="a_node4"><a xlink:href="classgs_1_1amba_1_1amba__master.html" target="_top" xlink:title="gs::amba::amba_master\l\&lt; BUSWIDTH \&gt;">
<polygon fill="white" stroke="black" points="147.601,-0.5 147.601,-28.5 271.428,-28.5 271.428,-0.5 147.601,-0.5"/>
<text text-anchor="start" x="155.601" y="-16.5" font-family="Helvetica,sans-Serif" font-size="10.00">gs::amba::amba_master</text>
<text text-anchor="middle" x="209.514" y="-6.5" font-family="Helvetica,sans-Serif" font-size="10.00">&lt; BUSWIDTH &gt;</text>
</a>
</g>
</g>
<!-- Node1&#45;&gt;Node4 -->
<g id="edge3" class="edge"><title>Node1&#45;&gt;Node4</title>
<path fill="none" stroke="midnightblue" d="M97.5596,-46.679C116.839,-41.0877 139.998,-34.3711 160.159,-28.5239"/>
<polygon fill="midnightblue" stroke="midnightblue" points="96.4973,-43.3428 87.868,-49.4898 98.4471,-50.0658 96.4973,-43.3428"/>
</g>
<!-- Node3 -->
<g id="node3" class="node"><title>Node3</title>
<g id="a_node3"><a xlink:href="classgs_1_1reg_1_1greenreg__socket_3_01gs_1_1amba_1_1amba__master_3_0132_01_4_01_4.html" target="_top" xlink:title="gs::reg::greenreg_socket\l\&lt; gs::amba::amba_master\l\&lt; 32 \&gt; \&gt;">
<polygon fill="white" stroke="black" points="307.428,-42.5 307.428,-80.5 439.873,-80.5 439.873,-42.5 307.428,-42.5"/>
<text text-anchor="start" x="315.428" y="-68.5" font-family="Helvetica,sans-Serif" font-size="10.00">gs::reg::greenreg_socket</text>
<text text-anchor="start" x="315.428" y="-58.5" font-family="Helvetica,sans-Serif" font-size="10.00">&lt; gs::amba::amba_master</text>
<text text-anchor="middle" x="373.65" y="-48.5" font-family="Helvetica,sans-Serif" font-size="10.00">&lt; 32 &gt; &gt;</text>
</a>
</g>
</g>
<!-- Node2&#45;&gt;Node3 -->
<g id="edge2" class="edge"><title>Node2&#45;&gt;Node3</title>
<path fill="none" stroke="midnightblue" d="M281.961,-61.5C290.36,-61.5 298.898,-61.5 307.209,-61.5"/>
<polygon fill="midnightblue" stroke="midnightblue" points="281.811,-58.0001 271.811,-61.5 281.811,-65.0001 281.811,-58.0001"/>
</g>
<!-- Node5 -->
<g id="node5" class="node"><title>Node5</title>
<polygon fill="white" stroke="#bfbfbf" points="20.2881,-10.5 20.2881,-28.5 91.3125,-28.5 91.3125,-10.5 20.2881,-10.5"/>
<text text-anchor="middle" x="55.8003" y="-16.5" font-family="Helvetica,sans-Serif" font-size="10.00">transactor_if</text>
</g>
<!-- Node5&#45;&gt;Node2 -->
<g id="edge4" class="edge"><title>Node5&#45;&gt;Node2</title>
<path fill="none" stroke="midnightblue" d="M99.0969,-31.2093C117.31,-36.2513 138.756,-42.1884 157.814,-47.4642"/>
<polygon fill="midnightblue" stroke="midnightblue" points="99.9181,-27.805 89.3467,-28.5101 98.0504,-34.5513 99.9181,-27.805"/>
</g>
<!-- Node5&#45;&gt;Node4 -->
<g id="edge5" class="edge"><title>Node5&#45;&gt;Node4</title>
<path fill="none" stroke="midnightblue" d="M101.683,-18.0208C116.005,-17.5488 132.105,-17.0182 147.378,-16.5149"/>
<polygon fill="midnightblue" stroke="midnightblue" points="101.486,-14.5253 91.6065,-18.3529 101.716,-21.5215 101.486,-14.5253"/>
</g>
</g>
</svg>
