<?xml version="1.0" encoding="UTF-8" standalone="no"?>
<!DOCTYPE svg PUBLIC "-//W3C//DTD SVG 1.1//EN"
 "http://www.w3.org/Graphics/SVG/1.1/DTD/svg11.dtd">
<!-- Generated by graphviz version 2.38.0 (20140413.2041)
 -->
<!-- Title: gaisler/leon3/intunit/instructions.hpp Pages: 1 -->
<svg width="677pt" height="307pt"
 viewBox="0.00 0.00 676.50 307.00" xmlns="http://www.w3.org/2000/svg" xmlns:xlink="http://www.w3.org/1999/xlink">
<g id="graph0" class="graph" transform="scale(1 1) rotate(0) translate(4 303)">
<title>gaisler/leon3/intunit/instructions.hpp</title>
<polygon fill="white" stroke="none" points="-4,4 -4,-303 672.5,-303 672.5,4 -4,4"/>
<!-- Node1 -->
<g id="node1" class="node"><title>Node1</title>
<polygon fill="#bfbfbf" stroke="black" points="269,-268.5 269,-298.5 370,-298.5 370,-268.5 269,-268.5"/>
<text text-anchor="start" x="277" y="-286.5" font-family="Helvetica,sans-Serif" font-size="10.00">gaisler/leon3/intunit</text>
<text text-anchor="middle" x="319.5" y="-275.5" font-family="Helvetica,sans-Serif" font-size="10.00">/instructions.hpp</text>
</g>
<!-- Node2 -->
<g id="node2" class="node"><title>Node2</title>
<g id="a_node2"><a xlink:href="processor_8hpp.html" target="_top" xlink:title="gaisler/leon3/intunit\l/processor.hpp">
<polygon fill="white" stroke="black" points="111,-134.5 111,-164.5 212,-164.5 212,-134.5 111,-134.5"/>
<text text-anchor="start" x="119" y="-152.5" font-family="Helvetica,sans-Serif" font-size="10.00">gaisler/leon3/intunit</text>
<text text-anchor="middle" x="161.5" y="-141.5" font-family="Helvetica,sans-Serif" font-size="10.00">/processor.hpp</text>
</a>
</g>
</g>
<!-- Node1&#45;&gt;Node2 -->
<g id="edge1" class="edge"><title>Node1&#45;&gt;Node2</title>
<path fill="none" stroke="midnightblue" d="M258.778,-273.899C231.245,-266.976 200.456,-254.494 180.5,-232 163.82,-213.198 161.007,-182.589 160.936,-164.717"/>
<polygon fill="midnightblue" stroke="midnightblue" points="258.217,-277.361 268.748,-276.206 259.795,-270.541 258.217,-277.361"/>
</g>
<!-- Node6 -->
<g id="node6" class="node"><title>Node6</title>
<g id="a_node6"><a xlink:href="main_8cpp.html" target="_top" xlink:title="gaisler/leon3/intunit\l/main.cpp">
<polygon fill="white" stroke="black" points="0,-67.5 0,-97.5 101,-97.5 101,-67.5 0,-67.5"/>
<text text-anchor="start" x="8" y="-85.5" font-family="Helvetica,sans-Serif" font-size="10.00">gaisler/leon3/intunit</text>
<text text-anchor="middle" x="50.5" y="-74.5" font-family="Helvetica,sans-Serif" font-size="10.00">/main.cpp</text>
</a>
</g>
</g>
<!-- Node1&#45;&gt;Node6 -->
<g id="edge13" class="edge"><title>Node1&#45;&gt;Node6</title>
<path fill="none" stroke="midnightblue" d="M258.753,-270.789C228.206,-263.02 191.597,-250.721 162.5,-232 108.73,-197.405 71.1366,-127.49 56.8619,-97.5864"/>
<polygon fill="midnightblue" stroke="midnightblue" points="258.315,-274.285 268.86,-273.253 259.973,-267.484 258.315,-274.285"/>
</g>
<!-- Node7 -->
<g id="node7" class="node"><title>Node7</title>
<g id="a_node7"><a xlink:href="processor_8cpp.html" target="_top" xlink:title="gaisler/leon3/intunit\l/processor.cpp">
<polygon fill="white" stroke="black" points="244,-67.5 244,-97.5 345,-97.5 345,-67.5 244,-67.5"/>
<text text-anchor="start" x="252" y="-85.5" font-family="Helvetica,sans-Serif" font-size="10.00">gaisler/leon3/intunit</text>
<text text-anchor="middle" x="294.5" y="-74.5" font-family="Helvetica,sans-Serif" font-size="10.00">/processor.cpp</text>
</a>
</g>
</g>
<!-- Node1&#45;&gt;Node7 -->
<g id="edge14" class="edge"><title>Node1&#45;&gt;Node7</title>
<path fill="none" stroke="midnightblue" d="M340.326,-260.729C366.092,-231.029 403.761,-176.634 379.5,-134 369.992,-117.291 352.534,-105.537 335.902,-97.5995"/>
<polygon fill="midnightblue" stroke="midnightblue" points="337.501,-258.637 333.435,-268.42 342.714,-263.307 337.501,-258.637"/>
</g>
<!-- Node8 -->
<g id="node8" class="node"><title>Node8</title>
<g id="a_node8"><a xlink:href="decoder_8hpp.html" target="_top" xlink:title="gaisler/leon3/intunit\l/decoder.hpp">
<polygon fill="white" stroke="black" points="190,-201.5 190,-231.5 291,-231.5 291,-201.5 190,-201.5"/>
<text text-anchor="start" x="198" y="-219.5" font-family="Helvetica,sans-Serif" font-size="10.00">gaisler/leon3/intunit</text>
<text text-anchor="middle" x="240.5" y="-208.5" font-family="Helvetica,sans-Serif" font-size="10.00">/decoder.hpp</text>
</a>
</g>
</g>
<!-- Node1&#45;&gt;Node8 -->
<g id="edge7" class="edge"><title>Node1&#45;&gt;Node8</title>
<path fill="none" stroke="midnightblue" d="M294.443,-261.883C282.437,-252.005 268.368,-240.429 257.608,-231.577"/>
<polygon fill="midnightblue" stroke="midnightblue" points="292.412,-264.745 302.358,-268.396 296.86,-259.34 292.412,-264.745"/>
</g>
<!-- Node9 -->
<g id="node9" class="node"><title>Node9</title>
<g id="a_node9"><a xlink:href="decoder_8cpp.html" target="_top" xlink:title="gaisler/leon3/intunit\l/decoder.cpp">
<polygon fill="white" stroke="black" points="269,-134.5 269,-164.5 370,-164.5 370,-134.5 269,-134.5"/>
<text text-anchor="start" x="277" y="-152.5" font-family="Helvetica,sans-Serif" font-size="10.00">gaisler/leon3/intunit</text>
<text text-anchor="middle" x="319.5" y="-141.5" font-family="Helvetica,sans-Serif" font-size="10.00">/decoder.cpp</text>
</a>
</g>
</g>
<!-- Node1&#45;&gt;Node9 -->
<g id="edge11" class="edge"><title>Node1&#45;&gt;Node9</title>
<path fill="none" stroke="midnightblue" d="M319.5,-258.024C319.5,-230.512 319.5,-186.789 319.5,-164.525"/>
<polygon fill="midnightblue" stroke="midnightblue" points="316,-258.374 319.5,-268.374 323,-258.374 316,-258.374"/>
</g>
<!-- Node10 -->
<g id="node10" class="node"><title>Node10</title>
<g id="a_node10"><a xlink:href="instructions_8cpp.html" target="_top" xlink:title="gaisler/leon3/intunit\l/instructions.cpp">
<polygon fill="white" stroke="black" points="427,-201.5 427,-231.5 528,-231.5 528,-201.5 427,-201.5"/>
<text text-anchor="start" x="435" y="-219.5" font-family="Helvetica,sans-Serif" font-size="10.00">gaisler/leon3/intunit</text>
<text text-anchor="middle" x="477.5" y="-208.5" font-family="Helvetica,sans-Serif" font-size="10.00">/instructions.cpp</text>
</a>
</g>
</g>
<!-- Node1&#45;&gt;Node10 -->
<g id="edge12" class="edge"><title>Node1&#45;&gt;Node10</title>
<path fill="none" stroke="midnightblue" d="M363.146,-264.544C388.429,-254.143 419.798,-241.238 443.283,-231.577"/>
<polygon fill="midnightblue" stroke="midnightblue" points="361.7,-261.355 353.784,-268.396 364.363,-267.828 361.7,-261.355"/>
</g>
<!-- Node11 -->
<g id="node11" class="node"><title>Node11</title>
<g id="a_node11"><a xlink:href="mmu_8cpp.html" target="_top" xlink:title="gaisler/leon3/mmucache\l/mmu.cpp">
<polygon fill="white" stroke="black" points="546.5,-201.5 546.5,-231.5 668.5,-231.5 668.5,-201.5 546.5,-201.5"/>
<text text-anchor="start" x="554.5" y="-219.5" font-family="Helvetica,sans-Serif" font-size="10.00">gaisler/leon3/mmucache</text>
<text text-anchor="middle" x="607.5" y="-208.5" font-family="Helvetica,sans-Serif" font-size="10.00">/mmu.cpp</text>
</a>
</g>
</g>
<!-- Node1&#45;&gt;Node11 -->
<g id="edge15" class="edge"><title>Node1&#45;&gt;Node11</title>
<path fill="none" stroke="midnightblue" d="M380.137,-268.815C429.018,-257.782 497.445,-242.339 546.438,-231.281"/>
<polygon fill="midnightblue" stroke="midnightblue" points="379.31,-265.413 370.326,-271.029 380.851,-272.241 379.31,-265.413"/>
</g>
<!-- Node3 -->
<g id="node3" class="node"><title>Node3</title>
<g id="a_node3"><a xlink:href="gaisler_2leon3_2leon3_8h.html" target="_top" xlink:title="gaisler/leon3/leon3.h">
<polygon fill="white" stroke="black" points="119.5,-73 119.5,-92 225.5,-92 225.5,-73 119.5,-73"/>
<text text-anchor="middle" x="172.5" y="-80" font-family="Helvetica,sans-Serif" font-size="10.00">gaisler/leon3/leon3.h</text>
</a>
</g>
</g>
<!-- Node2&#45;&gt;Node3 -->
<g id="edge2" class="edge"><title>Node2&#45;&gt;Node3</title>
<path fill="none" stroke="midnightblue" d="M165.604,-124.25C167.505,-113.017 169.644,-100.377 171.029,-92.1945"/>
<polygon fill="midnightblue" stroke="midnightblue" points="162.105,-123.952 163.887,-134.396 169.006,-125.12 162.105,-123.952"/>
</g>
<!-- Node2&#45;&gt;Node6 -->
<g id="edge5" class="edge"><title>Node2&#45;&gt;Node6</title>
<path fill="none" stroke="midnightblue" d="M128.705,-129.296C111.336,-119.125 90.383,-106.855 74.5383,-97.5765"/>
<polygon fill="midnightblue" stroke="midnightblue" points="127.017,-132.363 137.415,-134.396 130.554,-126.322 127.017,-132.363"/>
</g>
<!-- Node2&#45;&gt;Node7 -->
<g id="edge6" class="edge"><title>Node2&#45;&gt;Node7</title>
<path fill="none" stroke="midnightblue" d="M199.37,-129.992C220.451,-119.689 246.277,-107.068 265.697,-97.5765"/>
<polygon fill="midnightblue" stroke="midnightblue" points="197.807,-126.86 190.359,-134.396 200.88,-133.15 197.807,-126.86"/>
</g>
<!-- Node4 -->
<g id="node4" class="node"><title>Node4</title>
<g id="a_node4"><a xlink:href="sc__main_8cpp.html" target="_top" xlink:title="core/platforms/leon3mp\l/sc_main.cpp">
<polygon fill="white" stroke="black" points="45,-0.5 45,-30.5 164,-30.5 164,-0.5 45,-0.5"/>
<text text-anchor="start" x="53" y="-18.5" font-family="Helvetica,sans-Serif" font-size="10.00">core/platforms/leon3mp</text>
<text text-anchor="middle" x="104.5" y="-7.5" font-family="Helvetica,sans-Serif" font-size="10.00">/sc_main.cpp</text>
</a>
</g>
</g>
<!-- Node3&#45;&gt;Node4 -->
<g id="edge3" class="edge"><title>Node3&#45;&gt;Node4</title>
<path fill="none" stroke="midnightblue" d="M155.884,-65.617C144.679,-54.9065 130.029,-40.9022 119.239,-30.589"/>
<polygon fill="midnightblue" stroke="midnightblue" points="153.682,-68.354 163.329,-72.7338 158.519,-63.2939 153.682,-68.354"/>
</g>
<!-- Node5 -->
<g id="node5" class="node"><title>Node5</title>
<g id="a_node5"><a xlink:href="leon3_8cpp.html" target="_top" xlink:title="gaisler/leon3/leon3.cpp">
<polygon fill="white" stroke="black" points="182.5,-6 182.5,-25 298.5,-25 298.5,-6 182.5,-6"/>
<text text-anchor="middle" x="240.5" y="-13" font-family="Helvetica,sans-Serif" font-size="10.00">gaisler/leon3/leon3.cpp</text>
</a>
</g>
</g>
<!-- Node3&#45;&gt;Node5 -->
<g id="edge4" class="edge"><title>Node3&#45;&gt;Node5</title>
<path fill="none" stroke="midnightblue" d="M189.242,-65.4968C202.577,-52.7496 220.733,-35.3947 231.475,-25.1273"/>
<polygon fill="midnightblue" stroke="midnightblue" points="186.481,-63.2939 181.671,-72.7338 191.318,-68.354 186.481,-63.2939"/>
</g>
<!-- Node8&#45;&gt;Node2 -->
<g id="edge8" class="edge"><title>Node8&#45;&gt;Node2</title>
<path fill="none" stroke="midnightblue" d="M215.443,-194.883C203.437,-185.005 189.368,-173.429 178.608,-164.577"/>
<polygon fill="midnightblue" stroke="midnightblue" points="213.412,-197.745 223.358,-201.396 217.86,-192.34 213.412,-197.745"/>
</g>
<!-- Node8&#45;&gt;Node7 -->
<g id="edge10" class="edge"><title>Node8&#45;&gt;Node7</title>
<path fill="none" stroke="midnightblue" d="M243.669,-191.425C246.439,-174.782 251.332,-152.411 259.5,-134 265.383,-120.739 274.893,-107.315 282.516,-97.6445"/>
<polygon fill="midnightblue" stroke="midnightblue" points="240.19,-191.023 242.142,-201.436 247.11,-192.078 240.19,-191.023"/>
</g>
<!-- Node8&#45;&gt;Node9 -->
<g id="edge9" class="edge"><title>Node8&#45;&gt;Node9</title>
<path fill="none" stroke="midnightblue" d="M265.557,-194.883C277.563,-185.005 291.632,-173.429 302.392,-164.577"/>
<polygon fill="midnightblue" stroke="midnightblue" points="263.14,-192.34 257.642,-201.396 267.588,-197.745 263.14,-192.34"/>
</g>
</g>
</svg>
