<?xml version="1.0" encoding="UTF-8" standalone="no"?>
<!DOCTYPE svg PUBLIC "-//W3C//DTD SVG 1.1//EN"
 "http://www.w3.org/Graphics/SVG/1.1/DTD/svg11.dtd">
<!-- Generated by graphviz version 2.38.0 (20140413.2041)
 -->
<!-- Title: core/common/sr_iss/intrinsics/intrinsicmanager.h Pages: 1 -->
<svg width="262pt" height="162pt"
 viewBox="0.00 0.00 261.50 162.00" xmlns="http://www.w3.org/2000/svg" xmlns:xlink="http://www.w3.org/1999/xlink">
<g id="graph0" class="graph" transform="scale(1 1) rotate(0) translate(4 158)">
<title>core/common/sr_iss/intrinsics/intrinsicmanager.h</title>
<polygon fill="white" stroke="none" points="-4,4 -4,-158 257.5,-158 257.5,4 -4,4"/>
<!-- Node1 -->
<g id="node1" class="node"><title>Node1</title>
<polygon fill="#bfbfbf" stroke="black" points="57,-123.5 57,-153.5 198,-153.5 198,-123.5 57,-123.5"/>
<text text-anchor="start" x="65" y="-141.5" font-family="Helvetica,sans-Serif" font-size="10.00">core/common/sr_iss</text>
<text text-anchor="middle" x="127.5" y="-130.5" font-family="Helvetica,sans-Serif" font-size="10.00">/intrinsics/intrinsicmanager.h</text>
</g>
<!-- Node2 -->
<g id="node2" class="node"><title>Node2</title>
<g id="a_node2"><a xlink:href="gaisler_2leon3_2leon3_8h.html" target="_top" xlink:title="gaisler/leon3/leon3.h">
<polygon fill="white" stroke="black" points="74.5,-67.5 74.5,-86.5 180.5,-86.5 180.5,-67.5 74.5,-67.5"/>
<text text-anchor="middle" x="127.5" y="-74.5" font-family="Helvetica,sans-Serif" font-size="10.00">gaisler/leon3/leon3.h</text>
</a>
</g>
</g>
<!-- Node1&#45;&gt;Node2 -->
<g id="edge1" class="edge"><title>Node1&#45;&gt;Node2</title>
<path fill="none" stroke="midnightblue" d="M127.5,-113.289C127.5,-103.857 127.5,-93.6548 127.5,-86.6578"/>
<polygon fill="midnightblue" stroke="midnightblue" points="124,-113.399 127.5,-123.399 131,-113.399 124,-113.399"/>
</g>
<!-- Node3 -->
<g id="node3" class="node"><title>Node3</title>
<g id="a_node3"><a xlink:href="sc__main_8cpp.html" target="_top" xlink:title="core/platforms/leon3mp\l/sc_main.cpp">
<polygon fill="white" stroke="black" points="0,-0.5 0,-30.5 119,-30.5 119,-0.5 0,-0.5"/>
<text text-anchor="start" x="8" y="-18.5" font-family="Helvetica,sans-Serif" font-size="10.00">core/platforms/leon3mp</text>
<text text-anchor="middle" x="59.5" y="-7.5" font-family="Helvetica,sans-Serif" font-size="10.00">/sc_main.cpp</text>
</a>
</g>
</g>
<!-- Node2&#45;&gt;Node3 -->
<g id="edge2" class="edge"><title>Node2&#45;&gt;Node3</title>
<path fill="none" stroke="midnightblue" d="M109.953,-60.6459C99.3235,-51.3456 85.868,-39.572 75.5263,-30.523"/>
<polygon fill="midnightblue" stroke="midnightblue" points="107.927,-63.524 117.757,-67.4751 112.536,-58.256 107.927,-63.524"/>
</g>
<!-- Node4 -->
<g id="node4" class="node"><title>Node4</title>
<g id="a_node4"><a xlink:href="leon3_8cpp.html" target="_top" xlink:title="gaisler/leon3/leon3.cpp">
<polygon fill="white" stroke="black" points="137.5,-6 137.5,-25 253.5,-25 253.5,-6 137.5,-6"/>
<text text-anchor="middle" x="195.5" y="-13" font-family="Helvetica,sans-Serif" font-size="10.00">gaisler/leon3/leon3.cpp</text>
</a>
</g>
</g>
<!-- Node2&#45;&gt;Node4 -->
<g id="edge3" class="edge"><title>Node2&#45;&gt;Node4</title>
<path fill="none" stroke="midnightblue" d="M145.043,-60.6496C158.008,-49.3058 175.179,-34.2811 185.775,-25.0091"/>
<polygon fill="midnightblue" stroke="midnightblue" points="142.464,-58.256 137.243,-67.4751 147.073,-63.524 142.464,-58.256"/>
</g>
</g>
</svg>
