<?xml version="1.0" encoding="UTF-8" standalone="no"?>
<!DOCTYPE svg PUBLIC "-//W3C//DTD SVG 1.1//EN"
 "http://www.w3.org/Graphics/SVG/1.1/DTD/svg11.dtd">
<!-- Generated by graphviz version 2.38.0 (20140413.2041)
 -->
<!-- Title: main Pages: 1 -->
<svg width="281pt" height="66pt"
 viewBox="0.00 0.00 281.00 66.00" xmlns="http://www.w3.org/2000/svg" xmlns:xlink="http://www.w3.org/1999/xlink">
<g id="graph0" class="graph" transform="scale(1 1) rotate(0) translate(4 62)">
<title>main</title>
<polygon fill="white" stroke="none" points="-4,4 -4,-62 277,-62 277,4 -4,4"/>
<!-- Node1 -->
<g id="node1" class="node"><title>Node1</title>
<polygon fill="#bfbfbf" stroke="black" points="0,-19.5 0,-38.5 38,-38.5 38,-19.5 0,-19.5"/>
<text text-anchor="middle" x="19" y="-26.5" font-family="Helvetica,sans-Serif" font-size="10.00">main</text>
</g>
<!-- Node2 -->
<g id="node2" class="node"><title>Node2</title>
<g id="a_node2"><a xlink:href="crc_8c.html#ad9212c0c4d94849a33a471c1d8bb2a24" target="_top" xlink:title="icrc">
<polygon fill="white" stroke="black" points="74,-19.5 74,-38.5 106,-38.5 106,-19.5 74,-19.5"/>
<text text-anchor="middle" x="90" y="-26.5" font-family="Helvetica,sans-Serif" font-size="10.00">icrc</text>
</a>
</g>
</g>
<!-- Node1&#45;&gt;Node2 -->
<g id="edge1" class="edge"><title>Node1&#45;&gt;Node2</title>
<path fill="none" stroke="midnightblue" d="M38.1289,-29C45.8776,-29 55.0606,-29 63.4774,-29"/>
<polygon fill="midnightblue" stroke="midnightblue" points="63.5634,-32.5001 73.5634,-29 63.5633,-25.5001 63.5634,-32.5001"/>
</g>
<!-- Node3 -->
<g id="node3" class="node"><title>Node3</title>
<g id="a_node3"><a xlink:href="crc_8c.html#a1f30fa7af5b92b0a78c222327f85c467" target="_top" xlink:title="icrc1">
<polygon fill="white" stroke="black" points="188.5,-38.5 188.5,-57.5 226.5,-57.5 226.5,-38.5 188.5,-38.5"/>
<text text-anchor="middle" x="207.5" y="-45.5" font-family="Helvetica,sans-Serif" font-size="10.00">icrc1</text>
</a>
</g>
</g>
<!-- Node2&#45;&gt;Node3 -->
<g id="edge2" class="edge"><title>Node2&#45;&gt;Node3</title>
<path fill="none" stroke="midnightblue" d="M106.1,-31.4839C124.364,-34.4885 155.489,-39.6085 178.252,-43.3532"/>
<polygon fill="midnightblue" stroke="midnightblue" points="177.918,-46.8452 188.354,-45.0149 179.055,-39.9381 177.918,-46.8452"/>
</g>
<!-- Node4 -->
<g id="node4" class="node"><title>Node4</title>
<g id="a_node4"><a xlink:href="namespacecore_1_1waf_1_1subcommand.html#a8e18be536636aed83619d2d95cb3c27d" target="_top" xlink:title="core.waf.subcommand.init">
<polygon fill="white" stroke="black" points="142,-0.5 142,-19.5 273,-19.5 273,-0.5 142,-0.5"/>
<text text-anchor="middle" x="207.5" y="-7.5" font-family="Helvetica,sans-Serif" font-size="10.00">core.waf.subcommand.init</text>
</a>
</g>
</g>
<!-- Node2&#45;&gt;Node4 -->
<g id="edge3" class="edge"><title>Node2&#45;&gt;Node4</title>
<path fill="none" stroke="midnightblue" d="M106.1,-26.5161C114.833,-25.0795 126.506,-23.1592 138.8,-21.1369"/>
<polygon fill="midnightblue" stroke="midnightblue" points="139.448,-24.5773 148.747,-19.5004 138.312,-17.6701 139.448,-24.5773"/>
</g>
</g>
</svg>
