<?xml version="1.0" encoding="UTF-8" standalone="no"?>
<!DOCTYPE svg PUBLIC "-//W3C//DTD SVG 1.1//EN"
 "http://www.w3.org/Graphics/SVG/1.1/DTD/svg11.dtd">
<!-- Generated by graphviz version 2.26.0 (20091210.2329)
 -->
<!-- Title: main Pages: 1 -->
<svg width="174pt" height="70pt"
 viewBox="0.00 0.00 174.00 70.00" xmlns="http://www.w3.org/2000/svg" xmlns:xlink="http://www.w3.org/1999/xlink">
<g id="graph1" class="graph" transform="scale(1 1) rotate(0) translate(4 66)">
<title>main</title>
<polygon fill="white" stroke="white" points="-4,5 -4,-66 171,-66 171,5 -4,5"/>
<!-- Node1 -->
<g id="node1" class="node"><title>Node1</title>
<polygon fill="#bfbfbf" stroke="black" points="0,-20.5 0,-41.5 38,-41.5 38,-20.5 0,-20.5"/>
<text text-anchor="middle" x="19" y="-28.5" font-family="Helvetica,sans-Serif" font-size="10.00">main</text>
</g>
<!-- Node2 -->
<g id="node3" class="node"><title>Node2</title>
<a xlink:href="namespacecore_1_1waf_1_1cmake.html#a2cc9c2d5713380ebb07751a69eeb9bc6" target="_top" xlink:title="core.waf.cmake.f">
<polygon fill="white" stroke="black" points="74,-40.5 74,-61.5 166,-61.5 166,-40.5 74,-40.5"/>
<text text-anchor="middle" x="120" y="-48.5" font-family="Helvetica,sans-Serif" font-size="10.00">core.waf.cmake.f</text>
</a>
</g>
<!-- Node1&#45;&gt;Node2 -->
<g id="edge2" class="edge"><title>Node1&#45;&gt;Node2</title>
<path fill="none" stroke="midnightblue" d="M38.4738,-34.8562C45.8828,-36.3233 54.7465,-38.0785 63.8584,-39.8828"/>
<polygon fill="midnightblue" stroke="midnightblue" points="63.2965,-43.3395 73.7859,-41.8487 64.6563,-36.4728 63.2965,-43.3395"/>
</g>
<!-- Node3 -->
<g id="node5" class="node"><title>Node3</title>
<a xlink:href="io__less_2matrix_8c.html#afb46d4f8d7705b028068661a88f1e647" target="_top" xlink:title="matrix_pin_down">
<polygon fill="white" stroke="black" points="75,-0.5 75,-21.5 165,-21.5 165,-0.5 75,-0.5"/>
<text text-anchor="middle" x="120" y="-8.5" font-family="Helvetica,sans-Serif" font-size="10.00">matrix_pin_down</text>
</a>
</g>
<!-- Node1&#45;&gt;Node3 -->
<g id="edge4" class="edge"><title>Node1&#45;&gt;Node3</title>
<path fill="none" stroke="midnightblue" d="M38.4738,-27.1438C46.1318,-25.6274 55.344,-23.8032 64.7778,-21.9351"/>
<polygon fill="midnightblue" stroke="midnightblue" points="65.5037,-25.3594 74.6333,-19.9835 64.1439,-18.4927 65.5037,-25.3594"/>
</g>
</g>
</svg>
