<?xml version="1.0" encoding="UTF-8" standalone="no"?>
<!DOCTYPE svg PUBLIC "-//W3C//DTD SVG 1.1//EN"
 "http://www.w3.org/Graphics/SVG/1.1/DTD/svg11.dtd">
<!-- Generated by graphviz version 2.26.0 (20091210.2329)
 -->
<!-- Title: core/models/extern/LEON3/simulatorSources/leon3.funclt/irqPorts.hpp Pages: 1 -->
<!--zoomable 702 -->
<svg id="main" version="1.1" xmlns="http://www.w3.org/2000/svg" xmlns:xlink="http://www.w3.org/1999/xlink" xml:space="preserve" onload="init(evt)">
<style type="text/css"><![CDATA[
.edge:hover path { stroke: red; }
.edge:hover polygon { stroke: red; fill: red; }
]]></style>
<script type="text/javascript"><![CDATA[
var edges = document.getElementsByTagName('g');
if (edges && edges.length) {
  for (var i=0;i<edges.length;i++) {
    if (edges[i].id.substr(0,4)=='edge') {
      edges[i].setAttribute('class','edge');
    }
  }
}
]]></script>
        <defs>
                <circle id="rim" cx="0" cy="0" r="7"/>
                <circle id="rim2" cx="0" cy="0" r="3.5"/>
                <g id="zoomPlus">
                        <use xlink:href="#rim" fill="#404040">
                                <set attributeName="fill" to="#808080" begin="zoomplus.mouseover" end="zoomplus.mouseout"/>
                        </use>
                        <path d="M-4,0h8M0,-4v8" fill="none" stroke="white" stroke-width="1.5" pointer-events="none"/>
                </g>
                <g id="zoomMin">
                        <use xlink:href="#rim" fill="#404040">
                                <set attributeName="fill" to="#808080" begin="zoomminus.mouseover" end="zoomminus.mouseout"/>
                        </use>
                        <path d="M-4,0h8" fill="none" stroke="white" stroke-width="1.5" pointer-events="none"/>
                </g>
                <g id="dirArrow">
                        <path fill="none" stroke="white" stroke-width="1.5" d="M0,-3.0v7 M-2.5,-0.5L0,-3.0L2.5,-0.5"/>
                </g>
               <g id="resetDef">
                       <use xlink:href="#rim2" fill="#404040">
                               <set attributeName="fill" to="#808080" begin="reset.mouseover" end="reset.mouseout"/>
                       </use>
               </g>
        </defs>

<script type="text/javascript">
var viewWidth = 1528;
var viewHeight = 702;
var sectionId = 'dynsection-0';
</script>
<script xlink:href="svgpan.js"/>
<svg id="graph" class="graph">
<g id="viewport">
<title>core/models/extern/LEON3/simulatorSources/leon3.funclt/irqPorts.hpp</title>
<polygon fill="white" stroke="white" points="-4,5 -4,-698 1525.07,-698 1525.07,5 -4,5"/>
<!-- Node1 -->
<g id="node1" class="node"><title>Node1</title>
<polygon fill="#bfbfbf" stroke="black" points="569.5,-646.5 569.5,-693.5 700.5,-693.5 700.5,-646.5 569.5,-646.5"/>
<text text-anchor="start" x="577.5" y="-680.5" font-family="Helvetica,sans-Serif" font-size="10.00">core/models/extern</text>
<text text-anchor="start" x="577.5" y="-667.5" font-family="Helvetica,sans-Serif" font-size="10.00">/LEON3/simulatorSources</text>
<text text-anchor="middle" x="635" y="-654.5" font-family="Helvetica,sans-Serif" font-size="10.00">/leon3.funclt/irqPorts.hpp</text>
</g>
<!-- Node2 -->
<g id="node3" class="node"><title>Node2</title>
<a xlink:href="systemc_8h.html" target="_top" xlink:title="core/common/systemc.h">
<polygon fill="white" stroke="black" points="162.5,-581.5 162.5,-602.5 287.5,-602.5 287.5,-581.5 162.5,-581.5"/>
<text text-anchor="middle" x="225" y="-589.5" font-family="Helvetica,sans-Serif" font-size="10.00">core/common/systemc.h</text>
</a>
</g>
<!-- Node1&#45;&gt;Node2 -->
<g id="edge2" class="edge"><title>Node1&#45;&gt;Node2</title>
<path fill="none" stroke="midnightblue" d="M569.126,-657.468C492.437,-642.878 366.565,-618.932 290.176,-604.399"/>
<polygon fill="midnightblue" stroke="midnightblue" points="290.673,-600.931 280.195,-602.5 289.364,-607.808 290.673,-600.931"/>
</g>
<!-- Node7 -->
<g id="node14" class="node"><title>Node7</title>
<a xlink:href="trap__utils_8hpp.html" target="_top" xlink:title="core/common/trapgen\l/utils/trap_utils.hpp">
<polygon fill="white" stroke="black" points="579.5,-575 579.5,-609 690.5,-609 690.5,-575 579.5,-575"/>
<text text-anchor="start" x="587.5" y="-596" font-family="Helvetica,sans-Serif" font-size="10.00">core/common/trapgen</text>
<text text-anchor="middle" x="635" y="-583" font-family="Helvetica,sans-Serif" font-size="10.00">/utils/trap_utils.hpp</text>
</a>
</g>
<!-- Node1&#45;&gt;Node7 -->
<g id="edge14" class="edge"><title>Node1&#45;&gt;Node7</title>
<path fill="none" stroke="midnightblue" d="M635,-646.174C635,-637.638 635,-627.952 635,-619.156"/>
<polygon fill="midnightblue" stroke="midnightblue" points="638.5,-619.003 635,-609.003 631.5,-619.003 638.5,-619.003"/>
</g>
<!-- Node15 -->
<g id="node34" class="node"><title>Node15</title>
<a xlink:href="signalkit_8h.html" target="_top" xlink:title="core/common/signalkit.h">
<polygon fill="white" stroke="black" points="895.5,-581.5 895.5,-602.5 1018.5,-602.5 1018.5,-581.5 895.5,-581.5"/>
<text text-anchor="middle" x="957" y="-589.5" font-family="Helvetica,sans-Serif" font-size="10.00">core/common/signalkit.h</text>
</a>
</g>
<!-- Node1&#45;&gt;Node15 -->
<g id="edge38" class="edge"><title>Node1&#45;&gt;Node15</title>
<path fill="none" stroke="midnightblue" d="M700.55,-654.122C760.272,-639.655 847.419,-618.544 903.166,-605.041"/>
<polygon fill="midnightblue" stroke="midnightblue" points="904.301,-608.367 913.196,-602.611 902.653,-601.564 904.301,-608.367"/>
</g>
<!-- Node2&#45;&gt;Node2 -->
<g id="edge4" class="edge"><title>Node2&#45;&gt;Node2</title>
<path fill="none" stroke="midnightblue" d="M250.395,-602.534C276.237,-608.73 305,-605.219 305,-592 305,-580.485 283.174,-576.337 260.466,-579.554"/>
<polygon fill="midnightblue" stroke="midnightblue" points="259.567,-576.162 250.395,-581.466 260.873,-583.039 259.567,-576.162"/>
</g>
<!-- Node3 -->
<g id="node6" class="node"><title>Node3</title>
<polygon fill="white" stroke="#bfbfbf" points="112,-509.5 112,-530.5 150,-530.5 150,-509.5 112,-509.5"/>
<text text-anchor="middle" x="131" y="-517.5" font-family="Helvetica,sans-Serif" font-size="10.00">tlm.h</text>
</g>
<!-- Node2&#45;&gt;Node3 -->
<g id="edge6" class="edge"><title>Node2&#45;&gt;Node3</title>
<path fill="none" stroke="midnightblue" d="M211.13,-581.376C195.857,-569.678 171.087,-550.705 153.126,-536.948"/>
<polygon fill="midnightblue" stroke="midnightblue" points="154.994,-533.97 144.927,-530.667 150.737,-539.527 154.994,-533.97"/>
</g>
<!-- Node4 -->
<g id="node8" class="node"><title>Node4</title>
<polygon fill="white" stroke="#bfbfbf" points="167.5,-503 167.5,-537 282.5,-537 282.5,-503 167.5,-503"/>
<text text-anchor="start" x="175.5" y="-524" font-family="Helvetica,sans-Serif" font-size="10.00">tlm_utils/simple_target</text>
<text text-anchor="middle" x="225" y="-511" font-family="Helvetica,sans-Serif" font-size="10.00">_socket.h</text>
</g>
<!-- Node2&#45;&gt;Node4 -->
<g id="edge8" class="edge"><title>Node2&#45;&gt;Node4</title>
<path fill="none" stroke="midnightblue" d="M225,-581.376C225,-572.451 225,-559.293 225,-547.446"/>
<polygon fill="midnightblue" stroke="midnightblue" points="228.5,-547.094 225,-537.094 221.5,-547.094 228.5,-547.094"/>
</g>
<!-- Node5 -->
<g id="node10" class="node"><title>Node5</title>
<polygon fill="white" stroke="#bfbfbf" points="300,-503 300,-537 422,-537 422,-503 300,-503"/>
<text text-anchor="start" x="308" y="-524" font-family="Helvetica,sans-Serif" font-size="10.00">tlm_utils/simple_initiator</text>
<text text-anchor="middle" x="361" y="-511" font-family="Helvetica,sans-Serif" font-size="10.00">_socket.h</text>
</g>
<!-- Node2&#45;&gt;Node5 -->
<g id="edge10" class="edge"><title>Node2&#45;&gt;Node5</title>
<path fill="none" stroke="midnightblue" d="M245.067,-581.376C264.592,-571.04 294.843,-555.025 319.548,-541.945"/>
<polygon fill="midnightblue" stroke="midnightblue" points="321.51,-544.867 328.711,-537.094 318.235,-538.68 321.51,-544.867"/>
</g>
<!-- Node6 -->
<g id="node12" class="node"><title>Node6</title>
<polygon fill="white" stroke="#bfbfbf" points="-0.5,-503 -0.5,-537 94.5,-537 94.5,-503 -0.5,-503"/>
<text text-anchor="start" x="7.5" y="-524" font-family="Helvetica,sans-Serif" font-size="10.00">tlm_utils/peq_with</text>
<text text-anchor="middle" x="47" y="-511" font-family="Helvetica,sans-Serif" font-size="10.00">_get.h</text>
</g>
<!-- Node2&#45;&gt;Node6 -->
<g id="edge12" class="edge"><title>Node2&#45;&gt;Node6</title>
<path fill="none" stroke="midnightblue" d="M198.735,-581.376C172.506,-570.767 131.486,-554.174 98.7055,-540.915"/>
<polygon fill="midnightblue" stroke="midnightblue" points="99.8439,-537.6 89.2611,-537.094 97.219,-544.089 99.8439,-537.6"/>
</g>
<!-- Node8 -->
<g id="node16" class="node"><title>Node8</title>
<polygon fill="white" stroke="#bfbfbf" points="623.5,-437.5 623.5,-458.5 682.5,-458.5 682.5,-437.5 623.5,-437.5"/>
<text text-anchor="middle" x="653" y="-445.5" font-family="Helvetica,sans-Serif" font-size="10.00">exception</text>
</g>
<!-- Node7&#45;&gt;Node8 -->
<g id="edge16" class="edge"><title>Node7&#45;&gt;Node8</title>
<path fill="none" stroke="midnightblue" d="M647.417,-574.966C654.057,-564.789 661.557,-551.289 665,-538 671.082,-514.529 665.523,-486.773 660.117,-468.353"/>
<polygon fill="midnightblue" stroke="midnightblue" points="663.409,-467.157 657.04,-458.69 656.739,-469.281 663.409,-467.157"/>
</g>
<!-- Node9 -->
<g id="node18" class="node"><title>Node9</title>
<polygon fill="white" stroke="#bfbfbf" points="700,-437.5 700,-458.5 754,-458.5 754,-437.5 700,-437.5"/>
<text text-anchor="middle" x="727" y="-445.5" font-family="Helvetica,sans-Serif" font-size="10.00">iostream</text>
</g>
<!-- Node7&#45;&gt;Node9 -->
<g id="edge18" class="edge"><title>Node7&#45;&gt;Node9</title>
<path fill="none" stroke="midnightblue" d="M690.666,-577.166C724.525,-566.892 763.101,-552.503 773,-538 789.085,-514.434 766.18,-484.497 747.325,-465.788"/>
<polygon fill="midnightblue" stroke="midnightblue" points="749.545,-463.07 739.875,-458.741 744.735,-468.156 749.545,-463.07"/>
</g>
<!-- Node10 -->
<g id="node20" class="node"><title>Node10</title>
<polygon fill="white" stroke="#bfbfbf" points="712,-509.5 712,-530.5 764,-530.5 764,-509.5 712,-509.5"/>
<text text-anchor="middle" x="738" y="-517.5" font-family="Helvetica,sans-Serif" font-size="10.00">sstream</text>
</g>
<!-- Node7&#45;&gt;Node10 -->
<g id="edge20" class="edge"><title>Node7&#45;&gt;Node10</title>
<path fill="none" stroke="midnightblue" d="M659.41,-574.937C675.974,-563.358 697.764,-548.126 714.198,-536.638"/>
<polygon fill="midnightblue" stroke="midnightblue" points="716.519,-539.286 722.71,-530.688 712.509,-533.549 716.519,-539.286"/>
</g>
<!-- Node11 -->
<g id="node22" class="node"><title>Node11</title>
<polygon fill="white" stroke="#bfbfbf" points="421.5,-437.5 421.5,-458.5 480.5,-458.5 480.5,-437.5 421.5,-437.5"/>
<text text-anchor="middle" x="451" y="-445.5" font-family="Helvetica,sans-Serif" font-size="10.00">stdexcept</text>
</g>
<!-- Node7&#45;&gt;Node11 -->
<g id="edge22" class="edge"><title>Node7&#45;&gt;Node11</title>
<path fill="none" stroke="midnightblue" d="M579.467,-580.487C551.744,-572.422 519.253,-559.183 496,-538 475.311,-519.153 462.893,-488.648 456.496,-468.457"/>
<polygon fill="midnightblue" stroke="midnightblue" points="459.804,-467.3 453.618,-458.698 453.09,-469.28 459.804,-467.3"/>
</g>
<!-- Node12 -->
<g id="node24" class="node"><title>Node12</title>
<polygon fill="white" stroke="#bfbfbf" points="499.5,-437.5 499.5,-458.5 540.5,-458.5 540.5,-437.5 499.5,-437.5"/>
<text text-anchor="middle" x="520" y="-445.5" font-family="Helvetica,sans-Serif" font-size="10.00">string</text>
</g>
<!-- Node7&#45;&gt;Node12 -->
<g id="edge24" class="edge"><title>Node7&#45;&gt;Node12</title>
<path fill="none" stroke="midnightblue" d="M579.216,-583.075C552.612,-575.712 523.134,-562.318 507,-538 493.101,-517.052 501.524,-487.341 509.876,-467.874"/>
<polygon fill="midnightblue" stroke="midnightblue" points="513.085,-469.273 514.119,-458.729 506.735,-466.327 513.085,-469.273"/>
</g>
<!-- Node13 -->
<g id="node26" class="node"><title>Node13</title>
<a xlink:href="customExceptions_8hpp.html" target="_top" xlink:title="core/common/trapgen\l/utils/customExceptions.hpp">
<polygon fill="white" stroke="black" points="516,-503 516,-537 656,-537 656,-503 516,-503"/>
<text text-anchor="start" x="524" y="-524" font-family="Helvetica,sans-Serif" font-size="10.00">core/common/trapgen</text>
<text text-anchor="middle" x="586" y="-511" font-family="Helvetica,sans-Serif" font-size="10.00">/utils/customExceptions.hpp</text>
</a>
</g>
<!-- Node7&#45;&gt;Node13 -->
<g id="edge26" class="edge"><title>Node7&#45;&gt;Node13</title>
<path fill="none" stroke="midnightblue" d="M623.388,-574.937C617.494,-566.277 610.209,-555.573 603.64,-545.921"/>
<polygon fill="midnightblue" stroke="midnightblue" points="606.389,-543.739 597.869,-537.441 600.602,-547.677 606.389,-543.739"/>
</g>
<!-- Node13&#45;&gt;Node8 -->
<g id="edge30" class="edge"><title>Node13&#45;&gt;Node8</title>
<path fill="none" stroke="midnightblue" d="M601.878,-502.937C612.092,-491.961 625.36,-477.702 635.82,-466.462"/>
<polygon fill="midnightblue" stroke="midnightblue" points="638.606,-468.606 642.856,-458.901 633.481,-463.837 638.606,-468.606"/>
</g>
<!-- Node13&#45;&gt;Node9 -->
<g id="edge32" class="edge"><title>Node13&#45;&gt;Node9</title>
<path fill="none" stroke="midnightblue" d="M619.415,-502.937C642.93,-490.929 674.14,-474.992 696.886,-463.377"/>
<polygon fill="midnightblue" stroke="midnightblue" points="698.755,-466.353 706.069,-458.688 695.571,-460.119 698.755,-466.353"/>
</g>
<!-- Node13&#45;&gt;Node11 -->
<g id="edge34" class="edge"><title>Node13&#45;&gt;Node11</title>
<path fill="none" stroke="midnightblue" d="M554.007,-502.937C531.593,-490.983 501.878,-475.135 480.125,-463.533"/>
<polygon fill="midnightblue" stroke="midnightblue" points="481.511,-460.306 471.04,-458.688 478.217,-466.482 481.511,-460.306"/>
</g>
<!-- Node13&#45;&gt;Node12 -->
<g id="edge36" class="edge"><title>Node13&#45;&gt;Node12</title>
<path fill="none" stroke="midnightblue" d="M570.359,-502.937C560.298,-491.961 547.227,-477.702 536.924,-466.462"/>
<polygon fill="midnightblue" stroke="midnightblue" points="539.33,-463.908 529.993,-458.901 534.17,-468.638 539.33,-463.908"/>
</g>
<!-- Node14 -->
<g id="node28" class="node"><title>Node14</title>
<polygon fill="white" stroke="#bfbfbf" points="561.5,-437.5 561.5,-458.5 606.5,-458.5 606.5,-437.5 561.5,-437.5"/>
<text text-anchor="middle" x="584" y="-445.5" font-family="Helvetica,sans-Serif" font-size="10.00">cstdlib</text>
</g>
<!-- Node13&#45;&gt;Node14 -->
<g id="edge28" class="edge"><title>Node13&#45;&gt;Node14</title>
<path fill="none" stroke="midnightblue" d="M585.526,-502.937C585.245,-492.814 584.886,-479.898 584.587,-469.133"/>
<polygon fill="midnightblue" stroke="midnightblue" points="588.079,-468.8 584.303,-458.901 581.082,-468.994 588.079,-468.8"/>
</g>
<!-- Node16 -->
<g id="node36" class="node"><title>Node16</title>
<a xlink:href="module_8h.html" target="_top" xlink:title="core/common/signalkit\l_h/module.h">
<polygon fill="white" stroke="black" points="1055.5,-275 1055.5,-309 1170.5,-309 1170.5,-275 1055.5,-275"/>
<text text-anchor="start" x="1063.5" y="-296" font-family="Helvetica,sans-Serif" font-size="10.00">core/common/signalkit</text>
<text text-anchor="middle" x="1113" y="-283" font-family="Helvetica,sans-Serif" font-size="10.00">_h/module.h</text>
</a>
</g>
<!-- Node15&#45;&gt;Node16 -->
<g id="edge40" class="edge"><title>Node15&#45;&gt;Node16</title>
<path fill="none" stroke="midnightblue" d="M960.228,-581.355C974.365,-534.78 1030.28,-351.024 1034,-346 1043.24,-333.524 1056.25,-322.961 1069.06,-314.577"/>
<polygon fill="midnightblue" stroke="midnightblue" points="1071.2,-317.372 1077.85,-309.125 1067.51,-311.424 1071.2,-317.372"/>
</g>
<!-- Node27 -->
<g id="node73" class="node"><title>Node27</title>
<a xlink:href="adapter_8h.html" target="_top" xlink:title="core/common/signalkit\l_h/adapter.h">
<polygon fill="white" stroke="black" points="1048.5,-431 1048.5,-465 1163.5,-465 1163.5,-431 1048.5,-431"/>
<text text-anchor="start" x="1056.5" y="-452" font-family="Helvetica,sans-Serif" font-size="10.00">core/common/signalkit</text>
<text text-anchor="middle" x="1106" y="-439" font-family="Helvetica,sans-Serif" font-size="10.00">_h/adapter.h</text>
</a>
</g>
<!-- Node15&#45;&gt;Node27 -->
<g id="edge92" class="edge"><title>Node15&#45;&gt;Node27</title>
<path fill="none" stroke="midnightblue" d="M970.368,-581.457C983.583,-570.866 1004.2,-553.881 1021,-538 1043.41,-516.811 1067.4,-491.098 1084.17,-472.59"/>
<polygon fill="midnightblue" stroke="midnightblue" points="1086.79,-474.907 1090.88,-465.134 1081.59,-470.222 1086.79,-474.907"/>
</g>
<!-- Node31 -->
<g id="node87" class="node"><title>Node31</title>
<a xlink:href="connect_8h.html" target="_top" xlink:title="core/common/signalkit\l_h/connect.h">
<polygon fill="white" stroke="black" points="849.5,-503 849.5,-537 964.5,-537 964.5,-503 849.5,-503"/>
<text text-anchor="start" x="857.5" y="-524" font-family="Helvetica,sans-Serif" font-size="10.00">core/common/signalkit</text>
<text text-anchor="middle" x="907" y="-511" font-family="Helvetica,sans-Serif" font-size="10.00">_h/connect.h</text>
</a>
</g>
<!-- Node15&#45;&gt;Node31 -->
<g id="edge112" class="edge"><title>Node15&#45;&gt;Node31</title>
<path fill="none" stroke="midnightblue" d="M949.622,-581.376C943.108,-571.996 933.347,-557.939 924.808,-545.644"/>
<polygon fill="midnightblue" stroke="midnightblue" points="927.45,-543.312 918.871,-537.094 921.7,-547.304 927.45,-543.312"/>
</g>
<!-- Node17 -->
<g id="node38" class="node"><title>Node17</title>
<a xlink:href="in_8h.html" target="_top" xlink:title="core/common/signalkit\l_h/in.h">
<polygon fill="white" stroke="black" points="1093.5,-131 1093.5,-165 1208.5,-165 1208.5,-131 1093.5,-131"/>
<text text-anchor="start" x="1101.5" y="-152" font-family="Helvetica,sans-Serif" font-size="10.00">core/common/signalkit</text>
<text text-anchor="middle" x="1151" y="-139" font-family="Helvetica,sans-Serif" font-size="10.00">_h/in.h</text>
</a>
</g>
<!-- Node16&#45;&gt;Node17 -->
<g id="edge42" class="edge"><title>Node16&#45;&gt;Node17</title>
<path fill="none" stroke="midnightblue" d="M1144.37,-274.903C1157.65,-265.845 1171.71,-253.386 1179,-238 1188.83,-217.254 1179.48,-192.216 1169.01,-173.822"/>
<polygon fill="midnightblue" stroke="midnightblue" points="1171.9,-171.832 1163.7,-165.12 1165.92,-175.479 1171.9,-171.832"/>
</g>
<!-- Node22 -->
<g id="node49" class="node"><title>Node22</title>
<a xlink:href="out_8h.html" target="_top" xlink:title="core/common/signalkit\l_h/out.h">
<polygon fill="white" stroke="black" points="885.5,-131 885.5,-165 1000.5,-165 1000.5,-131 885.5,-131"/>
<text text-anchor="start" x="893.5" y="-152" font-family="Helvetica,sans-Serif" font-size="10.00">core/common/signalkit</text>
<text text-anchor="middle" x="943" y="-139" font-family="Helvetica,sans-Serif" font-size="10.00">_h/out.h</text>
</a>
</g>
<!-- Node16&#45;&gt;Node22 -->
<g id="edge54" class="edge"><title>Node16&#45;&gt;Node22</title>
<path fill="none" stroke="midnightblue" d="M1091.27,-274.877C1078.24,-264.447 1061.44,-250.72 1047,-238 1029.54,-222.624 1026.46,-217.376 1009,-202 997.378,-191.764 984.233,-180.877 972.751,-171.579"/>
<polygon fill="midnightblue" stroke="midnightblue" points="974.714,-168.667 964.73,-165.123 970.325,-174.12 974.714,-168.667"/>
</g>
<!-- Node23 -->
<g id="node54" class="node"><title>Node23</title>
<a xlink:href="inout_8h.html" target="_top" xlink:title="core/common/signalkit\l_h/inout.h">
<polygon fill="white" stroke="black" points="885.5,-203 885.5,-237 1000.5,-237 1000.5,-203 885.5,-203"/>
<text text-anchor="start" x="893.5" y="-224" font-family="Helvetica,sans-Serif" font-size="10.00">core/common/signalkit</text>
<text text-anchor="middle" x="943" y="-211" font-family="Helvetica,sans-Serif" font-size="10.00">_h/inout.h</text>
</a>
</g>
<!-- Node16&#45;&gt;Node23 -->
<g id="edge62" class="edge"><title>Node16&#45;&gt;Node23</title>
<path fill="none" stroke="midnightblue" d="M1072.71,-274.937C1048.77,-264.797 1018.21,-251.854 992.769,-241.078"/>
<polygon fill="midnightblue" stroke="midnightblue" points="993.866,-237.742 983.293,-237.065 991.136,-244.188 993.866,-237.742"/>
</g>
<!-- Node24 -->
<g id="node59" class="node"><title>Node24</title>
<a xlink:href="selector_8h.html" target="_top" xlink:title="core/common/signalkit\l_h/selector.h">
<polygon fill="white" stroke="black" points="1055.5,-203 1055.5,-237 1170.5,-237 1170.5,-203 1055.5,-203"/>
<text text-anchor="start" x="1063.5" y="-224" font-family="Helvetica,sans-Serif" font-size="10.00">core/common/signalkit</text>
<text text-anchor="middle" x="1113" y="-211" font-family="Helvetica,sans-Serif" font-size="10.00">_h/selector.h</text>
</a>
</g>
<!-- Node16&#45;&gt;Node24 -->
<g id="edge70" class="edge"><title>Node16&#45;&gt;Node24</title>
<path fill="none" stroke="midnightblue" d="M1113,-274.937C1113,-266.807 1113,-256.876 1113,-247.705"/>
<polygon fill="midnightblue" stroke="midnightblue" points="1116.5,-247.441 1113,-237.441 1109.5,-247.441 1116.5,-247.441"/>
</g>
<!-- Node26 -->
<g id="node67" class="node"><title>Node26</title>
<a xlink:href="infield_8h.html" target="_top" xlink:title="core/common/signalkit\l_h/infield.h">
<polygon fill="white" stroke="black" points="1263.5,-131 1263.5,-165 1378.5,-165 1378.5,-131 1263.5,-131"/>
<text text-anchor="start" x="1271.5" y="-152" font-family="Helvetica,sans-Serif" font-size="10.00">core/common/signalkit</text>
<text text-anchor="middle" x="1321" y="-139" font-family="Helvetica,sans-Serif" font-size="10.00">_h/infield.h</text>
</a>
</g>
<!-- Node16&#45;&gt;Node26 -->
<g id="edge82" class="edge"><title>Node16&#45;&gt;Node26</title>
<path fill="none" stroke="midnightblue" d="M1139.39,-274.984C1155.55,-264.477 1176.59,-250.632 1195,-238 1227.46,-215.729 1264.02,-189.486 1289.36,-171.104"/>
<polygon fill="midnightblue" stroke="midnightblue" points="1291.47,-173.898 1297.5,-165.189 1287.35,-168.235 1291.47,-173.898"/>
</g>
<!-- Node18 -->
<g id="node40" class="node"><title>Node18</title>
<polygon fill="white" stroke="#bfbfbf" points="956.5,-0.5 956.5,-21.5 1005.5,-21.5 1005.5,-0.5 956.5,-0.5"/>
<text text-anchor="middle" x="981" y="-8.5" font-family="Helvetica,sans-Serif" font-size="10.00">stdint.h</text>
</g>
<!-- Node17&#45;&gt;Node18 -->
<g id="edge44" class="edge"><title>Node17&#45;&gt;Node18</title>
<path fill="none" stroke="midnightblue" d="M1140.87,-130.796C1128.55,-111.089 1106.14,-78.8426 1080,-58 1060.57,-42.5073 1035.19,-30.5882 1014.99,-22.6294"/>
<polygon fill="midnightblue" stroke="midnightblue" points="1016.14,-19.3193 1005.55,-19.0422 1013.65,-25.8635 1016.14,-19.3193"/>
</g>
<!-- Node19 -->
<g id="node42" class="node"><title>Node19</title>
<a xlink:href="signalkit__h_2base_8h.html" target="_top" xlink:title="core/common/signalkit\l_h/base.h">
<polygon fill="white" stroke="black" points="1178.5,-59 1178.5,-93 1293.5,-93 1293.5,-59 1178.5,-59"/>
<text text-anchor="start" x="1186.5" y="-80" font-family="Helvetica,sans-Serif" font-size="10.00">core/common/signalkit</text>
<text text-anchor="middle" x="1236" y="-67" font-family="Helvetica,sans-Serif" font-size="10.00">_h/base.h</text>
</a>
</g>
<!-- Node17&#45;&gt;Node19 -->
<g id="edge46" class="edge"><title>Node17&#45;&gt;Node19</title>
<path fill="none" stroke="midnightblue" d="M1171.14,-130.937C1182.07,-121.679 1195.76,-110.086 1207.74,-99.9379"/>
<polygon fill="midnightblue" stroke="midnightblue" points="1210.34,-102.324 1215.71,-93.19 1205.81,-96.9828 1210.34,-102.324"/>
</g>
<!-- Node21 -->
<g id="node46" class="node"><title>Node21</title>
<a xlink:href="ifs_8h.html" target="_top" xlink:title="core/common/signalkit\l_h/ifs.h">
<polygon fill="white" stroke="black" points="923.5,-59 923.5,-93 1038.5,-93 1038.5,-59 923.5,-59"/>
<text text-anchor="start" x="931.5" y="-80" font-family="Helvetica,sans-Serif" font-size="10.00">core/common/signalkit</text>
<text text-anchor="middle" x="981" y="-67" font-family="Helvetica,sans-Serif" font-size="10.00">_h/ifs.h</text>
</a>
</g>
<!-- Node17&#45;&gt;Node21 -->
<g id="edge50" class="edge"><title>Node17&#45;&gt;Node21</title>
<path fill="none" stroke="midnightblue" d="M1110.71,-130.937C1086.77,-120.797 1056.21,-107.854 1030.77,-97.0785"/>
<polygon fill="midnightblue" stroke="midnightblue" points="1031.87,-93.7423 1021.29,-93.0651 1029.14,-100.188 1031.87,-93.7423"/>
</g>
<!-- Node20 -->
<g id="node44" class="node"><title>Node20</title>
<polygon fill="white" stroke="#bfbfbf" points="1436,-0.5 1436,-21.5 1490,-21.5 1490,-0.5 1436,-0.5"/>
<text text-anchor="middle" x="1463" y="-8.5" font-family="Helvetica,sans-Serif" font-size="10.00">systemc</text>
</g>
<!-- Node19&#45;&gt;Node20 -->
<g id="edge48" class="edge"><title>Node19&#45;&gt;Node20</title>
<path fill="none" stroke="midnightblue" d="M1293.58,-59.5137C1335.06,-47.6352 1389.83,-31.9518 1425.71,-21.6772"/>
<polygon fill="midnightblue" stroke="midnightblue" points="1427.1,-24.9192 1435.75,-18.8015 1425.18,-18.1896 1427.1,-24.9192"/>
</g>
<!-- Node21&#45;&gt;Node18 -->
<g id="edge52" class="edge"><title>Node21&#45;&gt;Node18</title>
<path fill="none" stroke="midnightblue" d="M981,-58.922C981,-50.6704 981,-40.6922 981,-31.9818"/>
<polygon fill="midnightblue" stroke="midnightblue" points="984.5,-31.8521 981,-21.8521 977.5,-31.8521 984.5,-31.8521"/>
</g>
<!-- Node22&#45;&gt;Node18 -->
<g id="edge60" class="edge"><title>Node22&#45;&gt;Node18</title>
<path fill="none" stroke="midnightblue" d="M929.986,-130.726C917.653,-112.081 902.703,-81.8533 915,-58 921.95,-44.5181 934.755,-34.0551 947.249,-26.4597"/>
<polygon fill="midnightblue" stroke="midnightblue" points="949.196,-29.3803 956.203,-21.4337 945.77,-23.2761 949.196,-29.3803"/>
</g>
<!-- Node22&#45;&gt;Node19 -->
<g id="edge56" class="edge"><title>Node22&#45;&gt;Node19</title>
<path fill="none" stroke="midnightblue" d="M1000.54,-133.861C1048.66,-122.036 1117.39,-105.145 1168.19,-92.6642"/>
<polygon fill="midnightblue" stroke="midnightblue" points="1169.22,-96.0149 1178.09,-90.2296 1167.55,-89.2171 1169.22,-96.0149"/>
</g>
<!-- Node22&#45;&gt;Node21 -->
<g id="edge58" class="edge"><title>Node22&#45;&gt;Node21</title>
<path fill="none" stroke="midnightblue" d="M952.005,-130.937C956.483,-122.454 961.995,-112.009 967.007,-102.513"/>
<polygon fill="midnightblue" stroke="midnightblue" points="970.223,-103.918 971.795,-93.4407 964.032,-100.651 970.223,-103.918"/>
</g>
<!-- Node23&#45;&gt;Node17 -->
<g id="edge68" class="edge"><title>Node23&#45;&gt;Node17</title>
<path fill="none" stroke="midnightblue" d="M992.293,-202.937C1022.23,-192.573 1060.63,-179.283 1092.15,-168.37"/>
<polygon fill="midnightblue" stroke="midnightblue" points="1093.4,-171.644 1101.7,-165.065 1091.11,-165.029 1093.4,-171.644"/>
</g>
<!-- Node23&#45;&gt;Node18 -->
<g id="edge64" class="edge"><title>Node23&#45;&gt;Node18</title>
<path fill="none" stroke="midnightblue" d="M911.625,-202.903C898.35,-193.845 884.291,-181.386 877,-166 870.148,-151.541 873.955,-145.708 877,-130 883.564,-96.1321 883.856,-84.4533 906,-58 917.085,-44.758 932.891,-34.0847 947.137,-26.2767"/>
<polygon fill="midnightblue" stroke="midnightblue" points="948.95,-29.2791 956.208,-21.5613 945.721,-23.0682 948.95,-29.2791"/>
</g>
<!-- Node23&#45;&gt;Node22 -->
<g id="edge66" class="edge"><title>Node23&#45;&gt;Node22</title>
<path fill="none" stroke="midnightblue" d="M943,-202.937C943,-194.807 943,-184.876 943,-175.705"/>
<polygon fill="midnightblue" stroke="midnightblue" points="946.5,-175.441 943,-165.441 939.5,-175.441 946.5,-175.441"/>
</g>
<!-- Node24&#45;&gt;Node18 -->
<g id="edge72" class="edge"><title>Node24&#45;&gt;Node18</title>
<path fill="none" stroke="midnightblue" d="M1103.29,-202.79C1097.59,-192.328 1090.45,-178.6 1085,-166 1064.79,-119.299 1077.6,-98.6571 1047,-58 1037.47,-45.338 1023.55,-34.7184 1010.94,-26.7956"/>
<polygon fill="midnightblue" stroke="midnightblue" points="1012.46,-23.626 1002.08,-21.5126 1008.88,-29.639 1012.46,-23.626"/>
</g>
<!-- Node24&#45;&gt;Node19 -->
<g id="edge74" class="edge"><title>Node24&#45;&gt;Node19</title>
<path fill="none" stroke="midnightblue" d="M1166.72,-202.944C1185.19,-194.565 1204.38,-182.601 1217,-166 1230.64,-148.062 1235.01,-122.559 1236.19,-103.278"/>
<polygon fill="midnightblue" stroke="midnightblue" points="1239.7,-103.141 1236.56,-93.0215 1232.71,-102.889 1239.7,-103.141"/>
</g>
<!-- Node24&#45;&gt;Node21 -->
<g id="edge76" class="edge"><title>Node24&#45;&gt;Node21</title>
<path fill="none" stroke="midnightblue" d="M1091.83,-202.869C1079.68,-192.659 1064.43,-179.159 1052,-166 1032.65,-145.52 1012.99,-120.165 999.275,-101.592"/>
<polygon fill="midnightblue" stroke="midnightblue" points="1001.96,-99.3334 993.233,-93.3244 996.307,-103.463 1001.96,-99.3334"/>
</g>
<!-- Node24&#45;&gt;Node22 -->
<g id="edge78" class="edge"><title>Node24&#45;&gt;Node22</title>
<path fill="none" stroke="midnightblue" d="M1072.71,-202.937C1048.77,-192.797 1018.21,-179.854 992.769,-169.078"/>
<polygon fill="midnightblue" stroke="midnightblue" points="993.866,-165.742 983.293,-165.065 991.136,-172.188 993.866,-165.742"/>
</g>
<!-- Node25 -->
<g id="node65" class="node"><title>Node25</title>
<polygon fill="white" stroke="#bfbfbf" points="1364.5,-65.5 1364.5,-86.5 1399.5,-86.5 1399.5,-65.5 1364.5,-65.5"/>
<text text-anchor="middle" x="1382" y="-73.5" font-family="Helvetica,sans-Serif" font-size="10.00">map</text>
</g>
<!-- Node24&#45;&gt;Node25 -->
<g id="edge80" class="edge"><title>Node24&#45;&gt;Node25</title>
<path fill="none" stroke="midnightblue" d="M1170.77,-216.979C1242.92,-211.858 1360.17,-198.63 1387,-166 1403,-146.545 1396.9,-115.979 1390.17,-95.9633"/>
<polygon fill="midnightblue" stroke="midnightblue" points="1393.45,-94.7433 1386.71,-86.5725 1386.89,-97.1659 1393.45,-94.7433"/>
</g>
<!-- Node26&#45;&gt;Node18 -->
<g id="edge84" class="edge"><title>Node26&#45;&gt;Node18</title>
<path fill="none" stroke="midnightblue" d="M1322.71,-130.646C1323.67,-110.175 1321.79,-76.5856 1302,-58 1281.34,-38.5967 1094.72,-20.6498 1015.89,-13.8644"/>
<polygon fill="midnightblue" stroke="midnightblue" points="1015.77,-10.3417 1005.51,-12.982 1015.18,-17.3165 1015.77,-10.3417"/>
</g>
<!-- Node26&#45;&gt;Node19 -->
<g id="edge86" class="edge"><title>Node26&#45;&gt;Node19</title>
<path fill="none" stroke="midnightblue" d="M1300.86,-130.937C1289.93,-121.679 1276.24,-110.086 1264.26,-99.9379"/>
<polygon fill="midnightblue" stroke="midnightblue" points="1266.19,-96.9828 1256.29,-93.19 1261.66,-102.324 1266.19,-96.9828"/>
</g>
<!-- Node26&#45;&gt;Node21 -->
<g id="edge88" class="edge"><title>Node26&#45;&gt;Node21</title>
<path fill="none" stroke="midnightblue" d="M1263.32,-135.786C1203.89,-123.2 1111.29,-103.591 1048.49,-90.2918"/>
<polygon fill="midnightblue" stroke="midnightblue" points="1049.18,-86.8612 1038.67,-88.2135 1047.73,-93.7094 1049.18,-86.8612"/>
</g>
<!-- Node26&#45;&gt;Node25 -->
<g id="edge90" class="edge"><title>Node26&#45;&gt;Node25</title>
<path fill="none" stroke="midnightblue" d="M1335.46,-130.937C1344.66,-120.068 1356.6,-105.979 1366.08,-94.7904"/>
<polygon fill="midnightblue" stroke="midnightblue" points="1368.97,-96.7934 1372.76,-86.901 1363.63,-92.2684 1368.97,-96.7934"/>
</g>
<!-- Node28 -->
<g id="node75" class="node"><title>Node28</title>
<a xlink:href="tlmin__scout__adapter_8h.html" target="_top" xlink:title="core/common/signalkit\l_h/adapter_h/tlmin_scout\l_adapter.h">
<polygon fill="white" stroke="black" points="1331,-346.5 1331,-393.5 1457,-393.5 1457,-346.5 1331,-346.5"/>
<text text-anchor="start" x="1339" y="-380.5" font-family="Helvetica,sans-Serif" font-size="10.00">core/common/signalkit</text>
<text text-anchor="start" x="1339" y="-367.5" font-family="Helvetica,sans-Serif" font-size="10.00">_h/adapter_h/tlmin_scout</text>
<text text-anchor="middle" x="1394" y="-354.5" font-family="Helvetica,sans-Serif" font-size="10.00">_adapter.h</text>
</a>
</g>
<!-- Node27&#45;&gt;Node28 -->
<g id="edge94" class="edge"><title>Node27&#45;&gt;Node28</title>
<path fill="none" stroke="midnightblue" d="M1163.62,-434.865C1205.02,-425.139 1262.31,-411.086 1321.05,-394.195"/>
<polygon fill="midnightblue" stroke="midnightblue" points="1322.24,-397.494 1330.87,-391.348 1320.29,-390.771 1322.24,-397.494"/>
</g>
<!-- Node29 -->
<g id="node79" class="node"><title>Node29</title>
<a xlink:href="scin__tlmout__adapter_8h.html" target="_top" xlink:title="core/common/signalkit\l_h/adapter_h/scin_tlmout\l_adapter.h">
<polygon fill="white" stroke="black" points="1187,-346.5 1187,-393.5 1313,-393.5 1313,-346.5 1187,-346.5"/>
<text text-anchor="start" x="1195" y="-380.5" font-family="Helvetica,sans-Serif" font-size="10.00">core/common/signalkit</text>
<text text-anchor="start" x="1195" y="-367.5" font-family="Helvetica,sans-Serif" font-size="10.00">_h/adapter_h/scin_tlmout</text>
<text text-anchor="middle" x="1250" y="-354.5" font-family="Helvetica,sans-Serif" font-size="10.00">_adapter.h</text>
</a>
</g>
<!-- Node27&#45;&gt;Node29 -->
<g id="edge100" class="edge"><title>Node27&#45;&gt;Node29</title>
<path fill="none" stroke="midnightblue" d="M1137.6,-430.883C1155.12,-421.394 1177.35,-409.349 1197.42,-398.483"/>
<polygon fill="midnightblue" stroke="midnightblue" points="1199.33,-401.427 1206.46,-393.586 1196,-395.271 1199.33,-401.427"/>
</g>
<!-- Node30 -->
<g id="node83" class="node"><title>Node30</title>
<a xlink:href="tlmsc__inout__adapter_8h.html" target="_top" xlink:title="core/common/signalkit\l_h/adapter_h/tlmsc_inout\l_adapter.h">
<polygon fill="white" stroke="black" points="1043,-346.5 1043,-393.5 1169,-393.5 1169,-346.5 1043,-346.5"/>
<text text-anchor="start" x="1051" y="-380.5" font-family="Helvetica,sans-Serif" font-size="10.00">core/common/signalkit</text>
<text text-anchor="start" x="1051" y="-367.5" font-family="Helvetica,sans-Serif" font-size="10.00">_h/adapter_h/tlmsc_inout</text>
<text text-anchor="middle" x="1106" y="-354.5" font-family="Helvetica,sans-Serif" font-size="10.00">_adapter.h</text>
</a>
</g>
<!-- Node27&#45;&gt;Node30 -->
<g id="edge106" class="edge"><title>Node27&#45;&gt;Node30</title>
<path fill="none" stroke="midnightblue" d="M1106,-430.689C1106,-422.798 1106,-413.169 1106,-403.927"/>
<polygon fill="midnightblue" stroke="midnightblue" points="1109.5,-403.77 1106,-393.77 1102.5,-403.77 1109.5,-403.77"/>
</g>
<!-- Node28&#45;&gt;Node16 -->
<g id="edge98" class="edge"><title>Node28&#45;&gt;Node16</title>
<path fill="none" stroke="midnightblue" d="M1330.86,-348.68C1327.87,-347.757 1324.91,-346.859 1322,-346 1275.02,-332.118 1221.52,-318.333 1180.41,-308.166"/>
<polygon fill="midnightblue" stroke="midnightblue" points="1181.06,-304.719 1170.51,-305.726 1179.38,-311.516 1181.06,-304.719"/>
</g>
<!-- Node28&#45;&gt;Node20 -->
<g id="edge96" class="edge"><title>Node28&#45;&gt;Node20</title>
<path fill="none" stroke="midnightblue" d="M1451.6,-346.355C1468,-337.161 1484.5,-325.131 1496,-310 1521.05,-277.04 1520,-261.398 1520,-220 1520,-220 1520,-220 1520,-148 1520,-106.602 1513.5,-95.5184 1496,-58 1491.31,-47.9405 1484.46,-37.7418 1478.21,-29.4274"/>
<polygon fill="midnightblue" stroke="midnightblue" points="1480.95,-27.2526 1472.04,-21.5298 1475.44,-31.5638 1480.95,-27.2526"/>
</g>
<!-- Node29&#45;&gt;Node16 -->
<g id="edge104" class="edge"><title>Node29&#45;&gt;Node16</title>
<path fill="none" stroke="midnightblue" d="M1208.52,-346.386C1190.55,-336.153 1169.62,-324.237 1151.94,-314.171"/>
<polygon fill="midnightblue" stroke="midnightblue" points="1153.45,-311.001 1143.03,-309.095 1149.98,-317.084 1153.45,-311.001"/>
</g>
<!-- Node29&#45;&gt;Node20 -->
<g id="edge102" class="edge"><title>Node29&#45;&gt;Node20</title>
<path fill="none" stroke="midnightblue" d="M1313.14,-348.702C1316.13,-347.773 1319.1,-346.867 1322,-346 1381.91,-328.105 1413.75,-354.172 1458,-310 1487.3,-280.754 1482,-261.398 1482,-220 1482,-220 1482,-220 1482,-148 1482,-106.399 1473.3,-58.3592 1467.67,-31.6492"/>
<polygon fill="midnightblue" stroke="midnightblue" points="1471.03,-30.6164 1465.48,-21.5889 1464.19,-32.1044 1471.03,-30.6164"/>
</g>
<!-- Node30&#45;&gt;Node16 -->
<g id="edge110" class="edge"><title>Node30&#45;&gt;Node16</title>
<path fill="none" stroke="midnightblue" d="M1108.14,-346.174C1108.9,-337.638 1109.77,-327.952 1110.56,-319.156"/>
<polygon fill="midnightblue" stroke="midnightblue" points="1114.07,-319.276 1111.47,-309.003 1107.09,-318.65 1114.07,-319.276"/>
</g>
<!-- Node30&#45;&gt;Node20 -->
<g id="edge108" class="edge"><title>Node30&#45;&gt;Node20</title>
<path fill="none" stroke="midnightblue" d="M1169.18,-348.775C1267.01,-314.981 1444,-249.732 1444,-220 1444,-220 1444,-220 1444,-148 1444,-106.399 1452.7,-58.3592 1458.33,-31.6492"/>
<polygon fill="midnightblue" stroke="midnightblue" points="1461.81,-32.1044 1460.52,-21.5889 1454.97,-30.6164 1461.81,-32.1044"/>
</g>
<!-- Node31&#45;&gt;Node18 -->
<g id="edge114" class="edge"><title>Node31&#45;&gt;Node18</title>
<path fill="none" stroke="midnightblue" d="M878.322,-502.897C841.418,-478.463 782,-429.831 782,-370 782,-370 782,-370 782,-148 782,-69.2243 889.106,-32.2976 946.164,-18.2149"/>
<polygon fill="midnightblue" stroke="midnightblue" points="947.27,-21.55 956.199,-15.8462 945.662,-14.7373 947.27,-21.55"/>
</g>
<!-- Node31&#45;&gt;Node21 -->
<g id="edge116" class="edge"><title>Node31&#45;&gt;Node21</title>
<path fill="none" stroke="midnightblue" d="M897.319,-502.595C883.039,-475.243 858,-420.135 858,-370 858,-370 858,-370 858,-220 858,-179.118 852.26,-162.546 877,-130 887.549,-116.123 902.687,-105.485 918.161,-97.4739"/>
<polygon fill="midnightblue" stroke="midnightblue" points="919.805,-100.566 927.278,-93.0558 916.752,-94.2671 919.805,-100.566"/>
</g>
<!-- Node31&#45;&gt;Node27 -->
<g id="edge118" class="edge"><title>Node31&#45;&gt;Node27</title>
<path fill="none" stroke="midnightblue" d="M954.16,-502.937C982.681,-492.618 1019.22,-479.397 1049.31,-468.511"/>
<polygon fill="midnightblue" stroke="midnightblue" points="1050.62,-471.759 1058.83,-465.065 1048.24,-465.176 1050.62,-471.759"/>
</g>
</g>
</svg>
        <g id="navigator" transform="translate(0 0)" fill="#404254">
                <rect fill="#f2f5e9" fill-opacity="0.5" stroke="#606060" stroke-width=".5" x="0" y="0" width="60" height="60"/>
                <use id="zoomplus" xlink:href="#zoomPlus" x="17" y="9" onmousedown="handleZoom(evt,'in')"/>
                <use id="zoomminus" xlink:href="#zoomMin" x="42" y="9" onmousedown="handleZoom(evt,'out')"/>
                <use id="reset" xlink:href="#resetDef" x="30" y="36" onmousedown="handleReset()"/>
                <g id="arrowUp" xlink:href="#dirArrow" transform="translate(30 24)" onmousedown="handlePan(0,-1)">
                  <use xlink:href="#rim" fill="#404040">
                        <set attributeName="fill" to="#808080" begin="arrowUp.mouseover" end="arrowUp.mouseout"/>
                  </use>
                  <path fill="none" stroke="white" stroke-width="1.5" d="M0,-3.0v7 M-2.5,-0.5L0,-3.0L2.5,-0.5"/>
                </g>
                <g id="arrowRight" xlink:href="#dirArrow" transform="rotate(90) translate(36 -43)" onmousedown="handlePan(1,0)">
                  <use xlink:href="#rim" fill="#404040">
                        <set attributeName="fill" to="#808080" begin="arrowRight.mouseover" end="arrowRight.mouseout"/>
                  </use>
                  <path fill="none" stroke="white" stroke-width="1.5" d="M0,-3.0v7 M-2.5,-0.5L0,-3.0L2.5,-0.5"/>
                </g>
                <g id="arrowDown" xlink:href="#dirArrow" transform="rotate(180) translate(-30 -48)" onmousedown="handlePan(0,1)">
                  <use xlink:href="#rim" fill="#404040">
                        <set attributeName="fill" to="#808080" begin="arrowDown.mouseover" end="arrowDown.mouseout"/>
                  </use>
                  <path fill="none" stroke="white" stroke-width="1.5" d="M0,-3.0v7 M-2.5,-0.5L0,-3.0L2.5,-0.5"/>
                </g>
                <g id="arrowLeft" xlink:href="#dirArrow" transform="rotate(270) translate(-36 17)" onmousedown="handlePan(-1,0)">
                  <use xlink:href="#rim" fill="#404040">
                        <set attributeName="fill" to="#808080" begin="arrowLeft.mouseover" end="arrowLeft.mouseout"/>
                  </use>
                  <path fill="none" stroke="white" stroke-width="1.5" d="M0,-3.0v7 M-2.5,-0.5L0,-3.0L2.5,-0.5"/>
                </g>
        </g>
        <svg viewBox="0 0 15 15" width="100%" height="30px" preserveAspectRatio="xMaxYMin meet">
         <g id="arrow_out" transform="scale(0.3 0.3)">
          <a xlink:href="irqPorts_8hpp__incl_org.svg" target="_base">
           <rect id="button" ry="5" rx="5" y="6" x="6" height="38" width="38"
                fill="#f2f5e9" fill-opacity="0.5" stroke="#606060" stroke-width="1.0"/>
           <path id="arrow"
             d="M 11.500037,31.436501 C 11.940474,20.09759 22.043105,11.32322 32.158766,21.979434 L 37.068811,17.246167 C 37.068811,17.246167 37.088388,32 37.088388,32 L 22.160133,31.978069 C 22.160133,31.978069 26.997745,27.140456 26.997745,27.140456 C 18.528582,18.264221 13.291696,25.230495 11.500037,31.436501 z"
             style="fill:#404040;"/>
          </a>
         </g>
        </svg>
</svg>
