<?xml version="1.0" encoding="UTF-8" standalone="no"?>
<!DOCTYPE svg PUBLIC "-//W3C//DTD SVG 1.1//EN"
 "http://www.w3.org/Graphics/SVG/1.1/DTD/svg11.dtd">
<!-- Generated by graphviz version 2.38.0 (20140413.2041)
 -->
<!-- Title: l2timers_test Pages: 1 -->
<svg width="196pt" height="66pt"
 viewBox="0.00 0.00 196.00 66.00" xmlns="http://www.w3.org/2000/svg" xmlns:xlink="http://www.w3.org/1999/xlink">
<g id="graph0" class="graph" transform="scale(1 1) rotate(0) translate(4 62)">
<title>l2timers_test</title>
<polygon fill="white" stroke="none" points="-4,4 -4,-62 192,-62 192,4 -4,4"/>
<!-- Node1 -->
<g id="node1" class="node"><title>Node1</title>
<polygon fill="#bfbfbf" stroke="black" points="0,-19.5 0,-38.5 73,-38.5 73,-19.5 0,-19.5"/>
<text text-anchor="middle" x="36.5" y="-26.5" font-family="Helvetica,sans-Serif" font-size="10.00">l2timers_test</text>
</g>
<!-- Node2 -->
<g id="node2" class="node"><title>Node2</title>
<g id="a_node2"><a xlink:href="report__device_8c.html#a19b399e21d163c2a92510871f1a807de" target="_top" xlink:title="report_device">
<polygon fill="white" stroke="black" points="111,-38.5 111,-57.5 186,-57.5 186,-38.5 111,-38.5"/>
<text text-anchor="middle" x="148.5" y="-45.5" font-family="Helvetica,sans-Serif" font-size="10.00">report_device</text>
</a>
</g>
</g>
<!-- Node1&#45;&gt;Node2 -->
<g id="edge1" class="edge"><title>Node1&#45;&gt;Node2</title>
<path fill="none" stroke="midnightblue" d="M73.2138,-35.1688C82.0592,-36.6966 91.6666,-38.356 100.945,-39.9587"/>
<polygon fill="midnightblue" stroke="midnightblue" points="100.384,-43.4135 110.833,-41.6667 101.575,-36.5156 100.384,-43.4135"/>
</g>
<!-- Node3 -->
<g id="node3" class="node"><title>Node3</title>
<g id="a_node3"><a xlink:href="report__device_8c.html#aa1e4c0543aa65e7b4c320fbb86c81f3c" target="_top" xlink:title="report_subtest">
<polygon fill="white" stroke="black" points="109,-0.5 109,-19.5 188,-19.5 188,-0.5 109,-0.5"/>
<text text-anchor="middle" x="148.5" y="-7.5" font-family="Helvetica,sans-Serif" font-size="10.00">report_subtest</text>
</a>
</g>
</g>
<!-- Node1&#45;&gt;Node3 -->
<g id="edge2" class="edge"><title>Node1&#45;&gt;Node3</title>
<path fill="none" stroke="midnightblue" d="M73.2138,-22.8312C81.4201,-21.4138 90.2822,-19.8831 98.9294,-18.3895"/>
<polygon fill="midnightblue" stroke="midnightblue" points="99.6712,-21.8132 108.93,-16.6622 98.4797,-14.9154 99.6712,-21.8132"/>
</g>
</g>
</svg>
