<?xml version="1.0" encoding="UTF-8" standalone="no"?>
<!DOCTYPE svg PUBLIC "-//W3C//DTD SVG 1.1//EN"
 "http://www.w3.org/Graphics/SVG/1.1/DTD/svg11.dtd">
<!-- Generated by graphviz version 2.26.0 (20091210.2329)
 -->
<!-- Title: core/models/extern/LEON3/simulatorSources/leon3.funclt/alias.hpp Pages: 1 -->
<svg width="394pt" height="342pt"
 viewBox="0.00 0.00 394.00 342.00" xmlns="http://www.w3.org/2000/svg" xmlns:xlink="http://www.w3.org/1999/xlink">
<g id="graph1" class="graph" transform="scale(1 1) rotate(0) translate(4 338)">
<title>core/models/extern/LEON3/simulatorSources/leon3.funclt/alias.hpp</title>
<polygon fill="white" stroke="white" points="-4,5 -4,-338 391,-338 391,5 -4,5"/>
<!-- Node1 -->
<g id="node1" class="node"><title>Node1</title>
<polygon fill="#bfbfbf" stroke="black" points="147.5,-286.5 147.5,-333.5 278.5,-333.5 278.5,-286.5 147.5,-286.5"/>
<text text-anchor="start" x="155.5" y="-320.5" font-family="Helvetica,sans-Serif" font-size="10.00">core/models/extern</text>
<text text-anchor="start" x="155.5" y="-307.5" font-family="Helvetica,sans-Serif" font-size="10.00">/LEON3/simulatorSources</text>
<text text-anchor="middle" x="213" y="-294.5" font-family="Helvetica,sans-Serif" font-size="10.00">/leon3.funclt/alias.hpp</text>
</g>
<!-- Node2 -->
<g id="node3" class="node"><title>Node2</title>
<a xlink:href="leon3_8funclt_2registers_8hpp.html" target="_top" xlink:title="core/models/extern\l/LEON3/simulatorSources\l/leon3.funclt/registers.hpp">
<polygon fill="white" stroke="black" points="147.5,-202.5 147.5,-249.5 278.5,-249.5 278.5,-202.5 147.5,-202.5"/>
<text text-anchor="start" x="155.5" y="-236.5" font-family="Helvetica,sans-Serif" font-size="10.00">core/models/extern</text>
<text text-anchor="start" x="155.5" y="-223.5" font-family="Helvetica,sans-Serif" font-size="10.00">/LEON3/simulatorSources</text>
<text text-anchor="middle" x="213" y="-210.5" font-family="Helvetica,sans-Serif" font-size="10.00">/leon3.funclt/registers.hpp</text>
</a>
</g>
<!-- Node1&#45;&gt;Node2 -->
<g id="edge2" class="edge"><title>Node1&#45;&gt;Node2</title>
<path fill="none" stroke="midnightblue" d="M213,-286.154C213,-277.926 213,-268.548 213,-259.684"/>
<polygon fill="midnightblue" stroke="midnightblue" points="216.5,-259.615 213,-249.615 209.5,-259.615 216.5,-259.615"/>
</g>
<!-- Node3 -->
<g id="node5" class="node"><title>Node3</title>
<polygon fill="white" stroke="#bfbfbf" points="94,-137.5 94,-158.5 146,-158.5 146,-137.5 94,-137.5"/>
<text text-anchor="middle" x="120" y="-145.5" font-family="Helvetica,sans-Serif" font-size="10.00">ostream</text>
</g>
<!-- Node1&#45;&gt;Node3 -->
<g id="edge30" class="edge"><title>Node1&#45;&gt;Node3</title>
<path fill="none" stroke="midnightblue" d="M173.862,-286.436C160.864,-276.722 147.543,-264.355 139,-250 124.017,-224.823 120.403,-190.465 119.76,-168.755"/>
<polygon fill="midnightblue" stroke="midnightblue" points="123.259,-168.631 119.65,-158.67 116.259,-168.708 123.259,-168.631"/>
</g>
<!-- Node12 -->
<g id="node28" class="node"><title>Node12</title>
<polygon fill="white" stroke="#bfbfbf" points="295.5,-215.5 295.5,-236.5 324.5,-236.5 324.5,-215.5 295.5,-215.5"/>
<text text-anchor="middle" x="310" y="-223.5" font-family="Helvetica,sans-Serif" font-size="10.00">list</text>
</g>
<!-- Node1&#45;&gt;Node12 -->
<g id="edge32" class="edge"><title>Node1&#45;&gt;Node12</title>
<path fill="none" stroke="midnightblue" d="M243.964,-286.312C257.502,-275.598 273.37,-262.545 287,-250 289.006,-248.153 291.056,-246.171 293.064,-244.165"/>
<polygon fill="midnightblue" stroke="midnightblue" points="295.987,-246.178 300.425,-236.557 290.956,-241.31 295.987,-246.178"/>
</g>
<!-- Node2&#45;&gt;Node3 -->
<g id="edge4" class="edge"><title>Node2&#45;&gt;Node3</title>
<path fill="none" stroke="midnightblue" d="M184.845,-202.386C170.635,-190.468 153.705,-176.269 140.707,-165.367"/>
<polygon fill="midnightblue" stroke="midnightblue" points="142.713,-162.481 132.802,-158.737 138.214,-167.845 142.713,-162.481"/>
</g>
<!-- Node4 -->
<g id="node7" class="node"><title>Node4</title>
<a xlink:href="trap__utils_8hpp.html" target="_top" xlink:title="core/common/trapgen\l/utils/trap_utils.hpp">
<polygon fill="white" stroke="black" points="163.5,-131 163.5,-165 274.5,-165 274.5,-131 163.5,-131"/>
<text text-anchor="start" x="171.5" y="-152" font-family="Helvetica,sans-Serif" font-size="10.00">core/common/trapgen</text>
<text text-anchor="middle" x="219" y="-139" font-family="Helvetica,sans-Serif" font-size="10.00">/utils/trap_utils.hpp</text>
</a>
</g>
<!-- Node2&#45;&gt;Node4 -->
<g id="edge6" class="edge"><title>Node2&#45;&gt;Node4</title>
<path fill="none" stroke="midnightblue" d="M214.833,-202.174C215.489,-193.638 216.234,-183.952 216.911,-175.156"/>
<polygon fill="midnightblue" stroke="midnightblue" points="220.415,-175.242 217.692,-165.003 213.435,-174.705 220.415,-175.242"/>
</g>
<!-- Node5 -->
<g id="node9" class="node"><title>Node5</title>
<polygon fill="white" stroke="#bfbfbf" points="-0.5,-0.5 -0.5,-21.5 58.5,-21.5 58.5,-0.5 -0.5,-0.5"/>
<text text-anchor="middle" x="29" y="-8.5" font-family="Helvetica,sans-Serif" font-size="10.00">exception</text>
</g>
<!-- Node4&#45;&gt;Node5 -->
<g id="edge8" class="edge"><title>Node4&#45;&gt;Node5</title>
<path fill="none" stroke="midnightblue" d="M164.919,-130.961C131.904,-119.812 93.5192,-105.276 80,-94 59.6172,-76.9991 45.0587,-49.65 36.8436,-31.0295"/>
<polygon fill="midnightblue" stroke="midnightblue" points="40.0287,-29.5741 32.9356,-21.7039 33.5726,-32.2796 40.0287,-29.5741"/>
</g>
<!-- Node6 -->
<g id="node11" class="node"><title>Node6</title>
<polygon fill="white" stroke="#bfbfbf" points="76,-0.5 76,-21.5 130,-21.5 130,-0.5 76,-0.5"/>
<text text-anchor="middle" x="103" y="-8.5" font-family="Helvetica,sans-Serif" font-size="10.00">iostream</text>
</g>
<!-- Node4&#45;&gt;Node6 -->
<g id="edge10" class="edge"><title>Node4&#45;&gt;Node6</title>
<path fill="none" stroke="midnightblue" d="M163.497,-131.365C133.047,-120.996 99.7339,-107.164 91,-94 78.5613,-75.2521 85.5121,-48.8946 92.9763,-30.9458"/>
<polygon fill="midnightblue" stroke="midnightblue" points="96.2242,-32.2583 97.1716,-21.7059 89.8504,-29.3642 96.2242,-32.2583"/>
</g>
<!-- Node7 -->
<g id="node13" class="node"><title>Node7</title>
<polygon fill="white" stroke="#bfbfbf" points="334,-65.5 334,-86.5 386,-86.5 386,-65.5 334,-65.5"/>
<text text-anchor="middle" x="360" y="-73.5" font-family="Helvetica,sans-Serif" font-size="10.00">sstream</text>
</g>
<!-- Node4&#45;&gt;Node7 -->
<g id="edge12" class="edge"><title>Node4&#45;&gt;Node7</title>
<path fill="none" stroke="midnightblue" d="M252.415,-130.937C275.93,-118.929 307.14,-102.992 329.886,-91.3773"/>
<polygon fill="midnightblue" stroke="midnightblue" points="331.755,-94.353 339.069,-86.688 328.571,-88.1187 331.755,-94.353"/>
</g>
<!-- Node8 -->
<g id="node15" class="node"><title>Node8</title>
<polygon fill="white" stroke="#bfbfbf" points="209.5,-0.5 209.5,-21.5 268.5,-21.5 268.5,-0.5 209.5,-0.5"/>
<text text-anchor="middle" x="239" y="-8.5" font-family="Helvetica,sans-Serif" font-size="10.00">stdexcept</text>
</g>
<!-- Node4&#45;&gt;Node8 -->
<g id="edge14" class="edge"><title>Node4&#45;&gt;Node8</title>
<path fill="none" stroke="midnightblue" d="M231.417,-130.966C238.057,-120.789 245.557,-107.289 249,-94 254.406,-73.1392 250.177,-48.5565 245.671,-31.5864"/>
<polygon fill="midnightblue" stroke="midnightblue" points="248.932,-30.2671 242.769,-21.6496 242.213,-32.2298 248.932,-30.2671"/>
</g>
<!-- Node9 -->
<g id="node17" class="node"><title>Node9</title>
<polygon fill="white" stroke="#bfbfbf" points="285.5,-0.5 285.5,-21.5 326.5,-21.5 326.5,-0.5 285.5,-0.5"/>
<text text-anchor="middle" x="306" y="-8.5" font-family="Helvetica,sans-Serif" font-size="10.00">string</text>
</g>
<!-- Node4&#45;&gt;Node9 -->
<g id="edge16" class="edge"><title>Node4&#45;&gt;Node9</title>
<path fill="none" stroke="midnightblue" d="M235.064,-130.789C244.169,-120.552 255.419,-107.052 264,-94 277.372,-73.6615 289.556,-48.5018 297.317,-31.2477"/>
<polygon fill="midnightblue" stroke="midnightblue" points="300.721,-32.2023 301.548,-21.6399 294.315,-29.3809 300.721,-32.2023"/>
</g>
<!-- Node10 -->
<g id="node19" class="node"><title>Node10</title>
<a xlink:href="customExceptions_8hpp.html" target="_top" xlink:title="core/common/trapgen\l/utils/customExceptions.hpp">
<polygon fill="white" stroke="black" points="100,-59 100,-93 240,-93 240,-59 100,-59"/>
<text text-anchor="start" x="108" y="-80" font-family="Helvetica,sans-Serif" font-size="10.00">core/common/trapgen</text>
<text text-anchor="middle" x="170" y="-67" font-family="Helvetica,sans-Serif" font-size="10.00">/utils/customExceptions.hpp</text>
</a>
</g>
<!-- Node4&#45;&gt;Node10 -->
<g id="edge18" class="edge"><title>Node4&#45;&gt;Node10</title>
<path fill="none" stroke="midnightblue" d="M207.388,-130.937C201.494,-122.277 194.209,-111.573 187.64,-101.921"/>
<polygon fill="midnightblue" stroke="midnightblue" points="190.389,-99.7386 181.869,-93.4407 184.602,-103.677 190.389,-99.7386"/>
</g>
<!-- Node10&#45;&gt;Node5 -->
<g id="edge22" class="edge"><title>Node10&#45;&gt;Node5</title>
<path fill="none" stroke="midnightblue" d="M132.954,-58.922C110.736,-48.6798 82.748,-35.7774 61.4112,-25.9413"/>
<polygon fill="midnightblue" stroke="midnightblue" points="62.6672,-22.6664 52.1205,-21.6584 59.7367,-29.0234 62.6672,-22.6664"/>
</g>
<!-- Node10&#45;&gt;Node6 -->
<g id="edge24" class="edge"><title>Node10&#45;&gt;Node6</title>
<path fill="none" stroke="midnightblue" d="M152.397,-58.922C142.852,-49.6619 131.065,-38.2273 121.4,-28.8503"/>
<polygon fill="midnightblue" stroke="midnightblue" points="123.801,-26.3032 114.186,-21.8521 118.926,-31.3273 123.801,-26.3032"/>
</g>
<!-- Node10&#45;&gt;Node8 -->
<g id="edge26" class="edge"><title>Node10&#45;&gt;Node8</title>
<path fill="none" stroke="midnightblue" d="M188.129,-58.922C197.959,-49.6619 210.097,-38.2273 220.051,-28.8503"/>
<polygon fill="midnightblue" stroke="midnightblue" points="222.601,-31.2567 227.48,-21.8521 217.801,-26.1614 222.601,-31.2567"/>
</g>
<!-- Node10&#45;&gt;Node9 -->
<g id="edge28" class="edge"><title>Node10&#45;&gt;Node9</title>
<path fill="none" stroke="midnightblue" d="M205.732,-58.922C227.609,-48.4662 255.287,-35.238 276.017,-25.3299"/>
<polygon fill="midnightblue" stroke="midnightblue" points="277.78,-28.3665 285.294,-20.8964 274.762,-22.0508 277.78,-28.3665"/>
</g>
<!-- Node11 -->
<g id="node21" class="node"><title>Node11</title>
<polygon fill="white" stroke="#bfbfbf" points="147.5,-0.5 147.5,-21.5 192.5,-21.5 192.5,-0.5 147.5,-0.5"/>
<text text-anchor="middle" x="170" y="-8.5" font-family="Helvetica,sans-Serif" font-size="10.00">cstdlib</text>
</g>
<!-- Node10&#45;&gt;Node11 -->
<g id="edge20" class="edge"><title>Node10&#45;&gt;Node11</title>
<path fill="none" stroke="midnightblue" d="M170,-58.922C170,-50.6704 170,-40.6922 170,-31.9818"/>
<polygon fill="midnightblue" stroke="midnightblue" points="173.5,-31.8521 170,-21.8521 166.5,-31.8521 173.5,-31.8521"/>
</g>
</g>
</svg>
