<?xml version="1.0" encoding="UTF-8" standalone="no"?>
<!DOCTYPE svg PUBLIC "-//W3C//DTD SVG 1.1//EN"
 "http://www.w3.org/Graphics/SVG/1.1/DTD/svg11.dtd">
<!-- Generated by graphviz version 2.38.0 (20140413.2041)
 -->
<!-- Title: core/models/extern/LEON3/simulatorSources/leon3.funcat/irqPorts.hpp Pages: 1 -->
<svg width="446pt" height="327pt"
 viewBox="0.00 0.00 445.95 327.00" xmlns="http://www.w3.org/2000/svg" xmlns:xlink="http://www.w3.org/1999/xlink">
<g id="graph0" class="graph" transform="scale(1 1) rotate(0) translate(4 323)">
<title>core/models/extern/LEON3/simulatorSources/leon3.funcat/irqPorts.hpp</title>
<polygon fill="white" stroke="none" points="-4,4 -4,-323 441.953,-323 441.953,4 -4,4"/>
<!-- Node1 -->
<g id="node1" class="node"><title>Node1</title>
<polygon fill="#bfbfbf" stroke="black" points="164,-280.5 164,-318.5 295.601,-318.5 295.601,-280.5 164,-280.5"/>
<text text-anchor="start" x="172" y="-306.5" font-family="Helvetica,sans-Serif" font-size="10.00">core/models/extern</text>
<text text-anchor="start" x="172" y="-296.5" font-family="Helvetica,sans-Serif" font-size="10.00">/LEON3/simulatorSources</text>
<text text-anchor="middle" x="229.8" y="-286.5" font-family="Helvetica,sans-Serif" font-size="10.00">/leon3.funcat/irqPorts.hpp</text>
</g>
<!-- Node2 -->
<g id="node2" class="node"><title>Node2</title>
<g id="a_node2"><a xlink:href="leon3_8funcat_2irqPorts_8cpp.html" target="_top" xlink:title="core/models/extern\l/LEON3/simulatorSources\l/leon3.funcat/irqPorts.cpp">
<polygon fill="white" stroke="black" points="11,-205.5 11,-243.5 142.601,-243.5 142.601,-205.5 11,-205.5"/>
<text text-anchor="start" x="19" y="-231.5" font-family="Helvetica,sans-Serif" font-size="10.00">core/models/extern</text>
<text text-anchor="start" x="19" y="-221.5" font-family="Helvetica,sans-Serif" font-size="10.00">/LEON3/simulatorSources</text>
<text text-anchor="middle" x="76.8003" y="-211.5" font-family="Helvetica,sans-Serif" font-size="10.00">/leon3.funcat/irqPorts.cpp</text>
</a>
</g>
</g>
<!-- Node1&#45;&gt;Node2 -->
<g id="edge1" class="edge"><title>Node1&#45;&gt;Node2</title>
<path fill="none" stroke="midnightblue" d="M182.868,-276.108C161.002,-265.675 135.328,-253.425 114.716,-243.59"/>
<polygon fill="midnightblue" stroke="midnightblue" points="181.448,-279.308 191.98,-280.455 184.462,-272.99 181.448,-279.308"/>
</g>
<!-- Node3 -->
<g id="node3" class="node"><title>Node3</title>
<g id="a_node3"><a xlink:href="leon3_8funcat_2processor_8hpp.html" target="_top" xlink:title="core/models/extern\l/LEON3/simulatorSources\l/leon3.funcat/processor.hpp">
<polygon fill="white" stroke="black" points="160.367,-205.5 160.367,-243.5 299.233,-243.5 299.233,-205.5 160.367,-205.5"/>
<text text-anchor="start" x="168.367" y="-231.5" font-family="Helvetica,sans-Serif" font-size="10.00">core/models/extern</text>
<text text-anchor="start" x="168.367" y="-221.5" font-family="Helvetica,sans-Serif" font-size="10.00">/LEON3/simulatorSources</text>
<text text-anchor="middle" x="229.8" y="-211.5" font-family="Helvetica,sans-Serif" font-size="10.00">/leon3.funcat/processor.hpp</text>
</a>
</g>
</g>
<!-- Node1&#45;&gt;Node3 -->
<g id="edge2" class="edge"><title>Node1&#45;&gt;Node3</title>
<path fill="none" stroke="midnightblue" d="M229.8,-270.369C229.8,-261.377 229.8,-251.669 229.8,-243.59"/>
<polygon fill="midnightblue" stroke="midnightblue" points="226.3,-270.455 229.8,-280.455 233.3,-270.455 226.3,-270.455"/>
</g>
<!-- Node5 -->
<g id="node5" class="node"><title>Node5</title>
<g id="a_node5"><a xlink:href="leon3_8funcat_2processor_8cpp.html" target="_top" xlink:title="core/models/extern\l/LEON3/simulatorSources\l/leon3.funcat/processor.cpp">
<polygon fill="white" stroke="black" points="299.648,-130.5 299.648,-168.5 437.953,-168.5 437.953,-130.5 299.648,-130.5"/>
<text text-anchor="start" x="307.648" y="-156.5" font-family="Helvetica,sans-Serif" font-size="10.00">core/models/extern</text>
<text text-anchor="start" x="307.648" y="-146.5" font-family="Helvetica,sans-Serif" font-size="10.00">/LEON3/simulatorSources</text>
<text text-anchor="middle" x="368.8" y="-136.5" font-family="Helvetica,sans-Serif" font-size="10.00">/leon3.funcat/processor.cpp</text>
</a>
</g>
</g>
<!-- Node1&#45;&gt;Node5 -->
<g id="edge10" class="edge"><title>Node1&#45;&gt;Node5</title>
<path fill="none" stroke="midnightblue" d="M270.24,-274.559C283.074,-265.875 296.78,-255.376 307.8,-244 330.051,-221.03 348.96,-188.828 359.591,-168.837"/>
<polygon fill="midnightblue" stroke="midnightblue" points="267.978,-271.857 261.538,-280.269 271.819,-277.709 267.978,-271.857"/>
</g>
<!-- Node4 -->
<g id="node4" class="node"><title>Node4</title>
<g id="a_node4"><a xlink:href="leon3_8funcat_2main_8cpp.html" target="_top" xlink:title="core/models/extern\l/LEON3/simulatorSources\l/leon3.funcat/main.cpp">
<polygon fill="white" stroke="black" points="0,-130.5 0,-168.5 131.601,-168.5 131.601,-130.5 0,-130.5"/>
<text text-anchor="start" x="8" y="-156.5" font-family="Helvetica,sans-Serif" font-size="10.00">core/models/extern</text>
<text text-anchor="start" x="8" y="-146.5" font-family="Helvetica,sans-Serif" font-size="10.00">/LEON3/simulatorSources</text>
<text text-anchor="middle" x="65.8003" y="-136.5" font-family="Helvetica,sans-Serif" font-size="10.00">/leon3.funcat/main.cpp</text>
</a>
</g>
</g>
<!-- Node3&#45;&gt;Node4 -->
<g id="edge3" class="edge"><title>Node3&#45;&gt;Node4</title>
<path fill="none" stroke="midnightblue" d="M180.121,-201.387C156.548,-190.894 128.733,-178.513 106.442,-168.59"/>
<polygon fill="midnightblue" stroke="midnightblue" points="178.702,-204.586 189.261,-205.455 181.548,-198.191 178.702,-204.586"/>
</g>
<!-- Node3&#45;&gt;Node5 -->
<g id="edge4" class="edge"><title>Node3&#45;&gt;Node5</title>
<path fill="none" stroke="midnightblue" d="M273.238,-200.687C292.927,-190.347 315.879,-178.293 334.354,-168.59"/>
<polygon fill="midnightblue" stroke="midnightblue" points="271.386,-197.707 264.16,-205.455 274.641,-203.904 271.386,-197.707"/>
</g>
<!-- Node6 -->
<g id="node6" class="node"><title>Node6</title>
<g id="a_node6"><a xlink:href="leon3_8funcat_8h.html" target="_top" xlink:title="core/models/extern\l/LEON3/simulatorSources\l/leon3.funcat.h">
<polygon fill="white" stroke="black" points="150,-130.5 150,-168.5 281.601,-168.5 281.601,-130.5 150,-130.5"/>
<text text-anchor="start" x="158" y="-156.5" font-family="Helvetica,sans-Serif" font-size="10.00">core/models/extern</text>
<text text-anchor="start" x="158" y="-146.5" font-family="Helvetica,sans-Serif" font-size="10.00">/LEON3/simulatorSources</text>
<text text-anchor="middle" x="215.8" y="-136.5" font-family="Helvetica,sans-Serif" font-size="10.00">/leon3.funcat.h</text>
</a>
</g>
</g>
<!-- Node3&#45;&gt;Node6 -->
<g id="edge5" class="edge"><title>Node3&#45;&gt;Node6</title>
<path fill="none" stroke="midnightblue" d="M224.405,-195.369C222.681,-186.377 220.819,-176.669 219.27,-168.59"/>
<polygon fill="midnightblue" stroke="midnightblue" points="221.019,-196.293 226.34,-205.455 227.893,-194.975 221.019,-196.293"/>
</g>
<!-- Node7 -->
<g id="node7" class="node"><title>Node7</title>
<g id="a_node7"><a xlink:href="leon3processor_8h.html" target="_top" xlink:title="core/platforms/base\l/leon3processor.h">
<polygon fill="white" stroke="black" points="33.8916,-65.5 33.8916,-93.5 137.709,-93.5 137.709,-65.5 33.8916,-65.5"/>
<text text-anchor="start" x="41.8916" y="-81.5" font-family="Helvetica,sans-Serif" font-size="10.00">core/platforms/base</text>
<text text-anchor="middle" x="85.8003" y="-71.5" font-family="Helvetica,sans-Serif" font-size="10.00">/leon3processor.h</text>
</a>
</g>
</g>
<!-- Node6&#45;&gt;Node7 -->
<g id="edge6" class="edge"><title>Node6&#45;&gt;Node7</title>
<path fill="none" stroke="midnightblue" d="M172.204,-125.696C151.841,-115.044 128.324,-102.743 110.97,-93.6659"/>
<polygon fill="midnightblue" stroke="midnightblue" points="170.821,-128.922 181.304,-130.456 174.065,-122.719 170.821,-128.922"/>
</g>
<!-- Node8 -->
<g id="node8" class="node"><title>Node8</title>
<g id="a_node8"><a xlink:href="leon3mp_2sc__main_8cpp.html" target="_top" xlink:title="core/platforms/leon3mp\l/sc_main.cpp">
<polygon fill="white" stroke="black" points="155.554,-65.5 155.554,-93.5 276.046,-93.5 276.046,-65.5 155.554,-65.5"/>
<text text-anchor="start" x="163.554" y="-81.5" font-family="Helvetica,sans-Serif" font-size="10.00">core/platforms/leon3mp</text>
<text text-anchor="middle" x="215.8" y="-71.5" font-family="Helvetica,sans-Serif" font-size="10.00">/sc_main.cpp</text>
</a>
</g>
</g>
<!-- Node6&#45;&gt;Node8 -->
<g id="edge7" class="edge"><title>Node6&#45;&gt;Node8</title>
<path fill="none" stroke="midnightblue" d="M215.8,-120.013C215.8,-110.921 215.8,-101.289 215.8,-93.8104"/>
<polygon fill="midnightblue" stroke="midnightblue" points="212.3,-120.277 215.8,-130.277 219.3,-120.277 212.3,-120.277"/>
</g>
<!-- Node9 -->
<g id="node9" class="node"><title>Node9</title>
<g id="a_node9"><a xlink:href="leon3mp_8h.html" target="_top" xlink:title="core/platforms/newleon3mp\l/leon3mp.h">
<polygon fill="white" stroke="black" points="294.382,-65.5 294.382,-93.5 433.219,-93.5 433.219,-65.5 294.382,-65.5"/>
<text text-anchor="start" x="302.382" y="-81.5" font-family="Helvetica,sans-Serif" font-size="10.00">core/platforms/newleon3mp</text>
<text text-anchor="middle" x="363.8" y="-71.5" font-family="Helvetica,sans-Serif" font-size="10.00">/leon3mp.h</text>
</a>
</g>
</g>
<!-- Node6&#45;&gt;Node9 -->
<g id="edge8" class="edge"><title>Node6&#45;&gt;Node9</title>
<path fill="none" stroke="midnightblue" d="M264.184,-126.27C287.648,-115.489 315.033,-102.907 335.145,-93.6659"/>
<polygon fill="midnightblue" stroke="midnightblue" points="262.699,-123.1 255.073,-130.456 265.621,-129.461 262.699,-123.1"/>
</g>
<!-- Node10 -->
<g id="node10" class="node"><title>Node10</title>
<g id="a_node10"><a xlink:href="newleon3mp_2sc__main_8cpp.html" target="_top" xlink:title="core/platforms/newleon3mp\l/sc_main.cpp">
<polygon fill="white" stroke="black" points="294.382,-0.5 294.382,-28.5 433.219,-28.5 433.219,-0.5 294.382,-0.5"/>
<text text-anchor="start" x="302.382" y="-16.5" font-family="Helvetica,sans-Serif" font-size="10.00">core/platforms/newleon3mp</text>
<text text-anchor="middle" x="363.8" y="-6.5" font-family="Helvetica,sans-Serif" font-size="10.00">/sc_main.cpp</text>
</a>
</g>
</g>
<!-- Node9&#45;&gt;Node10 -->
<g id="edge9" class="edge"><title>Node9&#45;&gt;Node10</title>
<path fill="none" stroke="midnightblue" d="M363.8,-55.1641C363.8,-46.1693 363.8,-36.2205 363.8,-28.5369"/>
<polygon fill="midnightblue" stroke="midnightblue" points="360.3,-55.4463 363.8,-65.4464 367.3,-55.4464 360.3,-55.4463"/>
</g>
</g>
</svg>
