<?xml version="1.0" encoding="UTF-8" standalone="no"?>
<!DOCTYPE svg PUBLIC "-//W3C//DTD SVG 1.1//EN"
 "http://www.w3.org/Graphics/SVG/1.1/DTD/svg11.dtd">
<!-- Generated by graphviz version 2.38.0 (20140413.2041)
 -->
<!-- Title: core/models/extern/LEON3/simulatorSources/leon3.funcat/memory.hpp Pages: 1 -->
<!--zoomable 232 -->
<svg id="main" version="1.1" xmlns="http://www.w3.org/2000/svg" xmlns:xlink="http://www.w3.org/1999/xlink" xml:space="preserve" onload="init(evt)">
<style type="text/css"><![CDATA[
.edge:hover path { stroke: red; }
.edge:hover polygon { stroke: red; fill: red; }
]]></style>
<script type="text/javascript"><![CDATA[
var edges = document.getElementsByTagName('g');
if (edges && edges.length) {
  for (var i=0;i<edges.length;i++) {
    if (edges[i].id.substr(0,4)=='edge') {
      edges[i].setAttribute('class','edge');
    }
  }
}
]]></script>
        <defs>
                <circle id="rim" cx="0" cy="0" r="7"/>
                <circle id="rim2" cx="0" cy="0" r="3.5"/>
                <g id="zoomPlus">
                        <use xlink:href="#rim" fill="#404040">
                                <set attributeName="fill" to="#808080" begin="zoomplus.mouseover" end="zoomplus.mouseout"/>
                        </use>
                        <path d="M-4,0h8M0,-4v8" fill="none" stroke="white" stroke-width="1.5" pointer-events="none"/>
                </g>
                <g id="zoomMin">
                        <use xlink:href="#rim" fill="#404040">
                                <set attributeName="fill" to="#808080" begin="zoomminus.mouseover" end="zoomminus.mouseout"/>
                        </use>
                        <path d="M-4,0h8" fill="none" stroke="white" stroke-width="1.5" pointer-events="none"/>
                </g>
                <g id="dirArrow">
                        <path fill="none" stroke="white" stroke-width="1.5" d="M0,-3.0v7 M-2.5,-0.5L0,-3.0L2.5,-0.5"/>
                </g>
               <g id="resetDef">
                       <use xlink:href="#rim2" fill="#404040">
                               <set attributeName="fill" to="#808080" begin="reset.mouseover" end="reset.mouseout"/>
                       </use>
               </g>
        </defs>

<script type="text/javascript">
var viewWidth = 1036;
var viewHeight = 232;
var sectionId = 'dynsection-0';
</script>
<script xlink:href="svgpan.js"/>
<svg id="graph" class="graph">
<g id="viewport">
<title>core/models/extern/LEON3/simulatorSources/leon3.funcat/memory.hpp</title>
<polygon fill="white" stroke="none" points="-4,4 -4,-228 1031.8,-228 1031.8,4 -4,4"/>
<!-- Node1 -->
<g id="node1" class="node"><title>Node1</title>
<polygon fill="#bfbfbf" stroke="black" points="350.261,-185.5 350.261,-223.5 481.862,-223.5 481.862,-185.5 350.261,-185.5"/>
<text text-anchor="start" x="358.261" y="-211.5" font-family="Helvetica,sans-Serif" font-size="10.00">core/models/extern</text>
<text text-anchor="start" x="358.261" y="-201.5" font-family="Helvetica,sans-Serif" font-size="10.00">/LEON3/simulatorSources</text>
<text text-anchor="middle" x="416.062" y="-191.5" font-family="Helvetica,sans-Serif" font-size="10.00">/leon3.funcat/memory.hpp</text>
</g>
<!-- Node2 -->
<g id="node2" class="node"><title>Node2</title>
<g id="a_node2"><a xlink:href="ToolsIf_8hpp.html" target="_top" xlink:title="core/common/trapgen\l/ToolsIf.hpp">
<polygon fill="white" stroke="black" points="207.426,-120.5 207.426,-148.5 320.697,-148.5 320.697,-120.5 207.426,-120.5"/>
<text text-anchor="start" x="215.426" y="-136.5" font-family="Helvetica,sans-Serif" font-size="10.00">core/common/trapgen</text>
<text text-anchor="middle" x="264.062" y="-126.5" font-family="Helvetica,sans-Serif" font-size="10.00">/ToolsIf.hpp</text>
</a>
</g>
</g>
<!-- Node1&#45;&gt;Node2 -->
<g id="edge1" class="edge"><title>Node1&#45;&gt;Node2</title>
<path fill="none" stroke="midnightblue" d="M375.727,-185.456C353.102,-175.334 325.023,-162.772 302.682,-152.778"/>
<polygon fill="midnightblue" stroke="midnightblue" points="304.049,-149.555 293.491,-148.666 301.19,-155.944 304.049,-149.555"/>
</g>
<!-- Node9 -->
<g id="node9" class="node"><title>Node9</title>
<g id="a_node9"><a xlink:href="trap__utils_8hpp.html" target="_top" xlink:title="core/common/trapgen\l/utils/trap_utils.hpp">
<polygon fill="white" stroke="black" points="359.426,-120.5 359.426,-148.5 472.697,-148.5 472.697,-120.5 359.426,-120.5"/>
<text text-anchor="start" x="367.426" y="-136.5" font-family="Helvetica,sans-Serif" font-size="10.00">core/common/trapgen</text>
<text text-anchor="middle" x="416.062" y="-126.5" font-family="Helvetica,sans-Serif" font-size="10.00">/utils/trap_utils.hpp</text>
</a>
</g>
</g>
<!-- Node1&#45;&gt;Node9 -->
<g id="edge8" class="edge"><title>Node1&#45;&gt;Node9</title>
<path fill="none" stroke="midnightblue" d="M416.062,-185.277C416.062,-177.2 416.062,-167.597 416.062,-158.99"/>
<polygon fill="midnightblue" stroke="midnightblue" points="419.562,-158.81 416.062,-148.81 412.562,-158.81 419.562,-158.81"/>
</g>
<!-- Node14 -->
<g id="node14" class="node"><title>Node14</title>
<g id="a_node14"><a xlink:href="systemc_8h.html" target="_top" xlink:title="core/common/systemc.h">
<polygon fill="white" stroke="black" points="653.879,-125.5 653.879,-143.5 778.244,-143.5 778.244,-125.5 653.879,-125.5"/>
<text text-anchor="middle" x="716.062" y="-131.5" font-family="Helvetica,sans-Serif" font-size="10.00">core/common/systemc.h</text>
</a>
</g>
</g>
<!-- Node1&#45;&gt;Node14 -->
<g id="edge20" class="edge"><title>Node1&#45;&gt;Node14</title>
<path fill="none" stroke="midnightblue" d="M481.898,-188.577C539.02,-175.629 620.22,-157.224 670.448,-145.839"/>
<polygon fill="midnightblue" stroke="midnightblue" points="671.391,-149.214 680.37,-143.59 669.843,-142.387 671.391,-149.214"/>
</g>
<!-- Node3 -->
<g id="node3" class="node"><title>Node3</title>
<g id="a_node3"><a xlink:href="instructionBase_8hpp.html" target="_top" xlink:title="core/common/trapgen\l/instructionBase.hpp">
<polygon fill="white" stroke="black" points="84.4263,-55.5 84.4263,-83.5 197.697,-83.5 197.697,-55.5 84.4263,-55.5"/>
<text text-anchor="start" x="92.4263" y="-71.5" font-family="Helvetica,sans-Serif" font-size="10.00">core/common/trapgen</text>
<text text-anchor="middle" x="141.062" y="-61.5" font-family="Helvetica,sans-Serif" font-size="10.00">/instructionBase.hpp</text>
</a>
</g>
</g>
<!-- Node2&#45;&gt;Node3 -->
<g id="edge2" class="edge"><title>Node2&#45;&gt;Node3</title>
<path fill="none" stroke="midnightblue" d="M238.576,-120.446C220.352,-111.112 195.614,-98.4417 175.615,-88.1982"/>
<polygon fill="midnightblue" stroke="midnightblue" points="177.011,-84.9806 166.515,-83.5369 173.819,-91.2109 177.011,-84.9806"/>
</g>
<!-- Node8 -->
<g id="node8" class="node"><title>Node8</title>
<polygon fill="white" stroke="#bfbfbf" points="331.889,-0.5 331.889,-18.5 376.234,-18.5 376.234,-0.5 331.889,-0.5"/>
<text text-anchor="middle" x="354.062" y="-6.5" font-family="Helvetica,sans-Serif" font-size="10.00">cstdlib</text>
</g>
<!-- Node2&#45;&gt;Node8 -->
<g id="edge7" class="edge"><title>Node2&#45;&gt;Node8</title>
<path fill="none" stroke="midnightblue" d="M273.693,-120.337C290.26,-97.696 324.102,-51.4442 342.133,-26.8028"/>
<polygon fill="midnightblue" stroke="midnightblue" points="345.119,-28.6482 348.2,-18.5111 339.47,-24.5146 345.119,-28.6482"/>
</g>
<!-- Node4 -->
<g id="node4" class="node"><title>Node4</title>
<polygon fill="white" stroke="#bfbfbf" points="0,-0.5 0,-18.5 52.123,-18.5 52.123,-0.5 0,-0.5"/>
<text text-anchor="middle" x="26.0615" y="-6.5" font-family="Helvetica,sans-Serif" font-size="10.00">ostream</text>
</g>
<!-- Node3&#45;&gt;Node4 -->
<g id="edge3" class="edge"><title>Node3&#45;&gt;Node4</title>
<path fill="none" stroke="midnightblue" d="M115.253,-55.4837C96.1052,-45.8264 70.1383,-32.73 51.1613,-23.159"/>
<polygon fill="midnightblue" stroke="midnightblue" points="52.7128,-20.0216 42.2079,-18.6434 49.5605,-26.2717 52.7128,-20.0216"/>
</g>
<!-- Node5 -->
<g id="node5" class="node"><title>Node5</title>
<polygon fill="white" stroke="#bfbfbf" points="202.281,-0.5 202.281,-18.5 253.842,-18.5 253.842,-0.5 202.281,-0.5"/>
<text text-anchor="middle" x="228.062" y="-6.5" font-family="Helvetica,sans-Serif" font-size="10.00">sstream</text>
</g>
<!-- Node3&#45;&gt;Node5 -->
<g id="edge4" class="edge"><title>Node3&#45;&gt;Node5</title>
<path fill="none" stroke="midnightblue" d="M160.803,-55.3389C174.621,-46.1268 193.053,-33.8387 207.127,-24.4561"/>
<polygon fill="midnightblue" stroke="midnightblue" points="209.275,-27.2307 215.654,-18.7715 205.392,-21.4063 209.275,-27.2307"/>
</g>
<!-- Node6 -->
<g id="node6" class="node"><title>Node6</title>
<polygon fill="white" stroke="#bfbfbf" points="273.835,-0.5 273.835,-18.5 314.288,-18.5 314.288,-0.5 273.835,-0.5"/>
<text text-anchor="middle" x="294.062" y="-6.5" font-family="Helvetica,sans-Serif" font-size="10.00">string</text>
</g>
<!-- Node3&#45;&gt;Node6 -->
<g id="edge5" class="edge"><title>Node3&#45;&gt;Node6</title>
<path fill="none" stroke="midnightblue" d="M175.398,-55.4837C201.998,-45.3998 238.49,-31.5662 263.958,-21.9118"/>
<polygon fill="midnightblue" stroke="midnightblue" points="265.358,-25.1241 273.468,-18.3066 262.877,-18.5786 265.358,-25.1241"/>
</g>
<!-- Node7 -->
<g id="node7" class="node"><title>Node7</title>
<polygon fill="white" stroke="#bfbfbf" points="69.8647,-0.5 69.8647,-18.5 184.258,-18.5 184.258,-0.5 69.8647,-0.5"/>
<text text-anchor="middle" x="127.062" y="-6.5" font-family="Helvetica,sans-Serif" font-size="10.00">boost/lexical_cast.hpp</text>
</g>
<!-- Node3&#45;&gt;Node7 -->
<g id="edge6" class="edge"><title>Node3&#45;&gt;Node7</title>
<path fill="none" stroke="midnightblue" d="M137.885,-55.3389C135.979,-47.4428 133.527,-37.2868 131.44,-28.6376"/>
<polygon fill="midnightblue" stroke="midnightblue" points="134.807,-27.671 129.058,-18.7715 128.002,-29.3136 134.807,-27.671"/>
</g>
<!-- Node9&#45;&gt;Node5 -->
<g id="edge11" class="edge"><title>Node9&#45;&gt;Node5</title>
<path fill="none" stroke="midnightblue" d="M388.18,-120.456C369.078,-111.128 343.433,-97.824 322.062,-84 293.81,-65.7252 263.568,-41.053 245.235,-25.4575"/>
<polygon fill="midnightblue" stroke="midnightblue" points="247.118,-22.4609 237.252,-18.5985 242.556,-27.7702 247.118,-22.4609"/>
</g>
<!-- Node9&#45;&gt;Node6 -->
<g id="edge13" class="edge"><title>Node9&#45;&gt;Node6</title>
<path fill="none" stroke="midnightblue" d="M396.223,-120.428C382.766,-111.088 364.963,-97.7803 351.062,-84 333.207,-66.3014 315.987,-42.9456 305.234,-27.3595"/>
<polygon fill="midnightblue" stroke="midnightblue" points="307.93,-25.0985 299.426,-18.7789 302.133,-29.0222 307.93,-25.0985"/>
</g>
<!-- Node10 -->
<g id="node10" class="node"><title>Node10</title>
<polygon fill="white" stroke="#bfbfbf" points="394.658,-0.5 394.658,-18.5 453.465,-18.5 453.465,-0.5 394.658,-0.5"/>
<text text-anchor="middle" x="424.062" y="-6.5" font-family="Helvetica,sans-Serif" font-size="10.00">exception</text>
</g>
<!-- Node9&#45;&gt;Node10 -->
<g id="edge9" class="edge"><title>Node9&#45;&gt;Node10</title>
<path fill="none" stroke="midnightblue" d="M393.075,-120.398C380.495,-111.832 366.077,-99.3833 359.062,-84 353.714,-72.2729 353.05,-66.4011 359.062,-55 366.453,-40.9823 380.47,-30.5373 393.601,-23.3027"/>
<polygon fill="midnightblue" stroke="midnightblue" points="395.556,-26.2358 402.898,-18.5969 392.395,-19.9902 395.556,-26.2358"/>
</g>
<!-- Node11 -->
<g id="node11" class="node"><title>Node11</title>
<polygon fill="white" stroke="#bfbfbf" points="471.889,-0.5 471.889,-18.5 526.234,-18.5 526.234,-0.5 471.889,-0.5"/>
<text text-anchor="middle" x="499.062" y="-6.5" font-family="Helvetica,sans-Serif" font-size="10.00">iostream</text>
</g>
<!-- Node9&#45;&gt;Node11 -->
<g id="edge10" class="edge"><title>Node9&#45;&gt;Node11</title>
<path fill="none" stroke="midnightblue" d="M468.438,-120.417C487.092,-112.961 506.161,-101.481 517.062,-84 527.884,-66.6442 518.885,-43.2143 510.172,-27.5174"/>
<polygon fill="midnightblue" stroke="midnightblue" points="513.12,-25.628 504.963,-18.8665 507.123,-29.2389 513.12,-25.628"/>
</g>
<!-- Node12 -->
<g id="node12" class="node"><title>Node12</title>
<polygon fill="white" stroke="#bfbfbf" points="544.66,-0.5 544.66,-18.5 603.463,-18.5 603.463,-0.5 544.66,-0.5"/>
<text text-anchor="middle" x="574.062" y="-6.5" font-family="Helvetica,sans-Serif" font-size="10.00">stdexcept</text>
</g>
<!-- Node9&#45;&gt;Node12 -->
<g id="edge12" class="edge"><title>Node9&#45;&gt;Node12</title>
<path fill="none" stroke="midnightblue" d="M467.063,-120.48C489.592,-112.755 515.188,-101.054 534.062,-84 550.862,-68.8194 562.032,-44.8793 568.2,-28.4728"/>
<polygon fill="midnightblue" stroke="midnightblue" points="571.534,-29.5418 571.54,-18.9469 564.928,-27.2256 571.534,-29.5418"/>
</g>
<!-- Node13 -->
<g id="node13" class="node"><title>Node13</title>
<g id="a_node13"><a xlink:href="customExceptions_8hpp.html" target="_top" xlink:title="core/common/trapgen\l/utils/customExceptions.hpp">
<polygon fill="white" stroke="black" points="368.086,-55.5 368.086,-83.5 508.037,-83.5 508.037,-55.5 368.086,-55.5"/>
<text text-anchor="start" x="376.086" y="-71.5" font-family="Helvetica,sans-Serif" font-size="10.00">core/common/trapgen</text>
<text text-anchor="middle" x="438.062" y="-61.5" font-family="Helvetica,sans-Serif" font-size="10.00">/utils/customExceptions.hpp</text>
</a>
</g>
</g>
<!-- Node9&#45;&gt;Node13 -->
<g id="edge14" class="edge"><title>Node9&#45;&gt;Node13</title>
<path fill="none" stroke="midnightblue" d="M420.62,-120.446C423.363,-112.591 426.932,-102.371 430.126,-93.2247"/>
<polygon fill="midnightblue" stroke="midnightblue" points="433.516,-94.1318 433.509,-83.5369 426.908,-91.8239 433.516,-94.1318"/>
</g>
<!-- Node13&#45;&gt;Node6 -->
<g id="edge19" class="edge"><title>Node13&#45;&gt;Node6</title>
<path fill="none" stroke="midnightblue" d="M405.745,-55.4837C381.111,-45.5618 347.465,-32.0098 323.558,-22.3804"/>
<polygon fill="midnightblue" stroke="midnightblue" points="324.863,-19.133 314.28,-18.6434 322.248,-25.6261 324.863,-19.133"/>
</g>
<!-- Node13&#45;&gt;Node8 -->
<g id="edge15" class="edge"><title>Node13&#45;&gt;Node8</title>
<path fill="none" stroke="midnightblue" d="M419.001,-55.3389C405.659,-46.1268 387.862,-33.8387 374.274,-24.4561"/>
<polygon fill="midnightblue" stroke="midnightblue" points="376.259,-21.5733 366.041,-18.7715 372.281,-27.3336 376.259,-21.5733"/>
</g>
<!-- Node13&#45;&gt;Node10 -->
<g id="edge16" class="edge"><title>Node13&#45;&gt;Node10</title>
<path fill="none" stroke="midnightblue" d="M434.885,-55.3389C432.979,-47.4428 430.527,-37.2868 428.44,-28.6376"/>
<polygon fill="midnightblue" stroke="midnightblue" points="431.807,-27.671 426.058,-18.7715 425.002,-29.3136 431.807,-27.671"/>
</g>
<!-- Node13&#45;&gt;Node11 -->
<g id="edge17" class="edge"><title>Node13&#45;&gt;Node11</title>
<path fill="none" stroke="midnightblue" d="M451.903,-55.3389C461.131,-46.5654 473.292,-35.002 482.954,-25.8156"/>
<polygon fill="midnightblue" stroke="midnightblue" points="485.527,-28.1986 490.362,-18.7715 480.703,-23.1256 485.527,-28.1986"/>
</g>
<!-- Node13&#45;&gt;Node12 -->
<g id="edge18" class="edge"><title>Node13&#45;&gt;Node12</title>
<path fill="none" stroke="midnightblue" d="M468.583,-55.4837C491.641,-45.65 523.06,-32.2505 545.6,-22.6381"/>
<polygon fill="midnightblue" stroke="midnightblue" points="547.141,-25.7858 554.967,-18.6434 544.395,-19.3469 547.141,-25.7858"/>
</g>
<!-- Node14&#45;&gt;Node14 -->
<g id="edge21" class="edge"><title>Node14&#45;&gt;Node14</title>
<path fill="none" stroke="midnightblue" d="M740.277,-143.593C766.488,-149.469 796.244,-146.438 796.244,-134.5 796.244,-124.055 773.462,-120.428 750.207,-123.621"/>
<polygon fill="midnightblue" stroke="midnightblue" points="749.5,-120.192 740.277,-125.407 750.739,-127.082 749.5,-120.192"/>
</g>
<!-- Node15 -->
<g id="node15" class="node"><title>Node15</title>
<polygon fill="white" stroke="#bfbfbf" points="602.227,-60.5 602.227,-78.5 639.896,-78.5 639.896,-60.5 602.227,-60.5"/>
<text text-anchor="middle" x="621.062" y="-66.5" font-family="Helvetica,sans-Serif" font-size="10.00">tlm.h</text>
</g>
<!-- Node14&#45;&gt;Node15 -->
<g id="edge22" class="edge"><title>Node14&#45;&gt;Node15</title>
<path fill="none" stroke="midnightblue" d="M703.642,-125.264C687.909,-114.831 660.575,-96.704 641.689,-84.1792"/>
<polygon fill="midnightblue" stroke="midnightblue" points="643.452,-81.1489 633.184,-78.539 639.583,-86.9827 643.452,-81.1489"/>
</g>
<!-- Node16 -->
<g id="node16" class="node"><title>Node16</title>
<polygon fill="white" stroke="#bfbfbf" points="658.32,-55.5 658.32,-83.5 773.803,-83.5 773.803,-55.5 658.32,-55.5"/>
<text text-anchor="start" x="666.32" y="-71.5" font-family="Helvetica,sans-Serif" font-size="10.00">tlm_utils/simple_target</text>
<text text-anchor="middle" x="716.062" y="-61.5" font-family="Helvetica,sans-Serif" font-size="10.00">_socket.h</text>
</g>
<!-- Node14&#45;&gt;Node16 -->
<g id="edge23" class="edge"><title>Node14&#45;&gt;Node16</title>
<path fill="none" stroke="midnightblue" d="M716.062,-125.264C716.062,-117.359 716.062,-105.038 716.062,-94.0835"/>
<polygon fill="midnightblue" stroke="midnightblue" points="719.562,-93.7981 716.062,-83.7981 712.562,-93.7982 719.562,-93.7981"/>
</g>
<!-- Node17 -->
<g id="node17" class="node"><title>Node17</title>
<polygon fill="white" stroke="#bfbfbf" points="791.988,-55.5 791.988,-83.5 914.135,-83.5 914.135,-55.5 791.988,-55.5"/>
<text text-anchor="start" x="799.988" y="-71.5" font-family="Helvetica,sans-Serif" font-size="10.00">tlm_utils/simple_initiator</text>
<text text-anchor="middle" x="853.062" y="-61.5" font-family="Helvetica,sans-Serif" font-size="10.00">_socket.h</text>
</g>
<!-- Node14&#45;&gt;Node17 -->
<g id="edge24" class="edge"><title>Node14&#45;&gt;Node17</title>
<path fill="none" stroke="midnightblue" d="M733.691,-125.393C754.224,-115.951 788.725,-100.085 815.37,-87.8324"/>
<polygon fill="midnightblue" stroke="midnightblue" points="817.168,-90.8581 824.791,-83.5002 814.243,-84.4983 817.168,-90.8581"/>
</g>
<!-- Node18 -->
<g id="node18" class="node"><title>Node18</title>
<polygon fill="white" stroke="#bfbfbf" points="932.32,-55.5 932.32,-83.5 1027.8,-83.5 1027.8,-55.5 932.32,-55.5"/>
<text text-anchor="start" x="940.32" y="-71.5" font-family="Helvetica,sans-Serif" font-size="10.00">tlm_utils/peq_with</text>
<text text-anchor="middle" x="980.062" y="-61.5" font-family="Helvetica,sans-Serif" font-size="10.00">_get.h</text>
</g>
<!-- Node14&#45;&gt;Node18 -->
<g id="edge25" class="edge"><title>Node14&#45;&gt;Node18</title>
<path fill="none" stroke="midnightblue" d="M749.765,-125.457C793.252,-115.08 869.574,-96.8662 922.372,-84.2669"/>
<polygon fill="midnightblue" stroke="midnightblue" points="923.357,-87.6301 932.272,-81.9044 921.732,-80.8213 923.357,-87.6301"/>
</g>
</g>
</svg>
        <g id="navigator" transform="translate(0 0)" fill="#404254">
                <rect fill="#f2f5e9" fill-opacity="0.5" stroke="#606060" stroke-width=".5" x="0" y="0" width="60" height="60"/>
                <use id="zoomplus" xlink:href="#zoomPlus" x="17" y="9" onmousedown="handleZoom(evt,'in')"/>
                <use id="zoomminus" xlink:href="#zoomMin" x="42" y="9" onmousedown="handleZoom(evt,'out')"/>
                <use id="reset" xlink:href="#resetDef" x="30" y="36" onmousedown="handleReset()"/>
                <g id="arrowUp" xlink:href="#dirArrow" transform="translate(30 24)" onmousedown="handlePan(0,-1)">
                  <use xlink:href="#rim" fill="#404040">
                        <set attributeName="fill" to="#808080" begin="arrowUp.mouseover" end="arrowUp.mouseout"/>
                  </use>
                  <path fill="none" stroke="white" stroke-width="1.5" d="M0,-3.0v7 M-2.5,-0.5L0,-3.0L2.5,-0.5"/>
                </g>
                <g id="arrowRight" xlink:href="#dirArrow" transform="rotate(90) translate(36 -43)" onmousedown="handlePan(1,0)">
                  <use xlink:href="#rim" fill="#404040">
                        <set attributeName="fill" to="#808080" begin="arrowRight.mouseover" end="arrowRight.mouseout"/>
                  </use>
                  <path fill="none" stroke="white" stroke-width="1.5" d="M0,-3.0v7 M-2.5,-0.5L0,-3.0L2.5,-0.5"/>
                </g>
                <g id="arrowDown" xlink:href="#dirArrow" transform="rotate(180) translate(-30 -48)" onmousedown="handlePan(0,1)">
                  <use xlink:href="#rim" fill="#404040">
                        <set attributeName="fill" to="#808080" begin="arrowDown.mouseover" end="arrowDown.mouseout"/>
                  </use>
                  <path fill="none" stroke="white" stroke-width="1.5" d="M0,-3.0v7 M-2.5,-0.5L0,-3.0L2.5,-0.5"/>
                </g>
                <g id="arrowLeft" xlink:href="#dirArrow" transform="rotate(270) translate(-36 17)" onmousedown="handlePan(-1,0)">
                  <use xlink:href="#rim" fill="#404040">
                        <set attributeName="fill" to="#808080" begin="arrowLeft.mouseover" end="arrowLeft.mouseout"/>
                  </use>
                  <path fill="none" stroke="white" stroke-width="1.5" d="M0,-3.0v7 M-2.5,-0.5L0,-3.0L2.5,-0.5"/>
                </g>
        </g>
        <svg viewBox="0 0 15 15" width="100%" height="30px" preserveAspectRatio="xMaxYMin meet">
         <g id="arrow_out" transform="scale(0.3 0.3)">
          <a xlink:href="leon3_8funcat_2memory_8hpp__incl_org.svg" target="_base">
           <rect id="button" ry="5" rx="5" y="6" x="6" height="38" width="38"
                fill="#f2f5e9" fill-opacity="0.5" stroke="#606060" stroke-width="1.0"/>
           <path id="arrow"
             d="M 11.500037,31.436501 C 11.940474,20.09759 22.043105,11.32322 32.158766,21.979434 L 37.068811,17.246167 C 37.068811,17.246167 37.088388,32 37.088388,32 L 22.160133,31.978069 C 22.160133,31.978069 26.997745,27.140456 26.997745,27.140456 C 18.528582,18.264221 13.291696,25.230495 11.500037,31.436501 z"
             style="fill:#404040;"/>
          </a>
         </g>
        </svg>
</svg>
