<?xml version="1.0" encoding="UTF-8" standalone="no"?>
<!DOCTYPE svg PUBLIC "-//W3C//DTD SVG 1.1//EN"
 "http://www.w3.org/Graphics/SVG/1.1/DTD/svg11.dtd">
<!-- Generated by graphviz version 2.26.0 (20091210.2329)
 -->
<!-- Title: core/models/extern/LEON3/simulatorSources/leon3.funclt/interface.cpp Pages: 1 -->
<!--zoomable 510 -->
<svg id="main" version="1.1" xmlns="http://www.w3.org/2000/svg" xmlns:xlink="http://www.w3.org/1999/xlink" xml:space="preserve" onload="init(evt)">
<style type="text/css"><![CDATA[
.edge:hover path { stroke: red; }
.edge:hover polygon { stroke: red; fill: red; }
]]></style>
<script type="text/javascript"><![CDATA[
var edges = document.getElementsByTagName('g');
if (edges && edges.length) {
  for (var i=0;i<edges.length;i++) {
    if (edges[i].id.substr(0,4)=='edge') {
      edges[i].setAttribute('class','edge');
    }
  }
}
]]></script>
        <defs>
                <circle id="rim" cx="0" cy="0" r="7"/>
                <circle id="rim2" cx="0" cy="0" r="3.5"/>
                <g id="zoomPlus">
                        <use xlink:href="#rim" fill="#404040">
                                <set attributeName="fill" to="#808080" begin="zoomplus.mouseover" end="zoomplus.mouseout"/>
                        </use>
                        <path d="M-4,0h8M0,-4v8" fill="none" stroke="white" stroke-width="1.5" pointer-events="none"/>
                </g>
                <g id="zoomMin">
                        <use xlink:href="#rim" fill="#404040">
                                <set attributeName="fill" to="#808080" begin="zoomminus.mouseover" end="zoomminus.mouseout"/>
                        </use>
                        <path d="M-4,0h8" fill="none" stroke="white" stroke-width="1.5" pointer-events="none"/>
                </g>
                <g id="dirArrow">
                        <path fill="none" stroke="white" stroke-width="1.5" d="M0,-3.0v7 M-2.5,-0.5L0,-3.0L2.5,-0.5"/>
                </g>
               <g id="resetDef">
                       <use xlink:href="#rim2" fill="#404040">
                               <set attributeName="fill" to="#808080" begin="reset.mouseover" end="reset.mouseout"/>
                       </use>
               </g>
        </defs>

<script type="text/javascript">
var viewWidth = 1028;
var viewHeight = 510;
var sectionId = 'dynsection-0';
</script>
<script xlink:href="svgpan.js"/>
<svg id="graph" class="graph">
<g id="viewport">
<title>core/models/extern/LEON3/simulatorSources/leon3.funclt/interface.cpp</title>
<polygon fill="white" stroke="white" points="-4,5 -4,-506 1025.12,-506 1025.12,5 -4,5"/>
<!-- Node1 -->
<g id="node1" class="node"><title>Node1</title>
<polygon fill="#bfbfbf" stroke="black" points="437.975,-454.5 437.975,-501.5 568.975,-501.5 568.975,-454.5 437.975,-454.5"/>
<text text-anchor="start" x="445.975" y="-488.5" font-family="Helvetica,sans-Serif" font-size="10.00">core/models/extern</text>
<text text-anchor="start" x="445.975" y="-475.5" font-family="Helvetica,sans-Serif" font-size="10.00">/LEON3/simulatorSources</text>
<text text-anchor="middle" x="503.475" y="-462.5" font-family="Helvetica,sans-Serif" font-size="10.00">/leon3.funclt/interface.cpp</text>
</g>
<!-- Node2 -->
<g id="node3" class="node"><title>Node2</title>
<a xlink:href="leon3_8funclt_2interface_8hpp.html" target="_top" xlink:title="core/models/extern\l/LEON3/simulatorSources\l/leon3.funclt/interface.hpp">
<polygon fill="white" stroke="black" points="437.975,-370.5 437.975,-417.5 568.975,-417.5 568.975,-370.5 437.975,-370.5"/>
<text text-anchor="start" x="445.975" y="-404.5" font-family="Helvetica,sans-Serif" font-size="10.00">core/models/extern</text>
<text text-anchor="start" x="445.975" y="-391.5" font-family="Helvetica,sans-Serif" font-size="10.00">/LEON3/simulatorSources</text>
<text text-anchor="middle" x="503.475" y="-378.5" font-family="Helvetica,sans-Serif" font-size="10.00">/leon3.funclt/interface.hpp</text>
</a>
</g>
<!-- Node1&#45;&gt;Node2 -->
<g id="edge2" class="edge"><title>Node1&#45;&gt;Node2</title>
<path fill="none" stroke="midnightblue" d="M503.475,-454.154C503.475,-445.926 503.475,-436.548 503.475,-427.684"/>
<polygon fill="midnightblue" stroke="midnightblue" points="506.976,-427.615 503.475,-417.615 499.976,-427.615 506.976,-427.615"/>
</g>
<!-- Node3 -->
<g id="node5" class="node"><title>Node3</title>
<a xlink:href="ABIIf_8hpp.html" target="_top" xlink:title="core/common/trapgen\l/ABIIf.hpp">
<polygon fill="white" stroke="black" points="112.975,-293 112.975,-327 223.975,-327 223.975,-293 112.975,-293"/>
<text text-anchor="start" x="120.975" y="-314" font-family="Helvetica,sans-Serif" font-size="10.00">core/common/trapgen</text>
<text text-anchor="middle" x="168.475" y="-301" font-family="Helvetica,sans-Serif" font-size="10.00">/ABIIf.hpp</text>
</a>
</g>
<!-- Node1&#45;&gt;Node3 -->
<g id="edge92" class="edge"><title>Node1&#45;&gt;Node3</title>
<path fill="none" stroke="midnightblue" d="M437.726,-469.011C369.784,-458.711 269.296,-440.338 237.475,-418 208.698,-397.798 189.157,-361.385 178.414,-336.472"/>
<polygon fill="midnightblue" stroke="midnightblue" points="181.648,-335.134 174.6,-327.224 175.177,-337.803 181.648,-335.134"/>
</g>
<!-- Node4 -->
<g id="node7" class="node"><title>Node4</title>
<polygon fill="white" stroke="#bfbfbf" points="234.475,-215.5 234.475,-236.5 278.475,-236.5 278.475,-215.5 234.475,-215.5"/>
<text text-anchor="middle" x="256.475" y="-223.5" font-family="Helvetica,sans-Serif" font-size="10.00">vector</text>
</g>
<!-- Node1&#45;&gt;Node4 -->
<g id="edge104" class="edge"><title>Node1&#45;&gt;Node4</title>
<path fill="none" stroke="midnightblue" d="M437.812,-456.128C383.294,-434.281 308.712,-395.059 270.475,-334 253.832,-307.422 252.878,-269.949 254.27,-246.855"/>
<polygon fill="midnightblue" stroke="midnightblue" points="257.767,-247.033 255.083,-236.784 250.79,-246.47 257.767,-247.033"/>
</g>
<!-- Node5 -->
<g id="node9" class="node"><title>Node5</title>
<polygon fill="white" stroke="#bfbfbf" points="16.4755,-215.5 16.4755,-236.5 140.475,-236.5 140.475,-215.5 16.4755,-215.5"/>
<text text-anchor="middle" x="78.4755" y="-223.5" font-family="Helvetica,sans-Serif" font-size="10.00">boost/circular_buffer.hpp</text>
</g>
<!-- Node1&#45;&gt;Node5 -->
<g id="edge100" class="edge"><title>Node1&#45;&gt;Node5</title>
<path fill="none" stroke="midnightblue" d="M437.951,-473.858C373.037,-467.837 271.948,-453.216 191.475,-418 133.819,-392.769 105.859,-390.172 77.4755,-334 63.4494,-306.243 68.0178,-269.119 72.9739,-246.416"/>
<polygon fill="midnightblue" stroke="midnightblue" points="76.415,-247.076 75.3583,-236.534 69.6103,-245.435 76.415,-247.076"/>
</g>
<!-- Node6 -->
<g id="node11" class="node"><title>Node6</title>
<a xlink:href="instructionBase_8hpp.html" target="_top" xlink:title="core/common/trapgen\l/instructionBase.hpp">
<polygon fill="white" stroke="black" points="326.975,-131 326.975,-165 437.975,-165 437.975,-131 326.975,-131"/>
<text text-anchor="start" x="334.975" y="-152" font-family="Helvetica,sans-Serif" font-size="10.00">core/common/trapgen</text>
<text text-anchor="middle" x="382.475" y="-139" font-family="Helvetica,sans-Serif" font-size="10.00">/instructionBase.hpp</text>
</a>
</g>
<!-- Node1&#45;&gt;Node6 -->
<g id="edge102" class="edge"><title>Node1&#45;&gt;Node6</title>
<path fill="none" stroke="midnightblue" d="M545.276,-454.367C558.023,-444.854 570.502,-432.632 577.475,-418 586.654,-398.742 581.391,-390.971 577.475,-370 562.781,-291.3 568.388,-259.301 512.475,-202 502.201,-191.471 472.84,-178.902 444.616,-168.541"/>
<polygon fill="midnightblue" stroke="midnightblue" points="445.712,-165.216 435.117,-165.118 443.338,-171.801 445.712,-165.216"/>
</g>
<!-- Node9 -->
<g id="node17" class="node"><title>Node9</title>
<polygon fill="white" stroke="#bfbfbf" points="578.975,-0.5 578.975,-21.5 619.975,-21.5 619.975,-0.5 578.975,-0.5"/>
<text text-anchor="middle" x="599.475" y="-8.5" font-family="Helvetica,sans-Serif" font-size="10.00">string</text>
</g>
<!-- Node1&#45;&gt;Node9 -->
<g id="edge106" class="edge"><title>Node1&#45;&gt;Node9</title>
<path fill="none" stroke="midnightblue" d="M569.089,-470.632C708.067,-453.198 1019.48,-403.682 1019.48,-310 1019.48,-310 1019.48,-310 1019.48,-148 1019.48,-106.485 1025.98,-85.0335 994.475,-58 966.929,-34.3644 718.239,-17.852 630.196,-12.7033"/>
<polygon fill="midnightblue" stroke="midnightblue" points="630.231,-9.19952 620.046,-12.1186 629.828,-16.1879 630.231,-9.19952"/>
</g>
<!-- Node11 -->
<g id="node21" class="node"><title>Node11</title>
<a xlink:href="trap__utils_8hpp.html" target="_top" xlink:title="core/common/trapgen\l/utils/trap_utils.hpp">
<polygon fill="white" stroke="black" points="198.975,-131 198.975,-165 309.975,-165 309.975,-131 198.975,-131"/>
<text text-anchor="start" x="206.975" y="-152" font-family="Helvetica,sans-Serif" font-size="10.00">core/common/trapgen</text>
<text text-anchor="middle" x="254.475" y="-139" font-family="Helvetica,sans-Serif" font-size="10.00">/utils/trap_utils.hpp</text>
</a>
</g>
<!-- Node1&#45;&gt;Node11 -->
<g id="edge108" class="edge"><title>Node1&#45;&gt;Node11</title>
<path fill="none" stroke="midnightblue" d="M437.919,-475.379C337.378,-470.205 151.097,-455.706 97.4755,-418 28.1852,-369.277 28.0958,-332.158 7.4755,-250 2.28224,-229.308 -5.90189,-218.618 7.4755,-202 29.8469,-174.209 123.397,-159.939 188.712,-153.224"/>
<polygon fill="midnightblue" stroke="midnightblue" points="189.331,-156.68 198.937,-152.21 188.64,-149.714 189.331,-156.68"/>
</g>
<!-- Node17 -->
<g id="node39" class="node"><title>Node17</title>
<a xlink:href="leon3_8funclt_2memory_8hpp.html" target="_top" xlink:title="core/models/extern\l/LEON3/simulatorSources\l/leon3.funclt/memory.hpp">
<polygon fill="white" stroke="black" points="316.975,-286.5 316.975,-333.5 447.975,-333.5 447.975,-286.5 316.975,-286.5"/>
<text text-anchor="start" x="324.975" y="-320.5" font-family="Helvetica,sans-Serif" font-size="10.00">core/models/extern</text>
<text text-anchor="start" x="324.975" y="-307.5" font-family="Helvetica,sans-Serif" font-size="10.00">/LEON3/simulatorSources</text>
<text text-anchor="middle" x="382.475" y="-294.5" font-family="Helvetica,sans-Serif" font-size="10.00">/leon3.funclt/memory.hpp</text>
</a>
</g>
<!-- Node1&#45;&gt;Node17 -->
<g id="edge94" class="edge"><title>Node1&#45;&gt;Node17</title>
<path fill="none" stroke="midnightblue" d="M467.58,-454.431C454.323,-444.403 439.985,-431.825 429.475,-418 412.336,-395.453 399.985,-365.69 392.258,-343.119"/>
<polygon fill="midnightblue" stroke="midnightblue" points="395.582,-342.023 389.131,-333.618 388.932,-344.211 395.582,-342.023"/>
</g>
<!-- Node19 -->
<g id="node46" class="node"><title>Node19</title>
<a xlink:href="systemc_8h.html" target="_top" xlink:title="core/common/systemc.h">
<polygon fill="white" stroke="black" points="578.975,-215.5 578.975,-236.5 703.975,-236.5 703.975,-215.5 578.975,-215.5"/>
<text text-anchor="middle" x="641.475" y="-223.5" font-family="Helvetica,sans-Serif" font-size="10.00">core/common/systemc.h</text>
</a>
</g>
<!-- Node1&#45;&gt;Node19 -->
<g id="edge110" class="edge"><title>Node1&#45;&gt;Node19</title>
<path fill="none" stroke="midnightblue" d="M569.037,-465.974C596.249,-457.4 625.217,-442.797 641.475,-418 676.408,-364.72 659.179,-283.972 648.204,-246.472"/>
<polygon fill="midnightblue" stroke="midnightblue" points="651.482,-245.226 645.193,-236.7 644.793,-247.287 651.482,-245.226"/>
</g>
<!-- Node24 -->
<g id="node57" class="node"><title>Node24</title>
<a xlink:href="leon3_8funclt_2registers_8hpp.html" target="_top" xlink:title="core/models/extern\l/LEON3/simulatorSources\l/leon3.funclt/registers.hpp">
<polygon fill="white" stroke="black" points="776.975,-202.5 776.975,-249.5 907.975,-249.5 907.975,-202.5 776.975,-202.5"/>
<text text-anchor="start" x="784.975" y="-236.5" font-family="Helvetica,sans-Serif" font-size="10.00">core/models/extern</text>
<text text-anchor="start" x="784.975" y="-223.5" font-family="Helvetica,sans-Serif" font-size="10.00">/LEON3/simulatorSources</text>
<text text-anchor="middle" x="842.475" y="-210.5" font-family="Helvetica,sans-Serif" font-size="10.00">/leon3.funclt/registers.hpp</text>
</a>
</g>
<!-- Node1&#45;&gt;Node24 -->
<g id="edge96" class="edge"><title>Node1&#45;&gt;Node24</title>
<path fill="none" stroke="midnightblue" d="M569.328,-462.077C599.878,-452.581 635.524,-438.328 663.475,-418 724.101,-373.908 715.716,-339.254 768.475,-286 778.779,-275.6 790.805,-265.218 802.129,-256.086"/>
<polygon fill="midnightblue" stroke="midnightblue" points="804.554,-258.63 810.217,-249.675 800.206,-253.144 804.554,-258.63"/>
</g>
<!-- Node25 -->
<g id="node61" class="node"><title>Node25</title>
<a xlink:href="leon3_8funclt_2alias_8hpp.html" target="_top" xlink:title="core/models/extern\l/LEON3/simulatorSources\l/leon3.funclt/alias.hpp">
<polygon fill="white" stroke="black" points="776.975,-286.5 776.975,-333.5 907.975,-333.5 907.975,-286.5 776.975,-286.5"/>
<text text-anchor="start" x="784.975" y="-320.5" font-family="Helvetica,sans-Serif" font-size="10.00">core/models/extern</text>
<text text-anchor="start" x="784.975" y="-307.5" font-family="Helvetica,sans-Serif" font-size="10.00">/LEON3/simulatorSources</text>
<text text-anchor="middle" x="842.475" y="-294.5" font-family="Helvetica,sans-Serif" font-size="10.00">/leon3.funclt/alias.hpp</text>
</a>
</g>
<!-- Node1&#45;&gt;Node25 -->
<g id="edge98" class="edge"><title>Node1&#45;&gt;Node25</title>
<path fill="none" stroke="midnightblue" d="M569.059,-468.003C634.659,-457.085 730.179,-438.411 761.475,-418 790.024,-399.382 812.276,-367.066 826.173,-342.622"/>
<polygon fill="midnightblue" stroke="midnightblue" points="829.336,-344.134 831.085,-333.684 823.201,-340.762 829.336,-344.134"/>
</g>
<!-- Node2&#45;&gt;Node3 -->
<g id="edge4" class="edge"><title>Node2&#45;&gt;Node3</title>
<path fill="none" stroke="midnightblue" d="M437.69,-377.505C378.788,-362.735 292.879,-341.194 234.044,-326.441"/>
<polygon fill="midnightblue" stroke="midnightblue" points="234.666,-322.989 224.115,-323.951 232.963,-329.779 234.666,-322.989"/>
</g>
<!-- Node2&#45;&gt;Node4 -->
<g id="edge84" class="edge"><title>Node2&#45;&gt;Node4</title>
<path fill="none" stroke="midnightblue" d="M437.804,-387.275C396.588,-380.049 344.595,-365.064 308.475,-334 281.658,-310.936 267.529,-270.89 261.06,-246.579"/>
<polygon fill="midnightblue" stroke="midnightblue" points="264.401,-245.506 258.61,-236.634 257.604,-247.181 264.401,-245.506"/>
</g>
<!-- Node2&#45;&gt;Node5 -->
<g id="edge80" class="edge"><title>Node2&#45;&gt;Node5</title>
<path fill="none" stroke="midnightblue" d="M437.832,-388.136C330.929,-378.002 128.649,-356.157 104.475,-334 80.3109,-311.851 76.7728,-271.505 77.1238,-246.889"/>
<polygon fill="midnightblue" stroke="midnightblue" points="80.6245,-246.931 77.4986,-236.808 73.6294,-246.671 80.6245,-246.931"/>
</g>
<!-- Node2&#45;&gt;Node6 -->
<g id="edge82" class="edge"><title>Node2&#45;&gt;Node6</title>
<path fill="none" stroke="midnightblue" d="M508.643,-370.385C515.727,-331.64 523.963,-253.721 489.475,-202 479.346,-186.809 463.589,-175.687 447.252,-167.63"/>
<polygon fill="midnightblue" stroke="midnightblue" points="448.698,-164.443 438.149,-163.463 445.784,-170.807 448.698,-164.443"/>
</g>
<!-- Node2&#45;&gt;Node9 -->
<g id="edge86" class="edge"><title>Node2&#45;&gt;Node9</title>
<path fill="none" stroke="midnightblue" d="M530.272,-370.403C565.333,-339.595 622.988,-289.185 628.475,-286 670.053,-261.866 691.355,-277.941 730.475,-250 752.617,-234.185 745.998,-217.333 768.475,-202 813.772,-171.102 853.848,-210.067 886.475,-166 957.399,-70.2116 717.708,-27.1586 630.209,-14.8747"/>
<polygon fill="midnightblue" stroke="midnightblue" points="630.469,-11.3779 620.088,-13.4966 629.525,-18.3139 630.469,-11.3779"/>
</g>
<!-- Node2&#45;&gt;Node11 -->
<g id="edge88" class="edge"><title>Node2&#45;&gt;Node11</title>
<path fill="none" stroke="midnightblue" d="M504.43,-370.277C504.696,-329.944 499.131,-247.924 453.475,-202 411.833,-160.113 381.455,-180.183 320.023,-166.189"/>
<polygon fill="midnightblue" stroke="midnightblue" points="320.862,-162.791 310.311,-163.752 319.158,-169.581 320.862,-162.791"/>
</g>
<!-- Node2&#45;&gt;Node17 -->
<g id="edge44" class="edge"><title>Node2&#45;&gt;Node17</title>
<path fill="none" stroke="midnightblue" d="M469.448,-370.378C455.658,-360.805 439.583,-349.645 425.03,-339.542"/>
<polygon fill="midnightblue" stroke="midnightblue" points="426.877,-336.564 416.667,-333.736 422.885,-342.314 426.877,-336.564"/>
</g>
<!-- Node2&#45;&gt;Node19 -->
<g id="edge90" class="edge"><title>Node2&#45;&gt;Node19</title>
<path fill="none" stroke="midnightblue" d="M517.098,-370.07C530.548,-347.363 552.401,-312.819 575.475,-286 589.025,-270.252 606.499,-254.532 620.062,-243.135"/>
<polygon fill="midnightblue" stroke="midnightblue" points="622.45,-245.702 627.933,-236.636 617.993,-240.305 622.45,-245.702"/>
</g>
<!-- Node2&#45;&gt;Node24 -->
<g id="edge66" class="edge"><title>Node2&#45;&gt;Node24</title>
<path fill="none" stroke="midnightblue" d="M550.969,-370.463C612.665,-339.889 720.237,-286.578 786.033,-253.972"/>
<polygon fill="midnightblue" stroke="midnightblue" points="787.625,-257.089 795.031,-249.513 784.516,-250.817 787.625,-257.089"/>
</g>
<!-- Node2&#45;&gt;Node25 -->
<g id="edge72" class="edge"><title>Node2&#45;&gt;Node25</title>
<path fill="none" stroke="midnightblue" d="M569.24,-377.704C625.847,-363.678 707.534,-343.437 766.836,-328.743"/>
<polygon fill="midnightblue" stroke="midnightblue" points="768.029,-332.053 776.894,-326.25 766.346,-325.258 768.029,-332.053"/>
</g>
<!-- Node3&#45;&gt;Node4 -->
<g id="edge6" class="edge"><title>Node3&#45;&gt;Node4</title>
<path fill="none" stroke="midnightblue" d="M186.709,-292.595C201.714,-278.273 222.891,-258.058 237.97,-243.665"/>
<polygon fill="midnightblue" stroke="midnightblue" points="240.417,-246.167 245.234,-236.731 235.584,-241.104 240.417,-246.167"/>
</g>
<!-- Node3&#45;&gt;Node5 -->
<g id="edge8" class="edge"><title>Node3&#45;&gt;Node5</title>
<path fill="none" stroke="midnightblue" d="M149.827,-292.595C134.482,-278.273 112.823,-258.058 97.402,-243.665"/>
<polygon fill="midnightblue" stroke="midnightblue" points="99.6713,-240.995 89.9726,-236.731 94.8951,-246.113 99.6713,-240.995"/>
</g>
<!-- Node3&#45;&gt;Node6 -->
<g id="edge10" class="edge"><title>Node3&#45;&gt;Node6</title>
<path fill="none" stroke="midnightblue" d="M175.76,-292.63C187.446,-265.477 210.581,-214.757 225.475,-202 232.984,-195.569 277.532,-180.523 317.266,-167.942"/>
<polygon fill="midnightblue" stroke="midnightblue" points="318.485,-171.228 326.972,-164.887 316.383,-164.551 318.485,-171.228"/>
</g>
<!-- Node3&#45;&gt;Node11 -->
<g id="edge20" class="edge"><title>Node3&#45;&gt;Node11</title>
<path fill="none" stroke="midnightblue" d="M169.028,-292.698C170.445,-270.296 175.394,-230.726 192.475,-202 199.383,-190.383 209.663,-179.972 219.876,-171.464"/>
<polygon fill="midnightblue" stroke="midnightblue" points="222.305,-174.006 227.985,-165.062 217.968,-168.511 222.305,-174.006"/>
</g>
<!-- Node7 -->
<g id="node13" class="node"><title>Node7</title>
<polygon fill="white" stroke="#bfbfbf" points="933.475,-65.5 933.475,-86.5 985.475,-86.5 985.475,-65.5 933.475,-65.5"/>
<text text-anchor="middle" x="959.475" y="-73.5" font-family="Helvetica,sans-Serif" font-size="10.00">ostream</text>
</g>
<!-- Node6&#45;&gt;Node7 -->
<g id="edge12" class="edge"><title>Node6&#45;&gt;Node7</title>
<path fill="none" stroke="midnightblue" d="M438.19,-131.731C440.982,-131.104 443.755,-130.522 446.475,-130 623.386,-96.0642 839.001,-82.1191 923.278,-77.7011"/>
<polygon fill="midnightblue" stroke="midnightblue" points="923.549,-81.1919 933.357,-77.1857 923.191,-74.201 923.549,-81.1919"/>
</g>
<!-- Node8 -->
<g id="node15" class="node"><title>Node8</title>
<polygon fill="white" stroke="#bfbfbf" points="387.475,-65.5 387.475,-86.5 439.475,-86.5 439.475,-65.5 387.475,-65.5"/>
<text text-anchor="middle" x="413.475" y="-73.5" font-family="Helvetica,sans-Serif" font-size="10.00">sstream</text>
</g>
<!-- Node6&#45;&gt;Node8 -->
<g id="edge14" class="edge"><title>Node6&#45;&gt;Node8</title>
<path fill="none" stroke="midnightblue" d="M389.822,-130.937C394.318,-120.494 400.094,-107.079 404.813,-96.1197"/>
<polygon fill="midnightblue" stroke="midnightblue" points="408.042,-97.47 408.782,-86.901 401.613,-94.7017 408.042,-97.47"/>
</g>
<!-- Node6&#45;&gt;Node9 -->
<g id="edge16" class="edge"><title>Node6&#45;&gt;Node9</title>
<path fill="none" stroke="midnightblue" d="M438.312,-132.254C441.072,-131.489 443.804,-130.734 446.475,-130 505.936,-113.652 537.694,-138.414 580.475,-94 596.346,-77.5237 599.972,-50.6358 600.358,-31.9457"/>
<polygon fill="midnightblue" stroke="midnightblue" points="603.856,-31.7508 600.269,-21.7817 596.857,-31.8118 603.856,-31.7508"/>
</g>
<!-- Node10 -->
<g id="node19" class="node"><title>Node10</title>
<polygon fill="white" stroke="#bfbfbf" points="457.475,-65.5 457.475,-86.5 571.475,-86.5 571.475,-65.5 457.475,-65.5"/>
<text text-anchor="middle" x="514.475" y="-73.5" font-family="Helvetica,sans-Serif" font-size="10.00">boost/lexical_cast.hpp</text>
</g>
<!-- Node6&#45;&gt;Node10 -->
<g id="edge18" class="edge"><title>Node6&#45;&gt;Node10</title>
<path fill="none" stroke="midnightblue" d="M413.758,-130.937C435.673,-118.983 464.729,-103.135 485.998,-91.5331"/>
<polygon fill="midnightblue" stroke="midnightblue" points="487.778,-94.5493 494.881,-86.688 484.426,-88.404 487.778,-94.5493"/>
</g>
<!-- Node11&#45;&gt;Node8 -->
<g id="edge26" class="edge"><title>Node11&#45;&gt;Node8</title>
<path fill="none" stroke="midnightblue" d="M292.156,-130.937C319.028,-118.769 354.811,-102.565 380.543,-90.913"/>
<polygon fill="midnightblue" stroke="midnightblue" points="382.207,-94.0015 389.873,-86.688 379.319,-87.6248 382.207,-94.0015"/>
</g>
<!-- Node11&#45;&gt;Node9 -->
<g id="edge30" class="edge"><title>Node11&#45;&gt;Node9</title>
<path fill="none" stroke="midnightblue" d="M275.971,-130.707C305.346,-107.377 356.846,-67.6252 378.475,-58 442.539,-29.4912 524.893,-17.8797 568.757,-13.4681"/>
<polygon fill="midnightblue" stroke="midnightblue" points="569.164,-16.9453 578.79,-12.5183 568.504,-9.97644 569.164,-16.9453"/>
</g>
<!-- Node12 -->
<g id="node23" class="node"><title>Node12</title>
<polygon fill="white" stroke="#bfbfbf" points="189.975,-0.5 189.975,-21.5 248.975,-21.5 248.975,-0.5 189.975,-0.5"/>
<text text-anchor="middle" x="219.475" y="-8.5" font-family="Helvetica,sans-Serif" font-size="10.00">exception</text>
</g>
<!-- Node11&#45;&gt;Node12 -->
<g id="edge22" class="edge"><title>Node11&#45;&gt;Node12</title>
<path fill="none" stroke="midnightblue" d="M198.873,-134.276C178.102,-126.158 156.626,-113.501 144.475,-94 136.014,-80.4204 136.728,-71.9989 144.475,-58 152.411,-43.6627 166.749,-33.1145 180.78,-25.6865"/>
<polygon fill="midnightblue" stroke="midnightblue" points="182.43,-28.7758 189.884,-21.2473 179.362,-22.4838 182.43,-28.7758"/>
</g>
<!-- Node13 -->
<g id="node25" class="node"><title>Node13</title>
<polygon fill="white" stroke="#bfbfbf" points="282.475,-0.5 282.475,-21.5 336.475,-21.5 336.475,-0.5 282.475,-0.5"/>
<text text-anchor="middle" x="309.475" y="-8.5" font-family="Helvetica,sans-Serif" font-size="10.00">iostream</text>
</g>
<!-- Node11&#45;&gt;Node13 -->
<g id="edge24" class="edge"><title>Node11&#45;&gt;Node13</title>
<path fill="none" stroke="midnightblue" d="M275.201,-130.662C285.256,-120.986 296.44,-108.063 302.475,-94 310.99,-74.1602 311.954,-49.2319 311.279,-31.898"/>
<polygon fill="midnightblue" stroke="midnightblue" points="314.761,-31.5029 310.661,-21.7336 307.774,-31.9276 314.761,-31.5029"/>
</g>
<!-- Node14 -->
<g id="node28" class="node"><title>Node14</title>
<polygon fill="white" stroke="#bfbfbf" points="106.975,-0.5 106.975,-21.5 165.975,-21.5 165.975,-0.5 106.975,-0.5"/>
<text text-anchor="middle" x="136.475" y="-8.5" font-family="Helvetica,sans-Serif" font-size="10.00">stdexcept</text>
</g>
<!-- Node11&#45;&gt;Node14 -->
<g id="edge28" class="edge"><title>Node11&#45;&gt;Node14</title>
<path fill="none" stroke="midnightblue" d="M198.838,-137.399C174.431,-129.686 148.062,-116.482 133.475,-94 121.461,-75.4812 124.889,-49.4284 129.587,-31.4754"/>
<polygon fill="midnightblue" stroke="midnightblue" points="132.992,-32.3035 132.47,-21.7215 126.279,-30.3189 132.992,-32.3035"/>
</g>
<!-- Node15 -->
<g id="node31" class="node"><title>Node15</title>
<a xlink:href="customExceptions_8hpp.html" target="_top" xlink:title="core/common/trapgen\l/utils/customExceptions.hpp">
<polygon fill="white" stroke="black" points="153.475,-59 153.475,-93 293.475,-93 293.475,-59 153.475,-59"/>
<text text-anchor="start" x="161.475" y="-80" font-family="Helvetica,sans-Serif" font-size="10.00">core/common/trapgen</text>
<text text-anchor="middle" x="223.475" y="-67" font-family="Helvetica,sans-Serif" font-size="10.00">/utils/customExceptions.hpp</text>
</a>
</g>
<!-- Node11&#45;&gt;Node15 -->
<g id="edge32" class="edge"><title>Node11&#45;&gt;Node15</title>
<path fill="none" stroke="midnightblue" d="M247.129,-130.937C243.514,-122.542 239.073,-112.227 235.019,-102.81"/>
<polygon fill="midnightblue" stroke="midnightblue" points="238.154,-101.241 230.985,-93.4407 231.725,-104.01 238.154,-101.241"/>
</g>
<!-- Node15&#45;&gt;Node9 -->
<g id="edge42" class="edge"><title>Node15&#45;&gt;Node9</title>
<path fill="none" stroke="midnightblue" d="M293.757,-63.8502C376.169,-49.6035 509.081,-26.6268 568.749,-16.3118"/>
<polygon fill="midnightblue" stroke="midnightblue" points="569.42,-19.7478 578.678,-14.5954 568.228,-12.8501 569.42,-19.7478"/>
</g>
<!-- Node15&#45;&gt;Node12 -->
<g id="edge36" class="edge"><title>Node15&#45;&gt;Node12</title>
<path fill="none" stroke="midnightblue" d="M222.425,-58.922C221.917,-50.6704 221.303,-40.6922 220.767,-31.9818"/>
<polygon fill="midnightblue" stroke="midnightblue" points="224.251,-31.6182 220.143,-21.8521 217.264,-32.0482 224.251,-31.6182"/>
</g>
<!-- Node15&#45;&gt;Node13 -->
<g id="edge38" class="edge"><title>Node15&#45;&gt;Node13</title>
<path fill="none" stroke="midnightblue" d="M246.071,-58.922C258.768,-49.3257 274.554,-37.3942 287.198,-27.8374"/>
<polygon fill="midnightblue" stroke="midnightblue" points="289.506,-30.4802 295.374,-21.6584 285.286,-24.8959 289.506,-30.4802"/>
</g>
<!-- Node15&#45;&gt;Node14 -->
<g id="edge40" class="edge"><title>Node15&#45;&gt;Node14</title>
<path fill="none" stroke="midnightblue" d="M200.617,-58.922C187.773,-49.3257 171.803,-37.3942 159.012,-27.8374"/>
<polygon fill="midnightblue" stroke="midnightblue" points="160.847,-24.8398 150.741,-21.6584 156.658,-30.4475 160.847,-24.8398"/>
</g>
<!-- Node16 -->
<g id="node33" class="node"><title>Node16</title>
<polygon fill="white" stroke="#bfbfbf" points="30.9755,-0.5 30.9755,-21.5 75.9755,-21.5 75.9755,-0.5 30.9755,-0.5"/>
<text text-anchor="middle" x="53.4755" y="-8.5" font-family="Helvetica,sans-Serif" font-size="10.00">cstdlib</text>
</g>
<!-- Node15&#45;&gt;Node16 -->
<g id="edge34" class="edge"><title>Node15&#45;&gt;Node16</title>
<path fill="none" stroke="midnightblue" d="M178.81,-58.922C149.5,-47.7154 111.861,-33.324 85.5115,-23.249"/>
<polygon fill="midnightblue" stroke="midnightblue" points="86.5968,-19.917 76.0063,-19.6147 84.0968,-26.4553 86.5968,-19.917"/>
</g>
<!-- Node17&#45;&gt;Node11 -->
<g id="edge52" class="edge"><title>Node17&#45;&gt;Node11</title>
<path fill="none" stroke="midnightblue" d="M358.311,-286.244C347.824,-275.516 335.643,-262.473 325.475,-250 305.197,-225.124 284.513,-194.719 270.741,-173.609"/>
<polygon fill="midnightblue" stroke="midnightblue" points="273.655,-171.668 265.284,-165.174 267.777,-175.471 273.655,-171.668"/>
</g>
<!-- Node18 -->
<g id="node41" class="node"><title>Node18</title>
<a xlink:href="ToolsIf_8hpp.html" target="_top" xlink:title="core/common/trapgen\l/ToolsIf.hpp">
<polygon fill="white" stroke="black" points="333.975,-209 333.975,-243 444.975,-243 444.975,-209 333.975,-209"/>
<text text-anchor="start" x="341.975" y="-230" font-family="Helvetica,sans-Serif" font-size="10.00">core/common/trapgen</text>
<text text-anchor="middle" x="389.475" y="-217" font-family="Helvetica,sans-Serif" font-size="10.00">/ToolsIf.hpp</text>
</a>
</g>
<!-- Node17&#45;&gt;Node18 -->
<g id="edge46" class="edge"><title>Node17&#45;&gt;Node18</title>
<path fill="none" stroke="midnightblue" d="M384.463,-286.154C385.318,-275.895 386.322,-263.847 387.206,-253.239"/>
<polygon fill="midnightblue" stroke="midnightblue" points="390.697,-253.486 388.04,-243.23 383.721,-252.905 390.697,-253.486"/>
</g>
<!-- Node17&#45;&gt;Node19 -->
<g id="edge54" class="edge"><title>Node17&#45;&gt;Node19</title>
<path fill="none" stroke="midnightblue" d="M448.167,-288.695C495.655,-273.293 558.406,-252.941 599.338,-239.666"/>
<polygon fill="midnightblue" stroke="midnightblue" points="600.565,-242.948 608.997,-236.534 598.405,-236.289 600.565,-242.948"/>
</g>
<!-- Node18&#45;&gt;Node6 -->
<g id="edge48" class="edge"><title>Node18&#45;&gt;Node6</title>
<path fill="none" stroke="midnightblue" d="M387.922,-208.689C387.043,-198.894 385.924,-186.422 384.929,-175.335"/>
<polygon fill="midnightblue" stroke="midnightblue" points="388.405,-174.909 384.025,-165.262 381.433,-175.535 388.405,-174.909"/>
</g>
<!-- Node18&#45;&gt;Node16 -->
<g id="edge50" class="edge"><title>Node18&#45;&gt;Node16</title>
<path fill="none" stroke="midnightblue" d="M333.593,-212.501C283.602,-199.824 214.604,-180.666 190.475,-166 132.655,-130.855 85.7386,-63.4889 64.9931,-30.363"/>
<polygon fill="midnightblue" stroke="midnightblue" points="67.8413,-28.3123 59.6293,-21.618 61.8743,-31.9722 67.8413,-28.3123"/>
</g>
<!-- Node19&#45;&gt;Node19 -->
<g id="edge56" class="edge"><title>Node19&#45;&gt;Node19</title>
<path fill="none" stroke="midnightblue" d="M663.998,-236.618C690.531,-244.393 721.475,-240.854 721.475,-226 721.475,-212.945 697.571,-208.63 673.768,-213.055"/>
<polygon fill="midnightblue" stroke="midnightblue" points="672.915,-209.661 663.998,-215.382 674.537,-216.47 672.915,-209.661"/>
</g>
<!-- Node20 -->
<g id="node49" class="node"><title>Node20</title>
<polygon fill="white" stroke="#bfbfbf" points="455.475,-137.5 455.475,-158.5 493.475,-158.5 493.475,-137.5 455.475,-137.5"/>
<text text-anchor="middle" x="474.475" y="-145.5" font-family="Helvetica,sans-Serif" font-size="10.00">tlm.h</text>
</g>
<!-- Node19&#45;&gt;Node20 -->
<g id="edge58" class="edge"><title>Node19&#45;&gt;Node20</title>
<path fill="none" stroke="midnightblue" d="M613.421,-215.46C584.892,-204.381 539.709,-185.832 502.475,-166 501.168,-165.304 499.843,-164.567 498.515,-163.804"/>
<polygon fill="midnightblue" stroke="midnightblue" points="500.262,-160.77 489.901,-158.555 496.619,-166.748 500.262,-160.77"/>
</g>
<!-- Node21 -->
<g id="node51" class="node"><title>Node21</title>
<polygon fill="white" stroke="#bfbfbf" points="510.975,-131 510.975,-165 625.975,-165 625.975,-131 510.975,-131"/>
<text text-anchor="start" x="518.975" y="-152" font-family="Helvetica,sans-Serif" font-size="10.00">tlm_utils/simple_target</text>
<text text-anchor="middle" x="568.475" y="-139" font-family="Helvetica,sans-Serif" font-size="10.00">_socket.h</text>
</g>
<!-- Node19&#45;&gt;Node21 -->
<g id="edge60" class="edge"><title>Node19&#45;&gt;Node21</title>
<path fill="none" stroke="midnightblue" d="M631.63,-215.481C621.451,-204.604 605.19,-187.229 591.718,-172.834"/>
<polygon fill="midnightblue" stroke="midnightblue" points="593.965,-170.113 584.576,-165.203 588.854,-174.896 593.965,-170.113"/>
</g>
<!-- Node22 -->
<g id="node53" class="node"><title>Node22</title>
<polygon fill="white" stroke="#bfbfbf" points="643.475,-131 643.475,-165 765.475,-165 765.475,-131 643.475,-131"/>
<text text-anchor="start" x="651.475" y="-152" font-family="Helvetica,sans-Serif" font-size="10.00">tlm_utils/simple_initiator</text>
<text text-anchor="middle" x="704.475" y="-139" font-family="Helvetica,sans-Serif" font-size="10.00">_socket.h</text>
</g>
<!-- Node19&#45;&gt;Node22 -->
<g id="edge62" class="edge"><title>Node19&#45;&gt;Node22</title>
<path fill="none" stroke="midnightblue" d="M649.972,-215.481C658.676,-204.705 672.531,-187.55 684.094,-173.235"/>
<polygon fill="midnightblue" stroke="midnightblue" points="687.02,-175.182 690.58,-165.203 681.574,-170.784 687.02,-175.182"/>
</g>
<!-- Node23 -->
<g id="node55" class="node"><title>Node23</title>
<polygon fill="white" stroke="#bfbfbf" points="782.975,-131 782.975,-165 877.975,-165 877.975,-131 782.975,-131"/>
<text text-anchor="start" x="790.975" y="-152" font-family="Helvetica,sans-Serif" font-size="10.00">tlm_utils/peq_with</text>
<text text-anchor="middle" x="830.475" y="-139" font-family="Helvetica,sans-Serif" font-size="10.00">_get.h</text>
</g>
<!-- Node19&#45;&gt;Node23 -->
<g id="edge64" class="edge"><title>Node19&#45;&gt;Node23</title>
<path fill="none" stroke="midnightblue" d="M666.965,-215.481C695.731,-203.609 743.254,-183.996 779.674,-168.966"/>
<polygon fill="midnightblue" stroke="midnightblue" points="781.242,-172.105 789.15,-165.055 778.571,-165.635 781.242,-172.105"/>
</g>
<!-- Node24&#45;&gt;Node7 -->
<g id="edge68" class="edge"><title>Node24&#45;&gt;Node7</title>
<path fill="none" stroke="midnightblue" d="M880.196,-202.347C893.877,-192.391 908.62,-179.885 919.475,-166 936.092,-144.746 947.42,-115.503 953.667,-96.1926"/>
<polygon fill="midnightblue" stroke="midnightblue" points="957.023,-97.1872 956.616,-86.6002 950.332,-95.1302 957.023,-97.1872"/>
</g>
<!-- Node24&#45;&gt;Node11 -->
<g id="edge70" class="edge"><title>Node24&#45;&gt;Node11</title>
<path fill="none" stroke="midnightblue" d="M776.691,-210.482C761.574,-207.313 745.519,-204.26 730.475,-202 551.902,-175.171 501.071,-198.187 320.024,-166.104"/>
<polygon fill="midnightblue" stroke="midnightblue" points="320.642,-162.659 310.179,-164.329 319.399,-169.548 320.642,-162.659"/>
</g>
<!-- Node25&#45;&gt;Node7 -->
<g id="edge76" class="edge"><title>Node25&#45;&gt;Node7</title>
<path fill="none" stroke="midnightblue" d="M908.207,-292.386C929.241,-283.303 950.23,-269.814 962.475,-250 992.144,-201.995 976.921,-131.411 966.521,-96.7529"/>
<polygon fill="midnightblue" stroke="midnightblue" points="969.736,-95.3111 963.377,-86.8367 963.063,-97.4269 969.736,-95.3111"/>
</g>
<!-- Node25&#45;&gt;Node24 -->
<g id="edge74" class="edge"><title>Node25&#45;&gt;Node24</title>
<path fill="none" stroke="midnightblue" d="M842.475,-286.154C842.475,-277.926 842.475,-268.548 842.475,-259.684"/>
<polygon fill="midnightblue" stroke="midnightblue" points="845.976,-259.615 842.475,-249.615 838.976,-259.615 845.976,-259.615"/>
</g>
<!-- Node26 -->
<g id="node65" class="node"><title>Node26</title>
<polygon fill="white" stroke="#bfbfbf" points="924.975,-215.5 924.975,-236.5 953.975,-236.5 953.975,-215.5 924.975,-215.5"/>
<text text-anchor="middle" x="939.475" y="-223.5" font-family="Helvetica,sans-Serif" font-size="10.00">list</text>
</g>
<!-- Node25&#45;&gt;Node26 -->
<g id="edge78" class="edge"><title>Node25&#45;&gt;Node26</title>
<path fill="none" stroke="midnightblue" d="M873.439,-286.312C886.978,-275.598 902.846,-262.545 916.475,-250 918.482,-248.153 920.531,-246.171 922.539,-244.165"/>
<polygon fill="midnightblue" stroke="midnightblue" points="925.462,-246.178 929.9,-236.557 920.431,-241.31 925.462,-246.178"/>
</g>
</g>
</svg>
        <g id="navigator" transform="translate(0 0)" fill="#404254">
                <rect fill="#f2f5e9" fill-opacity="0.5" stroke="#606060" stroke-width=".5" x="0" y="0" width="60" height="60"/>
                <use id="zoomplus" xlink:href="#zoomPlus" x="17" y="9" onmousedown="handleZoom(evt,'in')"/>
                <use id="zoomminus" xlink:href="#zoomMin" x="42" y="9" onmousedown="handleZoom(evt,'out')"/>
                <use id="reset" xlink:href="#resetDef" x="30" y="36" onmousedown="handleReset()"/>
                <g id="arrowUp" xlink:href="#dirArrow" transform="translate(30 24)" onmousedown="handlePan(0,-1)">
                  <use xlink:href="#rim" fill="#404040">
                        <set attributeName="fill" to="#808080" begin="arrowUp.mouseover" end="arrowUp.mouseout"/>
                  </use>
                  <path fill="none" stroke="white" stroke-width="1.5" d="M0,-3.0v7 M-2.5,-0.5L0,-3.0L2.5,-0.5"/>
                </g>
                <g id="arrowRight" xlink:href="#dirArrow" transform="rotate(90) translate(36 -43)" onmousedown="handlePan(1,0)">
                  <use xlink:href="#rim" fill="#404040">
                        <set attributeName="fill" to="#808080" begin="arrowRight.mouseover" end="arrowRight.mouseout"/>
                  </use>
                  <path fill="none" stroke="white" stroke-width="1.5" d="M0,-3.0v7 M-2.5,-0.5L0,-3.0L2.5,-0.5"/>
                </g>
                <g id="arrowDown" xlink:href="#dirArrow" transform="rotate(180) translate(-30 -48)" onmousedown="handlePan(0,1)">
                  <use xlink:href="#rim" fill="#404040">
                        <set attributeName="fill" to="#808080" begin="arrowDown.mouseover" end="arrowDown.mouseout"/>
                  </use>
                  <path fill="none" stroke="white" stroke-width="1.5" d="M0,-3.0v7 M-2.5,-0.5L0,-3.0L2.5,-0.5"/>
                </g>
                <g id="arrowLeft" xlink:href="#dirArrow" transform="rotate(270) translate(-36 17)" onmousedown="handlePan(-1,0)">
                  <use xlink:href="#rim" fill="#404040">
                        <set attributeName="fill" to="#808080" begin="arrowLeft.mouseover" end="arrowLeft.mouseout"/>
                  </use>
                  <path fill="none" stroke="white" stroke-width="1.5" d="M0,-3.0v7 M-2.5,-0.5L0,-3.0L2.5,-0.5"/>
                </g>
        </g>
        <svg viewBox="0 0 15 15" width="100%" height="30px" preserveAspectRatio="xMaxYMin meet">
         <g id="arrow_out" transform="scale(0.3 0.3)">
          <a xlink:href="leon3_8funclt_2interface_8cpp__incl_org.svg" target="_base">
           <rect id="button" ry="5" rx="5" y="6" x="6" height="38" width="38"
                fill="#f2f5e9" fill-opacity="0.5" stroke="#606060" stroke-width="1.0"/>
           <path id="arrow"
             d="M 11.500037,31.436501 C 11.940474,20.09759 22.043105,11.32322 32.158766,21.979434 L 37.068811,17.246167 C 37.068811,17.246167 37.088388,32 37.088388,32 L 22.160133,31.978069 C 22.160133,31.978069 26.997745,27.140456 26.997745,27.140456 C 18.528582,18.264221 13.291696,25.230495 11.500037,31.436501 z"
             style="fill:#404040;"/>
          </a>
         </g>
        </svg>
</svg>
