<?xml version="1.0" encoding="UTF-8" standalone="no"?>
<!DOCTYPE svg PUBLIC "-//W3C//DTD SVG 1.1//EN"
 "http://www.w3.org/Graphics/SVG/1.1/DTD/svg11.dtd">
<!-- Generated by graphviz version 2.26.0 (20091210.2329)
 -->
<!-- Title: core/models/extern/LEON3/simulatorSources/leon3.funcat/processor.hpp Pages: 1 -->
<svg width="588pt" height="284pt"
 viewBox="0.00 0.00 588.00 284.00" xmlns="http://www.w3.org/2000/svg" xmlns:xlink="http://www.w3.org/1999/xlink">
<g id="graph1" class="graph" transform="scale(1 1) rotate(0) translate(4 280)">
<title>core/models/extern/LEON3/simulatorSources/leon3.funcat/processor.hpp</title>
<polygon fill="white" stroke="white" points="-4,5 -4,-280 585,-280 585,5 -4,5"/>
<!-- Node1 -->
<g id="node1" class="node"><title>Node1</title>
<polygon fill="#bfbfbf" stroke="black" points="147.5,-228.5 147.5,-275.5 284.5,-275.5 284.5,-228.5 147.5,-228.5"/>
<text text-anchor="start" x="155.5" y="-262.5" font-family="Helvetica,sans-Serif" font-size="10.00">core/models/extern</text>
<text text-anchor="start" x="155.5" y="-249.5" font-family="Helvetica,sans-Serif" font-size="10.00">/LEON3/simulatorSources</text>
<text text-anchor="middle" x="216" y="-236.5" font-family="Helvetica,sans-Serif" font-size="10.00">/leon3.funcat/processor.hpp</text>
</g>
<!-- Node2 -->
<g id="node3" class="node"><title>Node2</title>
<a xlink:href="leon3_8funcat_2main_8cpp.html" target="_top" xlink:title="core/models/extern\l/LEON3/simulatorSources\l/leon3.funcat/main.cpp">
<polygon fill="white" stroke="black" points="-0.5,-144.5 -0.5,-191.5 130.5,-191.5 130.5,-144.5 -0.5,-144.5"/>
<text text-anchor="start" x="7.5" y="-178.5" font-family="Helvetica,sans-Serif" font-size="10.00">core/models/extern</text>
<text text-anchor="start" x="7.5" y="-165.5" font-family="Helvetica,sans-Serif" font-size="10.00">/LEON3/simulatorSources</text>
<text text-anchor="middle" x="65" y="-152.5" font-family="Helvetica,sans-Serif" font-size="10.00">/leon3.funcat/main.cpp</text>
</a>
</g>
<!-- Node1&#45;&gt;Node2 -->
<g id="edge2" class="edge"><title>Node1&#45;&gt;Node2</title>
<path fill="none" stroke="midnightblue" d="M164.593,-223.403C145.972,-213.044 125.166,-201.47 107.406,-191.59"/>
<polygon fill="midnightblue" stroke="midnightblue" points="163.096,-226.575 173.536,-228.378 166.499,-220.458 163.096,-226.575"/>
</g>
<!-- Node3 -->
<g id="node5" class="node"><title>Node3</title>
<a xlink:href="leon3_8funcat_2processor_8cpp.html" target="_top" xlink:title="core/models/extern\l/LEON3/simulatorSources\l/leon3.funcat/processor.cpp">
<polygon fill="white" stroke="black" points="147.5,-144.5 147.5,-191.5 284.5,-191.5 284.5,-144.5 147.5,-144.5"/>
<text text-anchor="start" x="155.5" y="-178.5" font-family="Helvetica,sans-Serif" font-size="10.00">core/models/extern</text>
<text text-anchor="start" x="155.5" y="-165.5" font-family="Helvetica,sans-Serif" font-size="10.00">/LEON3/simulatorSources</text>
<text text-anchor="middle" x="216" y="-152.5" font-family="Helvetica,sans-Serif" font-size="10.00">/leon3.funcat/processor.cpp</text>
</a>
</g>
<!-- Node1&#45;&gt;Node3 -->
<g id="edge4" class="edge"><title>Node1&#45;&gt;Node3</title>
<path fill="none" stroke="midnightblue" d="M216,-218.066C216,-209.193 216,-199.821 216,-191.615"/>
<polygon fill="midnightblue" stroke="midnightblue" points="212.5,-218.154 216,-228.154 219.5,-218.154 212.5,-218.154"/>
</g>
<!-- Node4 -->
<g id="node7" class="node"><title>Node4</title>
<a xlink:href="leon3_8funcat_8h.html" target="_top" xlink:title="core/models/extern\l/LEON3/simulatorSources\l/leon3.funcat.h">
<polygon fill="white" stroke="black" points="301.5,-144.5 301.5,-191.5 432.5,-191.5 432.5,-144.5 301.5,-144.5"/>
<text text-anchor="start" x="309.5" y="-178.5" font-family="Helvetica,sans-Serif" font-size="10.00">core/models/extern</text>
<text text-anchor="start" x="309.5" y="-165.5" font-family="Helvetica,sans-Serif" font-size="10.00">/LEON3/simulatorSources</text>
<text text-anchor="middle" x="367" y="-152.5" font-family="Helvetica,sans-Serif" font-size="10.00">/leon3.funcat.h</text>
</a>
</g>
<!-- Node1&#45;&gt;Node4 -->
<g id="edge6" class="edge"><title>Node1&#45;&gt;Node4</title>
<path fill="none" stroke="midnightblue" d="M267.407,-223.403C286.028,-213.044 306.834,-201.47 324.594,-191.59"/>
<polygon fill="midnightblue" stroke="midnightblue" points="265.501,-220.458 258.464,-228.378 268.904,-226.575 265.501,-220.458"/>
</g>
<!-- Node5 -->
<g id="node9" class="node"><title>Node5</title>
<a xlink:href="leon3processor_8h.html" target="_top" xlink:title="core/platforms/base\l/leon3processor.h">
<polygon fill="white" stroke="black" points="187.5,-73 187.5,-107 290.5,-107 290.5,-73 187.5,-73"/>
<text text-anchor="start" x="195.5" y="-94" font-family="Helvetica,sans-Serif" font-size="10.00">core/platforms/base</text>
<text text-anchor="middle" x="239" y="-81" font-family="Helvetica,sans-Serif" font-size="10.00">/leon3processor.h</text>
</a>
</g>
<!-- Node4&#45;&gt;Node5 -->
<g id="edge8" class="edge"><title>Node4&#45;&gt;Node5</title>
<path fill="none" stroke="midnightblue" d="M319.246,-138.9C301.667,-128.187 282.336,-116.408 267.053,-107.095"/>
<polygon fill="midnightblue" stroke="midnightblue" points="317.888,-142.171 328.248,-144.386 321.53,-136.193 317.888,-142.171"/>
</g>
<!-- Node6 -->
<g id="node11" class="node"><title>Node6</title>
<a xlink:href="leon3mp_2sc__main_8cpp.html" target="_top" xlink:title="core/platforms/leon3mp\l/sc_main.cpp">
<polygon fill="white" stroke="black" points="307.5,-73 307.5,-107 426.5,-107 426.5,-73 307.5,-73"/>
<text text-anchor="start" x="315.5" y="-94" font-family="Helvetica,sans-Serif" font-size="10.00">core/platforms/leon3mp</text>
<text text-anchor="middle" x="367" y="-81" font-family="Helvetica,sans-Serif" font-size="10.00">/sc_main.cpp</text>
</a>
</g>
<!-- Node4&#45;&gt;Node6 -->
<g id="edge10" class="edge"><title>Node4&#45;&gt;Node6</title>
<path fill="none" stroke="midnightblue" d="M367,-133.93C367,-124.611 367,-114.911 367,-107.003"/>
<polygon fill="midnightblue" stroke="midnightblue" points="363.5,-134.174 367,-144.174 370.5,-134.174 363.5,-134.174"/>
</g>
<!-- Node7 -->
<g id="node13" class="node"><title>Node7</title>
<a xlink:href="leon3mp_8h.html" target="_top" xlink:title="core/platforms/newleon3mp\l/leon3mp.h">
<polygon fill="white" stroke="black" points="443.5,-73 443.5,-107 580.5,-107 580.5,-73 443.5,-73"/>
<text text-anchor="start" x="451.5" y="-94" font-family="Helvetica,sans-Serif" font-size="10.00">core/platforms/newleon3mp</text>
<text text-anchor="middle" x="512" y="-81" font-family="Helvetica,sans-Serif" font-size="10.00">/leon3mp.h</text>
</a>
</g>
<!-- Node4&#45;&gt;Node7 -->
<g id="edge12" class="edge"><title>Node4&#45;&gt;Node7</title>
<path fill="none" stroke="midnightblue" d="M419.729,-139.635C440.004,-128.729 462.511,-116.622 480.221,-107.095"/>
<polygon fill="midnightblue" stroke="midnightblue" points="418.047,-136.566 410.898,-144.386 421.363,-142.731 418.047,-136.566"/>
</g>
<!-- Node8 -->
<g id="node15" class="node"><title>Node8</title>
<a xlink:href="newleon3mp_2sc__main_8cpp.html" target="_top" xlink:title="core/platforms/newleon3mp\l/sc_main.cpp">
<polygon fill="white" stroke="black" points="443.5,-1 443.5,-35 580.5,-35 580.5,-1 443.5,-1"/>
<text text-anchor="start" x="451.5" y="-22" font-family="Helvetica,sans-Serif" font-size="10.00">core/platforms/newleon3mp</text>
<text text-anchor="middle" x="512" y="-9" font-family="Helvetica,sans-Serif" font-size="10.00">/sc_main.cpp</text>
</a>
</g>
<!-- Node7&#45;&gt;Node8 -->
<g id="edge14" class="edge"><title>Node7&#45;&gt;Node8</title>
<path fill="none" stroke="midnightblue" d="M512,-62.7193C512,-53.572 512,-43.6255 512,-35.4407"/>
<polygon fill="midnightblue" stroke="midnightblue" points="508.5,-62.937 512,-72.937 515.5,-62.937 508.5,-62.937"/>
</g>
</g>
</svg>
