<?xml version="1.0" encoding="UTF-8" standalone="no"?>
<!DOCTYPE svg PUBLIC "-//W3C//DTD SVG 1.1//EN"
 "http://www.w3.org/Graphics/SVG/1.1/DTD/svg11.dtd">
<!-- Generated by graphviz version 2.26.0 (20091210.2329)
 -->
<!-- Title: core/models/extern/LEON3/simulatorSources/leon3.funclt/externalPins.hpp Pages: 1 -->
<!--zoomable 702 -->
<svg id="main" version="1.1" xmlns="http://www.w3.org/2000/svg" xmlns:xlink="http://www.w3.org/1999/xlink" xml:space="preserve" onload="init(evt)">
<style type="text/css"><![CDATA[
.edge:hover path { stroke: red; }
.edge:hover polygon { stroke: red; fill: red; }
]]></style>
<script type="text/javascript"><![CDATA[
var edges = document.getElementsByTagName('g');
if (edges && edges.length) {
  for (var i=0;i<edges.length;i++) {
    if (edges[i].id.substr(0,4)=='edge') {
      edges[i].setAttribute('class','edge');
    }
  }
}
]]></script>
        <defs>
                <circle id="rim" cx="0" cy="0" r="7"/>
                <circle id="rim2" cx="0" cy="0" r="3.5"/>
                <g id="zoomPlus">
                        <use xlink:href="#rim" fill="#404040">
                                <set attributeName="fill" to="#808080" begin="zoomplus.mouseover" end="zoomplus.mouseout"/>
                        </use>
                        <path d="M-4,0h8M0,-4v8" fill="none" stroke="white" stroke-width="1.5" pointer-events="none"/>
                </g>
                <g id="zoomMin">
                        <use xlink:href="#rim" fill="#404040">
                                <set attributeName="fill" to="#808080" begin="zoomminus.mouseover" end="zoomminus.mouseout"/>
                        </use>
                        <path d="M-4,0h8" fill="none" stroke="white" stroke-width="1.5" pointer-events="none"/>
                </g>
                <g id="dirArrow">
                        <path fill="none" stroke="white" stroke-width="1.5" d="M0,-3.0v7 M-2.5,-0.5L0,-3.0L2.5,-0.5"/>
                </g>
               <g id="resetDef">
                       <use xlink:href="#rim2" fill="#404040">
                               <set attributeName="fill" to="#808080" begin="reset.mouseover" end="reset.mouseout"/>
                       </use>
               </g>
        </defs>

<script type="text/javascript">
var viewWidth = 1442;
var viewHeight = 702;
var sectionId = 'dynsection-0';
</script>
<script xlink:href="svgpan.js"/>
<svg id="graph" class="graph">
<g id="viewport">
<title>core/models/extern/LEON3/simulatorSources/leon3.funclt/externalPins.hpp</title>
<polygon fill="white" stroke="white" points="-4,5 -4,-698 1439,-698 1439,5 -4,5"/>
<!-- Node1 -->
<g id="node1" class="node"><title>Node1</title>
<polygon fill="#bfbfbf" stroke="black" points="502,-646.5 502,-693.5 648,-693.5 648,-646.5 502,-646.5"/>
<text text-anchor="start" x="510" y="-680.5" font-family="Helvetica,sans-Serif" font-size="10.00">core/models/extern</text>
<text text-anchor="start" x="510" y="-667.5" font-family="Helvetica,sans-Serif" font-size="10.00">/LEON3/simulatorSources</text>
<text text-anchor="middle" x="575" y="-654.5" font-family="Helvetica,sans-Serif" font-size="10.00">/leon3.funclt/externalPins.hpp</text>
</g>
<!-- Node2 -->
<g id="node3" class="node"><title>Node2</title>
<a xlink:href="trap__utils_8hpp.html" target="_top" xlink:title="core/common/trapgen\l/utils/trap_utils.hpp">
<polygon fill="white" stroke="black" points="205.5,-575 205.5,-609 316.5,-609 316.5,-575 205.5,-575"/>
<text text-anchor="start" x="213.5" y="-596" font-family="Helvetica,sans-Serif" font-size="10.00">core/common/trapgen</text>
<text text-anchor="middle" x="261" y="-583" font-family="Helvetica,sans-Serif" font-size="10.00">/utils/trap_utils.hpp</text>
</a>
</g>
<!-- Node1&#45;&gt;Node2 -->
<g id="edge2" class="edge"><title>Node1&#45;&gt;Node2</title>
<path fill="none" stroke="midnightblue" d="M501.777,-651.811C448.77,-638.644 377.745,-621 326.589,-608.293"/>
<polygon fill="midnightblue" stroke="midnightblue" points="327.183,-604.834 316.634,-605.82 325.495,-611.628 327.183,-604.834"/>
</g>
<!-- Node10 -->
<g id="node23" class="node"><title>Node10</title>
<a xlink:href="systemc_8h.html" target="_top" xlink:title="core/common/systemc.h">
<polygon fill="white" stroke="black" points="512.5,-581.5 512.5,-602.5 637.5,-602.5 637.5,-581.5 512.5,-581.5"/>
<text text-anchor="middle" x="575" y="-589.5" font-family="Helvetica,sans-Serif" font-size="10.00">core/common/systemc.h</text>
</a>
</g>
<!-- Node1&#45;&gt;Node10 -->
<g id="edge26" class="edge"><title>Node1&#45;&gt;Node10</title>
<path fill="none" stroke="midnightblue" d="M575,-646.174C575,-635.514 575,-623.062 575,-612.786"/>
<polygon fill="midnightblue" stroke="midnightblue" points="578.5,-612.677 575,-602.677 571.5,-612.677 578.5,-612.677"/>
</g>
<!-- Node15 -->
<g id="node34" class="node"><title>Node15</title>
<a xlink:href="signalkit_8h.html" target="_top" xlink:title="core/common/signalkit.h">
<polygon fill="white" stroke="black" points="874.5,-581.5 874.5,-602.5 997.5,-602.5 997.5,-581.5 874.5,-581.5"/>
<text text-anchor="middle" x="936" y="-589.5" font-family="Helvetica,sans-Serif" font-size="10.00">core/common/signalkit.h</text>
</a>
</g>
<!-- Node1&#45;&gt;Node15 -->
<g id="edge38" class="edge"><title>Node1&#45;&gt;Node15</title>
<path fill="none" stroke="midnightblue" d="M648.054,-654.216C715.58,-639.625 814.649,-618.22 877.206,-604.703"/>
<polygon fill="midnightblue" stroke="midnightblue" points="878.267,-608.055 887.302,-602.522 876.789,-601.213 878.267,-608.055"/>
</g>
<!-- Node3 -->
<g id="node5" class="node"><title>Node3</title>
<polygon fill="white" stroke="#bfbfbf" points="216.5,-437.5 216.5,-458.5 275.5,-458.5 275.5,-437.5 216.5,-437.5"/>
<text text-anchor="middle" x="246" y="-445.5" font-family="Helvetica,sans-Serif" font-size="10.00">exception</text>
</g>
<!-- Node2&#45;&gt;Node3 -->
<g id="edge4" class="edge"><title>Node2&#45;&gt;Node3</title>
<path fill="none" stroke="midnightblue" d="M259.22,-574.916C256.453,-548.345 251.126,-497.207 248.148,-468.622"/>
<polygon fill="midnightblue" stroke="midnightblue" points="251.615,-468.125 247.098,-458.541 244.653,-468.85 251.615,-468.125"/>
</g>
<!-- Node4 -->
<g id="node7" class="node"><title>Node4</title>
<polygon fill="white" stroke="#bfbfbf" points="324,-437.5 324,-458.5 378,-458.5 378,-437.5 324,-437.5"/>
<text text-anchor="middle" x="351" y="-445.5" font-family="Helvetica,sans-Serif" font-size="10.00">iostream</text>
</g>
<!-- Node2&#45;&gt;Node4 -->
<g id="edge6" class="edge"><title>Node2&#45;&gt;Node4</title>
<path fill="none" stroke="midnightblue" d="M308.021,-574.764C324.255,-566.301 340.689,-554.328 350,-538 362.157,-516.682 359.774,-487.648 356.116,-468.389"/>
<polygon fill="midnightblue" stroke="midnightblue" points="359.523,-467.585 353.976,-458.558 352.683,-469.074 359.523,-467.585"/>
</g>
<!-- Node5 -->
<g id="node9" class="node"><title>Node5</title>
<polygon fill="white" stroke="#bfbfbf" points="289,-509.5 289,-530.5 341,-530.5 341,-509.5 289,-509.5"/>
<text text-anchor="middle" x="315" y="-517.5" font-family="Helvetica,sans-Serif" font-size="10.00">sstream</text>
</g>
<!-- Node2&#45;&gt;Node5 -->
<g id="edge8" class="edge"><title>Node2&#45;&gt;Node5</title>
<path fill="none" stroke="midnightblue" d="M273.797,-574.937C281.869,-564.174 292.309,-550.255 300.66,-539.12"/>
<polygon fill="midnightblue" stroke="midnightblue" points="303.624,-541.001 306.824,-530.901 298.024,-536.801 303.624,-541.001"/>
</g>
<!-- Node6 -->
<g id="node11" class="node"><title>Node6</title>
<polygon fill="white" stroke="#bfbfbf" points="-0.5,-437.5 -0.5,-458.5 58.5,-458.5 58.5,-437.5 -0.5,-437.5"/>
<text text-anchor="middle" x="29" y="-445.5" font-family="Helvetica,sans-Serif" font-size="10.00">stdexcept</text>
</g>
<!-- Node2&#45;&gt;Node6 -->
<g id="edge10" class="edge"><title>Node2&#45;&gt;Node6</title>
<path fill="none" stroke="midnightblue" d="M205.253,-581.215C157.414,-571.036 93.0997,-554.857 73,-538 51.5379,-520 39.6654,-489.027 33.811,-468.528"/>
<polygon fill="midnightblue" stroke="midnightblue" points="37.1372,-467.414 31.217,-458.627 30.3658,-469.188 37.1372,-467.414"/>
</g>
<!-- Node7 -->
<g id="node13" class="node"><title>Node7</title>
<polygon fill="white" stroke="#bfbfbf" points="79.5,-437.5 79.5,-458.5 120.5,-458.5 120.5,-437.5 79.5,-437.5"/>
<text text-anchor="middle" x="100" y="-445.5" font-family="Helvetica,sans-Serif" font-size="10.00">string</text>
</g>
<!-- Node2&#45;&gt;Node7 -->
<g id="edge12" class="edge"><title>Node2&#45;&gt;Node7</title>
<path fill="none" stroke="midnightblue" d="M205.201,-582.402C158.992,-573.183 98.6251,-557.752 84,-538 68.812,-517.487 79.0222,-487.227 88.7128,-467.563"/>
<polygon fill="midnightblue" stroke="midnightblue" points="91.8712,-469.077 93.455,-458.601 85.6841,-465.803 91.8712,-469.077"/>
</g>
<!-- Node8 -->
<g id="node15" class="node"><title>Node8</title>
<a xlink:href="customExceptions_8hpp.html" target="_top" xlink:title="core/common/trapgen\l/utils/customExceptions.hpp">
<polygon fill="white" stroke="black" points="93,-503 93,-537 233,-537 233,-503 93,-503"/>
<text text-anchor="start" x="101" y="-524" font-family="Helvetica,sans-Serif" font-size="10.00">core/common/trapgen</text>
<text text-anchor="middle" x="163" y="-511" font-family="Helvetica,sans-Serif" font-size="10.00">/utils/customExceptions.hpp</text>
</a>
</g>
<!-- Node2&#45;&gt;Node8 -->
<g id="edge14" class="edge"><title>Node2&#45;&gt;Node8</title>
<path fill="none" stroke="midnightblue" d="M237.775,-574.937C224.932,-565.501 208.786,-553.639 194.788,-543.354"/>
<polygon fill="midnightblue" stroke="midnightblue" points="196.529,-540.29 186.398,-537.19 192.384,-545.931 196.529,-540.29"/>
</g>
<!-- Node8&#45;&gt;Node3 -->
<g id="edge18" class="edge"><title>Node8&#45;&gt;Node3</title>
<path fill="none" stroke="midnightblue" d="M182.67,-502.937C195.691,-491.642 212.72,-476.869 225.84,-465.488"/>
<polygon fill="midnightblue" stroke="midnightblue" points="228.173,-468.098 233.434,-458.901 223.586,-462.81 228.173,-468.098"/>
</g>
<!-- Node8&#45;&gt;Node4 -->
<g id="edge20" class="edge"><title>Node8&#45;&gt;Node4</title>
<path fill="none" stroke="midnightblue" d="M207.553,-502.937C240.18,-490.442 283.918,-473.691 314.487,-461.984"/>
<polygon fill="midnightblue" stroke="midnightblue" points="315.832,-465.217 323.919,-458.372 313.328,-458.68 315.832,-465.217"/>
</g>
<!-- Node8&#45;&gt;Node6 -->
<g id="edge22" class="edge"><title>Node8&#45;&gt;Node6</title>
<path fill="none" stroke="midnightblue" d="M131.244,-502.937C108.996,-490.983 79.5007,-475.135 57.9089,-463.533"/>
<polygon fill="midnightblue" stroke="midnightblue" points="59.3572,-460.338 48.8916,-458.688 56.0439,-466.504 59.3572,-460.338"/>
</g>
<!-- Node8&#45;&gt;Node7 -->
<g id="edge24" class="edge"><title>Node8&#45;&gt;Node7</title>
<path fill="none" stroke="midnightblue" d="M148.07,-502.937C138.466,-491.961 125.99,-477.702 116.154,-466.462"/>
<polygon fill="midnightblue" stroke="midnightblue" points="118.758,-464.122 109.538,-458.901 113.489,-468.732 118.758,-464.122"/>
</g>
<!-- Node9 -->
<g id="node17" class="node"><title>Node9</title>
<polygon fill="white" stroke="#bfbfbf" points="140.5,-437.5 140.5,-458.5 185.5,-458.5 185.5,-437.5 140.5,-437.5"/>
<text text-anchor="middle" x="163" y="-445.5" font-family="Helvetica,sans-Serif" font-size="10.00">cstdlib</text>
</g>
<!-- Node8&#45;&gt;Node9 -->
<g id="edge16" class="edge"><title>Node8&#45;&gt;Node9</title>
<path fill="none" stroke="midnightblue" d="M163,-502.937C163,-492.814 163,-479.898 163,-469.133"/>
<polygon fill="midnightblue" stroke="midnightblue" points="166.5,-468.901 163,-458.901 159.5,-468.901 166.5,-468.901"/>
</g>
<!-- Node10&#45;&gt;Node10 -->
<g id="edge28" class="edge"><title>Node10&#45;&gt;Node10</title>
<path fill="none" stroke="midnightblue" d="M600.395,-602.534C626.237,-608.73 655,-605.219 655,-592 655,-580.485 633.174,-576.337 610.466,-579.554"/>
<polygon fill="midnightblue" stroke="midnightblue" points="609.567,-576.162 600.395,-581.466 610.873,-583.039 609.567,-576.162"/>
</g>
<!-- Node11 -->
<g id="node26" class="node"><title>Node11</title>
<polygon fill="white" stroke="#bfbfbf" points="509,-509.5 509,-530.5 547,-530.5 547,-509.5 509,-509.5"/>
<text text-anchor="middle" x="528" y="-517.5" font-family="Helvetica,sans-Serif" font-size="10.00">tlm.h</text>
</g>
<!-- Node10&#45;&gt;Node11 -->
<g id="edge30" class="edge"><title>Node10&#45;&gt;Node11</title>
<path fill="none" stroke="midnightblue" d="M568.065,-581.376C560.845,-570.316 549.381,-552.753 540.562,-539.243"/>
<polygon fill="midnightblue" stroke="midnightblue" points="543.361,-537.128 534.963,-530.667 537.499,-540.954 543.361,-537.128"/>
</g>
<!-- Node12 -->
<g id="node28" class="node"><title>Node12</title>
<polygon fill="white" stroke="#bfbfbf" points="564.5,-503 564.5,-537 679.5,-537 679.5,-503 564.5,-503"/>
<text text-anchor="start" x="572.5" y="-524" font-family="Helvetica,sans-Serif" font-size="10.00">tlm_utils/simple_target</text>
<text text-anchor="middle" x="622" y="-511" font-family="Helvetica,sans-Serif" font-size="10.00">_socket.h</text>
</g>
<!-- Node10&#45;&gt;Node12 -->
<g id="edge32" class="edge"><title>Node10&#45;&gt;Node12</title>
<path fill="none" stroke="midnightblue" d="M581.935,-581.376C588.058,-571.996 597.234,-557.939 605.26,-545.644"/>
<polygon fill="midnightblue" stroke="midnightblue" points="608.306,-547.381 610.841,-537.094 602.444,-543.555 608.306,-547.381"/>
</g>
<!-- Node13 -->
<g id="node30" class="node"><title>Node13</title>
<polygon fill="white" stroke="#bfbfbf" points="697,-503 697,-537 819,-537 819,-503 697,-503"/>
<text text-anchor="start" x="705" y="-524" font-family="Helvetica,sans-Serif" font-size="10.00">tlm_utils/simple_initiator</text>
<text text-anchor="middle" x="758" y="-511" font-family="Helvetica,sans-Serif" font-size="10.00">_socket.h</text>
</g>
<!-- Node10&#45;&gt;Node13 -->
<g id="edge34" class="edge"><title>Node10&#45;&gt;Node13</title>
<path fill="none" stroke="midnightblue" d="M602.002,-581.376C628.968,-570.767 671.141,-554.174 704.842,-540.915"/>
<polygon fill="midnightblue" stroke="midnightblue" points="706.528,-544.013 714.552,-537.094 703.965,-537.499 706.528,-544.013"/>
</g>
<!-- Node14 -->
<g id="node32" class="node"><title>Node14</title>
<polygon fill="white" stroke="#bfbfbf" points="396.5,-503 396.5,-537 491.5,-537 491.5,-503 396.5,-503"/>
<text text-anchor="start" x="404.5" y="-524" font-family="Helvetica,sans-Serif" font-size="10.00">tlm_utils/peq_with</text>
<text text-anchor="middle" x="444" y="-511" font-family="Helvetica,sans-Serif" font-size="10.00">_get.h</text>
</g>
<!-- Node10&#45;&gt;Node14 -->
<g id="edge36" class="edge"><title>Node10&#45;&gt;Node14</title>
<path fill="none" stroke="midnightblue" d="M555.67,-581.376C536.864,-571.04 507.725,-555.025 483.928,-541.945"/>
<polygon fill="midnightblue" stroke="midnightblue" points="485.552,-538.844 475.102,-537.094 482.18,-544.978 485.552,-538.844"/>
</g>
<!-- Node16 -->
<g id="node36" class="node"><title>Node16</title>
<a xlink:href="module_8h.html" target="_top" xlink:title="core/common/signalkit\l_h/module.h">
<polygon fill="white" stroke="black" points="1012.5,-275 1012.5,-309 1127.5,-309 1127.5,-275 1012.5,-275"/>
<text text-anchor="start" x="1020.5" y="-296" font-family="Helvetica,sans-Serif" font-size="10.00">core/common/signalkit</text>
<text text-anchor="middle" x="1070" y="-283" font-family="Helvetica,sans-Serif" font-size="10.00">_h/module.h</text>
</a>
</g>
<!-- Node15&#45;&gt;Node16 -->
<g id="edge40" class="edge"><title>Node15&#45;&gt;Node16</title>
<path fill="none" stroke="midnightblue" d="M941.706,-581.112C947.11,-570.401 955.104,-553.453 960,-538 986.272,-455.074 951.694,-419.639 998,-346 1005.76,-333.653 1017.44,-323.131 1029.14,-314.744"/>
<polygon fill="midnightblue" stroke="midnightblue" points="1031.28,-317.519 1037.61,-309.019 1027.36,-311.72 1031.28,-317.519"/>
</g>
<!-- Node27 -->
<g id="node73" class="node"><title>Node27</title>
<a xlink:href="adapter_8h.html" target="_top" xlink:title="core/common/signalkit\l_h/adapter.h">
<polygon fill="white" stroke="black" points="1012.5,-431 1012.5,-465 1127.5,-465 1127.5,-431 1012.5,-431"/>
<text text-anchor="start" x="1020.5" y="-452" font-family="Helvetica,sans-Serif" font-size="10.00">core/common/signalkit</text>
<text text-anchor="middle" x="1070" y="-439" font-family="Helvetica,sans-Serif" font-size="10.00">_h/adapter.h</text>
</a>
</g>
<!-- Node15&#45;&gt;Node27 -->
<g id="edge92" class="edge"><title>Node15&#45;&gt;Node27</title>
<path fill="none" stroke="midnightblue" d="M948.14,-581.181C959.927,-570.521 978.161,-553.61 993,-538 1013.15,-516.804 1034.67,-491.382 1049.83,-472.971"/>
<polygon fill="midnightblue" stroke="midnightblue" points="1052.69,-475.001 1056.32,-465.046 1047.27,-470.567 1052.69,-475.001"/>
</g>
<!-- Node31 -->
<g id="node87" class="node"><title>Node31</title>
<a xlink:href="connect_8h.html" target="_top" xlink:title="core/common/signalkit\l_h/connect.h">
<polygon fill="white" stroke="black" points="836.5,-503 836.5,-537 951.5,-537 951.5,-503 836.5,-503"/>
<text text-anchor="start" x="844.5" y="-524" font-family="Helvetica,sans-Serif" font-size="10.00">core/common/signalkit</text>
<text text-anchor="middle" x="894" y="-511" font-family="Helvetica,sans-Serif" font-size="10.00">_h/connect.h</text>
</a>
</g>
<!-- Node15&#45;&gt;Node31 -->
<g id="edge112" class="edge"><title>Node15&#45;&gt;Node31</title>
<path fill="none" stroke="midnightblue" d="M929.803,-581.376C924.384,-572.087 916.29,-558.212 909.168,-546.002"/>
<polygon fill="midnightblue" stroke="midnightblue" points="912.034,-543.969 903.972,-537.094 905.987,-547.496 912.034,-543.969"/>
</g>
<!-- Node17 -->
<g id="node38" class="node"><title>Node17</title>
<a xlink:href="in_8h.html" target="_top" xlink:title="core/common/signalkit\l_h/in.h">
<polygon fill="white" stroke="black" points="1007.5,-131 1007.5,-165 1122.5,-165 1122.5,-131 1007.5,-131"/>
<text text-anchor="start" x="1015.5" y="-152" font-family="Helvetica,sans-Serif" font-size="10.00">core/common/signalkit</text>
<text text-anchor="middle" x="1065" y="-139" font-family="Helvetica,sans-Serif" font-size="10.00">_h/in.h</text>
</a>
</g>
<!-- Node16&#45;&gt;Node17 -->
<g id="edge42" class="edge"><title>Node16&#45;&gt;Node17</title>
<path fill="none" stroke="midnightblue" d="M1079.54,-274.585C1084.64,-264.28 1090.39,-250.78 1093,-238 1096.2,-222.323 1096.79,-217.545 1093,-202 1090.65,-192.356 1086.25,-182.513 1081.62,-173.919"/>
<polygon fill="midnightblue" stroke="midnightblue" points="1084.61,-172.088 1076.6,-165.151 1078.53,-175.567 1084.61,-172.088"/>
</g>
<!-- Node22 -->
<g id="node49" class="node"><title>Node22</title>
<a xlink:href="out_8h.html" target="_top" xlink:title="core/common/signalkit\l_h/out.h">
<polygon fill="white" stroke="black" points="799.5,-131 799.5,-165 914.5,-165 914.5,-131 799.5,-131"/>
<text text-anchor="start" x="807.5" y="-152" font-family="Helvetica,sans-Serif" font-size="10.00">core/common/signalkit</text>
<text text-anchor="middle" x="857" y="-139" font-family="Helvetica,sans-Serif" font-size="10.00">_h/out.h</text>
</a>
</g>
<!-- Node16&#45;&gt;Node22 -->
<g id="edge54" class="edge"><title>Node16&#45;&gt;Node22</title>
<path fill="none" stroke="midnightblue" d="M1028.52,-274.986C1007.45,-265.485 981.957,-252.621 961,-238 941.92,-224.688 940.459,-217.376 923,-202 911.378,-191.764 898.233,-180.877 886.751,-171.579"/>
<polygon fill="midnightblue" stroke="midnightblue" points="888.714,-168.667 878.73,-165.123 884.325,-174.12 888.714,-168.667"/>
</g>
<!-- Node23 -->
<g id="node54" class="node"><title>Node23</title>
<a xlink:href="inout_8h.html" target="_top" xlink:title="core/common/signalkit\l_h/inout.h">
<polygon fill="white" stroke="black" points="799.5,-203 799.5,-237 914.5,-237 914.5,-203 799.5,-203"/>
<text text-anchor="start" x="807.5" y="-224" font-family="Helvetica,sans-Serif" font-size="10.00">core/common/signalkit</text>
<text text-anchor="middle" x="857" y="-211" font-family="Helvetica,sans-Serif" font-size="10.00">_h/inout.h</text>
</a>
</g>
<!-- Node16&#45;&gt;Node23 -->
<g id="edge62" class="edge"><title>Node16&#45;&gt;Node23</title>
<path fill="none" stroke="midnightblue" d="M1019.52,-274.937C988.863,-264.573 949.544,-251.283 917.26,-240.37"/>
<polygon fill="midnightblue" stroke="midnightblue" points="918.079,-236.952 907.484,-237.065 915.837,-243.583 918.079,-236.952"/>
</g>
<!-- Node24 -->
<g id="node59" class="node"><title>Node24</title>
<a xlink:href="selector_8h.html" target="_top" xlink:title="core/common/signalkit\l_h/selector.h">
<polygon fill="white" stroke="black" points="969.5,-203 969.5,-237 1084.5,-237 1084.5,-203 969.5,-203"/>
<text text-anchor="start" x="977.5" y="-224" font-family="Helvetica,sans-Serif" font-size="10.00">core/common/signalkit</text>
<text text-anchor="middle" x="1027" y="-211" font-family="Helvetica,sans-Serif" font-size="10.00">_h/selector.h</text>
</a>
</g>
<!-- Node16&#45;&gt;Node24 -->
<g id="edge70" class="edge"><title>Node16&#45;&gt;Node24</title>
<path fill="none" stroke="midnightblue" d="M1059.81,-274.937C1054.69,-266.365 1048.38,-255.791 1042.66,-246.217"/>
<polygon fill="midnightblue" stroke="midnightblue" points="1045.55,-244.232 1037.42,-237.441 1039.54,-247.821 1045.55,-244.232"/>
</g>
<!-- Node26 -->
<g id="node67" class="node"><title>Node26</title>
<a xlink:href="infield_8h.html" target="_top" xlink:title="core/common/signalkit\l_h/infield.h">
<polygon fill="white" stroke="black" points="1177.5,-131 1177.5,-165 1292.5,-165 1292.5,-131 1177.5,-131"/>
<text text-anchor="start" x="1185.5" y="-152" font-family="Helvetica,sans-Serif" font-size="10.00">core/common/signalkit</text>
<text text-anchor="middle" x="1235" y="-139" font-family="Helvetica,sans-Serif" font-size="10.00">_h/infield.h</text>
</a>
</g>
<!-- Node16&#45;&gt;Node26 -->
<g id="edge82" class="edge"><title>Node16&#45;&gt;Node26</title>
<path fill="none" stroke="midnightblue" d="M1089.58,-274.916C1118.97,-249.259 1174.62,-200.695 1207.9,-171.649"/>
<polygon fill="midnightblue" stroke="midnightblue" points="1210.22,-174.274 1215.45,-165.062 1205.61,-169 1210.22,-174.274"/>
</g>
<!-- Node18 -->
<g id="node40" class="node"><title>Node18</title>
<polygon fill="white" stroke="#bfbfbf" points="870.5,-0.5 870.5,-21.5 919.5,-21.5 919.5,-0.5 870.5,-0.5"/>
<text text-anchor="middle" x="895" y="-8.5" font-family="Helvetica,sans-Serif" font-size="10.00">stdint.h</text>
</g>
<!-- Node17&#45;&gt;Node18 -->
<g id="edge44" class="edge"><title>Node17&#45;&gt;Node18</title>
<path fill="none" stroke="midnightblue" d="M1054.87,-130.796C1042.55,-111.089 1020.14,-78.8426 994,-58 974.567,-42.5073 949.19,-30.5882 928.994,-22.6294"/>
<polygon fill="midnightblue" stroke="midnightblue" points="930.136,-19.3193 919.545,-19.0422 927.652,-25.8635 930.136,-19.3193"/>
</g>
<!-- Node19 -->
<g id="node42" class="node"><title>Node19</title>
<a xlink:href="signalkit__h_2base_8h.html" target="_top" xlink:title="core/common/signalkit\l_h/base.h">
<polygon fill="white" stroke="black" points="1092.5,-59 1092.5,-93 1207.5,-93 1207.5,-59 1092.5,-59"/>
<text text-anchor="start" x="1100.5" y="-80" font-family="Helvetica,sans-Serif" font-size="10.00">core/common/signalkit</text>
<text text-anchor="middle" x="1150" y="-67" font-family="Helvetica,sans-Serif" font-size="10.00">_h/base.h</text>
</a>
</g>
<!-- Node17&#45;&gt;Node19 -->
<g id="edge46" class="edge"><title>Node17&#45;&gt;Node19</title>
<path fill="none" stroke="midnightblue" d="M1085.14,-130.937C1096.07,-121.679 1109.76,-110.086 1121.74,-99.9379"/>
<polygon fill="midnightblue" stroke="midnightblue" points="1124.34,-102.324 1129.71,-93.19 1119.81,-96.9828 1124.34,-102.324"/>
</g>
<!-- Node21 -->
<g id="node46" class="node"><title>Node21</title>
<a xlink:href="ifs_8h.html" target="_top" xlink:title="core/common/signalkit\l_h/ifs.h">
<polygon fill="white" stroke="black" points="837.5,-59 837.5,-93 952.5,-93 952.5,-59 837.5,-59"/>
<text text-anchor="start" x="845.5" y="-80" font-family="Helvetica,sans-Serif" font-size="10.00">core/common/signalkit</text>
<text text-anchor="middle" x="895" y="-67" font-family="Helvetica,sans-Serif" font-size="10.00">_h/ifs.h</text>
</a>
</g>
<!-- Node17&#45;&gt;Node21 -->
<g id="edge50" class="edge"><title>Node17&#45;&gt;Node21</title>
<path fill="none" stroke="midnightblue" d="M1024.71,-130.937C1000.77,-120.797 970.211,-107.854 944.769,-97.0785"/>
<polygon fill="midnightblue" stroke="midnightblue" points="945.866,-93.7423 935.293,-93.0651 943.136,-100.188 945.866,-93.7423"/>
</g>
<!-- Node20 -->
<g id="node44" class="node"><title>Node20</title>
<polygon fill="white" stroke="#bfbfbf" points="1350,-0.5 1350,-21.5 1404,-21.5 1404,-0.5 1350,-0.5"/>
<text text-anchor="middle" x="1377" y="-8.5" font-family="Helvetica,sans-Serif" font-size="10.00">systemc</text>
</g>
<!-- Node19&#45;&gt;Node20 -->
<g id="edge48" class="edge"><title>Node19&#45;&gt;Node20</title>
<path fill="none" stroke="midnightblue" d="M1207.58,-59.5137C1249.06,-47.6352 1303.83,-31.9518 1339.71,-21.6772"/>
<polygon fill="midnightblue" stroke="midnightblue" points="1341.1,-24.9192 1349.75,-18.8015 1339.18,-18.1896 1341.1,-24.9192"/>
</g>
<!-- Node21&#45;&gt;Node18 -->
<g id="edge52" class="edge"><title>Node21&#45;&gt;Node18</title>
<path fill="none" stroke="midnightblue" d="M895,-58.922C895,-50.6704 895,-40.6922 895,-31.9818"/>
<polygon fill="midnightblue" stroke="midnightblue" points="898.5,-31.8521 895,-21.8521 891.5,-31.8521 898.5,-31.8521"/>
</g>
<!-- Node22&#45;&gt;Node18 -->
<g id="edge60" class="edge"><title>Node22&#45;&gt;Node18</title>
<path fill="none" stroke="midnightblue" d="M843.986,-130.726C831.653,-112.081 816.703,-81.8533 829,-58 835.95,-44.5181 848.755,-34.0551 861.249,-26.4597"/>
<polygon fill="midnightblue" stroke="midnightblue" points="863.196,-29.3803 870.203,-21.4337 859.77,-23.2761 863.196,-29.3803"/>
</g>
<!-- Node22&#45;&gt;Node19 -->
<g id="edge56" class="edge"><title>Node22&#45;&gt;Node19</title>
<path fill="none" stroke="midnightblue" d="M914.538,-133.861C962.661,-122.036 1031.39,-105.145 1082.19,-92.6642"/>
<polygon fill="midnightblue" stroke="midnightblue" points="1083.22,-96.0149 1092.09,-90.2296 1081.55,-89.2171 1083.22,-96.0149"/>
</g>
<!-- Node22&#45;&gt;Node21 -->
<g id="edge58" class="edge"><title>Node22&#45;&gt;Node21</title>
<path fill="none" stroke="midnightblue" d="M866.005,-130.937C870.483,-122.454 875.995,-112.009 881.007,-102.513"/>
<polygon fill="midnightblue" stroke="midnightblue" points="884.223,-103.918 885.795,-93.4407 878.032,-100.651 884.223,-103.918"/>
</g>
<!-- Node23&#45;&gt;Node17 -->
<g id="edge68" class="edge"><title>Node23&#45;&gt;Node17</title>
<path fill="none" stroke="midnightblue" d="M906.293,-202.937C936.233,-192.573 974.628,-179.283 1006.15,-168.37"/>
<polygon fill="midnightblue" stroke="midnightblue" points="1007.4,-171.644 1015.7,-165.065 1005.11,-165.029 1007.4,-171.644"/>
</g>
<!-- Node23&#45;&gt;Node18 -->
<g id="edge64" class="edge"><title>Node23&#45;&gt;Node18</title>
<path fill="none" stroke="midnightblue" d="M825.625,-202.903C812.35,-193.845 798.291,-181.386 791,-166 784.148,-151.541 787.955,-145.708 791,-130 797.564,-96.1321 797.856,-84.4533 820,-58 831.085,-44.758 846.891,-34.0847 861.137,-26.2767"/>
<polygon fill="midnightblue" stroke="midnightblue" points="862.95,-29.2791 870.208,-21.5613 859.721,-23.0682 862.95,-29.2791"/>
</g>
<!-- Node23&#45;&gt;Node22 -->
<g id="edge66" class="edge"><title>Node23&#45;&gt;Node22</title>
<path fill="none" stroke="midnightblue" d="M857,-202.937C857,-194.807 857,-184.876 857,-175.705"/>
<polygon fill="midnightblue" stroke="midnightblue" points="860.5,-175.441 857,-165.441 853.5,-175.441 860.5,-175.441"/>
</g>
<!-- Node24&#45;&gt;Node18 -->
<g id="edge72" class="edge"><title>Node24&#45;&gt;Node18</title>
<path fill="none" stroke="midnightblue" d="M1017.29,-202.79C1011.59,-192.328 1004.45,-178.6 999,-166 978.795,-119.299 991.598,-98.6571 961,-58 951.471,-45.338 937.547,-34.7184 924.942,-26.7956"/>
<polygon fill="midnightblue" stroke="midnightblue" points="926.461,-23.626 916.079,-21.5126 922.877,-29.639 926.461,-23.626"/>
</g>
<!-- Node24&#45;&gt;Node19 -->
<g id="edge74" class="edge"><title>Node24&#45;&gt;Node19</title>
<path fill="none" stroke="midnightblue" d="M1080.72,-202.944C1099.19,-194.565 1118.38,-182.601 1131,-166 1144.64,-148.062 1149.01,-122.559 1150.19,-103.278"/>
<polygon fill="midnightblue" stroke="midnightblue" points="1153.7,-103.141 1150.56,-93.0215 1146.71,-102.889 1153.7,-103.141"/>
</g>
<!-- Node24&#45;&gt;Node21 -->
<g id="edge76" class="edge"><title>Node24&#45;&gt;Node21</title>
<path fill="none" stroke="midnightblue" d="M1005.83,-202.869C993.684,-192.659 978.434,-179.159 966,-166 946.649,-145.52 926.986,-120.165 913.275,-101.592"/>
<polygon fill="midnightblue" stroke="midnightblue" points="915.959,-99.3334 907.233,-93.3244 910.307,-103.463 915.959,-99.3334"/>
</g>
<!-- Node24&#45;&gt;Node22 -->
<g id="edge78" class="edge"><title>Node24&#45;&gt;Node22</title>
<path fill="none" stroke="midnightblue" d="M986.712,-202.937C962.77,-192.797 932.211,-179.854 906.769,-169.078"/>
<polygon fill="midnightblue" stroke="midnightblue" points="907.866,-165.742 897.293,-165.065 905.136,-172.188 907.866,-165.742"/>
</g>
<!-- Node25 -->
<g id="node65" class="node"><title>Node25</title>
<polygon fill="white" stroke="#bfbfbf" points="1278.5,-65.5 1278.5,-86.5 1313.5,-86.5 1313.5,-65.5 1278.5,-65.5"/>
<text text-anchor="middle" x="1296" y="-73.5" font-family="Helvetica,sans-Serif" font-size="10.00">map</text>
</g>
<!-- Node24&#45;&gt;Node25 -->
<g id="edge80" class="edge"><title>Node24&#45;&gt;Node25</title>
<path fill="none" stroke="midnightblue" d="M1084.77,-216.979C1156.92,-211.858 1274.17,-198.63 1301,-166 1317,-146.545 1310.9,-115.979 1304.17,-95.9633"/>
<polygon fill="midnightblue" stroke="midnightblue" points="1307.45,-94.7433 1300.71,-86.5725 1300.89,-97.1659 1307.45,-94.7433"/>
</g>
<!-- Node26&#45;&gt;Node18 -->
<g id="edge84" class="edge"><title>Node26&#45;&gt;Node18</title>
<path fill="none" stroke="midnightblue" d="M1236.71,-130.646C1237.67,-110.175 1235.79,-76.5856 1216,-58 1195.34,-38.5967 1008.72,-20.6498 929.894,-13.8644"/>
<polygon fill="midnightblue" stroke="midnightblue" points="929.775,-10.3417 919.514,-12.982 929.182,-17.3165 929.775,-10.3417"/>
</g>
<!-- Node26&#45;&gt;Node19 -->
<g id="edge86" class="edge"><title>Node26&#45;&gt;Node19</title>
<path fill="none" stroke="midnightblue" d="M1214.86,-130.937C1203.93,-121.679 1190.24,-110.086 1178.26,-99.9379"/>
<polygon fill="midnightblue" stroke="midnightblue" points="1180.19,-96.9828 1170.29,-93.19 1175.66,-102.324 1180.19,-96.9828"/>
</g>
<!-- Node26&#45;&gt;Node21 -->
<g id="edge88" class="edge"><title>Node26&#45;&gt;Node21</title>
<path fill="none" stroke="midnightblue" d="M1177.32,-135.786C1117.89,-123.2 1025.29,-103.591 962.489,-90.2918"/>
<polygon fill="midnightblue" stroke="midnightblue" points="963.183,-86.8612 952.675,-88.2135 961.733,-93.7094 963.183,-86.8612"/>
</g>
<!-- Node26&#45;&gt;Node25 -->
<g id="edge90" class="edge"><title>Node26&#45;&gt;Node25</title>
<path fill="none" stroke="midnightblue" d="M1249.46,-130.937C1258.66,-120.068 1270.6,-105.979 1280.08,-94.7904"/>
<polygon fill="midnightblue" stroke="midnightblue" points="1282.97,-96.7934 1286.76,-86.901 1277.63,-92.2684 1282.97,-96.7934"/>
</g>
<!-- Node28 -->
<g id="node75" class="node"><title>Node28</title>
<a xlink:href="tlmin__scout__adapter_8h.html" target="_top" xlink:title="core/common/signalkit\l_h/adapter_h/tlmin_scout\l_adapter.h">
<polygon fill="white" stroke="black" points="1295,-346.5 1295,-393.5 1421,-393.5 1421,-346.5 1295,-346.5"/>
<text text-anchor="start" x="1303" y="-380.5" font-family="Helvetica,sans-Serif" font-size="10.00">core/common/signalkit</text>
<text text-anchor="start" x="1303" y="-367.5" font-family="Helvetica,sans-Serif" font-size="10.00">_h/adapter_h/tlmin_scout</text>
<text text-anchor="middle" x="1358" y="-354.5" font-family="Helvetica,sans-Serif" font-size="10.00">_adapter.h</text>
</a>
</g>
<!-- Node27&#45;&gt;Node28 -->
<g id="edge94" class="edge"><title>Node27&#45;&gt;Node28</title>
<path fill="none" stroke="midnightblue" d="M1127.62,-434.865C1169.02,-425.139 1226.31,-411.086 1285.05,-394.195"/>
<polygon fill="midnightblue" stroke="midnightblue" points="1286.24,-397.494 1294.87,-391.348 1284.29,-390.771 1286.24,-397.494"/>
</g>
<!-- Node29 -->
<g id="node79" class="node"><title>Node29</title>
<a xlink:href="scin__tlmout__adapter_8h.html" target="_top" xlink:title="core/common/signalkit\l_h/adapter_h/scin_tlmout\l_adapter.h">
<polygon fill="white" stroke="black" points="1151,-346.5 1151,-393.5 1277,-393.5 1277,-346.5 1151,-346.5"/>
<text text-anchor="start" x="1159" y="-380.5" font-family="Helvetica,sans-Serif" font-size="10.00">core/common/signalkit</text>
<text text-anchor="start" x="1159" y="-367.5" font-family="Helvetica,sans-Serif" font-size="10.00">_h/adapter_h/scin_tlmout</text>
<text text-anchor="middle" x="1214" y="-354.5" font-family="Helvetica,sans-Serif" font-size="10.00">_adapter.h</text>
</a>
</g>
<!-- Node27&#45;&gt;Node29 -->
<g id="edge100" class="edge"><title>Node27&#45;&gt;Node29</title>
<path fill="none" stroke="midnightblue" d="M1101.6,-430.883C1119.12,-421.394 1141.35,-409.349 1161.42,-398.483"/>
<polygon fill="midnightblue" stroke="midnightblue" points="1163.33,-401.427 1170.46,-393.586 1160,-395.271 1163.33,-401.427"/>
</g>
<!-- Node30 -->
<g id="node83" class="node"><title>Node30</title>
<a xlink:href="tlmsc__inout__adapter_8h.html" target="_top" xlink:title="core/common/signalkit\l_h/adapter_h/tlmsc_inout\l_adapter.h">
<polygon fill="white" stroke="black" points="1007,-346.5 1007,-393.5 1133,-393.5 1133,-346.5 1007,-346.5"/>
<text text-anchor="start" x="1015" y="-380.5" font-family="Helvetica,sans-Serif" font-size="10.00">core/common/signalkit</text>
<text text-anchor="start" x="1015" y="-367.5" font-family="Helvetica,sans-Serif" font-size="10.00">_h/adapter_h/tlmsc_inout</text>
<text text-anchor="middle" x="1070" y="-354.5" font-family="Helvetica,sans-Serif" font-size="10.00">_adapter.h</text>
</a>
</g>
<!-- Node27&#45;&gt;Node30 -->
<g id="edge106" class="edge"><title>Node27&#45;&gt;Node30</title>
<path fill="none" stroke="midnightblue" d="M1070,-430.689C1070,-422.798 1070,-413.169 1070,-403.927"/>
<polygon fill="midnightblue" stroke="midnightblue" points="1073.5,-403.77 1070,-393.77 1066.5,-403.77 1073.5,-403.77"/>
</g>
<!-- Node28&#45;&gt;Node16 -->
<g id="edge98" class="edge"><title>Node28&#45;&gt;Node16</title>
<path fill="none" stroke="midnightblue" d="M1294.87,-348.652C1291.88,-347.736 1288.91,-346.847 1286,-346 1236.59,-331.612 1180.16,-317.585 1137.37,-307.435"/>
<polygon fill="midnightblue" stroke="midnightblue" points="1138.16,-304.026 1127.62,-305.135 1136.55,-310.839 1138.16,-304.026"/>
</g>
<!-- Node28&#45;&gt;Node20 -->
<g id="edge96" class="edge"><title>Node28&#45;&gt;Node20</title>
<path fill="none" stroke="midnightblue" d="M1383.05,-346.215C1392.68,-335.888 1403.03,-323.154 1410,-310 1429.39,-273.422 1434,-261.398 1434,-220 1434,-220 1434,-220 1434,-148 1434,-106.602 1427.5,-95.5184 1410,-58 1405.31,-47.9405 1398.46,-37.7418 1392.21,-29.4274"/>
<polygon fill="midnightblue" stroke="midnightblue" points="1394.95,-27.2526 1386.04,-21.5298 1389.44,-31.5638 1394.95,-27.2526"/>
</g>
<!-- Node29&#45;&gt;Node16 -->
<g id="edge104" class="edge"><title>Node29&#45;&gt;Node16</title>
<path fill="none" stroke="midnightblue" d="M1170.4,-346.386C1151.34,-336.059 1129.11,-324.018 1110.42,-313.895"/>
<polygon fill="midnightblue" stroke="midnightblue" points="1112.02,-310.78 1101.56,-309.095 1108.69,-316.935 1112.02,-310.78"/>
</g>
<!-- Node29&#45;&gt;Node20 -->
<g id="edge102" class="edge"><title>Node29&#45;&gt;Node20</title>
<path fill="none" stroke="midnightblue" d="M1277.12,-347.525C1319.6,-332.159 1368.49,-313.893 1372,-310 1399.74,-279.269 1396,-261.398 1396,-220 1396,-220 1396,-220 1396,-148 1396,-106.399 1387.3,-58.3592 1381.67,-31.6492"/>
<polygon fill="midnightblue" stroke="midnightblue" points="1385.03,-30.6164 1379.48,-21.5889 1378.19,-32.1044 1385.03,-30.6164"/>
</g>
<!-- Node30&#45;&gt;Node16 -->
<g id="edge110" class="edge"><title>Node30&#45;&gt;Node16</title>
<path fill="none" stroke="midnightblue" d="M1070,-346.174C1070,-337.638 1070,-327.952 1070,-319.156"/>
<polygon fill="midnightblue" stroke="midnightblue" points="1073.5,-319.003 1070,-309.003 1066.5,-319.003 1073.5,-319.003"/>
</g>
<!-- Node30&#45;&gt;Node20 -->
<g id="edge108" class="edge"><title>Node30&#45;&gt;Node20</title>
<path fill="none" stroke="midnightblue" d="M1127.59,-346.367C1211.63,-311.002 1358,-245.721 1358,-220 1358,-220 1358,-220 1358,-148 1358,-106.399 1366.7,-58.3592 1372.33,-31.6492"/>
<polygon fill="midnightblue" stroke="midnightblue" points="1375.81,-32.1044 1374.52,-21.5889 1368.97,-30.6164 1375.81,-32.1044"/>
</g>
<!-- Node31&#45;&gt;Node18 -->
<g id="edge114" class="edge"><title>Node31&#45;&gt;Node18</title>
<path fill="none" stroke="midnightblue" d="M836.464,-503.493C778.004,-482.775 696,-441.049 696,-370 696,-370 696,-370 696,-148 696,-69.2243 803.106,-32.2976 860.164,-18.2149"/>
<polygon fill="midnightblue" stroke="midnightblue" points="861.27,-21.55 870.199,-15.8462 859.662,-14.7373 861.27,-21.55"/>
</g>
<!-- Node31&#45;&gt;Node21 -->
<g id="edge116" class="edge"><title>Node31&#45;&gt;Node21</title>
<path fill="none" stroke="midnightblue" d="M866.316,-502.937C830.321,-478.376 772,-429.415 772,-370 772,-370 772,-370 772,-220 772,-179.118 766.26,-162.546 791,-130 801.549,-116.123 816.687,-105.485 832.161,-97.4739"/>
<polygon fill="midnightblue" stroke="midnightblue" points="833.805,-100.566 841.278,-93.0558 830.752,-94.2671 833.805,-100.566"/>
</g>
<!-- Node31&#45;&gt;Node27 -->
<g id="edge118" class="edge"><title>Node31&#45;&gt;Node27</title>
<path fill="none" stroke="midnightblue" d="M935.71,-502.937C960.606,-492.752 992.413,-479.74 1018.82,-468.936"/>
<polygon fill="midnightblue" stroke="midnightblue" points="1020.35,-472.091 1028.29,-465.065 1017.7,-465.612 1020.35,-472.091"/>
</g>
</g>
</svg>
        <g id="navigator" transform="translate(0 0)" fill="#404254">
                <rect fill="#f2f5e9" fill-opacity="0.5" stroke="#606060" stroke-width=".5" x="0" y="0" width="60" height="60"/>
                <use id="zoomplus" xlink:href="#zoomPlus" x="17" y="9" onmousedown="handleZoom(evt,'in')"/>
                <use id="zoomminus" xlink:href="#zoomMin" x="42" y="9" onmousedown="handleZoom(evt,'out')"/>
                <use id="reset" xlink:href="#resetDef" x="30" y="36" onmousedown="handleReset()"/>
                <g id="arrowUp" xlink:href="#dirArrow" transform="translate(30 24)" onmousedown="handlePan(0,-1)">
                  <use xlink:href="#rim" fill="#404040">
                        <set attributeName="fill" to="#808080" begin="arrowUp.mouseover" end="arrowUp.mouseout"/>
                  </use>
                  <path fill="none" stroke="white" stroke-width="1.5" d="M0,-3.0v7 M-2.5,-0.5L0,-3.0L2.5,-0.5"/>
                </g>
                <g id="arrowRight" xlink:href="#dirArrow" transform="rotate(90) translate(36 -43)" onmousedown="handlePan(1,0)">
                  <use xlink:href="#rim" fill="#404040">
                        <set attributeName="fill" to="#808080" begin="arrowRight.mouseover" end="arrowRight.mouseout"/>
                  </use>
                  <path fill="none" stroke="white" stroke-width="1.5" d="M0,-3.0v7 M-2.5,-0.5L0,-3.0L2.5,-0.5"/>
                </g>
                <g id="arrowDown" xlink:href="#dirArrow" transform="rotate(180) translate(-30 -48)" onmousedown="handlePan(0,1)">
                  <use xlink:href="#rim" fill="#404040">
                        <set attributeName="fill" to="#808080" begin="arrowDown.mouseover" end="arrowDown.mouseout"/>
                  </use>
                  <path fill="none" stroke="white" stroke-width="1.5" d="M0,-3.0v7 M-2.5,-0.5L0,-3.0L2.5,-0.5"/>
                </g>
                <g id="arrowLeft" xlink:href="#dirArrow" transform="rotate(270) translate(-36 17)" onmousedown="handlePan(-1,0)">
                  <use xlink:href="#rim" fill="#404040">
                        <set attributeName="fill" to="#808080" begin="arrowLeft.mouseover" end="arrowLeft.mouseout"/>
                  </use>
                  <path fill="none" stroke="white" stroke-width="1.5" d="M0,-3.0v7 M-2.5,-0.5L0,-3.0L2.5,-0.5"/>
                </g>
        </g>
        <svg viewBox="0 0 15 15" width="100%" height="30px" preserveAspectRatio="xMaxYMin meet">
         <g id="arrow_out" transform="scale(0.3 0.3)">
          <a xlink:href="leon3_8funclt_2externalPins_8hpp__incl_org.svg" target="_base">
           <rect id="button" ry="5" rx="5" y="6" x="6" height="38" width="38"
                fill="#f2f5e9" fill-opacity="0.5" stroke="#606060" stroke-width="1.0"/>
           <path id="arrow"
             d="M 11.500037,31.436501 C 11.940474,20.09759 22.043105,11.32322 32.158766,21.979434 L 37.068811,17.246167 C 37.068811,17.246167 37.088388,32 37.088388,32 L 22.160133,31.978069 C 22.160133,31.978069 26.997745,27.140456 26.997745,27.140456 C 18.528582,18.264221 13.291696,25.230495 11.500037,31.436501 z"
             style="fill:#404040;"/>
          </a>
         </g>
        </svg>
</svg>
