<?xml version="1.0" encoding="UTF-8" standalone="no"?>
<!DOCTYPE svg PUBLIC "-//W3C//DTD SVG 1.1//EN"
 "http://www.w3.org/Graphics/SVG/1.1/DTD/svg11.dtd">
<!-- Generated by graphviz version 2.26.0 (20091210.2329)
 -->
<!-- Title: core/models/extern/LEON3/simulatorSources/leon3.funclt/externalPorts.hpp Pages: 1 -->
<svg width="156pt" height="140pt"
 viewBox="0.00 0.00 156.00 140.00" xmlns="http://www.w3.org/2000/svg" xmlns:xlink="http://www.w3.org/1999/xlink">
<g id="graph1" class="graph" transform="scale(1 1) rotate(0) translate(4 136)">
<title>core/models/extern/LEON3/simulatorSources/leon3.funclt/externalPorts.hpp</title>
<polygon fill="white" stroke="white" points="-4,5 -4,-136 153,-136 153,5 -4,5"/>
<!-- Node1 -->
<g id="node1" class="node"><title>Node1</title>
<polygon fill="#bfbfbf" stroke="black" points="-0.5,-84.5 -0.5,-131.5 148.5,-131.5 148.5,-84.5 -0.5,-84.5"/>
<text text-anchor="start" x="7.5" y="-118.5" font-family="Helvetica,sans-Serif" font-size="10.00">core/models/extern</text>
<text text-anchor="start" x="7.5" y="-105.5" font-family="Helvetica,sans-Serif" font-size="10.00">/LEON3/simulatorSources</text>
<text text-anchor="middle" x="74" y="-92.5" font-family="Helvetica,sans-Serif" font-size="10.00">/leon3.funclt/externalPorts.hpp</text>
</g>
<!-- Node2 -->
<g id="node3" class="node"><title>Node2</title>
<a xlink:href="leon3_8funclt_2externalPorts_8cpp.html" target="_top" xlink:title="core/models/extern\l/LEON3/simulatorSources\l/leon3.funclt/externalPorts.cpp">
<polygon fill="white" stroke="black" points="-0.5,-0.5 -0.5,-47.5 148.5,-47.5 148.5,-0.5 -0.5,-0.5"/>
<text text-anchor="start" x="7.5" y="-34.5" font-family="Helvetica,sans-Serif" font-size="10.00">core/models/extern</text>
<text text-anchor="start" x="7.5" y="-21.5" font-family="Helvetica,sans-Serif" font-size="10.00">/LEON3/simulatorSources</text>
<text text-anchor="middle" x="74" y="-8.5" font-family="Helvetica,sans-Serif" font-size="10.00">/leon3.funclt/externalPorts.cpp</text>
</a>
</g>
<!-- Node1&#45;&gt;Node2 -->
<g id="edge2" class="edge"><title>Node1&#45;&gt;Node2</title>
<path fill="none" stroke="midnightblue" d="M74,-74.0664C74,-65.1933 74,-55.821 74,-47.6152"/>
<polygon fill="midnightblue" stroke="midnightblue" points="70.5001,-74.1536 74,-84.1537 77.5001,-74.1537 70.5001,-74.1536"/>
</g>
</g>
</svg>
