<?xml version="1.0" encoding="UTF-8" standalone="no"?>
<!DOCTYPE svg PUBLIC "-//W3C//DTD SVG 1.1//EN"
 "http://www.w3.org/Graphics/SVG/1.1/DTD/svg11.dtd">
<!-- Generated by graphviz version 2.26.0 (20091210.2329)
 -->
<!-- Title: core/models/extern/LEON3/simulatorSources/leon3.funclt.h Pages: 1 -->
<!--zoomable 200 -->
<svg id="main" version="1.1" xmlns="http://www.w3.org/2000/svg" xmlns:xlink="http://www.w3.org/1999/xlink" xml:space="preserve" onload="init(evt)">
<style type="text/css"><![CDATA[
.edge:hover path { stroke: red; }
.edge:hover polygon { stroke: red; fill: red; }
]]></style>
<script type="text/javascript"><![CDATA[
var edges = document.getElementsByTagName('g');
if (edges && edges.length) {
  for (var i=0;i<edges.length;i++) {
    if (edges[i].id.substr(0,4)=='edge') {
      edges[i].setAttribute('class','edge');
    }
  }
}
]]></script>
        <defs>
                <circle id="rim" cx="0" cy="0" r="7"/>
                <circle id="rim2" cx="0" cy="0" r="3.5"/>
                <g id="zoomPlus">
                        <use xlink:href="#rim" fill="#404040">
                                <set attributeName="fill" to="#808080" begin="zoomplus.mouseover" end="zoomplus.mouseout"/>
                        </use>
                        <path d="M-4,0h8M0,-4v8" fill="none" stroke="white" stroke-width="1.5" pointer-events="none"/>
                </g>
                <g id="zoomMin">
                        <use xlink:href="#rim" fill="#404040">
                                <set attributeName="fill" to="#808080" begin="zoomminus.mouseover" end="zoomminus.mouseout"/>
                        </use>
                        <path d="M-4,0h8" fill="none" stroke="white" stroke-width="1.5" pointer-events="none"/>
                </g>
                <g id="dirArrow">
                        <path fill="none" stroke="white" stroke-width="1.5" d="M0,-3.0v7 M-2.5,-0.5L0,-3.0L2.5,-0.5"/>
                </g>
               <g id="resetDef">
                       <use xlink:href="#rim2" fill="#404040">
                               <set attributeName="fill" to="#808080" begin="reset.mouseover" end="reset.mouseout"/>
                       </use>
               </g>
        </defs>

<script type="text/javascript">
var viewWidth = 501;
var viewHeight = 200;
var sectionId = 'dynsection-1';
</script>
<script xlink:href="svgpan.js"/>
<svg id="graph" class="graph">
<g id="viewport">
<title>core/models/extern/LEON3/simulatorSources/leon3.funclt.h</title>
<polygon fill="white" stroke="white" points="-4,5 -4,-196 498,-196 498,5 -4,5"/>
<!-- Node1 -->
<g id="node1" class="node"><title>Node1</title>
<polygon fill="#bfbfbf" stroke="black" points="182.5,-144.5 182.5,-191.5 313.5,-191.5 313.5,-144.5 182.5,-144.5"/>
<text text-anchor="start" x="190.5" y="-178.5" font-family="Helvetica,sans-Serif" font-size="10.00">core/models/extern</text>
<text text-anchor="start" x="190.5" y="-165.5" font-family="Helvetica,sans-Serif" font-size="10.00">/LEON3/simulatorSources</text>
<text text-anchor="middle" x="248" y="-152.5" font-family="Helvetica,sans-Serif" font-size="10.00">/leon3.funclt.h</text>
</g>
<!-- Node2 -->
<g id="node3" class="node"><title>Node2</title>
<a xlink:href="leon3__mmu__cache_8h.html" target="_top" xlink:title="core/models/mmu_cache\l/lib/leon3_mmu_cache.h">
<polygon fill="white" stroke="black" points="55,-73 55,-107 181,-107 181,-73 55,-73"/>
<text text-anchor="start" x="63" y="-94" font-family="Helvetica,sans-Serif" font-size="10.00">core/models/mmu_cache</text>
<text text-anchor="middle" x="118" y="-81" font-family="Helvetica,sans-Serif" font-size="10.00">/lib/leon3_mmu_cache.h</text>
</a>
</g>
<!-- Node1&#45;&gt;Node2 -->
<g id="edge2" class="edge"><title>Node1&#45;&gt;Node2</title>
<path fill="none" stroke="midnightblue" d="M199.991,-139.194C182.006,-128.404 162.156,-116.493 146.491,-107.095"/>
<polygon fill="midnightblue" stroke="midnightblue" points="198.267,-142.242 208.643,-144.386 201.869,-136.24 198.267,-142.242"/>
</g>
<!-- Node4 -->
<g id="node7" class="node"><title>Node4</title>
<a xlink:href="leon3mp_2sc__main_8cpp.html" target="_top" xlink:title="core/platforms/leon3mp\l/sc_main.cpp">
<polygon fill="white" stroke="black" points="149.5,-1 149.5,-35 268.5,-35 268.5,-1 149.5,-1"/>
<text text-anchor="start" x="157.5" y="-22" font-family="Helvetica,sans-Serif" font-size="10.00">core/platforms/leon3mp</text>
<text text-anchor="middle" x="209" y="-9" font-family="Helvetica,sans-Serif" font-size="10.00">/sc_main.cpp</text>
</a>
</g>
<!-- Node1&#45;&gt;Node4 -->
<g id="edge10" class="edge"><title>Node1&#45;&gt;Node4</title>
<path fill="none" stroke="midnightblue" d="M236.102,-134.548C233.252,-125.954 230.356,-116.683 228,-108 221.185,-82.8779 215.346,-53.2602 212.002,-35.0566"/>
<polygon fill="midnightblue" stroke="midnightblue" points="232.865,-135.902 239.391,-144.249 239.495,-133.654 232.865,-135.902"/>
</g>
<!-- Node5 -->
<g id="node9" class="node"><title>Node5</title>
<a xlink:href="leon3processor_8h.html" target="_top" xlink:title="core/platforms/base\l/leon3processor.h">
<polygon fill="white" stroke="black" points="236.5,-73 236.5,-107 339.5,-107 339.5,-73 236.5,-73"/>
<text text-anchor="start" x="244.5" y="-94" font-family="Helvetica,sans-Serif" font-size="10.00">core/platforms/base</text>
<text text-anchor="middle" x="288" y="-81" font-family="Helvetica,sans-Serif" font-size="10.00">/leon3processor.h</text>
</a>
</g>
<!-- Node1&#45;&gt;Node5 -->
<g id="edge8" class="edge"><title>Node1&#45;&gt;Node5</title>
<path fill="none" stroke="midnightblue" d="M264.856,-135.13C269.821,-125.449 275.051,-115.251 279.281,-107.003"/>
<polygon fill="midnightblue" stroke="midnightblue" points="261.668,-133.678 260.219,-144.174 267.896,-136.873 261.668,-133.678"/>
</g>
<!-- Node6 -->
<g id="node12" class="node"><title>Node6</title>
<a xlink:href="leon3mp_8h.html" target="_top" xlink:title="core/platforms/newleon3mp\l/leon3mp.h">
<polygon fill="white" stroke="black" points="356.5,-73 356.5,-107 493.5,-107 493.5,-73 356.5,-73"/>
<text text-anchor="start" x="364.5" y="-94" font-family="Helvetica,sans-Serif" font-size="10.00">core/platforms/newleon3mp</text>
<text text-anchor="middle" x="425" y="-81" font-family="Helvetica,sans-Serif" font-size="10.00">/leon3mp.h</text>
</a>
</g>
<!-- Node1&#45;&gt;Node6 -->
<g id="edge12" class="edge"><title>Node1&#45;&gt;Node6</title>
<path fill="none" stroke="midnightblue" d="M311.037,-140.221C336.127,-129.164 364.202,-116.792 386.208,-107.095"/>
<polygon fill="midnightblue" stroke="midnightblue" points="309.326,-137.15 301.586,-144.386 312.148,-143.556 309.326,-137.15"/>
</g>
<!-- Node3 -->
<g id="node5" class="node"><title>Node3</title>
<a xlink:href="leon3__mmu__cache_8cpp.html" target="_top" xlink:title="core/models/mmu_cache\l/lib/leon3_mmu_cache.cpp">
<polygon fill="white" stroke="black" points="-0.5,-1 -0.5,-35 132.5,-35 132.5,-1 -0.5,-1"/>
<text text-anchor="start" x="7.5" y="-22" font-family="Helvetica,sans-Serif" font-size="10.00">core/models/mmu_cache</text>
<text text-anchor="middle" x="66" y="-9" font-family="Helvetica,sans-Serif" font-size="10.00">/lib/leon3_mmu_cache.cpp</text>
</a>
</g>
<!-- Node2&#45;&gt;Node3 -->
<g id="edge4" class="edge"><title>Node2&#45;&gt;Node3</title>
<path fill="none" stroke="midnightblue" d="M99.7945,-64.7923C92.7914,-55.0958 84.9571,-44.2482 78.596,-35.4407"/>
<polygon fill="midnightblue" stroke="midnightblue" points="96.9844,-66.8794 105.677,-72.937 102.659,-62.781 96.9844,-66.8794"/>
</g>
<!-- Node2&#45;&gt;Node4 -->
<g id="edge6" class="edge"><title>Node2&#45;&gt;Node4</title>
<path fill="none" stroke="midnightblue" d="M147.71,-66.493C160.606,-56.2899 175.433,-44.5583 187.274,-35.19"/>
<polygon fill="midnightblue" stroke="midnightblue" points="145.236,-63.9874 139.566,-72.937 149.58,-69.4769 145.236,-63.9874"/>
</g>
<!-- Node7 -->
<g id="node14" class="node"><title>Node7</title>
<a xlink:href="newleon3mp_2sc__main_8cpp.html" target="_top" xlink:title="core/platforms/newleon3mp\l/sc_main.cpp">
<polygon fill="white" stroke="black" points="356.5,-1 356.5,-35 493.5,-35 493.5,-1 356.5,-1"/>
<text text-anchor="start" x="364.5" y="-22" font-family="Helvetica,sans-Serif" font-size="10.00">core/platforms/newleon3mp</text>
<text text-anchor="middle" x="425" y="-9" font-family="Helvetica,sans-Serif" font-size="10.00">/sc_main.cpp</text>
</a>
</g>
<!-- Node6&#45;&gt;Node7 -->
<g id="edge14" class="edge"><title>Node6&#45;&gt;Node7</title>
<path fill="none" stroke="midnightblue" d="M425,-62.7193C425,-53.572 425,-43.6255 425,-35.4407"/>
<polygon fill="midnightblue" stroke="midnightblue" points="421.5,-62.937 425,-72.937 428.5,-62.937 421.5,-62.937"/>
</g>
</g>
</svg>
        <g id="navigator" transform="translate(0 0)" fill="#404254">
                <rect fill="#f2f5e9" fill-opacity="0.5" stroke="#606060" stroke-width=".5" x="0" y="0" width="60" height="60"/>
                <use id="zoomplus" xlink:href="#zoomPlus" x="17" y="9" onmousedown="handleZoom(evt,'in')"/>
                <use id="zoomminus" xlink:href="#zoomMin" x="42" y="9" onmousedown="handleZoom(evt,'out')"/>
                <use id="reset" xlink:href="#resetDef" x="30" y="36" onmousedown="handleReset()"/>
                <g id="arrowUp" xlink:href="#dirArrow" transform="translate(30 24)" onmousedown="handlePan(0,-1)">
                  <use xlink:href="#rim" fill="#404040">
                        <set attributeName="fill" to="#808080" begin="arrowUp.mouseover" end="arrowUp.mouseout"/>
                  </use>
                  <path fill="none" stroke="white" stroke-width="1.5" d="M0,-3.0v7 M-2.5,-0.5L0,-3.0L2.5,-0.5"/>
                </g>
                <g id="arrowRight" xlink:href="#dirArrow" transform="rotate(90) translate(36 -43)" onmousedown="handlePan(1,0)">
                  <use xlink:href="#rim" fill="#404040">
                        <set attributeName="fill" to="#808080" begin="arrowRight.mouseover" end="arrowRight.mouseout"/>
                  </use>
                  <path fill="none" stroke="white" stroke-width="1.5" d="M0,-3.0v7 M-2.5,-0.5L0,-3.0L2.5,-0.5"/>
                </g>
                <g id="arrowDown" xlink:href="#dirArrow" transform="rotate(180) translate(-30 -48)" onmousedown="handlePan(0,1)">
                  <use xlink:href="#rim" fill="#404040">
                        <set attributeName="fill" to="#808080" begin="arrowDown.mouseover" end="arrowDown.mouseout"/>
                  </use>
                  <path fill="none" stroke="white" stroke-width="1.5" d="M0,-3.0v7 M-2.5,-0.5L0,-3.0L2.5,-0.5"/>
                </g>
                <g id="arrowLeft" xlink:href="#dirArrow" transform="rotate(270) translate(-36 17)" onmousedown="handlePan(-1,0)">
                  <use xlink:href="#rim" fill="#404040">
                        <set attributeName="fill" to="#808080" begin="arrowLeft.mouseover" end="arrowLeft.mouseout"/>
                  </use>
                  <path fill="none" stroke="white" stroke-width="1.5" d="M0,-3.0v7 M-2.5,-0.5L0,-3.0L2.5,-0.5"/>
                </g>
        </g>
        <svg viewBox="0 0 15 15" width="100%" height="30px" preserveAspectRatio="xMaxYMin meet">
         <g id="arrow_out" transform="scale(0.3 0.3)">
          <a xlink:href="leon3_8funclt_8h__dep__incl_org.svg" target="_base">
           <rect id="button" ry="5" rx="5" y="6" x="6" height="38" width="38"
                fill="#f2f5e9" fill-opacity="0.5" stroke="#606060" stroke-width="1.0"/>
           <path id="arrow"
             d="M 11.500037,31.436501 C 11.940474,20.09759 22.043105,11.32322 32.158766,21.979434 L 37.068811,17.246167 C 37.068811,17.246167 37.088388,32 37.088388,32 L 22.160133,31.978069 C 22.160133,31.978069 26.997745,27.140456 26.997745,27.140456 C 18.528582,18.264221 13.291696,25.230495 11.500037,31.436501 z"
             style="fill:#404040;"/>
          </a>
         </g>
        </svg>
</svg>
