<?xml version="1.0" encoding="UTF-8" standalone="no"?>
<!DOCTYPE svg PUBLIC "-//W3C//DTD SVG 1.1//EN"
 "http://www.w3.org/Graphics/SVG/1.1/DTD/svg11.dtd">
<!-- Generated by graphviz version 2.38.0 (20140413.2041)
 -->
<!-- Title: core/models/extern/LEON3/simulatorSources/leon3.funcat.h Pages: 1 -->
<svg width="407pt" height="177pt"
 viewBox="0.00 0.00 407.33 177.00" xmlns="http://www.w3.org/2000/svg" xmlns:xlink="http://www.w3.org/1999/xlink">
<g id="graph0" class="graph" transform="scale(1 1) rotate(0) translate(4 173)">
<title>core/models/extern/LEON3/simulatorSources/leon3.funcat.h</title>
<polygon fill="white" stroke="none" points="-4,4 -4,-173 403.327,-173 403.327,4 -4,4"/>
<!-- Node1 -->
<g id="node1" class="node"><title>Node1</title>
<polygon fill="#bfbfbf" stroke="black" points="116.108,-130.5 116.108,-168.5 247.709,-168.5 247.709,-130.5 116.108,-130.5"/>
<text text-anchor="start" x="124.108" y="-156.5" font-family="Helvetica,sans-Serif" font-size="10.00">core/models/extern</text>
<text text-anchor="start" x="124.108" y="-146.5" font-family="Helvetica,sans-Serif" font-size="10.00">/LEON3/simulatorSources</text>
<text text-anchor="middle" x="181.909" y="-136.5" font-family="Helvetica,sans-Serif" font-size="10.00">/leon3.funcat.h</text>
</g>
<!-- Node2 -->
<g id="node2" class="node"><title>Node2</title>
<g id="a_node2"><a xlink:href="leon3processor_8h.html" target="_top" xlink:title="core/platforms/base\l/leon3processor.h">
<polygon fill="white" stroke="black" points="0,-65.5 0,-93.5 103.817,-93.5 103.817,-65.5 0,-65.5"/>
<text text-anchor="start" x="8" y="-81.5" font-family="Helvetica,sans-Serif" font-size="10.00">core/platforms/base</text>
<text text-anchor="middle" x="51.9087" y="-71.5" font-family="Helvetica,sans-Serif" font-size="10.00">/leon3processor.h</text>
</a>
</g>
</g>
<!-- Node1&#45;&gt;Node2 -->
<g id="edge1" class="edge"><title>Node1&#45;&gt;Node2</title>
<path fill="none" stroke="midnightblue" d="M138.312,-125.696C117.949,-115.044 94.4322,-102.743 77.0787,-93.6659"/>
<polygon fill="midnightblue" stroke="midnightblue" points="136.929,-128.922 147.412,-130.456 140.174,-122.719 136.929,-128.922"/>
</g>
<!-- Node3 -->
<g id="node3" class="node"><title>Node3</title>
<g id="a_node3"><a xlink:href="leon3mp_2sc__main_8cpp.html" target="_top" xlink:title="core/platforms/leon3mp\l/sc_main.cpp">
<polygon fill="white" stroke="black" points="121.663,-65.5 121.663,-93.5 242.155,-93.5 242.155,-65.5 121.663,-65.5"/>
<text text-anchor="start" x="129.663" y="-81.5" font-family="Helvetica,sans-Serif" font-size="10.00">core/platforms/leon3mp</text>
<text text-anchor="middle" x="181.909" y="-71.5" font-family="Helvetica,sans-Serif" font-size="10.00">/sc_main.cpp</text>
</a>
</g>
</g>
<!-- Node1&#45;&gt;Node3 -->
<g id="edge2" class="edge"><title>Node1&#45;&gt;Node3</title>
<path fill="none" stroke="midnightblue" d="M181.909,-120.013C181.909,-110.921 181.909,-101.289 181.909,-93.8104"/>
<polygon fill="midnightblue" stroke="midnightblue" points="178.409,-120.277 181.909,-130.277 185.409,-120.277 178.409,-120.277"/>
</g>
<!-- Node4 -->
<g id="node4" class="node"><title>Node4</title>
<g id="a_node4"><a xlink:href="leon3mp_8h.html" target="_top" xlink:title="core/platforms/newleon3mp\l/leon3mp.h">
<polygon fill="white" stroke="black" points="260.49,-65.5 260.49,-93.5 399.327,-93.5 399.327,-65.5 260.49,-65.5"/>
<text text-anchor="start" x="268.49" y="-81.5" font-family="Helvetica,sans-Serif" font-size="10.00">core/platforms/newleon3mp</text>
<text text-anchor="middle" x="329.909" y="-71.5" font-family="Helvetica,sans-Serif" font-size="10.00">/leon3mp.h</text>
</a>
</g>
</g>
<!-- Node1&#45;&gt;Node4 -->
<g id="edge3" class="edge"><title>Node1&#45;&gt;Node4</title>
<path fill="none" stroke="midnightblue" d="M230.292,-126.27C253.757,-115.489 281.141,-102.907 301.254,-93.6659"/>
<polygon fill="midnightblue" stroke="midnightblue" points="228.807,-123.1 221.181,-130.456 231.729,-129.461 228.807,-123.1"/>
</g>
<!-- Node5 -->
<g id="node5" class="node"><title>Node5</title>
<g id="a_node5"><a xlink:href="newleon3mp_2sc__main_8cpp.html" target="_top" xlink:title="core/platforms/newleon3mp\l/sc_main.cpp">
<polygon fill="white" stroke="black" points="260.49,-0.5 260.49,-28.5 399.327,-28.5 399.327,-0.5 260.49,-0.5"/>
<text text-anchor="start" x="268.49" y="-16.5" font-family="Helvetica,sans-Serif" font-size="10.00">core/platforms/newleon3mp</text>
<text text-anchor="middle" x="329.909" y="-6.5" font-family="Helvetica,sans-Serif" font-size="10.00">/sc_main.cpp</text>
</a>
</g>
</g>
<!-- Node4&#45;&gt;Node5 -->
<g id="edge4" class="edge"><title>Node4&#45;&gt;Node5</title>
<path fill="none" stroke="midnightblue" d="M329.909,-55.1641C329.909,-46.1693 329.909,-36.2205 329.909,-28.5369"/>
<polygon fill="midnightblue" stroke="midnightblue" points="326.409,-55.4463 329.909,-65.4464 333.409,-55.4464 326.409,-55.4463"/>
</g>
</g>
</svg>
