<?xml version="1.0" encoding="UTF-8" standalone="no"?>
<!DOCTYPE svg PUBLIC "-//W3C//DTD SVG 1.1//EN"
 "http://www.w3.org/Graphics/SVG/1.1/DTD/svg11.dtd">
<!-- Generated by graphviz version 2.26.0 (20091210.2329)
 -->
<!-- Title: core/models/extern/LEON3/simulatorSources/leon3.funcat/interface.cpp Pages: 1 -->
<!--zoomable 510 -->
<svg id="main" version="1.1" xmlns="http://www.w3.org/2000/svg" xmlns:xlink="http://www.w3.org/1999/xlink" xml:space="preserve" onload="init(evt)">
<style type="text/css"><![CDATA[
.edge:hover path { stroke: red; }
.edge:hover polygon { stroke: red; fill: red; }
]]></style>
<script type="text/javascript"><![CDATA[
var edges = document.getElementsByTagName('g');
if (edges && edges.length) {
  for (var i=0;i<edges.length;i++) {
    if (edges[i].id.substr(0,4)=='edge') {
      edges[i].setAttribute('class','edge');
    }
  }
}
]]></script>
        <defs>
                <circle id="rim" cx="0" cy="0" r="7"/>
                <circle id="rim2" cx="0" cy="0" r="3.5"/>
                <g id="zoomPlus">
                        <use xlink:href="#rim" fill="#404040">
                                <set attributeName="fill" to="#808080" begin="zoomplus.mouseover" end="zoomplus.mouseout"/>
                        </use>
                        <path d="M-4,0h8M0,-4v8" fill="none" stroke="white" stroke-width="1.5" pointer-events="none"/>
                </g>
                <g id="zoomMin">
                        <use xlink:href="#rim" fill="#404040">
                                <set attributeName="fill" to="#808080" begin="zoomminus.mouseover" end="zoomminus.mouseout"/>
                        </use>
                        <path d="M-4,0h8" fill="none" stroke="white" stroke-width="1.5" pointer-events="none"/>
                </g>
                <g id="dirArrow">
                        <path fill="none" stroke="white" stroke-width="1.5" d="M0,-3.0v7 M-2.5,-0.5L0,-3.0L2.5,-0.5"/>
                </g>
               <g id="resetDef">
                       <use xlink:href="#rim2" fill="#404040">
                               <set attributeName="fill" to="#808080" begin="reset.mouseover" end="reset.mouseout"/>
                       </use>
               </g>
        </defs>

<script type="text/javascript">
var viewWidth = 1030;
var viewHeight = 510;
var sectionId = 'dynsection-0';
</script>
<script xlink:href="svgpan.js"/>
<svg id="graph" class="graph">
<g id="viewport">
<title>core/models/extern/LEON3/simulatorSources/leon3.funcat/interface.cpp</title>
<polygon fill="white" stroke="white" points="-4,5 -4,-506 1027.12,-506 1027.12,5 -4,5"/>
<!-- Node1 -->
<g id="node1" class="node"><title>Node1</title>
<polygon fill="#bfbfbf" stroke="black" points="437.482,-454.5 437.482,-501.5 569.482,-501.5 569.482,-454.5 437.482,-454.5"/>
<text text-anchor="start" x="445.482" y="-488.5" font-family="Helvetica,sans-Serif" font-size="10.00">core/models/extern</text>
<text text-anchor="start" x="445.482" y="-475.5" font-family="Helvetica,sans-Serif" font-size="10.00">/LEON3/simulatorSources</text>
<text text-anchor="middle" x="503.482" y="-462.5" font-family="Helvetica,sans-Serif" font-size="10.00">/leon3.funcat/interface.cpp</text>
</g>
<!-- Node2 -->
<g id="node3" class="node"><title>Node2</title>
<a xlink:href="leon3_8funcat_2interface_8hpp.html" target="_top" xlink:title="core/models/extern\l/LEON3/simulatorSources\l/leon3.funcat/interface.hpp">
<polygon fill="white" stroke="black" points="437.482,-370.5 437.482,-417.5 569.482,-417.5 569.482,-370.5 437.482,-370.5"/>
<text text-anchor="start" x="445.482" y="-404.5" font-family="Helvetica,sans-Serif" font-size="10.00">core/models/extern</text>
<text text-anchor="start" x="445.482" y="-391.5" font-family="Helvetica,sans-Serif" font-size="10.00">/LEON3/simulatorSources</text>
<text text-anchor="middle" x="503.482" y="-378.5" font-family="Helvetica,sans-Serif" font-size="10.00">/leon3.funcat/interface.hpp</text>
</a>
</g>
<!-- Node1&#45;&gt;Node2 -->
<g id="edge2" class="edge"><title>Node1&#45;&gt;Node2</title>
<path fill="none" stroke="midnightblue" d="M503.482,-454.154C503.482,-445.926 503.482,-436.548 503.482,-427.684"/>
<polygon fill="midnightblue" stroke="midnightblue" points="506.982,-427.615 503.482,-417.615 499.982,-427.615 506.982,-427.615"/>
</g>
<!-- Node3 -->
<g id="node5" class="node"><title>Node3</title>
<a xlink:href="ABIIf_8hpp.html" target="_top" xlink:title="core/common/trapgen\l/ABIIf.hpp">
<polygon fill="white" stroke="black" points="112.982,-293 112.982,-327 223.982,-327 223.982,-293 112.982,-293"/>
<text text-anchor="start" x="120.982" y="-314" font-family="Helvetica,sans-Serif" font-size="10.00">core/common/trapgen</text>
<text text-anchor="middle" x="168.482" y="-301" font-family="Helvetica,sans-Serif" font-size="10.00">/ABIIf.hpp</text>
</a>
</g>
<!-- Node1&#45;&gt;Node3 -->
<g id="edge92" class="edge"><title>Node1&#45;&gt;Node3</title>
<path fill="none" stroke="midnightblue" d="M437.422,-468.964C369.484,-458.655 269.254,-440.304 237.482,-418 208.704,-397.798 189.163,-361.385 178.42,-336.472"/>
<polygon fill="midnightblue" stroke="midnightblue" points="181.654,-335.134 174.606,-327.224 175.183,-337.803 181.654,-335.134"/>
</g>
<!-- Node4 -->
<g id="node7" class="node"><title>Node4</title>
<polygon fill="white" stroke="#bfbfbf" points="234.482,-215.5 234.482,-236.5 278.482,-236.5 278.482,-215.5 234.482,-215.5"/>
<text text-anchor="middle" x="256.482" y="-223.5" font-family="Helvetica,sans-Serif" font-size="10.00">vector</text>
</g>
<!-- Node1&#45;&gt;Node4 -->
<g id="edge104" class="edge"><title>Node1&#45;&gt;Node4</title>
<path fill="none" stroke="midnightblue" d="M437.222,-455.946C382.718,-434.078 308.482,-394.926 270.482,-334 253.886,-307.392 252.918,-269.928 254.294,-246.844"/>
<polygon fill="midnightblue" stroke="midnightblue" points="257.79,-247.025 255.099,-236.778 250.813,-246.467 257.79,-247.025"/>
</g>
<!-- Node5 -->
<g id="node9" class="node"><title>Node5</title>
<polygon fill="white" stroke="#bfbfbf" points="16.4816,-215.5 16.4816,-236.5 140.482,-236.5 140.482,-215.5 16.4816,-215.5"/>
<text text-anchor="middle" x="78.4816" y="-223.5" font-family="Helvetica,sans-Serif" font-size="10.00">boost/circular_buffer.hpp</text>
</g>
<!-- Node1&#45;&gt;Node5 -->
<g id="edge100" class="edge"><title>Node1&#45;&gt;Node5</title>
<path fill="none" stroke="midnightblue" d="M437.345,-473.801C372.408,-467.745 271.702,-453.106 191.482,-418 133.825,-392.769 105.866,-390.172 77.4816,-334 63.4555,-306.243 68.0239,-269.119 72.98,-246.416"/>
<polygon fill="midnightblue" stroke="midnightblue" points="76.4211,-247.076 75.3644,-236.534 69.6164,-245.435 76.4211,-247.076"/>
</g>
<!-- Node6 -->
<g id="node11" class="node"><title>Node6</title>
<a xlink:href="instructionBase_8hpp.html" target="_top" xlink:title="core/common/trapgen\l/instructionBase.hpp">
<polygon fill="white" stroke="black" points="328.982,-131 328.982,-165 439.982,-165 439.982,-131 328.982,-131"/>
<text text-anchor="start" x="336.982" y="-152" font-family="Helvetica,sans-Serif" font-size="10.00">core/common/trapgen</text>
<text text-anchor="middle" x="384.482" y="-139" font-family="Helvetica,sans-Serif" font-size="10.00">/instructionBase.hpp</text>
</a>
</g>
<!-- Node1&#45;&gt;Node6 -->
<g id="edge102" class="edge"><title>Node1&#45;&gt;Node6</title>
<path fill="none" stroke="midnightblue" d="M545.834,-454.477C558.753,-444.973 571.403,-432.728 578.482,-418 587.723,-398.772 582.451,-390.961 578.482,-370 563.554,-291.179 568.497,-259.427 512.482,-202 502.35,-191.614 473.47,-179.062 445.701,-168.675"/>
<polygon fill="midnightblue" stroke="midnightblue" points="446.551,-165.259 435.957,-165.099 444.139,-171.831 446.551,-165.259"/>
</g>
<!-- Node9 -->
<g id="node17" class="node"><title>Node9</title>
<polygon fill="white" stroke="#bfbfbf" points="580.982,-0.5 580.982,-21.5 621.982,-21.5 621.982,-0.5 580.982,-0.5"/>
<text text-anchor="middle" x="601.482" y="-8.5" font-family="Helvetica,sans-Serif" font-size="10.00">string</text>
</g>
<!-- Node1&#45;&gt;Node9 -->
<g id="edge106" class="edge"><title>Node1&#45;&gt;Node9</title>
<path fill="none" stroke="midnightblue" d="M569.613,-470.648C709.259,-453.282 1021.48,-403.951 1021.48,-310 1021.48,-310 1021.48,-310 1021.48,-148 1021.48,-106.485 1027.99,-85.0335 996.482,-58 968.935,-34.3644 720.245,-17.852 632.202,-12.7033"/>
<polygon fill="midnightblue" stroke="midnightblue" points="632.237,-9.19952 622.052,-12.1186 631.834,-16.1879 632.237,-9.19952"/>
</g>
<!-- Node11 -->
<g id="node21" class="node"><title>Node11</title>
<a xlink:href="trap__utils_8hpp.html" target="_top" xlink:title="core/common/trapgen\l/utils/trap_utils.hpp">
<polygon fill="white" stroke="black" points="200.982,-131 200.982,-165 311.982,-165 311.982,-131 200.982,-131"/>
<text text-anchor="start" x="208.982" y="-152" font-family="Helvetica,sans-Serif" font-size="10.00">core/common/trapgen</text>
<text text-anchor="middle" x="256.482" y="-139" font-family="Helvetica,sans-Serif" font-size="10.00">/utils/trap_utils.hpp</text>
</a>
</g>
<!-- Node1&#45;&gt;Node11 -->
<g id="edge108" class="edge"><title>Node1&#45;&gt;Node11</title>
<path fill="none" stroke="midnightblue" d="M437.104,-475.337C336.373,-470.126 150.958,-455.603 97.4816,-418 28.1912,-369.277 28.1019,-332.158 7.48159,-250 2.28834,-229.308 -5.90972,-218.607 7.48159,-202 30.0823,-173.973 124.628,-159.754 190.479,-153.116"/>
<polygon fill="midnightblue" stroke="midnightblue" points="191.172,-156.566 200.786,-152.115 190.495,-149.599 191.172,-156.566"/>
</g>
<!-- Node17 -->
<g id="node39" class="node"><title>Node17</title>
<a xlink:href="leon3_8funcat_2memory_8hpp.html" target="_top" xlink:title="core/models/extern\l/LEON3/simulatorSources\l/leon3.funcat/memory.hpp">
<polygon fill="white" stroke="black" points="316.982,-286.5 316.982,-333.5 447.982,-333.5 447.982,-286.5 316.982,-286.5"/>
<text text-anchor="start" x="324.982" y="-320.5" font-family="Helvetica,sans-Serif" font-size="10.00">core/models/extern</text>
<text text-anchor="start" x="324.982" y="-307.5" font-family="Helvetica,sans-Serif" font-size="10.00">/LEON3/simulatorSources</text>
<text text-anchor="middle" x="382.482" y="-294.5" font-family="Helvetica,sans-Serif" font-size="10.00">/leon3.funcat/memory.hpp</text>
</a>
</g>
<!-- Node1&#45;&gt;Node17 -->
<g id="edge94" class="edge"><title>Node1&#45;&gt;Node17</title>
<path fill="none" stroke="midnightblue" d="M466.649,-454.269C453.312,-444.304 438.968,-431.812 428.482,-418 411.49,-395.619 399.458,-366.017 391.971,-343.465"/>
<polygon fill="midnightblue" stroke="midnightblue" points="395.216,-342.119 388.85,-333.65 388.546,-344.241 395.216,-342.119"/>
</g>
<!-- Node19 -->
<g id="node46" class="node"><title>Node19</title>
<a xlink:href="systemc_8h.html" target="_top" xlink:title="core/common/systemc.h">
<polygon fill="white" stroke="black" points="578.982,-215.5 578.982,-236.5 703.982,-236.5 703.982,-215.5 578.982,-215.5"/>
<text text-anchor="middle" x="641.482" y="-223.5" font-family="Helvetica,sans-Serif" font-size="10.00">core/common/systemc.h</text>
</a>
</g>
<!-- Node1&#45;&gt;Node19 -->
<g id="edge110" class="edge"><title>Node1&#45;&gt;Node19</title>
<path fill="none" stroke="midnightblue" d="M569.763,-465.746C596.765,-457.142 625.367,-442.579 641.482,-418 676.415,-364.72 659.185,-283.972 648.21,-246.472"/>
<polygon fill="midnightblue" stroke="midnightblue" points="651.489,-245.226 645.199,-236.7 644.799,-247.287 651.489,-245.226"/>
</g>
<!-- Node24 -->
<g id="node57" class="node"><title>Node24</title>
<a xlink:href="leon3_8funcat_2registers_8hpp.html" target="_top" xlink:title="core/models/extern\l/LEON3/simulatorSources\l/leon3.funcat/registers.hpp">
<polygon fill="white" stroke="black" points="777.482,-202.5 777.482,-249.5 909.482,-249.5 909.482,-202.5 777.482,-202.5"/>
<text text-anchor="start" x="785.482" y="-236.5" font-family="Helvetica,sans-Serif" font-size="10.00">core/models/extern</text>
<text text-anchor="start" x="785.482" y="-223.5" font-family="Helvetica,sans-Serif" font-size="10.00">/LEON3/simulatorSources</text>
<text text-anchor="middle" x="843.482" y="-210.5" font-family="Helvetica,sans-Serif" font-size="10.00">/leon3.funcat/registers.hpp</text>
</a>
</g>
<!-- Node1&#45;&gt;Node24 -->
<g id="edge96" class="edge"><title>Node1&#45;&gt;Node24</title>
<path fill="none" stroke="midnightblue" d="M569.686,-461.897C600.139,-452.388 635.604,-438.177 663.482,-418 724.434,-373.886 716.404,-339.329 769.482,-286 779.809,-275.624 791.842,-265.249 803.166,-256.117"/>
<polygon fill="midnightblue" stroke="midnightblue" points="805.592,-258.66 811.252,-249.704 801.242,-253.176 805.592,-258.66"/>
</g>
<!-- Node25 -->
<g id="node61" class="node"><title>Node25</title>
<a xlink:href="leon3_8funcat_2alias_8hpp.html" target="_top" xlink:title="core/models/extern\l/LEON3/simulatorSources\l/leon3.funcat/alias.hpp">
<polygon fill="white" stroke="black" points="777.982,-286.5 777.982,-333.5 908.982,-333.5 908.982,-286.5 777.982,-286.5"/>
<text text-anchor="start" x="785.982" y="-320.5" font-family="Helvetica,sans-Serif" font-size="10.00">core/models/extern</text>
<text text-anchor="start" x="785.982" y="-307.5" font-family="Helvetica,sans-Serif" font-size="10.00">/LEON3/simulatorSources</text>
<text text-anchor="middle" x="843.482" y="-294.5" font-family="Helvetica,sans-Serif" font-size="10.00">/leon3.funcat/alias.hpp</text>
</a>
</g>
<!-- Node1&#45;&gt;Node25 -->
<g id="edge98" class="edge"><title>Node1&#45;&gt;Node25</title>
<path fill="none" stroke="midnightblue" d="M569.623,-467.978C635.466,-457.073 731.109,-438.441 762.482,-418 791.038,-399.394 813.289,-367.076 827.183,-342.629"/>
<polygon fill="midnightblue" stroke="midnightblue" points="830.347,-344.139 832.095,-333.689 824.212,-340.768 830.347,-344.139"/>
</g>
<!-- Node2&#45;&gt;Node3 -->
<g id="edge4" class="edge"><title>Node2&#45;&gt;Node3</title>
<path fill="none" stroke="midnightblue" d="M437.296,-377.404C378.353,-362.625 292.598,-341.122 233.892,-326.401"/>
<polygon fill="midnightblue" stroke="midnightblue" points="234.536,-322.955 223.985,-323.917 232.833,-329.744 234.536,-322.955"/>
</g>
<!-- Node2&#45;&gt;Node4 -->
<g id="edge84" class="edge"><title>Node2&#45;&gt;Node4</title>
<path fill="none" stroke="midnightblue" d="M437.35,-387.194C396.208,-379.937 344.467,-364.949 308.482,-334 281.664,-310.936 267.535,-270.89 261.067,-246.579"/>
<polygon fill="midnightblue" stroke="midnightblue" points="264.407,-245.506 258.616,-236.634 257.61,-247.181 264.407,-245.506"/>
</g>
<!-- Node2&#45;&gt;Node5 -->
<g id="edge80" class="edge"><title>Node2&#45;&gt;Node5</title>
<path fill="none" stroke="midnightblue" d="M437.41,-388.096C330.396,-377.943 128.623,-356.128 104.482,-334 80.317,-311.851 76.7789,-271.505 77.1299,-246.889"/>
<polygon fill="midnightblue" stroke="midnightblue" points="80.6306,-246.931 77.5047,-236.808 73.6355,-246.671 80.6306,-246.931"/>
</g>
<!-- Node2&#45;&gt;Node6 -->
<g id="edge82" class="edge"><title>Node2&#45;&gt;Node6</title>
<path fill="none" stroke="midnightblue" d="M508.605,-370.415C515.625,-331.712 523.772,-253.852 489.482,-202 479.84,-187.421 464.974,-176.564 449.431,-168.565"/>
<polygon fill="midnightblue" stroke="midnightblue" points="450.769,-165.326 440.237,-164.18 447.756,-171.644 450.769,-165.326"/>
</g>
<!-- Node2&#45;&gt;Node9 -->
<g id="edge86" class="edge"><title>Node2&#45;&gt;Node9</title>
<path fill="none" stroke="midnightblue" d="M530.278,-370.403C565.339,-339.595 622.994,-289.185 628.482,-286 670.059,-261.866 691.361,-277.941 730.482,-250 752.623,-234.185 745.968,-217.28 768.482,-202 814.553,-170.73 855.244,-210.673 888.482,-166 959.628,-70.377 719.794,-27.2174 632.236,-14.8904"/>
<polygon fill="midnightblue" stroke="midnightblue" points="632.491,-11.3927 622.109,-13.5072 631.543,-18.3283 632.491,-11.3927"/>
</g>
<!-- Node2&#45;&gt;Node11 -->
<g id="edge88" class="edge"><title>Node2&#45;&gt;Node11</title>
<path fill="none" stroke="midnightblue" d="M504.418,-370.295C504.656,-329.989 499.052,-248.009 453.482,-202 412.576,-160.7 382.681,-180.047 322.282,-166.252"/>
<polygon fill="midnightblue" stroke="midnightblue" points="322.873,-162.792 312.32,-163.739 321.16,-169.579 322.873,-162.792"/>
</g>
<!-- Node2&#45;&gt;Node17 -->
<g id="edge44" class="edge"><title>Node2&#45;&gt;Node17</title>
<path fill="none" stroke="midnightblue" d="M469.454,-370.378C455.664,-360.805 439.589,-349.645 425.036,-339.542"/>
<polygon fill="midnightblue" stroke="midnightblue" points="426.883,-336.564 416.673,-333.736 422.891,-342.314 426.883,-336.564"/>
</g>
<!-- Node2&#45;&gt;Node19 -->
<g id="edge90" class="edge"><title>Node2&#45;&gt;Node19</title>
<path fill="none" stroke="midnightblue" d="M517.104,-370.07C530.555,-347.363 552.407,-312.819 575.482,-286 589.031,-270.252 606.505,-254.532 620.069,-243.135"/>
<polygon fill="midnightblue" stroke="midnightblue" points="622.456,-245.702 627.939,-236.636 617.999,-240.305 622.456,-245.702"/>
</g>
<!-- Node2&#45;&gt;Node24 -->
<g id="edge66" class="edge"><title>Node2&#45;&gt;Node24</title>
<path fill="none" stroke="midnightblue" d="M551.115,-370.463C612.993,-339.889 720.883,-286.578 786.873,-253.972"/>
<polygon fill="midnightblue" stroke="midnightblue" points="788.482,-257.08 795.897,-249.513 785.381,-250.805 788.482,-257.08"/>
</g>
<!-- Node2&#45;&gt;Node25 -->
<g id="edge72" class="edge"><title>Node2&#45;&gt;Node25</title>
<path fill="none" stroke="midnightblue" d="M569.844,-377.605C626.659,-363.568 708.449,-343.361 767.799,-328.698"/>
<polygon fill="midnightblue" stroke="midnightblue" points="768.996,-332.008 777.865,-326.211 767.317,-325.212 768.996,-332.008"/>
</g>
<!-- Node3&#45;&gt;Node4 -->
<g id="edge6" class="edge"><title>Node3&#45;&gt;Node4</title>
<path fill="none" stroke="midnightblue" d="M186.715,-292.595C201.72,-278.273 222.897,-258.058 237.976,-243.665"/>
<polygon fill="midnightblue" stroke="midnightblue" points="240.423,-246.167 245.24,-236.731 235.59,-241.104 240.423,-246.167"/>
</g>
<!-- Node3&#45;&gt;Node5 -->
<g id="edge8" class="edge"><title>Node3&#45;&gt;Node5</title>
<path fill="none" stroke="midnightblue" d="M149.834,-292.595C134.488,-278.273 112.83,-258.058 97.4081,-243.665"/>
<polygon fill="midnightblue" stroke="midnightblue" points="99.6774,-240.995 89.9787,-236.731 94.9012,-246.113 99.6774,-240.995"/>
</g>
<!-- Node3&#45;&gt;Node6 -->
<g id="edge10" class="edge"><title>Node3&#45;&gt;Node6</title>
<path fill="none" stroke="midnightblue" d="M175.76,-292.623C187.439,-265.461 210.562,-214.728 225.482,-202 233.13,-195.475 278.7,-180.304 319.105,-167.698"/>
<polygon fill="midnightblue" stroke="midnightblue" points="320.186,-171.027 328.7,-164.721 318.112,-164.341 320.186,-171.027"/>
</g>
<!-- Node3&#45;&gt;Node11 -->
<g id="edge20" class="edge"><title>Node3&#45;&gt;Node11</title>
<path fill="none" stroke="midnightblue" d="M168.964,-292.657C170.307,-270.209 175.175,-230.591 192.482,-202 199.62,-190.206 210.252,-179.74 220.809,-171.237"/>
<polygon fill="midnightblue" stroke="midnightblue" points="222.986,-173.978 228.809,-165.127 218.737,-168.415 222.986,-173.978"/>
</g>
<!-- Node7 -->
<g id="node13" class="node"><title>Node7</title>
<polygon fill="white" stroke="#bfbfbf" points="935.482,-65.5 935.482,-86.5 987.482,-86.5 987.482,-65.5 935.482,-65.5"/>
<text text-anchor="middle" x="961.482" y="-73.5" font-family="Helvetica,sans-Serif" font-size="10.00">ostream</text>
</g>
<!-- Node6&#45;&gt;Node7 -->
<g id="edge12" class="edge"><title>Node6&#45;&gt;Node7</title>
<path fill="none" stroke="midnightblue" d="M440.197,-131.731C442.988,-131.104 445.761,-130.522 448.482,-130 625.392,-96.0642 841.007,-82.1191 925.284,-77.7011"/>
<polygon fill="midnightblue" stroke="midnightblue" points="925.555,-81.1919 935.363,-77.1857 925.198,-74.201 925.555,-81.1919"/>
</g>
<!-- Node8 -->
<g id="node15" class="node"><title>Node8</title>
<polygon fill="white" stroke="#bfbfbf" points="389.482,-65.5 389.482,-86.5 441.482,-86.5 441.482,-65.5 389.482,-65.5"/>
<text text-anchor="middle" x="415.482" y="-73.5" font-family="Helvetica,sans-Serif" font-size="10.00">sstream</text>
</g>
<!-- Node6&#45;&gt;Node8 -->
<g id="edge14" class="edge"><title>Node6&#45;&gt;Node8</title>
<path fill="none" stroke="midnightblue" d="M391.828,-130.937C396.324,-120.494 402.1,-107.079 406.819,-96.1197"/>
<polygon fill="midnightblue" stroke="midnightblue" points="410.048,-97.47 410.788,-86.901 403.619,-94.7017 410.048,-97.47"/>
</g>
<!-- Node6&#45;&gt;Node9 -->
<g id="edge16" class="edge"><title>Node6&#45;&gt;Node9</title>
<path fill="none" stroke="midnightblue" d="M440.319,-132.254C443.078,-131.489 445.811,-130.734 448.482,-130 507.942,-113.652 539.7,-138.414 582.482,-94 598.353,-77.5237 601.978,-50.6358 602.364,-31.9457"/>
<polygon fill="midnightblue" stroke="midnightblue" points="605.862,-31.7508 602.275,-21.7817 598.863,-31.8118 605.862,-31.7508"/>
</g>
<!-- Node10 -->
<g id="node19" class="node"><title>Node10</title>
<polygon fill="white" stroke="#bfbfbf" points="459.482,-65.5 459.482,-86.5 573.482,-86.5 573.482,-65.5 459.482,-65.5"/>
<text text-anchor="middle" x="516.482" y="-73.5" font-family="Helvetica,sans-Serif" font-size="10.00">boost/lexical_cast.hpp</text>
</g>
<!-- Node6&#45;&gt;Node10 -->
<g id="edge18" class="edge"><title>Node6&#45;&gt;Node10</title>
<path fill="none" stroke="midnightblue" d="M415.764,-130.937C437.679,-118.983 466.735,-103.135 488.004,-91.5331"/>
<polygon fill="midnightblue" stroke="midnightblue" points="489.784,-94.5493 496.887,-86.688 486.432,-88.404 489.784,-94.5493"/>
</g>
<!-- Node11&#45;&gt;Node8 -->
<g id="edge26" class="edge"><title>Node11&#45;&gt;Node8</title>
<path fill="none" stroke="midnightblue" d="M294.162,-130.937C321.034,-118.769 356.817,-102.565 382.549,-90.913"/>
<polygon fill="midnightblue" stroke="midnightblue" points="384.213,-94.0015 391.879,-86.688 381.325,-87.6248 384.213,-94.0015"/>
</g>
<!-- Node11&#45;&gt;Node9 -->
<g id="edge30" class="edge"><title>Node11&#45;&gt;Node9</title>
<path fill="none" stroke="midnightblue" d="M277.977,-130.707C307.352,-107.377 358.852,-67.6252 380.482,-58 444.546,-29.4912 526.9,-17.8797 570.763,-13.4681"/>
<polygon fill="midnightblue" stroke="midnightblue" points="571.17,-16.9453 580.796,-12.5183 570.51,-9.97644 571.17,-16.9453"/>
</g>
<!-- Node12 -->
<g id="node23" class="node"><title>Node12</title>
<polygon fill="white" stroke="#bfbfbf" points="191.982,-0.5 191.982,-21.5 250.982,-21.5 250.982,-0.5 191.982,-0.5"/>
<text text-anchor="middle" x="221.482" y="-8.5" font-family="Helvetica,sans-Serif" font-size="10.00">exception</text>
</g>
<!-- Node11&#45;&gt;Node12 -->
<g id="edge22" class="edge"><title>Node11&#45;&gt;Node12</title>
<path fill="none" stroke="midnightblue" d="M200.879,-134.276C180.108,-126.158 158.632,-113.501 146.482,-94 138.02,-80.4204 138.734,-71.9989 146.482,-58 154.417,-43.6627 168.755,-33.1145 182.786,-25.6865"/>
<polygon fill="midnightblue" stroke="midnightblue" points="184.436,-28.7758 191.891,-21.2473 181.368,-22.4838 184.436,-28.7758"/>
</g>
<!-- Node13 -->
<g id="node25" class="node"><title>Node13</title>
<polygon fill="white" stroke="#bfbfbf" points="284.482,-0.5 284.482,-21.5 338.482,-21.5 338.482,-0.5 284.482,-0.5"/>
<text text-anchor="middle" x="311.482" y="-8.5" font-family="Helvetica,sans-Serif" font-size="10.00">iostream</text>
</g>
<!-- Node11&#45;&gt;Node13 -->
<g id="edge24" class="edge"><title>Node11&#45;&gt;Node13</title>
<path fill="none" stroke="midnightblue" d="M277.207,-130.662C287.262,-120.986 298.446,-108.063 304.482,-94 312.996,-74.1602 313.96,-49.2319 313.285,-31.898"/>
<polygon fill="midnightblue" stroke="midnightblue" points="316.767,-31.5029 312.667,-21.7336 309.78,-31.9276 316.767,-31.5029"/>
</g>
<!-- Node14 -->
<g id="node28" class="node"><title>Node14</title>
<polygon fill="white" stroke="#bfbfbf" points="108.982,-0.5 108.982,-21.5 167.982,-21.5 167.982,-0.5 108.982,-0.5"/>
<text text-anchor="middle" x="138.482" y="-8.5" font-family="Helvetica,sans-Serif" font-size="10.00">stdexcept</text>
</g>
<!-- Node11&#45;&gt;Node14 -->
<g id="edge28" class="edge"><title>Node11&#45;&gt;Node14</title>
<path fill="none" stroke="midnightblue" d="M200.844,-137.399C176.437,-129.686 150.068,-116.482 135.482,-94 123.467,-75.4812 126.895,-49.4284 131.593,-31.4754"/>
<polygon fill="midnightblue" stroke="midnightblue" points="134.998,-32.3035 134.476,-21.7215 128.285,-30.3189 134.998,-32.3035"/>
</g>
<!-- Node15 -->
<g id="node31" class="node"><title>Node15</title>
<a xlink:href="customExceptions_8hpp.html" target="_top" xlink:title="core/common/trapgen\l/utils/customExceptions.hpp">
<polygon fill="white" stroke="black" points="155.482,-59 155.482,-93 295.482,-93 295.482,-59 155.482,-59"/>
<text text-anchor="start" x="163.482" y="-80" font-family="Helvetica,sans-Serif" font-size="10.00">core/common/trapgen</text>
<text text-anchor="middle" x="225.482" y="-67" font-family="Helvetica,sans-Serif" font-size="10.00">/utils/customExceptions.hpp</text>
</a>
</g>
<!-- Node11&#45;&gt;Node15 -->
<g id="edge32" class="edge"><title>Node11&#45;&gt;Node15</title>
<path fill="none" stroke="midnightblue" d="M249.135,-130.937C245.521,-122.542 241.079,-112.227 237.025,-102.81"/>
<polygon fill="midnightblue" stroke="midnightblue" points="240.16,-101.241 232.991,-93.4407 233.731,-104.01 240.16,-101.241"/>
</g>
<!-- Node15&#45;&gt;Node9 -->
<g id="edge42" class="edge"><title>Node15&#45;&gt;Node9</title>
<path fill="none" stroke="midnightblue" d="M295.763,-63.8502C378.175,-49.6035 511.087,-26.6268 570.755,-16.3118"/>
<polygon fill="midnightblue" stroke="midnightblue" points="571.426,-19.7478 580.684,-14.5954 570.234,-12.8501 571.426,-19.7478"/>
</g>
<!-- Node15&#45;&gt;Node12 -->
<g id="edge36" class="edge"><title>Node15&#45;&gt;Node12</title>
<path fill="none" stroke="midnightblue" d="M224.431,-58.922C223.923,-50.6704 223.309,-40.6922 222.773,-31.9818"/>
<polygon fill="midnightblue" stroke="midnightblue" points="226.257,-31.6182 222.149,-21.8521 219.27,-32.0482 226.257,-31.6182"/>
</g>
<!-- Node15&#45;&gt;Node13 -->
<g id="edge38" class="edge"><title>Node15&#45;&gt;Node13</title>
<path fill="none" stroke="midnightblue" d="M248.077,-58.922C260.774,-49.3257 276.56,-37.3942 289.204,-27.8374"/>
<polygon fill="midnightblue" stroke="midnightblue" points="291.512,-30.4802 297.38,-21.6584 287.292,-24.8959 291.512,-30.4802"/>
</g>
<!-- Node15&#45;&gt;Node14 -->
<g id="edge40" class="edge"><title>Node15&#45;&gt;Node14</title>
<path fill="none" stroke="midnightblue" d="M202.623,-58.922C189.779,-49.3257 173.809,-37.3942 161.018,-27.8374"/>
<polygon fill="midnightblue" stroke="midnightblue" points="162.853,-24.8398 152.747,-21.6584 158.664,-30.4475 162.853,-24.8398"/>
</g>
<!-- Node16 -->
<g id="node33" class="node"><title>Node16</title>
<polygon fill="white" stroke="#bfbfbf" points="32.9816,-0.5 32.9816,-21.5 77.9816,-21.5 77.9816,-0.5 32.9816,-0.5"/>
<text text-anchor="middle" x="55.4816" y="-8.5" font-family="Helvetica,sans-Serif" font-size="10.00">cstdlib</text>
</g>
<!-- Node15&#45;&gt;Node16 -->
<g id="edge34" class="edge"><title>Node15&#45;&gt;Node16</title>
<path fill="none" stroke="midnightblue" d="M180.816,-58.922C151.506,-47.7154 113.867,-33.324 87.5176,-23.249"/>
<polygon fill="midnightblue" stroke="midnightblue" points="88.6029,-19.917 78.0124,-19.6147 86.1029,-26.4553 88.6029,-19.917"/>
</g>
<!-- Node17&#45;&gt;Node11 -->
<g id="edge52" class="edge"><title>Node17&#45;&gt;Node11</title>
<path fill="none" stroke="midnightblue" d="M358.238,-286.308C347.736,-275.592 335.566,-262.54 325.482,-250 305.641,-225.328 285.666,-195.068 272.351,-173.941"/>
<polygon fill="midnightblue" stroke="midnightblue" points="275.164,-171.839 266.899,-165.21 269.227,-175.546 275.164,-171.839"/>
</g>
<!-- Node18 -->
<g id="node41" class="node"><title>Node18</title>
<a xlink:href="ToolsIf_8hpp.html" target="_top" xlink:title="core/common/trapgen\l/ToolsIf.hpp">
<polygon fill="white" stroke="black" points="333.982,-209 333.982,-243 444.982,-243 444.982,-209 333.982,-209"/>
<text text-anchor="start" x="341.982" y="-230" font-family="Helvetica,sans-Serif" font-size="10.00">core/common/trapgen</text>
<text text-anchor="middle" x="389.482" y="-217" font-family="Helvetica,sans-Serif" font-size="10.00">/ToolsIf.hpp</text>
</a>
</g>
<!-- Node17&#45;&gt;Node18 -->
<g id="edge46" class="edge"><title>Node17&#45;&gt;Node18</title>
<path fill="none" stroke="midnightblue" d="M384.469,-286.154C385.324,-275.895 386.328,-263.847 387.212,-253.239"/>
<polygon fill="midnightblue" stroke="midnightblue" points="390.703,-253.486 388.046,-243.23 383.727,-252.905 390.703,-253.486"/>
</g>
<!-- Node17&#45;&gt;Node19 -->
<g id="edge54" class="edge"><title>Node17&#45;&gt;Node19</title>
<path fill="none" stroke="midnightblue" d="M448.173,-288.695C495.662,-273.293 558.412,-252.941 599.344,-239.666"/>
<polygon fill="midnightblue" stroke="midnightblue" points="600.571,-242.948 609.003,-236.534 598.411,-236.289 600.571,-242.948"/>
</g>
<!-- Node18&#45;&gt;Node6 -->
<g id="edge48" class="edge"><title>Node18&#45;&gt;Node6</title>
<path fill="none" stroke="midnightblue" d="M388.372,-208.689C387.744,-198.894 386.945,-186.422 386.234,-175.335"/>
<polygon fill="midnightblue" stroke="midnightblue" points="389.721,-175.018 385.588,-165.262 382.735,-175.466 389.721,-175.018"/>
</g>
<!-- Node18&#45;&gt;Node16 -->
<g id="edge50" class="edge"><title>Node18&#45;&gt;Node16</title>
<path fill="none" stroke="midnightblue" d="M333.686,-212.333C284.237,-199.623 216.291,-180.518 192.482,-166 134.711,-130.774 87.7708,-63.4461 67.0095,-30.346"/>
<polygon fill="midnightblue" stroke="midnightblue" points="69.8582,-28.2966 61.6414,-21.6082 63.8939,-31.9608 69.8582,-28.2966"/>
</g>
<!-- Node19&#45;&gt;Node19 -->
<g id="edge56" class="edge"><title>Node19&#45;&gt;Node19</title>
<path fill="none" stroke="midnightblue" d="M664.004,-236.618C690.537,-244.393 721.482,-240.854 721.482,-226 721.482,-212.945 697.577,-208.63 673.774,-213.055"/>
<polygon fill="midnightblue" stroke="midnightblue" points="672.921,-209.661 664.004,-215.382 674.543,-216.47 672.921,-209.661"/>
</g>
<!-- Node20 -->
<g id="node49" class="node"><title>Node20</title>
<polygon fill="white" stroke="#bfbfbf" points="457.482,-137.5 457.482,-158.5 495.482,-158.5 495.482,-137.5 457.482,-137.5"/>
<text text-anchor="middle" x="476.482" y="-145.5" font-family="Helvetica,sans-Serif" font-size="10.00">tlm.h</text>
</g>
<!-- Node19&#45;&gt;Node20 -->
<g id="edge58" class="edge"><title>Node19&#45;&gt;Node20</title>
<path fill="none" stroke="midnightblue" d="M613.845,-215.4C585.737,-204.274 541.212,-185.689 504.482,-166 503.176,-165.3 501.852,-164.56 500.525,-163.795"/>
<polygon fill="midnightblue" stroke="midnightblue" points="502.274,-160.762 491.915,-158.54 498.627,-166.737 502.274,-160.762"/>
</g>
<!-- Node21 -->
<g id="node51" class="node"><title>Node21</title>
<polygon fill="white" stroke="#bfbfbf" points="512.982,-131 512.982,-165 627.982,-165 627.982,-131 512.982,-131"/>
<text text-anchor="start" x="520.982" y="-152" font-family="Helvetica,sans-Serif" font-size="10.00">tlm_utils/simple_target</text>
<text text-anchor="middle" x="570.482" y="-139" font-family="Helvetica,sans-Serif" font-size="10.00">_socket.h</text>
</g>
<!-- Node19&#45;&gt;Node21 -->
<g id="edge60" class="edge"><title>Node19&#45;&gt;Node21</title>
<path fill="none" stroke="midnightblue" d="M631.906,-215.481C622.006,-204.604 606.19,-187.229 593.087,-172.834"/>
<polygon fill="midnightblue" stroke="midnightblue" points="595.461,-170.243 586.141,-165.203 590.284,-174.955 595.461,-170.243"/>
</g>
<!-- Node22 -->
<g id="node53" class="node"><title>Node22</title>
<polygon fill="white" stroke="#bfbfbf" points="645.482,-131 645.482,-165 767.482,-165 767.482,-131 645.482,-131"/>
<text text-anchor="start" x="653.482" y="-152" font-family="Helvetica,sans-Serif" font-size="10.00">tlm_utils/simple_initiator</text>
<text text-anchor="middle" x="706.482" y="-139" font-family="Helvetica,sans-Serif" font-size="10.00">_socket.h</text>
</g>
<!-- Node19&#45;&gt;Node22 -->
<g id="edge62" class="edge"><title>Node19&#45;&gt;Node22</title>
<path fill="none" stroke="midnightblue" d="M650.248,-215.481C659.228,-204.705 673.523,-187.55 685.453,-173.235"/>
<polygon fill="midnightblue" stroke="midnightblue" points="688.432,-175.126 692.145,-165.203 683.055,-170.645 688.432,-175.126"/>
</g>
<!-- Node23 -->
<g id="node55" class="node"><title>Node23</title>
<polygon fill="white" stroke="#bfbfbf" points="784.982,-131 784.982,-165 879.982,-165 879.982,-131 784.982,-131"/>
<text text-anchor="start" x="792.982" y="-152" font-family="Helvetica,sans-Serif" font-size="10.00">tlm_utils/peq_with</text>
<text text-anchor="middle" x="832.482" y="-139" font-family="Helvetica,sans-Serif" font-size="10.00">_get.h</text>
</g>
<!-- Node19&#45;&gt;Node23 -->
<g id="edge64" class="edge"><title>Node19&#45;&gt;Node23</title>
<path fill="none" stroke="midnightblue" d="M667.241,-215.481C696.311,-203.609 744.338,-183.996 781.142,-168.966"/>
<polygon fill="midnightblue" stroke="midnightblue" points="782.784,-172.076 790.719,-165.055 780.138,-165.595 782.784,-172.076"/>
</g>
<!-- Node24&#45;&gt;Node7 -->
<g id="edge68" class="edge"><title>Node24&#45;&gt;Node7</title>
<path fill="none" stroke="midnightblue" d="M881.702,-202.43C895.561,-192.484 910.494,-179.964 921.482,-166 938.164,-144.798 949.477,-115.543 955.703,-96.2155"/>
<polygon fill="midnightblue" stroke="midnightblue" points="959.062,-97.2001 958.64,-86.6137 952.368,-95.1526 959.062,-97.2001"/>
</g>
<!-- Node24&#45;&gt;Node11 -->
<g id="edge70" class="edge"><title>Node24&#45;&gt;Node11</title>
<path fill="none" stroke="midnightblue" d="M777.402,-210.557C762.063,-207.365 745.755,-204.284 730.482,-202 552.838,-175.437 502.24,-198.057 322.253,-166.145"/>
<polygon fill="midnightblue" stroke="midnightblue" points="322.648,-162.66 312.186,-164.327 321.405,-169.548 322.648,-162.66"/>
</g>
<!-- Node25&#45;&gt;Node7 -->
<g id="edge76" class="edge"><title>Node25&#45;&gt;Node7</title>
<path fill="none" stroke="midnightblue" d="M909.111,-292.781C930.53,-283.709 951.998,-270.125 964.482,-250 994.23,-202.044 978.971,-131.438 968.545,-96.7637"/>
<polygon fill="midnightblue" stroke="midnightblue" points="971.756,-95.3134 965.393,-86.8427 965.085,-97.433 971.756,-95.3134"/>
</g>
<!-- Node25&#45;&gt;Node24 -->
<g id="edge74" class="edge"><title>Node25&#45;&gt;Node24</title>
<path fill="none" stroke="midnightblue" d="M843.482,-286.154C843.482,-277.926 843.482,-268.548 843.482,-259.684"/>
<polygon fill="midnightblue" stroke="midnightblue" points="846.982,-259.615 843.482,-249.615 839.982,-259.615 846.982,-259.615"/>
</g>
<!-- Node26 -->
<g id="node65" class="node"><title>Node26</title>
<polygon fill="white" stroke="#bfbfbf" points="926.982,-215.5 926.982,-236.5 955.982,-236.5 955.982,-215.5 926.982,-215.5"/>
<text text-anchor="middle" x="941.482" y="-223.5" font-family="Helvetica,sans-Serif" font-size="10.00">list</text>
</g>
<!-- Node25&#45;&gt;Node26 -->
<g id="edge78" class="edge"><title>Node25&#45;&gt;Node26</title>
<path fill="none" stroke="midnightblue" d="M874.894,-286.367C888.621,-275.662 904.699,-262.603 918.482,-250 920.494,-248.16 922.547,-246.181 924.557,-244.178"/>
<polygon fill="midnightblue" stroke="midnightblue" points="927.48,-246.192 931.92,-236.572 922.45,-241.323 927.48,-246.192"/>
</g>
</g>
</svg>
        <g id="navigator" transform="translate(0 0)" fill="#404254">
                <rect fill="#f2f5e9" fill-opacity="0.5" stroke="#606060" stroke-width=".5" x="0" y="0" width="60" height="60"/>
                <use id="zoomplus" xlink:href="#zoomPlus" x="17" y="9" onmousedown="handleZoom(evt,'in')"/>
                <use id="zoomminus" xlink:href="#zoomMin" x="42" y="9" onmousedown="handleZoom(evt,'out')"/>
                <use id="reset" xlink:href="#resetDef" x="30" y="36" onmousedown="handleReset()"/>
                <g id="arrowUp" xlink:href="#dirArrow" transform="translate(30 24)" onmousedown="handlePan(0,-1)">
                  <use xlink:href="#rim" fill="#404040">
                        <set attributeName="fill" to="#808080" begin="arrowUp.mouseover" end="arrowUp.mouseout"/>
                  </use>
                  <path fill="none" stroke="white" stroke-width="1.5" d="M0,-3.0v7 M-2.5,-0.5L0,-3.0L2.5,-0.5"/>
                </g>
                <g id="arrowRight" xlink:href="#dirArrow" transform="rotate(90) translate(36 -43)" onmousedown="handlePan(1,0)">
                  <use xlink:href="#rim" fill="#404040">
                        <set attributeName="fill" to="#808080" begin="arrowRight.mouseover" end="arrowRight.mouseout"/>
                  </use>
                  <path fill="none" stroke="white" stroke-width="1.5" d="M0,-3.0v7 M-2.5,-0.5L0,-3.0L2.5,-0.5"/>
                </g>
                <g id="arrowDown" xlink:href="#dirArrow" transform="rotate(180) translate(-30 -48)" onmousedown="handlePan(0,1)">
                  <use xlink:href="#rim" fill="#404040">
                        <set attributeName="fill" to="#808080" begin="arrowDown.mouseover" end="arrowDown.mouseout"/>
                  </use>
                  <path fill="none" stroke="white" stroke-width="1.5" d="M0,-3.0v7 M-2.5,-0.5L0,-3.0L2.5,-0.5"/>
                </g>
                <g id="arrowLeft" xlink:href="#dirArrow" transform="rotate(270) translate(-36 17)" onmousedown="handlePan(-1,0)">
                  <use xlink:href="#rim" fill="#404040">
                        <set attributeName="fill" to="#808080" begin="arrowLeft.mouseover" end="arrowLeft.mouseout"/>
                  </use>
                  <path fill="none" stroke="white" stroke-width="1.5" d="M0,-3.0v7 M-2.5,-0.5L0,-3.0L2.5,-0.5"/>
                </g>
        </g>
        <svg viewBox="0 0 15 15" width="100%" height="30px" preserveAspectRatio="xMaxYMin meet">
         <g id="arrow_out" transform="scale(0.3 0.3)">
          <a xlink:href="leon3_8funcat_2interface_8cpp__incl_org.svg" target="_base">
           <rect id="button" ry="5" rx="5" y="6" x="6" height="38" width="38"
                fill="#f2f5e9" fill-opacity="0.5" stroke="#606060" stroke-width="1.0"/>
           <path id="arrow"
             d="M 11.500037,31.436501 C 11.940474,20.09759 22.043105,11.32322 32.158766,21.979434 L 37.068811,17.246167 C 37.068811,17.246167 37.088388,32 37.088388,32 L 22.160133,31.978069 C 22.160133,31.978069 26.997745,27.140456 26.997745,27.140456 C 18.528582,18.264221 13.291696,25.230495 11.500037,31.436501 z"
             style="fill:#404040;"/>
          </a>
         </g>
        </svg>
</svg>
