<?xml version="1.0" encoding="UTF-8" standalone="no"?>
<!DOCTYPE svg PUBLIC "-//W3C//DTD SVG 1.1//EN"
 "http://www.w3.org/Graphics/SVG/1.1/DTD/svg11.dtd">
<!-- Generated by graphviz version 2.26.0 (20091210.2329)
 -->
<!-- Title: core/models/memory/mapstorage.cpp Pages: 1 -->
<svg width="431pt" height="318pt"
 viewBox="0.00 0.00 431.00 318.00" xmlns="http://www.w3.org/2000/svg" xmlns:xlink="http://www.w3.org/1999/xlink">
<g id="graph1" class="graph" transform="scale(1 1) rotate(0) translate(4 314)">
<title>core/models/memory/mapstorage.cpp</title>
<polygon fill="white" stroke="white" points="-4,5 -4,-314 428,-314 428,5 -4,5"/>
<!-- Node1 -->
<g id="node1" class="node"><title>Node1</title>
<polygon fill="#bfbfbf" stroke="black" points="64,-275 64,-309 172,-309 172,-275 64,-275"/>
<text text-anchor="start" x="72" y="-296" font-family="Helvetica,sans-Serif" font-size="10.00">core/models/memory</text>
<text text-anchor="middle" x="118" y="-283" font-family="Helvetica,sans-Serif" font-size="10.00">/mapstorage.cpp</text>
</g>
<!-- Node2 -->
<g id="node3" class="node"><title>Node2</title>
<a xlink:href="mapstorage_8h.html" target="_top" xlink:title="core/models/memory\l/mapstorage.h">
<polygon fill="white" stroke="black" points="64,-203 64,-237 172,-237 172,-203 64,-203"/>
<text text-anchor="start" x="72" y="-224" font-family="Helvetica,sans-Serif" font-size="10.00">core/models/memory</text>
<text text-anchor="middle" x="118" y="-211" font-family="Helvetica,sans-Serif" font-size="10.00">/mapstorage.h</text>
</a>
</g>
<!-- Node1&#45;&gt;Node2 -->
<g id="edge2" class="edge"><title>Node1&#45;&gt;Node2</title>
<path fill="none" stroke="midnightblue" d="M118,-274.937C118,-266.807 118,-256.876 118,-247.705"/>
<polygon fill="midnightblue" stroke="midnightblue" points="121.5,-247.441 118,-237.441 114.5,-247.441 121.5,-247.441"/>
</g>
<!-- Node3 -->
<g id="node5" class="node"><title>Node3</title>
<a xlink:href="vmap_8h.html" target="_top" xlink:title="core/common/vmap.h">
<polygon fill="white" stroke="black" points="-0.5,-137.5 -0.5,-158.5 110.5,-158.5 110.5,-137.5 -0.5,-137.5"/>
<text text-anchor="middle" x="55" y="-145.5" font-family="Helvetica,sans-Serif" font-size="10.00">core/common/vmap.h</text>
</a>
</g>
<!-- Node2&#45;&gt;Node3 -->
<g id="edge4" class="edge"><title>Node2&#45;&gt;Node3</title>
<path fill="none" stroke="midnightblue" d="M103.07,-202.937C93.4661,-191.961 80.9896,-177.702 71.1544,-166.462"/>
<polygon fill="midnightblue" stroke="midnightblue" points="73.7575,-164.122 64.5384,-158.901 68.4895,-168.732 73.7575,-164.122"/>
</g>
<!-- Node5 -->
<g id="node9" class="node"><title>Node5</title>
<a xlink:href="storage_8h.html" target="_top" xlink:title="core/models/memory\l/storage.h">
<polygon fill="white" stroke="black" points="128,-131 128,-165 236,-165 236,-131 128,-131"/>
<text text-anchor="start" x="136" y="-152" font-family="Helvetica,sans-Serif" font-size="10.00">core/models/memory</text>
<text text-anchor="middle" x="182" y="-139" font-family="Helvetica,sans-Serif" font-size="10.00">/storage.h</text>
</a>
</g>
<!-- Node2&#45;&gt;Node5 -->
<g id="edge8" class="edge"><title>Node2&#45;&gt;Node5</title>
<path fill="none" stroke="midnightblue" d="M133.167,-202.937C141.101,-194.012 150.964,-182.916 159.745,-173.037"/>
<polygon fill="midnightblue" stroke="midnightblue" points="162.469,-175.24 166.497,-165.441 157.238,-170.59 162.469,-175.24"/>
</g>
<!-- Node4 -->
<g id="node7" class="node"><title>Node4</title>
<polygon fill="white" stroke="#bfbfbf" points="37.5,-72.5 37.5,-93.5 72.5,-93.5 72.5,-72.5 37.5,-72.5"/>
<text text-anchor="middle" x="55" y="-80.5" font-family="Helvetica,sans-Serif" font-size="10.00">map</text>
</g>
<!-- Node3&#45;&gt;Node4 -->
<g id="edge6" class="edge"><title>Node3&#45;&gt;Node4</title>
<path fill="none" stroke="midnightblue" d="M55,-137.267C55,-128.18 55,-114.892 55,-103.74"/>
<polygon fill="midnightblue" stroke="midnightblue" points="58.5001,-103.534 55,-93.5337 51.5001,-103.534 58.5001,-103.534"/>
</g>
<!-- Node6 -->
<g id="node11" class="node"><title>Node6</title>
<a xlink:href="systemc_8h.html" target="_top" xlink:title="core/common/systemc.h">
<polygon fill="white" stroke="black" points="119.5,-72.5 119.5,-93.5 244.5,-93.5 244.5,-72.5 119.5,-72.5"/>
<text text-anchor="middle" x="182" y="-80.5" font-family="Helvetica,sans-Serif" font-size="10.00">core/common/systemc.h</text>
</a>
</g>
<!-- Node5&#45;&gt;Node6 -->
<g id="edge10" class="edge"><title>Node5&#45;&gt;Node6</title>
<path fill="none" stroke="midnightblue" d="M182,-130.922C182,-122.67 182,-112.692 182,-103.982"/>
<polygon fill="midnightblue" stroke="midnightblue" points="185.5,-103.852 182,-93.8521 178.5,-103.852 185.5,-103.852"/>
</g>
<!-- Node6&#45;&gt;Node6 -->
<g id="edge12" class="edge"><title>Node6&#45;&gt;Node6</title>
<path fill="none" stroke="midnightblue" d="M213.62,-93.5168C237.644,-97.3181 262,-93.8125 262,-83 262,-73.708 244.012,-69.8123 223.706,-71.313"/>
<polygon fill="midnightblue" stroke="midnightblue" points="223.15,-67.8539 213.62,-72.4832 223.957,-74.8073 223.15,-67.8539"/>
</g>
<!-- Node7 -->
<g id="node14" class="node"><title>Node7</title>
<polygon fill="white" stroke="#bfbfbf" points="1,-7.5 1,-28.5 39,-28.5 39,-7.5 1,-7.5"/>
<text text-anchor="middle" x="20" y="-15.5" font-family="Helvetica,sans-Serif" font-size="10.00">tlm.h</text>
</g>
<!-- Node6&#45;&gt;Node7 -->
<g id="edge14" class="edge"><title>Node6&#45;&gt;Node7</title>
<path fill="none" stroke="midnightblue" d="M144.662,-72.4802C117.245,-64.1443 79.4563,-51.3638 48,-36 46.6369,-35.3343 45.259,-34.6158 43.8836,-33.8624"/>
<polygon fill="midnightblue" stroke="midnightblue" points="45.4074,-30.6958 35.0274,-28.5728 41.8179,-36.7054 45.4074,-30.6958"/>
</g>
<!-- Node8 -->
<g id="node16" class="node"><title>Node8</title>
<polygon fill="white" stroke="#bfbfbf" points="56.5,-1 56.5,-35 171.5,-35 171.5,-1 56.5,-1"/>
<text text-anchor="start" x="64.5" y="-22" font-family="Helvetica,sans-Serif" font-size="10.00">tlm_utils/simple_target</text>
<text text-anchor="middle" x="114" y="-9" font-family="Helvetica,sans-Serif" font-size="10.00">_socket.h</text>
</g>
<!-- Node6&#45;&gt;Node8 -->
<g id="edge16" class="edge"><title>Node6&#45;&gt;Node8</title>
<path fill="none" stroke="midnightblue" d="M170.771,-72.2666C162.189,-64.0633 150.025,-52.436 139.157,-42.047"/>
<polygon fill="midnightblue" stroke="midnightblue" points="141.547,-39.4896 131.9,-35.1099 136.71,-44.5498 141.547,-39.4896"/>
</g>
<!-- Node9 -->
<g id="node18" class="node"><title>Node9</title>
<polygon fill="white" stroke="#bfbfbf" points="189,-1 189,-35 311,-35 311,-1 189,-1"/>
<text text-anchor="start" x="197" y="-22" font-family="Helvetica,sans-Serif" font-size="10.00">tlm_utils/simple_initiator</text>
<text text-anchor="middle" x="250" y="-9" font-family="Helvetica,sans-Serif" font-size="10.00">_socket.h</text>
</g>
<!-- Node6&#45;&gt;Node9 -->
<g id="edge18" class="edge"><title>Node6&#45;&gt;Node9</title>
<path fill="none" stroke="midnightblue" d="M193.229,-72.2666C201.811,-64.0633 213.975,-52.436 224.843,-42.047"/>
<polygon fill="midnightblue" stroke="midnightblue" points="227.29,-44.5498 232.1,-35.1099 222.453,-39.4896 227.29,-44.5498"/>
</g>
<!-- Node10 -->
<g id="node20" class="node"><title>Node10</title>
<polygon fill="white" stroke="#bfbfbf" points="328.5,-1 328.5,-35 423.5,-35 423.5,-1 328.5,-1"/>
<text text-anchor="start" x="336.5" y="-22" font-family="Helvetica,sans-Serif" font-size="10.00">tlm_utils/peq_with</text>
<text text-anchor="middle" x="376" y="-9" font-family="Helvetica,sans-Serif" font-size="10.00">_get.h</text>
</g>
<!-- Node6&#45;&gt;Node10 -->
<g id="edge20" class="edge"><title>Node6&#45;&gt;Node10</title>
<path fill="none" stroke="midnightblue" d="M213.601,-72.412C241.94,-62.9169 284.22,-48.7511 318.535,-37.2537"/>
<polygon fill="midnightblue" stroke="midnightblue" points="320.073,-40.4296 328.443,-33.9339 317.849,-33.7923 320.073,-40.4296"/>
</g>
</g>
</svg>
