<?xml version="1.0" encoding="UTF-8" standalone="no"?>
<!DOCTYPE svg PUBLIC "-//W3C//DTD SVG 1.1//EN"
 "http://www.w3.org/Graphics/SVG/1.1/DTD/svg11.dtd">
<!-- Generated by graphviz version 2.36.0 (20140111.2315)
 -->
<!-- Title: gaisler/memory/mapstorage.cpp Pages: 1 -->
<!--zoomable 320 -->
<svg id="main" version="1.1" xmlns="http://www.w3.org/2000/svg" xmlns:xlink="http://www.w3.org/1999/xlink" xml:space="preserve" onload="init(evt)">
<style type="text/css"><![CDATA[
.edge:hover path { stroke: red; }
.edge:hover polygon { stroke: red; fill: red; }
]]></style>
<script type="text/javascript"><![CDATA[
var edges = document.getElementsByTagName('g');
if (edges && edges.length) {
  for (var i=0;i<edges.length;i++) {
    if (edges[i].id.substr(0,4)=='edge') {
      edges[i].setAttribute('class','edge');
    }
  }
}
]]></script>
        <defs>
                <circle id="rim" cx="0" cy="0" r="7"/>
                <circle id="rim2" cx="0" cy="0" r="3.5"/>
                <g id="zoomPlus">
                        <use xlink:href="#rim" fill="#404040">
                                <set attributeName="fill" to="#808080" begin="zoomplus.mouseover" end="zoomplus.mouseout"/>
                        </use>
                        <path d="M-4,0h8M0,-4v8" fill="none" stroke="white" stroke-width="1.5" pointer-events="none"/>
                </g>
                <g id="zoomMin">
                        <use xlink:href="#rim" fill="#404040">
                                <set attributeName="fill" to="#808080" begin="zoomminus.mouseover" end="zoomminus.mouseout"/>
                        </use>
                        <path d="M-4,0h8" fill="none" stroke="white" stroke-width="1.5" pointer-events="none"/>
                </g>
                <g id="dirArrow">
                        <path fill="none" stroke="white" stroke-width="1.5" d="M0,-3.0v7 M-2.5,-0.5L0,-3.0L2.5,-0.5"/>
                </g>
               <g id="resetDef">
                       <use xlink:href="#rim2" fill="#404040">
                               <set attributeName="fill" to="#808080" begin="reset.mouseover" end="reset.mouseout"/>
                       </use>
               </g>
        </defs>

<script type="text/javascript">
var viewWidth = 632;
var viewHeight = 320;
var sectionId = 'dynsection-0';
</script>
<script xlink:href="svgpan.js"/>
<svg id="graph" class="graph">
<g id="viewport">
<title>gaisler/memory/mapstorage.cpp</title>
<polygon fill="white" stroke="none" points="-4,4 -4,-316 628,-316 628,4 -4,4"/>
<!-- Node1 -->
<g id="node1" class="node"><title>Node1</title>
<polygon fill="#bfbfbf" stroke="black" points="46,-292.5 46,-311.5 202,-311.5 202,-292.5 46,-292.5"/>
<text text-anchor="middle" x="124" y="-299.5" font-family="Helvetica,sans-Serif" font-size="10.00">gaisler/memory/mapstorage.cpp</text>
</g>
<!-- Node2 -->
<g id="node2" class="node"><title>Node2</title>
<g id="a_node2"><a xlink:href="mapstorage_8h.html" target="_top" xlink:title="gaisler/memory/mapstorage.h">
<polygon fill="white" stroke="black" points="51,-236.5 51,-255.5 197,-255.5 197,-236.5 51,-236.5"/>
<text text-anchor="middle" x="124" y="-243.5" font-family="Helvetica,sans-Serif" font-size="10.00">gaisler/memory/mapstorage.h</text>
</a>
</g>
</g>
<!-- Node1&#45;&gt;Node2 -->
<g id="edge1" class="edge"><title>Node1&#45;&gt;Node2</title>
<path fill="none" stroke="midnightblue" d="M124,-292.083C124,-285.006 124,-274.861 124,-265.986"/>
<polygon fill="midnightblue" stroke="midnightblue" points="127.5,-265.751 124,-255.751 120.5,-265.751 127.5,-265.751"/>
</g>
<!-- Node3 -->
<g id="node3" class="node"><title>Node3</title>
<g id="a_node3"><a xlink:href="vmap_8h.html" target="_top" xlink:title="core/common/vmap.h">
<polygon fill="white" stroke="black" points="-0.5,-180.5 -0.5,-199.5 110.5,-199.5 110.5,-180.5 -0.5,-180.5"/>
<text text-anchor="middle" x="55" y="-187.5" font-family="Helvetica,sans-Serif" font-size="10.00">core/common/vmap.h</text>
</a>
</g>
</g>
<!-- Node2&#45;&gt;Node3 -->
<g id="edge2" class="edge"><title>Node2&#45;&gt;Node3</title>
<path fill="none" stroke="midnightblue" d="M112.914,-236.324C102.514,-228.185 86.7394,-215.839 74.2784,-206.087"/>
<polygon fill="midnightblue" stroke="midnightblue" points="76.3199,-203.241 66.2878,-199.834 72.0057,-208.753 76.3199,-203.241"/>
</g>
<!-- Node5 -->
<g id="node5" class="node"><title>Node5</title>
<g id="a_node5"><a xlink:href="storage_8h.html" target="_top" xlink:title="gaisler/memory/storage.h">
<polygon fill="white" stroke="black" points="130.5,-180.5 130.5,-199.5 257.5,-199.5 257.5,-180.5 130.5,-180.5"/>
<text text-anchor="middle" x="194" y="-187.5" font-family="Helvetica,sans-Serif" font-size="10.00">gaisler/memory/storage.h</text>
</a>
</g>
</g>
<!-- Node2&#45;&gt;Node5 -->
<g id="edge4" class="edge"><title>Node2&#45;&gt;Node5</title>
<path fill="none" stroke="midnightblue" d="M135.247,-236.324C145.797,-228.185 161.801,-215.839 174.442,-206.087"/>
<polygon fill="midnightblue" stroke="midnightblue" points="176.769,-208.713 182.549,-199.834 172.493,-203.171 176.769,-208.713"/>
</g>
<!-- Node4 -->
<g id="node4" class="node"><title>Node4</title>
<polygon fill="white" stroke="#bfbfbf" points="189.5,-0.5 189.5,-19.5 224.5,-19.5 224.5,-0.5 189.5,-0.5"/>
<text text-anchor="middle" x="207" y="-7.5" font-family="Helvetica,sans-Serif" font-size="10.00">map</text>
</g>
<!-- Node3&#45;&gt;Node4 -->
<g id="edge3" class="edge"><title>Node3&#45;&gt;Node4</title>
<path fill="none" stroke="midnightblue" d="M47.3777,-180.223C28.4612,-157.35 -16.9432,-94.9878 14,-56 34.3323,-30.3817 130.913,-17.9953 179.274,-13.3168"/>
<polygon fill="midnightblue" stroke="midnightblue" points="179.73,-16.7897 189.366,-12.3852 179.086,-9.81936 179.73,-16.7897"/>
</g>
<!-- Node6 -->
<g id="node6" class="node"><title>Node6</title>
<g id="a_node6"><a xlink:href="core_2common_2systemc_8h.html" target="_top" xlink:title="core/common/systemc.h">
<polygon fill="white" stroke="black" points="131.5,-124.5 131.5,-143.5 256.5,-143.5 256.5,-124.5 131.5,-124.5"/>
<text text-anchor="middle" x="194" y="-131.5" font-family="Helvetica,sans-Serif" font-size="10.00">core/common/systemc.h</text>
</a>
</g>
</g>
<!-- Node5&#45;&gt;Node6 -->
<g id="edge5" class="edge"><title>Node5&#45;&gt;Node6</title>
<path fill="none" stroke="midnightblue" d="M194,-180.083C194,-173.006 194,-162.861 194,-153.986"/>
<polygon fill="midnightblue" stroke="midnightblue" points="197.5,-153.751 194,-143.751 190.5,-153.751 197.5,-153.751"/>
</g>
<!-- Node11 -->
<g id="node11" class="node"><title>Node11</title>
<g id="a_node11"><a xlink:href="sr__registry_8h.html" target="_top" xlink:title="core/common/sr_registry.h">
<polygon fill="white" stroke="black" points="405.5,-124.5 405.5,-143.5 538.5,-143.5 538.5,-124.5 405.5,-124.5"/>
<text text-anchor="middle" x="472" y="-131.5" font-family="Helvetica,sans-Serif" font-size="10.00">core/common/sr_registry.h</text>
</a>
</g>
</g>
<!-- Node5&#45;&gt;Node11 -->
<g id="edge11" class="edge"><title>Node5&#45;&gt;Node11</title>
<path fill="none" stroke="midnightblue" d="M238.05,-180.444C286.851,-170.964 365.563,-155.675 418.03,-145.483"/>
<polygon fill="midnightblue" stroke="midnightblue" points="419.007,-148.859 428.156,-143.516 417.672,-141.988 419.007,-148.859"/>
</g>
<!-- Node6&#45;&gt;Node6 -->
<g id="edge6" class="edge"><title>Node6&#45;&gt;Node6</title>
<path fill="none" stroke="midnightblue" d="M228.12,-143.525C251.304,-146.308 274,-143.133 274,-134 274,-126.223 257.542,-122.766 238.339,-123.629"/>
<polygon fill="midnightblue" stroke="midnightblue" points="237.798,-120.162 228.12,-124.475 238.375,-127.138 237.798,-120.162"/>
</g>
<!-- Node7 -->
<g id="node7" class="node"><title>Node7</title>
<polygon fill="white" stroke="#bfbfbf" points="23,-62.5 23,-81.5 61,-81.5 61,-62.5 23,-62.5"/>
<text text-anchor="middle" x="42" y="-69.5" font-family="Helvetica,sans-Serif" font-size="10.00">tlm.h</text>
</g>
<!-- Node6&#45;&gt;Node7 -->
<g id="edge7" class="edge"><title>Node6&#45;&gt;Node7</title>
<path fill="none" stroke="midnightblue" d="M166.952,-124.433C141.532,-116.09 102.622,-102.567 70,-88 68.6467,-87.3957 67.269,-86.753 65.8868,-86.0866"/>
<polygon fill="midnightblue" stroke="midnightblue" points="67.4116,-82.9352 56.9143,-81.5007 64.2259,-89.1683 67.4116,-82.9352"/>
</g>
<!-- Node8 -->
<g id="node8" class="node"><title>Node8</title>
<polygon fill="white" stroke="#bfbfbf" points="79.5,-57 79.5,-87 194.5,-87 194.5,-57 79.5,-57"/>
<text text-anchor="start" x="87.5" y="-75" font-family="Helvetica,sans-Serif" font-size="10.00">tlm_utils/simple_target</text>
<text text-anchor="middle" x="137" y="-64" font-family="Helvetica,sans-Serif" font-size="10.00">_socket.h</text>
</g>
<!-- Node6&#45;&gt;Node8 -->
<g id="edge8" class="edge"><title>Node6&#45;&gt;Node8</title>
<path fill="none" stroke="midnightblue" d="M185.833,-124.403C178.474,-116.657 167.341,-104.938 157.562,-94.6447"/>
<polygon fill="midnightblue" stroke="midnightblue" points="159.859,-91.9802 150.434,-87.1408 154.784,-96.8015 159.859,-91.9802"/>
</g>
<!-- Node9 -->
<g id="node9" class="node"><title>Node9</title>
<polygon fill="white" stroke="#bfbfbf" points="213,-57 213,-87 335,-87 335,-57 213,-57"/>
<text text-anchor="start" x="221" y="-75" font-family="Helvetica,sans-Serif" font-size="10.00">tlm_utils/simple_initiator</text>
<text text-anchor="middle" x="274" y="-64" font-family="Helvetica,sans-Serif" font-size="10.00">_socket.h</text>
</g>
<!-- Node6&#45;&gt;Node9 -->
<g id="edge9" class="edge"><title>Node6&#45;&gt;Node9</title>
<path fill="none" stroke="midnightblue" d="M205.462,-124.403C216.297,-116.277 232.961,-103.779 247.144,-93.1419"/>
<polygon fill="midnightblue" stroke="midnightblue" points="249.246,-95.9409 255.146,-87.1408 245.046,-90.3408 249.246,-95.9409"/>
</g>
<!-- Node10 -->
<g id="node10" class="node"><title>Node10</title>
<polygon fill="white" stroke="#bfbfbf" points="353.5,-57 353.5,-87 448.5,-87 448.5,-57 353.5,-57"/>
<text text-anchor="start" x="361.5" y="-75" font-family="Helvetica,sans-Serif" font-size="10.00">tlm_utils/peq_with</text>
<text text-anchor="middle" x="401" y="-64" font-family="Helvetica,sans-Serif" font-size="10.00">_get.h</text>
</g>
<!-- Node6&#45;&gt;Node10 -->
<g id="edge10" class="edge"><title>Node6&#45;&gt;Node10</title>
<path fill="none" stroke="midnightblue" d="M223.658,-124.403C254.885,-115.352 304.823,-100.877 343.762,-89.5908"/>
<polygon fill="midnightblue" stroke="midnightblue" points="344.776,-92.9409 353.407,-86.7952 342.827,-86.2176 344.776,-92.9409"/>
</g>
<!-- Node12 -->
<g id="node12" class="node"><title>Node12</title>
<g id="a_node12"><a xlink:href="sr__registry_2sr__registry_8h.html" target="_top" xlink:title="core/common/sr_registry\l/sr_registry.h">
<polygon fill="white" stroke="black" points="466.5,-57 466.5,-87 591.5,-87 591.5,-57 466.5,-57"/>
<text text-anchor="start" x="474.5" y="-75" font-family="Helvetica,sans-Serif" font-size="10.00">core/common/sr_registry</text>
<text text-anchor="middle" x="529" y="-64" font-family="Helvetica,sans-Serif" font-size="10.00">/sr_registry.h</text>
</a>
</g>
</g>
<!-- Node11&#45;&gt;Node12 -->
<g id="edge12" class="edge"><title>Node11&#45;&gt;Node12</title>
<path fill="none" stroke="midnightblue" d="M480.167,-124.403C487.526,-116.657 498.659,-104.938 508.438,-94.6447"/>
<polygon fill="midnightblue" stroke="midnightblue" points="511.216,-96.8015 515.566,-87.1408 506.141,-91.9802 511.216,-96.8015"/>
</g>
<!-- Node12&#45;&gt;Node4 -->
<g id="edge14" class="edge"><title>Node12&#45;&gt;Node4</title>
<path fill="none" stroke="midnightblue" d="M466.192,-57.8097C463.085,-57.1903 460.008,-56.584 457,-56 376.441,-40.3612 280.906,-23.6814 234.731,-15.7369"/>
<polygon fill="midnightblue" stroke="midnightblue" points="235.058,-12.242 224.61,-13.9996 233.874,-19.1411 235.058,-12.242"/>
</g>
<!-- Node13 -->
<g id="node13" class="node"><title>Node13</title>
<polygon fill="white" stroke="#bfbfbf" points="454.5,-0.5 454.5,-19.5 495.5,-19.5 495.5,-0.5 454.5,-0.5"/>
<text text-anchor="middle" x="475" y="-7.5" font-family="Helvetica,sans-Serif" font-size="10.00">string</text>
</g>
<!-- Node12&#45;&gt;Node13 -->
<g id="edge13" class="edge"><title>Node12&#45;&gt;Node13</title>
<path fill="none" stroke="midnightblue" d="M516.203,-56.7808C508.275,-47.9722 498.064,-36.6262 489.79,-27.4332"/>
<polygon fill="midnightblue" stroke="midnightblue" points="492.149,-24.8221 482.857,-19.7305 486.946,-29.5049 492.149,-24.8221"/>
</g>
<!-- Node14 -->
<g id="node14" class="node"><title>Node14</title>
<polygon fill="white" stroke="#bfbfbf" points="514,-0.5 514,-19.5 544,-19.5 544,-0.5 514,-0.5"/>
<text text-anchor="middle" x="529" y="-7.5" font-family="Helvetica,sans-Serif" font-size="10.00">set</text>
</g>
<!-- Node12&#45;&gt;Node14 -->
<g id="edge15" class="edge"><title>Node12&#45;&gt;Node14</title>
<path fill="none" stroke="midnightblue" d="M529,-56.7808C529,-48.7812 529,-38.6887 529,-30.0168"/>
<polygon fill="midnightblue" stroke="midnightblue" points="532.5,-29.7305 529,-19.7305 525.5,-29.7306 532.5,-29.7305"/>
</g>
<!-- Node15 -->
<g id="node15" class="node"><title>Node15</title>
<polygon fill="white" stroke="#bfbfbf" points="562,-0.5 562,-19.5 624,-19.5 624,-0.5 562,-0.5"/>
<text text-anchor="middle" x="593" y="-7.5" font-family="Helvetica,sans-Serif" font-size="10.00">systemc.h</text>
</g>
<!-- Node12&#45;&gt;Node15 -->
<g id="edge16" class="edge"><title>Node12&#45;&gt;Node15</title>
<path fill="none" stroke="midnightblue" d="M544.167,-56.7808C553.851,-47.7026 566.409,-35.9291 576.365,-26.5951"/>
<polygon fill="midnightblue" stroke="midnightblue" points="578.786,-29.1234 583.687,-19.7305 573.998,-24.0166 578.786,-29.1234"/>
</g>
</g>
</svg>
        <g id="navigator" transform="translate(0 0)" fill="#404254">
                <rect fill="#f2f5e9" fill-opacity="0.5" stroke="#606060" stroke-width=".5" x="0" y="0" width="60" height="60"/>
                <use id="zoomplus" xlink:href="#zoomPlus" x="17" y="9" onmousedown="handleZoom(evt,'in')"/>
                <use id="zoomminus" xlink:href="#zoomMin" x="42" y="9" onmousedown="handleZoom(evt,'out')"/>
                <use id="reset" xlink:href="#resetDef" x="30" y="36" onmousedown="handleReset()"/>
                <g id="arrowUp" xlink:href="#dirArrow" transform="translate(30 24)" onmousedown="handlePan(0,-1)">
                  <use xlink:href="#rim" fill="#404040">
                        <set attributeName="fill" to="#808080" begin="arrowUp.mouseover" end="arrowUp.mouseout"/>
                  </use>
                  <path fill="none" stroke="white" stroke-width="1.5" d="M0,-3.0v7 M-2.5,-0.5L0,-3.0L2.5,-0.5"/>
                </g>
                <g id="arrowRight" xlink:href="#dirArrow" transform="rotate(90) translate(36 -43)" onmousedown="handlePan(1,0)">
                  <use xlink:href="#rim" fill="#404040">
                        <set attributeName="fill" to="#808080" begin="arrowRight.mouseover" end="arrowRight.mouseout"/>
                  </use>
                  <path fill="none" stroke="white" stroke-width="1.5" d="M0,-3.0v7 M-2.5,-0.5L0,-3.0L2.5,-0.5"/>
                </g>
                <g id="arrowDown" xlink:href="#dirArrow" transform="rotate(180) translate(-30 -48)" onmousedown="handlePan(0,1)">
                  <use xlink:href="#rim" fill="#404040">
                        <set attributeName="fill" to="#808080" begin="arrowDown.mouseover" end="arrowDown.mouseout"/>
                  </use>
                  <path fill="none" stroke="white" stroke-width="1.5" d="M0,-3.0v7 M-2.5,-0.5L0,-3.0L2.5,-0.5"/>
                </g>
                <g id="arrowLeft" xlink:href="#dirArrow" transform="rotate(270) translate(-36 17)" onmousedown="handlePan(-1,0)">
                  <use xlink:href="#rim" fill="#404040">
                        <set attributeName="fill" to="#808080" begin="arrowLeft.mouseover" end="arrowLeft.mouseout"/>
                  </use>
                  <path fill="none" stroke="white" stroke-width="1.5" d="M0,-3.0v7 M-2.5,-0.5L0,-3.0L2.5,-0.5"/>
                </g>
        </g>
        <svg viewBox="0 0 15 15" width="100%" height="30px" preserveAspectRatio="xMaxYMin meet">
         <g id="arrow_out" transform="scale(0.3 0.3)">
          <a xlink:href="mapstorage_8cpp__incl_org.svg" target="_base">
           <rect id="button" ry="5" rx="5" y="6" x="6" height="38" width="38"
                fill="#f2f5e9" fill-opacity="0.5" stroke="#606060" stroke-width="1.0"/>
           <path id="arrow"
             d="M 11.500037,31.436501 C 11.940474,20.09759 22.043105,11.32322 32.158766,21.979434 L 37.068811,17.246167 C 37.068811,17.246167 37.088388,32 37.088388,32 L 22.160133,31.978069 C 22.160133,31.978069 26.997745,27.140456 26.997745,27.140456 C 18.528582,18.264221 13.291696,25.230495 11.500037,31.436501 z"
             style="fill:#404040;"/>
          </a>
         </g>
        </svg>
</svg>
