<?xml version="1.0" encoding="UTF-8" standalone="no"?>
<!DOCTYPE svg PUBLIC "-//W3C//DTD SVG 1.1//EN"
 "http://www.w3.org/Graphics/SVG/1.1/DTD/svg11.dtd">
<!-- Generated by graphviz version 2.38.0 (20140413.2041)
 -->
<!-- Title: MDR_model_set_attr Pages: 1 -->
<svg width="443pt" height="27pt"
 viewBox="0.00 0.00 442.57 27.00" xmlns="http://www.w3.org/2000/svg" xmlns:xlink="http://www.w3.org/1999/xlink">
<g id="graph0" class="graph" transform="scale(1 1) rotate(0) translate(4 23)">
<title>MDR_model_set_attr</title>
<polygon fill="white" stroke="none" points="-4,4 -4,-23 438.57,-23 438.57,4 -4,4"/>
<!-- Node1 -->
<g id="node1" class="node"><title>Node1</title>
<polygon fill="#bfbfbf" stroke="black" points="0,-0.5 0,-18.5 110.482,-18.5 110.482,-0.5 0,-0.5"/>
<text text-anchor="middle" x="55.2412" y="-6.5" font-family="Helvetica,sans-Serif" font-size="10.00">MDR_model_set_attr</text>
</g>
<!-- Node2 -->
<g id="node2" class="node"><title>Node2</title>
<g id="a_node2"><a xlink:href="mdrAll_8c.html#a5cba8afd29537df17c71c3c889a86830" target="_top" xlink:title="MDR_model_clear_cells">
<polygon fill="white" stroke="black" points="146.482,-0.5 146.482,-18.5 270.856,-18.5 270.856,-0.5 146.482,-0.5"/>
<text text-anchor="middle" x="208.669" y="-6.5" font-family="Helvetica,sans-Serif" font-size="10.00">MDR_model_clear_cells</text>
</a>
</g>
</g>
<!-- Node1&#45;&gt;Node2 -->
<g id="edge1" class="edge"><title>Node1&#45;&gt;Node2</title>
<path fill="none" stroke="midnightblue" d="M110.483,-9.5C118.839,-9.5 127.576,-9.5 136.238,-9.5"/>
<polygon fill="midnightblue" stroke="midnightblue" points="136.345,-13.0001 146.345,-9.5 136.345,-6.0001 136.345,-13.0001"/>
</g>
<!-- Node3 -->
<g id="node3" class="node"><title>Node3</title>
<g id="a_node3"><a xlink:href="mdrAll_8c.html#ae26051cb2275ee89d5a32e8857321938" target="_top" xlink:title="MDR_multiindex_release">
<polygon fill="white" stroke="black" points="306.856,-0.5 306.856,-18.5 434.57,-18.5 434.57,-0.5 306.856,-0.5"/>
<text text-anchor="middle" x="370.713" y="-6.5" font-family="Helvetica,sans-Serif" font-size="10.00">MDR_multiindex_release</text>
</a>
</g>
</g>
<!-- Node2&#45;&gt;Node3 -->
<g id="edge2" class="edge"><title>Node2&#45;&gt;Node3</title>
<path fill="none" stroke="midnightblue" d="M271.089,-9.5C279.361,-9.5 287.914,-9.5 296.368,-9.5"/>
<polygon fill="midnightblue" stroke="midnightblue" points="296.603,-13.0001 306.603,-9.5 296.603,-6.0001 296.603,-13.0001"/>
</g>
</g>
</svg>
