<?xml version="1.0" encoding="UTF-8" standalone="no"?>
<!DOCTYPE svg PUBLIC "-//W3C//DTD SVG 1.1//EN"
 "http://www.w3.org/Graphics/SVG/1.1/DTD/svg11.dtd">
<!-- Generated by graphviz version 2.38.0 (20140413.2041)
 -->
<!-- Title: print_model Pages: 1 -->
<svg width="384pt" height="241pt"
 viewBox="0.00 0.00 384.00 241.00" xmlns="http://www.w3.org/2000/svg" xmlns:xlink="http://www.w3.org/1999/xlink">
<g id="graph0" class="graph" transform="scale(1 1) rotate(0) translate(4 237)">
<title>print_model</title>
<polygon fill="white" stroke="none" points="-4,4 -4,-237 380,-237 380,4 -4,4"/>
<!-- Node1 -->
<g id="node1" class="node"><title>Node1</title>
<polygon fill="#bfbfbf" stroke="black" points="0,-98.5 0,-117.5 67,-117.5 67,-98.5 0,-98.5"/>
<text text-anchor="middle" x="33.5" y="-105.5" font-family="Helvetica,sans-Serif" font-size="10.00">print_model</text>
</g>
<!-- Node2 -->
<g id="node2" class="node"><title>Node2</title>
<g id="a_node2"><a xlink:href="mdrAll_8c.html#a2f9c307c1bbf8e17cb9e2b29301d388b" target="_top" xlink:title="MDR_model_begin">
<polygon fill="white" stroke="black" points="108.5,-213.5 108.5,-232.5 208.5,-232.5 208.5,-213.5 108.5,-213.5"/>
<text text-anchor="middle" x="158.5" y="-220.5" font-family="Helvetica,sans-Serif" font-size="10.00">MDR_model_begin</text>
</a>
</g>
</g>
<!-- Node1&#45;&gt;Node2 -->
<g id="edge1" class="edge"><title>Node1&#45;&gt;Node2</title>
<path fill="none" stroke="midnightblue" d="M38.8728,-117.675C48.0308,-136.887 71.0536,-180.053 103,-204 105.486,-205.863 108.168,-207.554 110.964,-209.086"/>
<polygon fill="midnightblue" stroke="midnightblue" points="109.64,-212.332 120.175,-213.46 112.643,-206.009 109.64,-212.332"/>
</g>
<!-- Node3 -->
<g id="node3" class="node"><title>Node3</title>
<g id="a_node3"><a xlink:href="mdrAll_8c.html#a6b3d255e6d55a20eda7d927c30a50246" target="_top" xlink:title="MDR_model_get_cell\l_counts">
<polygon fill="white" stroke="black" points="103.5,-164 103.5,-194 213.5,-194 213.5,-164 103.5,-164"/>
<text text-anchor="start" x="111.5" y="-182" font-family="Helvetica,sans-Serif" font-size="10.00">MDR_model_get_cell</text>
<text text-anchor="middle" x="158.5" y="-171" font-family="Helvetica,sans-Serif" font-size="10.00">_counts</text>
</a>
</g>
</g>
<!-- Node1&#45;&gt;Node3 -->
<g id="edge2" class="edge"><title>Node1&#45;&gt;Node3</title>
<path fill="none" stroke="midnightblue" d="M47.1678,-117.759C60.5782,-127.831 82.587,-143.633 103,-155 105.713,-156.511 108.539,-157.997 111.415,-159.444"/>
<polygon fill="midnightblue" stroke="midnightblue" points="110.162,-162.726 120.69,-163.914 113.201,-156.42 110.162,-162.726"/>
</g>
<!-- Node4 -->
<g id="node4" class="node"><title>Node4</title>
<g id="a_node4"><a xlink:href="mdrAll_8c.html#a9403a3882b1b297440975dbf3f1c01e9" target="_top" xlink:title="MDR_model_get_cell\l_status">
<polygon fill="white" stroke="black" points="103.5,-115 103.5,-145 213.5,-145 213.5,-115 103.5,-115"/>
<text text-anchor="start" x="111.5" y="-133" font-family="Helvetica,sans-Serif" font-size="10.00">MDR_model_get_cell</text>
<text text-anchor="middle" x="158.5" y="-122" font-family="Helvetica,sans-Serif" font-size="10.00">_status</text>
</a>
</g>
</g>
<!-- Node1&#45;&gt;Node4 -->
<g id="edge3" class="edge"><title>Node1&#45;&gt;Node4</title>
<path fill="none" stroke="midnightblue" d="M67.1388,-113.838C75.2923,-115.296 84.3211,-116.911 93.4252,-118.539"/>
<polygon fill="midnightblue" stroke="midnightblue" points="92.8358,-121.99 103.296,-120.305 94.0684,-115.099 92.8358,-121.99"/>
</g>
<!-- Node5 -->
<g id="node5" class="node"><title>Node5</title>
<g id="a_node5"><a xlink:href="mdrAll_8c.html#a930ba247fdba724c7508cb8a70a8119a" target="_top" xlink:title="MDR_model_get_key">
<polygon fill="white" stroke="black" points="103,-76.5 103,-95.5 214,-95.5 214,-76.5 103,-76.5"/>
<text text-anchor="middle" x="158.5" y="-83.5" font-family="Helvetica,sans-Serif" font-size="10.00">MDR_model_get_key</text>
</a>
</g>
</g>
<!-- Node1&#45;&gt;Node5 -->
<g id="edge4" class="edge"><title>Node1&#45;&gt;Node5</title>
<path fill="none" stroke="midnightblue" d="M67.1388,-102.162C75.5014,-100.666 84.7847,-99.006 94.1257,-97.3352"/>
<polygon fill="midnightblue" stroke="midnightblue" points="95.0159,-100.732 104.243,-95.5256 93.7834,-93.841 95.0159,-100.732"/>
</g>
<!-- Node7 -->
<g id="node7" class="node"><title>Node7</title>
<g id="a_node7"><a xlink:href="mdrAll_8c.html#a9850956d1f5453a12f667b57661d2356" target="_top" xlink:title="MDR_model_is_end">
<polygon fill="white" stroke="black" points="106,-38.5 106,-57.5 211,-57.5 211,-38.5 106,-38.5"/>
<text text-anchor="middle" x="158.5" y="-45.5" font-family="Helvetica,sans-Serif" font-size="10.00">MDR_model_is_end</text>
</a>
</g>
</g>
<!-- Node1&#45;&gt;Node7 -->
<g id="edge6" class="edge"><title>Node1&#45;&gt;Node7</title>
<path fill="none" stroke="midnightblue" d="M48.4659,-98.4829C61.9907,-89.5495 83.2886,-76.2171 103,-67 107.419,-64.9335 112.129,-62.9658 116.859,-61.134"/>
<polygon fill="midnightblue" stroke="midnightblue" points="118.336,-64.3197 126.509,-57.577 115.915,-57.7517 118.336,-64.3197"/>
</g>
<!-- Node8 -->
<g id="node8" class="node"><title>Node8</title>
<g id="a_node8"><a xlink:href="mdrAll_8c.html#a8cd221e40f8cc1f2844e6fd4579e42d9" target="_top" xlink:title="MDR_model_next">
<polygon fill="white" stroke="black" points="111,-0.5 111,-19.5 206,-19.5 206,-0.5 111,-0.5"/>
<text text-anchor="middle" x="158.5" y="-7.5" font-family="Helvetica,sans-Serif" font-size="10.00">MDR_model_next</text>
</a>
</g>
</g>
<!-- Node1&#45;&gt;Node8 -->
<g id="edge7" class="edge"><title>Node1&#45;&gt;Node8</title>
<path fill="none" stroke="midnightblue" d="M40.4532,-98.294C51.0525,-81.7819 74.7553,-48.156 103,-29 105.908,-27.0279 109.041,-25.2397 112.284,-23.6218"/>
<polygon fill="midnightblue" stroke="midnightblue" points="113.882,-26.7426 121.617,-19.5026 111.055,-20.3386 113.882,-26.7426"/>
</g>
<!-- Node6 -->
<g id="node6" class="node"><title>Node6</title>
<g id="a_node6"><a xlink:href="mdrAll_8c.html#ac3c4b926f4a7b5ec331318bdb53c876e" target="_top" xlink:title="MDR_multiindex_decode">
<polygon fill="white" stroke="black" points="250,-76.5 250,-95.5 376,-95.5 376,-76.5 250,-76.5"/>
<text text-anchor="middle" x="313" y="-83.5" font-family="Helvetica,sans-Serif" font-size="10.00">MDR_multiindex_decode</text>
</a>
</g>
</g>
<!-- Node5&#45;&gt;Node6 -->
<g id="edge5" class="edge"><title>Node5&#45;&gt;Node6</title>
<path fill="none" stroke="midnightblue" d="M214.125,-86C222.479,-86 231.211,-86 239.872,-86"/>
<polygon fill="midnightblue" stroke="midnightblue" points="239.979,-89.5001 249.979,-86 239.979,-82.5001 239.979,-89.5001"/>
</g>
</g>
</svg>
