<?xml version="1.0" encoding="UTF-8" standalone="no"?>
<!DOCTYPE svg PUBLIC "-//W3C//DTD SVG 1.1//EN"
 "http://www.w3.org/Graphics/SVG/1.1/DTD/svg11.dtd">
<!-- Generated by graphviz version 2.36.0 (20140111.2315)
 -->
<!-- Title: MDR_PRIVATE_model_init_cells Pages: 1 -->
<svg width="468pt" height="66pt"
 viewBox="0.00 0.00 468.00 66.00" xmlns="http://www.w3.org/2000/svg" xmlns:xlink="http://www.w3.org/1999/xlink">
<g id="graph0" class="graph" transform="scale(1 1) rotate(0) translate(4 62)">
<title>MDR_PRIVATE_model_init_cells</title>
<polygon fill="white" stroke="none" points="-4,4 -4,-62 464,-62 464,4 -4,4"/>
<!-- Node1 -->
<g id="node1" class="node"><title>Node1</title>
<polygon fill="#bfbfbf" stroke="black" points="0,-14 0,-44 138,-44 138,-14 0,-14"/>
<text text-anchor="start" x="8" y="-32" font-family="Helvetica,sans-Serif" font-size="10.00">MDR_PRIVATE_model_init</text>
<text text-anchor="middle" x="69" y="-21" font-family="Helvetica,sans-Serif" font-size="10.00">_cells</text>
</g>
<!-- Node2 -->
<g id="node2" class="node"><title>Node2</title>
<g id="a_node2"><a xlink:href="mdrAll_8c.html#a5cba8afd29537df17c71c3c889a86830" target="_top" xlink:title="MDR_model_clear_cells">
<polygon fill="white" stroke="black" points="174.5,-38.5 174.5,-57.5 297.5,-57.5 297.5,-38.5 174.5,-38.5"/>
<text text-anchor="middle" x="236" y="-45.5" font-family="Helvetica,sans-Serif" font-size="10.00">MDR_model_clear_cells</text>
</a>
</g>
</g>
<!-- Node1&#45;&gt;Node2 -->
<g id="edge1" class="edge"><title>Node1&#45;&gt;Node2</title>
<path fill="none" stroke="midnightblue" d="M138.064,-36.8377C146.742,-37.8369 155.639,-38.8615 164.356,-39.8653"/>
<polygon fill="midnightblue" stroke="midnightblue" points="164.148,-43.3643 174.482,-41.0313 164.948,-36.4102 164.148,-43.3643"/>
</g>
<!-- Node4 -->
<g id="node4" class="node"><title>Node4</title>
<g id="a_node4"><a xlink:href="mdrAll_8c.html#a9070c9ccd3c8c8c182ad338a4153a8fa" target="_top" xlink:title="MDR_multiindex_init">
<polygon fill="white" stroke="black" points="182.5,-0.5 182.5,-19.5 289.5,-19.5 289.5,-0.5 182.5,-0.5"/>
<text text-anchor="middle" x="236" y="-7.5" font-family="Helvetica,sans-Serif" font-size="10.00">MDR_multiindex_init</text>
</a>
</g>
</g>
<!-- Node1&#45;&gt;Node4 -->
<g id="edge3" class="edge"><title>Node1&#45;&gt;Node4</title>
<path fill="none" stroke="midnightblue" d="M138.064,-21.1623C149.415,-19.8553 161.141,-18.5049 172.348,-17.2144"/>
<polygon fill="midnightblue" stroke="midnightblue" points="172.935,-20.6701 182.469,-16.0491 172.134,-13.7161 172.935,-20.6701"/>
</g>
<!-- Node3 -->
<g id="node3" class="node"><title>Node3</title>
<g id="a_node3"><a xlink:href="mdrAll_8c.html#ae26051cb2275ee89d5a32e8857321938" target="_top" xlink:title="MDR_multiindex_release">
<polygon fill="white" stroke="black" points="334,-38.5 334,-57.5 460,-57.5 460,-38.5 334,-38.5"/>
<text text-anchor="middle" x="397" y="-45.5" font-family="Helvetica,sans-Serif" font-size="10.00">MDR_multiindex_release</text>
</a>
</g>
</g>
<!-- Node2&#45;&gt;Node3 -->
<g id="edge2" class="edge"><title>Node2&#45;&gt;Node3</title>
<path fill="none" stroke="midnightblue" d="M297.565,-48C306.08,-48 314.903,-48 323.612,-48"/>
<polygon fill="midnightblue" stroke="midnightblue" points="323.757,-51.5001 333.757,-48 323.757,-44.5001 323.757,-51.5001"/>
</g>
</g>
</svg>
