<?xml version="1.0" encoding="UTF-8" standalone="no"?>
<!DOCTYPE svg PUBLIC "-//W3C//DTD SVG 1.1//EN"
 "http://www.w3.org/Graphics/SVG/1.1/DTD/svg11.dtd">
<!-- Generated by graphviz version 2.38.0 (20140413.2041)
 -->
<!-- Title: MDR_model_construct_attribute Pages: 1 -->
<svg width="489pt" height="39pt"
 viewBox="0.00 0.00 489.00 39.00" xmlns="http://www.w3.org/2000/svg" xmlns:xlink="http://www.w3.org/1999/xlink">
<g id="graph0" class="graph" transform="scale(1 1) rotate(0) translate(4 35)">
<title>MDR_model_construct_attribute</title>
<polygon fill="white" stroke="none" points="-4,4 -4,-35 485,-35 485,4 -4,4"/>
<!-- Node1 -->
<g id="node1" class="node"><title>Node1</title>
<polygon fill="#bfbfbf" stroke="black" points="0,-0.5 0,-30.5 117,-30.5 117,-0.5 0,-0.5"/>
<text text-anchor="start" x="8" y="-18.5" font-family="Helvetica,sans-Serif" font-size="10.00">MDR_model_construct</text>
<text text-anchor="middle" x="58.5" y="-7.5" font-family="Helvetica,sans-Serif" font-size="10.00">_attribute</text>
</g>
<!-- Node2 -->
<g id="node2" class="node"><title>Node2</title>
<g id="a_node2"><a xlink:href="mdrAll_8c.html#ab0b29cc0ba74c5f84fd3ee4fea46f707" target="_top" xlink:title="MDR_PRIVATE_model_construct\l_attribute_instance">
<polygon fill="white" stroke="black" points="153,-0.5 153,-30.5 319,-30.5 319,-0.5 153,-0.5"/>
<text text-anchor="start" x="161" y="-18.5" font-family="Helvetica,sans-Serif" font-size="10.00">MDR_PRIVATE_model_construct</text>
<text text-anchor="middle" x="236" y="-7.5" font-family="Helvetica,sans-Serif" font-size="10.00">_attribute_instance</text>
</a>
</g>
</g>
<!-- Node1&#45;&gt;Node2 -->
<g id="edge1" class="edge"><title>Node1&#45;&gt;Node2</title>
<path fill="none" stroke="midnightblue" d="M117.452,-15.5C125.632,-15.5 134.205,-15.5 142.835,-15.5"/>
<polygon fill="midnightblue" stroke="midnightblue" points="142.972,-19.0001 152.972,-15.5 142.972,-12.0001 142.972,-19.0001"/>
</g>
<!-- Node3 -->
<g id="node3" class="node"><title>Node3</title>
<g id="a_node3"><a xlink:href="mdrAll_8c.html#a7ad41b56220d8d3d6c6291f935be84ae" target="_top" xlink:title="MDR_multiindex_encode">
<polygon fill="white" stroke="black" points="355,-6 355,-25 481,-25 481,-6 355,-6"/>
<text text-anchor="middle" x="418" y="-13" font-family="Helvetica,sans-Serif" font-size="10.00">MDR_multiindex_encode</text>
</a>
</g>
</g>
<!-- Node2&#45;&gt;Node3 -->
<g id="edge2" class="edge"><title>Node2&#45;&gt;Node3</title>
<path fill="none" stroke="midnightblue" d="M319.099,-15.5C327.668,-15.5 336.334,-15.5 344.782,-15.5"/>
<polygon fill="midnightblue" stroke="midnightblue" points="344.958,-19.0001 354.958,-15.5 344.958,-12.0001 344.958,-19.0001"/>
</g>
</g>
</svg>
