<?xml version="1.0" encoding="UTF-8" standalone="no"?>
<!DOCTYPE svg PUBLIC "-//W3C//DTD SVG 1.1//EN"
 "http://www.w3.org/Graphics/SVG/1.1/DTD/svg11.dtd">
<!-- Generated by graphviz version 2.26.0 (20091210.2329)
 -->
<!-- Title: core/models/mmu_cache/lib/mmu_if.h Pages: 1 -->
<svg width="232pt" height="174pt"
 viewBox="0.00 0.00 232.00 174.00" xmlns="http://www.w3.org/2000/svg" xmlns:xlink="http://www.w3.org/1999/xlink">
<g id="graph1" class="graph" transform="scale(1 1) rotate(0) translate(4 170)">
<title>core/models/mmu_cache/lib/mmu_if.h</title>
<polygon fill="white" stroke="white" points="-4,5 -4,-170 229,-170 229,5 -4,5"/>
<!-- Node1 -->
<g id="node1" class="node"><title>Node1</title>
<polygon fill="#bfbfbf" stroke="black" points="0,-131 0,-165 126,-165 126,-131 0,-131"/>
<text text-anchor="start" x="8" y="-152" font-family="Helvetica,sans-Serif" font-size="10.00">core/models/mmu_cache</text>
<text text-anchor="middle" x="63" y="-139" font-family="Helvetica,sans-Serif" font-size="10.00">/lib/mmu_if.h</text>
</g>
<!-- Node2 -->
<g id="node3" class="node"><title>Node2</title>
<polygon fill="white" stroke="#bfbfbf" points="70,-0.5 70,-21.5 108,-21.5 108,-0.5 70,-0.5"/>
<text text-anchor="middle" x="89" y="-8.5" font-family="Helvetica,sans-Serif" font-size="10.00">tlm.h</text>
</g>
<!-- Node1&#45;&gt;Node2 -->
<g id="edge2" class="edge"><title>Node1&#45;&gt;Node2</title>
<path fill="none" stroke="midnightblue" d="M51.1453,-130.929C39.8894,-112.457 26.1743,-82.3772 37,-58 42.402,-45.8358 52.6801,-35.4865 62.6816,-27.6217"/>
<polygon fill="midnightblue" stroke="midnightblue" points="64.8946,-30.3395 70.9047,-21.6143 60.7652,-24.6872 64.8946,-30.3395"/>
</g>
<!-- Node3 -->
<g id="node5" class="node"><title>Node3</title>
<polygon fill="white" stroke="#bfbfbf" points="45.5,-65.5 45.5,-86.5 80.5,-86.5 80.5,-65.5 45.5,-65.5"/>
<text text-anchor="middle" x="63" y="-73.5" font-family="Helvetica,sans-Serif" font-size="10.00">map</text>
</g>
<!-- Node1&#45;&gt;Node3 -->
<g id="edge4" class="edge"><title>Node1&#45;&gt;Node3</title>
<path fill="none" stroke="midnightblue" d="M63,-130.937C63,-120.814 63,-107.898 63,-97.1329"/>
<polygon fill="midnightblue" stroke="midnightblue" points="66.5001,-96.901 63,-86.901 59.5001,-96.9011 66.5001,-96.901"/>
</g>
<!-- Node4 -->
<g id="node7" class="node"><title>Node4</title>
<a xlink:href="models_2mmu__cache_2lib_2defines_8h.html" target="_top" xlink:title="core/models/mmu_cache\l/lib/defines.h">
<polygon fill="white" stroke="black" points="98,-59 98,-93 224,-93 224,-59 98,-59"/>
<text text-anchor="start" x="106" y="-80" font-family="Helvetica,sans-Serif" font-size="10.00">core/models/mmu_cache</text>
<text text-anchor="middle" x="161" y="-67" font-family="Helvetica,sans-Serif" font-size="10.00">/lib/defines.h</text>
</a>
</g>
<!-- Node1&#45;&gt;Node4 -->
<g id="edge6" class="edge"><title>Node1&#45;&gt;Node4</title>
<path fill="none" stroke="midnightblue" d="M86.2246,-130.937C99.0678,-121.501 115.214,-109.639 129.212,-99.3541"/>
<polygon fill="midnightblue" stroke="midnightblue" points="131.616,-101.931 137.602,-93.19 127.471,-96.2902 131.616,-101.931"/>
</g>
<!-- Node4&#45;&gt;Node2 -->
<g id="edge8" class="edge"><title>Node4&#45;&gt;Node2</title>
<path fill="none" stroke="midnightblue" d="M142.083,-58.922C131.724,-49.5702 118.908,-38.0007 108.465,-28.5724"/>
<polygon fill="midnightblue" stroke="midnightblue" points="110.789,-25.9552 101.021,-21.8521 106.098,-31.1511 110.789,-25.9552"/>
</g>
</g>
</svg>
