<?xml version="1.0" encoding="UTF-8" standalone="no"?>
<!DOCTYPE svg PUBLIC "-//W3C//DTD SVG 1.1//EN"
 "http://www.w3.org/Graphics/SVG/1.1/DTD/svg11.dtd">
<!-- Generated by graphviz version 2.26.0 (20091210.2329)
 -->
<!-- Title: core/models/mmu_cache/lib/mmu_cache_base.h Pages: 1 -->
<!--zoomable 260 -->
<svg id="main" version="1.1" xmlns="http://www.w3.org/2000/svg" xmlns:xlink="http://www.w3.org/1999/xlink" xml:space="preserve" onload="init(evt)">
<style type="text/css"><![CDATA[
.edge:hover path { stroke: red; }
.edge:hover polygon { stroke: red; fill: red; }
]]></style>
<script type="text/javascript"><![CDATA[
var edges = document.getElementsByTagName('g');
if (edges && edges.length) {
  for (var i=0;i<edges.length;i++) {
    if (edges[i].id.substr(0,4)=='edge') {
      edges[i].setAttribute('class','edge');
    }
  }
}
]]></script>
        <defs>
                <circle id="rim" cx="0" cy="0" r="7"/>
                <circle id="rim2" cx="0" cy="0" r="3.5"/>
                <g id="zoomPlus">
                        <use xlink:href="#rim" fill="#404040">
                                <set attributeName="fill" to="#808080" begin="zoomplus.mouseover" end="zoomplus.mouseout"/>
                        </use>
                        <path d="M-4,0h8M0,-4v8" fill="none" stroke="white" stroke-width="1.5" pointer-events="none"/>
                </g>
                <g id="zoomMin">
                        <use xlink:href="#rim" fill="#404040">
                                <set attributeName="fill" to="#808080" begin="zoomminus.mouseover" end="zoomminus.mouseout"/>
                        </use>
                        <path d="M-4,0h8" fill="none" stroke="white" stroke-width="1.5" pointer-events="none"/>
                </g>
                <g id="dirArrow">
                        <path fill="none" stroke="white" stroke-width="1.5" d="M0,-3.0v7 M-2.5,-0.5L0,-3.0L2.5,-0.5"/>
                </g>
               <g id="resetDef">
                       <use xlink:href="#rim2" fill="#404040">
                               <set attributeName="fill" to="#808080" begin="reset.mouseover" end="reset.mouseout"/>
                       </use>
               </g>
        </defs>

<script type="text/javascript">
var viewWidth = 694;
var viewHeight = 260;
var sectionId = 'dynsection-1';
</script>
<script xlink:href="svgpan.js"/>
<svg id="graph" class="graph">
<g id="viewport">
<title>core/models/mmu_cache/lib/mmu_cache_base.h</title>
<polygon fill="white" stroke="white" points="-4,5 -4,-256 691,-256 691,5 -4,5"/>
<!-- Node1 -->
<g id="node1" class="node"><title>Node1</title>
<polygon fill="#bfbfbf" stroke="black" points="363,-217 363,-251 489,-251 489,-217 363,-217"/>
<text text-anchor="start" x="371" y="-238" font-family="Helvetica,sans-Serif" font-size="10.00">core/models/mmu_cache</text>
<text text-anchor="middle" x="426" y="-225" font-family="Helvetica,sans-Serif" font-size="10.00">/lib/mmu_cache_base.h</text>
</g>
<!-- Node2 -->
<g id="node3" class="node"><title>Node2</title>
<a xlink:href="leon3__mmu__cache_8h.html" target="_top" xlink:title="core/models/mmu_cache\l/lib/leon3_mmu_cache.h">
<polygon fill="white" stroke="black" points="219,-145 219,-179 345,-179 345,-145 219,-145"/>
<text text-anchor="start" x="227" y="-166" font-family="Helvetica,sans-Serif" font-size="10.00">core/models/mmu_cache</text>
<text text-anchor="middle" x="282" y="-153" font-family="Helvetica,sans-Serif" font-size="10.00">/lib/leon3_mmu_cache.h</text>
</a>
</g>
<!-- Node1&#45;&gt;Node2 -->
<g id="edge2" class="edge"><title>Node1&#45;&gt;Node2</title>
<path fill="none" stroke="midnightblue" d="M382.739,-212.369C361.503,-201.751 336.277,-189.138 316.38,-179.19"/>
<polygon fill="midnightblue" stroke="midnightblue" points="381.364,-215.595 391.874,-216.937 384.495,-209.334 381.364,-215.595"/>
</g>
<!-- Node7 -->
<g id="node13" class="node"><title>Node7</title>
<a xlink:href="mmu__cache_8h.html" target="_top" xlink:title="core/models/mmu_cache\l/lib/mmu_cache.h">
<polygon fill="white" stroke="black" points="363,-145 363,-179 489,-179 489,-145 363,-145"/>
<text text-anchor="start" x="371" y="-166" font-family="Helvetica,sans-Serif" font-size="10.00">core/models/mmu_cache</text>
<text text-anchor="middle" x="426" y="-153" font-family="Helvetica,sans-Serif" font-size="10.00">/lib/mmu_cache.h</text>
</a>
</g>
<!-- Node1&#45;&gt;Node7 -->
<g id="edge12" class="edge"><title>Node1&#45;&gt;Node7</title>
<path fill="none" stroke="midnightblue" d="M426,-206.719C426,-197.572 426,-187.625 426,-179.441"/>
<polygon fill="midnightblue" stroke="midnightblue" points="422.5,-206.937 426,-216.937 429.5,-206.937 422.5,-206.937"/>
</g>
<!-- Node10 -->
<g id="node20" class="node"><title>Node10</title>
<a xlink:href="mmu__cache__base_8cpp.html" target="_top" xlink:title="core/models/mmu_cache\l/lib/mmu_cache_base.cpp">
<polygon fill="white" stroke="black" points="506.5,-145 506.5,-179 637.5,-179 637.5,-145 506.5,-145"/>
<text text-anchor="start" x="514.5" y="-166" font-family="Helvetica,sans-Serif" font-size="10.00">core/models/mmu_cache</text>
<text text-anchor="middle" x="572" y="-153" font-family="Helvetica,sans-Serif" font-size="10.00">/lib/mmu_cache_base.cpp</text>
</a>
</g>
<!-- Node1&#45;&gt;Node10 -->
<g id="edge20" class="edge"><title>Node1&#45;&gt;Node10</title>
<path fill="none" stroke="midnightblue" d="M469.606,-212.495C491.28,-201.807 517.104,-189.072 537.396,-179.065"/>
<polygon fill="midnightblue" stroke="midnightblue" points="468.021,-209.375 460.6,-216.937 471.117,-215.653 468.021,-209.375"/>
</g>
<!-- Node3 -->
<g id="node5" class="node"><title>Node3</title>
<a xlink:href="leon3__mmu__cache_8cpp.html" target="_top" xlink:title="core/models/mmu_cache\l/lib/leon3_mmu_cache.cpp">
<polygon fill="white" stroke="black" points="-0.5,-73 -0.5,-107 132.5,-107 132.5,-73 -0.5,-73"/>
<text text-anchor="start" x="7.5" y="-94" font-family="Helvetica,sans-Serif" font-size="10.00">core/models/mmu_cache</text>
<text text-anchor="middle" x="66" y="-81" font-family="Helvetica,sans-Serif" font-size="10.00">/lib/leon3_mmu_cache.cpp</text>
</a>
</g>
<!-- Node2&#45;&gt;Node3 -->
<g id="edge4" class="edge"><title>Node2&#45;&gt;Node3</title>
<path fill="none" stroke="midnightblue" d="M221.321,-141.774C188.504,-130.835 148.422,-117.474 117.195,-107.065"/>
<polygon fill="midnightblue" stroke="midnightblue" points="220.217,-145.095 230.811,-144.937 222.431,-138.454 220.217,-145.095"/>
</g>
<!-- Node4 -->
<g id="node7" class="node"><title>Node4</title>
<a xlink:href="leon3mp_2sc__main_8cpp.html" target="_top" xlink:title="core/platforms/leon3mp\l/sc_main.cpp">
<polygon fill="white" stroke="black" points="149.5,-73 149.5,-107 268.5,-107 268.5,-73 149.5,-73"/>
<text text-anchor="start" x="157.5" y="-94" font-family="Helvetica,sans-Serif" font-size="10.00">core/platforms/leon3mp</text>
<text text-anchor="middle" x="209" y="-81" font-family="Helvetica,sans-Serif" font-size="10.00">/sc_main.cpp</text>
</a>
</g>
<!-- Node2&#45;&gt;Node4 -->
<g id="edge6" class="edge"><title>Node2&#45;&gt;Node4</title>
<path fill="none" stroke="midnightblue" d="M257.574,-137.908C247.369,-127.844 235.746,-116.38 226.429,-107.19"/>
<polygon fill="midnightblue" stroke="midnightblue" points="255.123,-140.407 264.7,-144.937 260.038,-135.423 255.123,-140.407"/>
</g>
<!-- Node5 -->
<g id="node9" class="node"><title>Node5</title>
<a xlink:href="leon3mp_8h.html" target="_top" xlink:title="core/platforms/newleon3mp\l/leon3mp.h">
<polygon fill="white" stroke="black" points="285.5,-73 285.5,-107 422.5,-107 422.5,-73 285.5,-73"/>
<text text-anchor="start" x="293.5" y="-94" font-family="Helvetica,sans-Serif" font-size="10.00">core/platforms/newleon3mp</text>
<text text-anchor="middle" x="354" y="-81" font-family="Helvetica,sans-Serif" font-size="10.00">/leon3mp.h</text>
</a>
</g>
<!-- Node2&#45;&gt;Node5 -->
<g id="edge8" class="edge"><title>Node2&#45;&gt;Node5</title>
<path fill="none" stroke="midnightblue" d="M306.329,-137.671C316.245,-127.755 327.485,-116.515 336.559,-107.441"/>
<polygon fill="midnightblue" stroke="midnightblue" points="303.659,-135.391 299.063,-144.937 308.609,-140.341 303.659,-135.391"/>
</g>
<!-- Node6 -->
<g id="node11" class="node"><title>Node6</title>
<a xlink:href="newleon3mp_2sc__main_8cpp.html" target="_top" xlink:title="core/platforms/newleon3mp\l/sc_main.cpp">
<polygon fill="white" stroke="black" points="285.5,-1 285.5,-35 422.5,-35 422.5,-1 285.5,-1"/>
<text text-anchor="start" x="293.5" y="-22" font-family="Helvetica,sans-Serif" font-size="10.00">core/platforms/newleon3mp</text>
<text text-anchor="middle" x="354" y="-9" font-family="Helvetica,sans-Serif" font-size="10.00">/sc_main.cpp</text>
</a>
</g>
<!-- Node5&#45;&gt;Node6 -->
<g id="edge10" class="edge"><title>Node5&#45;&gt;Node6</title>
<path fill="none" stroke="midnightblue" d="M354,-62.7193C354,-53.572 354,-43.6255 354,-35.4407"/>
<polygon fill="midnightblue" stroke="midnightblue" points="350.5,-62.937 354,-72.937 357.5,-62.937 350.5,-62.937"/>
</g>
<!-- Node7&#45;&gt;Node5 -->
<g id="edge18" class="edge"><title>Node7&#45;&gt;Node5</title>
<path fill="none" stroke="midnightblue" d="M401.671,-137.671C391.755,-127.755 380.515,-116.515 371.441,-107.441"/>
<polygon fill="midnightblue" stroke="midnightblue" points="399.391,-140.341 408.937,-144.937 404.341,-135.391 399.391,-140.341"/>
</g>
<!-- Node8 -->
<g id="node15" class="node"><title>Node8</title>
<a xlink:href="mmu__cache_8cpp.html" target="_top" xlink:title="core/models/mmu_cache\l/lib/mmu_cache.cpp">
<polygon fill="white" stroke="black" points="440,-73 440,-107 566,-107 566,-73 440,-73"/>
<text text-anchor="start" x="448" y="-94" font-family="Helvetica,sans-Serif" font-size="10.00">core/models/mmu_cache</text>
<text text-anchor="middle" x="503" y="-81" font-family="Helvetica,sans-Serif" font-size="10.00">/lib/mmu_cache.cpp</text>
</a>
</g>
<!-- Node7&#45;&gt;Node8 -->
<g id="edge14" class="edge"><title>Node7&#45;&gt;Node8</title>
<path fill="none" stroke="midnightblue" d="M451.765,-137.908C462.528,-127.844 474.788,-116.38 484.616,-107.19"/>
<polygon fill="midnightblue" stroke="midnightblue" points="449.162,-135.551 444.248,-144.937 453.943,-140.664 449.162,-135.551"/>
</g>
<!-- Node9 -->
<g id="node17" class="node"><title>Node9</title>
<a xlink:href="leon3processor_8h.html" target="_top" xlink:title="core/platforms/base\l/leon3processor.h">
<polygon fill="white" stroke="black" points="583.5,-73 583.5,-107 686.5,-107 686.5,-73 583.5,-73"/>
<text text-anchor="start" x="591.5" y="-94" font-family="Helvetica,sans-Serif" font-size="10.00">core/platforms/base</text>
<text text-anchor="middle" x="635" y="-81" font-family="Helvetica,sans-Serif" font-size="10.00">/leon3processor.h</text>
</a>
</g>
<!-- Node7&#45;&gt;Node9 -->
<g id="edge16" class="edge"><title>Node7&#45;&gt;Node9</title>
<path fill="none" stroke="midnightblue" d="M485.122,-141.633C516.799,-130.72 555.379,-117.429 585.464,-107.065"/>
<polygon fill="midnightblue" stroke="midnightblue" points="483.845,-138.371 475.53,-144.937 486.125,-144.989 483.845,-138.371"/>
</g>
</g>
</svg>
        <g id="navigator" transform="translate(0 0)" fill="#404254">
                <rect fill="#f2f5e9" fill-opacity="0.5" stroke="#606060" stroke-width=".5" x="0" y="0" width="60" height="60"/>
                <use id="zoomplus" xlink:href="#zoomPlus" x="17" y="9" onmousedown="handleZoom(evt,'in')"/>
                <use id="zoomminus" xlink:href="#zoomMin" x="42" y="9" onmousedown="handleZoom(evt,'out')"/>
                <use id="reset" xlink:href="#resetDef" x="30" y="36" onmousedown="handleReset()"/>
                <g id="arrowUp" xlink:href="#dirArrow" transform="translate(30 24)" onmousedown="handlePan(0,-1)">
                  <use xlink:href="#rim" fill="#404040">
                        <set attributeName="fill" to="#808080" begin="arrowUp.mouseover" end="arrowUp.mouseout"/>
                  </use>
                  <path fill="none" stroke="white" stroke-width="1.5" d="M0,-3.0v7 M-2.5,-0.5L0,-3.0L2.5,-0.5"/>
                </g>
                <g id="arrowRight" xlink:href="#dirArrow" transform="rotate(90) translate(36 -43)" onmousedown="handlePan(1,0)">
                  <use xlink:href="#rim" fill="#404040">
                        <set attributeName="fill" to="#808080" begin="arrowRight.mouseover" end="arrowRight.mouseout"/>
                  </use>
                  <path fill="none" stroke="white" stroke-width="1.5" d="M0,-3.0v7 M-2.5,-0.5L0,-3.0L2.5,-0.5"/>
                </g>
                <g id="arrowDown" xlink:href="#dirArrow" transform="rotate(180) translate(-30 -48)" onmousedown="handlePan(0,1)">
                  <use xlink:href="#rim" fill="#404040">
                        <set attributeName="fill" to="#808080" begin="arrowDown.mouseover" end="arrowDown.mouseout"/>
                  </use>
                  <path fill="none" stroke="white" stroke-width="1.5" d="M0,-3.0v7 M-2.5,-0.5L0,-3.0L2.5,-0.5"/>
                </g>
                <g id="arrowLeft" xlink:href="#dirArrow" transform="rotate(270) translate(-36 17)" onmousedown="handlePan(-1,0)">
                  <use xlink:href="#rim" fill="#404040">
                        <set attributeName="fill" to="#808080" begin="arrowLeft.mouseover" end="arrowLeft.mouseout"/>
                  </use>
                  <path fill="none" stroke="white" stroke-width="1.5" d="M0,-3.0v7 M-2.5,-0.5L0,-3.0L2.5,-0.5"/>
                </g>
        </g>
        <svg viewBox="0 0 15 15" width="100%" height="30px" preserveAspectRatio="xMaxYMin meet">
         <g id="arrow_out" transform="scale(0.3 0.3)">
          <a xlink:href="mmu__cache__base_8h__dep__incl_org.svg" target="_base">
           <rect id="button" ry="5" rx="5" y="6" x="6" height="38" width="38"
                fill="#f2f5e9" fill-opacity="0.5" stroke="#606060" stroke-width="1.0"/>
           <path id="arrow"
             d="M 11.500037,31.436501 C 11.940474,20.09759 22.043105,11.32322 32.158766,21.979434 L 37.068811,17.246167 C 37.068811,17.246167 37.088388,32 37.088388,32 L 22.160133,31.978069 C 22.160133,31.978069 26.997745,27.140456 26.997745,27.140456 C 18.528582,18.264221 13.291696,25.230495 11.500037,31.436501 z"
             style="fill:#404040;"/>
          </a>
         </g>
        </svg>
</svg>
