<?xml version="1.0" encoding="UTF-8" standalone="no"?>
<!DOCTYPE svg PUBLIC "-//W3C//DTD SVG 1.1//EN"
 "http://www.w3.org/Graphics/SVG/1.1/DTD/svg11.dtd">
<!-- Generated by graphviz version 2.26.0 (20091210.2329)
 -->
<!-- Title: core/models/irqmp/irqmp.h Pages: 1 -->
<svg width="444pt" height="246pt"
 viewBox="0.00 0.00 444.00 246.00" xmlns="http://www.w3.org/2000/svg" xmlns:xlink="http://www.w3.org/1999/xlink">
<g id="graph1" class="graph" transform="scale(1 1) rotate(0) translate(4 242)">
<title>core/models/irqmp/irqmp.h</title>
<polygon fill="white" stroke="white" points="-4,5 -4,-242 441,-242 441,5 -4,5"/>
<!-- Node1 -->
<g id="node1" class="node"><title>Node1</title>
<polygon fill="#bfbfbf" stroke="black" points="184,-216.5 184,-237.5 316,-237.5 316,-216.5 184,-216.5"/>
<text text-anchor="middle" x="250" y="-224.5" font-family="Helvetica,sans-Serif" font-size="10.00">core/models/irqmp/irqmp.h</text>
</g>
<!-- Node2 -->
<g id="node3" class="node"><title>Node2</title>
<a xlink:href="irqmp_8cpp.html" target="_top" xlink:title="core/models/irqmp/irqmp.cpp">
<polygon fill="white" stroke="black" points="-0.5,-151.5 -0.5,-172.5 142.5,-172.5 142.5,-151.5 -0.5,-151.5"/>
<text text-anchor="middle" x="71" y="-159.5" font-family="Helvetica,sans-Serif" font-size="10.00">core/models/irqmp/irqmp.cpp</text>
</a>
</g>
<!-- Node1&#45;&gt;Node2 -->
<g id="edge2" class="edge"><title>Node1&#45;&gt;Node2</title>
<path fill="none" stroke="midnightblue" d="M211.396,-212.982C177.998,-200.854 130.436,-183.583 100.145,-172.584"/>
<polygon fill="midnightblue" stroke="midnightblue" points="210.248,-216.288 220.842,-216.412 212.637,-209.709 210.248,-216.288"/>
</g>
<!-- Node3 -->
<g id="node5" class="node"><title>Node3</title>
<a xlink:href="ambabase_8h.html" target="_top" xlink:title="core/platforms/base\l/ambabase.h">
<polygon fill="white" stroke="black" points="159.5,-145 159.5,-179 262.5,-179 262.5,-145 159.5,-145"/>
<text text-anchor="start" x="167.5" y="-166" font-family="Helvetica,sans-Serif" font-size="10.00">core/platforms/base</text>
<text text-anchor="middle" x="211" y="-153" font-family="Helvetica,sans-Serif" font-size="10.00">/ambabase.h</text>
</a>
</g>
<!-- Node1&#45;&gt;Node3 -->
<g id="edge4" class="edge"><title>Node1&#45;&gt;Node3</title>
<path fill="none" stroke="midnightblue" d="M238.343,-207.572C232.914,-198.523 226.51,-187.851 221.266,-179.11"/>
<polygon fill="midnightblue" stroke="midnightblue" points="235.414,-209.492 243.56,-216.267 241.416,-205.891 235.414,-209.492"/>
</g>
<!-- Node5 -->
<g id="node9" class="node"><title>Node5</title>
<a xlink:href="leon3mp_8h.html" target="_top" xlink:title="core/platforms/newleon3mp\l/leon3mp.h">
<polygon fill="white" stroke="black" points="221.5,-73 221.5,-107 358.5,-107 358.5,-73 221.5,-73"/>
<text text-anchor="start" x="229.5" y="-94" font-family="Helvetica,sans-Serif" font-size="10.00">core/platforms/newleon3mp</text>
<text text-anchor="middle" x="290" y="-81" font-family="Helvetica,sans-Serif" font-size="10.00">/leon3mp.h</text>
</a>
</g>
<!-- Node1&#45;&gt;Node5 -->
<g id="edge14" class="edge"><title>Node1&#45;&gt;Node5</title>
<path fill="none" stroke="midnightblue" d="M259.944,-207.256C263.809,-198.991 268.016,-189.185 271,-180 279.043,-155.244 284.546,-125.526 287.484,-107.201"/>
<polygon fill="midnightblue" stroke="midnightblue" points="256.71,-205.903 255.503,-216.429 263.011,-208.953 256.71,-205.903"/>
</g>
<!-- Node7 -->
<g id="node13" class="node"><title>Node7</title>
<a xlink:href="leon3mp_2sc__main_8cpp.html" target="_top" xlink:title="core/platforms/leon3mp\l/sc_main.cpp">
<polygon fill="white" stroke="black" points="317.5,-145 317.5,-179 436.5,-179 436.5,-145 317.5,-145"/>
<text text-anchor="start" x="325.5" y="-166" font-family="Helvetica,sans-Serif" font-size="10.00">core/platforms/leon3mp</text>
<text text-anchor="middle" x="377" y="-153" font-family="Helvetica,sans-Serif" font-size="10.00">/sc_main.cpp</text>
</a>
</g>
<!-- Node1&#45;&gt;Node7 -->
<g id="edge12" class="edge"><title>Node1&#45;&gt;Node7</title>
<path fill="none" stroke="midnightblue" d="M279.813,-211.742C298.882,-201.982 323.657,-189.302 343.419,-179.187"/>
<polygon fill="midnightblue" stroke="midnightblue" points="277.995,-208.74 270.687,-216.412 281.184,-214.971 277.995,-208.74"/>
</g>
<!-- Node4 -->
<g id="node7" class="node"><title>Node4</title>
<a xlink:href="leon3processor_8h.html" target="_top" xlink:title="core/platforms/base\l/leon3processor.h">
<polygon fill="white" stroke="black" points="101.5,-73 101.5,-107 204.5,-107 204.5,-73 101.5,-73"/>
<text text-anchor="start" x="109.5" y="-94" font-family="Helvetica,sans-Serif" font-size="10.00">core/platforms/base</text>
<text text-anchor="middle" x="153" y="-81" font-family="Helvetica,sans-Serif" font-size="10.00">/leon3processor.h</text>
</a>
</g>
<!-- Node3&#45;&gt;Node4 -->
<g id="edge6" class="edge"><title>Node3&#45;&gt;Node4</title>
<path fill="none" stroke="midnightblue" d="M190.93,-137.086C183.059,-127.315 174.216,-116.337 167.049,-107.441"/>
<polygon fill="midnightblue" stroke="midnightblue" points="188.256,-139.345 197.255,-144.937 193.707,-134.954 188.256,-139.345"/>
</g>
<!-- Node3&#45;&gt;Node5 -->
<g id="edge8" class="edge"><title>Node3&#45;&gt;Node5</title>
<path fill="none" stroke="midnightblue" d="M237.434,-137.908C248.477,-127.844 261.055,-116.38 271.139,-107.19"/>
<polygon fill="midnightblue" stroke="midnightblue" points="234.755,-135.614 229.722,-144.937 239.47,-140.788 234.755,-135.614"/>
</g>
<!-- Node6 -->
<g id="node11" class="node"><title>Node6</title>
<a xlink:href="newleon3mp_2sc__main_8cpp.html" target="_top" xlink:title="core/platforms/newleon3mp\l/sc_main.cpp">
<polygon fill="white" stroke="black" points="221.5,-1 221.5,-35 358.5,-35 358.5,-1 221.5,-1"/>
<text text-anchor="start" x="229.5" y="-22" font-family="Helvetica,sans-Serif" font-size="10.00">core/platforms/newleon3mp</text>
<text text-anchor="middle" x="290" y="-9" font-family="Helvetica,sans-Serif" font-size="10.00">/sc_main.cpp</text>
</a>
</g>
<!-- Node5&#45;&gt;Node6 -->
<g id="edge10" class="edge"><title>Node5&#45;&gt;Node6</title>
<path fill="none" stroke="midnightblue" d="M290,-62.7193C290,-53.572 290,-43.6255 290,-35.4407"/>
<polygon fill="midnightblue" stroke="midnightblue" points="286.5,-62.937 290,-72.937 293.5,-62.937 286.5,-62.937"/>
</g>
</g>
</svg>
