<?xml version="1.0" encoding="UTF-8" standalone="no"?>
<!DOCTYPE svg PUBLIC "-//W3C//DTD SVG 1.1//EN"
 "http://www.w3.org/Graphics/SVG/1.1/DTD/svg11.dtd">
<!-- Generated by graphviz version 2.38.0 (20140413.2041)
 -->
<!-- Title: core/models/mmu_cache/lib/mmu.h Pages: 1 -->
<svg width="2787pt" height="472pt"
 viewBox="0.00 0.00 2787.14 472.00" xmlns="http://www.w3.org/2000/svg" xmlns:xlink="http://www.w3.org/1999/xlink">
<g id="graph0" class="graph" transform="scale(1 1) rotate(0) translate(4 468)">
<title>core/models/mmu_cache/lib/mmu.h</title>
<polygon fill="white" stroke="none" points="-4,4 -4,-468 2783.14,-468 2783.14,4 -4,4"/>
<!-- Node1 -->
<g id="node1" class="node"><title>Node1</title>
<polygon fill="#bfbfbf" stroke="black" points="487,-435.5 487,-463.5 614.714,-463.5 614.714,-435.5 487,-435.5"/>
<text text-anchor="start" x="495" y="-451.5" font-family="Helvetica,sans-Serif" font-size="10.00">core/models/mmu_cache</text>
<text text-anchor="middle" x="550.857" y="-441.5" font-family="Helvetica,sans-Serif" font-size="10.00">/lib/mmu.h</text>
</g>
<!-- Node2 -->
<g id="node2" class="node"><title>Node2</title>
<polygon fill="white" stroke="#bfbfbf" points="212.13,-190.5 212.13,-208.5 247.583,-208.5 247.583,-190.5 212.13,-190.5"/>
<text text-anchor="middle" x="229.857" y="-196.5" font-family="Helvetica,sans-Serif" font-size="10.00">map</text>
</g>
<!-- Node1&#45;&gt;Node2 -->
<g id="edge1" class="edge"><title>Node1&#45;&gt;Node2</title>
<path fill="none" stroke="midnightblue" d="M486.902,-441.876C422.5,-431.79 324.764,-406.579 267.857,-344 235.559,-308.483 230.144,-248.677 229.59,-218.733"/>
<polygon fill="midnightblue" stroke="midnightblue" points="233.09,-218.509 229.575,-208.514 226.09,-218.519 233.09,-218.509"/>
</g>
<!-- Node3 -->
<g id="node3" class="node"><title>Node3</title>
<polygon fill="white" stroke="#bfbfbf" points="2732.57,-380.5 2732.57,-398.5 2779.14,-398.5 2779.14,-380.5 2732.57,-380.5"/>
<text text-anchor="middle" x="2755.86" y="-386.5" font-family="Helvetica,sans-Serif" font-size="10.00">math.h</text>
</g>
<!-- Node1&#45;&gt;Node3 -->
<g id="edge2" class="edge"><title>Node1&#45;&gt;Node3</title>
<path fill="none" stroke="midnightblue" d="M614.766,-448.79C927.244,-449.938 2296.24,-451.812 2718.86,-399 2720.11,-398.844 2721.38,-398.663 2722.66,-398.463"/>
<polygon fill="midnightblue" stroke="midnightblue" points="2723.31,-401.902 2732.5,-396.62 2722.02,-395.021 2723.31,-401.902"/>
</g>
<!-- Node4 -->
<g id="node4" class="node"><title>Node4</title>
<g id="a_node4"><a xlink:href="base_8h.html" target="_top" xlink:title="core/common/base.h">
<polygon fill="white" stroke="black" points="1852.17,-380.5 1852.17,-398.5 1961.55,-398.5 1961.55,-380.5 1852.17,-380.5"/>
<text text-anchor="middle" x="1906.86" y="-386.5" font-family="Helvetica,sans-Serif" font-size="10.00">core/common/base.h</text>
</a>
</g>
</g>
<!-- Node1&#45;&gt;Node4 -->
<g id="edge3" class="edge"><title>Node1&#45;&gt;Node4</title>
<path fill="none" stroke="midnightblue" d="M614.893,-445.761C842.642,-436.02 1612.02,-403.111 1841.64,-393.29"/>
<polygon fill="midnightblue" stroke="midnightblue" points="1842,-396.778 1851.84,-392.853 1841.7,-389.784 1842,-396.778"/>
</g>
<!-- Node5 -->
<g id="node5" class="node"><title>Node5</title>
<g id="a_node5"><a xlink:href="systemc_8h.html" target="_top" xlink:title="core/common/systemc.h">
<polygon fill="white" stroke="black" points="2508.67,-65.5 2508.67,-83.5 2633.04,-83.5 2633.04,-65.5 2508.67,-65.5"/>
<text text-anchor="middle" x="2570.86" y="-71.5" font-family="Helvetica,sans-Serif" font-size="10.00">core/common/systemc.h</text>
</a>
</g>
</g>
<!-- Node1&#45;&gt;Node5 -->
<g id="edge54" class="edge"><title>Node1&#45;&gt;Node5</title>
<path fill="none" stroke="midnightblue" d="M614.737,-448.424C971.835,-447.589 2704.86,-437.999 2704.86,-330.5 2704.86,-330.5 2704.86,-330.5 2704.86,-198.5 2704.86,-159.139 2692.17,-147.341 2663.86,-120 2648.36,-105.035 2626.87,-94.3047 2608.46,-87.1355"/>
<polygon fill="midnightblue" stroke="midnightblue" points="2609.47,-83.7796 2598.88,-83.6112 2607.06,-90.349 2609.47,-83.7796"/>
</g>
<!-- Node10 -->
<g id="node10" class="node"><title>Node10</title>
<g id="a_node10"><a xlink:href="gs__config_8h.html" target="_top" xlink:title="core/common/gs_config.h">
<polygon fill="white" stroke="black" points="843.606,-320.5 843.606,-338.5 974.108,-338.5 974.108,-320.5 843.606,-320.5"/>
<text text-anchor="middle" x="908.857" y="-326.5" font-family="Helvetica,sans-Serif" font-size="10.00">core/common/gs_config.h</text>
</a>
</g>
</g>
<!-- Node1&#45;&gt;Node10 -->
<g id="edge55" class="edge"><title>Node1&#45;&gt;Node10</title>
<path fill="none" stroke="midnightblue" d="M590.537,-435.421C661.36,-412.077 808.333,-363.634 874.847,-341.71"/>
<polygon fill="midnightblue" stroke="midnightblue" points="876.031,-345.005 884.433,-338.55 873.84,-338.357 876.031,-345.005"/>
</g>
<!-- Node19 -->
<g id="node19" class="node"><title>Node19</title>
<g id="a_node19"><a xlink:href="vendian_8h.html" target="_top" xlink:title="core/common/vendian.h">
<polygon fill="white" stroke="black" points="758.495,-125.5 758.495,-143.5 881.219,-143.5 881.219,-125.5 758.495,-125.5"/>
<text text-anchor="middle" x="819.857" y="-131.5" font-family="Helvetica,sans-Serif" font-size="10.00">core/common/vendian.h</text>
</a>
</g>
</g>
<!-- Node1&#45;&gt;Node19 -->
<g id="edge72" class="edge"><title>Node1&#45;&gt;Node19</title>
<path fill="none" stroke="midnightblue" d="M555.183,-435.215C561.846,-413.541 573.857,-369.113 573.857,-330.5 573.857,-330.5 573.857,-330.5 573.857,-263.5 573.857,-227.604 567.187,-210.092 592.857,-185 614.694,-163.655 690.105,-150.243 748.081,-142.847"/>
<polygon fill="midnightblue" stroke="midnightblue" points="748.825,-146.282 758.32,-141.58 747.965,-139.335 748.825,-146.282"/>
</g>
<!-- Node42 -->
<g id="node42" class="node"><title>Node42</title>
<g id="a_node42"><a xlink:href="mmu__if_8h.html" target="_top" xlink:title="core/models/mmu_cache\l/lib/mmu_if.h">
<polygon fill="white" stroke="black" points="82,-250.5 82,-278.5 209.714,-278.5 209.714,-250.5 82,-250.5"/>
<text text-anchor="start" x="90" y="-266.5" font-family="Helvetica,sans-Serif" font-size="10.00">core/models/mmu_cache</text>
<text text-anchor="middle" x="145.857" y="-256.5" font-family="Helvetica,sans-Serif" font-size="10.00">/lib/mmu_if.h</text>
</a>
</g>
</g>
<!-- Node1&#45;&gt;Node42 -->
<g id="edge56" class="edge"><title>Node1&#45;&gt;Node42</title>
<path fill="none" stroke="midnightblue" d="M486.912,-445.308C404.154,-440.09 265.61,-427.328 223.857,-399 184.712,-372.442 162.499,-319.188 152.456,-288.576"/>
<polygon fill="midnightblue" stroke="midnightblue" points="155.718,-287.281 149.403,-278.773 149.035,-289.362 155.718,-287.281"/>
</g>
<!-- Node43 -->
<g id="node43" class="node"><title>Node43</title>
<g id="a_node43"><a xlink:href="models_2mmu__cache_2lib_2defines_8h.html" target="_top" xlink:title="core/models/mmu_cache\l/lib/defines.h">
<polygon fill="white" stroke="black" points="0,-185.5 0,-213.5 127.714,-213.5 127.714,-185.5 0,-185.5"/>
<text text-anchor="start" x="8" y="-201.5" font-family="Helvetica,sans-Serif" font-size="10.00">core/models/mmu_cache</text>
<text text-anchor="middle" x="63.8569" y="-191.5" font-family="Helvetica,sans-Serif" font-size="10.00">/lib/defines.h</text>
</a>
</g>
</g>
<!-- Node1&#45;&gt;Node43 -->
<g id="edge73" class="edge"><title>Node1&#45;&gt;Node43</title>
<path fill="none" stroke="midnightblue" d="M486.892,-443.722C400.038,-436.514 249.887,-421.29 199.857,-399 124.07,-365.234 91.9195,-354.196 56.8569,-279 48.7459,-261.605 51.6254,-239.704 55.8862,-223.458"/>
<polygon fill="midnightblue" stroke="midnightblue" points="59.2916,-224.285 58.7841,-213.702 52.5814,-222.292 59.2916,-224.285"/>
</g>
<!-- Node44 -->
<g id="node44" class="node"><title>Node44</title>
<g id="a_node44"><a xlink:href="tlb__adaptor_8h.html" target="_top" xlink:title="core/models/mmu_cache\l/lib/tlb_adaptor.h">
<polygon fill="white" stroke="black" points="277,-315.5 277,-343.5 404.714,-343.5 404.714,-315.5 277,-315.5"/>
<text text-anchor="start" x="285" y="-331.5" font-family="Helvetica,sans-Serif" font-size="10.00">core/models/mmu_cache</text>
<text text-anchor="middle" x="340.857" y="-321.5" font-family="Helvetica,sans-Serif" font-size="10.00">/lib/tlb_adaptor.h</text>
</a>
</g>
</g>
<!-- Node1&#45;&gt;Node44 -->
<g id="edge61" class="edge"><title>Node1&#45;&gt;Node44</title>
<path fill="none" stroke="midnightblue" d="M527.581,-435.421C489.974,-414.29 415.764,-372.59 373.094,-348.614"/>
<polygon fill="midnightblue" stroke="midnightblue" points="374.67,-345.485 364.237,-343.637 371.241,-351.588 374.67,-345.485"/>
</g>
<!-- Node45 -->
<g id="node45" class="node"><title>Node45</title>
<g id="a_node45"><a xlink:href="mmu__cache__if_8h.html" target="_top" xlink:title="core/models/mmu_cache\l/lib/mmu_cache_if.h">
<polygon fill="white" stroke="black" points="418,-250.5 418,-278.5 545.714,-278.5 545.714,-250.5 418,-250.5"/>
<text text-anchor="start" x="426" y="-266.5" font-family="Helvetica,sans-Serif" font-size="10.00">core/models/mmu_cache</text>
<text text-anchor="middle" x="481.857" y="-256.5" font-family="Helvetica,sans-Serif" font-size="10.00">/lib/mmu_cache_if.h</text>
</a>
</g>
</g>
<!-- Node1&#45;&gt;Node45 -->
<g id="edge71" class="edge"><title>Node1&#45;&gt;Node45</title>
<path fill="none" stroke="midnightblue" d="M545.895,-435.339C534.258,-404.476 505.094,-327.13 490.483,-288.378"/>
<polygon fill="midnightblue" stroke="midnightblue" points="493.577,-286.664 486.774,-278.542 487.027,-289.133 493.577,-286.664"/>
</g>
<!-- Node4&#45;&gt;Node5 -->
<g id="edge4" class="edge"><title>Node4&#45;&gt;Node5</title>
<path fill="none" stroke="midnightblue" d="M1952.75,-380.464C2102.3,-353.832 2568.29,-267.149 2609.86,-214 2638.75,-177.052 2604.28,-119.792 2583.85,-91.8956"/>
<polygon fill="midnightblue" stroke="midnightblue" points="2586.41,-89.4777 2577.57,-83.6325 2580.83,-93.7124 2586.41,-89.4777"/>
</g>
<!-- Node4&#45;&gt;Node10 -->
<g id="edge10" class="edge"><title>Node4&#45;&gt;Node10</title>
<path fill="none" stroke="midnightblue" d="M1852.14,-385.32C1684.41,-375.572 1177.24,-346.097 984.385,-334.889"/>
<polygon fill="midnightblue" stroke="midnightblue" points="984.525,-331.392 974.339,-334.306 984.119,-338.38 984.525,-331.392"/>
</g>
<!-- Node32 -->
<g id="node32" class="node"><title>Node32</title>
<g id="a_node32"><a xlink:href="report_8h.html" target="_top" xlink:title="core/common/report.h">
<polygon fill="white" stroke="black" points="2560.95,-320.5 2560.95,-338.5 2674.77,-338.5 2674.77,-320.5 2560.95,-320.5"/>
<text text-anchor="middle" x="2617.86" y="-326.5" font-family="Helvetica,sans-Serif" font-size="10.00">core/common/report.h</text>
</a>
</g>
</g>
<!-- Node4&#45;&gt;Node32 -->
<g id="edge39" class="edge"><title>Node4&#45;&gt;Node32</title>
<path fill="none" stroke="midnightblue" d="M1961.86,-386.871C2072.87,-383.1 2331.46,-371.866 2546.86,-344 2554.38,-343.026 2562.32,-341.759 2570.05,-340.391"/>
<polygon fill="midnightblue" stroke="midnightblue" points="2570.84,-343.804 2580.04,-338.551 2569.57,-336.92 2570.84,-343.804"/>
</g>
<!-- Node34 -->
<g id="node34" class="node"><title>Node34</title>
<polygon fill="white" stroke="#bfbfbf" points="1802.27,-190.5 1802.27,-208.5 1909.45,-208.5 1909.45,-190.5 1802.27,-190.5"/>
<text text-anchor="middle" x="1855.86" y="-196.5" font-family="Helvetica,sans-Serif" font-size="10.00">greenreg/greenreg.h</text>
</g>
<!-- Node4&#45;&gt;Node34 -->
<g id="edge42" class="edge"><title>Node4&#45;&gt;Node34</title>
<path fill="none" stroke="midnightblue" d="M1899.1,-380.391C1891.57,-371.998 1880.47,-358.153 1874.86,-344 1858,-301.483 1855.51,-246.891 1855.48,-218.882"/>
<polygon fill="midnightblue" stroke="midnightblue" points="1858.98,-218.653 1855.58,-208.618 1851.98,-218.583 1858.98,-218.653"/>
</g>
<!-- Node35 -->
<g id="node35" class="node"><title>Node35</title>
<g id="a_node35"><a xlink:href="greenreg__ambasockets_8h.html" target="_top" xlink:title="core/common/grambasockets\l/greenreg_ambasockets.h">
<polygon fill="white" stroke="black" points="1884.28,-315.5 1884.28,-343.5 2031.44,-343.5 2031.44,-315.5 1884.28,-315.5"/>
<text text-anchor="start" x="1892.28" y="-331.5" font-family="Helvetica,sans-Serif" font-size="10.00">core/common/grambasockets</text>
<text text-anchor="middle" x="1957.86" y="-321.5" font-family="Helvetica,sans-Serif" font-size="10.00">/greenreg_ambasockets.h</text>
</a>
</g>
</g>
<!-- Node4&#45;&gt;Node35 -->
<g id="edge43" class="edge"><title>Node4&#45;&gt;Node35</title>
<path fill="none" stroke="midnightblue" d="M1913.95,-380.435C1920.51,-372.969 1930.57,-361.538 1939.39,-351.496"/>
<polygon fill="midnightblue" stroke="midnightblue" points="1942.15,-353.664 1946.12,-343.843 1936.89,-349.041 1942.15,-353.664"/>
</g>
<!-- Node5&#45;&gt;Node5 -->
<g id="edge5" class="edge"><title>Node5&#45;&gt;Node5</title>
<path fill="none" stroke="midnightblue" d="M2597.55,-83.5191C2623.12,-88.3462 2651.04,-85.3398 2651.04,-74.5 2651.04,-65.0575 2629.86,-61.559 2607.49,-64.0047"/>
<polygon fill="midnightblue" stroke="midnightblue" points="2606.93,-60.5499 2597.55,-65.4809 2607.96,-67.474 2606.93,-60.5499"/>
</g>
<!-- Node6 -->
<g id="node6" class="node"><title>Node6</title>
<polygon fill="white" stroke="#bfbfbf" points="206.022,-5.5 206.022,-23.5 243.692,-23.5 243.692,-5.5 206.022,-5.5"/>
<text text-anchor="middle" x="224.857" y="-11.5" font-family="Helvetica,sans-Serif" font-size="10.00">tlm.h</text>
</g>
<!-- Node5&#45;&gt;Node6 -->
<g id="edge6" class="edge"><title>Node5&#45;&gt;Node6</title>
<path fill="none" stroke="midnightblue" d="M2508.41,-71.9561C2163.18,-63.4211 495.129,-22.1819 253.947,-16.2192"/>
<polygon fill="midnightblue" stroke="midnightblue" points="253.931,-12.7178 243.848,-15.9695 253.758,-19.7157 253.931,-12.7178"/>
</g>
<!-- Node7 -->
<g id="node7" class="node"><title>Node7</title>
<polygon fill="white" stroke="#bfbfbf" points="2636.12,-0.5 2636.12,-28.5 2751.6,-28.5 2751.6,-0.5 2636.12,-0.5"/>
<text text-anchor="start" x="2644.12" y="-16.5" font-family="Helvetica,sans-Serif" font-size="10.00">tlm_utils/simple_target</text>
<text text-anchor="middle" x="2693.86" y="-6.5" font-family="Helvetica,sans-Serif" font-size="10.00">_socket.h</text>
</g>
<!-- Node5&#45;&gt;Node7 -->
<g id="edge7" class="edge"><title>Node5&#45;&gt;Node7</title>
<path fill="none" stroke="midnightblue" d="M2587.96,-65.4353C2605.71,-57.064 2634.03,-43.709 2656.92,-32.9159"/>
<polygon fill="midnightblue" stroke="midnightblue" points="2658.48,-36.0511 2666.03,-28.6203 2655.5,-29.7197 2658.48,-36.0511"/>
</g>
<!-- Node8 -->
<g id="node8" class="node"><title>Node8</title>
<polygon fill="white" stroke="#bfbfbf" points="2382.78,-0.5 2382.78,-28.5 2504.93,-28.5 2504.93,-0.5 2382.78,-0.5"/>
<text text-anchor="start" x="2390.78" y="-16.5" font-family="Helvetica,sans-Serif" font-size="10.00">tlm_utils/simple_initiator</text>
<text text-anchor="middle" x="2443.86" y="-6.5" font-family="Helvetica,sans-Serif" font-size="10.00">_socket.h</text>
</g>
<!-- Node5&#45;&gt;Node8 -->
<g id="edge8" class="edge"><title>Node5&#45;&gt;Node8</title>
<path fill="none" stroke="midnightblue" d="M2553.2,-65.4353C2534.87,-57.064 2505.62,-43.709 2481.99,-32.9159"/>
<polygon fill="midnightblue" stroke="midnightblue" points="2483.14,-29.5909 2472.59,-28.6203 2480.23,-35.9583 2483.14,-29.5909"/>
</g>
<!-- Node9 -->
<g id="node9" class="node"><title>Node9</title>
<polygon fill="white" stroke="#bfbfbf" points="2523.12,-0.5 2523.12,-28.5 2618.6,-28.5 2618.6,-0.5 2523.12,-0.5"/>
<text text-anchor="start" x="2531.12" y="-16.5" font-family="Helvetica,sans-Serif" font-size="10.00">tlm_utils/peq_with</text>
<text text-anchor="middle" x="2570.86" y="-6.5" font-family="Helvetica,sans-Serif" font-size="10.00">_get.h</text>
</g>
<!-- Node5&#45;&gt;Node9 -->
<g id="edge9" class="edge"><title>Node5&#45;&gt;Node9</title>
<path fill="none" stroke="midnightblue" d="M2570.86,-65.4353C2570.86,-58.5603 2570.86,-48.3238 2570.86,-38.9057"/>
<polygon fill="midnightblue" stroke="midnightblue" points="2574.36,-38.8427 2570.86,-28.8428 2567.36,-38.8428 2574.36,-38.8427"/>
</g>
<!-- Node11 -->
<g id="node11" class="node"><title>Node11</title>
<polygon fill="white" stroke="#bfbfbf" points="854.16,-255.5 854.16,-273.5 963.554,-273.5 963.554,-255.5 854.16,-255.5"/>
<text text-anchor="middle" x="908.857" y="-261.5" font-family="Helvetica,sans-Serif" font-size="10.00">greencontrol/config.h</text>
</g>
<!-- Node10&#45;&gt;Node11 -->
<g id="edge11" class="edge"><title>Node10&#45;&gt;Node11</title>
<path fill="none" stroke="midnightblue" d="M908.857,-320.264C908.857,-311.064 908.857,-295.881 908.857,-283.833"/>
<polygon fill="midnightblue" stroke="midnightblue" points="912.357,-283.539 908.857,-273.539 905.357,-283.539 912.357,-283.539"/>
</g>
<!-- Node12 -->
<g id="node12" class="node"><title>Node12</title>
<g id="a_node12"><a xlink:href="gs__config_2gs__config_8h.html" target="_top" xlink:title="core/common/gs_config\l/gs_config.h">
<polygon fill="white" stroke="black" points="601.776,-250.5 601.776,-278.5 723.938,-278.5 723.938,-250.5 601.776,-250.5"/>
<text text-anchor="start" x="609.776" y="-266.5" font-family="Helvetica,sans-Serif" font-size="10.00">core/common/gs_config</text>
<text text-anchor="middle" x="662.857" y="-256.5" font-family="Helvetica,sans-Serif" font-size="10.00">/gs_config.h</text>
</a>
</g>
</g>
<!-- Node10&#45;&gt;Node12 -->
<g id="edge12" class="edge"><title>Node10&#45;&gt;Node12</title>
<path fill="none" stroke="midnightblue" d="M877.451,-320.457C838.795,-310.557 772.293,-293.526 723.541,-281.041"/>
<polygon fill="midnightblue" stroke="midnightblue" points="724.288,-277.619 713.732,-278.529 722.551,-284.401 724.288,-277.619"/>
</g>
<!-- Node14 -->
<g id="node14" class="node"><title>Node14</title>
<g id="a_node14"><a xlink:href="gs__config__class_8h.html" target="_top" xlink:title="core/common/gs_config\l/gs_config_class.h">
<polygon fill="white" stroke="black" points="1100.78,-250.5 1100.78,-278.5 1222.94,-278.5 1222.94,-250.5 1100.78,-250.5"/>
<text text-anchor="start" x="1108.78" y="-266.5" font-family="Helvetica,sans-Serif" font-size="10.00">core/common/gs_config</text>
<text text-anchor="middle" x="1161.86" y="-256.5" font-family="Helvetica,sans-Serif" font-size="10.00">/gs_config_class.h</text>
</a>
</g>
</g>
<!-- Node10&#45;&gt;Node14 -->
<g id="edge15" class="edge"><title>Node10&#45;&gt;Node14</title>
<path fill="none" stroke="midnightblue" d="M941.157,-320.457C980.996,-310.537 1049.59,-293.455 1099.76,-280.963"/>
<polygon fill="midnightblue" stroke="midnightblue" points="1100.68,-284.342 1109.53,-278.529 1098.98,-277.549 1100.68,-284.342"/>
</g>
<!-- Node12&#45;&gt;Node2 -->
<g id="edge14" class="edge"><title>Node12&#45;&gt;Node2</title>
<path fill="none" stroke="midnightblue" d="M601.737,-254.607C506.586,-240.763 326.806,-214.606 257.798,-204.565"/>
<polygon fill="midnightblue" stroke="midnightblue" points="258.104,-201.073 247.704,-203.097 257.096,-208 258.104,-201.073"/>
</g>
<!-- Node13 -->
<g id="node13" class="node"><title>Node13</title>
<polygon fill="white" stroke="#bfbfbf" points="601.63,-190.5 601.63,-208.5 642.083,-208.5 642.083,-190.5 601.63,-190.5"/>
<text text-anchor="middle" x="621.857" y="-196.5" font-family="Helvetica,sans-Serif" font-size="10.00">string</text>
</g>
<!-- Node12&#45;&gt;Node13 -->
<g id="edge13" class="edge"><title>Node12&#45;&gt;Node13</title>
<path fill="none" stroke="midnightblue" d="M654.362,-250.446C648.112,-240.844 639.565,-227.71 632.803,-217.32"/>
<polygon fill="midnightblue" stroke="midnightblue" points="635.601,-215.202 627.213,-208.73 629.734,-219.021 635.601,-215.202"/>
</g>
<!-- Node14&#45;&gt;Node13 -->
<g id="edge16" class="edge"><title>Node14&#45;&gt;Node13</title>
<path fill="none" stroke="midnightblue" d="M1100.65,-258.74C974.403,-248.751 693.316,-225.574 650.857,-214 649.199,-213.548 647.519,-213.008 645.845,-212.408"/>
<polygon fill="midnightblue" stroke="midnightblue" points="647.117,-209.147 636.541,-208.509 644.411,-215.603 647.117,-209.147"/>
</g>
<!-- Node15 -->
<g id="node15" class="node"><title>Node15</title>
<polygon fill="white" stroke="#bfbfbf" points="1785.68,-65.5 1785.68,-83.5 1840.03,-83.5 1840.03,-65.5 1785.68,-65.5"/>
<text text-anchor="middle" x="1812.86" y="-71.5" font-family="Helvetica,sans-Serif" font-size="10.00">iostream</text>
</g>
<!-- Node14&#45;&gt;Node15 -->
<g id="edge17" class="edge"><title>Node14&#45;&gt;Node15</title>
<path fill="none" stroke="midnightblue" d="M1223.19,-261.948C1366.13,-257.829 1712.56,-244.76 1754.86,-214 1794.3,-185.315 1807.07,-124.58 1811.09,-93.9646"/>
<polygon fill="midnightblue" stroke="midnightblue" points="1814.59,-94.1658 1812.23,-83.8353 1807.63,-93.3776 1814.59,-94.1658"/>
</g>
<!-- Node16 -->
<g id="node16" class="node"><title>Node16</title>
<polygon fill="white" stroke="#bfbfbf" points="660.076,-190.5 660.076,-208.5 711.638,-208.5 711.638,-190.5 660.076,-190.5"/>
<text text-anchor="middle" x="685.857" y="-196.5" font-family="Helvetica,sans-Serif" font-size="10.00">sstream</text>
</g>
<!-- Node14&#45;&gt;Node16 -->
<g id="edge18" class="edge"><title>Node14&#45;&gt;Node16</title>
<path fill="none" stroke="midnightblue" d="M1100.76,-258.59C997.153,-249.938 791.39,-231.257 720.857,-214 718.508,-213.425 716.105,-212.734 713.712,-211.97"/>
<polygon fill="midnightblue" stroke="midnightblue" points="714.695,-208.605 704.101,-208.551 712.349,-215.201 714.695,-208.605"/>
</g>
<!-- Node17 -->
<g id="node17" class="node"><title>Node17</title>
<polygon fill="white" stroke="#bfbfbf" points="729.49,-190.5 729.49,-208.5 832.224,-208.5 832.224,-190.5 729.49,-190.5"/>
<text text-anchor="middle" x="780.857" y="-196.5" font-family="Helvetica,sans-Serif" font-size="10.00">boost/tokenizer.hpp</text>
</g>
<!-- Node14&#45;&gt;Node17 -->
<g id="edge19" class="edge"><title>Node14&#45;&gt;Node17</title>
<path fill="none" stroke="midnightblue" d="M1100.7,-255.337C1035.96,-246.399 930.887,-231.049 840.857,-214 835.679,-213.019 830.267,-211.915 824.904,-210.771"/>
<polygon fill="midnightblue" stroke="midnightblue" points="825.242,-207.262 814.725,-208.545 823.746,-214.101 825.242,-207.262"/>
</g>
<!-- Node18 -->
<g id="node18" class="node"><title>Node18</title>
<g id="a_node18"><a xlink:href="common_8h.html" target="_top" xlink:title="core/common/common.h">
<polygon fill="white" stroke="black" points="1619.84,-190.5 1619.84,-208.5 1745.88,-208.5 1745.88,-190.5 1619.84,-190.5"/>
<text text-anchor="middle" x="1682.86" y="-196.5" font-family="Helvetica,sans-Serif" font-size="10.00">core/common/common.h</text>
</a>
</g>
</g>
<!-- Node14&#45;&gt;Node18 -->
<g id="edge20" class="edge"><title>Node14&#45;&gt;Node18</title>
<path fill="none" stroke="midnightblue" d="M1223.06,-257.899C1308.83,-249.771 1469.58,-233.524 1605.86,-214 1613.6,-212.89 1621.77,-211.596 1629.76,-210.256"/>
<polygon fill="midnightblue" stroke="midnightblue" points="1630.5,-213.681 1639.76,-208.545 1629.32,-206.781 1630.5,-213.681"/>
</g>
<!-- Node26 -->
<g id="node26" class="node"><title>Node26</title>
<g id="a_node26"><a xlink:href="gs__config__t_8h.html" target="_top" xlink:title="core/common/gs_config\l/gs_config_t.h">
<polygon fill="white" stroke="black" points="849.776,-185.5 849.776,-213.5 971.938,-213.5 971.938,-185.5 849.776,-185.5"/>
<text text-anchor="start" x="857.776" y="-201.5" font-family="Helvetica,sans-Serif" font-size="10.00">core/common/gs_config</text>
<text text-anchor="middle" x="910.857" y="-191.5" font-family="Helvetica,sans-Serif" font-size="10.00">/gs_config_t.h</text>
</a>
</g>
</g>
<!-- Node14&#45;&gt;Node26 -->
<g id="edge32" class="edge"><title>Node14&#45;&gt;Node26</title>
<path fill="none" stroke="midnightblue" d="M1109.85,-250.446C1069.97,-240.436 1014.8,-226.59 972.666,-216.014"/>
<polygon fill="midnightblue" stroke="midnightblue" points="973.349,-212.577 962.798,-213.537 971.645,-219.366 973.349,-212.577"/>
</g>
<!-- Node27 -->
<g id="node27" class="node"><title>Node27</title>
<g id="a_node27"><a xlink:href="gs__config__operator__macros_8h.html" target="_top" xlink:title="core/common/gs_config\l/gs_config_operator_macros.h">
<polygon fill="white" stroke="black" points="990.318,-185.5 990.318,-213.5 1141.4,-213.5 1141.4,-185.5 990.318,-185.5"/>
<text text-anchor="start" x="998.318" y="-201.5" font-family="Helvetica,sans-Serif" font-size="10.00">core/common/gs_config</text>
<text text-anchor="middle" x="1065.86" y="-191.5" font-family="Helvetica,sans-Serif" font-size="10.00">/gs_config_operator_macros.h</text>
</a>
</g>
</g>
<!-- Node14&#45;&gt;Node27 -->
<g id="edge33" class="edge"><title>Node14&#45;&gt;Node27</title>
<path fill="none" stroke="midnightblue" d="M1141.97,-250.446C1128.19,-241.408 1109.65,-229.241 1094.32,-219.179"/>
<polygon fill="midnightblue" stroke="midnightblue" points="1096,-216.097 1085.72,-213.537 1092.16,-221.95 1096,-216.097"/>
</g>
<!-- Node28 -->
<g id="node28" class="node"><title>Node28</title>
<g id="a_node28"><a xlink:href="gs__config__delegate_8h.html" target="_top" xlink:title="core/common/gs_config\l/gs_config_delegate.h">
<polygon fill="white" stroke="black" points="1159.78,-185.5 1159.78,-213.5 1281.94,-213.5 1281.94,-185.5 1159.78,-185.5"/>
<text text-anchor="start" x="1167.78" y="-201.5" font-family="Helvetica,sans-Serif" font-size="10.00">core/common/gs_config</text>
<text text-anchor="middle" x="1220.86" y="-191.5" font-family="Helvetica,sans-Serif" font-size="10.00">/gs_config_delegate.h</text>
</a>
</g>
</g>
<!-- Node14&#45;&gt;Node28 -->
<g id="edge34" class="edge"><title>Node14&#45;&gt;Node28</title>
<path fill="none" stroke="midnightblue" d="M1174.08,-250.446C1182.07,-241.915 1192.67,-230.596 1201.76,-220.89"/>
<polygon fill="midnightblue" stroke="midnightblue" points="1204.37,-223.228 1208.65,-213.537 1199.26,-218.443 1204.37,-223.228"/>
</g>
<!-- Node29 -->
<g id="node29" class="node"><title>Node29</title>
<g id="a_node29"><a xlink:href="gs__config__native_8hpp.html" target="_top" xlink:title="core/common/gs_config\l/gs_config_native.hpp">
<polygon fill="white" stroke="black" points="1299.78,-185.5 1299.78,-213.5 1421.94,-213.5 1421.94,-185.5 1299.78,-185.5"/>
<text text-anchor="start" x="1307.78" y="-201.5" font-family="Helvetica,sans-Serif" font-size="10.00">core/common/gs_config</text>
<text text-anchor="middle" x="1360.86" y="-191.5" font-family="Helvetica,sans-Serif" font-size="10.00">/gs_config_native.hpp</text>
</a>
</g>
</g>
<!-- Node14&#45;&gt;Node29 -->
<g id="edge35" class="edge"><title>Node14&#45;&gt;Node29</title>
<path fill="none" stroke="midnightblue" d="M1203.09,-250.446C1234.04,-240.648 1276.61,-227.172 1309.73,-216.687"/>
<polygon fill="midnightblue" stroke="midnightblue" points="1311.2,-219.892 1319.68,-213.537 1309.09,-213.218 1311.2,-219.892"/>
</g>
<!-- Node30 -->
<g id="node30" class="node"><title>Node30</title>
<g id="a_node30"><a xlink:href="gs__config__stdint_8hpp.html" target="_top" xlink:title="core/common/gs_config\l/gs_config_stdint.hpp">
<polygon fill="white" stroke="black" points="1286.78,-120.5 1286.78,-148.5 1408.94,-148.5 1408.94,-120.5 1286.78,-120.5"/>
<text text-anchor="start" x="1294.78" y="-136.5" font-family="Helvetica,sans-Serif" font-size="10.00">core/common/gs_config</text>
<text text-anchor="middle" x="1347.86" y="-126.5" font-family="Helvetica,sans-Serif" font-size="10.00">/gs_config_stdint.hpp</text>
</a>
</g>
</g>
<!-- Node14&#45;&gt;Node30 -->
<g id="edge36" class="edge"><title>Node14&#45;&gt;Node30</title>
<path fill="none" stroke="midnightblue" d="M1223.06,-260.536C1331.94,-254.632 1550.06,-239.71 1572.86,-214 1620.22,-160.588 1501.51,-143.515 1419.09,-138.059"/>
<polygon fill="midnightblue" stroke="midnightblue" points="1419.18,-134.558 1408.98,-137.436 1418.75,-141.545 1419.18,-134.558"/>
</g>
<!-- Node31 -->
<g id="node31" class="node"><title>Node31</title>
<g id="a_node31"><a xlink:href="gs__config__systemc_8hpp.html" target="_top" xlink:title="core/common/gs_config\l/gs_config_systemc.hpp">
<polygon fill="white" stroke="black" points="1440.22,-185.5 1440.22,-213.5 1563.5,-213.5 1563.5,-185.5 1440.22,-185.5"/>
<text text-anchor="start" x="1448.22" y="-201.5" font-family="Helvetica,sans-Serif" font-size="10.00">core/common/gs_config</text>
<text text-anchor="middle" x="1501.86" y="-191.5" font-family="Helvetica,sans-Serif" font-size="10.00">/gs_config_systemc.hpp</text>
</a>
</g>
</g>
<!-- Node14&#45;&gt;Node31 -->
<g id="edge38" class="edge"><title>Node14&#45;&gt;Node31</title>
<path fill="none" stroke="midnightblue" d="M1223.04,-252.348C1275.34,-242.791 1352.88,-228.564 1430.01,-214.152"/>
<polygon fill="midnightblue" stroke="midnightblue" points="1430.72,-217.58 1439.91,-212.302 1429.43,-210.7 1430.72,-217.58"/>
</g>
<!-- Node18&#45;&gt;Node5 -->
<g id="edge21" class="edge"><title>Node18&#45;&gt;Node5</title>
<path fill="none" stroke="midnightblue" d="M1740.78,-190.477C1898.34,-168.653 2334.15,-108.288 2502.89,-84.9142"/>
<polygon fill="midnightblue" stroke="midnightblue" points="2503.47,-88.3677 2512.89,-83.5287 2502.51,-81.4339 2503.47,-88.3677"/>
</g>
<!-- Node18&#45;&gt;Node19 -->
<g id="edge22" class="edge"><title>Node18&#45;&gt;Node19</title>
<path fill="none" stroke="midnightblue" d="M1622.69,-190.494C1606.53,-188.513 1589.04,-186.524 1572.86,-185 1323.06,-161.48 1025.6,-145.448 891.581,-138.863"/>
<polygon fill="midnightblue" stroke="midnightblue" points="891.602,-135.36 881.443,-138.368 891.26,-142.352 891.602,-135.36"/>
</g>
<!-- Node21 -->
<g id="node21" class="node"><title>Node21</title>
<g id="a_node21"><a xlink:href="verbose_8h.html" target="_top" xlink:title="core/common/verbose.h">
<polygon fill="white" stroke="black" points="1621.22,-125.5 1621.22,-143.5 1744.49,-143.5 1744.49,-125.5 1621.22,-125.5"/>
<text text-anchor="middle" x="1682.86" y="-131.5" font-family="Helvetica,sans-Serif" font-size="10.00">core/common/verbose.h</text>
</a>
</g>
</g>
<!-- Node18&#45;&gt;Node21 -->
<g id="edge24" class="edge"><title>Node18&#45;&gt;Node21</title>
<path fill="none" stroke="midnightblue" d="M1678.13,-190.264C1676.05,-180.969 1675.58,-165.567 1676.69,-153.461"/>
<polygon fill="midnightblue" stroke="midnightblue" points="1680.16,-153.945 1678.17,-143.539 1673.24,-152.915 1680.16,-153.945"/>
</g>
<!-- Node20 -->
<g id="node20" class="node"><title>Node20</title>
<polygon fill="white" stroke="#bfbfbf" points="795.736,-65.5 795.736,-83.5 843.978,-83.5 843.978,-65.5 795.736,-65.5"/>
<text text-anchor="middle" x="819.857" y="-71.5" font-family="Helvetica,sans-Serif" font-size="10.00">stdint.h</text>
</g>
<!-- Node19&#45;&gt;Node20 -->
<g id="edge23" class="edge"><title>Node19&#45;&gt;Node20</title>
<path fill="none" stroke="midnightblue" d="M819.857,-125.435C819.857,-117.389 819.857,-104.739 819.857,-94.1846"/>
<polygon fill="midnightblue" stroke="midnightblue" points="823.357,-93.8717 819.857,-83.8718 816.357,-93.8718 823.357,-93.8717"/>
</g>
<!-- Node21&#45;&gt;Node5 -->
<g id="edge31" class="edge"><title>Node21&#45;&gt;Node5</title>
<path fill="none" stroke="midnightblue" d="M1744.59,-129.468C1903.88,-119.064 2328.12,-91.3542 2498.52,-80.2246"/>
<polygon fill="midnightblue" stroke="midnightblue" points="2498.89,-83.7079 2508.64,-79.5635 2498.44,-76.7228 2498.89,-83.7079"/>
</g>
<!-- Node21&#45;&gt;Node15 -->
<g id="edge28" class="edge"><title>Node21&#45;&gt;Node15</title>
<path fill="none" stroke="midnightblue" d="M1700.93,-125.435C1722.74,-115.708 1759.62,-99.2511 1785.05,-87.9041"/>
<polygon fill="midnightblue" stroke="midnightblue" points="1786.81,-90.9539 1794.52,-83.6831 1783.96,-84.5613 1786.81,-90.9539"/>
</g>
<!-- Node21&#45;&gt;Node18 -->
<g id="edge30" class="edge"><title>Node21&#45;&gt;Node18</title>
<path fill="none" stroke="midnightblue" d="M1687.54,-143.539C1689.64,-152.747 1690.14,-168.128 1689.04,-180.281"/>
<polygon fill="midnightblue" stroke="midnightblue" points="1685.57,-179.864 1687.59,-190.264 1692.49,-180.873 1685.57,-179.864"/>
</g>
<!-- Node22 -->
<g id="node22" class="node"><title>Node22</title>
<polygon fill="white" stroke="#bfbfbf" points="1661.8,-65.5 1661.8,-83.5 1703.92,-83.5 1703.92,-65.5 1661.8,-65.5"/>
<text text-anchor="middle" x="1682.86" y="-71.5" font-family="Helvetica,sans-Serif" font-size="10.00">cstdio</text>
</g>
<!-- Node21&#45;&gt;Node22 -->
<g id="edge25" class="edge"><title>Node21&#45;&gt;Node22</title>
<path fill="none" stroke="midnightblue" d="M1682.86,-125.435C1682.86,-117.389 1682.86,-104.739 1682.86,-94.1846"/>
<polygon fill="midnightblue" stroke="midnightblue" points="1686.36,-93.8717 1682.86,-83.8718 1679.36,-93.8718 1686.36,-93.8717"/>
</g>
<!-- Node23 -->
<g id="node23" class="node"><title>Node23</title>
<polygon fill="white" stroke="#bfbfbf" points="1722.13,-65.5 1722.13,-83.5 1767.58,-83.5 1767.58,-65.5 1722.13,-65.5"/>
<text text-anchor="middle" x="1744.86" y="-71.5" font-family="Helvetica,sans-Serif" font-size="10.00">cstring</text>
</g>
<!-- Node21&#45;&gt;Node23 -->
<g id="edge26" class="edge"><title>Node21&#45;&gt;Node23</title>
<path fill="none" stroke="midnightblue" d="M1691.48,-125.435C1700.99,-116.533 1716.53,-101.995 1728.4,-90.8954"/>
<polygon fill="midnightblue" stroke="midnightblue" points="1731,-93.2593 1735.91,-83.8718 1726.21,-88.1474 1731,-93.2593"/>
</g>
<!-- Node24 -->
<g id="node24" class="node"><title>Node24</title>
<polygon fill="white" stroke="#bfbfbf" points="1514.35,-65.5 1514.35,-83.5 1565.37,-83.5 1565.37,-65.5 1514.35,-65.5"/>
<text text-anchor="middle" x="1539.86" y="-71.5" font-family="Helvetica,sans-Serif" font-size="10.00">iomanip</text>
</g>
<!-- Node21&#45;&gt;Node24 -->
<g id="edge27" class="edge"><title>Node21&#45;&gt;Node24</title>
<path fill="none" stroke="midnightblue" d="M1662.97,-125.435C1638.67,-115.579 1597.34,-98.813 1569.33,-87.4549"/>
<polygon fill="midnightblue" stroke="midnightblue" points="1570.61,-84.1984 1560.03,-83.6831 1567.98,-90.6851 1570.61,-84.1984"/>
</g>
<!-- Node25 -->
<g id="node25" class="node"><title>Node25</title>
<polygon fill="white" stroke="#bfbfbf" points="1583.63,-65.5 1583.63,-83.5 1644.09,-83.5 1644.09,-65.5 1583.63,-65.5"/>
<text text-anchor="middle" x="1613.86" y="-71.5" font-family="Helvetica,sans-Serif" font-size="10.00">streambuf</text>
</g>
<!-- Node21&#45;&gt;Node25 -->
<g id="edge29" class="edge"><title>Node21&#45;&gt;Node25</title>
<path fill="none" stroke="midnightblue" d="M1673.26,-125.435C1662.57,-116.448 1645.04,-101.715 1631.79,-90.5762"/>
<polygon fill="midnightblue" stroke="midnightblue" points="1633.72,-87.6271 1623.82,-83.8718 1629.22,-92.9855 1633.72,-87.6271"/>
</g>
<!-- Node30&#45;&gt;Node20 -->
<g id="edge37" class="edge"><title>Node30&#45;&gt;Node20</title>
<path fill="none" stroke="midnightblue" d="M1286.77,-126.79C1175.24,-114.538 942.038,-88.9214 854.26,-79.2791"/>
<polygon fill="midnightblue" stroke="midnightblue" points="854.377,-75.771 844.055,-78.1581 853.613,-82.7292 854.377,-75.771"/>
</g>
<!-- Node32&#45;&gt;Node5 -->
<g id="edge41" class="edge"><title>Node32&#45;&gt;Node5</title>
<path fill="none" stroke="midnightblue" d="M2624.71,-320.405C2632.09,-311.11 2643.37,-295.066 2647.86,-279 2658.76,-239.981 2684.6,-191.596 2642.86,-120 2634.3,-105.317 2618.77,-94.8175 2604.33,-87.719"/>
<polygon fill="midnightblue" stroke="midnightblue" points="2605.63,-84.4658 2595.07,-83.5356 2602.74,-90.8443 2605.63,-84.4658"/>
</g>
<!-- Node33 -->
<g id="node33" class="node"><title>Node33</title>
<polygon fill="white" stroke="#bfbfbf" points="2560.81,-255.5 2560.81,-273.5 2638.9,-273.5 2638.9,-255.5 2560.81,-255.5"/>
<text text-anchor="middle" x="2599.86" y="-261.5" font-family="Helvetica,sans-Serif" font-size="10.00">boost/any.hpp</text>
</g>
<!-- Node32&#45;&gt;Node33 -->
<g id="edge40" class="edge"><title>Node32&#45;&gt;Node33</title>
<path fill="none" stroke="midnightblue" d="M2615.5,-320.264C2612.85,-310.969 2608.45,-295.567 2604.99,-283.461"/>
<polygon fill="midnightblue" stroke="midnightblue" points="2608.27,-282.193 2602.15,-273.539 2601.54,-284.116 2608.27,-282.193"/>
</g>
<!-- Node35&#45;&gt;Node34 -->
<g id="edge44" class="edge"><title>Node35&#45;&gt;Node34</title>
<path fill="none" stroke="midnightblue" d="M1947.33,-315.284C1928.48,-291.629 1889.04,-242.141 1868.66,-216.567"/>
<polygon fill="midnightblue" stroke="midnightblue" points="1871.28,-214.239 1862.31,-208.6 1865.81,-218.601 1871.28,-214.239"/>
</g>
<!-- Node36 -->
<g id="node36" class="node"><title>Node36</title>
<g id="a_node36"><a xlink:href="gr__ambasockets_8h.html" target="_top" xlink:title="core/common/grambasockets\l/gr_ambasockets.h">
<polygon fill="white" stroke="black" points="2054.28,-250.5 2054.28,-278.5 2201.44,-278.5 2201.44,-250.5 2054.28,-250.5"/>
<text text-anchor="start" x="2062.28" y="-266.5" font-family="Helvetica,sans-Serif" font-size="10.00">core/common/grambasockets</text>
<text text-anchor="middle" x="2127.86" y="-256.5" font-family="Helvetica,sans-Serif" font-size="10.00">/gr_ambasockets.h</text>
</a>
</g>
</g>
<!-- Node35&#45;&gt;Node36 -->
<g id="edge45" class="edge"><title>Node35&#45;&gt;Node36</title>
<path fill="none" stroke="midnightblue" d="M1993.08,-315.446C2019.18,-305.774 2054.95,-292.52 2083.08,-282.096"/>
<polygon fill="midnightblue" stroke="midnightblue" points="2084.52,-285.294 2092.68,-278.537 2082.08,-278.73 2084.52,-285.294"/>
</g>
<!-- Node36&#45;&gt;Node15 -->
<g id="edge53" class="edge"><title>Node36&#45;&gt;Node15</title>
<path fill="none" stroke="midnightblue" d="M2201.63,-263.579C2293.48,-261.114 2432.39,-247.417 2380.86,-185 2312.89,-102.674 1966.03,-81.5656 1850.42,-76.7755"/>
<polygon fill="midnightblue" stroke="midnightblue" points="1850.41,-73.2726 1840.28,-76.3732 1850.13,-80.2671 1850.41,-73.2726"/>
</g>
<!-- Node36&#45;&gt;Node19 -->
<g id="edge51" class="edge"><title>Node36&#45;&gt;Node19</title>
<path fill="none" stroke="midnightblue" d="M2061.98,-250.465C2029.29,-242.511 1989.84,-230.622 1956.86,-214 1937.88,-204.439 1938.83,-192.254 1918.86,-185 1870.6,-167.47 1127.87,-144.461 891.508,-137.549"/>
<polygon fill="midnightblue" stroke="midnightblue" points="891.404,-134.044 881.307,-137.251 891.2,-141.041 891.404,-134.044"/>
</g>
<!-- Node36&#45;&gt;Node34 -->
<g id="edge46" class="edge"><title>Node36&#45;&gt;Node34</title>
<path fill="none" stroke="midnightblue" d="M2071.5,-250.446C2020.76,-238.694 1947.18,-221.653 1900.44,-210.826"/>
<polygon fill="midnightblue" stroke="midnightblue" points="1901.14,-207.395 1890.6,-208.548 1899.56,-214.214 1901.14,-207.395"/>
</g>
<!-- Node37 -->
<g id="node37" class="node"><title>Node37</title>
<polygon fill="white" stroke="#bfbfbf" points="2035.92,-185.5 2035.92,-213.5 2219.79,-213.5 2219.79,-185.5 2035.92,-185.5"/>
<text text-anchor="start" x="2043.92" y="-201.5" font-family="Helvetica,sans-Serif" font-size="10.00">greensocket/utils/greensocketaddress</text>
<text text-anchor="middle" x="2127.86" y="-191.5" font-family="Helvetica,sans-Serif" font-size="10.00">_base.h</text>
</g>
<!-- Node36&#45;&gt;Node37 -->
<g id="edge47" class="edge"><title>Node36&#45;&gt;Node37</title>
<path fill="none" stroke="midnightblue" d="M2127.86,-250.446C2127.86,-242.759 2127.86,-232.81 2127.86,-223.816"/>
<polygon fill="midnightblue" stroke="midnightblue" points="2131.36,-223.537 2127.86,-213.537 2124.36,-223.537 2131.36,-223.537"/>
</g>
<!-- Node38 -->
<g id="node38" class="node"><title>Node38</title>
<polygon fill="white" stroke="#bfbfbf" points="2238.21,-185.5 2238.21,-213.5 2371.51,-213.5 2371.51,-185.5 2238.21,-185.5"/>
<text text-anchor="start" x="2246.21" y="-201.5" font-family="Helvetica,sans-Serif" font-size="10.00">greenreg/greenreg_socket</text>
<text text-anchor="middle" x="2304.86" y="-191.5" font-family="Helvetica,sans-Serif" font-size="10.00">/transactor_if.h</text>
</g>
<!-- Node36&#45;&gt;Node38 -->
<g id="edge48" class="edge"><title>Node36&#45;&gt;Node38</title>
<path fill="none" stroke="midnightblue" d="M2164.53,-250.446C2191.82,-240.732 2229.27,-227.404 2258.61,-216.959"/>
<polygon fill="midnightblue" stroke="midnightblue" points="2259.98,-220.188 2268.23,-213.537 2257.63,-213.593 2259.98,-220.188"/>
</g>
<!-- Node39 -->
<g id="node39" class="node"><title>Node39</title>
<polygon fill="white" stroke="#bfbfbf" points="2428.12,-185.5 2428.12,-213.5 2533.6,-213.5 2533.6,-185.5 2428.12,-185.5"/>
<text text-anchor="start" x="2436.12" y="-201.5" font-family="Helvetica,sans-Serif" font-size="10.00">greenreg/framework</text>
<text text-anchor="middle" x="2480.86" y="-191.5" font-family="Helvetica,sans-Serif" font-size="10.00">/core/gr_common.h</text>
</g>
<!-- Node36&#45;&gt;Node39 -->
<g id="edge49" class="edge"><title>Node36&#45;&gt;Node39</title>
<path fill="none" stroke="midnightblue" d="M2201.73,-251.287C2259.54,-241.591 2341.91,-227.471 2413.86,-214 2415.14,-213.76 2416.43,-213.517 2417.73,-213.269"/>
<polygon fill="midnightblue" stroke="midnightblue" points="2418.7,-216.648 2427.85,-211.32 2417.37,-209.775 2418.7,-216.648"/>
</g>
<!-- Node40 -->
<g id="node40" class="node"><title>Node40</title>
<polygon fill="white" stroke="#bfbfbf" points="2551.18,-190.5 2551.18,-208.5 2600.53,-208.5 2600.53,-190.5 2551.18,-190.5"/>
<text text-anchor="middle" x="2575.86" y="-196.5" font-family="Helvetica,sans-Serif" font-size="10.00">amba.h</text>
</g>
<!-- Node36&#45;&gt;Node40 -->
<g id="edge50" class="edge"><title>Node36&#45;&gt;Node40</title>
<path fill="none" stroke="midnightblue" d="M2201.68,-260.69C2285.54,-256.126 2425.91,-244.301 2542.86,-214 2544.92,-213.466 2547.02,-212.833 2549.11,-212.135"/>
<polygon fill="midnightblue" stroke="midnightblue" points="2550.55,-215.334 2558.69,-208.546 2548.09,-208.779 2550.55,-215.334"/>
</g>
<!-- Node41 -->
<g id="node41" class="node"><title>Node41</title>
<polygon fill="white" stroke="#bfbfbf" points="1965.52,-190.5 1965.52,-208.5 2018.19,-208.5 2018.19,-190.5 1965.52,-190.5"/>
<text text-anchor="middle" x="1991.86" y="-196.5" font-family="Helvetica,sans-Serif" font-size="10.00">systemc</text>
</g>
<!-- Node36&#45;&gt;Node41 -->
<g id="edge52" class="edge"><title>Node36&#45;&gt;Node41</title>
<path fill="none" stroke="midnightblue" d="M2099.68,-250.446C2075.85,-239.409 2041.95,-223.706 2018.55,-212.867"/>
<polygon fill="midnightblue" stroke="midnightblue" points="2019.78,-209.576 2009.23,-208.548 2016.83,-215.927 2019.78,-209.576"/>
</g>
<!-- Node42&#45;&gt;Node2 -->
<g id="edge58" class="edge"><title>Node42&#45;&gt;Node2</title>
<path fill="none" stroke="midnightblue" d="M163.262,-250.446C177.111,-240.06 196.468,-225.542 210.745,-214.834"/>
<polygon fill="midnightblue" stroke="midnightblue" points="212.983,-217.53 218.883,-208.73 208.783,-211.93 212.983,-217.53"/>
</g>
<!-- Node42&#45;&gt;Node6 -->
<g id="edge57" class="edge"><title>Node42&#45;&gt;Node6</title>
<path fill="none" stroke="midnightblue" d="M150.104,-250.166C163.365,-208.537 204.013,-80.933 219.122,-33.502"/>
<polygon fill="midnightblue" stroke="midnightblue" points="222.463,-34.5466 222.163,-23.956 215.793,-32.4219 222.463,-34.5466"/>
</g>
<!-- Node42&#45;&gt;Node43 -->
<g id="edge59" class="edge"><title>Node42&#45;&gt;Node43</title>
<path fill="none" stroke="midnightblue" d="M128.866,-250.446C117.322,-241.577 101.856,-229.695 88.9061,-219.745"/>
<polygon fill="midnightblue" stroke="midnightblue" points="90.8878,-216.854 80.8256,-213.537 86.6231,-222.405 90.8878,-216.854"/>
</g>
<!-- Node43&#45;&gt;Node6 -->
<g id="edge60" class="edge"><title>Node43&#45;&gt;Node6</title>
<path fill="none" stroke="midnightblue" d="M71.5929,-185.433C86.7717,-160.408 122.35,-104.68 160.857,-65 173.892,-51.568 190.697,-38.708 203.815,-29.4636"/>
<polygon fill="midnightblue" stroke="midnightblue" points="205.966,-32.2326 212.217,-23.6787 201.996,-26.4672 205.966,-32.2326"/>
</g>
<!-- Node44&#45;&gt;Node6 -->
<g id="edge62" class="edge"><title>Node44&#45;&gt;Node6</title>
<path fill="none" stroke="midnightblue" d="M328.935,-315.421C310.17,-293.422 275.857,-246.857 275.857,-200.5 275.857,-200.5 275.857,-200.5 275.857,-133.5 275.857,-94.4441 252.025,-53.6435 236.943,-31.7344"/>
<polygon fill="midnightblue" stroke="midnightblue" points="239.769,-29.6681 231.111,-23.5615 234.071,-33.7344 239.769,-29.6681"/>
</g>
<!-- Node44&#45;&gt;Node19 -->
<g id="edge69" class="edge"><title>Node44&#45;&gt;Node19</title>
<path fill="none" stroke="midnightblue" d="M335.374,-315.38C324.672,-287.439 304.799,-221.627 337.857,-185 364.815,-155.132 620.684,-142.26 748.259,-137.663"/>
<polygon fill="midnightblue" stroke="midnightblue" points="748.464,-141.158 758.335,-137.307 748.217,-134.162 748.464,-141.158"/>
</g>
<!-- Node44&#45;&gt;Node21 -->
<g id="edge68" class="edge"><title>Node44&#45;&gt;Node21</title>
<path fill="none" stroke="midnightblue" d="M338.893,-315.176C335.472,-286.234 332.103,-217.611 370.857,-185 415.389,-147.526 1359.71,-151.481 1417.86,-149 1483.25,-146.21 1557.7,-142.358 1610.99,-139.483"/>
<polygon fill="midnightblue" stroke="midnightblue" points="1611.23,-142.975 1621.03,-138.939 1610.85,-135.985 1611.23,-142.975"/>
</g>
<!-- Node44&#45;&gt;Node42 -->
<g id="edge66" class="edge"><title>Node44&#45;&gt;Node42</title>
<path fill="none" stroke="midnightblue" d="M300.453,-315.446C270.124,-305.648 228.413,-292.172 195.961,-281.687"/>
<polygon fill="midnightblue" stroke="midnightblue" points="196.801,-278.281 186.209,-278.537 194.649,-284.942 196.801,-278.281"/>
</g>
<!-- Node44&#45;&gt;Node43 -->
<g id="edge70" class="edge"><title>Node44&#45;&gt;Node43</title>
<path fill="none" stroke="midnightblue" d="M276.926,-325.249C206.605,-320.253 99.9414,-308.006 72.8569,-279 59.2117,-264.387 58.1866,-240.968 59.8345,-223.507"/>
<polygon fill="midnightblue" stroke="midnightblue" points="63.3124,-223.902 61.117,-213.537 56.3696,-223.009 63.3124,-223.902"/>
</g>
<!-- Node44&#45;&gt;Node45 -->
<g id="edge63" class="edge"><title>Node44&#45;&gt;Node45</title>
<path fill="none" stroke="midnightblue" d="M370.072,-315.446C391.341,-305.943 420.35,-292.982 443.486,-282.644"/>
<polygon fill="midnightblue" stroke="midnightblue" points="444.977,-285.812 452.679,-278.537 442.121,-279.421 444.977,-285.812"/>
</g>
<!-- Node46 -->
<g id="node46" class="node"><title>Node46</title>
<g id="a_node46"><a xlink:href="mem__if_8h.html" target="_top" xlink:title="core/models/mmu_cache\l/lib/mem_if.h">
<polygon fill="white" stroke="black" points="380,-185.5 380,-213.5 507.714,-213.5 507.714,-185.5 380,-185.5"/>
<text text-anchor="start" x="388" y="-201.5" font-family="Helvetica,sans-Serif" font-size="10.00">core/models/mmu_cache</text>
<text text-anchor="middle" x="443.857" y="-191.5" font-family="Helvetica,sans-Serif" font-size="10.00">/lib/mem_if.h</text>
</a>
</g>
</g>
<!-- Node44&#45;&gt;Node46 -->
<g id="edge67" class="edge"><title>Node44&#45;&gt;Node46</title>
<path fill="none" stroke="midnightblue" d="M351.492,-315.284C369.302,-293.151 405.309,-248.404 426.726,-221.789"/>
<polygon fill="midnightblue" stroke="midnightblue" points="429.583,-223.821 433.126,-213.836 424.13,-219.433 429.583,-223.821"/>
</g>
<!-- Node45&#45;&gt;Node20 -->
<g id="edge65" class="edge"><title>Node45&#45;&gt;Node20</title>
<path fill="none" stroke="midnightblue" d="M492.209,-250.253C506.071,-233.244 532.146,-203.699 559.857,-185 633.889,-135.045 734.367,-100.7 786.058,-85.0716"/>
<polygon fill="midnightblue" stroke="midnightblue" points="787.136,-88.4025 795.723,-82.1965 785.14,-81.693 787.136,-88.4025"/>
</g>
<!-- Node45&#45;&gt;Node46 -->
<g id="edge64" class="edge"><title>Node45&#45;&gt;Node46</title>
<path fill="none" stroke="midnightblue" d="M473.983,-250.446C469.092,-242.337 462.682,-231.71 457.032,-222.343"/>
<polygon fill="midnightblue" stroke="midnightblue" points="459.882,-220.292 451.72,-213.537 453.888,-223.908 459.882,-220.292"/>
</g>
</g>
</svg>
