<?xml version="1.0" encoding="UTF-8" standalone="no"?>
<!DOCTYPE svg PUBLIC "-//W3C//DTD SVG 1.1//EN"
 "http://www.w3.org/Graphics/SVG/1.1/DTD/svg11.dtd">
<!-- Generated by graphviz version 2.26.0 (20091210.2329)
 -->
<!-- Title: core/models/mmu_cache/lib/mmu.h Pages: 1 -->
<svg width="2755pt" height="520pt"
 viewBox="0.00 0.00 2754.93 520.00" xmlns="http://www.w3.org/2000/svg" xmlns:xlink="http://www.w3.org/1999/xlink">
<g id="graph1" class="graph" transform="scale(1 1) rotate(0) translate(4 516)">
<title>core/models/mmu_cache/lib/mmu.h</title>
<polygon fill="white" stroke="white" points="-4,5 -4,-516 2751.93,-516 2751.93,5 -4,5"/>
<!-- Node1 -->
<g id="node1" class="node"><title>Node1</title>
<polygon fill="#bfbfbf" stroke="black" points="2131.93,-477 2131.93,-511 2257.93,-511 2257.93,-477 2131.93,-477"/>
<text text-anchor="start" x="2139.93" y="-498" font-family="Helvetica,sans-Serif" font-size="10.00">core/models/mmu_cache</text>
<text text-anchor="middle" x="2194.93" y="-485" font-family="Helvetica,sans-Serif" font-size="10.00">/lib/mmu.h</text>
</g>
<!-- Node2 -->
<g id="node3" class="node"><title>Node2</title>
<polygon fill="white" stroke="#bfbfbf" points="2096.43,-209.5 2096.43,-230.5 2131.43,-230.5 2131.43,-209.5 2096.43,-209.5"/>
<text text-anchor="middle" x="2113.93" y="-217.5" font-family="Helvetica,sans-Serif" font-size="10.00">map</text>
</g>
<!-- Node1&#45;&gt;Node2 -->
<g id="edge2" class="edge"><title>Node1&#45;&gt;Node2</title>
<path fill="none" stroke="midnightblue" d="M2172.77,-476.862C2161.95,-467.241 2149.82,-454.306 2142.93,-440 2110.54,-372.739 2110.57,-281.249 2112.5,-240.75"/>
<polygon fill="midnightblue" stroke="midnightblue" points="2115.99,-240.924 2113.07,-230.742 2109.01,-240.527 2115.99,-240.924"/>
</g>
<!-- Node3 -->
<g id="node5" class="node"><title>Node3</title>
<polygon fill="white" stroke="#bfbfbf" points="2700.43,-418.5 2700.43,-439.5 2747.43,-439.5 2747.43,-418.5 2700.43,-418.5"/>
<text text-anchor="middle" x="2723.93" y="-426.5" font-family="Helvetica,sans-Serif" font-size="10.00">math.h</text>
</g>
<!-- Node1&#45;&gt;Node3 -->
<g id="edge4" class="edge"><title>Node1&#45;&gt;Node3</title>
<path fill="none" stroke="midnightblue" d="M2258.01,-490.71C2352.16,-484.984 2534.68,-470.727 2686.93,-440 2688.02,-439.781 2689.11,-439.545 2690.22,-439.294"/>
<polygon fill="midnightblue" stroke="midnightblue" points="2691.39,-442.608 2700.21,-436.738 2689.65,-435.827 2691.39,-442.608"/>
</g>
<!-- Node4 -->
<g id="node7" class="node"><title>Node4</title>
<a xlink:href="base_8h.html" target="_top" xlink:title="core/common/base.h">
<polygon fill="white" stroke="black" points="1705.93,-418.5 1705.93,-439.5 1813.93,-439.5 1813.93,-418.5 1705.93,-418.5"/>
<text text-anchor="middle" x="1759.93" y="-426.5" font-family="Helvetica,sans-Serif" font-size="10.00">core/common/base.h</text>
</a>
</g>
<!-- Node1&#45;&gt;Node4 -->
<g id="edge6" class="edge"><title>Node1&#45;&gt;Node4</title>
<path fill="none" stroke="midnightblue" d="M2131.68,-484.548C2049.46,-472.262 1906.64,-450.921 1824.01,-438.575"/>
<polygon fill="midnightblue" stroke="midnightblue" points="1824.4,-435.094 1813.99,-437.078 1823.37,-442.017 1824.4,-435.094"/>
</g>
<!-- Node5 -->
<g id="node9" class="node"><title>Node5</title>
<a xlink:href="systemc_8h.html" target="_top" xlink:title="core/common/systemc.h">
<polygon fill="white" stroke="black" points="939.432,-72.5 939.432,-93.5 1064.43,-93.5 1064.43,-72.5 939.432,-72.5"/>
<text text-anchor="middle" x="1001.93" y="-80.5" font-family="Helvetica,sans-Serif" font-size="10.00">core/common/systemc.h</text>
</a>
</g>
<!-- Node1&#45;&gt;Node5 -->
<g id="edge112" class="edge"><title>Node1&#45;&gt;Node5</title>
<path fill="none" stroke="midnightblue" d="M2131.81,-493.635C1773.06,-491.157 6.93244,-473.403 6.93244,-364 6.93244,-364 6.93244,-364 6.93244,-220 6.93244,-198.946 -45.2027,-191.17 139.932,-130 213.812,-105.59 735.026,-89.8554 929.234,-84.7835"/>
<polygon fill="midnightblue" stroke="midnightblue" points="929.435,-88.2796 939.341,-84.5215 929.253,-81.282 929.435,-88.2796"/>
</g>
<!-- Node10 -->
<g id="node20" class="node"><title>Node10</title>
<a xlink:href="gs__config_8h.html" target="_top" xlink:title="core/common/gs_config.h">
<polygon fill="white" stroke="black" points="956.432,-353.5 956.432,-374.5 1085.43,-374.5 1085.43,-353.5 956.432,-353.5"/>
<text text-anchor="middle" x="1020.93" y="-361.5" font-family="Helvetica,sans-Serif" font-size="10.00">core/common/gs_config.h</text>
</a>
</g>
<!-- Node1&#45;&gt;Node10 -->
<g id="edge114" class="edge"><title>Node1&#45;&gt;Node10</title>
<path fill="none" stroke="midnightblue" d="M2131.64,-487.218C2037.04,-477.063 1853.17,-457.253 1696.93,-440 1478.57,-415.886 1220.62,-386.688 1095.91,-372.527"/>
<polygon fill="midnightblue" stroke="midnightblue" points="1096.04,-369.019 1085.71,-371.368 1095.25,-375.975 1096.04,-369.019"/>
</g>
<!-- Node19 -->
<g id="node41" class="node"><title>Node19</title>
<a xlink:href="vendian_8h.html" target="_top" xlink:title="core/common/vendian.h">
<polygon fill="white" stroke="black" points="2006.43,-137.5 2006.43,-158.5 2127.43,-158.5 2127.43,-137.5 2006.43,-137.5"/>
<text text-anchor="middle" x="2066.93" y="-145.5" font-family="Helvetica,sans-Serif" font-size="10.00">core/common/vendian.h</text>
</a>
</g>
<!-- Node1&#45;&gt;Node19 -->
<g id="edge148" class="edge"><title>Node1&#45;&gt;Node19</title>
<path fill="none" stroke="midnightblue" d="M2195.86,-476.984C2197.62,-429.51 2197.07,-293.126 2139.93,-202 2129.81,-185.852 2112.96,-172.912 2098,-163.751"/>
<polygon fill="midnightblue" stroke="midnightblue" points="2099.42,-160.526 2089.01,-158.541 2095.91,-166.583 2099.42,-160.526"/>
</g>
<!-- Node43 -->
<g id="node101" class="node"><title>Node43</title>
<a xlink:href="mmu__if_8h.html" target="_top" xlink:title="core/models/mmu_cache\l/lib/mmu_if.h">
<polygon fill="white" stroke="black" points="2480.93,-275 2480.93,-309 2606.93,-309 2606.93,-275 2480.93,-275"/>
<text text-anchor="start" x="2488.93" y="-296" font-family="Helvetica,sans-Serif" font-size="10.00">core/models/mmu_cache</text>
<text text-anchor="middle" x="2543.93" y="-283" font-family="Helvetica,sans-Serif" font-size="10.00">/lib/mmu_if.h</text>
</a>
</g>
<!-- Node1&#45;&gt;Node43 -->
<g id="edge116" class="edge"><title>Node1&#45;&gt;Node43</title>
<path fill="none" stroke="midnightblue" d="M2237.15,-476.919C2284.93,-456.865 2364.38,-421.312 2427.93,-382 2459.98,-362.176 2493.7,-335.232 2516.47,-316.004"/>
<polygon fill="midnightblue" stroke="midnightblue" points="2519,-318.446 2524.34,-309.296 2514.46,-313.118 2519,-318.446"/>
</g>
<!-- Node44 -->
<g id="node105" class="node"><title>Node44</title>
<a xlink:href="models_2mmu__cache_2lib_2defines_8h.html" target="_top" xlink:title="core/models/mmu_cache\l/lib/defines.h">
<polygon fill="white" stroke="black" points="2558.93,-203 2558.93,-237 2684.93,-237 2684.93,-203 2558.93,-203"/>
<text text-anchor="start" x="2566.93" y="-224" font-family="Helvetica,sans-Serif" font-size="10.00">core/models/mmu_cache</text>
<text text-anchor="middle" x="2621.93" y="-211" font-family="Helvetica,sans-Serif" font-size="10.00">/lib/defines.h</text>
</a>
</g>
<!-- Node1&#45;&gt;Node44 -->
<g id="edge150" class="edge"><title>Node1&#45;&gt;Node44</title>
<path fill="none" stroke="midnightblue" d="M2257.99,-489.323C2358.73,-478.027 2553.05,-439.664 2635.93,-310 2648.04,-291.052 2642.38,-265.383 2634.95,-246.306"/>
<polygon fill="midnightblue" stroke="midnightblue" points="2638.13,-244.832 2630.99,-237.002 2631.69,-247.574 2638.13,-244.832"/>
</g>
<!-- Node45 -->
<g id="node108" class="node"><title>Node45</title>
<a xlink:href="tlb__adaptor_8h.html" target="_top" xlink:title="core/models/mmu_cache\l/lib/tlb_adaptor.h">
<polygon fill="white" stroke="black" points="2292.93,-347 2292.93,-381 2418.93,-381 2418.93,-347 2292.93,-347"/>
<text text-anchor="start" x="2300.93" y="-368" font-family="Helvetica,sans-Serif" font-size="10.00">core/models/mmu_cache</text>
<text text-anchor="middle" x="2355.93" y="-355" font-family="Helvetica,sans-Serif" font-size="10.00">/lib/tlb_adaptor.h</text>
</a>
</g>
<!-- Node1&#45;&gt;Node45 -->
<g id="edge126" class="edge"><title>Node1&#45;&gt;Node45</title>
<path fill="none" stroke="midnightblue" d="M2216.31,-476.737C2244.66,-453.849 2294.8,-413.361 2326.65,-387.645"/>
<polygon fill="midnightblue" stroke="midnightblue" points="2329.14,-390.133 2334.72,-381.127 2324.74,-384.687 2329.14,-390.133"/>
</g>
<!-- Node46 -->
<g id="node111" class="node"><title>Node46</title>
<a xlink:href="mmu__cache__if_8h.html" target="_top" xlink:title="core/models/mmu_cache\l/lib/mmu_cache_if.h">
<polygon fill="white" stroke="black" points="2260.93,-275 2260.93,-309 2386.93,-309 2386.93,-275 2260.93,-275"/>
<text text-anchor="start" x="2268.93" y="-296" font-family="Helvetica,sans-Serif" font-size="10.00">core/models/mmu_cache</text>
<text text-anchor="middle" x="2323.93" y="-283" font-family="Helvetica,sans-Serif" font-size="10.00">/lib/mmu_cache_if.h</text>
</a>
</g>
<!-- Node1&#45;&gt;Node46 -->
<g id="edge146" class="edge"><title>Node1&#45;&gt;Node46</title>
<path fill="none" stroke="midnightblue" d="M2204.56,-476.802C2220.35,-448.865 2253.1,-392.106 2283.93,-346 2290.32,-336.446 2297.72,-326.248 2304.4,-317.317"/>
<polygon fill="midnightblue" stroke="midnightblue" points="2307.29,-319.293 2310.53,-309.205 2301.71,-315.073 2307.29,-319.293"/>
</g>
<!-- Node4&#45;&gt;Node5 -->
<g id="edge8" class="edge"><title>Node4&#45;&gt;Node5</title>
<path fill="none" stroke="midnightblue" d="M1705.77,-427.577C1414.26,-419.569 44.9324,-377.407 44.9324,-292 44.9324,-292 44.9324,-292 44.9324,-220 44.9324,-130.783 705.11,-95.259 928.822,-85.7825"/>
<polygon fill="midnightblue" stroke="midnightblue" points="929.296,-89.2658 939.141,-85.3508 929.003,-82.2719 929.296,-89.2658"/>
</g>
<!-- Node4&#45;&gt;Node10 -->
<g id="edge20" class="edge"><title>Node4&#45;&gt;Node10</title>
<path fill="none" stroke="midnightblue" d="M1705.89,-424.247C1575.71,-412.796 1244.49,-383.664 1095.52,-370.561"/>
<polygon fill="midnightblue" stroke="midnightblue" points="1095.81,-367.073 1085.55,-369.683 1095.2,-374.046 1095.81,-367.073"/>
</g>
<!-- Node32 -->
<g id="node71" class="node"><title>Node32</title>
<a xlink:href="report_8h.html" target="_top" xlink:title="core/common/report.h">
<polygon fill="white" stroke="black" points="1776.93,-353.5 1776.93,-374.5 1888.93,-374.5 1888.93,-353.5 1776.93,-353.5"/>
<text text-anchor="middle" x="1832.93" y="-361.5" font-family="Helvetica,sans-Serif" font-size="10.00">core/common/report.h</text>
</a>
</g>
<!-- Node4&#45;&gt;Node32 -->
<g id="edge78" class="edge"><title>Node4&#45;&gt;Node32</title>
<path fill="none" stroke="midnightblue" d="M1771.99,-418.267C1783.25,-408.233 1800.28,-393.078 1813.47,-381.331"/>
<polygon fill="midnightblue" stroke="midnightblue" points="1815.96,-383.798 1821.1,-374.534 1811.31,-378.57 1815.96,-383.798"/>
</g>
<!-- Node35 -->
<g id="node79" class="node"><title>Node35</title>
<polygon fill="white" stroke="#bfbfbf" points="1976.43,-209.5 1976.43,-230.5 2079.43,-230.5 2079.43,-209.5 1976.43,-209.5"/>
<text text-anchor="middle" x="2027.93" y="-217.5" font-family="Helvetica,sans-Serif" font-size="10.00">greenreg/greenreg.h</text>
</g>
<!-- Node4&#45;&gt;Node35 -->
<g id="edge88" class="edge"><title>Node4&#45;&gt;Node35</title>
<path fill="none" stroke="midnightblue" d="M1814.19,-419.468C1872.85,-406.045 1963.98,-375.467 2008.93,-310 2023.06,-289.421 2027.02,-260.416 2027.96,-240.949"/>
<polygon fill="midnightblue" stroke="midnightblue" points="2031.47,-240.81 2028.22,-230.725 2024.47,-240.633 2031.47,-240.81"/>
</g>
<!-- Node36 -->
<g id="node81" class="node"><title>Node36</title>
<a xlink:href="greenreg__ambasockets_8h.html" target="_top" xlink:title="core/common/grambasockets\l/greenreg_ambasockets.h">
<polygon fill="white" stroke="black" points="1612.93,-347 1612.93,-381 1758.93,-381 1758.93,-347 1612.93,-347"/>
<text text-anchor="start" x="1620.93" y="-368" font-family="Helvetica,sans-Serif" font-size="10.00">core/common/grambasockets</text>
<text text-anchor="middle" x="1685.93" y="-355" font-family="Helvetica,sans-Serif" font-size="10.00">/greenreg_ambasockets.h</text>
</a>
</g>
<!-- Node4&#45;&gt;Node36 -->
<g id="edge90" class="edge"><title>Node4&#45;&gt;Node36</title>
<path fill="none" stroke="midnightblue" d="M1747.71,-418.267C1738.28,-409.984 1724.88,-398.212 1712.97,-387.748"/>
<polygon fill="midnightblue" stroke="midnightblue" points="1715.23,-385.08 1705.41,-381.11 1710.61,-390.339 1715.23,-385.08"/>
</g>
<!-- Node5&#45;&gt;Node5 -->
<g id="edge10" class="edge"><title>Node5&#45;&gt;Node5</title>
<path fill="none" stroke="midnightblue" d="M1033.55,-93.5168C1057.58,-97.3181 1081.93,-93.8125 1081.93,-83 1081.93,-73.708 1063.94,-69.8123 1043.64,-71.313"/>
<polygon fill="midnightblue" stroke="midnightblue" points="1043.08,-67.8539 1033.55,-72.4832 1043.89,-74.8073 1043.08,-67.8539"/>
</g>
<!-- Node6 -->
<g id="node12" class="node"><title>Node6</title>
<polygon fill="white" stroke="#bfbfbf" points="2460.93,-7.5 2460.93,-28.5 2498.93,-28.5 2498.93,-7.5 2460.93,-7.5"/>
<text text-anchor="middle" x="2479.93" y="-15.5" font-family="Helvetica,sans-Serif" font-size="10.00">tlm.h</text>
</g>
<!-- Node5&#45;&gt;Node6 -->
<g id="edge12" class="edge"><title>Node5&#45;&gt;Node6</title>
<path fill="none" stroke="midnightblue" d="M1064.59,-74.585C1073.42,-73.5946 1082.4,-72.6921 1090.93,-72 1635.94,-27.8041 2304.29,-19.5402 2450.71,-18.2245"/>
<polygon fill="midnightblue" stroke="midnightblue" points="2450.74,-21.7245 2460.71,-18.1384 2450.68,-14.7247 2450.74,-21.7245"/>
</g>
<!-- Node7 -->
<g id="node14" class="node"><title>Node7</title>
<polygon fill="white" stroke="#bfbfbf" points="808.432,-1 808.432,-35 923.432,-35 923.432,-1 808.432,-1"/>
<text text-anchor="start" x="816.432" y="-22" font-family="Helvetica,sans-Serif" font-size="10.00">tlm_utils/simple_target</text>
<text text-anchor="middle" x="865.932" y="-9" font-family="Helvetica,sans-Serif" font-size="10.00">_socket.h</text>
</g>
<!-- Node5&#45;&gt;Node7 -->
<g id="edge14" class="edge"><title>Node5&#45;&gt;Node7</title>
<path fill="none" stroke="midnightblue" d="M979.779,-72.412C961.19,-63.5274 934.045,-50.5536 910.923,-39.5028"/>
<polygon fill="midnightblue" stroke="midnightblue" points="912.16,-36.2148 901.628,-35.0604 909.141,-42.5305 912.16,-36.2148"/>
</g>
<!-- Node8 -->
<g id="node16" class="node"><title>Node8</title>
<polygon fill="white" stroke="#bfbfbf" points="940.932,-1 940.932,-35 1062.93,-35 1062.93,-1 940.932,-1"/>
<text text-anchor="start" x="948.932" y="-22" font-family="Helvetica,sans-Serif" font-size="10.00">tlm_utils/simple_initiator</text>
<text text-anchor="middle" x="1001.93" y="-9" font-family="Helvetica,sans-Serif" font-size="10.00">_socket.h</text>
</g>
<!-- Node5&#45;&gt;Node8 -->
<g id="edge16" class="edge"><title>Node5&#45;&gt;Node8</title>
<path fill="none" stroke="midnightblue" d="M1001.93,-72.2666C1001.93,-64.931 1001.93,-54.8573 1001.93,-45.3796"/>
<polygon fill="midnightblue" stroke="midnightblue" points="1005.43,-45.1098 1001.93,-35.1099 998.433,-45.1099 1005.43,-45.1098"/>
</g>
<!-- Node9 -->
<g id="node18" class="node"><title>Node9</title>
<polygon fill="white" stroke="#bfbfbf" points="1080.43,-1 1080.43,-35 1175.43,-35 1175.43,-1 1080.43,-1"/>
<text text-anchor="start" x="1088.43" y="-22" font-family="Helvetica,sans-Serif" font-size="10.00">tlm_utils/peq_with</text>
<text text-anchor="middle" x="1127.93" y="-9" font-family="Helvetica,sans-Serif" font-size="10.00">_get.h</text>
</g>
<!-- Node5&#45;&gt;Node9 -->
<g id="edge18" class="edge"><title>Node5&#45;&gt;Node9</title>
<path fill="none" stroke="midnightblue" d="M1022.46,-72.412C1039.47,-63.6378 1064.21,-50.8751 1085.45,-39.9153"/>
<polygon fill="midnightblue" stroke="midnightblue" points="1087.33,-42.8821 1094.62,-35.1869 1084.12,-36.6611 1087.33,-42.8821"/>
</g>
<!-- Node11 -->
<g id="node22" class="node"><title>Node11</title>
<polygon fill="white" stroke="#bfbfbf" points="698.432,-281.5 698.432,-302.5 805.432,-302.5 805.432,-281.5 698.432,-281.5"/>
<text text-anchor="middle" x="751.932" y="-289.5" font-family="Helvetica,sans-Serif" font-size="10.00">greencontrol/config.h</text>
</g>
<!-- Node10&#45;&gt;Node11 -->
<g id="edge22" class="edge"><title>Node10&#45;&gt;Node11</title>
<path fill="none" stroke="midnightblue" d="M979.212,-353.474C937.343,-342.826 871.043,-325.736 813.932,-310 808.597,-308.53 803.014,-306.957 797.476,-305.376"/>
<polygon fill="midnightblue" stroke="midnightblue" points="798.199,-301.943 787.621,-302.542 796.264,-308.67 798.199,-301.943"/>
</g>
<!-- Node12 -->
<g id="node24" class="node"><title>Node12</title>
<a xlink:href="gs__config_2gs__config_8h.html" target="_top" xlink:title="core/common/gs_config\l/gs_config.h">
<polygon fill="white" stroke="black" points="960.432,-275 960.432,-309 1081.43,-309 1081.43,-275 960.432,-275"/>
<text text-anchor="start" x="968.432" y="-296" font-family="Helvetica,sans-Serif" font-size="10.00">core/common/gs_config</text>
<text text-anchor="middle" x="1020.93" y="-283" font-family="Helvetica,sans-Serif" font-size="10.00">/gs_config.h</text>
</a>
</g>
<!-- Node10&#45;&gt;Node12 -->
<g id="edge24" class="edge"><title>Node10&#45;&gt;Node12</title>
<path fill="none" stroke="midnightblue" d="M1020.93,-353.376C1020.93,-344.451 1020.93,-331.293 1020.93,-319.446"/>
<polygon fill="midnightblue" stroke="midnightblue" points="1024.43,-319.094 1020.93,-309.094 1017.43,-319.094 1024.43,-319.094"/>
</g>
<!-- Node14 -->
<g id="node29" class="node"><title>Node14</title>
<a xlink:href="gs__config__class_8h.html" target="_top" xlink:title="core/common/gs_config\l/gs_config_class.h">
<polygon fill="white" stroke="black" points="822.432,-275 822.432,-309 943.432,-309 943.432,-275 822.432,-275"/>
<text text-anchor="start" x="830.432" y="-296" font-family="Helvetica,sans-Serif" font-size="10.00">core/common/gs_config</text>
<text text-anchor="middle" x="882.932" y="-283" font-family="Helvetica,sans-Serif" font-size="10.00">/gs_config_class.h</text>
</a>
</g>
<!-- Node10&#45;&gt;Node14 -->
<g id="edge30" class="edge"><title>Node10&#45;&gt;Node14</title>
<path fill="none" stroke="midnightblue" d="M1000.57,-353.376C980.671,-342.994 949.792,-326.883 924.663,-313.773"/>
<polygon fill="midnightblue" stroke="midnightblue" points="926.182,-310.617 915.697,-309.094 922.944,-316.823 926.182,-310.617"/>
</g>
<!-- Node12&#45;&gt;Node2 -->
<g id="edge28" class="edge"><title>Node12&#45;&gt;Node2</title>
<path fill="none" stroke="midnightblue" d="M1081.7,-289.847C1300.83,-281.961 2040.11,-254.276 2087.93,-238 2089.61,-237.428 2091.28,-236.714 2092.92,-235.903"/>
<polygon fill="midnightblue" stroke="midnightblue" points="2095.04,-238.708 2101.74,-230.504 2091.39,-232.736 2095.04,-238.708"/>
</g>
<!-- Node13 -->
<g id="node26" class="node"><title>Node13</title>
<polygon fill="white" stroke="#bfbfbf" points="1020.43,-209.5 1020.43,-230.5 1061.43,-230.5 1061.43,-209.5 1020.43,-209.5"/>
<text text-anchor="middle" x="1040.93" y="-217.5" font-family="Helvetica,sans-Serif" font-size="10.00">string</text>
</g>
<!-- Node12&#45;&gt;Node13 -->
<g id="edge26" class="edge"><title>Node12&#45;&gt;Node13</title>
<path fill="none" stroke="midnightblue" d="M1025.67,-274.937C1028.51,-264.707 1032.15,-251.625 1035.16,-240.794"/>
<polygon fill="midnightblue" stroke="midnightblue" points="1038.6,-241.473 1037.9,-230.901 1031.86,-239.599 1038.6,-241.473"/>
</g>
<!-- Node14&#45;&gt;Node13 -->
<g id="edge32" class="edge"><title>Node14&#45;&gt;Node13</title>
<path fill="none" stroke="midnightblue" d="M924.34,-274.9C948.612,-264.646 979.748,-251.092 1006.93,-238 1008.74,-237.131 1010.59,-236.218 1012.44,-235.284"/>
<polygon fill="midnightblue" stroke="midnightblue" points="1014.36,-238.233 1021.64,-230.538 1011.15,-232.012 1014.36,-238.233"/>
</g>
<!-- Node15 -->
<g id="node32" class="node"><title>Node15</title>
<polygon fill="white" stroke="#bfbfbf" points="1099.93,-72.5 1099.93,-93.5 1153.93,-93.5 1153.93,-72.5 1099.93,-72.5"/>
<text text-anchor="middle" x="1126.93" y="-80.5" font-family="Helvetica,sans-Serif" font-size="10.00">iostream</text>
</g>
<!-- Node14&#45;&gt;Node15 -->
<g id="edge34" class="edge"><title>Node14&#45;&gt;Node15</title>
<path fill="none" stroke="midnightblue" d="M916.253,-274.928C934.078,-265.142 955.989,-252.034 973.932,-238 988.739,-226.42 1072.86,-139.305 1109.68,-100.991"/>
<polygon fill="midnightblue" stroke="midnightblue" points="1112.37,-103.238 1116.77,-93.6003 1107.32,-98.3892 1112.37,-103.238"/>
</g>
<!-- Node16 -->
<g id="node34" class="node"><title>Node16</title>
<polygon fill="white" stroke="#bfbfbf" points="350.932,-209.5 350.932,-230.5 402.932,-230.5 402.932,-209.5 350.932,-209.5"/>
<text text-anchor="middle" x="376.932" y="-217.5" font-family="Helvetica,sans-Serif" font-size="10.00">sstream</text>
</g>
<!-- Node14&#45;&gt;Node16 -->
<g id="edge36" class="edge"><title>Node14&#45;&gt;Node16</title>
<path fill="none" stroke="midnightblue" d="M822.099,-275.546C819.347,-274.986 816.616,-274.467 813.932,-274 637.205,-243.254 584.221,-287.946 411.932,-238 409.102,-237.18 406.232,-236.125 403.417,-234.938"/>
<polygon fill="midnightblue" stroke="midnightblue" points="404.72,-231.682 394.187,-230.542 401.71,-238.002 404.72,-231.682"/>
</g>
<!-- Node17 -->
<g id="node36" class="node"><title>Node17</title>
<polygon fill="white" stroke="#bfbfbf" points="420.932,-209.5 420.932,-230.5 522.932,-230.5 522.932,-209.5 420.932,-209.5"/>
<text text-anchor="middle" x="471.932" y="-217.5" font-family="Helvetica,sans-Serif" font-size="10.00">boost/tokenizer.hpp</text>
</g>
<!-- Node14&#45;&gt;Node17 -->
<g id="edge38" class="edge"><title>Node14&#45;&gt;Node17</title>
<path fill="none" stroke="midnightblue" d="M822.076,-275.672C819.331,-275.079 816.606,-274.517 813.932,-274 689.882,-250.004 655.528,-264.242 531.932,-238 525.789,-236.696 519.364,-235.064 513.097,-233.318"/>
<polygon fill="midnightblue" stroke="midnightblue" points="514.022,-229.942 503.442,-230.513 512.068,-236.664 514.022,-229.942"/>
</g>
<!-- Node18 -->
<g id="node38" class="node"><title>Node18</title>
<a xlink:href="common_8h.html" target="_top" xlink:title="core/common/common.h">
<polygon fill="white" stroke="black" points="1154.43,-209.5 1154.43,-230.5 1279.43,-230.5 1279.43,-209.5 1154.43,-209.5"/>
<text text-anchor="middle" x="1216.93" y="-217.5" font-family="Helvetica,sans-Serif" font-size="10.00">core/common/common.h</text>
</a>
</g>
<!-- Node14&#45;&gt;Node18 -->
<g id="edge40" class="edge"><title>Node14&#45;&gt;Node18</title>
<path fill="none" stroke="midnightblue" d="M943.469,-276.01C946.327,-275.317 949.159,-274.644 951.932,-274 1019.39,-258.34 1097.08,-242.8 1150.82,-232.44"/>
<polygon fill="midnightblue" stroke="midnightblue" points="1151.75,-235.826 1160.91,-230.503 1150.43,-228.952 1151.75,-235.826"/>
</g>
<!-- Node26 -->
<g id="node58" class="node"><title>Node26</title>
<a xlink:href="gs__config__t_8h.html" target="_top" xlink:title="core/common/gs_config\l/gs_config_t.h">
<polygon fill="white" stroke="black" points="540.432,-203 540.432,-237 661.432,-237 661.432,-203 540.432,-203"/>
<text text-anchor="start" x="548.432" y="-224" font-family="Helvetica,sans-Serif" font-size="10.00">core/common/gs_config</text>
<text text-anchor="middle" x="600.932" y="-211" font-family="Helvetica,sans-Serif" font-size="10.00">/gs_config_t.h</text>
</a>
</g>
<!-- Node14&#45;&gt;Node26 -->
<g id="edge64" class="edge"><title>Node14&#45;&gt;Node26</title>
<path fill="none" stroke="midnightblue" d="M822.359,-276.161C819.511,-275.428 816.691,-274.705 813.932,-274 753.011,-258.439 735.47,-254.669 671.319,-238.342"/>
<polygon fill="midnightblue" stroke="midnightblue" points="672.06,-234.919 661.505,-235.839 670.33,-241.702 672.06,-234.919"/>
</g>
<!-- Node27 -->
<g id="node60" class="node"><title>Node27</title>
<a xlink:href="gs__config__operator__macros_8h.html" target="_top" xlink:title="core/common/gs_config\l/gs_config_operator_macros.h">
<polygon fill="white" stroke="black" points="678.932,-203 678.932,-237 826.932,-237 826.932,-203 678.932,-203"/>
<text text-anchor="start" x="686.932" y="-224" font-family="Helvetica,sans-Serif" font-size="10.00">core/common/gs_config</text>
<text text-anchor="middle" x="752.932" y="-211" font-family="Helvetica,sans-Serif" font-size="10.00">/gs_config_operator_macros.h</text>
</a>
</g>
<!-- Node14&#45;&gt;Node27 -->
<g id="edge66" class="edge"><title>Node14&#45;&gt;Node27</title>
<path fill="none" stroke="midnightblue" d="M852.124,-274.937C834.364,-265.101 811.843,-252.627 792.751,-242.053"/>
<polygon fill="midnightblue" stroke="midnightblue" points="794.414,-238.973 783.97,-237.19 791.022,-245.097 794.414,-238.973"/>
</g>
<!-- Node28 -->
<g id="node62" class="node"><title>Node28</title>
<a xlink:href="gs__config__delegate_8h.html" target="_top" xlink:title="core/common/gs_config\l/gs_config_delegate.h">
<polygon fill="white" stroke="black" points="844.432,-203 844.432,-237 965.432,-237 965.432,-203 844.432,-203"/>
<text text-anchor="start" x="852.432" y="-224" font-family="Helvetica,sans-Serif" font-size="10.00">core/common/gs_config</text>
<text text-anchor="middle" x="904.932" y="-211" font-family="Helvetica,sans-Serif" font-size="10.00">/gs_config_delegate.h</text>
</a>
</g>
<!-- Node14&#45;&gt;Node28 -->
<g id="edge68" class="edge"><title>Node14&#45;&gt;Node28</title>
<path fill="none" stroke="midnightblue" d="M888.146,-274.937C890.684,-266.63 893.797,-256.444 896.65,-247.108"/>
<polygon fill="midnightblue" stroke="midnightblue" points="900.028,-248.027 899.603,-237.441 893.334,-245.981 900.028,-248.027"/>
</g>
<!-- Node29 -->
<g id="node64" class="node"><title>Node29</title>
<a xlink:href="gs__config__native_8hpp.html" target="_top" xlink:title="core/common/gs_config\l/gs_config_native.hpp">
<polygon fill="white" stroke="black" points="72.4324,-203 72.4324,-237 193.432,-237 193.432,-203 72.4324,-203"/>
<text text-anchor="start" x="80.4324" y="-224" font-family="Helvetica,sans-Serif" font-size="10.00">core/common/gs_config</text>
<text text-anchor="middle" x="132.932" y="-211" font-family="Helvetica,sans-Serif" font-size="10.00">/gs_config_native.hpp</text>
</a>
</g>
<!-- Node14&#45;&gt;Node29 -->
<g id="edge70" class="edge"><title>Node14&#45;&gt;Node29</title>
<path fill="none" stroke="midnightblue" d="M822.116,-275.443C819.36,-274.911 816.623,-274.426 813.932,-274 548.097,-231.926 472.883,-279.407 203.813,-238.128"/>
<polygon fill="midnightblue" stroke="midnightblue" points="204.169,-234.641 193.748,-236.557 203.089,-241.558 204.169,-234.641"/>
</g>
<!-- Node30 -->
<g id="node66" class="node"><title>Node30</title>
<a xlink:href="gs__config__stdint_8hpp.html" target="_top" xlink:title="core/common/gs_config\l/gs_config_stdint.hpp">
<polygon fill="white" stroke="black" points="1641.43,-131 1641.43,-165 1762.43,-165 1762.43,-131 1641.43,-131"/>
<text text-anchor="start" x="1649.43" y="-152" font-family="Helvetica,sans-Serif" font-size="10.00">core/common/gs_config</text>
<text text-anchor="middle" x="1701.93" y="-139" font-family="Helvetica,sans-Serif" font-size="10.00">/gs_config_stdint.hpp</text>
</a>
</g>
<!-- Node14&#45;&gt;Node30 -->
<g id="edge72" class="edge"><title>Node14&#45;&gt;Node30</title>
<path fill="none" stroke="midnightblue" d="M943.776,-275.605C946.525,-275.029 949.253,-274.49 951.932,-274 1099.67,-246.97 1151.58,-300.958 1287.93,-238 1309.05,-228.248 1304.99,-212.13 1325.93,-202 1378.36,-176.64 1537.43,-160.569 1631.03,-153.041"/>
<polygon fill="midnightblue" stroke="midnightblue" points="1631.58,-156.508 1641.27,-152.23 1631.03,-149.53 1631.58,-156.508"/>
</g>
<!-- Node31 -->
<g id="node69" class="node"><title>Node31</title>
<a xlink:href="gs__config__systemc_8hpp.html" target="_top" xlink:title="core/common/gs_config\l/gs_config_systemc.hpp">
<polygon fill="white" stroke="black" points="210.432,-203 210.432,-237 333.432,-237 333.432,-203 210.432,-203"/>
<text text-anchor="start" x="218.432" y="-224" font-family="Helvetica,sans-Serif" font-size="10.00">core/common/gs_config</text>
<text text-anchor="middle" x="271.932" y="-211" font-family="Helvetica,sans-Serif" font-size="10.00">/gs_config_systemc.hpp</text>
</a>
</g>
<!-- Node14&#45;&gt;Node31 -->
<g id="edge76" class="edge"><title>Node14&#45;&gt;Node31</title>
<path fill="none" stroke="midnightblue" d="M822.107,-275.502C819.353,-274.954 816.619,-274.449 813.932,-274 609.668,-239.85 551.315,-271.314 343.647,-238.125"/>
<polygon fill="midnightblue" stroke="midnightblue" points="344.076,-234.649 333.644,-236.495 342.951,-241.558 344.076,-234.649"/>
</g>
<!-- Node18&#45;&gt;Node5 -->
<g id="edge42" class="edge"><title>Node18&#45;&gt;Node5</title>
<path fill="none" stroke="midnightblue" d="M1200.42,-209.477C1162.98,-185.62 1071.45,-127.296 1026.99,-98.9658"/>
<polygon fill="midnightblue" stroke="midnightblue" points="1028.82,-95.9807 1018.5,-93.5585 1025.05,-101.884 1028.82,-95.9807"/>
</g>
<!-- Node18&#45;&gt;Node19 -->
<g id="edge44" class="edge"><title>Node18&#45;&gt;Node19</title>
<path fill="none" stroke="midnightblue" d="M1274.49,-209.49C1291.05,-206.739 1309.17,-203.99 1325.93,-202 1454.48,-186.734 1836.97,-162.211 1996.18,-152.331"/>
<polygon fill="midnightblue" stroke="midnightblue" points="1996.57,-155.814 2006.33,-151.702 1996.14,-148.827 1996.57,-155.814"/>
</g>
<!-- Node21 -->
<g id="node45" class="node"><title>Node21</title>
<a xlink:href="verbose_8h.html" target="_top" xlink:title="Implements a unified output system for messages and debunging. ">
<polygon fill="white" stroke="black" points="1155.93,-137.5 1155.93,-158.5 1277.93,-158.5 1277.93,-137.5 1155.93,-137.5"/>
<text text-anchor="middle" x="1216.93" y="-145.5" font-family="Helvetica,sans-Serif" font-size="10.00">core/common/verbose.h</text>
</a>
</g>
<!-- Node18&#45;&gt;Node21 -->
<g id="edge48" class="edge"><title>Node18&#45;&gt;Node21</title>
<path fill="none" stroke="midnightblue" d="M1211.98,-209.376C1210.11,-198.741 1209.7,-182.095 1210.75,-168.82"/>
<polygon fill="midnightblue" stroke="midnightblue" points="1214.25,-169.014 1211.97,-158.667 1207.3,-168.177 1214.25,-169.014"/>
</g>
<!-- Node20 -->
<g id="node43" class="node"><title>Node20</title>
<polygon fill="white" stroke="#bfbfbf" points="2042.43,-72.5 2042.43,-93.5 2091.43,-93.5 2091.43,-72.5 2042.43,-72.5"/>
<text text-anchor="middle" x="2066.93" y="-80.5" font-family="Helvetica,sans-Serif" font-size="10.00">stdint.h</text>
</g>
<!-- Node19&#45;&gt;Node20 -->
<g id="edge46" class="edge"><title>Node19&#45;&gt;Node20</title>
<path fill="none" stroke="midnightblue" d="M2066.93,-137.267C2066.93,-128.18 2066.93,-114.892 2066.93,-103.74"/>
<polygon fill="midnightblue" stroke="midnightblue" points="2070.43,-103.534 2066.93,-93.5337 2063.43,-103.534 2070.43,-103.534"/>
</g>
<!-- Node21&#45;&gt;Node5 -->
<g id="edge62" class="edge"><title>Node21&#45;&gt;Node5</title>
<path fill="none" stroke="midnightblue" d="M1181.91,-137.412C1145.05,-126.269 1086.92,-108.694 1046.74,-96.5474"/>
<polygon fill="midnightblue" stroke="midnightblue" points="1047.52,-93.1272 1036.94,-93.5835 1045.5,-99.8277 1047.52,-93.1272"/>
</g>
<!-- Node21&#45;&gt;Node15 -->
<g id="edge56" class="edge"><title>Node21&#45;&gt;Node15</title>
<path fill="none" stroke="midnightblue" d="M1202.07,-137.267C1187.92,-127.044 1166.4,-111.504 1150.01,-99.6699"/>
<polygon fill="midnightblue" stroke="midnightblue" points="1151.67,-96.5513 1141.52,-93.5337 1147.58,-102.226 1151.67,-96.5513"/>
</g>
<!-- Node21&#45;&gt;Node18 -->
<g id="edge60" class="edge"><title>Node21&#45;&gt;Node18</title>
<path fill="none" stroke="midnightblue" d="M1221.9,-158.667C1223.76,-169.319 1224.16,-185.969 1223.11,-199.235"/>
<polygon fill="midnightblue" stroke="midnightblue" points="1219.61,-199.028 1221.89,-209.376 1226.56,-199.868 1219.61,-199.028"/>
</g>
<!-- Node22 -->
<g id="node47" class="node"><title>Node22</title>
<polygon fill="white" stroke="#bfbfbf" points="1171.43,-72.5 1171.43,-93.5 1214.43,-93.5 1214.43,-72.5 1171.43,-72.5"/>
<text text-anchor="middle" x="1192.93" y="-80.5" font-family="Helvetica,sans-Serif" font-size="10.00">cstdio</text>
</g>
<!-- Node21&#45;&gt;Node22 -->
<g id="edge50" class="edge"><title>Node21&#45;&gt;Node22</title>
<path fill="none" stroke="midnightblue" d="M1212.97,-137.267C1209.54,-127.991 1204.5,-114.336 1200.33,-103.045"/>
<polygon fill="midnightblue" stroke="midnightblue" points="1203.57,-101.702 1196.82,-93.5337 1197,-104.127 1203.57,-101.702"/>
</g>
<!-- Node23 -->
<g id="node49" class="node"><title>Node23</title>
<polygon fill="white" stroke="#bfbfbf" points="1231.93,-72.5 1231.93,-93.5 1277.93,-93.5 1277.93,-72.5 1231.93,-72.5"/>
<text text-anchor="middle" x="1254.93" y="-80.5" font-family="Helvetica,sans-Serif" font-size="10.00">cstring</text>
</g>
<!-- Node21&#45;&gt;Node23 -->
<g id="edge52" class="edge"><title>Node21&#45;&gt;Node23</title>
<path fill="none" stroke="midnightblue" d="M1223.21,-137.267C1228.74,-127.801 1236.94,-113.777 1243.62,-102.357"/>
<polygon fill="midnightblue" stroke="midnightblue" points="1246.75,-103.933 1248.77,-93.5337 1240.71,-100.4 1246.75,-103.933"/>
</g>
<!-- Node24 -->
<g id="node51" class="node"><title>Node24</title>
<polygon fill="white" stroke="#bfbfbf" points="1295.93,-72.5 1295.93,-93.5 1345.93,-93.5 1345.93,-72.5 1295.93,-72.5"/>
<text text-anchor="middle" x="1320.93" y="-80.5" font-family="Helvetica,sans-Serif" font-size="10.00">iomanip</text>
</g>
<!-- Node21&#45;&gt;Node24 -->
<g id="edge54" class="edge"><title>Node21&#45;&gt;Node24</title>
<path fill="none" stroke="midnightblue" d="M1234.11,-137.267C1250.84,-126.807 1276.48,-110.782 1295.57,-98.8541"/>
<polygon fill="midnightblue" stroke="midnightblue" points="1297.45,-101.802 1304.08,-93.5337 1293.74,-95.8657 1297.45,-101.802"/>
</g>
<!-- Node25 -->
<g id="node54" class="node"><title>Node25</title>
<polygon fill="white" stroke="#bfbfbf" points="1363.93,-72.5 1363.93,-93.5 1423.93,-93.5 1423.93,-72.5 1363.93,-72.5"/>
<text text-anchor="middle" x="1393.93" y="-80.5" font-family="Helvetica,sans-Serif" font-size="10.00">streambuf</text>
</g>
<!-- Node21&#45;&gt;Node25 -->
<g id="edge58" class="edge"><title>Node21&#45;&gt;Node25</title>
<path fill="none" stroke="midnightblue" d="M1245.76,-137.412C1275.59,-126.458 1322.35,-109.288 1355.35,-97.1696"/>
<polygon fill="midnightblue" stroke="midnightblue" points="1356.93,-100.316 1365.11,-93.5835 1354.52,-93.7453 1356.93,-100.316"/>
</g>
<!-- Node30&#45;&gt;Node20 -->
<g id="edge74" class="edge"><title>Node30&#45;&gt;Node20</title>
<path fill="none" stroke="midnightblue" d="M1762.61,-137.194C1839.65,-123.475 1969.98,-100.266 2032.05,-89.2122"/>
<polygon fill="midnightblue" stroke="midnightblue" points="2032.88,-92.6191 2042.11,-87.42 2031.65,-85.7275 2032.88,-92.6191"/>
</g>
<!-- Node32&#45;&gt;Node5 -->
<g id="edge82" class="edge"><title>Node32&#45;&gt;Node5</title>
<path fill="none" stroke="midnightblue" d="M1797.34,-353.42C1787.84,-350.794 1777.54,-348.125 1767.93,-346 1483.28,-283.011 1370.88,-388.068 1120.93,-238 1066.37,-205.24 1027.87,-137.261 1011.19,-103.27"/>
<polygon fill="midnightblue" stroke="midnightblue" points="1014.19,-101.412 1006.73,-93.8889 1007.87,-104.422 1014.19,-101.412"/>
</g>
<!-- Node33 -->
<g id="node73" class="node"><title>Node33</title>
<polygon fill="white" stroke="#bfbfbf" points="1793.93,-281.5 1793.93,-302.5 1871.93,-302.5 1871.93,-281.5 1793.93,-281.5"/>
<text text-anchor="middle" x="1832.93" y="-289.5" font-family="Helvetica,sans-Serif" font-size="10.00">boost/any.hpp</text>
</g>
<!-- Node32&#45;&gt;Node33 -->
<g id="edge80" class="edge"><title>Node32&#45;&gt;Node33</title>
<path fill="none" stroke="midnightblue" d="M1832.93,-353.376C1832.93,-342.741 1832.93,-326.095 1832.93,-312.82"/>
<polygon fill="midnightblue" stroke="midnightblue" points="1836.43,-312.667 1832.93,-302.667 1829.43,-312.667 1836.43,-312.667"/>
</g>
<!-- Node34 -->
<g id="node76" class="node"><title>Node34</title>
<a xlink:href="vmap_8h.html" target="_top" xlink:title="core/common/vmap.h">
<polygon fill="white" stroke="black" points="1889.43,-281.5 1889.43,-302.5 2000.43,-302.5 2000.43,-281.5 1889.43,-281.5"/>
<text text-anchor="middle" x="1944.93" y="-289.5" font-family="Helvetica,sans-Serif" font-size="10.00">core/common/vmap.h</text>
</a>
</g>
<!-- Node32&#45;&gt;Node34 -->
<g id="edge84" class="edge"><title>Node32&#45;&gt;Node34</title>
<path fill="none" stroke="midnightblue" d="M1849.46,-353.376C1867.99,-341.465 1898.25,-322.013 1919.73,-308.202"/>
<polygon fill="midnightblue" stroke="midnightblue" points="1921.82,-311.019 1928.34,-302.667 1918.03,-305.131 1921.82,-311.019"/>
</g>
<!-- Node34&#45;&gt;Node2 -->
<g id="edge86" class="edge"><title>Node34&#45;&gt;Node2</title>
<path fill="none" stroke="midnightblue" d="M1980.05,-281.407C2009.65,-271.858 2052.69,-256.498 2087.93,-238 2089.08,-237.397 2090.24,-236.752 2091.39,-236.079"/>
<polygon fill="midnightblue" stroke="midnightblue" points="2093.49,-238.894 2100.02,-230.556 2089.71,-232.999 2093.49,-238.894"/>
</g>
<!-- Node36&#45;&gt;Node35 -->
<g id="edge92" class="edge"><title>Node36&#45;&gt;Node35</title>
<path fill="none" stroke="midnightblue" d="M1705.59,-346.9C1717.62,-336.361 1733.27,-322.514 1746.93,-310 1764.09,-294.287 1764.29,-284.722 1784.93,-274 1856.56,-236.802 1884.44,-256.782 1962.93,-238 1969.06,-236.534 1975.48,-234.889 1981.81,-233.204"/>
<polygon fill="midnightblue" stroke="midnightblue" points="1982.87,-236.542 1991.61,-230.546 1981.04,-229.786 1982.87,-236.542"/>
</g>
<!-- Node37 -->
<g id="node84" class="node"><title>Node37</title>
<a xlink:href="gr__ambasockets_8h.html" target="_top" xlink:title="core/common/grambasockets\l/gr_ambasockets.h">
<polygon fill="white" stroke="black" points="1591.93,-275 1591.93,-309 1737.93,-309 1737.93,-275 1591.93,-275"/>
<text text-anchor="start" x="1599.93" y="-296" font-family="Helvetica,sans-Serif" font-size="10.00">core/common/grambasockets</text>
<text text-anchor="middle" x="1664.93" y="-283" font-family="Helvetica,sans-Serif" font-size="10.00">/gr_ambasockets.h</text>
</a>
</g>
<!-- Node36&#45;&gt;Node37 -->
<g id="edge94" class="edge"><title>Node36&#45;&gt;Node37</title>
<path fill="none" stroke="midnightblue" d="M1680.96,-346.937C1678.53,-338.63 1675.56,-328.444 1672.84,-319.108"/>
<polygon fill="midnightblue" stroke="midnightblue" points="1676.18,-318.061 1670.02,-309.441 1669.46,-320.021 1676.18,-318.061"/>
</g>
<!-- Node37&#45;&gt;Node15 -->
<g id="edge110" class="edge"><title>Node37&#45;&gt;Node15</title>
<path fill="none" stroke="midnightblue" d="M1591.77,-289.362C1456.27,-283.765 1177.12,-268.624 1145.93,-238 1109.96,-202.675 1116.22,-136.872 1122.34,-103.517"/>
<polygon fill="midnightblue" stroke="midnightblue" points="1125.81,-104.035 1124.35,-93.5406 1118.95,-102.653 1125.81,-104.035"/>
</g>
<!-- Node37&#45;&gt;Node19 -->
<g id="edge106" class="edge"><title>Node37&#45;&gt;Node19</title>
<path fill="none" stroke="midnightblue" d="M1737.99,-275.056C1739.65,-274.698 1741.3,-274.345 1742.93,-274 1825.74,-256.481 1854.64,-276.654 1929.93,-238 1950.63,-227.375 1949.12,-215.685 1967.93,-202 1988.84,-186.789 2014.53,-172.899 2034.5,-163.017"/>
<polygon fill="midnightblue" stroke="midnightblue" points="2036.05,-166.154 2043.51,-158.633 2032.99,-159.859 2036.05,-166.154"/>
</g>
<!-- Node37&#45;&gt;Node35 -->
<g id="edge96" class="edge"><title>Node37&#45;&gt;Node35</title>
<path fill="none" stroke="midnightblue" d="M1738,-276.69C1742.71,-275.762 1747.39,-274.858 1751.93,-274 1845.42,-256.36 1870.08,-258.721 1962.93,-238 1969.23,-236.594 1975.83,-234.959 1982.31,-233.259"/>
<polygon fill="midnightblue" stroke="midnightblue" points="1983.59,-236.539 1992.34,-230.557 1981.77,-229.78 1983.59,-236.539"/>
</g>
<!-- Node38 -->
<g id="node87" class="node"><title>Node38</title>
<polygon fill="white" stroke="#bfbfbf" points="1472.93,-203 1472.93,-237 1654.93,-237 1654.93,-203 1472.93,-203"/>
<text text-anchor="start" x="1480.93" y="-224" font-family="Helvetica,sans-Serif" font-size="10.00">greensocket/utils/greensocketaddress</text>
<text text-anchor="middle" x="1563.93" y="-211" font-family="Helvetica,sans-Serif" font-size="10.00">_base.h</text>
</g>
<!-- Node37&#45;&gt;Node38 -->
<g id="edge98" class="edge"><title>Node37&#45;&gt;Node38</title>
<path fill="none" stroke="midnightblue" d="M1641,-274.937C1627.64,-265.412 1610.81,-253.415 1596.29,-243.063"/>
<polygon fill="midnightblue" stroke="midnightblue" points="1598.22,-240.145 1588.05,-237.19 1594.16,-245.845 1598.22,-240.145"/>
</g>
<!-- Node39 -->
<g id="node89" class="node"><title>Node39</title>
<polygon fill="white" stroke="#bfbfbf" points="1672.43,-203 1672.43,-237 1801.43,-237 1801.43,-203 1672.43,-203"/>
<text text-anchor="start" x="1680.43" y="-224" font-family="Helvetica,sans-Serif" font-size="10.00">greenreg/greenreg_socket</text>
<text text-anchor="middle" x="1736.93" y="-211" font-family="Helvetica,sans-Serif" font-size="10.00">/transactor_if.h</text>
</g>
<!-- Node37&#45;&gt;Node39 -->
<g id="edge100" class="edge"><title>Node37&#45;&gt;Node39</title>
<path fill="none" stroke="midnightblue" d="M1682,-274.937C1691.01,-265.924 1702.24,-254.696 1712.19,-244.744"/>
<polygon fill="midnightblue" stroke="midnightblue" points="1714.9,-246.987 1719.49,-237.441 1709.95,-242.037 1714.9,-246.987"/>
</g>
<!-- Node40 -->
<g id="node91" class="node"><title>Node40</title>
<polygon fill="white" stroke="#bfbfbf" points="1818.43,-203 1818.43,-237 1921.43,-237 1921.43,-203 1818.43,-203"/>
<text text-anchor="start" x="1826.43" y="-224" font-family="Helvetica,sans-Serif" font-size="10.00">greenreg/framework</text>
<text text-anchor="middle" x="1869.93" y="-211" font-family="Helvetica,sans-Serif" font-size="10.00">/core/gr_common.h</text>
</g>
<!-- Node37&#45;&gt;Node40 -->
<g id="edge102" class="edge"><title>Node37&#45;&gt;Node40</title>
<path fill="none" stroke="midnightblue" d="M1713.51,-274.937C1742.9,-264.618 1780.54,-251.397 1811.53,-240.511"/>
<polygon fill="midnightblue" stroke="midnightblue" points="1813.07,-243.681 1821.34,-237.065 1810.75,-237.077 1813.07,-243.681"/>
</g>
<!-- Node41 -->
<g id="node93" class="node"><title>Node41</title>
<polygon fill="white" stroke="#bfbfbf" points="1334.43,-209.5 1334.43,-230.5 1383.43,-230.5 1383.43,-209.5 1334.43,-209.5"/>
<text text-anchor="middle" x="1358.93" y="-217.5" font-family="Helvetica,sans-Serif" font-size="10.00">amba.h</text>
</g>
<!-- Node37&#45;&gt;Node41 -->
<g id="edge104" class="edge"><title>Node37&#45;&gt;Node41</title>
<path fill="none" stroke="midnightblue" d="M1591.75,-283.675C1535.82,-275.855 1457.46,-261.722 1391.93,-238 1389.65,-237.175 1387.34,-236.211 1385.06,-235.166"/>
<polygon fill="midnightblue" stroke="midnightblue" points="1386.44,-231.945 1375.94,-230.556 1383.28,-238.191 1386.44,-231.945"/>
</g>
<!-- Node42 -->
<g id="node96" class="node"><title>Node42</title>
<polygon fill="white" stroke="#bfbfbf" points="1400.93,-209.5 1400.93,-230.5 1454.93,-230.5 1454.93,-209.5 1400.93,-209.5"/>
<text text-anchor="middle" x="1427.93" y="-217.5" font-family="Helvetica,sans-Serif" font-size="10.00">systemc</text>
</g>
<!-- Node37&#45;&gt;Node42 -->
<g id="edge108" class="edge"><title>Node37&#45;&gt;Node42</title>
<path fill="none" stroke="midnightblue" d="M1591.72,-276.085C1553.11,-266.759 1505.31,-253.719 1463.93,-238 1461.53,-237.088 1459.08,-236.067 1456.64,-234.987"/>
<polygon fill="midnightblue" stroke="midnightblue" points="1457.95,-231.738 1447.42,-230.635 1454.97,-238.069 1457.95,-231.738"/>
</g>
<!-- Node43&#45;&gt;Node2 -->
<g id="edge120" class="edge"><title>Node43&#45;&gt;Node2</title>
<path fill="none" stroke="midnightblue" d="M2480.48,-281.376C2385.35,-265.447 2209.68,-236.032 2141.75,-224.658"/>
<polygon fill="midnightblue" stroke="midnightblue" points="2142.25,-221.192 2131.81,-222.993 2141.09,-228.096 2142.25,-221.192"/>
</g>
<!-- Node43&#45;&gt;Node6 -->
<g id="edge118" class="edge"><title>Node43&#45;&gt;Node6</title>
<path fill="none" stroke="midnightblue" d="M2539.93,-274.86C2528.69,-226.733 2496.86,-90.4915 2484.72,-38.5043"/>
<polygon fill="midnightblue" stroke="midnightblue" points="2488.13,-37.6934 2482.44,-28.7517 2481.31,-39.2857 2488.13,-37.6934"/>
</g>
<!-- Node43&#45;&gt;Node44 -->
<g id="edge122" class="edge"><title>Node43&#45;&gt;Node44</title>
<path fill="none" stroke="midnightblue" d="M2562.42,-274.937C2572.35,-265.768 2584.76,-254.308 2595.68,-244.231"/>
<polygon fill="midnightblue" stroke="midnightblue" points="2598.34,-246.545 2603.31,-237.19 2593.59,-241.401 2598.34,-246.545"/>
</g>
<!-- Node44&#45;&gt;Node6 -->
<g id="edge124" class="edge"><title>Node44&#45;&gt;Node6</title>
<path fill="none" stroke="midnightblue" d="M2610.19,-202.55C2591.4,-174.734 2553.32,-118.715 2519.93,-72 2511.54,-60.2535 2501.91,-47.2451 2494.21,-36.9396"/>
<polygon fill="midnightblue" stroke="midnightblue" points="2496.81,-34.5776 2488.01,-28.6788 2491.21,-38.7784 2496.81,-34.5776"/>
</g>
<!-- Node45&#45;&gt;Node6 -->
<g id="edge128" class="edge"><title>Node45&#45;&gt;Node6</title>
<path fill="none" stroke="midnightblue" d="M2377.64,-346.917C2388.88,-337.127 2402.06,-324.02 2410.93,-310 2467.53,-220.595 2477.75,-89.2194 2479.56,-38.7743"/>
<polygon fill="midnightblue" stroke="midnightblue" points="2483.06,-38.8655 2479.84,-28.7707 2476.06,-38.668 2483.06,-38.8655"/>
</g>
<!-- Node45&#45;&gt;Node19 -->
<g id="edge142" class="edge"><title>Node45&#45;&gt;Node19</title>
<path fill="none" stroke="midnightblue" d="M2305.96,-346.939C2286.95,-338.361 2266.41,-326.26 2251.93,-310 2217.8,-271.65 2247.31,-238.231 2210.93,-202 2197.01,-188.136 2151.51,-172.367 2115.34,-161.464"/>
<polygon fill="midnightblue" stroke="midnightblue" points="2116,-158.01 2105.41,-158.524 2114.01,-164.721 2116,-158.01"/>
</g>
<!-- Node45&#45;&gt;Node21 -->
<g id="edge140" class="edge"><title>Node45&#45;&gt;Node21</title>
<path fill="none" stroke="midnightblue" d="M2301.16,-346.965C2277.85,-338.145 2251.21,-325.857 2229.93,-310 2179.83,-272.662 2195.72,-230.144 2139.93,-202 2120.96,-192.43 1501.7,-161.737 1288.33,-151.42"/>
<polygon fill="midnightblue" stroke="midnightblue" points="1288.34,-147.916 1278.18,-150.93 1288,-154.908 1288.34,-147.916"/>
</g>
<!-- Node45&#45;&gt;Node43 -->
<g id="edge136" class="edge"><title>Node45&#45;&gt;Node43</title>
<path fill="none" stroke="midnightblue" d="M2400.49,-346.937C2427.31,-336.663 2461.65,-323.511 2490.01,-312.652"/>
<polygon fill="midnightblue" stroke="midnightblue" points="2491.29,-315.91 2499.37,-309.065 2488.78,-309.373 2491.29,-315.91"/>
</g>
<!-- Node45&#45;&gt;Node44 -->
<g id="edge144" class="edge"><title>Node45&#45;&gt;Node44</title>
<path fill="none" stroke="midnightblue" d="M2419.19,-359.486C2487.71,-353.168 2590.66,-339.035 2615.93,-310 2630.66,-293.08 2630.79,-266.914 2628.04,-247.148"/>
<polygon fill="midnightblue" stroke="midnightblue" points="2631.47,-246.474 2626.35,-237.202 2624.57,-247.648 2631.47,-246.474"/>
</g>
<!-- Node45&#45;&gt;Node46 -->
<g id="edge130" class="edge"><title>Node45&#45;&gt;Node46</title>
<path fill="none" stroke="midnightblue" d="M2348.35,-346.937C2344.62,-338.542 2340.03,-328.227 2335.85,-318.81"/>
<polygon fill="midnightblue" stroke="midnightblue" points="2338.94,-317.157 2331.68,-309.441 2332.55,-320 2338.94,-317.157"/>
</g>
<!-- Node47 -->
<g id="node113" class="node"><title>Node47</title>
<a xlink:href="mem__if_8h.html" target="_top" xlink:title="core/models/mmu_cache\l/lib/mem_if.h">
<polygon fill="white" stroke="black" points="2300.93,-203 2300.93,-237 2426.93,-237 2426.93,-203 2300.93,-203"/>
<text text-anchor="start" x="2308.93" y="-224" font-family="Helvetica,sans-Serif" font-size="10.00">core/models/mmu_cache</text>
<text text-anchor="middle" x="2363.93" y="-211" font-family="Helvetica,sans-Serif" font-size="10.00">/lib/mem_if.h</text>
</a>
</g>
<!-- Node45&#45;&gt;Node47 -->
<g id="edge138" class="edge"><title>Node45&#45;&gt;Node47</title>
<path fill="none" stroke="midnightblue" d="M2373.25,-346.692C2381.87,-336.837 2391.4,-323.738 2395.93,-310 2400.95,-294.806 2400.16,-289.431 2395.93,-274 2393.24,-264.172 2388.24,-254.318 2382.99,-245.769"/>
<polygon fill="midnightblue" stroke="midnightblue" points="2385.91,-243.837 2377.5,-237.388 2380.05,-247.672 2385.91,-243.837"/>
</g>
<!-- Node46&#45;&gt;Node20 -->
<g id="edge134" class="edge"><title>Node46&#45;&gt;Node20</title>
<path fill="none" stroke="midnightblue" d="M2311.99,-274.776C2298.2,-255.631 2274.15,-224.454 2248.93,-202 2199.94,-158.371 2133.6,-119.141 2096.04,-98.4408"/>
<polygon fill="midnightblue" stroke="midnightblue" points="2097.59,-95.3013 2087.14,-93.5859 2094.24,-101.447 2097.59,-95.3013"/>
</g>
<!-- Node46&#45;&gt;Node47 -->
<g id="edge132" class="edge"><title>Node46&#45;&gt;Node47</title>
<path fill="none" stroke="midnightblue" d="M2333.41,-274.937C2338.17,-266.365 2344.05,-255.791 2349.37,-246.217"/>
<polygon fill="midnightblue" stroke="midnightblue" points="2352.45,-247.882 2354.24,-237.441 2346.33,-244.482 2352.45,-247.882"/>
</g>
</g>
</svg>
