<?xml version="1.0" encoding="UTF-8" standalone="no"?>
<!DOCTYPE svg PUBLIC "-//W3C//DTD SVG 1.1//EN"
 "http://www.w3.org/Graphics/SVG/1.1/DTD/svg11.dtd">
<!-- Generated by graphviz version 2.26.0 (20091210.2329)
 -->
<!-- Title: core/common/msclogger.h Pages: 1 -->
<!--zoomable 564 -->
<svg id="main" version="1.1" xmlns="http://www.w3.org/2000/svg" xmlns:xlink="http://www.w3.org/1999/xlink" xml:space="preserve" onload="init(evt)">
<style type="text/css"><![CDATA[
.edge:hover path { stroke: red; }
.edge:hover polygon { stroke: red; fill: red; }
]]></style>
<script type="text/javascript"><![CDATA[
var edges = document.getElementsByTagName('g');
if (edges && edges.length) {
  for (var i=0;i<edges.length;i++) {
    if (edges[i].id.substr(0,4)=='edge') {
      edges[i].setAttribute('class','edge');
    }
  }
}
]]></script>
        <defs>
                <circle id="rim" cx="0" cy="0" r="7"/>
                <circle id="rim2" cx="0" cy="0" r="3.5"/>
                <g id="zoomPlus">
                        <use xlink:href="#rim" fill="#404040">
                                <set attributeName="fill" to="#808080" begin="zoomplus.mouseover" end="zoomplus.mouseout"/>
                        </use>
                        <path d="M-4,0h8M0,-4v8" fill="none" stroke="white" stroke-width="1.5" pointer-events="none"/>
                </g>
                <g id="zoomMin">
                        <use xlink:href="#rim" fill="#404040">
                                <set attributeName="fill" to="#808080" begin="zoomminus.mouseover" end="zoomminus.mouseout"/>
                        </use>
                        <path d="M-4,0h8" fill="none" stroke="white" stroke-width="1.5" pointer-events="none"/>
                </g>
                <g id="dirArrow">
                        <path fill="none" stroke="white" stroke-width="1.5" d="M0,-3.0v7 M-2.5,-0.5L0,-3.0L2.5,-0.5"/>
                </g>
               <g id="resetDef">
                       <use xlink:href="#rim2" fill="#404040">
                               <set attributeName="fill" to="#808080" begin="reset.mouseover" end="reset.mouseout"/>
                       </use>
               </g>
        </defs>

<script type="text/javascript">
var viewWidth = 2306;
var viewHeight = 564;
var sectionId = 'dynsection-0';
</script>
<script xlink:href="svgpan.js"/>
<svg id="graph" class="graph">
<g id="viewport">
<title>core/common/msclogger.h</title>
<polygon fill="white" stroke="white" points="-4,5 -4,-560 2303,-560 2303,5 -4,5"/>
<!-- Node1 -->
<g id="node1" class="node"><title>Node1</title>
<polygon fill="#bfbfbf" stroke="black" points="1892,-534.5 1892,-555.5 2024,-555.5 2024,-534.5 1892,-534.5"/>
<text text-anchor="middle" x="1958" y="-542.5" font-family="Helvetica,sans-Serif" font-size="10.00">core/common/msclogger.h</text>
</g>
<!-- Node2 -->
<g id="node3" class="node"><title>Node2</title>
<polygon fill="white" stroke="#bfbfbf" points="928,-7.5 928,-28.5 966,-28.5 966,-7.5 928,-7.5"/>
<text text-anchor="middle" x="947" y="-15.5" font-family="Helvetica,sans-Serif" font-size="10.00">tlm.h</text>
</g>
<!-- Node1&#45;&gt;Node2 -->
<g id="edge2" class="edge"><title>Node1&#45;&gt;Node2</title>
<path fill="none" stroke="midnightblue" d="M1891.73,-544.616C1549.71,-542.207 0,-525.944 0,-429 0,-429 0,-429 0,-148 0,-52.9975 757.7,-23.9381 917.596,-18.8635"/>
<polygon fill="midnightblue" stroke="midnightblue" points="917.768,-22.3599 927.654,-18.5512 917.55,-15.3633 917.768,-22.3599"/>
</g>
<!-- Node3 -->
<g id="node5" class="node"><title>Node3</title>
<a xlink:href="common_2amba_8h.html" target="_top" xlink:title="core/common/amba.h">
<polygon fill="white" stroke="black" points="1747.5,-476.5 1747.5,-497.5 1858.5,-497.5 1858.5,-476.5 1747.5,-476.5"/>
<text text-anchor="middle" x="1803" y="-484.5" font-family="Helvetica,sans-Serif" font-size="10.00">core/common/amba.h</text>
</a>
</g>
<!-- Node1&#45;&gt;Node3 -->
<g id="edge4" class="edge"><title>Node1&#45;&gt;Node3</title>
<path fill="none" stroke="midnightblue" d="M1929.93,-534.497C1904.99,-525.164 1868.33,-511.445 1840.81,-501.147"/>
<polygon fill="midnightblue" stroke="midnightblue" points="1841.71,-497.75 1831.12,-497.523 1839.26,-504.306 1841.71,-497.75"/>
</g>
<!-- Node15 -->
<g id="node33" class="node"><title>Node15</title>
<polygon fill="white" stroke="#bfbfbf" points="1281,-72.5 1281,-93.5 1335,-93.5 1335,-72.5 1281,-72.5"/>
<text text-anchor="middle" x="1308" y="-80.5" font-family="Helvetica,sans-Serif" font-size="10.00">iostream</text>
</g>
<!-- Node1&#45;&gt;Node15 -->
<g id="edge122" class="edge"><title>Node1&#45;&gt;Node15</title>
<path fill="none" stroke="midnightblue" d="M1958.65,-534.4C1960.92,-487.491 1963.49,-296.731 1863,-202 1787.11,-130.459 1457.28,-95.8676 1345.33,-86.0333"/>
<polygon fill="midnightblue" stroke="midnightblue" points="1345.46,-82.5312 1335.2,-85.1584 1344.86,-89.5053 1345.46,-82.5312"/>
</g>
<!-- Node21 -->
<g id="node46" class="node"><title>Node21</title>
<a xlink:href="verbose_8h.html" target="_top" xlink:title="Implements a unified output system for messages and debunging. ">
<polygon fill="white" stroke="black" points="1910,-137.5 1910,-158.5 2032,-158.5 2032,-137.5 1910,-137.5"/>
<text text-anchor="middle" x="1971" y="-145.5" font-family="Helvetica,sans-Serif" font-size="10.00">core/common/verbose.h</text>
</a>
</g>
<!-- Node1&#45;&gt;Node21 -->
<g id="edge124" class="edge"><title>Node1&#45;&gt;Node21</title>
<path fill="none" stroke="midnightblue" d="M2004.54,-534.472C2079.83,-516.077 2220,-475.574 2220,-429 2220,-429 2220,-429 2220,-364 2220,-282.274 2195.51,-254.64 2133,-202 2107.32,-180.376 2072.66,-167.316 2041.99,-159.475"/>
<polygon fill="midnightblue" stroke="midnightblue" points="2042.73,-156.053 2032.19,-157.108 2041.08,-162.858 2042.73,-156.053"/>
</g>
<!-- Node43 -->
<g id="node103" class="node"><title>Node43</title>
<polygon fill="white" stroke="#bfbfbf" points="2248,-476.5 2248,-497.5 2298,-497.5 2298,-476.5 2248,-476.5"/>
<text text-anchor="middle" x="2273" y="-484.5" font-family="Helvetica,sans-Serif" font-size="10.00">fstream</text>
</g>
<!-- Node1&#45;&gt;Node43 -->
<g id="edge120" class="edge"><title>Node1&#45;&gt;Node43</title>
<path fill="none" stroke="midnightblue" d="M2024.19,-535.748C2080.34,-527.418 2162.88,-514.038 2234,-498 2235.27,-497.713 2236.57,-497.409 2237.87,-497.094"/>
<polygon fill="midnightblue" stroke="midnightblue" points="2239.12,-500.387 2247.92,-494.496 2237.37,-493.609 2239.12,-500.387"/>
</g>
<!-- Node4 -->
<g id="node7" class="node"><title>Node4</title>
<a xlink:href="systemc_8h.html" target="_top" xlink:title="core/common/systemc.h">
<polygon fill="white" stroke="black" points="2054.5,-72.5 2054.5,-93.5 2179.5,-93.5 2179.5,-72.5 2054.5,-72.5"/>
<text text-anchor="middle" x="2117" y="-80.5" font-family="Helvetica,sans-Serif" font-size="10.00">core/common/systemc.h</text>
</a>
</g>
<!-- Node3&#45;&gt;Node4 -->
<g id="edge6" class="edge"><title>Node3&#45;&gt;Node4</title>
<path fill="none" stroke="midnightblue" d="M1858.64,-481.909C1948.96,-470.15 2123.39,-431.941 2183,-310 2218.27,-237.844 2209.85,-197.93 2167,-130 2159.92,-118.777 2149.54,-108.424 2140.07,-100.307"/>
<polygon fill="midnightblue" stroke="midnightblue" points="2142.04,-97.4011 2132.08,-93.7848 2137.61,-102.822 2142.04,-97.4011"/>
</g>
<!-- Node8 -->
<g id="node17" class="node"><title>Node8</title>
<a xlink:href="base_8h.html" target="_top" xlink:title="core/common/base.h">
<polygon fill="white" stroke="black" points="1676,-418.5 1676,-439.5 1784,-439.5 1784,-418.5 1676,-418.5"/>
<text text-anchor="middle" x="1730" y="-426.5" font-family="Helvetica,sans-Serif" font-size="10.00">core/common/base.h</text>
</a>
</g>
<!-- Node3&#45;&gt;Node8 -->
<g id="edge18" class="edge"><title>Node3&#45;&gt;Node8</title>
<path fill="none" stroke="midnightblue" d="M1789.61,-476.362C1778.91,-467.859 1763.7,-455.779 1751.33,-445.947"/>
<polygon fill="midnightblue" stroke="midnightblue" points="1753.31,-443.051 1743.3,-439.571 1748.96,-448.532 1753.31,-443.051"/>
</g>
<!-- Node32 -->
<g id="node72" class="node"><title>Node32</title>
<a xlink:href="report_8h.html" target="_top" xlink:title="core/common/report.h">
<polygon fill="white" stroke="black" points="1986,-353.5 1986,-374.5 2098,-374.5 2098,-353.5 1986,-353.5"/>
<text text-anchor="middle" x="2042" y="-361.5" font-family="Helvetica,sans-Serif" font-size="10.00">core/common/report.h</text>
</a>
</g>
<!-- Node3&#45;&gt;Node32 -->
<g id="edge114" class="edge"><title>Node3&#45;&gt;Node32</title>
<path fill="none" stroke="midnightblue" d="M1816.74,-476.408C1835.95,-461.928 1872.28,-435.731 1906,-418 1936.54,-401.941 1972.95,-387.722 2000.42,-377.911"/>
<polygon fill="midnightblue" stroke="midnightblue" points="2001.83,-381.124 2010.1,-374.501 1999.5,-374.521 2001.83,-381.124"/>
</g>
<!-- Node35 -->
<g id="node80" class="node"><title>Node35</title>
<polygon fill="white" stroke="#bfbfbf" points="27.5,-209.5 27.5,-230.5 130.5,-230.5 130.5,-209.5 27.5,-209.5"/>
<text text-anchor="middle" x="79" y="-217.5" font-family="Helvetica,sans-Serif" font-size="10.00">greenreg/greenreg.h</text>
</g>
<!-- Node3&#45;&gt;Node35 -->
<g id="edge116" class="edge"><title>Node3&#45;&gt;Node35</title>
<path fill="none" stroke="midnightblue" d="M1747.41,-486.306C1578.47,-483.869 1056.3,-473.924 625,-440 405.057,-422.701 302.734,-521.729 132,-382 89.0188,-346.824 80.573,-276.149 79.1261,-240.936"/>
<polygon fill="midnightblue" stroke="midnightblue" points="82.6225,-240.746 78.8673,-230.839 75.6248,-240.925 82.6225,-240.746"/>
</g>
<!-- Node36 -->
<g id="node82" class="node"><title>Node36</title>
<a xlink:href="greenreg__ambasockets_8h.html" target="_top" xlink:title="core/common/grambasockets\l/greenreg_ambasockets.h">
<polygon fill="white" stroke="black" points="141,-347 141,-381 287,-381 287,-347 141,-347"/>
<text text-anchor="start" x="149" y="-368" font-family="Helvetica,sans-Serif" font-size="10.00">core/common/grambasockets</text>
<text text-anchor="middle" x="214" y="-355" font-family="Helvetica,sans-Serif" font-size="10.00">/greenreg_ambasockets.h</text>
</a>
</g>
<!-- Node3&#45;&gt;Node36 -->
<g id="edge118" class="edge"><title>Node3&#45;&gt;Node36</title>
<path fill="none" stroke="midnightblue" d="M1747.49,-485.805C1549.85,-480.982 862.284,-459.327 301,-382 299.892,-381.847 298.777,-381.689 297.657,-381.525"/>
<polygon fill="midnightblue" stroke="midnightblue" points="297.874,-378.016 287.451,-379.919 296.786,-384.931 297.874,-378.016"/>
</g>
<!-- Node4&#45;&gt;Node2 -->
<g id="edge10" class="edge"><title>Node4&#45;&gt;Node2</title>
<path fill="none" stroke="midnightblue" d="M2054.33,-72.926C2051.52,-72.5891 2048.73,-72.2778 2046,-72 1622.65,-28.9243 1103.94,-19.9266 976.366,-18.3161"/>
<polygon fill="midnightblue" stroke="midnightblue" points="976.261,-14.8147 966.22,-18.1935 976.177,-21.8142 976.261,-14.8147"/>
</g>
<!-- Node4&#45;&gt;Node4 -->
<g id="edge8" class="edge"><title>Node4&#45;&gt;Node4</title>
<path fill="none" stroke="midnightblue" d="M2148.62,-93.5168C2172.64,-97.3181 2197,-93.8125 2197,-83 2197,-73.708 2179.01,-69.8123 2158.71,-71.313"/>
<polygon fill="midnightblue" stroke="midnightblue" points="2158.15,-67.8539 2148.62,-72.4832 2158.96,-74.8073 2158.15,-67.8539"/>
</g>
<!-- Node5 -->
<g id="node11" class="node"><title>Node5</title>
<polygon fill="white" stroke="#bfbfbf" points="2181.5,-1 2181.5,-35 2296.5,-35 2296.5,-1 2181.5,-1"/>
<text text-anchor="start" x="2189.5" y="-22" font-family="Helvetica,sans-Serif" font-size="10.00">tlm_utils/simple_target</text>
<text text-anchor="middle" x="2239" y="-9" font-family="Helvetica,sans-Serif" font-size="10.00">_socket.h</text>
</g>
<!-- Node4&#45;&gt;Node5 -->
<g id="edge12" class="edge"><title>Node4&#45;&gt;Node5</title>
<path fill="none" stroke="midnightblue" d="M2136.87,-72.412C2153.34,-63.6378 2177.3,-50.8751 2197.87,-39.9153"/>
<polygon fill="midnightblue" stroke="midnightblue" points="2199.56,-42.9781 2206.74,-35.1869 2196.27,-36.8002 2199.56,-42.9781"/>
</g>
<!-- Node6 -->
<g id="node13" class="node"><title>Node6</title>
<polygon fill="white" stroke="#bfbfbf" points="1930,-1 1930,-35 2052,-35 2052,-1 1930,-1"/>
<text text-anchor="start" x="1938" y="-22" font-family="Helvetica,sans-Serif" font-size="10.00">tlm_utils/simple_initiator</text>
<text text-anchor="middle" x="1991" y="-9" font-family="Helvetica,sans-Serif" font-size="10.00">_socket.h</text>
</g>
<!-- Node4&#45;&gt;Node6 -->
<g id="edge14" class="edge"><title>Node4&#45;&gt;Node6</title>
<path fill="none" stroke="midnightblue" d="M2096.48,-72.412C2079.47,-63.6378 2054.73,-50.8751 2033.48,-39.9153"/>
<polygon fill="midnightblue" stroke="midnightblue" points="2034.81,-36.6611 2024.32,-35.1869 2031.6,-42.8821 2034.81,-36.6611"/>
</g>
<!-- Node7 -->
<g id="node15" class="node"><title>Node7</title>
<polygon fill="white" stroke="#bfbfbf" points="2069.5,-1 2069.5,-35 2164.5,-35 2164.5,-1 2069.5,-1"/>
<text text-anchor="start" x="2077.5" y="-22" font-family="Helvetica,sans-Serif" font-size="10.00">tlm_utils/peq_with</text>
<text text-anchor="middle" x="2117" y="-9" font-family="Helvetica,sans-Serif" font-size="10.00">_get.h</text>
</g>
<!-- Node4&#45;&gt;Node7 -->
<g id="edge16" class="edge"><title>Node4&#45;&gt;Node7</title>
<path fill="none" stroke="midnightblue" d="M2117,-72.2666C2117,-64.931 2117,-54.8573 2117,-45.3796"/>
<polygon fill="midnightblue" stroke="midnightblue" points="2120.5,-45.1098 2117,-35.1099 2113.5,-45.1099 2120.5,-45.1098"/>
</g>
<!-- Node8&#45;&gt;Node4 -->
<g id="edge20" class="edge"><title>Node8&#45;&gt;Node4</title>
<path fill="none" stroke="midnightblue" d="M1741.83,-418.143C1772.35,-390.618 1857.1,-317.23 1939,-274 1982.26,-251.167 2006.53,-270.594 2043,-238 2084.15,-201.225 2104.48,-136.609 2112.58,-103.63"/>
<polygon fill="midnightblue" stroke="midnightblue" points="2116.03,-104.276 2114.88,-93.7443 2109.21,-102.695 2116.03,-104.276"/>
</g>
<!-- Node9 -->
<g id="node20" class="node"><title>Node9</title>
<a xlink:href="gs__config_8h.html" target="_top" xlink:title="core/common/gs_config.h">
<polygon fill="white" stroke="black" points="1631.5,-353.5 1631.5,-374.5 1760.5,-374.5 1760.5,-353.5 1631.5,-353.5"/>
<text text-anchor="middle" x="1696" y="-361.5" font-family="Helvetica,sans-Serif" font-size="10.00">core/common/gs_config.h</text>
</a>
</g>
<!-- Node8&#45;&gt;Node9 -->
<g id="edge22" class="edge"><title>Node8&#45;&gt;Node9</title>
<path fill="none" stroke="midnightblue" d="M1724.39,-418.267C1719.48,-408.896 1712.25,-395.057 1706.3,-383.7"/>
<polygon fill="midnightblue" stroke="midnightblue" points="1709.25,-381.772 1701.51,-374.534 1703.04,-385.017 1709.25,-381.772"/>
</g>
<!-- Node8&#45;&gt;Node32 -->
<g id="edge80" class="edge"><title>Node8&#45;&gt;Node32</title>
<path fill="none" stroke="midnightblue" d="M1780.47,-418.484C1835.42,-407.038 1923.24,-388.742 1981.75,-376.552"/>
<polygon fill="midnightblue" stroke="midnightblue" points="1982.52,-379.967 1991.6,-374.501 1981.09,-373.114 1982.52,-379.967"/>
</g>
<!-- Node8&#45;&gt;Node35 -->
<g id="edge90" class="edge"><title>Node8&#45;&gt;Node35</title>
<path fill="none" stroke="midnightblue" d="M1675.88,-426.229C1451.99,-414.484 597.645,-366.791 334,-310 251.562,-292.242 159.267,-255.095 111.535,-234.51"/>
<polygon fill="midnightblue" stroke="midnightblue" points="112.888,-231.282 102.322,-230.504 110.096,-237.701 112.888,-231.282"/>
</g>
<!-- Node8&#45;&gt;Node36 -->
<g id="edge92" class="edge"><title>Node8&#45;&gt;Node36</title>
<path fill="none" stroke="midnightblue" d="M1675.94,-428.46C1449.29,-426.006 574.753,-414.578 301,-382 299.89,-381.868 298.772,-381.729 297.649,-381.583"/>
<polygon fill="midnightblue" stroke="midnightblue" points="297.823,-378.072 287.427,-380.113 296.826,-385.001 297.823,-378.072"/>
</g>
<!-- Node10 -->
<g id="node22" class="node"><title>Node10</title>
<polygon fill="white" stroke="#bfbfbf" points="1609.5,-281.5 1609.5,-302.5 1716.5,-302.5 1716.5,-281.5 1609.5,-281.5"/>
<text text-anchor="middle" x="1663" y="-289.5" font-family="Helvetica,sans-Serif" font-size="10.00">greencontrol/config.h</text>
</g>
<!-- Node9&#45;&gt;Node10 -->
<g id="edge24" class="edge"><title>Node9&#45;&gt;Node10</title>
<path fill="none" stroke="midnightblue" d="M1691.13,-353.376C1686.16,-342.528 1678.32,-325.426 1672.18,-312.027"/>
<polygon fill="midnightblue" stroke="midnightblue" points="1675.24,-310.3 1667.89,-302.667 1668.87,-313.216 1675.24,-310.3"/>
</g>
<!-- Node11 -->
<g id="node24" class="node"><title>Node11</title>
<a xlink:href="gs__config_2gs__config_8h.html" target="_top" xlink:title="core/common/gs_config\l/gs_config.h">
<polygon fill="white" stroke="black" points="1733.5,-275 1733.5,-309 1854.5,-309 1854.5,-275 1733.5,-275"/>
<text text-anchor="start" x="1741.5" y="-296" font-family="Helvetica,sans-Serif" font-size="10.00">core/common/gs_config</text>
<text text-anchor="middle" x="1794" y="-283" font-family="Helvetica,sans-Serif" font-size="10.00">/gs_config.h</text>
</a>
</g>
<!-- Node9&#45;&gt;Node11 -->
<g id="edge26" class="edge"><title>Node9&#45;&gt;Node11</title>
<path fill="none" stroke="midnightblue" d="M1710.46,-353.376C1724.1,-343.358 1744.99,-328.007 1762.47,-315.163"/>
<polygon fill="midnightblue" stroke="midnightblue" points="1764.75,-317.836 1770.73,-309.094 1760.6,-312.195 1764.75,-317.836"/>
</g>
<!-- Node14 -->
<g id="node30" class="node"><title>Node14</title>
<a xlink:href="gs__config__class_8h.html" target="_top" xlink:title="core/common/gs_config\l/gs_config_class.h">
<polygon fill="white" stroke="black" points="1408.5,-275 1408.5,-309 1529.5,-309 1529.5,-275 1408.5,-275"/>
<text text-anchor="start" x="1416.5" y="-296" font-family="Helvetica,sans-Serif" font-size="10.00">core/common/gs_config</text>
<text text-anchor="middle" x="1469" y="-283" font-family="Helvetica,sans-Serif" font-size="10.00">/gs_config_class.h</text>
</a>
</g>
<!-- Node9&#45;&gt;Node14 -->
<g id="edge32" class="edge"><title>Node9&#45;&gt;Node14</title>
<path fill="none" stroke="midnightblue" d="M1662.51,-353.376C1628.41,-342.562 1574.72,-325.531 1532.53,-312.15"/>
<polygon fill="midnightblue" stroke="midnightblue" points="1533.48,-308.782 1522.89,-309.094 1531.37,-315.454 1533.48,-308.782"/>
</g>
<!-- Node12 -->
<g id="node26" class="node"><title>Node12</title>
<polygon fill="white" stroke="#bfbfbf" points="1813.5,-209.5 1813.5,-230.5 1854.5,-230.5 1854.5,-209.5 1813.5,-209.5"/>
<text text-anchor="middle" x="1834" y="-217.5" font-family="Helvetica,sans-Serif" font-size="10.00">string</text>
</g>
<!-- Node11&#45;&gt;Node12 -->
<g id="edge28" class="edge"><title>Node11&#45;&gt;Node12</title>
<path fill="none" stroke="midnightblue" d="M1803.48,-274.937C1809.34,-264.387 1816.89,-250.805 1823.01,-239.785"/>
<polygon fill="midnightblue" stroke="midnightblue" points="1826.15,-241.342 1827.94,-230.901 1820.03,-237.943 1826.15,-241.342"/>
</g>
<!-- Node13 -->
<g id="node28" class="node"><title>Node13</title>
<polygon fill="white" stroke="#bfbfbf" points="2089.5,-209.5 2089.5,-230.5 2124.5,-230.5 2124.5,-209.5 2089.5,-209.5"/>
<text text-anchor="middle" x="2107" y="-217.5" font-family="Helvetica,sans-Serif" font-size="10.00">map</text>
</g>
<!-- Node11&#45;&gt;Node13 -->
<g id="edge30" class="edge"><title>Node11&#45;&gt;Node13</title>
<path fill="none" stroke="midnightblue" d="M1854.62,-279.925C1905.18,-269.596 1979.04,-253.914 2043,-238 2055.09,-234.991 2068.37,-231.319 2079.68,-228.078"/>
<polygon fill="midnightblue" stroke="midnightblue" points="2080.79,-231.4 2089.42,-225.255 2078.84,-224.677 2080.79,-231.4"/>
</g>
<!-- Node14&#45;&gt;Node12 -->
<g id="edge34" class="edge"><title>Node14&#45;&gt;Node12</title>
<path fill="none" stroke="midnightblue" d="M1529.57,-283.586C1619.3,-270.923 1779.71,-247.444 1805,-238 1806.87,-237.3 1808.76,-236.472 1810.62,-235.562"/>
<polygon fill="midnightblue" stroke="midnightblue" points="1812.54,-238.495 1819.53,-230.536 1809.1,-232.396 1812.54,-238.495"/>
</g>
<!-- Node14&#45;&gt;Node15 -->
<g id="edge36" class="edge"><title>Node14&#45;&gt;Node15</title>
<path fill="none" stroke="midnightblue" d="M1408.48,-290.814C1267.99,-287.435 929.09,-275.448 895,-238 784.276,-116.371 1150.01,-89.7286 1270.69,-84.3018"/>
<polygon fill="midnightblue" stroke="midnightblue" points="1271.09,-87.7882 1280.93,-83.8664 1270.79,-80.7945 1271.09,-87.7882"/>
</g>
<!-- Node16 -->
<g id="node35" class="node"><title>Node16</title>
<polygon fill="white" stroke="#bfbfbf" points="1624,-209.5 1624,-230.5 1676,-230.5 1676,-209.5 1624,-209.5"/>
<text text-anchor="middle" x="1650" y="-217.5" font-family="Helvetica,sans-Serif" font-size="10.00">sstream</text>
</g>
<!-- Node14&#45;&gt;Node16 -->
<g id="edge38" class="edge"><title>Node14&#45;&gt;Node16</title>
<path fill="none" stroke="midnightblue" d="M1519.6,-274.98C1547.98,-265.014 1583.83,-251.718 1615,-238 1617.08,-237.083 1619.22,-236.1 1621.35,-235.083"/>
<polygon fill="midnightblue" stroke="midnightblue" points="1623.17,-238.089 1630.58,-230.514 1620.07,-231.815 1623.17,-238.089"/>
</g>
<!-- Node17 -->
<g id="node37" class="node"><title>Node17</title>
<polygon fill="white" stroke="#bfbfbf" points="1694,-209.5 1694,-230.5 1796,-230.5 1796,-209.5 1694,-209.5"/>
<text text-anchor="middle" x="1745" y="-217.5" font-family="Helvetica,sans-Serif" font-size="10.00">boost/tokenizer.hpp</text>
</g>
<!-- Node14&#45;&gt;Node17 -->
<g id="edge40" class="edge"><title>Node14&#45;&gt;Node17</title>
<path fill="none" stroke="midnightblue" d="M1529.72,-277.62C1573.11,-267.147 1632.82,-252.341 1685,-238 1690.24,-236.559 1695.73,-234.994 1701.16,-233.409"/>
<polygon fill="midnightblue" stroke="midnightblue" points="1702.21,-236.747 1710.81,-230.556 1700.23,-230.034 1702.21,-236.747"/>
</g>
<!-- Node18 -->
<g id="node39" class="node"><title>Node18</title>
<a xlink:href="common_8h.html" target="_top" xlink:title="core/common/common.h">
<polygon fill="white" stroke="black" points="1909.5,-209.5 1909.5,-230.5 2034.5,-230.5 2034.5,-209.5 1909.5,-209.5"/>
<text text-anchor="middle" x="1972" y="-217.5" font-family="Helvetica,sans-Serif" font-size="10.00">core/common/common.h</text>
</a>
</g>
<!-- Node14&#45;&gt;Node18 -->
<g id="edge42" class="edge"><title>Node14&#45;&gt;Node18</title>
<path fill="none" stroke="midnightblue" d="M1529.57,-283.743C1635.95,-269.234 1846.72,-240.459 1863,-238 1874.93,-236.198 1887.57,-234.195 1899.86,-232.199"/>
<polygon fill="midnightblue" stroke="midnightblue" points="1900.78,-235.596 1910.08,-230.528 1899.65,-228.688 1900.78,-235.596"/>
</g>
<!-- Node26 -->
<g id="node59" class="node"><title>Node26</title>
<a xlink:href="gs__config__t_8h.html" target="_top" xlink:title="core/common/gs_config\l/gs_config_t.h">
<polygon fill="white" stroke="black" points="903.5,-203 903.5,-237 1024.5,-237 1024.5,-203 903.5,-203"/>
<text text-anchor="start" x="911.5" y="-224" font-family="Helvetica,sans-Serif" font-size="10.00">core/common/gs_config</text>
<text text-anchor="middle" x="964" y="-211" font-family="Helvetica,sans-Serif" font-size="10.00">/gs_config_t.h</text>
</a>
</g>
<!-- Node14&#45;&gt;Node26 -->
<g id="edge66" class="edge"><title>Node14&#45;&gt;Node26</title>
<path fill="none" stroke="midnightblue" d="M1408.3,-287.032C1325.69,-279.707 1173.14,-264.177 1034.79,-238.227"/>
<polygon fill="midnightblue" stroke="midnightblue" points="1035.33,-234.767 1024.85,-236.34 1034.03,-241.644 1035.33,-234.767"/>
</g>
<!-- Node27 -->
<g id="node61" class="node"><title>Node27</title>
<a xlink:href="gs__config__operator__macros_8h.html" target="_top" xlink:title="core/common/gs_config\l/gs_config_operator_macros.h">
<polygon fill="white" stroke="black" points="1042,-203 1042,-237 1190,-237 1190,-203 1042,-203"/>
<text text-anchor="start" x="1050" y="-224" font-family="Helvetica,sans-Serif" font-size="10.00">core/common/gs_config</text>
<text text-anchor="middle" x="1116" y="-211" font-family="Helvetica,sans-Serif" font-size="10.00">/gs_config_operator_macros.h</text>
</a>
</g>
<!-- Node14&#45;&gt;Node27 -->
<g id="edge68" class="edge"><title>Node14&#45;&gt;Node27</title>
<path fill="none" stroke="midnightblue" d="M1408.36,-280.162C1355.84,-269.845 1277.58,-254.31 1200.13,-238.221"/>
<polygon fill="midnightblue" stroke="midnightblue" points="1200.7,-234.765 1190.2,-236.154 1199.28,-241.618 1200.7,-234.765"/>
</g>
<!-- Node28 -->
<g id="node63" class="node"><title>Node28</title>
<a xlink:href="gs__config__delegate_8h.html" target="_top" xlink:title="core/common/gs_config\l/gs_config_delegate.h">
<polygon fill="white" stroke="black" points="1207.5,-203 1207.5,-237 1328.5,-237 1328.5,-203 1207.5,-203"/>
<text text-anchor="start" x="1215.5" y="-224" font-family="Helvetica,sans-Serif" font-size="10.00">core/common/gs_config</text>
<text text-anchor="middle" x="1268" y="-211" font-family="Helvetica,sans-Serif" font-size="10.00">/gs_config_delegate.h</text>
</a>
</g>
<!-- Node14&#45;&gt;Node28 -->
<g id="edge70" class="edge"><title>Node14&#45;&gt;Node28</title>
<path fill="none" stroke="midnightblue" d="M1421.37,-274.937C1392.56,-264.618 1355.65,-251.397 1325.26,-240.511"/>
<polygon fill="midnightblue" stroke="midnightblue" points="1326.23,-237.142 1315.64,-237.065 1323.87,-243.732 1326.23,-237.142"/>
</g>
<!-- Node29 -->
<g id="node65" class="node"><title>Node29</title>
<a xlink:href="gs__config__native_8hpp.html" target="_top" xlink:title="core/common/gs_config\l/gs_config_native.hpp">
<polygon fill="white" stroke="black" points="1345.5,-203 1345.5,-237 1466.5,-237 1466.5,-203 1345.5,-203"/>
<text text-anchor="start" x="1353.5" y="-224" font-family="Helvetica,sans-Serif" font-size="10.00">core/common/gs_config</text>
<text text-anchor="middle" x="1406" y="-211" font-family="Helvetica,sans-Serif" font-size="10.00">/gs_config_native.hpp</text>
</a>
</g>
<!-- Node14&#45;&gt;Node29 -->
<g id="edge72" class="edge"><title>Node14&#45;&gt;Node29</title>
<path fill="none" stroke="midnightblue" d="M1454.07,-274.937C1446.26,-266.012 1436.55,-254.916 1427.91,-245.037"/>
<polygon fill="midnightblue" stroke="midnightblue" points="1430.48,-242.662 1421.26,-237.441 1425.21,-247.271 1430.48,-242.662"/>
</g>
<!-- Node30 -->
<g id="node67" class="node"><title>Node30</title>
<a xlink:href="gs__config__stdint_8hpp.html" target="_top" xlink:title="core/common/gs_config\l/gs_config_stdint.hpp">
<polygon fill="white" stroke="black" points="513.5,-131 513.5,-165 634.5,-165 634.5,-131 513.5,-131"/>
<text text-anchor="start" x="521.5" y="-152" font-family="Helvetica,sans-Serif" font-size="10.00">core/common/gs_config</text>
<text text-anchor="middle" x="574" y="-139" font-family="Helvetica,sans-Serif" font-size="10.00">/gs_config_stdint.hpp</text>
</a>
</g>
<!-- Node14&#45;&gt;Node30 -->
<g id="edge74" class="edge"><title>Node14&#45;&gt;Node30</title>
<path fill="none" stroke="midnightblue" d="M1408.28,-289.137C1275.73,-282.476 964.161,-264.465 862,-238 823.863,-228.121 818.183,-215.015 781,-202 780.893,-201.963 704.455,-182.024 644.507,-166.389"/>
<polygon fill="midnightblue" stroke="midnightblue" points="645.224,-162.959 634.665,-163.822 643.458,-169.732 645.224,-162.959"/>
</g>
<!-- Node31 -->
<g id="node70" class="node"><title>Node31</title>
<a xlink:href="gs__config__systemc_8hpp.html" target="_top" xlink:title="core/common/gs_config\l/gs_config_systemc.hpp">
<polygon fill="white" stroke="black" points="1483.5,-203 1483.5,-237 1606.5,-237 1606.5,-203 1483.5,-203"/>
<text text-anchor="start" x="1491.5" y="-224" font-family="Helvetica,sans-Serif" font-size="10.00">core/common/gs_config</text>
<text text-anchor="middle" x="1545" y="-211" font-family="Helvetica,sans-Serif" font-size="10.00">/gs_config_systemc.hpp</text>
</a>
</g>
<!-- Node14&#45;&gt;Node31 -->
<g id="edge78" class="edge"><title>Node14&#45;&gt;Node31</title>
<path fill="none" stroke="midnightblue" d="M1487.01,-274.937C1496.69,-265.768 1508.79,-254.308 1519.42,-244.231"/>
<polygon fill="midnightblue" stroke="midnightblue" points="1522,-246.608 1526.85,-237.19 1517.19,-241.527 1522,-246.608"/>
</g>
<!-- Node18&#45;&gt;Node4 -->
<g id="edge44" class="edge"><title>Node18&#45;&gt;Node4</title>
<path fill="none" stroke="midnightblue" d="M1986.84,-209.495C2001.21,-199.068 2023.36,-182.325 2041,-166 2063.43,-145.243 2086.82,-118.868 2101.63,-101.487"/>
<polygon fill="midnightblue" stroke="midnightblue" points="2104.39,-103.641 2108.16,-93.7418 2099.04,-99.1267 2104.39,-103.641"/>
</g>
<!-- Node19 -->
<g id="node42" class="node"><title>Node19</title>
<a xlink:href="vendian_8h.html" target="_top" xlink:title="core/common/vendian.h">
<polygon fill="white" stroke="black" points="651.5,-137.5 651.5,-158.5 772.5,-158.5 772.5,-137.5 651.5,-137.5"/>
<text text-anchor="middle" x="712" y="-145.5" font-family="Helvetica,sans-Serif" font-size="10.00">core/common/vendian.h</text>
</a>
</g>
<!-- Node18&#45;&gt;Node19 -->
<g id="edge46" class="edge"><title>Node18&#45;&gt;Node19</title>
<path fill="none" stroke="midnightblue" d="M1916.16,-209.492C1899.15,-206.639 1880.36,-203.834 1863,-202 1455.62,-158.956 963.511,-150.222 782.88,-148.451"/>
<polygon fill="midnightblue" stroke="midnightblue" points="782.747,-144.949 772.715,-148.355 782.682,-151.949 782.747,-144.949"/>
</g>
<!-- Node18&#45;&gt;Node21 -->
<g id="edge50" class="edge"><title>Node18&#45;&gt;Node21</title>
<path fill="none" stroke="midnightblue" d="M1966.9,-209.376C1964.88,-198.741 1964.24,-182.095 1965.1,-168.82"/>
<polygon fill="midnightblue" stroke="midnightblue" points="1968.61,-168.982 1966.19,-158.667 1961.65,-168.24 1968.61,-168.982"/>
</g>
<!-- Node20 -->
<g id="node44" class="node"><title>Node20</title>
<polygon fill="white" stroke="#bfbfbf" points="618.5,-72.5 618.5,-93.5 667.5,-93.5 667.5,-72.5 618.5,-72.5"/>
<text text-anchor="middle" x="643" y="-80.5" font-family="Helvetica,sans-Serif" font-size="10.00">stdint.h</text>
</g>
<!-- Node19&#45;&gt;Node20 -->
<g id="edge48" class="edge"><title>Node19&#45;&gt;Node20</title>
<path fill="none" stroke="midnightblue" d="M700.606,-137.267C690.056,-127.328 674.17,-112.363 661.751,-100.664"/>
<polygon fill="midnightblue" stroke="midnightblue" points="663.861,-97.843 654.182,-93.5337 659.061,-102.938 663.861,-97.843"/>
</g>
<!-- Node21&#45;&gt;Node4 -->
<g id="edge64" class="edge"><title>Node21&#45;&gt;Node4</title>
<path fill="none" stroke="midnightblue" d="M1994.78,-137.412C2018.96,-126.647 2056.63,-109.878 2083.75,-97.8009"/>
<polygon fill="midnightblue" stroke="midnightblue" points="2085.52,-100.848 2093.23,-93.5835 2082.67,-94.4533 2085.52,-100.848"/>
</g>
<!-- Node21&#45;&gt;Node15 -->
<g id="edge58" class="edge"><title>Node21&#45;&gt;Node15</title>
<path fill="none" stroke="midnightblue" d="M1932.3,-137.497C1920.71,-134.679 1907.9,-131.892 1896,-130 1689.54,-97.1788 1438.47,-86.8161 1345.21,-83.9643"/>
<polygon fill="midnightblue" stroke="midnightblue" points="1345.24,-80.4638 1335.14,-83.6672 1345.03,-87.4607 1345.24,-80.4638"/>
</g>
<!-- Node21&#45;&gt;Node18 -->
<g id="edge62" class="edge"><title>Node21&#45;&gt;Node18</title>
<path fill="none" stroke="midnightblue" d="M1976.11,-158.667C1978.12,-169.319 1978.76,-185.969 1977.89,-199.235"/>
<polygon fill="midnightblue" stroke="midnightblue" points="1974.39,-199.061 1976.81,-209.376 1981.35,-199.805 1974.39,-199.061"/>
</g>
<!-- Node22 -->
<g id="node48" class="node"><title>Node22</title>
<polygon fill="white" stroke="#bfbfbf" points="1930.5,-72.5 1930.5,-93.5 1973.5,-93.5 1973.5,-72.5 1930.5,-72.5"/>
<text text-anchor="middle" x="1952" y="-80.5" font-family="Helvetica,sans-Serif" font-size="10.00">cstdio</text>
</g>
<!-- Node21&#45;&gt;Node22 -->
<g id="edge52" class="edge"><title>Node21&#45;&gt;Node22</title>
<path fill="none" stroke="midnightblue" d="M1967.86,-137.267C1965.18,-128.085 1961.24,-114.615 1957.96,-103.392"/>
<polygon fill="midnightblue" stroke="midnightblue" points="1961.24,-102.15 1955.08,-93.5337 1954.53,-104.114 1961.24,-102.15"/>
</g>
<!-- Node23 -->
<g id="node50" class="node"><title>Node23</title>
<polygon fill="white" stroke="#bfbfbf" points="1991,-72.5 1991,-93.5 2037,-93.5 2037,-72.5 1991,-72.5"/>
<text text-anchor="middle" x="2014" y="-80.5" font-family="Helvetica,sans-Serif" font-size="10.00">cstring</text>
</g>
<!-- Node21&#45;&gt;Node23 -->
<g id="edge54" class="edge"><title>Node21&#45;&gt;Node23</title>
<path fill="none" stroke="midnightblue" d="M1978.1,-137.267C1984.42,-127.707 1993.83,-113.496 2001.42,-102.015"/>
<polygon fill="midnightblue" stroke="midnightblue" points="2004.43,-103.805 2007.03,-93.5337 1998.6,-99.9428 2004.43,-103.805"/>
</g>
<!-- Node24 -->
<g id="node52" class="node"><title>Node24</title>
<polygon fill="white" stroke="#bfbfbf" points="1785,-72.5 1785,-93.5 1835,-93.5 1835,-72.5 1785,-72.5"/>
<text text-anchor="middle" x="1810" y="-80.5" font-family="Helvetica,sans-Serif" font-size="10.00">iomanip</text>
</g>
<!-- Node21&#45;&gt;Node24 -->
<g id="edge56" class="edge"><title>Node21&#45;&gt;Node24</title>
<path fill="none" stroke="midnightblue" d="M1944.77,-137.412C1917.56,-126.423 1874.84,-109.178 1844.81,-97.0541"/>
<polygon fill="midnightblue" stroke="midnightblue" points="1845.74,-93.6534 1835.15,-93.1551 1843.12,-100.144 1845.74,-93.6534"/>
</g>
<!-- Node25 -->
<g id="node55" class="node"><title>Node25</title>
<polygon fill="white" stroke="#bfbfbf" points="1853,-72.5 1853,-93.5 1913,-93.5 1913,-72.5 1853,-72.5"/>
<text text-anchor="middle" x="1883" y="-80.5" font-family="Helvetica,sans-Serif" font-size="10.00">streambuf</text>
</g>
<!-- Node21&#45;&gt;Node25 -->
<g id="edge60" class="edge"><title>Node21&#45;&gt;Node25</title>
<path fill="none" stroke="midnightblue" d="M1956.47,-137.267C1942.63,-127.044 1921.59,-111.504 1905.57,-99.6699"/>
<polygon fill="midnightblue" stroke="midnightblue" points="1907.38,-96.6598 1897.26,-93.5337 1903.23,-102.29 1907.38,-96.6598"/>
</g>
<!-- Node30&#45;&gt;Node20 -->
<g id="edge76" class="edge"><title>Node30&#45;&gt;Node20</title>
<path fill="none" stroke="midnightblue" d="M592.129,-130.922C601.959,-121.662 614.097,-110.227 624.051,-100.85"/>
<polygon fill="midnightblue" stroke="midnightblue" points="626.601,-103.257 631.48,-93.8521 621.801,-98.1614 626.601,-103.257"/>
</g>
<!-- Node32&#45;&gt;Node4 -->
<g id="edge84" class="edge"><title>Node32&#45;&gt;Node4</title>
<path fill="none" stroke="midnightblue" d="M2097.32,-353.498C2121.82,-345.799 2148.35,-332.579 2163,-310 2206.25,-243.341 2155.32,-144.336 2129.84,-102.639"/>
<polygon fill="midnightblue" stroke="midnightblue" points="2132.68,-100.589 2124.4,-93.9803 2126.76,-104.311 2132.68,-100.589"/>
</g>
<!-- Node33 -->
<g id="node74" class="node"><title>Node33</title>
<polygon fill="white" stroke="#bfbfbf" points="2076,-281.5 2076,-302.5 2154,-302.5 2154,-281.5 2076,-281.5"/>
<text text-anchor="middle" x="2115" y="-289.5" font-family="Helvetica,sans-Serif" font-size="10.00">boost/any.hpp</text>
</g>
<!-- Node32&#45;&gt;Node33 -->
<g id="edge82" class="edge"><title>Node32&#45;&gt;Node33</title>
<path fill="none" stroke="midnightblue" d="M2052.77,-353.376C2064.42,-341.89 2083.17,-323.393 2097.05,-309.703"/>
<polygon fill="midnightblue" stroke="midnightblue" points="2099.52,-312.181 2104.18,-302.667 2094.61,-307.198 2099.52,-312.181"/>
</g>
<!-- Node34 -->
<g id="node77" class="node"><title>Node34</title>
<a xlink:href="vmap_8h.html" target="_top" xlink:title="core/common/vmap.h">
<polygon fill="white" stroke="black" points="1947.5,-281.5 1947.5,-302.5 2058.5,-302.5 2058.5,-281.5 1947.5,-281.5"/>
<text text-anchor="middle" x="2003" y="-289.5" font-family="Helvetica,sans-Serif" font-size="10.00">core/common/vmap.h</text>
</a>
</g>
<!-- Node32&#45;&gt;Node34 -->
<g id="edge86" class="edge"><title>Node32&#45;&gt;Node34</title>
<path fill="none" stroke="midnightblue" d="M2036.25,-353.376C2030.31,-342.422 2020.92,-325.09 2013.64,-311.634"/>
<polygon fill="midnightblue" stroke="midnightblue" points="2016.62,-309.793 2008.78,-302.667 2010.46,-313.127 2016.62,-309.793"/>
</g>
<!-- Node34&#45;&gt;Node13 -->
<g id="edge88" class="edge"><title>Node34&#45;&gt;Node13</title>
<path fill="none" stroke="midnightblue" d="M2018.35,-281.376C2035.47,-269.518 2063.4,-250.186 2083.33,-236.388"/>
<polygon fill="midnightblue" stroke="midnightblue" points="2085.36,-239.237 2091.59,-230.667 2081.38,-233.482 2085.36,-239.237"/>
</g>
<!-- Node36&#45;&gt;Node35 -->
<g id="edge94" class="edge"><title>Node36&#45;&gt;Node35</title>
<path fill="none" stroke="midnightblue" d="M197.984,-346.916C172.302,-319.522 122.14,-266.016 95.9054,-238.032"/>
<polygon fill="midnightblue" stroke="midnightblue" points="98.2753,-235.443 88.8824,-230.541 93.1685,-240.23 98.2753,-235.443"/>
</g>
<!-- Node37 -->
<g id="node85" class="node"><title>Node37</title>
<a xlink:href="gr__ambasockets_8h.html" target="_top" xlink:title="core/common/grambasockets\l/gr_ambasockets.h">
<polygon fill="white" stroke="black" points="343,-275 343,-309 489,-309 489,-275 343,-275"/>
<text text-anchor="start" x="351" y="-296" font-family="Helvetica,sans-Serif" font-size="10.00">core/common/grambasockets</text>
<text text-anchor="middle" x="416" y="-283" font-family="Helvetica,sans-Serif" font-size="10.00">/gr_ambasockets.h</text>
</a>
</g>
<!-- Node36&#45;&gt;Node37 -->
<g id="edge96" class="edge"><title>Node36&#45;&gt;Node37</title>
<path fill="none" stroke="midnightblue" d="M261.871,-346.937C290.822,-336.618 327.914,-323.397 358.455,-312.511"/>
<polygon fill="midnightblue" stroke="midnightblue" points="359.878,-315.719 368.123,-309.065 357.528,-309.126 359.878,-315.719"/>
</g>
<!-- Node37&#45;&gt;Node15 -->
<g id="edge112" class="edge"><title>Node37&#45;&gt;Node15</title>
<path fill="none" stroke="midnightblue" d="M489.051,-286.673C580.523,-279.067 731.274,-263.163 781,-238 841.289,-207.492 827.18,-159.435 888,-130 955.192,-97.4806 1180.91,-86.9635 1270.7,-84.0168"/>
<polygon fill="midnightblue" stroke="midnightblue" points="1271.07,-87.5069 1280.96,-83.694 1270.85,-80.5104 1271.07,-87.5069"/>
</g>
<!-- Node37&#45;&gt;Node19 -->
<g id="edge108" class="edge"><title>Node37&#45;&gt;Node19</title>
<path fill="none" stroke="midnightblue" d="M414.375,-274.732C413.489,-254.347 415.455,-220.841 435,-202 502.545,-136.888 551.307,-185.858 643,-166 649.747,-164.539 656.829,-162.86 663.78,-161.128"/>
<polygon fill="midnightblue" stroke="midnightblue" points="664.989,-164.432 673.815,-158.571 663.26,-157.648 664.989,-164.432"/>
</g>
<!-- Node37&#45;&gt;Node35 -->
<g id="edge98" class="edge"><title>Node37&#45;&gt;Node35</title>
<path fill="none" stroke="midnightblue" d="M342.917,-276.787C338.209,-275.835 333.539,-274.899 329,-274 244.693,-257.293 222.497,-258.376 139,-238 133.315,-236.613 127.368,-235.013 121.522,-233.352"/>
<polygon fill="midnightblue" stroke="midnightblue" points="122.421,-229.968 111.841,-230.525 120.459,-236.688 122.421,-229.968"/>
</g>
<!-- Node38 -->
<g id="node88" class="node"><title>Node38</title>
<polygon fill="white" stroke="#bfbfbf" points="444,-203 444,-237 626,-237 626,-203 444,-203"/>
<text text-anchor="start" x="452" y="-224" font-family="Helvetica,sans-Serif" font-size="10.00">greensocket/utils/greensocketaddress</text>
<text text-anchor="middle" x="535" y="-211" font-family="Helvetica,sans-Serif" font-size="10.00">_base.h</text>
</g>
<!-- Node37&#45;&gt;Node38 -->
<g id="edge100" class="edge"><title>Node37&#45;&gt;Node38</title>
<path fill="none" stroke="midnightblue" d="M444.201,-274.937C460.238,-265.234 480.515,-252.966 497.838,-242.485"/>
<polygon fill="midnightblue" stroke="midnightblue" points="499.845,-245.361 506.589,-237.19 496.221,-239.372 499.845,-245.361"/>
</g>
<!-- Node39 -->
<g id="node90" class="node"><title>Node39</title>
<polygon fill="white" stroke="#bfbfbf" points="643.5,-203 643.5,-237 772.5,-237 772.5,-203 643.5,-203"/>
<text text-anchor="start" x="651.5" y="-224" font-family="Helvetica,sans-Serif" font-size="10.00">greenreg/greenreg_socket</text>
<text text-anchor="middle" x="708" y="-211" font-family="Helvetica,sans-Serif" font-size="10.00">/transactor_if.h</text>
</g>
<!-- Node37&#45;&gt;Node39 -->
<g id="edge102" class="edge"><title>Node37&#45;&gt;Node39</title>
<path fill="none" stroke="midnightblue" d="M485.2,-274.937C529.822,-263.934 587.824,-249.632 633.462,-238.379"/>
<polygon fill="midnightblue" stroke="midnightblue" points="634.426,-241.746 643.298,-235.954 632.751,-234.95 634.426,-241.746"/>
</g>
<!-- Node40 -->
<g id="node92" class="node"><title>Node40</title>
<polygon fill="white" stroke="#bfbfbf" points="147.5,-203 147.5,-237 250.5,-237 250.5,-203 147.5,-203"/>
<text text-anchor="start" x="155.5" y="-224" font-family="Helvetica,sans-Serif" font-size="10.00">greenreg/framework</text>
<text text-anchor="middle" x="199" y="-211" font-family="Helvetica,sans-Serif" font-size="10.00">/core/gr_common.h</text>
</g>
<!-- Node37&#45;&gt;Node40 -->
<g id="edge104" class="edge"><title>Node37&#45;&gt;Node40</title>
<path fill="none" stroke="midnightblue" d="M364.574,-274.937C333.204,-264.529 292.937,-251.168 259.967,-240.229"/>
<polygon fill="midnightblue" stroke="midnightblue" points="261.026,-236.892 250.432,-237.065 258.821,-243.536 261.026,-236.892"/>
</g>
<!-- Node41 -->
<g id="node94" class="node"><title>Node41</title>
<polygon fill="white" stroke="#bfbfbf" points="267.5,-209.5 267.5,-230.5 316.5,-230.5 316.5,-209.5 267.5,-209.5"/>
<text text-anchor="middle" x="292" y="-217.5" font-family="Helvetica,sans-Serif" font-size="10.00">amba.h</text>
</g>
<!-- Node37&#45;&gt;Node41 -->
<g id="edge106" class="edge"><title>Node37&#45;&gt;Node41</title>
<path fill="none" stroke="midnightblue" d="M386.614,-274.937C366.211,-263.09 339.221,-247.419 319.291,-235.846"/>
<polygon fill="midnightblue" stroke="midnightblue" points="320.813,-232.683 310.407,-230.688 317.298,-238.736 320.813,-232.683"/>
</g>
<!-- Node42 -->
<g id="node97" class="node"><title>Node42</title>
<polygon fill="white" stroke="#bfbfbf" points="334,-209.5 334,-230.5 388,-230.5 388,-209.5 334,-209.5"/>
<text text-anchor="middle" x="361" y="-217.5" font-family="Helvetica,sans-Serif" font-size="10.00">systemc</text>
</g>
<!-- Node37&#45;&gt;Node42 -->
<g id="edge110" class="edge"><title>Node37&#45;&gt;Node42</title>
<path fill="none" stroke="midnightblue" d="M402.966,-274.937C394.744,-264.174 384.111,-250.255 375.606,-239.12"/>
<polygon fill="midnightblue" stroke="midnightblue" points="378.179,-236.723 369.327,-230.901 372.616,-240.972 378.179,-236.723"/>
</g>
</g>
</svg>
        <g id="navigator" transform="translate(0 0)" fill="#404254">
                <rect fill="#f2f5e9" fill-opacity="0.5" stroke="#606060" stroke-width=".5" x="0" y="0" width="60" height="60"/>
                <use id="zoomplus" xlink:href="#zoomPlus" x="17" y="9" onmousedown="handleZoom(evt,'in')"/>
                <use id="zoomminus" xlink:href="#zoomMin" x="42" y="9" onmousedown="handleZoom(evt,'out')"/>
                <use id="reset" xlink:href="#resetDef" x="30" y="36" onmousedown="handleReset()"/>
                <g id="arrowUp" xlink:href="#dirArrow" transform="translate(30 24)" onmousedown="handlePan(0,-1)">
                  <use xlink:href="#rim" fill="#404040">
                        <set attributeName="fill" to="#808080" begin="arrowUp.mouseover" end="arrowUp.mouseout"/>
                  </use>
                  <path fill="none" stroke="white" stroke-width="1.5" d="M0,-3.0v7 M-2.5,-0.5L0,-3.0L2.5,-0.5"/>
                </g>
                <g id="arrowRight" xlink:href="#dirArrow" transform="rotate(90) translate(36 -43)" onmousedown="handlePan(1,0)">
                  <use xlink:href="#rim" fill="#404040">
                        <set attributeName="fill" to="#808080" begin="arrowRight.mouseover" end="arrowRight.mouseout"/>
                  </use>
                  <path fill="none" stroke="white" stroke-width="1.5" d="M0,-3.0v7 M-2.5,-0.5L0,-3.0L2.5,-0.5"/>
                </g>
                <g id="arrowDown" xlink:href="#dirArrow" transform="rotate(180) translate(-30 -48)" onmousedown="handlePan(0,1)">
                  <use xlink:href="#rim" fill="#404040">
                        <set attributeName="fill" to="#808080" begin="arrowDown.mouseover" end="arrowDown.mouseout"/>
                  </use>
                  <path fill="none" stroke="white" stroke-width="1.5" d="M0,-3.0v7 M-2.5,-0.5L0,-3.0L2.5,-0.5"/>
                </g>
                <g id="arrowLeft" xlink:href="#dirArrow" transform="rotate(270) translate(-36 17)" onmousedown="handlePan(-1,0)">
                  <use xlink:href="#rim" fill="#404040">
                        <set attributeName="fill" to="#808080" begin="arrowLeft.mouseover" end="arrowLeft.mouseout"/>
                  </use>
                  <path fill="none" stroke="white" stroke-width="1.5" d="M0,-3.0v7 M-2.5,-0.5L0,-3.0L2.5,-0.5"/>
                </g>
        </g>
        <svg viewBox="0 0 15 15" width="100%" height="30px" preserveAspectRatio="xMaxYMin meet">
         <g id="arrow_out" transform="scale(0.3 0.3)">
          <a xlink:href="msclogger_8h__incl_org.svg" target="_base">
           <rect id="button" ry="5" rx="5" y="6" x="6" height="38" width="38"
                fill="#f2f5e9" fill-opacity="0.5" stroke="#606060" stroke-width="1.0"/>
           <path id="arrow"
             d="M 11.500037,31.436501 C 11.940474,20.09759 22.043105,11.32322 32.158766,21.979434 L 37.068811,17.246167 C 37.068811,17.246167 37.088388,32 37.088388,32 L 22.160133,31.978069 C 22.160133,31.978069 26.997745,27.140456 26.997745,27.140456 C 18.528582,18.264221 13.291696,25.230495 11.500037,31.436501 z"
             style="fill:#404040;"/>
          </a>
         </g>
        </svg>
</svg>
