<?xml version="1.0" encoding="UTF-8" standalone="no"?>
<!DOCTYPE svg PUBLIC "-//W3C//DTD SVG 1.1//EN"
 "http://www.w3.org/Graphics/SVG/1.1/DTD/svg11.dtd">
<!-- Generated by graphviz version 2.26.0 (20091210.2329)
 -->
<!-- Title: core/common/msclogger.h Pages: 1 -->
<svg width="2423pt" height="564pt"
 viewBox="0.00 0.00 2423.00 564.00" xmlns="http://www.w3.org/2000/svg" xmlns:xlink="http://www.w3.org/1999/xlink">
<g id="graph1" class="graph" transform="scale(1 1) rotate(0) translate(4 560)">
<title>core/common/msclogger.h</title>
<polygon fill="white" stroke="white" points="-4,5 -4,-560 2420,-560 2420,5 -4,5"/>
<!-- Node1 -->
<g id="node1" class="node"><title>Node1</title>
<polygon fill="#bfbfbf" stroke="black" points="892,-534.5 892,-555.5 1024,-555.5 1024,-534.5 892,-534.5"/>
<text text-anchor="middle" x="958" y="-542.5" font-family="Helvetica,sans-Serif" font-size="10.00">core/common/msclogger.h</text>
</g>
<!-- Node2 -->
<g id="node3" class="node"><title>Node2</title>
<polygon fill="white" stroke="#bfbfbf" points="879,-7.5 879,-28.5 917,-28.5 917,-7.5 879,-7.5"/>
<text text-anchor="middle" x="898" y="-15.5" font-family="Helvetica,sans-Serif" font-size="10.00">tlm.h</text>
</g>
<!-- Node1&#45;&gt;Node2 -->
<g id="edge2" class="edge"><title>Node1&#45;&gt;Node2</title>
<path fill="none" stroke="midnightblue" d="M891.762,-543.176C705.598,-537.788 186.474,-520.879 113,-498 56.8161,-480.505 0,-487.845 0,-429 0,-429 0,-429 0,-148 0,-58.1022 714.002,-25.1621 868.676,-19.081"/>
<polygon fill="midnightblue" stroke="midnightblue" points="868.971,-22.5724 878.829,-18.6892 868.701,-15.5776 868.971,-22.5724"/>
</g>
<!-- Node3 -->
<g id="node5" class="node"><title>Node3</title>
<a xlink:href="common_2amba_8h.html" target="_top" xlink:title="core/common/amba.h">
<polygon fill="white" stroke="black" points="902.5,-476.5 902.5,-497.5 1013.5,-497.5 1013.5,-476.5 902.5,-476.5"/>
<text text-anchor="middle" x="958" y="-484.5" font-family="Helvetica,sans-Serif" font-size="10.00">core/common/amba.h</text>
</a>
</g>
<!-- Node1&#45;&gt;Node3 -->
<g id="edge4" class="edge"><title>Node1&#45;&gt;Node3</title>
<path fill="none" stroke="midnightblue" d="M958,-534.362C958,-526.922 958,-516.743 958,-507.728"/>
<polygon fill="midnightblue" stroke="midnightblue" points="961.5,-507.571 958,-497.571 954.5,-507.571 961.5,-507.571"/>
</g>
<!-- Node15 -->
<g id="node33" class="node"><title>Node15</title>
<polygon fill="white" stroke="#bfbfbf" points="460,-72.5 460,-93.5 514,-93.5 514,-72.5 460,-72.5"/>
<text text-anchor="middle" x="487" y="-80.5" font-family="Helvetica,sans-Serif" font-size="10.00">iostream</text>
</g>
<!-- Node1&#45;&gt;Node15 -->
<g id="edge118" class="edge"><title>Node1&#45;&gt;Node15</title>
<path fill="none" stroke="midnightblue" d="M891.836,-543.612C680.888,-538.321 38,-515.128 38,-429 38,-429 38,-429 38,-220 38,-134.127 342.25,-96.7976 449.848,-86.2809"/>
<polygon fill="midnightblue" stroke="midnightblue" points="450.302,-89.7535 459.924,-85.3187 449.637,-82.7852 450.302,-89.7535"/>
</g>
<!-- Node21 -->
<g id="node46" class="node"><title>Node21</title>
<a xlink:href="verbose_8h.html" target="_top" xlink:title="core/common/verbose.h">
<polygon fill="white" stroke="black" points="2218,-137.5 2218,-158.5 2340,-158.5 2340,-137.5 2218,-137.5"/>
<text text-anchor="middle" x="2279" y="-145.5" font-family="Helvetica,sans-Serif" font-size="10.00">core/common/verbose.h</text>
</a>
</g>
<!-- Node1&#45;&gt;Node21 -->
<g id="edge120" class="edge"><title>Node1&#45;&gt;Node21</title>
<path fill="none" stroke="midnightblue" d="M1024.05,-542.465C1284.74,-532.031 2228,-490.059 2228,-429 2228,-429 2228,-429 2228,-292 2228,-245.231 2252.2,-194.566 2267.26,-167.565"/>
<polygon fill="midnightblue" stroke="midnightblue" points="2270.38,-169.153 2272.33,-158.739 2264.31,-165.665 2270.38,-169.153"/>
</g>
<!-- Node42 -->
<g id="node100" class="node"><title>Node42</title>
<polygon fill="white" stroke="#bfbfbf" points="2256,-476.5 2256,-497.5 2306,-497.5 2306,-476.5 2256,-476.5"/>
<text text-anchor="middle" x="2281" y="-484.5" font-family="Helvetica,sans-Serif" font-size="10.00">fstream</text>
</g>
<!-- Node1&#45;&gt;Node42 -->
<g id="edge116" class="edge"><title>Node1&#45;&gt;Node42</title>
<path fill="none" stroke="midnightblue" d="M1024.02,-544.659C1251.79,-543.156 2003.73,-535.413 2242,-498 2243.25,-497.804 2244.52,-497.58 2245.8,-497.335"/>
<polygon fill="midnightblue" stroke="midnightblue" points="2246.63,-500.736 2255.6,-495.103 2245.07,-493.91 2246.63,-500.736"/>
</g>
<!-- Node4 -->
<g id="node7" class="node"><title>Node4</title>
<a xlink:href="systemc_8h.html" target="_top" xlink:title="core/common/systemc.h">
<polygon fill="white" stroke="black" points="1962.5,-72.5 1962.5,-93.5 2087.5,-93.5 2087.5,-72.5 1962.5,-72.5"/>
<text text-anchor="middle" x="2025" y="-80.5" font-family="Helvetica,sans-Serif" font-size="10.00">core/common/systemc.h</text>
</a>
</g>
<!-- Node3&#45;&gt;Node4 -->
<g id="edge6" class="edge"><title>Node3&#45;&gt;Node4</title>
<path fill="none" stroke="midnightblue" d="M1013.73,-484.402C1254.1,-472.835 2190,-423.952 2190,-364 2190,-364 2190,-364 2190,-220 2190,-156.297 2116.3,-116.55 2067.41,-97.1917"/>
<polygon fill="midnightblue" stroke="midnightblue" points="2068.58,-93.8932 2057.99,-93.5909 2066.08,-100.432 2068.58,-93.8932"/>
</g>
<!-- Node8 -->
<g id="node17" class="node"><title>Node8</title>
<a xlink:href="base_8h.html" target="_top" xlink:title="core/common/base.h">
<polygon fill="white" stroke="black" points="904,-418.5 904,-439.5 1012,-439.5 1012,-418.5 904,-418.5"/>
<text text-anchor="middle" x="958" y="-426.5" font-family="Helvetica,sans-Serif" font-size="10.00">core/common/base.h</text>
</a>
</g>
<!-- Node3&#45;&gt;Node8 -->
<g id="edge18" class="edge"><title>Node3&#45;&gt;Node8</title>
<path fill="none" stroke="midnightblue" d="M958,-476.362C958,-468.922 958,-458.743 958,-449.728"/>
<polygon fill="midnightblue" stroke="midnightblue" points="961.5,-449.571 958,-439.571 954.5,-449.571 961.5,-449.571"/>
</g>
<!-- Node32 -->
<g id="node72" class="node"><title>Node32</title>
<a xlink:href="report_8h.html" target="_top" xlink:title="core/common/report.h">
<polygon fill="white" stroke="black" points="1731,-353.5 1731,-374.5 1843,-374.5 1843,-353.5 1731,-353.5"/>
<text text-anchor="middle" x="1787" y="-361.5" font-family="Helvetica,sans-Serif" font-size="10.00">core/common/report.h</text>
</a>
</g>
<!-- Node3&#45;&gt;Node32 -->
<g id="edge110" class="edge"><title>Node3&#45;&gt;Node32</title>
<path fill="none" stroke="midnightblue" d="M1013.68,-478.739C1161.19,-456.852 1561.62,-397.44 1720.63,-373.848"/>
<polygon fill="midnightblue" stroke="midnightblue" points="1721.37,-377.277 1730.74,-372.347 1720.34,-370.352 1721.37,-377.277"/>
</g>
<!-- Node34 -->
<g id="node77" class="node"><title>Node34</title>
<polygon fill="white" stroke="#bfbfbf" points="745.5,-209.5 745.5,-230.5 848.5,-230.5 848.5,-209.5 745.5,-209.5"/>
<text text-anchor="middle" x="797" y="-217.5" font-family="Helvetica,sans-Serif" font-size="10.00">greenreg/greenreg.h</text>
</g>
<!-- Node3&#45;&gt;Node34 -->
<g id="edge112" class="edge"><title>Node3&#45;&gt;Node34</title>
<path fill="none" stroke="midnightblue" d="M938.688,-476.468C924.924,-468.126 906.835,-455.343 895,-440 867.478,-404.318 875.14,-387.25 857,-346 840.285,-307.988 819.058,-264.399 806.853,-239.738"/>
<polygon fill="midnightblue" stroke="midnightblue" points="809.94,-238.085 802.357,-230.686 803.671,-241.199 809.94,-238.085"/>
</g>
<!-- Node35 -->
<g id="node79" class="node"><title>Node35</title>
<a xlink:href="greenreg__ambasockets_8h.html" target="_top" xlink:title="core/common/grambasockets\l/greenreg_ambasockets.h">
<polygon fill="white" stroke="black" points="702,-347 702,-381 848,-381 848,-347 702,-347"/>
<text text-anchor="start" x="710" y="-368" font-family="Helvetica,sans-Serif" font-size="10.00">core/common/grambasockets</text>
<text text-anchor="middle" x="775" y="-355" font-family="Helvetica,sans-Serif" font-size="10.00">/greenreg_ambasockets.h</text>
</a>
</g>
<!-- Node3&#45;&gt;Node35 -->
<g id="edge114" class="edge"><title>Node3&#45;&gt;Node35</title>
<path fill="none" stroke="midnightblue" d="M931.732,-476.377C911.847,-467.815 884.254,-454.793 862,-440 839.115,-424.788 815.805,-404.089 799.081,-388.134"/>
<polygon fill="midnightblue" stroke="midnightblue" points="801.506,-385.61 791.885,-381.173 796.639,-390.642 801.506,-385.61"/>
</g>
<!-- Node4&#45;&gt;Node2 -->
<g id="edge10" class="edge"><title>Node4&#45;&gt;Node2</title>
<path fill="none" stroke="midnightblue" d="M1962.4,-79.3894C1752.13,-67.2623 1076.07,-28.2701 927.184,-19.6832"/>
<polygon fill="midnightblue" stroke="midnightblue" points="927.197,-16.1782 917.012,-19.0965 926.794,-23.1666 927.197,-16.1782"/>
</g>
<!-- Node4&#45;&gt;Node4 -->
<g id="edge8" class="edge"><title>Node4&#45;&gt;Node4</title>
<path fill="none" stroke="midnightblue" d="M2056.62,-93.5168C2080.64,-97.3181 2105,-93.8125 2105,-83 2105,-73.708 2087.01,-69.8123 2066.71,-71.313"/>
<polygon fill="midnightblue" stroke="midnightblue" points="2066.15,-67.8539 2056.62,-72.4832 2066.96,-74.8073 2066.15,-67.8539"/>
</g>
<!-- Node5 -->
<g id="node11" class="node"><title>Node5</title>
<polygon fill="white" stroke="#bfbfbf" points="1831.5,-1 1831.5,-35 1946.5,-35 1946.5,-1 1831.5,-1"/>
<text text-anchor="start" x="1839.5" y="-22" font-family="Helvetica,sans-Serif" font-size="10.00">tlm_utils/simple_target</text>
<text text-anchor="middle" x="1889" y="-9" font-family="Helvetica,sans-Serif" font-size="10.00">_socket.h</text>
</g>
<!-- Node4&#45;&gt;Node5 -->
<g id="edge12" class="edge"><title>Node4&#45;&gt;Node5</title>
<path fill="none" stroke="midnightblue" d="M2002.85,-72.412C1984.26,-63.5274 1957.11,-50.5536 1933.99,-39.5028"/>
<polygon fill="midnightblue" stroke="midnightblue" points="1935.23,-36.2148 1924.7,-35.0604 1932.21,-42.5305 1935.23,-36.2148"/>
</g>
<!-- Node6 -->
<g id="node13" class="node"><title>Node6</title>
<polygon fill="white" stroke="#bfbfbf" points="1964,-1 1964,-35 2086,-35 2086,-1 1964,-1"/>
<text text-anchor="start" x="1972" y="-22" font-family="Helvetica,sans-Serif" font-size="10.00">tlm_utils/simple_initiator</text>
<text text-anchor="middle" x="2025" y="-9" font-family="Helvetica,sans-Serif" font-size="10.00">_socket.h</text>
</g>
<!-- Node4&#45;&gt;Node6 -->
<g id="edge14" class="edge"><title>Node4&#45;&gt;Node6</title>
<path fill="none" stroke="midnightblue" d="M2025,-72.2666C2025,-64.931 2025,-54.8573 2025,-45.3796"/>
<polygon fill="midnightblue" stroke="midnightblue" points="2028.5,-45.1098 2025,-35.1099 2021.5,-45.1099 2028.5,-45.1098"/>
</g>
<!-- Node7 -->
<g id="node15" class="node"><title>Node7</title>
<polygon fill="white" stroke="#bfbfbf" points="2103.5,-1 2103.5,-35 2198.5,-35 2198.5,-1 2103.5,-1"/>
<text text-anchor="start" x="2111.5" y="-22" font-family="Helvetica,sans-Serif" font-size="10.00">tlm_utils/peq_with</text>
<text text-anchor="middle" x="2151" y="-9" font-family="Helvetica,sans-Serif" font-size="10.00">_get.h</text>
</g>
<!-- Node4&#45;&gt;Node7 -->
<g id="edge16" class="edge"><title>Node4&#45;&gt;Node7</title>
<path fill="none" stroke="midnightblue" d="M2045.52,-72.412C2062.53,-63.6378 2087.27,-50.8751 2108.52,-39.9153"/>
<polygon fill="midnightblue" stroke="midnightblue" points="2110.4,-42.8821 2117.68,-35.1869 2107.19,-36.6611 2110.4,-42.8821"/>
</g>
<!-- Node8&#45;&gt;Node4 -->
<g id="edge20" class="edge"><title>Node8&#45;&gt;Node4</title>
<path fill="none" stroke="midnightblue" d="M954.483,-418.393C943.288,-382.408 912.532,-263.789 971,-202 1004.87,-166.208 1719.09,-107.066 1952.15,-88.6515"/>
<polygon fill="midnightblue" stroke="midnightblue" points="1952.53,-92.1327 1962.23,-87.8574 1951.98,-85.1543 1952.53,-92.1327"/>
</g>
<!-- Node9 -->
<g id="node20" class="node"><title>Node9</title>
<a xlink:href="gs__config_8h.html" target="_top" xlink:title="core/common/gs_config.h">
<polygon fill="white" stroke="black" points="1348.5,-353.5 1348.5,-374.5 1477.5,-374.5 1477.5,-353.5 1348.5,-353.5"/>
<text text-anchor="middle" x="1413" y="-361.5" font-family="Helvetica,sans-Serif" font-size="10.00">core/common/gs_config.h</text>
</a>
</g>
<!-- Node8&#45;&gt;Node9 -->
<g id="edge22" class="edge"><title>Node8&#45;&gt;Node9</title>
<path fill="none" stroke="midnightblue" d="M1012.43,-421.224C1093.6,-409.629 1246.59,-387.772 1338.21,-374.684"/>
<polygon fill="midnightblue" stroke="midnightblue" points="1338.84,-378.13 1348.25,-373.25 1337.85,-371.2 1338.84,-378.13"/>
</g>
<!-- Node8&#45;&gt;Node32 -->
<g id="edge80" class="edge"><title>Node8&#45;&gt;Node32</title>
<path fill="none" stroke="midnightblue" d="M1012.07,-424.76C1158.33,-413.293 1561.4,-381.689 1720.84,-369.187"/>
<polygon fill="midnightblue" stroke="midnightblue" points="1721.29,-372.663 1730.99,-368.392 1720.74,-365.684 1721.29,-372.663"/>
</g>
<!-- Node8&#45;&gt;Node34 -->
<g id="edge86" class="edge"><title>Node8&#45;&gt;Node34</title>
<path fill="none" stroke="midnightblue" d="M953.321,-418.089C938.377,-383.274 892.618,-276.931 890,-274 874.785,-256.966 852.874,-243.881 834.142,-234.861"/>
<polygon fill="midnightblue" stroke="midnightblue" points="835.515,-231.639 824.967,-230.637 832.587,-237.998 835.515,-231.639"/>
</g>
<!-- Node8&#45;&gt;Node35 -->
<g id="edge88" class="edge"><title>Node8&#45;&gt;Node35</title>
<path fill="none" stroke="midnightblue" d="M928.191,-418.412C902.399,-409.251 864.367,-395.742 832.651,-384.477"/>
<polygon fill="midnightblue" stroke="midnightblue" points="833.626,-381.109 823.032,-381.06 831.283,-387.706 833.626,-381.109"/>
</g>
<!-- Node10 -->
<g id="node22" class="node"><title>Node10</title>
<polygon fill="white" stroke="#bfbfbf" points="1297.5,-281.5 1297.5,-302.5 1404.5,-302.5 1404.5,-281.5 1297.5,-281.5"/>
<text text-anchor="middle" x="1351" y="-289.5" font-family="Helvetica,sans-Serif" font-size="10.00">greencontrol/config.h</text>
</g>
<!-- Node9&#45;&gt;Node10 -->
<g id="edge24" class="edge"><title>Node9&#45;&gt;Node10</title>
<path fill="none" stroke="midnightblue" d="M1403.85,-353.376C1394.14,-342.103 1378.62,-324.075 1366.9,-310.468"/>
<polygon fill="midnightblue" stroke="midnightblue" points="1369.36,-307.961 1360.19,-302.667 1364.06,-312.529 1369.36,-307.961"/>
</g>
<!-- Node11 -->
<g id="node24" class="node"><title>Node11</title>
<a xlink:href="gs__config_2gs__config_8h.html" target="_top" xlink:title="core/common/gs_config\l/gs_config.h">
<polygon fill="white" stroke="black" points="1733.5,-275 1733.5,-309 1854.5,-309 1854.5,-275 1733.5,-275"/>
<text text-anchor="start" x="1741.5" y="-296" font-family="Helvetica,sans-Serif" font-size="10.00">core/common/gs_config</text>
<text text-anchor="middle" x="1794" y="-283" font-family="Helvetica,sans-Serif" font-size="10.00">/gs_config.h</text>
</a>
</g>
<!-- Node9&#45;&gt;Node11 -->
<g id="edge26" class="edge"><title>Node9&#45;&gt;Node11</title>
<path fill="none" stroke="midnightblue" d="M1468.81,-353.453C1536.22,-340.714 1649.71,-319.267 1723.22,-305.376"/>
<polygon fill="midnightblue" stroke="midnightblue" points="1724.14,-308.764 1733.31,-303.468 1722.84,-301.886 1724.14,-308.764"/>
</g>
<!-- Node14 -->
<g id="node30" class="node"><title>Node14</title>
<a xlink:href="gs__config__class_8h.html" target="_top" xlink:title="core/common/gs_config\l/gs_config_class.h">
<polygon fill="white" stroke="black" points="1421.5,-275 1421.5,-309 1542.5,-309 1542.5,-275 1421.5,-275"/>
<text text-anchor="start" x="1429.5" y="-296" font-family="Helvetica,sans-Serif" font-size="10.00">core/common/gs_config</text>
<text text-anchor="middle" x="1482" y="-283" font-family="Helvetica,sans-Serif" font-size="10.00">/gs_config_class.h</text>
</a>
</g>
<!-- Node9&#45;&gt;Node14 -->
<g id="edge32" class="edge"><title>Node9&#45;&gt;Node14</title>
<path fill="none" stroke="midnightblue" d="M1423.18,-353.376C1432.43,-343.723 1446.43,-329.116 1458.45,-316.574"/>
<polygon fill="midnightblue" stroke="midnightblue" points="1461.23,-318.736 1465.62,-309.094 1456.17,-313.893 1461.23,-318.736"/>
</g>
<!-- Node12 -->
<g id="node26" class="node"><title>Node12</title>
<polygon fill="white" stroke="#bfbfbf" points="2031.5,-209.5 2031.5,-230.5 2072.5,-230.5 2072.5,-209.5 2031.5,-209.5"/>
<text text-anchor="middle" x="2052" y="-217.5" font-family="Helvetica,sans-Serif" font-size="10.00">string</text>
</g>
<!-- Node11&#45;&gt;Node12 -->
<g id="edge28" class="edge"><title>Node11&#45;&gt;Node12</title>
<path fill="none" stroke="midnightblue" d="M1854.55,-276.08C1857.41,-275.369 1860.23,-274.672 1863,-274 1933.83,-256.798 1955.54,-265.604 2023,-238 2024.81,-237.259 2026.63,-236.411 2028.44,-235.494"/>
<polygon fill="midnightblue" stroke="midnightblue" points="2030.2,-238.519 2037.16,-230.53 2026.74,-232.436 2030.2,-238.519"/>
</g>
<!-- Node13 -->
<g id="node28" class="node"><title>Node13</title>
<polygon fill="white" stroke="#bfbfbf" points="2089.5,-209.5 2089.5,-230.5 2124.5,-230.5 2124.5,-209.5 2089.5,-209.5"/>
<text text-anchor="middle" x="2107" y="-217.5" font-family="Helvetica,sans-Serif" font-size="10.00">map</text>
</g>
<!-- Node11&#45;&gt;Node13 -->
<g id="edge30" class="edge"><title>Node11&#45;&gt;Node13</title>
<path fill="none" stroke="midnightblue" d="M1854.51,-275.881C1857.37,-275.223 1860.21,-274.592 1863,-274 1959.06,-253.585 1989.97,-274.844 2081,-238 2082.43,-237.421 2083.86,-236.751 2085.27,-236.019"/>
<polygon fill="midnightblue" stroke="midnightblue" points="2087.48,-238.774 2094.16,-230.552 2083.81,-232.812 2087.48,-238.774"/>
</g>
<!-- Node14&#45;&gt;Node12 -->
<g id="edge34" class="edge"><title>Node14&#45;&gt;Node12</title>
<path fill="none" stroke="midnightblue" d="M1542.91,-287.483C1674.77,-277.479 1978.42,-253.143 2023,-238 2024.94,-237.342 2026.88,-236.535 2028.79,-235.63"/>
<polygon fill="midnightblue" stroke="midnightblue" points="2030.88,-238.471 2037.9,-230.538 2027.46,-232.36 2030.88,-238.471"/>
</g>
<!-- Node14&#45;&gt;Node15 -->
<g id="edge36" class="edge"><title>Node14&#45;&gt;Node15</title>
<path fill="none" stroke="midnightblue" d="M1421.18,-275.498C1418.42,-274.951 1415.69,-274.448 1413,-274 1202.41,-238.913 1140.52,-292.095 934,-238 897.455,-228.428 892.163,-215.811 857,-202 737.522,-155.073 591.298,-112.177 524.054,-93.2345"/>
<polygon fill="midnightblue" stroke="midnightblue" points="524.911,-89.8397 514.337,-90.5093 523.02,-96.5797 524.911,-89.8397"/>
</g>
<!-- Node16 -->
<g id="node35" class="node"><title>Node16</title>
<polygon fill="white" stroke="#bfbfbf" points="1700,-209.5 1700,-230.5 1752,-230.5 1752,-209.5 1700,-209.5"/>
<text text-anchor="middle" x="1726" y="-217.5" font-family="Helvetica,sans-Serif" font-size="10.00">sstream</text>
</g>
<!-- Node14&#45;&gt;Node16 -->
<g id="edge38" class="edge"><title>Node14&#45;&gt;Node16</title>
<path fill="none" stroke="midnightblue" d="M1542.56,-280.091C1584.89,-270.869 1642.32,-256.542 1691,-238 1693.4,-237.085 1695.85,-236.05 1698.29,-234.95"/>
<polygon fill="midnightblue" stroke="midnightblue" points="1699.99,-238.016 1707.46,-230.504 1696.94,-231.717 1699.99,-238.016"/>
</g>
<!-- Node17 -->
<g id="node37" class="node"><title>Node17</title>
<polygon fill="white" stroke="#bfbfbf" points="1770,-209.5 1770,-230.5 1872,-230.5 1872,-209.5 1770,-209.5"/>
<text text-anchor="middle" x="1821" y="-217.5" font-family="Helvetica,sans-Serif" font-size="10.00">boost/tokenizer.hpp</text>
</g>
<!-- Node14&#45;&gt;Node17 -->
<g id="edge40" class="edge"><title>Node14&#45;&gt;Node17</title>
<path fill="none" stroke="midnightblue" d="M1542.52,-282.091C1599.29,-272.371 1686.39,-256.364 1761,-238 1766.68,-236.601 1772.63,-234.995 1778.47,-233.331"/>
<polygon fill="midnightblue" stroke="midnightblue" points="1779.54,-236.667 1788.15,-230.501 1777.57,-229.948 1779.54,-236.667"/>
</g>
<!-- Node18 -->
<g id="node39" class="node"><title>Node18</title>
<a xlink:href="common_8h.html" target="_top" xlink:title="core/common/common.h">
<polygon fill="white" stroke="black" points="1889.5,-209.5 1889.5,-230.5 2014.5,-230.5 2014.5,-209.5 1889.5,-209.5"/>
<text text-anchor="middle" x="1952" y="-217.5" font-family="Helvetica,sans-Serif" font-size="10.00">core/common/common.h</text>
</a>
</g>
<!-- Node14&#45;&gt;Node18 -->
<g id="edge42" class="edge"><title>Node14&#45;&gt;Node18</title>
<path fill="none" stroke="midnightblue" d="M1542.51,-285.979C1620.99,-277.674 1761.93,-261.072 1881,-238 1888.47,-236.553 1896.32,-234.801 1903.97,-232.963"/>
<polygon fill="midnightblue" stroke="midnightblue" points="1904.99,-236.316 1913.86,-230.518 1903.31,-229.52 1904.99,-236.316"/>
</g>
<!-- Node26 -->
<g id="node59" class="node"><title>Node26</title>
<a xlink:href="gs__config__t_8h.html" target="_top" xlink:title="core/common/gs_config\l/gs_config_t.h">
<polygon fill="white" stroke="black" points="979.5,-203 979.5,-237 1100.5,-237 1100.5,-203 979.5,-203"/>
<text text-anchor="start" x="987.5" y="-224" font-family="Helvetica,sans-Serif" font-size="10.00">core/common/gs_config</text>
<text text-anchor="middle" x="1040" y="-211" font-family="Helvetica,sans-Serif" font-size="10.00">/gs_config_t.h</text>
</a>
</g>
<!-- Node14&#45;&gt;Node26 -->
<g id="edge66" class="edge"><title>Node14&#45;&gt;Node26</title>
<path fill="none" stroke="midnightblue" d="M1421.15,-275.642C1418.4,-275.056 1415.68,-274.505 1413,-274 1282.57,-249.385 1244.54,-262.549 1111.05,-238.254"/>
<polygon fill="midnightblue" stroke="midnightblue" points="1111.32,-234.743 1100.85,-236.358 1110.04,-241.626 1111.32,-234.743"/>
</g>
<!-- Node27 -->
<g id="node61" class="node"><title>Node27</title>
<a xlink:href="gs__config__operator__macros_8h.html" target="_top" xlink:title="core/common/gs_config\l/gs_config_operator_macros.h">
<polygon fill="white" stroke="black" points="1118,-203 1118,-237 1266,-237 1266,-203 1118,-203"/>
<text text-anchor="start" x="1126" y="-224" font-family="Helvetica,sans-Serif" font-size="10.00">core/common/gs_config</text>
<text text-anchor="middle" x="1192" y="-211" font-family="Helvetica,sans-Serif" font-size="10.00">/gs_config_operator_macros.h</text>
</a>
</g>
<!-- Node14&#45;&gt;Node27 -->
<g id="edge68" class="edge"><title>Node14&#45;&gt;Node27</title>
<path fill="none" stroke="midnightblue" d="M1421.43,-276.143C1418.58,-275.415 1415.76,-274.697 1413,-274 1366.74,-262.314 1314.92,-249.631 1273.09,-239.495"/>
<polygon fill="midnightblue" stroke="midnightblue" points="1273.78,-236.06 1263.23,-237.108 1272.13,-242.863 1273.78,-236.06"/>
</g>
<!-- Node28 -->
<g id="node63" class="node"><title>Node28</title>
<a xlink:href="gs__config__delegate_8h.html" target="_top" xlink:title="core/common/gs_config\l/gs_config_delegate.h">
<polygon fill="white" stroke="black" points="1283.5,-203 1283.5,-237 1404.5,-237 1404.5,-203 1283.5,-203"/>
<text text-anchor="start" x="1291.5" y="-224" font-family="Helvetica,sans-Serif" font-size="10.00">core/common/gs_config</text>
<text text-anchor="middle" x="1344" y="-211" font-family="Helvetica,sans-Serif" font-size="10.00">/gs_config_delegate.h</text>
</a>
</g>
<!-- Node14&#45;&gt;Node28 -->
<g id="edge70" class="edge"><title>Node14&#45;&gt;Node28</title>
<path fill="none" stroke="midnightblue" d="M1449.3,-274.937C1430.36,-265.056 1406.32,-252.514 1385.99,-241.91"/>
<polygon fill="midnightblue" stroke="midnightblue" points="1387.43,-238.713 1376.95,-237.19 1384.19,-244.919 1387.43,-238.713"/>
</g>
<!-- Node29 -->
<g id="node65" class="node"><title>Node29</title>
<a xlink:href="gs__config__native_8hpp.html" target="_top" xlink:title="core/common/gs_config\l/gs_config_native.hpp">
<polygon fill="white" stroke="black" points="1421.5,-203 1421.5,-237 1542.5,-237 1542.5,-203 1421.5,-203"/>
<text text-anchor="start" x="1429.5" y="-224" font-family="Helvetica,sans-Serif" font-size="10.00">core/common/gs_config</text>
<text text-anchor="middle" x="1482" y="-211" font-family="Helvetica,sans-Serif" font-size="10.00">/gs_config_native.hpp</text>
</a>
</g>
<!-- Node14&#45;&gt;Node29 -->
<g id="edge72" class="edge"><title>Node14&#45;&gt;Node29</title>
<path fill="none" stroke="midnightblue" d="M1482,-274.937C1482,-266.807 1482,-256.876 1482,-247.705"/>
<polygon fill="midnightblue" stroke="midnightblue" points="1485.5,-247.441 1482,-237.441 1478.5,-247.441 1485.5,-247.441"/>
</g>
<!-- Node30 -->
<g id="node67" class="node"><title>Node30</title>
<a xlink:href="gs__config__stdint_8hpp.html" target="_top" xlink:title="core/common/gs_config\l/gs_config_stdint.hpp">
<polygon fill="white" stroke="black" points="853.5,-131 853.5,-165 974.5,-165 974.5,-131 853.5,-131"/>
<text text-anchor="start" x="861.5" y="-152" font-family="Helvetica,sans-Serif" font-size="10.00">core/common/gs_config</text>
<text text-anchor="middle" x="914" y="-139" font-family="Helvetica,sans-Serif" font-size="10.00">/gs_config_stdint.hpp</text>
</a>
</g>
<!-- Node14&#45;&gt;Node30 -->
<g id="edge74" class="edge"><title>Node14&#45;&gt;Node30</title>
<path fill="none" stroke="midnightblue" d="M1421.17,-275.519C1418.42,-274.967 1415.69,-274.456 1413,-274 1315.84,-257.5 1055.33,-288.983 971,-238 947.362,-223.71 931.905,-195.462 923.128,-174.406"/>
<polygon fill="midnightblue" stroke="midnightblue" points="926.361,-173.062 919.455,-165.027 919.843,-175.615 926.361,-173.062"/>
</g>
<!-- Node31 -->
<g id="node70" class="node"><title>Node31</title>
<a xlink:href="gs__config__systemc_8hpp.html" target="_top" xlink:title="core/common/gs_config\l/gs_config_systemc.hpp">
<polygon fill="white" stroke="black" points="1559.5,-203 1559.5,-237 1682.5,-237 1682.5,-203 1559.5,-203"/>
<text text-anchor="start" x="1567.5" y="-224" font-family="Helvetica,sans-Serif" font-size="10.00">core/common/gs_config</text>
<text text-anchor="middle" x="1621" y="-211" font-family="Helvetica,sans-Serif" font-size="10.00">/gs_config_systemc.hpp</text>
</a>
</g>
<!-- Node14&#45;&gt;Node31 -->
<g id="edge78" class="edge"><title>Node14&#45;&gt;Node31</title>
<path fill="none" stroke="midnightblue" d="M1514.94,-274.937C1534.02,-265.056 1558.23,-252.514 1578.7,-241.91"/>
<polygon fill="midnightblue" stroke="midnightblue" points="1580.54,-244.897 1587.81,-237.19 1577.32,-238.682 1580.54,-244.897"/>
</g>
<!-- Node18&#45;&gt;Node4 -->
<g id="edge44" class="edge"><title>Node18&#45;&gt;Node4</title>
<path fill="none" stroke="midnightblue" d="M1957.73,-209.25C1969.99,-186.241 1998.92,-131.937 2014.55,-102.608"/>
<polygon fill="midnightblue" stroke="midnightblue" points="2017.68,-104.171 2019.3,-93.7002 2011.51,-100.88 2017.68,-104.171"/>
</g>
<!-- Node19 -->
<g id="node42" class="node"><title>Node19</title>
<a xlink:href="vendian_8h.html" target="_top" xlink:title="core/common/vendian.h">
<polygon fill="white" stroke="black" points="991.5,-137.5 991.5,-158.5 1112.5,-158.5 1112.5,-137.5 991.5,-137.5"/>
<text text-anchor="middle" x="1052" y="-145.5" font-family="Helvetica,sans-Serif" font-size="10.00">core/common/vendian.h</text>
</a>
</g>
<!-- Node18&#45;&gt;Node19 -->
<g id="edge46" class="edge"><title>Node18&#45;&gt;Node19</title>
<path fill="none" stroke="midnightblue" d="M1915.78,-209.457C1904.71,-206.602 1892.43,-203.806 1881,-202 1735.65,-179.039 1295.28,-158.372 1122.58,-150.931"/>
<polygon fill="midnightblue" stroke="midnightblue" points="1122.72,-147.434 1112.58,-150.502 1122.42,-154.428 1122.72,-147.434"/>
</g>
<!-- Node18&#45;&gt;Node21 -->
<g id="edge50" class="edge"><title>Node18&#45;&gt;Node21</title>
<path fill="none" stroke="midnightblue" d="M1983.76,-209.437C1993.44,-206.921 2004.09,-204.3 2014,-202 2079.68,-186.755 2155.26,-171.034 2208.93,-160.515"/>
<polygon fill="midnightblue" stroke="midnightblue" points="2209.88,-163.896 2219.03,-158.547 2208.54,-157.025 2209.88,-163.896"/>
</g>
<!-- Node20 -->
<g id="node44" class="node"><title>Node20</title>
<polygon fill="white" stroke="#bfbfbf" points="958.5,-72.5 958.5,-93.5 1007.5,-93.5 1007.5,-72.5 958.5,-72.5"/>
<text text-anchor="middle" x="983" y="-80.5" font-family="Helvetica,sans-Serif" font-size="10.00">stdint.h</text>
</g>
<!-- Node19&#45;&gt;Node20 -->
<g id="edge48" class="edge"><title>Node19&#45;&gt;Node20</title>
<path fill="none" stroke="midnightblue" d="M1040.61,-137.267C1030.06,-127.328 1014.17,-112.363 1001.75,-100.664"/>
<polygon fill="midnightblue" stroke="midnightblue" points="1003.86,-97.843 994.182,-93.5337 999.061,-102.938 1003.86,-97.843"/>
</g>
<!-- Node21&#45;&gt;Node4 -->
<g id="edge64" class="edge"><title>Node21&#45;&gt;Node4</title>
<path fill="none" stroke="midnightblue" d="M2237.91,-137.484C2193.73,-126.18 2123.45,-108.195 2075.83,-96.0085"/>
<polygon fill="midnightblue" stroke="midnightblue" points="2076.59,-92.589 2066.03,-93.5005 2074.85,-99.3705 2076.59,-92.589"/>
</g>
<!-- Node21&#45;&gt;Node15 -->
<g id="edge58" class="edge"><title>Node21&#45;&gt;Node15</title>
<path fill="none" stroke="midnightblue" d="M2217.83,-145.781C1934.03,-135.487 749.838,-92.5338 524.222,-84.3501"/>
<polygon fill="midnightblue" stroke="midnightblue" points="524.33,-80.8519 514.21,-83.987 524.077,-87.8473 524.33,-80.8519"/>
</g>
<!-- Node21&#45;&gt;Node18 -->
<g id="edge62" class="edge"><title>Node21&#45;&gt;Node18</title>
<path fill="none" stroke="midnightblue" d="M2232.79,-158.547C2183.04,-169.006 2101.91,-185.772 2032,-202 2025.34,-203.546 2018.35,-205.236 2011.37,-206.941"/>
<polygon fill="midnightblue" stroke="midnightblue" points="2010.08,-203.654 2001.21,-209.437 2011.75,-210.452 2010.08,-203.654"/>
</g>
<!-- Node22 -->
<g id="node48" class="node"><title>Node22</title>
<polygon fill="white" stroke="#bfbfbf" points="2162.5,-72.5 2162.5,-93.5 2205.5,-93.5 2205.5,-72.5 2162.5,-72.5"/>
<text text-anchor="middle" x="2184" y="-80.5" font-family="Helvetica,sans-Serif" font-size="10.00">cstdio</text>
</g>
<!-- Node21&#45;&gt;Node22 -->
<g id="edge52" class="edge"><title>Node21&#45;&gt;Node22</title>
<path fill="none" stroke="midnightblue" d="M2263.31,-137.267C2248.23,-126.949 2225.24,-111.216 2207.88,-99.3421"/>
<polygon fill="midnightblue" stroke="midnightblue" points="2209.62,-96.292 2199.4,-93.5337 2205.67,-102.069 2209.62,-96.292"/>
</g>
<!-- Node23 -->
<g id="node50" class="node"><title>Node23</title>
<polygon fill="white" stroke="#bfbfbf" points="2223,-72.5 2223,-93.5 2269,-93.5 2269,-72.5 2223,-72.5"/>
<text text-anchor="middle" x="2246" y="-80.5" font-family="Helvetica,sans-Serif" font-size="10.00">cstring</text>
</g>
<!-- Node21&#45;&gt;Node23 -->
<g id="edge54" class="edge"><title>Node21&#45;&gt;Node23</title>
<path fill="none" stroke="midnightblue" d="M2273.55,-137.267C2268.79,-127.896 2261.77,-114.057 2256,-102.7"/>
<polygon fill="midnightblue" stroke="midnightblue" points="2259,-100.866 2251.35,-93.5337 2252.75,-104.035 2259,-100.866"/>
</g>
<!-- Node24 -->
<g id="node52" class="node"><title>Node24</title>
<polygon fill="white" stroke="#bfbfbf" points="2287,-72.5 2287,-93.5 2337,-93.5 2337,-72.5 2287,-72.5"/>
<text text-anchor="middle" x="2312" y="-80.5" font-family="Helvetica,sans-Serif" font-size="10.00">iomanip</text>
</g>
<!-- Node21&#45;&gt;Node24 -->
<g id="edge56" class="edge"><title>Node21&#45;&gt;Node24</title>
<path fill="none" stroke="midnightblue" d="M2284.45,-137.267C2289.21,-127.896 2296.23,-114.057 2302,-102.7"/>
<polygon fill="midnightblue" stroke="midnightblue" points="2305.25,-104.035 2306.65,-93.5337 2299,-100.866 2305.25,-104.035"/>
</g>
<!-- Node25 -->
<g id="node55" class="node"><title>Node25</title>
<polygon fill="white" stroke="#bfbfbf" points="2355,-72.5 2355,-93.5 2415,-93.5 2415,-72.5 2355,-72.5"/>
<text text-anchor="middle" x="2385" y="-80.5" font-family="Helvetica,sans-Serif" font-size="10.00">streambuf</text>
</g>
<!-- Node21&#45;&gt;Node25 -->
<g id="edge60" class="edge"><title>Node21&#45;&gt;Node25</title>
<path fill="none" stroke="midnightblue" d="M2296.5,-137.267C2313.56,-126.807 2339.69,-110.782 2359.15,-98.8541"/>
<polygon fill="midnightblue" stroke="midnightblue" points="2361.13,-101.745 2367.82,-93.5337 2357.47,-95.7776 2361.13,-101.745"/>
</g>
<!-- Node30&#45;&gt;Node20 -->
<g id="edge76" class="edge"><title>Node30&#45;&gt;Node20</title>
<path fill="none" stroke="midnightblue" d="M932.129,-130.922C941.959,-121.662 954.097,-110.227 964.051,-100.85"/>
<polygon fill="midnightblue" stroke="midnightblue" points="966.601,-103.257 971.48,-93.8521 961.801,-98.1614 966.601,-103.257"/>
</g>
<!-- Node32&#45;&gt;Node4 -->
<g id="edge84" class="edge"><title>Node32&#45;&gt;Node4</title>
<path fill="none" stroke="midnightblue" d="M1836.37,-353.495C1923.63,-333.795 2099.12,-288.69 2133,-238 2167.29,-186.705 2092.86,-127.099 2050.99,-99.095"/>
<polygon fill="midnightblue" stroke="midnightblue" points="2052.88,-96.1521 2042.59,-93.6133 2049.05,-102.013 2052.88,-96.1521"/>
</g>
<!-- Node33 -->
<g id="node74" class="node"><title>Node33</title>
<polygon fill="white" stroke="#bfbfbf" points="1872,-281.5 1872,-302.5 1950,-302.5 1950,-281.5 1872,-281.5"/>
<text text-anchor="middle" x="1911" y="-289.5" font-family="Helvetica,sans-Serif" font-size="10.00">boost/any.hpp</text>
</g>
<!-- Node32&#45;&gt;Node33 -->
<g id="edge82" class="edge"><title>Node32&#45;&gt;Node33</title>
<path fill="none" stroke="midnightblue" d="M1805.3,-353.376C1825.99,-341.359 1859.91,-321.665 1883.73,-307.834"/>
<polygon fill="midnightblue" stroke="midnightblue" points="1885.74,-310.716 1892.63,-302.667 1882.22,-304.662 1885.74,-310.716"/>
</g>
<!-- Node35&#45;&gt;Node34 -->
<g id="edge90" class="edge"><title>Node35&#45;&gt;Node34</title>
<path fill="none" stroke="midnightblue" d="M777.61,-346.916C781.67,-320.345 789.482,-269.207 793.849,-240.622"/>
<polygon fill="midnightblue" stroke="midnightblue" points="797.339,-240.955 795.39,-230.541 790.419,-239.898 797.339,-240.955"/>
</g>
<!-- Node36 -->
<g id="node82" class="node"><title>Node36</title>
<a xlink:href="gr__ambasockets_8h.html" target="_top" xlink:title="core/common/grambasockets\l/gr_ambasockets.h">
<polygon fill="white" stroke="black" points="405,-275 405,-309 551,-309 551,-275 405,-275"/>
<text text-anchor="start" x="413" y="-296" font-family="Helvetica,sans-Serif" font-size="10.00">core/common/grambasockets</text>
<text text-anchor="middle" x="478" y="-283" font-family="Helvetica,sans-Serif" font-size="10.00">/gr_ambasockets.h</text>
</a>
</g>
<!-- Node35&#45;&gt;Node36 -->
<g id="edge92" class="edge"><title>Node35&#45;&gt;Node36</title>
<path fill="none" stroke="midnightblue" d="M704.615,-346.937C660.587,-336.264 603.753,-322.485 558.016,-311.398"/>
<polygon fill="midnightblue" stroke="midnightblue" points="558.68,-307.957 548.137,-309.003 557.03,-314.76 558.68,-307.957"/>
</g>
<!-- Node36&#45;&gt;Node15 -->
<g id="edge108" class="edge"><title>Node36&#45;&gt;Node15</title>
<path fill="none" stroke="midnightblue" d="M404.838,-288.398C329.749,-282.988 220.283,-269.751 194,-238 118.221,-146.455 355.362,-101.742 449.885,-87.8749"/>
<polygon fill="midnightblue" stroke="midnightblue" points="450.486,-91.3247 459.89,-86.4446 449.495,-84.3951 450.486,-91.3247"/>
</g>
<!-- Node36&#45;&gt;Node19 -->
<g id="edge104" class="edge"><title>Node36&#45;&gt;Node19</title>
<path fill="none" stroke="midnightblue" d="M404.99,-287.763C332.884,-281.872 229.881,-268.285 205,-238 194.843,-225.637 193.951,-213.572 205,-202 234.88,-170.705 940.222,-172.496 983,-166 990.918,-164.798 999.239,-163.054 1007.26,-161.118"/>
<polygon fill="midnightblue" stroke="midnightblue" points="1008.36,-164.448 1017.19,-158.591 1006.64,-157.664 1008.36,-164.448"/>
</g>
<!-- Node36&#45;&gt;Node34 -->
<g id="edge94" class="edge"><title>Node36&#45;&gt;Node34</title>
<path fill="none" stroke="midnightblue" d="M551.229,-278.474C603.31,-268.431 674.782,-253.788 737,-238 742.468,-236.612 748.184,-235.048 753.823,-233.436"/>
<polygon fill="midnightblue" stroke="midnightblue" points="755.205,-236.678 763.818,-230.509 753.238,-229.96 755.205,-236.678"/>
</g>
<!-- Node37 -->
<g id="node85" class="node"><title>Node37</title>
<polygon fill="white" stroke="#bfbfbf" points="214,-203 214,-237 396,-237 396,-203 214,-203"/>
<text text-anchor="start" x="222" y="-224" font-family="Helvetica,sans-Serif" font-size="10.00">greensocket/utils/greensocketaddress</text>
<text text-anchor="middle" x="305" y="-211" font-family="Helvetica,sans-Serif" font-size="10.00">_base.h</text>
</g>
<!-- Node36&#45;&gt;Node37 -->
<g id="edge96" class="edge"><title>Node36&#45;&gt;Node37</title>
<path fill="none" stroke="midnightblue" d="M437.001,-274.937C412.529,-264.752 381.264,-251.74 355.305,-240.936"/>
<polygon fill="midnightblue" stroke="midnightblue" points="356.581,-237.676 346.004,-237.065 353.891,-244.139 356.581,-237.676"/>
</g>
<!-- Node38 -->
<g id="node87" class="node"><title>Node38</title>
<polygon fill="white" stroke="#bfbfbf" points="413.5,-203 413.5,-237 542.5,-237 542.5,-203 413.5,-203"/>
<text text-anchor="start" x="421.5" y="-224" font-family="Helvetica,sans-Serif" font-size="10.00">greenreg/greenreg_socket</text>
<text text-anchor="middle" x="478" y="-211" font-family="Helvetica,sans-Serif" font-size="10.00">/transactor_if.h</text>
</g>
<!-- Node36&#45;&gt;Node38 -->
<g id="edge98" class="edge"><title>Node36&#45;&gt;Node38</title>
<path fill="none" stroke="midnightblue" d="M478,-274.937C478,-266.807 478,-256.876 478,-247.705"/>
<polygon fill="midnightblue" stroke="midnightblue" points="481.5,-247.441 478,-237.441 474.5,-247.441 481.5,-247.441"/>
</g>
<!-- Node39 -->
<g id="node89" class="node"><title>Node39</title>
<polygon fill="white" stroke="#bfbfbf" points="559.5,-203 559.5,-237 662.5,-237 662.5,-203 559.5,-203"/>
<text text-anchor="start" x="567.5" y="-224" font-family="Helvetica,sans-Serif" font-size="10.00">greenreg/framework</text>
<text text-anchor="middle" x="611" y="-211" font-family="Helvetica,sans-Serif" font-size="10.00">/core/gr_common.h</text>
</g>
<!-- Node36&#45;&gt;Node39 -->
<g id="edge100" class="edge"><title>Node36&#45;&gt;Node39</title>
<path fill="none" stroke="midnightblue" d="M509.519,-274.937C527.689,-265.101 550.73,-252.627 570.263,-242.053"/>
<polygon fill="midnightblue" stroke="midnightblue" points="572.118,-245.029 579.246,-237.19 568.786,-238.873 572.118,-245.029"/>
</g>
<!-- Node40 -->
<g id="node91" class="node"><title>Node40</title>
<polygon fill="white" stroke="#bfbfbf" points="679.5,-209.5 679.5,-230.5 728.5,-230.5 728.5,-209.5 679.5,-209.5"/>
<text text-anchor="middle" x="704" y="-217.5" font-family="Helvetica,sans-Serif" font-size="10.00">amba.h</text>
</g>
<!-- Node36&#45;&gt;Node40 -->
<g id="edge102" class="edge"><title>Node36&#45;&gt;Node40</title>
<path fill="none" stroke="midnightblue" d="M551.246,-275.669C587.87,-266.463 632.482,-253.657 671,-238 673.063,-237.161 675.163,-236.227 677.252,-235.236"/>
<polygon fill="midnightblue" stroke="midnightblue" points="678.892,-238.329 686.205,-230.662 675.707,-232.095 678.892,-238.329"/>
</g>
<!-- Node41 -->
<g id="node94" class="node"><title>Node41</title>
<polygon fill="white" stroke="#bfbfbf" points="66,-209.5 66,-230.5 120,-230.5 120,-209.5 66,-209.5"/>
<text text-anchor="middle" x="93" y="-217.5" font-family="Helvetica,sans-Serif" font-size="10.00">systemc</text>
</g>
<!-- Node36&#45;&gt;Node41 -->
<g id="edge106" class="edge"><title>Node36&#45;&gt;Node41</title>
<path fill="none" stroke="midnightblue" d="M404.994,-286.046C334.53,-279.019 225.382,-264.743 134,-238 130.615,-237.009 127.141,-235.804 123.717,-234.492"/>
<polygon fill="midnightblue" stroke="midnightblue" points="124.892,-231.19 114.314,-230.599 122.215,-237.658 124.892,-231.19"/>
</g>
</g>
</svg>
