<?xml version="1.0" encoding="UTF-8" standalone="no"?>
<!DOCTYPE svg PUBLIC "-//W3C//DTD SVG 1.1//EN"
 "http://www.w3.org/Graphics/SVG/1.1/DTD/svg11.dtd">
<!-- Generated by graphviz version 2.26.0 (20091210.2329)
 -->
<!-- Title: core/common/msclogger.h Pages: 1 -->
<!--zoomable 376 -->
<svg id="main" version="1.1" xmlns="http://www.w3.org/2000/svg" xmlns:xlink="http://www.w3.org/1999/xlink" xml:space="preserve" onload="init(evt)">
<style type="text/css"><![CDATA[
.edge:hover path { stroke: red; }
.edge:hover polygon { stroke: red; fill: red; }
]]></style>
<script type="text/javascript"><![CDATA[
var edges = document.getElementsByTagName('g');
if (edges && edges.length) {
  for (var i=0;i<edges.length;i++) {
    if (edges[i].id.substr(0,4)=='edge') {
      edges[i].setAttribute('class','edge');
    }
  }
}
]]></script>
        <defs>
                <circle id="rim" cx="0" cy="0" r="7"/>
                <circle id="rim2" cx="0" cy="0" r="3.5"/>
                <g id="zoomPlus">
                        <use xlink:href="#rim" fill="#404040">
                                <set attributeName="fill" to="#808080" begin="zoomplus.mouseover" end="zoomplus.mouseout"/>
                        </use>
                        <path d="M-4,0h8M0,-4v8" fill="none" stroke="white" stroke-width="1.5" pointer-events="none"/>
                </g>
                <g id="zoomMin">
                        <use xlink:href="#rim" fill="#404040">
                                <set attributeName="fill" to="#808080" begin="zoomminus.mouseover" end="zoomminus.mouseout"/>
                        </use>
                        <path d="M-4,0h8" fill="none" stroke="white" stroke-width="1.5" pointer-events="none"/>
                </g>
                <g id="dirArrow">
                        <path fill="none" stroke="white" stroke-width="1.5" d="M0,-3.0v7 M-2.5,-0.5L0,-3.0L2.5,-0.5"/>
                </g>
               <g id="resetDef">
                       <use xlink:href="#rim2" fill="#404040">
                               <set attributeName="fill" to="#808080" begin="reset.mouseover" end="reset.mouseout"/>
                       </use>
               </g>
        </defs>

<script type="text/javascript">
var viewWidth = 1754;
var viewHeight = 376;
var sectionId = 'dynsection-1';
</script>
<script xlink:href="svgpan.js"/>
<svg id="graph" class="graph">
<g id="viewport">
<title>core/common/msclogger.h</title>
<polygon fill="white" stroke="white" points="-4,5 -4,-372 1751,-372 1751,5 -4,5"/>
<!-- Node1 -->
<g id="node1" class="node"><title>Node1</title>
<polygon fill="#bfbfbf" stroke="black" points="975,-346.5 975,-367.5 1107,-367.5 1107,-346.5 975,-346.5"/>
<text text-anchor="middle" x="1041" y="-354.5" font-family="Helvetica,sans-Serif" font-size="10.00">core/common/msclogger.h</text>
</g>
<!-- Node2 -->
<g id="node3" class="node"><title>Node2</title>
<a xlink:href="ahbctrl_8h.html" target="_top" xlink:title="core/models/ahbctrl\l/ahbctrl.h">
<polygon fill="white" stroke="black" points="544,-217 544,-251 646,-251 646,-217 544,-217"/>
<text text-anchor="start" x="552" y="-238" font-family="Helvetica,sans-Serif" font-size="10.00">core/models/ahbctrl</text>
<text text-anchor="middle" x="595" y="-225" font-family="Helvetica,sans-Serif" font-size="10.00">/ahbctrl.h</text>
</a>
</g>
<!-- Node1&#45;&gt;Node2 -->
<g id="edge2" class="edge"><title>Node1&#45;&gt;Node2</title>
<path fill="none" stroke="midnightblue" d="M964.705,-353.287C849.008,-346.964 639.836,-332.556 614,-310 597.3,-295.42 594.164,-268.596 594.089,-251.03"/>
<polygon fill="midnightblue" stroke="midnightblue" points="964.744,-356.794 974.918,-353.837 965.121,-349.804 964.744,-356.794"/>
</g>
<!-- Node9 -->
<g id="node18" class="node"><title>Node9</title>
<a xlink:href="ahbmaster_8h.html" target="_top" xlink:title="core/models/utils/ahbmaster.h">
<polygon fill="white" stroke="black" points="623,-288.5 623,-309.5 771,-309.5 771,-288.5 623,-288.5"/>
<text text-anchor="middle" x="697" y="-296.5" font-family="Helvetica,sans-Serif" font-size="10.00">core/models/utils/ahbmaster.h</text>
</a>
</g>
<!-- Node1&#45;&gt;Node9 -->
<g id="edge18" class="edge"><title>Node1&#45;&gt;Node9</title>
<path fill="none" stroke="midnightblue" d="M968.608,-344.794C906.63,-334.345 818.325,-319.456 759.413,-309.523"/>
<polygon fill="midnightblue" stroke="midnightblue" points="968.261,-348.285 978.704,-346.497 969.425,-341.383 968.261,-348.285"/>
</g>
<!-- Node18 -->
<g id="node44" class="node"><title>Node18</title>
<a xlink:href="ahbslave_8h.html" target="_top" xlink:title="core/models/utils/ahbslave.h">
<polygon fill="white" stroke="black" points="1019.5,-288.5 1019.5,-309.5 1160.5,-309.5 1160.5,-288.5 1019.5,-288.5"/>
<text text-anchor="middle" x="1090" y="-296.5" font-family="Helvetica,sans-Serif" font-size="10.00">core/models/utils/ahbslave.h</text>
</a>
</g>
<!-- Node1&#45;&gt;Node18 -->
<g id="edge52" class="edge"><title>Node1&#45;&gt;Node18</title>
<path fill="none" stroke="midnightblue" d="M1056.59,-338.541C1064.67,-328.979 1074.25,-317.647 1081.07,-309.571"/>
<polygon fill="midnightblue" stroke="midnightblue" points="1053.77,-336.464 1049.99,-346.362 1059.11,-340.982 1053.77,-336.464"/>
</g>
<!-- Node19 -->
<g id="node46" class="node"><title>Node19</title>
<a xlink:href="ahbmem_8h.html" target="_top" xlink:title="core/models/ahbmem\l/ahbmem.h">
<polygon fill="white" stroke="black" points="955,-217 955,-251 1065,-251 1065,-217 955,-217"/>
<text text-anchor="start" x="963" y="-238" font-family="Helvetica,sans-Serif" font-size="10.00">core/models/ahbmem</text>
<text text-anchor="middle" x="1010" y="-225" font-family="Helvetica,sans-Serif" font-size="10.00">/ahbmem.h</text>
</a>
</g>
<!-- Node1&#45;&gt;Node19 -->
<g id="edge92" class="edge"><title>Node1&#45;&gt;Node19</title>
<path fill="none" stroke="midnightblue" d="M1025.63,-338.235C1019.88,-330.073 1014.01,-320.08 1011,-310 1005.14,-290.405 1006.01,-266.677 1007.61,-251.005"/>
<polygon fill="midnightblue" stroke="midnightblue" points="1022.87,-340.399 1031.68,-346.292 1028.47,-336.194 1022.87,-340.399"/>
</g>
<!-- Node21 -->
<g id="node52" class="node"><title>Node21</title>
<a xlink:href="ahbout_8h.html" target="_top" xlink:title="core/models/ahbout\l/ahbout.h">
<polygon fill="white" stroke="black" points="1278,-217 1278,-251 1380,-251 1380,-217 1278,-217"/>
<text text-anchor="start" x="1286" y="-238" font-family="Helvetica,sans-Serif" font-size="10.00">core/models/ahbout</text>
<text text-anchor="middle" x="1329" y="-225" font-family="Helvetica,sans-Serif" font-size="10.00">/ahbout.h</text>
</a>
</g>
<!-- Node1&#45;&gt;Node21 -->
<g id="edge94" class="edge"><title>Node1&#45;&gt;Node21</title>
<path fill="none" stroke="midnightblue" d="M1089.57,-343.576C1118.1,-335.12 1154.62,-323.305 1186,-310 1227.03,-292.607 1272.07,-267.618 1300.43,-251.106"/>
<polygon fill="midnightblue" stroke="midnightblue" points="1088.45,-340.258 1079.83,-346.424 1090.41,-346.977 1088.45,-340.258"/>
</g>
<!-- Node23 -->
<g id="node56" class="node"><title>Node23</title>
<a xlink:href="ahbprof_8h.html" target="_top" xlink:title="core/models/ahbprof\l/ahbprof.h">
<polygon fill="white" stroke="black" points="1117.5,-217 1117.5,-251 1222.5,-251 1222.5,-217 1117.5,-217"/>
<text text-anchor="start" x="1125.5" y="-238" font-family="Helvetica,sans-Serif" font-size="10.00">core/models/ahbprof</text>
<text text-anchor="middle" x="1170" y="-225" font-family="Helvetica,sans-Serif" font-size="10.00">/ahbprof.h</text>
</a>
</g>
<!-- Node1&#45;&gt;Node23 -->
<g id="edge96" class="edge"><title>Node1&#45;&gt;Node23</title>
<path fill="none" stroke="midnightblue" d="M1095.2,-343.704C1125.89,-334.968 1159.93,-322.814 1169,-310 1181.12,-292.876 1178.57,-267.705 1174.9,-251.09"/>
<polygon fill="midnightblue" stroke="midnightblue" points="1094.09,-340.379 1085.39,-346.418 1095.96,-347.126 1094.09,-340.379"/>
</g>
<!-- Node3 -->
<g id="node5" class="node"><title>Node3</title>
<a xlink:href="ahbctrl_8cpp.html" target="_top" xlink:title="core/models/ahbctrl\l/ahbctrl.cpp">
<polygon fill="white" stroke="black" points="292,-145 292,-179 394,-179 394,-145 292,-145"/>
<text text-anchor="start" x="300" y="-166" font-family="Helvetica,sans-Serif" font-size="10.00">core/models/ahbctrl</text>
<text text-anchor="middle" x="343" y="-153" font-family="Helvetica,sans-Serif" font-size="10.00">/ahbctrl.cpp</text>
</a>
</g>
<!-- Node2&#45;&gt;Node3 -->
<g id="edge4" class="edge"><title>Node2&#45;&gt;Node3</title>
<path fill="none" stroke="midnightblue" d="M534.158,-217.178C496.362,-206.656 446.801,-192.729 403,-180 400.076,-179.15 397.074,-178.271 394.045,-177.379"/>
<polygon fill="midnightblue" stroke="midnightblue" points="533.424,-220.606 543.996,-219.914 535.3,-213.862 533.424,-220.606"/>
</g>
<!-- Node4 -->
<g id="node7" class="node"><title>Node4</title>
<a xlink:href="ambabase_8h.html" target="_top" xlink:title="core/platforms/base\l/ambabase.h">
<polygon fill="white" stroke="black" points="411.5,-145 411.5,-179 514.5,-179 514.5,-145 411.5,-145"/>
<text text-anchor="start" x="419.5" y="-166" font-family="Helvetica,sans-Serif" font-size="10.00">core/platforms/base</text>
<text text-anchor="middle" x="463" y="-153" font-family="Helvetica,sans-Serif" font-size="10.00">/ambabase.h</text>
</a>
</g>
<!-- Node2&#45;&gt;Node4 -->
<g id="edge6" class="edge"><title>Node2&#45;&gt;Node4</title>
<path fill="none" stroke="midnightblue" d="M554.819,-212.083C535.463,-201.525 512.59,-189.049 494.515,-179.19"/>
<polygon fill="midnightblue" stroke="midnightblue" points="553.263,-215.221 563.718,-216.937 556.615,-209.076 553.263,-215.221"/>
</g>
<!-- Node6 -->
<g id="node11" class="node"><title>Node6</title>
<a xlink:href="leon3mp_8h.html" target="_top" xlink:title="core/platforms/newleon3mp\l/leon3mp.h">
<polygon fill="white" stroke="black" points="666.5,-73 666.5,-107 803.5,-107 803.5,-73 666.5,-73"/>
<text text-anchor="start" x="674.5" y="-94" font-family="Helvetica,sans-Serif" font-size="10.00">core/platforms/newleon3mp</text>
<text text-anchor="middle" x="735" y="-81" font-family="Helvetica,sans-Serif" font-size="10.00">/leon3mp.h</text>
</a>
</g>
<!-- Node2&#45;&gt;Node6 -->
<g id="edge16" class="edge"><title>Node2&#45;&gt;Node6</title>
<path fill="none" stroke="midnightblue" d="M629.722,-210.984C642.105,-202.014 655.759,-191.201 667,-180 690.028,-157.054 711.783,-126.024 724.234,-107.041"/>
<polygon fill="midnightblue" stroke="midnightblue" points="627.534,-208.244 621.397,-216.881 631.58,-213.956 627.534,-208.244"/>
</g>
<!-- Node8 -->
<g id="node15" class="node"><title>Node8</title>
<a xlink:href="leon3mp_2sc__main_8cpp.html" target="_top" xlink:title="core/platforms/leon3mp\l/sc_main.cpp">
<polygon fill="white" stroke="black" points="1220.5,-73 1220.5,-107 1339.5,-107 1339.5,-73 1220.5,-73"/>
<text text-anchor="start" x="1228.5" y="-94" font-family="Helvetica,sans-Serif" font-size="10.00">core/platforms/leon3mp</text>
<text text-anchor="middle" x="1280" y="-81" font-family="Helvetica,sans-Serif" font-size="10.00">/sc_main.cpp</text>
</a>
</g>
<!-- Node2&#45;&gt;Node8 -->
<g id="edge14" class="edge"><title>Node2&#45;&gt;Node8</title>
<path fill="none" stroke="midnightblue" d="M656.253,-225.924C682.878,-222.576 714.45,-218.824 743,-216 847.683,-205.647 1123.23,-231.419 1215,-180 1230.05,-171.568 1255.83,-130.926 1269.98,-107.24"/>
<polygon fill="midnightblue" stroke="midnightblue" points="655.788,-222.455 646.308,-227.185 656.668,-229.4 655.788,-222.455"/>
</g>
<!-- Node5 -->
<g id="node9" class="node"><title>Node5</title>
<a xlink:href="leon3processor_8h.html" target="_top" xlink:title="core/platforms/base\l/leon3processor.h">
<polygon fill="white" stroke="black" points="264.5,-73 264.5,-107 367.5,-107 367.5,-73 264.5,-73"/>
<text text-anchor="start" x="272.5" y="-94" font-family="Helvetica,sans-Serif" font-size="10.00">core/platforms/base</text>
<text text-anchor="middle" x="316" y="-81" font-family="Helvetica,sans-Serif" font-size="10.00">/leon3processor.h</text>
</a>
</g>
<!-- Node4&#45;&gt;Node5 -->
<g id="edge8" class="edge"><title>Node4&#45;&gt;Node5</title>
<path fill="none" stroke="midnightblue" d="M419.095,-140.495C397.272,-129.807 371.272,-117.072 350.841,-107.065"/>
<polygon fill="midnightblue" stroke="midnightblue" points="417.643,-143.681 428.163,-144.937 420.722,-137.395 417.643,-143.681"/>
</g>
<!-- Node4&#45;&gt;Node6 -->
<g id="edge10" class="edge"><title>Node4&#45;&gt;Node6</title>
<path fill="none" stroke="midnightblue" d="M524.476,-143.636C576.857,-129.213 626.941,-116.486 666.063,-106.781"/>
<polygon fill="midnightblue" stroke="midnightblue" points="523.376,-140.309 514.671,-146.349 525.242,-147.056 523.376,-140.309"/>
</g>
<!-- Node7 -->
<g id="node13" class="node"><title>Node7</title>
<a xlink:href="newleon3mp_2sc__main_8cpp.html" target="_top" xlink:title="core/platforms/newleon3mp\l/sc_main.cpp">
<polygon fill="white" stroke="black" points="666.5,-1 666.5,-35 803.5,-35 803.5,-1 666.5,-1"/>
<text text-anchor="start" x="674.5" y="-22" font-family="Helvetica,sans-Serif" font-size="10.00">core/platforms/newleon3mp</text>
<text text-anchor="middle" x="735" y="-9" font-family="Helvetica,sans-Serif" font-size="10.00">/sc_main.cpp</text>
</a>
</g>
<!-- Node6&#45;&gt;Node7 -->
<g id="edge12" class="edge"><title>Node6&#45;&gt;Node7</title>
<path fill="none" stroke="midnightblue" d="M735,-62.7193C735,-53.572 735,-43.6255 735,-35.4407"/>
<polygon fill="midnightblue" stroke="midnightblue" points="731.5,-62.937 735,-72.937 738.5,-62.937 731.5,-62.937"/>
</g>
<!-- Node10 -->
<g id="node20" class="node"><title>Node10</title>
<a xlink:href="ahbin_8h.html" target="_top" xlink:title="core/models/ahbin/ahbin.h">
<polygon fill="white" stroke="black" points="1075.5,-151.5 1075.5,-172.5 1206.5,-172.5 1206.5,-151.5 1075.5,-151.5"/>
<text text-anchor="middle" x="1141" y="-159.5" font-family="Helvetica,sans-Serif" font-size="10.00">core/models/ahbin/ahbin.h</text>
</a>
</g>
<!-- Node9&#45;&gt;Node10 -->
<g id="edge20" class="edge"><title>Node9&#45;&gt;Node10</title>
<path fill="none" stroke="midnightblue" d="M750.004,-285.922C782.881,-277.336 825.8,-265.267 863,-252 900.873,-238.493 908.088,-229.398 946,-216 996.509,-198.15 1056.04,-182.404 1095.92,-172.59"/>
<polygon fill="midnightblue" stroke="midnightblue" points="748.947,-282.58 740.141,-288.472 750.699,-289.357 748.947,-282.58"/>
</g>
<!-- Node12 -->
<g id="node26" class="node"><title>Node12</title>
<a xlink:href="leon3__mmu__cache_8h.html" target="_top" xlink:title="core/models/mmu_cache\l/lib/leon3_mmu_cache.h">
<polygon fill="white" stroke="black" points="532,-145 532,-179 658,-179 658,-145 532,-145"/>
<text text-anchor="start" x="540" y="-166" font-family="Helvetica,sans-Serif" font-size="10.00">core/models/mmu_cache</text>
<text text-anchor="middle" x="595" y="-153" font-family="Helvetica,sans-Serif" font-size="10.00">/lib/leon3_mmu_cache.h</text>
</a>
</g>
<!-- Node9&#45;&gt;Node12 -->
<g id="edge28" class="edge"><title>Node9&#45;&gt;Node12</title>
<path fill="none" stroke="midnightblue" d="M689.363,-279.025C682.082,-261.429 670.014,-235.619 655,-216 644.354,-202.089 629.799,-188.888 617.691,-179.021"/>
<polygon fill="midnightblue" stroke="midnightblue" points="686.121,-280.342 693.084,-288.327 692.62,-277.742 686.121,-280.342"/>
</g>
<!-- Node14 -->
<g id="node32" class="node"><title>Node14</title>
<a xlink:href="mmu__cache__base_8h.html" target="_top" xlink:title="core/models/mmu_cache\l/lib/mmu_cache_base.h">
<polygon fill="white" stroke="black" points="310,-217 310,-251 436,-251 436,-217 310,-217"/>
<text text-anchor="start" x="318" y="-238" font-family="Helvetica,sans-Serif" font-size="10.00">core/models/mmu_cache</text>
<text text-anchor="middle" x="373" y="-225" font-family="Helvetica,sans-Serif" font-size="10.00">/lib/mmu_cache_base.h</text>
</a>
</g>
<!-- Node9&#45;&gt;Node14 -->
<g id="edge36" class="edge"><title>Node9&#45;&gt;Node14</title>
<path fill="none" stroke="midnightblue" d="M634.606,-286.483C577.533,-275.033 493.502,-258.175 436.182,-246.675"/>
<polygon fill="midnightblue" stroke="midnightblue" points="634.091,-289.949 644.584,-288.484 635.468,-283.086 634.091,-289.949"/>
</g>
<!-- Node15 -->
<g id="node35" class="node"><title>Node15</title>
<a xlink:href="mmu__cache_8h.html" target="_top" xlink:title="core/models/mmu_cache\l/lib/mmu_cache.h">
<polygon fill="white" stroke="black" points="0,-145 0,-179 126,-179 126,-145 0,-145"/>
<text text-anchor="start" x="8" y="-166" font-family="Helvetica,sans-Serif" font-size="10.00">core/models/mmu_cache</text>
<text text-anchor="middle" x="63" y="-153" font-family="Helvetica,sans-Serif" font-size="10.00">/lib/mmu_cache.h</text>
</a>
</g>
<!-- Node9&#45;&gt;Node15 -->
<g id="edge50" class="edge"><title>Node9&#45;&gt;Node15</title>
<path fill="none" stroke="midnightblue" d="M612.561,-294.937C531.657,-289.652 406.607,-277.825 301,-252 227.408,-234.004 145.605,-199.728 99.6194,-179.062"/>
<polygon fill="midnightblue" stroke="midnightblue" points="612.492,-298.44 622.694,-295.58 612.936,-291.454 612.492,-298.44"/>
</g>
<!-- Node10&#45;&gt;Node6 -->
<g id="edge26" class="edge"><title>Node10&#45;&gt;Node6</title>
<path fill="none" stroke="midnightblue" d="M1086.82,-149.202C1078.53,-147.373 1070.05,-145.58 1062,-144 973.213,-126.571 870.121,-110.179 803.799,-100.126"/>
<polygon fill="midnightblue" stroke="midnightblue" points="1086.29,-152.668 1096.81,-151.437 1087.82,-145.837 1086.29,-152.668"/>
</g>
<!-- Node10&#45;&gt;Node8 -->
<g id="edge24" class="edge"><title>Node10&#45;&gt;Node8</title>
<path fill="none" stroke="midnightblue" d="M1170.56,-146.69C1192.97,-135.08 1223.78,-119.122 1247,-107.094"/>
<polygon fill="midnightblue" stroke="midnightblue" points="1168.78,-143.669 1161.51,-151.376 1172,-149.884 1168.78,-143.669"/>
</g>
<!-- Node11 -->
<g id="node22" class="node"><title>Node11</title>
<a xlink:href="ahbin_8cpp.html" target="_top" xlink:title="core/models/ahbin/ahbin.cpp">
<polygon fill="white" stroke="black" points="1062.5,-79.5 1062.5,-100.5 1203.5,-100.5 1203.5,-79.5 1062.5,-79.5"/>
<text text-anchor="middle" x="1133" y="-87.5" font-family="Helvetica,sans-Serif" font-size="10.00">core/models/ahbin/ahbin.cpp</text>
</a>
</g>
<!-- Node10&#45;&gt;Node11 -->
<g id="edge22" class="edge"><title>Node10&#45;&gt;Node11</title>
<path fill="none" stroke="midnightblue" d="M1138.69,-141.235C1137.22,-127.969 1135.37,-111.319 1134.19,-100.667"/>
<polygon fill="midnightblue" stroke="midnightblue" points="1135.24,-141.824 1139.82,-151.376 1142.19,-141.051 1135.24,-141.824"/>
</g>
<!-- Node12&#45;&gt;Node6 -->
<g id="edge34" class="edge"><title>Node12&#45;&gt;Node6</title>
<path fill="none" stroke="midnightblue" d="M637.338,-140.226C657.925,-129.638 682.318,-117.094 701.575,-107.19"/>
<polygon fill="midnightblue" stroke="midnightblue" points="635.47,-137.251 628.178,-144.937 638.672,-143.476 635.47,-137.251"/>
</g>
<!-- Node12&#45;&gt;Node8 -->
<g id="edge32" class="edge"><title>Node12&#45;&gt;Node8</title>
<path fill="none" stroke="midnightblue" d="M668.326,-152.429C692.122,-149.498 718.659,-146.413 743,-144 951.038,-123.375 1005.87,-142.893 1212,-108 1214.77,-107.531 1217.59,-107.001 1220.43,-106.425"/>
<polygon fill="midnightblue" stroke="midnightblue" points="667.802,-148.967 658.31,-153.673 668.665,-155.913 667.802,-148.967"/>
</g>
<!-- Node13 -->
<g id="node28" class="node"><title>Node13</title>
<a xlink:href="leon3__mmu__cache_8cpp.html" target="_top" xlink:title="core/models/mmu_cache\l/lib/leon3_mmu_cache.cpp">
<polygon fill="white" stroke="black" points="516.5,-73 516.5,-107 649.5,-107 649.5,-73 516.5,-73"/>
<text text-anchor="start" x="524.5" y="-94" font-family="Helvetica,sans-Serif" font-size="10.00">core/models/mmu_cache</text>
<text text-anchor="middle" x="583" y="-81" font-family="Helvetica,sans-Serif" font-size="10.00">/lib/leon3_mmu_cache.cpp</text>
</a>
</g>
<!-- Node12&#45;&gt;Node13 -->
<g id="edge30" class="edge"><title>Node12&#45;&gt;Node13</title>
<path fill="none" stroke="midnightblue" d="M590.503,-135.017C588.965,-125.788 587.286,-115.714 585.907,-107.441"/>
<polygon fill="midnightblue" stroke="midnightblue" points="587.06,-135.648 592.156,-144.937 593.964,-134.498 587.06,-135.648"/>
</g>
<!-- Node14&#45;&gt;Node12 -->
<g id="edge38" class="edge"><title>Node14&#45;&gt;Node12</title>
<path fill="none" stroke="midnightblue" d="M435.365,-213.774C469.093,-202.835 510.289,-189.474 542.383,-179.065"/>
<polygon fill="midnightblue" stroke="midnightblue" points="434.043,-210.523 425.611,-216.937 436.203,-217.181 434.043,-210.523"/>
</g>
<!-- Node14&#45;&gt;Node15 -->
<g id="edge40" class="edge"><title>Node14&#45;&gt;Node15</title>
<path fill="none" stroke="midnightblue" d="M299.959,-217.861C252.82,-207.339 190.215,-193.164 135,-180 132.117,-179.313 129.171,-178.604 126.197,-177.882"/>
<polygon fill="midnightblue" stroke="midnightblue" points="299.252,-221.29 309.774,-220.05 300.776,-214.457 299.252,-221.29"/>
</g>
<!-- Node17 -->
<g id="node41" class="node"><title>Node17</title>
<a xlink:href="mmu__cache__base_8cpp.html" target="_top" xlink:title="core/models/mmu_cache\l/lib/mmu_cache_base.cpp">
<polygon fill="white" stroke="black" points="143.5,-145 143.5,-179 274.5,-179 274.5,-145 143.5,-145"/>
<text text-anchor="start" x="151.5" y="-166" font-family="Helvetica,sans-Serif" font-size="10.00">core/models/mmu_cache</text>
<text text-anchor="middle" x="209" y="-153" font-family="Helvetica,sans-Serif" font-size="10.00">/lib/mmu_cache_base.cpp</text>
</a>
</g>
<!-- Node14&#45;&gt;Node17 -->
<g id="edge48" class="edge"><title>Node14&#45;&gt;Node17</title>
<path fill="none" stroke="midnightblue" d="M324.668,-212.781C300.19,-202.035 270.867,-189.161 247.871,-179.065"/>
<polygon fill="midnightblue" stroke="midnightblue" points="323.571,-216.122 334.134,-216.937 326.385,-209.712 323.571,-216.122"/>
</g>
<!-- Node15&#45;&gt;Node5 -->
<g id="edge44" class="edge"><title>Node15&#45;&gt;Node5</title>
<path fill="none" stroke="midnightblue" d="M132.747,-142.151C174.33,-130.317 226.234,-115.546 264.177,-104.748"/>
<polygon fill="midnightblue" stroke="midnightblue" points="131.618,-138.833 122.957,-144.937 133.534,-145.566 131.618,-138.833"/>
</g>
<!-- Node15&#45;&gt;Node6 -->
<g id="edge46" class="edge"><title>Node15&#45;&gt;Node6</title>
<path fill="none" stroke="midnightblue" d="M136.136,-143.991C366.937,-108.582 430.856,-142.14 658,-108 660.715,-107.592 663.476,-107.138 666.259,-106.647"/>
<polygon fill="midnightblue" stroke="midnightblue" points="135.427,-140.56 126.087,-145.56 136.507,-147.476 135.427,-140.56"/>
</g>
<!-- Node16 -->
<g id="node37" class="node"><title>Node16</title>
<a xlink:href="mmu__cache_8cpp.html" target="_top" xlink:title="core/models/mmu_cache\l/lib/mmu_cache.cpp">
<polygon fill="white" stroke="black" points="0,-73 0,-107 126,-107 126,-73 0,-73"/>
<text text-anchor="start" x="8" y="-94" font-family="Helvetica,sans-Serif" font-size="10.00">core/models/mmu_cache</text>
<text text-anchor="middle" x="63" y="-81" font-family="Helvetica,sans-Serif" font-size="10.00">/lib/mmu_cache.cpp</text>
</a>
</g>
<!-- Node15&#45;&gt;Node16 -->
<g id="edge42" class="edge"><title>Node15&#45;&gt;Node16</title>
<path fill="none" stroke="midnightblue" d="M63,-134.719C63,-125.572 63,-115.625 63,-107.441"/>
<polygon fill="midnightblue" stroke="midnightblue" points="59.5001,-134.937 63,-144.937 66.5001,-134.937 59.5001,-134.937"/>
</g>
<!-- Node18&#45;&gt;Node19 -->
<g id="edge54" class="edge"><title>Node18&#45;&gt;Node19</title>
<path fill="none" stroke="midnightblue" d="M1068.86,-281.822C1057.18,-272.334 1042.72,-260.587 1031.06,-251.11"/>
<polygon fill="midnightblue" stroke="midnightblue" points="1066.82,-284.677 1076.79,-288.267 1071.24,-279.244 1066.82,-284.677"/>
</g>
<!-- Node18&#45;&gt;Node21 -->
<g id="edge62" class="edge"><title>Node18&#45;&gt;Node21</title>
<path fill="none" stroke="midnightblue" d="M1139.33,-285.764C1174.18,-276.392 1221.97,-263.496 1264,-252 1268.52,-250.764 1273.21,-249.475 1277.91,-248.18"/>
<polygon fill="midnightblue" stroke="midnightblue" points="1138.16,-282.455 1129.41,-288.431 1139.98,-289.215 1138.16,-282.455"/>
</g>
<!-- Node18&#45;&gt;Node23 -->
<g id="edge66" class="edge"><title>Node18&#45;&gt;Node23</title>
<path fill="none" stroke="midnightblue" d="M1111.14,-281.822C1122.82,-272.334 1137.28,-260.587 1148.94,-251.11"/>
<polygon fill="midnightblue" stroke="midnightblue" points="1108.76,-279.244 1103.21,-288.267 1113.18,-284.677 1108.76,-279.244"/>
</g>
<!-- Node25 -->
<g id="node62" class="node"><title>Node25</title>
<a xlink:href="apbctrl_8h.html" target="_top" xlink:title="core/models/apbctrl\l/apbctrl.h">
<polygon fill="white" stroke="black" points="752,-217 752,-251 854,-251 854,-217 752,-217"/>
<text text-anchor="start" x="760" y="-238" font-family="Helvetica,sans-Serif" font-size="10.00">core/models/apbctrl</text>
<text text-anchor="middle" x="803" y="-225" font-family="Helvetica,sans-Serif" font-size="10.00">/apbctrl.h</text>
</a>
</g>
<!-- Node18&#45;&gt;Node25 -->
<g id="edge74" class="edge"><title>Node18&#45;&gt;Node25</title>
<path fill="none" stroke="midnightblue" d="M1033.81,-286.274C981.661,-274.463 904.697,-257.032 854.208,-245.598"/>
<polygon fill="midnightblue" stroke="midnightblue" points="1033.04,-289.689 1043.57,-288.484 1034.59,-282.862 1033.04,-289.689"/>
</g>
<!-- Node27 -->
<g id="node69" class="node"><title>Node27</title>
<a xlink:href="mctrl_8h.html" target="_top" xlink:title="core/models/mctrl/mctrl.h">
<polygon fill="white" stroke="black" points="1498,-151.5 1498,-172.5 1626,-172.5 1626,-151.5 1498,-151.5"/>
<text text-anchor="middle" x="1562" y="-159.5" font-family="Helvetica,sans-Serif" font-size="10.00">core/models/mctrl/mctrl.h</text>
</a>
</g>
<!-- Node18&#45;&gt;Node27 -->
<g id="edge84" class="edge"><title>Node18&#45;&gt;Node27</title>
<path fill="none" stroke="midnightblue" d="M1148.16,-285.785C1174.6,-278.26 1205.59,-267.235 1231,-252 1250.95,-240.038 1248.16,-226.334 1269,-216 1357.77,-171.989 1391.94,-199.876 1489,-180 1499.61,-177.827 1511.02,-175.17 1521.59,-172.573"/>
<polygon fill="midnightblue" stroke="midnightblue" points="1146.98,-282.478 1138.27,-288.499 1148.84,-289.228 1146.98,-282.478"/>
</g>
<!-- Node19&#45;&gt;Node6 -->
<g id="edge60" class="edge"><title>Node19&#45;&gt;Node6</title>
<path fill="none" stroke="midnightblue" d="M1011.61,-206.772C1011.25,-186.741 1007.27,-160.271 991,-144 965.102,-118.107 870.261,-103.408 803.604,-96.075"/>
<polygon fill="midnightblue" stroke="midnightblue" points="1008.11,-206.817 1011.51,-216.852 1015.11,-206.889 1008.11,-206.817"/>
</g>
<!-- Node19&#45;&gt;Node8 -->
<g id="edge58" class="edge"><title>Node19&#45;&gt;Node8</title>
<path fill="none" stroke="midnightblue" d="M1075.21,-221.763C1156.28,-206.476 1284.31,-182.059 1286,-180 1302.82,-159.569 1294.82,-126.891 1287.44,-107.039"/>
<polygon fill="midnightblue" stroke="midnightblue" points="1074.26,-218.381 1065.08,-223.672 1075.56,-225.259 1074.26,-218.381"/>
</g>
<!-- Node20 -->
<g id="node48" class="node"><title>Node20</title>
<a xlink:href="ahbmem_8cpp.html" target="_top" xlink:title="core/models/ahbmem\l/ahbmem.cpp">
<polygon fill="white" stroke="black" points="872,-145 872,-179 982,-179 982,-145 872,-145"/>
<text text-anchor="start" x="880" y="-166" font-family="Helvetica,sans-Serif" font-size="10.00">core/models/ahbmem</text>
<text text-anchor="middle" x="927" y="-153" font-family="Helvetica,sans-Serif" font-size="10.00">/ahbmem.cpp</text>
</a>
</g>
<!-- Node19&#45;&gt;Node20 -->
<g id="edge56" class="edge"><title>Node19&#45;&gt;Node20</title>
<path fill="none" stroke="midnightblue" d="M982.565,-210.201C970.882,-200.067 957.513,-188.469 946.816,-179.19"/>
<polygon fill="midnightblue" stroke="midnightblue" points="980.483,-213.028 990.33,-216.937 985.07,-207.74 980.483,-213.028"/>
</g>
<!-- Node22 -->
<g id="node54" class="node"><title>Node22</title>
<a xlink:href="ahbout_8cpp.html" target="_top" xlink:title="core/models/ahbout\l/ahbout.cpp">
<polygon fill="white" stroke="black" points="1644,-145 1644,-179 1746,-179 1746,-145 1644,-145"/>
<text text-anchor="start" x="1652" y="-166" font-family="Helvetica,sans-Serif" font-size="10.00">core/models/ahbout</text>
<text text-anchor="middle" x="1695" y="-153" font-family="Helvetica,sans-Serif" font-size="10.00">/ahbout.cpp</text>
</a>
</g>
<!-- Node21&#45;&gt;Node22 -->
<g id="edge64" class="edge"><title>Node21&#45;&gt;Node22</title>
<path fill="none" stroke="midnightblue" d="M1390.29,-225.339C1452.38,-216.063 1550.97,-199.946 1635,-180 1637.86,-179.322 1640.78,-178.586 1643.72,-177.814"/>
<polygon fill="midnightblue" stroke="midnightblue" points="1389.65,-221.896 1380.27,-226.825 1390.67,-228.821 1389.65,-221.896"/>
</g>
<!-- Node23&#45;&gt;Node6 -->
<g id="edge72" class="edge"><title>Node23&#45;&gt;Node6</title>
<path fill="none" stroke="midnightblue" d="M1126.05,-212.35C1107.55,-202.884 1085.97,-191.362 1067,-180 1042.57,-165.365 1040.29,-154.929 1014,-144 945.663,-115.596 861.622,-101.939 803.741,-95.4982"/>
<polygon fill="midnightblue" stroke="midnightblue" points="1124.63,-215.555 1135.13,-216.962 1127.8,-209.313 1124.63,-215.555"/>
</g>
<!-- Node23&#45;&gt;Node8 -->
<g id="edge70" class="edge"><title>Node23&#45;&gt;Node8</title>
<path fill="none" stroke="midnightblue" d="M1232.31,-215.879C1272.47,-203.574 1318.25,-188.114 1324,-180 1340.6,-156.59 1317.52,-125.969 1299.02,-107.158"/>
<polygon fill="midnightblue" stroke="midnightblue" points="1231.07,-212.599 1222.51,-218.853 1233.1,-219.297 1231.07,-212.599"/>
</g>
<!-- Node24 -->
<g id="node58" class="node"><title>Node24</title>
<a xlink:href="ahbprof_8cpp.html" target="_top" xlink:title="core/models/ahbprof\l/ahbprof.cpp">
<polygon fill="white" stroke="black" points="1375.5,-145 1375.5,-179 1480.5,-179 1480.5,-145 1375.5,-145"/>
<text text-anchor="start" x="1383.5" y="-166" font-family="Helvetica,sans-Serif" font-size="10.00">core/models/ahbprof</text>
<text text-anchor="middle" x="1428" y="-153" font-family="Helvetica,sans-Serif" font-size="10.00">/ahbprof.cpp</text>
</a>
</g>
<!-- Node23&#45;&gt;Node24 -->
<g id="edge68" class="edge"><title>Node23&#45;&gt;Node24</title>
<path fill="none" stroke="midnightblue" d="M1232.18,-216.649C1275.85,-204.46 1333.65,-188.331 1375.11,-176.76"/>
<polygon fill="midnightblue" stroke="midnightblue" points="1231.21,-213.284 1222.52,-219.343 1233.09,-220.026 1231.21,-213.284"/>
</g>
<!-- Node25&#45;&gt;Node4 -->
<g id="edge78" class="edge"><title>Node25&#45;&gt;Node4</title>
<path fill="none" stroke="midnightblue" d="M741.898,-224.047C684.915,-214.333 597.719,-198.363 523,-180 520.254,-179.325 517.447,-178.602 514.62,-177.847"/>
<polygon fill="midnightblue" stroke="midnightblue" points="741.382,-227.509 751.826,-225.728 742.551,-220.607 741.382,-227.509"/>
</g>
<!-- Node25&#45;&gt;Node6 -->
<g id="edge82" class="edge"><title>Node25&#45;&gt;Node6</title>
<path fill="none" stroke="midnightblue" d="M768.369,-210.625C758.52,-202.173 748.881,-191.772 743,-180 731.432,-156.846 731.453,-126.151 732.929,-107.255"/>
<polygon fill="midnightblue" stroke="midnightblue" points="766.263,-213.423 776.245,-216.975 770.657,-207.974 766.263,-213.423"/>
</g>
<!-- Node25&#45;&gt;Node8 -->
<g id="edge80" class="edge"><title>Node25&#45;&gt;Node8</title>
<path fill="none" stroke="midnightblue" d="M864.461,-226.174C889.718,-222.981 919.26,-219.277 946,-216 1013.08,-207.78 1195.19,-222.177 1248,-180 1270.16,-162.304 1276.99,-128.092 1279.09,-107.324"/>
<polygon fill="midnightblue" stroke="midnightblue" points="863.765,-222.734 854.284,-227.462 864.644,-229.678 863.765,-222.734"/>
</g>
<!-- Node26 -->
<g id="node64" class="node"><title>Node26</title>
<a xlink:href="apbctrl_8cpp.html" target="_top" xlink:title="core/models/apbctrl\l/apbctrl.cpp">
<polygon fill="white" stroke="black" points="752,-145 752,-179 854,-179 854,-145 752,-145"/>
<text text-anchor="start" x="760" y="-166" font-family="Helvetica,sans-Serif" font-size="10.00">core/models/apbctrl</text>
<text text-anchor="middle" x="803" y="-153" font-family="Helvetica,sans-Serif" font-size="10.00">/apbctrl.cpp</text>
</a>
</g>
<!-- Node25&#45;&gt;Node26 -->
<g id="edge76" class="edge"><title>Node25&#45;&gt;Node26</title>
<path fill="none" stroke="midnightblue" d="M803,-206.719C803,-197.572 803,-187.625 803,-179.441"/>
<polygon fill="midnightblue" stroke="midnightblue" points="799.5,-206.937 803,-216.937 806.5,-206.937 799.5,-206.937"/>
</g>
<!-- Node27&#45;&gt;Node6 -->
<g id="edge90" class="edge"><title>Node27&#45;&gt;Node6</title>
<path fill="none" stroke="midnightblue" d="M1514.6,-149.074C1506.13,-147.118 1497.34,-145.317 1489,-144 1422.4,-133.483 976.861,-105.054 803.672,-94.2472"/>
<polygon fill="midnightblue" stroke="midnightblue" points="1513.82,-152.486 1524.36,-151.421 1515.46,-145.68 1513.82,-152.486"/>
</g>
<!-- Node27&#45;&gt;Node8 -->
<g id="edge88" class="edge"><title>Node27&#45;&gt;Node8</title>
<path fill="none" stroke="midnightblue" d="M1510.79,-148.924C1462.59,-136.618 1390.41,-118.19 1339.64,-105.227"/>
<polygon fill="midnightblue" stroke="midnightblue" points="1510.14,-152.371 1520.69,-151.453 1511.87,-145.588 1510.14,-152.371"/>
</g>
<!-- Node28 -->
<g id="node71" class="node"><title>Node28</title>
<a xlink:href="mctrl_8cpp.html" target="_top" xlink:title="core/models/mctrl/mctrl.cpp">
<polygon fill="white" stroke="black" points="1493,-79.5 1493,-100.5 1631,-100.5 1631,-79.5 1493,-79.5"/>
<text text-anchor="middle" x="1562" y="-87.5" font-family="Helvetica,sans-Serif" font-size="10.00">core/models/mctrl/mctrl.cpp</text>
</a>
</g>
<!-- Node27&#45;&gt;Node28 -->
<g id="edge86" class="edge"><title>Node27&#45;&gt;Node28</title>
<path fill="none" stroke="midnightblue" d="M1562,-141.235C1562,-127.969 1562,-111.319 1562,-100.667"/>
<polygon fill="midnightblue" stroke="midnightblue" points="1558.5,-141.376 1562,-151.376 1565.5,-141.376 1558.5,-141.376"/>
</g>
</g>
</svg>
        <g id="navigator" transform="translate(0 0)" fill="#404254">
                <rect fill="#f2f5e9" fill-opacity="0.5" stroke="#606060" stroke-width=".5" x="0" y="0" width="60" height="60"/>
                <use id="zoomplus" xlink:href="#zoomPlus" x="17" y="9" onmousedown="handleZoom(evt,'in')"/>
                <use id="zoomminus" xlink:href="#zoomMin" x="42" y="9" onmousedown="handleZoom(evt,'out')"/>
                <use id="reset" xlink:href="#resetDef" x="30" y="36" onmousedown="handleReset()"/>
                <g id="arrowUp" xlink:href="#dirArrow" transform="translate(30 24)" onmousedown="handlePan(0,-1)">
                  <use xlink:href="#rim" fill="#404040">
                        <set attributeName="fill" to="#808080" begin="arrowUp.mouseover" end="arrowUp.mouseout"/>
                  </use>
                  <path fill="none" stroke="white" stroke-width="1.5" d="M0,-3.0v7 M-2.5,-0.5L0,-3.0L2.5,-0.5"/>
                </g>
                <g id="arrowRight" xlink:href="#dirArrow" transform="rotate(90) translate(36 -43)" onmousedown="handlePan(1,0)">
                  <use xlink:href="#rim" fill="#404040">
                        <set attributeName="fill" to="#808080" begin="arrowRight.mouseover" end="arrowRight.mouseout"/>
                  </use>
                  <path fill="none" stroke="white" stroke-width="1.5" d="M0,-3.0v7 M-2.5,-0.5L0,-3.0L2.5,-0.5"/>
                </g>
                <g id="arrowDown" xlink:href="#dirArrow" transform="rotate(180) translate(-30 -48)" onmousedown="handlePan(0,1)">
                  <use xlink:href="#rim" fill="#404040">
                        <set attributeName="fill" to="#808080" begin="arrowDown.mouseover" end="arrowDown.mouseout"/>
                  </use>
                  <path fill="none" stroke="white" stroke-width="1.5" d="M0,-3.0v7 M-2.5,-0.5L0,-3.0L2.5,-0.5"/>
                </g>
                <g id="arrowLeft" xlink:href="#dirArrow" transform="rotate(270) translate(-36 17)" onmousedown="handlePan(-1,0)">
                  <use xlink:href="#rim" fill="#404040">
                        <set attributeName="fill" to="#808080" begin="arrowLeft.mouseover" end="arrowLeft.mouseout"/>
                  </use>
                  <path fill="none" stroke="white" stroke-width="1.5" d="M0,-3.0v7 M-2.5,-0.5L0,-3.0L2.5,-0.5"/>
                </g>
        </g>
        <svg viewBox="0 0 15 15" width="100%" height="30px" preserveAspectRatio="xMaxYMin meet">
         <g id="arrow_out" transform="scale(0.3 0.3)">
          <a xlink:href="msclogger_8h__dep__incl_org.svg" target="_base">
           <rect id="button" ry="5" rx="5" y="6" x="6" height="38" width="38"
                fill="#f2f5e9" fill-opacity="0.5" stroke="#606060" stroke-width="1.0"/>
           <path id="arrow"
             d="M 11.500037,31.436501 C 11.940474,20.09759 22.043105,11.32322 32.158766,21.979434 L 37.068811,17.246167 C 37.068811,17.246167 37.088388,32 37.088388,32 L 22.160133,31.978069 C 22.160133,31.978069 26.997745,27.140456 26.997745,27.140456 C 18.528582,18.264221 13.291696,25.230495 11.500037,31.436501 z"
             style="fill:#404040;"/>
          </a>
         </g>
        </svg>
</svg>
