<?xml version="1.0" encoding="UTF-8" standalone="no"?>
<!DOCTYPE svg PUBLIC "-//W3C//DTD SVG 1.1//EN"
 "http://www.w3.org/Graphics/SVG/1.1/DTD/svg11.dtd">
<!-- Generated by graphviz version 2.26.0 (20091210.2329)
 -->
<!-- Title: core.waf.common.dep_fetch Pages: 1 -->
<svg width="406pt" height="110pt"
 viewBox="0.00 0.00 406.00 110.00" xmlns="http://www.w3.org/2000/svg" xmlns:xlink="http://www.w3.org/1999/xlink">
<g id="graph1" class="graph" transform="scale(1 1) rotate(0) translate(4 106)">
<title>core.waf.common.dep_fetch</title>
<polygon fill="white" stroke="white" points="-4,5 -4,-106 403,-106 403,5 -4,5"/>
<!-- Node1 -->
<g id="node1" class="node"><title>Node1</title>
<polygon fill="#bfbfbf" stroke="black" points="0.5,-34 0.5,-68 113.5,-68 113.5,-34 0.5,-34"/>
<text text-anchor="start" x="8.5" y="-55" font-family="Helvetica,sans-Serif" font-size="10.00">core.waf.common.dep</text>
<text text-anchor="middle" x="57" y="-42" font-family="Helvetica,sans-Serif" font-size="10.00">_fetch</text>
</g>
<!-- Node2 -->
<g id="node3" class="node"><title>Node2</title>
<a xlink:href="namespacecore_1_1waf_1_1common.html#a7d407cdab7ffcfe5e0b2f72f6abc4269" target="_top" xlink:title="core.waf.common.base">
<polygon fill="white" stroke="black" points="150.5,-80.5 150.5,-101.5 269.5,-101.5 269.5,-80.5 150.5,-80.5"/>
<text text-anchor="middle" x="210" y="-88.5" font-family="Helvetica,sans-Serif" font-size="10.00">core.waf.common.base</text>
</a>
</g>
<!-- Node1&#45;&gt;Node2 -->
<g id="edge2" class="edge"><title>Node1&#45;&gt;Node2</title>
<path fill="none" stroke="midnightblue" d="M113.537,-65.7809C128.615,-69.7228 144.805,-73.9555 159.533,-77.8061"/>
<polygon fill="midnightblue" stroke="midnightblue" points="158.905,-81.2593 169.465,-80.4025 160.675,-74.4869 158.905,-81.2593"/>
</g>
<!-- Node3 -->
<g id="node5" class="node"><title>Node3</title>
<a xlink:href="namespacecore_1_1waf_1_1common.html#a616112ced1eeab90fea069257e719894" target="_top" xlink:title="core.waf.common.conf">
<polygon fill="white" stroke="black" points="152,-40.5 152,-61.5 268,-61.5 268,-40.5 152,-40.5"/>
<text text-anchor="middle" x="210" y="-48.5" font-family="Helvetica,sans-Serif" font-size="10.00">core.waf.common.conf</text>
</a>
</g>
<!-- Node1&#45;&gt;Node3 -->
<g id="edge4" class="edge"><title>Node1&#45;&gt;Node3</title>
<path fill="none" stroke="midnightblue" d="M113.537,-51C122.726,-51 132.329,-51 141.762,-51"/>
<polygon fill="midnightblue" stroke="midnightblue" points="141.904,-54.5001 151.904,-51 141.904,-47.5001 141.904,-54.5001"/>
</g>
<!-- Node5 -->
<g id="node9" class="node"><title>Node5</title>
<a xlink:href="namespacecore_1_1waf_1_1common.html#acc1ca624164362e3245d4b22db2b1124" target="_top" xlink:title="core.waf.common.fetch">
<polygon fill="white" stroke="black" points="150.5,-0.5 150.5,-21.5 269.5,-21.5 269.5,-0.5 150.5,-0.5"/>
<text text-anchor="middle" x="210" y="-8.5" font-family="Helvetica,sans-Serif" font-size="10.00">core.waf.common.fetch</text>
</a>
</g>
<!-- Node1&#45;&gt;Node5 -->
<g id="edge8" class="edge"><title>Node1&#45;&gt;Node5</title>
<path fill="none" stroke="midnightblue" d="M113.537,-36.2191C128.615,-32.2772 144.805,-28.0445 159.533,-24.1939"/>
<polygon fill="midnightblue" stroke="midnightblue" points="160.675,-27.5131 169.465,-21.5975 158.905,-20.7407 160.675,-27.5131"/>
</g>
<!-- Node4 -->
<g id="node7" class="node"><title>Node4</title>
<a xlink:href="namespacecore_1_1waf_1_1cmake.html#a2cc9c2d5713380ebb07751a69eeb9bc6" target="_top" xlink:title="core.waf.cmake.f">
<polygon fill="white" stroke="black" points="306,-40.5 306,-61.5 398,-61.5 398,-40.5 306,-40.5"/>
<text text-anchor="middle" x="352" y="-48.5" font-family="Helvetica,sans-Serif" font-size="10.00">core.waf.cmake.f</text>
</a>
</g>
<!-- Node3&#45;&gt;Node4 -->
<g id="edge6" class="edge"><title>Node3&#45;&gt;Node4</title>
<path fill="none" stroke="midnightblue" d="M268.167,-51C277.293,-51 286.712,-51 295.793,-51"/>
<polygon fill="midnightblue" stroke="midnightblue" points="295.869,-54.5001 305.869,-51 295.869,-47.5001 295.869,-54.5001"/>
</g>
</g>
</svg>
