<?xml version="1.0" encoding="UTF-8" standalone="no"?>
<!DOCTYPE svg PUBLIC "-//W3C//DTD SVG 1.1//EN"
 "http://www.w3.org/Graphics/SVG/1.1/DTD/svg11.dtd">
<!-- Generated by graphviz version 2.38.0 (20140413.2041)
 -->
<!-- Title: core.tools.cpplint.RemoveMultiLineComments Pages: 1 -->
<svg width="400pt" height="131pt"
 viewBox="0.00 0.00 400.34 131.00" xmlns="http://www.w3.org/2000/svg" xmlns:xlink="http://www.w3.org/1999/xlink">
<g id="graph0" class="graph" transform="scale(1 1) rotate(0) translate(4 127)">
<title>core.tools.cpplint.RemoveMultiLineComments</title>
<polygon fill="white" stroke="none" points="-4,4 -4,-127 396.339,-127 396.339,4 -4,4"/>
<!-- Node1 -->
<g id="node1" class="node"><title>Node1</title>
<polygon fill="#bfbfbf" stroke="black" points="0,-47.5 0,-75.5 131.054,-75.5 131.054,-47.5 0,-47.5"/>
<text text-anchor="start" x="8" y="-63.5" font-family="Helvetica,sans-Serif" font-size="10.00">core.tools.cpplint.Remove</text>
<text text-anchor="middle" x="65.5269" y="-53.5" font-family="Helvetica,sans-Serif" font-size="10.00">MultiLineComments</text>
</g>
<!-- Node2 -->
<g id="node2" class="node"><title>Node2</title>
<g id="a_node2"><a xlink:href="namespacecore_1_1tools_1_1cpplint.html#af8afbeaf39eea94a28103f79f7ce498b" target="_top" xlink:title="core.tools.cpplint.FindNext\lMultiLineCommentEnd">
<polygon fill="white" stroke="black" points="178.719,-94.5 178.719,-122.5 312.551,-122.5 312.551,-94.5 178.719,-94.5"/>
<text text-anchor="start" x="186.719" y="-110.5" font-family="Helvetica,sans-Serif" font-size="10.00">core.tools.cpplint.FindNext</text>
<text text-anchor="middle" x="245.635" y="-100.5" font-family="Helvetica,sans-Serif" font-size="10.00">MultiLineCommentEnd</text>
</a>
</g>
</g>
<!-- Node1&#45;&gt;Node2 -->
<g id="edge1" class="edge"><title>Node1&#45;&gt;Node2</title>
<path fill="none" stroke="midnightblue" d="M119.965,-75.6015C139.426,-80.7369 161.603,-86.5892 181.804,-91.9199"/>
<polygon fill="midnightblue" stroke="midnightblue" points="180.979,-95.322 191.541,-94.4894 182.765,-88.5537 180.979,-95.322"/>
</g>
<!-- Node3 -->
<g id="node3" class="node"><title>Node3</title>
<g id="a_node3"><a xlink:href="namespacecore_1_1tools_1_1cpplint.html#a1d2302e9996a552aa6c83bc450d94e88" target="_top" xlink:title="core.tools.cpplint.FindNext\lMultiLineCommentStart">
<polygon fill="white" stroke="black" points="178.719,-47.5 178.719,-75.5 312.551,-75.5 312.551,-47.5 178.719,-47.5"/>
<text text-anchor="start" x="186.719" y="-63.5" font-family="Helvetica,sans-Serif" font-size="10.00">core.tools.cpplint.FindNext</text>
<text text-anchor="middle" x="245.635" y="-53.5" font-family="Helvetica,sans-Serif" font-size="10.00">MultiLineCommentStart</text>
</a>
</g>
</g>
<!-- Node1&#45;&gt;Node3 -->
<g id="edge2" class="edge"><title>Node1&#45;&gt;Node3</title>
<path fill="none" stroke="midnightblue" d="M131.08,-61.5C143.135,-61.5 155.84,-61.5 168.213,-61.5"/>
<polygon fill="midnightblue" stroke="midnightblue" points="168.506,-65.0001 178.506,-61.5 168.506,-58.0001 168.506,-65.0001"/>
</g>
<!-- Node5 -->
<g id="node5" class="node"><title>Node5</title>
<g id="a_node5"><a xlink:href="namespacecore_1_1tools_1_1cpplint.html#ad5171ced0cf27fda67ad51d3bc3dc5b0" target="_top" xlink:title="core.tools.cpplint.Remove\lMultiLineCommentsFromRange">
<polygon fill="white" stroke="black" points="167.054,-0.5 167.054,-28.5 324.216,-28.5 324.216,-0.5 167.054,-0.5"/>
<text text-anchor="start" x="175.054" y="-16.5" font-family="Helvetica,sans-Serif" font-size="10.00">core.tools.cpplint.Remove</text>
<text text-anchor="middle" x="245.635" y="-6.5" font-family="Helvetica,sans-Serif" font-size="10.00">MultiLineCommentsFromRange</text>
</a>
</g>
</g>
<!-- Node1&#45;&gt;Node5 -->
<g id="edge4" class="edge"><title>Node1&#45;&gt;Node5</title>
<path fill="none" stroke="midnightblue" d="M119.965,-47.3985C139.426,-42.2631 161.603,-36.4108 181.804,-31.0801"/>
<polygon fill="midnightblue" stroke="midnightblue" points="182.765,-34.4463 191.541,-28.5106 180.979,-27.678 182.765,-34.4463"/>
</g>
<!-- Node4 -->
<g id="node4" class="node"><title>Node4</title>
<g id="a_node4"><a xlink:href="io__less_2queens_8c.html#a7f56768641bb4ced349493752655eb74" target="_top" xlink:title="find">
<polygon fill="white" stroke="black" points="360.216,-52.5 360.216,-70.5 392.339,-70.5 392.339,-52.5 360.216,-52.5"/>
<text text-anchor="middle" x="376.277" y="-58.5" font-family="Helvetica,sans-Serif" font-size="10.00">find</text>
</a>
</g>
</g>
<!-- Node3&#45;&gt;Node4 -->
<g id="edge3" class="edge"><title>Node3&#45;&gt;Node4</title>
<path fill="none" stroke="midnightblue" d="M312.84,-61.5C325.999,-61.5 339.053,-61.5 349.796,-61.5"/>
<polygon fill="midnightblue" stroke="midnightblue" points="350.063,-65.0001 360.063,-61.5 350.063,-58.0001 350.063,-65.0001"/>
</g>
</g>
</svg>
