<?xml version="1.0" encoding="UTF-8" standalone="no"?>
<!DOCTYPE svg PUBLIC "-//W3C//DTD SVG 1.1//EN"
 "http://www.w3.org/Graphics/SVG/1.1/DTD/svg11.dtd">
<!-- Generated by graphviz version 2.38.0 (20140413.2041)
 -->
<!-- Title: usi.tools.elf.load_elf_intrinsics_to_processor Pages: 1 -->
<svg width="276pt" height="66pt"
 viewBox="0.00 0.00 276.00 66.00" xmlns="http://www.w3.org/2000/svg" xmlns:xlink="http://www.w3.org/1999/xlink">
<g id="graph0" class="graph" transform="scale(1 1) rotate(0) translate(4 62)">
<title>usi.tools.elf.load_elf_intrinsics_to_processor</title>
<polygon fill="white" stroke="none" points="-4,4 -4,-62 272,-62 272,4 -4,4"/>
<!-- Node1 -->
<g id="node1" class="node"><title>Node1</title>
<polygon fill="#bfbfbf" stroke="black" points="0,-14 0,-44 138,-44 138,-14 0,-14"/>
<text text-anchor="start" x="8" y="-32" font-family="Helvetica,sans-Serif" font-size="10.00">usi.tools.elf.load</text>
<text text-anchor="middle" x="69" y="-21" font-family="Helvetica,sans-Serif" font-size="10.00">_elf_intrinsics_to_processor</text>
</g>
<!-- Node2 -->
<g id="node2" class="node"><title>Node2</title>
<g id="a_node2"><a xlink:href="namespacepysc_1_1api_1_1cci.html#aa7cca9d71501549a754abc67a861a11a" target="_top" xlink:title="pysc::api::cci::list">
<polygon fill="white" stroke="black" points="174,-38.5 174,-57.5 268,-57.5 268,-38.5 174,-38.5"/>
<text text-anchor="middle" x="221" y="-45.5" font-family="Helvetica,sans-Serif" font-size="10.00">pysc::api::cci::list</text>
</a>
</g>
</g>
<!-- Node1&#45;&gt;Node2 -->
<g id="edge1" class="edge"><title>Node1&#45;&gt;Node2</title>
<path fill="none" stroke="midnightblue" d="M138.416,-37.666C146.782,-38.7258 155.259,-39.7995 163.425,-40.8339"/>
<polygon fill="midnightblue" stroke="midnightblue" points="163.211,-44.3346 173.571,-42.119 164.09,-37.39 163.211,-44.3346"/>
</g>
<!-- Node3 -->
<g id="node3" class="node"><title>Node3</title>
<g id="a_node3"><a xlink:href="namespaceusi.html#ab17dcbaca4eb938e35fdfa1a02cc3a4a" target="_top" xlink:title="usi.on">
<polygon fill="white" stroke="black" points="199.5,-0.5 199.5,-19.5 242.5,-19.5 242.5,-0.5 199.5,-0.5"/>
<text text-anchor="middle" x="221" y="-7.5" font-family="Helvetica,sans-Serif" font-size="10.00">usi.on</text>
</a>
</g>
</g>
<!-- Node1&#45;&gt;Node3 -->
<g id="edge2" class="edge"><title>Node1&#45;&gt;Node3</title>
<path fill="none" stroke="midnightblue" d="M138.416,-20.334C156.198,-18.0816 174.478,-15.7661 189.215,-13.8994"/>
<polygon fill="midnightblue" stroke="midnightblue" points="189.782,-17.3557 199.263,-12.6267 188.902,-10.4112 189.782,-17.3557"/>
</g>
</g>
</svg>
