<?xml version="1.0" encoding="UTF-8" standalone="no"?>
<!DOCTYPE svg PUBLIC "-//W3C//DTD SVG 1.1//EN"
 "http://www.w3.org/Graphics/SVG/1.1/DTD/svg11.dtd">
<!-- Generated by graphviz version 2.38.0 (20140413.2041)
 -->
<!-- Title: filterprocessor.main Pages: 1 -->
<svg width="309pt" height="78pt"
 viewBox="0.00 0.00 309.00 77.50" xmlns="http://www.w3.org/2000/svg" xmlns:xlink="http://www.w3.org/1999/xlink">
<g id="graph0" class="graph" transform="scale(1 1) rotate(0) translate(4 73.5)">
<title>filterprocessor.main</title>
<polygon fill="white" stroke="none" points="-4,4 -4,-73.5 305,-73.5 305,4 -4,4"/>
<!-- Node1 -->
<g id="node1" class="node"><title>Node1</title>
<polygon fill="#bfbfbf" stroke="black" points="0,-22.5 0,-41.5 102,-41.5 102,-22.5 0,-22.5"/>
<text text-anchor="middle" x="51" y="-29.5" font-family="Helvetica,sans-Serif" font-size="10.00">filterprocessor.main</text>
</g>
<!-- Node2 -->
<g id="node2" class="node"><title>Node2</title>
<g id="a_node2"><a xlink:href="namespacedoxygen__preprocessor.html#a7deaf38424a3580d894297d6acd5de4c" target="_top" xlink:title="doxygen_preprocessor.Command\lLineHandler">
<polygon fill="white" stroke="black" points="138,-39 138,-69 301,-69 301,-39 138,-39"/>
<text text-anchor="start" x="146" y="-57" font-family="Helvetica,sans-Serif" font-size="10.00">doxygen_preprocessor.Command</text>
<text text-anchor="middle" x="219.5" y="-46" font-family="Helvetica,sans-Serif" font-size="10.00">LineHandler</text>
</a>
</g>
</g>
<!-- Node1&#45;&gt;Node2 -->
<g id="edge1" class="edge"><title>Node1&#45;&gt;Node2</title>
<path fill="none" stroke="midnightblue" d="M102.407,-38.6604C110.456,-39.7239 118.993,-40.8519 127.64,-41.9945"/>
<polygon fill="midnightblue" stroke="midnightblue" points="127.447,-45.4993 137.819,-43.3395 128.364,-38.5596 127.447,-45.4993"/>
</g>
<!-- Node3 -->
<g id="node3" class="node"><title>Node3</title>
<g id="a_node3"><a xlink:href="namespacefilterprocessor.html#a23f478f7f6c6f79c80746c0729bd219e" target="_top" xlink:title="filterprocessor.FilterFiles">
<polygon fill="white" stroke="black" points="157.5,-0.5 157.5,-19.5 281.5,-19.5 281.5,-0.5 157.5,-0.5"/>
<text text-anchor="middle" x="219.5" y="-7.5" font-family="Helvetica,sans-Serif" font-size="10.00">filterprocessor.FilterFiles</text>
</a>
</g>
</g>
<!-- Node1&#45;&gt;Node3 -->
<g id="edge2" class="edge"><title>Node1&#45;&gt;Node3</title>
<path fill="none" stroke="midnightblue" d="M102.407,-25.3396C116.483,-23.4797 132.051,-21.4227 147.092,-19.4353"/>
<polygon fill="midnightblue" stroke="midnightblue" points="147.941,-22.8536 157.396,-18.0738 147.024,-15.9139 147.941,-22.8536"/>
</g>
</g>
</svg>
