<?xml version="1.0" encoding="UTF-8" standalone="no"?>
<!DOCTYPE svg PUBLIC "-//W3C//DTD SVG 1.1//EN"
 "http://www.w3.org/Graphics/SVG/1.1/DTD/svg11.dtd">
<!-- Generated by graphviz version 2.38.0 (20140413.2041)
 -->
<!-- Title: enhancedtable.ProcessTable Pages: 1 -->
<svg width="755pt" height="121pt"
 viewBox="0.00 0.00 755.30 121.00" xmlns="http://www.w3.org/2000/svg" xmlns:xlink="http://www.w3.org/1999/xlink">
<g id="graph0" class="graph" transform="scale(1 1) rotate(0) translate(4 117)">
<title>enhancedtable.ProcessTable</title>
<polygon fill="white" stroke="none" points="-4,4 -4,-117 751.298,-117 751.298,4 -4,4"/>
<!-- Node1 -->
<g id="node1" class="node"><title>Node1</title>
<polygon fill="#bfbfbf" stroke="black" points="0,-44.5 0,-62.5 144.423,-62.5 144.423,-44.5 0,-44.5"/>
<text text-anchor="middle" x="72.2114" y="-50.5" font-family="Helvetica,sans-Serif" font-size="10.00">enhancedtable.ProcessTable</text>
</g>
<!-- Node2 -->
<g id="node2" class="node"><title>Node2</title>
<g id="a_node2"><a xlink:href="namespacedoxycomment.html#ab278ae1802f96613f914f3f823da5839" target="_top" xlink:title="doxycomment.BlockHandler">
<polygon fill="white" stroke="black" points="180.423,-44.5 180.423,-62.5 320.92,-62.5 320.92,-44.5 180.423,-44.5"/>
<text text-anchor="middle" x="250.671" y="-50.5" font-family="Helvetica,sans-Serif" font-size="10.00">doxycomment.BlockHandler</text>
</a>
</g>
</g>
<!-- Node1&#45;&gt;Node2 -->
<g id="edge1" class="edge"><title>Node1&#45;&gt;Node2</title>
<path fill="none" stroke="midnightblue" d="M144.476,-53.5C152.84,-53.5 161.416,-53.5 169.887,-53.5"/>
<polygon fill="midnightblue" stroke="midnightblue" points="170.146,-57.0001 180.146,-53.5 170.146,-50.0001 170.146,-57.0001"/>
</g>
<!-- Node3 -->
<g id="node3" class="node"><title>Node3</title>
<g id="a_node3"><a xlink:href="namespacedoxygen__preprocessor.html#a7deaf38424a3580d894297d6acd5de4c" target="_top" xlink:title="doxygen_preprocessor.Command\lLineHandler">
<polygon fill="white" stroke="black" points="356.92,-84.5 356.92,-112.5 523.008,-112.5 523.008,-84.5 356.92,-84.5"/>
<text text-anchor="start" x="364.92" y="-100.5" font-family="Helvetica,sans-Serif" font-size="10.00">doxygen_preprocessor.Command</text>
<text text-anchor="middle" x="439.964" y="-90.5" font-family="Helvetica,sans-Serif" font-size="10.00">LineHandler</text>
</a>
</g>
</g>
<!-- Node1&#45;&gt;Node3 -->
<g id="edge6" class="edge"><title>Node1&#45;&gt;Node3</title>
<path fill="none" stroke="midnightblue" d="M119.794,-62.5415C138.577,-65.9815 160.482,-69.7343 180.423,-72.5 235.395,-80.1243 297.24,-86.4251 346.657,-90.9138"/>
<polygon fill="midnightblue" stroke="midnightblue" points="346.414,-94.4059 356.687,-91.8155 347.04,-87.4341 346.414,-94.4059"/>
</g>
<!-- Node7 -->
<g id="node7" class="node"><title>Node7</title>
<g id="a_node7"><a xlink:href="namespacefilterprocessor.html#a23f478f7f6c6f79c80746c0729bd219e" target="_top" xlink:title="filterprocessor.FilterFiles">
<polygon fill="white" stroke="black" points="188.489,-7.5 188.489,-25.5 312.854,-25.5 312.854,-7.5 188.489,-7.5"/>
<text text-anchor="middle" x="250.671" y="-13.5" font-family="Helvetica,sans-Serif" font-size="10.00">filterprocessor.FilterFiles</text>
</a>
</g>
</g>
<!-- Node1&#45;&gt;Node7 -->
<g id="edge7" class="edge"><title>Node1&#45;&gt;Node7</title>
<path fill="none" stroke="midnightblue" d="M116.378,-44.4488C140.609,-39.3682 171.037,-32.9879 196.702,-27.6066"/>
<polygon fill="midnightblue" stroke="midnightblue" points="197.576,-30.9996 206.645,-25.5218 196.139,-24.1486 197.576,-30.9996"/>
</g>
<!-- Node2&#45;&gt;Node3 -->
<g id="edge2" class="edge"><title>Node2&#45;&gt;Node3</title>
<path fill="none" stroke="midnightblue" d="M289.573,-62.6064C312.801,-68.1874 343.224,-75.497 370.55,-82.0624"/>
<polygon fill="midnightblue" stroke="midnightblue" points="369.917,-85.5099 380.458,-84.443 371.552,-78.7036 369.917,-85.5099"/>
</g>
<!-- Node4 -->
<g id="node4" class="node"><title>Node4</title>
<g id="a_node4"><a xlink:href="namespacedoxycomment.html#a577aeea0319393b27b7e196133a5669b" target="_top" xlink:title="doxycomment.ExtractComment\lBlocks">
<polygon fill="white" stroke="black" points="362.22,-37.5 362.22,-65.5 517.708,-65.5 517.708,-37.5 362.22,-37.5"/>
<text text-anchor="start" x="370.22" y="-53.5" font-family="Helvetica,sans-Serif" font-size="10.00">doxycomment.ExtractComment</text>
<text text-anchor="middle" x="439.964" y="-43.5" font-family="Helvetica,sans-Serif" font-size="10.00">Blocks</text>
</a>
</g>
</g>
<!-- Node2&#45;&gt;Node4 -->
<g id="edge3" class="edge"><title>Node2&#45;&gt;Node4</title>
<path fill="none" stroke="midnightblue" d="M321.146,-52.7581C331.14,-52.6514 341.528,-52.5405 351.812,-52.4307"/>
<polygon fill="midnightblue" stroke="midnightblue" points="352.08,-55.9281 362.042,-52.3214 352.005,-48.9285 352.08,-55.9281"/>
</g>
<!-- Node6 -->
<g id="node6" class="node"><title>Node6</title>
<g id="a_node6"><a xlink:href="io__less_2queens_8c.html#a7f56768641bb4ced349493752655eb74" target="_top" xlink:title="find">
<polygon fill="white" stroke="black" points="423.902,-0.5 423.902,-18.5 456.025,-18.5 456.025,-0.5 423.902,-0.5"/>
<text text-anchor="middle" x="439.964" y="-6.5" font-family="Helvetica,sans-Serif" font-size="10.00">find</text>
</a>
</g>
</g>
<!-- Node2&#45;&gt;Node6 -->
<g id="edge5" class="edge"><title>Node2&#45;&gt;Node6</title>
<path fill="none" stroke="midnightblue" d="M287.179,-44.4825C307.556,-39.3693 333.641,-32.928 356.92,-27.5 376.025,-23.0451 397.708,-18.3015 413.983,-14.8029"/>
<polygon fill="midnightblue" stroke="midnightblue" points="414.769,-18.2139 423.816,-12.6991 413.305,-11.3689 414.769,-18.2139"/>
</g>
<!-- Node5 -->
<g id="node5" class="node"><title>Node5</title>
<g id="a_node5"><a xlink:href="namespacedoxycomment.html#abbf439c4e45c5daa6dee4b9594db3d9c" target="_top" xlink:title="doxycomment.FindDoxygenComments">
<polygon fill="white" stroke="black" points="559.008,-42.5 559.008,-60.5 747.298,-60.5 747.298,-42.5 559.008,-42.5"/>
<text text-anchor="middle" x="653.153" y="-48.5" font-family="Helvetica,sans-Serif" font-size="10.00">doxycomment.FindDoxygenComments</text>
</a>
</g>
</g>
<!-- Node4&#45;&gt;Node5 -->
<g id="edge4" class="edge"><title>Node4&#45;&gt;Node5</title>
<path fill="none" stroke="midnightblue" d="M517.805,-51.5C527.801,-51.5 538.168,-51.5 548.51,-51.5"/>
<polygon fill="midnightblue" stroke="midnightblue" points="548.829,-55.0001 558.829,-51.5 548.829,-48.0001 548.829,-55.0001"/>
</g>
</g>
</svg>
