<?xml version="1.0" encoding="UTF-8" standalone="no"?>
<!DOCTYPE svg PUBLIC "-//W3C//DTD SVG 1.1//EN"
 "http://www.w3.org/Graphics/SVG/1.1/DTD/svg11.dtd">
<!-- Generated by graphviz version 2.36.0 (20140111.2315)
 -->
<!-- Title: tools.python.power.view Pages: 1 -->
<svg width="850pt" height="240pt"
 viewBox="0.00 0.00 850.00 240.00" xmlns="http://www.w3.org/2000/svg" xmlns:xlink="http://www.w3.org/1999/xlink">
<g id="graph0" class="graph" transform="scale(1 1) rotate(0) translate(4 236)">
<title>tools.python.power.view</title>
<polygon fill="white" stroke="none" points="-4,4 -4,-236 846,-236 846,4 -4,4"/>
<!-- Node1 -->
<g id="node1" class="node"><title>Node1</title>
<polygon fill="#bfbfbf" stroke="black" points="0,-155.5 0,-174.5 122,-174.5 122,-155.5 0,-155.5"/>
<text text-anchor="middle" x="61" y="-162.5" font-family="Helvetica,sans-Serif" font-size="10.00">tools.python.power.view</text>
</g>
<!-- Node2 -->
<g id="node2" class="node"><title>Node2</title>
<g id="a_node2"><a xlink:href="namespaceusi_1_1cci_1_1parameter.html#aadfb34f2214dc6b71f11d1caa2219321" target="_top" xlink:title="usi.cci.parameter.filterDict">
<polygon fill="white" stroke="black" points="176.5,-212.5 176.5,-231.5 307.5,-231.5 307.5,-212.5 176.5,-212.5"/>
<text text-anchor="middle" x="242" y="-219.5" font-family="Helvetica,sans-Serif" font-size="10.00">usi.cci.parameter.filterDict</text>
</a>
</g>
</g>
<!-- Node1&#45;&gt;Node2 -->
<g id="edge1" class="edge"><title>Node1&#45;&gt;Node2</title>
<path fill="none" stroke="midnightblue" d="M83.3963,-174.556C102.633,-182.884 131.808,-194.87 158,-203 166.309,-205.579 175.184,-207.976 183.925,-210.139"/>
<polygon fill="midnightblue" stroke="midnightblue" points="183.161,-213.555 193.701,-212.479 184.791,-206.748 183.161,-213.555"/>
</g>
<!-- Node3 -->
<g id="node3" class="node"><title>Node3</title>
<g id="a_node3"><a xlink:href="namespacepysc_1_1api_1_1cci.html#aa7cca9d71501549a754abc67a861a11a" target="_top" xlink:title="pysc::api::cci::list">
<polygon fill="white" stroke="black" points="195,-174.5 195,-193.5 289,-193.5 289,-174.5 195,-174.5"/>
<text text-anchor="middle" x="242" y="-181.5" font-family="Helvetica,sans-Serif" font-size="10.00">pysc::api::cci::list</text>
</a>
</g>
</g>
<!-- Node1&#45;&gt;Node3 -->
<g id="edge2" class="edge"><title>Node1&#45;&gt;Node3</title>
<path fill="none" stroke="midnightblue" d="M122.102,-171.38C142.341,-173.528 164.835,-175.915 184.764,-178.031"/>
<polygon fill="midnightblue" stroke="midnightblue" points="184.613,-181.534 194.927,-179.11 185.352,-174.573 184.613,-181.534"/>
</g>
<!-- Node4 -->
<g id="node4" class="node"><title>Node4</title>
<g id="a_node4"><a xlink:href="namespaceusi_1_1cci_1_1parameter.html#acc61d5325287831c8b7a4449629efaf2" target="_top" xlink:title="usi.cci.parameter.params\lToDict">
<polygon fill="white" stroke="black" points="369.5,-134 369.5,-164 496.5,-164 496.5,-134 369.5,-134"/>
<text text-anchor="start" x="377.5" y="-152" font-family="Helvetica,sans-Serif" font-size="10.00">usi.cci.parameter.params</text>
<text text-anchor="middle" x="433" y="-141" font-family="Helvetica,sans-Serif" font-size="10.00">ToDict</text>
</a>
</g>
</g>
<!-- Node1&#45;&gt;Node4 -->
<g id="edge3" class="edge"><title>Node1&#45;&gt;Node4</title>
<path fill="none" stroke="midnightblue" d="M122.27,-162.394C186.936,-159.597 289.658,-155.155 358.892,-152.161"/>
<polygon fill="midnightblue" stroke="midnightblue" points="359.441,-155.641 369.28,-151.712 359.138,-148.648 359.441,-155.641"/>
</g>
<!-- Node6 -->
<g id="node6" class="node"><title>Node6</title>
<g id="a_node6"><a xlink:href="namespaceusi_1_1cci_1_1parameter.html#a1ca452b667b624916f0afc7d2d184b07" target="_top" xlink:title="usi.cci.parameter.readPropertyDict">
<polygon fill="white" stroke="black" points="158,-95.5 158,-114.5 326,-114.5 326,-95.5 158,-95.5"/>
<text text-anchor="middle" x="242" y="-102.5" font-family="Helvetica,sans-Serif" font-size="10.00">usi.cci.parameter.readPropertyDict</text>
</a>
</g>
</g>
<!-- Node1&#45;&gt;Node6 -->
<g id="edge5" class="edge"><title>Node1&#45;&gt;Node6</title>
<path fill="none" stroke="midnightblue" d="M89.2698,-155.491C108.462,-148.832 134.768,-139.771 158,-132 172.223,-127.242 187.855,-122.128 201.68,-117.643"/>
<polygon fill="midnightblue" stroke="midnightblue" points="202.946,-120.912 211.382,-114.503 200.79,-114.252 202.946,-120.912"/>
</g>
<!-- Node5 -->
<g id="node5" class="node"><title>Node5</title>
<g id="a_node5"><a xlink:href="namespaceusi_1_1cci_1_1parameter.html#a8d91a08dc26350e9a5839b1ee6551d88" target="_top" xlink:title="usi.cci.parameter.addIndex">
<polygon fill="white" stroke="black" points="540,-114.5 540,-133.5 674,-133.5 674,-114.5 540,-114.5"/>
<text text-anchor="middle" x="607" y="-121.5" font-family="Helvetica,sans-Serif" font-size="10.00">usi.cci.parameter.addIndex</text>
</a>
</g>
</g>
<!-- Node4&#45;&gt;Node5 -->
<g id="edge4" class="edge"><title>Node4&#45;&gt;Node5</title>
<path fill="none" stroke="midnightblue" d="M496.583,-139.904C507.652,-138.295 519.281,-136.604 530.658,-134.951"/>
<polygon fill="midnightblue" stroke="midnightblue" points="531.178,-138.412 540.571,-133.51 530.171,-131.485 531.178,-138.412"/>
</g>
<!-- Node7 -->
<g id="node7" class="node"><title>Node7</title>
<g id="a_node7"><a xlink:href="namespaceusi_1_1cci_1_1parameter.html#afbaa082e2ad82daa47cb0f605409943d" target="_top" xlink:title="usi.cci.parameter.listParams">
<polygon fill="white" stroke="black" points="362.5,-95.5 362.5,-114.5 503.5,-114.5 503.5,-95.5 362.5,-95.5"/>
<text text-anchor="middle" x="433" y="-102.5" font-family="Helvetica,sans-Serif" font-size="10.00">usi.cci.parameter.listParams</text>
</a>
</g>
</g>
<!-- Node6&#45;&gt;Node7 -->
<g id="edge6" class="edge"><title>Node6&#45;&gt;Node7</title>
<path fill="none" stroke="midnightblue" d="M326.173,-105C334.857,-105 343.671,-105 352.315,-105"/>
<polygon fill="midnightblue" stroke="midnightblue" points="352.367,-108.5 362.367,-105 352.367,-101.5 352.367,-108.5"/>
</g>
<!-- Node8 -->
<g id="node8" class="node"><title>Node8</title>
<g id="a_node8"><a xlink:href="namespaceusi_1_1cci_1_1parameter.html#a8d80c6a68d8cebe494a62a4d70828551" target="_top" xlink:title="usi.cci.parameter.makeDict">
<polygon fill="white" stroke="black" points="364.5,-57.5 364.5,-76.5 501.5,-76.5 501.5,-57.5 364.5,-57.5"/>
<text text-anchor="middle" x="433" y="-64.5" font-family="Helvetica,sans-Serif" font-size="10.00">usi.cci.parameter.makeDict</text>
</a>
</g>
</g>
<!-- Node6&#45;&gt;Node8 -->
<g id="edge8" class="edge"><title>Node6&#45;&gt;Node8</title>
<path fill="none" stroke="midnightblue" d="M290.693,-95.411C316.195,-90.2835 347.782,-83.9328 374.62,-78.5368"/>
<polygon fill="midnightblue" stroke="midnightblue" points="375.536,-81.9226 384.65,-76.5201 374.157,-75.0599 375.536,-81.9226"/>
</g>
<!-- Node7&#45;&gt;Node5 -->
<g id="edge7" class="edge"><title>Node7&#45;&gt;Node5</title>
<path fill="none" stroke="midnightblue" d="M503.959,-112.728C512.516,-113.673 521.292,-114.643 529.932,-115.597"/>
<polygon fill="midnightblue" stroke="midnightblue" points="529.668,-119.089 539.992,-116.708 530.437,-112.132 529.668,-119.089"/>
</g>
<!-- Node8&#45;&gt;Node5 -->
<g id="edge12" class="edge"><title>Node8&#45;&gt;Node5</title>
<path fill="none" stroke="midnightblue" d="M472,-76.5289C482.438,-79.3591 493.713,-82.6143 504,-86 520.307,-91.3671 523.932,-93.9551 540,-100 549.671,-103.638 560.173,-107.498 569.894,-111.034"/>
<polygon fill="midnightblue" stroke="midnightblue" points="568.702,-114.325 579.297,-114.441 571.088,-107.744 568.702,-114.325"/>
</g>
<!-- Node9 -->
<g id="node9" class="node"><title>Node9</title>
<g id="a_node9"><a xlink:href="namespaceusi_1_1cci_1_1parameter.html#a891dc79b3a5766edfa93b76adeb9c7a4" target="_top" xlink:title="usi.cci.parameter.getHead">
<polygon fill="white" stroke="black" points="710.5,-57.5 710.5,-76.5 841.5,-76.5 841.5,-57.5 710.5,-57.5"/>
<text text-anchor="middle" x="776" y="-64.5" font-family="Helvetica,sans-Serif" font-size="10.00">usi.cci.parameter.getHead</text>
</a>
</g>
</g>
<!-- Node8&#45;&gt;Node9 -->
<g id="edge9" class="edge"><title>Node8&#45;&gt;Node9</title>
<path fill="none" stroke="midnightblue" d="M501.778,-67C559.064,-67 641.015,-67 700.205,-67"/>
<polygon fill="midnightblue" stroke="midnightblue" points="700.24,-70.5001 710.24,-67 700.24,-63.5001 700.24,-70.5001"/>
</g>
<!-- Node10 -->
<g id="node10" class="node"><title>Node10</title>
<g id="a_node10"><a xlink:href="namespaceusi_1_1cci_1_1parameter.html#a8f90f78bdf01390368b4096782e4861f" target="_top" xlink:title="usi.cci.parameter.getTail">
<polygon fill="white" stroke="black" points="545,-38.5 545,-57.5 669,-57.5 669,-38.5 545,-38.5"/>
<text text-anchor="middle" x="607" y="-45.5" font-family="Helvetica,sans-Serif" font-size="10.00">usi.cci.parameter.getTail</text>
</a>
</g>
</g>
<!-- Node8&#45;&gt;Node10 -->
<g id="edge10" class="edge"><title>Node8&#45;&gt;Node10</title>
<path fill="none" stroke="midnightblue" d="M501.979,-59.4907C512.724,-58.3038 523.862,-57.0734 534.68,-55.8783"/>
<polygon fill="midnightblue" stroke="midnightblue" points="535.377,-59.3228 544.932,-54.7459 534.608,-52.3651 535.377,-59.3228"/>
</g>
<!-- Node11 -->
<g id="node11" class="node"><title>Node11</title>
<g id="a_node11"><a xlink:href="namespaceusi_1_1cci_1_1parameter.html#aa5758538d6951bdacd85975c9543fe7c" target="_top" xlink:title="usi.cci.parameter.read">
<polygon fill="white" stroke="black" points="550.5,-0.5 550.5,-19.5 663.5,-19.5 663.5,-0.5 550.5,-0.5"/>
<text text-anchor="middle" x="607" y="-7.5" font-family="Helvetica,sans-Serif" font-size="10.00">usi.cci.parameter.read</text>
</a>
</g>
</g>
<!-- Node8&#45;&gt;Node11 -->
<g id="edge13" class="edge"><title>Node8&#45;&gt;Node11</title>
<path fill="none" stroke="midnightblue" d="M459.117,-57.4838C480.498,-49.5066 512.094,-38.0087 540,-29 546.943,-26.7587 554.337,-24.5033 561.571,-22.3687"/>
<polygon fill="midnightblue" stroke="midnightblue" points="562.653,-25.6991 571.278,-19.5454 560.698,-18.9777 562.653,-25.6991"/>
</g>
<!-- Node10&#45;&gt;Node9 -->
<g id="edge11" class="edge"><title>Node10&#45;&gt;Node9</title>
<path fill="none" stroke="midnightblue" d="M669.236,-54.967C679.29,-56.1108 689.808,-57.3075 700.148,-58.4839"/>
<polygon fill="midnightblue" stroke="midnightblue" points="700.072,-61.9978 710.404,-59.6507 700.863,-55.0426 700.072,-61.9978"/>
</g>
</g>
</svg>
