<?xml version="1.0" encoding="UTF-8" standalone="no"?>
<!DOCTYPE svg PUBLIC "-//W3C//DTD SVG 1.1//EN"
 "http://www.w3.org/Graphics/SVG/1.1/DTD/svg11.dtd">
<!-- Generated by graphviz version 2.38.0 (20140413.2041)
 -->
<!-- Title: usi.tools.args.args Pages: 1 -->
<svg width="336pt" height="28pt"
 viewBox="0.00 0.00 336.00 28.00" xmlns="http://www.w3.org/2000/svg" xmlns:xlink="http://www.w3.org/1999/xlink">
<g id="graph0" class="graph" transform="scale(1 1) rotate(0) translate(4 24)">
<title>usi.tools.args.args</title>
<polygon fill="white" stroke="none" points="-4,4 -4,-24 332,-24 332,4 -4,4"/>
<!-- Node1 -->
<g id="node1" class="node"><title>Node1</title>
<polygon fill="#bfbfbf" stroke="black" points="0,-0.5 0,-19.5 97,-19.5 97,-0.5 0,-0.5"/>
<text text-anchor="middle" x="48.5" y="-7.5" font-family="Helvetica,sans-Serif" font-size="10.00">usi.tools.args.args</text>
</g>
<!-- Node2 -->
<g id="node2" class="node"><title>Node2</title>
<g id="a_node2"><a xlink:href="namespaceusi_1_1tools_1_1args.html#acd7d2cd9e866375a689882329a800b97" target="_top" xlink:title="usi.tools.args.get_args">
<polygon fill="white" stroke="black" points="133,-0.5 133,-19.5 249,-19.5 249,-0.5 133,-0.5"/>
<text text-anchor="middle" x="191" y="-7.5" font-family="Helvetica,sans-Serif" font-size="10.00">usi.tools.args.get_args</text>
</a>
</g>
</g>
<!-- Node1&#45;&gt;Node2 -->
<g id="edge1" class="edge"><title>Node1&#45;&gt;Node2</title>
<path fill="none" stroke="midnightblue" d="M97.0669,-10C105.306,-10 114.012,-10 122.66,-10"/>
<polygon fill="midnightblue" stroke="midnightblue" points="122.752,-13.5001 132.752,-10 122.752,-6.5001 122.752,-13.5001"/>
</g>
<!-- Node3 -->
<g id="node3" class="node"><title>Node3</title>
<g id="a_node3"><a xlink:href="namespaceusi.html#ab17dcbaca4eb938e35fdfa1a02cc3a4a" target="_top" xlink:title="usi.on">
<polygon fill="white" stroke="black" points="285,-0.5 285,-19.5 328,-19.5 328,-0.5 285,-0.5"/>
<text text-anchor="middle" x="306.5" y="-7.5" font-family="Helvetica,sans-Serif" font-size="10.00">usi.on</text>
</a>
</g>
</g>
<!-- Node2&#45;&gt;Node3 -->
<g id="edge2" class="edge"><title>Node2&#45;&gt;Node3</title>
<path fill="none" stroke="midnightblue" d="M249.083,-10C257.887,-10 266.681,-10 274.617,-10"/>
<polygon fill="midnightblue" stroke="midnightblue" points="274.827,-13.5001 284.827,-10 274.827,-6.5001 274.827,-13.5001"/>
</g>
</g>
</svg>
