<?xml version="1.0" encoding="UTF-8" standalone="no"?>
<!DOCTYPE svg PUBLIC "-//W3C//DTD SVG 1.1//EN"
 "http://www.w3.org/Graphics/SVG/1.1/DTD/svg11.dtd">
<!-- Generated by graphviz version 2.26.0 (20091210.2329)
 -->
<!-- Title: signalkit::connect Pages: 1 -->
<svg width="242pt" height="94pt"
 viewBox="0.00 0.00 242.00 94.00" xmlns="http://www.w3.org/2000/svg" xmlns:xlink="http://www.w3.org/1999/xlink">
<g id="graph1" class="graph" transform="scale(1 1) rotate(0) translate(4 90)">
<title>signalkit::connect</title>
<polygon fill="white" stroke="white" points="-4,5 -4,-90 239,-90 239,5 -4,5"/>
<!-- Node1 -->
<g id="node1" class="node"><title>Node1</title>
<polygon fill="#bfbfbf" stroke="black" points="0.5,-32.5 0.5,-53.5 93.5,-53.5 93.5,-32.5 0.5,-32.5"/>
<text text-anchor="middle" x="47" y="-40.5" font-family="Helvetica,sans-Serif" font-size="10.00">signalkit::connect</text>
</g>
<!-- Node2 -->
<g id="node3" class="node"><title>Node2</title>
<a xlink:href="classsignalkit_1_1signal__out__bind__if.html#a392ba399d74861253067d2bf0ee06cd5" target="_top" xlink:title="signalkit::signal_out\l_bind_if::bind">
<polygon fill="white" stroke="black" points="130.5,-52 130.5,-86 233.5,-86 233.5,-52 130.5,-52"/>
<text text-anchor="start" x="138.5" y="-73" font-family="Helvetica,sans-Serif" font-size="10.00">signalkit::signal_out</text>
<text text-anchor="middle" x="182" y="-60" font-family="Helvetica,sans-Serif" font-size="10.00">_bind_if::bind</text>
</a>
</g>
<!-- Node1&#45;&gt;Node2 -->
<g id="edge2" class="edge"><title>Node1&#45;&gt;Node2</title>
<path fill="none" stroke="midnightblue" d="M93.8376,-52.0206C102.359,-53.6617 111.366,-55.3964 120.24,-57.1054"/>
<polygon fill="midnightblue" stroke="midnightblue" points="119.687,-60.5633 130.169,-59.0177 121.011,-53.6896 119.687,-60.5633"/>
</g>
<!-- Node3 -->
<g id="node5" class="node"><title>Node3</title>
<a xlink:href="classsignalkit_1_1signal__in__if.html#a26f44dc63400a8ec804095e2b428988e" target="_top" xlink:title="signalkit::signal_in\l_if::bind">
<polygon fill="white" stroke="black" points="133.5,-0 133.5,-34 230.5,-34 230.5,-0 133.5,-0"/>
<text text-anchor="start" x="141.5" y="-21" font-family="Helvetica,sans-Serif" font-size="10.00">signalkit::signal_in</text>
<text text-anchor="middle" x="182" y="-8" font-family="Helvetica,sans-Serif" font-size="10.00">_if::bind</text>
</a>
</g>
<!-- Node1&#45;&gt;Node3 -->
<g id="edge4" class="edge"><title>Node1&#45;&gt;Node3</title>
<path fill="none" stroke="midnightblue" d="M93.8376,-33.9794C103.433,-32.1314 113.645,-30.1646 123.589,-28.2495"/>
<polygon fill="midnightblue" stroke="midnightblue" points="124.253,-31.686 133.411,-26.3579 122.929,-24.8123 124.253,-31.686"/>
</g>
</g>
</svg>
