<?xml version="1.0" encoding="UTF-8" standalone="no"?>
<!DOCTYPE svg PUBLIC "-//W3C//DTD SVG 1.1//EN"
 "http://www.w3.org/Graphics/SVG/1.1/DTD/svg11.dtd">
<!-- Generated by graphviz version 2.38.0 (20140413.2041)
 -->
<!-- Title: statemachine.StateMachineHandler Pages: 1 -->
<!--zoomable 127 -->
<svg id="main" version="1.1" xmlns="http://www.w3.org/2000/svg" xmlns:xlink="http://www.w3.org/1999/xlink" xml:space="preserve" onload="init(evt)">
<style type="text/css"><![CDATA[
.edge:hover path { stroke: red; }
.edge:hover polygon { stroke: red; fill: red; }
]]></style>
<script type="text/javascript"><![CDATA[
var edges = document.getElementsByTagName('g');
if (edges && edges.length) {
  for (var i=0;i<edges.length;i++) {
    if (edges[i].id.substr(0,4)=='edge') {
      edges[i].setAttribute('class','edge');
    }
  }
}
]]></script>
        <defs>
                <circle id="rim" cx="0" cy="0" r="7"/>
                <circle id="rim2" cx="0" cy="0" r="3.5"/>
                <g id="zoomPlus">
                        <use xlink:href="#rim" fill="#404040">
                                <set attributeName="fill" to="#808080" begin="zoomplus.mouseover" end="zoomplus.mouseout"/>
                        </use>
                        <path d="M-4,0h8M0,-4v8" fill="none" stroke="white" stroke-width="1.5" pointer-events="none"/>
                </g>
                <g id="zoomMin">
                        <use xlink:href="#rim" fill="#404040">
                                <set attributeName="fill" to="#808080" begin="zoomminus.mouseover" end="zoomminus.mouseout"/>
                        </use>
                        <path d="M-4,0h8" fill="none" stroke="white" stroke-width="1.5" pointer-events="none"/>
                </g>
                <g id="dirArrow">
                        <path fill="none" stroke="white" stroke-width="1.5" d="M0,-3.0v7 M-2.5,-0.5L0,-3.0L2.5,-0.5"/>
                </g>
               <g id="resetDef">
                       <use xlink:href="#rim2" fill="#404040">
                               <set attributeName="fill" to="#808080" begin="reset.mouseover" end="reset.mouseout"/>
                       </use>
               </g>
        </defs>

<script type="text/javascript">
var viewWidth = 744;
var viewHeight = 127;
var sectionId = 'dynsection-4';
</script>
<script xlink:href="svgpan.js"/>
<svg id="graph" class="graph">
<g id="viewport">
<title>statemachine.StateMachineHandler</title>
<polygon fill="white" stroke="none" points="-4,4 -4,-122.5 740,-122.5 740,4 -4,4"/>
<!-- Node1 -->
<g id="node1" class="node"><title>Node1</title>
<polygon fill="#bfbfbf" stroke="black" points="0,-42 0,-72 138,-72 138,-42 0,-42"/>
<text text-anchor="start" x="8" y="-60" font-family="Helvetica,sans-Serif" font-size="10.00">statemachine.StateMachine</text>
<text text-anchor="middle" x="69" y="-49" font-family="Helvetica,sans-Serif" font-size="10.00">Handler</text>
</g>
<!-- Node2 -->
<g id="node2" class="node"><title>Node2</title>
<g id="a_node2"><a xlink:href="namespacedoxycomment.html#ab278ae1802f96613f914f3f823da5839" target="_top" xlink:title="doxycomment.BlockHandler">
<polygon fill="white" stroke="black" points="174,-47.5 174,-66.5 314,-66.5 314,-47.5 174,-47.5"/>
<text text-anchor="middle" x="244" y="-54.5" font-family="Helvetica,sans-Serif" font-size="10.00">doxycomment.BlockHandler</text>
</a>
</g>
</g>
<!-- Node1&#45;&gt;Node2 -->
<g id="edge1" class="edge"><title>Node1&#45;&gt;Node2</title>
<path fill="none" stroke="midnightblue" d="M138.374,-57C146.7,-57 155.261,-57 163.728,-57"/>
<polygon fill="midnightblue" stroke="midnightblue" points="163.989,-60.5001 173.989,-57 163.989,-53.5001 163.989,-60.5001"/>
</g>
<!-- Node3 -->
<g id="node3" class="node"><title>Node3</title>
<g id="a_node3"><a xlink:href="namespacedoxygen__preprocessor.html#a7deaf38424a3580d894297d6acd5de4c" target="_top" xlink:title="doxygen_preprocessor.Command\lLineHandler">
<polygon fill="white" stroke="black" points="350,-88 350,-118 513,-118 513,-88 350,-88"/>
<text text-anchor="start" x="358" y="-106" font-family="Helvetica,sans-Serif" font-size="10.00">doxygen_preprocessor.Command</text>
<text text-anchor="middle" x="431.5" y="-95" font-family="Helvetica,sans-Serif" font-size="10.00">LineHandler</text>
</a>
</g>
</g>
<!-- Node1&#45;&gt;Node3 -->
<g id="edge6" class="edge"><title>Node1&#45;&gt;Node3</title>
<path fill="none" stroke="midnightblue" d="M138.129,-70.2104C150.059,-72.3051 162.373,-74.3284 174,-76 228.837,-83.8838 290.583,-90.4538 339.749,-95.1384"/>
<polygon fill="midnightblue" stroke="midnightblue" points="339.441,-98.6248 349.726,-96.0796 340.099,-91.6557 339.441,-98.6248"/>
</g>
<!-- Node7 -->
<g id="node7" class="node"><title>Node7</title>
<g id="a_node7"><a xlink:href="namespacefilterprocessor.html#a23f478f7f6c6f79c80746c0729bd219e" target="_top" xlink:title="filterprocessor.FilterFiles">
<polygon fill="white" stroke="black" points="182,-9.5 182,-28.5 306,-28.5 306,-9.5 182,-9.5"/>
<text text-anchor="middle" x="244" y="-16.5" font-family="Helvetica,sans-Serif" font-size="10.00">filterprocessor.FilterFiles</text>
</a>
</g>
</g>
<!-- Node1&#45;&gt;Node7 -->
<g id="edge7" class="edge"><title>Node1&#45;&gt;Node7</title>
<path fill="none" stroke="midnightblue" d="M138.374,-41.9814C155.503,-38.219 173.624,-34.2386 189.886,-30.6666"/>
<polygon fill="midnightblue" stroke="midnightblue" points="190.73,-34.0649 199.746,-28.5009 189.228,-27.2279 190.73,-34.0649"/>
</g>
<!-- Node2&#45;&gt;Node3 -->
<g id="edge2" class="edge"><title>Node2&#45;&gt;Node3</title>
<path fill="none" stroke="midnightblue" d="M283.436,-66.5312C305.549,-72.0149 334.023,-79.0757 360.016,-85.5215"/>
<polygon fill="midnightblue" stroke="midnightblue" points="359.29,-88.9474 369.839,-87.9573 360.975,-82.1532 359.29,-88.9474"/>
</g>
<!-- Node4 -->
<g id="node4" class="node"><title>Node4</title>
<g id="a_node4"><a xlink:href="namespacedoxycomment.html#a577aeea0319393b27b7e196133a5669b" target="_top" xlink:title="doxycomment.ExtractComment\lBlocks">
<polygon fill="white" stroke="black" points="354,-39 354,-69 509,-69 509,-39 354,-39"/>
<text text-anchor="start" x="362" y="-57" font-family="Helvetica,sans-Serif" font-size="10.00">doxycomment.ExtractComment</text>
<text text-anchor="middle" x="431.5" y="-46" font-family="Helvetica,sans-Serif" font-size="10.00">Blocks</text>
</a>
</g>
</g>
<!-- Node2&#45;&gt;Node4 -->
<g id="edge3" class="edge"><title>Node2&#45;&gt;Node4</title>
<path fill="none" stroke="midnightblue" d="M314.073,-55.8829C323.706,-55.7271 333.704,-55.5654 343.613,-55.4052"/>
<polygon fill="midnightblue" stroke="midnightblue" points="343.945,-58.9004 353.887,-55.239 343.832,-51.9013 343.945,-58.9004"/>
</g>
<!-- Node6 -->
<g id="node6" class="node"><title>Node6</title>
<g id="a_node6"><a xlink:href="io__less_2queens_8c.html#a7f56768641bb4ced349493752655eb74" target="_top" xlink:title="find">
<polygon fill="white" stroke="black" points="415.5,-0.5 415.5,-19.5 447.5,-19.5 447.5,-0.5 415.5,-0.5"/>
<text text-anchor="middle" x="431.5" y="-7.5" font-family="Helvetica,sans-Serif" font-size="10.00">find</text>
</a>
</g>
</g>
<!-- Node2&#45;&gt;Node6 -->
<g id="edge5" class="edge"><title>Node2&#45;&gt;Node6</title>
<path fill="none" stroke="midnightblue" d="M279.935,-47.414C300.329,-41.8854 326.579,-34.8854 350,-29 368.444,-24.3652 389.349,-19.4408 405.233,-15.7669"/>
<polygon fill="midnightblue" stroke="midnightblue" points="406.375,-19.0957 415.335,-13.4421 404.805,-12.274 406.375,-19.0957"/>
</g>
<!-- Node5 -->
<g id="node5" class="node"><title>Node5</title>
<g id="a_node5"><a xlink:href="namespacedoxycomment.html#abbf439c4e45c5daa6dee4b9594db3d9c" target="_top" xlink:title="doxycomment.FindDoxygenComments">
<polygon fill="white" stroke="black" points="549,-44.5 549,-63.5 736,-63.5 736,-44.5 549,-44.5"/>
<text text-anchor="middle" x="642.5" y="-51.5" font-family="Helvetica,sans-Serif" font-size="10.00">doxycomment.FindDoxygenComments</text>
</a>
</g>
</g>
<!-- Node4&#45;&gt;Node5 -->
<g id="edge4" class="edge"><title>Node4&#45;&gt;Node5</title>
<path fill="none" stroke="midnightblue" d="M509.137,-54C518.735,-54 528.671,-54 538.588,-54"/>
<polygon fill="midnightblue" stroke="midnightblue" points="538.9,-57.5001 548.9,-54 538.9,-50.5001 538.9,-57.5001"/>
</g>
</g>
</svg>
        <g id="navigator" transform="translate(0 0)" fill="#404254">
                <rect fill="#f2f5e9" fill-opacity="0.5" stroke="#606060" stroke-width=".5" x="0" y="0" width="60" height="60"/>
                <use id="zoomplus" xlink:href="#zoomPlus" x="17" y="9" onmousedown="handleZoom(evt,'in')"/>
                <use id="zoomminus" xlink:href="#zoomMin" x="42" y="9" onmousedown="handleZoom(evt,'out')"/>
                <use id="reset" xlink:href="#resetDef" x="30" y="36" onmousedown="handleReset()"/>
                <g id="arrowUp" xlink:href="#dirArrow" transform="translate(30 24)" onmousedown="handlePan(0,-1)">
                  <use xlink:href="#rim" fill="#404040">
                        <set attributeName="fill" to="#808080" begin="arrowUp.mouseover" end="arrowUp.mouseout"/>
                  </use>
                  <path fill="none" stroke="white" stroke-width="1.5" d="M0,-3.0v7 M-2.5,-0.5L0,-3.0L2.5,-0.5"/>
                </g>
                <g id="arrowRight" xlink:href="#dirArrow" transform="rotate(90) translate(36 -43)" onmousedown="handlePan(1,0)">
                  <use xlink:href="#rim" fill="#404040">
                        <set attributeName="fill" to="#808080" begin="arrowRight.mouseover" end="arrowRight.mouseout"/>
                  </use>
                  <path fill="none" stroke="white" stroke-width="1.5" d="M0,-3.0v7 M-2.5,-0.5L0,-3.0L2.5,-0.5"/>
                </g>
                <g id="arrowDown" xlink:href="#dirArrow" transform="rotate(180) translate(-30 -48)" onmousedown="handlePan(0,1)">
                  <use xlink:href="#rim" fill="#404040">
                        <set attributeName="fill" to="#808080" begin="arrowDown.mouseover" end="arrowDown.mouseout"/>
                  </use>
                  <path fill="none" stroke="white" stroke-width="1.5" d="M0,-3.0v7 M-2.5,-0.5L0,-3.0L2.5,-0.5"/>
                </g>
                <g id="arrowLeft" xlink:href="#dirArrow" transform="rotate(270) translate(-36 17)" onmousedown="handlePan(-1,0)">
                  <use xlink:href="#rim" fill="#404040">
                        <set attributeName="fill" to="#808080" begin="arrowLeft.mouseover" end="arrowLeft.mouseout"/>
                  </use>
                  <path fill="none" stroke="white" stroke-width="1.5" d="M0,-3.0v7 M-2.5,-0.5L0,-3.0L2.5,-0.5"/>
                </g>
        </g>
        <svg viewBox="0 0 15 15" width="100%" height="30px" preserveAspectRatio="xMaxYMin meet">
         <g id="arrow_out" transform="scale(0.3 0.3)">
          <a xlink:href="namespacestatemachine_a9114d16adad9c33bdce70bd45facbdc2_cgraph_org.svg" target="_base">
           <rect id="button" ry="5" rx="5" y="6" x="6" height="38" width="38"
                fill="#f2f5e9" fill-opacity="0.5" stroke="#606060" stroke-width="1.0"/>
           <path id="arrow"
             d="M 11.500037,31.436501 C 11.940474,20.09759 22.043105,11.32322 32.158766,21.979434 L 37.068811,17.246167 C 37.068811,17.246167 37.088388,32 37.088388,32 L 22.160133,31.978069 C 22.160133,31.978069 26.997745,27.140456 26.997745,27.140456 C 18.528582,18.264221 13.291696,25.230495 11.500037,31.436501 z"
             style="fill:#404040;"/>
          </a>
         </g>
        </svg>
</svg>
