<?xml version="1.0" encoding="UTF-8" standalone="no"?>
<!DOCTYPE svg PUBLIC "-//W3C//DTD SVG 1.1//EN"
 "http://www.w3.org/Graphics/SVG/1.1/DTD/svg11.dtd">
<!-- Generated by graphviz version 2.26.0 (20091210.2329)
 -->
<!-- Title: register.RegisterHandler Pages: 1 -->
<svg width="730pt" height="134pt"
 viewBox="0.00 0.00 730.00 134.00" xmlns="http://www.w3.org/2000/svg" xmlns:xlink="http://www.w3.org/1999/xlink">
<g id="graph1" class="graph" transform="scale(1 1) rotate(0) translate(4 130)">
<title>register.RegisterHandler</title>
<polygon fill="white" stroke="white" points="-4,5 -4,-130 727,-130 727,5 -4,5"/>
<!-- Node1 -->
<g id="node1" class="node"><title>Node1</title>
<polygon fill="#bfbfbf" stroke="black" points="0,-52.5 0,-73.5 122,-73.5 122,-52.5 0,-52.5"/>
<text text-anchor="middle" x="61" y="-60.5" font-family="Helvetica,sans-Serif" font-size="10.00">register.RegisterHandler</text>
</g>
<!-- Node2 -->
<g id="node3" class="node"><title>Node2</title>
<a xlink:href="namespacedoxycomment.html#ab278ae1802f96613f914f3f823da5839" target="_top" xlink:title="doxycomment.BlockHandler">
<polygon fill="white" stroke="black" points="158,-52.5 158,-73.5 298,-73.5 298,-52.5 158,-52.5"/>
<text text-anchor="middle" x="228" y="-60.5" font-family="Helvetica,sans-Serif" font-size="10.00">doxycomment.BlockHandler</text>
</a>
</g>
<!-- Node1&#45;&gt;Node2 -->
<g id="edge2" class="edge"><title>Node1&#45;&gt;Node2</title>
<path fill="none" stroke="midnightblue" d="M122.236,-63C130.533,-63 139.146,-63 147.714,-63"/>
<polygon fill="midnightblue" stroke="midnightblue" points="147.729,-66.5001 157.729,-63 147.729,-59.5001 147.729,-66.5001"/>
</g>
<!-- Node3 -->
<g id="node5" class="node"><title>Node3</title>
<a xlink:href="namespacedoxygen__preprocessor.html#a7deaf38424a3580d894297d6acd5de4c" target="_top" xlink:title="doxygen_preprocessor.Command\lLineHandler">
<polygon fill="white" stroke="black" points="334.5,-92 334.5,-126 497.5,-126 497.5,-92 334.5,-92"/>
<text text-anchor="start" x="342.5" y="-113" font-family="Helvetica,sans-Serif" font-size="10.00">doxygen_preprocessor.Command</text>
<text text-anchor="middle" x="416" y="-100" font-family="Helvetica,sans-Serif" font-size="10.00">LineHandler</text>
</a>
</g>
<!-- Node1&#45;&gt;Node3 -->
<g id="edge12" class="edge"><title>Node1&#45;&gt;Node3</title>
<path fill="none" stroke="midnightblue" d="M107.204,-73.5377C123.225,-76.922 141.343,-80.4505 158,-83 212.954,-91.4116 274.927,-97.7581 324.358,-102.074"/>
<polygon fill="midnightblue" stroke="midnightblue" points="324.126,-105.567 334.39,-102.938 324.727,-98.5931 324.126,-105.567"/>
</g>
<!-- Node7 -->
<g id="node14" class="node"><title>Node7</title>
<a xlink:href="namespacefilterprocessor.html#a23f478f7f6c6f79c80746c0729bd219e" target="_top" xlink:title="filterprocessor.FilterFiles">
<polygon fill="white" stroke="black" points="166,-12.5 166,-33.5 290,-33.5 290,-12.5 166,-12.5"/>
<text text-anchor="middle" x="228" y="-20.5" font-family="Helvetica,sans-Serif" font-size="10.00">filterprocessor.FilterFiles</text>
</a>
</g>
<!-- Node1&#45;&gt;Node7 -->
<g id="edge14" class="edge"><title>Node1&#45;&gt;Node7</title>
<path fill="none" stroke="midnightblue" d="M104.877,-52.4905C126.08,-47.412 151.719,-41.2708 174.1,-35.9102"/>
<polygon fill="midnightblue" stroke="midnightblue" points="175.216,-39.2418 184.126,-33.5087 173.586,-32.4344 175.216,-39.2418"/>
</g>
<!-- Node2&#45;&gt;Node3 -->
<g id="edge4" class="edge"><title>Node2&#45;&gt;Node3</title>
<path fill="none" stroke="midnightblue" d="M271.131,-73.5533C290.49,-78.29 313.967,-84.0345 336.336,-89.5077"/>
<polygon fill="midnightblue" stroke="midnightblue" points="335.631,-92.9384 346.176,-91.9155 337.295,-86.139 335.631,-92.9384"/>
</g>
<!-- Node4 -->
<g id="node7" class="node"><title>Node4</title>
<a xlink:href="namespacedoxycomment.html#a577aeea0319393b27b7e196133a5669b" target="_top" xlink:title="doxycomment.ExtractComment\lBlocks">
<polygon fill="white" stroke="black" points="338.5,-40 338.5,-74 493.5,-74 493.5,-40 338.5,-40"/>
<text text-anchor="start" x="346.5" y="-61" font-family="Helvetica,sans-Serif" font-size="10.00">doxycomment.ExtractComment</text>
<text text-anchor="middle" x="416" y="-48" font-family="Helvetica,sans-Serif" font-size="10.00">Blocks</text>
</a>
</g>
<!-- Node2&#45;&gt;Node4 -->
<g id="edge6" class="edge"><title>Node2&#45;&gt;Node4</title>
<path fill="none" stroke="midnightblue" d="M298.004,-60.7658C307.87,-60.451 318.113,-60.124 328.259,-59.8002"/>
<polygon fill="midnightblue" stroke="midnightblue" points="328.471,-63.2954 338.354,-59.4781 328.248,-56.2989 328.471,-63.2954"/>
</g>
<!-- Node6 -->
<g id="node11" class="node"><title>Node6</title>
<a xlink:href="io__less_2queens_8c.html#a7f56768641bb4ced349493752655eb74" target="_top" xlink:title="find">
<polygon fill="white" stroke="black" points="400,-0.5 400,-21.5 432,-21.5 432,-0.5 400,-0.5"/>
<text text-anchor="middle" x="416" y="-8.5" font-family="Helvetica,sans-Serif" font-size="10.00">find</text>
</a>
</g>
<!-- Node2&#45;&gt;Node6 -->
<g id="edge10" class="edge"><title>Node2&#45;&gt;Node6</title>
<path fill="none" stroke="midnightblue" d="M266.235,-52.4005C276.572,-49.4466 287.737,-46.1751 298,-43 314.112,-38.0155 317.794,-35.6688 334,-31 352.597,-25.6426 373.83,-20.4899 390.029,-16.7566"/>
<polygon fill="midnightblue" stroke="midnightblue" points="390.894,-20.1494 399.87,-14.5204 389.343,-13.3235 390.894,-20.1494"/>
</g>
<!-- Node5 -->
<g id="node9" class="node"><title>Node5</title>
<a xlink:href="namespacedoxycomment.html#abbf439c4e45c5daa6dee4b9594db3d9c" target="_top" xlink:title="doxycomment.FindDoxygenComments">
<polygon fill="white" stroke="black" points="534.5,-46.5 534.5,-67.5 721.5,-67.5 721.5,-46.5 534.5,-46.5"/>
<text text-anchor="middle" x="628" y="-54.5" font-family="Helvetica,sans-Serif" font-size="10.00">doxycomment.FindDoxygenComments</text>
</a>
</g>
<!-- Node4&#45;&gt;Node5 -->
<g id="edge8" class="edge"><title>Node4&#45;&gt;Node5</title>
<path fill="none" stroke="midnightblue" d="M493.737,-57C503.664,-57 513.947,-57 524.203,-57"/>
<polygon fill="midnightblue" stroke="midnightblue" points="524.435,-60.5001 534.435,-57 524.435,-53.5001 524.435,-60.5001"/>
</g>
</g>
</svg>
