<?xml version="1.0" encoding="UTF-8" standalone="no"?>
<!DOCTYPE svg PUBLIC "-//W3C//DTD SVG 1.1//EN"
 "http://www.w3.org/Graphics/SVG/1.1/DTD/svg11.dtd">
<!-- Generated by graphviz version 2.26.0 (20091210.2329)
 -->
<!-- Title: core.waf.repo.loadrepos Pages: 1 -->
<svg width="306pt" height="82pt"
 viewBox="0.00 0.00 306.00 82.00" xmlns="http://www.w3.org/2000/svg" xmlns:xlink="http://www.w3.org/1999/xlink">
<g id="graph1" class="graph" transform="scale(1 1) rotate(0) translate(4 78)">
<title>core.waf.repo.loadrepos</title>
<polygon fill="white" stroke="white" points="-4,5 -4,-78 303,-78 303,5 -4,5"/>
<!-- Node1 -->
<g id="node1" class="node"><title>Node1</title>
<polygon fill="#bfbfbf" stroke="black" points="0.5,-29.5 0.5,-50.5 121.5,-50.5 121.5,-29.5 0.5,-29.5"/>
<text text-anchor="middle" x="61" y="-37.5" font-family="Helvetica,sans-Serif" font-size="10.00">core.waf.repo.loadrepos</text>
</g>
<!-- Node2 -->
<g id="node3" class="node"><title>Node2</title>
<a xlink:href="namespacecore_1_1waf_1_1repo.html#aba8dac6e9a55ff63b780cf4316afdfd5" target="_top" xlink:title="core.waf.repo.get_repo_vals">
<polygon fill="white" stroke="black" points="158,-52.5 158,-73.5 298,-73.5 298,-52.5 158,-52.5"/>
<text text-anchor="middle" x="228" y="-60.5" font-family="Helvetica,sans-Serif" font-size="10.00">core.waf.repo.get_repo_vals</text>
</a>
</g>
<!-- Node1&#45;&gt;Node2 -->
<g id="edge2" class="edge"><title>Node1&#45;&gt;Node2</title>
<path fill="none" stroke="midnightblue" d="M121.763,-48.3686C130.301,-49.5444 139.182,-50.7676 148.011,-51.9835"/>
<polygon fill="midnightblue" stroke="midnightblue" points="147.551,-55.4531 157.935,-53.3503 148.506,-48.5186 147.551,-55.4531"/>
</g>
<!-- Node3 -->
<g id="node5" class="node"><title>Node3</title>
<a xlink:href="namespacecore_1_1waf_1_1repo.html#a7ddb87c8801ba7fbaf0c08a1c05b3764" target="_top" xlink:title="core.waf.repo.read\l_repos">
<polygon fill="white" stroke="black" points="179,-0 179,-34 277,-34 277,-0 179,-0"/>
<text text-anchor="start" x="187" y="-21" font-family="Helvetica,sans-Serif" font-size="10.00">core.waf.repo.read</text>
<text text-anchor="middle" x="228" y="-8" font-family="Helvetica,sans-Serif" font-size="10.00">_repos</text>
</a>
</g>
<!-- Node1&#45;&gt;Node3 -->
<g id="edge4" class="edge"><title>Node1&#45;&gt;Node3</title>
<path fill="none" stroke="midnightblue" d="M121.763,-31.6314C136.994,-29.5338 153.317,-27.2857 168.486,-25.1965"/>
<polygon fill="midnightblue" stroke="midnightblue" points="169.347,-28.6111 178.776,-23.7794 168.392,-21.6766 169.347,-28.6111"/>
</g>
</g>
</svg>
