<?xml version="1.0" encoding="UTF-8" standalone="no"?>
<!DOCTYPE svg PUBLIC "-//W3C//DTD SVG 1.1//EN"
 "http://www.w3.org/Graphics/SVG/1.1/DTD/svg11.dtd">
<!-- Generated by graphviz version 2.38.0 (20140413.2041)
 -->
<!-- Title: core/common/paramprinter.cpp Pages: 1 -->
<!--zoomable 452 -->
<svg id="main" version="1.1" xmlns="http://www.w3.org/2000/svg" xmlns:xlink="http://www.w3.org/1999/xlink" xml:space="preserve" onload="init(evt)">
<style type="text/css"><![CDATA[
.edge:hover path { stroke: red; }
.edge:hover polygon { stroke: red; fill: red; }
]]></style>
<script type="text/javascript"><![CDATA[
var edges = document.getElementsByTagName('g');
if (edges && edges.length) {
  for (var i=0;i<edges.length;i++) {
    if (edges[i].id.substr(0,4)=='edge') {
      edges[i].setAttribute('class','edge');
    }
  }
}
]]></script>
        <defs>
                <circle id="rim" cx="0" cy="0" r="7"/>
                <circle id="rim2" cx="0" cy="0" r="3.5"/>
                <g id="zoomPlus">
                        <use xlink:href="#rim" fill="#404040">
                                <set attributeName="fill" to="#808080" begin="zoomplus.mouseover" end="zoomplus.mouseout"/>
                        </use>
                        <path d="M-4,0h8M0,-4v8" fill="none" stroke="white" stroke-width="1.5" pointer-events="none"/>
                </g>
                <g id="zoomMin">
                        <use xlink:href="#rim" fill="#404040">
                                <set attributeName="fill" to="#808080" begin="zoomminus.mouseover" end="zoomminus.mouseout"/>
                        </use>
                        <path d="M-4,0h8" fill="none" stroke="white" stroke-width="1.5" pointer-events="none"/>
                </g>
                <g id="dirArrow">
                        <path fill="none" stroke="white" stroke-width="1.5" d="M0,-3.0v7 M-2.5,-0.5L0,-3.0L2.5,-0.5"/>
                </g>
               <g id="resetDef">
                       <use xlink:href="#rim2" fill="#404040">
                               <set attributeName="fill" to="#808080" begin="reset.mouseover" end="reset.mouseout"/>
                       </use>
               </g>
        </defs>

<script type="text/javascript">
var viewWidth = 1308;
var viewHeight = 452;
var sectionId = 'dynsection-0';
</script>
<script xlink:href="svgpan.js"/>
<svg id="graph" class="graph">
<g id="viewport">
<title>core/common/paramprinter.cpp</title>
<polygon fill="white" stroke="none" points="-4,4 -4,-448 1304.08,-448 1304.08,4 -4,4"/>
<!-- Node1 -->
<g id="node1" class="node"><title>Node1</title>
<polygon fill="#bfbfbf" stroke="black" points="22.8008,-425.5 22.8008,-443.5 177.199,-443.5 177.199,-425.5 22.8008,-425.5"/>
<text text-anchor="middle" x="100" y="-431.5" font-family="Helvetica,sans-Serif" font-size="10.00">core/common/paramprinter.cpp</text>
</g>
<!-- Node2 -->
<g id="node2" class="node"><title>Node2</title>
<polygon fill="white" stroke="#bfbfbf" points="715.879,-65.5 715.879,-83.5 764.121,-83.5 764.121,-65.5 715.879,-65.5"/>
<text text-anchor="middle" x="740" y="-71.5" font-family="Helvetica,sans-Serif" font-size="10.00">stdint.h</text>
</g>
<!-- Node1&#45;&gt;Node2 -->
<g id="edge1" class="edge"><title>Node1&#45;&gt;Node2</title>
<path fill="none" stroke="midnightblue" d="M74.6365,-425.429C56.6747,-418.475 33.3189,-406.722 19,-389 0.486315,-366.086 0,-354.958 0,-325.5 0,-325.5 0,-325.5 0,-198.5 0,-125.999 559.892,-86.5625 705.65,-77.5243"/>
<polygon fill="midnightblue" stroke="midnightblue" points="706.032,-81.0076 715.8,-76.9028 705.604,-74.0207 706.032,-81.0076"/>
</g>
<!-- Node3 -->
<g id="node3" class="node"><title>Node3</title>
<polygon fill="white" stroke="#bfbfbf" points="28.3843,-370.5 28.3843,-388.5 71.6157,-388.5 71.6157,-370.5 28.3843,-370.5"/>
<text text-anchor="middle" x="50" y="-376.5" font-family="Helvetica,sans-Serif" font-size="10.00">vector</text>
</g>
<!-- Node1&#45;&gt;Node3 -->
<g id="edge2" class="edge"><title>Node1&#45;&gt;Node3</title>
<path fill="none" stroke="midnightblue" d="M92.1875,-425.219C84.8061,-417.394 73.5501,-405.463 64.5208,-395.892"/>
<polygon fill="midnightblue" stroke="midnightblue" points="67.002,-393.422 57.5939,-388.55 61.9103,-398.225 67.002,-393.422"/>
</g>
<!-- Node4 -->
<g id="node4" class="node"><title>Node4</title>
<polygon fill="white" stroke="#bfbfbf" points="117.773,-190.5 117.773,-208.5 158.227,-208.5 158.227,-190.5 117.773,-190.5"/>
<text text-anchor="middle" x="138" y="-196.5" font-family="Helvetica,sans-Serif" font-size="10.00">string</text>
</g>
<!-- Node1&#45;&gt;Node4 -->
<g id="edge3" class="edge"><title>Node1&#45;&gt;Node4</title>
<path fill="none" stroke="midnightblue" d="M102.024,-425.336C104.186,-416.439 107.621,-401.766 110,-389 121.549,-327.029 131.418,-252.886 135.709,-219.018"/>
<polygon fill="midnightblue" stroke="midnightblue" points="139.218,-219.162 136.988,-208.804 132.273,-218.292 139.218,-219.162"/>
</g>
<!-- Node5 -->
<g id="node5" class="node"><title>Node5</title>
<polygon fill="white" stroke="#bfbfbf" points="64.2734,-190.5 64.2734,-208.5 99.7266,-208.5 99.7266,-190.5 64.2734,-190.5"/>
<text text-anchor="middle" x="82" y="-196.5" font-family="Helvetica,sans-Serif" font-size="10.00">map</text>
</g>
<!-- Node1&#45;&gt;Node5 -->
<g id="edge4" class="edge"><title>Node1&#45;&gt;Node5</title>
<path fill="none" stroke="midnightblue" d="M99.3804,-425.48C96.8333,-392.509 87.13,-266.905 83.4378,-219.112"/>
<polygon fill="midnightblue" stroke="midnightblue" points="86.9144,-218.673 82.6545,-208.972 79.9352,-219.212 86.9144,-218.673"/>
</g>
<!-- Node6 -->
<g id="node6" class="node"><title>Node6</title>
<g id="a_node6"><a xlink:href="paramprinter_8h.html" target="_top" xlink:title="core/common/paramprinter.h">
<polygon fill="white" stroke="black" points="342.082,-370.5 342.082,-388.5 485.918,-388.5 485.918,-370.5 342.082,-370.5"/>
<text text-anchor="middle" x="414" y="-376.5" font-family="Helvetica,sans-Serif" font-size="10.00">core/common/paramprinter.h</text>
</a>
</g>
</g>
<!-- Node1&#45;&gt;Node6 -->
<g id="edge5" class="edge"><title>Node1&#45;&gt;Node6</title>
<path fill="none" stroke="midnightblue" d="M147.69,-425.45C203.642,-416.006 296.367,-400.355 356.315,-390.237"/>
<polygon fill="midnightblue" stroke="midnightblue" points="357.099,-393.654 366.377,-388.538 355.934,-386.752 357.099,-393.654"/>
</g>
<!-- Node6&#45;&gt;Node4 -->
<g id="edge7" class="edge"><title>Node6&#45;&gt;Node4</title>
<path fill="none" stroke="midnightblue" d="M409.049,-370.436C394.708,-347.773 350.719,-283.023 297,-250 245.926,-218.603 223.257,-234.722 167,-214 165.798,-213.557 164.577,-213.085 163.351,-212.591"/>
<polygon fill="midnightblue" stroke="midnightblue" points="164.624,-209.328 154.058,-208.551 161.833,-215.748 164.624,-209.328"/>
</g>
<!-- Node7 -->
<g id="node7" class="node"><title>Node7</title>
<polygon fill="white" stroke="#bfbfbf" points="696.303,-255.5 696.303,-273.5 805.697,-273.5 805.697,-255.5 696.303,-255.5"/>
<text text-anchor="middle" x="751" y="-261.5" font-family="Helvetica,sans-Serif" font-size="10.00">greencontrol/config.h</text>
</g>
<!-- Node6&#45;&gt;Node7 -->
<g id="edge6" class="edge"><title>Node6&#45;&gt;Node7</title>
<path fill="none" stroke="midnightblue" d="M485.999,-370.851C531.082,-364.47 589.757,-353.218 639,-334 674.3,-320.224 710.986,-295.451 732.371,-279.775"/>
<polygon fill="midnightblue" stroke="midnightblue" points="734.628,-282.457 740.55,-273.672 730.442,-276.847 734.628,-282.457"/>
</g>
<!-- Node8 -->
<g id="node8" class="node"><title>Node8</title>
<g id="a_node8"><a xlink:href="gs__config_8h.html" target="_top" xlink:title="core/common/gs_config.h">
<polygon fill="white" stroke="black" points="499.749,-315.5 499.749,-333.5 630.251,-333.5 630.251,-315.5 499.749,-315.5"/>
<text text-anchor="middle" x="565" y="-321.5" font-family="Helvetica,sans-Serif" font-size="10.00">core/common/gs_config.h</text>
</a>
</g>
</g>
<!-- Node6&#45;&gt;Node8 -->
<g id="edge8" class="edge"><title>Node6&#45;&gt;Node8</title>
<path fill="none" stroke="midnightblue" d="M436.934,-370.45C462.322,-361.539 503.452,-347.103 532.232,-337.001"/>
<polygon fill="midnightblue" stroke="midnightblue" points="533.574,-340.24 541.851,-333.625 531.256,-333.635 533.574,-340.24"/>
</g>
<!-- Node8&#45;&gt;Node7 -->
<g id="edge9" class="edge"><title>Node8&#45;&gt;Node7</title>
<path fill="none" stroke="midnightblue" d="M590.863,-315.435C623.253,-305.335 678.909,-287.98 715.331,-276.623"/>
<polygon fill="midnightblue" stroke="midnightblue" points="716.553,-279.908 725.058,-273.589 714.469,-273.225 716.553,-279.908"/>
</g>
<!-- Node9 -->
<g id="node9" class="node"><title>Node9</title>
<g id="a_node9"><a xlink:href="gs__config_2gs__config_8h.html" target="_top" xlink:title="core/common/gs_config\l/gs_config.h">
<polygon fill="white" stroke="black" points="165.919,-250.5 165.919,-278.5 288.081,-278.5 288.081,-250.5 165.919,-250.5"/>
<text text-anchor="start" x="173.919" y="-266.5" font-family="Helvetica,sans-Serif" font-size="10.00">core/common/gs_config</text>
<text text-anchor="middle" x="227" y="-256.5" font-family="Helvetica,sans-Serif" font-size="10.00">/gs_config.h</text>
</a>
</g>
</g>
<!-- Node8&#45;&gt;Node9 -->
<g id="edge10" class="edge"><title>Node8&#45;&gt;Node9</title>
<path fill="none" stroke="midnightblue" d="M518.357,-315.496C461.427,-305.727 364.569,-289.107 298.276,-277.731"/>
<polygon fill="midnightblue" stroke="midnightblue" points="298.765,-274.264 288.318,-276.022 297.582,-281.163 298.765,-274.264"/>
</g>
<!-- Node10 -->
<g id="node10" class="node"><title>Node10</title>
<g id="a_node10"><a xlink:href="gs__config__class_8h.html" target="_top" xlink:title="core/common/gs_config\l/gs_config_class.h">
<polygon fill="white" stroke="black" points="555.919,-250.5 555.919,-278.5 678.081,-278.5 678.081,-250.5 555.919,-250.5"/>
<text text-anchor="start" x="563.919" y="-266.5" font-family="Helvetica,sans-Serif" font-size="10.00">core/common/gs_config</text>
<text text-anchor="middle" x="617" y="-256.5" font-family="Helvetica,sans-Serif" font-size="10.00">/gs_config_class.h</text>
</a>
</g>
</g>
<!-- Node8&#45;&gt;Node10 -->
<g id="edge13" class="edge"><title>Node8&#45;&gt;Node10</title>
<path fill="none" stroke="midnightblue" d="M572.23,-315.435C578.924,-307.969 589.173,-296.538 598.176,-286.496"/>
<polygon fill="midnightblue" stroke="midnightblue" points="600.968,-288.625 605.038,-278.843 595.756,-283.952 600.968,-288.625"/>
</g>
<!-- Node9&#45;&gt;Node4 -->
<g id="edge11" class="edge"><title>Node9&#45;&gt;Node4</title>
<path fill="none" stroke="midnightblue" d="M208.559,-250.446C193.662,-239.901 172.75,-225.098 157.562,-214.347"/>
<polygon fill="midnightblue" stroke="midnightblue" points="159.554,-211.469 149.369,-208.548 155.509,-217.182 159.554,-211.469"/>
</g>
<!-- Node9&#45;&gt;Node5 -->
<g id="edge12" class="edge"><title>Node9&#45;&gt;Node5</title>
<path fill="none" stroke="midnightblue" d="M194.191,-250.42C170.372,-240.759 137.467,-227.07 109,-214 108.303,-213.68 107.598,-213.353 106.888,-213.02"/>
<polygon fill="midnightblue" stroke="midnightblue" points="108.145,-209.74 97.6197,-208.53 105.093,-216.04 108.145,-209.74"/>
</g>
<!-- Node10&#45;&gt;Node4 -->
<g id="edge14" class="edge"><title>Node10&#45;&gt;Node4</title>
<path fill="none" stroke="midnightblue" d="M555.781,-259.243C450.277,-251.495 238.625,-234.025 167,-214 165.529,-213.589 164.04,-213.11 162.553,-212.583"/>
<polygon fill="midnightblue" stroke="midnightblue" points="163.572,-209.217 152.995,-208.611 160.886,-215.681 163.572,-209.217"/>
</g>
<!-- Node11 -->
<g id="node11" class="node"><title>Node11</title>
<polygon fill="white" stroke="#bfbfbf" points="1221.83,-65.5 1221.83,-83.5 1276.17,-83.5 1276.17,-65.5 1221.83,-65.5"/>
<text text-anchor="middle" x="1249" y="-71.5" font-family="Helvetica,sans-Serif" font-size="10.00">iostream</text>
</g>
<!-- Node10&#45;&gt;Node11 -->
<g id="edge15" class="edge"><title>Node10&#45;&gt;Node11</title>
<path fill="none" stroke="midnightblue" d="M678.397,-251.264C681.301,-250.81 684.18,-250.385 687,-250 785.08,-236.607 1042.88,-259.098 1131,-214 1158.63,-199.859 1213.38,-125.809 1237.33,-92.164"/>
<polygon fill="midnightblue" stroke="midnightblue" points="1240.3,-94.0159 1243.22,-83.8292 1234.59,-89.9762 1240.3,-94.0159"/>
</g>
<!-- Node12 -->
<g id="node12" class="node"><title>Node12</title>
<polygon fill="white" stroke="#bfbfbf" points="806.219,-190.5 806.219,-208.5 857.781,-208.5 857.781,-190.5 806.219,-190.5"/>
<text text-anchor="middle" x="832" y="-196.5" font-family="Helvetica,sans-Serif" font-size="10.00">sstream</text>
</g>
<!-- Node10&#45;&gt;Node12 -->
<g id="edge16" class="edge"><title>Node10&#45;&gt;Node12</title>
<path fill="none" stroke="midnightblue" d="M665.472,-250.487C700.707,-240.858 749.477,-227.181 792,-214 794.304,-213.286 796.676,-212.532 799.061,-211.761"/>
<polygon fill="midnightblue" stroke="midnightblue" points="800.397,-215.006 808.797,-208.549 798.204,-208.359 800.397,-215.006"/>
</g>
<!-- Node13 -->
<g id="node13" class="node"><title>Node13</title>
<polygon fill="white" stroke="#bfbfbf" points="875.633,-190.5 875.633,-208.5 978.367,-208.5 978.367,-190.5 875.633,-190.5"/>
<text text-anchor="middle" x="927" y="-196.5" font-family="Helvetica,sans-Serif" font-size="10.00">boost/tokenizer.hpp</text>
</g>
<!-- Node10&#45;&gt;Node13 -->
<g id="edge17" class="edge"><title>Node10&#45;&gt;Node13</title>
<path fill="none" stroke="midnightblue" d="M678.326,-251.546C740.295,-239.433 831.774,-221.449 867,-214 871.965,-212.95 877.155,-211.825 882.315,-210.688"/>
<polygon fill="midnightblue" stroke="midnightblue" points="883.132,-214.092 892.134,-208.505 881.612,-207.259 883.132,-214.092"/>
</g>
<!-- Node14 -->
<g id="node14" class="node"><title>Node14</title>
<g id="a_node14"><a xlink:href="common_8h.html" target="_top" xlink:title="core/common/common.h">
<polygon fill="white" stroke="black" points="995.98,-190.5 995.98,-208.5 1122.02,-208.5 1122.02,-190.5 995.98,-190.5"/>
<text text-anchor="middle" x="1059" y="-196.5" font-family="Helvetica,sans-Serif" font-size="10.00">core/common/common.h</text>
</a>
</g>
</g>
<!-- Node10&#45;&gt;Node14 -->
<g id="edge18" class="edge"><title>Node10&#45;&gt;Node14</title>
<path fill="none" stroke="midnightblue" d="M678.417,-251.399C681.315,-250.909 684.187,-250.439 687,-250 819.681,-229.272 854.266,-234.385 987,-214 994.087,-212.912 1001.54,-211.648 1008.86,-210.339"/>
<polygon fill="midnightblue" stroke="midnightblue" points="1009.51,-213.779 1018.71,-208.538 1008.25,-206.894 1009.51,-213.779"/>
</g>
<!-- Node26 -->
<g id="node26" class="node"><title>Node26</title>
<g id="a_node26"><a xlink:href="gs__config__t_8h.html" target="_top" xlink:title="core/common/gs_config\l/gs_config_t.h">
<polygon fill="white" stroke="black" points="1177.92,-185.5 1177.92,-213.5 1300.08,-213.5 1300.08,-185.5 1177.92,-185.5"/>
<text text-anchor="start" x="1185.92" y="-201.5" font-family="Helvetica,sans-Serif" font-size="10.00">core/common/gs_config</text>
<text text-anchor="middle" x="1239" y="-191.5" font-family="Helvetica,sans-Serif" font-size="10.00">/gs_config_t.h</text>
</a>
</g>
</g>
<!-- Node10&#45;&gt;Node26 -->
<g id="edge35" class="edge"><title>Node10&#45;&gt;Node26</title>
<path fill="none" stroke="midnightblue" d="M678.394,-251.245C681.299,-250.796 684.178,-250.377 687,-250 897.727,-221.823 953.102,-240.867 1164,-214 1165.12,-213.858 1166.24,-213.71 1167.37,-213.558"/>
<polygon fill="midnightblue" stroke="midnightblue" points="1168.29,-216.962 1177.68,-212.066 1167.29,-210.034 1168.29,-216.962"/>
</g>
<!-- Node27 -->
<g id="node27" class="node"><title>Node27</title>
<g id="a_node27"><a xlink:href="gs__config__operator__macros_8h.html" target="_top" xlink:title="core/common/gs_config\l/gs_config_operator_macros.h">
<polygon fill="white" stroke="black" points="176.461,-185.5 176.461,-213.5 327.539,-213.5 327.539,-185.5 176.461,-185.5"/>
<text text-anchor="start" x="184.461" y="-201.5" font-family="Helvetica,sans-Serif" font-size="10.00">core/common/gs_config</text>
<text text-anchor="middle" x="252" y="-191.5" font-family="Helvetica,sans-Serif" font-size="10.00">/gs_config_operator_macros.h</text>
</a>
</g>
</g>
<!-- Node10&#45;&gt;Node27 -->
<g id="edge36" class="edge"><title>Node10&#45;&gt;Node27</title>
<path fill="none" stroke="midnightblue" d="M555.907,-252.955C496.163,-242.643 404.651,-226.848 337.654,-215.284"/>
<polygon fill="midnightblue" stroke="midnightblue" points="337.987,-211.79 327.537,-213.538 336.796,-218.688 337.987,-211.79"/>
</g>
<!-- Node28 -->
<g id="node28" class="node"><title>Node28</title>
<g id="a_node28"><a xlink:href="gs__config__delegate_8h.html" target="_top" xlink:title="core/common/gs_config\l/gs_config_delegate.h">
<polygon fill="white" stroke="black" points="345.919,-185.5 345.919,-213.5 468.081,-213.5 468.081,-185.5 345.919,-185.5"/>
<text text-anchor="start" x="353.919" y="-201.5" font-family="Helvetica,sans-Serif" font-size="10.00">core/common/gs_config</text>
<text text-anchor="middle" x="407" y="-191.5" font-family="Helvetica,sans-Serif" font-size="10.00">/gs_config_delegate.h</text>
</a>
</g>
</g>
<!-- Node10&#45;&gt;Node28 -->
<g id="edge37" class="edge"><title>Node10&#45;&gt;Node28</title>
<path fill="none" stroke="midnightblue" d="M573.488,-250.446C540.544,-240.563 495.131,-226.939 460.056,-216.417"/>
<polygon fill="midnightblue" stroke="midnightblue" points="461.04,-213.058 450.456,-213.537 459.029,-219.763 461.04,-213.058"/>
</g>
<!-- Node29 -->
<g id="node29" class="node"><title>Node29</title>
<g id="a_node29"><a xlink:href="gs__config__native_8hpp.html" target="_top" xlink:title="core/common/gs_config\l/gs_config_native.hpp">
<polygon fill="white" stroke="black" points="485.919,-185.5 485.919,-213.5 608.081,-213.5 608.081,-185.5 485.919,-185.5"/>
<text text-anchor="start" x="493.919" y="-201.5" font-family="Helvetica,sans-Serif" font-size="10.00">core/common/gs_config</text>
<text text-anchor="middle" x="547" y="-191.5" font-family="Helvetica,sans-Serif" font-size="10.00">/gs_config_native.hpp</text>
</a>
</g>
</g>
<!-- Node10&#45;&gt;Node29 -->
<g id="edge38" class="edge"><title>Node10&#45;&gt;Node29</title>
<path fill="none" stroke="midnightblue" d="M602.496,-250.446C592.829,-241.746 579.94,-230.146 569.017,-220.316"/>
<polygon fill="midnightblue" stroke="midnightblue" points="571.26,-217.625 561.485,-213.537 566.577,-222.828 571.26,-217.625"/>
</g>
<!-- Node30 -->
<g id="node30" class="node"><title>Node30</title>
<g id="a_node30"><a xlink:href="gs__config__stdint_8hpp.html" target="_top" xlink:title="core/common/gs_config\l/gs_config_stdint.hpp">
<polygon fill="white" stroke="black" points="678.919,-120.5 678.919,-148.5 801.081,-148.5 801.081,-120.5 678.919,-120.5"/>
<text text-anchor="start" x="686.919" y="-136.5" font-family="Helvetica,sans-Serif" font-size="10.00">core/common/gs_config</text>
<text text-anchor="middle" x="740" y="-126.5" font-family="Helvetica,sans-Serif" font-size="10.00">/gs_config_stdint.hpp</text>
</a>
</g>
</g>
<!-- Node10&#45;&gt;Node30 -->
<g id="edge39" class="edge"><title>Node10&#45;&gt;Node30</title>
<path fill="none" stroke="midnightblue" d="M675.341,-250.407C709.863,-241.346 748.794,-228.366 759,-214 770.744,-197.469 763.156,-174.564 754.33,-157.761"/>
<polygon fill="midnightblue" stroke="midnightblue" points="757.131,-155.61 749.127,-148.668 751.056,-159.086 757.131,-155.61"/>
</g>
<!-- Node31 -->
<g id="node31" class="node"><title>Node31</title>
<g id="a_node31"><a xlink:href="gs__config__systemc_8hpp.html" target="_top" xlink:title="core/common/gs_config\l/gs_config_systemc.hpp">
<polygon fill="white" stroke="black" points="626.36,-185.5 626.36,-213.5 749.64,-213.5 749.64,-185.5 626.36,-185.5"/>
<text text-anchor="start" x="634.36" y="-201.5" font-family="Helvetica,sans-Serif" font-size="10.00">core/common/gs_config</text>
<text text-anchor="middle" x="688" y="-191.5" font-family="Helvetica,sans-Serif" font-size="10.00">/gs_config_systemc.hpp</text>
</a>
</g>
</g>
<!-- Node10&#45;&gt;Node31 -->
<g id="edge41" class="edge"><title>Node10&#45;&gt;Node31</title>
<path fill="none" stroke="midnightblue" d="M631.711,-250.446C641.517,-241.746 654.589,-230.146 665.668,-220.316"/>
<polygon fill="midnightblue" stroke="midnightblue" points="668.151,-222.792 673.308,-213.537 663.505,-217.556 668.151,-222.792"/>
</g>
<!-- Node15 -->
<g id="node15" class="node"><title>Node15</title>
<g id="a_node15"><a xlink:href="systemc_8h.html" target="_top" xlink:title="core/common/systemc.h">
<polygon fill="white" stroke="black" points="790.818,-65.5 790.818,-83.5 915.182,-83.5 915.182,-65.5 790.818,-65.5"/>
<text text-anchor="middle" x="853" y="-71.5" font-family="Helvetica,sans-Serif" font-size="10.00">core/common/systemc.h</text>
</a>
</g>
</g>
<!-- Node14&#45;&gt;Node15 -->
<g id="edge19" class="edge"><title>Node14&#45;&gt;Node15</title>
<path fill="none" stroke="midnightblue" d="M1046.83,-190.249C1032.6,-180.548 1008.39,-163.88 988,-149 970.838,-136.477 968.211,-130.941 950,-120 928.669,-107.185 903.021,-95.5678 883.457,-87.4191"/>
<polygon fill="midnightblue" stroke="midnightblue" points="884.693,-84.1432 874.112,-83.5969 882.043,-90.6222 884.693,-84.1432"/>
</g>
<!-- Node20 -->
<g id="node20" class="node"><title>Node20</title>
<g id="a_node20"><a xlink:href="vendian_8h.html" target="_top" xlink:title="core/common/vendian.h">
<polygon fill="white" stroke="black" points="818.638,-125.5 818.638,-143.5 941.362,-143.5 941.362,-125.5 818.638,-125.5"/>
<text text-anchor="middle" x="880" y="-131.5" font-family="Helvetica,sans-Serif" font-size="10.00">core/common/vendian.h</text>
</a>
</g>
</g>
<!-- Node14&#45;&gt;Node20 -->
<g id="edge25" class="edge"><title>Node14&#45;&gt;Node20</title>
<path fill="none" stroke="midnightblue" d="M1035.97,-190.393C1004.55,-179.336 948.101,-159.468 912.421,-146.911"/>
<polygon fill="midnightblue" stroke="midnightblue" points="913.541,-143.595 902.946,-143.576 911.217,-150.198 913.541,-143.595"/>
</g>
<!-- Node21 -->
<g id="node21" class="node"><title>Node21</title>
<g id="a_node21"><a xlink:href="verbose_8h.html" target="_top" xlink:title="core/common/verbose.h">
<polygon fill="white" stroke="black" points="997.365,-125.5 997.365,-143.5 1120.64,-143.5 1120.64,-125.5 997.365,-125.5"/>
<text text-anchor="middle" x="1059" y="-131.5" font-family="Helvetica,sans-Serif" font-size="10.00">core/common/verbose.h</text>
</a>
</g>
</g>
<!-- Node14&#45;&gt;Node21 -->
<g id="edge27" class="edge"><title>Node14&#45;&gt;Node21</title>
<path fill="none" stroke="midnightblue" d="M1054.27,-190.264C1052.2,-180.969 1051.72,-165.567 1052.84,-153.461"/>
<polygon fill="midnightblue" stroke="midnightblue" points="1056.3,-153.945 1054.31,-143.539 1049.38,-152.915 1056.3,-153.945"/>
</g>
<!-- Node15&#45;&gt;Node15 -->
<g id="edge20" class="edge"><title>Node15&#45;&gt;Node15</title>
<path fill="none" stroke="midnightblue" d="M879.695,-83.5191C905.266,-88.3462 933.182,-85.3398 933.182,-74.5 933.182,-65.0575 912,-61.559 889.636,-64.0047"/>
<polygon fill="midnightblue" stroke="midnightblue" points="889.072,-60.5499 879.695,-65.4809 890.101,-67.474 889.072,-60.5499"/>
</g>
<!-- Node16 -->
<g id="node16" class="node"><title>Node16</title>
<polygon fill="white" stroke="#bfbfbf" points="671.165,-5.5 671.165,-23.5 708.835,-23.5 708.835,-5.5 671.165,-5.5"/>
<text text-anchor="middle" x="690" y="-11.5" font-family="Helvetica,sans-Serif" font-size="10.00">tlm.h</text>
</g>
<!-- Node15&#45;&gt;Node16 -->
<g id="edge21" class="edge"><title>Node15&#45;&gt;Node16</title>
<path fill="none" stroke="midnightblue" d="M824.952,-65.4262C797.377,-57.2158 754.268,-43.6477 718,-29 716.999,-28.5958 715.984,-28.1724 714.962,-27.7352"/>
<polygon fill="midnightblue" stroke="midnightblue" points="716.381,-24.5353 705.83,-23.5764 713.48,-30.906 716.381,-24.5353"/>
</g>
<!-- Node17 -->
<g id="node17" class="node"><title>Node17</title>
<polygon fill="white" stroke="#bfbfbf" points="727.259,-0.5 727.259,-28.5 842.741,-28.5 842.741,-0.5 727.259,-0.5"/>
<text text-anchor="start" x="735.259" y="-16.5" font-family="Helvetica,sans-Serif" font-size="10.00">tlm_utils/simple_target</text>
<text text-anchor="middle" x="785" y="-6.5" font-family="Helvetica,sans-Serif" font-size="10.00">_socket.h</text>
</g>
<!-- Node15&#45;&gt;Node17 -->
<g id="edge22" class="edge"><title>Node15&#45;&gt;Node17</title>
<path fill="none" stroke="midnightblue" d="M843.545,-65.4353C834.472,-57.6965 820.405,-45.6986 808.334,-35.4029"/>
<polygon fill="midnightblue" stroke="midnightblue" points="810.262,-32.4469 800.382,-28.6203 805.719,-37.7728 810.262,-32.4469"/>
</g>
<!-- Node18 -->
<g id="node18" class="node"><title>Node18</title>
<polygon fill="white" stroke="#bfbfbf" points="860.926,-0.5 860.926,-28.5 983.074,-28.5 983.074,-0.5 860.926,-0.5"/>
<text text-anchor="start" x="868.926" y="-16.5" font-family="Helvetica,sans-Serif" font-size="10.00">tlm_utils/simple_initiator</text>
<text text-anchor="middle" x="922" y="-6.5" font-family="Helvetica,sans-Serif" font-size="10.00">_socket.h</text>
</g>
<!-- Node15&#45;&gt;Node18 -->
<g id="edge23" class="edge"><title>Node15&#45;&gt;Node18</title>
<path fill="none" stroke="midnightblue" d="M862.594,-65.4353C871.889,-57.6221 886.349,-45.4675 898.675,-35.1064"/>
<polygon fill="midnightblue" stroke="midnightblue" points="900.989,-37.7341 906.391,-28.6203 896.484,-32.3757 900.989,-37.7341"/>
</g>
<!-- Node19 -->
<g id="node19" class="node"><title>Node19</title>
<polygon fill="white" stroke="#bfbfbf" points="1001.26,-0.5 1001.26,-28.5 1096.74,-28.5 1096.74,-0.5 1001.26,-0.5"/>
<text text-anchor="start" x="1009.26" y="-16.5" font-family="Helvetica,sans-Serif" font-size="10.00">tlm_utils/peq_with</text>
<text text-anchor="middle" x="1049" y="-6.5" font-family="Helvetica,sans-Serif" font-size="10.00">_get.h</text>
</g>
<!-- Node15&#45;&gt;Node19 -->
<g id="edge24" class="edge"><title>Node15&#45;&gt;Node19</title>
<path fill="none" stroke="midnightblue" d="M880.253,-65.4353C909.896,-56.6634 958.031,-42.4193 995.321,-31.3847"/>
<polygon fill="midnightblue" stroke="midnightblue" points="996.441,-34.7033 1005.04,-28.5096 994.455,-27.991 996.441,-34.7033"/>
</g>
<!-- Node20&#45;&gt;Node2 -->
<g id="edge26" class="edge"><title>Node20&#45;&gt;Node2</title>
<path fill="none" stroke="midnightblue" d="M860.534,-125.435C836.846,-115.622 796.626,-98.9593 769.217,-87.604"/>
<polygon fill="midnightblue" stroke="midnightblue" points="770.331,-84.2771 759.752,-83.6831 767.651,-90.7441 770.331,-84.2771"/>
</g>
<!-- Node21&#45;&gt;Node11 -->
<g id="edge31" class="edge"><title>Node21&#45;&gt;Node11</title>
<path fill="none" stroke="midnightblue" d="M1085.42,-125.435C1118.51,-115.335 1175.36,-97.9798 1212.56,-86.6227"/>
<polygon fill="midnightblue" stroke="midnightblue" points="1213.96,-89.8566 1222.5,-83.5894 1211.91,-83.1616 1213.96,-89.8566"/>
</g>
<!-- Node21&#45;&gt;Node14 -->
<g id="edge33" class="edge"><title>Node21&#45;&gt;Node14</title>
<path fill="none" stroke="midnightblue" d="M1063.69,-143.539C1065.78,-152.747 1066.28,-168.128 1065.19,-180.281"/>
<polygon fill="midnightblue" stroke="midnightblue" points="1061.71,-179.864 1063.73,-190.264 1068.64,-180.873 1061.71,-179.864"/>
</g>
<!-- Node21&#45;&gt;Node15 -->
<g id="edge34" class="edge"><title>Node21&#45;&gt;Node15</title>
<path fill="none" stroke="midnightblue" d="M1030.36,-125.435C994.176,-115.249 931.787,-97.6826 891.475,-86.3328"/>
<polygon fill="midnightblue" stroke="midnightblue" points="892.306,-82.9307 881.731,-83.5894 890.409,-89.6687 892.306,-82.9307"/>
</g>
<!-- Node22 -->
<g id="node22" class="node"><title>Node22</title>
<polygon fill="white" stroke="#bfbfbf" points="1028.94,-65.5 1028.94,-83.5 1071.06,-83.5 1071.06,-65.5 1028.94,-65.5"/>
<text text-anchor="middle" x="1050" y="-71.5" font-family="Helvetica,sans-Serif" font-size="10.00">cstdio</text>
</g>
<!-- Node21&#45;&gt;Node22 -->
<g id="edge28" class="edge"><title>Node21&#45;&gt;Node22</title>
<path fill="none" stroke="midnightblue" d="M1057.75,-125.435C1056.49,-117.304 1054.5,-104.469 1052.85,-93.8485"/>
<polygon fill="midnightblue" stroke="midnightblue" points="1056.29,-93.2168 1051.3,-83.8718 1049.37,-94.2902 1056.29,-93.2168"/>
</g>
<!-- Node23 -->
<g id="node23" class="node"><title>Node23</title>
<polygon fill="white" stroke="#bfbfbf" points="1089.27,-65.5 1089.27,-83.5 1134.73,-83.5 1134.73,-65.5 1089.27,-65.5"/>
<text text-anchor="middle" x="1112" y="-71.5" font-family="Helvetica,sans-Serif" font-size="10.00">cstring</text>
</g>
<!-- Node21&#45;&gt;Node23 -->
<g id="edge29" class="edge"><title>Node21&#45;&gt;Node23</title>
<path fill="none" stroke="midnightblue" d="M1066.37,-125.435C1074.35,-116.704 1087.28,-102.552 1097.34,-91.5395"/>
<polygon fill="midnightblue" stroke="midnightblue" points="1100.19,-93.6149 1104.35,-83.8718 1095.02,-88.8929 1100.19,-93.6149"/>
</g>
<!-- Node24 -->
<g id="node24" class="node"><title>Node24</title>
<polygon fill="white" stroke="#bfbfbf" points="1152.49,-65.5 1152.49,-83.5 1203.51,-83.5 1203.51,-65.5 1152.49,-65.5"/>
<text text-anchor="middle" x="1178" y="-71.5" font-family="Helvetica,sans-Serif" font-size="10.00">iomanip</text>
</g>
<!-- Node21&#45;&gt;Node24 -->
<g id="edge30" class="edge"><title>Node21&#45;&gt;Node24</title>
<path fill="none" stroke="midnightblue" d="M1075.55,-125.435C1095.33,-115.794 1128.67,-99.5418 1151.93,-88.2065"/>
<polygon fill="midnightblue" stroke="midnightblue" points="1153.75,-91.2107 1161.21,-83.6831 1150.69,-84.9182 1153.75,-91.2107"/>
</g>
<!-- Node25 -->
<g id="node25" class="node"><title>Node25</title>
<polygon fill="white" stroke="#bfbfbf" points="950.769,-65.5 950.769,-83.5 1011.23,-83.5 1011.23,-65.5 950.769,-65.5"/>
<text text-anchor="middle" x="981" y="-71.5" font-family="Helvetica,sans-Serif" font-size="10.00">streambuf</text>
</g>
<!-- Node21&#45;&gt;Node25 -->
<g id="edge32" class="edge"><title>Node21&#45;&gt;Node25</title>
<path fill="none" stroke="midnightblue" d="M1048.15,-125.435C1035.84,-116.276 1015.5,-101.152 1000.42,-89.9437"/>
<polygon fill="midnightblue" stroke="midnightblue" points="1002.37,-87.0302 992.259,-83.8718 998.195,-92.6474 1002.37,-87.0302"/>
</g>
<!-- Node30&#45;&gt;Node2 -->
<g id="edge40" class="edge"><title>Node30&#45;&gt;Node2</title>
<path fill="none" stroke="midnightblue" d="M740,-120.339C740,-112.531 740,-102.512 740,-93.9265"/>
<polygon fill="midnightblue" stroke="midnightblue" points="743.5,-93.7714 740,-83.7715 736.5,-93.7715 743.5,-93.7714"/>
</g>
</g>
</svg>
        <g id="navigator" transform="translate(0 0)" fill="#404254">
                <rect fill="#f2f5e9" fill-opacity="0.5" stroke="#606060" stroke-width=".5" x="0" y="0" width="60" height="60"/>
                <use id="zoomplus" xlink:href="#zoomPlus" x="17" y="9" onmousedown="handleZoom(evt,'in')"/>
                <use id="zoomminus" xlink:href="#zoomMin" x="42" y="9" onmousedown="handleZoom(evt,'out')"/>
                <use id="reset" xlink:href="#resetDef" x="30" y="36" onmousedown="handleReset()"/>
                <g id="arrowUp" xlink:href="#dirArrow" transform="translate(30 24)" onmousedown="handlePan(0,-1)">
                  <use xlink:href="#rim" fill="#404040">
                        <set attributeName="fill" to="#808080" begin="arrowUp.mouseover" end="arrowUp.mouseout"/>
                  </use>
                  <path fill="none" stroke="white" stroke-width="1.5" d="M0,-3.0v7 M-2.5,-0.5L0,-3.0L2.5,-0.5"/>
                </g>
                <g id="arrowRight" xlink:href="#dirArrow" transform="rotate(90) translate(36 -43)" onmousedown="handlePan(1,0)">
                  <use xlink:href="#rim" fill="#404040">
                        <set attributeName="fill" to="#808080" begin="arrowRight.mouseover" end="arrowRight.mouseout"/>
                  </use>
                  <path fill="none" stroke="white" stroke-width="1.5" d="M0,-3.0v7 M-2.5,-0.5L0,-3.0L2.5,-0.5"/>
                </g>
                <g id="arrowDown" xlink:href="#dirArrow" transform="rotate(180) translate(-30 -48)" onmousedown="handlePan(0,1)">
                  <use xlink:href="#rim" fill="#404040">
                        <set attributeName="fill" to="#808080" begin="arrowDown.mouseover" end="arrowDown.mouseout"/>
                  </use>
                  <path fill="none" stroke="white" stroke-width="1.5" d="M0,-3.0v7 M-2.5,-0.5L0,-3.0L2.5,-0.5"/>
                </g>
                <g id="arrowLeft" xlink:href="#dirArrow" transform="rotate(270) translate(-36 17)" onmousedown="handlePan(-1,0)">
                  <use xlink:href="#rim" fill="#404040">
                        <set attributeName="fill" to="#808080" begin="arrowLeft.mouseover" end="arrowLeft.mouseout"/>
                  </use>
                  <path fill="none" stroke="white" stroke-width="1.5" d="M0,-3.0v7 M-2.5,-0.5L0,-3.0L2.5,-0.5"/>
                </g>
        </g>
        <svg viewBox="0 0 15 15" width="100%" height="30px" preserveAspectRatio="xMaxYMin meet">
         <g id="arrow_out" transform="scale(0.3 0.3)">
          <a xlink:href="paramprinter_8cpp__incl_org.svg" target="_base">
           <rect id="button" ry="5" rx="5" y="6" x="6" height="38" width="38"
                fill="#f2f5e9" fill-opacity="0.5" stroke="#606060" stroke-width="1.0"/>
           <path id="arrow"
             d="M 11.500037,31.436501 C 11.940474,20.09759 22.043105,11.32322 32.158766,21.979434 L 37.068811,17.246167 C 37.068811,17.246167 37.088388,32 37.088388,32 L 22.160133,31.978069 C 22.160133,31.978069 26.997745,27.140456 26.997745,27.140456 C 18.528582,18.264221 13.291696,25.230495 11.500037,31.436501 z"
             style="fill:#404040;"/>
          </a>
         </g>
        </svg>
</svg>
