<?xml version="1.0" encoding="UTF-8" standalone="no"?>
<!DOCTYPE svg PUBLIC "-//W3C//DTD SVG 1.1//EN"
 "http://www.w3.org/Graphics/SVG/1.1/DTD/svg11.dtd">
<!-- Generated by graphviz version 2.38.0 (20140413.2041)
 -->
<!-- Title: pci_allocate_resources Pages: 1 -->
<svg width="424pt" height="99pt"
 viewBox="0.00 0.00 424.00 99.04" xmlns="http://www.w3.org/2000/svg" xmlns:xlink="http://www.w3.org/1999/xlink">
<g id="graph0" class="graph" transform="scale(1 1) rotate(0) translate(4 95.0392)">
<title>pci_allocate_resources</title>
<polygon fill="white" stroke="none" points="-4,4 -4,-95.0392 420,-95.0392 420,4 -4,4"/>
<!-- Node1 -->
<g id="node1" class="node"><title>Node1</title>
<polygon fill="#bfbfbf" stroke="black" points="0,-38.5 0,-57.5 116,-57.5 116,-38.5 0,-38.5"/>
<text text-anchor="middle" x="58" y="-45.5" font-family="Helvetica,sans-Serif" font-size="10.00">pci_allocate_resources</text>
</g>
<!-- Node2 -->
<g id="node2" class="node"><title>Node2</title>
<g id="a_node2"><a xlink:href="pcitest_8c.html#ad3eace233c2510da9c32a1c57a2f42f6" target="_top" xlink:title="pci_mem_enable">
<polygon fill="white" stroke="black" points="161.5,-19.5 161.5,-38.5 251.5,-38.5 251.5,-19.5 161.5,-19.5"/>
<text text-anchor="middle" x="206.5" y="-26.5" font-family="Helvetica,sans-Serif" font-size="10.00">pci_mem_enable</text>
</a>
</g>
</g>
<!-- Node1&#45;&gt;Node2 -->
<g id="edge1" class="edge"><title>Node1&#45;&gt;Node2</title>
<path fill="none" stroke="midnightblue" d="M116.06,-40.5997C127.501,-39.1159 139.497,-37.5601 150.854,-36.0872"/>
<polygon fill="midnightblue" stroke="midnightblue" points="151.603,-39.5194 161.07,-34.7623 150.703,-32.5776 151.603,-39.5194"/>
</g>
<!-- Node3 -->
<g id="node3" class="node"><title>Node3</title>
<g id="a_node3"><a xlink:href="pcitest_8c.html#a16516c650fc120097859b5acf4df43e2" target="_top" xlink:title="pci_read_config_dword">
<polygon fill="white" stroke="black" points="298.5,-57.5 298.5,-76.5 414.5,-76.5 414.5,-57.5 298.5,-57.5"/>
<text text-anchor="middle" x="356.5" y="-64.5" font-family="Helvetica,sans-Serif" font-size="10.00">pci_read_config_dword</text>
</a>
</g>
</g>
<!-- Node1&#45;&gt;Node3 -->
<g id="edge6" class="edge"><title>Node1&#45;&gt;Node3</title>
<path fill="none" stroke="midnightblue" d="M76.5323,-57.5792C94.7657,-66.9532 124.445,-80.5878 152,-86 205.556,-96.5195 268.222,-87.5384 309.715,-78.6927"/>
<polygon fill="midnightblue" stroke="midnightblue" points="310.523,-82.0985 319.53,-76.5185 309.009,-75.2642 310.523,-82.0985"/>
</g>
<!-- Node4 -->
<g id="node4" class="node"><title>Node4</title>
<g id="a_node4"><a xlink:href="pcitest_8c.html#a93bb4fb504978f74f9311aa2879e9384" target="_top" xlink:title="pci_write_config_dword">
<polygon fill="white" stroke="black" points="297,-0.5 297,-19.5 416,-19.5 416,-0.5 297,-0.5"/>
<text text-anchor="middle" x="356.5" y="-7.5" font-family="Helvetica,sans-Serif" font-size="10.00">pci_write_config_dword</text>
</a>
</g>
</g>
<!-- Node1&#45;&gt;Node4 -->
<g id="edge7" class="edge"><title>Node1&#45;&gt;Node4</title>
<path fill="none" stroke="midnightblue" d="M76.5323,-38.4208C94.7657,-29.0468 124.445,-15.4122 152,-10 196.17,-1.32427 246.78,-1.28422 286.479,-3.43299"/>
<polygon fill="midnightblue" stroke="midnightblue" points="286.395,-6.93417 296.587,-4.03964 286.815,0.0532605 286.395,-6.93417"/>
</g>
<!-- Node5 -->
<g id="node5" class="node"><title>Node5</title>
<g id="a_node5"><a xlink:href="pcitest_8c.html#a74212783d4ee813833618da5a586746a" target="_top" xlink:title="pci_read_config_byte">
<polygon fill="white" stroke="black" points="152,-57.5 152,-76.5 261,-76.5 261,-57.5 152,-57.5"/>
<text text-anchor="middle" x="206.5" y="-64.5" font-family="Helvetica,sans-Serif" font-size="10.00">pci_read_config_byte</text>
</a>
</g>
</g>
<!-- Node1&#45;&gt;Node5 -->
<g id="edge4" class="edge"><title>Node1&#45;&gt;Node5</title>
<path fill="none" stroke="midnightblue" d="M116.06,-55.4003C124.491,-56.4937 133.223,-57.6262 141.779,-58.7358"/>
<polygon fill="midnightblue" stroke="midnightblue" points="141.345,-62.2088 151.713,-60.0242 142.246,-55.267 141.345,-62.2088"/>
</g>
<!-- Node2&#45;&gt;Node3 -->
<g id="edge2" class="edge"><title>Node2&#45;&gt;Node3</title>
<path fill="none" stroke="midnightblue" d="M244.847,-38.589C264.201,-43.5583 288.03,-49.6767 308.613,-54.9613"/>
<polygon fill="midnightblue" stroke="midnightblue" points="307.866,-58.383 318.422,-57.4799 309.607,-51.6029 307.866,-58.383"/>
</g>
<!-- Node2&#45;&gt;Node4 -->
<g id="edge3" class="edge"><title>Node2&#45;&gt;Node4</title>
<path fill="none" stroke="midnightblue" d="M251.504,-23.3508C262.621,-21.9236 274.825,-20.3569 286.841,-18.8144"/>
<polygon fill="midnightblue" stroke="midnightblue" points="287.388,-22.2729 296.861,-17.528 286.497,-15.3299 287.388,-22.2729"/>
</g>
<!-- Node5&#45;&gt;Node3 -->
<g id="edge5" class="edge"><title>Node5&#45;&gt;Node3</title>
<path fill="none" stroke="midnightblue" d="M261.35,-67C270.117,-67 279.293,-67 288.332,-67"/>
<polygon fill="midnightblue" stroke="midnightblue" points="288.45,-70.5001 298.45,-67 288.45,-63.5001 288.45,-70.5001"/>
</g>
</g>
</svg>
