<?xml version="1.0" encoding="UTF-8" standalone="no"?>
<!DOCTYPE svg PUBLIC "-//W3C//DTD SVG 1.1//EN"
 "http://www.w3.org/Graphics/SVG/1.1/DTD/svg11.dtd">
<!-- Generated by graphviz version 2.26.0 (20091210.2329)
 -->
<!-- Title: init_pci Pages: 1 -->
<!--zoomable 166 -->
<svg id="main" version="1.1" xmlns="http://www.w3.org/2000/svg" xmlns:xlink="http://www.w3.org/1999/xlink" xml:space="preserve" onload="init(evt)">
<style type="text/css"><![CDATA[
.edge:hover path { stroke: red; }
.edge:hover polygon { stroke: red; fill: red; }
]]></style>
<script type="text/javascript"><![CDATA[
var edges = document.getElementsByTagName('g');
if (edges && edges.length) {
  for (var i=0;i<edges.length;i++) {
    if (edges[i].id.substr(0,4)=='edge') {
      edges[i].setAttribute('class','edge');
    }
  }
}
]]></script>
        <defs>
                <circle id="rim" cx="0" cy="0" r="7"/>
                <circle id="rim2" cx="0" cy="0" r="3.5"/>
                <g id="zoomPlus">
                        <use xlink:href="#rim" fill="#404040">
                                <set attributeName="fill" to="#808080" begin="zoomplus.mouseover" end="zoomplus.mouseout"/>
                        </use>
                        <path d="M-4,0h8M0,-4v8" fill="none" stroke="white" stroke-width="1.5" pointer-events="none"/>
                </g>
                <g id="zoomMin">
                        <use xlink:href="#rim" fill="#404040">
                                <set attributeName="fill" to="#808080" begin="zoomminus.mouseover" end="zoomminus.mouseout"/>
                        </use>
                        <path d="M-4,0h8" fill="none" stroke="white" stroke-width="1.5" pointer-events="none"/>
                </g>
                <g id="dirArrow">
                        <path fill="none" stroke="white" stroke-width="1.5" d="M0,-3.0v7 M-2.5,-0.5L0,-3.0L2.5,-0.5"/>
                </g>
               <g id="resetDef">
                       <use xlink:href="#rim2" fill="#404040">
                               <set attributeName="fill" to="#808080" begin="reset.mouseover" end="reset.mouseout"/>
                       </use>
               </g>
        </defs>

<script type="text/javascript">
var viewWidth = 510;
var viewHeight = 166;
var sectionId = 'dynsection-1';
</script>
<script xlink:href="svgpan.js"/>
<svg id="graph" class="graph">
<g id="viewport">
<title>init_pci</title>
<polygon fill="white" stroke="white" points="-4,5 -4,-161.99 507,-161.99 507,5 -4,5"/>
<!-- Node1 -->
<g id="node1" class="node"><title>Node1</title>
<polygon fill="#bfbfbf" stroke="black" points="0.5,-87.4904 0.5,-108.49 47.5,-108.49 47.5,-87.4904 0.5,-87.4904"/>
<text text-anchor="middle" x="24" y="-95.4904" font-family="Helvetica,sans-Serif" font-size="10.00">init_pci</text>
</g>
<!-- Node2 -->
<g id="node3" class="node"><title>Node2</title>
<a xlink:href="pcitest_8c.html#a2cab4f12aa62e04c71eb4f62a3fdacbe" target="_top" xlink:title="init_grpci">
<polygon fill="white" stroke="black" points="263,-136.49 263,-157.49 319,-157.49 319,-136.49 263,-136.49"/>
<text text-anchor="middle" x="291" y="-144.49" font-family="Helvetica,sans-Serif" font-size="10.00">init_grpci</text>
</a>
</g>
<!-- Node1&#45;&gt;Node2 -->
<g id="edge2" class="edge"><title>Node1&#45;&gt;Node2</title>
<path fill="none" stroke="midnightblue" d="M47.6945,-102.339C94.0718,-110.85 197.176,-129.772 253.124,-140.039"/>
<polygon fill="midnightblue" stroke="midnightblue" points="252.53,-143.489 262.998,-141.851 253.794,-136.604 252.53,-143.489"/>
</g>
<!-- Node5 -->
<g id="node9" class="node"><title>Node5</title>
<a xlink:href="pcitest_8c.html#aebf92f40c64d6477423f9831f5884a5f" target="_top" xlink:title="pci_allocate_resources">
<polygon fill="white" stroke="black" points="84,-58.4904 84,-79.4904 200,-79.4904 200,-58.4904 84,-58.4904"/>
<text text-anchor="middle" x="142" y="-66.4904" font-family="Helvetica,sans-Serif" font-size="10.00">pci_allocate_resources</text>
</a>
</g>
<!-- Node1&#45;&gt;Node5 -->
<g id="edge8" class="edge"><title>Node1&#45;&gt;Node5</title>
<path fill="none" stroke="midnightblue" d="M47.5955,-92.1915C59.5083,-89.2638 74.477,-85.585 88.9615,-82.0253"/>
<polygon fill="midnightblue" stroke="midnightblue" points="89.9927,-85.3761 98.8684,-79.5906 88.322,-78.5784 89.9927,-85.3761"/>
</g>
<!-- Node3 -->
<g id="node5" class="node"><title>Node3</title>
<a xlink:href="pcitest_8c.html#a16516c650fc120097859b5acf4df43e2" target="_top" xlink:title="pci_read_config_dword">
<polygon fill="white" stroke="black" points="384,-38.4904 384,-59.4904 500,-59.4904 500,-38.4904 384,-38.4904"/>
<text text-anchor="middle" x="442" y="-46.4904" font-family="Helvetica,sans-Serif" font-size="10.00">pci_read_config_dword</text>
</a>
</g>
<!-- Node2&#45;&gt;Node3 -->
<g id="edge4" class="edge"><title>Node2&#45;&gt;Node3</title>
<path fill="none" stroke="midnightblue" d="M307.447,-136.316C333.884,-119.159 386.002,-85.3336 417.042,-65.1882"/>
<polygon fill="midnightblue" stroke="midnightblue" points="419.09,-68.0315 425.573,-59.6515 415.28,-62.1597 419.09,-68.0315"/>
</g>
<!-- Node4 -->
<g id="node7" class="node"><title>Node4</title>
<a xlink:href="pcitest_8c.html#a93bb4fb504978f74f9311aa2879e9384" target="_top" xlink:title="pci_write_config_dword">
<polygon fill="white" stroke="black" points="382.5,-97.4904 382.5,-118.49 501.5,-118.49 501.5,-97.4904 382.5,-97.4904"/>
<text text-anchor="middle" x="442" y="-105.49" font-family="Helvetica,sans-Serif" font-size="10.00">pci_write_config_dword</text>
</a>
</g>
<!-- Node2&#45;&gt;Node4 -->
<g id="edge6" class="edge"><title>Node2&#45;&gt;Node4</title>
<path fill="none" stroke="midnightblue" d="M319.048,-139.746C339.363,-134.499 367.385,-127.262 391.547,-121.021"/>
<polygon fill="midnightblue" stroke="midnightblue" points="392.477,-124.396 401.284,-118.506 390.727,-117.618 392.477,-124.396"/>
</g>
<!-- Node5&#45;&gt;Node3 -->
<g id="edge20" class="edge"><title>Node5&#45;&gt;Node3</title>
<path fill="none" stroke="midnightblue" d="M153.649,-58.3642C170.396,-43.8832 202.919,-18.6483 236,-8.99041 282.93,4.7106 298.061,0.59749 346,-8.99041 369.821,-13.7547 395.121,-24.5601 413.765,-33.7405"/>
<polygon fill="midnightblue" stroke="midnightblue" points="412.362,-36.9536 422.864,-38.3526 415.527,-30.7098 412.362,-36.9536"/>
</g>
<!-- Node5&#45;&gt;Node4 -->
<g id="edge22" class="edge"><title>Node5&#45;&gt;Node4</title>
<path fill="none" stroke="midnightblue" d="M186.273,-79.5306C201.912,-82.9556 219.67,-86.5088 236,-88.9904 281.077,-95.8403 332.105,-100.569 372.097,-103.596"/>
<polygon fill="midnightblue" stroke="midnightblue" points="372.048,-107.101 382.279,-104.348 372.564,-100.12 372.048,-107.101"/>
</g>
<!-- Node6 -->
<g id="node11" class="node"><title>Node6</title>
<a xlink:href="pcitest_8c.html#ad3eace233c2510da9c32a1c57a2f42f6" target="_top" xlink:title="pci_mem_enable">
<polygon fill="white" stroke="black" points="246,-58.4904 246,-79.4904 336,-79.4904 336,-58.4904 246,-58.4904"/>
<text text-anchor="middle" x="291" y="-66.4904" font-family="Helvetica,sans-Serif" font-size="10.00">pci_mem_enable</text>
</a>
</g>
<!-- Node5&#45;&gt;Node6 -->
<g id="edge10" class="edge"><title>Node5&#45;&gt;Node6</title>
<path fill="none" stroke="midnightblue" d="M200.034,-68.9904C211.789,-68.9904 224.12,-68.9904 235.775,-68.9904"/>
<polygon fill="midnightblue" stroke="midnightblue" points="235.812,-72.4905 245.812,-68.9904 235.812,-65.4905 235.812,-72.4905"/>
</g>
<!-- Node7 -->
<g id="node15" class="node"><title>Node7</title>
<a xlink:href="pcitest_8c.html#a74212783d4ee813833618da5a586746a" target="_top" xlink:title="pci_read_config_byte">
<polygon fill="white" stroke="black" points="236.5,-18.4904 236.5,-39.4904 345.5,-39.4904 345.5,-18.4904 236.5,-18.4904"/>
<text text-anchor="middle" x="291" y="-26.4904" font-family="Helvetica,sans-Serif" font-size="10.00">pci_read_config_byte</text>
</a>
</g>
<!-- Node5&#45;&gt;Node7 -->
<g id="edge16" class="edge"><title>Node5&#45;&gt;Node7</title>
<path fill="none" stroke="midnightblue" d="M181.148,-58.4809C199.81,-53.4711 222.324,-47.427 242.099,-42.1183"/>
<polygon fill="midnightblue" stroke="midnightblue" points="243.105,-45.4723 251.855,-39.4991 241.29,-38.7116 243.105,-45.4723"/>
</g>
<!-- Node6&#45;&gt;Node3 -->
<g id="edge12" class="edge"><title>Node6&#45;&gt;Node3</title>
<path fill="none" stroke="midnightblue" d="M336.305,-62.9898C348.095,-61.4282 361.061,-59.7108 373.752,-58.0299"/>
<polygon fill="midnightblue" stroke="midnightblue" points="374.388,-61.4762 383.842,-56.6934 373.469,-54.5369 374.388,-61.4762"/>
</g>
<!-- Node6&#45;&gt;Node4 -->
<g id="edge14" class="edge"><title>Node6&#45;&gt;Node4</title>
<path fill="none" stroke="midnightblue" d="M331.863,-79.5444C350.16,-84.2701 371.922,-89.8907 391.25,-94.8828"/>
<polygon fill="midnightblue" stroke="midnightblue" points="390.547,-98.316 401.105,-97.428 392.298,-91.5384 390.547,-98.316"/>
</g>
<!-- Node7&#45;&gt;Node3 -->
<g id="edge18" class="edge"><title>Node7&#45;&gt;Node3</title>
<path fill="none" stroke="midnightblue" d="M345.514,-36.2109C354.696,-37.427 364.327,-38.7026 373.804,-39.9578"/>
<polygon fill="midnightblue" stroke="midnightblue" points="373.624,-43.4645 383.997,-41.3079 374.544,-36.5251 373.624,-43.4645"/>
</g>
</g>
</svg>
        <g id="navigator" transform="translate(0 0)" fill="#404254">
                <rect fill="#f2f5e9" fill-opacity="0.5" stroke="#606060" stroke-width=".5" x="0" y="0" width="60" height="60"/>
                <use id="zoomplus" xlink:href="#zoomPlus" x="17" y="9" onmousedown="handleZoom(evt,'in')"/>
                <use id="zoomminus" xlink:href="#zoomMin" x="42" y="9" onmousedown="handleZoom(evt,'out')"/>
                <use id="reset" xlink:href="#resetDef" x="30" y="36" onmousedown="handleReset()"/>
                <g id="arrowUp" xlink:href="#dirArrow" transform="translate(30 24)" onmousedown="handlePan(0,-1)">
                  <use xlink:href="#rim" fill="#404040">
                        <set attributeName="fill" to="#808080" begin="arrowUp.mouseover" end="arrowUp.mouseout"/>
                  </use>
                  <path fill="none" stroke="white" stroke-width="1.5" d="M0,-3.0v7 M-2.5,-0.5L0,-3.0L2.5,-0.5"/>
                </g>
                <g id="arrowRight" xlink:href="#dirArrow" transform="rotate(90) translate(36 -43)" onmousedown="handlePan(1,0)">
                  <use xlink:href="#rim" fill="#404040">
                        <set attributeName="fill" to="#808080" begin="arrowRight.mouseover" end="arrowRight.mouseout"/>
                  </use>
                  <path fill="none" stroke="white" stroke-width="1.5" d="M0,-3.0v7 M-2.5,-0.5L0,-3.0L2.5,-0.5"/>
                </g>
                <g id="arrowDown" xlink:href="#dirArrow" transform="rotate(180) translate(-30 -48)" onmousedown="handlePan(0,1)">
                  <use xlink:href="#rim" fill="#404040">
                        <set attributeName="fill" to="#808080" begin="arrowDown.mouseover" end="arrowDown.mouseout"/>
                  </use>
                  <path fill="none" stroke="white" stroke-width="1.5" d="M0,-3.0v7 M-2.5,-0.5L0,-3.0L2.5,-0.5"/>
                </g>
                <g id="arrowLeft" xlink:href="#dirArrow" transform="rotate(270) translate(-36 17)" onmousedown="handlePan(-1,0)">
                  <use xlink:href="#rim" fill="#404040">
                        <set attributeName="fill" to="#808080" begin="arrowLeft.mouseover" end="arrowLeft.mouseout"/>
                  </use>
                  <path fill="none" stroke="white" stroke-width="1.5" d="M0,-3.0v7 M-2.5,-0.5L0,-3.0L2.5,-0.5"/>
                </g>
        </g>
        <svg viewBox="0 0 15 15" width="100%" height="30px" preserveAspectRatio="xMaxYMin meet">
         <g id="arrow_out" transform="scale(0.3 0.3)">
          <a xlink:href="pcitest_8h_ac1163b8d93711c6fa01dfbffd2b4f0bf_cgraph_org.svg" target="_base">
           <rect id="button" ry="5" rx="5" y="6" x="6" height="38" width="38"
                fill="#f2f5e9" fill-opacity="0.5" stroke="#606060" stroke-width="1.0"/>
           <path id="arrow"
             d="M 11.500037,31.436501 C 11.940474,20.09759 22.043105,11.32322 32.158766,21.979434 L 37.068811,17.246167 C 37.068811,17.246167 37.088388,32 37.088388,32 L 22.160133,31.978069 C 22.160133,31.978069 26.997745,27.140456 26.997745,27.140456 C 18.528582,18.264221 13.291696,25.230495 11.500037,31.436501 z"
             style="fill:#404040;"/>
          </a>
         </g>
        </svg>
</svg>
