<?xml version="1.0" encoding="UTF-8" standalone="no"?>
<!DOCTYPE svg PUBLIC "-//W3C//DTD SVG 1.1//EN"
 "http://www.w3.org/Graphics/SVG/1.1/DTD/svg11.dtd">
<!-- Generated by graphviz version 2.26.0 (20091210.2329)
 -->
<!-- Title: core/common/trapgen/profiler/profInfo.cpp Pages: 1 -->
<svg width="430pt" height="246pt"
 viewBox="0.00 0.00 430.00 246.00" xmlns="http://www.w3.org/2000/svg" xmlns:xlink="http://www.w3.org/1999/xlink">
<g id="graph1" class="graph" transform="scale(1 1) rotate(0) translate(4 242)">
<title>core/common/trapgen/profiler/profInfo.cpp</title>
<polygon fill="white" stroke="white" points="-4,5 -4,-242 427,-242 427,5 -4,5"/>
<!-- Node1 -->
<g id="node1" class="node"><title>Node1</title>
<polygon fill="#bfbfbf" stroke="black" points="100.5,-203 100.5,-237 211.5,-237 211.5,-203 100.5,-203"/>
<text text-anchor="start" x="108.5" y="-224" font-family="Helvetica,sans-Serif" font-size="10.00">core/common/trapgen</text>
<text text-anchor="middle" x="156" y="-211" font-family="Helvetica,sans-Serif" font-size="10.00">/profiler/profInfo.cpp</text>
</g>
<!-- Node2 -->
<g id="node3" class="node"><title>Node2</title>
<a xlink:href="profInfo_8hpp.html" target="_top" xlink:title="core/common/trapgen\l/profiler/profInfo.hpp">
<polygon fill="white" stroke="black" points="59.5,-131 59.5,-165 170.5,-165 170.5,-131 59.5,-131"/>
<text text-anchor="start" x="67.5" y="-152" font-family="Helvetica,sans-Serif" font-size="10.00">core/common/trapgen</text>
<text text-anchor="middle" x="115" y="-139" font-family="Helvetica,sans-Serif" font-size="10.00">/profiler/profInfo.hpp</text>
</a>
</g>
<!-- Node1&#45;&gt;Node2 -->
<g id="edge2" class="edge"><title>Node1&#45;&gt;Node2</title>
<path fill="none" stroke="midnightblue" d="M146.284,-202.937C141.402,-194.365 135.381,-183.791 129.929,-174.217"/>
<polygon fill="midnightblue" stroke="midnightblue" points="132.921,-172.399 124.931,-165.441 126.838,-175.862 132.921,-172.399"/>
</g>
<!-- Node3 -->
<g id="node5" class="node"><title>Node3</title>
<polygon fill="white" stroke="#bfbfbf" points="27.5,-72.5 27.5,-93.5 68.5,-93.5 68.5,-72.5 27.5,-72.5"/>
<text text-anchor="middle" x="48" y="-80.5" font-family="Helvetica,sans-Serif" font-size="10.00">string</text>
</g>
<!-- Node1&#45;&gt;Node3 -->
<g id="edge20" class="edge"><title>Node1&#45;&gt;Node3</title>
<path fill="none" stroke="midnightblue" d="M100.447,-204.288C81.5303,-196.044 62.3216,-183.821 51,-166 39.2185,-147.455 40.3992,-121.581 43.2855,-103.673"/>
<polygon fill="midnightblue" stroke="midnightblue" points="46.754,-104.17 45.2024,-93.689 39.8796,-102.85 46.754,-104.17"/>
</g>
<!-- Node4 -->
<g id="node7" class="node"><title>Node4</title>
<a xlink:href="systemc_8h.html" target="_top" xlink:title="core/common/systemc.h">
<polygon fill="white" stroke="black" points="118.5,-72.5 118.5,-93.5 243.5,-93.5 243.5,-72.5 118.5,-72.5"/>
<text text-anchor="middle" x="181" y="-80.5" font-family="Helvetica,sans-Serif" font-size="10.00">core/common/systemc.h</text>
</a>
</g>
<!-- Node1&#45;&gt;Node4 -->
<g id="edge18" class="edge"><title>Node1&#45;&gt;Node4</title>
<path fill="none" stroke="midnightblue" d="M165.429,-202.561C170.488,-192.247 176.238,-178.747 179,-166 183.489,-145.283 183.48,-120.978 182.66,-104.044"/>
<polygon fill="midnightblue" stroke="midnightblue" points="186.126,-103.394 182.008,-93.6322 179.14,-103.832 186.126,-103.394"/>
</g>
<!-- Node9 -->
<g id="node20" class="node"><title>Node9</title>
<polygon fill="white" stroke="#bfbfbf" points="226,-137.5 226,-158.5 340,-158.5 340,-137.5 226,-137.5"/>
<text text-anchor="middle" x="283" y="-145.5" font-family="Helvetica,sans-Serif" font-size="10.00">boost/lexical_cast.hpp</text>
</g>
<!-- Node1&#45;&gt;Node9 -->
<g id="edge22" class="edge"><title>Node1&#45;&gt;Node9</title>
<path fill="none" stroke="midnightblue" d="M186.097,-202.937C207.088,-191.037 234.887,-175.277 255.326,-163.689"/>
<polygon fill="midnightblue" stroke="midnightblue" points="257.174,-166.665 264.147,-158.688 253.722,-160.575 257.174,-166.665"/>
</g>
<!-- Node2&#45;&gt;Node3 -->
<g id="edge4" class="edge"><title>Node2&#45;&gt;Node3</title>
<path fill="none" stroke="midnightblue" d="M97.3965,-130.922C87.8515,-121.662 76.0651,-110.227 66.3995,-100.85"/>
<polygon fill="midnightblue" stroke="midnightblue" points="68.8005,-98.3032 59.186,-93.8521 63.9263,-103.327 68.8005,-98.3032"/>
</g>
<!-- Node2&#45;&gt;Node4 -->
<g id="edge6" class="edge"><title>Node2&#45;&gt;Node4</title>
<path fill="none" stroke="midnightblue" d="M132.341,-130.922C141.65,-121.754 153.124,-110.454 162.592,-101.129"/>
<polygon fill="midnightblue" stroke="midnightblue" points="165.312,-103.363 169.981,-93.8521 160.4,-98.3753 165.312,-103.363"/>
</g>
<!-- Node4&#45;&gt;Node4 -->
<g id="edge8" class="edge"><title>Node4&#45;&gt;Node4</title>
<path fill="none" stroke="midnightblue" d="M212.62,-93.5168C236.644,-97.3181 261,-93.8125 261,-83 261,-73.708 243.012,-69.8123 222.706,-71.313"/>
<polygon fill="midnightblue" stroke="midnightblue" points="222.15,-67.8539 212.62,-72.4832 222.957,-74.8073 222.15,-67.8539"/>
</g>
<!-- Node5 -->
<g id="node10" class="node"><title>Node5</title>
<polygon fill="white" stroke="#bfbfbf" points="0,-7.5 0,-28.5 38,-28.5 38,-7.5 0,-7.5"/>
<text text-anchor="middle" x="19" y="-15.5" font-family="Helvetica,sans-Serif" font-size="10.00">tlm.h</text>
</g>
<!-- Node4&#45;&gt;Node5 -->
<g id="edge10" class="edge"><title>Node4&#45;&gt;Node5</title>
<path fill="none" stroke="midnightblue" d="M143.662,-72.4802C116.245,-64.1443 78.4563,-51.3638 47,-36 45.6369,-35.3343 44.259,-34.6158 42.8836,-33.8624"/>
<polygon fill="midnightblue" stroke="midnightblue" points="44.4074,-30.6958 34.0274,-28.5728 40.8179,-36.7054 44.4074,-30.6958"/>
</g>
<!-- Node6 -->
<g id="node12" class="node"><title>Node6</title>
<polygon fill="white" stroke="#bfbfbf" points="55.5,-1 55.5,-35 170.5,-35 170.5,-1 55.5,-1"/>
<text text-anchor="start" x="63.5" y="-22" font-family="Helvetica,sans-Serif" font-size="10.00">tlm_utils/simple_target</text>
<text text-anchor="middle" x="113" y="-9" font-family="Helvetica,sans-Serif" font-size="10.00">_socket.h</text>
</g>
<!-- Node4&#45;&gt;Node6 -->
<g id="edge12" class="edge"><title>Node4&#45;&gt;Node6</title>
<path fill="none" stroke="midnightblue" d="M169.771,-72.2666C161.189,-64.0633 149.025,-52.436 138.157,-42.047"/>
<polygon fill="midnightblue" stroke="midnightblue" points="140.547,-39.4896 130.9,-35.1099 135.71,-44.5498 140.547,-39.4896"/>
</g>
<!-- Node7 -->
<g id="node14" class="node"><title>Node7</title>
<polygon fill="white" stroke="#bfbfbf" points="188,-1 188,-35 310,-35 310,-1 188,-1"/>
<text text-anchor="start" x="196" y="-22" font-family="Helvetica,sans-Serif" font-size="10.00">tlm_utils/simple_initiator</text>
<text text-anchor="middle" x="249" y="-9" font-family="Helvetica,sans-Serif" font-size="10.00">_socket.h</text>
</g>
<!-- Node4&#45;&gt;Node7 -->
<g id="edge14" class="edge"><title>Node4&#45;&gt;Node7</title>
<path fill="none" stroke="midnightblue" d="M192.229,-72.2666C200.811,-64.0633 212.975,-52.436 223.843,-42.047"/>
<polygon fill="midnightblue" stroke="midnightblue" points="226.29,-44.5498 231.1,-35.1099 221.453,-39.4896 226.29,-44.5498"/>
</g>
<!-- Node8 -->
<g id="node16" class="node"><title>Node8</title>
<polygon fill="white" stroke="#bfbfbf" points="327.5,-1 327.5,-35 422.5,-35 422.5,-1 327.5,-1"/>
<text text-anchor="start" x="335.5" y="-22" font-family="Helvetica,sans-Serif" font-size="10.00">tlm_utils/peq_with</text>
<text text-anchor="middle" x="375" y="-9" font-family="Helvetica,sans-Serif" font-size="10.00">_get.h</text>
</g>
<!-- Node4&#45;&gt;Node8 -->
<g id="edge16" class="edge"><title>Node4&#45;&gt;Node8</title>
<path fill="none" stroke="midnightblue" d="M212.601,-72.412C240.94,-62.9169 283.22,-48.7511 317.535,-37.2537"/>
<polygon fill="midnightblue" stroke="midnightblue" points="319.073,-40.4296 327.443,-33.9339 316.849,-33.7923 319.073,-40.4296"/>
</g>
</g>
</svg>
