<?xml version="1.0" encoding="UTF-8" standalone="no"?>
<!DOCTYPE svg PUBLIC "-//W3C//DTD SVG 1.1//EN"
 "http://www.w3.org/Graphics/SVG/1.1/DTD/svg11.dtd">
<!-- Generated by graphviz version 2.38.0 (20140413.2041)
 -->
<!-- Title: core/software/fft64/radix4_input_gen.c Pages: 1 -->
<svg width="454pt" height="151pt"
 viewBox="0.00 0.00 454.00 151.00" xmlns="http://www.w3.org/2000/svg" xmlns:xlink="http://www.w3.org/1999/xlink">
<g id="graph0" class="graph" transform="scale(1 1) rotate(0) translate(4 147)">
<title>core/software/fft64/radix4_input_gen.c</title>
<polygon fill="white" stroke="none" points="-4,4 -4,-147 450,-147 450,4 -4,4"/>
<!-- Node1 -->
<g id="node1" class="node"><title>Node1</title>
<polygon fill="#bfbfbf" stroke="black" points="139.5,-112.5 139.5,-142.5 240.5,-142.5 240.5,-112.5 139.5,-112.5"/>
<text text-anchor="start" x="147.5" y="-130.5" font-family="Helvetica,sans-Serif" font-size="10.00">core/software/fft64</text>
<text text-anchor="middle" x="190" y="-119.5" font-family="Helvetica,sans-Serif" font-size="10.00">/radix4_input_gen.c</text>
</g>
<!-- Node2 -->
<g id="node2" class="node"><title>Node2</title>
<g id="a_node2"><a xlink:href="core_2software_2fft64_2defines_8h.html" target="_top" xlink:title="defines.h">
<polygon fill="white" stroke="black" points="0,-56.5 0,-75.5 56,-75.5 56,-56.5 0,-56.5"/>
<text text-anchor="middle" x="28" y="-63.5" font-family="Helvetica,sans-Serif" font-size="10.00">defines.h</text>
</a>
</g>
</g>
<!-- Node1&#45;&gt;Node2 -->
<g id="edge1" class="edge"><title>Node1&#45;&gt;Node2</title>
<path fill="none" stroke="midnightblue" d="M151.608,-112.399C124.063,-102.283 87.3288,-88.7905 61.0787,-79.1493"/>
<polygon fill="midnightblue" stroke="midnightblue" points="62.166,-75.8201 51.5724,-75.6578 59.7526,-82.3909 62.166,-75.8201"/>
</g>
<!-- Node3 -->
<g id="node3" class="node"><title>Node3</title>
<polygon fill="white" stroke="#bfbfbf" points="199,-0.5 199,-19.5 277,-19.5 277,-0.5 199,-0.5"/>
<text text-anchor="middle" x="238" y="-7.5" font-family="Helvetica,sans-Serif" font-size="10.00">asm&#45;leon/irq.h</text>
</g>
<!-- Node1&#45;&gt;Node3 -->
<g id="edge2" class="edge"><title>Node1&#45;&gt;Node3</title>
<path fill="none" stroke="midnightblue" d="M148.834,-112.416C118.749,-99.795 85.9492,-79.6568 103,-56 122.467,-28.9903 158.851,-17.9472 188.945,-13.5453"/>
<polygon fill="midnightblue" stroke="midnightblue" points="189.392,-17.0167 198.876,-12.2937 188.517,-10.0717 189.392,-17.0167"/>
</g>
<!-- Node4 -->
<g id="node4" class="node"><title>Node4</title>
<g id="a_node4"><a xlink:href="data_8h.html" target="_top" xlink:title="./input/data.h">
<polygon fill="white" stroke="black" points="112,-56.5 112,-75.5 186,-75.5 186,-56.5 112,-56.5"/>
<text text-anchor="middle" x="149" y="-63.5" font-family="Helvetica,sans-Serif" font-size="10.00">./input/data.h</text>
</a>
</g>
</g>
<!-- Node1&#45;&gt;Node4 -->
<g id="edge3" class="edge"><title>Node1&#45;&gt;Node4</title>
<path fill="none" stroke="midnightblue" d="M180.284,-112.399C174.449,-103.932 166.984,-93.0991 160.81,-84.1393"/>
<polygon fill="midnightblue" stroke="midnightblue" points="163.522,-81.9062 154.966,-75.6578 157.758,-85.8781 163.522,-81.9062"/>
</g>
<!-- Node5 -->
<g id="node5" class="node"><title>Node5</title>
<g id="a_node5"><a xlink:href="results_8h.html" target="_top" xlink:title="results.h">
<polygon fill="white" stroke="black" points="204,-56.5 204,-75.5 258,-75.5 258,-56.5 204,-56.5"/>
<text text-anchor="middle" x="231" y="-63.5" font-family="Helvetica,sans-Serif" font-size="10.00">results.h</text>
</a>
</g>
</g>
<!-- Node1&#45;&gt;Node5 -->
<g id="edge4" class="edge"><title>Node1&#45;&gt;Node5</title>
<path fill="none" stroke="midnightblue" d="M199.716,-112.399C205.551,-103.932 213.016,-93.0991 219.19,-84.1393"/>
<polygon fill="midnightblue" stroke="midnightblue" points="222.242,-85.8781 225.034,-75.6578 216.478,-81.9062 222.242,-85.8781"/>
</g>
<!-- Node6 -->
<g id="node6" class="node"><title>Node6</title>
<polygon fill="white" stroke="#bfbfbf" points="276,-56.5 276,-75.5 322,-75.5 322,-56.5 276,-56.5"/>
<text text-anchor="middle" x="299" y="-63.5" font-family="Helvetica,sans-Serif" font-size="10.00">stdio.h</text>
</g>
<!-- Node1&#45;&gt;Node6 -->
<g id="edge5" class="edge"><title>Node1&#45;&gt;Node6</title>
<path fill="none" stroke="midnightblue" d="M215.831,-112.399C233.467,-102.773 256.7,-90.0902 274.128,-80.5772"/>
<polygon fill="midnightblue" stroke="midnightblue" points="276.039,-83.5213 283.14,-75.6578 272.685,-77.3771 276.039,-83.5213"/>
</g>
<!-- Node7 -->
<g id="node7" class="node"><title>Node7</title>
<g id="a_node7"><a xlink:href="core_2software_2grlib__tests_2irqmp_8h.html" target="_top" xlink:title="../grlib_tests/irqmp.h">
<polygon fill="white" stroke="black" points="340,-56.5 340,-75.5 446,-75.5 446,-56.5 340,-56.5"/>
<text text-anchor="middle" x="393" y="-63.5" font-family="Helvetica,sans-Serif" font-size="10.00">../grlib_tests/irqmp.h</text>
</a>
</g>
</g>
<!-- Node1&#45;&gt;Node7 -->
<g id="edge6" class="edge"><title>Node1&#45;&gt;Node7</title>
<path fill="none" stroke="midnightblue" d="M237.851,-112.475C273.332,-102.075 321.086,-88.0783 354.201,-78.3722"/>
<polygon fill="midnightblue" stroke="midnightblue" points="355.366,-81.6778 363.978,-75.5064 353.398,-74.9604 355.366,-81.6778"/>
</g>
<!-- Node7&#45;&gt;Node3 -->
<g id="edge7" class="edge"><title>Node7&#45;&gt;Node3</title>
<path fill="none" stroke="midnightblue" d="M368.44,-56.4435C342.477,-47.3986 301.332,-33.064 272.203,-22.9158"/>
<polygon fill="midnightblue" stroke="midnightblue" points="273.04,-19.5013 262.445,-19.5164 270.737,-26.1116 273.04,-19.5013"/>
</g>
</g>
</svg>
