<?xml version="1.0" encoding="UTF-8" standalone="no"?>
<!DOCTYPE svg PUBLIC "-//W3C//DTD SVG 1.1//EN"
 "http://www.w3.org/Graphics/SVG/1.1/DTD/svg11.dtd">
<!-- Generated by graphviz version 2.38.0 (20140413.2041)
 -->
<!-- Title: core/software/fft64/radix4_nostdlib.c Pages: 1 -->
<svg width="220pt" height="95pt"
 viewBox="0.00 0.00 220.00 95.00" xmlns="http://www.w3.org/2000/svg" xmlns:xlink="http://www.w3.org/1999/xlink">
<g id="graph0" class="graph" transform="scale(1 1) rotate(0) translate(4 91)">
<title>core/software/fft64/radix4_nostdlib.c</title>
<polygon fill="white" stroke="none" points="-4,4 -4,-91 216,-91 216,4 -4,4"/>
<!-- Node1 -->
<g id="node1" class="node"><title>Node1</title>
<polygon fill="#bfbfbf" stroke="black" points="62,-56.5 62,-86.5 160,-86.5 160,-56.5 62,-56.5"/>
<text text-anchor="start" x="70" y="-74.5" font-family="Helvetica,sans-Serif" font-size="10.00">core/software/fft64</text>
<text text-anchor="middle" x="111" y="-63.5" font-family="Helvetica,sans-Serif" font-size="10.00">/radix4_nostdlib.c</text>
</g>
<!-- Node2 -->
<g id="node2" class="node"><title>Node2</title>
<g id="a_node2"><a xlink:href="core_2software_2fft64_2defines_8h.html" target="_top" xlink:title="defines.h">
<polygon fill="white" stroke="black" points="0,-0.5 0,-19.5 56,-19.5 56,-0.5 0,-0.5"/>
<text text-anchor="middle" x="28" y="-7.5" font-family="Helvetica,sans-Serif" font-size="10.00">defines.h</text>
</a>
</g>
</g>
<!-- Node1&#45;&gt;Node2 -->
<g id="edge1" class="edge"><title>Node1&#45;&gt;Node2</title>
<path fill="none" stroke="midnightblue" d="M91.3302,-56.3993C78.3989,-47.1293 61.5145,-35.0254 48.4318,-25.6469"/>
<polygon fill="midnightblue" stroke="midnightblue" points="50.2439,-22.6395 40.0772,-19.6578 46.1654,-28.3287 50.2439,-22.6395"/>
</g>
<!-- Node3 -->
<g id="node3" class="node"><title>Node3</title>
<g id="a_node3"><a xlink:href="data_8h.html" target="_top" xlink:title="./input/data.h">
<polygon fill="white" stroke="black" points="74,-0.5 74,-19.5 148,-19.5 148,-0.5 74,-0.5"/>
<text text-anchor="middle" x="111" y="-7.5" font-family="Helvetica,sans-Serif" font-size="10.00">./input/data.h</text>
</a>
</g>
</g>
<!-- Node1&#45;&gt;Node3 -->
<g id="edge2" class="edge"><title>Node1&#45;&gt;Node3</title>
<path fill="none" stroke="midnightblue" d="M111,-56.3993C111,-48.4664 111,-38.458 111,-29.8583"/>
<polygon fill="midnightblue" stroke="midnightblue" points="114.5,-29.6577 111,-19.6578 107.5,-29.6578 114.5,-29.6577"/>
</g>
<!-- Node4 -->
<g id="node4" class="node"><title>Node4</title>
<polygon fill="white" stroke="#bfbfbf" points="166,-0.5 166,-19.5 212,-19.5 212,-0.5 166,-0.5"/>
<text text-anchor="middle" x="189" y="-7.5" font-family="Helvetica,sans-Serif" font-size="10.00">stdio.h</text>
</g>
<!-- Node1&#45;&gt;Node4 -->
<g id="edge3" class="edge"><title>Node1&#45;&gt;Node4</title>
<path fill="none" stroke="midnightblue" d="M129.485,-56.3993C141.52,-47.2185 157.2,-35.2579 169.443,-25.9182"/>
<polygon fill="midnightblue" stroke="midnightblue" points="171.822,-28.5056 177.65,-19.6578 167.577,-22.9401 171.822,-28.5056"/>
</g>
</g>
</svg>
