<?xml version="1.0" encoding="UTF-8" standalone="no"?>
<!DOCTYPE svg PUBLIC "-//W3C//DTD SVG 1.1//EN"
 "http://www.w3.org/Graphics/SVG/1.1/DTD/svg11.dtd">
<!-- Generated by graphviz version 2.38.0 (20140413.2041)
 -->
<!-- Title: gaisler/apbuart/reportio.h Pages: 1 -->
<!--zoomable 509 -->
<svg id="main" version="1.1" xmlns="http://www.w3.org/2000/svg" xmlns:xlink="http://www.w3.org/1999/xlink" xml:space="preserve" onload="init(evt)">
<style type="text/css"><![CDATA[
.edge:hover path { stroke: red; }
.edge:hover polygon { stroke: red; fill: red; }
]]></style>
<script type="text/javascript"><![CDATA[
var edges = document.getElementsByTagName('g');
if (edges && edges.length) {
  for (var i=0;i<edges.length;i++) {
    if (edges[i].id.substr(0,4)=='edge') {
      edges[i].setAttribute('class','edge');
    }
  }
}
]]></script>
        <defs>
                <circle id="rim" cx="0" cy="0" r="7"/>
                <circle id="rim2" cx="0" cy="0" r="3.5"/>
                <g id="zoomPlus">
                        <use xlink:href="#rim" fill="#404040">
                                <set attributeName="fill" to="#808080" begin="zoomplus.mouseover" end="zoomplus.mouseout"/>
                        </use>
                        <path d="M-4,0h8M0,-4v8" fill="none" stroke="white" stroke-width="1.5" pointer-events="none"/>
                </g>
                <g id="zoomMin">
                        <use xlink:href="#rim" fill="#404040">
                                <set attributeName="fill" to="#808080" begin="zoomminus.mouseover" end="zoomminus.mouseout"/>
                        </use>
                        <path d="M-4,0h8" fill="none" stroke="white" stroke-width="1.5" pointer-events="none"/>
                </g>
                <g id="dirArrow">
                        <path fill="none" stroke="white" stroke-width="1.5" d="M0,-3.0v7 M-2.5,-0.5L0,-3.0L2.5,-0.5"/>
                </g>
               <g id="resetDef">
                       <use xlink:href="#rim2" fill="#404040">
                               <set attributeName="fill" to="#808080" begin="reset.mouseover" end="reset.mouseout"/>
                       </use>
               </g>
        </defs>

<script type="text/javascript">
var viewWidth = 1554;
var viewHeight = 509;
var sectionId = 'dynsection-0';
</script>
<script xlink:href="svgpan.js"/>
<svg id="graph" class="graph">
<g id="viewport">
<title>gaisler/apbuart/reportio.h</title>
<polygon fill="white" stroke="none" points="-4,4 -4,-505 1550.02,-505 1550.02,4 -4,4"/>
<!-- Node1 -->
<g id="node1" class="node"><title>Node1</title>
<polygon fill="#bfbfbf" stroke="black" points="791,-481.5 791,-500.5 915,-500.5 915,-481.5 791,-481.5"/>
<text text-anchor="middle" x="853" y="-488.5" font-family="Helvetica,sans-Serif" font-size="10.00">gaisler/apbuart/reportio.h</text>
</g>
<!-- Node2 -->
<g id="node2" class="node"><title>Node2</title>
<g id="a_node2"><a xlink:href="io__if_8h.html" target="_top" xlink:title="gaisler/apbuart/io_if.h">
<polygon fill="white" stroke="black" points="703,-369.5 703,-388.5 813,-388.5 813,-369.5 703,-369.5"/>
<text text-anchor="middle" x="758" y="-376.5" font-family="Helvetica,sans-Serif" font-size="10.00">gaisler/apbuart/io_if.h</text>
</a>
</g>
</g>
<!-- Node1&#45;&gt;Node2 -->
<g id="edge1" class="edge"><title>Node1&#45;&gt;Node2</title>
<path fill="none" stroke="midnightblue" d="M845.546,-481.368C829.729,-463.055 792.588,-420.049 772.131,-396.362"/>
<polygon fill="midnightblue" stroke="midnightblue" points="774.605,-393.872 765.42,-388.591 769.307,-398.447 774.605,-393.872"/>
</g>
<!-- Node10 -->
<g id="node10" class="node"><title>Node10</title>
<g id="a_node10"><a xlink:href="core_2common_2systemc_8h.html" target="_top" xlink:title="core/common/systemc.h">
<polygon fill="white" stroke="black" points="319.5,-67.5 319.5,-86.5 444.5,-86.5 444.5,-67.5 319.5,-67.5"/>
<text text-anchor="middle" x="382" y="-74.5" font-family="Helvetica,sans-Serif" font-size="10.00">core/common/systemc.h</text>
</a>
</g>
</g>
<!-- Node1&#45;&gt;Node10 -->
<g id="edge9" class="edge"><title>Node1&#45;&gt;Node10</title>
<path fill="none" stroke="midnightblue" d="M790.967,-488.52C594.677,-483.025 0,-459.791 0,-380 0,-380 0,-380 0,-188 0,-143.215 36.1764,-141.416 77,-123 151.294,-89.4844 245.116,-79.9188 308.95,-77.6695"/>
<polygon fill="midnightblue" stroke="midnightblue" points="309.432,-81.1567 319.323,-77.359 309.223,-74.1598 309.432,-81.1567"/>
</g>
<!-- Node15 -->
<g id="node15" class="node"><title>Node15</title>
<g id="a_node15"><a xlink:href="base_8h.html" target="_top" xlink:title="core/common/base.h">
<polygon fill="white" stroke="black" points="887,-425.5 887,-444.5 995,-444.5 995,-425.5 887,-425.5"/>
<text text-anchor="middle" x="941" y="-432.5" font-family="Helvetica,sans-Serif" font-size="10.00">core/common/base.h</text>
</a>
</g>
</g>
<!-- Node1&#45;&gt;Node15 -->
<g id="edge15" class="edge"><title>Node1&#45;&gt;Node15</title>
<path fill="none" stroke="midnightblue" d="M867.139,-481.324C880.866,-472.9 901.936,-459.971 918.064,-450.074"/>
<polygon fill="midnightblue" stroke="midnightblue" points="920.204,-452.868 926.896,-444.655 916.543,-446.902 920.204,-452.868"/>
</g>
<!-- Node16 -->
<g id="node16" class="node"><title>Node16</title>
<g id="a_node16"><a xlink:href="sr__report_8h.html" target="_top" xlink:title="core/common/sr_report.h">
<polygon fill="white" stroke="black" points="1110.5,-369.5 1110.5,-388.5 1235.5,-388.5 1235.5,-369.5 1110.5,-369.5"/>
<text text-anchor="middle" x="1173" y="-376.5" font-family="Helvetica,sans-Serif" font-size="10.00">core/common/sr_report.h</text>
</a>
</g>
</g>
<!-- Node1&#45;&gt;Node16 -->
<g id="edge59" class="edge"><title>Node1&#45;&gt;Node16</title>
<path fill="none" stroke="midnightblue" d="M884.166,-481.475C914.855,-472.902 962.96,-458.984 1004,-445 1053.08,-428.277 1109.07,-406.121 1142.69,-392.475"/>
<polygon fill="midnightblue" stroke="midnightblue" points="1144.44,-395.543 1152.38,-388.528 1141.79,-389.061 1144.44,-395.543"/>
</g>
<!-- Node3 -->
<g id="node3" class="node"><title>Node3</title>
<polygon fill="white" stroke="#bfbfbf" points="825.5,-67.5 825.5,-86.5 874.5,-86.5 874.5,-67.5 825.5,-67.5"/>
<text text-anchor="middle" x="850" y="-74.5" font-family="Helvetica,sans-Serif" font-size="10.00">stdint.h</text>
</g>
<!-- Node2&#45;&gt;Node3 -->
<g id="edge2" class="edge"><title>Node2&#45;&gt;Node3</title>
<path fill="none" stroke="midnightblue" d="M702.767,-373.585C540.406,-359.874 76,-315.098 76,-251.5 76,-251.5 76,-251.5 76,-188 76,-112.284 664.076,-84.9883 815.025,-79.2291"/>
<polygon fill="midnightblue" stroke="midnightblue" points="815.262,-82.7228 825.124,-78.8512 815,-75.7276 815.262,-82.7228"/>
</g>
<!-- Node4 -->
<g id="node4" class="node"><title>Node4</title>
<g id="a_node4"><a xlink:href="sr__registry_8h.html" target="_top" xlink:title="core/common/sr_registry.h">
<polygon fill="white" stroke="black" points="920.5,-308 920.5,-327 1053.5,-327 1053.5,-308 920.5,-308"/>
<text text-anchor="middle" x="987" y="-315" font-family="Helvetica,sans-Serif" font-size="10.00">core/common/sr_registry.h</text>
</a>
</g>
</g>
<!-- Node2&#45;&gt;Node4 -->
<g id="edge3" class="edge"><title>Node2&#45;&gt;Node4</title>
<path fill="none" stroke="midnightblue" d="M790.81,-369.475C831.197,-358.982 899.877,-341.137 944.329,-329.587"/>
<polygon fill="midnightblue" stroke="midnightblue" points="945.452,-332.911 954.251,-327.009 943.692,-326.136 945.452,-332.911"/>
</g>
<!-- Node5 -->
<g id="node5" class="node"><title>Node5</title>
<g id="a_node5"><a xlink:href="sr__registry_2sr__registry_8h.html" target="_top" xlink:title="core/common/sr_registry\l/sr_registry.h">
<polygon fill="white" stroke="black" points="1148.5,-235.5 1148.5,-265.5 1273.5,-265.5 1273.5,-235.5 1148.5,-235.5"/>
<text text-anchor="start" x="1156.5" y="-253.5" font-family="Helvetica,sans-Serif" font-size="10.00">core/common/sr_registry</text>
<text text-anchor="middle" x="1211" y="-242.5" font-family="Helvetica,sans-Serif" font-size="10.00">/sr_registry.h</text>
</a>
</g>
</g>
<!-- Node4&#45;&gt;Node5 -->
<g id="edge4" class="edge"><title>Node4&#45;&gt;Node5</title>
<path fill="none" stroke="midnightblue" d="M1016.75,-307.869C1051.38,-297.819 1109.39,-280.985 1153.02,-268.324"/>
<polygon fill="midnightblue" stroke="midnightblue" points="1154.03,-271.676 1162.66,-265.528 1152.08,-264.954 1154.03,-271.676"/>
</g>
<!-- Node6 -->
<g id="node6" class="node"><title>Node6</title>
<polygon fill="white" stroke="#bfbfbf" points="1134.5,-179.5 1134.5,-198.5 1175.5,-198.5 1175.5,-179.5 1134.5,-179.5"/>
<text text-anchor="middle" x="1155" y="-186.5" font-family="Helvetica,sans-Serif" font-size="10.00">string</text>
</g>
<!-- Node5&#45;&gt;Node6 -->
<g id="edge5" class="edge"><title>Node5&#45;&gt;Node6</title>
<path fill="none" stroke="midnightblue" d="M1197.73,-235.399C1189.42,-226.575 1178.7,-215.183 1170.08,-206.018"/>
<polygon fill="midnightblue" stroke="midnightblue" points="1172.55,-203.541 1163.15,-198.658 1167.45,-208.339 1172.55,-203.541"/>
</g>
<!-- Node7 -->
<g id="node7" class="node"><title>Node7</title>
<polygon fill="white" stroke="#bfbfbf" points="1193.5,-179.5 1193.5,-198.5 1228.5,-198.5 1228.5,-179.5 1193.5,-179.5"/>
<text text-anchor="middle" x="1211" y="-186.5" font-family="Helvetica,sans-Serif" font-size="10.00">map</text>
</g>
<!-- Node5&#45;&gt;Node7 -->
<g id="edge6" class="edge"><title>Node5&#45;&gt;Node7</title>
<path fill="none" stroke="midnightblue" d="M1211,-235.399C1211,-227.466 1211,-217.458 1211,-208.858"/>
<polygon fill="midnightblue" stroke="midnightblue" points="1214.5,-208.658 1211,-198.658 1207.5,-208.658 1214.5,-208.658"/>
</g>
<!-- Node8 -->
<g id="node8" class="node"><title>Node8</title>
<polygon fill="white" stroke="#bfbfbf" points="1247,-179.5 1247,-198.5 1277,-198.5 1277,-179.5 1247,-179.5"/>
<text text-anchor="middle" x="1262" y="-186.5" font-family="Helvetica,sans-Serif" font-size="10.00">set</text>
</g>
<!-- Node5&#45;&gt;Node8 -->
<g id="edge7" class="edge"><title>Node5&#45;&gt;Node8</title>
<path fill="none" stroke="midnightblue" d="M1223.09,-235.399C1230.57,-226.664 1240.22,-215.413 1248.03,-206.296"/>
<polygon fill="midnightblue" stroke="midnightblue" points="1250.73,-208.528 1254.58,-198.658 1245.41,-203.973 1250.73,-208.528"/>
</g>
<!-- Node9 -->
<g id="node9" class="node"><title>Node9</title>
<polygon fill="white" stroke="#bfbfbf" points="1295,-179.5 1295,-198.5 1357,-198.5 1357,-179.5 1295,-179.5"/>
<text text-anchor="middle" x="1326" y="-186.5" font-family="Helvetica,sans-Serif" font-size="10.00">systemc.h</text>
</g>
<!-- Node5&#45;&gt;Node9 -->
<g id="edge8" class="edge"><title>Node5&#45;&gt;Node9</title>
<path fill="none" stroke="midnightblue" d="M1238.25,-235.399C1257.03,-225.684 1281.83,-212.855 1300.27,-203.314"/>
<polygon fill="midnightblue" stroke="midnightblue" points="1301.99,-206.362 1309.27,-198.658 1298.78,-200.145 1301.99,-206.362"/>
</g>
<!-- Node10&#45;&gt;Node10 -->
<g id="edge10" class="edge"><title>Node10&#45;&gt;Node10</title>
<path fill="none" stroke="midnightblue" d="M416.333,-86.5252C439.662,-89.3079 462.5,-86.1328 462.5,-77 462.5,-69.1872 445.787,-65.7344 426.35,-66.6416"/>
<polygon fill="midnightblue" stroke="midnightblue" points="426.009,-63.1578 416.333,-67.4748 426.589,-70.1337 426.009,-63.1578"/>
</g>
<!-- Node11 -->
<g id="node11" class="node"><title>Node11</title>
<polygon fill="white" stroke="#bfbfbf" points="200,-6 200,-25 238,-25 238,-6 200,-6"/>
<text text-anchor="middle" x="219" y="-13" font-family="Helvetica,sans-Serif" font-size="10.00">tlm.h</text>
</g>
<!-- Node10&#45;&gt;Node11 -->
<g id="edge11" class="edge"><title>Node10&#45;&gt;Node11</title>
<path fill="none" stroke="midnightblue" d="M352.012,-67.4735C324.323,-59.2574 282.273,-45.9047 247,-31 245.966,-30.5632 244.919,-30.1034 243.866,-29.627"/>
<polygon fill="midnightblue" stroke="midnightblue" points="245.015,-26.2941 234.491,-25.0685 241.954,-32.5892 245.015,-26.2941"/>
</g>
<!-- Node12 -->
<g id="node12" class="node"><title>Node12</title>
<polygon fill="white" stroke="#bfbfbf" points="256.5,-0.5 256.5,-30.5 371.5,-30.5 371.5,-0.5 256.5,-0.5"/>
<text text-anchor="start" x="264.5" y="-18.5" font-family="Helvetica,sans-Serif" font-size="10.00">tlm_utils/simple_target</text>
<text text-anchor="middle" x="314" y="-7.5" font-family="Helvetica,sans-Serif" font-size="10.00">_socket.h</text>
</g>
<!-- Node10&#45;&gt;Node12 -->
<g id="edge12" class="edge"><title>Node10&#45;&gt;Node12</title>
<path fill="none" stroke="midnightblue" d="M372.257,-67.4751C363.306,-59.6426 349.674,-47.7145 337.846,-37.3656"/>
<polygon fill="midnightblue" stroke="midnightblue" points="339.857,-34.474 330.026,-30.523 335.247,-39.7421 339.857,-34.474"/>
</g>
<!-- Node13 -->
<g id="node13" class="node"><title>Node13</title>
<polygon fill="white" stroke="#bfbfbf" points="390,-0.5 390,-30.5 512,-30.5 512,-0.5 390,-0.5"/>
<text text-anchor="start" x="398" y="-18.5" font-family="Helvetica,sans-Serif" font-size="10.00">tlm_utils/simple_initiator</text>
<text text-anchor="middle" x="451" y="-7.5" font-family="Helvetica,sans-Serif" font-size="10.00">_socket.h</text>
</g>
<!-- Node10&#45;&gt;Node13 -->
<g id="edge13" class="edge"><title>Node10&#45;&gt;Node13</title>
<path fill="none" stroke="midnightblue" d="M391.886,-67.4751C401.056,-59.5673 415.068,-47.4847 427.149,-37.0675"/>
<polygon fill="midnightblue" stroke="midnightblue" points="429.451,-39.7041 434.738,-30.523 424.879,-34.4029 429.451,-39.7041"/>
</g>
<!-- Node14 -->
<g id="node14" class="node"><title>Node14</title>
<polygon fill="white" stroke="#bfbfbf" points="530.5,-0.5 530.5,-30.5 625.5,-30.5 625.5,-0.5 530.5,-0.5"/>
<text text-anchor="start" x="538.5" y="-18.5" font-family="Helvetica,sans-Serif" font-size="10.00">tlm_utils/peq_with</text>
<text text-anchor="middle" x="578" y="-7.5" font-family="Helvetica,sans-Serif" font-size="10.00">_get.h</text>
</g>
<!-- Node10&#45;&gt;Node14 -->
<g id="edge14" class="edge"><title>Node10&#45;&gt;Node14</title>
<path fill="none" stroke="midnightblue" d="M410.082,-67.4751C439.108,-58.6635 485.21,-44.6684 521.77,-33.5698"/>
<polygon fill="midnightblue" stroke="midnightblue" points="523.255,-36.7769 531.807,-30.523 521.221,-30.0788 523.255,-36.7769"/>
</g>
<!-- Node15&#45;&gt;Node4 -->
<g id="edge26" class="edge"><title>Node15&#45;&gt;Node4</title>
<path fill="none" stroke="midnightblue" d="M947.138,-425.422C953.177,-416.64 962.299,-402.416 968,-389 975.12,-372.246 980.231,-352.103 983.346,-337.646"/>
<polygon fill="midnightblue" stroke="midnightblue" points="986.858,-337.941 985.417,-327.444 979.997,-336.548 986.858,-337.941"/>
</g>
<!-- Node15&#45;&gt;Node10 -->
<g id="edge16" class="edge"><title>Node15&#45;&gt;Node10</title>
<path fill="none" stroke="midnightblue" d="M886.883,-432.806C692.068,-427.801 38,-404.587 38,-318.5 38,-318.5 38,-318.5 38,-188 38,-131.548 208.193,-100.089 309.157,-86.3925"/>
<polygon fill="midnightblue" stroke="midnightblue" points="309.853,-89.8309 319.305,-85.0439 308.931,-82.8919 309.853,-89.8309"/>
</g>
<!-- Node15&#45;&gt;Node16 -->
<g id="edge17" class="edge"><title>Node15&#45;&gt;Node16</title>
<path fill="none" stroke="midnightblue" d="M977.761,-425.444C1018.06,-416.063 1082.81,-400.993 1126.58,-390.804"/>
<polygon fill="midnightblue" stroke="midnightblue" points="1127.46,-394.192 1136.41,-388.516 1125.88,-387.375 1127.46,-394.192"/>
</g>
<!-- Node22 -->
<g id="node22" class="node"><title>Node22</title>
<g id="a_node22"><a xlink:href="sr__param_8h.html" target="_top" xlink:title="core/common/sr_param.h">
<polygon fill="white" stroke="black" points="831,-369.5 831,-388.5 959,-388.5 959,-369.5 831,-369.5"/>
<text text-anchor="middle" x="895" y="-376.5" font-family="Helvetica,sans-Serif" font-size="10.00">core/common/sr_param.h</text>
</a>
</g>
</g>
<!-- Node15&#45;&gt;Node22 -->
<g id="edge27" class="edge"><title>Node15&#45;&gt;Node22</title>
<path fill="none" stroke="midnightblue" d="M933.404,-425.083C926.773,-417.298 916.979,-405.801 908.942,-396.367"/>
<polygon fill="midnightblue" stroke="midnightblue" points="911.604,-394.094 902.455,-388.751 906.275,-398.633 911.604,-394.094"/>
</g>
<!-- Node17 -->
<g id="node17" class="node"><title>Node17</title>
<g id="a_node17"><a xlink:href="sr__report_2sr__report_8h.html" target="_top" xlink:title="core/common/sr_report\l/sr_report.h">
<polygon fill="white" stroke="black" points="1308.5,-235.5 1308.5,-265.5 1425.5,-265.5 1425.5,-235.5 1308.5,-235.5"/>
<text text-anchor="start" x="1316.5" y="-253.5" font-family="Helvetica,sans-Serif" font-size="10.00">core/common/sr_report</text>
<text text-anchor="middle" x="1367" y="-242.5" font-family="Helvetica,sans-Serif" font-size="10.00">/sr_report.h</text>
</a>
</g>
</g>
<!-- Node16&#45;&gt;Node17 -->
<g id="edge18" class="edge"><title>Node16&#45;&gt;Node17</title>
<path fill="none" stroke="midnightblue" d="M1186.33,-369.305C1217.1,-349.241 1293.71,-299.29 1336.63,-271.302"/>
<polygon fill="midnightblue" stroke="midnightblue" points="1338.79,-274.076 1345.25,-265.682 1334.96,-268.212 1338.79,-274.076"/>
</g>
<!-- Node17&#45;&gt;Node6 -->
<g id="edge22" class="edge"><title>Node17&#45;&gt;Node6</title>
<path fill="none" stroke="midnightblue" d="M1314.42,-235.464C1280.07,-226.185 1234,-213.539 1185.34,-199.334"/>
<polygon fill="midnightblue" stroke="midnightblue" points="1186.15,-195.926 1175.57,-196.472 1184.18,-202.643 1186.15,-195.926"/>
</g>
<!-- Node17&#45;&gt;Node7 -->
<g id="edge21" class="edge"><title>Node17&#45;&gt;Node7</title>
<path fill="none" stroke="midnightblue" d="M1330.03,-235.399C1301.87,-224.66 1263.74,-210.116 1238.3,-200.414"/>
<polygon fill="midnightblue" stroke="midnightblue" points="1239.49,-197.12 1228.9,-196.826 1236.99,-203.66 1239.49,-197.12"/>
</g>
<!-- Node17&#45;&gt;Node9 -->
<g id="edge20" class="edge"><title>Node17&#45;&gt;Node9</title>
<path fill="none" stroke="midnightblue" d="M1357.28,-235.399C1351.45,-226.932 1343.98,-216.099 1337.81,-207.139"/>
<polygon fill="midnightblue" stroke="midnightblue" points="1340.52,-204.906 1331.97,-198.658 1334.76,-208.878 1340.52,-204.906"/>
</g>
<!-- Node18 -->
<g id="node18" class="node"><title>Node18</title>
<polygon fill="white" stroke="#bfbfbf" points="1451,-179.5 1451,-198.5 1529,-198.5 1529,-179.5 1451,-179.5"/>
<text text-anchor="middle" x="1490" y="-186.5" font-family="Helvetica,sans-Serif" font-size="10.00">boost/any.hpp</text>
</g>
<!-- Node17&#45;&gt;Node18 -->
<g id="edge19" class="edge"><title>Node17&#45;&gt;Node18</title>
<path fill="none" stroke="midnightblue" d="M1396.15,-235.399C1416.42,-225.595 1443.24,-212.619 1463.02,-203.052"/>
<polygon fill="midnightblue" stroke="midnightblue" points="1464.62,-206.163 1472.1,-198.658 1461.58,-199.862 1464.62,-206.163"/>
</g>
<!-- Node19 -->
<g id="node19" class="node"><title>Node19</title>
<polygon fill="white" stroke="#bfbfbf" points="1354,-67.5 1354,-86.5 1404,-86.5 1404,-67.5 1354,-67.5"/>
<text text-anchor="middle" x="1379" y="-74.5" font-family="Helvetica,sans-Serif" font-size="10.00">iomanip</text>
</g>
<!-- Node17&#45;&gt;Node19 -->
<g id="edge23" class="edge"><title>Node17&#45;&gt;Node19</title>
<path fill="none" stroke="midnightblue" d="M1379.24,-235.125C1386.54,-225.568 1395.12,-212.357 1399,-199 1408.41,-166.56 1406.01,-156.042 1399,-123 1397,-113.591 1392.9,-103.762 1388.93,-95.6981"/>
<polygon fill="midnightblue" stroke="midnightblue" points="1391.89,-93.8101 1384.13,-86.5932 1385.69,-97.0721 1391.89,-93.8101"/>
</g>
<!-- Node20 -->
<g id="node20" class="node"><title>Node20</title>
<polygon fill="white" stroke="#bfbfbf" points="1434,-67.5 1434,-86.5 1488,-86.5 1488,-67.5 1434,-67.5"/>
<text text-anchor="middle" x="1461" y="-74.5" font-family="Helvetica,sans-Serif" font-size="10.00">iostream</text>
</g>
<!-- Node17&#45;&gt;Node20 -->
<g id="edge24" class="edge"><title>Node17&#45;&gt;Node20</title>
<path fill="none" stroke="midnightblue" d="M1425.75,-239.83C1469.65,-231.265 1524.33,-217.286 1538,-199 1565.52,-162.174 1513.29,-115.525 1482.03,-92.3795"/>
<polygon fill="midnightblue" stroke="midnightblue" points="1484.02,-89.4968 1473.85,-86.5023 1479.93,-95.1809 1484.02,-89.4968"/>
</g>
<!-- Node21 -->
<g id="node21" class="node"><title>Node21</title>
<polygon fill="white" stroke="#bfbfbf" points="1253,-67.5 1253,-86.5 1313,-86.5 1313,-67.5 1253,-67.5"/>
<text text-anchor="middle" x="1283" y="-74.5" font-family="Helvetica,sans-Serif" font-size="10.00">streambuf</text>
</g>
<!-- Node17&#45;&gt;Node21 -->
<g id="edge25" class="edge"><title>Node17&#45;&gt;Node21</title>
<path fill="none" stroke="midnightblue" d="M1369.45,-235.496C1371.41,-220.907 1372.82,-197.621 1366,-179 1352.97,-143.411 1321.62,-111.275 1301.4,-93.2316"/>
<polygon fill="midnightblue" stroke="midnightblue" points="1303.6,-90.5078 1293.75,-86.6038 1299.01,-95.7978 1303.6,-90.5078"/>
</g>
<!-- Node23 -->
<g id="node23" class="node"><title>Node23</title>
<g id="a_node23"><a xlink:href="sr__param_2sr__param_8h.html" target="_top" xlink:title="core/common/sr_param\l/sr_param.h">
<polygon fill="white" stroke="black" points="783.5,-302.5 783.5,-332.5 902.5,-332.5 902.5,-302.5 783.5,-302.5"/>
<text text-anchor="start" x="791.5" y="-320.5" font-family="Helvetica,sans-Serif" font-size="10.00">core/common/sr_param</text>
<text text-anchor="middle" x="843" y="-309.5" font-family="Helvetica,sans-Serif" font-size="10.00">/sr_param.h</text>
</a>
</g>
</g>
<!-- Node22&#45;&gt;Node23 -->
<g id="edge28" class="edge"><title>Node22&#45;&gt;Node23</title>
<path fill="none" stroke="midnightblue" d="M887.55,-369.475C880.902,-361.869 870.878,-350.399 862.021,-340.265"/>
<polygon fill="midnightblue" stroke="midnightblue" points="864.471,-337.749 855.255,-332.523 859.201,-342.356 864.471,-337.749"/>
</g>
<!-- Node23&#45;&gt;Node6 -->
<g id="edge29" class="edge"><title>Node23&#45;&gt;Node6</title>
<path fill="none" stroke="midnightblue" d="M873.152,-302.388C909.531,-285.556 972.705,-256.941 1028,-235 1060.63,-222.052 1098.65,-208.82 1124.53,-200.086"/>
<polygon fill="midnightblue" stroke="midnightblue" points="1125.78,-203.357 1134.15,-196.858 1123.55,-196.721 1125.78,-203.357"/>
</g>
<!-- Node24 -->
<g id="node24" class="node"><title>Node24</title>
<polygon fill="white" stroke="#bfbfbf" points="669.5,-241 669.5,-260 776.5,-260 776.5,-241 669.5,-241"/>
<text text-anchor="middle" x="723" y="-248" font-family="Helvetica,sans-Serif" font-size="10.00">greencontrol/config.h</text>
</g>
<!-- Node23&#45;&gt;Node24 -->
<g id="edge30" class="edge"><title>Node23&#45;&gt;Node24</title>
<path fill="none" stroke="midnightblue" d="M816.962,-302.396C796.372,-291.243 767.827,-275.781 747.616,-264.834"/>
<polygon fill="midnightblue" stroke="midnightblue" points="749.165,-261.692 738.705,-260.007 745.831,-267.847 749.165,-261.692"/>
</g>
<!-- Node25 -->
<g id="node25" class="node"><title>Node25</title>
<g id="a_node25"><a xlink:href="sr__param__base_8h.html" target="_top" xlink:title="sr_param_base.h">
<polygon fill="white" stroke="black" points="1037,-241 1037,-260 1129,-260 1129,-241 1037,-241"/>
<text text-anchor="middle" x="1083" y="-248" font-family="Helvetica,sans-Serif" font-size="10.00">sr_param_base.h</text>
</a>
</g>
</g>
<!-- Node23&#45;&gt;Node25 -->
<g id="edge31" class="edge"><title>Node23&#45;&gt;Node25</title>
<path fill="none" stroke="midnightblue" d="M894.781,-302.476C938.735,-290.572 1000.97,-273.716 1041.66,-262.698"/>
<polygon fill="midnightblue" stroke="midnightblue" points="1042.77,-266.021 1051.51,-260.029 1040.94,-259.265 1042.77,-266.021"/>
</g>
<!-- Node26 -->
<g id="node26" class="node"><title>Node26</title>
<g id="a_node26"><a xlink:href="sr__param__class_8h.html" target="_top" xlink:title="sr_param_class.h">
<polygon fill="white" stroke="black" points="795,-241 795,-260 889,-260 889,-241 795,-241"/>
<text text-anchor="middle" x="842" y="-248" font-family="Helvetica,sans-Serif" font-size="10.00">sr_param_class.h</text>
</a>
</g>
</g>
<!-- Node23&#45;&gt;Node26 -->
<g id="edge35" class="edge"><title>Node23&#45;&gt;Node26</title>
<path fill="none" stroke="midnightblue" d="M842.783,-302.396C842.639,-293.064 842.449,-280.714 842.293,-270.517"/>
<polygon fill="midnightblue" stroke="midnightblue" points="845.787,-270.139 842.134,-260.195 838.788,-270.247 845.787,-270.139"/>
</g>
<!-- Node25&#45;&gt;Node6 -->
<g id="edge32" class="edge"><title>Node25&#45;&gt;Node6</title>
<path fill="none" stroke="midnightblue" d="M1093.32,-240.975C1104.65,-231.608 1123.07,-216.384 1136.84,-205.008"/>
<polygon fill="midnightblue" stroke="midnightblue" points="1139.22,-207.577 1144.7,-198.509 1134.77,-202.181 1139.22,-207.577"/>
</g>
<!-- Node25&#45;&gt;Node7 -->
<g id="edge33" class="edge"><title>Node25&#45;&gt;Node7</title>
<path fill="none" stroke="midnightblue" d="M1101.34,-240.975C1122.94,-230.933 1159.03,-214.158 1183.87,-202.611"/>
<polygon fill="midnightblue" stroke="midnightblue" points="1185.51,-205.706 1193.11,-198.317 1182.56,-199.359 1185.51,-205.706"/>
</g>
<!-- Node25&#45;&gt;Node15 -->
<g id="edge34" class="edge"><title>Node25&#45;&gt;Node15</title>
<path fill="none" stroke="midnightblue" d="M1082.51,-260.032C1081.26,-275.653 1076.91,-309.41 1062,-333 1037.44,-371.86 992.998,-403.215 965.352,-420.178"/>
<polygon fill="midnightblue" stroke="midnightblue" points="963.459,-417.233 956.674,-425.37 967.052,-423.24 963.459,-417.233"/>
</g>
<!-- Node26&#45;&gt;Node6 -->
<g id="edge36" class="edge"><title>Node26&#45;&gt;Node6</title>
<path fill="none" stroke="midnightblue" d="M889.428,-241.953C944.931,-232.875 1039.5,-216.638 1120,-199 1121.46,-198.681 1122.94,-198.344 1124.44,-197.995"/>
<polygon fill="midnightblue" stroke="midnightblue" points="1125.45,-201.352 1134.33,-195.578 1123.79,-194.552 1125.45,-201.352"/>
</g>
<!-- Node26&#45;&gt;Node20 -->
<g id="edge37" class="edge"><title>Node26&#45;&gt;Node20</title>
<path fill="none" stroke="midnightblue" d="M889.339,-243.565C939.259,-236.422 1019.7,-222.374 1086,-199 1104.37,-192.523 1106.93,-186.278 1125,-179 1180.51,-156.639 1348.78,-109.095 1423.99,-88.2058"/>
<polygon fill="midnightblue" stroke="midnightblue" points="1425.26,-91.4851 1433.96,-85.4404 1423.39,-84.7396 1425.26,-91.4851"/>
</g>
<!-- Node27 -->
<g id="node27" class="node"><title>Node27</title>
<polygon fill="white" stroke="#bfbfbf" points="104,-179.5 104,-198.5 156,-198.5 156,-179.5 104,-179.5"/>
<text text-anchor="middle" x="130" y="-186.5" font-family="Helvetica,sans-Serif" font-size="10.00">sstream</text>
</g>
<!-- Node26&#45;&gt;Node27 -->
<g id="edge38" class="edge"><title>Node26&#45;&gt;Node27</title>
<path fill="none" stroke="midnightblue" d="M812.931,-240.965C804.039,-238.664 794.183,-236.421 785,-235 515.558,-193.299 439.566,-240.392 166.475,-198.913"/>
<polygon fill="midnightblue" stroke="midnightblue" points="166.677,-195.403 156.259,-197.334 165.608,-202.32 166.677,-195.403"/>
</g>
<!-- Node28 -->
<g id="node28" class="node"><title>Node28</title>
<polygon fill="white" stroke="#bfbfbf" points="266,-179.5 266,-198.5 368,-198.5 368,-179.5 266,-179.5"/>
<text text-anchor="middle" x="317" y="-186.5" font-family="Helvetica,sans-Serif" font-size="10.00">boost/tokenizer.hpp</text>
</g>
<!-- Node26&#45;&gt;Node28 -->
<g id="edge39" class="edge"><title>Node26&#45;&gt;Node28</title>
<path fill="none" stroke="midnightblue" d="M812.315,-240.985C803.578,-238.742 793.959,-236.525 785,-235 608.784,-205.013 559.532,-219.947 378.18,-199.061"/>
<polygon fill="midnightblue" stroke="midnightblue" points="378.374,-195.56 368.035,-197.871 377.559,-202.512 378.374,-195.56"/>
</g>
<!-- Node29 -->
<g id="node29" class="node"><title>Node29</title>
<g id="a_node29"><a xlink:href="common_8h.html" target="_top" xlink:title="core/common/common.h">
<polygon fill="white" stroke="black" points="952.5,-179.5 952.5,-198.5 1077.5,-198.5 1077.5,-179.5 952.5,-179.5"/>
<text text-anchor="middle" x="1015" y="-186.5" font-family="Helvetica,sans-Serif" font-size="10.00">core/common/common.h</text>
</a>
</g>
</g>
<!-- Node26&#45;&gt;Node29 -->
<g id="edge40" class="edge"><title>Node26&#45;&gt;Node29</title>
<path fill="none" stroke="midnightblue" d="M866.787,-240.975C896.591,-230.725 946.791,-213.459 980.402,-201.899"/>
<polygon fill="midnightblue" stroke="midnightblue" points="981.941,-205.071 990.259,-198.509 979.665,-198.452 981.941,-205.071"/>
</g>
<!-- Node34 -->
<g id="node34" class="node"><title>Node34</title>
<g id="a_node34"><a xlink:href="sr__param__t_8h.html" target="_top" xlink:title="sr_param_t.h">
<polygon fill="white" stroke="black" points="174,-179.5 174,-198.5 248,-198.5 248,-179.5 174,-179.5"/>
<text text-anchor="middle" x="211" y="-186.5" font-family="Helvetica,sans-Serif" font-size="10.00">sr_param_t.h</text>
</a>
</g>
</g>
<!-- Node26&#45;&gt;Node34 -->
<g id="edge52" class="edge"><title>Node26&#45;&gt;Node34</title>
<path fill="none" stroke="midnightblue" d="M812.628,-240.947C803.814,-238.674 794.075,-236.451 785,-235 556.029,-198.38 492.012,-228.755 258.27,-198.991"/>
<polygon fill="midnightblue" stroke="midnightblue" points="258.459,-195.486 248.092,-197.671 257.558,-202.428 258.459,-195.486"/>
</g>
<!-- Node35 -->
<g id="node35" class="node"><title>Node35</title>
<g id="a_node35"><a xlink:href="sr__param__operator__macros_8h.html" target="_top" xlink:title="sr_param_operator_macros.h">
<polygon fill="white" stroke="black" points="386.5,-179.5 386.5,-198.5 529.5,-198.5 529.5,-179.5 386.5,-179.5"/>
<text text-anchor="middle" x="458" y="-186.5" font-family="Helvetica,sans-Serif" font-size="10.00">sr_param_operator_macros.h</text>
</a>
</g>
</g>
<!-- Node26&#45;&gt;Node35 -->
<g id="edge53" class="edge"><title>Node26&#45;&gt;Node35</title>
<path fill="none" stroke="midnightblue" d="M811.081,-240.962C802.664,-238.822 793.518,-236.664 785,-235 738.952,-226.004 618.026,-210.105 536.85,-199.815"/>
<polygon fill="midnightblue" stroke="midnightblue" points="537.022,-196.309 526.661,-198.526 536.143,-203.254 537.022,-196.309"/>
</g>
<!-- Node36 -->
<g id="node36" class="node"><title>Node36</title>
<g id="a_node36"><a xlink:href="sr__param__delegate_8h.html" target="_top" xlink:title="sr_param_delegate.h">
<polygon fill="white" stroke="black" points="547.5,-179.5 547.5,-198.5 654.5,-198.5 654.5,-179.5 547.5,-179.5"/>
<text text-anchor="middle" x="601" y="-186.5" font-family="Helvetica,sans-Serif" font-size="10.00">sr_param_delegate.h</text>
</a>
</g>
</g>
<!-- Node26&#45;&gt;Node36 -->
<g id="edge54" class="edge"><title>Node26&#45;&gt;Node36</title>
<path fill="none" stroke="midnightblue" d="M808.557,-240.938C800.825,-238.973 792.629,-236.903 785,-235 737.751,-223.213 683.6,-210.006 646.34,-200.965"/>
<polygon fill="midnightblue" stroke="midnightblue" points="646.841,-197.485 636.298,-198.53 645.192,-204.288 646.841,-197.485"/>
</g>
<!-- Node37 -->
<g id="node37" class="node"><title>Node37</title>
<g id="a_node37"><a xlink:href="sr__param__native_8h.html" target="_top" xlink:title="sr_param_native.h">
<polygon fill="white" stroke="black" points="672.5,-179.5 672.5,-198.5 769.5,-198.5 769.5,-179.5 672.5,-179.5"/>
<text text-anchor="middle" x="721" y="-186.5" font-family="Helvetica,sans-Serif" font-size="10.00">sr_param_native.h</text>
</a>
</g>
</g>
<!-- Node26&#45;&gt;Node37 -->
<g id="edge55" class="edge"><title>Node26&#45;&gt;Node37</title>
<path fill="none" stroke="midnightblue" d="M824.664,-240.975C804.447,-231.034 770.813,-214.495 747.358,-202.961"/>
<polygon fill="midnightblue" stroke="midnightblue" points="748.822,-199.781 738.304,-198.509 745.733,-206.063 748.822,-199.781"/>
</g>
<!-- Node38 -->
<g id="node38" class="node"><title>Node38</title>
<g id="a_node38"><a xlink:href="sr__param__stdint_8h.html" target="_top" xlink:title="sr_param_stdint.h">
<polygon fill="white" stroke="black" points="802.5,-123.5 802.5,-142.5 897.5,-142.5 897.5,-123.5 802.5,-123.5"/>
<text text-anchor="middle" x="850" y="-130.5" font-family="Helvetica,sans-Serif" font-size="10.00">sr_param_stdint.h</text>
</a>
</g>
</g>
<!-- Node26&#45;&gt;Node38 -->
<g id="edge56" class="edge"><title>Node26&#45;&gt;Node38</title>
<path fill="none" stroke="midnightblue" d="M859.881,-240.943C875.028,-232.597 895.719,-218.335 905,-199 914.609,-178.982 894.006,-160.077 875.337,-147.87"/>
<polygon fill="midnightblue" stroke="midnightblue" points="877.094,-144.843 866.74,-142.597 873.434,-150.809 877.094,-144.843"/>
</g>
<!-- Node39 -->
<g id="node39" class="node"><title>Node39</title>
<g id="a_node39"><a xlink:href="sr__param__systemc_8h.html" target="_top" xlink:title="sr_param_systemc.h">
<polygon fill="white" stroke="black" points="788,-179.5 788,-198.5 896,-198.5 896,-179.5 788,-179.5"/>
<text text-anchor="middle" x="842" y="-186.5" font-family="Helvetica,sans-Serif" font-size="10.00">sr_param_systemc.h</text>
</a>
</g>
</g>
<!-- Node26&#45;&gt;Node39 -->
<g id="edge58" class="edge"><title>Node26&#45;&gt;Node39</title>
<path fill="none" stroke="midnightblue" d="M842,-240.975C842,-232.58 842,-219.481 842,-208.663"/>
<polygon fill="midnightblue" stroke="midnightblue" points="845.5,-208.509 842,-198.509 838.5,-208.509 845.5,-208.509"/>
</g>
<!-- Node29&#45;&gt;Node10 -->
<g id="edge41" class="edge"><title>Node29&#45;&gt;Node10</title>
<path fill="none" stroke="midnightblue" d="M1002.12,-179.313C977.913,-163.154 926.237,-129.52 906,-123 824.11,-96.6156 578.828,-84.6908 455.089,-80.2348"/>
<polygon fill="midnightblue" stroke="midnightblue" points="455.065,-76.7319 444.948,-79.8766 454.818,-83.7275 455.065,-76.7319"/>
</g>
<!-- Node30 -->
<g id="node30" class="node"><title>Node30</title>
<g id="a_node30"><a xlink:href="vendian_8h.html" target="_top" xlink:title="core/common/vendian.h">
<polygon fill="white" stroke="black" points="954.5,-123.5 954.5,-142.5 1075.5,-142.5 1075.5,-123.5 954.5,-123.5"/>
<text text-anchor="middle" x="1015" y="-130.5" font-family="Helvetica,sans-Serif" font-size="10.00">core/common/vendian.h</text>
</a>
</g>
</g>
<!-- Node29&#45;&gt;Node30 -->
<g id="edge42" class="edge"><title>Node29&#45;&gt;Node30</title>
<path fill="none" stroke="midnightblue" d="M1015,-179.083C1015,-172.006 1015,-161.861 1015,-152.986"/>
<polygon fill="midnightblue" stroke="midnightblue" points="1018.5,-152.751 1015,-142.751 1011.5,-152.751 1018.5,-152.751"/>
</g>
<!-- Node31 -->
<g id="node31" class="node"><title>Node31</title>
<g id="a_node31"><a xlink:href="verbose_8h.html" target="_top" xlink:title="Implements a unified output system for messages and debunging. ">
<polygon fill="white" stroke="black" points="1100,-123.5 1100,-142.5 1222,-142.5 1222,-123.5 1100,-123.5"/>
<text text-anchor="middle" x="1161" y="-130.5" font-family="Helvetica,sans-Serif" font-size="10.00">core/common/verbose.h</text>
</a>
</g>
</g>
<!-- Node29&#45;&gt;Node31 -->
<g id="edge44" class="edge"><title>Node29&#45;&gt;Node31</title>
<path fill="none" stroke="midnightblue" d="M1033.05,-179.444C1055.52,-170.399 1094.07,-156.064 1123.07,-145.916"/>
<polygon fill="midnightblue" stroke="midnightblue" points="1124.59,-149.095 1132.89,-142.516 1122.3,-142.48 1124.59,-149.095"/>
</g>
<!-- Node30&#45;&gt;Node3 -->
<g id="edge43" class="edge"><title>Node30&#45;&gt;Node3</title>
<path fill="none" stroke="midnightblue" d="M988.855,-123.444C960.567,-114.185 915.344,-99.3854 884.239,-89.2054"/>
<polygon fill="midnightblue" stroke="midnightblue" points="885.268,-85.8595 874.675,-86.0755 883.09,-92.5123 885.268,-85.8595"/>
</g>
<!-- Node31&#45;&gt;Node10 -->
<g id="edge51" class="edge"><title>Node31&#45;&gt;Node10</title>
<path fill="none" stroke="midnightblue" d="M1099.67,-124.538C1094.37,-123.983 1089.09,-123.461 1084,-123 854.558,-102.251 582.078,-87.6466 454.573,-81.3975"/>
<polygon fill="midnightblue" stroke="midnightblue" points="454.695,-77.8994 444.536,-80.9082 454.354,-84.8911 454.695,-77.8994"/>
</g>
<!-- Node31&#45;&gt;Node19 -->
<g id="edge47" class="edge"><title>Node31&#45;&gt;Node19</title>
<path fill="none" stroke="midnightblue" d="M1195.54,-123.444C1236.16,-113.382 1303.21,-96.7746 1344.02,-86.6658"/>
<polygon fill="midnightblue" stroke="midnightblue" points="1344.93,-90.0455 1353.79,-84.2437 1343.25,-83.2509 1344.93,-90.0455"/>
</g>
<!-- Node31&#45;&gt;Node20 -->
<g id="edge48" class="edge"><title>Node31&#45;&gt;Node20</title>
<path fill="none" stroke="midnightblue" d="M1209.33,-123.497C1260.08,-114.539 1342.18,-99.9623 1413,-87 1416.48,-86.3625 1420.11,-85.6934 1423.73,-85.02"/>
<polygon fill="midnightblue" stroke="midnightblue" points="1424.66,-88.4083 1433.85,-83.1337 1423.37,-81.527 1424.66,-88.4083"/>
</g>
<!-- Node31&#45;&gt;Node21 -->
<g id="edge49" class="edge"><title>Node31&#45;&gt;Node21</title>
<path fill="none" stroke="midnightblue" d="M1180.33,-123.444C1200.32,-114.596 1231.74,-100.687 1254.56,-90.5865"/>
<polygon fill="midnightblue" stroke="midnightblue" points="1256.03,-93.7645 1263.76,-86.5164 1253.2,-87.3635 1256.03,-93.7645"/>
</g>
<!-- Node31&#45;&gt;Node29 -->
<g id="edge50" class="edge"><title>Node31&#45;&gt;Node29</title>
<path fill="none" stroke="midnightblue" d="M1143.05,-142.516C1120.53,-151.585 1081.75,-166.004 1052.68,-176.172"/>
<polygon fill="midnightblue" stroke="midnightblue" points="1051.53,-172.865 1043.22,-179.444 1053.82,-179.48 1051.53,-172.865"/>
</g>
<!-- Node32 -->
<g id="node32" class="node"><title>Node32</title>
<polygon fill="white" stroke="#bfbfbf" points="1145.5,-67.5 1145.5,-86.5 1188.5,-86.5 1188.5,-67.5 1145.5,-67.5"/>
<text text-anchor="middle" x="1167" y="-74.5" font-family="Helvetica,sans-Serif" font-size="10.00">cstdio</text>
</g>
<!-- Node31&#45;&gt;Node32 -->
<g id="edge45" class="edge"><title>Node31&#45;&gt;Node32</title>
<path fill="none" stroke="midnightblue" d="M1161.99,-123.083C1162.79,-115.927 1163.93,-105.635 1164.92,-96.6911"/>
<polygon fill="midnightblue" stroke="midnightblue" points="1168.4,-97.0765 1166.03,-86.7511 1161.44,-96.3034 1168.4,-97.0765"/>
</g>
<!-- Node33 -->
<g id="node33" class="node"><title>Node33</title>
<polygon fill="white" stroke="#bfbfbf" points="1081,-67.5 1081,-86.5 1127,-86.5 1127,-67.5 1081,-67.5"/>
<text text-anchor="middle" x="1104" y="-74.5" font-family="Helvetica,sans-Serif" font-size="10.00">cstring</text>
</g>
<!-- Node31&#45;&gt;Node33 -->
<g id="edge46" class="edge"><title>Node31&#45;&gt;Node33</title>
<path fill="none" stroke="midnightblue" d="M1151.84,-123.324C1143.5,-115.42 1130.97,-103.548 1120.82,-93.9377"/>
<polygon fill="midnightblue" stroke="midnightblue" points="1122.99,-91.1705 1113.32,-86.8339 1118.18,-96.2522 1122.99,-91.1705"/>
</g>
<!-- Node38&#45;&gt;Node3 -->
<g id="edge57" class="edge"><title>Node38&#45;&gt;Node3</title>
<path fill="none" stroke="midnightblue" d="M850,-123.083C850,-116.006 850,-105.861 850,-96.9865"/>
<polygon fill="midnightblue" stroke="midnightblue" points="853.5,-96.751 850,-86.7511 846.5,-96.7511 853.5,-96.751"/>
</g>
</g>
</svg>
        <g id="navigator" transform="translate(0 0)" fill="#404254">
                <rect fill="#f2f5e9" fill-opacity="0.5" stroke="#606060" stroke-width=".5" x="0" y="0" width="60" height="60"/>
                <use id="zoomplus" xlink:href="#zoomPlus" x="17" y="9" onmousedown="handleZoom(evt,'in')"/>
                <use id="zoomminus" xlink:href="#zoomMin" x="42" y="9" onmousedown="handleZoom(evt,'out')"/>
                <use id="reset" xlink:href="#resetDef" x="30" y="36" onmousedown="handleReset()"/>
                <g id="arrowUp" xlink:href="#dirArrow" transform="translate(30 24)" onmousedown="handlePan(0,-1)">
                  <use xlink:href="#rim" fill="#404040">
                        <set attributeName="fill" to="#808080" begin="arrowUp.mouseover" end="arrowUp.mouseout"/>
                  </use>
                  <path fill="none" stroke="white" stroke-width="1.5" d="M0,-3.0v7 M-2.5,-0.5L0,-3.0L2.5,-0.5"/>
                </g>
                <g id="arrowRight" xlink:href="#dirArrow" transform="rotate(90) translate(36 -43)" onmousedown="handlePan(1,0)">
                  <use xlink:href="#rim" fill="#404040">
                        <set attributeName="fill" to="#808080" begin="arrowRight.mouseover" end="arrowRight.mouseout"/>
                  </use>
                  <path fill="none" stroke="white" stroke-width="1.5" d="M0,-3.0v7 M-2.5,-0.5L0,-3.0L2.5,-0.5"/>
                </g>
                <g id="arrowDown" xlink:href="#dirArrow" transform="rotate(180) translate(-30 -48)" onmousedown="handlePan(0,1)">
                  <use xlink:href="#rim" fill="#404040">
                        <set attributeName="fill" to="#808080" begin="arrowDown.mouseover" end="arrowDown.mouseout"/>
                  </use>
                  <path fill="none" stroke="white" stroke-width="1.5" d="M0,-3.0v7 M-2.5,-0.5L0,-3.0L2.5,-0.5"/>
                </g>
                <g id="arrowLeft" xlink:href="#dirArrow" transform="rotate(270) translate(-36 17)" onmousedown="handlePan(-1,0)">
                  <use xlink:href="#rim" fill="#404040">
                        <set attributeName="fill" to="#808080" begin="arrowLeft.mouseover" end="arrowLeft.mouseout"/>
                  </use>
                  <path fill="none" stroke="white" stroke-width="1.5" d="M0,-3.0v7 M-2.5,-0.5L0,-3.0L2.5,-0.5"/>
                </g>
        </g>
        <svg viewBox="0 0 15 15" width="100%" height="30px" preserveAspectRatio="xMaxYMin meet">
         <g id="arrow_out" transform="scale(0.3 0.3)">
          <a xlink:href="reportio_8h__incl_org.svg" target="_base">
           <rect id="button" ry="5" rx="5" y="6" x="6" height="38" width="38"
                fill="#f2f5e9" fill-opacity="0.5" stroke="#606060" stroke-width="1.0"/>
           <path id="arrow"
             d="M 11.500037,31.436501 C 11.940474,20.09759 22.043105,11.32322 32.158766,21.979434 L 37.068811,17.246167 C 37.068811,17.246167 37.088388,32 37.088388,32 L 22.160133,31.978069 C 22.160133,31.978069 26.997745,27.140456 26.997745,27.140456 C 18.528582,18.264221 13.291696,25.230495 11.500037,31.436501 z"
             style="fill:#404040;"/>
          </a>
         </g>
        </svg>
</svg>
