<?xml version="1.0" encoding="UTF-8" standalone="no"?>
<!DOCTYPE svg PUBLIC "-//W3C//DTD SVG 1.1//EN"
 "http://www.w3.org/Graphics/SVG/1.1/DTD/svg11.dtd">
<!-- Generated by graphviz version 2.38.0 (20140413.2041)
 -->
<!-- Title: rt_1553_test Pages: 1 -->
<svg width="198pt" height="249pt"
 viewBox="0.00 0.00 197.74 249.00" xmlns="http://www.w3.org/2000/svg" xmlns:xlink="http://www.w3.org/1999/xlink">
<g id="graph0" class="graph" transform="scale(1 1) rotate(0) translate(4 245)">
<title>rt_1553_test</title>
<polygon fill="white" stroke="none" points="-4,4 -4,-245 193.743,-245 193.743,4 -4,4"/>
<!-- Node1 -->
<g id="node1" class="node"><title>Node1</title>
<polygon fill="#bfbfbf" stroke="black" points="0,-111.5 0,-129.5 71.5957,-129.5 71.5957,-111.5 0,-111.5"/>
<text text-anchor="middle" x="35.7979" y="-117.5" font-family="Helvetica,sans-Serif" font-size="10.00">rt_1553_test</text>
</g>
<!-- Node2 -->
<g id="node2" class="node"><title>Node2</title>
<g id="a_node2"><a xlink:href="rt__1553_8c.html#a2b5353eac726ea8b02d08ed381f1ab15" target="_top" xlink:title="catch_interrupt">
<polygon fill="white" stroke="black" points="107.596,-222.5 107.596,-240.5 189.743,-240.5 189.743,-222.5 107.596,-222.5"/>
<text text-anchor="middle" x="148.669" y="-228.5" font-family="Helvetica,sans-Serif" font-size="10.00">catch_interrupt</text>
</a>
</g>
</g>
<!-- Node1&#45;&gt;Node2 -->
<g id="edge1" class="edge"><title>Node1&#45;&gt;Node2</title>
<path fill="none" stroke="midnightblue" d="M41.6633,-129.633C51.7504,-147.813 76.6085,-188.893 107.596,-213.5 109.391,-214.926 111.318,-216.265 113.32,-217.518"/>
<polygon fill="midnightblue" stroke="midnightblue" points="111.95,-220.758 122.407,-222.465 115.297,-214.61 111.95,-220.758"/>
</g>
<!-- Node3 -->
<g id="node3" class="node"><title>Node3</title>
<g id="a_node3"><a xlink:href="rt__1553_8c.html#a25f09598fc0c854e9330a9d3b09e31d8" target="_top" xlink:title="enable_irq_rt">
<polygon fill="white" stroke="black" points="111.482,-185.5 111.482,-203.5 185.856,-203.5 185.856,-185.5 111.482,-185.5"/>
<text text-anchor="middle" x="148.669" y="-191.5" font-family="Helvetica,sans-Serif" font-size="10.00">enable_irq_rt</text>
</a>
</g>
</g>
<!-- Node1&#45;&gt;Node3 -->
<g id="edge2" class="edge"><title>Node1&#45;&gt;Node3</title>
<path fill="none" stroke="midnightblue" d="M46.7618,-129.7C59.957,-141.563 84.2875,-162.347 107.596,-176.5 110.102,-178.022 112.758,-179.492 115.464,-180.892"/>
<polygon fill="midnightblue" stroke="midnightblue" points="114.178,-184.158 124.705,-185.356 117.223,-177.855 114.178,-184.158"/>
</g>
<!-- Node4 -->
<g id="node4" class="node"><title>Node4</title>
<g id="a_node4"><a xlink:href="rt__1553_8c.html#a80c90ea4932b19fffaca822e69fce143" target="_top" xlink:title="error_rt">
<polygon fill="white" stroke="black" points="124.278,-148.5 124.278,-166.5 173.061,-166.5 173.061,-148.5 124.278,-148.5"/>
<text text-anchor="middle" x="148.669" y="-154.5" font-family="Helvetica,sans-Serif" font-size="10.00">error_rt</text>
</a>
</g>
</g>
<!-- Node1&#45;&gt;Node4 -->
<g id="edge3" class="edge"><title>Node1&#45;&gt;Node4</title>
<path fill="none" stroke="midnightblue" d="M63.9201,-129.551C79.2099,-134.654 98.4277,-141.067 114.596,-146.463"/>
<polygon fill="midnightblue" stroke="midnightblue" points="113.614,-149.825 124.207,-149.67 115.829,-143.185 113.614,-149.825"/>
</g>
<!-- Node5 -->
<g id="node5" class="node"><title>Node5</title>
<g id="a_node5"><a xlink:href="rt__1553_8c.html#a0c8c2ec972bb2ad324676de7d24e67e6" target="_top" xlink:title="irqhandler_rt">
<polygon fill="white" stroke="black" points="112.598,-111.5 112.598,-129.5 184.741,-129.5 184.741,-111.5 112.598,-111.5"/>
<text text-anchor="middle" x="148.669" y="-117.5" font-family="Helvetica,sans-Serif" font-size="10.00">irqhandler_rt</text>
</a>
</g>
</g>
<!-- Node1&#45;&gt;Node5 -->
<g id="edge4" class="edge"><title>Node1&#45;&gt;Node5</title>
<path fill="none" stroke="midnightblue" d="M71.8783,-120.5C81.4837,-120.5 92.0359,-120.5 102.135,-120.5"/>
<polygon fill="midnightblue" stroke="midnightblue" points="102.437,-124 112.437,-120.5 102.437,-117 102.437,-124"/>
</g>
<!-- Node6 -->
<g id="node6" class="node"><title>Node6</title>
<g id="a_node6"><a xlink:href="report__device_8c.html#a19b399e21d163c2a92510871f1a807de" target="_top" xlink:title="report_device">
<polygon fill="white" stroke="black" points="110.374,-74.5 110.374,-92.5 186.965,-92.5 186.965,-74.5 110.374,-74.5"/>
<text text-anchor="middle" x="148.669" y="-80.5" font-family="Helvetica,sans-Serif" font-size="10.00">report_device</text>
</a>
</g>
</g>
<!-- Node1&#45;&gt;Node6 -->
<g id="edge5" class="edge"><title>Node1&#45;&gt;Node6</title>
<path fill="none" stroke="midnightblue" d="M63.9201,-111.449C78.0139,-106.745 95.4452,-100.928 110.749,-95.8209"/>
<polygon fill="midnightblue" stroke="midnightblue" points="112.065,-99.0717 120.443,-92.586 109.849,-92.4316 112.065,-99.0717"/>
</g>
<!-- Node7 -->
<g id="node7" class="node"><title>Node7</title>
<g id="a_node7"><a xlink:href="report__device_8c.html#aa1e4c0543aa65e7b4c320fbb86c81f3c" target="_top" xlink:title="report_subtest">
<polygon fill="white" stroke="black" points="108.707,-37.5 108.707,-55.5 188.632,-55.5 188.632,-37.5 108.707,-37.5"/>
<text text-anchor="middle" x="148.669" y="-43.5" font-family="Helvetica,sans-Serif" font-size="10.00">report_subtest</text>
</a>
</g>
</g>
<!-- Node1&#45;&gt;Node7 -->
<g id="edge6" class="edge"><title>Node1&#45;&gt;Node7</title>
<path fill="none" stroke="midnightblue" d="M47.2987,-111.153C60.6737,-99.5346 84.7954,-79.5293 107.596,-65.5 110.639,-63.6275 113.896,-61.8095 117.188,-60.0878"/>
<polygon fill="midnightblue" stroke="midnightblue" points="119.004,-63.0948 126.417,-55.5254 115.901,-56.8198 119.004,-63.0948"/>
</g>
<!-- Node8 -->
<g id="node8" class="node"><title>Node8</title>
<g id="a_node8"><a xlink:href="rt__1553_8c.html#a7a6e4e82072b16331482f0acd84ee371" target="_top" xlink:title="sync">
<polygon fill="white" stroke="black" points="130.389,-0.5 130.389,-18.5 166.95,-18.5 166.95,-0.5 130.389,-0.5"/>
<text text-anchor="middle" x="148.669" y="-6.5" font-family="Helvetica,sans-Serif" font-size="10.00">sync</text>
</a>
</g>
</g>
<!-- Node1&#45;&gt;Node8 -->
<g id="edge7" class="edge"><title>Node1&#45;&gt;Node8</title>
<path fill="none" stroke="midnightblue" d="M41.8895,-111.245C52.1978,-93.2248 77.1644,-53.0493 107.596,-28.5 111.581,-25.2851 116.2,-22.4584 120.854,-20.0351"/>
<polygon fill="midnightblue" stroke="midnightblue" points="122.691,-23.0398 130.266,-15.6324 119.725,-16.6992 122.691,-23.0398"/>
</g>
</g>
</svg>
