<?xml version="1.0" encoding="UTF-8" standalone="no"?>
<!DOCTYPE svg PUBLIC "-//W3C//DTD SVG 1.1//EN"
 "http://www.w3.org/Graphics/SVG/1.1/DTD/svg11.dtd">
<!-- Generated by graphviz version 2.38.0 (20140413.2041)
 -->
<!-- Title: core/common/scireg.h Pages: 1 -->
<svg width="198pt" height="151pt"
 viewBox="0.00 0.00 198.00 151.00" xmlns="http://www.w3.org/2000/svg" xmlns:xlink="http://www.w3.org/1999/xlink">
<g id="graph0" class="graph" transform="scale(1 1) rotate(0) translate(4 147)">
<title>core/common/scireg.h</title>
<polygon fill="white" stroke="none" points="-4,4 -4,-147 194,-147 194,4 -4,4"/>
<!-- Node1 -->
<g id="node1" class="node"><title>Node1</title>
<polygon fill="#bfbfbf" stroke="black" points="39.5,-123.5 39.5,-142.5 152.5,-142.5 152.5,-123.5 39.5,-123.5"/>
<text text-anchor="middle" x="96" y="-130.5" font-family="Helvetica,sans-Serif" font-size="10.00">core/common/scireg.h</text>
</g>
<!-- Node2 -->
<g id="node2" class="node"><title>Node2</title>
<g id="a_node2"><a xlink:href="sr__register_2scireg_8h.html" target="_top" xlink:title="core/common/sr_register\l/scireg.h">
<polygon fill="white" stroke="black" points="33.5,-56.5 33.5,-86.5 158.5,-86.5 158.5,-56.5 33.5,-56.5"/>
<text text-anchor="start" x="41.5" y="-74.5" font-family="Helvetica,sans-Serif" font-size="10.00">core/common/sr_register</text>
<text text-anchor="middle" x="96" y="-63.5" font-family="Helvetica,sans-Serif" font-size="10.00">/scireg.h</text>
</a>
</g>
</g>
<!-- Node1&#45;&gt;Node2 -->
<g id="edge1" class="edge"><title>Node1&#45;&gt;Node2</title>
<path fill="none" stroke="midnightblue" d="M96,-123.475C96,-116.471 96,-106.192 96,-96.6956"/>
<polygon fill="midnightblue" stroke="midnightblue" points="99.5001,-96.5229 96,-86.523 92.5001,-96.523 99.5001,-96.5229"/>
</g>
<!-- Node3 -->
<g id="node3" class="node"><title>Node3</title>
<polygon fill="white" stroke="#bfbfbf" points="0,-0.5 0,-19.5 56,-19.5 56,-0.5 0,-0.5"/>
<text text-anchor="middle" x="28" y="-7.5" font-family="Helvetica,sans-Serif" font-size="10.00">algorithm</text>
</g>
<!-- Node2&#45;&gt;Node3 -->
<g id="edge2" class="edge"><title>Node2&#45;&gt;Node3</title>
<path fill="none" stroke="midnightblue" d="M79.8849,-56.3993C69.5963,-47.3967 56.253,-35.7214 45.6745,-26.4652"/>
<polygon fill="midnightblue" stroke="midnightblue" points="47.7252,-23.6088 37.8946,-19.6578 43.1156,-28.8769 47.7252,-23.6088"/>
</g>
<!-- Node4 -->
<g id="node4" class="node"><title>Node4</title>
<polygon fill="white" stroke="#bfbfbf" points="74,-0.5 74,-19.5 118,-19.5 118,-0.5 74,-0.5"/>
<text text-anchor="middle" x="96" y="-7.5" font-family="Helvetica,sans-Serif" font-size="10.00">vector</text>
</g>
<!-- Node2&#45;&gt;Node4 -->
<g id="edge3" class="edge"><title>Node2&#45;&gt;Node4</title>
<path fill="none" stroke="midnightblue" d="M96,-56.3993C96,-48.4664 96,-38.458 96,-29.8583"/>
<polygon fill="midnightblue" stroke="midnightblue" points="99.5001,-29.6577 96,-19.6578 92.5001,-29.6578 99.5001,-29.6577"/>
</g>
<!-- Node5 -->
<g id="node5" class="node"><title>Node5</title>
<polygon fill="white" stroke="#bfbfbf" points="136,-0.5 136,-19.5 190,-19.5 190,-0.5 136,-0.5"/>
<text text-anchor="middle" x="163" y="-7.5" font-family="Helvetica,sans-Serif" font-size="10.00">systemc</text>
</g>
<!-- Node2&#45;&gt;Node5 -->
<g id="edge4" class="edge"><title>Node2&#45;&gt;Node5</title>
<path fill="none" stroke="midnightblue" d="M111.878,-56.3993C122.015,-47.3967 135.162,-35.7214 145.585,-26.4652"/>
<polygon fill="midnightblue" stroke="midnightblue" points="148.098,-28.915 153.251,-19.6578 143.45,-23.681 148.098,-28.915"/>
</g>
</g>
</svg>
