<?xml version="1.0" encoding="UTF-8" standalone="no"?>
<!DOCTYPE svg PUBLIC "-//W3C//DTD SVG 1.1//EN"
 "http://www.w3.org/Graphics/SVG/1.1/DTD/svg11.dtd">
<!-- Generated by graphviz version 2.26.0 (20091210.2329)
 -->
<!-- Title: core/common/signalkit.h Pages: 1 -->
<!--zoomable 604 -->
<svg id="main" version="1.1" xmlns="http://www.w3.org/2000/svg" xmlns:xlink="http://www.w3.org/1999/xlink" xml:space="preserve" onload="init(evt)">
<style type="text/css"><![CDATA[
.edge:hover path { stroke: red; }
.edge:hover polygon { stroke: red; fill: red; }
]]></style>
<script type="text/javascript"><![CDATA[
var edges = document.getElementsByTagName('g');
if (edges && edges.length) {
  for (var i=0;i<edges.length;i++) {
    if (edges[i].id.substr(0,4)=='edge') {
      edges[i].setAttribute('class','edge');
    }
  }
}
]]></script>
        <defs>
                <circle id="rim" cx="0" cy="0" r="7"/>
                <circle id="rim2" cx="0" cy="0" r="3.5"/>
                <g id="zoomPlus">
                        <use xlink:href="#rim" fill="#404040">
                                <set attributeName="fill" to="#808080" begin="zoomplus.mouseover" end="zoomplus.mouseout"/>
                        </use>
                        <path d="M-4,0h8M0,-4v8" fill="none" stroke="white" stroke-width="1.5" pointer-events="none"/>
                </g>
                <g id="zoomMin">
                        <use xlink:href="#rim" fill="#404040">
                                <set attributeName="fill" to="#808080" begin="zoomminus.mouseover" end="zoomminus.mouseout"/>
                        </use>
                        <path d="M-4,0h8" fill="none" stroke="white" stroke-width="1.5" pointer-events="none"/>
                </g>
                <g id="dirArrow">
                        <path fill="none" stroke="white" stroke-width="1.5" d="M0,-3.0v7 M-2.5,-0.5L0,-3.0L2.5,-0.5"/>
                </g>
               <g id="resetDef">
                       <use xlink:href="#rim2" fill="#404040">
                               <set attributeName="fill" to="#808080" begin="reset.mouseover" end="reset.mouseout"/>
                       </use>
               </g>
        </defs>

<script type="text/javascript">
var viewWidth = 746;
var viewHeight = 604;
var sectionId = 'dynsection-0';
</script>
<script xlink:href="svgpan.js"/>
<svg id="graph" class="graph">
<g id="viewport">
<title>core/common/signalkit.h</title>
<polygon fill="white" stroke="white" points="-4,5 -4,-600 743,-600 743,5 -4,5"/>
<!-- Node1 -->
<g id="node1" class="node"><title>Node1</title>
<polygon fill="#bfbfbf" stroke="black" points="220.5,-574.5 220.5,-595.5 343.5,-595.5 343.5,-574.5 220.5,-574.5"/>
<text text-anchor="middle" x="282" y="-582.5" font-family="Helvetica,sans-Serif" font-size="10.00">core/common/signalkit.h</text>
</g>
<!-- Node2 -->
<g id="node3" class="node"><title>Node2</title>
<a xlink:href="module_8h.html" target="_top" xlink:title="core/common/signalkit\l_h/module.h">
<polygon fill="white" stroke="black" points="315.5,-275 315.5,-309 430.5,-309 430.5,-275 315.5,-275"/>
<text text-anchor="start" x="323.5" y="-296" font-family="Helvetica,sans-Serif" font-size="10.00">core/common/signalkit</text>
<text text-anchor="middle" x="373" y="-283" font-family="Helvetica,sans-Serif" font-size="10.00">_h/module.h</text>
</a>
</g>
<!-- Node1&#45;&gt;Node2 -->
<g id="edge2" class="edge"><title>Node1&#45;&gt;Node2</title>
<path fill="none" stroke="midnightblue" d="M279.897,-574.113C273.625,-538.614 258.036,-424.029 301,-346 307.913,-333.444 319.117,-322.953 330.649,-314.659"/>
<polygon fill="midnightblue" stroke="midnightblue" points="332.704,-317.495 339.048,-309.009 328.797,-311.687 332.704,-317.495"/>
</g>
<!-- Node13 -->
<g id="node40" class="node"><title>Node13</title>
<a xlink:href="adapter_8h.html" target="_top" xlink:title="core/common/signalkit\l_h/adapter.h">
<polygon fill="white" stroke="black" points="315.5,-431 315.5,-465 430.5,-465 430.5,-431 315.5,-431"/>
<text text-anchor="start" x="323.5" y="-452" font-family="Helvetica,sans-Serif" font-size="10.00">core/common/signalkit</text>
<text text-anchor="middle" x="373" y="-439" font-family="Helvetica,sans-Serif" font-size="10.00">_h/adapter.h</text>
</a>
</g>
<!-- Node1&#45;&gt;Node13 -->
<g id="edge54" class="edge"><title>Node1&#45;&gt;Node13</title>
<path fill="none" stroke="midnightblue" d="M289.141,-574.25C303.403,-552.778 335.768,-504.053 355.861,-473.803"/>
<polygon fill="midnightblue" stroke="midnightblue" points="358.805,-475.696 361.423,-465.429 352.974,-471.823 358.805,-475.696"/>
</g>
<!-- Node17 -->
<g id="node54" class="node"><title>Node17</title>
<a xlink:href="connect_8h.html" target="_top" xlink:title="core/common/signalkit\l_h/connect.h">
<polygon fill="white" stroke="black" points="60.5,-503 60.5,-537 175.5,-537 175.5,-503 60.5,-503"/>
<text text-anchor="start" x="68.5" y="-524" font-family="Helvetica,sans-Serif" font-size="10.00">core/common/signalkit</text>
<text text-anchor="middle" x="118" y="-511" font-family="Helvetica,sans-Serif" font-size="10.00">_h/connect.h</text>
</a>
</g>
<!-- Node1&#45;&gt;Node17 -->
<g id="edge74" class="edge"><title>Node1&#45;&gt;Node17</title>
<path fill="none" stroke="midnightblue" d="M255.286,-574.412C232.371,-565.33 198.675,-551.975 170.402,-540.769"/>
<polygon fill="midnightblue" stroke="midnightblue" points="171.631,-537.491 161.045,-537.06 169.052,-543.999 171.631,-537.491"/>
</g>
<!-- Node3 -->
<g id="node5" class="node"><title>Node3</title>
<a xlink:href="in_8h.html" target="_top" xlink:title="core/common/signalkit\l_h/in.h">
<polygon fill="white" stroke="black" points="103.5,-131 103.5,-165 218.5,-165 218.5,-131 103.5,-131"/>
<text text-anchor="start" x="111.5" y="-152" font-family="Helvetica,sans-Serif" font-size="10.00">core/common/signalkit</text>
<text text-anchor="middle" x="161" y="-139" font-family="Helvetica,sans-Serif" font-size="10.00">_h/in.h</text>
</a>
</g>
<!-- Node2&#45;&gt;Node3 -->
<g id="edge4" class="edge"><title>Node2&#45;&gt;Node3</title>
<path fill="none" stroke="midnightblue" d="M315.191,-282.604C265.303,-273.32 198.44,-257.675 180,-238 164.428,-221.385 160.309,-195.357 159.715,-175.556"/>
<polygon fill="midnightblue" stroke="midnightblue" points="163.214,-175.29 159.697,-165.296 156.214,-175.302 163.214,-175.29"/>
</g>
<!-- Node8 -->
<g id="node16" class="node"><title>Node8</title>
<a xlink:href="out_8h.html" target="_top" xlink:title="core/common/signalkit\l_h/out.h">
<polygon fill="white" stroke="black" points="273.5,-131 273.5,-165 388.5,-165 388.5,-131 273.5,-131"/>
<text text-anchor="start" x="281.5" y="-152" font-family="Helvetica,sans-Serif" font-size="10.00">core/common/signalkit</text>
<text text-anchor="middle" x="331" y="-139" font-family="Helvetica,sans-Serif" font-size="10.00">_h/out.h</text>
</a>
</g>
<!-- Node2&#45;&gt;Node8 -->
<g id="edge16" class="edge"><title>Node2&#45;&gt;Node8</title>
<path fill="none" stroke="midnightblue" d="M364.664,-274.815C359.851,-264.362 353.982,-250.634 350,-238 343.489,-217.344 338.544,-193.315 335.333,-175.284"/>
<polygon fill="midnightblue" stroke="midnightblue" points="338.74,-174.44 333.602,-165.174 331.84,-175.621 338.74,-174.44"/>
</g>
<!-- Node9 -->
<g id="node21" class="node"><title>Node9</title>
<a xlink:href="inout_8h.html" target="_top" xlink:title="core/common/signalkit\l_h/inout.h">
<polygon fill="white" stroke="black" points="188.5,-203 188.5,-237 303.5,-237 303.5,-203 188.5,-203"/>
<text text-anchor="start" x="196.5" y="-224" font-family="Helvetica,sans-Serif" font-size="10.00">core/common/signalkit</text>
<text text-anchor="middle" x="246" y="-211" font-family="Helvetica,sans-Serif" font-size="10.00">_h/inout.h</text>
</a>
</g>
<!-- Node2&#45;&gt;Node9 -->
<g id="edge24" class="edge"><title>Node2&#45;&gt;Node9</title>
<path fill="none" stroke="midnightblue" d="M342.903,-274.937C325.631,-265.145 303.75,-252.74 285.153,-242.197"/>
<polygon fill="midnightblue" stroke="midnightblue" points="286.747,-239.077 276.321,-237.19 283.294,-245.167 286.747,-239.077"/>
</g>
<!-- Node10 -->
<g id="node26" class="node"><title>Node10</title>
<a xlink:href="selector_8h.html" target="_top" xlink:title="core/common/signalkit\l_h/selector.h">
<polygon fill="white" stroke="black" points="358.5,-203 358.5,-237 473.5,-237 473.5,-203 358.5,-203"/>
<text text-anchor="start" x="366.5" y="-224" font-family="Helvetica,sans-Serif" font-size="10.00">core/common/signalkit</text>
<text text-anchor="middle" x="416" y="-211" font-family="Helvetica,sans-Serif" font-size="10.00">_h/selector.h</text>
</a>
</g>
<!-- Node2&#45;&gt;Node10 -->
<g id="edge32" class="edge"><title>Node2&#45;&gt;Node10</title>
<path fill="none" stroke="midnightblue" d="M383.19,-274.937C388.31,-266.365 394.625,-255.791 400.343,-246.217"/>
<polygon fill="midnightblue" stroke="midnightblue" points="403.461,-247.821 405.584,-237.441 397.452,-244.232 403.461,-247.821"/>
</g>
<!-- Node12 -->
<g id="node34" class="node"><title>Node12</title>
<a xlink:href="infield_8h.html" target="_top" xlink:title="core/common/signalkit\l_h/infield.h">
<polygon fill="white" stroke="black" points="481.5,-131 481.5,-165 596.5,-165 596.5,-131 481.5,-131"/>
<text text-anchor="start" x="489.5" y="-152" font-family="Helvetica,sans-Serif" font-size="10.00">core/common/signalkit</text>
<text text-anchor="middle" x="539" y="-139" font-family="Helvetica,sans-Serif" font-size="10.00">_h/infield.h</text>
</a>
</g>
<!-- Node2&#45;&gt;Node12 -->
<g id="edge44" class="edge"><title>Node2&#45;&gt;Node12</title>
<path fill="none" stroke="midnightblue" d="M420.982,-274.988C441.363,-266.142 464.424,-253.828 482,-238 501.752,-220.213 517.292,-194.032 527.123,-174.487"/>
<polygon fill="midnightblue" stroke="midnightblue" points="530.401,-175.748 531.61,-165.222 524.101,-172.697 530.401,-175.748"/>
</g>
<!-- Node4 -->
<g id="node7" class="node"><title>Node4</title>
<polygon fill="white" stroke="#bfbfbf" points="221.5,-0.5 221.5,-21.5 270.5,-21.5 270.5,-0.5 221.5,-0.5"/>
<text text-anchor="middle" x="246" y="-8.5" font-family="Helvetica,sans-Serif" font-size="10.00">stdint.h</text>
</g>
<!-- Node3&#45;&gt;Node4 -->
<g id="edge6" class="edge"><title>Node3&#45;&gt;Node4</title>
<path fill="none" stroke="midnightblue" d="M161.007,-130.672C161.796,-111.433 165.472,-80.1737 180,-58 188.499,-45.0287 201.917,-34.5132 214.442,-26.7439"/>
<polygon fill="midnightblue" stroke="midnightblue" points="216.439,-29.6314 223.321,-21.5762 212.918,-23.5815 216.439,-29.6314"/>
</g>
<!-- Node5 -->
<g id="node9" class="node"><title>Node5</title>
<a xlink:href="signalkit__h_2base_8h.html" target="_top" xlink:title="core/common/signalkit\l_h/base.h">
<polygon fill="white" stroke="black" points="396.5,-59 396.5,-93 511.5,-93 511.5,-59 396.5,-59"/>
<text text-anchor="start" x="404.5" y="-80" font-family="Helvetica,sans-Serif" font-size="10.00">core/common/signalkit</text>
<text text-anchor="middle" x="454" y="-67" font-family="Helvetica,sans-Serif" font-size="10.00">_h/base.h</text>
</a>
</g>
<!-- Node3&#45;&gt;Node5 -->
<g id="edge8" class="edge"><title>Node3&#45;&gt;Node5</title>
<path fill="none" stroke="midnightblue" d="M218.538,-133.861C266.661,-122.036 335.394,-105.145 386.186,-92.6642"/>
<polygon fill="midnightblue" stroke="midnightblue" points="387.218,-96.0149 396.093,-90.2296 385.547,-89.2171 387.218,-96.0149"/>
</g>
<!-- Node7 -->
<g id="node13" class="node"><title>Node7</title>
<a xlink:href="ifs_8h.html" target="_top" xlink:title="core/common/signalkit\l_h/ifs.h">
<polygon fill="white" stroke="black" points="188.5,-59 188.5,-93 303.5,-93 303.5,-59 188.5,-59"/>
<text text-anchor="start" x="196.5" y="-80" font-family="Helvetica,sans-Serif" font-size="10.00">core/common/signalkit</text>
<text text-anchor="middle" x="246" y="-67" font-family="Helvetica,sans-Serif" font-size="10.00">_h/ifs.h</text>
</a>
</g>
<!-- Node3&#45;&gt;Node7 -->
<g id="edge12" class="edge"><title>Node3&#45;&gt;Node7</title>
<path fill="none" stroke="midnightblue" d="M181.144,-130.937C192.073,-121.679 205.76,-110.086 217.74,-99.9379"/>
<polygon fill="midnightblue" stroke="midnightblue" points="220.338,-102.324 225.706,-93.19 215.814,-96.9828 220.338,-102.324"/>
</g>
<!-- Node6 -->
<g id="node11" class="node"><title>Node6</title>
<polygon fill="white" stroke="#bfbfbf" points="654,-0.5 654,-21.5 708,-21.5 708,-0.5 654,-0.5"/>
<text text-anchor="middle" x="681" y="-8.5" font-family="Helvetica,sans-Serif" font-size="10.00">systemc</text>
</g>
<!-- Node5&#45;&gt;Node6 -->
<g id="edge10" class="edge"><title>Node5&#45;&gt;Node6</title>
<path fill="none" stroke="midnightblue" d="M511.575,-59.5137C553.059,-47.6352 607.83,-31.9518 643.712,-21.6772"/>
<polygon fill="midnightblue" stroke="midnightblue" points="645.105,-24.9192 653.755,-18.8015 643.178,-18.1896 645.105,-24.9192"/>
</g>
<!-- Node7&#45;&gt;Node4 -->
<g id="edge14" class="edge"><title>Node7&#45;&gt;Node4</title>
<path fill="none" stroke="midnightblue" d="M246,-58.922C246,-50.6704 246,-40.6922 246,-31.9818"/>
<polygon fill="midnightblue" stroke="midnightblue" points="249.5,-31.8521 246,-21.8521 242.5,-31.8521 249.5,-31.8521"/>
</g>
<!-- Node8&#45;&gt;Node4 -->
<g id="edge22" class="edge"><title>Node8&#45;&gt;Node4</title>
<path fill="none" stroke="midnightblue" d="M330.993,-130.672C330.204,-111.433 326.528,-80.1737 312,-58 303.501,-45.0287 290.083,-34.5132 277.558,-26.7439"/>
<polygon fill="midnightblue" stroke="midnightblue" points="279.082,-23.5815 268.679,-21.5762 275.561,-29.6314 279.082,-23.5815"/>
</g>
<!-- Node8&#45;&gt;Node5 -->
<g id="edge18" class="edge"><title>Node8&#45;&gt;Node5</title>
<path fill="none" stroke="midnightblue" d="M360.149,-130.937C376.725,-121.234 397.684,-108.966 415.589,-98.4848"/>
<polygon fill="midnightblue" stroke="midnightblue" points="417.772,-101.262 424.634,-93.19 414.235,-95.2213 417.772,-101.262"/>
</g>
<!-- Node8&#45;&gt;Node7 -->
<g id="edge20" class="edge"><title>Node8&#45;&gt;Node7</title>
<path fill="none" stroke="midnightblue" d="M310.856,-130.937C299.927,-121.679 286.24,-110.086 274.26,-99.9379"/>
<polygon fill="midnightblue" stroke="midnightblue" points="276.186,-96.9828 266.294,-93.19 271.662,-102.324 276.186,-96.9828"/>
</g>
<!-- Node9&#45;&gt;Node3 -->
<g id="edge30" class="edge"><title>Node9&#45;&gt;Node3</title>
<path fill="none" stroke="midnightblue" d="M225.856,-202.937C214.927,-193.679 201.24,-182.086 189.26,-171.938"/>
<polygon fill="midnightblue" stroke="midnightblue" points="191.186,-168.983 181.294,-165.19 186.662,-174.324 191.186,-168.983"/>
</g>
<!-- Node9&#45;&gt;Node4 -->
<g id="edge26" class="edge"><title>Node9&#45;&gt;Node4</title>
<path fill="none" stroke="midnightblue" d="M188.403,-206.707C150.646,-196.694 106.263,-181.99 95,-166 54.0969,-107.932 155.968,-51.0936 212.038,-25.3397"/>
<polygon fill="midnightblue" stroke="midnightblue" points="213.587,-28.4807 221.273,-21.1879 210.717,-22.0962 213.587,-28.4807"/>
</g>
<!-- Node9&#45;&gt;Node8 -->
<g id="edge28" class="edge"><title>Node9&#45;&gt;Node8</title>
<path fill="none" stroke="midnightblue" d="M266.144,-202.937C277.073,-193.679 290.76,-182.086 302.74,-171.938"/>
<polygon fill="midnightblue" stroke="midnightblue" points="305.338,-174.324 310.706,-165.19 300.814,-168.983 305.338,-174.324"/>
</g>
<!-- Node10&#45;&gt;Node4 -->
<g id="edge34" class="edge"><title>Node10&#45;&gt;Node4</title>
<path fill="none" stroke="midnightblue" d="M415.039,-202.868C413.397,-184.079 408.962,-153.478 397,-130 377.429,-91.587 365.837,-84.7141 332,-58 316.036,-45.3966 296.229,-34.3156 279.649,-26.0832"/>
<polygon fill="midnightblue" stroke="midnightblue" points="280.841,-22.7718 270.314,-21.5753 277.797,-29.0754 280.841,-22.7718"/>
</g>
<!-- Node10&#45;&gt;Node5 -->
<g id="edge36" class="edge"><title>Node10&#45;&gt;Node5</title>
<path fill="none" stroke="midnightblue" d="M420.508,-202.916C427.022,-178.233 439.13,-132.351 446.864,-103.041"/>
<polygon fill="midnightblue" stroke="midnightblue" points="450.33,-103.624 449.498,-93.0619 443.562,-101.838 450.33,-103.624"/>
</g>
<!-- Node10&#45;&gt;Node7 -->
<g id="edge38" class="edge"><title>Node10&#45;&gt;Node7</title>
<path fill="none" stroke="midnightblue" d="M358.451,-213.214C326.482,-206.451 288.528,-192.951 265,-166 250.024,-148.846 245.837,-122.879 245.066,-103.238"/>
<polygon fill="midnightblue" stroke="midnightblue" points="248.564,-103.031 244.942,-93.0741 241.564,-103.116 248.564,-103.031"/>
</g>
<!-- Node10&#45;&gt;Node8 -->
<g id="edge40" class="edge"><title>Node10&#45;&gt;Node8</title>
<path fill="none" stroke="midnightblue" d="M395.856,-202.937C384.927,-193.679 371.24,-182.086 359.26,-171.938"/>
<polygon fill="midnightblue" stroke="midnightblue" points="361.186,-168.983 351.294,-165.19 356.662,-174.324 361.186,-168.983"/>
</g>
<!-- Node11 -->
<g id="node32" class="node"><title>Node11</title>
<polygon fill="white" stroke="#bfbfbf" points="583.5,-65.5 583.5,-86.5 618.5,-86.5 618.5,-65.5 583.5,-65.5"/>
<text text-anchor="middle" x="601" y="-73.5" font-family="Helvetica,sans-Serif" font-size="10.00">map</text>
</g>
<!-- Node10&#45;&gt;Node11 -->
<g id="edge42" class="edge"><title>Node10&#45;&gt;Node11</title>
<path fill="none" stroke="midnightblue" d="M473.606,-211.276C523.147,-202.456 589.074,-187.114 605,-166 620.009,-146.102 614.782,-116.101 608.697,-96.2866"/>
<polygon fill="midnightblue" stroke="midnightblue" points="611.974,-95.052 605.445,-86.7079 605.345,-97.3023 611.974,-95.052"/>
</g>
<!-- Node12&#45;&gt;Node4 -->
<g id="edge46" class="edge"><title>Node12&#45;&gt;Node4</title>
<path fill="none" stroke="midnightblue" d="M540.63,-130.728C541.52,-110.337 539.559,-76.8266 520,-58 486.402,-25.6606 347.401,-15.3635 281.269,-12.2583"/>
<polygon fill="midnightblue" stroke="midnightblue" points="281.077,-8.74657 270.933,-11.804 280.769,-15.7398 281.077,-8.74657"/>
</g>
<!-- Node12&#45;&gt;Node5 -->
<g id="edge48" class="edge"><title>Node12&#45;&gt;Node5</title>
<path fill="none" stroke="midnightblue" d="M518.856,-130.937C507.927,-121.679 494.24,-110.086 482.26,-99.9379"/>
<polygon fill="midnightblue" stroke="midnightblue" points="484.186,-96.9828 474.294,-93.19 479.662,-102.324 484.186,-96.9828"/>
</g>
<!-- Node12&#45;&gt;Node7 -->
<g id="edge50" class="edge"><title>Node12&#45;&gt;Node7</title>
<path fill="none" stroke="midnightblue" d="M481.462,-133.861C433.339,-122.036 364.606,-105.145 313.814,-92.6642"/>
<polygon fill="midnightblue" stroke="midnightblue" points="314.453,-89.2171 303.907,-90.2296 312.782,-96.0149 314.453,-89.2171"/>
</g>
<!-- Node12&#45;&gt;Node11 -->
<g id="edge52" class="edge"><title>Node12&#45;&gt;Node11</title>
<path fill="none" stroke="midnightblue" d="M553.693,-130.937C563.053,-120.068 575.185,-105.979 584.819,-94.7904"/>
<polygon fill="midnightblue" stroke="midnightblue" points="587.74,-96.7626 591.613,-86.901 582.436,-92.1949 587.74,-96.7626"/>
</g>
<!-- Node14 -->
<g id="node42" class="node"><title>Node14</title>
<a xlink:href="tlmin__scout__adapter_8h.html" target="_top" xlink:title="core/common/signalkit\l_h/adapter_h/tlmin_scout\l_adapter.h">
<polygon fill="white" stroke="black" points="310,-346.5 310,-393.5 436,-393.5 436,-346.5 310,-346.5"/>
<text text-anchor="start" x="318" y="-380.5" font-family="Helvetica,sans-Serif" font-size="10.00">core/common/signalkit</text>
<text text-anchor="start" x="318" y="-367.5" font-family="Helvetica,sans-Serif" font-size="10.00">_h/adapter_h/tlmin_scout</text>
<text text-anchor="middle" x="373" y="-354.5" font-family="Helvetica,sans-Serif" font-size="10.00">_adapter.h</text>
</a>
</g>
<!-- Node13&#45;&gt;Node14 -->
<g id="edge56" class="edge"><title>Node13&#45;&gt;Node14</title>
<path fill="none" stroke="midnightblue" d="M373,-430.689C373,-422.798 373,-413.169 373,-403.927"/>
<polygon fill="midnightblue" stroke="midnightblue" points="376.5,-403.77 373,-393.77 369.5,-403.77 376.5,-403.77"/>
</g>
<!-- Node15 -->
<g id="node46" class="node"><title>Node15</title>
<a xlink:href="scin__tlmout__adapter_8h.html" target="_top" xlink:title="core/common/signalkit\l_h/adapter_h/scin_tlmout\l_adapter.h">
<polygon fill="white" stroke="black" points="454,-346.5 454,-393.5 580,-393.5 580,-346.5 454,-346.5"/>
<text text-anchor="start" x="462" y="-380.5" font-family="Helvetica,sans-Serif" font-size="10.00">core/common/signalkit</text>
<text text-anchor="start" x="462" y="-367.5" font-family="Helvetica,sans-Serif" font-size="10.00">_h/adapter_h/scin_tlmout</text>
<text text-anchor="middle" x="517" y="-354.5" font-family="Helvetica,sans-Serif" font-size="10.00">_adapter.h</text>
</a>
</g>
<!-- Node13&#45;&gt;Node15 -->
<g id="edge62" class="edge"><title>Node13&#45;&gt;Node15</title>
<path fill="none" stroke="midnightblue" d="M404.601,-430.883C422.119,-421.394 444.355,-409.349 464.417,-398.483"/>
<polygon fill="midnightblue" stroke="midnightblue" points="466.331,-401.427 473.456,-393.586 462.996,-395.271 466.331,-401.427"/>
</g>
<!-- Node16 -->
<g id="node50" class="node"><title>Node16</title>
<a xlink:href="tlmsc__inout__adapter_8h.html" target="_top" xlink:title="core/common/signalkit\l_h/adapter_h/tlmsc_inout\l_adapter.h">
<polygon fill="white" stroke="black" points="598,-346.5 598,-393.5 724,-393.5 724,-346.5 598,-346.5"/>
<text text-anchor="start" x="606" y="-380.5" font-family="Helvetica,sans-Serif" font-size="10.00">core/common/signalkit</text>
<text text-anchor="start" x="606" y="-367.5" font-family="Helvetica,sans-Serif" font-size="10.00">_h/adapter_h/tlmsc_inout</text>
<text text-anchor="middle" x="661" y="-354.5" font-family="Helvetica,sans-Serif" font-size="10.00">_adapter.h</text>
</a>
</g>
<!-- Node13&#45;&gt;Node16 -->
<g id="edge68" class="edge"><title>Node13&#45;&gt;Node16</title>
<path fill="none" stroke="midnightblue" d="M430.624,-434.865C472.018,-425.139 529.315,-411.086 588.05,-394.195"/>
<polygon fill="midnightblue" stroke="midnightblue" points="589.24,-397.494 597.87,-391.348 587.291,-390.771 589.24,-397.494"/>
</g>
<!-- Node14&#45;&gt;Node2 -->
<g id="edge60" class="edge"><title>Node14&#45;&gt;Node2</title>
<path fill="none" stroke="midnightblue" d="M373,-346.174C373,-337.638 373,-327.952 373,-319.156"/>
<polygon fill="midnightblue" stroke="midnightblue" points="376.5,-319.003 373,-309.003 369.5,-319.003 376.5,-319.003"/>
</g>
<!-- Node14&#45;&gt;Node6 -->
<g id="edge58" class="edge"><title>Node14&#45;&gt;Node6</title>
<path fill="none" stroke="midnightblue" d="M430.789,-346.384C515.126,-311.042 662,-245.791 662,-220 662,-220 662,-220 662,-148 662,-106.399 670.702,-58.3592 676.328,-31.6492"/>
<polygon fill="midnightblue" stroke="midnightblue" points="679.811,-32.1044 678.516,-21.5889 672.97,-30.6164 679.811,-32.1044"/>
</g>
<!-- Node15&#45;&gt;Node2 -->
<g id="edge66" class="edge"><title>Node15&#45;&gt;Node2</title>
<path fill="none" stroke="midnightblue" d="M473.404,-346.386C454.339,-336.059 432.11,-324.018 413.421,-313.895"/>
<polygon fill="midnightblue" stroke="midnightblue" points="415.02,-310.78 404.56,-309.095 411.686,-316.935 415.02,-310.78"/>
</g>
<!-- Node15&#45;&gt;Node6 -->
<g id="edge64" class="edge"><title>Node15&#45;&gt;Node6</title>
<path fill="none" stroke="midnightblue" d="M580.073,-347.697C622.92,-332.302 672.45,-313.925 676,-310 703.769,-279.298 700,-261.398 700,-220 700,-220 700,-220 700,-148 700,-106.399 691.298,-58.3592 685.672,-31.6492"/>
<polygon fill="midnightblue" stroke="midnightblue" points="689.03,-30.6164 683.484,-21.5889 682.189,-32.1044 689.03,-30.6164"/>
</g>
<!-- Node16&#45;&gt;Node2 -->
<g id="edge72" class="edge"><title>Node16&#45;&gt;Node2</title>
<path fill="none" stroke="midnightblue" d="M597.87,-348.652C594.878,-347.736 591.91,-346.847 589,-346 539.592,-331.612 483.157,-317.585 440.366,-307.435"/>
<polygon fill="midnightblue" stroke="midnightblue" points="441.161,-304.026 430.624,-305.135 439.552,-310.839 441.161,-304.026"/>
</g>
<!-- Node16&#45;&gt;Node6 -->
<g id="edge70" class="edge"><title>Node16&#45;&gt;Node6</title>
<path fill="none" stroke="midnightblue" d="M686.55,-346.291C696.367,-335.976 706.908,-323.23 714,-310 733.558,-273.514 738,-261.398 738,-220 738,-220 738,-220 738,-148 738,-106.602 731.497,-95.5184 714,-58 709.309,-47.9405 702.457,-37.7418 696.211,-29.4274"/>
<polygon fill="midnightblue" stroke="midnightblue" points="698.953,-27.2526 690.037,-21.5298 693.438,-31.5638 698.953,-27.2526"/>
</g>
<!-- Node17&#45;&gt;Node4 -->
<g id="edge76" class="edge"><title>Node17&#45;&gt;Node4</title>
<path fill="none" stroke="midnightblue" d="M91.5185,-502.927C56.7282,-478.181 0,-428.813 0,-370 0,-370 0,-370 0,-148 0,-52.6433 142.827,-23.0625 210.822,-14.383"/>
<polygon fill="midnightblue" stroke="midnightblue" points="211.543,-17.8219 221.058,-13.1626 210.714,-10.8711 211.543,-17.8219"/>
</g>
<!-- Node17&#45;&gt;Node7 -->
<g id="edge78" class="edge"><title>Node17&#45;&gt;Node7</title>
<path fill="none" stroke="midnightblue" d="M101.424,-502.675C77.9915,-476.285 38,-423.42 38,-370 38,-370 38,-370 38,-220 38,-172.653 58.0307,-159.581 95,-130 119.113,-110.706 150.679,-97.9937 178.712,-89.782"/>
<polygon fill="midnightblue" stroke="midnightblue" points="179.771,-93.1203 188.462,-87.0617 177.89,-86.3778 179.771,-93.1203"/>
</g>
<!-- Node17&#45;&gt;Node13 -->
<g id="edge80" class="edge"><title>Node17&#45;&gt;Node13</title>
<path fill="none" stroke="midnightblue" d="M175.545,-503.752C214.085,-492.87 264.976,-478.501 305.44,-467.076"/>
<polygon fill="midnightblue" stroke="midnightblue" points="306.551,-470.399 315.224,-464.313 304.649,-463.662 306.551,-470.399"/>
</g>
</g>
</svg>
        <g id="navigator" transform="translate(0 0)" fill="#404254">
                <rect fill="#f2f5e9" fill-opacity="0.5" stroke="#606060" stroke-width=".5" x="0" y="0" width="60" height="60"/>
                <use id="zoomplus" xlink:href="#zoomPlus" x="17" y="9" onmousedown="handleZoom(evt,'in')"/>
                <use id="zoomminus" xlink:href="#zoomMin" x="42" y="9" onmousedown="handleZoom(evt,'out')"/>
                <use id="reset" xlink:href="#resetDef" x="30" y="36" onmousedown="handleReset()"/>
                <g id="arrowUp" xlink:href="#dirArrow" transform="translate(30 24)" onmousedown="handlePan(0,-1)">
                  <use xlink:href="#rim" fill="#404040">
                        <set attributeName="fill" to="#808080" begin="arrowUp.mouseover" end="arrowUp.mouseout"/>
                  </use>
                  <path fill="none" stroke="white" stroke-width="1.5" d="M0,-3.0v7 M-2.5,-0.5L0,-3.0L2.5,-0.5"/>
                </g>
                <g id="arrowRight" xlink:href="#dirArrow" transform="rotate(90) translate(36 -43)" onmousedown="handlePan(1,0)">
                  <use xlink:href="#rim" fill="#404040">
                        <set attributeName="fill" to="#808080" begin="arrowRight.mouseover" end="arrowRight.mouseout"/>
                  </use>
                  <path fill="none" stroke="white" stroke-width="1.5" d="M0,-3.0v7 M-2.5,-0.5L0,-3.0L2.5,-0.5"/>
                </g>
                <g id="arrowDown" xlink:href="#dirArrow" transform="rotate(180) translate(-30 -48)" onmousedown="handlePan(0,1)">
                  <use xlink:href="#rim" fill="#404040">
                        <set attributeName="fill" to="#808080" begin="arrowDown.mouseover" end="arrowDown.mouseout"/>
                  </use>
                  <path fill="none" stroke="white" stroke-width="1.5" d="M0,-3.0v7 M-2.5,-0.5L0,-3.0L2.5,-0.5"/>
                </g>
                <g id="arrowLeft" xlink:href="#dirArrow" transform="rotate(270) translate(-36 17)" onmousedown="handlePan(-1,0)">
                  <use xlink:href="#rim" fill="#404040">
                        <set attributeName="fill" to="#808080" begin="arrowLeft.mouseover" end="arrowLeft.mouseout"/>
                  </use>
                  <path fill="none" stroke="white" stroke-width="1.5" d="M0,-3.0v7 M-2.5,-0.5L0,-3.0L2.5,-0.5"/>
                </g>
        </g>
        <svg viewBox="0 0 15 15" width="100%" height="30px" preserveAspectRatio="xMaxYMin meet">
         <g id="arrow_out" transform="scale(0.3 0.3)">
          <a xlink:href="signalkit_8h__incl_org.svg" target="_base">
           <rect id="button" ry="5" rx="5" y="6" x="6" height="38" width="38"
                fill="#f2f5e9" fill-opacity="0.5" stroke="#606060" stroke-width="1.0"/>
           <path id="arrow"
             d="M 11.500037,31.436501 C 11.940474,20.09759 22.043105,11.32322 32.158766,21.979434 L 37.068811,17.246167 C 37.068811,17.246167 37.088388,32 37.088388,32 L 22.160133,31.978069 C 22.160133,31.978069 26.997745,27.140456 26.997745,27.140456 C 18.528582,18.264221 13.291696,25.230495 11.500037,31.436501 z"
             style="fill:#404040;"/>
          </a>
         </g>
        </svg>
</svg>
