<?xml version="1.0" encoding="UTF-8" standalone="no"?>
<!DOCTYPE svg PUBLIC "-//W3C//DTD SVG 1.1//EN"
 "http://www.w3.org/Graphics/SVG/1.1/DTD/svg11.dtd">
<!-- Generated by graphviz version 2.38.0 (20140413.2041)
 -->
<!-- Title: signalkit::signal_in_if&lt; TYPE &gt; Pages: 1 -->
<svg width="245pt" height="526pt"
 viewBox="0.00 0.00 245.28 526.00" xmlns="http://www.w3.org/2000/svg" xmlns:xlink="http://www.w3.org/1999/xlink">
<g id="graph0" class="graph" transform="scale(1 1) rotate(0) translate(4 522)">
<title>signalkit::signal_in_if&lt; TYPE &gt;</title>
<polygon fill="white" stroke="none" points="-4,4 -4,-522 241.28,-522 241.28,4 -4,4"/>
<!-- Node1 -->
<g id="node1" class="node"><title>Node1</title>
<polygon fill="#bfbfbf" stroke="black" points="68.9507,-302.5 68.9507,-386.5 166.108,-386.5 166.108,-302.5 68.9507,-302.5"/>
<text text-anchor="start" x="76.9507" y="-374.5" font-family="Helvetica,sans-Serif" font-size="10.00">signalkit::signal_in</text>
<text text-anchor="middle" x="117.529" y="-364.5" font-family="Helvetica,sans-Serif" font-size="10.00">_if&lt; TYPE &gt;</text>
<polyline fill="none" stroke="black" points="68.9507,-358.5 166.108,-358.5 "/>
<text text-anchor="middle" x="117.529" y="-346.5" font-family="Helvetica,sans-Serif" font-size="10.00"> </text>
<polyline fill="none" stroke="black" points="68.9507,-340.5 166.108,-340.5 "/>
<text text-anchor="start" x="76.9507" y="-328.5" font-family="Helvetica,sans-Serif" font-size="10.00">+ ~signal_in_if()</text>
<text text-anchor="start" x="76.9507" y="-318.5" font-family="Helvetica,sans-Serif" font-size="10.00">+ bind()</text>
<text text-anchor="start" x="76.9507" y="-308.5" font-family="Helvetica,sans-Serif" font-size="10.00">+ update()</text>
</g>
<!-- Node3 -->
<g id="node3" class="node"><title>Node3</title>
<g id="a_node3"><a xlink:href="classsignalkit_1_1signal__in.html" target="_top" xlink:title="{signalkit::signal_in\l\&lt; TYPE \&gt;\n||+ signal_in()\l+ signal_in()\l+ ~signal_in()\l+ bind()\l+ update()\l+ operator TYPE()\l+ operator()()\l}">
<polygon fill="white" stroke="black" points="6.90674,-131.5 6.90674,-255.5 104.152,-255.5 104.152,-131.5 6.90674,-131.5"/>
<text text-anchor="start" x="14.9067" y="-243.5" font-family="Helvetica,sans-Serif" font-size="10.00">signalkit::signal_in</text>
<text text-anchor="middle" x="55.5293" y="-233.5" font-family="Helvetica,sans-Serif" font-size="10.00">&lt; TYPE &gt;</text>
<polyline fill="none" stroke="black" points="6.90674,-227.5 104.152,-227.5 "/>
<text text-anchor="middle" x="55.5293" y="-215.5" font-family="Helvetica,sans-Serif" font-size="10.00"> </text>
<polyline fill="none" stroke="black" points="6.90674,-209.5 104.152,-209.5 "/>
<text text-anchor="start" x="14.9067" y="-197.5" font-family="Helvetica,sans-Serif" font-size="10.00">+ signal_in()</text>
<text text-anchor="start" x="14.9067" y="-187.5" font-family="Helvetica,sans-Serif" font-size="10.00">+ signal_in()</text>
<text text-anchor="start" x="14.9067" y="-177.5" font-family="Helvetica,sans-Serif" font-size="10.00">+ ~signal_in()</text>
<text text-anchor="start" x="14.9067" y="-167.5" font-family="Helvetica,sans-Serif" font-size="10.00">+ bind()</text>
<text text-anchor="start" x="14.9067" y="-157.5" font-family="Helvetica,sans-Serif" font-size="10.00">+ update()</text>
<text text-anchor="start" x="14.9067" y="-147.5" font-family="Helvetica,sans-Serif" font-size="10.00">+ operator TYPE()</text>
<text text-anchor="start" x="14.9067" y="-137.5" font-family="Helvetica,sans-Serif" font-size="10.00">+ operator()()</text>
</a>
</g>
</g>
<!-- Node1&#45;&gt;Node3 -->
<g id="edge2" class="edge"><title>Node1&#45;&gt;Node3</title>
<path fill="none" stroke="midnightblue" d="M96.5066,-292.978C91.5047,-280.957 86.1149,-268.004 80.9399,-255.568"/>
<polygon fill="none" stroke="midnightblue" points="93.3502,-294.503 100.423,-302.391 99.813,-291.813 93.3502,-294.503"/>
</g>
<!-- Node5 -->
<g id="node5" class="node"><title>Node5</title>
<g id="a_node5"><a xlink:href="classsignalkit_1_1signal__infield.html" target="_top" xlink:title="{signalkit::signal_infield\l\&lt; TYPE \&gt;\n||+ signal_infield()\l+ signal_infield()\l+ ~signal_infield()\l+ bind()\l+ update()\l+ read()\l+ read()\l+ operator[]()\l+ operator()()\l}">
<polygon fill="white" stroke="black" points="121.778,-121.5 121.778,-265.5 237.28,-265.5 237.28,-121.5 121.778,-121.5"/>
<text text-anchor="start" x="129.778" y="-253.5" font-family="Helvetica,sans-Serif" font-size="10.00">signalkit::signal_infield</text>
<text text-anchor="middle" x="179.529" y="-243.5" font-family="Helvetica,sans-Serif" font-size="10.00">&lt; TYPE &gt;</text>
<polyline fill="none" stroke="black" points="121.778,-237.5 237.28,-237.5 "/>
<text text-anchor="middle" x="179.529" y="-225.5" font-family="Helvetica,sans-Serif" font-size="10.00"> </text>
<polyline fill="none" stroke="black" points="121.778,-219.5 237.28,-219.5 "/>
<text text-anchor="start" x="129.778" y="-207.5" font-family="Helvetica,sans-Serif" font-size="10.00">+ signal_infield()</text>
<text text-anchor="start" x="129.778" y="-197.5" font-family="Helvetica,sans-Serif" font-size="10.00">+ signal_infield()</text>
<text text-anchor="start" x="129.778" y="-187.5" font-family="Helvetica,sans-Serif" font-size="10.00">+ ~signal_infield()</text>
<text text-anchor="start" x="129.778" y="-177.5" font-family="Helvetica,sans-Serif" font-size="10.00">+ bind()</text>
<text text-anchor="start" x="129.778" y="-167.5" font-family="Helvetica,sans-Serif" font-size="10.00">+ update()</text>
<text text-anchor="start" x="129.778" y="-157.5" font-family="Helvetica,sans-Serif" font-size="10.00">+ read()</text>
<text text-anchor="start" x="129.778" y="-147.5" font-family="Helvetica,sans-Serif" font-size="10.00">+ read()</text>
<text text-anchor="start" x="129.778" y="-137.5" font-family="Helvetica,sans-Serif" font-size="10.00">+ operator[]()</text>
<text text-anchor="start" x="129.778" y="-127.5" font-family="Helvetica,sans-Serif" font-size="10.00">+ operator()()</text>
</a>
</g>
</g>
<!-- Node1&#45;&gt;Node5 -->
<g id="edge4" class="edge"><title>Node1&#45;&gt;Node5</title>
<path fill="none" stroke="midnightblue" d="M138.51,-293.08C142.166,-284.293 146.03,-275.006 149.867,-265.785"/>
<polygon fill="none" stroke="midnightblue" points="135.246,-291.813 134.635,-302.391 141.708,-294.503 135.246,-291.813"/>
</g>
<!-- Node2 -->
<g id="node2" class="node"><title>Node2</title>
<g id="a_node2"><a xlink:href="classsignalkit_1_1signal__if.html" target="_top" xlink:title="{signalkit::signal_if\l\&lt; TYPE \&gt;\n|# m_value\l|+ ~signal_if()\l+ read()\l+ operator TYPE()\l+ operator==()\l}">
<polygon fill="white" stroke="black" points="68.9067,-423.5 68.9067,-517.5 166.152,-517.5 166.152,-423.5 68.9067,-423.5"/>
<text text-anchor="start" x="76.9067" y="-505.5" font-family="Helvetica,sans-Serif" font-size="10.00">signalkit::signal_if</text>
<text text-anchor="middle" x="117.529" y="-495.5" font-family="Helvetica,sans-Serif" font-size="10.00">&lt; TYPE &gt;</text>
<polyline fill="none" stroke="black" points="68.9067,-489.5 166.152,-489.5 "/>
<text text-anchor="start" x="76.9067" y="-477.5" font-family="Helvetica,sans-Serif" font-size="10.00"># m_value</text>
<polyline fill="none" stroke="black" points="68.9067,-471.5 166.152,-471.5 "/>
<text text-anchor="start" x="76.9067" y="-459.5" font-family="Helvetica,sans-Serif" font-size="10.00">+ ~signal_if()</text>
<text text-anchor="start" x="76.9067" y="-449.5" font-family="Helvetica,sans-Serif" font-size="10.00">+ read()</text>
<text text-anchor="start" x="76.9067" y="-439.5" font-family="Helvetica,sans-Serif" font-size="10.00">+ operator TYPE()</text>
<text text-anchor="start" x="76.9067" y="-429.5" font-family="Helvetica,sans-Serif" font-size="10.00">+ operator==()</text>
</a>
</g>
</g>
<!-- Node2&#45;&gt;Node1 -->
<g id="edge1" class="edge"><title>Node2&#45;&gt;Node1</title>
<path fill="none" stroke="midnightblue" d="M117.529,-413.061C117.529,-404.219 117.529,-395.225 117.529,-386.806"/>
<polygon fill="none" stroke="midnightblue" points="114.029,-413.327 117.529,-423.327 121.029,-413.327 114.029,-413.327"/>
</g>
<!-- Node4 -->
<g id="node4" class="node"><title>Node4</title>
<g id="a_node4"><a xlink:href="classsignalkit_1_1signal__inout.html" target="_top" xlink:title="{signalkit::signal_inout\l\&lt; TYPE, MODULE \&gt;\n||+ signal_inout()\l+ signal_inout()\l+ ~signal_inout()\l}">
<polygon fill="white" stroke="black" points="0,-0.5 0,-84.5 111.059,-84.5 111.059,-0.5 0,-0.5"/>
<text text-anchor="start" x="8" y="-72.5" font-family="Helvetica,sans-Serif" font-size="10.00">signalkit::signal_inout</text>
<text text-anchor="middle" x="55.5293" y="-62.5" font-family="Helvetica,sans-Serif" font-size="10.00">&lt; TYPE, MODULE &gt;</text>
<polyline fill="none" stroke="black" points="0,-56.5 111.059,-56.5 "/>
<text text-anchor="middle" x="55.5293" y="-44.5" font-family="Helvetica,sans-Serif" font-size="10.00"> </text>
<polyline fill="none" stroke="black" points="0,-38.5 111.059,-38.5 "/>
<text text-anchor="start" x="8" y="-26.5" font-family="Helvetica,sans-Serif" font-size="10.00">+ signal_inout()</text>
<text text-anchor="start" x="8" y="-16.5" font-family="Helvetica,sans-Serif" font-size="10.00">+ signal_inout()</text>
<text text-anchor="start" x="8" y="-6.5" font-family="Helvetica,sans-Serif" font-size="10.00">+ ~signal_inout()</text>
</a>
</g>
</g>
<!-- Node3&#45;&gt;Node4 -->
<g id="edge3" class="edge"><title>Node3&#45;&gt;Node4</title>
<path fill="none" stroke="midnightblue" d="M55.5293,-121.415C55.5293,-108.812 55.5293,-96.0789 55.5293,-84.6618"/>
<polygon fill="none" stroke="midnightblue" points="52.0294,-121.466 55.5293,-131.466 59.0294,-121.466 52.0294,-121.466"/>
</g>
</g>
</svg>
