<?xml version="1.0" encoding="UTF-8" standalone="no"?>
<!DOCTYPE svg PUBLIC "-//W3C//DTD SVG 1.1//EN"
 "http://www.w3.org/Graphics/SVG/1.1/DTD/svg11.dtd">
<!-- Generated by graphviz version 2.38.0 (20140413.2041)
 -->
<!-- Title: core/common/sr_register/sc_register.h Pages: 1 -->
<!--zoomable 642 -->
<svg id="main" version="1.1" xmlns="http://www.w3.org/2000/svg" xmlns:xlink="http://www.w3.org/1999/xlink" xml:space="preserve" onload="init(evt)">
<style type="text/css"><![CDATA[
.edge:hover path { stroke: red; }
.edge:hover polygon { stroke: red; fill: red; }
]]></style>
<script type="text/javascript"><![CDATA[
var edges = document.getElementsByTagName('g');
if (edges && edges.length) {
  for (var i=0;i<edges.length;i++) {
    if (edges[i].id.substr(0,4)=='edge') {
      edges[i].setAttribute('class','edge');
    }
  }
}
]]></script>
        <defs>
                <circle id="rim" cx="0" cy="0" r="7"/>
                <circle id="rim2" cx="0" cy="0" r="3.5"/>
                <g id="zoomPlus">
                        <use xlink:href="#rim" fill="#404040">
                                <set attributeName="fill" to="#808080" begin="zoomplus.mouseover" end="zoomplus.mouseout"/>
                        </use>
                        <path d="M-4,0h8M0,-4v8" fill="none" stroke="white" stroke-width="1.5" pointer-events="none"/>
                </g>
                <g id="zoomMin">
                        <use xlink:href="#rim" fill="#404040">
                                <set attributeName="fill" to="#808080" begin="zoomminus.mouseover" end="zoomminus.mouseout"/>
                        </use>
                        <path d="M-4,0h8" fill="none" stroke="white" stroke-width="1.5" pointer-events="none"/>
                </g>
                <g id="dirArrow">
                        <path fill="none" stroke="white" stroke-width="1.5" d="M0,-3.0v7 M-2.5,-0.5L0,-3.0L2.5,-0.5"/>
                </g>
               <g id="resetDef">
                       <use xlink:href="#rim2" fill="#404040">
                               <set attributeName="fill" to="#808080" begin="reset.mouseover" end="reset.mouseout"/>
                       </use>
               </g>
        </defs>

<script type="text/javascript">
var viewWidth = 1601;
var viewHeight = 642;
var sectionId = 'dynsection-1';
</script>
<script xlink:href="svgpan.js"/>
<svg id="graph" class="graph">
<g id="viewport">
<title>core/common/sr_register/sc_register.h</title>
<polygon fill="white" stroke="none" points="-4,4 -4,-638 1597,-638 1597,4 -4,4"/>
<!-- Node1 -->
<g id="node1" class="node"><title>Node1</title>
<polygon fill="#bfbfbf" stroke="black" points="1128.5,-603.5 1128.5,-633.5 1253.5,-633.5 1253.5,-603.5 1128.5,-603.5"/>
<text text-anchor="start" x="1136.5" y="-621.5" font-family="Helvetica,sans-Serif" font-size="10.00">core/common/sr_register</text>
<text text-anchor="middle" x="1191" y="-610.5" font-family="Helvetica,sans-Serif" font-size="10.00">/sc_register.h</text>
</g>
<!-- Node2 -->
<g id="node2" class="node"><title>Node2</title>
<g id="a_node2"><a xlink:href="sc__register_8h.html" target="_top" xlink:title="core/common/sc_register.h">
<polygon fill="white" stroke="black" points="1049.5,-542 1049.5,-561 1184.5,-561 1184.5,-542 1049.5,-542"/>
<text text-anchor="middle" x="1117" y="-549" font-family="Helvetica,sans-Serif" font-size="10.00">core/common/sc_register.h</text>
</a>
</g>
</g>
<!-- Node1&#45;&gt;Node2 -->
<g id="edge1" class="edge"><title>Node1&#45;&gt;Node2</title>
<path fill="none" stroke="midnightblue" d="M1167.29,-596.672C1153.63,-584.671 1137.17,-570.22 1126.9,-561.195"/>
<polygon fill="midnightblue" stroke="midnightblue" points="1165.12,-599.426 1174.94,-603.396 1169.74,-594.167 1165.12,-599.426"/>
</g>
<!-- Node33 -->
<g id="node33" class="node"><title>Node33</title>
<g id="a_node33"><a xlink:href="sr__register_2sr__register_8h.html" target="_top" xlink:title="core/common/sr_register\l/sr_register.h">
<polygon fill="white" stroke="black" points="1202.5,-536.5 1202.5,-566.5 1327.5,-566.5 1327.5,-536.5 1202.5,-536.5"/>
<text text-anchor="start" x="1210.5" y="-554.5" font-family="Helvetica,sans-Serif" font-size="10.00">core/common/sr_register</text>
<text text-anchor="middle" x="1265" y="-543.5" font-family="Helvetica,sans-Serif" font-size="10.00">/sr_register.h</text>
</a>
</g>
</g>
<!-- Node1&#45;&gt;Node33 -->
<g id="edge54" class="edge"><title>Node1&#45;&gt;Node33</title>
<path fill="none" stroke="midnightblue" d="M1214.8,-596.598C1225.97,-586.783 1238.99,-575.344 1248.97,-566.577"/>
<polygon fill="midnightblue" stroke="midnightblue" points="1212.26,-594.167 1207.06,-603.396 1216.88,-599.426 1212.26,-594.167"/>
</g>
<!-- Node3 -->
<g id="node3" class="node"><title>Node3</title>
<g id="a_node3"><a xlink:href="sr__register_8h.html" target="_top" xlink:title="core/common/sr_register.h">
<polygon fill="white" stroke="black" points="849.5,-475 849.5,-494 982.5,-494 982.5,-475 849.5,-475"/>
<text text-anchor="middle" x="916" y="-482" font-family="Helvetica,sans-Serif" font-size="10.00">core/common/sr_register.h</text>
</a>
</g>
</g>
<!-- Node2&#45;&gt;Node3 -->
<g id="edge2" class="edge"><title>Node2&#45;&gt;Node3</title>
<path fill="none" stroke="midnightblue" d="M1080.71,-538.765C1040.89,-525.886 977.912,-505.521 942.482,-494.064"/>
<polygon fill="midnightblue" stroke="midnightblue" points="1079.72,-542.122 1090.31,-541.869 1081.87,-535.461 1079.72,-542.122"/>
</g>
<!-- Node17 -->
<g id="node17" class="node"><title>Node17</title>
<g id="a_node17"><a xlink:href="registers_8hpp.html" target="_top" xlink:title="gaisler/leon3/intunit\l/registers.hpp">
<polygon fill="white" stroke="black" points="1268.5,-469.5 1268.5,-499.5 1369.5,-499.5 1369.5,-469.5 1268.5,-469.5"/>
<text text-anchor="start" x="1276.5" y="-487.5" font-family="Helvetica,sans-Serif" font-size="10.00">gaisler/leon3/intunit</text>
<text text-anchor="middle" x="1319" y="-476.5" font-family="Helvetica,sans-Serif" font-size="10.00">/registers.hpp</text>
</a>
</g>
</g>
<!-- Node2&#45;&gt;Node17 -->
<g id="edge19" class="edge"><title>Node2&#45;&gt;Node17</title>
<path fill="none" stroke="midnightblue" d="M1153.44,-538.775C1187.69,-527.753 1239,-511.244 1275.41,-499.528"/>
<polygon fill="midnightblue" stroke="midnightblue" points="1152.27,-535.474 1143.82,-541.869 1154.42,-542.137 1152.27,-535.474"/>
</g>
<!-- Node4 -->
<g id="node4" class="node"><title>Node4</title>
<g id="a_node4"><a xlink:href="apbslave_8h.html" target="_top" xlink:title="core/common/apbslave.h">
<polygon fill="white" stroke="black" points="518,-207 518,-226 644,-226 644,-207 518,-207"/>
<text text-anchor="middle" x="581" y="-214" font-family="Helvetica,sans-Serif" font-size="10.00">core/common/apbslave.h</text>
</a>
</g>
</g>
<!-- Node3&#45;&gt;Node4 -->
<g id="edge3" class="edge"><title>Node3&#45;&gt;Node4</title>
<path fill="none" stroke="midnightblue" d="M897.113,-468.503C835.291,-419.415 640.19,-264.499 591.895,-226.151"/>
<polygon fill="midnightblue" stroke="midnightblue" points="895.225,-471.474 905.233,-474.951 899.578,-465.992 895.225,-471.474"/>
</g>
<!-- Node5 -->
<g id="node5" class="node"><title>Node5</title>
<g id="a_node5"><a xlink:href="gaisler_2irqmp_2irqmp_8h.html" target="_top" xlink:title="gaisler/irqmp/irqmp.h">
<polygon fill="white" stroke="black" points="533.5,-140 533.5,-159 640.5,-159 640.5,-140 533.5,-140"/>
<text text-anchor="middle" x="587" y="-147" font-family="Helvetica,sans-Serif" font-size="10.00">gaisler/irqmp/irqmp.h</text>
</a>
</g>
</g>
<!-- Node4&#45;&gt;Node5 -->
<g id="edge4" class="edge"><title>Node4&#45;&gt;Node5</title>
<path fill="none" stroke="midnightblue" d="M582.75,-196.537C583.892,-184.17 585.327,-168.62 586.204,-159.127"/>
<polygon fill="midnightblue" stroke="midnightblue" points="579.243,-196.454 581.809,-206.734 586.214,-197.098 579.243,-196.454"/>
</g>
<!-- Node10 -->
<g id="node10" class="node"><title>Node10</title>
<g id="a_node10"><a xlink:href="mctrl_8h.html" target="_top" xlink:title="gaisler/mctrl/mctrl.h">
<polygon fill="white" stroke="black" points="658.5,-140 658.5,-159 761.5,-159 761.5,-140 658.5,-140"/>
<text text-anchor="middle" x="710" y="-147" font-family="Helvetica,sans-Serif" font-size="10.00">gaisler/mctrl/mctrl.h</text>
</a>
</g>
</g>
<!-- Node4&#45;&gt;Node10 -->
<g id="edge9" class="edge"><title>Node4&#45;&gt;Node10</title>
<path fill="none" stroke="midnightblue" d="M607.249,-202.274C632.799,-189.4 670.886,-170.209 692.799,-159.167"/>
<polygon fill="midnightblue" stroke="midnightblue" points="605.486,-199.243 598.13,-206.869 608.636,-205.494 605.486,-199.243"/>
</g>
<!-- Node12 -->
<g id="node12" class="node"><title>Node12</title>
<g id="a_node12"><a xlink:href="gaisler_2gptimer_2gptimer_8h.html" target="_top" xlink:title="gaisler/gptimer/gptimer.h">
<polygon fill="white" stroke="black" points="206,-140 206,-159 330,-159 330,-140 206,-140"/>
<text text-anchor="middle" x="268" y="-147" font-family="Helvetica,sans-Serif" font-size="10.00">gaisler/gptimer/gptimer.h</text>
</a>
</g>
</g>
<!-- Node4&#45;&gt;Node12 -->
<g id="edge12" class="edge"><title>Node4&#45;&gt;Node12</title>
<path fill="none" stroke="midnightblue" d="M529.871,-204.882C468.316,-192.099 366.148,-170.882 309.332,-159.083"/>
<polygon fill="midnightblue" stroke="midnightblue" points="529.256,-208.329 539.759,-206.936 530.679,-201.475 529.256,-208.329"/>
</g>
<!-- Node15 -->
<g id="node15" class="node"><title>Node15</title>
<g id="a_node15"><a xlink:href="apbuart_8h.html" target="_top" xlink:title="gaisler/apbuart/apbuart.h">
<polygon fill="white" stroke="black" points="391,-140 391,-159 515,-159 515,-140 391,-140"/>
<text text-anchor="middle" x="453" y="-147" font-family="Helvetica,sans-Serif" font-size="10.00">gaisler/apbuart/apbuart.h</text>
</a>
</g>
</g>
<!-- Node4&#45;&gt;Node15 -->
<g id="edge16" class="edge"><title>Node4&#45;&gt;Node15</title>
<path fill="none" stroke="midnightblue" d="M554.955,-202.274C529.603,-189.4 491.811,-170.209 470.068,-159.167"/>
<polygon fill="midnightblue" stroke="midnightblue" points="553.502,-205.461 564.003,-206.869 556.671,-199.22 553.502,-205.461"/>
</g>
<!-- Node6 -->
<g id="node6" class="node"><title>Node6</title>
<g id="a_node6"><a xlink:href="ambabase_8h.html" target="_top" xlink:title="core/platforms/base\l/ambabase.h">
<polygon fill="white" stroke="black" points="468.5,-67.5 468.5,-97.5 571.5,-97.5 571.5,-67.5 468.5,-67.5"/>
<text text-anchor="start" x="476.5" y="-85.5" font-family="Helvetica,sans-Serif" font-size="10.00">core/platforms/base</text>
<text text-anchor="middle" x="520" y="-74.5" font-family="Helvetica,sans-Serif" font-size="10.00">/ambabase.h</text>
</a>
</g>
</g>
<!-- Node5&#45;&gt;Node6 -->
<g id="edge5" class="edge"><title>Node5&#45;&gt;Node6</title>
<path fill="none" stroke="midnightblue" d="M570.628,-132.617C559.588,-121.907 545.153,-107.902 534.523,-97.589"/>
<polygon fill="midnightblue" stroke="midnightblue" points="568.35,-135.283 577.964,-139.734 573.224,-130.259 568.35,-135.283"/>
</g>
<!-- Node8 -->
<g id="node8" class="node"><title>Node8</title>
<g id="a_node8"><a xlink:href="sc__main_8cpp.html" target="_top" xlink:title="core/platforms/leon3mp\l/sc_main.cpp">
<polygon fill="white" stroke="black" points="589.5,-67.5 589.5,-97.5 708.5,-97.5 708.5,-67.5 589.5,-67.5"/>
<text text-anchor="start" x="597.5" y="-85.5" font-family="Helvetica,sans-Serif" font-size="10.00">core/platforms/leon3mp</text>
<text text-anchor="middle" x="649" y="-74.5" font-family="Helvetica,sans-Serif" font-size="10.00">/sc_main.cpp</text>
</a>
</g>
</g>
<!-- Node5&#45;&gt;Node8 -->
<g id="edge7" class="edge"><title>Node5&#45;&gt;Node8</title>
<path fill="none" stroke="midnightblue" d="M602.448,-132.304C612.625,-121.635 625.82,-107.802 635.561,-97.589"/>
<polygon fill="midnightblue" stroke="midnightblue" points="599.731,-130.082 595.362,-139.734 604.796,-134.913 599.731,-130.082"/>
</g>
<!-- Node9 -->
<g id="node9" class="node"><title>Node9</title>
<g id="a_node9"><a xlink:href="irqmp_8cpp.html" target="_top" xlink:title="gaisler/irqmp/irqmp.cpp">
<polygon fill="white" stroke="black" points="727,-73 727,-92 845,-92 845,-73 727,-73"/>
<text text-anchor="middle" x="786" y="-80" font-family="Helvetica,sans-Serif" font-size="10.00">gaisler/irqmp/irqmp.cpp</text>
</a>
</g>
</g>
<!-- Node5&#45;&gt;Node9 -->
<g id="edge8" class="edge"><title>Node5&#45;&gt;Node9</title>
<path fill="none" stroke="midnightblue" d="M623.177,-136.683C662.62,-123.8 724.778,-103.497 759.782,-92.0637"/>
<polygon fill="midnightblue" stroke="midnightblue" points="621.845,-133.437 613.426,-139.869 624.018,-140.091 621.845,-133.437"/>
</g>
<!-- Node7 -->
<g id="node7" class="node"><title>Node7</title>
<g id="a_node7"><a xlink:href="leon3processor_8h.html" target="_top" xlink:title="core/platforms/base\l/leon3processor.h">
<polygon fill="white" stroke="black" points="468.5,-0.5 468.5,-30.5 571.5,-30.5 571.5,-0.5 468.5,-0.5"/>
<text text-anchor="start" x="476.5" y="-18.5" font-family="Helvetica,sans-Serif" font-size="10.00">core/platforms/base</text>
<text text-anchor="middle" x="520" y="-7.5" font-family="Helvetica,sans-Serif" font-size="10.00">/leon3processor.h</text>
</a>
</g>
</g>
<!-- Node6&#45;&gt;Node7 -->
<g id="edge6" class="edge"><title>Node6&#45;&gt;Node7</title>
<path fill="none" stroke="midnightblue" d="M520,-57.1081C520,-48.1539 520,-38.3227 520,-30.5765"/>
<polygon fill="midnightblue" stroke="midnightblue" points="516.5,-57.3959 520,-67.396 523.5,-57.396 516.5,-57.3959"/>
</g>
<!-- Node10&#45;&gt;Node8 -->
<g id="edge10" class="edge"><title>Node10&#45;&gt;Node8</title>
<path fill="none" stroke="midnightblue" d="M694.801,-132.304C684.788,-121.635 671.807,-107.802 662.222,-97.589"/>
<polygon fill="midnightblue" stroke="midnightblue" points="692.378,-134.837 701.773,-139.734 697.482,-130.047 692.378,-134.837"/>
</g>
<!-- Node11 -->
<g id="node11" class="node"><title>Node11</title>
<g id="a_node11"><a xlink:href="mctrl_8cpp.html" target="_top" xlink:title="gaisler/mctrl/mctrl.cpp">
<polygon fill="white" stroke="black" points="863.5,-73 863.5,-92 976.5,-92 976.5,-73 863.5,-73"/>
<text text-anchor="middle" x="920" y="-80" font-family="Helvetica,sans-Serif" font-size="10.00">gaisler/mctrl/mctrl.cpp</text>
</a>
</g>
</g>
<!-- Node10&#45;&gt;Node11 -->
<g id="edge11" class="edge"><title>Node10&#45;&gt;Node11</title>
<path fill="none" stroke="midnightblue" d="M747.648,-136.847C789.243,-123.973 855.237,-103.546 892.333,-92.0637"/>
<polygon fill="midnightblue" stroke="midnightblue" points="746.404,-133.568 737.886,-139.869 748.474,-140.255 746.404,-133.568"/>
</g>
<!-- Node12&#45;&gt;Node8 -->
<g id="edge13" class="edge"><title>Node12&#45;&gt;Node8</title>
<path fill="none" stroke="midnightblue" d="M335.896,-138.445C399.204,-128.848 496.192,-113.58 580,-98 583.009,-97.4407 586.088,-96.8524 589.195,-96.246"/>
<polygon fill="midnightblue" stroke="midnightblue" points="335.008,-135.039 325.644,-139.994 336.054,-141.96 335.008,-135.039"/>
</g>
<!-- Node13 -->
<g id="node13" class="node"><title>Node13</title>
<g id="a_node13"><a xlink:href="gpcounter_8cpp.html" target="_top" xlink:title="gaisler/gptimer/gpcounter.cpp">
<polygon fill="white" stroke="black" points="152.5,-73 152.5,-92 297.5,-92 297.5,-73 152.5,-73"/>
<text text-anchor="middle" x="225" y="-80" font-family="Helvetica,sans-Serif" font-size="10.00">gaisler/gptimer/gpcounter.cpp</text>
</a>
</g>
</g>
<!-- Node12&#45;&gt;Node13 -->
<g id="edge14" class="edge"><title>Node12&#45;&gt;Node13</title>
<path fill="none" stroke="midnightblue" d="M256.446,-131.035C248.121,-118.45 237.243,-102.007 230.707,-92.1273"/>
<polygon fill="midnightblue" stroke="midnightblue" points="253.764,-133.325 262.201,-139.734 259.603,-129.463 253.764,-133.325"/>
</g>
<!-- Node14 -->
<g id="node14" class="node"><title>Node14</title>
<g id="a_node14"><a xlink:href="gptimer_8cpp.html" target="_top" xlink:title="gaisler/gptimer/gptimer.cpp">
<polygon fill="white" stroke="black" points="0,-73 0,-92 134,-92 134,-73 0,-73"/>
<text text-anchor="middle" x="67" y="-80" font-family="Helvetica,sans-Serif" font-size="10.00">gaisler/gptimer/gptimer.cpp</text>
</a>
</g>
</g>
<!-- Node12&#45;&gt;Node14 -->
<g id="edge15" class="edge"><title>Node12&#45;&gt;Node14</title>
<path fill="none" stroke="midnightblue" d="M231.713,-136.765C191.887,-123.886 128.912,-103.521 93.4815,-92.0637"/>
<polygon fill="midnightblue" stroke="midnightblue" points="230.717,-140.122 241.309,-139.869 232.871,-133.461 230.717,-140.122"/>
</g>
<!-- Node15&#45;&gt;Node8 -->
<g id="edge17" class="edge"><title>Node15&#45;&gt;Node8</title>
<path fill="none" stroke="midnightblue" d="M488.784,-136.633C522.017,-125.612 571.525,-109.193 606.7,-97.5281"/>
<polygon fill="midnightblue" stroke="midnightblue" points="487.417,-133.399 479.027,-139.869 489.621,-140.043 487.417,-133.399"/>
</g>
<!-- Node16 -->
<g id="node16" class="node"><title>Node16</title>
<g id="a_node16"><a xlink:href="apbuart_8cpp.html" target="_top" xlink:title="gaisler/apbuart/apbuart.cpp">
<polygon fill="white" stroke="black" points="316,-73 316,-92 450,-92 450,-73 316,-73"/>
<text text-anchor="middle" x="383" y="-80" font-family="Helvetica,sans-Serif" font-size="10.00">gaisler/apbuart/apbuart.cpp</text>
</a>
</g>
</g>
<!-- Node15&#45;&gt;Node16 -->
<g id="edge18" class="edge"><title>Node15&#45;&gt;Node16</title>
<path fill="none" stroke="midnightblue" d="M436.153,-132.856C422.391,-120.078 403.452,-102.492 392.291,-92.1273"/>
<polygon fill="midnightblue" stroke="midnightblue" points="433.85,-135.494 443.559,-139.734 438.613,-130.364 433.85,-135.494"/>
</g>
<!-- Node18 -->
<g id="node18" class="node"><title>Node18</title>
<g id="a_node18"><a xlink:href="instructions_8hpp.html" target="_top" xlink:title="gaisler/leon3/intunit\l/instructions.hpp">
<polygon fill="white" stroke="black" points="906.5,-335.5 906.5,-365.5 1007.5,-365.5 1007.5,-335.5 906.5,-335.5"/>
<text text-anchor="start" x="914.5" y="-353.5" font-family="Helvetica,sans-Serif" font-size="10.00">gaisler/leon3/intunit</text>
<text text-anchor="middle" x="957" y="-342.5" font-family="Helvetica,sans-Serif" font-size="10.00">/instructions.hpp</text>
</a>
</g>
</g>
<!-- Node17&#45;&gt;Node18 -->
<g id="edge20" class="edge"><title>Node17&#45;&gt;Node18</title>
<path fill="none" stroke="midnightblue" d="M1258.43,-478.45C1206.62,-472.462 1130.99,-459.689 1070,-433 1031.22,-416.031 992.655,-384.177 972.132,-365.718"/>
<polygon fill="midnightblue" stroke="midnightblue" points="1258.13,-481.939 1268.46,-479.559 1258.9,-474.981 1258.13,-481.939"/>
</g>
<!-- Node19 -->
<g id="node19" class="node"><title>Node19</title>
<g id="a_node19"><a xlink:href="processor_8hpp.html" target="_top" xlink:title="gaisler/leon3/intunit\l/processor.hpp">
<polygon fill="white" stroke="black" points="916.5,-201.5 916.5,-231.5 1017.5,-231.5 1017.5,-201.5 916.5,-201.5"/>
<text text-anchor="start" x="924.5" y="-219.5" font-family="Helvetica,sans-Serif" font-size="10.00">gaisler/leon3/intunit</text>
<text text-anchor="middle" x="967" y="-208.5" font-family="Helvetica,sans-Serif" font-size="10.00">/processor.hpp</text>
</a>
</g>
</g>
<!-- Node17&#45;&gt;Node19 -->
<g id="edge48" class="edge"><title>Node17&#45;&gt;Node19</title>
<path fill="none" stroke="midnightblue" d="M1379.65,-477.732C1436.9,-470.885 1516.77,-457.219 1536,-433 1586.56,-369.325 1528.45,-306.806 1457,-268 1382.13,-227.336 1126.97,-219.379 1017.53,-217.85"/>
<polygon fill="midnightblue" stroke="midnightblue" points="1379.13,-474.269 1369.6,-478.893 1379.94,-481.223 1379.13,-474.269"/>
</g>
<!-- Node23 -->
<g id="node23" class="node"><title>Node23</title>
<g id="a_node23"><a xlink:href="processor_8cpp.html" target="_top" xlink:title="gaisler/leon3/intunit\l/processor.cpp">
<polygon fill="white" stroke="black" points="1114.5,-134.5 1114.5,-164.5 1215.5,-164.5 1215.5,-134.5 1114.5,-134.5"/>
<text text-anchor="start" x="1122.5" y="-152.5" font-family="Helvetica,sans-Serif" font-size="10.00">gaisler/leon3/intunit</text>
<text text-anchor="middle" x="1165" y="-141.5" font-family="Helvetica,sans-Serif" font-size="10.00">/processor.cpp</text>
</a>
</g>
</g>
<!-- Node17&#45;&gt;Node23 -->
<g id="edge52" class="edge"><title>Node17&#45;&gt;Node23</title>
<path fill="none" stroke="midnightblue" d="M1379.67,-477.081C1441.24,-469.466 1531.2,-454.967 1558,-433 1588.49,-408.007 1593,-390.921 1593,-351.5 1593,-351.5 1593,-351.5 1593,-282.5 1593,-204.352 1329.15,-167.547 1215.78,-155.339"/>
<polygon fill="midnightblue" stroke="midnightblue" points="1379.17,-473.615 1369.66,-478.288 1380.01,-480.564 1379.17,-473.615"/>
</g>
<!-- Node26 -->
<g id="node26" class="node"><title>Node26</title>
<g id="a_node26"><a xlink:href="instructions_8cpp.html" target="_top" xlink:title="gaisler/leon3/intunit\l/instructions.cpp">
<polygon fill="white" stroke="black" points="1074.5,-268.5 1074.5,-298.5 1175.5,-298.5 1175.5,-268.5 1074.5,-268.5"/>
<text text-anchor="start" x="1082.5" y="-286.5" font-family="Helvetica,sans-Serif" font-size="10.00">gaisler/leon3/intunit</text>
<text text-anchor="middle" x="1125" y="-275.5" font-family="Helvetica,sans-Serif" font-size="10.00">/instructions.cpp</text>
</a>
</g>
</g>
<!-- Node17&#45;&gt;Node26 -->
<g id="edge50" class="edge"><title>Node17&#45;&gt;Node26</title>
<path fill="none" stroke="midnightblue" d="M1258.58,-467.419C1210.74,-450.931 1147.96,-419.889 1123,-366 1112.89,-344.167 1117.09,-315.391 1121.05,-298.521"/>
<polygon fill="midnightblue" stroke="midnightblue" points="1257.64,-470.797 1268.24,-470.623 1259.85,-464.152 1257.64,-470.797"/>
</g>
<!-- Node28 -->
<g id="node28" class="node"><title>Node28</title>
<g id="a_node28"><a xlink:href="alias_8hpp.html" target="_top" xlink:title="gaisler/leon3/intunit\l/alias.hpp">
<polygon fill="white" stroke="black" points="1229.5,-402.5 1229.5,-432.5 1330.5,-432.5 1330.5,-402.5 1229.5,-402.5"/>
<text text-anchor="start" x="1237.5" y="-420.5" font-family="Helvetica,sans-Serif" font-size="10.00">gaisler/leon3/intunit</text>
<text text-anchor="middle" x="1280" y="-409.5" font-family="Helvetica,sans-Serif" font-size="10.00">/alias.hpp</text>
</a>
</g>
</g>
<!-- Node17&#45;&gt;Node28 -->
<g id="edge36" class="edge"><title>Node17&#45;&gt;Node28</title>
<path fill="none" stroke="midnightblue" d="M1305.25,-460.576C1299.64,-451.241 1293.35,-440.748 1288.45,-432.577"/>
<polygon fill="midnightblue" stroke="midnightblue" points="1302.39,-462.622 1310.54,-469.396 1308.39,-459.02 1302.39,-462.622"/>
</g>
<!-- Node29 -->
<g id="node29" class="node"><title>Node29</title>
<g id="a_node29"><a xlink:href="interface_8hpp.html" target="_top" xlink:title="gaisler/leon3/intunit\l/interface.hpp">
<polygon fill="white" stroke="black" points="1150.5,-335.5 1150.5,-365.5 1251.5,-365.5 1251.5,-335.5 1150.5,-335.5"/>
<text text-anchor="start" x="1158.5" y="-353.5" font-family="Helvetica,sans-Serif" font-size="10.00">gaisler/leon3/intunit</text>
<text text-anchor="middle" x="1201" y="-342.5" font-family="Helvetica,sans-Serif" font-size="10.00">/interface.hpp</text>
</a>
</g>
</g>
<!-- Node17&#45;&gt;Node29 -->
<g id="edge47" class="edge"><title>Node17&#45;&gt;Node29</title>
<path fill="none" stroke="midnightblue" d="M1263.05,-465.285C1247.08,-457.611 1231.03,-447.099 1220,-433 1204.6,-413.321 1201.32,-383.295 1200.82,-365.71"/>
<polygon fill="midnightblue" stroke="midnightblue" points="1261.84,-468.583 1272.4,-469.482 1264.71,-462.196 1261.84,-468.583"/>
</g>
<!-- Node30 -->
<g id="node30" class="node"><title>Node30</title>
<g id="a_node30"><a xlink:href="interface_8cpp.html" target="_top" xlink:title="gaisler/leon3/intunit\l/interface.cpp">
<polygon fill="white" stroke="black" points="1346.5,-268.5 1346.5,-298.5 1447.5,-298.5 1447.5,-268.5 1346.5,-268.5"/>
<text text-anchor="start" x="1354.5" y="-286.5" font-family="Helvetica,sans-Serif" font-size="10.00">gaisler/leon3/intunit</text>
<text text-anchor="middle" x="1397" y="-275.5" font-family="Helvetica,sans-Serif" font-size="10.00">/interface.cpp</text>
</a>
</g>
</g>
<!-- Node17&#45;&gt;Node30 -->
<g id="edge51" class="edge"><title>Node17&#45;&gt;Node30</title>
<path fill="none" stroke="midnightblue" d="M1345.54,-463.24C1357.19,-454.175 1370.93,-443.243 1383,-433 1398.59,-419.769 1399.96,-413.306 1417,-402 1448.81,-380.89 1474.42,-398.161 1495,-366 1502.43,-354.394 1502.17,-346.764 1495,-335 1484.44,-317.677 1465.82,-306.042 1447.63,-298.354"/>
<polygon fill="midnightblue" stroke="midnightblue" points="1343.25,-460.586 1337.49,-469.473 1347.54,-466.122 1343.25,-460.586"/>
</g>
<!-- Node31 -->
<g id="node31" class="node"><title>Node31</title>
<g id="a_node31"><a xlink:href="alias_8cpp.html" target="_top" xlink:title="gaisler/leon3/intunit\l/alias.cpp">
<polygon fill="white" stroke="black" points="1384.5,-335.5 1384.5,-365.5 1485.5,-365.5 1485.5,-335.5 1384.5,-335.5"/>
<text text-anchor="start" x="1392.5" y="-353.5" font-family="Helvetica,sans-Serif" font-size="10.00">gaisler/leon3/intunit</text>
<text text-anchor="middle" x="1435" y="-342.5" font-family="Helvetica,sans-Serif" font-size="10.00">/alias.cpp</text>
</a>
</g>
</g>
<!-- Node17&#45;&gt;Node31 -->
<g id="edge49" class="edge"><title>Node17&#45;&gt;Node31</title>
<path fill="none" stroke="midnightblue" d="M1335.1,-461.377C1347.61,-444.608 1365.68,-421.244 1383,-402 1394.62,-389.092 1408.82,-375.426 1419.45,-365.57"/>
<polygon fill="midnightblue" stroke="midnightblue" points="1332.23,-459.368 1329.1,-469.489 1337.86,-463.53 1332.23,-459.368"/>
</g>
<!-- Node32 -->
<g id="node32" class="node"><title>Node32</title>
<g id="a_node32"><a xlink:href="registers_8cpp.html" target="_top" xlink:title="gaisler/leon3/intunit\l/registers.cpp">
<polygon fill="white" stroke="black" points="1425.5,-402.5 1425.5,-432.5 1526.5,-432.5 1526.5,-402.5 1425.5,-402.5"/>
<text text-anchor="start" x="1433.5" y="-420.5" font-family="Helvetica,sans-Serif" font-size="10.00">gaisler/leon3/intunit</text>
<text text-anchor="middle" x="1476" y="-409.5" font-family="Helvetica,sans-Serif" font-size="10.00">/registers.cpp</text>
</a>
</g>
</g>
<!-- Node17&#45;&gt;Node32 -->
<g id="edge53" class="edge"><title>Node17&#45;&gt;Node32</title>
<path fill="none" stroke="midnightblue" d="M1362.37,-465.544C1387.49,-455.143 1418.66,-442.238 1442,-432.577"/>
<polygon fill="midnightblue" stroke="midnightblue" points="1360.97,-462.337 1353.07,-469.396 1363.64,-468.804 1360.97,-462.337"/>
</g>
<!-- Node18&#45;&gt;Node19 -->
<g id="edge21" class="edge"><title>Node18&#45;&gt;Node19</title>
<path fill="none" stroke="midnightblue" d="M917.034,-330.125C905.169,-322.231 893.591,-311.882 887,-299 880.724,-286.734 880.348,-280.066 887,-268 896.119,-251.459 913.189,-239.588 929.227,-231.53"/>
<polygon fill="midnightblue" stroke="midnightblue" points="915.309,-333.172 925.658,-335.44 918.982,-327.213 915.309,-333.172"/>
</g>
<!-- Node22 -->
<g id="node22" class="node"><title>Node22</title>
<g id="a_node22"><a xlink:href="main_8cpp.html" target="_top" xlink:title="gaisler/leon3/intunit\l/main.cpp">
<polygon fill="white" stroke="black" points="789.5,-134.5 789.5,-164.5 890.5,-164.5 890.5,-134.5 789.5,-134.5"/>
<text text-anchor="start" x="797.5" y="-152.5" font-family="Helvetica,sans-Serif" font-size="10.00">gaisler/leon3/intunit</text>
<text text-anchor="middle" x="840" y="-141.5" font-family="Helvetica,sans-Serif" font-size="10.00">/main.cpp</text>
</a>
</g>
</g>
<!-- Node18&#45;&gt;Node22 -->
<g id="edge33" class="edge"><title>Node18&#45;&gt;Node22</title>
<path fill="none" stroke="midnightblue" d="M896.189,-344.345C834.112,-337.77 743.61,-324.116 720,-299 690.013,-267.1 685.274,-237.131 710,-201 719.504,-187.113 757.013,-173.418 789.314,-163.801"/>
<polygon fill="midnightblue" stroke="midnightblue" points="895.971,-347.841 906.276,-345.378 896.684,-340.878 895.971,-347.841"/>
</g>
<!-- Node18&#45;&gt;Node23 -->
<g id="edge34" class="edge"><title>Node18&#45;&gt;Node23</title>
<path fill="none" stroke="midnightblue" d="M987.387,-329.532C1000.07,-320.709 1014.68,-309.881 1027,-299 1077.91,-254.032 1130.49,-192.464 1153.29,-164.884"/>
<polygon fill="midnightblue" stroke="midnightblue" points="985.244,-326.757 978.97,-335.295 989.198,-332.533 985.244,-326.757"/>
</g>
<!-- Node24 -->
<g id="node24" class="node"><title>Node24</title>
<g id="a_node24"><a xlink:href="decoder_8hpp.html" target="_top" xlink:title="gaisler/leon3/intunit\l/decoder.hpp">
<polygon fill="white" stroke="black" points="738.5,-268.5 738.5,-298.5 839.5,-298.5 839.5,-268.5 738.5,-268.5"/>
<text text-anchor="start" x="746.5" y="-286.5" font-family="Helvetica,sans-Serif" font-size="10.00">gaisler/leon3/intunit</text>
<text text-anchor="middle" x="789" y="-275.5" font-family="Helvetica,sans-Serif" font-size="10.00">/decoder.hpp</text>
</a>
</g>
</g>
<!-- Node18&#45;&gt;Node24 -->
<g id="edge27" class="edge"><title>Node18&#45;&gt;Node24</title>
<path fill="none" stroke="midnightblue" d="M910.946,-331.682C884.002,-321.257 850.464,-308.281 825.382,-298.577"/>
<polygon fill="midnightblue" stroke="midnightblue" points="909.957,-335.052 920.547,-335.396 912.483,-328.523 909.957,-335.052"/>
</g>
<!-- Node25 -->
<g id="node25" class="node"><title>Node25</title>
<g id="a_node25"><a xlink:href="decoder_8cpp.html" target="_top" xlink:title="gaisler/leon3/intunit\l/decoder.cpp">
<polygon fill="white" stroke="black" points="719.5,-201.5 719.5,-231.5 820.5,-231.5 820.5,-201.5 719.5,-201.5"/>
<text text-anchor="start" x="727.5" y="-219.5" font-family="Helvetica,sans-Serif" font-size="10.00">gaisler/leon3/intunit</text>
<text text-anchor="middle" x="770" y="-208.5" font-family="Helvetica,sans-Serif" font-size="10.00">/decoder.cpp</text>
</a>
</g>
</g>
<!-- Node18&#45;&gt;Node25 -->
<g id="edge31" class="edge"><title>Node18&#45;&gt;Node25</title>
<path fill="none" stroke="midnightblue" d="M896.067,-344.475C835.779,-338.089 749.603,-324.666 729,-299 712.045,-277.879 736.034,-248.61 753.834,-231.503"/>
<polygon fill="midnightblue" stroke="midnightblue" points="895.949,-347.981 906.253,-345.513 896.66,-341.017 895.949,-347.981"/>
</g>
<!-- Node18&#45;&gt;Node26 -->
<g id="edge32" class="edge"><title>Node18&#45;&gt;Node26</title>
<path fill="none" stroke="midnightblue" d="M1003.05,-331.682C1030,-321.257 1063.54,-308.281 1088.62,-298.577"/>
<polygon fill="midnightblue" stroke="midnightblue" points="1001.52,-328.523 993.453,-335.396 1004.04,-335.052 1001.52,-328.523"/>
</g>
<!-- Node27 -->
<g id="node27" class="node"><title>Node27</title>
<g id="a_node27"><a xlink:href="mmu_8cpp.html" target="_top" xlink:title="gaisler/leon3/mmucache\l/mmu.cpp">
<polygon fill="white" stroke="black" points="896,-268.5 896,-298.5 1018,-298.5 1018,-268.5 896,-268.5"/>
<text text-anchor="start" x="904" y="-286.5" font-family="Helvetica,sans-Serif" font-size="10.00">gaisler/leon3/mmucache</text>
<text text-anchor="middle" x="957" y="-275.5" font-family="Helvetica,sans-Serif" font-size="10.00">/mmu.cpp</text>
</a>
</g>
</g>
<!-- Node18&#45;&gt;Node27 -->
<g id="edge35" class="edge"><title>Node18&#45;&gt;Node27</title>
<path fill="none" stroke="midnightblue" d="M957,-325.108C957,-316.154 957,-306.323 957,-298.577"/>
<polygon fill="midnightblue" stroke="midnightblue" points="953.5,-325.396 957,-335.396 960.5,-325.396 953.5,-325.396"/>
</g>
<!-- Node20 -->
<g id="node20" class="node"><title>Node20</title>
<g id="a_node20"><a xlink:href="gaisler_2leon3_2leon3_8h.html" target="_top" xlink:title="gaisler/leon3/leon3.h">
<polygon fill="white" stroke="black" points="914,-140 914,-159 1020,-159 1020,-140 914,-140"/>
<text text-anchor="middle" x="967" y="-147" font-family="Helvetica,sans-Serif" font-size="10.00">gaisler/leon3/leon3.h</text>
</a>
</g>
</g>
<!-- Node19&#45;&gt;Node20 -->
<g id="edge22" class="edge"><title>Node19&#45;&gt;Node20</title>
<path fill="none" stroke="midnightblue" d="M967,-191.25C967,-180.017 967,-167.377 967,-159.195"/>
<polygon fill="midnightblue" stroke="midnightblue" points="963.5,-191.396 967,-201.396 970.5,-191.396 963.5,-191.396"/>
</g>
<!-- Node19&#45;&gt;Node22 -->
<g id="edge25" class="edge"><title>Node19&#45;&gt;Node22</title>
<path fill="none" stroke="midnightblue" d="M930.296,-196.714C910.266,-186.463 885.881,-173.983 867.503,-164.577"/>
<polygon fill="midnightblue" stroke="midnightblue" points="928.946,-199.956 939.443,-201.396 932.136,-193.724 928.946,-199.956"/>
</g>
<!-- Node19&#45;&gt;Node23 -->
<g id="edge26" class="edge"><title>Node19&#45;&gt;Node23</title>
<path fill="none" stroke="midnightblue" d="M1019.61,-198.228C1051.64,-187.713 1092.04,-174.451 1122.12,-164.577"/>
<polygon fill="midnightblue" stroke="midnightblue" points="1018.37,-194.951 1009.96,-201.396 1020.56,-201.602 1018.37,-194.951"/>
</g>
<!-- Node20&#45;&gt;Node8 -->
<g id="edge23" class="edge"><title>Node20&#45;&gt;Node8</title>
<path fill="none" stroke="midnightblue" d="M917.24,-137.807C911.1,-136.512 904.908,-135.217 899,-134 818.668,-117.447 798.357,-114.434 718,-98 715.002,-97.3868 711.931,-96.7552 708.831,-96.1144"/>
<polygon fill="midnightblue" stroke="midnightblue" points="916.958,-141.325 927.466,-139.974 918.409,-134.477 916.958,-141.325"/>
</g>
<!-- Node21 -->
<g id="node21" class="node"><title>Node21</title>
<g id="a_node21"><a xlink:href="leon3_8cpp.html" target="_top" xlink:title="gaisler/leon3/leon3.cpp">
<polygon fill="white" stroke="black" points="995,-73 995,-92 1111,-92 1111,-73 995,-73"/>
<text text-anchor="middle" x="1053" y="-80" font-family="Helvetica,sans-Serif" font-size="10.00">gaisler/leon3/leon3.cpp</text>
</a>
</g>
</g>
<!-- Node20&#45;&gt;Node21 -->
<g id="edge24" class="edge"><title>Node20&#45;&gt;Node21</title>
<path fill="none" stroke="midnightblue" d="M986.756,-133.568C1003.73,-120.738 1027.62,-102.685 1041.59,-92.1273"/>
<polygon fill="midnightblue" stroke="midnightblue" points="984.466,-130.912 978.598,-139.734 988.686,-136.496 984.466,-130.912"/>
</g>
<!-- Node24&#45;&gt;Node19 -->
<g id="edge28" class="edge"><title>Node24&#45;&gt;Node19</title>
<path fill="none" stroke="midnightblue" d="M837.046,-264.955C865.719,-254.485 901.645,-241.366 928.452,-231.577"/>
<polygon fill="midnightblue" stroke="midnightblue" points="835.816,-261.678 827.623,-268.396 838.217,-268.253 835.816,-261.678"/>
</g>
<!-- Node24&#45;&gt;Node23 -->
<g id="edge30" class="edge"><title>Node24&#45;&gt;Node23</title>
<path fill="none" stroke="midnightblue" d="M812.627,-261.762C835.285,-243 871.241,-216.071 907,-201 975.346,-172.195 1060.88,-159.611 1114.24,-154.261"/>
<polygon fill="midnightblue" stroke="midnightblue" points="810.298,-259.148 804.906,-268.268 814.808,-264.501 810.298,-259.148"/>
</g>
<!-- Node24&#45;&gt;Node25 -->
<g id="edge29" class="edge"><title>Node24&#45;&gt;Node25</title>
<path fill="none" stroke="midnightblue" d="M782.042,-258.697C779.379,-249.587 776.429,-239.493 774.115,-231.577"/>
<polygon fill="midnightblue" stroke="midnightblue" points="778.712,-259.78 784.877,-268.396 785.431,-257.816 778.712,-259.78"/>
</g>
<!-- Node28&#45;&gt;Node18 -->
<g id="edge37" class="edge"><title>Node28&#45;&gt;Node18</title>
<path fill="none" stroke="midnightblue" d="M1219.27,-404.279C1158.09,-391.968 1064.79,-373.192 1007.53,-361.668"/>
<polygon fill="midnightblue" stroke="midnightblue" points="1218.68,-407.731 1229.18,-406.272 1220.06,-400.868 1218.68,-407.731"/>
</g>
<!-- Node28&#45;&gt;Node19 -->
<g id="edge42" class="edge"><title>Node28&#45;&gt;Node19</title>
<path fill="none" stroke="midnightblue" d="M1276.89,-392.231C1274.08,-375.499 1268.96,-353.103 1260,-335 1243.04,-300.722 1238.6,-288.001 1206,-268 1147.98,-232.403 1068.77,-221.591 1017.74,-218.479"/>
<polygon fill="midnightblue" stroke="midnightblue" points="1273.46,-392.946 1278.42,-402.306 1280.38,-391.893 1273.46,-392.946"/>
</g>
<!-- Node28&#45;&gt;Node23 -->
<g id="edge46" class="edge"><title>Node28&#45;&gt;Node23</title>
<path fill="none" stroke="midnightblue" d="M1283.12,-392.038C1284.45,-375.644 1284.77,-353.716 1280,-335 1261.83,-263.676 1204.62,-193.96 1178.38,-164.786"/>
<polygon fill="midnightblue" stroke="midnightblue" points="1279.59,-392.097 1282.08,-402.396 1286.56,-392.794 1279.59,-392.097"/>
</g>
<!-- Node28&#45;&gt;Node26 -->
<g id="edge44" class="edge"><title>Node28&#45;&gt;Node26</title>
<path fill="none" stroke="midnightblue" d="M1219.24,-408.284C1191.55,-401.448 1160.63,-388.928 1141,-366 1124.78,-347.051 1123.17,-316.493 1123.84,-298.67"/>
<polygon fill="midnightblue" stroke="midnightblue" points="1218.75,-411.76 1229.27,-410.553 1220.29,-404.933 1218.75,-411.76"/>
</g>
<!-- Node28&#45;&gt;Node29 -->
<g id="edge38" class="edge"><title>Node28&#45;&gt;Node29</title>
<path fill="none" stroke="midnightblue" d="M1254.94,-395.883C1242.94,-386.005 1228.87,-374.429 1218.11,-365.577"/>
<polygon fill="midnightblue" stroke="midnightblue" points="1252.91,-398.745 1262.86,-402.396 1257.36,-393.34 1252.91,-398.745"/>
</g>
<!-- Node28&#45;&gt;Node30 -->
<g id="edge45" class="edge"><title>Node28&#45;&gt;Node30</title>
<path fill="none" stroke="midnightblue" d="M1302.94,-395.429C1312.22,-386.592 1322.89,-376.05 1332,-366 1352.43,-343.478 1374.04,-315.417 1386.48,-298.786"/>
<polygon fill="midnightblue" stroke="midnightblue" points="1300.41,-393.002 1295.52,-402.402 1305.21,-398.101 1300.41,-393.002"/>
</g>
<!-- Node28&#45;&gt;Node31 -->
<g id="edge43" class="edge"><title>Node28&#45;&gt;Node31</title>
<path fill="none" stroke="midnightblue" d="M1323.15,-398.407C1347.89,-388.029 1378.5,-375.195 1401.43,-365.577"/>
<polygon fill="midnightblue" stroke="midnightblue" points="1321.5,-395.301 1313.63,-402.396 1324.21,-401.756 1321.5,-395.301"/>
</g>
<!-- Node29&#45;&gt;Node19 -->
<g id="edge39" class="edge"><title>Node29&#45;&gt;Node19</title>
<path fill="none" stroke="midnightblue" d="M1202.44,-325.189C1202.15,-307.069 1198.63,-282.966 1184,-268 1161.22,-244.693 1074.42,-230.189 1017.74,-222.998"/>
<polygon fill="midnightblue" stroke="midnightblue" points="1198.94,-325.257 1202.3,-335.308 1205.94,-325.36 1198.94,-325.257"/>
</g>
<!-- Node29&#45;&gt;Node23 -->
<g id="edge41" class="edge"><title>Node29&#45;&gt;Node23</title>
<path fill="none" stroke="midnightblue" d="M1203.89,-325.222C1204.75,-316.919 1205.58,-307.566 1206,-299 1206.68,-285.239 1208.3,-281.584 1206,-268 1199.43,-229.231 1181.48,-186.198 1171.65,-164.56"/>
<polygon fill="midnightblue" stroke="midnightblue" points="1200.39,-325.056 1202.77,-335.379 1207.35,-325.822 1200.39,-325.056"/>
</g>
<!-- Node29&#45;&gt;Node30 -->
<g id="edge40" class="edge"><title>Node29&#45;&gt;Node30</title>
<path fill="none" stroke="midnightblue" d="M1253.08,-332.228C1284.79,-321.713 1324.78,-308.451 1354.55,-298.577"/>
<polygon fill="midnightblue" stroke="midnightblue" points="1251.92,-328.926 1243.53,-335.396 1254.12,-335.57 1251.92,-328.926"/>
</g>
</g>
</svg>
        <g id="navigator" transform="translate(0 0)" fill="#404254">
                <rect fill="#f2f5e9" fill-opacity="0.5" stroke="#606060" stroke-width=".5" x="0" y="0" width="60" height="60"/>
                <use id="zoomplus" xlink:href="#zoomPlus" x="17" y="9" onmousedown="handleZoom(evt,'in')"/>
                <use id="zoomminus" xlink:href="#zoomMin" x="42" y="9" onmousedown="handleZoom(evt,'out')"/>
                <use id="reset" xlink:href="#resetDef" x="30" y="36" onmousedown="handleReset()"/>
                <g id="arrowUp" xlink:href="#dirArrow" transform="translate(30 24)" onmousedown="handlePan(0,-1)">
                  <use xlink:href="#rim" fill="#404040">
                        <set attributeName="fill" to="#808080" begin="arrowUp.mouseover" end="arrowUp.mouseout"/>
                  </use>
                  <path fill="none" stroke="white" stroke-width="1.5" d="M0,-3.0v7 M-2.5,-0.5L0,-3.0L2.5,-0.5"/>
                </g>
                <g id="arrowRight" xlink:href="#dirArrow" transform="rotate(90) translate(36 -43)" onmousedown="handlePan(1,0)">
                  <use xlink:href="#rim" fill="#404040">
                        <set attributeName="fill" to="#808080" begin="arrowRight.mouseover" end="arrowRight.mouseout"/>
                  </use>
                  <path fill="none" stroke="white" stroke-width="1.5" d="M0,-3.0v7 M-2.5,-0.5L0,-3.0L2.5,-0.5"/>
                </g>
                <g id="arrowDown" xlink:href="#dirArrow" transform="rotate(180) translate(-30 -48)" onmousedown="handlePan(0,1)">
                  <use xlink:href="#rim" fill="#404040">
                        <set attributeName="fill" to="#808080" begin="arrowDown.mouseover" end="arrowDown.mouseout"/>
                  </use>
                  <path fill="none" stroke="white" stroke-width="1.5" d="M0,-3.0v7 M-2.5,-0.5L0,-3.0L2.5,-0.5"/>
                </g>
                <g id="arrowLeft" xlink:href="#dirArrow" transform="rotate(270) translate(-36 17)" onmousedown="handlePan(-1,0)">
                  <use xlink:href="#rim" fill="#404040">
                        <set attributeName="fill" to="#808080" begin="arrowLeft.mouseover" end="arrowLeft.mouseout"/>
                  </use>
                  <path fill="none" stroke="white" stroke-width="1.5" d="M0,-3.0v7 M-2.5,-0.5L0,-3.0L2.5,-0.5"/>
                </g>
        </g>
        <svg viewBox="0 0 15 15" width="100%" height="30px" preserveAspectRatio="xMaxYMin meet">
         <g id="arrow_out" transform="scale(0.3 0.3)">
          <a xlink:href="sr__register_2sc__register_8h__dep__incl_org.svg" target="_base">
           <rect id="button" ry="5" rx="5" y="6" x="6" height="38" width="38"
                fill="#f2f5e9" fill-opacity="0.5" stroke="#606060" stroke-width="1.0"/>
           <path id="arrow"
             d="M 11.500037,31.436501 C 11.940474,20.09759 22.043105,11.32322 32.158766,21.979434 L 37.068811,17.246167 C 37.068811,17.246167 37.088388,32 37.088388,32 L 22.160133,31.978069 C 22.160133,31.978069 26.997745,27.140456 26.997745,27.140456 C 18.528582,18.264221 13.291696,25.230495 11.500037,31.436501 z"
             style="fill:#404040;"/>
          </a>
         </g>
        </svg>
</svg>
