<?xml version="1.0" encoding="UTF-8" standalone="no"?>
<!DOCTYPE svg PUBLIC "-//W3C//DTD SVG 1.1//EN"
 "http://www.w3.org/Graphics/SVG/1.1/DTD/svg11.dtd">
<!-- Generated by graphviz version 2.36.0 (20140111.2315)
 -->
<!-- Title: core/common/sr_registry/sr_registry.cpp Pages: 1 -->
<svg width="230pt" height="152pt"
 viewBox="0.00 0.00 230.00 152.00" xmlns="http://www.w3.org/2000/svg" xmlns:xlink="http://www.w3.org/1999/xlink">
<g id="graph0" class="graph" transform="scale(1 1) rotate(0) translate(4 148)">
<title>core/common/sr_registry/sr_registry.cpp</title>
<polygon fill="white" stroke="none" points="-4,4 -4,-148 226,-148 226,4 -4,4"/>
<!-- Node1 -->
<g id="node1" class="node"><title>Node1</title>
<polygon fill="#bfbfbf" stroke="black" points="38.5,-113 38.5,-143 163.5,-143 163.5,-113 38.5,-113"/>
<text text-anchor="start" x="46.5" y="-131" font-family="Helvetica,sans-Serif" font-size="10.00">core/common/sr_registry</text>
<text text-anchor="middle" x="101" y="-120" font-family="Helvetica,sans-Serif" font-size="10.00">/sr_registry.cpp</text>
</g>
<!-- Node2 -->
<g id="node2" class="node"><title>Node2</title>
<g id="a_node2"><a xlink:href="sr__registry_2sr__registry_8h.html" target="_top" xlink:title="sr_registry.h">
<polygon fill="white" stroke="black" points="65.5,-56.5 65.5,-75.5 136.5,-75.5 136.5,-56.5 65.5,-56.5"/>
<text text-anchor="middle" x="101" y="-63.5" font-family="Helvetica,sans-Serif" font-size="10.00">sr_registry.h</text>
</a>
</g>
</g>
<!-- Node1&#45;&gt;Node2 -->
<g id="edge1" class="edge"><title>Node1&#45;&gt;Node2</title>
<path fill="none" stroke="midnightblue" d="M101,-112.781C101,-104.781 101,-94.6887 101,-86.0168"/>
<polygon fill="midnightblue" stroke="midnightblue" points="104.5,-85.7305 101,-75.7305 97.5001,-85.7306 104.5,-85.7305"/>
</g>
<!-- Node3 -->
<g id="node3" class="node"><title>Node3</title>
<polygon fill="white" stroke="#bfbfbf" points="-0.5,-0.5 -0.5,-19.5 40.5,-19.5 40.5,-0.5 -0.5,-0.5"/>
<text text-anchor="middle" x="20" y="-7.5" font-family="Helvetica,sans-Serif" font-size="10.00">string</text>
</g>
<!-- Node2&#45;&gt;Node3 -->
<g id="edge2" class="edge"><title>Node2&#45;&gt;Node3</title>
<path fill="none" stroke="midnightblue" d="M87.9859,-56.324C75.4684,-47.979 56.3183,-35.2122 41.5286,-25.3524"/>
<polygon fill="midnightblue" stroke="midnightblue" points="43.2437,-22.2894 32.9818,-19.6545 39.3608,-28.1137 43.2437,-22.2894"/>
</g>
<!-- Node4 -->
<g id="node4" class="node"><title>Node4</title>
<polygon fill="white" stroke="#bfbfbf" points="58.5,-0.5 58.5,-19.5 93.5,-19.5 93.5,-0.5 58.5,-0.5"/>
<text text-anchor="middle" x="76" y="-7.5" font-family="Helvetica,sans-Serif" font-size="10.00">map</text>
</g>
<!-- Node2&#45;&gt;Node4 -->
<g id="edge3" class="edge"><title>Node2&#45;&gt;Node4</title>
<path fill="none" stroke="midnightblue" d="M96.8718,-56.083C93.4861,-48.77 88.584,-38.1814 84.3812,-29.1034"/>
<polygon fill="midnightblue" stroke="midnightblue" points="87.4289,-27.3553 80.0514,-19.7511 81.0766,-30.2962 87.4289,-27.3553"/>
</g>
<!-- Node5 -->
<g id="node5" class="node"><title>Node5</title>
<polygon fill="white" stroke="#bfbfbf" points="112,-0.5 112,-19.5 142,-19.5 142,-0.5 112,-0.5"/>
<text text-anchor="middle" x="127" y="-7.5" font-family="Helvetica,sans-Serif" font-size="10.00">set</text>
</g>
<!-- Node2&#45;&gt;Node5 -->
<g id="edge4" class="edge"><title>Node2&#45;&gt;Node5</title>
<path fill="none" stroke="midnightblue" d="M105.293,-56.083C108.852,-48.6913 114.022,-37.9533 118.424,-28.8111"/>
<polygon fill="midnightblue" stroke="midnightblue" points="121.602,-30.2795 122.787,-19.7511 115.295,-27.2427 121.602,-30.2795"/>
</g>
<!-- Node6 -->
<g id="node6" class="node"><title>Node6</title>
<polygon fill="white" stroke="#bfbfbf" points="160,-0.5 160,-19.5 222,-19.5 222,-0.5 160,-0.5"/>
<text text-anchor="middle" x="191" y="-7.5" font-family="Helvetica,sans-Serif" font-size="10.00">systemc.h</text>
</g>
<!-- Node2&#45;&gt;Node6 -->
<g id="edge5" class="edge"><title>Node2&#45;&gt;Node6</title>
<path fill="none" stroke="midnightblue" d="M115.46,-56.324C129.5,-47.9002 151.048,-34.9709 167.543,-25.0741"/>
<polygon fill="midnightblue" stroke="midnightblue" points="169.802,-27.8007 176.576,-19.6545 166.2,-21.7983 169.802,-27.8007"/>
</g>
</g>
</svg>
