<?xml version="1.0" encoding="UTF-8" standalone="no"?>
<!DOCTYPE svg PUBLIC "-//W3C//DTD SVG 1.1//EN"
 "http://www.w3.org/Graphics/SVG/1.1/DTD/svg11.dtd">
<!-- Generated by graphviz version 2.26.0 (20091210.2329)
 -->
<!-- Title: core/software/grlib_tests/standalone.h Pages: 1 -->
<svg width="1150pt" height="116pt"
 viewBox="0.00 0.00 1150.00 116.00" xmlns="http://www.w3.org/2000/svg" xmlns:xlink="http://www.w3.org/1999/xlink">
<g id="graph1" class="graph" transform="scale(1 1) rotate(0) translate(4 112)">
<title>core/software/grlib_tests/standalone.h</title>
<polygon fill="white" stroke="white" points="-4,5 -4,-112 1147,-112 1147,5 -4,5"/>
<!-- Node1 -->
<g id="node1" class="node"><title>Node1</title>
<polygon fill="#bfbfbf" stroke="black" points="501,-73 501,-107 603,-107 603,-73 501,-73"/>
<text text-anchor="start" x="509" y="-94" font-family="Helvetica,sans-Serif" font-size="10.00">core/software/grlib</text>
<text text-anchor="middle" x="552" y="-81" font-family="Helvetica,sans-Serif" font-size="10.00">_tests/standalone.h</text>
</g>
<!-- Node2 -->
<g id="node3" class="node"><title>Node2</title>
<a xlink:href="gptimer_8c.html" target="_top" xlink:title="core/software/grlib\l_tests/gptimer.c">
<polygon fill="white" stroke="black" points="-0.5,-1 -0.5,-35 96.5,-35 96.5,-1 -0.5,-1"/>
<text text-anchor="start" x="7.5" y="-22" font-family="Helvetica,sans-Serif" font-size="10.00">core/software/grlib</text>
<text text-anchor="middle" x="48" y="-9" font-family="Helvetica,sans-Serif" font-size="10.00">_tests/gptimer.c</text>
</a>
</g>
<!-- Node1&#45;&gt;Node2 -->
<g id="edge2" class="edge"><title>Node1&#45;&gt;Node2</title>
<path fill="none" stroke="midnightblue" d="M490.691,-86.2107C404.003,-80.0369 241.004,-65.4223 105,-36 102.261,-35.4076 99.4665,-34.7398 96.6575,-34.0194"/>
<polygon fill="midnightblue" stroke="midnightblue" points="490.658,-89.7168 500.877,-86.9221 491.146,-82.7338 490.658,-89.7168"/>
</g>
<!-- Node3 -->
<g id="node5" class="node"><title>Node3</title>
<a xlink:href="irqmp_8c.html" target="_top" xlink:title="core/software/grlib\l_tests/irqmp.c">
<polygon fill="white" stroke="black" points="113.5,-1 113.5,-35 210.5,-35 210.5,-1 113.5,-1"/>
<text text-anchor="start" x="121.5" y="-22" font-family="Helvetica,sans-Serif" font-size="10.00">core/software/grlib</text>
<text text-anchor="middle" x="162" y="-9" font-family="Helvetica,sans-Serif" font-size="10.00">_tests/irqmp.c</text>
</a>
</g>
<!-- Node1&#45;&gt;Node3 -->
<g id="edge4" class="edge"><title>Node1&#45;&gt;Node3</title>
<path fill="none" stroke="midnightblue" d="M490.775,-82.7812C423.574,-74.2308 312.763,-58.2828 219,-36 216.274,-35.3522 213.489,-34.6408 210.688,-33.8864"/>
<polygon fill="midnightblue" stroke="midnightblue" points="490.413,-86.2631 500.772,-84.0394 491.287,-79.3179 490.413,-86.2631"/>
</g>
<!-- Node4 -->
<g id="node7" class="node"><title>Node4</title>
<a xlink:href="standalone_8c.html" target="_top" xlink:title="core/software/grlib\l_tests/standalone.c">
<polygon fill="white" stroke="black" points="228,-1 228,-35 330,-35 330,-1 228,-1"/>
<text text-anchor="start" x="236" y="-22" font-family="Helvetica,sans-Serif" font-size="10.00">core/software/grlib</text>
<text text-anchor="middle" x="279" y="-9" font-family="Helvetica,sans-Serif" font-size="10.00">_tests/standalone.c</text>
</a>
</g>
<!-- Node1&#45;&gt;Node4 -->
<g id="edge6" class="edge"><title>Node1&#45;&gt;Node4</title>
<path fill="none" stroke="midnightblue" d="M490.671,-75.1959C448.011,-64.7166 389.889,-50.077 339,-36 336.065,-35.1882 333.054,-34.3386 330.02,-33.4692"/>
<polygon fill="midnightblue" stroke="midnightblue" points="490.075,-78.6534 500.621,-77.6336 491.741,-71.8545 490.075,-78.6534"/>
</g>
<!-- Node5 -->
<g id="node9" class="node"><title>Node5</title>
<a xlink:href="top__cache__test_8c.html" target="_top" xlink:title="core/software/grlib\l_tests/top_cache_test.c">
<polygon fill="white" stroke="black" points="348,-1 348,-35 470,-35 470,-1 348,-1"/>
<text text-anchor="start" x="356" y="-22" font-family="Helvetica,sans-Serif" font-size="10.00">core/software/grlib</text>
<text text-anchor="middle" x="409" y="-9" font-family="Helvetica,sans-Serif" font-size="10.00">_tests/top_cache_test.c</text>
</a>
</g>
<!-- Node1&#45;&gt;Node5 -->
<g id="edge8" class="edge"><title>Node1&#45;&gt;Node5</title>
<path fill="none" stroke="midnightblue" d="M509.039,-68.3694C487.951,-57.7514 462.9,-45.1383 443.141,-35.19"/>
<polygon fill="midnightblue" stroke="midnightblue" points="507.605,-71.566 518.111,-72.937 510.753,-65.3137 507.605,-71.566"/>
</g>
<!-- Node6 -->
<g id="node11" class="node"><title>Node6</title>
<a xlink:href="top__gptimer__test_8c.html" target="_top" xlink:title="core/software/grlib\l_tests/top_gptimer_test.c">
<polygon fill="white" stroke="black" points="488,-1 488,-35 616,-35 616,-1 488,-1"/>
<text text-anchor="start" x="496" y="-22" font-family="Helvetica,sans-Serif" font-size="10.00">core/software/grlib</text>
<text text-anchor="middle" x="552" y="-9" font-family="Helvetica,sans-Serif" font-size="10.00">_tests/top_gptimer_test.c</text>
</a>
</g>
<!-- Node1&#45;&gt;Node6 -->
<g id="edge10" class="edge"><title>Node1&#45;&gt;Node6</title>
<path fill="none" stroke="midnightblue" d="M552,-62.7193C552,-53.572 552,-43.6255 552,-35.4407"/>
<polygon fill="midnightblue" stroke="midnightblue" points="548.5,-62.937 552,-72.937 555.5,-62.937 548.5,-62.937"/>
</g>
<!-- Node7 -->
<g id="node13" class="node"><title>Node7</title>
<a xlink:href="top__irqmp__test_8c.html" target="_top" xlink:title="core/software/grlib\l_tests/top_irqmp_test.c">
<polygon fill="white" stroke="black" points="633.5,-1 633.5,-35 752.5,-35 752.5,-1 633.5,-1"/>
<text text-anchor="start" x="641.5" y="-22" font-family="Helvetica,sans-Serif" font-size="10.00">core/software/grlib</text>
<text text-anchor="middle" x="693" y="-9" font-family="Helvetica,sans-Serif" font-size="10.00">_tests/top_irqmp_test.c</text>
</a>
</g>
<!-- Node1&#45;&gt;Node7 -->
<g id="edge12" class="edge"><title>Node1&#45;&gt;Node7</title>
<path fill="none" stroke="midnightblue" d="M594.36,-68.3694C615.154,-57.7514 639.854,-45.1383 659.336,-35.19"/>
<polygon fill="midnightblue" stroke="midnightblue" points="592.729,-65.2721 585.415,-72.937 595.913,-71.5063 592.729,-65.2721"/>
</g>
<!-- Node8 -->
<g id="node15" class="node"><title>Node8</title>
<a xlink:href="top__mmu__test_8c.html" target="_top" xlink:title="core/software/grlib\l_tests/top_mmu_test.c">
<polygon fill="white" stroke="black" points="769.5,-1 769.5,-35 886.5,-35 886.5,-1 769.5,-1"/>
<text text-anchor="start" x="777.5" y="-22" font-family="Helvetica,sans-Serif" font-size="10.00">core/software/grlib</text>
<text text-anchor="middle" x="828" y="-9" font-family="Helvetica,sans-Serif" font-size="10.00">_tests/top_mmu_test.c</text>
</a>
</g>
<!-- Node1&#45;&gt;Node8 -->
<g id="edge14" class="edge"><title>Node1&#45;&gt;Node8</title>
<path fill="none" stroke="midnightblue" d="M612.877,-74.4355C654.593,-63.7295 711.179,-49.1283 761,-36 763.679,-35.2941 766.417,-34.5698 769.182,-33.836"/>
<polygon fill="midnightblue" stroke="midnightblue" points="611.959,-71.0577 603.142,-76.9325 613.698,-77.8382 611.959,-71.0577"/>
</g>
<!-- Node9 -->
<g id="node17" class="node"><title>Node9</title>
<a xlink:href="top__ram__test_8c.html" target="_top" xlink:title="core/software/grlib\l_tests/top_ram_test.c">
<polygon fill="white" stroke="black" points="904,-1 904,-35 1016,-35 1016,-1 904,-1"/>
<text text-anchor="start" x="912" y="-22" font-family="Helvetica,sans-Serif" font-size="10.00">core/software/grlib</text>
<text text-anchor="middle" x="960" y="-9" font-family="Helvetica,sans-Serif" font-size="10.00">_tests/top_ram_test.c</text>
</a>
</g>
<!-- Node1&#45;&gt;Node9 -->
<g id="edge16" class="edge"><title>Node1&#45;&gt;Node9</title>
<path fill="none" stroke="midnightblue" d="M613.43,-82.4776C682.369,-73.5386 797.349,-57.1357 895,-36 897.861,-35.3807 900.783,-34.7108 903.727,-34.0059"/>
<polygon fill="midnightblue" stroke="midnightblue" points="612.658,-79.048 603.186,-83.7948 613.551,-85.9908 612.658,-79.048"/>
</g>
<!-- Node10 -->
<g id="node19" class="node"><title>Node10</title>
<a xlink:href="top__reg__test_8c.html" target="_top" xlink:title="core/software/grlib\l_tests/top_reg_test.c">
<polygon fill="white" stroke="black" points="1033.5,-1 1033.5,-35 1142.5,-35 1142.5,-1 1033.5,-1"/>
<text text-anchor="start" x="1041.5" y="-22" font-family="Helvetica,sans-Serif" font-size="10.00">core/software/grlib</text>
<text text-anchor="middle" x="1088" y="-9" font-family="Helvetica,sans-Serif" font-size="10.00">_tests/top_reg_test.c</text>
</a>
</g>
<!-- Node1&#45;&gt;Node10 -->
<g id="edge18" class="edge"><title>Node1&#45;&gt;Node10</title>
<path fill="none" stroke="midnightblue" d="M613.273,-86.2397C703.929,-79.9483 878.831,-65.0196 1025,-36 1027.79,-35.4462 1030.63,-34.8289 1033.5,-34.1658"/>
<polygon fill="midnightblue" stroke="midnightblue" points="612.912,-82.7561 603.173,-86.9289 613.388,-89.7398 612.912,-82.7561"/>
</g>
</g>
</svg>
