<?xml version="1.0" encoding="UTF-8" standalone="no"?>
<!DOCTYPE svg PUBLIC "-//W3C//DTD SVG 1.1//EN"
 "http://www.w3.org/Graphics/SVG/1.1/DTD/svg11.dtd">
<!-- Generated by graphviz version 2.38.0 (20140413.2041)
 -->
<!-- Title: core/software/grlib_tests/standalone.h Pages: 1 -->
<svg width="1155pt" height="102pt"
 viewBox="0.00 0.00 1155.27 102.00" xmlns="http://www.w3.org/2000/svg" xmlns:xlink="http://www.w3.org/1999/xlink">
<g id="graph0" class="graph" transform="scale(1 1) rotate(0) translate(4 98)">
<title>core/software/grlib_tests/standalone.h</title>
<polygon fill="white" stroke="none" points="-4,4 -4,-98 1151.27,-98 1151.27,4 -4,4"/>
<!-- Node1 -->
<g id="node1" class="node"><title>Node1</title>
<polygon fill="#bfbfbf" stroke="black" points="503.485,-65.5 503.485,-93.5 606.214,-93.5 606.214,-65.5 503.485,-65.5"/>
<text text-anchor="start" x="511.485" y="-81.5" font-family="Helvetica,sans-Serif" font-size="10.00">core/software/grlib</text>
<text text-anchor="middle" x="554.85" y="-71.5" font-family="Helvetica,sans-Serif" font-size="10.00">_tests/standalone.h</text>
</g>
<!-- Node2 -->
<g id="node2" class="node"><title>Node2</title>
<g id="a_node2"><a xlink:href="gptimer_8c.html" target="_top" xlink:title="core/software/grlib\l_tests/gptimer.c">
<polygon fill="white" stroke="black" points="0,-0.5 0,-28.5 97.6992,-28.5 97.6992,-0.5 0,-0.5"/>
<text text-anchor="start" x="8" y="-16.5" font-family="Helvetica,sans-Serif" font-size="10.00">core/software/grlib</text>
<text text-anchor="middle" x="48.8496" y="-6.5" font-family="Helvetica,sans-Serif" font-size="10.00">_tests/gptimer.c</text>
</a>
</g>
</g>
<!-- Node1&#45;&gt;Node2 -->
<g id="edge1" class="edge"><title>Node1&#45;&gt;Node2</title>
<path fill="none" stroke="midnightblue" d="M492.978,-73.9992C406.248,-67.1606 243.784,-52.4163 106.85,-29 103.894,-28.4946 100.864,-27.9305 97.8144,-27.3275"/>
<polygon fill="midnightblue" stroke="midnightblue" points="492.931,-77.5061 503.173,-74.7941 493.475,-70.5272 492.931,-77.5061"/>
</g>
<!-- Node3 -->
<g id="node3" class="node"><title>Node3</title>
<g id="a_node3"><a xlink:href="irqmp_8c.html" target="_top" xlink:title="core/software/grlib\l_tests/irqmp.c">
<polygon fill="white" stroke="black" points="116,-0.5 116,-28.5 213.699,-28.5 213.699,-0.5 116,-0.5"/>
<text text-anchor="start" x="124" y="-16.5" font-family="Helvetica,sans-Serif" font-size="10.00">core/software/grlib</text>
<text text-anchor="middle" x="164.85" y="-6.5" font-family="Helvetica,sans-Serif" font-size="10.00">_tests/irqmp.c</text>
</a>
</g>
</g>
<!-- Node1&#45;&gt;Node3 -->
<g id="edge2" class="edge"><title>Node1&#45;&gt;Node3</title>
<path fill="none" stroke="midnightblue" d="M493.503,-70.8616C426.684,-62.1909 316.776,-46.903 222.85,-29 219.904,-28.4386 216.882,-27.8312 213.838,-27.1954"/>
<polygon fill="midnightblue" stroke="midnightblue" points="493.08,-74.3358 503.445,-72.1441 493.975,-67.3934 493.08,-74.3358"/>
</g>
<!-- Node4 -->
<g id="node4" class="node"><title>Node4</title>
<g id="a_node4"><a xlink:href="standalone_8c.html" target="_top" xlink:title="core/software/grlib\l_tests/standalone.c">
<polygon fill="white" stroke="black" points="231.766,-0.5 231.766,-28.5 333.933,-28.5 333.933,-0.5 231.766,-0.5"/>
<text text-anchor="start" x="239.766" y="-16.5" font-family="Helvetica,sans-Serif" font-size="10.00">core/software/grlib</text>
<text text-anchor="middle" x="282.85" y="-6.5" font-family="Helvetica,sans-Serif" font-size="10.00">_tests/standalone.c</text>
</a>
</g>
</g>
<!-- Node1&#45;&gt;Node4 -->
<g id="edge3" class="edge"><title>Node1&#45;&gt;Node4</title>
<path fill="none" stroke="midnightblue" d="M493.403,-64.2679C445.358,-53.1399 379.349,-37.8509 334.12,-27.3751"/>
<polygon fill="midnightblue" stroke="midnightblue" points="492.837,-67.7293 503.369,-66.5761 494.416,-60.9099 492.837,-67.7293"/>
</g>
<!-- Node5 -->
<g id="node5" class="node"><title>Node5</title>
<g id="a_node5"><a xlink:href="top__cache__test_8c.html" target="_top" xlink:title="core/software/grlib\l_tests/top_cache_test.c">
<polygon fill="white" stroke="black" points="352.318,-0.5 352.318,-28.5 473.381,-28.5 473.381,-0.5 352.318,-0.5"/>
<text text-anchor="start" x="360.318" y="-16.5" font-family="Helvetica,sans-Serif" font-size="10.00">core/software/grlib</text>
<text text-anchor="middle" x="412.85" y="-6.5" font-family="Helvetica,sans-Serif" font-size="10.00">_tests/top_cache_test.c</text>
</a>
</g>
</g>
<!-- Node1&#45;&gt;Node5 -->
<g id="edge4" class="edge"><title>Node1&#45;&gt;Node5</title>
<path fill="none" stroke="midnightblue" d="M516.166,-61.3374C492.858,-50.9968 463.645,-38.0359 442.234,-28.5369"/>
<polygon fill="midnightblue" stroke="midnightblue" points="514.867,-64.5902 525.427,-65.4464 517.706,-58.1916 514.867,-64.5902"/>
</g>
<!-- Node6 -->
<g id="node6" class="node"><title>Node6</title>
<g id="a_node6"><a xlink:href="top__gptimer__test_8c.html" target="_top" xlink:title="core/software/grlib\l_tests/top_gptimer_test.c">
<polygon fill="white" stroke="black" points="490.988,-0.5 490.988,-28.5 618.711,-28.5 618.711,-0.5 490.988,-0.5"/>
<text text-anchor="start" x="498.988" y="-16.5" font-family="Helvetica,sans-Serif" font-size="10.00">core/software/grlib</text>
<text text-anchor="middle" x="554.85" y="-6.5" font-family="Helvetica,sans-Serif" font-size="10.00">_tests/top_gptimer_test.c</text>
</a>
</g>
</g>
<!-- Node1&#45;&gt;Node6 -->
<g id="edge5" class="edge"><title>Node1&#45;&gt;Node6</title>
<path fill="none" stroke="midnightblue" d="M554.85,-55.1641C554.85,-46.1693 554.85,-36.2205 554.85,-28.5369"/>
<polygon fill="midnightblue" stroke="midnightblue" points="551.35,-55.4463 554.85,-65.4464 558.35,-55.4464 551.35,-55.4463"/>
</g>
<!-- Node7 -->
<g id="node7" class="node"><title>Node7</title>
<g id="a_node7"><a xlink:href="top__irqmp__test_8c.html" target="_top" xlink:title="core/software/grlib\l_tests/top_irqmp_test.c">
<polygon fill="white" stroke="black" points="637.158,-0.5 637.158,-28.5 756.542,-28.5 756.542,-0.5 637.158,-0.5"/>
<text text-anchor="start" x="645.158" y="-16.5" font-family="Helvetica,sans-Serif" font-size="10.00">core/software/grlib</text>
<text text-anchor="middle" x="696.85" y="-6.5" font-family="Helvetica,sans-Serif" font-size="10.00">_tests/top_irqmp_test.c</text>
</a>
</g>
</g>
<!-- Node1&#45;&gt;Node7 -->
<g id="edge6" class="edge"><title>Node1&#45;&gt;Node7</title>
<path fill="none" stroke="midnightblue" d="M593.534,-61.3374C616.841,-50.9968 646.054,-38.0359 667.465,-28.5369"/>
<polygon fill="midnightblue" stroke="midnightblue" points="591.993,-58.1916 584.272,-65.4464 594.832,-64.5902 591.993,-58.1916"/>
</g>
<!-- Node8 -->
<g id="node8" class="node"><title>Node8</title>
<g id="a_node8"><a xlink:href="top__mmu__test_8c.html" target="_top" xlink:title="core/software/grlib\l_tests/top_mmu_test.c">
<polygon fill="white" stroke="black" points="774.549,-0.5 774.549,-28.5 891.15,-28.5 891.15,-0.5 774.549,-0.5"/>
<text text-anchor="start" x="782.549" y="-16.5" font-family="Helvetica,sans-Serif" font-size="10.00">core/software/grlib</text>
<text text-anchor="middle" x="832.85" y="-6.5" font-family="Helvetica,sans-Serif" font-size="10.00">_tests/top_mmu_test.c</text>
</a>
</g>
</g>
<!-- Node1&#45;&gt;Node8 -->
<g id="edge7" class="edge"><title>Node1&#45;&gt;Node8</title>
<path fill="none" stroke="midnightblue" d="M616.323,-64.5689C663.736,-53.8243 728.841,-39.0702 775.252,-28.5527"/>
<polygon fill="midnightblue" stroke="midnightblue" points="615.467,-61.1742 606.488,-66.7978 617.014,-68.0011 615.467,-61.1742"/>
</g>
<!-- Node9 -->
<g id="node9" class="node"><title>Node9</title>
<g id="a_node9"><a xlink:href="top__ram__test_8c.html" target="_top" xlink:title="core/software/grlib\l_tests/top_ram_test.c">
<polygon fill="white" stroke="black" points="909.049,-0.5 909.049,-28.5 1020.65,-28.5 1020.65,-0.5 909.049,-0.5"/>
<text text-anchor="start" x="917.049" y="-16.5" font-family="Helvetica,sans-Serif" font-size="10.00">core/software/grlib</text>
<text text-anchor="middle" x="964.85" y="-6.5" font-family="Helvetica,sans-Serif" font-size="10.00">_tests/top_ram_test.c</text>
</a>
</g>
</g>
<!-- Node1&#45;&gt;Node9 -->
<g id="edge8" class="edge"><title>Node1&#45;&gt;Node9</title>
<path fill="none" stroke="midnightblue" d="M616.727,-70.8027C685.915,-61.9218 801.211,-46.3023 899.85,-29 902.801,-28.4823 905.824,-27.9304 908.872,-27.3568"/>
<polygon fill="midnightblue" stroke="midnightblue" points="615.921,-67.3772 606.445,-72.1165 616.808,-74.3208 615.921,-67.3772"/>
</g>
<!-- Node10 -->
<g id="node10" class="node"><title>Node10</title>
<g id="a_node10"><a xlink:href="top__reg__test_8c.html" target="_top" xlink:title="core/software/grlib\l_tests/top_reg_test.c">
<polygon fill="white" stroke="black" points="1038.43,-0.5 1038.43,-28.5 1147.27,-28.5 1147.27,-0.5 1038.43,-0.5"/>
<text text-anchor="start" x="1046.43" y="-16.5" font-family="Helvetica,sans-Serif" font-size="10.00">core/software/grlib</text>
<text text-anchor="middle" x="1092.85" y="-6.5" font-family="Helvetica,sans-Serif" font-size="10.00">_tests/top_reg_test.c</text>
</a>
</g>
</g>
<!-- Node1&#45;&gt;Node10 -->
<g id="edge9" class="edge"><title>Node1&#45;&gt;Node10</title>
<path fill="none" stroke="midnightblue" d="M616.521,-74.1971C707.383,-67.3778 882.405,-52.4111 1029.85,-29 1032.61,-28.5615 1035.43,-28.0799 1038.28,-27.5677"/>
<polygon fill="midnightblue" stroke="midnightblue" points="616.111,-70.7179 606.397,-74.9493 616.629,-77.6987 616.111,-70.7179"/>
</g>
</g>
</svg>
