<?xml version="1.0" encoding="UTF-8" standalone="no"?>
<!DOCTYPE svg PUBLIC "-//W3C//DTD SVG 1.1//EN"
 "http://www.w3.org/Graphics/SVG/1.1/DTD/svg11.dtd">
<!-- Generated by graphviz version 2.38.0 (20140413.2041)
 -->
<!-- Title: core/software/grlib_tests/standalone.h Pages: 1 -->
<svg width="1156pt" height="106pt"
 viewBox="0.00 0.00 1156.00 106.00" xmlns="http://www.w3.org/2000/svg" xmlns:xlink="http://www.w3.org/1999/xlink">
<g id="graph0" class="graph" transform="scale(1 1) rotate(0) translate(4 102)">
<title>core/software/grlib_tests/standalone.h</title>
<polygon fill="white" stroke="none" points="-4,4 -4,-102 1152,-102 1152,4 -4,4"/>
<!-- Node1 -->
<g id="node1" class="node"><title>Node1</title>
<polygon fill="#bfbfbf" stroke="black" points="502.5,-67.5 502.5,-97.5 604.5,-97.5 604.5,-67.5 502.5,-67.5"/>
<text text-anchor="start" x="510.5" y="-85.5" font-family="Helvetica,sans-Serif" font-size="10.00">core/software/grlib</text>
<text text-anchor="middle" x="553.5" y="-74.5" font-family="Helvetica,sans-Serif" font-size="10.00">_tests/standalone.h</text>
</g>
<!-- Node2 -->
<g id="node2" class="node"><title>Node2</title>
<g id="a_node2"><a xlink:href="gptimer_8c.html" target="_top" xlink:title="core/software/grlib\l_tests/gptimer.c">
<polygon fill="white" stroke="black" points="0,-0.5 0,-30.5 97,-30.5 97,-0.5 0,-0.5"/>
<text text-anchor="start" x="8" y="-18.5" font-family="Helvetica,sans-Serif" font-size="10.00">core/software/grlib</text>
<text text-anchor="middle" x="48.5" y="-7.5" font-family="Helvetica,sans-Serif" font-size="10.00">_tests/gptimer.c</text>
</a>
</g>
</g>
<!-- Node1&#45;&gt;Node2 -->
<g id="edge1" class="edge"><title>Node1&#45;&gt;Node2</title>
<path fill="none" stroke="midnightblue" d="M492.264,-77.2663C405.632,-70.6728 242.564,-56.0372 105.5,-31 102.788,-30.5046 100.014,-29.9524 97.2211,-29.3609"/>
<polygon fill="midnightblue" stroke="midnightblue" points="492.209,-80.772 502.443,-78.0307 492.733,-73.7916 492.209,-80.772"/>
</g>
<!-- Node3 -->
<g id="node3" class="node"><title>Node3</title>
<g id="a_node3"><a xlink:href="irqmp_8c.html" target="_top" xlink:title="core/software/grlib\l_tests/irqmp.c">
<polygon fill="white" stroke="black" points="115,-0.5 115,-30.5 212,-30.5 212,-0.5 115,-0.5"/>
<text text-anchor="start" x="123" y="-18.5" font-family="Helvetica,sans-Serif" font-size="10.00">core/software/grlib</text>
<text text-anchor="middle" x="163.5" y="-7.5" font-family="Helvetica,sans-Serif" font-size="10.00">_tests/irqmp.c</text>
</a>
</g>
</g>
<!-- Node1&#45;&gt;Node3 -->
<g id="edge2" class="edge"><title>Node1&#45;&gt;Node3</title>
<path fill="none" stroke="midnightblue" d="M492.483,-74.0826C425.461,-65.5089 314.806,-50.0974 220.5,-31 217.798,-30.4528 215.032,-29.8597 212.245,-29.2366"/>
<polygon fill="midnightblue" stroke="midnightblue" points="492.09,-77.5607 502.452,-75.3484 492.972,-70.6165 492.09,-77.5607"/>
</g>
<!-- Node4 -->
<g id="node4" class="node"><title>Node4</title>
<g id="a_node4"><a xlink:href="standalone_8c.html" target="_top" xlink:title="core/software/grlib\l_tests/standalone.c">
<polygon fill="white" stroke="black" points="229.5,-0.5 229.5,-30.5 331.5,-30.5 331.5,-0.5 229.5,-0.5"/>
<text text-anchor="start" x="237.5" y="-18.5" font-family="Helvetica,sans-Serif" font-size="10.00">core/software/grlib</text>
<text text-anchor="middle" x="280.5" y="-7.5" font-family="Helvetica,sans-Serif" font-size="10.00">_tests/standalone.c</text>
</a>
</g>
</g>
<!-- Node1&#45;&gt;Node4 -->
<g id="edge3" class="edge"><title>Node1&#45;&gt;Node4</title>
<path fill="none" stroke="midnightblue" d="M492.339,-67.0734C449.755,-57.0107 391.654,-43.2452 340.5,-31 337.582,-30.3015 334.584,-29.5823 331.559,-28.8553"/>
<polygon fill="midnightblue" stroke="midnightblue" points="491.733,-70.5265 502.27,-69.4195 493.342,-63.714 491.733,-70.5265"/>
</g>
<!-- Node5 -->
<g id="node5" class="node"><title>Node5</title>
<g id="a_node5"><a xlink:href="top__cache__test_8c.html" target="_top" xlink:title="core/software/grlib\l_tests/top_cache_test.c">
<polygon fill="white" stroke="black" points="349.5,-0.5 349.5,-30.5 471.5,-30.5 471.5,-0.5 349.5,-0.5"/>
<text text-anchor="start" x="357.5" y="-18.5" font-family="Helvetica,sans-Serif" font-size="10.00">core/software/grlib</text>
<text text-anchor="middle" x="410.5" y="-7.5" font-family="Helvetica,sans-Serif" font-size="10.00">_tests/top_cache_test.c</text>
</a>
</g>
</g>
<!-- Node1&#45;&gt;Node5 -->
<g id="edge4" class="edge"><title>Node1&#45;&gt;Node5</title>
<path fill="none" stroke="midnightblue" d="M513.087,-63.1305C490.365,-52.8025 462.443,-40.1103 441.468,-30.5765"/>
<polygon fill="midnightblue" stroke="midnightblue" points="511.919,-66.4442 522.471,-67.396 514.816,-60.0716 511.919,-66.4442"/>
</g>
<!-- Node6 -->
<g id="node6" class="node"><title>Node6</title>
<g id="a_node6"><a xlink:href="top__gptimer__test_8c.html" target="_top" xlink:title="core/software/grlib\l_tests/top_gptimer_test.c">
<polygon fill="white" stroke="black" points="489.5,-0.5 489.5,-30.5 617.5,-30.5 617.5,-0.5 489.5,-0.5"/>
<text text-anchor="start" x="497.5" y="-18.5" font-family="Helvetica,sans-Serif" font-size="10.00">core/software/grlib</text>
<text text-anchor="middle" x="553.5" y="-7.5" font-family="Helvetica,sans-Serif" font-size="10.00">_tests/top_gptimer_test.c</text>
</a>
</g>
</g>
<!-- Node1&#45;&gt;Node6 -->
<g id="edge5" class="edge"><title>Node1&#45;&gt;Node6</title>
<path fill="none" stroke="midnightblue" d="M553.5,-57.1081C553.5,-48.1539 553.5,-38.3227 553.5,-30.5765"/>
<polygon fill="midnightblue" stroke="midnightblue" points="550,-57.3959 553.5,-67.396 557,-57.396 550,-57.3959"/>
</g>
<!-- Node7 -->
<g id="node7" class="node"><title>Node7</title>
<g id="a_node7"><a xlink:href="top__irqmp__test_8c.html" target="_top" xlink:title="core/software/grlib\l_tests/top_irqmp_test.c">
<polygon fill="white" stroke="black" points="636,-0.5 636,-30.5 755,-30.5 755,-0.5 636,-0.5"/>
<text text-anchor="start" x="644" y="-18.5" font-family="Helvetica,sans-Serif" font-size="10.00">core/software/grlib</text>
<text text-anchor="middle" x="695.5" y="-7.5" font-family="Helvetica,sans-Serif" font-size="10.00">_tests/top_irqmp_test.c</text>
</a>
</g>
</g>
<!-- Node1&#45;&gt;Node7 -->
<g id="edge6" class="edge"><title>Node1&#45;&gt;Node7</title>
<path fill="none" stroke="midnightblue" d="M593.63,-63.1305C616.193,-52.8025 643.921,-40.1103 664.748,-30.5765"/>
<polygon fill="midnightblue" stroke="midnightblue" points="591.948,-60.0513 584.312,-67.396 594.861,-66.4162 591.948,-60.0513"/>
</g>
<!-- Node8 -->
<g id="node8" class="node"><title>Node8</title>
<g id="a_node8"><a xlink:href="top__mmu__test_8c.html" target="_top" xlink:title="core/software/grlib\l_tests/top_mmu_test.c">
<polygon fill="white" stroke="black" points="773,-0.5 773,-30.5 890,-30.5 890,-0.5 773,-0.5"/>
<text text-anchor="start" x="781" y="-18.5" font-family="Helvetica,sans-Serif" font-size="10.00">core/software/grlib</text>
<text text-anchor="middle" x="831.5" y="-7.5" font-family="Helvetica,sans-Serif" font-size="10.00">_tests/top_mmu_test.c</text>
</a>
</g>
</g>
<!-- Node1&#45;&gt;Node8 -->
<g id="edge7" class="edge"><title>Node1&#45;&gt;Node8</title>
<path fill="none" stroke="midnightblue" d="M614.577,-67.2195C661.643,-56.2147 726.319,-41.0927 772.783,-30.2288"/>
<polygon fill="midnightblue" stroke="midnightblue" points="613.754,-63.8174 604.813,-69.5022 615.348,-70.6335 613.754,-63.8174"/>
</g>
<!-- Node9 -->
<g id="node9" class="node"><title>Node9</title>
<g id="a_node9"><a xlink:href="top__ram__test_8c.html" target="_top" xlink:title="core/software/grlib\l_tests/top_ram_test.c">
<polygon fill="white" stroke="black" points="908.5,-0.5 908.5,-30.5 1020.5,-30.5 1020.5,-0.5 908.5,-0.5"/>
<text text-anchor="start" x="916.5" y="-18.5" font-family="Helvetica,sans-Serif" font-size="10.00">core/software/grlib</text>
<text text-anchor="middle" x="964.5" y="-7.5" font-family="Helvetica,sans-Serif" font-size="10.00">_tests/top_ram_test.c</text>
</a>
</g>
</g>
<!-- Node1&#45;&gt;Node9 -->
<g id="edge8" class="edge"><title>Node1&#45;&gt;Node9</title>
<path fill="none" stroke="midnightblue" d="M615.003,-73.9311C684.363,-65.0689 800.409,-49.2576 899.5,-31 902.343,-30.4762 905.25,-29.9165 908.182,-29.3328"/>
<polygon fill="midnightblue" stroke="midnightblue" points="614.178,-70.5077 604.699,-75.2403 615.061,-77.4518 614.178,-70.5077"/>
</g>
<!-- Node10 -->
<g id="node10" class="node"><title>Node10</title>
<g id="a_node10"><a xlink:href="top__reg__test_8c.html" target="_top" xlink:title="core/software/grlib\l_tests/top_reg_test.c">
<polygon fill="white" stroke="black" points="1039,-0.5 1039,-30.5 1148,-30.5 1148,-0.5 1039,-0.5"/>
<text text-anchor="start" x="1047" y="-18.5" font-family="Helvetica,sans-Serif" font-size="10.00">core/software/grlib</text>
<text text-anchor="middle" x="1093.5" y="-7.5" font-family="Helvetica,sans-Serif" font-size="10.00">_tests/top_reg_test.c</text>
</a>
</g>
</g>
<!-- Node1&#45;&gt;Node10 -->
<g id="edge9" class="edge"><title>Node1&#45;&gt;Node10</title>
<path fill="none" stroke="midnightblue" d="M614.972,-77.2912C705.965,-70.5392 881.681,-55.4998 1029.5,-31 1032.53,-30.497 1035.64,-29.9389 1038.77,-29.3427"/>
<polygon fill="midnightblue" stroke="midnightblue" points="614.552,-73.8125 604.835,-78.035 615.065,-80.7937 614.552,-73.8125"/>
</g>
</g>
</svg>
