<?xml version="1.0" encoding="UTF-8" standalone="no"?>
<!DOCTYPE svg PUBLIC "-//W3C//DTD SVG 1.1//EN"
 "http://www.w3.org/Graphics/SVG/1.1/DTD/svg11.dtd">
<!-- Generated by graphviz version 2.38.0 (20140413.2041)
 -->
<!-- Title: gaisler/memory/storage.h Pages: 1 -->
<!--zoomable 319 -->
<svg id="main" version="1.1" xmlns="http://www.w3.org/2000/svg" xmlns:xlink="http://www.w3.org/1999/xlink" xml:space="preserve" onload="init(evt)">
<style type="text/css"><![CDATA[
.edge:hover path { stroke: red; }
.edge:hover polygon { stroke: red; fill: red; }
]]></style>
<script type="text/javascript"><![CDATA[
var edges = document.getElementsByTagName('g');
if (edges && edges.length) {
  for (var i=0;i<edges.length;i++) {
    if (edges[i].id.substr(0,4)=='edge') {
      edges[i].setAttribute('class','edge');
    }
  }
}
]]></script>
        <defs>
                <circle id="rim" cx="0" cy="0" r="7"/>
                <circle id="rim2" cx="0" cy="0" r="3.5"/>
                <g id="zoomPlus">
                        <use xlink:href="#rim" fill="#404040">
                                <set attributeName="fill" to="#808080" begin="zoomplus.mouseover" end="zoomplus.mouseout"/>
                        </use>
                        <path d="M-4,0h8M0,-4v8" fill="none" stroke="white" stroke-width="1.5" pointer-events="none"/>
                </g>
                <g id="zoomMin">
                        <use xlink:href="#rim" fill="#404040">
                                <set attributeName="fill" to="#808080" begin="zoomminus.mouseover" end="zoomminus.mouseout"/>
                        </use>
                        <path d="M-4,0h8" fill="none" stroke="white" stroke-width="1.5" pointer-events="none"/>
                </g>
                <g id="dirArrow">
                        <path fill="none" stroke="white" stroke-width="1.5" d="M0,-3.0v7 M-2.5,-0.5L0,-3.0L2.5,-0.5"/>
                </g>
               <g id="resetDef">
                       <use xlink:href="#rim2" fill="#404040">
                               <set attributeName="fill" to="#808080" begin="reset.mouseover" end="reset.mouseout"/>
                       </use>
               </g>
        </defs>

<script type="text/javascript">
var viewWidth = 632;
var viewHeight = 319;
var sectionId = 'dynsection-1';
</script>
<script xlink:href="svgpan.js"/>
<svg id="graph" class="graph">
<g id="viewport">
<title>gaisler/memory/storage.h</title>
<polygon fill="white" stroke="none" points="-4,4 -4,-315 628,-315 628,4 -4,4"/>
<!-- Node1 -->
<g id="node1" class="node"><title>Node1</title>
<polygon fill="#bfbfbf" stroke="black" points="310.5,-291.5 310.5,-310.5 437.5,-310.5 437.5,-291.5 310.5,-291.5"/>
<text text-anchor="middle" x="374" y="-298.5" font-family="Helvetica,sans-Serif" font-size="10.00">gaisler/memory/storage.h</text>
</g>
<!-- Node2 -->
<g id="node2" class="node"><title>Node2</title>
<g id="a_node2"><a xlink:href="arraystorage_8h.html" target="_top" xlink:title="gaisler/memory/arraystorage.h">
<polygon fill="white" stroke="black" points="197.5,-235.5 197.5,-254.5 346.5,-254.5 346.5,-235.5 197.5,-235.5"/>
<text text-anchor="middle" x="272" y="-242.5" font-family="Helvetica,sans-Serif" font-size="10.00">gaisler/memory/arraystorage.h</text>
</a>
</g>
</g>
<!-- Node1&#45;&gt;Node2 -->
<g id="edge1" class="edge"><title>Node1&#45;&gt;Node2</title>
<path fill="none" stroke="midnightblue" d="M348.669,-286.59C329.81,-276.605 304.616,-263.267 288.347,-254.655"/>
<polygon fill="midnightblue" stroke="midnightblue" points="347.136,-289.738 357.612,-291.324 350.412,-283.552 347.136,-289.738"/>
</g>
<!-- Node3 -->
<g id="node3" class="node"><title>Node3</title>
<g id="a_node3"><a xlink:href="basememory_8h.html" target="_top" xlink:title="gaisler/memory/basememory.h">
<polygon fill="white" stroke="black" points="298.5,-179.5 298.5,-198.5 449.5,-198.5 449.5,-179.5 298.5,-179.5"/>
<text text-anchor="middle" x="374" y="-186.5" font-family="Helvetica,sans-Serif" font-size="10.00">gaisler/memory/basememory.h</text>
</a>
</g>
</g>
<!-- Node1&#45;&gt;Node3 -->
<g id="edge16" class="edge"><title>Node1&#45;&gt;Node3</title>
<path fill="none" stroke="midnightblue" d="M374,-281.348C374,-257.254 374,-216.308 374,-198.591"/>
<polygon fill="midnightblue" stroke="midnightblue" points="370.5,-281.368 374,-291.368 377.5,-281.369 370.5,-281.368"/>
</g>
<!-- Node13 -->
<g id="node13" class="node"><title>Node13</title>
<g id="a_node13"><a xlink:href="mapstorage_8h.html" target="_top" xlink:title="gaisler/memory/mapstorage.h">
<polygon fill="white" stroke="black" points="402,-235.5 402,-254.5 548,-254.5 548,-235.5 402,-235.5"/>
<text text-anchor="middle" x="475" y="-242.5" font-family="Helvetica,sans-Serif" font-size="10.00">gaisler/memory/mapstorage.h</text>
</a>
</g>
</g>
<!-- Node1&#45;&gt;Node13 -->
<g id="edge13" class="edge"><title>Node1&#45;&gt;Node13</title>
<path fill="none" stroke="midnightblue" d="M399.083,-286.59C417.757,-276.605 442.704,-263.267 458.813,-254.655"/>
<polygon fill="midnightblue" stroke="midnightblue" points="397.396,-283.522 390.227,-291.324 400.696,-289.696 397.396,-283.522"/>
</g>
<!-- Node2&#45;&gt;Node3 -->
<g id="edge2" class="edge"><title>Node2&#45;&gt;Node3</title>
<path fill="none" stroke="midnightblue" d="M297.331,-230.59C316.19,-220.605 341.384,-207.267 357.653,-198.655"/>
<polygon fill="midnightblue" stroke="midnightblue" points="295.588,-227.552 288.388,-235.324 298.864,-233.738 295.588,-227.552"/>
</g>
<!-- Node12 -->
<g id="node12" class="node"><title>Node12</title>
<g id="a_node12"><a xlink:href="arraystorage_8cpp.html" target="_top" xlink:title="gaisler/memory/arraystorage.cpp">
<polygon fill="white" stroke="black" points="121.5,-179.5 121.5,-198.5 280.5,-198.5 280.5,-179.5 121.5,-179.5"/>
<text text-anchor="middle" x="201" y="-186.5" font-family="Helvetica,sans-Serif" font-size="10.00">gaisler/memory/arraystorage.cpp</text>
</a>
</g>
</g>
<!-- Node2&#45;&gt;Node12 -->
<g id="edge12" class="edge"><title>Node2&#45;&gt;Node12</title>
<path fill="none" stroke="midnightblue" d="M252.41,-229.101C239.632,-219.382 223.387,-207.027 212.615,-198.834"/>
<polygon fill="midnightblue" stroke="midnightblue" points="250.514,-232.056 260.593,-235.324 254.752,-226.484 250.514,-232.056"/>
</g>
<!-- Node4 -->
<g id="node4" class="node"><title>Node4</title>
<g id="a_node4"><a xlink:href="memorypower_8h.html" target="_top" xlink:title="gaisler/memory/memorypower.h">
<polygon fill="white" stroke="black" points="133,-123.5 133,-142.5 289,-142.5 289,-123.5 133,-123.5"/>
<text text-anchor="middle" x="211" y="-130.5" font-family="Helvetica,sans-Serif" font-size="10.00">gaisler/memory/memorypower.h</text>
</a>
</g>
</g>
<!-- Node3&#45;&gt;Node4 -->
<g id="edge3" class="edge"><title>Node3&#45;&gt;Node4</title>
<path fill="none" stroke="midnightblue" d="M338.297,-176.172C307.604,-166.004 264.081,-151.585 236.707,-142.516"/>
<polygon fill="midnightblue" stroke="midnightblue" points="337.579,-179.621 348.172,-179.444 339.78,-172.976 337.579,-179.621"/>
</g>
<!-- Node9 -->
<g id="node9" class="node"><title>Node9</title>
<g id="a_node9"><a xlink:href="ahbmem_8h.html" target="_top" xlink:title="gaisler/ahbmem/ahbmem.h">
<polygon fill="white" stroke="black" points="307,-123.5 307,-142.5 441,-142.5 441,-123.5 307,-123.5"/>
<text text-anchor="middle" x="374" y="-130.5" font-family="Helvetica,sans-Serif" font-size="10.00">gaisler/ahbmem/ahbmem.h</text>
</a>
</g>
</g>
<!-- Node3&#45;&gt;Node9 -->
<g id="edge8" class="edge"><title>Node3&#45;&gt;Node9</title>
<path fill="none" stroke="midnightblue" d="M374,-168.805C374,-159.91 374,-149.78 374,-142.751"/>
<polygon fill="midnightblue" stroke="midnightblue" points="370.5,-169.083 374,-179.083 377.5,-169.083 370.5,-169.083"/>
</g>
<!-- Node11 -->
<g id="node11" class="node"><title>Node11</title>
<g id="a_node11"><a xlink:href="basememory_8cpp.html" target="_top" xlink:title="gaisler/memory/basememory.cpp">
<polygon fill="white" stroke="black" points="459.5,-123.5 459.5,-142.5 620.5,-142.5 620.5,-123.5 459.5,-123.5"/>
<text text-anchor="middle" x="540" y="-130.5" font-family="Helvetica,sans-Serif" font-size="10.00">gaisler/memory/basememory.cpp</text>
</a>
</g>
</g>
<!-- Node3&#45;&gt;Node11 -->
<g id="edge11" class="edge"><title>Node3&#45;&gt;Node11</title>
<path fill="none" stroke="midnightblue" d="M409.953,-176.304C441.232,-166.129 485.821,-151.625 513.82,-142.516"/>
<polygon fill="midnightblue" stroke="midnightblue" points="408.73,-173.022 400.303,-179.444 410.895,-179.678 408.73,-173.022"/>
</g>
<!-- Node5 -->
<g id="node5" class="node"><title>Node5</title>
<g id="a_node5"><a xlink:href="memory_8h.html" target="_top" xlink:title="gaisler/memory/memory.h">
<polygon fill="white" stroke="black" points="5,-67.5 5,-86.5 135,-86.5 135,-67.5 5,-67.5"/>
<text text-anchor="middle" x="70" y="-74.5" font-family="Helvetica,sans-Serif" font-size="10.00">gaisler/memory/memory.h</text>
</a>
</g>
</g>
<!-- Node4&#45;&gt;Node5 -->
<g id="edge4" class="edge"><title>Node4&#45;&gt;Node5</title>
<path fill="none" stroke="midnightblue" d="M179.071,-119.772C152.586,-109.629 115.608,-95.4669 92.2373,-86.5164"/>
<polygon fill="midnightblue" stroke="midnightblue" points="178.068,-123.136 188.658,-123.444 180.571,-116.599 178.068,-123.136"/>
</g>
<!-- Node8 -->
<g id="node8" class="node"><title>Node8</title>
<g id="a_node8"><a xlink:href="memorypower_8cpp.html" target="_top" xlink:title="gaisler/memory/memorypower.cpp">
<polygon fill="white" stroke="black" points="153.5,-67.5 153.5,-86.5 320.5,-86.5 320.5,-67.5 153.5,-67.5"/>
<text text-anchor="middle" x="237" y="-74.5" font-family="Helvetica,sans-Serif" font-size="10.00">gaisler/memory/memorypower.cpp</text>
</a>
</g>
</g>
<!-- Node4&#45;&gt;Node8 -->
<g id="edge7" class="edge"><title>Node4&#45;&gt;Node8</title>
<path fill="none" stroke="midnightblue" d="M219.675,-113.983C224.088,-104.817 229.252,-94.0922 232.787,-86.7511"/>
<polygon fill="midnightblue" stroke="midnightblue" points="216.478,-112.555 215.293,-123.083 222.785,-115.591 216.478,-112.555"/>
</g>
<!-- Node6 -->
<g id="node6" class="node"><title>Node6</title>
<g id="a_node6"><a xlink:href="sc__main_8cpp.html" target="_top" xlink:title="core/platforms/leon3mp\l/sc_main.cpp">
<polygon fill="white" stroke="black" points="223.5,-0.5 223.5,-30.5 342.5,-30.5 342.5,-0.5 223.5,-0.5"/>
<text text-anchor="start" x="231.5" y="-18.5" font-family="Helvetica,sans-Serif" font-size="10.00">core/platforms/leon3mp</text>
<text text-anchor="middle" x="283" y="-7.5" font-family="Helvetica,sans-Serif" font-size="10.00">/sc_main.cpp</text>
</a>
</g>
</g>
<!-- Node5&#45;&gt;Node6 -->
<g id="edge5" class="edge"><title>Node5&#45;&gt;Node6</title>
<path fill="none" stroke="midnightblue" d="M110.329,-64.7343C145.093,-55.0234 195.435,-40.9607 232.8,-30.523"/>
<polygon fill="midnightblue" stroke="midnightblue" points="109.207,-61.4137 100.518,-67.4751 111.091,-68.1556 109.207,-61.4137"/>
</g>
<!-- Node7 -->
<g id="node7" class="node"><title>Node7</title>
<g id="a_node7"><a xlink:href="memory_2memory_8cpp.html" target="_top" xlink:title="gaisler/memory/memory.cpp">
<polygon fill="white" stroke="black" points="0,-6 0,-25 140,-25 140,-6 0,-6"/>
<text text-anchor="middle" x="70" y="-13" font-family="Helvetica,sans-Serif" font-size="10.00">gaisler/memory/memory.cpp</text>
</a>
</g>
</g>
<!-- Node5&#45;&gt;Node7 -->
<g id="edge6" class="edge"><title>Node5&#45;&gt;Node7</title>
<path fill="none" stroke="midnightblue" d="M70,-57.3165C70,-46.4962 70,-33.398 70,-25.0091"/>
<polygon fill="midnightblue" stroke="midnightblue" points="66.5001,-57.4751 70,-67.4751 73.5001,-57.4751 66.5001,-57.4751"/>
</g>
<!-- Node9&#45;&gt;Node6 -->
<g id="edge9" class="edge"><title>Node9&#45;&gt;Node6</title>
<path fill="none" stroke="midnightblue" d="M362.917,-114.676C354.156,-101.317 341.379,-82.5556 329,-67 318.809,-54.1941 306.238,-40.5199 296.815,-30.6347"/>
<polygon fill="midnightblue" stroke="midnightblue" points="360.148,-116.839 368.524,-123.326 366.022,-113.031 360.148,-116.839"/>
</g>
<!-- Node10 -->
<g id="node10" class="node"><title>Node10</title>
<g id="a_node10"><a xlink:href="ahbmem_8cpp.html" target="_top" xlink:title="gaisler/ahbmem/ahbmem.cpp">
<polygon fill="white" stroke="black" points="376.5,-67.5 376.5,-86.5 521.5,-86.5 521.5,-67.5 376.5,-67.5"/>
<text text-anchor="middle" x="449" y="-74.5" font-family="Helvetica,sans-Serif" font-size="10.00">gaisler/ahbmem/ahbmem.cpp</text>
</a>
</g>
</g>
<!-- Node9&#45;&gt;Node10 -->
<g id="edge10" class="edge"><title>Node9&#45;&gt;Node10</title>
<path fill="none" stroke="midnightblue" d="M394.305,-117.38C407.861,-107.62 425.242,-95.1057 436.731,-86.8339"/>
<polygon fill="midnightblue" stroke="midnightblue" points="392.12,-114.641 386.05,-123.324 396.21,-120.321 392.12,-114.641"/>
</g>
<!-- Node13&#45;&gt;Node3 -->
<g id="edge14" class="edge"><title>Node13&#45;&gt;Node3</title>
<path fill="none" stroke="midnightblue" d="M449.917,-230.59C431.243,-220.605 406.296,-207.267 390.187,-198.655"/>
<polygon fill="midnightblue" stroke="midnightblue" points="448.304,-233.696 458.773,-235.324 451.604,-227.522 448.304,-233.696"/>
</g>
<!-- Node14 -->
<g id="node14" class="node"><title>Node14</title>
<g id="a_node14"><a xlink:href="mapstorage_8cpp.html" target="_top" xlink:title="gaisler/memory/mapstorage.cpp">
<polygon fill="white" stroke="black" points="468,-179.5 468,-198.5 624,-198.5 624,-179.5 468,-179.5"/>
<text text-anchor="middle" x="546" y="-186.5" font-family="Helvetica,sans-Serif" font-size="10.00">gaisler/memory/mapstorage.cpp</text>
</a>
</g>
</g>
<!-- Node13&#45;&gt;Node14 -->
<g id="edge15" class="edge"><title>Node13&#45;&gt;Node14</title>
<path fill="none" stroke="midnightblue" d="M494.59,-229.101C507.368,-219.382 523.613,-207.027 534.385,-198.834"/>
<polygon fill="midnightblue" stroke="midnightblue" points="492.248,-226.484 486.407,-235.324 496.486,-232.056 492.248,-226.484"/>
</g>
</g>
</svg>
        <g id="navigator" transform="translate(0 0)" fill="#404254">
                <rect fill="#f2f5e9" fill-opacity="0.5" stroke="#606060" stroke-width=".5" x="0" y="0" width="60" height="60"/>
                <use id="zoomplus" xlink:href="#zoomPlus" x="17" y="9" onmousedown="handleZoom(evt,'in')"/>
                <use id="zoomminus" xlink:href="#zoomMin" x="42" y="9" onmousedown="handleZoom(evt,'out')"/>
                <use id="reset" xlink:href="#resetDef" x="30" y="36" onmousedown="handleReset()"/>
                <g id="arrowUp" xlink:href="#dirArrow" transform="translate(30 24)" onmousedown="handlePan(0,-1)">
                  <use xlink:href="#rim" fill="#404040">
                        <set attributeName="fill" to="#808080" begin="arrowUp.mouseover" end="arrowUp.mouseout"/>
                  </use>
                  <path fill="none" stroke="white" stroke-width="1.5" d="M0,-3.0v7 M-2.5,-0.5L0,-3.0L2.5,-0.5"/>
                </g>
                <g id="arrowRight" xlink:href="#dirArrow" transform="rotate(90) translate(36 -43)" onmousedown="handlePan(1,0)">
                  <use xlink:href="#rim" fill="#404040">
                        <set attributeName="fill" to="#808080" begin="arrowRight.mouseover" end="arrowRight.mouseout"/>
                  </use>
                  <path fill="none" stroke="white" stroke-width="1.5" d="M0,-3.0v7 M-2.5,-0.5L0,-3.0L2.5,-0.5"/>
                </g>
                <g id="arrowDown" xlink:href="#dirArrow" transform="rotate(180) translate(-30 -48)" onmousedown="handlePan(0,1)">
                  <use xlink:href="#rim" fill="#404040">
                        <set attributeName="fill" to="#808080" begin="arrowDown.mouseover" end="arrowDown.mouseout"/>
                  </use>
                  <path fill="none" stroke="white" stroke-width="1.5" d="M0,-3.0v7 M-2.5,-0.5L0,-3.0L2.5,-0.5"/>
                </g>
                <g id="arrowLeft" xlink:href="#dirArrow" transform="rotate(270) translate(-36 17)" onmousedown="handlePan(-1,0)">
                  <use xlink:href="#rim" fill="#404040">
                        <set attributeName="fill" to="#808080" begin="arrowLeft.mouseover" end="arrowLeft.mouseout"/>
                  </use>
                  <path fill="none" stroke="white" stroke-width="1.5" d="M0,-3.0v7 M-2.5,-0.5L0,-3.0L2.5,-0.5"/>
                </g>
        </g>
        <svg viewBox="0 0 15 15" width="100%" height="30px" preserveAspectRatio="xMaxYMin meet">
         <g id="arrow_out" transform="scale(0.3 0.3)">
          <a xlink:href="storage_8h__dep__incl_org.svg" target="_base">
           <rect id="button" ry="5" rx="5" y="6" x="6" height="38" width="38"
                fill="#f2f5e9" fill-opacity="0.5" stroke="#606060" stroke-width="1.0"/>
           <path id="arrow"
             d="M 11.500037,31.436501 C 11.940474,20.09759 22.043105,11.32322 32.158766,21.979434 L 37.068811,17.246167 C 37.068811,17.246167 37.088388,32 37.088388,32 L 22.160133,31.978069 C 22.160133,31.978069 26.997745,27.140456 26.997745,27.140456 C 18.528582,18.264221 13.291696,25.230495 11.500037,31.436501 z"
             style="fill:#404040;"/>
          </a>
         </g>
        </svg>
</svg>
