<?xml version="1.0" encoding="UTF-8" standalone="no"?>
<!DOCTYPE svg PUBLIC "-//W3C//DTD SVG 1.1//EN"
 "http://www.w3.org/Graphics/SVG/1.1/DTD/svg11.dtd">
<!-- Generated by graphviz version 2.38.0 (20140413.2041)
 -->
<!-- Title: MDRDataSet Pages: 1 -->
<svg width="231pt" height="182pt"
 viewBox="0.00 0.00 231.00 182.00" xmlns="http://www.w3.org/2000/svg" xmlns:xlink="http://www.w3.org/1999/xlink">
<g id="graph0" class="graph" transform="scale(1 1) rotate(0) translate(4 178)">
<title>MDRDataSet</title>
<polygon fill="white" stroke="none" points="-4,4 -4,-178 227,-178 227,4 -4,4"/>
<!-- Node1 -->
<g id="node1" class="node"><title>Node1</title>
<polygon fill="#bfbfbf" stroke="black" points="97.5,-0.5 97.5,-57.5 173.5,-57.5 173.5,-0.5 97.5,-0.5"/>
<text text-anchor="middle" x="135.5" y="-45.5" font-family="Helvetica,sans-Serif" font-size="10.00">MDRDataSet</text>
<polyline fill="none" stroke="black" points="97.5,-38.5 173.5,-38.5 "/>
<text text-anchor="middle" x="135.5" y="-26.5" font-family="Helvetica,sans-Serif" font-size="10.00"> </text>
<polyline fill="none" stroke="black" points="97.5,-19.5 173.5,-19.5 "/>
<text text-anchor="middle" x="135.5" y="-7.5" font-family="Helvetica,sans-Serif" font-size="10.00"> </text>
</g>
<!-- Node2 -->
<g id="node2" class="node"><title>Node2</title>
<g id="a_node2"><a xlink:href="classunsigned_01char.html" target="_top" xlink:title="{unsigned char\n||}">
<polygon fill="white" stroke="black" points="0,-116.5 0,-173.5 77,-173.5 77,-116.5 0,-116.5"/>
<text text-anchor="middle" x="38.5" y="-161.5" font-family="Helvetica,sans-Serif" font-size="10.00">unsigned char</text>
<polyline fill="none" stroke="black" points="0,-154.5 77,-154.5 "/>
<text text-anchor="middle" x="38.5" y="-142.5" font-family="Helvetica,sans-Serif" font-size="10.00"> </text>
<polyline fill="none" stroke="black" points="0,-135.5 77,-135.5 "/>
<text text-anchor="middle" x="38.5" y="-123.5" font-family="Helvetica,sans-Serif" font-size="10.00"> </text>
</a>
</g>
</g>
<!-- Node2&#45;&gt;Node1 -->
<g id="edge1" class="edge"><title>Node2&#45;&gt;Node1</title>
<path fill="none" stroke="#404040" d="M57.2398,-116.417C66.2387,-103.738 77.4508,-88.7235 88.5,-76 91.2793,-72.7996 94.2409,-69.56 97.2735,-66.3599"/>
<polygon fill="none" stroke="#404040" points="97.5311,-66.0962 98.8618,-59.0089 105.916,-57.5113 104.585,-64.5986 97.5311,-66.0962"/>
<text text-anchor="middle" x="110" y="-90" font-family="Helvetica,sans-Serif" font-size="10.00"> +data</text>
<text text-anchor="middle" x="110" y="-79" font-family="Helvetica,sans-Serif" font-size="10.00">+n_levels</text>
</g>
<!-- Node3 -->
<g id="node3" class="node"><title>Node3</title>
<polygon fill="white" stroke="#bfbfbf" points="95.5,-116.5 95.5,-173.5 175.5,-173.5 175.5,-116.5 95.5,-116.5"/>
<text text-anchor="middle" x="135.5" y="-161.5" font-family="Helvetica,sans-Serif" font-size="10.00">unsigned short</text>
<polyline fill="none" stroke="#bfbfbf" points="95.5,-154.5 175.5,-154.5 "/>
<text text-anchor="middle" x="135.5" y="-142.5" font-family="Helvetica,sans-Serif" font-size="10.00"> </text>
<polyline fill="none" stroke="#bfbfbf" points="95.5,-135.5 175.5,-135.5 "/>
<text text-anchor="middle" x="135.5" y="-123.5" font-family="Helvetica,sans-Serif" font-size="10.00"> </text>
</g>
<!-- Node3&#45;&gt;Node1 -->
<g id="edge2" class="edge"><title>Node3&#45;&gt;Node1</title>
<path fill="none" stroke="#404040" d="M135.5,-116.404C135.5,-102.504 135.5,-85.3915 135.5,-70.073"/>
<polygon fill="none" stroke="#404040" points="135.5,-69.7372 131.5,-63.7372 135.5,-57.7372 139.5,-63.7372 135.5,-69.7372"/>
<text text-anchor="middle" x="157.5" y="-90" font-family="Helvetica,sans-Serif" font-size="10.00"> +rows</text>
<text text-anchor="middle" x="157.5" y="-79" font-family="Helvetica,sans-Serif" font-size="10.00">+n_status</text>
</g>
<!-- Node4 -->
<g id="node4" class="node"><title>Node4</title>
<g id="a_node4"><a xlink:href="classint.html" target="_top" xlink:title="{int\n||}">
<polygon fill="white" stroke="black" points="194,-116.5 194,-173.5 223,-173.5 223,-116.5 194,-116.5"/>
<text text-anchor="middle" x="208.5" y="-161.5" font-family="Helvetica,sans-Serif" font-size="10.00">int</text>
<polyline fill="none" stroke="black" points="194,-154.5 223,-154.5 "/>
<text text-anchor="middle" x="208.5" y="-142.5" font-family="Helvetica,sans-Serif" font-size="10.00"> </text>
<polyline fill="none" stroke="black" points="194,-135.5 223,-135.5 "/>
<text text-anchor="middle" x="208.5" y="-123.5" font-family="Helvetica,sans-Serif" font-size="10.00"> </text>
</a>
</g>
</g>
<!-- Node4&#45;&gt;Node1 -->
<g id="edge3" class="edge"><title>Node4&#45;&gt;Node1</title>
<path fill="none" stroke="#404040" d="M201.416,-116.187C197.372,-103.315 191.49,-88.2086 183.5,-76 181.449,-72.8657 179.146,-69.7869 176.689,-66.7997"/>
<polygon fill="none" stroke="#404040" points="176.456,-66.5399 169.47,-64.7521 168.433,-57.6159 175.419,-59.4037 176.456,-66.5399"/>
<text text-anchor="middle" x="208.5" y="-84.5" font-family="Helvetica,sans-Serif" font-size="10.00"> +cols</text>
</g>
</g>
</svg>
