<?xml version="1.0" encoding="UTF-8" standalone="no"?>
<!DOCTYPE svg PUBLIC "-//W3C//DTD SVG 1.1//EN"
 "http://www.w3.org/Graphics/SVG/1.1/DTD/svg11.dtd">
<!-- Generated by graphviz version 2.38.0 (20140413.2041)
 -->
<!-- Title: trap::Watchpoint&lt; AddressType &gt; Pages: 1 -->
<svg width="318pt" height="224pt"
 viewBox="0.00 0.00 318.12 224.00" xmlns="http://www.w3.org/2000/svg" xmlns:xlink="http://www.w3.org/1999/xlink">
<g id="graph0" class="graph" transform="scale(1 1) rotate(0) translate(4 220)">
<title>trap::Watchpoint&lt; AddressType &gt;</title>
<polygon fill="white" stroke="none" points="-4,4 -4,-220 314.122,-220 314.122,4 -4,4"/>
<!-- Node1 -->
<g id="node1" class="node"><title>Node1</title>
<polygon fill="#bfbfbf" stroke="black" points="92.6934,-131.5 92.6934,-215.5 225.896,-215.5 225.896,-131.5 92.6934,-131.5"/>
<text text-anchor="start" x="100.693" y="-203.5" font-family="Helvetica,sans-Serif" font-size="10.00">trap::Watchpoint&lt; Address</text>
<text text-anchor="middle" x="159.294" y="-193.5" font-family="Helvetica,sans-Serif" font-size="10.00">Type &gt;</text>
<polyline fill="none" stroke="black" points="92.6934,-187.5 225.896,-187.5 "/>
<text text-anchor="start" x="100.693" y="-175.5" font-family="Helvetica,sans-Serif" font-size="10.00">+ address</text>
<text text-anchor="start" x="100.693" y="-165.5" font-family="Helvetica,sans-Serif" font-size="10.00">+ length</text>
<text text-anchor="start" x="100.693" y="-155.5" font-family="Helvetica,sans-Serif" font-size="10.00">+ type</text>
<polyline fill="none" stroke="black" points="92.6934,-149.5 225.896,-149.5 "/>
<text text-anchor="middle" x="159.294" y="-137.5" font-family="Helvetica,sans-Serif" font-size="10.00"> </text>
</g>
<!-- Node2 -->
<g id="node2" class="node"><title>Node2</title>
<g id="a_node2"><a xlink:href="structtrap_1_1Watchpoint.html" target="_top" xlink:title="{trap::Watchpoint\&lt; issueWidth \&gt;\n|+ address\l+ length\l+ type\l|}">
<polygon fill="white" stroke="black" points="0,-5.5 0,-79.5 154.589,-79.5 154.589,-5.5 0,-5.5"/>
<text text-anchor="middle" x="77.2944" y="-67.5" font-family="Helvetica,sans-Serif" font-size="10.00">trap::Watchpoint&lt; issueWidth &gt;</text>
<polyline fill="none" stroke="black" points="0,-61.5 154.589,-61.5 "/>
<text text-anchor="start" x="8" y="-49.5" font-family="Helvetica,sans-Serif" font-size="10.00">+ address</text>
<text text-anchor="start" x="8" y="-39.5" font-family="Helvetica,sans-Serif" font-size="10.00">+ length</text>
<text text-anchor="start" x="8" y="-29.5" font-family="Helvetica,sans-Serif" font-size="10.00">+ type</text>
<polyline fill="none" stroke="black" points="0,-23.5 154.589,-23.5 "/>
<text text-anchor="middle" x="77.2944" y="-11.5" font-family="Helvetica,sans-Serif" font-size="10.00"> </text>
</a>
</g>
</g>
<!-- Node1&#45;&gt;Node2 -->
<g id="edge1" class="edge"><title>Node1&#45;&gt;Node2</title>
<path fill="none" stroke="orange" d="M127.594,-122.63C118.554,-108.408 108.877,-93.1849 100.45,-79.9275"/>
<polygon fill="orange" stroke="orange" points="124.805,-124.767 133.124,-131.329 130.713,-121.012 124.805,-124.767"/>
<text text-anchor="middle" x="155.755" y="-105" font-family="Helvetica,sans-Serif" font-size="10.00"> &lt; issueWidth &gt;</text>
</g>
<!-- Node3 -->
<g id="node3" class="node"><title>Node3</title>
<g id="a_node3"><a xlink:href="structtrap_1_1Watchpoint.html" target="_top" xlink:title="{trap::Watchpoint\&lt; unsigned\l int \&gt;\n|+ address\l+ length\l+ type\l|}">
<polygon fill="white" stroke="black" points="172.467,-0.5 172.467,-84.5 310.122,-84.5 310.122,-0.5 172.467,-0.5"/>
<text text-anchor="start" x="180.467" y="-72.5" font-family="Helvetica,sans-Serif" font-size="10.00">trap::Watchpoint&lt; unsigned</text>
<text text-anchor="middle" x="241.294" y="-62.5" font-family="Helvetica,sans-Serif" font-size="10.00"> int &gt;</text>
<polyline fill="none" stroke="black" points="172.467,-56.5 310.122,-56.5 "/>
<text text-anchor="start" x="180.467" y="-44.5" font-family="Helvetica,sans-Serif" font-size="10.00">+ address</text>
<text text-anchor="start" x="180.467" y="-34.5" font-family="Helvetica,sans-Serif" font-size="10.00">+ length</text>
<text text-anchor="start" x="180.467" y="-24.5" font-family="Helvetica,sans-Serif" font-size="10.00">+ type</text>
<polyline fill="none" stroke="black" points="172.467,-18.5 310.122,-18.5 "/>
<text text-anchor="middle" x="241.294" y="-6.5" font-family="Helvetica,sans-Serif" font-size="10.00"> </text>
</a>
</g>
</g>
<!-- Node1&#45;&gt;Node3 -->
<g id="edge2" class="edge"><title>Node1&#45;&gt;Node3</title>
<path fill="none" stroke="orange" d="M190.903,-122.774C198.898,-110.197 207.396,-96.8279 215.091,-84.7224"/>
<polygon fill="orange" stroke="orange" points="187.876,-121.012 185.465,-131.329 193.784,-124.767 187.876,-121.012"/>
<text text-anchor="middle" x="240.267" y="-105" font-family="Helvetica,sans-Serif" font-size="10.00"> &lt; unsigned int &gt;</text>
</g>
</g>
</svg>
