<?xml version="1.0" encoding="UTF-8" standalone="no"?>
<!DOCTYPE svg PUBLIC "-//W3C//DTD SVG 1.1//EN"
 "http://www.w3.org/Graphics/SVG/1.1/DTD/svg11.dtd">
<!-- Generated by graphviz version 2.26.0 (20091210.2329)
 -->
<!-- Title: i2cmst_regs Pages: 1 -->
<svg width="78pt" height="224pt"
 viewBox="0.00 0.00 78.00 224.00" xmlns="http://www.w3.org/2000/svg" xmlns:xlink="http://www.w3.org/1999/xlink">
<g id="graph1" class="graph" transform="scale(1 1) rotate(0) translate(4 220)">
<title>i2cmst_regs</title>
<polygon fill="white" stroke="white" points="-4,5 -4,-220 75,-220 75,5 -4,5"/>
<!-- Node1 -->
<g id="node1" class="node"><title>Node1</title>
<polygon fill="#bfbfbf" stroke="black" points="0,-0.5 0,-63.5 70,-63.5 70,-0.5 0,-0.5"/>
<text text-anchor="middle" x="35" y="-50.5" font-family="Helvetica,sans-Serif" font-size="10.00">i2cmst_regs</text>
<polyline fill="none" stroke="black" points="0,-42.5 70,-42.5 "/>
<text text-anchor="middle" x="35" y="-29.5" font-family="Helvetica,sans-Serif" font-size="10.00"> </text>
<polyline fill="none" stroke="black" points="0,-21.5 70,-21.5 "/>
<text text-anchor="middle" x="35" y="-8.5" font-family="Helvetica,sans-Serif" font-size="10.00"> </text>
</g>
<!-- Node2 -->
<g id="node2" class="node"><title>Node2</title>
<a xlink:href="classint.html" target="_top" xlink:title="{int\n||}">
<polygon fill="white" stroke="black" points="20.5,-152.5 20.5,-215.5 49.5,-215.5 49.5,-152.5 20.5,-152.5"/>
<text text-anchor="middle" x="35" y="-202.5" font-family="Helvetica,sans-Serif" font-size="10.00">int</text>
<polyline fill="none" stroke="black" points="20.5,-194.5 49.5,-194.5 "/>
<text text-anchor="middle" x="35" y="-181.5" font-family="Helvetica,sans-Serif" font-size="10.00"> </text>
<polyline fill="none" stroke="black" points="20.5,-173.5 49.5,-173.5 "/>
<text text-anchor="middle" x="35" y="-160.5" font-family="Helvetica,sans-Serif" font-size="10.00"> </text>
</a>
</g>
<!-- Node2&#45;&gt;Node1 -->
<g id="edge2" class="edge"><title>Node2&#45;&gt;Node1</title>
<path fill="none" stroke="#404040" d="M35,-152.136C35,-129.971 35,-100.14 35,-75.7506"/>
<polygon fill="none" stroke="#404040" points="35.0001,-75.5615 31,-69.5616 35,-63.5615 39,-69.5615 35.0001,-75.5615"/>
<text text-anchor="middle" x="46.5" y="-125" font-family="Helvetica,sans-Serif" font-size="10.00"> +xr</text>
<text text-anchor="middle" x="46.5" y="-112" font-family="Helvetica,sans-Serif" font-size="10.00">+ctr</text>
<text text-anchor="middle" x="46.5" y="-99" font-family="Helvetica,sans-Serif" font-size="10.00">+csr</text>
<text text-anchor="middle" x="46.5" y="-86" font-family="Helvetica,sans-Serif" font-size="10.00">+prer</text>
</g>
</g>
</svg>
