<?xml version="1.0" encoding="UTF-8" standalone="no"?>
<!DOCTYPE svg PUBLIC "-//W3C//DTD SVG 1.1//EN"
 "http://www.w3.org/Graphics/SVG/1.1/DTD/svg11.dtd">
<!-- Generated by graphviz version 2.38.0 (20140413.2041)
 -->
<!-- Title: pci_config Pages: 1 -->
<svg width="227pt" height="342pt"
 viewBox="0.00 0.00 226.50 342.00" xmlns="http://www.w3.org/2000/svg" xmlns:xlink="http://www.w3.org/1999/xlink">
<g id="graph0" class="graph" transform="scale(1 1) rotate(0) translate(4 338)">
<title>pci_config</title>
<polygon fill="white" stroke="none" points="-4,4 -4,-338 222.5,-338 222.5,4 -4,4"/>
<!-- Node1 -->
<g id="node1" class="node"><title>Node1</title>
<polygon fill="#bfbfbf" stroke="black" points="39,-0.5 39,-57.5 100,-57.5 100,-0.5 39,-0.5"/>
<text text-anchor="middle" x="69.5" y="-45.5" font-family="Helvetica,sans-Serif" font-size="10.00">pci_config</text>
<polyline fill="none" stroke="black" points="39,-38.5 100,-38.5 "/>
<text text-anchor="middle" x="69.5" y="-26.5" font-family="Helvetica,sans-Serif" font-size="10.00"> </text>
<polyline fill="none" stroke="black" points="39,-19.5 100,-19.5 "/>
<text text-anchor="middle" x="69.5" y="-7.5" font-family="Helvetica,sans-Serif" font-size="10.00"> </text>
</g>
<!-- Node2 -->
<g id="node2" class="node"><title>Node2</title>
<g id="a_node2"><a xlink:href="classchar.html" target="_top" xlink:title="{char\n||}">
<polygon fill="white" stroke="black" points="0,-116.5 0,-173.5 35,-173.5 35,-116.5 0,-116.5"/>
<text text-anchor="middle" x="17.5" y="-161.5" font-family="Helvetica,sans-Serif" font-size="10.00">char</text>
<polyline fill="none" stroke="black" points="0,-154.5 35,-154.5 "/>
<text text-anchor="middle" x="17.5" y="-142.5" font-family="Helvetica,sans-Serif" font-size="10.00"> </text>
<polyline fill="none" stroke="black" points="0,-135.5 35,-135.5 "/>
<text text-anchor="middle" x="17.5" y="-123.5" font-family="Helvetica,sans-Serif" font-size="10.00"> </text>
</a>
</g>
</g>
<!-- Node2&#45;&gt;Node1 -->
<g id="edge1" class="edge"><title>Node2&#45;&gt;Node1</title>
<path fill="none" stroke="#404040" d="M14.6192,-116.406C14.3869,-103.583 15.7475,-88.4537 21.5,-76 23.7945,-71.0326 26.8852,-66.3275 30.3986,-61.9579"/>
<polygon fill="none" stroke="#404040" points="30.5273,-61.817 31.6201,-54.6891 38.62,-52.9564 37.5271,-60.0843 30.5273,-61.817"/>
<text text-anchor="middle" x="60.5" y="-90" font-family="Helvetica,sans-Serif" font-size="10.00"> +pci_config_addr</text>
<text text-anchor="middle" x="60.5" y="-79" font-family="Helvetica,sans-Serif" font-size="10.00">+pci_config_data</text>
</g>
<!-- Node3 -->
<g id="node3" class="node"><title>Node3</title>
<g id="a_node3"><a xlink:href="structpci__config__access__functions.html" target="_top" xlink:title="{pci_config_access_functions\n||}">
<polygon fill="white" stroke="black" points="53,-116.5 53,-173.5 196,-173.5 196,-116.5 53,-116.5"/>
<text text-anchor="middle" x="124.5" y="-161.5" font-family="Helvetica,sans-Serif" font-size="10.00">pci_config_access_functions</text>
<polyline fill="none" stroke="black" points="53,-154.5 196,-154.5 "/>
<text text-anchor="middle" x="124.5" y="-142.5" font-family="Helvetica,sans-Serif" font-size="10.00"> </text>
<polyline fill="none" stroke="black" points="53,-135.5 196,-135.5 "/>
<text text-anchor="middle" x="124.5" y="-123.5" font-family="Helvetica,sans-Serif" font-size="10.00"> </text>
</a>
</g>
</g>
<!-- Node3&#45;&gt;Node1 -->
<g id="edge2" class="edge"><title>Node3&#45;&gt;Node1</title>
<path fill="none" stroke="#404040" d="M115.894,-116.274C111.592,-103.702 105.931,-88.8159 99.5,-76 98.2011,-73.4116 96.788,-70.7898 95.3062,-68.179"/>
<polygon fill="none" stroke="#404040" points="95.138,-67.8997 88.615,-64.8255 88.9439,-57.6218 95.4669,-60.6961 95.138,-67.8997"/>
<text text-anchor="middle" x="142" y="-84.5" font-family="Helvetica,sans-Serif" font-size="10.00"> +pci_functions</text>
</g>
<!-- Node4 -->
<g id="node4" class="node"><title>Node4</title>
<g id="a_node4"><a xlink:href="classint.html" target="_top" xlink:title="{int\n||}">
<polygon fill="white" stroke="black" points="110,-276.5 110,-333.5 139,-333.5 139,-276.5 110,-276.5"/>
<text text-anchor="middle" x="124.5" y="-321.5" font-family="Helvetica,sans-Serif" font-size="10.00">int</text>
<polyline fill="none" stroke="black" points="110,-314.5 139,-314.5 "/>
<text text-anchor="middle" x="124.5" y="-302.5" font-family="Helvetica,sans-Serif" font-size="10.00"> </text>
<polyline fill="none" stroke="black" points="110,-295.5 139,-295.5 "/>
<text text-anchor="middle" x="124.5" y="-283.5" font-family="Helvetica,sans-Serif" font-size="10.00"> </text>
</a>
</g>
</g>
<!-- Node4&#45;&gt;Node3 -->
<g id="edge3" class="edge"><title>Node4&#45;&gt;Node3</title>
<path fill="none" stroke="#404040" d="M124.5,-276.479C124.5,-251.484 124.5,-214.311 124.5,-186.029"/>
<polygon fill="none" stroke="#404040" points="124.5,-185.736 120.5,-179.736 124.5,-173.736 128.5,-179.736 124.5,-185.736"/>
<text text-anchor="middle" x="171.5" y="-250" font-family="Helvetica,sans-Serif" font-size="10.00"> +write_config_dword</text>
<text text-anchor="middle" x="171.5" y="-239" font-family="Helvetica,sans-Serif" font-size="10.00">+read_config_dword</text>
<text text-anchor="middle" x="171.5" y="-228" font-family="Helvetica,sans-Serif" font-size="10.00">+read_config_word</text>
<text text-anchor="middle" x="171.5" y="-217" font-family="Helvetica,sans-Serif" font-size="10.00">+read_config_byte</text>
<text text-anchor="middle" x="171.5" y="-206" font-family="Helvetica,sans-Serif" font-size="10.00">+write_config_word</text>
<text text-anchor="middle" x="171.5" y="-195" font-family="Helvetica,sans-Serif" font-size="10.00">+write_config_byte</text>
</g>
</g>
</svg>
