<?xml version="1.0" encoding="UTF-8" standalone="no"?>
<!DOCTYPE svg PUBLIC "-//W3C//DTD SVG 1.1//EN"
 "http://www.w3.org/Graphics/SVG/1.1/DTD/svg11.dtd">
<!-- Generated by graphviz version 2.26.0 (20091210.2329)
 -->
<!-- Title: timerreg Pages: 1 -->
<svg width="73pt" height="238pt"
 viewBox="0.00 0.00 73.00 238.00" xmlns="http://www.w3.org/2000/svg" xmlns:xlink="http://www.w3.org/1999/xlink">
<g id="graph1" class="graph" transform="scale(1 1) rotate(0) translate(4 234)">
<title>timerreg</title>
<polygon fill="white" stroke="white" points="-4,5 -4,-234 70,-234 70,5 -4,5"/>
<!-- Node1 -->
<g id="node1" class="node"><title>Node1</title>
<polygon fill="#bfbfbf" stroke="black" points="0,-0.5 0,-63.5 52,-63.5 52,-0.5 0,-0.5"/>
<text text-anchor="middle" x="26" y="-50.5" font-family="Helvetica,sans-Serif" font-size="10.00">timerreg</text>
<polyline fill="none" stroke="black" points="0,-42.5 52,-42.5 "/>
<text text-anchor="middle" x="26" y="-29.5" font-family="Helvetica,sans-Serif" font-size="10.00"> </text>
<polyline fill="none" stroke="black" points="0,-21.5 52,-21.5 "/>
<text text-anchor="middle" x="26" y="-8.5" font-family="Helvetica,sans-Serif" font-size="10.00"> </text>
</g>
<!-- Node2 -->
<g id="node2" class="node"><title>Node2</title>
<a xlink:href="classint.html" target="_top" xlink:title="{int\n||}">
<polygon fill="white" stroke="black" points="11.5,-166.5 11.5,-229.5 40.5,-229.5 40.5,-166.5 11.5,-166.5"/>
<text text-anchor="middle" x="26" y="-216.5" font-family="Helvetica,sans-Serif" font-size="10.00">int</text>
<polyline fill="none" stroke="black" points="11.5,-208.5 40.5,-208.5 "/>
<text text-anchor="middle" x="26" y="-195.5" font-family="Helvetica,sans-Serif" font-size="10.00"> </text>
<polyline fill="none" stroke="black" points="11.5,-187.5 40.5,-187.5 "/>
<text text-anchor="middle" x="26" y="-174.5" font-family="Helvetica,sans-Serif" font-size="10.00"> </text>
</a>
</g>
<!-- Node2&#45;&gt;Node1 -->
<g id="edge2" class="edge"><title>Node2&#45;&gt;Node1</title>
<path fill="none" stroke="#404040" d="M26,-166.386C26,-140.738 26,-104.297 26,-75.8311"/>
<polygon fill="none" stroke="#404040" points="26.0001,-75.7786 22,-69.7787 26,-63.7786 30,-69.7786 26.0001,-75.7786"/>
<text text-anchor="middle" x="45.5" y="-138.5" font-family="Helvetica,sans-Serif" font-size="10.00"> +control</text>
<text text-anchor="middle" x="45.5" y="-125.5" font-family="Helvetica,sans-Serif" font-size="10.00">+reload</text>
<text text-anchor="middle" x="45.5" y="-112.5" font-family="Helvetica,sans-Serif" font-size="10.00">+counter</text>
<text text-anchor="middle" x="45.5" y="-99.5" font-family="Helvetica,sans-Serif" font-size="10.00">+dummy</text>
<text text-anchor="middle" x="45.5" y="-86.5" font-family="Helvetica,sans-Serif" font-size="10.00">+wdog</text>
</g>
</g>
</svg>
