<?xml version="1.0" encoding="UTF-8" standalone="no"?>
<!DOCTYPE svg PUBLIC "-//W3C//DTD SVG 1.1//EN"
 "http://www.w3.org/Graphics/SVG/1.1/DTD/svg11.dtd">
<!-- Generated by graphviz version 2.36.0 (20140111.2315)
 -->
<!-- Title: trap::ProfFunction Pages: 1 -->
<svg width="327pt" height="346pt"
 viewBox="0.00 0.00 327.00 346.00" xmlns="http://www.w3.org/2000/svg" xmlns:xlink="http://www.w3.org/1999/xlink">
<g id="graph0" class="graph" transform="scale(1 1) rotate(0) translate(4 342)">
<title>trap::ProfFunction</title>
<polygon fill="white" stroke="none" points="-4,4 -4,-342 323,-342 323,4 -4,4"/>
<!-- Node1 -->
<g id="node1" class="node"><title>Node1</title>
<polygon fill="#bfbfbf" stroke="black" points="103,-0.5 103,-79.5 203,-79.5 203,-0.5 103,-0.5"/>
<text text-anchor="middle" x="153" y="-67.5" font-family="Helvetica,sans-Serif" font-size="10.00">trap::ProfFunction</text>
<polyline fill="none" stroke="black" points="103,-60.5 203,-60.5 "/>
<text text-anchor="middle" x="153" y="-48.5" font-family="Helvetica,sans-Serif" font-size="10.00"> </text>
<polyline fill="none" stroke="black" points="103,-41.5 203,-41.5 "/>
<text text-anchor="start" x="111" y="-29.5" font-family="Helvetica,sans-Serif" font-size="10.00">+ printCsv()</text>
<text text-anchor="start" x="111" y="-18.5" font-family="Helvetica,sans-Serif" font-size="10.00">+ ProfFunction()</text>
<text text-anchor="start" x="111" y="-7.5" font-family="Helvetica,sans-Serif" font-size="10.00">+ printCsvHeader()</text>
</g>
<!-- Node2 -->
<g id="node2" class="node"><title>Node2</title>
<g id="a_node2"><a xlink:href="classbool.html" target="_top" xlink:title="{bool\n||}">
<polygon fill="white" stroke="black" points="-0.5,-172.5 -0.5,-229.5 34.5,-229.5 34.5,-172.5 -0.5,-172.5"/>
<text text-anchor="middle" x="17" y="-217.5" font-family="Helvetica,sans-Serif" font-size="10.00">bool</text>
<polyline fill="none" stroke="black" points="-0.5,-210.5 34.5,-210.5 "/>
<text text-anchor="middle" x="17" y="-198.5" font-family="Helvetica,sans-Serif" font-size="10.00"> </text>
<polyline fill="none" stroke="black" points="-0.5,-191.5 34.5,-191.5 "/>
<text text-anchor="middle" x="17" y="-179.5" font-family="Helvetica,sans-Serif" font-size="10.00"> </text>
</a>
</g>
</g>
<!-- Node2&#45;&gt;Node1 -->
<g id="edge1" class="edge"><title>Node2&#45;&gt;Node1</title>
<path fill="none" stroke="#404040" d="M12.3091,-172.302C10.1212,-150.179 10.7457,-119.437 26,-98 41.4132,-76.34 67.0289,-62.77 91.2335,-54.3369"/>
<polygon fill="none" stroke="#404040" points="91.5197,-54.2456 96.0193,-48.6106 102.952,-50.5967 98.4519,-56.2318 91.5197,-54.2456"/>
<text text-anchor="middle" x="68.5" y="-123.5" font-family="Helvetica,sans-Serif" font-size="10.00"> +alreadyExamined</text>
</g>
<!-- Node3 -->
<g id="node3" class="node"><title>Node3</title>
<g id="a_node3"><a xlink:title="STL class. ">
<polygon fill="white" stroke="#bfbfbf" points="78,-172.5 78,-229.5 138,-229.5 138,-172.5 78,-172.5"/>
<text text-anchor="middle" x="108" y="-217.5" font-family="Helvetica,sans-Serif" font-size="10.00">std::string</text>
<polyline fill="none" stroke="#bfbfbf" points="78,-210.5 138,-210.5 "/>
<text text-anchor="middle" x="108" y="-198.5" font-family="Helvetica,sans-Serif" font-size="10.00"> </text>
<polyline fill="none" stroke="#bfbfbf" points="78,-191.5 138,-191.5 "/>
<text text-anchor="middle" x="108" y="-179.5" font-family="Helvetica,sans-Serif" font-size="10.00"> </text>
</a>
</g>
</g>
<!-- Node3&#45;&gt;Node1 -->
<g id="edge2" class="edge"><title>Node3&#45;&gt;Node1</title>
<path fill="none" stroke="#404040" d="M111.301,-172.28C114.22,-151.51 119.239,-122.561 127,-98 127.713,-95.7443 128.492,-93.4604 129.322,-91.1694"/>
<polygon fill="none" stroke="#404040" points="129.419,-90.9209 127.892,-83.8733 133.81,-79.753 135.337,-86.8006 129.419,-90.9209"/>
<text text-anchor="middle" x="144" y="-123.5" font-family="Helvetica,sans-Serif" font-size="10.00"> +name</text>
</g>
<!-- Node4 -->
<g id="node4" class="node"><title>Node4</title>
<g id="a_node4"><a xlink:title="STL class. ">
<polygon fill="white" stroke="#bfbfbf" points="60.5,-269 60.5,-337 155.5,-337 155.5,-269 60.5,-269"/>
<text text-anchor="start" x="68.5" y="-325" font-family="Helvetica,sans-Serif" font-size="10.00">std::basic_string&lt;</text>
<text text-anchor="middle" x="108" y="-314" font-family="Helvetica,sans-Serif" font-size="10.00"> char &gt;</text>
<polyline fill="none" stroke="#bfbfbf" points="60.5,-307 155.5,-307 "/>
<text text-anchor="middle" x="108" y="-295" font-family="Helvetica,sans-Serif" font-size="10.00"> </text>
<polyline fill="none" stroke="#bfbfbf" points="60.5,-288 155.5,-288 "/>
<text text-anchor="middle" x="108" y="-276" font-family="Helvetica,sans-Serif" font-size="10.00"> </text>
</a>
</g>
</g>
<!-- Node4&#45;&gt;Node3 -->
<g id="edge3" class="edge"><title>Node4&#45;&gt;Node3</title>
<path fill="none" stroke="midnightblue" d="M108,-258.857C108,-248.952 108,-238.682 108,-229.64"/>
<polygon fill="none" stroke="midnightblue" points="104.5,-258.979 108,-268.979 111.5,-258.979 104.5,-258.979"/>
</g>
<!-- Node5 -->
<g id="node5" class="node"><title>Node5</title>
<polygon fill="white" stroke="#bfbfbf" points="156.5,-172.5 156.5,-229.5 207.5,-229.5 207.5,-172.5 156.5,-172.5"/>
<text text-anchor="middle" x="182" y="-217.5" font-family="Helvetica,sans-Serif" font-size="10.00">sc_time</text>
<polyline fill="none" stroke="#bfbfbf" points="156.5,-210.5 207.5,-210.5 "/>
<text text-anchor="middle" x="182" y="-198.5" font-family="Helvetica,sans-Serif" font-size="10.00"> </text>
<polyline fill="none" stroke="#bfbfbf" points="156.5,-191.5 207.5,-191.5 "/>
<text text-anchor="middle" x="182" y="-179.5" font-family="Helvetica,sans-Serif" font-size="10.00"> </text>
</g>
<!-- Node5&#45;&gt;Node1 -->
<g id="edge4" class="edge"><title>Node5&#45;&gt;Node1</title>
<path fill="none" stroke="#404040" d="M176.949,-172.304C172.896,-150.083 167.098,-118.298 162.223,-91.5663"/>
<polygon fill="none" stroke="#404040" points="162.21,-91.4977 157.199,-86.3128 160.057,-79.6925 165.069,-84.8773 162.21,-91.4977"/>
<text text-anchor="middle" x="198.5" y="-129" font-family="Helvetica,sans-Serif" font-size="10.00"> +exclTime</text>
<text text-anchor="middle" x="198.5" y="-118" font-family="Helvetica,sans-Serif" font-size="10.00">+totalTime</text>
</g>
<!-- Node6 -->
<g id="node6" class="node"><title>Node6</title>
<polygon fill="white" stroke="#bfbfbf" points="226,-172.5 226,-229.5 282,-229.5 282,-172.5 226,-172.5"/>
<text text-anchor="middle" x="254" y="-217.5" font-family="Helvetica,sans-Serif" font-size="10.00">unsigned</text>
<polyline fill="none" stroke="#bfbfbf" points="226,-210.5 282,-210.5 "/>
<text text-anchor="middle" x="254" y="-198.5" font-family="Helvetica,sans-Serif" font-size="10.00"> </text>
<polyline fill="none" stroke="#bfbfbf" points="226,-191.5 282,-191.5 "/>
<text text-anchor="middle" x="254" y="-179.5" font-family="Helvetica,sans-Serif" font-size="10.00"> </text>
</g>
<!-- Node6&#45;&gt;Node1 -->
<g id="edge5" class="edge"><title>Node6&#45;&gt;Node1</title>
<path fill="none" stroke="#404040" d="M251.59,-172.469C248.596,-150.729 241.906,-120.426 227,-98 222.817,-91.7073 217.706,-85.8169 212.143,-80.391"/>
<polygon fill="none" stroke="#404040" points="212.019,-80.2798 204.883,-79.242 203.096,-72.2558 210.232,-73.2935 212.019,-80.2798"/>
<text text-anchor="middle" x="284" y="-145.5" font-family="Helvetica,sans-Serif" font-size="10.00"> +exclNumInstr</text>
<text text-anchor="middle" x="284" y="-134.5" font-family="Helvetica,sans-Serif" font-size="10.00">+numTotalCalls</text>
<text text-anchor="middle" x="284" y="-123.5" font-family="Helvetica,sans-Serif" font-size="10.00">+address</text>
<text text-anchor="middle" x="284" y="-112.5" font-family="Helvetica,sans-Serif" font-size="10.00">+totalNumInstr</text>
<text text-anchor="middle" x="284" y="-101.5" font-family="Helvetica,sans-Serif" font-size="10.00">+numCalls</text>
</g>
</g>
</svg>
