<?xml version="1.0" encoding="UTF-8" standalone="no"?>
<!DOCTYPE svg PUBLIC "-//W3C//DTD SVG 1.1//EN"
 "http://www.w3.org/Graphics/SVG/1.1/DTD/svg11.dtd">
<!-- Generated by graphviz version 2.38.0 (20140413.2041)
 -->
<!-- Title: LEON3_GRPCI_Regs_Map Pages: 1 -->
<svg width="147pt" height="237pt"
 viewBox="0.00 0.00 147.00 237.00" xmlns="http://www.w3.org/2000/svg" xmlns:xlink="http://www.w3.org/1999/xlink">
<g id="graph0" class="graph" transform="scale(1 1) rotate(0) translate(4 233)">
<title>LEON3_GRPCI_Regs_Map</title>
<polygon fill="white" stroke="none" points="-4,4 -4,-233 143,-233 143,4 -4,4"/>
<!-- Node1 -->
<g id="node1" class="node"><title>Node1</title>
<polygon fill="#bfbfbf" stroke="black" points="0,-0.5 0,-57.5 139,-57.5 139,-0.5 0,-0.5"/>
<text text-anchor="middle" x="69.5" y="-45.5" font-family="Helvetica,sans-Serif" font-size="10.00">LEON3_GRPCI_Regs_Map</text>
<polyline fill="none" stroke="black" points="0,-38.5 139,-38.5 "/>
<text text-anchor="middle" x="69.5" y="-26.5" font-family="Helvetica,sans-Serif" font-size="10.00"> </text>
<polyline fill="none" stroke="black" points="0,-19.5 139,-19.5 "/>
<text text-anchor="middle" x="69.5" y="-7.5" font-family="Helvetica,sans-Serif" font-size="10.00"> </text>
</g>
<!-- Node2 -->
<g id="node2" class="node"><title>Node2</title>
<polygon fill="white" stroke="#bfbfbf" points="41.5,-171.5 41.5,-228.5 97.5,-228.5 97.5,-171.5 41.5,-171.5"/>
<text text-anchor="middle" x="69.5" y="-216.5" font-family="Helvetica,sans-Serif" font-size="10.00">unsigned</text>
<polyline fill="none" stroke="#bfbfbf" points="41.5,-209.5 97.5,-209.5 "/>
<text text-anchor="middle" x="69.5" y="-197.5" font-family="Helvetica,sans-Serif" font-size="10.00"> </text>
<polyline fill="none" stroke="#bfbfbf" points="41.5,-190.5 97.5,-190.5 "/>
<text text-anchor="middle" x="69.5" y="-178.5" font-family="Helvetica,sans-Serif" font-size="10.00"> </text>
</g>
<!-- Node2&#45;&gt;Node1 -->
<g id="edge1" class="edge"><title>Node2&#45;&gt;Node1</title>
<path fill="none" stroke="#404040" d="M69.5,-171.471C69.5,-143.85 69.5,-101.027 69.5,-69.728"/>
<polygon fill="none" stroke="#404040" points="69.5001,-69.5171 65.5,-63.5171 69.5,-57.5171 73.5,-63.5171 69.5001,-69.5171"/>
<text text-anchor="middle" x="93" y="-145" font-family="Helvetica,sans-Serif" font-size="10.00"> +page0</text>
<text text-anchor="middle" x="93" y="-134" font-family="Helvetica,sans-Serif" font-size="10.00">+page1</text>
<text text-anchor="middle" x="93" y="-123" font-family="Helvetica,sans-Serif" font-size="10.00">+iomap</text>
<text text-anchor="middle" x="93" y="-112" font-family="Helvetica,sans-Serif" font-size="10.00">+bar0</text>
<text text-anchor="middle" x="93" y="-101" font-family="Helvetica,sans-Serif" font-size="10.00">+cfg_stat</text>
<text text-anchor="middle" x="93" y="-90" font-family="Helvetica,sans-Serif" font-size="10.00">+bar1</text>
<text text-anchor="middle" x="93" y="-79" font-family="Helvetica,sans-Serif" font-size="10.00">+stat_cmd</text>
</g>
</g>
</svg>
