<?xml version="1.0" encoding="UTF-8" standalone="no"?>
<!DOCTYPE svg PUBLIC "-//W3C//DTD SVG 1.1//EN"
 "http://www.w3.org/Graphics/SVG/1.1/DTD/svg11.dtd">
<!-- Generated by graphviz version 2.36.0 (20140111.2315)
 -->
<!-- Title: ehc_itd Pages: 1 -->
<svg width="66pt" height="194pt"
 viewBox="0.00 0.00 66.00 194.00" xmlns="http://www.w3.org/2000/svg" xmlns:xlink="http://www.w3.org/1999/xlink">
<g id="graph0" class="graph" transform="scale(1 1) rotate(0) translate(4 190)">
<title>ehc_itd</title>
<polygon fill="white" stroke="none" points="-4,4 -4,-190 62,-190 62,4 -4,4"/>
<!-- Node1 -->
<g id="node1" class="node"><title>Node1</title>
<polygon fill="#bfbfbf" stroke="black" points="0,-0.5 0,-57.5 48,-57.5 48,-0.5 0,-0.5"/>
<text text-anchor="middle" x="24" y="-45.5" font-family="Helvetica,sans-Serif" font-size="10.00">ehc_itd</text>
<polyline fill="none" stroke="black" points="0,-38.5 48,-38.5 "/>
<text text-anchor="middle" x="24" y="-26.5" font-family="Helvetica,sans-Serif" font-size="10.00"> </text>
<polyline fill="none" stroke="black" points="0,-19.5 48,-19.5 "/>
<text text-anchor="middle" x="24" y="-7.5" font-family="Helvetica,sans-Serif" font-size="10.00"> </text>
</g>
<!-- Node2 -->
<g id="node2" class="node"><title>Node2</title>
<g id="a_node2"><a xlink:href="classint.html" target="_top" xlink:title="{int\n||}">
<polygon fill="white" stroke="black" points="9.5,-128.5 9.5,-185.5 38.5,-185.5 38.5,-128.5 9.5,-128.5"/>
<text text-anchor="middle" x="24" y="-173.5" font-family="Helvetica,sans-Serif" font-size="10.00">int</text>
<polyline fill="none" stroke="black" points="9.5,-166.5 38.5,-166.5 "/>
<text text-anchor="middle" x="24" y="-154.5" font-family="Helvetica,sans-Serif" font-size="10.00"> </text>
<polyline fill="none" stroke="black" points="9.5,-147.5 38.5,-147.5 "/>
<text text-anchor="middle" x="24" y="-135.5" font-family="Helvetica,sans-Serif" font-size="10.00"> </text>
</a>
</g>
</g>
<!-- Node2&#45;&gt;Node1 -->
<g id="edge1" class="edge"><title>Node2&#45;&gt;Node1</title>
<path fill="none" stroke="#404040" d="M24,-128.349C24,-111.198 24,-88.8785 24,-69.8384"/>
<polygon fill="none" stroke="#404040" points="24.0001,-69.5867 20,-63.5868 24,-57.5867 28,-63.5867 24.0001,-69.5867"/>
<text text-anchor="middle" x="41" y="-101.5" font-family="Helvetica,sans-Serif" font-size="10.00"> +buf</text>
<text text-anchor="middle" x="41" y="-90.5" font-family="Helvetica,sans-Serif" font-size="10.00">+status</text>
<text text-anchor="middle" x="41" y="-79.5" font-family="Helvetica,sans-Serif" font-size="10.00">+lp</text>
</g>
</g>
</svg>
