<?xml version="1.0" encoding="UTF-8" standalone="no"?>
<!DOCTYPE svg PUBLIC "-//W3C//DTD SVG 1.1//EN"
 "http://www.w3.org/Graphics/SVG/1.1/DTD/svg11.dtd">
<!-- Generated by graphviz version 2.38.0 (20140413.2041)
 -->
<!-- Title: trap::GDBRequest Pages: 1 -->
<svg width="380pt" height="426pt"
 viewBox="0.00 0.00 380.34 426.00" xmlns="http://www.w3.org/2000/svg" xmlns:xlink="http://www.w3.org/1999/xlink">
<g id="graph0" class="graph" transform="scale(1 1) rotate(0) translate(4 422)">
<title>trap::GDBRequest</title>
<polygon fill="white" stroke="none" points="-4,4 -4,-422 376.337,-422 376.337,4 -4,4"/>
<!-- Node1 -->
<g id="node1" class="node"><title>Node1</title>
<polygon fill="#bfbfbf" stroke="black" points="56.6479,-0.5 56.6479,-54.5 154.352,-54.5 154.352,-0.5 56.6479,-0.5"/>
<text text-anchor="middle" x="105.5" y="-42.5" font-family="Helvetica,sans-Serif" font-size="10.00">trap::GDBRequest</text>
<polyline fill="none" stroke="black" points="56.6479,-36.5 154.352,-36.5 "/>
<text text-anchor="middle" x="105.5" y="-24.5" font-family="Helvetica,sans-Serif" font-size="10.00"> </text>
<polyline fill="none" stroke="black" points="56.6479,-18.5 154.352,-18.5 "/>
<text text-anchor="start" x="64.6479" y="-6.5" font-family="Helvetica,sans-Serif" font-size="10.00">+ GDBRequest()</text>
</g>
<!-- Node2 -->
<g id="node2" class="node"><title>Node2</title>
<g id="a_node2"><a xlink:href="classint.html" target="_top" xlink:title="{int\n||}">
<polygon fill="white" stroke="black" points="0,-146.5 0,-200.5 29,-200.5 29,-146.5 0,-146.5"/>
<text text-anchor="middle" x="14.2808" y="-188.5" font-family="Helvetica,sans-Serif" font-size="10.00">int</text>
<polyline fill="none" stroke="black" points="0,-182.5 28.5615,-182.5 "/>
<text text-anchor="middle" x="14.2808" y="-170.5" font-family="Helvetica,sans-Serif" font-size="10.00"> </text>
<polyline fill="none" stroke="black" points="0,-164.5 28.5615,-164.5 "/>
<text text-anchor="middle" x="14.2808" y="-152.5" font-family="Helvetica,sans-Serif" font-size="10.00"> </text>
</a>
</g>
</g>
<!-- Node2&#45;&gt;Node1 -->
<g id="edge1" class="edge"><title>Node2&#45;&gt;Node1</title>
<path fill="none" stroke="#404040" d="M12.7211,-146.179C12.5701,-124.723 15.4481,-94.5528 30.084,-73 34.4556,-66.5623 40.0942,-60.9199 46.3183,-56.0121"/>
<polygon fill="none" stroke="#404040" points="46.6526,-55.7781 49.2738,-49.0602 56.483,-48.896 53.8619,-55.6139 46.6526,-55.7781"/>
<text text-anchor="middle" x="51.208" y="-115" font-family="Helvetica,sans-Serif" font-size="10.00"> +value</text>
<text text-anchor="middle" x="51.208" y="-105" font-family="Helvetica,sans-Serif" font-size="10.00">+length</text>
<text text-anchor="middle" x="51.208" y="-95" font-family="Helvetica,sans-Serif" font-size="10.00">+reg</text>
<text text-anchor="middle" x="51.208" y="-85" font-family="Helvetica,sans-Serif" font-size="10.00">+signal</text>
<text text-anchor="middle" x="51.208" y="-75" font-family="Helvetica,sans-Serif" font-size="10.00">+address</text>
</g>
<!-- Node3 -->
<g id="node3" class="node"><title>Node3</title>
<polygon fill="white" stroke="#bfbfbf" points="52.6577,-146.5 52.6577,-200.5 90.3423,-200.5 90.3423,-146.5 52.6577,-146.5"/>
<text text-anchor="middle" x="71.5" y="-188.5" font-family="Helvetica,sans-Serif" font-size="10.00">Type</text>
<polyline fill="none" stroke="#bfbfbf" points="52.6577,-182.5 90.3423,-182.5 "/>
<text text-anchor="middle" x="71.5" y="-170.5" font-family="Helvetica,sans-Serif" font-size="10.00"> </text>
<polyline fill="none" stroke="#bfbfbf" points="52.6577,-164.5 90.3423,-164.5 "/>
<text text-anchor="middle" x="71.5" y="-152.5" font-family="Helvetica,sans-Serif" font-size="10.00"> </text>
</g>
<!-- Node3&#45;&gt;Node1 -->
<g id="edge2" class="edge"><title>Node3&#45;&gt;Node1</title>
<path fill="none" stroke="#404040" d="M72.9195,-146.291C74.5274,-125.967 77.9136,-97.2686 84.9805,-73 85.6405,-70.7333 86.3986,-68.4352 87.2256,-66.139"/>
<polygon fill="none" stroke="#404040" points="87.3007,-65.9534 85.8433,-58.8911 91.8018,-54.8295 93.2592,-61.8919 87.3007,-65.9534"/>
<text text-anchor="middle" x="99.2598" y="-95" font-family="Helvetica,sans-Serif" font-size="10.00"> +type</text>
</g>
<!-- Node4 -->
<g id="node4" class="node"><title>Node4</title>
<g id="a_node4"><a xlink:title="STL class. ">
<polygon fill="white" stroke="#bfbfbf" points="108.825,-146.5 108.825,-200.5 168.175,-200.5 168.175,-146.5 108.825,-146.5"/>
<text text-anchor="middle" x="138.5" y="-188.5" font-family="Helvetica,sans-Serif" font-size="10.00">std::string</text>
<polyline fill="none" stroke="#bfbfbf" points="108.825,-182.5 168.175,-182.5 "/>
<text text-anchor="middle" x="138.5" y="-170.5" font-family="Helvetica,sans-Serif" font-size="10.00"> </text>
<polyline fill="none" stroke="#bfbfbf" points="108.825,-164.5 168.175,-164.5 "/>
<text text-anchor="middle" x="138.5" y="-152.5" font-family="Helvetica,sans-Serif" font-size="10.00"> </text>
</a>
</g>
</g>
<!-- Node4&#45;&gt;Node1 -->
<g id="edge3" class="edge"><title>Node4&#45;&gt;Node1</title>
<path fill="none" stroke="#404040" d="M132.524,-146.423C127.416,-124.134 119.999,-91.7695 114.227,-66.5823"/>
<polygon fill="none" stroke="#404040" points="114.224,-66.5667 108.984,-61.6118 111.543,-54.8699 116.782,-59.8248 114.224,-66.5667"/>
<text text-anchor="middle" x="153.213" y="-100" font-family="Helvetica,sans-Serif" font-size="10.00"> +extension</text>
<text text-anchor="middle" x="153.213" y="-90" font-family="Helvetica,sans-Serif" font-size="10.00">+command</text>
</g>
<!-- Node5 -->
<g id="node5" class="node"><title>Node5</title>
<g id="a_node5"><a xlink:title="STL class. ">
<polygon fill="white" stroke="#bfbfbf" points="91.4521,-252.5 91.4521,-316.5 185.548,-316.5 185.548,-252.5 91.4521,-252.5"/>
<text text-anchor="start" x="99.4521" y="-304.5" font-family="Helvetica,sans-Serif" font-size="10.00">std::basic_string&lt;</text>
<text text-anchor="middle" x="138.5" y="-294.5" font-family="Helvetica,sans-Serif" font-size="10.00"> char &gt;</text>
<polyline fill="none" stroke="#bfbfbf" points="91.4521,-288.5 185.548,-288.5 "/>
<text text-anchor="middle" x="138.5" y="-276.5" font-family="Helvetica,sans-Serif" font-size="10.00"> </text>
<polyline fill="none" stroke="#bfbfbf" points="91.4521,-270.5 185.548,-270.5 "/>
<text text-anchor="middle" x="138.5" y="-258.5" font-family="Helvetica,sans-Serif" font-size="10.00"> </text>
</a>
</g>
</g>
<!-- Node5&#45;&gt;Node4 -->
<g id="edge4" class="edge"><title>Node5&#45;&gt;Node4</title>
<path fill="none" stroke="midnightblue" d="M138.5,-241.937C138.5,-228.042 138.5,-212.957 138.5,-200.584"/>
<polygon fill="none" stroke="midnightblue" points="135,-242.265 138.5,-252.265 142,-242.265 135,-242.265"/>
</g>
<!-- Node6 -->
<g id="node6" class="node"><title>Node6</title>
<polygon fill="white" stroke="#bfbfbf" points="185.832,-141.5 185.832,-205.5 297.168,-205.5 297.168,-141.5 185.832,-141.5"/>
<text text-anchor="start" x="193.832" y="-193.5" font-family="Helvetica,sans-Serif" font-size="10.00">std::vector&lt; unsigned</text>
<text text-anchor="middle" x="241.5" y="-183.5" font-family="Helvetica,sans-Serif" font-size="10.00"> char &gt;</text>
<polyline fill="none" stroke="#bfbfbf" points="185.832,-177.5 297.168,-177.5 "/>
<text text-anchor="middle" x="241.5" y="-165.5" font-family="Helvetica,sans-Serif" font-size="10.00"> </text>
<polyline fill="none" stroke="#bfbfbf" points="185.832,-159.5 297.168,-159.5 "/>
<text text-anchor="middle" x="241.5" y="-147.5" font-family="Helvetica,sans-Serif" font-size="10.00"> </text>
</g>
<!-- Node6&#45;&gt;Node1 -->
<g id="edge5" class="edge"><title>Node6&#45;&gt;Node1</title>
<path fill="none" stroke="#404040" d="M228.232,-141.447C218.038,-120.275 202.349,-92.6281 182.5,-73 177.168,-67.7279 171.089,-62.8546 164.737,-58.4187"/>
<polygon fill="none" stroke="#404040" points="164.653,-58.3643 157.443,-58.4402 154.599,-51.8133 161.81,-51.7374 164.653,-58.3643"/>
<text text-anchor="middle" x="232.541" y="-95" font-family="Helvetica,sans-Serif" font-size="10.00"> +data</text>
</g>
<!-- Node7 -->
<g id="node7" class="node"><title>Node7</title>
<g id="a_node7"><a xlink:href="classchar.html" target="_top" xlink:title="{char\n||}">
<polygon fill="white" stroke="black" points="213.773,-257.5 213.773,-311.5 249.227,-311.5 249.227,-257.5 213.773,-257.5"/>
<text text-anchor="middle" x="231.5" y="-299.5" font-family="Helvetica,sans-Serif" font-size="10.00">char</text>
<polyline fill="none" stroke="black" points="213.773,-293.5 249.227,-293.5 "/>
<text text-anchor="middle" x="231.5" y="-281.5" font-family="Helvetica,sans-Serif" font-size="10.00"> </text>
<polyline fill="none" stroke="black" points="213.773,-275.5 249.227,-275.5 "/>
<text text-anchor="middle" x="231.5" y="-263.5" font-family="Helvetica,sans-Serif" font-size="10.00"> </text>
</a>
</g>
</g>
<!-- Node7&#45;&gt;Node6 -->
<g id="edge6" class="edge"><title>Node7&#45;&gt;Node6</title>
<path fill="none" stroke="#404040" d="M232.826,-257.406C233.444,-247.002 234.274,-234.923 235.306,-224 235.499,-221.955 235.709,-219.864 235.932,-217.753"/>
<polygon fill="none" stroke="#404040" points="235.955,-217.55 232.66,-211.136 237.313,-205.627 240.608,-212.041 235.955,-217.55"/>
<text text-anchor="middle" x="259.097" y="-226" font-family="Helvetica,sans-Serif" font-size="10.00"> +elements</text>
</g>
<!-- Node8 -->
<g id="node8" class="node"><title>Node8</title>
<g id="a_node8"><a xlink:title="STL class. ">
<polygon fill="white" stroke="#bfbfbf" points="266.939,-257.5 266.939,-311.5 352.061,-311.5 352.061,-257.5 266.939,-257.5"/>
<text text-anchor="middle" x="309.5" y="-299.5" font-family="Helvetica,sans-Serif" font-size="10.00">std::vector&lt; T &gt;</text>
<polyline fill="none" stroke="#bfbfbf" points="266.939,-293.5 352.061,-293.5 "/>
<text text-anchor="middle" x="309.5" y="-281.5" font-family="Helvetica,sans-Serif" font-size="10.00"> </text>
<polyline fill="none" stroke="#bfbfbf" points="266.939,-275.5 352.061,-275.5 "/>
<text text-anchor="middle" x="309.5" y="-263.5" font-family="Helvetica,sans-Serif" font-size="10.00"> </text>
</a>
</g>
</g>
<!-- Node8&#45;&gt;Node6 -->
<g id="edge7" class="edge"><title>Node8&#45;&gt;Node6</title>
<path fill="none" stroke="orange" d="M296.79,-248.075C293.277,-239.918 289.137,-231.454 284.5,-224 280.592,-217.717 275.896,-211.434 271.064,-205.555"/>
<polygon fill="orange" stroke="orange" points="293.592,-249.503 300.619,-257.433 300.071,-246.852 293.592,-249.503"/>
<text text-anchor="middle" x="330.918" y="-226" font-family="Helvetica,sans-Serif" font-size="10.00"> &lt; unsigned char &gt;</text>
</g>
<!-- Node9 -->
<g id="node9" class="node"><title>Node9</title>
<polygon fill="white" stroke="#bfbfbf" points="295,-363.5 295,-417.5 324,-417.5 324,-363.5 295,-363.5"/>
<text text-anchor="middle" x="309.054" y="-405.5" font-family="Helvetica,sans-Serif" font-size="10.00">T</text>
<polyline fill="none" stroke="#bfbfbf" points="295,-399.5 323.108,-399.5 "/>
<text text-anchor="middle" x="309.054" y="-387.5" font-family="Helvetica,sans-Serif" font-size="10.00"> </text>
<polyline fill="none" stroke="#bfbfbf" points="295,-381.5 323.108,-381.5 "/>
<text text-anchor="middle" x="309.054" y="-369.5" font-family="Helvetica,sans-Serif" font-size="10.00"> </text>
</g>
<!-- Node9&#45;&gt;Node8 -->
<g id="edge8" class="edge"><title>Node9&#45;&gt;Node8</title>
<path fill="none" stroke="#404040" d="M309.5,-363.256C309.5,-351.309 309.5,-336.935 309.5,-323.813"/>
<polygon fill="none" stroke="#404040" points="309.5,-323.735 305.5,-317.735 309.5,-311.735 313.5,-317.735 309.5,-323.735"/>
<text text-anchor="middle" x="334.097" y="-337" font-family="Helvetica,sans-Serif" font-size="10.00"> +elements</text>
</g>
</g>
</svg>
