<?xml version="1.0" encoding="UTF-8" standalone="no"?>
<!DOCTYPE svg PUBLIC "-//W3C//DTD SVG 1.1//EN"
 "http://www.w3.org/Graphics/SVG/1.1/DTD/svg11.dtd">
<!-- Generated by graphviz version 2.38.0 (20140413.2041)
 -->
<!-- Title: trap::ProfInstruction Pages: 1 -->
<svg width="397pt" height="310pt"
 viewBox="0.00 0.00 396.50 310.00" xmlns="http://www.w3.org/2000/svg" xmlns:xlink="http://www.w3.org/1999/xlink">
<g id="graph0" class="graph" transform="scale(1 1) rotate(0) translate(4 306)">
<title>trap::ProfInstruction</title>
<polygon fill="white" stroke="none" points="-4,4 -4,-306 392.5,-306 392.5,4 -4,4"/>
<!-- Node1 -->
<g id="node1" class="node"><title>Node1</title>
<polygon fill="#bfbfbf" stroke="black" points="136,-0.5 136,-90.5 246,-90.5 246,-0.5 136,-0.5"/>
<text text-anchor="middle" x="191" y="-78.5" font-family="Helvetica,sans-Serif" font-size="10.00">trap::ProfInstruction</text>
<polyline fill="none" stroke="black" points="136,-71.5 246,-71.5 "/>
<text text-anchor="middle" x="191" y="-59.5" font-family="Helvetica,sans-Serif" font-size="10.00"> </text>
<polyline fill="none" stroke="black" points="136,-52.5 246,-52.5 "/>
<text text-anchor="start" x="144" y="-40.5" font-family="Helvetica,sans-Serif" font-size="10.00">+ printCsv()</text>
<text text-anchor="start" x="144" y="-29.5" font-family="Helvetica,sans-Serif" font-size="10.00">+ ProfInstruction()</text>
<text text-anchor="start" x="144" y="-18.5" font-family="Helvetica,sans-Serif" font-size="10.00">+ printCsvHeader()</text>
<text text-anchor="start" x="144" y="-7.5" font-family="Helvetica,sans-Serif" font-size="10.00">+ printCsvSummary()</text>
</g>
<!-- Node2 -->
<g id="node2" class="node"><title>Node2</title>
<polygon fill="white" stroke="#bfbfbf" points="0,-138.5 0,-195.5 98,-195.5 98,-138.5 0,-138.5"/>
<text text-anchor="middle" x="49" y="-183.5" font-family="Helvetica,sans-Serif" font-size="10.00">unsigned long long</text>
<polyline fill="none" stroke="#bfbfbf" points="0,-176.5 98,-176.5 "/>
<text text-anchor="middle" x="49" y="-164.5" font-family="Helvetica,sans-Serif" font-size="10.00"> </text>
<polyline fill="none" stroke="#bfbfbf" points="0,-157.5 98,-157.5 "/>
<text text-anchor="middle" x="49" y="-145.5" font-family="Helvetica,sans-Serif" font-size="10.00"> </text>
</g>
<!-- Node2&#45;&gt;Node1 -->
<g id="edge1" class="edge"><title>Node2&#45;&gt;Node1</title>
<path fill="none" stroke="#404040" d="M77.3499,-138.464C87.4654,-128.921 99.0654,-118.292 110,-109 115.289,-104.505 120.851,-99.9266 126.479,-95.3941"/>
<polygon fill="none" stroke="#404040" points="126.589,-95.307 128.792,-88.4406 135.977,-87.8329 133.774,-94.6994 126.589,-95.307"/>
<text text-anchor="middle" x="135.5" y="-112" font-family="Helvetica,sans-Serif" font-size="10.00"> +numCalls</text>
</g>
<!-- Node3 -->
<g id="node3" class="node"><title>Node3</title>
<g id="a_node3"><a xlink:title="STL class. ">
<polygon fill="white" stroke="#bfbfbf" points="116,-138.5 116,-195.5 176,-195.5 176,-138.5 116,-138.5"/>
<text text-anchor="middle" x="146" y="-183.5" font-family="Helvetica,sans-Serif" font-size="10.00">std::string</text>
<polyline fill="none" stroke="#bfbfbf" points="116,-176.5 176,-176.5 "/>
<text text-anchor="middle" x="146" y="-164.5" font-family="Helvetica,sans-Serif" font-size="10.00"> </text>
<polyline fill="none" stroke="#bfbfbf" points="116,-157.5 176,-157.5 "/>
<text text-anchor="middle" x="146" y="-145.5" font-family="Helvetica,sans-Serif" font-size="10.00"> </text>
</a>
</g>
</g>
<!-- Node3&#45;&gt;Node1 -->
<g id="edge2" class="edge"><title>Node3&#45;&gt;Node1</title>
<path fill="none" stroke="#404040" d="M156.437,-138.284C160.492,-127.515 165.29,-114.775 169.999,-102.269"/>
<polygon fill="none" stroke="#404040" points="170.047,-102.143 168.418,-95.1179 174.276,-90.9125 175.905,-97.9372 170.047,-102.143"/>
<text text-anchor="middle" x="185" y="-112" font-family="Helvetica,sans-Serif" font-size="10.00"> +name</text>
</g>
<!-- Node4 -->
<g id="node4" class="node"><title>Node4</title>
<g id="a_node4"><a xlink:title="STL class. ">
<polygon fill="white" stroke="#bfbfbf" points="98.5,-233.5 98.5,-301.5 193.5,-301.5 193.5,-233.5 98.5,-233.5"/>
<text text-anchor="start" x="106.5" y="-289.5" font-family="Helvetica,sans-Serif" font-size="10.00">std::basic_string&lt;</text>
<text text-anchor="middle" x="146" y="-278.5" font-family="Helvetica,sans-Serif" font-size="10.00"> char &gt;</text>
<polyline fill="none" stroke="#bfbfbf" points="98.5,-271.5 193.5,-271.5 "/>
<text text-anchor="middle" x="146" y="-259.5" font-family="Helvetica,sans-Serif" font-size="10.00"> </text>
<polyline fill="none" stroke="#bfbfbf" points="98.5,-252.5 193.5,-252.5 "/>
<text text-anchor="middle" x="146" y="-240.5" font-family="Helvetica,sans-Serif" font-size="10.00"> </text>
</a>
</g>
</g>
<!-- Node4&#45;&gt;Node3 -->
<g id="edge3" class="edge"><title>Node4&#45;&gt;Node3</title>
<path fill="none" stroke="midnightblue" d="M146,-223.375C146,-213.94 146,-204.201 146,-195.571"/>
<polygon fill="none" stroke="midnightblue" points="142.5,-223.427 146,-233.427 149.5,-223.427 142.5,-223.427"/>
</g>
<!-- Node5 -->
<g id="node5" class="node"><title>Node5</title>
<polygon fill="white" stroke="#bfbfbf" points="194.5,-138.5 194.5,-195.5 245.5,-195.5 245.5,-138.5 194.5,-138.5"/>
<text text-anchor="middle" x="220" y="-183.5" font-family="Helvetica,sans-Serif" font-size="10.00">sc_time</text>
<polyline fill="none" stroke="#bfbfbf" points="194.5,-176.5 245.5,-176.5 "/>
<text text-anchor="middle" x="220" y="-164.5" font-family="Helvetica,sans-Serif" font-size="10.00"> </text>
<polyline fill="none" stroke="#bfbfbf" points="194.5,-157.5 245.5,-157.5 "/>
<text text-anchor="middle" x="220" y="-145.5" font-family="Helvetica,sans-Serif" font-size="10.00"> </text>
</g>
<!-- Node5&#45;&gt;Node1 -->
<g id="edge4" class="edge"><title>Node5&#45;&gt;Node1</title>
<path fill="none" stroke="#404040" d="M213.274,-138.284C210.687,-127.625 207.632,-115.035 204.627,-102.652"/>
<polygon fill="none" stroke="#404040" points="204.608,-102.574 199.306,-97.6866 201.778,-90.9125 207.08,-95.7999 204.608,-102.574"/>
<text text-anchor="middle" x="223" y="-112" font-family="Helvetica,sans-Serif" font-size="10.00"> +time</text>
</g>
<!-- Node6 -->
<g id="node6" class="node"><title>Node6</title>
<polygon fill="white" stroke="#bfbfbf" points="263.5,-138.5 263.5,-195.5 388.5,-195.5 388.5,-138.5 263.5,-138.5"/>
<text text-anchor="middle" x="326" y="-183.5" font-family="Helvetica,sans-Serif" font-size="10.00">static unsigned long long</text>
<polyline fill="none" stroke="#bfbfbf" points="263.5,-176.5 388.5,-176.5 "/>
<text text-anchor="middle" x="326" y="-164.5" font-family="Helvetica,sans-Serif" font-size="10.00"> </text>
<polyline fill="none" stroke="#bfbfbf" points="263.5,-157.5 388.5,-157.5 "/>
<text text-anchor="middle" x="326" y="-145.5" font-family="Helvetica,sans-Serif" font-size="10.00"> </text>
</g>
<!-- Node6&#45;&gt;Node1 -->
<g id="edge5" class="edge"><title>Node6&#45;&gt;Node1</title>
<path fill="none" stroke="#404040" d="M294.689,-138.284C281.466,-126.579 265.612,-112.545 250.325,-99.0139"/>
<polygon fill="none" stroke="#404040" points="249.895,-98.6329 242.751,-97.6511 240.909,-90.6791 248.053,-91.6608 249.895,-98.6329"/>
<text text-anchor="middle" x="307.5" y="-112" font-family="Helvetica,sans-Serif" font-size="10.00"> +numTotalCalls</text>
</g>
</g>
</svg>
