<?xml version="1.0" encoding="UTF-8" standalone="no"?>
<!DOCTYPE svg PUBLIC "-//W3C//DTD SVG 1.1//EN"
 "http://www.w3.org/Graphics/SVG/1.1/DTD/svg11.dtd">
<!-- Generated by graphviz version 2.36.0 (20140111.2315)
 -->
<!-- Title: MDRVector Pages: 1 -->
<svg width="118pt" height="194pt"
 viewBox="0.00 0.00 118.00 194.00" xmlns="http://www.w3.org/2000/svg" xmlns:xlink="http://www.w3.org/1999/xlink">
<g id="graph0" class="graph" transform="scale(1 1) rotate(0) translate(4 190)">
<title>MDRVector</title>
<polygon fill="white" stroke="none" points="-4,4 -4,-190 114,-190 114,4 -4,4"/>
<!-- Node1 -->
<g id="node1" class="node"><title>Node1</title>
<polygon fill="#bfbfbf" stroke="black" points="21,-0.5 21,-57.5 89,-57.5 89,-0.5 21,-0.5"/>
<text text-anchor="middle" x="55" y="-45.5" font-family="Helvetica,sans-Serif" font-size="10.00">MDRVector</text>
<polyline fill="none" stroke="black" points="21,-38.5 89,-38.5 "/>
<text text-anchor="middle" x="55" y="-26.5" font-family="Helvetica,sans-Serif" font-size="10.00"> </text>
<polyline fill="none" stroke="black" points="21,-19.5 89,-19.5 "/>
<text text-anchor="middle" x="55" y="-7.5" font-family="Helvetica,sans-Serif" font-size="10.00"> </text>
</g>
<!-- Node2 -->
<g id="node2" class="node"><title>Node2</title>
<polygon fill="white" stroke="#bfbfbf" points="-0.5,-128.5 -0.5,-185.5 42.5,-185.5 42.5,-128.5 -0.5,-128.5"/>
<text text-anchor="middle" x="21" y="-173.5" font-family="Helvetica,sans-Serif" font-size="10.00">size_t</text>
<polyline fill="none" stroke="#bfbfbf" points="-0.5,-166.5 42.5,-166.5 "/>
<text text-anchor="middle" x="21" y="-154.5" font-family="Helvetica,sans-Serif" font-size="10.00"> </text>
<polyline fill="none" stroke="#bfbfbf" points="-0.5,-147.5 42.5,-147.5 "/>
<text text-anchor="middle" x="21" y="-135.5" font-family="Helvetica,sans-Serif" font-size="10.00"> </text>
</g>
<!-- Node2&#45;&gt;Node1 -->
<g id="edge1" class="edge"><title>Node2&#45;&gt;Node1</title>
<path fill="none" stroke="#404040" d="M17.312,-128.298C16.2054,-112.579 16.4945,-92.7591 22,-76 22.8474,-73.4205 23.8962,-70.862 25.093,-68.3501"/>
<polygon fill="none" stroke="#404040" points="25.2046,-68.1533 24.6841,-60.961 31.123,-57.7143 31.6434,-64.9066 25.2046,-68.1533"/>
<text text-anchor="middle" x="45" y="-101.5" font-family="Helvetica,sans-Serif" font-size="10.00"> +capacity</text>
<text text-anchor="middle" x="45" y="-90.5" font-family="Helvetica,sans-Serif" font-size="10.00">+elemsize</text>
<text text-anchor="middle" x="45" y="-79.5" font-family="Helvetica,sans-Serif" font-size="10.00">+size</text>
</g>
<!-- Node3 -->
<g id="node3" class="node"><title>Node3</title>
<polygon fill="white" stroke="#bfbfbf" points="69.5,-128.5 69.5,-185.5 110.5,-185.5 110.5,-128.5 69.5,-128.5"/>
<text text-anchor="middle" x="90" y="-173.5" font-family="Helvetica,sans-Serif" font-size="10.00">void *</text>
<polyline fill="none" stroke="#bfbfbf" points="69.5,-166.5 110.5,-166.5 "/>
<text text-anchor="middle" x="90" y="-154.5" font-family="Helvetica,sans-Serif" font-size="10.00"> </text>
<polyline fill="none" stroke="#bfbfbf" points="69.5,-147.5 110.5,-147.5 "/>
<text text-anchor="middle" x="90" y="-135.5" font-family="Helvetica,sans-Serif" font-size="10.00"> </text>
</g>
<!-- Node3&#45;&gt;Node1 -->
<g id="edge2" class="edge"><title>Node3&#45;&gt;Node1</title>
<path fill="none" stroke="#404040" d="M82.412,-128.219C78.1941,-112.824 72.8356,-93.3441 68,-76 67.4073,-73.8741 66.7974,-71.6935 66.1804,-69.4924"/>
<polygon fill="none" stroke="#404040" points="66.1187,-69.2729 60.6431,-64.5806 62.8685,-57.7214 68.3441,-62.4138 66.1187,-69.2729"/>
<text text-anchor="middle" x="91" y="-90.5" font-family="Helvetica,sans-Serif" font-size="10.00"> +data</text>
</g>
</g>
</svg>
