<?xml version="1.0" encoding="UTF-8" standalone="no"?>
<!DOCTYPE svg PUBLIC "-//W3C//DTD SVG 1.1//EN"
 "http://www.w3.org/Graphics/SVG/1.1/DTD/svg11.dtd">
<!-- Generated by graphviz version 2.38.0 (20140413.2041)
 -->
<!-- Title: MDRMultiIndex Pages: 1 -->
<svg width="93pt" height="193pt"
 viewBox="0.00 0.00 93.00 193.00" xmlns="http://www.w3.org/2000/svg" xmlns:xlink="http://www.w3.org/1999/xlink">
<g id="graph0" class="graph" transform="scale(1 1) rotate(0) translate(4 189)">
<title>MDRMultiIndex</title>
<polygon fill="white" stroke="none" points="-4,4 -4,-189 89,-189 89,4 -4,4"/>
<!-- Node1 -->
<g id="node1" class="node"><title>Node1</title>
<polygon fill="#bfbfbf" stroke="black" points="0,-0.5 0,-57.5 85,-57.5 85,-0.5 0,-0.5"/>
<text text-anchor="middle" x="42.5" y="-45.5" font-family="Helvetica,sans-Serif" font-size="10.00">MDRMultiIndex</text>
<polyline fill="none" stroke="black" points="0,-38.5 85,-38.5 "/>
<text text-anchor="middle" x="42.5" y="-26.5" font-family="Helvetica,sans-Serif" font-size="10.00"> </text>
<polyline fill="none" stroke="black" points="0,-19.5 85,-19.5 "/>
<text text-anchor="middle" x="42.5" y="-7.5" font-family="Helvetica,sans-Serif" font-size="10.00"> </text>
</g>
<!-- Node2 -->
<g id="node2" class="node"><title>Node2</title>
<polygon fill="white" stroke="#bfbfbf" points="21,-127.5 21,-184.5 64,-184.5 64,-127.5 21,-127.5"/>
<text text-anchor="middle" x="42.5" y="-172.5" font-family="Helvetica,sans-Serif" font-size="10.00">size_t</text>
<polyline fill="none" stroke="#bfbfbf" points="21,-165.5 64,-165.5 "/>
<text text-anchor="middle" x="42.5" y="-153.5" font-family="Helvetica,sans-Serif" font-size="10.00"> </text>
<polyline fill="none" stroke="#bfbfbf" points="21,-146.5 64,-146.5 "/>
<text text-anchor="middle" x="42.5" y="-134.5" font-family="Helvetica,sans-Serif" font-size="10.00"> </text>
</g>
<!-- Node2&#45;&gt;Node1 -->
<g id="edge1" class="edge"><title>Node2&#45;&gt;Node1</title>
<path fill="none" stroke="#404040" d="M42.5,-127.258C42.5,-110.347 42.5,-88.457 42.5,-69.7276"/>
<polygon fill="none" stroke="#404040" points="42.5001,-69.664 38.5,-63.664 42.5,-57.664 46.5,-63.664 42.5001,-69.664"/>
<text text-anchor="middle" x="61.5" y="-101" font-family="Helvetica,sans-Serif" font-size="10.00"> +dims</text>
<text text-anchor="middle" x="61.5" y="-90" font-family="Helvetica,sans-Serif" font-size="10.00">+n_dims</text>
<text text-anchor="middle" x="61.5" y="-79" font-family="Helvetica,sans-Serif" font-size="10.00">+size</text>
</g>
</g>
</svg>
