<?xml version="1.0" encoding="UTF-8" standalone="no"?>
<!DOCTYPE svg PUBLIC "-//W3C//DTD SVG 1.1//EN"
 "http://www.w3.org/Graphics/SVG/1.1/DTD/svg11.dtd">
<!-- Generated by graphviz version 2.36.0 (20140111.2315)
 -->
<!-- Title: l2timers Pages: 1 -->
<svg width="126pt" height="322pt"
 viewBox="0.00 0.00 126.00 322.00" xmlns="http://www.w3.org/2000/svg" xmlns:xlink="http://www.w3.org/1999/xlink">
<g id="graph0" class="graph" transform="scale(1 1) rotate(0) translate(4 318)">
<title>l2timers</title>
<polygon fill="white" stroke="none" points="-4,4 -4,-318 122,-318 122,4 -4,4"/>
<!-- Node1 -->
<g id="node1" class="node"><title>Node1</title>
<polygon fill="#bfbfbf" stroke="black" points="0.5,-0.5 0.5,-57.5 51.5,-57.5 51.5,-0.5 0.5,-0.5"/>
<text text-anchor="middle" x="26" y="-45.5" font-family="Helvetica,sans-Serif" font-size="10.00">l2timers</text>
<polyline fill="none" stroke="black" points="0.5,-38.5 51.5,-38.5 "/>
<text text-anchor="middle" x="26" y="-26.5" font-family="Helvetica,sans-Serif" font-size="10.00"> </text>
<polyline fill="none" stroke="black" points="0.5,-19.5 51.5,-19.5 "/>
<text text-anchor="middle" x="26" y="-7.5" font-family="Helvetica,sans-Serif" font-size="10.00"> </text>
</g>
<!-- Node2 -->
<g id="node2" class="node"><title>Node2</title>
<g id="a_node2"><a xlink:href="structtimerreg.html" target="_top" xlink:title="{timerreg\n||}">
<polygon fill="white" stroke="black" points="66,-106.5 66,-163.5 118,-163.5 118,-106.5 66,-106.5"/>
<text text-anchor="middle" x="92" y="-151.5" font-family="Helvetica,sans-Serif" font-size="10.00">timerreg</text>
<polyline fill="none" stroke="black" points="66,-144.5 118,-144.5 "/>
<text text-anchor="middle" x="92" y="-132.5" font-family="Helvetica,sans-Serif" font-size="10.00"> </text>
<polyline fill="none" stroke="black" points="66,-125.5 118,-125.5 "/>
<text text-anchor="middle" x="92" y="-113.5" font-family="Helvetica,sans-Serif" font-size="10.00"> </text>
</a>
</g>
</g>
<!-- Node2&#45;&gt;Node1 -->
<g id="edge1" class="edge"><title>Node2&#45;&gt;Node1</title>
<path fill="none" stroke="#404040" d="M74.4865,-106.403C67.0277,-94.6497 58.2038,-80.7453 50.1417,-68.0414"/>
<polygon fill="none" stroke="#404040" points="50.0253,-67.858 43.433,-64.9353 43.5954,-57.726 50.1876,-60.6487 50.0253,-67.858"/>
<text text-anchor="middle" x="75.5" y="-79.5" font-family="Helvetica,sans-Serif" font-size="10.00"> +timer</text>
</g>
<!-- Node3 -->
<g id="node3" class="node"><title>Node3</title>
<g id="a_node3"><a xlink:href="classint.html" target="_top" xlink:title="{int\n||}">
<polygon fill="white" stroke="black" points="11.5,-256.5 11.5,-313.5 40.5,-313.5 40.5,-256.5 11.5,-256.5"/>
<text text-anchor="middle" x="26" y="-301.5" font-family="Helvetica,sans-Serif" font-size="10.00">int</text>
<polyline fill="none" stroke="black" points="11.5,-294.5 40.5,-294.5 "/>
<text text-anchor="middle" x="26" y="-282.5" font-family="Helvetica,sans-Serif" font-size="10.00"> </text>
<polyline fill="none" stroke="black" points="11.5,-275.5 40.5,-275.5 "/>
<text text-anchor="middle" x="26" y="-263.5" font-family="Helvetica,sans-Serif" font-size="10.00"> </text>
</a>
</g>
</g>
<!-- Node3&#45;&gt;Node1 -->
<g id="edge3" class="edge"><title>Node3&#45;&gt;Node1</title>
<path fill="none" stroke="#404040" d="M17.6617,-256.208C8.23323,-221.145 -4.84661,-159.017 3,-106 4.79753,-93.8547 8.12813,-80.9614 11.7075,-69.3107"/>
<polygon fill="none" stroke="#404040" points="11.7704,-69.1168 9.81738,-62.1752 15.4739,-57.7026 17.4269,-64.6442 11.7704,-69.1168"/>
<text text-anchor="middle" x="30" y="-138" font-family="Helvetica,sans-Serif" font-size="10.00"> +scalerload</text>
<text text-anchor="middle" x="30" y="-127" font-family="Helvetica,sans-Serif" font-size="10.00">+scalercnt</text>
</g>
<!-- Node3&#45;&gt;Node2 -->
<g id="edge2" class="edge"><title>Node3&#45;&gt;Node2</title>
<path fill="none" stroke="#404040" d="M38.4141,-256.162C48.6467,-233.217 63.2761,-200.411 74.6645,-174.873"/>
<polygon fill="none" stroke="#404040" points="74.7541,-174.672 73.5446,-167.564 79.6416,-163.713 80.8511,-170.822 74.7541,-174.672"/>
<text text-anchor="middle" x="89.5" y="-229.5" font-family="Helvetica,sans-Serif" font-size="10.00"> +control</text>
<text text-anchor="middle" x="89.5" y="-218.5" font-family="Helvetica,sans-Serif" font-size="10.00">+reload</text>
<text text-anchor="middle" x="89.5" y="-207.5" font-family="Helvetica,sans-Serif" font-size="10.00">+counter</text>
<text text-anchor="middle" x="89.5" y="-196.5" font-family="Helvetica,sans-Serif" font-size="10.00">+dummy</text>
<text text-anchor="middle" x="89.5" y="-185.5" font-family="Helvetica,sans-Serif" font-size="10.00">+wdog</text>
</g>
</g>
</svg>
