<?xml version="1.0" encoding="UTF-8" standalone="no"?>
<!DOCTYPE svg PUBLIC "-//W3C//DTD SVG 1.1//EN"
 "http://www.w3.org/Graphics/SVG/1.1/DTD/svg11.dtd">
<!-- Generated by graphviz version 2.38.0 (20140413.2041)
 -->
<!-- Title: format_s Pages: 1 -->
<svg width="142pt" height="259pt"
 viewBox="0.00 0.00 141.50 259.00" xmlns="http://www.w3.org/2000/svg" xmlns:xlink="http://www.w3.org/1999/xlink">
<g id="graph0" class="graph" transform="scale(1 1) rotate(0) translate(4 255)">
<title>format_s</title>
<polygon fill="white" stroke="none" points="-4,4 -4,-255 137.5,-255 137.5,4 -4,4"/>
<!-- Node1 -->
<g id="node1" class="node"><title>Node1</title>
<polygon fill="#bfbfbf" stroke="black" points="18,-0.5 18,-57.5 73,-57.5 73,-0.5 18,-0.5"/>
<text text-anchor="middle" x="45.5" y="-45.5" font-family="Helvetica,sans-Serif" font-size="10.00">format_s</text>
<polyline fill="none" stroke="black" points="18,-38.5 73,-38.5 "/>
<text text-anchor="middle" x="45.5" y="-26.5" font-family="Helvetica,sans-Serif" font-size="10.00"> </text>
<polyline fill="none" stroke="black" points="18,-19.5 73,-19.5 "/>
<text text-anchor="middle" x="45.5" y="-7.5" font-family="Helvetica,sans-Serif" font-size="10.00"> </text>
</g>
<!-- Node2 -->
<g id="node2" class="node"><title>Node2</title>
<g id="a_node2"><a xlink:href="classchar.html" target="_top" xlink:title="{char\n||}">
<polygon fill="white" stroke="black" points="0,-193.5 0,-250.5 35,-250.5 35,-193.5 0,-193.5"/>
<text text-anchor="middle" x="17.5" y="-238.5" font-family="Helvetica,sans-Serif" font-size="10.00">char</text>
<polyline fill="none" stroke="black" points="0,-231.5 35,-231.5 "/>
<text text-anchor="middle" x="17.5" y="-219.5" font-family="Helvetica,sans-Serif" font-size="10.00"> </text>
<polyline fill="none" stroke="black" points="0,-212.5 35,-212.5 "/>
<text text-anchor="middle" x="17.5" y="-200.5" font-family="Helvetica,sans-Serif" font-size="10.00"> </text>
</a>
</g>
</g>
<!-- Node2&#45;&gt;Node1 -->
<g id="edge1" class="edge"><title>Node2&#45;&gt;Node1</title>
<path fill="none" stroke="#404040" d="M13.5154,-193.43C10.1917,-163.822 7.5676,-115.681 18.5,-76 19.1725,-73.5589 20.0094,-71.1144 20.9679,-68.6952"/>
<polygon fill="none" stroke="#404040" points="21.0526,-68.516 19.999,-61.3823 26.1788,-57.666 27.2324,-64.7998 21.0526,-68.516"/>
<text text-anchor="middle" x="35.5" y="-123" font-family="Helvetica,sans-Serif" font-size="10.00"> +name</text>
</g>
<!-- Node3 -->
<g id="node3" class="node"><title>Node3</title>
<g id="a_node3"><a xlink:href="classint.html" target="_top" xlink:title="{int\n||}">
<polygon fill="white" stroke="black" points="60,-193.5 60,-250.5 89,-250.5 89,-193.5 60,-193.5"/>
<text text-anchor="middle" x="74.5" y="-238.5" font-family="Helvetica,sans-Serif" font-size="10.00">int</text>
<polyline fill="none" stroke="black" points="60,-231.5 89,-231.5 "/>
<text text-anchor="middle" x="74.5" y="-219.5" font-family="Helvetica,sans-Serif" font-size="10.00"> </text>
<polyline fill="none" stroke="black" points="60,-212.5 89,-212.5 "/>
<text text-anchor="middle" x="74.5" y="-200.5" font-family="Helvetica,sans-Serif" font-size="10.00"> </text>
</a>
</g>
</g>
<!-- Node3&#45;&gt;Node1 -->
<g id="edge2" class="edge"><title>Node3&#45;&gt;Node1</title>
<path fill="none" stroke="#404040" d="M70.327,-193.472C65.9047,-164.305 58.7156,-116.906 52.5,-76 52.1913,-73.9685 51.8749,-71.8865 51.5552,-69.7841"/>
<polygon fill="none" stroke="#404040" points="51.5263,-69.5936 46.6695,-64.2633 49.7218,-57.73 54.5786,-63.0603 51.5263,-69.5936"/>
<text text-anchor="middle" x="100" y="-167" font-family="Helvetica,sans-Serif" font-size="10.00"> +hbporch</text>
<text text-anchor="middle" x="100" y="-156" font-family="Helvetica,sans-Serif" font-size="10.00">+vsync</text>
<text text-anchor="middle" x="100" y="-145" font-family="Helvetica,sans-Serif" font-size="10.00">+hsync</text>
<text text-anchor="middle" x="100" y="-134" font-family="Helvetica,sans-Serif" font-size="10.00">+hactive_video</text>
<text text-anchor="middle" x="100" y="-123" font-family="Helvetica,sans-Serif" font-size="10.00">+vfporch</text>
<text text-anchor="middle" x="100" y="-112" font-family="Helvetica,sans-Serif" font-size="10.00">+vactive_video</text>
<text text-anchor="middle" x="100" y="-101" font-family="Helvetica,sans-Serif" font-size="10.00">+vbporch</text>
<text text-anchor="middle" x="100" y="-90" font-family="Helvetica,sans-Serif" font-size="10.00">+hfporch</text>
<text text-anchor="middle" x="100" y="-79" font-family="Helvetica,sans-Serif" font-size="10.00">+period</text>
</g>
</g>
</svg>
