<?xml version="1.0" encoding="UTF-8" standalone="no"?>
<!DOCTYPE svg PUBLIC "-//W3C//DTD SVG 1.1//EN"
 "http://www.w3.org/Graphics/SVG/1.1/DTD/svg11.dtd">
<!-- Generated by graphviz version 2.36.0 (20140111.2315)
 -->
<!-- Title: l2regs Pages: 1 -->
<svg width="103pt" height="392pt"
 viewBox="0.00 0.00 103.00 392.00" xmlns="http://www.w3.org/2000/svg" xmlns:xlink="http://www.w3.org/1999/xlink">
<g id="graph0" class="graph" transform="scale(1 1) rotate(0) translate(4 388)">
<title>l2regs</title>
<polygon fill="white" stroke="none" points="-4,4 -4,-388 99,-388 99,4 -4,4"/>
<!-- Node1 -->
<g id="node1" class="node"><title>Node1</title>
<polygon fill="#bfbfbf" stroke="black" points="0,-0.5 0,-167.5 80,-167.5 80,-0.5 0,-0.5"/>
<text text-anchor="middle" x="40" y="-155.5" font-family="Helvetica,sans-Serif" font-size="10.00">l2regs</text>
<polyline fill="none" stroke="black" points="0,-148.5 80,-148.5 "/>
<text text-anchor="start" x="8" y="-136.5" font-family="Helvetica,sans-Serif" font-size="10.00">+ memcfg1</text>
<text text-anchor="start" x="8" y="-125.5" font-family="Helvetica,sans-Serif" font-size="10.00">+ memcfg2</text>
<text text-anchor="start" x="8" y="-114.5" font-family="Helvetica,sans-Serif" font-size="10.00">+ failaddr</text>
<text text-anchor="start" x="8" y="-103.5" font-family="Helvetica,sans-Serif" font-size="10.00">+ cachectrl</text>
<text text-anchor="start" x="8" y="-92.5" font-family="Helvetica,sans-Serif" font-size="10.00">+ powerdown</text>
<text text-anchor="start" x="8" y="-81.5" font-family="Helvetica,sans-Serif" font-size="10.00">+ leonconf</text>
<text text-anchor="start" x="8" y="-70.5" font-family="Helvetica,sans-Serif" font-size="10.00">+ dummy2</text>
<text text-anchor="start" x="8" y="-59.5" font-family="Helvetica,sans-Serif" font-size="10.00">+ dummy3</text>
<text text-anchor="start" x="8" y="-48.5" font-family="Helvetica,sans-Serif" font-size="10.00">+ dummy4</text>
<text text-anchor="start" x="8" y="-37.5" font-family="Helvetica,sans-Serif" font-size="10.00">+ dummy5</text>
<text text-anchor="start" x="8" y="-26.5" font-family="Helvetica,sans-Serif" font-size="10.00">and 35 more...</text>
<polyline fill="none" stroke="black" points="0,-19.5 80,-19.5 "/>
<text text-anchor="middle" x="40" y="-7.5" font-family="Helvetica,sans-Serif" font-size="10.00"> </text>
</g>
<!-- Node2 -->
<g id="node2" class="node"><title>Node2</title>
<polygon fill="white" stroke="#bfbfbf" points="12,-326.5 12,-383.5 68,-383.5 68,-326.5 12,-326.5"/>
<text text-anchor="middle" x="40" y="-371.5" font-family="Helvetica,sans-Serif" font-size="10.00">unsigned</text>
<polyline fill="none" stroke="#bfbfbf" points="12,-364.5 68,-364.5 "/>
<text text-anchor="middle" x="40" y="-352.5" font-family="Helvetica,sans-Serif" font-size="10.00"> </text>
<polyline fill="none" stroke="#bfbfbf" points="12,-345.5 68,-345.5 "/>
<text text-anchor="middle" x="40" y="-333.5" font-family="Helvetica,sans-Serif" font-size="10.00"> </text>
</g>
<!-- Node2&#45;&gt;Node1 -->
<g id="edge1" class="edge"><title>Node2&#45;&gt;Node1</title>
<path fill="none" stroke="#404040" d="M40,-326.476C40,-292.2 40,-231.838 40,-180.042"/>
<polygon fill="none" stroke="#404040" points="40.0001,-179.767 36,-173.767 40,-167.767 44,-173.767 40.0001,-179.767"/>
<text text-anchor="middle" x="67.5" y="-299.5" font-family="Helvetica,sans-Serif" font-size="10.00"> +piodir</text>
<text text-anchor="middle" x="67.5" y="-288.5" font-family="Helvetica,sans-Serif" font-size="10.00">+irqpend</text>
<text text-anchor="middle" x="67.5" y="-277.5" font-family="Helvetica,sans-Serif" font-size="10.00">+dcomctrl</text>
<text text-anchor="middle" x="67.5" y="-266.5" font-family="Helvetica,sans-Serif" font-size="10.00">+ectrl</text>
<text text-anchor="middle" x="67.5" y="-255.5" font-family="Helvetica,sans-Serif" font-size="10.00">+writeprot1</text>
<text text-anchor="middle" x="67.5" y="-244.5" font-family="Helvetica,sans-Serif" font-size="10.00">+writeprot2</text>
<text text-anchor="middle" x="67.5" y="-233.5" font-family="Helvetica,sans-Serif" font-size="10.00">+scalerload</text>
<text text-anchor="middle" x="67.5" y="-222.5" font-family="Helvetica,sans-Serif" font-size="10.00">+scalercnt</text>
<text text-anchor="middle" x="67.5" y="-211.5" font-family="Helvetica,sans-Serif" font-size="10.00">+memstatus</text>
<text text-anchor="middle" x="67.5" y="-200.5" font-family="Helvetica,sans-Serif" font-size="10.00">+wprot2a</text>
<text text-anchor="middle" x="67.5" y="-189.5" font-family="Helvetica,sans-Serif" font-size="10.00">...</text>
</g>
</g>
</svg>
