<?xml version="1.0" encoding="UTF-8" standalone="no"?>
<!DOCTYPE svg PUBLIC "-//W3C//DTD SVG 1.1//EN"
 "http://www.w3.org/Graphics/SVG/1.1/DTD/svg11.dtd">
<!-- Generated by graphviz version 2.38.0 (20140413.2041)
 -->
<!-- Title: apbps2_regs Pages: 1 -->
<svg width="83pt" height="204pt"
 viewBox="0.00 0.00 83.00 204.00" xmlns="http://www.w3.org/2000/svg" xmlns:xlink="http://www.w3.org/1999/xlink">
<g id="graph0" class="graph" transform="scale(1 1) rotate(0) translate(4 200)">
<title>apbps2_regs</title>
<polygon fill="white" stroke="none" points="-4,4 -4,-200 79,-200 79,4 -4,4"/>
<!-- Node1 -->
<g id="node1" class="node"><title>Node1</title>
<polygon fill="#bfbfbf" stroke="black" points="0,-0.5 0,-57.5 72,-57.5 72,-0.5 0,-0.5"/>
<text text-anchor="middle" x="36" y="-45.5" font-family="Helvetica,sans-Serif" font-size="10.00">apbps2_regs</text>
<polyline fill="none" stroke="black" points="0,-38.5 72,-38.5 "/>
<text text-anchor="middle" x="36" y="-26.5" font-family="Helvetica,sans-Serif" font-size="10.00"> </text>
<polyline fill="none" stroke="black" points="0,-19.5 72,-19.5 "/>
<text text-anchor="middle" x="36" y="-7.5" font-family="Helvetica,sans-Serif" font-size="10.00"> </text>
</g>
<!-- Node2 -->
<g id="node2" class="node"><title>Node2</title>
<polygon fill="white" stroke="#bfbfbf" points="8,-138.5 8,-195.5 64,-195.5 64,-138.5 8,-138.5"/>
<text text-anchor="middle" x="36" y="-183.5" font-family="Helvetica,sans-Serif" font-size="10.00">unsigned</text>
<polyline fill="none" stroke="#bfbfbf" points="8,-176.5 64,-176.5 "/>
<text text-anchor="middle" x="36" y="-164.5" font-family="Helvetica,sans-Serif" font-size="10.00"> </text>
<polyline fill="none" stroke="#bfbfbf" points="8,-157.5 64,-157.5 "/>
<text text-anchor="middle" x="36" y="-145.5" font-family="Helvetica,sans-Serif" font-size="10.00"> </text>
</g>
<!-- Node2&#45;&gt;Node1 -->
<g id="edge1" class="edge"><title>Node2&#45;&gt;Node1</title>
<path fill="none" stroke="#404040" d="M36,-138.478C36,-118.792 36,-91.9899 36,-69.9526"/>
<polygon fill="none" stroke="#404040" points="36.0001,-69.9475 32,-63.9475 36,-57.9475 40,-63.9475 36.0001,-69.9475"/>
<text text-anchor="middle" x="55.5" y="-112" font-family="Helvetica,sans-Serif" font-size="10.00"> +control</text>
<text text-anchor="middle" x="55.5" y="-101" font-family="Helvetica,sans-Serif" font-size="10.00">+data</text>
<text text-anchor="middle" x="55.5" y="-90" font-family="Helvetica,sans-Serif" font-size="10.00">+reload</text>
<text text-anchor="middle" x="55.5" y="-79" font-family="Helvetica,sans-Serif" font-size="10.00">+status</text>
</g>
</g>
</svg>
