<?xml version="1.0" encoding="UTF-8" standalone="no"?>
<!DOCTYPE svg PUBLIC "-//W3C//DTD SVG 1.1//EN"
 "http://www.w3.org/Graphics/SVG/1.1/DTD/svg11.dtd">
<!-- Generated by graphviz version 2.38.0 (20140413.2041)
 -->
<!-- Title: test8 Pages: 1 -->
<svg width="63pt" height="184pt"
 viewBox="0.00 0.00 62.69 184.00" xmlns="http://www.w3.org/2000/svg" xmlns:xlink="http://www.w3.org/1999/xlink">
<g id="graph0" class="graph" transform="scale(1 1) rotate(0) translate(4 180)">
<title>test8</title>
<polygon fill="white" stroke="none" points="-4,4 -4,-180 58.6943,-180 58.6943,4 -4,4"/>
<!-- Node1 -->
<g id="node1" class="node"><title>Node1</title>
<polygon fill="#bfbfbf" stroke="black" points="0,-0.5 0,-54.5 37.6797,-54.5 37.6797,-0.5 0,-0.5"/>
<text text-anchor="middle" x="18.8398" y="-42.5" font-family="Helvetica,sans-Serif" font-size="10.00">test8</text>
<polyline fill="none" stroke="black" points="0,-36.5 37.6797,-36.5 "/>
<text text-anchor="middle" x="18.8398" y="-24.5" font-family="Helvetica,sans-Serif" font-size="10.00"> </text>
<polyline fill="none" stroke="black" points="0,-18.5 37.6797,-18.5 "/>
<text text-anchor="middle" x="18.8398" y="-6.5" font-family="Helvetica,sans-Serif" font-size="10.00"> </text>
</g>
<!-- Node2 -->
<g id="node2" class="node"><title>Node2</title>
<g id="a_node2"><a xlink:href="classchar.html" target="_top" xlink:title="{char\n||}">
<polygon fill="white" stroke="black" points="1.11328,-121.5 1.11328,-175.5 36.5664,-175.5 36.5664,-121.5 1.11328,-121.5"/>
<text text-anchor="middle" x="18.8398" y="-163.5" font-family="Helvetica,sans-Serif" font-size="10.00">char</text>
<polyline fill="none" stroke="black" points="1.11328,-157.5 36.5664,-157.5 "/>
<text text-anchor="middle" x="18.8398" y="-145.5" font-family="Helvetica,sans-Serif" font-size="10.00"> </text>
<polyline fill="none" stroke="black" points="1.11328,-139.5 36.5664,-139.5 "/>
<text text-anchor="middle" x="18.8398" y="-127.5" font-family="Helvetica,sans-Serif" font-size="10.00"> </text>
</a>
</g>
</g>
<!-- Node2&#45;&gt;Node1 -->
<g id="edge1" class="edge"><title>Node2&#45;&gt;Node1</title>
<path fill="none" stroke="#404040" d="M18.8398,-121.385C18.8398,-105.342 18.8398,-84.5105 18.8398,-66.6423"/>
<polygon fill="none" stroke="#404040" points="18.8399,-66.5541 14.8399,-60.5542 18.8398,-54.5541 22.8399,-60.5541 18.8399,-66.5541"/>
<text text-anchor="middle" x="36.7671" y="-95" font-family="Helvetica,sans-Serif" font-size="10.00"> +cipher</text>
<text text-anchor="middle" x="36.7671" y="-85" font-family="Helvetica,sans-Serif" font-size="10.00">+plain</text>
<text text-anchor="middle" x="36.7671" y="-75" font-family="Helvetica,sans-Serif" font-size="10.00">+key</text>
</g>
</g>
</svg>
