<?xml version="1.0" encoding="UTF-8" standalone="no"?>
<!DOCTYPE svg PUBLIC "-//W3C//DTD SVG 1.1//EN"
 "http://www.w3.org/Graphics/SVG/1.1/DTD/svg11.dtd">
<!-- Generated by graphviz version 2.38.0 (20140413.2041)
 -->
<!-- Title: grpwm_pwm_regs Pages: 1 -->
<svg width="104pt" height="204pt"
 viewBox="0.00 0.00 104.00 204.00" xmlns="http://www.w3.org/2000/svg" xmlns:xlink="http://www.w3.org/1999/xlink">
<g id="graph0" class="graph" transform="scale(1 1) rotate(0) translate(4 200)">
<title>grpwm_pwm_regs</title>
<polygon fill="white" stroke="none" points="-4,4 -4,-200 100,-200 100,4 -4,4"/>
<!-- Node1 -->
<g id="node1" class="node"><title>Node1</title>
<polygon fill="#bfbfbf" stroke="black" points="0,-0.5 0,-57.5 96,-57.5 96,-0.5 0,-0.5"/>
<text text-anchor="middle" x="48" y="-45.5" font-family="Helvetica,sans-Serif" font-size="10.00">grpwm_pwm_regs</text>
<polyline fill="none" stroke="black" points="0,-38.5 96,-38.5 "/>
<text text-anchor="middle" x="48" y="-26.5" font-family="Helvetica,sans-Serif" font-size="10.00"> </text>
<polyline fill="none" stroke="black" points="0,-19.5 96,-19.5 "/>
<text text-anchor="middle" x="48" y="-7.5" font-family="Helvetica,sans-Serif" font-size="10.00"> </text>
</g>
<!-- Node2 -->
<g id="node2" class="node"><title>Node2</title>
<g id="a_node2"><a xlink:href="classint.html" target="_top" xlink:title="{int\n||}">
<polygon fill="white" stroke="black" points="33.5,-138.5 33.5,-195.5 62.5,-195.5 62.5,-138.5 33.5,-138.5"/>
<text text-anchor="middle" x="48" y="-183.5" font-family="Helvetica,sans-Serif" font-size="10.00">int</text>
<polyline fill="none" stroke="black" points="33.5,-176.5 62.5,-176.5 "/>
<text text-anchor="middle" x="48" y="-164.5" font-family="Helvetica,sans-Serif" font-size="10.00"> </text>
<polyline fill="none" stroke="black" points="33.5,-157.5 62.5,-157.5 "/>
<text text-anchor="middle" x="48" y="-145.5" font-family="Helvetica,sans-Serif" font-size="10.00"> </text>
</a>
</g>
</g>
<!-- Node2&#45;&gt;Node1 -->
<g id="edge1" class="edge"><title>Node2&#45;&gt;Node1</title>
<path fill="none" stroke="#404040" d="M48,-138.478C48,-118.792 48,-91.9899 48,-69.9526"/>
<polygon fill="none" stroke="#404040" points="48.0001,-69.9475 44,-63.9475 48,-57.9475 52,-63.9475 48.0001,-69.9475"/>
<text text-anchor="middle" x="63.5" y="-112" font-family="Helvetica,sans-Serif" font-size="10.00"> +ctrl</text>
<text text-anchor="middle" x="63.5" y="-101" font-family="Helvetica,sans-Serif" font-size="10.00">+db</text>
<text text-anchor="middle" x="63.5" y="-90" font-family="Helvetica,sans-Serif" font-size="10.00">+comp</text>
<text text-anchor="middle" x="63.5" y="-79" font-family="Helvetica,sans-Serif" font-size="10.00">+per</text>
</g>
</g>
</svg>
