<?xml version="1.0" encoding="UTF-8" standalone="no"?>
<!DOCTYPE svg PUBLIC "-//W3C//DTD SVG 1.1//EN"
 "http://www.w3.org/Graphics/SVG/1.1/DTD/svg11.dtd">
<!-- Generated by graphviz version 2.38.0 (20140413.2041)
 -->
<!-- Title: filter Pages: 1 -->
<svg width="250pt" height="405pt"
 viewBox="0.00 0.00 249.79 405.00" xmlns="http://www.w3.org/2000/svg" xmlns:xlink="http://www.w3.org/1999/xlink">
<g id="graph0" class="graph" transform="scale(1 1) rotate(0) translate(4 401)">
<title>filter</title>
<polygon fill="white" stroke="none" points="-4,4 -4,-401 245.785,-401 245.785,4 -4,4"/>
<!-- Node1 -->
<g id="node1" class="node"><title>Node1</title>
<polygon fill="#bfbfbf" stroke="black" points="94.2056,-0.5 94.2056,-84.5 146.07,-84.5 146.07,-0.5 94.2056,-0.5"/>
<text text-anchor="middle" x="120.138" y="-72.5" font-family="Helvetica,sans-Serif" font-size="10.00">filter</text>
<polyline fill="none" stroke="black" points="94.2056,-66.5 146.07,-66.5 "/>
<text text-anchor="start" x="102.206" y="-54.5" font-family="Helvetica,sans-Serif" font-size="10.00">+ buflen</text>
<text text-anchor="start" x="102.206" y="-44.5" font-family="Helvetica,sans-Serif" font-size="10.00">+ K</text>
<text text-anchor="start" x="102.206" y="-34.5" font-family="Helvetica,sans-Serif" font-size="10.00">+ L</text>
<text text-anchor="start" x="102.206" y="-24.5" font-family="Helvetica,sans-Serif" font-size="10.00">+ m</text>
<polyline fill="none" stroke="black" points="94.2056,-18.5 146.07,-18.5 "/>
<text text-anchor="middle" x="120.138" y="-6.5" font-family="Helvetica,sans-Serif" font-size="10.00"> </text>
</g>
<!-- Node2 -->
<g id="node2" class="node"><title>Node2</title>
<polygon fill="white" stroke="#bfbfbf" points="0,-231.5 0,-285.5 78.2754,-285.5 78.2754,-231.5 0,-231.5"/>
<text text-anchor="middle" x="39.1377" y="-273.5" font-family="Helvetica,sans-Serif" font-size="10.00">unsigned long</text>
<polyline fill="none" stroke="#bfbfbf" points="0,-267.5 78.2754,-267.5 "/>
<text text-anchor="middle" x="39.1377" y="-255.5" font-family="Helvetica,sans-Serif" font-size="10.00"> </text>
<polyline fill="none" stroke="#bfbfbf" points="0,-249.5 78.2754,-249.5 "/>
<text text-anchor="middle" x="39.1377" y="-237.5" font-family="Helvetica,sans-Serif" font-size="10.00"> </text>
</g>
<!-- Node2&#45;&gt;Node1 -->
<g id="edge1" class="edge"><title>Node2&#45;&gt;Node1</title>
<path fill="none" stroke="#404040" d="M45.8229,-231.267C54.1352,-200.092 69.5154,-146.785 88.0566,-103 89.0977,-100.541 90.2071,-98.05 91.3645,-95.5509"/>
<polygon fill="none" stroke="#404040" points="91.4315,-95.4131 90.4605,-88.2676 96.6828,-84.623 97.6539,-91.7685 91.4315,-95.4131"/>
<text text-anchor="middle" x="102.178" y="-165" font-family="Helvetica,sans-Serif" font-size="10.00"> +tend</text>
<text text-anchor="middle" x="102.178" y="-155" font-family="Helvetica,sans-Serif" font-size="10.00">+tstart</text>
<text text-anchor="middle" x="102.178" y="-145" font-family="Helvetica,sans-Serif" font-size="10.00">+i</text>
</g>
<!-- Node3 -->
<g id="node3" class="node"><title>Node3</title>
<g id="a_node3"><a xlink:href="structcomplex.html" target="_top" xlink:title="{complex\n||}">
<polygon fill="white" stroke="black" points="96.5195,-231.5 96.5195,-285.5 149.756,-285.5 149.756,-231.5 96.5195,-231.5"/>
<text text-anchor="middle" x="123.138" y="-273.5" font-family="Helvetica,sans-Serif" font-size="10.00">complex</text>
<polyline fill="none" stroke="black" points="96.5195,-267.5 149.756,-267.5 "/>
<text text-anchor="middle" x="123.138" y="-255.5" font-family="Helvetica,sans-Serif" font-size="10.00"> </text>
<polyline fill="none" stroke="black" points="96.5195,-249.5 149.756,-249.5 "/>
<text text-anchor="middle" x="123.138" y="-237.5" font-family="Helvetica,sans-Serif" font-size="10.00"> </text>
</a>
</g>
</g>
<!-- Node3&#45;&gt;Node1 -->
<g id="edge2" class="edge"><title>Node3&#45;&gt;Node1</title>
<path fill="none" stroke="#404040" d="M121.493,-231.155C121.181,-225.187 120.901,-218.878 120.731,-213 119.613,-174.136 119.491,-130.24 119.635,-96.8575"/>
<polygon fill="none" stroke="#404040" points="119.636,-96.6103 115.669,-90.5886 119.701,-84.6105 123.669,-90.6321 119.636,-96.6103"/>
<text text-anchor="middle" x="141.841" y="-195" font-family="Helvetica,sans-Serif" font-size="10.00"> +HHnew</text>
<text text-anchor="middle" x="141.841" y="-185" font-family="Helvetica,sans-Serif" font-size="10.00">+HHold</text>
<text text-anchor="middle" x="141.841" y="-175" font-family="Helvetica,sans-Serif" font-size="10.00">+XX</text>
<text text-anchor="middle" x="141.841" y="-165" font-family="Helvetica,sans-Serif" font-size="10.00">+HH</text>
<text text-anchor="middle" x="141.841" y="-155" font-family="Helvetica,sans-Serif" font-size="10.00">+wf</text>
<text text-anchor="middle" x="141.841" y="-145" font-family="Helvetica,sans-Serif" font-size="10.00">+x</text>
<text text-anchor="middle" x="141.841" y="-135" font-family="Helvetica,sans-Serif" font-size="10.00">+y</text>
<text text-anchor="middle" x="141.841" y="-125" font-family="Helvetica,sans-Serif" font-size="10.00">+Y</text>
<text text-anchor="middle" x="141.841" y="-115" font-family="Helvetica,sans-Serif" font-size="10.00">+wi</text>
</g>
<!-- Node4 -->
<g id="node4" class="node"><title>Node4</title>
<g id="a_node4"><a xlink:href="classdouble.html" target="_top" xlink:title="{double\n||}">
<polygon fill="white" stroke="black" points="100.123,-342.5 100.123,-396.5 146.152,-396.5 146.152,-342.5 100.123,-342.5"/>
<text text-anchor="middle" x="123.138" y="-384.5" font-family="Helvetica,sans-Serif" font-size="10.00">double</text>
<polyline fill="none" stroke="black" points="100.123,-378.5 146.152,-378.5 "/>
<text text-anchor="middle" x="123.138" y="-366.5" font-family="Helvetica,sans-Serif" font-size="10.00"> </text>
<polyline fill="none" stroke="black" points="100.123,-360.5 146.152,-360.5 "/>
<text text-anchor="middle" x="123.138" y="-348.5" font-family="Helvetica,sans-Serif" font-size="10.00"> </text>
</a>
</g>
</g>
<!-- Node4&#45;&gt;Node3 -->
<g id="edge3" class="edge"><title>Node4&#45;&gt;Node3</title>
<path fill="none" stroke="#404040" d="M123.138,-342.392C123.138,-329.142 123.138,-312.786 123.138,-298.113"/>
<polygon fill="none" stroke="#404040" points="123.138,-297.773 119.138,-291.773 123.138,-285.773 127.138,-291.773 123.138,-297.773"/>
<text text-anchor="middle" x="132.723" y="-316" font-family="Helvetica,sans-Serif" font-size="10.00"> +im</text>
<text text-anchor="middle" x="132.723" y="-306" font-family="Helvetica,sans-Serif" font-size="10.00">+re</text>
</g>
<!-- Node5 -->
<g id="node5" class="node"><title>Node5</title>
<g id="a_node5"><a xlink:href="classint.html" target="_top" xlink:title="{int\n||}">
<polygon fill="white" stroke="black" points="169.638,-231.5 169.638,-285.5 198.638,-285.5 198.638,-231.5 169.638,-231.5"/>
<text text-anchor="middle" x="183.918" y="-273.5" font-family="Helvetica,sans-Serif" font-size="10.00">int</text>
<polyline fill="none" stroke="black" points="169.638,-267.5 198.199,-267.5 "/>
<text text-anchor="middle" x="183.918" y="-255.5" font-family="Helvetica,sans-Serif" font-size="10.00"> </text>
<polyline fill="none" stroke="black" points="169.638,-249.5 198.199,-249.5 "/>
<text text-anchor="middle" x="183.918" y="-237.5" font-family="Helvetica,sans-Serif" font-size="10.00"> </text>
</a>
</g>
</g>
<!-- Node5&#45;&gt;Node1 -->
<g id="edge4" class="edge"><title>Node5&#45;&gt;Node1</title>
<path fill="none" stroke="#404040" d="M184.113,-231.4C183.262,-199.892 179.139,-145.806 162.138,-103 159.687,-96.8306 156.476,-90.6892 152.918,-84.8238"/>
<polygon fill="none" stroke="#404040" points="152.807,-84.6548 146.173,-81.8287 146.23,-74.6178 152.864,-77.4439 152.807,-84.6548"/>
<text text-anchor="middle" x="212.461" y="-205" font-family="Helvetica,sans-Serif" font-size="10.00"> +sharemode</text>
<text text-anchor="middle" x="212.461" y="-195" font-family="Helvetica,sans-Serif" font-size="10.00">+ylen</text>
<text text-anchor="middle" x="212.461" y="-185" font-family="Helvetica,sans-Serif" font-size="10.00">+hlen</text>
<text text-anchor="middle" x="212.461" y="-175" font-family="Helvetica,sans-Serif" font-size="10.00">+R</text>
<text text-anchor="middle" x="212.461" y="-165" font-family="Helvetica,sans-Serif" font-size="10.00">+finishing</text>
<text text-anchor="middle" x="212.461" y="-155" font-family="Helvetica,sans-Serif" font-size="10.00">+xlen</text>
<text text-anchor="middle" x="212.461" y="-145" font-family="Helvetica,sans-Serif" font-size="10.00">+S</text>
<text text-anchor="middle" x="212.461" y="-135" font-family="Helvetica,sans-Serif" font-size="10.00">+hassignal</text>
<text text-anchor="middle" x="212.461" y="-125" font-family="Helvetica,sans-Serif" font-size="10.00">+xframes</text>
<text text-anchor="middle" x="212.461" y="-115" font-family="Helvetica,sans-Serif" font-size="10.00">+hastail</text>
<text text-anchor="middle" x="212.461" y="-105" font-family="Helvetica,sans-Serif" font-size="10.00">...</text>
</g>
</g>
</svg>
