<?xml version="1.0" encoding="UTF-8" standalone="no"?>
<!DOCTYPE svg PUBLIC "-//W3C//DTD SVG 1.1//EN"
 "http://www.w3.org/Graphics/SVG/1.1/DTD/svg11.dtd">
<!-- Generated by graphviz version 2.36.0 (20140111.2315)
 -->
<!-- Title: ReliabilityCell&lt; WIDTH &gt; Pages: 1 -->
<svg width="232pt" height="172pt"
 viewBox="0.00 0.00 232.00 172.00" xmlns="http://www.w3.org/2000/svg" xmlns:xlink="http://www.w3.org/1999/xlink">
<g id="graph0" class="graph" transform="scale(1 1) rotate(0) translate(4 168)">
<title>ReliabilityCell&lt; WIDTH &gt;</title>
<polygon fill="white" stroke="none" points="-4,4 -4,-168 228,-168 228,4 -4,4"/>
<!-- Node1 -->
<g id="node1" class="node"><title>Node1</title>
<polygon fill="#bfbfbf" stroke="black" points="20,-0.5 20,-57.5 148,-57.5 148,-0.5 20,-0.5"/>
<text text-anchor="middle" x="84" y="-45.5" font-family="Helvetica,sans-Serif" font-size="10.00">ReliabilityCell&lt; WIDTH &gt;</text>
<polyline fill="none" stroke="black" points="20,-38.5 148,-38.5 "/>
<text text-anchor="middle" x="84" y="-26.5" font-family="Helvetica,sans-Serif" font-size="10.00"> </text>
<polyline fill="none" stroke="black" points="20,-19.5 148,-19.5 "/>
<text text-anchor="start" x="28" y="-7.5" font-family="Helvetica,sans-Serif" font-size="10.00">+ ReliabilityCell()</text>
</g>
<!-- Node2 -->
<g id="node2" class="node"><title>Node2</title>
<polygon fill="white" stroke="#bfbfbf" points="-0.5,-106.5 -0.5,-163.5 40.5,-163.5 40.5,-106.5 -0.5,-106.5"/>
<text text-anchor="middle" x="20" y="-151.5" font-family="Helvetica,sans-Serif" font-size="10.00">Mode</text>
<polyline fill="none" stroke="#bfbfbf" points="-0.5,-144.5 40.5,-144.5 "/>
<text text-anchor="middle" x="20" y="-132.5" font-family="Helvetica,sans-Serif" font-size="10.00"> </text>
<polyline fill="none" stroke="#bfbfbf" points="-0.5,-125.5 40.5,-125.5 "/>
<text text-anchor="middle" x="20" y="-113.5" font-family="Helvetica,sans-Serif" font-size="10.00"> </text>
</g>
<!-- Node2&#45;&gt;Node1 -->
<g id="edge1" class="edge"><title>Node2&#45;&gt;Node1</title>
<path fill="none" stroke="#404040" d="M30.5837,-106.372C34.8305,-96.4918 40.1183,-85.4669 46,-76 47.7339,-73.2092 49.6216,-70.4037 51.5982,-67.6302"/>
<polygon fill="none" stroke="#404040" points="51.789,-67.378 52.2197,-60.1798 59.0299,-57.8089 58.5992,-65.0071 51.789,-67.378"/>
<text text-anchor="middle" x="63" y="-79.5" font-family="Helvetica,sans-Serif" font-size="10.00"> +mode</text>
</g>
<!-- Node3 -->
<g id="node3" class="node"><title>Node3</title>
<polygon fill="white" stroke="#bfbfbf" points="59,-106.5 59,-163.5 109,-163.5 109,-106.5 59,-106.5"/>
<text text-anchor="middle" x="84" y="-151.5" font-family="Helvetica,sans-Serif" font-size="10.00">WIDTH</text>
<polyline fill="none" stroke="#bfbfbf" points="59,-144.5 109,-144.5 "/>
<text text-anchor="middle" x="84" y="-132.5" font-family="Helvetica,sans-Serif" font-size="10.00"> </text>
<polyline fill="none" stroke="#bfbfbf" points="59,-125.5 109,-125.5 "/>
<text text-anchor="middle" x="84" y="-113.5" font-family="Helvetica,sans-Serif" font-size="10.00"> </text>
</g>
<!-- Node3&#45;&gt;Node1 -->
<g id="edge2" class="edge"><title>Node3&#45;&gt;Node1</title>
<path fill="none" stroke="#404040" d="M84,-106.403C84,-95.2373 84,-82.1304 84,-69.9556"/>
<polygon fill="none" stroke="#404040" points="84.0001,-69.726 80,-63.726 84,-57.726 88,-63.726 84.0001,-69.726"/>
<text text-anchor="middle" x="105" y="-79.5" font-family="Helvetica,sans-Serif" font-size="10.00"> +orMask</text>
</g>
<!-- Node4 -->
<g id="node4" class="node"><title>Node4</title>
<polygon fill="white" stroke="#bfbfbf" points="127.5,-106.5 127.5,-163.5 224.5,-163.5 224.5,-106.5 127.5,-106.5"/>
<text text-anchor="middle" x="176" y="-151.5" font-family="Helvetica,sans-Serif" font-size="10.00">Type type WIDTH</text>
<polyline fill="none" stroke="#bfbfbf" points="127.5,-144.5 224.5,-144.5 "/>
<text text-anchor="middle" x="176" y="-132.5" font-family="Helvetica,sans-Serif" font-size="10.00"> </text>
<polyline fill="none" stroke="#bfbfbf" points="127.5,-125.5 224.5,-125.5 "/>
<text text-anchor="middle" x="176" y="-113.5" font-family="Helvetica,sans-Serif" font-size="10.00"> </text>
</g>
<!-- Node4&#45;&gt;Node1 -->
<g id="edge3" class="edge"><title>Node4&#45;&gt;Node1</title>
<path fill="none" stroke="#404040" d="M155.099,-106.324C147.441,-96.5433 138.551,-85.5944 130,-76 127.21,-72.8698 124.262,-69.6801 121.26,-66.514"/>
<polygon fill="none" stroke="#404040" points="121.094,-66.3423 114.047,-64.8153 112.746,-57.7225 119.793,-59.2495 121.094,-66.3423"/>
<text text-anchor="middle" x="164.5" y="-79.5" font-family="Helvetica,sans-Serif" font-size="10.00"> +andMask</text>
</g>
</g>
</svg>
