<?xml version="1.0" encoding="UTF-8" standalone="no"?>
<!DOCTYPE svg PUBLIC "-//W3C//DTD SVG 1.1//EN"
 "http://www.w3.org/Graphics/SVG/1.1/DTD/svg11.dtd">
<!-- Generated by graphviz version 2.38.0 (20140413.2041)
 -->
<!-- Title: ehc_itd Pages: 1 -->
<svg width="65pt" height="184pt"
 viewBox="0.00 0.00 64.64 184.00" xmlns="http://www.w3.org/2000/svg" xmlns:xlink="http://www.w3.org/1999/xlink">
<g id="graph0" class="graph" transform="scale(1 1) rotate(0) translate(4 180)">
<title>ehc_itd</title>
<polygon fill="white" stroke="none" points="-4,4 -4,-180 60.6426,-180 60.6426,4 -4,4"/>
<!-- Node1 -->
<g id="node1" class="node"><title>Node1</title>
<polygon fill="#bfbfbf" stroke="black" points="0,-0.5 0,-54.5 48.2461,-54.5 48.2461,-0.5 0,-0.5"/>
<text text-anchor="middle" x="24.123" y="-42.5" font-family="Helvetica,sans-Serif" font-size="10.00">ehc_itd</text>
<polyline fill="none" stroke="black" points="0,-36.5 48.2461,-36.5 "/>
<text text-anchor="middle" x="24.123" y="-24.5" font-family="Helvetica,sans-Serif" font-size="10.00"> </text>
<polyline fill="none" stroke="black" points="0,-18.5 48.2461,-18.5 "/>
<text text-anchor="middle" x="24.123" y="-6.5" font-family="Helvetica,sans-Serif" font-size="10.00"> </text>
</g>
<!-- Node2 -->
<g id="node2" class="node"><title>Node2</title>
<g id="a_node2"><a xlink:href="classint.html" target="_top" xlink:title="{int\n||}">
<polygon fill="white" stroke="black" points="9.62305,-121.5 9.62305,-175.5 38.623,-175.5 38.623,-121.5 9.62305,-121.5"/>
<text text-anchor="middle" x="23.9038" y="-163.5" font-family="Helvetica,sans-Serif" font-size="10.00">int</text>
<polyline fill="none" stroke="black" points="9.62305,-157.5 38.1846,-157.5 "/>
<text text-anchor="middle" x="23.9038" y="-145.5" font-family="Helvetica,sans-Serif" font-size="10.00"> </text>
<polyline fill="none" stroke="black" points="9.62305,-139.5 38.1846,-139.5 "/>
<text text-anchor="middle" x="23.9038" y="-127.5" font-family="Helvetica,sans-Serif" font-size="10.00"> </text>
</a>
</g>
</g>
<!-- Node2&#45;&gt;Node1 -->
<g id="edge1" class="edge"><title>Node2&#45;&gt;Node1</title>
<path fill="none" stroke="#404040" d="M24.123,-121.385C24.123,-105.342 24.123,-84.5105 24.123,-66.6423"/>
<polygon fill="none" stroke="#404040" points="24.1231,-66.5541 20.1231,-60.5542 24.123,-54.5541 28.1231,-60.5541 24.1231,-66.5541"/>
<text text-anchor="middle" x="40.3828" y="-95" font-family="Helvetica,sans-Serif" font-size="10.00"> +buf</text>
<text text-anchor="middle" x="40.3828" y="-85" font-family="Helvetica,sans-Serif" font-size="10.00">+status</text>
<text text-anchor="middle" x="40.3828" y="-75" font-family="Helvetica,sans-Serif" font-size="10.00">+lp</text>
</g>
</g>
</svg>
