<?xml version="1.0" encoding="UTF-8" standalone="no"?>
<!DOCTYPE svg PUBLIC "-//W3C//DTD SVG 1.1//EN"
 "http://www.w3.org/Graphics/SVG/1.1/DTD/svg11.dtd">
<!-- Generated by graphviz version 2.38.0 (20140413.2041)
 -->
<!-- Title: uhcregs Pages: 1 -->
<svg width="92pt" height="204pt"
 viewBox="0.00 0.00 91.87 204.00" xmlns="http://www.w3.org/2000/svg" xmlns:xlink="http://www.w3.org/1999/xlink">
<g id="graph0" class="graph" transform="scale(1 1) rotate(0) translate(4 200)">
<title>uhcregs</title>
<polygon fill="white" stroke="none" points="-4,4 -4,-200 87.874,-200 87.874,4 -4,4"/>
<!-- Node1 -->
<g id="node1" class="node"><title>Node1</title>
<polygon fill="#bfbfbf" stroke="black" points="0,-0.5 0,-54.5 51.5762,-54.5 51.5762,-0.5 0,-0.5"/>
<text text-anchor="middle" x="25.7881" y="-42.5" font-family="Helvetica,sans-Serif" font-size="10.00">uhcregs</text>
<polyline fill="none" stroke="black" points="0,-36.5 51.5762,-36.5 "/>
<text text-anchor="middle" x="25.7881" y="-24.5" font-family="Helvetica,sans-Serif" font-size="10.00"> </text>
<polyline fill="none" stroke="black" points="0,-18.5 51.5762,-18.5 "/>
<text text-anchor="middle" x="25.7881" y="-6.5" font-family="Helvetica,sans-Serif" font-size="10.00"> </text>
</g>
<!-- Node2 -->
<g id="node2" class="node"><title>Node2</title>
<g id="a_node2"><a xlink:href="classint.html" target="_top" xlink:title="{int\n||}">
<polygon fill="white" stroke="black" points="11.2881,-141.5 11.2881,-195.5 40.2881,-195.5 40.2881,-141.5 11.2881,-141.5"/>
<text text-anchor="middle" x="25.5688" y="-183.5" font-family="Helvetica,sans-Serif" font-size="10.00">int</text>
<polyline fill="none" stroke="black" points="11.2881,-177.5 39.8496,-177.5 "/>
<text text-anchor="middle" x="25.5688" y="-165.5" font-family="Helvetica,sans-Serif" font-size="10.00"> </text>
<polyline fill="none" stroke="black" points="11.2881,-159.5 39.8496,-159.5 "/>
<text text-anchor="middle" x="25.5688" y="-147.5" font-family="Helvetica,sans-Serif" font-size="10.00"> </text>
</a>
</g>
</g>
<!-- Node2&#45;&gt;Node1 -->
<g id="edge1" class="edge"><title>Node2&#45;&gt;Node1</title>
<path fill="none" stroke="#404040" d="M25.7881,-141.355C25.7881,-120.29 25.7881,-90.3775 25.7881,-66.6404"/>
<polygon fill="none" stroke="#404040" points="25.7882,-66.5276 21.7881,-60.5276 25.7881,-54.5276 29.7881,-60.5276 25.7882,-66.5276"/>
<text text-anchor="middle" x="54.8311" y="-115" font-family="Helvetica,sans-Serif" font-size="10.00"> +sofmod</text>
<text text-anchor="middle" x="54.8311" y="-105" font-family="Helvetica,sans-Serif" font-size="10.00">+fladdr</text>
<text text-anchor="middle" x="54.8311" y="-95" font-family="Helvetica,sans-Serif" font-size="10.00">+usbintfrnum</text>
<text text-anchor="middle" x="54.8311" y="-85" font-family="Helvetica,sans-Serif" font-size="10.00">+portsc</text>
<text text-anchor="middle" x="54.8311" y="-75" font-family="Helvetica,sans-Serif" font-size="10.00">+usbcmdsts</text>
</g>
</g>
</svg>
