<?xml version="1.0" encoding="UTF-8" standalone="no"?>
<!DOCTYPE svg PUBLIC "-//W3C//DTD SVG 1.1//EN"
 "http://www.w3.org/Graphics/SVG/1.1/DTD/svg11.dtd">
<!-- Generated by graphviz version 2.36.0 (20140111.2315)
 -->
<!-- Title: scireg_ns::scireg_mapped_region Pages: 1 -->
<svg width="268pt" height="294pt"
 viewBox="0.00 0.00 268.00 294.00" xmlns="http://www.w3.org/2000/svg" xmlns:xlink="http://www.w3.org/1999/xlink">
<g id="graph0" class="graph" transform="scale(1 1) rotate(0) translate(4 290)">
<title>scireg_ns::scireg_mapped_region</title>
<polygon fill="white" stroke="none" points="-4,4 -4,-290 264,-290 264,4 -4,4"/>
<!-- Node1 -->
<g id="node1" class="node"><title>Node1</title>
<polygon fill="#bfbfbf" stroke="black" points="12.5,-1 12.5,-69 143.5,-69 143.5,-1 12.5,-1"/>
<text text-anchor="start" x="20.5" y="-57" font-family="Helvetica,sans-Serif" font-size="10.00">scireg_ns::scireg_mapped</text>
<text text-anchor="middle" x="78" y="-46" font-family="Helvetica,sans-Serif" font-size="10.00">_region</text>
<polyline fill="none" stroke="black" points="12.5,-39 143.5,-39 "/>
<text text-anchor="middle" x="78" y="-27" font-family="Helvetica,sans-Serif" font-size="10.00"> </text>
<polyline fill="none" stroke="black" points="12.5,-20 143.5,-20 "/>
<text text-anchor="middle" x="78" y="-8" font-family="Helvetica,sans-Serif" font-size="10.00"> </text>
</g>
<!-- Node2 -->
<g id="node2" class="node"><title>Node2</title>
<polygon fill="white" stroke="#bfbfbf" points="-0.5,-173.5 -0.5,-230.5 42.5,-230.5 42.5,-173.5 -0.5,-173.5"/>
<text text-anchor="middle" x="21" y="-218.5" font-family="Helvetica,sans-Serif" font-size="10.00">uint64</text>
<polyline fill="none" stroke="#bfbfbf" points="-0.5,-211.5 42.5,-211.5 "/>
<text text-anchor="middle" x="21" y="-199.5" font-family="Helvetica,sans-Serif" font-size="10.00"> </text>
<polyline fill="none" stroke="#bfbfbf" points="-0.5,-192.5 42.5,-192.5 "/>
<text text-anchor="middle" x="21" y="-180.5" font-family="Helvetica,sans-Serif" font-size="10.00"> </text>
</g>
<!-- Node2&#45;&gt;Node1 -->
<g id="edge1" class="edge"><title>Node2&#45;&gt;Node1</title>
<path fill="none" stroke="#404040" d="M22.1146,-173.066C23.8804,-149.567 28.4118,-115.498 40,-88 41.1968,-85.16 42.5764,-82.3288 44.0856,-79.5373"/>
<polygon fill="none" stroke="#404040" points="44.2274,-79.3028 43.9086,-72.0987 50.4359,-69.0336 50.7547,-76.2377 44.2274,-79.3028"/>
<text text-anchor="middle" x="57" y="-91.5" font-family="Helvetica,sans-Serif" font-size="10.00"> +offset</text>
</g>
<!-- Node3 -->
<g id="node3" class="node"><title>Node3</title>
<g id="a_node3"><a xlink:href="classchar.html" target="_top" xlink:title="{char\n||}">
<polygon fill="white" stroke="black" points="60.5,-173.5 60.5,-230.5 95.5,-230.5 95.5,-173.5 60.5,-173.5"/>
<text text-anchor="middle" x="78" y="-218.5" font-family="Helvetica,sans-Serif" font-size="10.00">char</text>
<polyline fill="none" stroke="black" points="60.5,-211.5 95.5,-211.5 "/>
<text text-anchor="middle" x="78" y="-199.5" font-family="Helvetica,sans-Serif" font-size="10.00"> </text>
<polyline fill="none" stroke="black" points="60.5,-192.5 95.5,-192.5 "/>
<text text-anchor="middle" x="78" y="-180.5" font-family="Helvetica,sans-Serif" font-size="10.00"> </text>
</a>
</g>
</g>
<!-- Node3&#45;&gt;Node1 -->
<g id="edge2" class="edge"><title>Node3&#45;&gt;Node1</title>
<path fill="none" stroke="#404040" d="M78,-173.383C78,-148.257 78,-110.702 78,-81.2041"/>
<polygon fill="none" stroke="#404040" points="78.0001,-81.1151 74,-75.1151 78,-69.1151 82,-75.115 78.0001,-81.1151"/>
<text text-anchor="middle" x="95" y="-91.5" font-family="Helvetica,sans-Serif" font-size="10.00"> +name</text>
</g>
<!-- Node4 -->
<g id="node4" class="node"><title>Node4</title>
<g id="a_node4"><a xlink:href="classscireg__ns_1_1scireg__region__if.html" target="_top" xlink:title="{scireg_ns::scireg_region_if\n||+ scireg_region_if()\l+ ~scireg_region_if()\l+ scireg_get_region_type()\l+ scireg_read()\l+ scireg_write()\l+ scireg_get_bit_attributes()\l+ scireg_get_string_attribute()\l+ scireg_get_bit_width()\l+ scireg_get_byte_width()\l+ scireg_get_low_pos()\land 9 more...\l}">
<polygon fill="white" stroke="black" points="114,-118.5 114,-285.5 260,-285.5 260,-118.5 114,-118.5"/>
<text text-anchor="middle" x="187" y="-273.5" font-family="Helvetica,sans-Serif" font-size="10.00">scireg_ns::scireg_region_if</text>
<polyline fill="none" stroke="black" points="114,-266.5 260,-266.5 "/>
<text text-anchor="middle" x="187" y="-254.5" font-family="Helvetica,sans-Serif" font-size="10.00"> </text>
<polyline fill="none" stroke="black" points="114,-247.5 260,-247.5 "/>
<text text-anchor="start" x="122" y="-235.5" font-family="Helvetica,sans-Serif" font-size="10.00">+ scireg_region_if()</text>
<text text-anchor="start" x="122" y="-224.5" font-family="Helvetica,sans-Serif" font-size="10.00">+ ~scireg_region_if()</text>
<text text-anchor="start" x="122" y="-213.5" font-family="Helvetica,sans-Serif" font-size="10.00">+ scireg_get_region_type()</text>
<text text-anchor="start" x="122" y="-202.5" font-family="Helvetica,sans-Serif" font-size="10.00">+ scireg_read()</text>
<text text-anchor="start" x="122" y="-191.5" font-family="Helvetica,sans-Serif" font-size="10.00">+ scireg_write()</text>
<text text-anchor="start" x="122" y="-180.5" font-family="Helvetica,sans-Serif" font-size="10.00">+ scireg_get_bit_attributes()</text>
<text text-anchor="start" x="122" y="-169.5" font-family="Helvetica,sans-Serif" font-size="10.00">+ scireg_get_string_attribute()</text>
<text text-anchor="start" x="122" y="-158.5" font-family="Helvetica,sans-Serif" font-size="10.00">+ scireg_get_bit_width()</text>
<text text-anchor="start" x="122" y="-147.5" font-family="Helvetica,sans-Serif" font-size="10.00">+ scireg_get_byte_width()</text>
<text text-anchor="start" x="122" y="-136.5" font-family="Helvetica,sans-Serif" font-size="10.00">+ scireg_get_low_pos()</text>
<text text-anchor="start" x="122" y="-125.5" font-family="Helvetica,sans-Serif" font-size="10.00">and 9 more...</text>
</a>
</g>
</g>
<!-- Node4&#45;&gt;Node1 -->
<g id="edge3" class="edge"><title>Node4&#45;&gt;Node1</title>
<path fill="none" stroke="#404040" d="M136.091,-118.479C129.441,-108.146 122.633,-97.7788 116,-88 113.963,-84.997 111.832,-81.9197 109.663,-78.8352"/>
<polygon fill="none" stroke="#404040" points="109.645,-78.8107 102.905,-76.2487 102.677,-69.0412 109.418,-71.6031 109.645,-78.8107"/>
<text text-anchor="middle" x="141" y="-91.5" font-family="Helvetica,sans-Serif" font-size="10.00"> +region</text>
</g>
</g>
</svg>
