<?xml version="1.0" encoding="UTF-8" standalone="no"?>
<!DOCTYPE svg PUBLIC "-//W3C//DTD SVG 1.1//EN"
 "http://www.w3.org/Graphics/SVG/1.1/DTD/svg11.dtd">
<!-- Generated by graphviz version 2.38.0 (20140413.2041)
 -->
<!-- Title: ehcauxregs Pages: 1 -->
<svg width="90pt" height="174pt"
 viewBox="0.00 0.00 90.50 174.00" xmlns="http://www.w3.org/2000/svg" xmlns:xlink="http://www.w3.org/1999/xlink">
<g id="graph0" class="graph" transform="scale(1 1) rotate(0) translate(4 170)">
<title>ehcauxregs</title>
<polygon fill="white" stroke="none" points="-4,4 -4,-170 86.4971,-170 86.4971,4 -4,4"/>
<!-- Node1 -->
<g id="node1" class="node"><title>Node1</title>
<polygon fill="#bfbfbf" stroke="black" points="0,-0.5 0,-54.5 67.6992,-54.5 67.6992,-0.5 0,-0.5"/>
<text text-anchor="middle" x="33.8496" y="-42.5" font-family="Helvetica,sans-Serif" font-size="10.00">ehcauxregs</text>
<polyline fill="none" stroke="black" points="0,-36.5 67.6992,-36.5 "/>
<text text-anchor="middle" x="33.8496" y="-24.5" font-family="Helvetica,sans-Serif" font-size="10.00"> </text>
<polyline fill="none" stroke="black" points="0,-18.5 67.6992,-18.5 "/>
<text text-anchor="middle" x="33.8496" y="-6.5" font-family="Helvetica,sans-Serif" font-size="10.00"> </text>
</g>
<!-- Node2 -->
<g id="node2" class="node"><title>Node2</title>
<g id="a_node2"><a xlink:href="classint.html" target="_top" xlink:title="{int\n||}">
<polygon fill="white" stroke="black" points="19.3496,-111.5 19.3496,-165.5 48.3496,-165.5 48.3496,-111.5 19.3496,-111.5"/>
<text text-anchor="middle" x="33.6304" y="-153.5" font-family="Helvetica,sans-Serif" font-size="10.00">int</text>
<polyline fill="none" stroke="black" points="19.3496,-147.5 47.9111,-147.5 "/>
<text text-anchor="middle" x="33.6304" y="-135.5" font-family="Helvetica,sans-Serif" font-size="10.00"> </text>
<polyline fill="none" stroke="black" points="19.3496,-129.5 47.9111,-129.5 "/>
<text text-anchor="middle" x="33.6304" y="-117.5" font-family="Helvetica,sans-Serif" font-size="10.00"> </text>
</a>
</g>
</g>
<!-- Node2&#45;&gt;Node1 -->
<g id="edge1" class="edge"><title>Node2&#45;&gt;Node1</title>
<path fill="none" stroke="#404040" d="M33.8496,-111.392C33.8496,-98.142 33.8496,-81.786 33.8496,-67.1134"/>
<polygon fill="none" stroke="#404040" points="33.8497,-66.773 29.8497,-60.773 33.8496,-54.773 37.8497,-60.7729 33.8497,-66.773"/>
<text text-anchor="middle" x="58.1733" y="-85" font-family="Helvetica,sans-Serif" font-size="10.00"> +portsc</text>
<text text-anchor="middle" x="58.1733" y="-75" font-family="Helvetica,sans-Serif" font-size="10.00">+configflag</text>
</g>
</g>
</svg>
