<?xml version="1.0" encoding="UTF-8" standalone="no"?>
<!DOCTYPE svg PUBLIC "-//W3C//DTD SVG 1.1//EN"
 "http://www.w3.org/Graphics/SVG/1.1/DTD/svg11.dtd">
<!-- Generated by graphviz version 2.26.0 (20091210.2329)
 -->
<!-- Title: ehc_qtd Pages: 1 -->
<svg width="64pt" height="224pt"
 viewBox="0.00 0.00 64.00 224.00" xmlns="http://www.w3.org/2000/svg" xmlns:xlink="http://www.w3.org/1999/xlink">
<g id="graph1" class="graph" transform="scale(1 1) rotate(0) translate(4 220)">
<title>ehc_qtd</title>
<polygon fill="white" stroke="white" points="-4,5 -4,-220 61,-220 61,5 -4,5"/>
<!-- Node1 -->
<g id="node1" class="node"><title>Node1</title>
<polygon fill="#bfbfbf" stroke="black" points="-0.5,-0.5 -0.5,-63.5 50.5,-63.5 50.5,-0.5 -0.5,-0.5"/>
<text text-anchor="middle" x="25" y="-50.5" font-family="Helvetica,sans-Serif" font-size="10.00">ehc_qtd</text>
<polyline fill="none" stroke="black" points="-0.5,-42.5 50.5,-42.5 "/>
<text text-anchor="middle" x="25" y="-29.5" font-family="Helvetica,sans-Serif" font-size="10.00"> </text>
<polyline fill="none" stroke="black" points="-0.5,-21.5 50.5,-21.5 "/>
<text text-anchor="middle" x="25" y="-8.5" font-family="Helvetica,sans-Serif" font-size="10.00"> </text>
</g>
<!-- Node2 -->
<g id="node2" class="node"><title>Node2</title>
<a xlink:href="classint.html" target="_top" xlink:title="{int\n||}">
<polygon fill="white" stroke="black" points="10.5,-152.5 10.5,-215.5 39.5,-215.5 39.5,-152.5 10.5,-152.5"/>
<text text-anchor="middle" x="25" y="-202.5" font-family="Helvetica,sans-Serif" font-size="10.00">int</text>
<polyline fill="none" stroke="black" points="10.5,-194.5 39.5,-194.5 "/>
<text text-anchor="middle" x="25" y="-181.5" font-family="Helvetica,sans-Serif" font-size="10.00"> </text>
<polyline fill="none" stroke="black" points="10.5,-173.5 39.5,-173.5 "/>
<text text-anchor="middle" x="25" y="-160.5" font-family="Helvetica,sans-Serif" font-size="10.00"> </text>
</a>
</g>
<!-- Node2&#45;&gt;Node1 -->
<g id="edge2" class="edge"><title>Node2&#45;&gt;Node1</title>
<path fill="none" stroke="#404040" d="M25,-152.136C25,-129.971 25,-100.14 25,-75.7506"/>
<polygon fill="none" stroke="#404040" points="25.0001,-75.5615 21,-69.5616 25,-63.5615 29,-69.5615 25.0001,-75.5615"/>
<text text-anchor="middle" x="40.5" y="-125" font-family="Helvetica,sans-Serif" font-size="10.00"> +bufp</text>
<text text-anchor="middle" x="40.5" y="-112" font-family="Helvetica,sans-Serif" font-size="10.00">+anext</text>
<text text-anchor="middle" x="40.5" y="-99" font-family="Helvetica,sans-Serif" font-size="10.00">+token</text>
<text text-anchor="middle" x="40.5" y="-86" font-family="Helvetica,sans-Serif" font-size="10.00">+next</text>
</g>
</g>
</svg>
