<?xml version="1.0" encoding="UTF-8" standalone="no"?>
<!DOCTYPE svg PUBLIC "-//W3C//DTD SVG 1.1//EN"
 "http://www.w3.org/Graphics/SVG/1.1/DTD/svg11.dtd">
<!-- Generated by graphviz version 2.36.0 (20140111.2315)
 -->
<!-- Title: format_s Pages: 1 -->
<svg width="141pt" height="260pt"
 viewBox="0.00 0.00 141.00 260.00" xmlns="http://www.w3.org/2000/svg" xmlns:xlink="http://www.w3.org/1999/xlink">
<g id="graph0" class="graph" transform="scale(1 1) rotate(0) translate(4 256)">
<title>format_s</title>
<polygon fill="white" stroke="none" points="-4,4 -4,-256 137,-256 137,4 -4,4"/>
<!-- Node1 -->
<g id="node1" class="node"><title>Node1</title>
<polygon fill="#bfbfbf" stroke="black" points="17.5,-0.5 17.5,-57.5 72.5,-57.5 72.5,-0.5 17.5,-0.5"/>
<text text-anchor="middle" x="45" y="-45.5" font-family="Helvetica,sans-Serif" font-size="10.00">format_s</text>
<polyline fill="none" stroke="black" points="17.5,-38.5 72.5,-38.5 "/>
<text text-anchor="middle" x="45" y="-26.5" font-family="Helvetica,sans-Serif" font-size="10.00"> </text>
<polyline fill="none" stroke="black" points="17.5,-19.5 72.5,-19.5 "/>
<text text-anchor="middle" x="45" y="-7.5" font-family="Helvetica,sans-Serif" font-size="10.00"> </text>
</g>
<!-- Node2 -->
<g id="node2" class="node"><title>Node2</title>
<g id="a_node2"><a xlink:href="classchar.html" target="_top" xlink:title="{char\n||}">
<polygon fill="white" stroke="black" points="-0.5,-194.5 -0.5,-251.5 34.5,-251.5 34.5,-194.5 -0.5,-194.5"/>
<text text-anchor="middle" x="17" y="-239.5" font-family="Helvetica,sans-Serif" font-size="10.00">char</text>
<polyline fill="none" stroke="black" points="-0.5,-232.5 34.5,-232.5 "/>
<text text-anchor="middle" x="17" y="-220.5" font-family="Helvetica,sans-Serif" font-size="10.00"> </text>
<polyline fill="none" stroke="black" points="-0.5,-213.5 34.5,-213.5 "/>
<text text-anchor="middle" x="17" y="-201.5" font-family="Helvetica,sans-Serif" font-size="10.00"> </text>
</a>
</g>
</g>
<!-- Node2&#45;&gt;Node1 -->
<g id="edge1" class="edge"><title>Node2&#45;&gt;Node1</title>
<path fill="none" stroke="#404040" d="M12.9862,-194.24C9.63793,-164.428 6.99315,-115.955 18,-76 18.6725,-73.5589 19.5093,-71.1144 20.4678,-68.6952"/>
<polygon fill="none" stroke="#404040" points="20.5524,-68.516 19.4988,-61.3822 25.6786,-57.666 26.7322,-64.7997 20.5524,-68.516"/>
<text text-anchor="middle" x="35" y="-123.5" font-family="Helvetica,sans-Serif" font-size="10.00"> +name</text>
</g>
<!-- Node3 -->
<g id="node3" class="node"><title>Node3</title>
<g id="a_node3"><a xlink:href="classint.html" target="_top" xlink:title="{int\n||}">
<polygon fill="white" stroke="black" points="59.5,-194.5 59.5,-251.5 88.5,-251.5 88.5,-194.5 59.5,-194.5"/>
<text text-anchor="middle" x="74" y="-239.5" font-family="Helvetica,sans-Serif" font-size="10.00">int</text>
<polyline fill="none" stroke="black" points="59.5,-232.5 88.5,-232.5 "/>
<text text-anchor="middle" x="74" y="-220.5" font-family="Helvetica,sans-Serif" font-size="10.00"> </text>
<polyline fill="none" stroke="black" points="59.5,-213.5 88.5,-213.5 "/>
<text text-anchor="middle" x="74" y="-201.5" font-family="Helvetica,sans-Serif" font-size="10.00"> </text>
</a>
</g>
</g>
<!-- Node3&#45;&gt;Node1 -->
<g id="edge2" class="edge"><title>Node3&#45;&gt;Node1</title>
<path fill="none" stroke="#404040" d="M69.8354,-194.281C65.42,-164.912 58.2366,-117.185 52,-76 51.6923,-73.9683 51.3767,-71.8862 51.0577,-69.7837"/>
<polygon fill="none" stroke="#404040" points="51.0289,-69.5932 46.173,-64.2621 49.2264,-57.7293 54.0822,-63.0604 51.0289,-69.5932"/>
<text text-anchor="middle" x="99.5" y="-167.5" font-family="Helvetica,sans-Serif" font-size="10.00"> +hbporch</text>
<text text-anchor="middle" x="99.5" y="-156.5" font-family="Helvetica,sans-Serif" font-size="10.00">+vsync</text>
<text text-anchor="middle" x="99.5" y="-145.5" font-family="Helvetica,sans-Serif" font-size="10.00">+hsync</text>
<text text-anchor="middle" x="99.5" y="-134.5" font-family="Helvetica,sans-Serif" font-size="10.00">+hactive_video</text>
<text text-anchor="middle" x="99.5" y="-123.5" font-family="Helvetica,sans-Serif" font-size="10.00">+vfporch</text>
<text text-anchor="middle" x="99.5" y="-112.5" font-family="Helvetica,sans-Serif" font-size="10.00">+vactive_video</text>
<text text-anchor="middle" x="99.5" y="-101.5" font-family="Helvetica,sans-Serif" font-size="10.00">+vbporch</text>
<text text-anchor="middle" x="99.5" y="-90.5" font-family="Helvetica,sans-Serif" font-size="10.00">+hfporch</text>
<text text-anchor="middle" x="99.5" y="-79.5" font-family="Helvetica,sans-Serif" font-size="10.00">+period</text>
</g>
</g>
</svg>
