<?xml version="1.0" encoding="UTF-8" standalone="no"?>
<!DOCTYPE svg PUBLIC "-//W3C//DTD SVG 1.1//EN"
 "http://www.w3.org/Graphics/SVG/1.1/DTD/svg11.dtd">
<!-- Generated by graphviz version 2.26.0 (20091210.2329)
 -->
<!-- Title: record Pages: 1 -->
<svg width="475pt" height="224pt"
 viewBox="0.00 0.00 474.71 224.00" xmlns="http://www.w3.org/2000/svg" xmlns:xlink="http://www.w3.org/1999/xlink">
<g id="graph1" class="graph" transform="scale(1 1) rotate(0) translate(4 220)">
<title>record</title>
<polygon fill="white" stroke="white" points="-4,5 -4,-220 471.706,-220 471.706,5 -4,5"/>
<!-- Node1 -->
<g id="node1" class="node"><title>Node1</title>
<polygon fill="#bfbfbf" stroke="black" points="162.706,-0.5 162.706,-63.5 206.706,-63.5 206.706,-0.5 162.706,-0.5"/>
<text text-anchor="middle" x="184.706" y="-50.5" font-family="Helvetica,sans-Serif" font-size="10.00">record</text>
<polyline fill="none" stroke="black" points="162.706,-42.5 206.706,-42.5 "/>
<text text-anchor="middle" x="184.706" y="-29.5" font-family="Helvetica,sans-Serif" font-size="10.00"> </text>
<polyline fill="none" stroke="black" points="162.706,-21.5 206.706,-21.5 "/>
<text text-anchor="middle" x="184.706" y="-8.5" font-family="Helvetica,sans-Serif" font-size="10.00"> </text>
</g>
<!-- Node1&#45;&gt;Node1 -->
<g id="edge8" class="edge"><title>Node1&#45;&gt;Node1</title>
<path fill="none" stroke="#404040" d="M206.919,-46.0795C216.501,-47.2322 224.706,-42.5391 224.706,-32 224.706,-26.4011 222.391,-22.4521 218.783,-20.153"/>
<polygon fill="none" stroke="#404040" points="218.712,-20.1396 212.075,-22.9611 206.919,-17.9205 213.555,-15.099 218.712,-20.1396"/>
<text text-anchor="middle" x="251.706" y="-29.5" font-family="Helvetica,sans-Serif" font-size="10.00"> +Ptr_Comp</text>
</g>
<!-- Node2 -->
<g id="node2" class="node"><title>Node2</title>
<polygon fill="white" stroke="#bfbfbf" points="82.2062,-153 82.2062,-215 111.206,-215 111.206,-153 82.2062,-153"/>
<polyline fill="none" stroke="#bfbfbf" points="82.2062,-195 111.206,-195 "/>
<text text-anchor="middle" x="96.7062" y="-182" font-family="Helvetica,sans-Serif" font-size="10.00"> </text>
<polyline fill="none" stroke="#bfbfbf" points="82.2062,-174 111.206,-174 "/>
<text text-anchor="middle" x="96.7062" y="-161" font-family="Helvetica,sans-Serif" font-size="10.00"> </text>
</g>
<!-- Node2&#45;&gt;Node1 -->
<g id="edge2" class="edge"><title>Node2&#45;&gt;Node1</title>
<path fill="none" stroke="#404040" d="M82.0674,-180.476C61.6365,-174.682 25.3246,-160.99 9.70617,-134 -1.8692,-113.997 -4.21124,-100.451 9.70617,-82 26.6206,-59.576 104.443,-44.1831 150.418,-36.8704"/>
<polygon fill="none" stroke="#404040" points="150.602,-36.8422 155.926,-31.9788 162.464,-35.023 157.139,-39.8864 150.602,-36.8422"/>
<text text-anchor="middle" x="26.7062" y="-105.5" font-family="Helvetica,sans-Serif" font-size="10.00"> +var_3</text>
</g>
<!-- Node2&#45;&gt;Node1 -->
<g id="edge6" class="edge"><title>Node2&#45;&gt;Node1</title>
<path fill="none" stroke="#404040" d="M82.1775,-164.906C67.6372,-143.276 49.6843,-107.7 66.7062,-82 85.1382,-54.1714 122.492,-41.788 150.259,-36.3044"/>
<polygon fill="none" stroke="#404040" points="150.415,-36.2776 155.648,-31.3167 162.24,-34.2397 157.007,-39.2005 150.415,-36.2776"/>
<text text-anchor="middle" x="86.2062" y="-105.5" font-family="Helvetica,sans-Serif" font-size="10.00"> +variant</text>
</g>
<!-- Node2&#45;&gt;Node1 -->
<g id="edge14" class="edge"><title>Node2&#45;&gt;Node1</title>
<path fill="none" stroke="#404040" d="M101.985,-152.682C106.607,-131.48 114.821,-103.522 128.706,-82 135.192,-71.9464 144.228,-62.6738 153.149,-54.9149"/>
<polygon fill="none" stroke="#404040" points="153.377,-54.7284 155.484,-47.8319 162.66,-47.1243 160.553,-54.0208 153.377,-54.7284"/>
<text text-anchor="middle" x="145.706" y="-105.5" font-family="Helvetica,sans-Serif" font-size="10.00"> +var_1</text>
</g>
<!-- Node2&#45;&gt;Node1 -->
<g id="edge16" class="edge"><title>Node2&#45;&gt;Node1</title>
<path fill="none" stroke="#404040" d="M111.242,-176.971C126.512,-168.809 150.035,-153.88 162.706,-134 173.729,-116.707 179.305,-94.7624 182.096,-75.662"/>
<polygon fill="none" stroke="#404040" points="182.114,-75.5114 178.865,-69.0739 183.557,-63.5985 186.806,-70.036 182.114,-75.5114"/>
<text text-anchor="middle" x="198.706" y="-105.5" font-family="Helvetica,sans-Serif" font-size="10.00"> +var_2</text>
</g>
<!-- Node3 -->
<g id="node4" class="node"><title>Node3</title>
<polygon fill="white" stroke="#bfbfbf" points="206.206,-152.5 206.206,-215.5 277.206,-215.5 277.206,-152.5 206.206,-152.5"/>
<text text-anchor="middle" x="241.706" y="-202.5" font-family="Helvetica,sans-Serif" font-size="10.00">Enumeration</text>
<polyline fill="none" stroke="#bfbfbf" points="206.206,-194.5 277.206,-194.5 "/>
<text text-anchor="middle" x="241.706" y="-181.5" font-family="Helvetica,sans-Serif" font-size="10.00"> </text>
<polyline fill="none" stroke="#bfbfbf" points="206.206,-173.5 277.206,-173.5 "/>
<text text-anchor="middle" x="241.706" y="-160.5" font-family="Helvetica,sans-Serif" font-size="10.00"> </text>
</g>
<!-- Node3&#45;&gt;Node1 -->
<g id="edge4" class="edge"><title>Node3&#45;&gt;Node1</title>
<path fill="none" stroke="#404040" d="M238.165,-152.201C235.073,-131.553 229.49,-104.414 219.706,-82 217.905,-77.8728 215.737,-73.7379 213.373,-69.7116"/>
<polygon fill="none" stroke="#404040" points="213.239,-69.5008 206.638,-66.597 206.78,-59.3873 213.381,-62.2911 213.239,-69.5008"/>
<text text-anchor="middle" x="268.206" y="-118.5" font-family="Helvetica,sans-Serif" font-size="10.00"> +Enum_Comp</text>
<text text-anchor="middle" x="268.206" y="-105.5" font-family="Helvetica,sans-Serif" font-size="10.00">+E_Comp_2</text>
<text text-anchor="middle" x="268.206" y="-92.5" font-family="Helvetica,sans-Serif" font-size="10.00">+Discr</text>
</g>
<!-- Node4 -->
<g id="node8" class="node"><title>Node4</title>
<a xlink:href="classchar.html" target="_top" xlink:title="{char\n||}">
<polygon fill="white" stroke="black" points="314.206,-152.5 314.206,-215.5 349.206,-215.5 349.206,-152.5 314.206,-152.5"/>
<text text-anchor="middle" x="331.706" y="-202.5" font-family="Helvetica,sans-Serif" font-size="10.00">char</text>
<polyline fill="none" stroke="black" points="314.206,-194.5 349.206,-194.5 "/>
<text text-anchor="middle" x="331.706" y="-181.5" font-family="Helvetica,sans-Serif" font-size="10.00"> </text>
<polyline fill="none" stroke="black" points="314.206,-173.5 349.206,-173.5 "/>
<text text-anchor="middle" x="331.706" y="-160.5" font-family="Helvetica,sans-Serif" font-size="10.00"> </text>
</a>
</g>
<!-- Node4&#45;&gt;Node1 -->
<g id="edge10" class="edge"><title>Node4&#45;&gt;Node1</title>
<path fill="none" stroke="#404040" d="M330.852,-152.058C328.67,-130.024 322.466,-101.331 305.706,-82 283.498,-56.3838 246.092,-43.6442 218.738,-37.4722"/>
<polygon fill="none" stroke="#404040" points="218.726,-37.47 212.049,-40.1925 206.968,-35.0759 213.645,-32.3534 218.726,-37.47"/>
<text text-anchor="middle" x="358.206" y="-125" font-family="Helvetica,sans-Serif" font-size="10.00"> +Str_Comp</text>
<text text-anchor="middle" x="358.206" y="-112" font-family="Helvetica,sans-Serif" font-size="10.00">+Ch_2_Comp</text>
<text text-anchor="middle" x="358.206" y="-99" font-family="Helvetica,sans-Serif" font-size="10.00">+Ch_1_Comp</text>
<text text-anchor="middle" x="358.206" y="-86" font-family="Helvetica,sans-Serif" font-size="10.00">+Str_2_Comp</text>
</g>
<!-- Node5 -->
<g id="node10" class="node"><title>Node5</title>
<a xlink:href="classint.html" target="_top" xlink:title="{int\n||}">
<polygon fill="white" stroke="black" points="401.206,-152.5 401.206,-215.5 430.206,-215.5 430.206,-152.5 401.206,-152.5"/>
<text text-anchor="middle" x="415.706" y="-202.5" font-family="Helvetica,sans-Serif" font-size="10.00">int</text>
<polyline fill="none" stroke="black" points="401.206,-194.5 430.206,-194.5 "/>
<text text-anchor="middle" x="415.706" y="-181.5" font-family="Helvetica,sans-Serif" font-size="10.00"> </text>
<polyline fill="none" stroke="black" points="401.206,-173.5 430.206,-173.5 "/>
<text text-anchor="middle" x="415.706" y="-160.5" font-family="Helvetica,sans-Serif" font-size="10.00"> </text>
</a>
</g>
<!-- Node5&#45;&gt;Node1 -->
<g id="edge12" class="edge"><title>Node5&#45;&gt;Node1</title>
<path fill="none" stroke="#404040" d="M416.852,-152.254C415.901,-129.731 410.804,-100.356 392.706,-82 368.677,-57.6289 271.439,-42.4337 218.858,-35.834"/>
<polygon fill="none" stroke="#404040" points="218.741,-35.8199 212.303,-39.0692 206.828,-34.3765 213.266,-31.1272 218.741,-35.8199"/>
<text text-anchor="middle" x="440.706" y="-105.5" font-family="Helvetica,sans-Serif" font-size="10.00"> +Int_Comp</text>
</g>
</g>
</svg>
