<?xml version="1.0" encoding="UTF-8" standalone="no"?>
<!DOCTYPE svg PUBLIC "-//W3C//DTD SVG 1.1//EN"
 "http://www.w3.org/Graphics/SVG/1.1/DTD/svg11.dtd">
<!-- Generated by graphviz version 2.38.0 (20140413.2041)
 -->
<!-- Title: filter Pages: 1 -->
<svg width="249pt" height="430pt"
 viewBox="0.00 0.00 248.50 430.00" xmlns="http://www.w3.org/2000/svg" xmlns:xlink="http://www.w3.org/1999/xlink">
<g id="graph0" class="graph" transform="scale(1 1) rotate(0) translate(4 426)">
<title>filter</title>
<polygon fill="white" stroke="none" points="-4,4 -4,-426 244.5,-426 244.5,4 -4,4"/>
<!-- Node1 -->
<g id="node1" class="node"><title>Node1</title>
<polygon fill="#bfbfbf" stroke="black" points="91.5,-0.5 91.5,-90.5 143.5,-90.5 143.5,-0.5 91.5,-0.5"/>
<text text-anchor="middle" x="117.5" y="-78.5" font-family="Helvetica,sans-Serif" font-size="10.00">filter</text>
<polyline fill="none" stroke="black" points="91.5,-71.5 143.5,-71.5 "/>
<text text-anchor="start" x="99.5" y="-59.5" font-family="Helvetica,sans-Serif" font-size="10.00">+ buflen</text>
<text text-anchor="start" x="99.5" y="-48.5" font-family="Helvetica,sans-Serif" font-size="10.00">+ K</text>
<text text-anchor="start" x="99.5" y="-37.5" font-family="Helvetica,sans-Serif" font-size="10.00">+ L</text>
<text text-anchor="start" x="99.5" y="-26.5" font-family="Helvetica,sans-Serif" font-size="10.00">+ m</text>
<polyline fill="none" stroke="black" points="91.5,-19.5 143.5,-19.5 "/>
<text text-anchor="middle" x="117.5" y="-7.5" font-family="Helvetica,sans-Serif" font-size="10.00"> </text>
</g>
<!-- Node2 -->
<g id="node2" class="node"><title>Node2</title>
<polygon fill="white" stroke="#bfbfbf" points="0,-248.5 0,-305.5 77,-305.5 77,-248.5 0,-248.5"/>
<text text-anchor="middle" x="38.5" y="-293.5" font-family="Helvetica,sans-Serif" font-size="10.00">unsigned long</text>
<polyline fill="none" stroke="#bfbfbf" points="0,-286.5 77,-286.5 "/>
<text text-anchor="middle" x="38.5" y="-274.5" font-family="Helvetica,sans-Serif" font-size="10.00"> </text>
<polyline fill="none" stroke="#bfbfbf" points="0,-267.5 77,-267.5 "/>
<text text-anchor="middle" x="38.5" y="-255.5" font-family="Helvetica,sans-Serif" font-size="10.00"> </text>
</g>
<!-- Node2&#45;&gt;Node1 -->
<g id="edge1" class="edge"><title>Node2&#45;&gt;Node1</title>
<path fill="none" stroke="#404040" d="M44.2094,-248.214C51.5608,-214.576 65.6659,-156.528 84.5,-109 85.4733,-106.544 86.5163,-104.059 87.6104,-101.567"/>
<polygon fill="none" stroke="#404040" points="87.6186,-101.549 86.5206,-94.4223 92.6771,-90.6677 93.7751,-97.7947 87.6186,-101.549"/>
<text text-anchor="middle" x="99" y="-178" font-family="Helvetica,sans-Serif" font-size="10.00"> +tend</text>
<text text-anchor="middle" x="99" y="-167" font-family="Helvetica,sans-Serif" font-size="10.00">+tstart</text>
<text text-anchor="middle" x="99" y="-156" font-family="Helvetica,sans-Serif" font-size="10.00">+i</text>
</g>
<!-- Node3 -->
<g id="node3" class="node"><title>Node3</title>
<g id="a_node3"><a xlink:href="structcomplex.html" target="_top" xlink:title="{complex\n||}">
<polygon fill="white" stroke="black" points="95,-248.5 95,-305.5 148,-305.5 148,-248.5 95,-248.5"/>
<text text-anchor="middle" x="121.5" y="-293.5" font-family="Helvetica,sans-Serif" font-size="10.00">complex</text>
<polyline fill="none" stroke="black" points="95,-286.5 148,-286.5 "/>
<text text-anchor="middle" x="121.5" y="-274.5" font-family="Helvetica,sans-Serif" font-size="10.00"> </text>
<polyline fill="none" stroke="black" points="95,-267.5 148,-267.5 "/>
<text text-anchor="middle" x="121.5" y="-255.5" font-family="Helvetica,sans-Serif" font-size="10.00"> </text>
</a>
</g>
</g>
<!-- Node3&#45;&gt;Node1 -->
<g id="edge2" class="edge"><title>Node3&#45;&gt;Node1</title>
<path fill="none" stroke="#404040" d="M119.424,-248.283C119.048,-242.259 118.709,-235.919 118.5,-230 116.997,-187.422 116.791,-139.253 116.938,-102.953"/>
<polygon fill="none" stroke="#404040" points="116.939,-102.637 112.971,-96.6162 117.003,-90.6374 120.971,-96.6584 116.939,-102.637"/>
<text text-anchor="middle" x="140" y="-211" font-family="Helvetica,sans-Serif" font-size="10.00"> +HHnew</text>
<text text-anchor="middle" x="140" y="-200" font-family="Helvetica,sans-Serif" font-size="10.00">+HHold</text>
<text text-anchor="middle" x="140" y="-189" font-family="Helvetica,sans-Serif" font-size="10.00">+XX</text>
<text text-anchor="middle" x="140" y="-178" font-family="Helvetica,sans-Serif" font-size="10.00">+HH</text>
<text text-anchor="middle" x="140" y="-167" font-family="Helvetica,sans-Serif" font-size="10.00">+wf</text>
<text text-anchor="middle" x="140" y="-156" font-family="Helvetica,sans-Serif" font-size="10.00">+x</text>
<text text-anchor="middle" x="140" y="-145" font-family="Helvetica,sans-Serif" font-size="10.00">+y</text>
<text text-anchor="middle" x="140" y="-134" font-family="Helvetica,sans-Serif" font-size="10.00">+Y</text>
<text text-anchor="middle" x="140" y="-123" font-family="Helvetica,sans-Serif" font-size="10.00">+wi</text>
</g>
<!-- Node4 -->
<g id="node4" class="node"><title>Node4</title>
<g id="a_node4"><a xlink:href="classdouble.html" target="_top" xlink:title="{double\n||}">
<polygon fill="white" stroke="black" points="99,-364.5 99,-421.5 144,-421.5 144,-364.5 99,-364.5"/>
<text text-anchor="middle" x="121.5" y="-409.5" font-family="Helvetica,sans-Serif" font-size="10.00">double</text>
<polyline fill="none" stroke="black" points="99,-402.5 144,-402.5 "/>
<text text-anchor="middle" x="121.5" y="-390.5" font-family="Helvetica,sans-Serif" font-size="10.00"> </text>
<polyline fill="none" stroke="black" points="99,-383.5 144,-383.5 "/>
<text text-anchor="middle" x="121.5" y="-371.5" font-family="Helvetica,sans-Serif" font-size="10.00"> </text>
</a>
</g>
</g>
<!-- Node4&#45;&gt;Node3 -->
<g id="edge3" class="edge"><title>Node4&#45;&gt;Node3</title>
<path fill="none" stroke="#404040" d="M121.5,-364.404C121.5,-350.504 121.5,-333.392 121.5,-318.073"/>
<polygon fill="none" stroke="#404040" points="121.5,-317.737 117.5,-311.737 121.5,-305.737 125.5,-311.737 121.5,-317.737"/>
<text text-anchor="middle" x="131.5" y="-338" font-family="Helvetica,sans-Serif" font-size="10.00"> +im</text>
<text text-anchor="middle" x="131.5" y="-327" font-family="Helvetica,sans-Serif" font-size="10.00">+re</text>
</g>
<!-- Node5 -->
<g id="node5" class="node"><title>Node5</title>
<g id="a_node5"><a xlink:href="classint.html" target="_top" xlink:title="{int\n||}">
<polygon fill="white" stroke="black" points="169,-248.5 169,-305.5 198,-305.5 198,-248.5 169,-248.5"/>
<text text-anchor="middle" x="183.5" y="-293.5" font-family="Helvetica,sans-Serif" font-size="10.00">int</text>
<polyline fill="none" stroke="black" points="169,-286.5 198,-286.5 "/>
<text text-anchor="middle" x="183.5" y="-274.5" font-family="Helvetica,sans-Serif" font-size="10.00"> </text>
<polyline fill="none" stroke="black" points="169,-267.5 198,-267.5 "/>
<text text-anchor="middle" x="183.5" y="-255.5" font-family="Helvetica,sans-Serif" font-size="10.00"> </text>
</a>
</g>
</g>
<!-- Node5&#45;&gt;Node1 -->
<g id="edge4" class="edge"><title>Node5&#45;&gt;Node1</title>
<path fill="none" stroke="#404040" d="M183.849,-248.4C183.392,-214.446 179.685,-155.583 161.5,-109 158.65,-101.699 154.773,-94.4402 150.494,-87.5926"/>
<polygon fill="none" stroke="#404040" points="150.221,-87.1856 143.555,-84.4348 143.531,-77.2237 150.196,-79.9745 150.221,-87.1856"/>
<text text-anchor="middle" x="211.5" y="-222" font-family="Helvetica,sans-Serif" font-size="10.00"> +sharemode</text>
<text text-anchor="middle" x="211.5" y="-211" font-family="Helvetica,sans-Serif" font-size="10.00">+ylen</text>
<text text-anchor="middle" x="211.5" y="-200" font-family="Helvetica,sans-Serif" font-size="10.00">+hlen</text>
<text text-anchor="middle" x="211.5" y="-189" font-family="Helvetica,sans-Serif" font-size="10.00">+R</text>
<text text-anchor="middle" x="211.5" y="-178" font-family="Helvetica,sans-Serif" font-size="10.00">+finishing</text>
<text text-anchor="middle" x="211.5" y="-167" font-family="Helvetica,sans-Serif" font-size="10.00">+xlen</text>
<text text-anchor="middle" x="211.5" y="-156" font-family="Helvetica,sans-Serif" font-size="10.00">+S</text>
<text text-anchor="middle" x="211.5" y="-145" font-family="Helvetica,sans-Serif" font-size="10.00">+hassignal</text>
<text text-anchor="middle" x="211.5" y="-134" font-family="Helvetica,sans-Serif" font-size="10.00">+xframes</text>
<text text-anchor="middle" x="211.5" y="-123" font-family="Helvetica,sans-Serif" font-size="10.00">+hastail</text>
<text text-anchor="middle" x="211.5" y="-112" font-family="Helvetica,sans-Serif" font-size="10.00">...</text>
</g>
</g>
</svg>
