<?xml version="1.0" encoding="UTF-8" standalone="no"?>
<!DOCTYPE svg PUBLIC "-//W3C//DTD SVG 1.1//EN"
 "http://www.w3.org/Graphics/SVG/1.1/DTD/svg11.dtd">
<!-- Generated by graphviz version 2.38.0 (20140413.2041)
 -->
<!-- Title: svgactrl_test Pages: 1 -->
<svg width="208pt" height="101pt"
 viewBox="0.00 0.00 207.71 101.00" xmlns="http://www.w3.org/2000/svg" xmlns:xlink="http://www.w3.org/1999/xlink">
<g id="graph0" class="graph" transform="scale(1 1) rotate(0) translate(4 97)">
<title>svgactrl_test</title>
<polygon fill="white" stroke="none" points="-4,4 -4,-97 203.714,-97 203.714,4 -4,4"/>
<!-- Node1 -->
<g id="node1" class="node"><title>Node1</title>
<polygon fill="#bfbfbf" stroke="black" points="0,-37.5 0,-55.5 72.1328,-55.5 72.1328,-37.5 0,-37.5"/>
<text text-anchor="middle" x="36.0664" y="-43.5" font-family="Helvetica,sans-Serif" font-size="10.00">svgactrl_test</text>
</g>
<!-- Node2 -->
<g id="node2" class="node"><title>Node2</title>
<g id="a_node2"><a xlink:href="namespacecore_1_1waf_1_1cmake.html#a2cc9c2d5713380ebb07751a69eeb9bc6" target="_top" xlink:title="core.waf.cmake.f">
<polygon fill="white" stroke="black" points="108.133,-74.5 108.133,-92.5 199.714,-92.5 199.714,-74.5 108.133,-74.5"/>
<text text-anchor="middle" x="153.923" y="-80.5" font-family="Helvetica,sans-Serif" font-size="10.00">core.waf.cmake.f</text>
</a>
</g>
</g>
<!-- Node1&#45;&gt;Node2 -->
<g id="edge1" class="edge"><title>Node1&#45;&gt;Node2</title>
<path fill="none" stroke="midnightblue" d="M65.4082,-55.5512C80.276,-60.2994 98.6981,-66.1827 114.8,-71.3248"/>
<polygon fill="midnightblue" stroke="midnightblue" points="113.882,-74.7058 124.473,-74.414 116.011,-68.0376 113.882,-74.7058"/>
</g>
<!-- Node3 -->
<g id="node3" class="node"><title>Node3</title>
<g id="a_node3"><a xlink:href="report__device_8c.html#a19b399e21d163c2a92510871f1a807de" target="_top" xlink:title="report_device">
<polygon fill="white" stroke="black" points="115.628,-37.5 115.628,-55.5 192.219,-55.5 192.219,-37.5 115.628,-37.5"/>
<text text-anchor="middle" x="153.923" y="-43.5" font-family="Helvetica,sans-Serif" font-size="10.00">report_device</text>
</a>
</g>
</g>
<!-- Node1&#45;&gt;Node3 -->
<g id="edge2" class="edge"><title>Node1&#45;&gt;Node3</title>
<path fill="none" stroke="midnightblue" d="M72.1417,-46.5C82.6459,-46.5 94.3441,-46.5 105.504,-46.5"/>
<polygon fill="midnightblue" stroke="midnightblue" points="105.552,-50.0001 115.552,-46.5 105.552,-43.0001 105.552,-50.0001"/>
</g>
<!-- Node4 -->
<g id="node4" class="node"><title>Node4</title>
<g id="a_node4"><a xlink:href="report__device_8c.html#aa1e4c0543aa65e7b4c320fbb86c81f3c" target="_top" xlink:title="report_subtest">
<polygon fill="white" stroke="black" points="113.96,-0.5 113.96,-18.5 193.886,-18.5 193.886,-0.5 113.96,-0.5"/>
<text text-anchor="middle" x="153.923" y="-6.5" font-family="Helvetica,sans-Serif" font-size="10.00">report_subtest</text>
</a>
</g>
</g>
<!-- Node1&#45;&gt;Node4 -->
<g id="edge3" class="edge"><title>Node1&#45;&gt;Node4</title>
<path fill="none" stroke="midnightblue" d="M65.4082,-37.4488C80.276,-32.7006 98.6981,-26.8173 114.8,-21.6752"/>
<polygon fill="midnightblue" stroke="midnightblue" points="116.011,-24.9624 124.473,-18.586 113.882,-18.2942 116.011,-24.9624"/>
</g>
</g>
</svg>
