<?xml version="1.0" encoding="UTF-8" standalone="no"?>
<!DOCTYPE svg PUBLIC "-//W3C//DTD SVG 1.1//EN"
 "http://www.w3.org/Graphics/SVG/1.1/DTD/svg11.dtd">
<!-- Generated by graphviz version 2.26.0 (20091210.2329)
 -->
<!-- Title: core/models/apbuart/tcpio.cpp Pages: 1 -->
<!--zoomable 318 -->
<svg id="main" version="1.1" xmlns="http://www.w3.org/2000/svg" xmlns:xlink="http://www.w3.org/1999/xlink" xml:space="preserve" onload="init(evt)">
<style type="text/css"><![CDATA[
.edge:hover path { stroke: red; }
.edge:hover polygon { stroke: red; fill: red; }
]]></style>
<script type="text/javascript"><![CDATA[
var edges = document.getElementsByTagName('g');
if (edges && edges.length) {
  for (var i=0;i<edges.length;i++) {
    if (edges[i].id.substr(0,4)=='edge') {
      edges[i].setAttribute('class','edge');
    }
  }
}
]]></script>
        <defs>
                <circle id="rim" cx="0" cy="0" r="7"/>
                <circle id="rim2" cx="0" cy="0" r="3.5"/>
                <g id="zoomPlus">
                        <use xlink:href="#rim" fill="#404040">
                                <set attributeName="fill" to="#808080" begin="zoomplus.mouseover" end="zoomplus.mouseout"/>
                        </use>
                        <path d="M-4,0h8M0,-4v8" fill="none" stroke="white" stroke-width="1.5" pointer-events="none"/>
                </g>
                <g id="zoomMin">
                        <use xlink:href="#rim" fill="#404040">
                                <set attributeName="fill" to="#808080" begin="zoomminus.mouseover" end="zoomminus.mouseout"/>
                        </use>
                        <path d="M-4,0h8" fill="none" stroke="white" stroke-width="1.5" pointer-events="none"/>
                </g>
                <g id="dirArrow">
                        <path fill="none" stroke="white" stroke-width="1.5" d="M0,-3.0v7 M-2.5,-0.5L0,-3.0L2.5,-0.5"/>
                </g>
               <g id="resetDef">
                       <use xlink:href="#rim2" fill="#404040">
                               <set attributeName="fill" to="#808080" begin="reset.mouseover" end="reset.mouseout"/>
                       </use>
               </g>
        </defs>

<script type="text/javascript">
var viewWidth = 1097;
var viewHeight = 318;
var sectionId = 'dynsection-0';
</script>
<script xlink:href="svgpan.js"/>
<svg id="graph" class="graph">
<g id="viewport">
<title>core/models/apbuart/tcpio.cpp</title>
<polygon fill="white" stroke="white" points="-4,5 -4,-314 1093.87,-314 1093.87,5 -4,5"/>
<!-- Node1 -->
<g id="node1" class="node"><title>Node1</title>
<polygon fill="#bfbfbf" stroke="black" points="154.366,-275 154.366,-309 259.366,-309 259.366,-275 154.366,-275"/>
<text text-anchor="start" x="162.366" y="-296" font-family="Helvetica,sans-Serif" font-size="10.00">core/models/apbuart</text>
<text text-anchor="middle" x="206.866" y="-283" font-family="Helvetica,sans-Serif" font-size="10.00">/tcpio.cpp</text>
</g>
<!-- Node2 -->
<g id="node3" class="node"><title>Node2</title>
<polygon fill="white" stroke="#bfbfbf" points="58.8662,-144.5 58.8662,-165.5 138.866,-165.5 138.866,-144.5 58.8662,-144.5"/>
<text text-anchor="middle" x="98.8662" y="-152.5" font-family="Helvetica,sans-Serif" font-size="10.00">boost/asio.hpp</text>
</g>
<!-- Node1&#45;&gt;Node2 -->
<g id="edge2" class="edge"><title>Node1&#45;&gt;Node2</title>
<path fill="none" stroke="midnightblue" d="M153.916,-285.012C100.897,-276.801 24.688,-261.272 6.86624,-238 -2.8618,-225.297 -1.48646,-215.647 6.86624,-202 16.337,-186.527 32.6862,-175.943 48.9997,-168.801"/>
<polygon fill="midnightblue" stroke="midnightblue" points="50.5629,-171.946 58.5485,-164.983 47.9638,-165.446 50.5629,-171.946"/>
</g>
<!-- Node3 -->
<g id="node5" class="node"><title>Node3</title>
<polygon fill="white" stroke="#bfbfbf" points="15.8662,-209.5 15.8662,-230.5 129.866,-230.5 129.866,-209.5 15.8662,-209.5"/>
<text text-anchor="middle" x="72.8662" y="-217.5" font-family="Helvetica,sans-Serif" font-size="10.00">boost/lexical_cast.hpp</text>
</g>
<!-- Node1&#45;&gt;Node3 -->
<g id="edge4" class="edge"><title>Node1&#45;&gt;Node3</title>
<path fill="none" stroke="midnightblue" d="M175.11,-274.937C152.862,-262.983 123.367,-247.135 101.775,-235.533"/>
<polygon fill="midnightblue" stroke="midnightblue" points="103.223,-232.338 92.7579,-230.688 99.9102,-238.504 103.223,-232.338"/>
</g>
<!-- Node4 -->
<g id="node7" class="node"><title>Node4</title>
<polygon fill="white" stroke="#bfbfbf" points="147.366,-209.5 147.366,-230.5 266.366,-230.5 266.366,-209.5 147.366,-209.5"/>
<text text-anchor="middle" x="206.866" y="-217.5" font-family="Helvetica,sans-Serif" font-size="10.00">boost/thread/thread.hpp</text>
</g>
<!-- Node1&#45;&gt;Node4 -->
<g id="edge6" class="edge"><title>Node1&#45;&gt;Node4</title>
<path fill="none" stroke="midnightblue" d="M206.866,-274.937C206.866,-264.814 206.866,-251.898 206.866,-241.133"/>
<polygon fill="midnightblue" stroke="midnightblue" points="210.366,-240.901 206.866,-230.901 203.366,-240.901 210.366,-240.901"/>
</g>
<!-- Node5 -->
<g id="node9" class="node"><title>Node5</title>
<a xlink:href="tcpio_8h.html" target="_top" xlink:title="core/models/apbuart\l/tcpio.h">
<polygon fill="white" stroke="black" points="283.366,-203 283.366,-237 388.366,-237 388.366,-203 283.366,-203"/>
<text text-anchor="start" x="291.366" y="-224" font-family="Helvetica,sans-Serif" font-size="10.00">core/models/apbuart</text>
<text text-anchor="middle" x="335.866" y="-211" font-family="Helvetica,sans-Serif" font-size="10.00">/tcpio.h</text>
</a>
</g>
<!-- Node1&#45;&gt;Node5 -->
<g id="edge8" class="edge"><title>Node1&#45;&gt;Node5</title>
<path fill="none" stroke="midnightblue" d="M237.437,-274.937C254.981,-265.145 277.207,-252.74 296.097,-242.197"/>
<polygon fill="midnightblue" stroke="midnightblue" points="298.041,-245.12 305.067,-237.19 294.63,-239.008 298.041,-245.12"/>
</g>
<!-- Node9 -->
<g id="node18" class="node"><title>Node9</title>
<a xlink:href="verbose_8h.html" target="_top" xlink:title="Implements a unified output system for messages and debunging. ">
<polygon fill="white" stroke="black" points="521.866,-209.5 521.866,-230.5 643.866,-230.5 643.866,-209.5 521.866,-209.5"/>
<text text-anchor="middle" x="582.866" y="-217.5" font-family="Helvetica,sans-Serif" font-size="10.00">core/common/verbose.h</text>
</a>
</g>
<!-- Node1&#45;&gt;Node9 -->
<g id="edge18" class="edge"><title>Node1&#45;&gt;Node9</title>
<path fill="none" stroke="midnightblue" d="M259.543,-281.913C327.201,-268.957 444.6,-246.476 517.775,-232.464"/>
<polygon fill="midnightblue" stroke="midnightblue" points="518.634,-235.863 527.797,-230.545 517.318,-228.988 518.634,-235.863"/>
</g>
<!-- Node5&#45;&gt;Node2 -->
<g id="edge10" class="edge"><title>Node5&#45;&gt;Node2</title>
<path fill="none" stroke="midnightblue" d="M283.319,-204.4C280.462,-203.581 277.63,-202.777 274.866,-202 232.606,-190.124 184.434,-177.31 149.184,-168.066"/>
<polygon fill="midnightblue" stroke="midnightblue" points="149.701,-164.583 139.141,-165.437 147.928,-171.355 149.701,-164.583"/>
</g>
<!-- Node6 -->
<g id="node12" class="node"><title>Node6</title>
<polygon fill="white" stroke="#bfbfbf" points="267.366,-144.5 267.366,-165.5 308.366,-165.5 308.366,-144.5 267.366,-144.5"/>
<text text-anchor="middle" x="287.866" y="-152.5" font-family="Helvetica,sans-Serif" font-size="10.00">string</text>
</g>
<!-- Node5&#45;&gt;Node6 -->
<g id="edge12" class="edge"><title>Node5&#45;&gt;Node6</title>
<path fill="none" stroke="midnightblue" d="M323.255,-202.922C316.687,-194.029 308.639,-183.13 301.878,-173.974"/>
<polygon fill="midnightblue" stroke="midnightblue" points="304.636,-171.817 295.88,-165.852 299.005,-175.976 304.636,-171.817"/>
</g>
<!-- Node7 -->
<g id="node14" class="node"><title>Node7</title>
<a xlink:href="io__if_8h.html" target="_top" xlink:title="core/models/apbuart\l/io_if.h">
<polygon fill="white" stroke="black" points="475.366,-73 475.366,-107 580.366,-107 580.366,-73 475.366,-73"/>
<text text-anchor="start" x="483.366" y="-94" font-family="Helvetica,sans-Serif" font-size="10.00">core/models/apbuart</text>
<text text-anchor="middle" x="527.866" y="-81" font-family="Helvetica,sans-Serif" font-size="10.00">/io_if.h</text>
</a>
</g>
<!-- Node5&#45;&gt;Node7 -->
<g id="edge14" class="edge"><title>Node5&#45;&gt;Node7</title>
<path fill="none" stroke="midnightblue" d="M335.564,-202.948C336.195,-185.877 339.835,-159.923 354.866,-144 370.295,-127.656 422.386,-112.736 465.412,-102.741"/>
<polygon fill="midnightblue" stroke="midnightblue" points="466.305,-106.127 475.28,-100.496 464.753,-99.3013 466.305,-106.127"/>
</g>
<!-- Node8 -->
<g id="node16" class="node"><title>Node8</title>
<polygon fill="white" stroke="#bfbfbf" points="568.366,-7.5 568.366,-28.5 617.366,-28.5 617.366,-7.5 568.366,-7.5"/>
<text text-anchor="middle" x="592.866" y="-15.5" font-family="Helvetica,sans-Serif" font-size="10.00">stdint.h</text>
</g>
<!-- Node7&#45;&gt;Node8 -->
<g id="edge16" class="edge"><title>Node7&#45;&gt;Node8</title>
<path fill="none" stroke="midnightblue" d="M543.27,-72.937C553.179,-61.9612 566.052,-47.7024 576.199,-36.4621"/>
<polygon fill="midnightblue" stroke="midnightblue" points="578.922,-38.6691 583.025,-28.901 573.726,-33.9784 578.922,-38.6691"/>
</g>
<!-- Node10 -->
<g id="node20" class="node"><title>Node10</title>
<polygon fill="white" stroke="#bfbfbf" points="363.366,-144.5 363.366,-165.5 406.366,-165.5 406.366,-144.5 363.366,-144.5"/>
<text text-anchor="middle" x="384.866" y="-152.5" font-family="Helvetica,sans-Serif" font-size="10.00">cstdio</text>
</g>
<!-- Node9&#45;&gt;Node10 -->
<g id="edge20" class="edge"><title>Node9&#45;&gt;Node10</title>
<path fill="none" stroke="midnightblue" d="M548.625,-209.44C516.576,-199.457 467.15,-183.811 416.022,-166.322"/>
<polygon fill="midnightblue" stroke="midnightblue" points="417.054,-162.976 406.459,-163.036 414.779,-169.596 417.054,-162.976"/>
</g>
<!-- Node11 -->
<g id="node22" class="node"><title>Node11</title>
<polygon fill="white" stroke="#bfbfbf" points="423.866,-144.5 423.866,-165.5 469.866,-165.5 469.866,-144.5 423.866,-144.5"/>
<text text-anchor="middle" x="446.866" y="-152.5" font-family="Helvetica,sans-Serif" font-size="10.00">cstring</text>
</g>
<!-- Node9&#45;&gt;Node11 -->
<g id="edge22" class="edge"><title>Node9&#45;&gt;Node11</title>
<path fill="none" stroke="midnightblue" d="M560.713,-209.412C538.288,-198.694 503.411,-182.025 478.167,-169.96"/>
<polygon fill="midnightblue" stroke="midnightblue" points="479.542,-166.738 469.01,-165.584 476.523,-173.054 479.542,-166.738"/>
</g>
<!-- Node12 -->
<g id="node24" class="node"><title>Node12</title>
<polygon fill="white" stroke="#bfbfbf" points="487.866,-144.5 487.866,-165.5 537.866,-165.5 537.866,-144.5 487.866,-144.5"/>
<text text-anchor="middle" x="512.866" y="-152.5" font-family="Helvetica,sans-Serif" font-size="10.00">iomanip</text>
</g>
<!-- Node9&#45;&gt;Node12 -->
<g id="edge24" class="edge"><title>Node9&#45;&gt;Node12</title>
<path fill="none" stroke="midnightblue" d="M571.307,-209.267C560.604,-199.328 544.488,-184.363 531.889,-172.664"/>
<polygon fill="midnightblue" stroke="midnightblue" points="533.92,-169.773 524.21,-165.534 529.157,-174.903 533.92,-169.773"/>
</g>
<!-- Node13 -->
<g id="node26" class="node"><title>Node13</title>
<polygon fill="white" stroke="#bfbfbf" points="555.866,-144.5 555.866,-165.5 609.866,-165.5 609.866,-144.5 555.866,-144.5"/>
<text text-anchor="middle" x="582.866" y="-152.5" font-family="Helvetica,sans-Serif" font-size="10.00">iostream</text>
</g>
<!-- Node9&#45;&gt;Node13 -->
<g id="edge26" class="edge"><title>Node9&#45;&gt;Node13</title>
<path fill="none" stroke="midnightblue" d="M582.866,-209.267C582.866,-200.18 582.866,-186.892 582.866,-175.74"/>
<polygon fill="midnightblue" stroke="midnightblue" points="586.366,-175.534 582.866,-165.534 579.366,-175.534 586.366,-175.534"/>
</g>
<!-- Node14 -->
<g id="node28" class="node"><title>Node14</title>
<polygon fill="white" stroke="#bfbfbf" points="627.866,-144.5 627.866,-165.5 687.866,-165.5 687.866,-144.5 627.866,-144.5"/>
<text text-anchor="middle" x="657.866" y="-152.5" font-family="Helvetica,sans-Serif" font-size="10.00">streambuf</text>
</g>
<!-- Node9&#45;&gt;Node14 -->
<g id="edge28" class="edge"><title>Node9&#45;&gt;Node14</title>
<path fill="none" stroke="midnightblue" d="M595.251,-209.267C606.828,-199.233 624.315,-184.078 637.869,-172.331"/>
<polygon fill="midnightblue" stroke="midnightblue" points="640.447,-174.728 645.712,-165.534 635.863,-169.438 640.447,-174.728"/>
</g>
<!-- Node15 -->
<g id="node30" class="node"><title>Node15</title>
<a xlink:href="common_8h.html" target="_top" xlink:title="core/common/common.h">
<polygon fill="white" stroke="black" points="705.366,-144.5 705.366,-165.5 830.366,-165.5 830.366,-144.5 705.366,-144.5"/>
<text text-anchor="middle" x="767.866" y="-152.5" font-family="Helvetica,sans-Serif" font-size="10.00">core/common/common.h</text>
</a>
</g>
<!-- Node9&#45;&gt;Node15 -->
<g id="edge30" class="edge"><title>Node9&#45;&gt;Node15</title>
<path fill="none" stroke="midnightblue" d="M607.861,-209.412C637.345,-198.364 686.62,-180.991 722.78,-168.857"/>
<polygon fill="midnightblue" stroke="midnightblue" points="724.224,-172.066 732.604,-165.584 722.01,-165.425 724.224,-172.066"/>
</g>
<!-- Node16 -->
<g id="node32" class="node"><title>Node16</title>
<a xlink:href="systemc_8h.html" target="_top" xlink:title="core/common/systemc.h">
<polygon fill="white" stroke="black" points="750.366,-79.5 750.366,-100.5 875.366,-100.5 875.366,-79.5 750.366,-79.5"/>
<text text-anchor="middle" x="812.866" y="-87.5" font-family="Helvetica,sans-Serif" font-size="10.00">core/common/systemc.h</text>
</a>
</g>
<!-- Node9&#45;&gt;Node16 -->
<g id="edge50" class="edge"><title>Node9&#45;&gt;Node16</title>
<path fill="none" stroke="midnightblue" d="M643.997,-215.776C711.787,-209.67 814.796,-195.677 838.866,-166 852.282,-149.46 840.438,-125.607 828.698,-109.053"/>
<polygon fill="midnightblue" stroke="midnightblue" points="831.186,-106.542 822.348,-100.7 825.613,-110.778 831.186,-106.542"/>
</g>
<!-- Node15&#45;&gt;Node9 -->
<g id="edge48" class="edge"><title>Node15&#45;&gt;Node9</title>
<path fill="none" stroke="midnightblue" d="M742.884,-165.584C713.405,-176.63 664.13,-194.002 627.967,-206.138"/>
<polygon fill="midnightblue" stroke="midnightblue" points="626.523,-202.93 618.142,-209.412 628.736,-209.571 626.523,-202.93"/>
</g>
<!-- Node15&#45;&gt;Node16 -->
<g id="edge32" class="edge"><title>Node15&#45;&gt;Node16</title>
<path fill="none" stroke="midnightblue" d="M775.297,-144.267C781.915,-134.707 791.753,-120.496 799.702,-109.015"/>
<polygon fill="midnightblue" stroke="midnightblue" points="802.759,-110.748 805.574,-100.534 797.004,-106.763 802.759,-110.748"/>
</g>
<!-- Node21 -->
<g id="node43" class="node"><title>Node21</title>
<a xlink:href="vendian_8h.html" target="_top" xlink:title="core/common/vendian.h">
<polygon fill="white" stroke="black" points="607.366,-79.5 607.366,-100.5 728.366,-100.5 728.366,-79.5 607.366,-79.5"/>
<text text-anchor="middle" x="667.866" y="-87.5" font-family="Helvetica,sans-Serif" font-size="10.00">core/common/vendian.h</text>
</a>
</g>
<!-- Node15&#45;&gt;Node21 -->
<g id="edge44" class="edge"><title>Node15&#45;&gt;Node21</title>
<path fill="none" stroke="midnightblue" d="M751.353,-144.267C735.335,-133.855 710.831,-117.927 692.507,-106.016"/>
<polygon fill="midnightblue" stroke="midnightblue" points="694.364,-103.049 684.072,-100.534 690.549,-108.918 694.364,-103.049"/>
</g>
<!-- Node16&#45;&gt;Node16 -->
<g id="edge34" class="edge"><title>Node16&#45;&gt;Node16</title>
<path fill="none" stroke="midnightblue" d="M844.487,-100.517C868.51,-104.318 892.866,-100.812 892.866,-90 892.866,-80.708 874.879,-76.8123 854.573,-78.313"/>
<polygon fill="midnightblue" stroke="midnightblue" points="854.017,-74.8539 844.487,-79.4832 854.823,-81.8073 854.017,-74.8539"/>
</g>
<!-- Node17 -->
<g id="node35" class="node"><title>Node17</title>
<polygon fill="white" stroke="#bfbfbf" points="666.866,-7.5 666.866,-28.5 704.866,-28.5 704.866,-7.5 666.866,-7.5"/>
<text text-anchor="middle" x="685.866" y="-15.5" font-family="Helvetica,sans-Serif" font-size="10.00">tlm.h</text>
</g>
<!-- Node16&#45;&gt;Node17 -->
<g id="edge36" class="edge"><title>Node16&#45;&gt;Node17</title>
<path fill="none" stroke="midnightblue" d="M792.529,-79.4565C772.346,-68.865 740.64,-51.8801 713.866,-36 712.776,-35.3533 711.667,-34.6852 710.55,-34.0042"/>
<polygon fill="midnightblue" stroke="midnightblue" points="712.362,-31.0095 702.029,-28.6701 708.648,-36.9429 712.362,-31.0095"/>
</g>
<!-- Node18 -->
<g id="node37" class="node"><title>Node18</title>
<polygon fill="white" stroke="#bfbfbf" points="722.366,-1 722.366,-35 837.366,-35 837.366,-1 722.366,-1"/>
<text text-anchor="start" x="730.366" y="-22" font-family="Helvetica,sans-Serif" font-size="10.00">tlm_utils/simple_target</text>
<text text-anchor="middle" x="779.866" y="-9" font-family="Helvetica,sans-Serif" font-size="10.00">_socket.h</text>
</g>
<!-- Node16&#45;&gt;Node18 -->
<g id="edge38" class="edge"><title>Node16&#45;&gt;Node18</title>
<path fill="none" stroke="midnightblue" d="M807.997,-79.3762C803.781,-70.1781 797.504,-56.4832 791.949,-44.362"/>
<polygon fill="midnightblue" stroke="midnightblue" points="795.049,-42.7267 787.701,-35.0944 788.686,-45.6433 795.049,-42.7267"/>
</g>
<!-- Node19 -->
<g id="node39" class="node"><title>Node19</title>
<polygon fill="white" stroke="#bfbfbf" points="854.866,-1 854.866,-35 976.866,-35 976.866,-1 854.866,-1"/>
<text text-anchor="start" x="862.866" y="-22" font-family="Helvetica,sans-Serif" font-size="10.00">tlm_utils/simple_initiator</text>
<text text-anchor="middle" x="915.866" y="-9" font-family="Helvetica,sans-Serif" font-size="10.00">_socket.h</text>
</g>
<!-- Node16&#45;&gt;Node19 -->
<g id="edge40" class="edge"><title>Node16&#45;&gt;Node19</title>
<path fill="none" stroke="midnightblue" d="M828.064,-79.3762C842.46,-69.3129 864.556,-53.8672 882.98,-40.9885"/>
<polygon fill="midnightblue" stroke="midnightblue" points="885.221,-43.6923 891.412,-35.0944 881.21,-37.9551 885.221,-43.6923"/>
</g>
<!-- Node20 -->
<g id="node41" class="node"><title>Node20</title>
<polygon fill="white" stroke="#bfbfbf" points="994.366,-1 994.366,-35 1089.37,-35 1089.37,-1 994.366,-1"/>
<text text-anchor="start" x="1002.37" y="-22" font-family="Helvetica,sans-Serif" font-size="10.00">tlm_utils/peq_with</text>
<text text-anchor="middle" x="1041.87" y="-9" font-family="Helvetica,sans-Serif" font-size="10.00">_get.h</text>
</g>
<!-- Node16&#45;&gt;Node20 -->
<g id="edge42" class="edge"><title>Node16&#45;&gt;Node20</title>
<path fill="none" stroke="midnightblue" d="M847.031,-79.4291C879.969,-69.217 931.473,-53.1951 984.627,-36.3822"/>
<polygon fill="midnightblue" stroke="midnightblue" points="985.739,-39.7016 994.216,-33.3463 983.626,-33.0281 985.739,-39.7016"/>
</g>
<!-- Node21&#45;&gt;Node8 -->
<g id="edge46" class="edge"><title>Node21&#45;&gt;Node8</title>
<path fill="none" stroke="midnightblue" d="M656.8,-79.3762C644.835,-67.8904 625.567,-49.3927 611.307,-35.7031"/>
<polygon fill="midnightblue" stroke="midnightblue" points="613.616,-33.0679 603.978,-28.6674 608.768,-38.1176 613.616,-33.0679"/>
</g>
</g>
</svg>
        <g id="navigator" transform="translate(0 0)" fill="#404254">
                <rect fill="#f2f5e9" fill-opacity="0.5" stroke="#606060" stroke-width=".5" x="0" y="0" width="60" height="60"/>
                <use id="zoomplus" xlink:href="#zoomPlus" x="17" y="9" onmousedown="handleZoom(evt,'in')"/>
                <use id="zoomminus" xlink:href="#zoomMin" x="42" y="9" onmousedown="handleZoom(evt,'out')"/>
                <use id="reset" xlink:href="#resetDef" x="30" y="36" onmousedown="handleReset()"/>
                <g id="arrowUp" xlink:href="#dirArrow" transform="translate(30 24)" onmousedown="handlePan(0,-1)">
                  <use xlink:href="#rim" fill="#404040">
                        <set attributeName="fill" to="#808080" begin="arrowUp.mouseover" end="arrowUp.mouseout"/>
                  </use>
                  <path fill="none" stroke="white" stroke-width="1.5" d="M0,-3.0v7 M-2.5,-0.5L0,-3.0L2.5,-0.5"/>
                </g>
                <g id="arrowRight" xlink:href="#dirArrow" transform="rotate(90) translate(36 -43)" onmousedown="handlePan(1,0)">
                  <use xlink:href="#rim" fill="#404040">
                        <set attributeName="fill" to="#808080" begin="arrowRight.mouseover" end="arrowRight.mouseout"/>
                  </use>
                  <path fill="none" stroke="white" stroke-width="1.5" d="M0,-3.0v7 M-2.5,-0.5L0,-3.0L2.5,-0.5"/>
                </g>
                <g id="arrowDown" xlink:href="#dirArrow" transform="rotate(180) translate(-30 -48)" onmousedown="handlePan(0,1)">
                  <use xlink:href="#rim" fill="#404040">
                        <set attributeName="fill" to="#808080" begin="arrowDown.mouseover" end="arrowDown.mouseout"/>
                  </use>
                  <path fill="none" stroke="white" stroke-width="1.5" d="M0,-3.0v7 M-2.5,-0.5L0,-3.0L2.5,-0.5"/>
                </g>
                <g id="arrowLeft" xlink:href="#dirArrow" transform="rotate(270) translate(-36 17)" onmousedown="handlePan(-1,0)">
                  <use xlink:href="#rim" fill="#404040">
                        <set attributeName="fill" to="#808080" begin="arrowLeft.mouseover" end="arrowLeft.mouseout"/>
                  </use>
                  <path fill="none" stroke="white" stroke-width="1.5" d="M0,-3.0v7 M-2.5,-0.5L0,-3.0L2.5,-0.5"/>
                </g>
        </g>
        <svg viewBox="0 0 15 15" width="100%" height="30px" preserveAspectRatio="xMaxYMin meet">
         <g id="arrow_out" transform="scale(0.3 0.3)">
          <a xlink:href="tcpio_8cpp__incl_org.svg" target="_base">
           <rect id="button" ry="5" rx="5" y="6" x="6" height="38" width="38"
                fill="#f2f5e9" fill-opacity="0.5" stroke="#606060" stroke-width="1.0"/>
           <path id="arrow"
             d="M 11.500037,31.436501 C 11.940474,20.09759 22.043105,11.32322 32.158766,21.979434 L 37.068811,17.246167 C 37.068811,17.246167 37.088388,32 37.088388,32 L 22.160133,31.978069 C 22.160133,31.978069 26.997745,27.140456 26.997745,27.140456 C 18.528582,18.264221 13.291696,25.230495 11.500037,31.436501 z"
             style="fill:#404040;"/>
          </a>
         </g>
        </svg>
</svg>
