<?xml version="1.0" encoding="UTF-8" standalone="no"?>
<!DOCTYPE svg PUBLIC "-//W3C//DTD SVG 1.1//EN"
 "http://www.w3.org/Graphics/SVG/1.1/DTD/svg11.dtd">
<!-- Generated by graphviz version 2.26.0 (20091210.2329)
 -->
<!-- Title: core/models/apbuart/tcpio.h Pages: 1 -->
<svg width="268pt" height="174pt"
 viewBox="0.00 0.00 268.00 174.00" xmlns="http://www.w3.org/2000/svg" xmlns:xlink="http://www.w3.org/1999/xlink">
<g id="graph1" class="graph" transform="scale(1 1) rotate(0) translate(4 170)">
<title>core/models/apbuart/tcpio.h</title>
<polygon fill="white" stroke="white" points="-4,5 -4,-170 265,-170 265,5 -4,5"/>
<!-- Node1 -->
<g id="node1" class="node"><title>Node1</title>
<polygon fill="#bfbfbf" stroke="black" points="65.5,-131 65.5,-165 170.5,-165 170.5,-131 65.5,-131"/>
<text text-anchor="start" x="73.5" y="-152" font-family="Helvetica,sans-Serif" font-size="10.00">core/models/apbuart</text>
<text text-anchor="middle" x="118" y="-139" font-family="Helvetica,sans-Serif" font-size="10.00">/tcpio.h</text>
</g>
<!-- Node2 -->
<g id="node3" class="node"><title>Node2</title>
<polygon fill="white" stroke="#bfbfbf" points="0,-65.5 0,-86.5 80,-86.5 80,-65.5 0,-65.5"/>
<text text-anchor="middle" x="40" y="-73.5" font-family="Helvetica,sans-Serif" font-size="10.00">boost/asio.hpp</text>
</g>
<!-- Node1&#45;&gt;Node2 -->
<g id="edge2" class="edge"><title>Node1&#45;&gt;Node2</title>
<path fill="none" stroke="midnightblue" d="M99.5151,-130.937C87.3938,-119.748 71.5764,-105.147 59.295,-93.8108"/>
<polygon fill="midnightblue" stroke="midnightblue" points="61.5315,-91.112 51.8094,-86.901 56.7835,-96.2557 61.5315,-91.112"/>
</g>
<!-- Node3 -->
<g id="node5" class="node"><title>Node3</title>
<polygon fill="white" stroke="#bfbfbf" points="97.5,-65.5 97.5,-86.5 138.5,-86.5 138.5,-65.5 97.5,-65.5"/>
<text text-anchor="middle" x="118" y="-73.5" font-family="Helvetica,sans-Serif" font-size="10.00">string</text>
</g>
<!-- Node1&#45;&gt;Node3 -->
<g id="edge4" class="edge"><title>Node1&#45;&gt;Node3</title>
<path fill="none" stroke="midnightblue" d="M118,-130.937C118,-120.814 118,-107.898 118,-97.1329"/>
<polygon fill="midnightblue" stroke="midnightblue" points="121.5,-96.901 118,-86.901 114.5,-96.9011 121.5,-96.901"/>
</g>
<!-- Node4 -->
<g id="node7" class="node"><title>Node4</title>
<a xlink:href="io__if_8h.html" target="_top" xlink:title="core/models/apbuart\l/io_if.h">
<polygon fill="white" stroke="black" points="155.5,-59 155.5,-93 260.5,-93 260.5,-59 155.5,-59"/>
<text text-anchor="start" x="163.5" y="-80" font-family="Helvetica,sans-Serif" font-size="10.00">core/models/apbuart</text>
<text text-anchor="middle" x="208" y="-67" font-family="Helvetica,sans-Serif" font-size="10.00">/io_if.h</text>
</a>
</g>
<!-- Node1&#45;&gt;Node4 -->
<g id="edge6" class="edge"><title>Node1&#45;&gt;Node4</title>
<path fill="none" stroke="midnightblue" d="M139.329,-130.937C151.012,-121.59 165.672,-109.863 178.443,-99.6456"/>
<polygon fill="midnightblue" stroke="midnightblue" points="180.89,-102.17 186.512,-93.19 176.517,-96.704 180.89,-102.17"/>
</g>
<!-- Node5 -->
<g id="node9" class="node"><title>Node5</title>
<polygon fill="white" stroke="#bfbfbf" points="183.5,-0.5 183.5,-21.5 232.5,-21.5 232.5,-0.5 183.5,-0.5"/>
<text text-anchor="middle" x="208" y="-8.5" font-family="Helvetica,sans-Serif" font-size="10.00">stdint.h</text>
</g>
<!-- Node4&#45;&gt;Node5 -->
<g id="edge8" class="edge"><title>Node4&#45;&gt;Node5</title>
<path fill="none" stroke="midnightblue" d="M208,-58.922C208,-50.6704 208,-40.6922 208,-31.9818"/>
<polygon fill="midnightblue" stroke="midnightblue" points="211.5,-31.8521 208,-21.8521 204.5,-31.8521 211.5,-31.8521"/>
</g>
</g>
</svg>
