<?xml version="1.0" encoding="UTF-8" standalone="no"?>
<!DOCTYPE svg PUBLIC "-//W3C//DTD SVG 1.1//EN"
 "http://www.w3.org/Graphics/SVG/1.1/DTD/svg11.dtd">
<!-- Generated by graphviz version 2.36.0 (20140111.2315)
 -->
<!-- Title: gaisler/apbuart/tcpio.h Pages: 1 -->
<!--zoomable 512 -->
<svg id="main" version="1.1" xmlns="http://www.w3.org/2000/svg" xmlns:xlink="http://www.w3.org/1999/xlink" xml:space="preserve" onload="init(evt)">
<style type="text/css"><![CDATA[
.edge:hover path { stroke: red; }
.edge:hover polygon { stroke: red; fill: red; }
]]></style>
<script type="text/javascript"><![CDATA[
var edges = document.getElementsByTagName('g');
if (edges && edges.length) {
  for (var i=0;i<edges.length;i++) {
    if (edges[i].id.substr(0,4)=='edge') {
      edges[i].setAttribute('class','edge');
    }
  }
}
]]></script>
        <defs>
                <circle id="rim" cx="0" cy="0" r="7"/>
                <circle id="rim2" cx="0" cy="0" r="3.5"/>
                <g id="zoomPlus">
                        <use xlink:href="#rim" fill="#404040">
                                <set attributeName="fill" to="#808080" begin="zoomplus.mouseover" end="zoomplus.mouseout"/>
                        </use>
                        <path d="M-4,0h8M0,-4v8" fill="none" stroke="white" stroke-width="1.5" pointer-events="none"/>
                </g>
                <g id="zoomMin">
                        <use xlink:href="#rim" fill="#404040">
                                <set attributeName="fill" to="#808080" begin="zoomminus.mouseover" end="zoomminus.mouseout"/>
                        </use>
                        <path d="M-4,0h8" fill="none" stroke="white" stroke-width="1.5" pointer-events="none"/>
                </g>
                <g id="dirArrow">
                        <path fill="none" stroke="white" stroke-width="1.5" d="M0,-3.0v7 M-2.5,-0.5L0,-3.0L2.5,-0.5"/>
                </g>
               <g id="resetDef">
                       <use xlink:href="#rim2" fill="#404040">
                               <set attributeName="fill" to="#808080" begin="reset.mouseover" end="reset.mouseout"/>
                       </use>
               </g>
        </defs>

<script type="text/javascript">
var viewWidth = 1748;
var viewHeight = 512;
var sectionId = 'dynsection-0';
</script>
<script xlink:href="svgpan.js"/>
<svg id="graph" class="graph">
<g id="viewport">
<title>gaisler/apbuart/tcpio.h</title>
<polygon fill="white" stroke="none" points="-4,4 -4,-508 1744,-508 1744,4 -4,4"/>
<!-- Node1 -->
<g id="node1" class="node"><title>Node1</title>
<polygon fill="#bfbfbf" stroke="black" points="407.5,-484.5 407.5,-503.5 520.5,-503.5 520.5,-484.5 407.5,-484.5"/>
<text text-anchor="middle" x="464" y="-491.5" font-family="Helvetica,sans-Serif" font-size="10.00">gaisler/apbuart/tcpio.h</text>
</g>
<!-- Node2 -->
<g id="node2" class="node"><title>Node2</title>
<polygon fill="white" stroke="#bfbfbf" points="277,-428.5 277,-447.5 357,-447.5 357,-428.5 277,-428.5"/>
<text text-anchor="middle" x="317" y="-435.5" font-family="Helvetica,sans-Serif" font-size="10.00">boost/asio.hpp</text>
</g>
<!-- Node1&#45;&gt;Node2 -->
<g id="edge1" class="edge"><title>Node1&#45;&gt;Node2</title>
<path fill="none" stroke="midnightblue" d="M440.707,-484.444C416.193,-475.438 377.404,-461.189 349.8,-451.049"/>
<polygon fill="midnightblue" stroke="midnightblue" points="350.777,-447.679 340.184,-447.516 348.363,-454.25 350.777,-447.679"/>
</g>
<!-- Node3 -->
<g id="node3" class="node"><title>Node3</title>
<polygon fill="white" stroke="#bfbfbf" points="437.5,-180.5 437.5,-199.5 478.5,-199.5 478.5,-180.5 437.5,-180.5"/>
<text text-anchor="middle" x="458" y="-187.5" font-family="Helvetica,sans-Serif" font-size="10.00">string</text>
</g>
<!-- Node1&#45;&gt;Node3 -->
<g id="edge2" class="edge"><title>Node1&#45;&gt;Node3</title>
<path fill="none" stroke="midnightblue" d="M520.554,-492.216C594.852,-487.847 716,-467.732 716,-383 716,-383 716,-383 716,-319 716,-281.055 723.741,-261.889 696,-236 628.208,-172.733 579.306,-220.814 488.452,-201.108"/>
<polygon fill="midnightblue" stroke="midnightblue" points="489.187,-197.685 478.646,-198.753 487.552,-204.491 489.187,-197.685"/>
</g>
<!-- Node4 -->
<g id="node4" class="node"><title>Node4</title>
<g id="a_node4"><a xlink:href="io__if_8h.html" target="_top" xlink:title="gaisler/apbuart/io_if.h">
<polygon fill="white" stroke="black" points="185,-372.5 185,-391.5 295,-391.5 295,-372.5 185,-372.5"/>
<text text-anchor="middle" x="240" y="-379.5" font-family="Helvetica,sans-Serif" font-size="10.00">gaisler/apbuart/io_if.h</text>
</a>
</g>
</g>
<!-- Node1&#45;&gt;Node4 -->
<g id="edge3" class="edge"><title>Node1&#45;&gt;Node4</title>
<path fill="none" stroke="midnightblue" d="M453.075,-484.46C435.52,-471.042 399.588,-444.823 366,-428 338.314,-414.133 305.297,-402.506 280.007,-394.546"/>
<polygon fill="midnightblue" stroke="midnightblue" points="280.962,-391.178 270.375,-391.574 278.898,-397.867 280.962,-391.178"/>
</g>
<!-- Node11 -->
<g id="node11" class="node"><title>Node11</title>
<g id="a_node11"><a xlink:href="base_8h.html" target="_top" xlink:title="core/common/base.h">
<polygon fill="white" stroke="black" points="451,-428.5 451,-447.5 559,-447.5 559,-428.5 451,-428.5"/>
<text text-anchor="middle" x="505" y="-435.5" font-family="Helvetica,sans-Serif" font-size="10.00">core/common/base.h</text>
</a>
</g>
</g>
<!-- Node1&#45;&gt;Node11 -->
<g id="edge11" class="edge"><title>Node1&#45;&gt;Node11</title>
<path fill="none" stroke="midnightblue" d="M470.77,-484.083C476.562,-476.455 485.058,-465.264 492.138,-455.941"/>
<polygon fill="midnightblue" stroke="midnightblue" points="495.096,-457.832 498.356,-447.751 489.521,-453.599 495.096,-457.832"/>
</g>
<!-- Node17 -->
<g id="node17" class="node"><title>Node17</title>
<g id="a_node17"><a xlink:href="sr__report_8h.html" target="_top" xlink:title="core/common/sr_report.h">
<polygon fill="white" stroke="black" points="313.5,-372.5 313.5,-391.5 438.5,-391.5 438.5,-372.5 313.5,-372.5"/>
<text text-anchor="middle" x="376" y="-379.5" font-family="Helvetica,sans-Serif" font-size="10.00">core/common/sr_report.h</text>
</a>
</g>
</g>
<!-- Node1&#45;&gt;Node17 -->
<g id="edge61" class="edge"><title>Node1&#45;&gt;Node17</title>
<path fill="none" stroke="midnightblue" d="M457.095,-484.368C442.508,-466.135 408.341,-423.426 389.34,-399.675"/>
<polygon fill="midnightblue" stroke="midnightblue" points="391.853,-397.214 382.873,-391.591 386.387,-401.587 391.853,-397.214"/>
</g>
<!-- Node32 -->
<g id="node32" class="node"><title>Node32</title>
<g id="a_node32"><a xlink:href="verbose_8h.html" target="_top" xlink:title="Implements a unified output system for messages and debunging. ">
<polygon fill="white" stroke="black" points="1334,-124.5 1334,-143.5 1456,-143.5 1456,-124.5 1334,-124.5"/>
<text text-anchor="middle" x="1395" y="-131.5" font-family="Helvetica,sans-Serif" font-size="10.00">core/common/verbose.h</text>
</a>
</g>
</g>
<!-- Node1&#45;&gt;Node32 -->
<g id="edge60" class="edge"><title>Node1&#45;&gt;Node32</title>
<path fill="none" stroke="midnightblue" d="M520.554,-493.196C741.858,-493.229 1537,-486.169 1537,-383 1537,-383 1537,-383 1537,-251 1537,-218.216 1539.25,-204.077 1517,-180 1501.79,-163.54 1480.03,-153.079 1459.08,-146.44"/>
<polygon fill="midnightblue" stroke="midnightblue" points="1459.81,-143.004 1449.23,-143.564 1457.85,-149.724 1459.81,-143.004"/>
</g>
<!-- Node5 -->
<g id="node5" class="node"><title>Node5</title>
<polygon fill="white" stroke="#bfbfbf" points="51.5,-68.5 51.5,-87.5 100.5,-87.5 100.5,-68.5 51.5,-68.5"/>
<text text-anchor="middle" x="76" y="-75.5" font-family="Helvetica,sans-Serif" font-size="10.00">stdint.h</text>
</g>
<!-- Node4&#45;&gt;Node5 -->
<g id="edge4" class="edge"><title>Node4&#45;&gt;Node5</title>
<path fill="none" stroke="midnightblue" d="M184.939,-375.748C114.083,-365.611 0,-336.347 0,-253 0,-253 0,-253 0,-189 0,-158.902 2.16869,-148.952 19,-124 27.4008,-111.546 40.329,-100.937 51.7505,-93.1534"/>
<polygon fill="midnightblue" stroke="midnightblue" points="53.9606,-95.8931 60.4721,-87.5354 50.1699,-90.0083 53.9606,-95.8931"/>
</g>
<!-- Node6 -->
<g id="node6" class="node"><title>Node6</title>
<g id="a_node6"><a xlink:href="sr__registry_8h.html" target="_top" xlink:title="core/common/sr_registry.h">
<polygon fill="white" stroke="black" points="284.5,-310.5 284.5,-329.5 417.5,-329.5 417.5,-310.5 284.5,-310.5"/>
<text text-anchor="middle" x="351" y="-317.5" font-family="Helvetica,sans-Serif" font-size="10.00">core/common/sr_registry.h</text>
</a>
</g>
</g>
<!-- Node4&#45;&gt;Node6 -->
<g id="edge5" class="edge"><title>Node4&#45;&gt;Node6</title>
<path fill="none" stroke="midnightblue" d="M255.904,-372.403C274.285,-362.468 304.756,-345.997 326.245,-334.381"/>
<polygon fill="midnightblue" stroke="midnightblue" points="327.993,-337.415 335.126,-329.581 324.665,-331.257 327.993,-337.415"/>
</g>
<!-- Node7 -->
<g id="node7" class="node"><title>Node7</title>
<g id="a_node7"><a xlink:href="sr__registry_2sr__registry_8h.html" target="_top" xlink:title="core/common/sr_registry\l/sr_registry.h">
<polygon fill="white" stroke="black" points="288.5,-237 288.5,-267 413.5,-267 413.5,-237 288.5,-237"/>
<text text-anchor="start" x="296.5" y="-255" font-family="Helvetica,sans-Serif" font-size="10.00">core/common/sr_registry</text>
<text text-anchor="middle" x="351" y="-244" font-family="Helvetica,sans-Serif" font-size="10.00">/sr_registry.h</text>
</a>
</g>
</g>
<!-- Node6&#45;&gt;Node7 -->
<g id="edge6" class="edge"><title>Node6&#45;&gt;Node7</title>
<path fill="none" stroke="midnightblue" d="M351,-310.372C351,-301.971 351,-288.811 351,-277.213"/>
<polygon fill="midnightblue" stroke="midnightblue" points="354.5,-277.181 351,-267.181 347.5,-277.181 354.5,-277.181"/>
</g>
<!-- Node7&#45;&gt;Node3 -->
<g id="edge7" class="edge"><title>Node7&#45;&gt;Node3</title>
<path fill="none" stroke="midnightblue" d="M376.087,-236.933C393.494,-227.171 416.555,-214.24 433.772,-204.586"/>
<polygon fill="midnightblue" stroke="midnightblue" points="435.653,-207.544 442.663,-199.6 432.229,-201.438 435.653,-207.544"/>
</g>
<!-- Node8 -->
<g id="node8" class="node"><title>Node8</title>
<polygon fill="white" stroke="#bfbfbf" points="384.5,-180.5 384.5,-199.5 419.5,-199.5 419.5,-180.5 384.5,-180.5"/>
<text text-anchor="middle" x="402" y="-187.5" font-family="Helvetica,sans-Serif" font-size="10.00">map</text>
</g>
<!-- Node7&#45;&gt;Node8 -->
<g id="edge8" class="edge"><title>Node7&#45;&gt;Node8</title>
<path fill="none" stroke="midnightblue" d="M363.086,-236.781C370.574,-227.972 380.218,-216.626 388.032,-207.433"/>
<polygon fill="midnightblue" stroke="midnightblue" points="390.769,-209.617 394.579,-199.731 385.436,-205.083 390.769,-209.617"/>
</g>
<!-- Node9 -->
<g id="node9" class="node"><title>Node9</title>
<polygon fill="white" stroke="#bfbfbf" points="336,-180.5 336,-199.5 366,-199.5 366,-180.5 336,-180.5"/>
<text text-anchor="middle" x="351" y="-187.5" font-family="Helvetica,sans-Serif" font-size="10.00">set</text>
</g>
<!-- Node7&#45;&gt;Node9 -->
<g id="edge9" class="edge"><title>Node7&#45;&gt;Node9</title>
<path fill="none" stroke="midnightblue" d="M351,-236.781C351,-228.781 351,-218.689 351,-210.017"/>
<polygon fill="midnightblue" stroke="midnightblue" points="354.5,-209.73 351,-199.731 347.5,-209.731 354.5,-209.73"/>
</g>
<!-- Node10 -->
<g id="node10" class="node"><title>Node10</title>
<polygon fill="white" stroke="#bfbfbf" points="256,-180.5 256,-199.5 318,-199.5 318,-180.5 256,-180.5"/>
<text text-anchor="middle" x="287" y="-187.5" font-family="Helvetica,sans-Serif" font-size="10.00">systemc.h</text>
</g>
<!-- Node7&#45;&gt;Node10 -->
<g id="edge10" class="edge"><title>Node7&#45;&gt;Node10</title>
<path fill="none" stroke="midnightblue" d="M335.833,-236.781C326.149,-227.703 313.591,-215.929 303.635,-206.595"/>
<polygon fill="midnightblue" stroke="midnightblue" points="306.002,-204.017 296.313,-199.731 301.214,-209.123 306.002,-204.017"/>
</g>
<!-- Node11&#45;&gt;Node6 -->
<g id="edge27" class="edge"><title>Node11&#45;&gt;Node6</title>
<path fill="none" stroke="midnightblue" d="M498.691,-428.106C488.835,-414.676 468.656,-388.991 447,-372 426.84,-356.182 401.058,-342.796 381.291,-333.712"/>
<polygon fill="midnightblue" stroke="midnightblue" points="382.678,-330.499 372.12,-329.607 379.817,-336.888 382.678,-330.499"/>
</g>
<!-- Node12 -->
<g id="node12" class="node"><title>Node12</title>
<g id="a_node12"><a xlink:href="core_2common_2systemc_8h.html" target="_top" xlink:title="core/common/systemc.h">
<polygon fill="white" stroke="black" points="1434.5,-68.5 1434.5,-87.5 1559.5,-87.5 1559.5,-68.5 1434.5,-68.5"/>
<text text-anchor="middle" x="1497" y="-75.5" font-family="Helvetica,sans-Serif" font-size="10.00">core/common/systemc.h</text>
</a>
</g>
</g>
<!-- Node11&#45;&gt;Node12 -->
<g id="edge12" class="edge"><title>Node11&#45;&gt;Node12</title>
<path fill="none" stroke="midnightblue" d="M559.163,-433.487C776.675,-418.672 1575,-357.2 1575,-253 1575,-253 1575,-253 1575,-189 1575,-148.967 1540.2,-113.336 1517.09,-94.0874"/>
<polygon fill="midnightblue" stroke="midnightblue" points="1519.18,-91.2799 1509.19,-87.7595 1514.8,-96.7432 1519.18,-91.2799"/>
</g>
<!-- Node11&#45;&gt;Node17 -->
<g id="edge18" class="edge"><title>Node11&#45;&gt;Node17</title>
<path fill="none" stroke="midnightblue" d="M484.56,-428.444C463.33,-419.557 429.901,-405.563 405.745,-395.451"/>
<polygon fill="midnightblue" stroke="midnightblue" points="406.921,-392.149 396.345,-391.516 404.218,-398.606 406.921,-392.149"/>
</g>
<!-- Node23 -->
<g id="node23" class="node"><title>Node23</title>
<g id="a_node23"><a xlink:href="sr__param_8h.html" target="_top" xlink:title="core/common/sr_param.h">
<polygon fill="white" stroke="black" points="533,-372.5 533,-391.5 661,-391.5 661,-372.5 533,-372.5"/>
<text text-anchor="middle" x="597" y="-379.5" font-family="Helvetica,sans-Serif" font-size="10.00">core/common/sr_param.h</text>
</a>
</g>
</g>
<!-- Node11&#45;&gt;Node23 -->
<g id="edge28" class="edge"><title>Node11&#45;&gt;Node23</title>
<path fill="none" stroke="midnightblue" d="M519.781,-428.324C534.267,-419.822 556.573,-406.729 573.493,-396.797"/>
<polygon fill="midnightblue" stroke="midnightblue" points="575.403,-399.735 582.255,-391.655 571.859,-393.698 575.403,-399.735"/>
</g>
<!-- Node12&#45;&gt;Node12 -->
<g id="edge13" class="edge"><title>Node12&#45;&gt;Node12</title>
<path fill="none" stroke="midnightblue" d="M1531.12,-87.5252C1554.3,-90.3079 1577,-87.1328 1577,-78 1577,-70.2228 1560.54,-66.766 1541.34,-67.6294"/>
<polygon fill="midnightblue" stroke="midnightblue" points="1540.8,-64.1622 1531.12,-68.4748 1541.37,-71.1384 1540.8,-64.1622"/>
</g>
<!-- Node13 -->
<g id="node13" class="node"><title>Node13</title>
<polygon fill="white" stroke="#bfbfbf" points="1315,-6.5 1315,-25.5 1353,-25.5 1353,-6.5 1315,-6.5"/>
<text text-anchor="middle" x="1334" y="-13.5" font-family="Helvetica,sans-Serif" font-size="10.00">tlm.h</text>
</g>
<!-- Node12&#45;&gt;Node13 -->
<g id="edge14" class="edge"><title>Node12&#45;&gt;Node13</title>
<path fill="none" stroke="midnightblue" d="M1467.24,-68.4415C1439.76,-60.2032 1398.03,-46.836 1363,-32 1361.6,-31.4058 1360.17,-30.7711 1358.74,-30.1109"/>
<polygon fill="midnightblue" stroke="midnightblue" points="1359.96,-26.8125 1349.44,-25.5436 1356.87,-33.095 1359.96,-26.8125"/>
</g>
<!-- Node14 -->
<g id="node14" class="node"><title>Node14</title>
<polygon fill="white" stroke="#bfbfbf" points="1371.5,-1 1371.5,-31 1486.5,-31 1486.5,-1 1371.5,-1"/>
<text text-anchor="start" x="1379.5" y="-19" font-family="Helvetica,sans-Serif" font-size="10.00">tlm_utils/simple_target</text>
<text text-anchor="middle" x="1429" y="-8" font-family="Helvetica,sans-Serif" font-size="10.00">_socket.h</text>
</g>
<!-- Node12&#45;&gt;Node14 -->
<g id="edge15" class="edge"><title>Node12&#45;&gt;Node14</title>
<path fill="none" stroke="midnightblue" d="M1487.26,-68.4035C1478.31,-60.5051 1464.67,-48.4768 1452.85,-38.0409"/>
<polygon fill="midnightblue" stroke="midnightblue" points="1454.84,-35.1326 1445.03,-31.1408 1450.21,-40.3815 1454.84,-35.1326"/>
</g>
<!-- Node15 -->
<g id="node15" class="node"><title>Node15</title>
<polygon fill="white" stroke="#bfbfbf" points="1505,-1 1505,-31 1627,-31 1627,-1 1505,-1"/>
<text text-anchor="start" x="1513" y="-19" font-family="Helvetica,sans-Serif" font-size="10.00">tlm_utils/simple_initiator</text>
<text text-anchor="middle" x="1566" y="-8" font-family="Helvetica,sans-Serif" font-size="10.00">_socket.h</text>
</g>
<!-- Node12&#45;&gt;Node15 -->
<g id="edge16" class="edge"><title>Node12&#45;&gt;Node15</title>
<path fill="none" stroke="midnightblue" d="M1506.89,-68.4035C1516.06,-60.4292 1530.07,-48.2451 1542.15,-37.7403"/>
<polygon fill="midnightblue" stroke="midnightblue" points="1544.49,-40.3438 1549.74,-31.1408 1539.9,-35.0615 1544.49,-40.3438"/>
</g>
<!-- Node16 -->
<g id="node16" class="node"><title>Node16</title>
<polygon fill="white" stroke="#bfbfbf" points="1645.5,-1 1645.5,-31 1740.5,-31 1740.5,-1 1645.5,-1"/>
<text text-anchor="start" x="1653.5" y="-19" font-family="Helvetica,sans-Serif" font-size="10.00">tlm_utils/peq_with</text>
<text text-anchor="middle" x="1693" y="-8" font-family="Helvetica,sans-Serif" font-size="10.00">_get.h</text>
</g>
<!-- Node12&#45;&gt;Node16 -->
<g id="edge17" class="edge"><title>Node12&#45;&gt;Node16</title>
<path fill="none" stroke="midnightblue" d="M1525.08,-68.4035C1554.33,-59.4501 1600.91,-45.1897 1637.6,-33.9579"/>
<polygon fill="midnightblue" stroke="midnightblue" points="1638.65,-37.2992 1647.18,-31.0253 1636.6,-30.6058 1638.65,-37.2992"/>
</g>
<!-- Node18 -->
<g id="node18" class="node"><title>Node18</title>
<g id="a_node18"><a xlink:href="sr__report_2sr__report_8h.html" target="_top" xlink:title="core/common/sr_report\l/sr_report.h">
<polygon fill="white" stroke="black" points="153.5,-237 153.5,-267 270.5,-267 270.5,-237 153.5,-237"/>
<text text-anchor="start" x="161.5" y="-255" font-family="Helvetica,sans-Serif" font-size="10.00">core/common/sr_report</text>
<text text-anchor="middle" x="212" y="-244" font-family="Helvetica,sans-Serif" font-size="10.00">/sr_report.h</text>
</a>
</g>
</g>
<!-- Node17&#45;&gt;Node18 -->
<g id="edge19" class="edge"><title>Node17&#45;&gt;Node18</title>
<path fill="none" stroke="midnightblue" d="M346.91,-372.405C325.505,-365.097 296.511,-353.054 275,-336 253.995,-319.347 236.2,-294.166 224.936,-275.908"/>
<polygon fill="midnightblue" stroke="midnightblue" points="227.791,-273.863 219.658,-267.073 221.782,-277.453 227.791,-273.863"/>
</g>
<!-- Node18&#45;&gt;Node3 -->
<g id="edge23" class="edge"><title>Node18&#45;&gt;Node3</title>
<path fill="none" stroke="midnightblue" d="M270.562,-237.587C319.755,-226.25 387.178,-210.532 427.695,-199.937"/>
<polygon fill="midnightblue" stroke="midnightblue" points="428.624,-203.312 437.389,-197.359 426.826,-196.547 428.624,-203.312"/>
</g>
<!-- Node18&#45;&gt;Node8 -->
<g id="edge22" class="edge"><title>Node18&#45;&gt;Node8</title>
<path fill="none" stroke="midnightblue" d="M257.064,-236.893C289.581,-226.694 334.522,-212.559 374,-200 374.207,-199.934 374.414,-199.868 374.623,-199.802"/>
<polygon fill="midnightblue" stroke="midnightblue" points="375.772,-203.109 384.23,-196.729 373.64,-196.442 375.772,-203.109"/>
</g>
<!-- Node18&#45;&gt;Node10 -->
<g id="edge21" class="edge"><title>Node18&#45;&gt;Node10</title>
<path fill="none" stroke="midnightblue" d="M229.774,-236.781C241.346,-227.523 256.423,-215.462 268.196,-206.044"/>
<polygon fill="midnightblue" stroke="midnightblue" points="270.465,-208.711 276.087,-199.731 266.092,-203.244 270.465,-208.711"/>
</g>
<!-- Node19 -->
<g id="node19" class="node"><title>Node19</title>
<polygon fill="white" stroke="#bfbfbf" points="46,-180.5 46,-199.5 124,-199.5 124,-180.5 46,-180.5"/>
<text text-anchor="middle" x="85" y="-187.5" font-family="Helvetica,sans-Serif" font-size="10.00">boost/any.hpp</text>
</g>
<!-- Node18&#45;&gt;Node19 -->
<g id="edge20" class="edge"><title>Node18&#45;&gt;Node19</title>
<path fill="none" stroke="midnightblue" d="M182.224,-236.933C161.085,-226.946 132.921,-213.64 112.348,-203.92"/>
<polygon fill="midnightblue" stroke="midnightblue" points="113.74,-200.707 103.203,-199.6 110.75,-207.036 113.74,-200.707"/>
</g>
<!-- Node20 -->
<g id="node20" class="node"><title>Node20</title>
<polygon fill="white" stroke="#bfbfbf" points="288,-68.5 288,-87.5 338,-87.5 338,-68.5 288,-68.5"/>
<text text-anchor="middle" x="313" y="-75.5" font-family="Helvetica,sans-Serif" font-size="10.00">iomanip</text>
</g>
<!-- Node18&#45;&gt;Node20 -->
<g id="edge24" class="edge"><title>Node18&#45;&gt;Node20</title>
<path fill="none" stroke="midnightblue" d="M199.729,-236.717C179.807,-211.717 145.133,-159.333 171,-124 195.261,-90.8612 244.07,-81.5203 277.632,-79.2041"/>
<polygon fill="midnightblue" stroke="midnightblue" points="278.134,-82.6831 287.942,-78.6776 277.777,-75.6922 278.134,-82.6831"/>
</g>
<!-- Node21 -->
<g id="node21" class="node"><title>Node21</title>
<polygon fill="white" stroke="#bfbfbf" points="518,-68.5 518,-87.5 572,-87.5 572,-68.5 518,-68.5"/>
<text text-anchor="middle" x="545" y="-75.5" font-family="Helvetica,sans-Serif" font-size="10.00">iostream</text>
</g>
<!-- Node18&#45;&gt;Node21 -->
<g id="edge25" class="edge"><title>Node18&#45;&gt;Node21</title>
<path fill="none" stroke="midnightblue" d="M207.966,-236.88C204.433,-221.299 201.589,-196.278 214,-180 223.2,-167.934 424.041,-112.005 508.304,-88.9629"/>
<polygon fill="midnightblue" stroke="midnightblue" points="509.256,-92.3311 517.982,-86.3211 507.413,-85.5783 509.256,-92.3311"/>
</g>
<!-- Node22 -->
<g id="node22" class="node"><title>Node22</title>
<polygon fill="white" stroke="#bfbfbf" points="914,-68.5 914,-87.5 974,-87.5 974,-68.5 914,-68.5"/>
<text text-anchor="middle" x="944" y="-75.5" font-family="Helvetica,sans-Serif" font-size="10.00">streambuf</text>
</g>
<!-- Node18&#45;&gt;Node22 -->
<g id="edge26" class="edge"><title>Node18&#45;&gt;Node22</title>
<path fill="none" stroke="midnightblue" d="M214.797,-236.995C218.867,-220.536 228.1,-193.733 247,-180 300.565,-141.08 762.482,-95.7141 903.372,-82.6739"/>
<polygon fill="midnightblue" stroke="midnightblue" points="904.08,-86.1236 913.717,-81.7212 903.438,-79.1531 904.08,-86.1236"/>
</g>
<!-- Node24 -->
<g id="node24" class="node"><title>Node24</title>
<g id="a_node24"><a xlink:href="sr__param_2sr__param_8h.html" target="_top" xlink:title="core/common/sr_param\l/sr_param.h">
<polygon fill="white" stroke="black" points="537.5,-305 537.5,-335 656.5,-335 656.5,-305 537.5,-305"/>
<text text-anchor="start" x="545.5" y="-323" font-family="Helvetica,sans-Serif" font-size="10.00">core/common/sr_param</text>
<text text-anchor="middle" x="597" y="-312" font-family="Helvetica,sans-Serif" font-size="10.00">/sr_param.h</text>
</a>
</g>
</g>
<!-- Node23&#45;&gt;Node24 -->
<g id="edge29" class="edge"><title>Node23&#45;&gt;Node24</title>
<path fill="none" stroke="midnightblue" d="M597,-372.403C597,-365.341 597,-354.975 597,-345.399"/>
<polygon fill="midnightblue" stroke="midnightblue" points="600.5,-345.141 597,-335.141 593.5,-345.141 600.5,-345.141"/>
</g>
<!-- Node24&#45;&gt;Node3 -->
<g id="edge30" class="edge"><title>Node24&#45;&gt;Node3</title>
<path fill="none" stroke="midnightblue" d="M588.402,-304.776C577.234,-287.121 556.381,-256.805 533,-236 518.856,-223.414 500.698,-212.413 485.791,-204.439"/>
<polygon fill="midnightblue" stroke="midnightblue" points="487.029,-201.138 476.54,-199.649 483.811,-207.355 487.029,-201.138"/>
</g>
<!-- Node25 -->
<g id="node25" class="node"><title>Node25</title>
<polygon fill="white" stroke="#bfbfbf" points="580.5,-242.5 580.5,-261.5 687.5,-261.5 687.5,-242.5 580.5,-242.5"/>
<text text-anchor="middle" x="634" y="-249.5" font-family="Helvetica,sans-Serif" font-size="10.00">greencontrol/config.h</text>
</g>
<!-- Node24&#45;&gt;Node25 -->
<g id="edge31" class="edge"><title>Node24&#45;&gt;Node25</title>
<path fill="none" stroke="midnightblue" d="M605.028,-304.679C610.626,-294.694 618.131,-281.307 624.1,-270.66"/>
<polygon fill="midnightblue" stroke="midnightblue" points="627.214,-272.263 629.051,-261.828 621.108,-268.84 627.214,-272.263"/>
</g>
<!-- Node26 -->
<g id="node26" class="node"><title>Node26</title>
<g id="a_node26"><a xlink:href="sr__param__base_8h.html" target="_top" xlink:title="sr_param_base.h">
<polygon fill="white" stroke="black" points="432,-242.5 432,-261.5 524,-261.5 524,-242.5 432,-242.5"/>
<text text-anchor="middle" x="478" y="-249.5" font-family="Helvetica,sans-Serif" font-size="10.00">sr_param_base.h</text>
</a>
</g>
</g>
<!-- Node24&#45;&gt;Node26 -->
<g id="edge32" class="edge"><title>Node24&#45;&gt;Node26</title>
<path fill="none" stroke="midnightblue" d="M571.472,-304.841C551.073,-293.528 522.662,-277.771 502.531,-266.605"/>
<polygon fill="midnightblue" stroke="midnightblue" points="504.096,-263.471 493.654,-261.682 500.701,-269.593 504.096,-263.471"/>
</g>
<!-- Node27 -->
<g id="node27" class="node"><title>Node27</title>
<g id="a_node27"><a xlink:href="sr__param__class_8h.html" target="_top" xlink:title="sr_param_class.h">
<polygon fill="white" stroke="black" points="749,-242.5 749,-261.5 843,-261.5 843,-242.5 749,-242.5"/>
<text text-anchor="middle" x="796" y="-249.5" font-family="Helvetica,sans-Serif" font-size="10.00">sr_param_class.h</text>
</a>
</g>
</g>
<!-- Node24&#45;&gt;Node27 -->
<g id="edge36" class="edge"><title>Node24&#45;&gt;Node27</title>
<path fill="none" stroke="midnightblue" d="M639.69,-304.841C675.604,-292.93 726.368,-276.094 760.191,-264.876"/>
<polygon fill="midnightblue" stroke="midnightblue" points="761.72,-268.057 770.109,-261.587 759.516,-261.413 761.72,-268.057"/>
</g>
<!-- Node26&#45;&gt;Node3 -->
<g id="edge33" class="edge"><title>Node26&#45;&gt;Node3</title>
<path fill="none" stroke="midnightblue" d="M475.134,-242.403C472.253,-233.76 467.723,-220.17 464.045,-209.134"/>
<polygon fill="midnightblue" stroke="midnightblue" points="467.343,-207.961 460.86,-199.581 460.702,-210.174 467.343,-207.961"/>
</g>
<!-- Node26&#45;&gt;Node8 -->
<g id="edge34" class="edge"><title>Node26&#45;&gt;Node8</title>
<path fill="none" stroke="midnightblue" d="M467.111,-242.403C455.034,-232.869 435.333,-217.315 420.76,-205.811"/>
<polygon fill="midnightblue" stroke="midnightblue" points="422.886,-203.03 412.869,-199.581 418.549,-208.524 422.886,-203.03"/>
</g>
<!-- Node26&#45;&gt;Node11 -->
<g id="edge35" class="edge"><title>Node26&#45;&gt;Node11</title>
<path fill="none" stroke="midnightblue" d="M479.289,-261.786C483.432,-290.015 496.466,-378.843 502.222,-418.066"/>
<polygon fill="midnightblue" stroke="midnightblue" points="498.783,-418.739 503.698,-428.125 505.709,-417.723 498.783,-418.739"/>
</g>
<!-- Node27&#45;&gt;Node3 -->
<g id="edge37" class="edge"><title>Node27&#45;&gt;Node3</title>
<path fill="none" stroke="midnightblue" d="M760.476,-242.428C750.635,-240.189 739.929,-237.88 730,-236 625.318,-216.181 597.392,-221.294 493,-200 491.54,-199.702 490.05,-199.382 488.547,-199.047"/>
<polygon fill="midnightblue" stroke="midnightblue" points="489.188,-195.601 478.648,-196.678 487.559,-202.409 489.188,-195.601"/>
</g>
<!-- Node27&#45;&gt;Node21 -->
<g id="edge38" class="edge"><title>Node27&#45;&gt;Node21</title>
<path fill="none" stroke="midnightblue" d="M758.667,-242.447C749.311,-240.323 739.292,-238.063 730,-236 656.302,-219.634 615.816,-254.902 564,-200 537.936,-172.385 538.989,-124.419 542.01,-97.9314"/>
<polygon fill="midnightblue" stroke="midnightblue" points="545.52,-98.0993 543.399,-87.7188 538.584,-97.1559 545.52,-98.0993"/>
</g>
<!-- Node28 -->
<g id="node28" class="node"><title>Node28</title>
<polygon fill="white" stroke="#bfbfbf" points="573,-180.5 573,-199.5 625,-199.5 625,-180.5 573,-180.5"/>
<text text-anchor="middle" x="599" y="-187.5" font-family="Helvetica,sans-Serif" font-size="10.00">sstream</text>
</g>
<!-- Node27&#45;&gt;Node28 -->
<g id="edge39" class="edge"><title>Node27&#45;&gt;Node28</title>
<path fill="none" stroke="midnightblue" d="M767.775,-242.403C732.811,-231.755 673.198,-213.598 634.984,-201.959"/>
<polygon fill="midnightblue" stroke="midnightblue" points="635.87,-198.571 625.284,-199.005 633.831,-205.267 635.87,-198.571"/>
</g>
<!-- Node29 -->
<g id="node29" class="node"><title>Node29</title>
<polygon fill="white" stroke="#bfbfbf" points="643,-180.5 643,-199.5 745,-199.5 745,-180.5 643,-180.5"/>
<text text-anchor="middle" x="694" y="-187.5" font-family="Helvetica,sans-Serif" font-size="10.00">boost/tokenizer.hpp</text>
</g>
<!-- Node27&#45;&gt;Node29 -->
<g id="edge40" class="edge"><title>Node27&#45;&gt;Node29</title>
<path fill="none" stroke="midnightblue" d="M781.386,-242.403C764.647,-232.557 736.996,-216.291 717.281,-204.695"/>
<polygon fill="midnightblue" stroke="midnightblue" points="718.981,-201.634 708.587,-199.581 715.432,-207.668 718.981,-201.634"/>
</g>
<!-- Node30 -->
<g id="node30" class="node"><title>Node30</title>
<g id="a_node30"><a xlink:href="common_8h.html" target="_top" xlink:title="core/common/common.h">
<polygon fill="white" stroke="black" points="1383.5,-180.5 1383.5,-199.5 1508.5,-199.5 1508.5,-180.5 1383.5,-180.5"/>
<text text-anchor="middle" x="1446" y="-187.5" font-family="Helvetica,sans-Serif" font-size="10.00">core/common/common.h</text>
</a>
</g>
</g>
<!-- Node27&#45;&gt;Node30 -->
<g id="edge41" class="edge"><title>Node27&#45;&gt;Node30</title>
<path fill="none" stroke="midnightblue" d="M843.258,-247.415C940.369,-239.923 1169.62,-221.583 1373.21,-200.049"/>
<polygon fill="midnightblue" stroke="midnightblue" points="1373.61,-203.525 1383.19,-198.988 1372.87,-196.564 1373.61,-203.525"/>
</g>
<!-- Node35 -->
<g id="node35" class="node"><title>Node35</title>
<g id="a_node35"><a xlink:href="sr__param__t_8h.html" target="_top" xlink:title="sr_param_t.h">
<polygon fill="white" stroke="black" points="763,-180.5 763,-199.5 837,-199.5 837,-180.5 763,-180.5"/>
<text text-anchor="middle" x="800" y="-187.5" font-family="Helvetica,sans-Serif" font-size="10.00">sr_param_t.h</text>
</a>
</g>
</g>
<!-- Node27&#45;&gt;Node35 -->
<g id="edge53" class="edge"><title>Node27&#45;&gt;Node35</title>
<path fill="none" stroke="midnightblue" d="M796.573,-242.403C797.137,-233.938 798.018,-220.728 798.745,-209.82"/>
<polygon fill="midnightblue" stroke="midnightblue" points="802.255,-209.791 799.428,-199.581 795.27,-209.326 802.255,-209.791"/>
</g>
<!-- Node36 -->
<g id="node36" class="node"><title>Node36</title>
<g id="a_node36"><a xlink:href="sr__param__operator__macros_8h.html" target="_top" xlink:title="sr_param_operator_macros.h">
<polygon fill="white" stroke="black" points="855.5,-180.5 855.5,-199.5 998.5,-199.5 998.5,-180.5 855.5,-180.5"/>
<text text-anchor="middle" x="927" y="-187.5" font-family="Helvetica,sans-Serif" font-size="10.00">sr_param_operator_macros.h</text>
</a>
</g>
</g>
<!-- Node27&#45;&gt;Node36 -->
<g id="edge54" class="edge"><title>Node27&#45;&gt;Node36</title>
<path fill="none" stroke="midnightblue" d="M814.769,-242.403C836.851,-232.29 873.719,-215.404 899.139,-203.761"/>
<polygon fill="midnightblue" stroke="midnightblue" points="900.631,-206.927 908.266,-199.581 897.716,-200.563 900.631,-206.927"/>
</g>
<!-- Node37 -->
<g id="node37" class="node"><title>Node37</title>
<g id="a_node37"><a xlink:href="sr__param__delegate_8h.html" target="_top" xlink:title="sr_param_delegate.h">
<polygon fill="white" stroke="black" points="1016.5,-180.5 1016.5,-199.5 1123.5,-199.5 1123.5,-180.5 1016.5,-180.5"/>
<text text-anchor="middle" x="1070" y="-187.5" font-family="Helvetica,sans-Serif" font-size="10.00">sr_param_delegate.h</text>
</a>
</g>
</g>
<!-- Node27&#45;&gt;Node37 -->
<g id="edge55" class="edge"><title>Node27&#45;&gt;Node37</title>
<path fill="none" stroke="midnightblue" d="M834.967,-242.467C883.963,-231.738 968.092,-213.316 1021.29,-201.667"/>
<polygon fill="midnightblue" stroke="midnightblue" points="1022.15,-205.062 1031.17,-199.503 1020.65,-198.224 1022.15,-205.062"/>
</g>
<!-- Node38 -->
<g id="node38" class="node"><title>Node38</title>
<g id="a_node38"><a xlink:href="sr__param__native_8h.html" target="_top" xlink:title="sr_param_native.h">
<polygon fill="white" stroke="black" points="1141.5,-180.5 1141.5,-199.5 1238.5,-199.5 1238.5,-180.5 1141.5,-180.5"/>
<text text-anchor="middle" x="1190" y="-187.5" font-family="Helvetica,sans-Serif" font-size="10.00">sr_param_native.h</text>
</a>
</g>
</g>
<!-- Node27&#45;&gt;Node38 -->
<g id="edge56" class="edge"><title>Node27&#45;&gt;Node38</title>
<path fill="none" stroke="midnightblue" d="M843.029,-243.912C906.107,-234.394 1021.89,-216.884 1131.37,-200.092"/>
<polygon fill="midnightblue" stroke="midnightblue" points="1131.91,-203.55 1141.27,-198.574 1130.85,-196.631 1131.91,-203.55"/>
</g>
<!-- Node39 -->
<g id="node39" class="node"><title>Node39</title>
<g id="a_node39"><a xlink:href="sr__param__stdint_8h.html" target="_top" xlink:title="sr_param_stdint.h">
<polygon fill="white" stroke="black" points="28.5,-124.5 28.5,-143.5 123.5,-143.5 123.5,-124.5 28.5,-124.5"/>
<text text-anchor="middle" x="76" y="-131.5" font-family="Helvetica,sans-Serif" font-size="10.00">sr_param_stdint.h</text>
</a>
</g>
</g>
<!-- Node27&#45;&gt;Node39 -->
<g id="edge57" class="edge"><title>Node27&#45;&gt;Node39</title>
<path fill="none" stroke="midnightblue" d="M759.752,-242.457C750.102,-240.266 739.671,-237.973 730,-236 641.933,-218.036 616.791,-226.802 531,-200 510.496,-193.595 507.715,-185.685 487,-180 470.215,-175.393 242.859,-151.928 133.704,-140.831"/>
<polygon fill="midnightblue" stroke="midnightblue" points="133.823,-137.325 123.521,-139.796 133.116,-144.289 133.823,-137.325"/>
</g>
<!-- Node40 -->
<g id="node40" class="node"><title>Node40</title>
<g id="a_node40"><a xlink:href="sr__param__systemc_8h.html" target="_top" xlink:title="sr_param_systemc.h">
<polygon fill="white" stroke="black" points="1257,-180.5 1257,-199.5 1365,-199.5 1365,-180.5 1257,-180.5"/>
<text text-anchor="middle" x="1311" y="-187.5" font-family="Helvetica,sans-Serif" font-size="10.00">sr_param_systemc.h</text>
</a>
</g>
</g>
<!-- Node27&#45;&gt;Node40 -->
<g id="edge59" class="edge"><title>Node27&#45;&gt;Node40</title>
<path fill="none" stroke="midnightblue" d="M843.123,-246.096C923.471,-237.642 1092.38,-219.467 1246.75,-199.998"/>
<polygon fill="midnightblue" stroke="midnightblue" points="1247.41,-203.442 1256.89,-198.714 1246.53,-196.497 1247.41,-203.442"/>
</g>
<!-- Node30&#45;&gt;Node12 -->
<g id="edge42" class="edge"><title>Node30&#45;&gt;Node12</title>
<path fill="none" stroke="midnightblue" d="M1450,-180.368C1458.31,-162.456 1477.56,-120.923 1488.68,-96.9482"/>
<polygon fill="midnightblue" stroke="midnightblue" points="1491.99,-98.136 1493.02,-87.5914 1485.64,-95.1916 1491.99,-98.136"/>
</g>
<!-- Node31 -->
<g id="node31" class="node"><title>Node31</title>
<g id="a_node31"><a xlink:href="vendian_8h.html" target="_top" xlink:title="core/common/vendian.h">
<polygon fill="white" stroke="black" points="180.5,-124.5 180.5,-143.5 301.5,-143.5 301.5,-124.5 180.5,-124.5"/>
<text text-anchor="middle" x="241" y="-131.5" font-family="Helvetica,sans-Serif" font-size="10.00">core/common/vendian.h</text>
</a>
</g>
</g>
<!-- Node30&#45;&gt;Node31 -->
<g id="edge43" class="edge"><title>Node30&#45;&gt;Node31</title>
<path fill="none" stroke="midnightblue" d="M1383.2,-180.833C1380.09,-180.528 1377.01,-180.248 1374,-180 972.965,-147.031 490.015,-138.022 311.641,-135.729"/>
<polygon fill="midnightblue" stroke="midnightblue" points="311.643,-132.229 301.6,-135.603 311.555,-139.229 311.643,-132.229"/>
</g>
<!-- Node30&#45;&gt;Node32 -->
<g id="edge45" class="edge"><title>Node30&#45;&gt;Node32</title>
<path fill="none" stroke="midnightblue" d="M1432.69,-180.324C1423.79,-172.654 1412.62,-161.25 1404.56,-151.8"/>
<polygon fill="midnightblue" stroke="midnightblue" points="1407.17,-149.458 1398.19,-143.834 1401.71,-153.83 1407.17,-149.458"/>
</g>
<!-- Node31&#45;&gt;Node5 -->
<g id="edge44" class="edge"><title>Node31&#45;&gt;Node5</title>
<path fill="none" stroke="midnightblue" d="M214.855,-124.444C186.567,-115.185 141.344,-100.385 110.239,-90.2054"/>
<polygon fill="midnightblue" stroke="midnightblue" points="111.268,-86.8595 100.675,-87.0755 109.09,-93.5123 111.268,-86.8595"/>
</g>
<!-- Node32&#45;&gt;Node12 -->
<g id="edge52" class="edge"><title>Node32&#45;&gt;Node12</title>
<path fill="none" stroke="midnightblue" d="M1411.39,-124.324C1427.67,-115.703 1452.87,-102.364 1471.72,-92.3855"/>
<polygon fill="midnightblue" stroke="midnightblue" points="1473.45,-95.4267 1480.65,-87.6545 1470.18,-89.2402 1473.45,-95.4267"/>
</g>
<!-- Node32&#45;&gt;Node20 -->
<g id="edge48" class="edge"><title>Node32&#45;&gt;Node20</title>
<path fill="none" stroke="midnightblue" d="M1333.73,-129.942C1133.79,-119.964 504.348,-88.5497 348.279,-80.7607"/>
<polygon fill="midnightblue" stroke="midnightblue" points="348.444,-77.2647 338.282,-80.2618 348.095,-84.256 348.444,-77.2647"/>
</g>
<!-- Node32&#45;&gt;Node21 -->
<g id="edge49" class="edge"><title>Node32&#45;&gt;Node21</title>
<path fill="none" stroke="midnightblue" d="M1333.87,-129.116C1168.39,-118.603 715.199,-89.8126 582.175,-81.3617"/>
<polygon fill="midnightblue" stroke="midnightblue" points="582.286,-77.8618 572.084,-80.7206 581.842,-84.8477 582.286,-77.8618"/>
</g>
<!-- Node32&#45;&gt;Node22 -->
<g id="edge50" class="edge"><title>Node32&#45;&gt;Node22</title>
<path fill="none" stroke="midnightblue" d="M1333.71,-125.661C1239.9,-114.429 1063.27,-93.281 984.133,-83.8053"/>
<polygon fill="midnightblue" stroke="midnightblue" points="984.425,-80.3153 974.08,-82.6016 983.593,-87.2657 984.425,-80.3153"/>
</g>
<!-- Node32&#45;&gt;Node30 -->
<g id="edge51" class="edge"><title>Node32&#45;&gt;Node30</title>
<path fill="none" stroke="midnightblue" d="M1408.4,-143.751C1417.27,-151.405 1428.36,-162.736 1436.39,-172.144"/>
<polygon fill="midnightblue" stroke="midnightblue" points="1433.76,-174.465 1442.74,-180.083 1439.23,-170.089 1433.76,-174.465"/>
</g>
<!-- Node33 -->
<g id="node33" class="node"><title>Node33</title>
<polygon fill="white" stroke="#bfbfbf" points="1373.5,-68.5 1373.5,-87.5 1416.5,-87.5 1416.5,-68.5 1373.5,-68.5"/>
<text text-anchor="middle" x="1395" y="-75.5" font-family="Helvetica,sans-Serif" font-size="10.00">cstdio</text>
</g>
<!-- Node32&#45;&gt;Node33 -->
<g id="edge46" class="edge"><title>Node32&#45;&gt;Node33</title>
<path fill="none" stroke="midnightblue" d="M1395,-124.083C1395,-117.006 1395,-106.861 1395,-97.9865"/>
<polygon fill="midnightblue" stroke="midnightblue" points="1398.5,-97.751 1395,-87.7511 1391.5,-97.7511 1398.5,-97.751"/>
</g>
<!-- Node34 -->
<g id="node34" class="node"><title>Node34</title>
<polygon fill="white" stroke="#bfbfbf" points="1309,-68.5 1309,-87.5 1355,-87.5 1355,-68.5 1309,-68.5"/>
<text text-anchor="middle" x="1332" y="-75.5" font-family="Helvetica,sans-Serif" font-size="10.00">cstring</text>
</g>
<!-- Node32&#45;&gt;Node34 -->
<g id="edge47" class="edge"><title>Node32&#45;&gt;Node34</title>
<path fill="none" stroke="midnightblue" d="M1384.88,-124.324C1375.47,-116.263 1361.26,-104.077 1349.93,-94.3695"/>
<polygon fill="midnightblue" stroke="midnightblue" points="1352.18,-91.6844 1342.31,-87.8339 1347.62,-96.9993 1352.18,-91.6844"/>
</g>
<!-- Node39&#45;&gt;Node5 -->
<g id="edge58" class="edge"><title>Node39&#45;&gt;Node5</title>
<path fill="none" stroke="midnightblue" d="M76,-124.083C76,-117.006 76,-106.861 76,-97.9865"/>
<polygon fill="midnightblue" stroke="midnightblue" points="79.5001,-97.751 76,-87.7511 72.5001,-97.7511 79.5001,-97.751"/>
</g>
</g>
</svg>
        <g id="navigator" transform="translate(0 0)" fill="#404254">
                <rect fill="#f2f5e9" fill-opacity="0.5" stroke="#606060" stroke-width=".5" x="0" y="0" width="60" height="60"/>
                <use id="zoomplus" xlink:href="#zoomPlus" x="17" y="9" onmousedown="handleZoom(evt,'in')"/>
                <use id="zoomminus" xlink:href="#zoomMin" x="42" y="9" onmousedown="handleZoom(evt,'out')"/>
                <use id="reset" xlink:href="#resetDef" x="30" y="36" onmousedown="handleReset()"/>
                <g id="arrowUp" xlink:href="#dirArrow" transform="translate(30 24)" onmousedown="handlePan(0,-1)">
                  <use xlink:href="#rim" fill="#404040">
                        <set attributeName="fill" to="#808080" begin="arrowUp.mouseover" end="arrowUp.mouseout"/>
                  </use>
                  <path fill="none" stroke="white" stroke-width="1.5" d="M0,-3.0v7 M-2.5,-0.5L0,-3.0L2.5,-0.5"/>
                </g>
                <g id="arrowRight" xlink:href="#dirArrow" transform="rotate(90) translate(36 -43)" onmousedown="handlePan(1,0)">
                  <use xlink:href="#rim" fill="#404040">
                        <set attributeName="fill" to="#808080" begin="arrowRight.mouseover" end="arrowRight.mouseout"/>
                  </use>
                  <path fill="none" stroke="white" stroke-width="1.5" d="M0,-3.0v7 M-2.5,-0.5L0,-3.0L2.5,-0.5"/>
                </g>
                <g id="arrowDown" xlink:href="#dirArrow" transform="rotate(180) translate(-30 -48)" onmousedown="handlePan(0,1)">
                  <use xlink:href="#rim" fill="#404040">
                        <set attributeName="fill" to="#808080" begin="arrowDown.mouseover" end="arrowDown.mouseout"/>
                  </use>
                  <path fill="none" stroke="white" stroke-width="1.5" d="M0,-3.0v7 M-2.5,-0.5L0,-3.0L2.5,-0.5"/>
                </g>
                <g id="arrowLeft" xlink:href="#dirArrow" transform="rotate(270) translate(-36 17)" onmousedown="handlePan(-1,0)">
                  <use xlink:href="#rim" fill="#404040">
                        <set attributeName="fill" to="#808080" begin="arrowLeft.mouseover" end="arrowLeft.mouseout"/>
                  </use>
                  <path fill="none" stroke="white" stroke-width="1.5" d="M0,-3.0v7 M-2.5,-0.5L0,-3.0L2.5,-0.5"/>
                </g>
        </g>
        <svg viewBox="0 0 15 15" width="100%" height="30px" preserveAspectRatio="xMaxYMin meet">
         <g id="arrow_out" transform="scale(0.3 0.3)">
          <a xlink:href="tcpio_8h__incl_org.svg" target="_base">
           <rect id="button" ry="5" rx="5" y="6" x="6" height="38" width="38"
                fill="#f2f5e9" fill-opacity="0.5" stroke="#606060" stroke-width="1.0"/>
           <path id="arrow"
             d="M 11.500037,31.436501 C 11.940474,20.09759 22.043105,11.32322 32.158766,21.979434 L 37.068811,17.246167 C 37.068811,17.246167 37.088388,32 37.088388,32 L 22.160133,31.978069 C 22.160133,31.978069 26.997745,27.140456 26.997745,27.140456 C 18.528582,18.264221 13.291696,25.230495 11.500037,31.436501 z"
             style="fill:#404040;"/>
          </a>
         </g>
        </svg>
</svg>
