<?xml version="1.0" encoding="UTF-8" standalone="no"?>
<!DOCTYPE svg PUBLIC "-//W3C//DTD SVG 1.1//EN"
 "http://www.w3.org/Graphics/SVG/1.1/DTD/svg11.dtd">
<!-- Generated by graphviz version 2.26.0 (20091210.2329)
 -->
<!-- Title: core/common/timingmonitor.h Pages: 1 -->
<!--zoomable 276 -->
<svg id="main" version="1.1" xmlns="http://www.w3.org/2000/svg" xmlns:xlink="http://www.w3.org/1999/xlink" xml:space="preserve" onload="init(evt)">
<style type="text/css"><![CDATA[
.edge:hover path { stroke: red; }
.edge:hover polygon { stroke: red; fill: red; }
]]></style>
<script type="text/javascript"><![CDATA[
var edges = document.getElementsByTagName('g');
if (edges && edges.length) {
  for (var i=0;i<edges.length;i++) {
    if (edges[i].id.substr(0,4)=='edge') {
      edges[i].setAttribute('class','edge');
    }
  }
}
]]></script>
        <defs>
                <circle id="rim" cx="0" cy="0" r="7"/>
                <circle id="rim2" cx="0" cy="0" r="3.5"/>
                <g id="zoomPlus">
                        <use xlink:href="#rim" fill="#404040">
                                <set attributeName="fill" to="#808080" begin="zoomplus.mouseover" end="zoomplus.mouseout"/>
                        </use>
                        <path d="M-4,0h8M0,-4v8" fill="none" stroke="white" stroke-width="1.5" pointer-events="none"/>
                </g>
                <g id="zoomMin">
                        <use xlink:href="#rim" fill="#404040">
                                <set attributeName="fill" to="#808080" begin="zoomminus.mouseover" end="zoomminus.mouseout"/>
                        </use>
                        <path d="M-4,0h8" fill="none" stroke="white" stroke-width="1.5" pointer-events="none"/>
                </g>
                <g id="dirArrow">
                        <path fill="none" stroke="white" stroke-width="1.5" d="M0,-3.0v7 M-2.5,-0.5L0,-3.0L2.5,-0.5"/>
                </g>
               <g id="resetDef">
                       <use xlink:href="#rim2" fill="#404040">
                               <set attributeName="fill" to="#808080" begin="reset.mouseover" end="reset.mouseout"/>
                       </use>
               </g>
        </defs>

<script type="text/javascript">
var viewWidth = 562;
var viewHeight = 276;
var sectionId = 'dynsection-0';
</script>
<script xlink:href="svgpan.js"/>
<svg id="graph" class="graph">
<g id="viewport">
<title>core/common/timingmonitor.h</title>
<polygon fill="white" stroke="white" points="-4,5 -4,-272 559.107,-272 559.107,5 -4,5"/>
<!-- Node1 -->
<g id="node1" class="node"><title>Node1</title>
<polygon fill="#bfbfbf" stroke="black" points="9.10702,-246.5 9.10702,-267.5 155.107,-267.5 155.107,-246.5 9.10702,-246.5"/>
<text text-anchor="middle" x="82.107" y="-254.5" font-family="Helvetica,sans-Serif" font-size="10.00">core/common/timingmonitor.h</text>
</g>
<!-- Node2 -->
<g id="node3" class="node"><title>Node2</title>
<polygon fill="white" stroke="#bfbfbf" points="32.107,-7.5 32.107,-28.5 70.107,-28.5 70.107,-7.5 32.107,-7.5"/>
<text text-anchor="middle" x="51.107" y="-15.5" font-family="Helvetica,sans-Serif" font-size="10.00">tlm.h</text>
</g>
<!-- Node1&#45;&gt;Node2 -->
<g id="edge2" class="edge"><title>Node1&#45;&gt;Node2</title>
<path fill="none" stroke="midnightblue" d="M65.5336,-246.349C53.2794,-237.771 36.9112,-224.742 26.107,-210 9.61622,-187.498 7.54465,-179.362 2.10702,-152 -6.32107,-109.589 19.5282,-62.7115 36.8272,-37.1782"/>
<polygon fill="midnightblue" stroke="midnightblue" points="39.8412,-38.9769 42.7343,-28.7848 34.1167,-34.9482 39.8412,-38.9769"/>
</g>
<!-- Node3 -->
<g id="node5" class="node"><title>Node3</title>
<polygon fill="white" stroke="#bfbfbf" points="34.607,-188.5 34.607,-209.5 75.607,-209.5 75.607,-188.5 34.607,-188.5"/>
<text text-anchor="middle" x="55.107" y="-196.5" font-family="Helvetica,sans-Serif" font-size="10.00">ctime</text>
</g>
<!-- Node1&#45;&gt;Node3 -->
<g id="edge4" class="edge"><title>Node1&#45;&gt;Node3</title>
<path fill="none" stroke="midnightblue" d="M77.1548,-246.362C73.5772,-238.677 68.639,-228.069 64.3428,-218.84"/>
<polygon fill="midnightblue" stroke="midnightblue" points="67.4212,-217.159 60.0278,-209.571 61.0752,-220.114 67.4212,-217.159"/>
</g>
<!-- Node4 -->
<g id="node7" class="node"><title>Node4</title>
<polygon fill="white" stroke="#bfbfbf" points="92.607,-188.5 92.607,-209.5 127.607,-209.5 127.607,-188.5 92.607,-188.5"/>
<text text-anchor="middle" x="110.107" y="-196.5" font-family="Helvetica,sans-Serif" font-size="10.00">map</text>
</g>
<!-- Node1&#45;&gt;Node4 -->
<g id="edge6" class="edge"><title>Node1&#45;&gt;Node4</title>
<path fill="none" stroke="midnightblue" d="M87.2427,-246.362C90.9528,-238.677 96.0739,-228.069 100.529,-218.84"/>
<polygon fill="midnightblue" stroke="midnightblue" points="103.808,-220.098 105.004,-209.571 97.5045,-217.055 103.808,-220.098"/>
</g>
<!-- Node5 -->
<g id="node9" class="node"><title>Node5</title>
<a xlink:href="verbose_8h.html" target="_top" xlink:title="Implements a unified output system for messages and debunging. ">
<polygon fill="white" stroke="black" points="169.107,-188.5 169.107,-209.5 291.107,-209.5 291.107,-188.5 169.107,-188.5"/>
<text text-anchor="middle" x="230.107" y="-196.5" font-family="Helvetica,sans-Serif" font-size="10.00">core/common/verbose.h</text>
</a>
</g>
<!-- Node1&#45;&gt;Node5 -->
<g id="edge8" class="edge"><title>Node1&#45;&gt;Node5</title>
<path fill="none" stroke="midnightblue" d="M108.909,-246.497C132.545,-237.234 167.207,-223.65 193.415,-213.379"/>
<polygon fill="midnightblue" stroke="midnightblue" points="194.971,-216.529 203.005,-209.621 192.417,-210.011 194.971,-216.529"/>
</g>
<!-- Node6 -->
<g id="node11" class="node"><title>Node6</title>
<polygon fill="white" stroke="#bfbfbf" points="10.607,-130.5 10.607,-151.5 53.607,-151.5 53.607,-130.5 10.607,-130.5"/>
<text text-anchor="middle" x="32.107" y="-138.5" font-family="Helvetica,sans-Serif" font-size="10.00">cstdio</text>
</g>
<!-- Node5&#45;&gt;Node6 -->
<g id="edge10" class="edge"><title>Node5&#45;&gt;Node6</title>
<path fill="none" stroke="midnightblue" d="M189.102,-188.494C157.056,-180.067 111.226,-167.545 63.2804,-152.234"/>
<polygon fill="midnightblue" stroke="midnightblue" points="64.2582,-148.872 53.6666,-149.135 62.1106,-155.535 64.2582,-148.872"/>
</g>
<!-- Node7 -->
<g id="node13" class="node"><title>Node7</title>
<polygon fill="white" stroke="#bfbfbf" points="71.107,-130.5 71.107,-151.5 117.107,-151.5 117.107,-130.5 71.107,-130.5"/>
<text text-anchor="middle" x="94.107" y="-138.5" font-family="Helvetica,sans-Serif" font-size="10.00">cstring</text>
</g>
<!-- Node5&#45;&gt;Node7 -->
<g id="edge12" class="edge"><title>Node5&#45;&gt;Node7</title>
<path fill="none" stroke="midnightblue" d="M205.478,-188.497C183.412,-179.086 150.887,-165.215 126.676,-154.89"/>
<polygon fill="midnightblue" stroke="midnightblue" points="127.763,-151.549 117.192,-150.845 125.017,-157.987 127.763,-151.549"/>
</g>
<!-- Node8 -->
<g id="node15" class="node"><title>Node8</title>
<polygon fill="white" stroke="#bfbfbf" points="135.107,-130.5 135.107,-151.5 185.107,-151.5 185.107,-130.5 135.107,-130.5"/>
<text text-anchor="middle" x="160.107" y="-138.5" font-family="Helvetica,sans-Serif" font-size="10.00">iomanip</text>
</g>
<!-- Node5&#45;&gt;Node8 -->
<g id="edge14" class="edge"><title>Node5&#45;&gt;Node8</title>
<path fill="none" stroke="midnightblue" d="M217.268,-188.362C207.105,-179.941 192.706,-168.011 180.903,-158.231"/>
<polygon fill="midnightblue" stroke="midnightblue" points="182.798,-155.256 172.865,-151.571 178.332,-160.646 182.798,-155.256"/>
</g>
<!-- Node9 -->
<g id="node17" class="node"><title>Node9</title>
<polygon fill="white" stroke="#bfbfbf" points="203.107,-130.5 203.107,-151.5 257.107,-151.5 257.107,-130.5 203.107,-130.5"/>
<text text-anchor="middle" x="230.107" y="-138.5" font-family="Helvetica,sans-Serif" font-size="10.00">iostream</text>
</g>
<!-- Node5&#45;&gt;Node9 -->
<g id="edge16" class="edge"><title>Node5&#45;&gt;Node9</title>
<path fill="none" stroke="midnightblue" d="M230.107,-188.362C230.107,-180.922 230.107,-170.743 230.107,-161.728"/>
<polygon fill="midnightblue" stroke="midnightblue" points="233.607,-161.571 230.107,-151.571 226.607,-161.571 233.607,-161.571"/>
</g>
<!-- Node10 -->
<g id="node19" class="node"><title>Node10</title>
<polygon fill="white" stroke="#bfbfbf" points="275.107,-130.5 275.107,-151.5 335.107,-151.5 335.107,-130.5 275.107,-130.5"/>
<text text-anchor="middle" x="305.107" y="-138.5" font-family="Helvetica,sans-Serif" font-size="10.00">streambuf</text>
</g>
<!-- Node5&#45;&gt;Node10 -->
<g id="edge18" class="edge"><title>Node5&#45;&gt;Node10</title>
<path fill="none" stroke="midnightblue" d="M243.863,-188.362C254.858,-179.859 270.48,-167.779 283.193,-157.947"/>
<polygon fill="midnightblue" stroke="midnightblue" points="285.669,-160.457 291.438,-151.571 281.386,-154.919 285.669,-160.457"/>
</g>
<!-- Node11 -->
<g id="node21" class="node"><title>Node11</title>
<a xlink:href="common_8h.html" target="_top" xlink:title="core/common/common.h">
<polygon fill="white" stroke="black" points="390.607,-130.5 390.607,-151.5 515.607,-151.5 515.607,-130.5 390.607,-130.5"/>
<text text-anchor="middle" x="453.107" y="-138.5" font-family="Helvetica,sans-Serif" font-size="10.00">core/common/common.h</text>
</a>
</g>
<!-- Node5&#45;&gt;Node11 -->
<g id="edge20" class="edge"><title>Node5&#45;&gt;Node11</title>
<path fill="none" stroke="midnightblue" d="M265.151,-188.497C300.636,-178.816 355.869,-164.416 397.344,-154.01"/>
<polygon fill="midnightblue" stroke="midnightblue" points="398.45,-157.342 407.304,-151.523 396.754,-150.55 398.45,-157.342"/>
</g>
<!-- Node12 -->
<g id="node23" class="node"><title>Node12</title>
<a xlink:href="systemc_8h.html" target="_top" xlink:title="core/common/systemc.h">
<polygon fill="white" stroke="black" points="258.607,-72.5 258.607,-93.5 383.607,-93.5 383.607,-72.5 258.607,-72.5"/>
<text text-anchor="middle" x="321.107" y="-80.5" font-family="Helvetica,sans-Serif" font-size="10.00">core/common/systemc.h</text>
</a>
</g>
<!-- Node5&#45;&gt;Node12 -->
<g id="edge40" class="edge"><title>Node5&#45;&gt;Node12</title>
<path fill="none" stroke="midnightblue" d="M290.151,-188.437C310.789,-181.619 331.782,-170.413 344.107,-152 354.344,-136.706 345.469,-116.461 335.926,-101.86"/>
<polygon fill="midnightblue" stroke="midnightblue" points="338.703,-99.7248 330.063,-93.5928 332.993,-103.774 338.703,-99.7248"/>
</g>
<!-- Node11&#45;&gt;Node5 -->
<g id="edge38" class="edge"><title>Node11&#45;&gt;Node5</title>
<path fill="none" stroke="midnightblue" d="M417.991,-151.523C382.479,-161.21 327.242,-175.611 285.785,-186.011"/>
<polygon fill="midnightblue" stroke="midnightblue" points="284.685,-182.678 275.831,-188.497 286.381,-189.469 284.685,-182.678"/>
</g>
<!-- Node11&#45;&gt;Node12 -->
<g id="edge22" class="edge"><title>Node11&#45;&gt;Node12</title>
<path fill="none" stroke="midnightblue" d="M429.203,-130.497C408.307,-121.315 377.751,-107.889 354.452,-97.6516"/>
<polygon fill="midnightblue" stroke="midnightblue" points="355.843,-94.4397 345.279,-93.6212 353.027,-100.848 355.843,-94.4397"/>
</g>
<!-- Node16 -->
<g id="node33" class="node"><title>Node16</title>
<a xlink:href="vendian_8h.html" target="_top" xlink:title="core/common/vendian.h">
<polygon fill="white" stroke="black" points="433.607,-72.5 433.607,-93.5 554.607,-93.5 554.607,-72.5 433.607,-72.5"/>
<text text-anchor="middle" x="494.107" y="-80.5" font-family="Helvetica,sans-Serif" font-size="10.00">core/common/vendian.h</text>
</a>
</g>
<!-- Node11&#45;&gt;Node16 -->
<g id="edge34" class="edge"><title>Node11&#45;&gt;Node16</title>
<path fill="none" stroke="midnightblue" d="M460.627,-130.362C466.233,-122.431 474.039,-111.389 480.704,-101.961"/>
<polygon fill="midnightblue" stroke="midnightblue" points="483.72,-103.757 486.635,-93.5707 478.004,-99.7161 483.72,-103.757"/>
</g>
<!-- Node12&#45;&gt;Node2 -->
<g id="edge26" class="edge"><title>Node12&#45;&gt;Node2</title>
<path fill="none" stroke="midnightblue" d="M264.761,-72.4652C220.937,-63.857 158.768,-50.7357 105.107,-36 96.7741,-33.7117 87.8332,-30.8865 79.6721,-28.1581"/>
<polygon fill="midnightblue" stroke="midnightblue" points="80.7918,-24.8421 70.1972,-24.9208 78.5285,-31.4661 80.7918,-24.8421"/>
</g>
<!-- Node12&#45;&gt;Node12 -->
<g id="edge24" class="edge"><title>Node12&#45;&gt;Node12</title>
<path fill="none" stroke="midnightblue" d="M361.858,-93.5239C382.552,-95.0607 401.107,-91.5527 401.107,-83 401.107,-75.9173 388.382,-72.2942 372.255,-72.1308"/>
<polygon fill="midnightblue" stroke="midnightblue" points="371.736,-68.646 361.858,-72.4761 371.968,-75.6421 371.736,-68.646"/>
</g>
<!-- Node13 -->
<g id="node27" class="node"><title>Node13</title>
<polygon fill="white" stroke="#bfbfbf" points="113.607,-1 113.607,-35 228.607,-35 228.607,-1 113.607,-1"/>
<text text-anchor="start" x="121.607" y="-22" font-family="Helvetica,sans-Serif" font-size="10.00">tlm_utils/simple_target</text>
<text text-anchor="middle" x="171.107" y="-9" font-family="Helvetica,sans-Serif" font-size="10.00">_socket.h</text>
</g>
<!-- Node12&#45;&gt;Node13 -->
<g id="edge28" class="edge"><title>Node12&#45;&gt;Node13</title>
<path fill="none" stroke="midnightblue" d="M296.673,-72.412C275.897,-63.409 245.431,-50.2069 219.711,-39.0618"/>
<polygon fill="midnightblue" stroke="midnightblue" points="221.044,-35.8251 210.477,-35.0604 218.261,-42.248 221.044,-35.8251"/>
</g>
<!-- Node14 -->
<g id="node29" class="node"><title>Node14</title>
<polygon fill="white" stroke="#bfbfbf" points="246.107,-1 246.107,-35 368.107,-35 368.107,-1 246.107,-1"/>
<text text-anchor="start" x="254.107" y="-22" font-family="Helvetica,sans-Serif" font-size="10.00">tlm_utils/simple_initiator</text>
<text text-anchor="middle" x="307.107" y="-9" font-family="Helvetica,sans-Serif" font-size="10.00">_socket.h</text>
</g>
<!-- Node12&#45;&gt;Node14 -->
<g id="edge30" class="edge"><title>Node12&#45;&gt;Node14</title>
<path fill="none" stroke="midnightblue" d="M318.795,-72.2666C317.198,-64.8521 314.999,-54.6403 312.938,-45.0741"/>
<polygon fill="midnightblue" stroke="midnightblue" points="316.319,-44.1487 310.792,-35.1099 309.476,-45.6226 316.319,-44.1487"/>
</g>
<!-- Node15 -->
<g id="node31" class="node"><title>Node15</title>
<polygon fill="white" stroke="#bfbfbf" points="385.607,-1 385.607,-35 480.607,-35 480.607,-1 385.607,-1"/>
<text text-anchor="start" x="393.607" y="-22" font-family="Helvetica,sans-Serif" font-size="10.00">tlm_utils/peq_with</text>
<text text-anchor="middle" x="433.107" y="-9" font-family="Helvetica,sans-Serif" font-size="10.00">_get.h</text>
</g>
<!-- Node12&#45;&gt;Node15 -->
<g id="edge32" class="edge"><title>Node12&#45;&gt;Node15</title>
<path fill="none" stroke="midnightblue" d="M339.602,-72.2666C354.552,-63.5901 376.103,-51.083 394.748,-40.2622"/>
<polygon fill="midnightblue" stroke="midnightblue" points="396.733,-43.1565 403.625,-35.1099 393.22,-37.1023 396.733,-43.1565"/>
</g>
<!-- Node17 -->
<g id="node35" class="node"><title>Node17</title>
<polygon fill="white" stroke="#bfbfbf" points="497.607,-7.5 497.607,-28.5 546.607,-28.5 546.607,-7.5 497.607,-7.5"/>
<text text-anchor="middle" x="522.107" y="-15.5" font-family="Helvetica,sans-Serif" font-size="10.00">stdint.h</text>
</g>
<!-- Node16&#45;&gt;Node17 -->
<g id="edge36" class="edge"><title>Node16&#45;&gt;Node17</title>
<path fill="none" stroke="midnightblue" d="M498.731,-72.2666C502.726,-62.9906 508.608,-49.3364 513.472,-38.0453"/>
<polygon fill="midnightblue" stroke="midnightblue" points="516.828,-39.1025 517.569,-28.5337 510.399,-36.3331 516.828,-39.1025"/>
</g>
</g>
</svg>
        <g id="navigator" transform="translate(0 0)" fill="#404254">
                <rect fill="#f2f5e9" fill-opacity="0.5" stroke="#606060" stroke-width=".5" x="0" y="0" width="60" height="60"/>
                <use id="zoomplus" xlink:href="#zoomPlus" x="17" y="9" onmousedown="handleZoom(evt,'in')"/>
                <use id="zoomminus" xlink:href="#zoomMin" x="42" y="9" onmousedown="handleZoom(evt,'out')"/>
                <use id="reset" xlink:href="#resetDef" x="30" y="36" onmousedown="handleReset()"/>
                <g id="arrowUp" xlink:href="#dirArrow" transform="translate(30 24)" onmousedown="handlePan(0,-1)">
                  <use xlink:href="#rim" fill="#404040">
                        <set attributeName="fill" to="#808080" begin="arrowUp.mouseover" end="arrowUp.mouseout"/>
                  </use>
                  <path fill="none" stroke="white" stroke-width="1.5" d="M0,-3.0v7 M-2.5,-0.5L0,-3.0L2.5,-0.5"/>
                </g>
                <g id="arrowRight" xlink:href="#dirArrow" transform="rotate(90) translate(36 -43)" onmousedown="handlePan(1,0)">
                  <use xlink:href="#rim" fill="#404040">
                        <set attributeName="fill" to="#808080" begin="arrowRight.mouseover" end="arrowRight.mouseout"/>
                  </use>
                  <path fill="none" stroke="white" stroke-width="1.5" d="M0,-3.0v7 M-2.5,-0.5L0,-3.0L2.5,-0.5"/>
                </g>
                <g id="arrowDown" xlink:href="#dirArrow" transform="rotate(180) translate(-30 -48)" onmousedown="handlePan(0,1)">
                  <use xlink:href="#rim" fill="#404040">
                        <set attributeName="fill" to="#808080" begin="arrowDown.mouseover" end="arrowDown.mouseout"/>
                  </use>
                  <path fill="none" stroke="white" stroke-width="1.5" d="M0,-3.0v7 M-2.5,-0.5L0,-3.0L2.5,-0.5"/>
                </g>
                <g id="arrowLeft" xlink:href="#dirArrow" transform="rotate(270) translate(-36 17)" onmousedown="handlePan(-1,0)">
                  <use xlink:href="#rim" fill="#404040">
                        <set attributeName="fill" to="#808080" begin="arrowLeft.mouseover" end="arrowLeft.mouseout"/>
                  </use>
                  <path fill="none" stroke="white" stroke-width="1.5" d="M0,-3.0v7 M-2.5,-0.5L0,-3.0L2.5,-0.5"/>
                </g>
        </g>
        <svg viewBox="0 0 15 15" width="100%" height="30px" preserveAspectRatio="xMaxYMin meet">
         <g id="arrow_out" transform="scale(0.3 0.3)">
          <a xlink:href="timingmonitor_8h__incl_org.svg" target="_base">
           <rect id="button" ry="5" rx="5" y="6" x="6" height="38" width="38"
                fill="#f2f5e9" fill-opacity="0.5" stroke="#606060" stroke-width="1.0"/>
           <path id="arrow"
             d="M 11.500037,31.436501 C 11.940474,20.09759 22.043105,11.32322 32.158766,21.979434 L 37.068811,17.246167 C 37.068811,17.246167 37.088388,32 37.088388,32 L 22.160133,31.978069 C 22.160133,31.978069 26.997745,27.140456 26.997745,27.140456 C 18.528582,18.264221 13.291696,25.230495 11.500037,31.436501 z"
             style="fill:#404040;"/>
          </a>
         </g>
        </svg>
</svg>
