<?xml version="1.0" encoding="UTF-8" standalone="no"?>
<!DOCTYPE svg PUBLIC "-//W3C//DTD SVG 1.1//EN"
 "http://www.w3.org/Graphics/SVG/1.1/DTD/svg11.dtd">
<!-- Generated by graphviz version 2.36.0 (20140111.2315)
 -->
<!-- Title: gaisler/leon3/mmucache/tlb_adaptor.h Pages: 1 -->
<svg width="1013pt" height="300pt"
 viewBox="0.00 0.00 1012.78 300.00" xmlns="http://www.w3.org/2000/svg" xmlns:xlink="http://www.w3.org/1999/xlink">
<g id="graph0" class="graph" transform="scale(1 1) rotate(0) translate(4 296)">
<title>gaisler/leon3/mmucache/tlb_adaptor.h</title>
<polygon fill="white" stroke="none" points="-4,4 -4,-296 1008.78,-296 1008.78,4 -4,4"/>
<!-- Node1 -->
<g id="node1" class="node"><title>Node1</title>
<polygon fill="#bfbfbf" stroke="black" points="403.779,-261 403.779,-291 525.779,-291 525.779,-261 403.779,-261"/>
<text text-anchor="start" x="411.779" y="-279" font-family="Helvetica,sans-Serif" font-size="10.00">gaisler/leon3/mmucache</text>
<text text-anchor="middle" x="464.779" y="-268" font-family="Helvetica,sans-Serif" font-size="10.00">/tlb_adaptor.h</text>
</g>
<!-- Node2 -->
<g id="node2" class="node"><title>Node2</title>
<polygon fill="white" stroke="#bfbfbf" points="1.77916,-6.5 1.77916,-25.5 39.7792,-25.5 39.7792,-6.5 1.77916,-6.5"/>
<text text-anchor="middle" x="20.7792" y="-13.5" font-family="Helvetica,sans-Serif" font-size="10.00">tlm.h</text>
</g>
<!-- Node1&#45;&gt;Node2 -->
<g id="edge1" class="edge"><title>Node1&#45;&gt;Node2</title>
<path fill="none" stroke="midnightblue" d="M403.519,-275.43C298.961,-274.93 91.985,-268.193 36.7792,-224 -19.7905,-178.715 2.62046,-76.9002 14.8518,-35.267"/>
<polygon fill="midnightblue" stroke="midnightblue" points="18.2211,-36.2182 17.8233,-25.6308 11.5319,-34.1554 18.2211,-36.2182"/>
</g>
<!-- Node3 -->
<g id="node3" class="node"><title>Node3</title>
<g id="a_node3"><a xlink:href="mmu__cache__if_8h.html" target="_top" xlink:title="gaisler/leon3/mmucache\l/mmu_cache_if.h">
<polygon fill="white" stroke="black" points="793.779,-193 793.779,-223 915.779,-223 915.779,-193 793.779,-193"/>
<text text-anchor="start" x="801.779" y="-211" font-family="Helvetica,sans-Serif" font-size="10.00">gaisler/leon3/mmucache</text>
<text text-anchor="middle" x="854.779" y="-200" font-family="Helvetica,sans-Serif" font-size="10.00">/mmu_cache_if.h</text>
</a>
</g>
</g>
<!-- Node1&#45;&gt;Node3 -->
<g id="edge2" class="edge"><title>Node1&#45;&gt;Node3</title>
<path fill="none" stroke="midnightblue" d="M525.869,-265.793C589.415,-256.055 691.738,-239.926 779.779,-224 781.029,-223.774 782.289,-223.544 783.559,-223.31"/>
<polygon fill="midnightblue" stroke="midnightblue" points="784.235,-226.745 793.419,-221.464 782.946,-219.864 784.235,-226.745"/>
</g>
<!-- Node4 -->
<g id="node4" class="node"><title>Node4</title>
<g id="a_node4"><a xlink:href="mem__if_8h.html" target="_top" xlink:title="gaisler/leon3/mmucache\l/mem_if.h">
<polygon fill="white" stroke="black" points="882.779,-125 882.779,-155 1004.78,-155 1004.78,-125 882.779,-125"/>
<text text-anchor="start" x="890.779" y="-143" font-family="Helvetica,sans-Serif" font-size="10.00">gaisler/leon3/mmucache</text>
<text text-anchor="middle" x="943.779" y="-132" font-family="Helvetica,sans-Serif" font-size="10.00">/mem_if.h</text>
</a>
</g>
</g>
<!-- Node1&#45;&gt;Node4 -->
<g id="edge10" class="edge"><title>Node1&#45;&gt;Node4</title>
<path fill="none" stroke="midnightblue" d="M526.161,-272.109C644.591,-265.972 895.578,-250.033 924.779,-224 941.013,-209.527 944.863,-184.276 945.202,-165.415"/>
<polygon fill="midnightblue" stroke="midnightblue" points="948.698,-165.13 945.062,-155.178 941.699,-165.225 948.698,-165.13"/>
</g>
<!-- Node6 -->
<g id="node6" class="node"><title>Node6</title>
<g id="a_node6"><a xlink:href="mmu__if_8h.html" target="_top" xlink:title="gaisler/leon3/mmucache\l/mmu_if.h">
<polygon fill="white" stroke="black" points="45.7792,-193 45.7792,-223 167.779,-223 167.779,-193 45.7792,-193"/>
<text text-anchor="start" x="53.7792" y="-211" font-family="Helvetica,sans-Serif" font-size="10.00">gaisler/leon3/mmucache</text>
<text text-anchor="middle" x="106.779" y="-200" font-family="Helvetica,sans-Serif" font-size="10.00">/mmu_if.h</text>
</a>
</g>
</g>
<!-- Node1&#45;&gt;Node6 -->
<g id="edge5" class="edge"><title>Node1&#45;&gt;Node6</title>
<path fill="none" stroke="midnightblue" d="M403.667,-264.238C346.512,-254.103 258.797,-238.375 182.779,-224 181.292,-223.719 179.79,-223.433 178.275,-223.145"/>
<polygon fill="midnightblue" stroke="midnightblue" points="178.634,-219.65 168.153,-221.2 177.313,-226.524 178.634,-219.65"/>
</g>
<!-- Node8 -->
<g id="node8" class="node"><title>Node8</title>
<g id="a_node8"><a xlink:href="gaisler_2leon3_2mmucache_2defines_8h.html" target="_top" xlink:title="gaisler/leon3/mmucache\l/defines.h">
<polygon fill="white" stroke="black" points="90.7792,-125 90.7792,-155 212.779,-155 212.779,-125 90.7792,-125"/>
<text text-anchor="start" x="98.7792" y="-143" font-family="Helvetica,sans-Serif" font-size="10.00">gaisler/leon3/mmucache</text>
<text text-anchor="middle" x="151.779" y="-132" font-family="Helvetica,sans-Serif" font-size="10.00">/defines.h</text>
</a>
</g>
</g>
<!-- Node1&#45;&gt;Node8 -->
<g id="edge29" class="edge"><title>Node1&#45;&gt;Node8</title>
<path fill="none" stroke="midnightblue" d="M431.874,-260.913C374.695,-236.434 257.083,-186.082 193.984,-159.068"/>
<polygon fill="midnightblue" stroke="midnightblue" points="195.283,-155.818 184.713,-155.099 192.528,-162.253 195.283,-155.818"/>
</g>
<!-- Node9 -->
<g id="node9" class="node"><title>Node9</title>
<g id="a_node9"><a xlink:href="verbose_8h.html" target="_top" xlink:title="Implements a unified output system for messages and debunging. ">
<polygon fill="white" stroke="black" points="403.779,-198.5 403.779,-217.5 525.779,-217.5 525.779,-198.5 403.779,-198.5"/>
<text text-anchor="middle" x="464.779" y="-205.5" font-family="Helvetica,sans-Serif" font-size="10.00">core/common/verbose.h</text>
</a>
</g>
</g>
<!-- Node1&#45;&gt;Node9 -->
<g id="edge11" class="edge"><title>Node1&#45;&gt;Node9</title>
<path fill="none" stroke="midnightblue" d="M464.779,-260.679C464.779,-251.101 464.779,-238.394 464.779,-227.977"/>
<polygon fill="midnightblue" stroke="midnightblue" points="468.279,-227.828 464.779,-217.828 461.279,-227.828 468.279,-227.828"/>
</g>
<!-- Node20 -->
<g id="node20" class="node"><title>Node20</title>
<g id="a_node20"><a xlink:href="vendian_8h.html" target="_top" xlink:title="core/common/vendian.h">
<polygon fill="white" stroke="black" points="705.279,-68.5 705.279,-87.5 826.279,-87.5 826.279,-68.5 705.279,-68.5"/>
<text text-anchor="middle" x="765.779" y="-75.5" font-family="Helvetica,sans-Serif" font-size="10.00">core/common/vendian.h</text>
</a>
</g>
</g>
<!-- Node1&#45;&gt;Node20 -->
<g id="edge28" class="edge"><title>Node1&#45;&gt;Node20</title>
<path fill="none" stroke="midnightblue" d="M525.863,-265.361C589.951,-252.016 689.088,-221.668 745.779,-156 759.712,-139.861 764.114,-115.186 765.413,-98.1386"/>
<polygon fill="midnightblue" stroke="midnightblue" points="768.928,-97.9058 765.896,-87.7541 761.935,-97.5808 768.928,-97.9058"/>
</g>
<!-- Node3&#45;&gt;Node4 -->
<g id="edge3" class="edge"><title>Node3&#45;&gt;Node4</title>
<path fill="none" stroke="midnightblue" d="M874.091,-192.679C886.538,-183.449 902.905,-171.311 916.65,-161.118"/>
<polygon fill="midnightblue" stroke="midnightblue" points="918.863,-163.834 924.811,-155.066 914.694,-158.212 918.863,-163.834"/>
</g>
<!-- Node5 -->
<g id="node5" class="node"><title>Node5</title>
<polygon fill="white" stroke="#bfbfbf" points="785.279,-6.5 785.279,-25.5 834.279,-25.5 834.279,-6.5 785.279,-6.5"/>
<text text-anchor="middle" x="809.779" y="-13.5" font-family="Helvetica,sans-Serif" font-size="10.00">stdint.h</text>
</g>
<!-- Node3&#45;&gt;Node5 -->
<g id="edge4" class="edge"><title>Node3&#45;&gt;Node5</title>
<path fill="none" stroke="midnightblue" d="M854.2,-192.873C852.839,-167.39 848.439,-112.263 834.779,-68 831.197,-56.3915 825.272,-44.1442 820.089,-34.5616"/>
<polygon fill="midnightblue" stroke="midnightblue" points="823.043,-32.6742 815.086,-25.6787 816.944,-36.1094 823.043,-32.6742"/>
</g>
<!-- Node6&#45;&gt;Node2 -->
<g id="edge6" class="edge"><title>Node6&#45;&gt;Node2</title>
<path fill="none" stroke="midnightblue" d="M70.6513,-192.848C54.6573,-184.612 37.3348,-172.538 27.7792,-156 5.7867,-117.937 11.5179,-63.7713 16.6752,-35.6148"/>
<polygon fill="midnightblue" stroke="midnightblue" points="20.1552,-36.0625 18.7001,-25.568 13.2932,-34.6793 20.1552,-36.0625"/>
</g>
<!-- Node7 -->
<g id="node7" class="node"><title>Node7</title>
<polygon fill="white" stroke="#bfbfbf" points="37.2792,-130.5 37.2792,-149.5 72.2792,-149.5 72.2792,-130.5 37.2792,-130.5"/>
<text text-anchor="middle" x="54.7792" y="-137.5" font-family="Helvetica,sans-Serif" font-size="10.00">map</text>
</g>
<!-- Node6&#45;&gt;Node7 -->
<g id="edge7" class="edge"><title>Node6&#45;&gt;Node7</title>
<path fill="none" stroke="midnightblue" d="M95.4959,-192.679C87.388,-182.388 76.4331,-168.484 67.9286,-157.69"/>
<polygon fill="midnightblue" stroke="midnightblue" points="70.6728,-155.517 61.7348,-149.828 65.1743,-159.849 70.6728,-155.517"/>
</g>
<!-- Node6&#45;&gt;Node8 -->
<g id="edge8" class="edge"><title>Node6&#45;&gt;Node8</title>
<path fill="none" stroke="midnightblue" d="M116.543,-192.679C122.322,-184.203 129.773,-173.276 136.333,-163.655"/>
<polygon fill="midnightblue" stroke="midnightblue" points="139.292,-165.527 142.034,-155.293 133.509,-161.584 139.292,-165.527"/>
</g>
<!-- Node8&#45;&gt;Node2 -->
<g id="edge9" class="edge"><title>Node8&#45;&gt;Node2</title>
<path fill="none" stroke="midnightblue" d="M136.495,-124.766C111.769,-101.739 63.1829,-56.4905 37.5411,-32.6104"/>
<polygon fill="midnightblue" stroke="midnightblue" points="39.7848,-29.9171 30.0814,-25.6632 35.0141,-35.0397 39.7848,-29.9171"/>
</g>
<!-- Node10 -->
<g id="node10" class="node"><title>Node10</title>
<polygon fill="white" stroke="#bfbfbf" points="412.279,-130.5 412.279,-149.5 455.279,-149.5 455.279,-130.5 412.279,-130.5"/>
<text text-anchor="middle" x="433.779" y="-137.5" font-family="Helvetica,sans-Serif" font-size="10.00">cstdio</text>
</g>
<!-- Node9&#45;&gt;Node10 -->
<g id="edge12" class="edge"><title>Node9&#45;&gt;Node10</title>
<path fill="none" stroke="midnightblue" d="M460.726,-198.372C456.064,-188.446 448.281,-171.874 442.274,-159.086"/>
<polygon fill="midnightblue" stroke="midnightblue" points="445.351,-157.404 437.932,-149.841 439.015,-160.38 445.351,-157.404"/>
</g>
<!-- Node11 -->
<g id="node11" class="node"><title>Node11</title>
<polygon fill="white" stroke="#bfbfbf" points="473.779,-130.5 473.779,-149.5 519.779,-149.5 519.779,-130.5 473.779,-130.5"/>
<text text-anchor="middle" x="496.779" y="-137.5" font-family="Helvetica,sans-Serif" font-size="10.00">cstring</text>
</g>
<!-- Node9&#45;&gt;Node11 -->
<g id="edge13" class="edge"><title>Node9&#45;&gt;Node11</title>
<path fill="none" stroke="midnightblue" d="M468.963,-198.372C473.775,-188.446 481.81,-171.874 488.01,-159.086"/>
<polygon fill="midnightblue" stroke="midnightblue" points="491.279,-160.366 492.493,-149.841 484.98,-157.312 491.279,-160.366"/>
</g>
<!-- Node12 -->
<g id="node12" class="node"><title>Node12</title>
<polygon fill="white" stroke="#bfbfbf" points="537.779,-130.5 537.779,-149.5 587.779,-149.5 587.779,-130.5 537.779,-130.5"/>
<text text-anchor="middle" x="562.779" y="-137.5" font-family="Helvetica,sans-Serif" font-size="10.00">iomanip</text>
</g>
<!-- Node9&#45;&gt;Node12 -->
<g id="edge14" class="edge"><title>Node9&#45;&gt;Node12</title>
<path fill="none" stroke="midnightblue" d="M477.591,-198.372C493.805,-187.452 521.963,-168.489 541.443,-155.369"/>
<polygon fill="midnightblue" stroke="midnightblue" points="543.625,-158.12 549.964,-149.63 539.715,-152.313 543.625,-158.12"/>
</g>
<!-- Node13 -->
<g id="node13" class="node"><title>Node13</title>
<polygon fill="white" stroke="#bfbfbf" points="605.779,-130.5 605.779,-149.5 659.779,-149.5 659.779,-130.5 605.779,-130.5"/>
<text text-anchor="middle" x="632.779" y="-137.5" font-family="Helvetica,sans-Serif" font-size="10.00">iostream</text>
</g>
<!-- Node9&#45;&gt;Node13 -->
<g id="edge15" class="edge"><title>Node9&#45;&gt;Node13</title>
<path fill="none" stroke="midnightblue" d="M487.743,-198.336C514.132,-188.331 558.705,-171.285 596.779,-156 598.872,-155.16 601.03,-154.284 603.201,-153.397"/>
<polygon fill="midnightblue" stroke="midnightblue" points="604.727,-156.553 612.635,-149.502 602.056,-150.083 604.727,-156.553"/>
</g>
<!-- Node14 -->
<g id="node14" class="node"><title>Node14</title>
<polygon fill="white" stroke="#bfbfbf" points="677.779,-130.5 677.779,-149.5 737.779,-149.5 737.779,-130.5 677.779,-130.5"/>
<text text-anchor="middle" x="707.779" y="-137.5" font-family="Helvetica,sans-Serif" font-size="10.00">streambuf</text>
</g>
<!-- Node9&#45;&gt;Node14 -->
<g id="edge16" class="edge"><title>Node9&#45;&gt;Node14</title>
<path fill="none" stroke="midnightblue" d="M505.054,-198.46C546.497,-189.316 612.735,-173.71 668.779,-156 671.568,-155.119 674.445,-154.143 677.314,-153.125"/>
<polygon fill="midnightblue" stroke="midnightblue" points="678.736,-156.33 686.896,-149.572 676.303,-149.767 678.736,-156.33"/>
</g>
<!-- Node15 -->
<g id="node15" class="node"><title>Node15</title>
<g id="a_node15"><a xlink:href="common_8h.html" target="_top" xlink:title="core/common/common.h">
<polygon fill="white" stroke="black" points="269.279,-130.5 269.279,-149.5 394.279,-149.5 394.279,-130.5 269.279,-130.5"/>
<text text-anchor="middle" x="331.779" y="-137.5" font-family="Helvetica,sans-Serif" font-size="10.00">core/common/common.h</text>
</a>
</g>
</g>
<!-- Node9&#45;&gt;Node15 -->
<g id="edge17" class="edge"><title>Node9&#45;&gt;Node15</title>
<path fill="none" stroke="midnightblue" d="M442.66,-198.372C417.782,-187.205 378.05,-167.627 353.392,-154.488"/>
<polygon fill="midnightblue" stroke="midnightblue" points="354.898,-151.323 344.439,-149.63 351.56,-157.476 354.898,-151.323"/>
</g>
<!-- Node16 -->
<g id="node16" class="node"><title>Node16</title>
<g id="a_node16"><a xlink:href="core_2common_2systemc_8h.html" target="_top" xlink:title="core/common/systemc.h">
<polygon fill="white" stroke="black" points="178.279,-68.5 178.279,-87.5 303.279,-87.5 303.279,-68.5 178.279,-68.5"/>
<text text-anchor="middle" x="240.779" y="-75.5" font-family="Helvetica,sans-Serif" font-size="10.00">core/common/systemc.h</text>
</a>
</g>
</g>
<!-- Node9&#45;&gt;Node16 -->
<g id="edge27" class="edge"><title>Node9&#45;&gt;Node16</title>
<path fill="none" stroke="midnightblue" d="M403.606,-198.843C350.774,-190.57 279.858,-176.117 259.779,-156 244.459,-140.651 240.798,-115.043 240.249,-97.609"/>
<polygon fill="midnightblue" stroke="midnightblue" points="243.749,-97.5219 240.246,-87.5229 236.749,-97.5239 243.749,-97.5219"/>
</g>
<!-- Node15&#45;&gt;Node9 -->
<g id="edge26" class="edge"><title>Node15&#45;&gt;Node9</title>
<path fill="none" stroke="midnightblue" d="M353.903,-149.63C378.783,-160.798 418.515,-180.377 443.171,-193.515"/>
<polygon fill="midnightblue" stroke="midnightblue" points="441.664,-196.679 452.123,-198.372 445.002,-190.526 441.664,-196.679"/>
</g>
<!-- Node15&#45;&gt;Node16 -->
<g id="edge18" class="edge"><title>Node15&#45;&gt;Node16</title>
<path fill="none" stroke="midnightblue" d="M318.741,-130.403C304.01,-120.691 279.806,-104.732 262.27,-93.1697"/>
<polygon fill="midnightblue" stroke="midnightblue" points="264.068,-90.1632 253.793,-87.5806 260.215,-96.0072 264.068,-90.1632"/>
</g>
<!-- Node15&#45;&gt;Node20 -->
<g id="edge24" class="edge"><title>Node15&#45;&gt;Node20</title>
<path fill="none" stroke="midnightblue" d="M369.251,-130.462C380.038,-128.174 391.844,-125.829 402.779,-124 503.873,-107.086 621.792,-93.6118 695.13,-85.9635"/>
<polygon fill="midnightblue" stroke="midnightblue" points="695.59,-89.4347 705.177,-84.9232 694.869,-82.4719 695.59,-89.4347"/>
</g>
<!-- Node16&#45;&gt;Node2 -->
<g id="edge20" class="edge"><title>Node16&#45;&gt;Node2</title>
<path fill="none" stroke="midnightblue" d="M201.094,-68.4453C164.381,-60.2097 108.45,-46.8442 60.7792,-32 57.1677,-30.8754 53.4077,-29.6036 49.7016,-28.2878"/>
<polygon fill="midnightblue" stroke="midnightblue" points="50.7499,-24.9442 40.1565,-24.7732 48.3312,-31.513 50.7499,-24.9442"/>
</g>
<!-- Node16&#45;&gt;Node16 -->
<g id="edge19" class="edge"><title>Node16&#45;&gt;Node16</title>
<path fill="none" stroke="midnightblue" d="M268.656,-87.556C293.823,-92.2049 320.779,-89.0195 320.779,-78 320.779,-68.444 300.508,-64.7794 278.711,-67.0063"/>
<polygon fill="midnightblue" stroke="midnightblue" points="278.06,-63.5636 268.656,-68.444 279.051,-70.4932 278.06,-63.5636"/>
</g>
<!-- Node17 -->
<g id="node17" class="node"><title>Node17</title>
<polygon fill="white" stroke="#bfbfbf" points="183.279,-1 183.279,-31 298.279,-31 298.279,-1 183.279,-1"/>
<text text-anchor="start" x="191.279" y="-19" font-family="Helvetica,sans-Serif" font-size="10.00">tlm_utils/simple_target</text>
<text text-anchor="middle" x="240.779" y="-8" font-family="Helvetica,sans-Serif" font-size="10.00">_socket.h</text>
</g>
<!-- Node16&#45;&gt;Node17 -->
<g id="edge21" class="edge"><title>Node16&#45;&gt;Node17</title>
<path fill="none" stroke="midnightblue" d="M240.779,-68.4035C240.779,-61.3405 240.779,-50.975 240.779,-41.399"/>
<polygon fill="midnightblue" stroke="midnightblue" points="244.279,-41.1408 240.779,-31.1408 237.279,-41.1408 244.279,-41.1408"/>
</g>
<!-- Node18 -->
<g id="node18" class="node"><title>Node18</title>
<polygon fill="white" stroke="#bfbfbf" points="316.779,-1 316.779,-31 438.779,-31 438.779,-1 316.779,-1"/>
<text text-anchor="start" x="324.779" y="-19" font-family="Helvetica,sans-Serif" font-size="10.00">tlm_utils/simple_initiator</text>
<text text-anchor="middle" x="377.779" y="-8" font-family="Helvetica,sans-Serif" font-size="10.00">_socket.h</text>
</g>
<!-- Node16&#45;&gt;Node18 -->
<g id="edge22" class="edge"><title>Node16&#45;&gt;Node18</title>
<path fill="none" stroke="midnightblue" d="M260.408,-68.4035C280.155,-59.7549 311.21,-46.1545 336.416,-35.1152"/>
<polygon fill="midnightblue" stroke="midnightblue" points="337.999,-38.2431 345.755,-31.0253 335.191,-31.8311 337.999,-38.2431"/>
</g>
<!-- Node19 -->
<g id="node19" class="node"><title>Node19</title>
<polygon fill="white" stroke="#bfbfbf" points="70.2792,-1 70.2792,-31 165.279,-31 165.279,-1 70.2792,-1"/>
<text text-anchor="start" x="78.2792" y="-19" font-family="Helvetica,sans-Serif" font-size="10.00">tlm_utils/peq_with</text>
<text text-anchor="middle" x="117.779" y="-8" font-family="Helvetica,sans-Serif" font-size="10.00">_get.h</text>
</g>
<!-- Node16&#45;&gt;Node19 -->
<g id="edge23" class="edge"><title>Node16&#45;&gt;Node19</title>
<path fill="none" stroke="midnightblue" d="M223.156,-68.4035C205.719,-59.8976 178.463,-46.6018 156.039,-35.6635"/>
<polygon fill="midnightblue" stroke="midnightblue" points="157.29,-32.3794 146.768,-31.1408 154.221,-38.6708 157.29,-32.3794"/>
</g>
<!-- Node20&#45;&gt;Node5 -->
<g id="edge25" class="edge"><title>Node20&#45;&gt;Node5</title>
<path fill="none" stroke="midnightblue" d="M772.083,-68.4035C778.683,-59.4034 789.216,-45.0408 797.472,-33.7824"/>
<polygon fill="midnightblue" stroke="midnightblue" points="800.395,-35.7144 803.487,-25.5806 794.751,-31.5749 800.395,-35.7144"/>
</g>
</g>
</svg>
