<?xml version="1.0" encoding="UTF-8" standalone="no"?>
<!DOCTYPE svg PUBLIC "-//W3C//DTD SVG 1.1//EN"
 "http://www.w3.org/Graphics/SVG/1.1/DTD/svg11.dtd">
<!-- Generated by graphviz version 2.38.0 (20140413.2041)
 -->
<!-- Title: c2r Pages: 1 -->
<svg width="123pt" height="66pt"
 viewBox="0.00 0.00 123.00 66.00" xmlns="http://www.w3.org/2000/svg" xmlns:xlink="http://www.w3.org/1999/xlink">
<g id="graph0" class="graph" transform="scale(1 1) rotate(0) translate(4 62)">
<title>c2r</title>
<polygon fill="white" stroke="none" points="-4,4 -4,-62 119,-62 119,4 -4,4"/>
<!-- Node1 -->
<g id="node1" class="node"><title>Node1</title>
<polygon fill="#bfbfbf" stroke="black" points="0,-19.5 0,-38.5 30,-38.5 30,-19.5 0,-19.5"/>
<text text-anchor="middle" x="15" y="-26.5" font-family="Helvetica,sans-Serif" font-size="10.00">c2r</text>
</g>
<!-- Node2 -->
<g id="node2" class="node"><title>Node2</title>
<g id="a_node2"><a xlink:href="tolstoy_8c.html#a7c4354ac5dce0071bf334654b5bd1025" target="_top" xlink:title="cmag">
<polygon fill="white" stroke="black" points="70,-38.5 70,-57.5 111,-57.5 111,-38.5 70,-38.5"/>
<text text-anchor="middle" x="90.5" y="-45.5" font-family="Helvetica,sans-Serif" font-size="10.00">cmag</text>
</a>
</g>
</g>
<!-- Node1&#45;&gt;Node2 -->
<g id="edge1" class="edge"><title>Node1&#45;&gt;Node2</title>
<path fill="none" stroke="midnightblue" d="M30.1715,-32.6634C38.6189,-34.8471 49.6648,-37.7025 59.9324,-40.3567"/>
<polygon fill="midnightblue" stroke="midnightblue" points="59.2577,-43.7972 69.8154,-42.9115 61.0097,-37.02 59.2577,-43.7972"/>
</g>
<!-- Node3 -->
<g id="node3" class="node"><title>Node3</title>
<g id="a_node3"><a xlink:href="tolstoy_8c.html#a8deca4e136fc48b0e4de5df1e97e1942" target="_top" xlink:title="mycarg">
<polygon fill="white" stroke="black" points="66,-0.5 66,-19.5 115,-19.5 115,-0.5 66,-0.5"/>
<text text-anchor="middle" x="90.5" y="-7.5" font-family="Helvetica,sans-Serif" font-size="10.00">mycarg</text>
</a>
</g>
</g>
<!-- Node1&#45;&gt;Node3 -->
<g id="edge2" class="edge"><title>Node1&#45;&gt;Node3</title>
<path fill="none" stroke="midnightblue" d="M30.1715,-25.3366C37.5851,-23.4202 47.0002,-20.9863 56.1341,-18.6252"/>
<polygon fill="midnightblue" stroke="midnightblue" points="57.0211,-22.011 65.8269,-16.1196 55.2691,-15.2338 57.0211,-22.011"/>
</g>
</g>
</svg>
