<?xml version="1.0" encoding="UTF-8" standalone="no"?>
<!DOCTYPE svg PUBLIC "-//W3C//DTD SVG 1.1//EN"
 "http://www.w3.org/Graphics/SVG/1.1/DTD/svg11.dtd">
<!-- Generated by graphviz version 2.26.0 (20091210.2329)
 -->
<!-- Title: rtwfs Pages: 1 -->
<svg width="198pt" height="270pt"
 viewBox="0.00 0.00 198.00 270.00" xmlns="http://www.w3.org/2000/svg" xmlns:xlink="http://www.w3.org/1999/xlink">
<g id="graph1" class="graph" transform="scale(1 1) rotate(0) translate(4 266)">
<title>rtwfs</title>
<polygon fill="white" stroke="white" points="-4,5 -4,-266 195,-266 195,5 -4,5"/>
<!-- Node1 -->
<g id="node1" class="node"><title>Node1</title>
<polygon fill="#bfbfbf" stroke="black" points="0,-120.5 0,-141.5 38,-141.5 38,-120.5 0,-120.5"/>
<text text-anchor="middle" x="19" y="-128.5" font-family="Helvetica,sans-Serif" font-size="10.00">rtwfs</text>
</g>
<!-- Node2 -->
<g id="node3" class="node"><title>Node2</title>
<a xlink:href="namespacecore_1_1waf_1_1cmake.html#a2cc9c2d5713380ebb07751a69eeb9bc6" target="_top" xlink:title="core.waf.cmake.f">
<polygon fill="white" stroke="black" points="86,-240.5 86,-261.5 178,-261.5 178,-240.5 86,-240.5"/>
<text text-anchor="middle" x="132" y="-248.5" font-family="Helvetica,sans-Serif" font-size="10.00">core.waf.cmake.f</text>
</a>
</g>
<!-- Node1&#45;&gt;Node2 -->
<g id="edge2" class="edge"><title>Node1&#45;&gt;Node2</title>
<path fill="none" stroke="midnightblue" d="M22.0394,-141.712C28.344,-162.037 44.7522,-206.365 74,-231 75.9959,-232.681 78.141,-234.224 80.3885,-235.639"/>
<polygon fill="midnightblue" stroke="midnightblue" points="78.9959,-238.863 89.4653,-240.488 82.2946,-232.689 78.9959,-238.863"/>
</g>
<!-- Node3 -->
<g id="node5" class="node"><title>Node3</title>
<a xlink:href="tolstoy_8c.html#a5173a815552422008bd0a3f22f2b47ee" target="_top" xlink:title="ffw">
<polygon fill="white" stroke="black" points="117,-200.5 117,-221.5 147,-221.5 147,-200.5 117,-200.5"/>
<text text-anchor="middle" x="132" y="-208.5" font-family="Helvetica,sans-Serif" font-size="10.00">ffw</text>
</a>
</g>
<!-- Node1&#45;&gt;Node3 -->
<g id="edge4" class="edge"><title>Node1&#45;&gt;Node3</title>
<path fill="none" stroke="midnightblue" d="M26.3141,-141.835C35.8343,-155.168 53.6757,-177.671 74,-191 83.9895,-197.551 96.3585,-202.201 107.105,-205.358"/>
<polygon fill="midnightblue" stroke="midnightblue" points="106.216,-208.743 116.78,-207.941 108.021,-201.98 106.216,-208.743"/>
</g>
<!-- Node4 -->
<g id="node7" class="node"><title>Node4</title>
<a xlink:href="tolstoy_8c.html#a4c1a55cd821bb8c088dbe11496943c55" target="_top" xlink:title="make_irs">
<polygon fill="white" stroke="black" points="104,-160.5 104,-181.5 160,-181.5 160,-160.5 104,-160.5"/>
<text text-anchor="middle" x="132" y="-168.5" font-family="Helvetica,sans-Serif" font-size="10.00">make_irs</text>
</a>
</g>
<!-- Node1&#45;&gt;Node4 -->
<g id="edge6" class="edge"><title>Node1&#45;&gt;Node4</title>
<path fill="none" stroke="midnightblue" d="M38.0621,-138.02C48.6348,-141.892 62.0284,-146.76 74,-151 80.5433,-153.318 87.514,-155.751 94.2705,-158.092"/>
<polygon fill="midnightblue" stroke="midnightblue" points="93.3466,-161.476 103.941,-161.43 95.6307,-154.859 93.3466,-161.476"/>
</g>
<!-- Node5 -->
<g id="node9" class="node"><title>Node5</title>
<a xlink:href="tolstoy_8c.html#aee0464fcd77cb27edbd15ab514b15c6c" target="_top" xlink:title="printrvec">
<polygon fill="white" stroke="black" points="105,-120.5 105,-141.5 159,-141.5 159,-120.5 105,-120.5"/>
<text text-anchor="middle" x="132" y="-128.5" font-family="Helvetica,sans-Serif" font-size="10.00">printrvec</text>
</a>
</g>
<!-- Node1&#45;&gt;Node5 -->
<g id="edge8" class="edge"><title>Node1&#45;&gt;Node5</title>
<path fill="none" stroke="midnightblue" d="M38.1689,-131C53.5763,-131 75.6875,-131 94.5761,-131"/>
<polygon fill="midnightblue" stroke="midnightblue" points="94.6752,-134.5 104.675,-131 94.6751,-127.5 94.6752,-134.5"/>
</g>
<!-- Node6 -->
<g id="node11" class="node"><title>Node6</title>
<a xlink:href="tolstoy_8c.html#abab8a44d77be7f44d8014bc992a81185" target="_top" xlink:title="rtols_filter_sigshare">
<polygon fill="white" stroke="black" points="81.5,-80.5 81.5,-101.5 182.5,-101.5 182.5,-80.5 81.5,-80.5"/>
<text text-anchor="middle" x="132" y="-88.5" font-family="Helvetica,sans-Serif" font-size="10.00">rtols_filter_sigshare</text>
</a>
</g>
<!-- Node1&#45;&gt;Node6 -->
<g id="edge10" class="edge"><title>Node1&#45;&gt;Node6</title>
<path fill="none" stroke="midnightblue" d="M38.0621,-123.98C48.6348,-120.108 62.0284,-115.24 74,-111 79.5958,-109.018 85.5041,-106.951 91.3237,-104.93"/>
<polygon fill="midnightblue" stroke="midnightblue" points="92.6569,-108.172 100.963,-101.595 90.3683,-101.557 92.6569,-108.172"/>
</g>
<!-- Node7 -->
<g id="node13" class="node"><title>Node7</title>
<a xlink:href="tolstoy_8c.html#abb9b6f79021380031eee0c3f52f7e3ee" target="_top" xlink:title="rtols_finish">
<polygon fill="white" stroke="black" points="100,-40.5 100,-61.5 164,-61.5 164,-40.5 100,-40.5"/>
<text text-anchor="middle" x="132" y="-48.5" font-family="Helvetica,sans-Serif" font-size="10.00">rtols_finish</text>
</a>
</g>
<!-- Node1&#45;&gt;Node7 -->
<g id="edge12" class="edge"><title>Node1&#45;&gt;Node7</title>
<path fill="none" stroke="midnightblue" d="M26.3141,-120.165C35.8343,-106.832 53.6757,-84.3291 74,-71 79.0212,-67.707 84.6436,-64.8945 90.3589,-62.5105"/>
<polygon fill="midnightblue" stroke="midnightblue" points="91.8475,-65.69 99.9753,-58.8937 89.3833,-59.1381 91.8475,-65.69"/>
</g>
<!-- Node8 -->
<g id="node15" class="node"><title>Node8</title>
<a xlink:href="tolstoy_8c.html#a186d010fc23c28ab7e543d602d7b1ea7" target="_top" xlink:title="rtols_prepare_sigshare">
<polygon fill="white" stroke="black" points="74.5,-0.5 74.5,-21.5 189.5,-21.5 189.5,-0.5 74.5,-0.5"/>
<text text-anchor="middle" x="132" y="-8.5" font-family="Helvetica,sans-Serif" font-size="10.00">rtols_prepare_sigshare</text>
</a>
</g>
<!-- Node1&#45;&gt;Node8 -->
<g id="edge14" class="edge"><title>Node1&#45;&gt;Node8</title>
<path fill="none" stroke="midnightblue" d="M22.0394,-120.288C28.344,-99.9627 44.7522,-55.6354 74,-31 75.9959,-29.3189 78.141,-27.7763 80.3885,-26.3612"/>
<polygon fill="midnightblue" stroke="midnightblue" points="82.2946,-29.3111 89.4653,-21.5116 78.9959,-23.1371 82.2946,-29.3111"/>
</g>
</g>
</svg>
