<?xml version="1.0" encoding="UTF-8" standalone="no"?>
<!DOCTYPE svg PUBLIC "-//W3C//DTD SVG 1.1//EN"
 "http://www.w3.org/Graphics/SVG/1.1/DTD/svg11.dtd">
<!-- Generated by graphviz version 2.38.0 (20140413.2041)
 -->
<!-- Title: permrevcpy Pages: 1 -->
<svg width="241pt" height="27pt"
 viewBox="0.00 0.00 241.36 27.00" xmlns="http://www.w3.org/2000/svg" xmlns:xlink="http://www.w3.org/1999/xlink">
<g id="graph0" class="graph" transform="scale(1 1) rotate(0) translate(4 23)">
<title>permrevcpy</title>
<polygon fill="white" stroke="none" points="-4,4 -4,-23 237.364,-23 237.364,4 -4,4"/>
<!-- Node1 -->
<g id="node1" class="node"><title>Node1</title>
<polygon fill="#bfbfbf" stroke="black" points="0,-0.5 0,-18.5 68.2363,-18.5 68.2363,-0.5 0,-0.5"/>
<text text-anchor="middle" x="34.1182" y="-6.5" font-family="Helvetica,sans-Serif" font-size="10.00">permrevcpy</text>
</g>
<!-- Node2 -->
<g id="node2" class="node"><title>Node2</title>
<g id="a_node2"><a xlink:href="tolstoy_8c.html#a1ccd8d011e74cf8b62d051cc459080d1" target="_top" xlink:title="permrev">
<polygon fill="white" stroke="black" points="104.236,-0.5 104.236,-18.5 156.911,-18.5 156.911,-0.5 104.236,-0.5"/>
<text text-anchor="middle" x="130.574" y="-6.5" font-family="Helvetica,sans-Serif" font-size="10.00">permrev</text>
</a>
</g>
</g>
<!-- Node1&#45;&gt;Node2 -->
<g id="edge1" class="edge"><title>Node1&#45;&gt;Node2</title>
<path fill="none" stroke="midnightblue" d="M68.4197,-9.5C76.6357,-9.5 85.4693,-9.5 93.7974,-9.5"/>
<polygon fill="midnightblue" stroke="midnightblue" points="93.9913,-13.0001 103.991,-9.5 93.9913,-6.0001 93.9913,-13.0001"/>
</g>
<!-- Node3 -->
<g id="node3" class="node"><title>Node3</title>
<g id="a_node3"><a xlink:href="tolstoy_8c.html#a21be37b092239d7319cd2c09a152b75e" target="_top" xlink:title="bitrev">
<polygon fill="white" stroke="black" points="192.911,-0.5 192.911,-18.5 233.364,-18.5 233.364,-0.5 192.911,-0.5"/>
<text text-anchor="middle" x="213.138" y="-6.5" font-family="Helvetica,sans-Serif" font-size="10.00">bitrev</text>
</a>
</g>
</g>
<!-- Node2&#45;&gt;Node3 -->
<g id="edge2" class="edge"><title>Node2&#45;&gt;Node3</title>
<path fill="none" stroke="midnightblue" d="M157.065,-9.5C165.168,-9.5 174.199,-9.5 182.565,-9.5"/>
<polygon fill="midnightblue" stroke="midnightblue" points="182.687,-13.0001 192.687,-9.5 182.687,-6.0001 182.687,-13.0001"/>
</g>
</g>
</svg>
