<?xml version="1.0" encoding="UTF-8" standalone="no"?>
<!DOCTYPE svg PUBLIC "-//W3C//DTD SVG 1.1//EN"
 "http://www.w3.org/Graphics/SVG/1.1/DTD/svg11.dtd">
<!-- Generated by graphviz version 2.38.0 (20140413.2041)
 -->
<!-- Title: main Pages: 1 -->
<!--zoomable 442 -->
<svg id="main" version="1.1" xmlns="http://www.w3.org/2000/svg" xmlns:xlink="http://www.w3.org/1999/xlink" xml:space="preserve" onload="init(evt)">
<style type="text/css"><![CDATA[
.edge:hover path { stroke: red; }
.edge:hover polygon { stroke: red; fill: red; }
]]></style>
<script type="text/javascript"><![CDATA[
var edges = document.getElementsByTagName('g');
if (edges && edges.length) {
  for (var i=0;i<edges.length;i++) {
    if (edges[i].id.substr(0,4)=='edge') {
      edges[i].setAttribute('class','edge');
    }
  }
}
]]></script>
        <defs>
                <circle id="rim" cx="0" cy="0" r="7"/>
                <circle id="rim2" cx="0" cy="0" r="3.5"/>
                <g id="zoomPlus">
                        <use xlink:href="#rim" fill="#404040">
                                <set attributeName="fill" to="#808080" begin="zoomplus.mouseover" end="zoomplus.mouseout"/>
                        </use>
                        <path d="M-4,0h8M0,-4v8" fill="none" stroke="white" stroke-width="1.5" pointer-events="none"/>
                </g>
                <g id="zoomMin">
                        <use xlink:href="#rim" fill="#404040">
                                <set attributeName="fill" to="#808080" begin="zoomminus.mouseover" end="zoomminus.mouseout"/>
                        </use>
                        <path d="M-4,0h8" fill="none" stroke="white" stroke-width="1.5" pointer-events="none"/>
                </g>
                <g id="dirArrow">
                        <path fill="none" stroke="white" stroke-width="1.5" d="M0,-3.0v7 M-2.5,-0.5L0,-3.0L2.5,-0.5"/>
                </g>
               <g id="resetDef">
                       <use xlink:href="#rim2" fill="#404040">
                               <set attributeName="fill" to="#808080" begin="reset.mouseover" end="reset.mouseout"/>
                       </use>
               </g>
        </defs>

<script type="text/javascript">
var viewWidth = 578;
var viewHeight = 442;
var sectionId = 'dynsection-10';
</script>
<script xlink:href="svgpan.js"/>
<svg id="graph" class="graph">
<g id="viewport">
<title>main</title>
<polygon fill="white" stroke="none" points="-4,4 -4,-438 573.768,-438 573.768,4 -4,4"/>
<!-- Node1 -->
<g id="node1" class="node"><title>Node1</title>
<polygon fill="#bfbfbf" stroke="black" points="0,-255.5 0,-273.5 37.6748,-273.5 37.6748,-255.5 0,-255.5"/>
<text text-anchor="middle" x="18.8374" y="-261.5" font-family="Helvetica,sans-Serif" font-size="10.00">main</text>
</g>
<!-- Node2 -->
<g id="node2" class="node"><title>Node2</title>
<g id="a_node2"><a xlink:href="tolstoy_8c.html#a31ac77d1edae1ef8fa11cf40f91d9a6b" target="_top" xlink:title="conv3">
<polygon fill="white" stroke="black" points="73.9482,-255.5 73.9482,-273.5 116.633,-273.5 116.633,-255.5 73.9482,-255.5"/>
<text text-anchor="middle" x="95.2905" y="-261.5" font-family="Helvetica,sans-Serif" font-size="10.00">conv3</text>
</a>
</g>
</g>
<!-- Node1&#45;&gt;Node2 -->
<g id="edge1" class="edge"><title>Node1&#45;&gt;Node2</title>
<path fill="none" stroke="midnightblue" d="M37.8604,-264.5C45.5707,-264.5 54.7944,-264.5 63.5283,-264.5"/>
<polygon fill="midnightblue" stroke="midnightblue" points="63.8043,-268 73.8043,-264.5 63.8042,-261 63.8043,-268"/>
</g>
<!-- Node14 -->
<g id="node14" class="node"><title>Node14</title>
<g id="a_node14"><a xlink:href="tolstoy_8c.html#ac536b7d96269ddf43d93b247e789428b" target="_top" xlink:title="rtconv">
<polygon fill="white" stroke="black" points="73.6748,-151.5 73.6748,-169.5 116.906,-169.5 116.906,-151.5 73.6748,-151.5"/>
<text text-anchor="middle" x="95.2905" y="-157.5" font-family="Helvetica,sans-Serif" font-size="10.00">rtconv</text>
</a>
</g>
</g>
<!-- Node1&#45;&gt;Node14 -->
<g id="edge17" class="edge"><title>Node1&#45;&gt;Node14</title>
<path fill="none" stroke="midnightblue" d="M26.4446,-255.271C38.8938,-237.881 66.0011,-200.016 81.9264,-177.771"/>
<polygon fill="midnightblue" stroke="midnightblue" points="84.8292,-179.729 87.8044,-169.56 79.1374,-175.654 84.8292,-179.729"/>
</g>
<!-- Node21 -->
<g id="node21" class="node"><title>Node21</title>
<g id="a_node21"><a xlink:href="tolstoy_8c.html#a8e2379978fd407df8777bdd6a2758562" target="_top" xlink:title="testperm">
<polygon fill="white" stroke="black" points="163.197,-374.5 163.197,-392.5 218.098,-392.5 218.098,-374.5 163.197,-374.5"/>
<text text-anchor="middle" x="190.647" y="-380.5" font-family="Helvetica,sans-Serif" font-size="10.00">testperm</text>
</a>
</g>
</g>
<!-- Node1&#45;&gt;Node21 -->
<g id="edge30" class="edge"><title>Node1&#45;&gt;Node21</title>
<path fill="none" stroke="midnightblue" d="M32.8802,-273.64C62.0909,-294.111 132.986,-343.793 168.557,-368.72"/>
<polygon fill="midnightblue" stroke="midnightblue" points="166.595,-371.619 176.793,-374.492 170.612,-365.886 166.595,-371.619"/>
</g>
<!-- Node3 -->
<g id="node3" class="node"><title>Node3</title>
<g id="a_node3"><a xlink:href="tolstoy_8c.html#ab2004d9a8c44a4799f9b9185e603dd76" target="_top" xlink:title="printcvec">
<polygon fill="white" stroke="black" points="269.115,-339.5 269.115,-357.5 325.13,-357.5 325.13,-339.5 269.115,-339.5"/>
<text text-anchor="middle" x="297.123" y="-345.5" font-family="Helvetica,sans-Serif" font-size="10.00">printcvec</text>
</a>
</g>
</g>
<!-- Node2&#45;&gt;Node3 -->
<g id="edge2" class="edge"><title>Node2&#45;&gt;Node3</title>
<path fill="none" stroke="midnightblue" d="M105.958,-273.658C116.662,-283.339 134.806,-298.438 152.906,-307.5 186.936,-324.538 229.164,-335.536 258.922,-341.807"/>
<polygon fill="midnightblue" stroke="midnightblue" points="258.397,-345.272 268.893,-343.831 259.789,-338.412 258.397,-345.272"/>
</g>
<!-- Node4 -->
<g id="node4" class="node"><title>Node4</title>
<g id="a_node4"><a xlink:href="tolstoy_8c.html#a512bdf07699660ef7aa202a79d75e5ce" target="_top" xlink:title="tols">
<polygon fill="white" stroke="black" points="174.867,-228.5 174.867,-246.5 206.428,-246.5 206.428,-228.5 174.867,-228.5"/>
<text text-anchor="middle" x="190.647" y="-234.5" font-family="Helvetica,sans-Serif" font-size="10.00">tols</text>
</a>
</g>
</g>
<!-- Node2&#45;&gt;Node4 -->
<g id="edge3" class="edge"><title>Node2&#45;&gt;Node4</title>
<path fill="none" stroke="midnightblue" d="M117.009,-258.508C131.238,-254.393 150.185,-248.913 165.161,-244.582"/>
<polygon fill="midnightblue" stroke="midnightblue" points="166.153,-247.938 174.787,-241.798 164.208,-241.214 166.153,-247.938"/>
</g>
<!-- Node4&#45;&gt;Node3 -->
<g id="edge10" class="edge"><title>Node4&#45;&gt;Node3</title>
<path fill="none" stroke="midnightblue" d="M200.078,-246.626C207.697,-254.992 219.108,-267.819 228.389,-279.5 245.422,-300.94 244.225,-310.973 264.389,-329.5 266.041,-331.018 267.833,-332.475 269.696,-333.861"/>
<polygon fill="midnightblue" stroke="midnightblue" points="267.837,-336.827 278.106,-339.435 271.704,-330.993 267.837,-336.827"/>
</g>
<!-- Node5 -->
<g id="node5" class="node"><title>Node5</title>
<g id="a_node5"><a xlink:href="tolstoy_8c.html#a5173a815552422008bd0a3f22f2b47ee" target="_top" xlink:title="ffw">
<polygon fill="white" stroke="black" points="282.623,-151.5 282.623,-169.5 311.623,-169.5 311.623,-151.5 282.623,-151.5"/>
<text text-anchor="middle" x="297.123" y="-157.5" font-family="Helvetica,sans-Serif" font-size="10.00">ffw</text>
</a>
</g>
</g>
<!-- Node4&#45;&gt;Node5 -->
<g id="edge4" class="edge"><title>Node4&#45;&gt;Node5</title>
<path fill="none" stroke="midnightblue" d="M206.525,-229.759C213.447,-225.87 221.625,-220.851 228.389,-215.5 246.382,-201.265 246.229,-192.522 264.389,-178.5 267.232,-176.304 270.373,-174.198 273.541,-172.249"/>
<polygon fill="midnightblue" stroke="midnightblue" points="275.37,-175.235 282.312,-167.231 271.894,-169.159 275.37,-175.235"/>
</g>
<!-- Node6 -->
<g id="node6" class="node"><title>Node6</title>
<g id="a_node6"><a xlink:href="tolstoy_8c.html#aba9c56dd8762613a9eac0071323dc5c7" target="_top" xlink:title="segment_ir">
<polygon fill="white" stroke="black" points="264.389,-188.5 264.389,-206.5 329.856,-206.5 329.856,-188.5 264.389,-188.5"/>
<text text-anchor="middle" x="297.123" y="-194.5" font-family="Helvetica,sans-Serif" font-size="10.00">segment_ir</text>
</a>
</g>
</g>
<!-- Node4&#45;&gt;Node6 -->
<g id="edge5" class="edge"><title>Node4&#45;&gt;Node6</title>
<path fill="none" stroke="midnightblue" d="M206.616,-231.769C221.223,-226.177 243.941,-217.479 262.833,-210.245"/>
<polygon fill="midnightblue" stroke="midnightblue" points="264.214,-213.465 272.301,-206.62 261.711,-206.927 264.214,-213.465"/>
</g>
<!-- Node7 -->
<g id="node7" class="node"><title>Node7</title>
<g id="a_node7"><a xlink:href="tolstoy_8c.html#ad85d43dcbd69dc19c8f46932283a8a21" target="_top" xlink:title="fft">
<polygon fill="white" stroke="black" points="377.694,-263.5 377.694,-281.5 406.694,-281.5 406.694,-263.5 377.694,-263.5"/>
<text text-anchor="middle" x="392.194" y="-269.5" font-family="Helvetica,sans-Serif" font-size="10.00">fft</text>
</a>
</g>
</g>
<!-- Node4&#45;&gt;Node7 -->
<g id="edge11" class="edge"><title>Node4&#45;&gt;Node7</title>
<path fill="none" stroke="midnightblue" d="M206.69,-240.211C221.396,-242.857 244.426,-246.985 264.389,-250.5 300.234,-256.812 341.804,-263.999 367.3,-268.392"/>
<polygon fill="midnightblue" stroke="midnightblue" points="367.043,-271.899 377.492,-270.146 368.231,-265 367.043,-271.899"/>
</g>
<!-- Node11 -->
<g id="node11" class="node"><title>Node11</title>
<g id="a_node11"><a xlink:href="tolstoy_8c.html#a15bdfac35b6ae5b5eee453ebec2e39f9" target="_top" xlink:title="cmult">
<polygon fill="white" stroke="black" points="277.177,-114.5 277.177,-132.5 317.068,-132.5 317.068,-114.5 277.177,-114.5"/>
<text text-anchor="middle" x="297.123" y="-120.5" font-family="Helvetica,sans-Serif" font-size="10.00">cmult</text>
</a>
</g>
</g>
<!-- Node4&#45;&gt;Node11 -->
<g id="edge12" class="edge"><title>Node4&#45;&gt;Node11</title>
<path fill="none" stroke="midnightblue" d="M206.633,-231.038C213.91,-227.321 222.36,-222.076 228.389,-215.5 253.105,-188.541 239.357,-168.166 264.389,-141.5 265.611,-140.198 266.948,-138.965 268.361,-137.801"/>
<polygon fill="midnightblue" stroke="midnightblue" points="270.719,-140.429 276.997,-131.895 266.767,-134.651 270.719,-140.429"/>
</g>
<!-- Node12 -->
<g id="node12" class="node"><title>Node12</title>
<g id="a_node12"><a xlink:href="tolstoy_8c.html#a310341f25990eea0441bc9de2265e9b6" target="_top" xlink:title="ifft">
<polygon fill="white" stroke="black" points="377.694,-226.5 377.694,-244.5 406.694,-244.5 406.694,-226.5 377.694,-226.5"/>
<text text-anchor="middle" x="392.194" y="-232.5" font-family="Helvetica,sans-Serif" font-size="10.00">ifft</text>
</a>
</g>
</g>
<!-- Node4&#45;&gt;Node12 -->
<g id="edge13" class="edge"><title>Node4&#45;&gt;Node12</title>
<path fill="none" stroke="midnightblue" d="M206.646,-237.35C241.092,-237.004 326.08,-236.153 367.6,-235.736"/>
<polygon fill="midnightblue" stroke="midnightblue" points="367.658,-239.236 377.623,-235.636 367.588,-232.237 367.658,-239.236"/>
</g>
<!-- Node13 -->
<g id="node13" class="node"><title>Node13</title>
<g id="a_node13"><a xlink:href="tolstoy_8c.html#aed5c87286b6695d3ef148abfcb121a79" target="_top" xlink:title="cadd">
<polygon fill="white" stroke="black" points="278.28,-302.5 278.28,-320.5 315.965,-320.5 315.965,-302.5 278.28,-302.5"/>
<text text-anchor="middle" x="297.123" y="-308.5" font-family="Helvetica,sans-Serif" font-size="10.00">cadd</text>
</a>
</g>
</g>
<!-- Node4&#45;&gt;Node13 -->
<g id="edge16" class="edge"><title>Node4&#45;&gt;Node13</title>
<path fill="none" stroke="midnightblue" d="M204.458,-246.574C222.003,-259.001 253.735,-281.477 274.87,-296.447"/>
<polygon fill="midnightblue" stroke="midnightblue" points="273.024,-299.428 283.207,-302.352 277.07,-293.716 273.024,-299.428"/>
</g>
<!-- Node6&#45;&gt;Node7 -->
<g id="edge6" class="edge"><title>Node6&#45;&gt;Node7</title>
<path fill="none" stroke="midnightblue" d="M309.02,-206.78C322.296,-218.022 345.479,-237.451 365.856,-253.5 367.411,-254.725 369.03,-255.981 370.664,-257.235"/>
<polygon fill="midnightblue" stroke="midnightblue" points="368.646,-260.097 378.733,-263.339 372.869,-254.515 368.646,-260.097"/>
</g>
<!-- Node8 -->
<g id="node8" class="node"><title>Node8</title>
<g id="a_node8"><a xlink:href="tolstoy_8c.html#a7c56a6d13c12719de425132d322f1ca5" target="_top" xlink:title="fft1d">
<polygon fill="white" stroke="black" points="456.282,-244.5 456.282,-262.5 491.564,-262.5 491.564,-244.5 456.282,-244.5"/>
<text text-anchor="middle" x="473.923" y="-250.5" font-family="Helvetica,sans-Serif" font-size="10.00">fft1d</text>
</a>
</g>
</g>
<!-- Node7&#45;&gt;Node8 -->
<g id="edge7" class="edge"><title>Node7&#45;&gt;Node8</title>
<path fill="none" stroke="midnightblue" d="M406.719,-269.277C417.446,-266.721 432.779,-263.067 445.988,-259.919"/>
<polygon fill="midnightblue" stroke="midnightblue" points="447.081,-263.256 455.998,-257.533 445.459,-256.447 447.081,-263.256"/>
</g>
<!-- Node9 -->
<g id="node9" class="node"><title>Node9</title>
<g id="a_node9"><a xlink:href="tolstoy_8c.html#ad739aa3a369d534fc20b91e37b79f845" target="_top" xlink:title="perm">
<polygon fill="white" stroke="black" points="454.531,-281.5 454.531,-299.5 493.314,-299.5 493.314,-281.5 454.531,-281.5"/>
<text text-anchor="middle" x="473.923" y="-287.5" font-family="Helvetica,sans-Serif" font-size="10.00">perm</text>
</a>
</g>
</g>
<!-- Node7&#45;&gt;Node9 -->
<g id="edge8" class="edge"><title>Node7&#45;&gt;Node9</title>
<path fill="none" stroke="midnightblue" d="M406.719,-275.553C417.025,-277.88 431.584,-281.167 444.425,-284.066"/>
<polygon fill="midnightblue" stroke="midnightblue" points="443.716,-287.494 454.241,-286.282 445.257,-280.666 443.716,-287.494"/>
</g>
<!-- Node10 -->
<g id="node10" class="node"><title>Node10</title>
<g id="a_node10"><a xlink:href="tolstoy_8c.html#a21be37b092239d7319cd2c09a152b75e" target="_top" xlink:title="bitrev">
<polygon fill="white" stroke="black" points="529.314,-328.5 529.314,-346.5 569.768,-346.5 569.768,-328.5 529.314,-328.5"/>
<text text-anchor="middle" x="549.541" y="-334.5" font-family="Helvetica,sans-Serif" font-size="10.00">bitrev</text>
</a>
</g>
</g>
<!-- Node9&#45;&gt;Node10 -->
<g id="edge9" class="edge"><title>Node9&#45;&gt;Node10</title>
<path fill="none" stroke="midnightblue" d="M489.117,-299.562C499.505,-306.194 513.817,-315.331 525.792,-322.976"/>
<polygon fill="midnightblue" stroke="midnightblue" points="524.078,-326.035 534.39,-328.466 527.845,-320.135 524.078,-326.035"/>
</g>
<!-- Node12&#45;&gt;Node8 -->
<g id="edge14" class="edge"><title>Node12&#45;&gt;Node8</title>
<path fill="none" stroke="midnightblue" d="M406.719,-238.553C417.446,-240.975 432.779,-244.437 445.988,-247.419"/>
<polygon fill="midnightblue" stroke="midnightblue" points="445.472,-250.891 455.998,-249.679 447.014,-244.063 445.472,-250.891"/>
</g>
<!-- Node12&#45;&gt;Node9 -->
<g id="edge15" class="edge"><title>Node12&#45;&gt;Node9</title>
<path fill="none" stroke="midnightblue" d="M406.359,-244.582C418.593,-253.021 437.035,-265.743 451.407,-275.657"/>
<polygon fill="midnightblue" stroke="midnightblue" points="449.519,-278.607 459.738,-281.404 453.494,-272.845 449.519,-278.607"/>
</g>
<!-- Node14&#45;&gt;Node3 -->
<g id="edge19" class="edge"><title>Node14&#45;&gt;Node3</title>
<path fill="none" stroke="midnightblue" d="M100.124,-169.772C107.949,-187.88 127.215,-228.53 152.906,-255.5 163.161,-266.265 251.814,-321.568 264.389,-329.5 266.833,-331.042 269.398,-332.628 271.967,-334.197"/>
<polygon fill="midnightblue" stroke="midnightblue" points="270.168,-337.2 280.54,-339.366 273.783,-331.205 270.168,-337.2"/>
</g>
<!-- Node15 -->
<g id="node15" class="node"><title>Node15</title>
<g id="a_node15"><a xlink:href="tolstoy_8c.html#aee0464fcd77cb27edbd15ab514b15c6c" target="_top" xlink:title="printrvec">
<polygon fill="white" stroke="black" points="163.475,-188.5 163.475,-206.5 217.82,-206.5 217.82,-188.5 163.475,-188.5"/>
<text text-anchor="middle" x="190.647" y="-194.5" font-family="Helvetica,sans-Serif" font-size="10.00">printrvec</text>
</a>
</g>
</g>
<!-- Node14&#45;&gt;Node15 -->
<g id="edge18" class="edge"><title>Node14&#45;&gt;Node15</title>
<path fill="none" stroke="midnightblue" d="M117.009,-168.711C128.853,-173.406 143.967,-179.396 157.338,-184.695"/>
<polygon fill="midnightblue" stroke="midnightblue" points="156.108,-187.972 166.694,-188.403 158.687,-181.465 156.108,-187.972"/>
</g>
<!-- Node16 -->
<g id="node16" class="node"><title>Node16</title>
<g id="a_node16"><a xlink:href="tolstoy_8c.html#a9987656d243a20ab7b7ebe1e509db56e" target="_top" xlink:title="rtols_prepare">
<polygon fill="white" stroke="black" points="153.187,-151.5 153.187,-169.5 228.108,-169.5 228.108,-151.5 153.187,-151.5"/>
<text text-anchor="middle" x="190.647" y="-157.5" font-family="Helvetica,sans-Serif" font-size="10.00">rtols_prepare</text>
</a>
</g>
</g>
<!-- Node14&#45;&gt;Node16 -->
<g id="edge20" class="edge"><title>Node14&#45;&gt;Node16</title>
<path fill="none" stroke="midnightblue" d="M117.009,-160.5C124.659,-160.5 133.673,-160.5 142.7,-160.5"/>
<polygon fill="midnightblue" stroke="midnightblue" points="142.826,-164 152.826,-160.5 142.826,-157 142.826,-164"/>
</g>
<!-- Node17 -->
<g id="node17" class="node"><title>Node17</title>
<g id="a_node17"><a xlink:href="tolstoy_8c.html#abb9b6f79021380031eee0c3f52f7e3ee" target="_top" xlink:title="rtols_finish">
<polygon fill="white" stroke="black" points="158.749,-77.5 158.749,-95.5 222.546,-95.5 222.546,-77.5 158.749,-77.5"/>
<text text-anchor="middle" x="190.647" y="-83.5" font-family="Helvetica,sans-Serif" font-size="10.00">rtols_finish</text>
</a>
</g>
</g>
<!-- Node14&#45;&gt;Node17 -->
<g id="edge23" class="edge"><title>Node14&#45;&gt;Node17</title>
<path fill="none" stroke="midnightblue" d="M103.96,-151.233C114.189,-139.296 133.296,-118.433 152.906,-104.5 154.788,-103.163 156.784,-101.875 158.835,-100.646"/>
<polygon fill="midnightblue" stroke="midnightblue" points="160.887,-103.514 167.996,-95.6583 157.54,-97.3663 160.887,-103.514"/>
</g>
<!-- Node18 -->
<g id="node18" class="node"><title>Node18</title>
<g id="a_node18"><a xlink:href="tolstoy_8c.html#a6ca792618331d0f1887ef3a43d010147" target="_top" xlink:title="rtols_filter">
<polygon fill="white" stroke="black" points="160.975,-114.5 160.975,-132.5 220.32,-132.5 220.32,-114.5 160.975,-114.5"/>
<text text-anchor="middle" x="190.647" y="-120.5" font-family="Helvetica,sans-Serif" font-size="10.00">rtols_filter</text>
</a>
</g>
</g>
<!-- Node14&#45;&gt;Node18 -->
<g id="edge24" class="edge"><title>Node14&#45;&gt;Node18</title>
<path fill="none" stroke="midnightblue" d="M117.009,-152.289C128.853,-147.594 143.967,-141.604 157.338,-136.305"/>
<polygon fill="midnightblue" stroke="midnightblue" points="158.687,-139.535 166.694,-132.597 156.108,-133.028 158.687,-139.535"/>
</g>
<!-- Node20 -->
<g id="node20" class="node"><title>Node20</title>
<g id="a_node20"><a xlink:href="tolstoy_8c.html#a6b4d6fa62432f3c69954280867480364" target="_top" xlink:title="rtols_cleanup">
<polygon fill="white" stroke="black" points="152.906,-40.5 152.906,-58.5 228.389,-58.5 228.389,-40.5 152.906,-40.5"/>
<text text-anchor="middle" x="190.647" y="-46.5" font-family="Helvetica,sans-Serif" font-size="10.00">rtols_cleanup</text>
</a>
</g>
</g>
<!-- Node14&#45;&gt;Node20 -->
<g id="edge29" class="edge"><title>Node14&#45;&gt;Node20</title>
<path fill="none" stroke="midnightblue" d="M99.7647,-151.408C107.082,-133.301 125.68,-92.3472 152.906,-67.5 154.205,-66.3149 155.596,-65.1908 157.049,-64.1268"/>
<polygon fill="midnightblue" stroke="midnightblue" points="159.181,-66.9234 165.845,-58.6865 155.499,-60.9701 159.181,-66.9234"/>
</g>
<!-- Node16&#45;&gt;Node5 -->
<g id="edge21" class="edge"><title>Node16&#45;&gt;Node5</title>
<path fill="none" stroke="midnightblue" d="M228.188,-160.5C242.899,-160.5 259.44,-160.5 272.518,-160.5"/>
<polygon fill="midnightblue" stroke="midnightblue" points="272.571,-164 282.571,-160.5 272.571,-157 272.571,-164"/>
</g>
<!-- Node16&#45;&gt;Node6 -->
<g id="edge22" class="edge"><title>Node16&#45;&gt;Node6</title>
<path fill="none" stroke="midnightblue" d="M217.205,-169.551C230.359,-174.21 246.599,-179.961 260.92,-185.033"/>
<polygon fill="midnightblue" stroke="midnightblue" points="259.872,-188.375 270.467,-188.414 262.209,-181.776 259.872,-188.375"/>
</g>
<!-- Node18&#45;&gt;Node7 -->
<g id="edge26" class="edge"><title>Node18&#45;&gt;Node7</title>
<path fill="none" stroke="midnightblue" d="M207.701,-114.459C235.697,-100.036 293.887,-76.1862 329.856,-104.5 383.389,-146.639 328.394,-196.597 365.856,-253.5 366.968,-255.188 368.282,-256.782 369.718,-258.276"/>
<polygon fill="midnightblue" stroke="midnightblue" points="367.636,-261.098 377.539,-264.864 372.146,-255.745 367.636,-261.098"/>
</g>
<!-- Node18&#45;&gt;Node11 -->
<g id="edge27" class="edge"><title>Node18&#45;&gt;Node11</title>
<path fill="none" stroke="midnightblue" d="M220.472,-123.5C234.815,-123.5 252.127,-123.5 266.568,-123.5"/>
<polygon fill="midnightblue" stroke="midnightblue" points="266.955,-127 276.955,-123.5 266.955,-120 266.955,-127"/>
</g>
<!-- Node18&#45;&gt;Node12 -->
<g id="edge28" class="edge"><title>Node18&#45;&gt;Node12</title>
<path fill="none" stroke="midnightblue" d="M211.655,-114.366C217.247,-111.494 223.208,-108.118 228.389,-104.5 246.184,-92.0729 244.16,-79.3686 264.389,-71.5 291.506,-60.9517 305.948,-54.9162 329.856,-71.5 377.863,-104.8 388.359,-180.54 390.609,-216.223"/>
<polygon fill="midnightblue" stroke="midnightblue" points="387.117,-216.474 391.087,-226.297 394.109,-216.142 387.117,-216.474"/>
</g>
<!-- Node19 -->
<g id="node19" class="node"><title>Node19</title>
<g id="a_node19"><a xlink:href="tolstoy_8c.html#a60b357e6145ad0531721697764f0afd6" target="_top" xlink:title="r2c">
<polygon fill="white" stroke="black" points="282.177,-0.5 282.177,-18.5 312.068,-18.5 312.068,-0.5 282.177,-0.5"/>
<text text-anchor="middle" x="297.123" y="-6.5" font-family="Helvetica,sans-Serif" font-size="10.00">r2c</text>
</a>
</g>
</g>
<!-- Node18&#45;&gt;Node19 -->
<g id="edge25" class="edge"><title>Node18&#45;&gt;Node19</title>
<path fill="none" stroke="midnightblue" d="M214.513,-114.484C219.492,-111.794 224.444,-108.476 228.389,-104.5 253.306,-79.3827 241.697,-60.645 264.389,-33.5 267.18,-30.1612 270.519,-27.0122 273.967,-24.1618"/>
<polygon fill="midnightblue" stroke="midnightblue" points="276.126,-26.9176 282.006,-18.104 271.913,-21.3272 276.126,-26.9176"/>
</g>
<!-- Node21&#45;&gt;Node3 -->
<g id="edge31" class="edge"><title>Node21&#45;&gt;Node3</title>
<path fill="none" stroke="midnightblue" d="M218.281,-374.577C230.832,-370.373 246.004,-365.29 259.606,-360.733"/>
<polygon fill="midnightblue" stroke="midnightblue" points="260.804,-364.023 269.174,-357.528 258.58,-357.386 260.804,-364.023"/>
</g>
<!-- Node21&#45;&gt;Node9 -->
<g id="edge32" class="edge"><title>Node21&#45;&gt;Node9</title>
<path fill="none" stroke="midnightblue" d="M218.235,-383.09C246.519,-381.999 292.273,-378.346 329.856,-366.5 375.687,-352.054 424.068,-323.038 451.181,-305.335"/>
<polygon fill="midnightblue" stroke="midnightblue" points="453.447,-308.032 459.846,-299.587 449.578,-302.199 453.447,-308.032"/>
</g>
<!-- Node22 -->
<g id="node22" class="node"><title>Node22</title>
<g id="a_node22"><a xlink:href="tolstoy_8c.html#a1ccd8d011e74cf8b62d051cc459080d1" target="_top" xlink:title="permrev">
<polygon fill="white" stroke="black" points="365.856,-415.5 365.856,-433.5 418.531,-433.5 418.531,-415.5 365.856,-415.5"/>
<text text-anchor="middle" x="392.194" y="-421.5" font-family="Helvetica,sans-Serif" font-size="10.00">permrev</text>
</a>
</g>
</g>
<!-- Node21&#45;&gt;Node22 -->
<g id="edge33" class="edge"><title>Node21&#45;&gt;Node22</title>
<path fill="none" stroke="midnightblue" d="M218.19,-389.989C231.945,-393.279 249.035,-397.255 264.389,-400.5 295.023,-406.976 329.998,-413.533 355.446,-418.153"/>
<polygon fill="midnightblue" stroke="midnightblue" points="354.923,-421.616 365.386,-419.948 356.167,-414.727 354.923,-421.616"/>
</g>
<!-- Node22&#45;&gt;Node10 -->
<g id="edge34" class="edge"><title>Node22&#45;&gt;Node10</title>
<path fill="none" stroke="midnightblue" d="M409.525,-415.354C436.751,-400.106 491.584,-369.398 523.647,-351.441"/>
<polygon fill="midnightblue" stroke="midnightblue" points="525.414,-354.464 532.429,-346.524 521.993,-348.356 525.414,-354.464"/>
</g>
</g>
</svg>
        <g id="navigator" transform="translate(0 0)" fill="#404254">
                <rect fill="#f2f5e9" fill-opacity="0.5" stroke="#606060" stroke-width=".5" x="0" y="0" width="60" height="60"/>
                <use id="zoomplus" xlink:href="#zoomPlus" x="17" y="9" onmousedown="handleZoom(evt,'in')"/>
                <use id="zoomminus" xlink:href="#zoomMin" x="42" y="9" onmousedown="handleZoom(evt,'out')"/>
                <use id="reset" xlink:href="#resetDef" x="30" y="36" onmousedown="handleReset()"/>
                <g id="arrowUp" xlink:href="#dirArrow" transform="translate(30 24)" onmousedown="handlePan(0,-1)">
                  <use xlink:href="#rim" fill="#404040">
                        <set attributeName="fill" to="#808080" begin="arrowUp.mouseover" end="arrowUp.mouseout"/>
                  </use>
                  <path fill="none" stroke="white" stroke-width="1.5" d="M0,-3.0v7 M-2.5,-0.5L0,-3.0L2.5,-0.5"/>
                </g>
                <g id="arrowRight" xlink:href="#dirArrow" transform="rotate(90) translate(36 -43)" onmousedown="handlePan(1,0)">
                  <use xlink:href="#rim" fill="#404040">
                        <set attributeName="fill" to="#808080" begin="arrowRight.mouseover" end="arrowRight.mouseout"/>
                  </use>
                  <path fill="none" stroke="white" stroke-width="1.5" d="M0,-3.0v7 M-2.5,-0.5L0,-3.0L2.5,-0.5"/>
                </g>
                <g id="arrowDown" xlink:href="#dirArrow" transform="rotate(180) translate(-30 -48)" onmousedown="handlePan(0,1)">
                  <use xlink:href="#rim" fill="#404040">
                        <set attributeName="fill" to="#808080" begin="arrowDown.mouseover" end="arrowDown.mouseout"/>
                  </use>
                  <path fill="none" stroke="white" stroke-width="1.5" d="M0,-3.0v7 M-2.5,-0.5L0,-3.0L2.5,-0.5"/>
                </g>
                <g id="arrowLeft" xlink:href="#dirArrow" transform="rotate(270) translate(-36 17)" onmousedown="handlePan(-1,0)">
                  <use xlink:href="#rim" fill="#404040">
                        <set attributeName="fill" to="#808080" begin="arrowLeft.mouseover" end="arrowLeft.mouseout"/>
                  </use>
                  <path fill="none" stroke="white" stroke-width="1.5" d="M0,-3.0v7 M-2.5,-0.5L0,-3.0L2.5,-0.5"/>
                </g>
        </g>
        <svg viewBox="0 0 15 15" width="100%" height="30px" preserveAspectRatio="xMaxYMin meet">
         <g id="arrow_out" transform="scale(0.3 0.3)">
          <a xlink:href="tolstoy_8c_a3c04138a5bfe5d72780bb7e82a18e627_cgraph_org.svg" target="_base">
           <rect id="button" ry="5" rx="5" y="6" x="6" height="38" width="38"
                fill="#f2f5e9" fill-opacity="0.5" stroke="#606060" stroke-width="1.0"/>
           <path id="arrow"
             d="M 11.500037,31.436501 C 11.940474,20.09759 22.043105,11.32322 32.158766,21.979434 L 37.068811,17.246167 C 37.068811,17.246167 37.088388,32 37.088388,32 L 22.160133,31.978069 C 22.160133,31.978069 26.997745,27.140456 26.997745,27.140456 C 18.528582,18.264221 13.291696,25.230495 11.500037,31.436501 z"
             style="fill:#404040;"/>
          </a>
         </g>
        </svg>
</svg>
