<?xml version="1.0" encoding="UTF-8" standalone="no"?>
<!DOCTYPE svg PUBLIC "-//W3C//DTD SVG 1.1//EN"
 "http://www.w3.org/Graphics/SVG/1.1/DTD/svg11.dtd">
<!-- Generated by graphviz version 2.26.0 (20091210.2329)
 -->
<!-- Title: c2r Pages: 1 -->
<svg width="124pt" height="70pt"
 viewBox="0.00 0.00 124.00 70.00" xmlns="http://www.w3.org/2000/svg" xmlns:xlink="http://www.w3.org/1999/xlink">
<g id="graph1" class="graph" transform="scale(1 1) rotate(0) translate(4 66)">
<title>c2r</title>
<polygon fill="white" stroke="white" points="-4,5 -4,-66 121,-66 121,5 -4,5"/>
<!-- Node1 -->
<g id="node1" class="node"><title>Node1</title>
<polygon fill="#bfbfbf" stroke="black" points="0,-20.5 0,-41.5 30,-41.5 30,-20.5 0,-20.5"/>
<text text-anchor="middle" x="15" y="-28.5" font-family="Helvetica,sans-Serif" font-size="10.00">c2r</text>
</g>
<!-- Node2 -->
<g id="node3" class="node"><title>Node2</title>
<a xlink:href="tolstoy_8c.html#a7c4354ac5dce0071bf334654b5bd1025" target="_top" xlink:title="cmag">
<polygon fill="white" stroke="black" points="70.5,-40.5 70.5,-61.5 111.5,-61.5 111.5,-40.5 70.5,-40.5"/>
<text text-anchor="middle" x="91" y="-48.5" font-family="Helvetica,sans-Serif" font-size="10.00">cmag</text>
</a>
</g>
<!-- Node1&#45;&gt;Node2 -->
<g id="edge2" class="edge"><title>Node1&#45;&gt;Node2</title>
<path fill="none" stroke="midnightblue" d="M30.0152,-34.9514C38.7353,-37.2461 50.042,-40.2216 60.547,-42.986"/>
<polygon fill="midnightblue" stroke="midnightblue" points="59.701,-46.3825 70.2625,-45.5428 61.4825,-39.613 59.701,-46.3825"/>
</g>
<!-- Node3 -->
<g id="node5" class="node"><title>Node3</title>
<a xlink:href="tolstoy_8c.html#a8deca4e136fc48b0e4de5df1e97e1942" target="_top" xlink:title="mycarg">
<polygon fill="white" stroke="black" points="66.5,-0.5 66.5,-21.5 115.5,-21.5 115.5,-0.5 66.5,-0.5"/>
<text text-anchor="middle" x="91" y="-8.5" font-family="Helvetica,sans-Serif" font-size="10.00">mycarg</text>
</a>
</g>
<!-- Node1&#45;&gt;Node3 -->
<g id="edge4" class="edge"><title>Node1&#45;&gt;Node3</title>
<path fill="none" stroke="midnightblue" d="M30.0152,-27.0486C37.6396,-25.0422 47.2415,-22.5154 56.5559,-20.0642"/>
<polygon fill="midnightblue" stroke="midnightblue" points="57.663,-23.3921 66.443,-17.4624 55.8815,-16.6226 57.663,-23.3921"/>
</g>
</g>
</svg>
