<?xml version="1.0" encoding="UTF-8" standalone="no"?>
<!DOCTYPE svg PUBLIC "-//W3C//DTD SVG 1.1//EN"
 "http://www.w3.org/Graphics/SVG/1.1/DTD/svg11.dtd">
<!-- Generated by graphviz version 2.38.0 (20140413.2041)
 -->
<!-- Title: CTRL_REG Pages: 1 -->
<svg width="161pt" height="246pt"
 viewBox="0.00 0.00 161.16 246.00" xmlns="http://www.w3.org/2000/svg" xmlns:xlink="http://www.w3.org/1999/xlink">
<g id="graph0" class="graph" transform="scale(1 1) rotate(0) translate(4 242)">
<title>CTRL_REG</title>
<polygon fill="white" stroke="none" points="-4,4 -4,-242 157.157,-242 157.157,4 -4,4"/>
<!-- Node1 -->
<g id="node1" class="node"><title>Node1</title>
<polygon fill="#bfbfbf" stroke="black" points="10.8276,-0.5 10.8276,-54.5 80.1724,-54.5 80.1724,-0.5 10.8276,-0.5"/>
<text text-anchor="middle" x="45.5" y="-42.5" font-family="Helvetica,sans-Serif" font-size="10.00">CTRL_REG</text>
<polyline fill="none" stroke="black" points="10.8276,-36.5 80.1724,-36.5 "/>
<text text-anchor="middle" x="45.5" y="-24.5" font-family="Helvetica,sans-Serif" font-size="10.00"> </text>
<polyline fill="none" stroke="black" points="10.8276,-18.5 80.1724,-18.5 "/>
<text text-anchor="middle" x="45.5" y="-6.5" font-family="Helvetica,sans-Serif" font-size="10.00"> </text>
</g>
<!-- Node2 -->
<g id="node2" class="node"><title>Node2</title>
<polygon fill="white" stroke="#bfbfbf" points="0,-181.5 0,-237.5 29,-237.5 29,-181.5 0,-181.5"/>
<polyline fill="none" stroke="#bfbfbf" points="0,-217.5 28.7783,-217.5 "/>
<text text-anchor="middle" x="14.3892" y="-205.5" font-family="Helvetica,sans-Serif" font-size="10.00"> </text>
<polyline fill="none" stroke="#bfbfbf" points="0,-199.5 28.7783,-199.5 "/>
<text text-anchor="middle" x="14.3892" y="-187.5" font-family="Helvetica,sans-Serif" font-size="10.00"> </text>
</g>
<!-- Node2&#45;&gt;Node1 -->
<g id="edge1" class="edge"><title>Node2&#45;&gt;Node1</title>
<path fill="none" stroke="#404040" d="M15.8984,-181.472C17.7259,-153.914 21.7464,-110.063 30.1689,-73 30.685,-70.7291 31.2762,-68.4122 31.9194,-66.0879"/>
<polygon fill="none" stroke="#404040" points="31.931,-66.0499 29.8732,-59.1387 35.4614,-54.581 37.5191,-61.4923 31.931,-66.0499"/>
<text text-anchor="middle" x="42.6655" y="-115" font-family="Helvetica,sans-Serif" font-size="10.00"> +@3</text>
</g>
<!-- Node3 -->
<g id="node3" class="node"><title>Node3</title>
<polygon fill="white" stroke="#bfbfbf" points="47.4771,-182.5 47.4771,-236.5 105.523,-236.5 105.523,-182.5 47.4771,-182.5"/>
<text text-anchor="middle" x="76.5" y="-224.5" font-family="Helvetica,sans-Serif" font-size="10.00">USHORT</text>
<polyline fill="none" stroke="#bfbfbf" points="47.4771,-218.5 105.523,-218.5 "/>
<text text-anchor="middle" x="76.5" y="-206.5" font-family="Helvetica,sans-Serif" font-size="10.00"> </text>
<polyline fill="none" stroke="#bfbfbf" points="47.4771,-200.5 105.523,-200.5 "/>
<text text-anchor="middle" x="76.5" y="-188.5" font-family="Helvetica,sans-Serif" font-size="10.00"> </text>
</g>
<!-- Node3&#45;&gt;Node1 -->
<g id="edge2" class="edge"><title>Node3&#45;&gt;Node1</title>
<path fill="none" stroke="#404040" d="M72.5795,-182.473C68.3931,-155.155 61.4218,-110.983 54.5,-73 54.1308,-70.9742 53.7433,-68.8984 53.3449,-66.8039"/>
<polygon fill="none" stroke="#404040" points="53.3047,-66.5983 48.2262,-61.4789 50.9985,-54.8219 56.077,-59.9413 53.3047,-66.5983"/>
<text text-anchor="middle" x="111.329" y="-155" font-family="Helvetica,sans-Serif" font-size="10.00"> +CTRLlow</text>
<text text-anchor="middle" x="111.329" y="-145" font-family="Helvetica,sans-Serif" font-size="10.00">+INT</text>
<text text-anchor="middle" x="111.329" y="-135" font-family="Helvetica,sans-Serif" font-size="10.00">+reg</text>
<text text-anchor="middle" x="111.329" y="-125" font-family="Helvetica,sans-Serif" font-size="10.00">+CStoCTRLlow</text>
<text text-anchor="middle" x="111.329" y="-115" font-family="Helvetica,sans-Serif" font-size="10.00">+CTRLlowDvalid</text>
<text text-anchor="middle" x="111.329" y="-105" font-family="Helvetica,sans-Serif" font-size="10.00">+RESERVED</text>
<text text-anchor="middle" x="111.329" y="-95" font-family="Helvetica,sans-Serif" font-size="10.00">+AtoCSlow</text>
<text text-anchor="middle" x="111.329" y="-85" font-family="Helvetica,sans-Serif" font-size="10.00">+CShighREC</text>
<text text-anchor="middle" x="111.329" y="-75" font-family="Helvetica,sans-Serif" font-size="10.00">+CTRLhighCShigh</text>
</g>
</g>
</svg>
