<?xml version="1.0" encoding="UTF-8" standalone="no"?>
<!DOCTYPE svg PUBLIC "-//W3C//DTD SVG 1.1//EN"
 "http://www.w3.org/Graphics/SVG/1.1/DTD/svg11.dtd">
<!-- Generated by graphviz version 2.36.0 (20140111.2315)
 -->
<!-- Title: core/common/trapgen/debugger/WatchpointManager.hpp Pages: 1 -->
<svg width="312pt" height="152pt"
 viewBox="0.00 0.00 312.00 152.00" xmlns="http://www.w3.org/2000/svg" xmlns:xlink="http://www.w3.org/1999/xlink">
<g id="graph0" class="graph" transform="scale(1 1) rotate(0) translate(4 148)">
<title>core/common/trapgen/debugger/WatchpointManager.hpp</title>
<polygon fill="white" stroke="none" points="-4,4 -4,-148 308,-148 308,4 -4,4"/>
<!-- Node1 -->
<g id="node1" class="node"><title>Node1</title>
<polygon fill="#bfbfbf" stroke="black" points="39,-113 39,-143 207,-143 207,-113 39,-113"/>
<text text-anchor="start" x="47" y="-131" font-family="Helvetica,sans-Serif" font-size="10.00">core/common/trapgen</text>
<text text-anchor="middle" x="123" y="-120" font-family="Helvetica,sans-Serif" font-size="10.00">/debugger/WatchpointManager.hpp</text>
</g>
<!-- Node2 -->
<g id="node2" class="node"><title>Node2</title>
<polygon fill="white" stroke="#bfbfbf" points="0,-56.5 0,-75.5 54,-75.5 54,-56.5 0,-56.5"/>
<text text-anchor="middle" x="27" y="-63.5" font-family="Helvetica,sans-Serif" font-size="10.00">iostream</text>
</g>
<!-- Node1&#45;&gt;Node2 -->
<g id="edge1" class="edge"><title>Node1&#45;&gt;Node2</title>
<path fill="none" stroke="midnightblue" d="M100.249,-112.781C84.9132,-103.196 64.7699,-90.6062 49.4889,-81.0555"/>
<polygon fill="midnightblue" stroke="midnightblue" points="51.0241,-77.8877 40.6891,-75.5557 47.3141,-83.8237 51.0241,-77.8877"/>
</g>
<!-- Node3 -->
<g id="node3" class="node"><title>Node3</title>
<polygon fill="white" stroke="#bfbfbf" points="72.5,-56.5 72.5,-75.5 113.5,-75.5 113.5,-56.5 72.5,-56.5"/>
<text text-anchor="middle" x="93" y="-63.5" font-family="Helvetica,sans-Serif" font-size="10.00">string</text>
</g>
<!-- Node1&#45;&gt;Node3 -->
<g id="edge2" class="edge"><title>Node1&#45;&gt;Node3</title>
<path fill="none" stroke="midnightblue" d="M115.89,-112.781C111.711,-104.422 106.389,-93.7773 101.928,-84.8565"/>
<polygon fill="midnightblue" stroke="midnightblue" points="104.968,-83.1095 97.3653,-75.7305 98.707,-86.2401 104.968,-83.1095"/>
</g>
<!-- Node4 -->
<g id="node4" class="node"><title>Node4</title>
<polygon fill="white" stroke="#bfbfbf" points="132,-56.5 132,-75.5 176,-75.5 176,-56.5 132,-56.5"/>
<text text-anchor="middle" x="154" y="-63.5" font-family="Helvetica,sans-Serif" font-size="10.00">vector</text>
</g>
<!-- Node1&#45;&gt;Node4 -->
<g id="edge3" class="edge"><title>Node1&#45;&gt;Node4</title>
<path fill="none" stroke="midnightblue" d="M130.347,-112.781C134.665,-104.422 140.165,-93.7773 144.774,-84.8565"/>
<polygon fill="midnightblue" stroke="midnightblue" points="148.008,-86.2214 149.489,-75.7305 141.789,-83.0082 148.008,-86.2214"/>
</g>
<!-- Node5 -->
<g id="node5" class="node"><title>Node5</title>
<g id="a_node5"><a xlink:href="vmap_8h.html" target="_top" xlink:title="core/common/vmap.h">
<polygon fill="white" stroke="black" points="193.5,-56.5 193.5,-75.5 304.5,-75.5 304.5,-56.5 193.5,-56.5"/>
<text text-anchor="middle" x="249" y="-63.5" font-family="Helvetica,sans-Serif" font-size="10.00">core/common/vmap.h</text>
</a>
</g>
</g>
<!-- Node1&#45;&gt;Node5 -->
<g id="edge4" class="edge"><title>Node1&#45;&gt;Node5</title>
<path fill="none" stroke="midnightblue" d="M152.541,-112.933C173.514,-102.946 201.457,-89.6397 221.867,-79.9205"/>
<polygon fill="midnightblue" stroke="midnightblue" points="223.416,-83.0594 230.94,-75.6 220.407,-76.7394 223.416,-83.0594"/>
</g>
<!-- Node6 -->
<g id="node6" class="node"><title>Node6</title>
<polygon fill="white" stroke="#bfbfbf" points="231.5,-0.5 231.5,-19.5 266.5,-19.5 266.5,-0.5 231.5,-0.5"/>
<text text-anchor="middle" x="249" y="-7.5" font-family="Helvetica,sans-Serif" font-size="10.00">map</text>
</g>
<!-- Node5&#45;&gt;Node6 -->
<g id="edge5" class="edge"><title>Node5&#45;&gt;Node6</title>
<path fill="none" stroke="midnightblue" d="M249,-56.083C249,-49.0059 249,-38.8611 249,-29.9865"/>
<polygon fill="midnightblue" stroke="midnightblue" points="252.5,-29.751 249,-19.7511 245.5,-29.7511 252.5,-29.751"/>
</g>
</g>
</svg>
